<svg xmlns="http://www.w3.org/2000/svg" viewBox="0 0 512 512"><path d="M245.870 0.903 C 235.588 2.742,224.337 8.794,216.410 16.749 C 205.935 27.262,200.401 40.384,200.258 55.040 C 200.155 65.599,201.340 70.735,206.238 80.971 C 212.501 94.056,223.491 103.709,238.221 109.062 C 243.841 111.105,245.656 111.337,256.000 111.337 C 266.344 111.337,268.159 111.105,273.779 109.062 C 282.886 105.753,288.861 101.925,295.862 94.916 C 300.791 89.982,302.830 87.101,305.827 80.836 C 310.660 70.736,311.845 65.568,311.742 55.040 C 311.508 30.973,295.635 9.880,272.213 2.511 C 265.761 0.481,252.690 -0.317,245.870 0.903 M60.216 124.048 C 58.120 130.680,54.507 142.166,52.186 149.573 L 47.967 163.039 51.077 164.351 C 72.873 173.545,97.013 182.387,151.040 200.967 C 171.925 208.150,190.394 214.543,192.082 215.173 L 195.150 216.320 169.681 355.413 C 155.672 431.915,144.357 494.896,144.535 495.372 C 144.852 496.220,199.717 512.247,200.301 511.663 C 200.583 511.381,245.760 337.403,245.760 336.599 C 245.760 336.387,250.326 336.213,255.907 336.213 C 265.718 336.213,266.071 336.277,266.540 338.133 C 271.868 359.214,311.482 511.447,311.696 511.660 C 312.282 512.246,367.147 496.222,367.465 495.372 C 367.643 494.896,356.333 431.916,342.331 355.417 L 316.873 216.328 355.343 203.443 C 376.502 196.356,400.849 188.004,409.449 184.884 C 423.656 179.729,462.182 164.973,463.464 164.196 C 463.756 164.019,461.591 156.091,458.653 146.577 C 455.715 137.064,452.114 125.389,450.650 120.632 L 447.988 111.985 438.821 114.469 C 355.108 137.159,314.373 143.663,256.000 143.663 C 197.628 143.663,156.890 137.158,73.186 114.471 L 64.026 111.989 60.216 124.048 " stroke="none" fill-rule="evenodd" fill="black"></path></svg>