<svg xmlns="http://www.w3.org/2000/svg" viewBox="0 0 512 512"><path d="M243.627 1.345 C 223.914 5.698,207.206 21.842,201.726 41.828 C 199.335 50.552,199.712 64.247,202.588 73.143 C 210.010 96.094,231.700 111.787,256.000 111.787 C 280.299 111.787,301.979 96.102,309.415 73.143 C 312.271 64.325,312.638 50.642,310.253 41.828 C 305.265 23.385,290.681 8.161,272.640 2.563 C 264.708 0.102,251.724 -0.443,243.627 1.345 M267.674 35.230 C 272.175 38.085,275.234 41.301,277.590 45.653 C 279.040 48.334,279.440 50.533,279.452 55.893 C 279.465 61.966,279.174 63.238,276.819 67.413 C 275.363 69.995,272.554 73.351,270.576 74.873 C 255.609 86.384,234.034 76.913,232.344 58.088 C 231.549 49.235,235.558 40.889,242.830 36.259 C 248.348 32.744,249.490 32.466,257.280 32.733 C 262.956 32.928,264.708 33.349,267.674 35.230 M81.920 112.379 C 73.347 113.344,64.489 118.094,57.755 125.336 C 47.627 136.229,45.123 153.713,51.648 167.967 C 54.858 174.977,63.867 183.390,72.687 187.612 C 76.592 189.482,100.907 197.801,126.720 206.099 C 152.533 214.397,176.135 222.396,179.169 223.873 C 183.141 225.808,185.410 227.596,187.276 230.259 C 189.772 233.824,189.878 234.349,190.171 244.668 C 190.729 264.310,189.388 271.332,163.046 386.676 C 152.688 432.031,144.223 470.815,144.234 472.863 C 144.307 485.771,153.503 500.771,165.204 507.065 C 173.520 511.539,184.113 513.088,192.758 511.095 C 203.534 508.611,214.820 499.395,219.868 488.960 C 221.343 485.909,229.739 461.141,238.525 433.920 C 247.310 406.699,254.864 383.467,255.310 382.293 C 255.997 380.486,257.747 385.177,266.771 413.013 C 287.375 476.570,290.862 486.864,293.189 491.003 C 300.150 503.385,314.259 511.961,327.714 511.990 C 349.976 512.038,369.334 491.997,367.571 470.728 C 367.332 467.849,358.803 429.013,348.616 384.427 C 324.060 276.940,321.755 265.395,321.722 249.765 C 321.695 236.663,323.782 232.391,332.520 227.660 C 334.786 226.433,358.528 217.494,385.280 207.796 C 412.032 198.097,437.018 188.650,440.804 186.802 C 449.943 182.341,456.585 176.344,459.943 169.524 C 471.577 145.892,457.024 117.102,431.140 112.543 C 424.291 111.336,416.722 112.541,403.347 116.966 C 380.670 124.468,345.055 133.338,320.000 137.723 C 272.661 146.010,239.600 146.014,192.000 137.738 C 166.913 133.377,133.415 125.062,107.093 116.663 C 95.478 112.957,88.039 111.691,81.920 112.379 M93.520 145.953 C 111.382 152.121,149.292 162.007,173.227 166.740 C 234.396 178.837,278.115 178.831,338.773 166.718 C 363.353 161.810,397.016 152.985,416.363 146.377 C 423.907 143.801,426.668 143.676,429.284 145.795 C 430.813 147.033,431.250 148.277,431.299 151.522 C 431.358 155.500,431.221 155.745,427.931 157.576 C 426.045 158.625,402.621 167.416,375.877 177.112 C 321.115 196.966,313.463 200.392,304.192 209.198 C 293.656 219.206,289.960 229.881,289.911 250.453 C 289.863 269.969,291.421 278.009,316.674 388.624 C 326.951 433.643,335.360 471.396,335.360 472.521 C 335.360 479.801,326.124 482.368,321.801 476.289 C 319.323 472.805,279.662 349.172,275.222 331.093 C 273.090 322.411,270.797 314.097,270.127 312.618 C 268.508 309.047,264.167 305.851,259.256 304.617 C 253.911 303.274,247.785 305.213,244.093 309.418 C 242.663 311.047,241.493 312.488,241.493 312.620 C 241.493 312.752,239.220 321.667,236.442 332.430 C 232.213 348.816,193.537 470.841,191.172 475.259 C 189.780 477.860,187.026 479.683,184.376 479.759 C 181.136 479.851,176.640 475.954,176.640 473.054 C 176.640 471.990,185.252 433.374,195.777 387.240 C 206.303 341.106,216.260 296.448,217.905 288.000 C 224.402 254.638,224.204 233.107,217.262 218.027 C 212.961 208.682,203.742 199.960,192.487 194.589 C 189.578 193.201,165.731 185.113,139.493 176.616 C 113.255 168.119,89.937 160.371,87.676 159.398 C 80.533 156.325,78.047 150.469,82.069 146.188 C 84.357 143.753,86.989 143.699,93.520 145.953 " fill="black" stroke="none" fill-rule="evenodd"></path></svg>