<svg xmlns="http://www.w3.org/2000/svg" viewBox="0 0 512 512"><path d="M245.870 0.903 C 235.588 2.742,224.337 8.794,216.410 16.749 C 205.935 27.262,200.401 40.384,200.258 55.040 C 200.155 65.599,201.340 70.735,206.238 80.971 C 212.501 94.056,223.491 103.709,238.221 109.062 C 243.841 111.105,245.656 111.337,256.000 111.337 C 266.344 111.337,268.159 111.105,273.779 109.062 C 282.886 105.753,288.861 101.925,295.862 94.916 C 300.791 89.982,302.830 87.101,305.827 80.836 C 310.660 70.736,311.845 65.568,311.742 55.040 C 311.508 30.973,295.635 9.880,272.213 2.511 C 265.761 0.481,252.690 -0.317,245.870 0.903 M69.973 112.570 C 57.591 115.155,48.523 128.231,48.326 143.787 C 48.213 152.763,50.446 157.927,57.072 164.006 C 65.476 171.717,75.307 175.594,128.000 191.978 C 154.048 200.078,177.123 207.595,179.277 208.684 C 184.731 211.441,188.221 215.701,189.355 220.988 C 190.639 226.974,190.506 237.523,189.005 248.747 C 188.315 253.909,186.570 267.349,185.127 278.613 C 183.562 290.826,175.809 335.832,165.918 390.108 C 156.797 440.166,149.333 482.871,149.333 485.009 C 149.333 500.940,164.931 513.056,183.829 511.806 C 191.772 511.280,197.764 508.620,202.564 503.488 C 210.031 495.506,211.539 491.026,217.600 458.842 C 232.616 379.100,247.188 325.759,254.749 322.857 C 262.197 319.999,275.217 364.102,292.795 451.727 C 296.548 470.438,300.425 487.910,301.410 490.554 C 306.374 503.879,315.335 510.983,328.231 511.818 C 347.118 513.041,362.667 500.726,362.667 484.542 C 362.667 482.752,355.150 441.062,345.963 391.897 C 333.174 323.453,328.476 296.408,325.915 276.480 C 324.076 262.165,322.365 249.573,322.113 248.498 C 321.862 247.422,321.640 241.644,321.619 235.657 C 321.571 221.410,322.589 218.647,329.539 214.155 C 335.262 210.456,334.726 210.658,393.214 190.213 C 417.289 181.797,439.983 173.406,443.644 171.565 C 463.013 161.826,468.705 146.874,460.068 128.418 C 456.935 121.723,453.465 117.830,447.958 114.833 C 441.380 111.252,436.218 111.521,419.413 116.321 C 367.802 131.061,313.992 141.399,273.920 144.272 C 245.066 146.340,210.421 143.061,164.267 133.892 C 144.954 130.055,104.334 120.193,89.600 115.764 C 78.314 112.372,74.162 111.696,69.973 112.570 " stroke="none" fill-rule="evenodd" fill="black"></path></svg>