<svg xmlns="http://www.w3.org/2000/svg" width="512" height="512" viewBox="0 0 512 512"><path d="M247.743 98.579 C 245.783 99.754,243.287 102.150,242.196 103.904 L 240.213 107.093 239.980 173.415 L 239.746 239.737 173.420 239.975 L 107.093 240.213 103.484 242.560 C 93.758 248.883,93.975 263.631,103.886 269.792 L 107.093 271.787 173.420 272.020 L 239.746 272.254 239.980 338.580 L 240.213 404.907 242.208 408.114 C 248.440 418.138,263.560 418.138,269.792 408.114 L 271.787 404.907 272.020 338.580 L 272.254 272.254 338.580 272.020 L 404.907 271.787 408.114 269.792 C 418.362 263.421,418.169 248.294,407.764 242.337 L 404.053 240.213 338.154 239.980 L 272.254 239.746 272.020 173.420 L 271.787 107.093 269.792 103.886 C 265.287 96.639,255.078 94.182,247.743 98.579 " stroke="none" fill="black" fill-rule="evenodd"></path></svg>