<svg xmlns="http://www.w3.org/2000/svg" width="512" height="512" viewBox="0 0 512 512"><path d="M135.682 48.427 C 135.683 48.779,152.309 85.739,172.627 130.560 L 209.570 212.053 200.572 212.596 C 195.623 212.894,173.826 213.375,152.136 213.663 L 112.698 214.188 90.696 187.325 L 68.693 160.463 42.437 160.445 L 16.181 160.427 16.626 162.347 C 20.455 178.868,36.927 255.061,36.872 256.000 C 36.831 256.704,32.166 278.202,26.505 303.774 C 20.845 329.346,16.213 350.754,16.213 351.348 C 16.213 352.193,21.737 352.427,41.763 352.427 L 67.313 352.427 89.337 325.808 C 101.449 311.167,111.744 298.700,112.213 298.104 C 112.903 297.227,122.166 297.232,160.645 298.132 C 186.813 298.744,208.465 299.487,208.761 299.784 C 209.058 300.080,192.735 336.910,172.490 381.629 C 152.244 426.347,135.680 463.223,135.680 463.574 C 135.680 463.926,149.690 464.213,166.813 464.213 L 197.946 464.213 206.280 454.182 C 210.863 448.665,240.897 412.171,273.021 373.084 L 331.429 302.018 338.451 302.588 C 342.313 302.901,364.989 303.203,388.843 303.259 C 435.976 303.369,437.906 303.223,455.253 298.237 C 480.803 290.894,495.787 275.348,495.787 256.182 C 495.787 245.004,492.150 236.993,483.329 228.742 C 473.476 219.524,457.036 213.037,435.200 209.749 C 426.862 208.494,393.063 208.297,355.780 209.287 L 331.399 209.935 264.638 128.861 L 197.877 47.787 166.778 47.787 C 149.674 47.787,135.681 48.075,135.682 48.427 " stroke="none" fill-rule="evenodd" fill="black"></path></svg>