<svg xmlns="http://www.w3.org/2000/svg" width="512" height="512" viewBox="0 0 512 512"><path d="M154.986 49.040 C 150.772 50.543,146.229 54.932,144.984 58.705 C 144.451 60.319,144.202 63.418,144.431 65.593 C 144.725 68.396,154.266 90.279,177.220 140.800 L 209.595 212.053 201.437 212.586 C 196.951 212.878,175.160 213.356,153.013 213.647 L 112.746 214.175 94.998 192.634 C 85.237 180.787,76.094 169.994,74.679 168.651 C 73.264 167.308,69.611 165.004,66.560 163.531 L 61.013 160.853 44.580 160.589 C 28.893 160.337,27.992 160.412,24.752 162.233 C 19.723 165.060,16.802 169.774,16.444 175.642 C 16.194 179.751,17.736 186.158,26.677 218.179 L 37.205 255.877 26.736 293.272 C 20.173 316.716,16.257 332.195,16.240 334.762 C 16.192 342.144,21.350 349.045,28.505 351.170 C 33.422 352.630,49.410 352.837,58.278 351.555 C 69.189 349.977,70.629 348.692,95.571 318.293 C 104.621 307.264,112.259 297.973,112.546 297.647 C 113.197 296.904,207.977 298.999,208.751 299.773 C 209.062 300.085,194.818 332.315,177.098 371.396 C 159.377 410.478,144.681 443.869,144.441 445.599 C 143.762 450.480,144.899 454.577,147.875 457.966 C 152.737 463.503,155.414 464.173,172.744 464.195 C 191.040 464.217,195.999 463.180,201.735 458.131 C 203.791 456.321,233.828 420.456,268.484 378.432 L 331.494 302.024 338.400 302.584 C 342.198 302.892,364.859 303.193,388.759 303.252 C 435.990 303.369,437.897 303.226,455.253 298.237 C 470.671 293.806,484.375 284.916,490.332 275.480 C 497.276 264.482,497.531 248.744,490.948 237.489 C 485.734 228.575,472.243 219.309,457.813 214.731 C 439.936 209.060,425.593 207.819,386.133 208.529 C 369.237 208.834,350.037 209.316,343.467 209.602 L 331.520 210.122 267.376 132.155 C 219.280 73.693,202.286 53.600,199.450 51.842 C 197.370 50.552,193.638 49.112,191.157 48.642 C 184.277 47.337,158.983 47.616,154.986 49.040 " stroke="none" fill-rule="evenodd" fill="black"></path></svg>