<svg xmlns="http://www.w3.org/2000/svg" width="512" height="512" viewBox="0 0 512 512"><path d="M156.587 48.536 C 152.728 49.533,150.688 50.831,147.786 54.136 C 144.893 57.430,143.767 61.557,144.440 66.401 C 144.680 68.131,159.425 101.611,177.206 140.800 L 209.535 212.053 203.541 212.567 C 200.244 212.849,178.369 213.233,154.929 213.420 L 112.312 213.760 95.807 193.707 C 75.235 168.712,73.618 167.041,66.690 163.628 C 61.085 160.867,60.987 160.852,46.195 160.568 C 38.020 160.411,30.019 160.528,28.415 160.829 C 24.887 161.491,18.943 166.652,17.363 170.426 C 16.731 171.936,16.215 174.816,16.216 176.826 C 16.218 178.880,20.811 196.973,26.706 218.148 L 37.193 255.816 26.733 293.241 C 20.213 316.566,16.261 332.207,16.243 334.754 C 16.195 341.396,20.837 348.384,26.880 350.768 C 30.595 352.233,48.831 352.798,56.989 351.700 C 69.326 350.040,70.348 349.143,96.853 316.685 L 113.067 296.831 125.867 297.312 C 132.907 297.576,151.531 297.998,167.253 298.250 C 182.976 298.502,198.946 298.920,202.741 299.179 L 209.643 299.650 177.224 371.052 C 141.328 450.112,142.071 448.089,146.129 455.668 C 147.679 458.564,149.306 460.087,152.809 461.921 L 157.440 464.347 174.933 464.045 C 195.062 463.697,197.076 463.134,204.124 455.877 C 206.280 453.657,235.735 418.240,269.579 377.173 L 331.114 302.507 350.091 302.933 C 360.527 303.168,383.275 303.353,400.640 303.344 C 434.732 303.327,438.901 302.937,455.253 298.237 C 473.265 293.060,486.107 283.772,492.147 271.550 C 495.251 265.268,495.360 264.743,495.360 256.000 C 495.360 247.266,495.249 246.727,492.163 240.483 C 484.522 225.022,466.706 214.876,439.014 210.215 C 431.246 208.908,424.934 208.640,401.920 208.640 C 386.667 208.640,364.566 208.940,352.807 209.308 L 331.426 209.975 267.308 132.081 C 232.044 89.239,201.921 53.345,200.369 52.316 C 198.817 51.287,196.395 49.973,194.987 49.395 C 192.032 48.182,160.671 47.480,156.587 48.536 M245.374 155.733 C 275.806 192.811,303.542 226.513,307.010 230.628 C 313.330 238.128,316.301 240.363,321.525 241.546 C 323.068 241.895,343.228 241.636,366.325 240.970 C 397.382 240.075,411.702 239.991,421.304 240.647 C 441.197 242.006,456.503 246.425,461.660 252.297 C 463.064 253.897,464.213 255.547,464.213 255.964 C 464.213 256.381,463.165 257.968,461.885 259.490 C 457.282 264.960,442.747 269.665,424.960 271.443 C 417.467 272.192,404.429 272.167,369.823 271.335 C 344.895 270.736,323.087 270.475,321.361 270.755 C 319.635 271.035,316.904 272.079,315.292 273.076 C 313.575 274.137,286.875 305.794,250.802 349.540 C 216.944 390.600,189.109 424.060,188.945 423.896 C 188.781 423.732,202.059 394.013,218.452 357.854 C 234.844 321.695,248.499 290.593,248.796 288.739 C 249.949 281.530,245.384 272.983,238.636 269.716 C 234.889 267.902,233.233 267.809,184.159 266.639 C 116.563 265.029,104.302 265.036,100.352 266.686 C 95.397 268.756,91.758 272.589,72.023 296.527 C 61.792 308.938,53.314 318.985,53.184 318.855 C 53.054 318.725,56.583 305.585,61.028 289.656 C 66.878 268.686,69.110 259.351,69.114 255.829 C 69.118 252.286,66.938 243.133,61.085 222.123 C 56.665 206.259,53.164 193.166,53.303 193.026 C 53.443 192.886,60.419 201.140,68.805 211.367 C 92.830 240.666,93.546 241.441,98.845 243.867 L 103.558 246.024 130.072 245.828 C 144.655 245.719,174.251 245.327,195.840 244.956 C 239.550 244.205,238.744 244.317,244.234 238.240 C 247.965 234.110,249.489 229.719,248.991 224.534 C 248.716 221.674,240.593 202.906,219.766 157.007 C 186.566 83.839,187.221 85.321,188.838 87.040 C 189.500 87.744,214.941 118.656,245.374 155.733 " stroke="none" fill-rule="evenodd" fill="black"></path></svg>