<svg xmlns="http://www.w3.org/2000/svg" width="512" height="512" viewBox="0 0 512 512"><path d="M100.267 65.219 C 87.848 67.678,79.147 72.165,69.863 80.899 C 58.162 91.907,51.727 103.838,48.988 119.604 C 47.431 128.571,47.837 138.637,50.059 146.126 C 53.354 157.230,62.413 170.151,69.317 173.591 C 74.782 176.315,81.523 176.510,86.837 174.098 C 89.374 172.947,100.288 162.818,122.904 140.624 C 158.509 105.684,159.573 104.373,159.573 95.461 C 159.573 89.923,158.713 87.130,155.627 82.642 C 151.734 76.984,138.272 68.854,128.373 66.183 C 121.189 64.245,107.550 63.777,100.267 65.219 M391.253 64.552 C 381.308 66.153,372.299 69.896,363.366 76.137 C 355.600 81.563,352.427 87.169,352.427 95.461 C 352.427 104.385,353.480 105.683,389.093 140.624 C 411.701 162.806,422.630 172.949,425.164 174.099 C 430.476 176.510,437.218 176.315,442.683 173.591 C 449.587 170.151,458.646 157.230,461.941 146.126 C 464.163 138.637,464.569 128.571,463.012 119.604 C 460.259 103.756,453.843 91.911,441.952 80.725 C 434.474 73.690,425.262 68.501,416.000 66.107 C 410.755 64.751,395.838 63.813,391.253 64.552 M119.370 97.202 C 120.258 97.765,115.707 102.716,101.147 117.029 C 90.474 127.522,81.397 136.235,80.977 136.391 C 79.809 136.826,80.088 126.411,81.373 121.600 C 84.470 110.008,92.679 100.781,102.677 97.655 C 106.756 96.379,117.606 96.085,119.370 97.202 M232.107 97.714 C 201.759 101.877,170.749 115.060,147.200 133.808 C 110.155 163.302,86.819 205.220,81.089 252.564 C 79.044 269.453,80.525 294.274,84.627 311.893 C 90.116 335.471,101.912 360.443,116.160 378.648 C 118.448 381.572,120.320 384.249,120.320 384.598 C 120.320 384.947,111.704 393.883,101.174 404.456 C 90.643 415.029,81.619 424.761,81.120 426.082 C 77.536 435.575,84.203 446.652,94.177 447.776 C 101.510 448.603,103.099 447.486,123.773 426.978 C 134.355 416.482,143.253 407.893,143.547 407.893 C 143.840 407.893,147.369 410.374,151.388 413.405 C 180.461 435.332,218.767 448.000,256.000 448.000 C 295.010 448.000,332.384 435.087,365.025 410.331 L 368.663 407.572 388.065 426.817 C 408.912 447.497,410.483 448.603,417.823 447.776 C 427.949 446.635,434.496 435.766,430.893 426.082 C 430.401 424.761,421.331 414.991,410.738 404.372 C 396.520 390.119,391.672 384.751,392.219 383.870 C 392.626 383.214,395.096 379.807,397.706 376.298 C 415.472 352.421,427.123 323.076,430.890 292.716 C 432.173 282.368,431.969 258.780,430.506 248.488 C 426.224 218.366,414.645 190.059,396.968 166.500 C 390.902 158.416,376.258 143.168,367.792 136.123 C 343.325 115.762,311.436 101.915,279.309 97.704 C 267.493 96.155,243.437 96.160,232.107 97.714 M413.189 99.253 C 421.313 103.228,428.012 111.813,430.627 121.600 C 431.912 126.411,432.191 136.826,431.023 136.391 C 430.603 136.235,421.526 127.522,410.853 117.029 C 395.995 102.423,391.724 97.763,392.630 97.148 C 393.281 96.706,397.108 96.477,401.136 96.641 C 406.968 96.878,409.421 97.409,413.189 99.253 M277.760 129.809 C 318.943 135.927,356.414 160.788,378.570 196.693 C 392.717 219.619,399.488 243.908,399.503 271.787 C 399.514 291.626,396.946 306.261,390.478 323.209 C 369.268 378.787,316.161 415.542,256.843 415.694 C 224.056 415.778,194.987 406.113,168.876 386.444 C 150.634 372.704,134.627 352.483,124.956 330.965 C 109.680 296.977,108.286 257.165,121.141 222.067 C 131.852 192.825,153.766 165.986,180.046 149.922 C 200.740 137.274,221.067 130.652,245.760 128.515 C 251.532 128.015,270.979 128.802,277.760 129.809 M249.584 145.356 C 246.045 146.962,241.769 152.044,240.691 155.923 C 240.115 157.997,239.794 176.414,239.791 207.573 L 239.787 256.000 206.293 256.019 C 175.427 256.036,172.525 256.163,169.288 257.633 C 160.141 261.786,157.386 274.546,164.009 282.089 C 169.445 288.280,166.989 288.000,215.893 288.000 C 258.806 288.000,259.920 287.958,263.253 286.217 C 265.131 285.237,267.819 282.804,269.227 280.810 L 271.787 277.186 271.787 215.971 L 271.787 154.755 269.730 151.754 C 266.506 147.048,262.540 144.779,256.987 144.462 C 254.137 144.299,251.105 144.665,249.584 145.356 " stroke="none" fill-rule="evenodd" fill="black"></path></svg>