<svg xmlns="http://www.w3.org/2000/svg" width="512" height="512" viewBox="0 0 512 512"><path d="M100.267 65.189 C 81.588 68.791,64.488 81.969,55.571 99.633 C 50.601 109.479,48.430 118.659,48.359 130.133 C 48.290 141.195,49.449 146.753,53.511 154.844 C 58.578 164.937,68.784 175.993,77.235 180.544 L 80.022 182.045 123.991 139.052 L 167.960 96.059 166.715 93.651 C 166.030 92.326,163.087 88.829,160.175 85.879 C 143.783 69.273,120.602 61.267,100.267 65.189 M390.625 64.823 C 381.520 66.487,371.595 70.769,362.240 77.068 C 356.418 80.988,347.142 90.060,345.285 93.651 L 344.040 96.059 388.009 139.052 L 431.978 182.045 434.765 180.544 C 443.216 175.993,453.422 164.937,458.489 154.844 C 462.551 146.753,463.710 141.195,463.641 130.133 C 463.548 115.064,459.715 103.172,450.988 90.880 C 442.429 78.824,429.683 69.888,415.669 66.116 C 409.784 64.533,396.083 63.825,390.625 64.823 M234.322 97.398 C 203.931 101.298,174.030 113.574,149.145 132.367 C 140.070 139.221,123.008 156.284,116.154 165.359 C 96.538 191.332,84.288 222.276,80.990 254.186 C 79.612 267.512,80.423 290.485,82.701 302.683 C 87.714 329.519,99.017 355.725,114.371 376.113 C 117.643 380.457,120.320 384.360,120.320 384.785 C 120.320 385.210,109.664 395.948,96.640 408.646 L 72.960 431.735 84.471 443.284 L 95.983 454.833 119.885 430.990 L 143.787 407.146 146.773 409.720 C 152.268 414.457,168.442 424.798,177.185 429.165 C 200.465 440.793,223.468 446.690,249.600 447.731 C 289.305 449.311,329.472 436.891,360.612 413.405 C 364.631 410.374,368.175 407.893,368.487 407.893 C 368.800 407.893,379.618 418.437,392.528 431.323 L 416.000 454.753 427.947 443.333 L 439.893 431.913 436.053 428.125 C 433.941 426.041,423.189 415.563,412.160 404.841 C 401.131 394.118,391.995 385.092,391.859 384.784 C 391.723 384.475,394.041 381.003,397.009 377.067 C 408.371 362.003,416.517 346.371,422.781 327.614 C 429.279 308.151,431.744 292.958,431.770 272.191 C 431.805 244.623,427.157 222.971,416.428 200.715 C 392.573 151.234,341.106 109.304,292.693 99.911 C 287.765 98.955,280.479 97.780,276.502 97.300 C 267.943 96.266,242.685 96.325,234.322 97.398 M272.005 216.107 L 271.787 288.000 216.107 288.220 L 160.427 288.439 160.427 272.220 L 160.427 256.000 200.107 256.000 L 239.787 256.000 239.787 200.107 L 239.787 144.213 256.005 144.213 L 272.223 144.213 272.005 216.107 " stroke="none" fill-rule="evenodd" fill="black"></path></svg>