<svg xmlns="http://www.w3.org/2000/svg" width="512" height="512" viewBox="0 0 512 512"><path d="M100.267 65.191 C 81.316 68.840,64.500 81.980,55.169 100.431 C 50.632 109.401,48.439 118.946,48.343 130.133 C 48.217 144.903,50.966 152.983,60.300 165.283 C 63.759 169.840,66.084 171.981,69.339 173.603 C 74.781 176.314,81.533 176.506,86.836 174.099 C 89.372 172.948,100.387 162.717,123.279 140.251 C 159.181 105.017,159.695 104.378,159.695 94.980 C 159.695 87.861,156.433 81.900,149.874 77.033 C 143.617 72.390,134.602 67.974,127.573 66.108 C 120.474 64.224,107.543 63.790,100.267 65.191 M388.267 65.235 C 378.057 67.430,370.651 70.780,362.126 77.061 C 352.831 83.909,349.619 94.739,354.073 104.214 C 356.565 109.516,419.770 171.651,425.160 174.097 C 430.512 176.526,437.214 176.317,442.772 173.547 C 446.178 171.850,448.365 169.836,451.806 165.227 C 461.053 152.844,463.733 144.898,463.641 130.133 C 463.548 115.064,459.715 103.172,450.988 90.880 C 442.432 78.828,429.709 69.906,415.669 66.110 C 408.725 64.234,394.969 63.794,388.267 65.235 M234.322 97.398 C 203.970 101.293,173.712 113.709,149.320 132.277 C 127.997 148.509,110.327 170.146,98.110 194.987 C 88.854 213.808,83.111 233.666,80.990 254.186 C 79.612 267.512,80.423 290.485,82.701 302.683 C 87.714 329.519,99.017 355.725,114.371 376.113 C 117.643 380.457,120.320 384.287,120.320 384.622 C 120.320 384.958,111.518 394.076,100.759 404.883 C 79.520 426.219,79.469 426.295,80.430 434.821 C 81.568 444.923,93.261 450.937,102.771 446.313 C 104.882 445.286,113.565 437.290,124.955 425.884 L 143.671 407.141 147.569 410.367 C 157.364 418.471,172.930 427.726,186.717 433.642 C 244.061 458.248,311.573 450.391,360.612 413.405 C 364.631 410.374,368.160 407.893,368.453 407.893 C 368.747 407.893,377.645 416.482,388.227 426.978 C 409.063 447.647,410.371 448.553,418.266 447.794 C 428.442 446.817,435.384 434.236,430.665 425.326 C 429.936 423.951,420.867 414.382,410.510 404.061 C 400.154 393.739,391.680 385.033,391.680 384.714 C 391.680 384.394,394.094 380.933,397.043 377.022 C 412.760 356.183,423.280 332.425,428.904 305.067 C 431.221 293.795,431.359 291.939,431.346 272.213 C 431.331 248.718,430.180 240.127,424.567 221.611 C 404.446 155.228,347.542 106.720,279.210 97.700 C 268.692 96.311,244.082 96.146,234.322 97.398 M264.835 146.807 C 266.496 147.946,268.740 150.420,269.821 152.305 L 271.787 155.733 271.787 216.382 L 271.787 277.032 269.439 280.579 C 268.148 282.530,265.460 284.998,263.466 286.063 C 259.864 287.987,259.572 288.002,218.880 288.276 C 173.599 288.582,170.884 288.357,165.793 283.887 C 157.933 276.986,158.741 264.520,167.420 258.774 L 170.966 256.427 205.338 256.186 L 239.710 255.945 239.962 205.839 C 240.186 161.117,240.365 155.458,241.626 153.173 C 243.333 150.078,246.158 147.362,249.600 145.507 C 253.333 143.494,260.948 144.144,264.835 146.807 " stroke="none" fill-rule="evenodd" fill="black"></path></svg>