<svg xmlns="http://www.w3.org/2000/svg" width="512" height="512" viewBox="0 0 512 512"><path d="M137.806 65.591 C 123.635 72.029,125.654 92.245,140.792 95.492 C 146.915 96.805,365.085 96.805,371.208 95.492 C 386.346 92.245,388.365 72.029,374.194 65.591 C 370.940 64.113,365.193 64.037,256.000 64.037 C 146.807 64.037,141.060 64.113,137.806 65.591 M108.679 112.595 C 97.841 115.204,92.880 126.952,98.675 136.282 C 100.160 138.674,102.460 140.919,104.533 142.003 L 107.947 143.787 256.000 143.787 L 404.053 143.787 407.467 142.003 C 418.282 136.350,418.452 120.457,407.764 114.337 L 404.053 112.213 257.707 112.081 C 177.216 112.009,110.154 112.240,108.679 112.595 M79.311 162.378 C 63.632 167.724,53.477 178.556,49.475 194.206 C 47.839 200.602,47.787 203.977,47.787 303.340 C 47.787 372.371,48.085 407.528,48.699 410.937 C 50.279 419.708,55.391 428.997,62.146 435.370 C 68.618 441.475,74.609 444.742,82.924 446.703 C 91.071 448.623,420.929 448.623,429.076 446.703 C 437.391 444.742,443.382 441.475,449.854 435.370 C 456.609 428.997,461.721 419.708,463.301 410.937 C 463.915 407.528,464.213 372.371,464.213 303.340 C 464.213 203.852,464.163 200.610,462.519 194.182 C 458.547 178.652,448.264 167.688,432.689 162.378 L 427.093 160.471 256.000 160.471 L 84.907 160.471 79.311 162.378 " stroke="none" fill-rule="evenodd" fill="black"></path></svg>