<svg xmlns="http://www.w3.org/2000/svg" width="512" height="512" viewBox="0 0 512 512"><path d="M128.000 80.213 L 128.000 96.427 256.000 96.427 L 384.000 96.427 384.000 80.213 L 384.000 64.000 256.000 64.000 L 128.000 64.000 128.000 80.213 M95.953 112.881 C 95.721 113.485,95.637 120.686,95.766 128.883 L 96.000 143.787 256.000 143.787 L 416.000 143.787 416.000 128.000 L 416.000 112.213 256.187 111.998 C 126.471 111.823,96.295 111.989,95.953 112.881 M47.787 304.213 L 47.787 448.000 256.000 448.000 L 464.213 448.000 464.213 304.213 L 464.213 160.427 256.000 160.427 L 47.787 160.427 47.787 304.213 " stroke="none" fill-rule="evenodd" fill="black"></path></svg>