<svg xmlns="http://www.w3.org/2000/svg" width="512" height="512" viewBox="0 0 512 512"><path d="M139.520 64.719 C 123.761 69.900,124.663 92.033,140.775 95.488 C 146.929 96.808,365.071 96.808,371.225 95.488 C 379.414 93.732,384.720 86.338,383.779 77.993 C 383.281 73.574,381.567 70.874,376.826 67.036 L 373.602 64.427 257.414 64.292 C 193.511 64.218,140.459 64.410,139.520 64.719 M108.447 112.402 C 104.695 113.118,99.911 116.835,98.052 120.479 C 94.251 127.930,96.848 137.416,103.886 141.792 L 107.093 143.787 256.000 143.787 L 404.907 143.787 408.114 141.792 C 418.362 135.421,418.169 120.294,407.764 114.337 L 404.053 112.213 257.280 112.111 C 176.555 112.055,109.580 112.186,108.447 112.402 M80.284 161.782 C 65.186 165.841,51.561 180.879,48.705 196.637 C 48.082 200.070,47.791 234.690,47.801 304.157 C 47.818 415.719,47.712 413.106,52.622 423.238 C 55.911 430.025,66.337 440.205,73.387 443.512 C 76.437 444.943,80.968 446.538,83.455 447.057 C 89.856 448.392,422.144 448.392,428.545 447.057 C 431.032 446.538,435.563 444.943,438.613 443.512 C 445.663 440.205,456.089 430.025,459.378 423.238 C 464.288 413.106,464.182 415.719,464.199 304.157 C 464.209 234.690,463.918 200.070,463.295 196.637 C 460.401 180.671,446.739 165.748,431.347 161.739 C 426.890 160.578,406.584 160.433,255.607 160.483 C 108.949 160.531,84.256 160.714,80.284 161.782 M424.946 193.580 C 426.566 194.449,428.672 196.205,429.626 197.482 C 431.344 199.783,431.362 200.765,431.583 303.281 L 431.807 406.758 429.877 409.594 C 428.815 411.154,426.863 413.233,425.537 414.215 L 423.128 416.000 256.000 416.000 L 88.872 416.000 86.463 414.215 C 85.137 413.233,83.185 411.154,82.123 409.594 L 80.193 406.758 80.417 303.281 C 80.638 200.765,80.656 199.783,82.374 197.482 C 83.328 196.205,85.434 194.449,87.054 193.580 C 89.892 192.058,96.070 192.000,256.000 192.000 C 415.930 192.000,422.108 192.058,424.946 193.580 " stroke="none" fill="black" fill-rule="evenodd"></path></svg>