<svg xmlns="http://www.w3.org/2000/svg" width="512" height="512" viewBox="0 0 512 512"><path d="M241.920 48.669 C 177.359 52.784,118.768 87.102,81.958 142.362 C 55.666 181.831,43.309 234.683,49.503 281.173 C 55.829 328.652,75.879 369.527,109.176 402.824 C 142.702 436.350,182.619 455.851,231.680 462.670 C 235.904 463.257,246.848 463.738,256.000 463.738 C 265.152 463.738,276.096 463.257,280.320 462.670 C 329.321 455.859,369.272 436.331,402.802 402.802 C 436.331 369.272,455.859 329.321,462.670 280.320 C 464.046 270.420,464.046 241.580,462.670 231.680 C 455.892 182.914,436.342 142.776,403.220 109.623 C 391.401 97.792,382.569 90.546,369.558 82.006 C 331.997 57.351,287.606 45.757,241.920 48.669 M266.419 147.018 C 271.260 149.865,273.449 152.317,275.709 157.428 C 277.919 162.424,277.915 162.634,274.020 243.627 C 271.455 296.959,271.619 295.717,266.530 300.532 C 263.523 303.377,260.285 304.640,256.000 304.640 C 250.035 304.640,244.663 301.331,241.833 295.915 C 240.179 292.748,240.072 291.215,237.195 229.321 C 234.274 166.466,234.192 161.770,235.945 157.576 C 238.377 151.756,243.614 147.062,250.021 144.959 C 254.035 143.642,262.484 144.703,266.419 147.018 M261.605 328.935 C 270.313 331.533,275.643 338.767,275.608 347.937 C 275.584 354.117,273.536 358.728,268.994 362.823 C 261.603 369.487,250.397 369.487,243.006 362.823 C 238.424 358.692,236.416 354.127,236.392 347.789 C 236.359 338.816,241.583 331.613,250.027 328.991 C 255.035 327.436,256.554 327.429,261.605 328.935 " stroke="none" fill-rule="evenodd" fill="black"></path></svg>