<svg xmlns="http://www.w3.org/2000/svg" width="512" height="512" viewBox="0 0 512 512"><path d="M241.920 48.669 C 177.359 52.784,118.768 87.102,81.958 142.362 C 55.666 181.831,43.309 234.683,49.503 281.173 C 55.829 328.652,75.879 369.527,109.176 402.824 C 142.702 436.350,182.619 455.851,231.680 462.670 C 235.904 463.257,246.848 463.738,256.000 463.738 C 265.152 463.738,276.096 463.257,280.320 462.670 C 329.321 455.859,369.272 436.331,402.802 402.802 C 436.331 369.272,455.859 329.321,462.670 280.320 C 464.046 270.420,464.046 241.580,462.670 231.680 C 455.892 182.914,436.342 142.776,403.220 109.623 C 391.401 97.792,382.569 90.546,369.558 82.006 C 331.997 57.351,287.606 45.757,241.920 48.669 M277.631 151.253 C 277.033 162.713,272.213 294.444,272.213 299.315 L 272.213 303.787 256.000 303.787 L 239.787 303.787 239.787 299.315 C 239.787 294.444,234.967 162.713,234.369 151.253 L 234.002 144.213 256.000 144.213 L 277.998 144.213 277.631 151.253 M275.627 347.733 L 275.627 367.787 256.000 367.787 L 236.373 367.787 236.373 347.733 L 236.373 327.680 256.000 327.680 L 275.627 327.680 275.627 347.733 " stroke="none" fill-rule="evenodd" fill="black"></path></svg>