<svg xmlns="http://www.w3.org/2000/svg" width="512" height="512" viewBox="0 0 512 512"><path d="M248.179 65.183 C 239.937 66.955,230.836 74.306,226.630 82.588 C 225.847 84.129,224.913 87.831,224.554 90.815 C 223.677 98.097,231.666 314.065,232.988 318.804 C 233.524 320.728,235.380 324.177,237.112 326.469 C 246.499 338.889,265.476 338.921,274.839 326.533 C 276.545 324.277,278.381 321.019,278.920 319.295 C 279.531 317.342,281.353 277.390,283.752 213.333 C 288.328 91.171,288.323 91.443,286.350 85.504 C 283.085 75.673,272.711 66.712,262.548 64.942 C 256.044 63.809,254.441 63.836,248.179 65.183 M248.255 385.168 C 238.723 387.220,229.846 395.218,226.113 405.118 C 221.063 418.510,226.426 434.701,238.578 442.750 C 244.030 446.361,248.307 447.536,256.000 447.536 C 263.693 447.536,267.970 446.361,273.422 442.750 C 288.947 432.467,292.374 410.758,280.787 396.100 C 276.515 390.695,269.822 386.486,263.339 385.127 C 257.082 383.815,254.504 383.822,248.255 385.168 " stroke="none" fill-rule="evenodd" fill="black"></path></svg>