<svg xmlns="http://www.w3.org/2000/svg" width="512" height="512" viewBox="0 0 512 512"><path d="M241.493 48.673 C 201.694 51.236,163.176 65.747,129.707 90.787 C 119.118 98.709,98.459 119.383,90.552 129.971 C 68.706 159.223,55.330 191.336,49.785 227.840 C 47.724 241.414,47.724 270.586,49.785 284.160 C 55.331 320.671,68.725 352.821,90.558 382.029 C 98.598 392.784,119.216 413.402,129.971 421.442 C 159.179 443.275,191.329 456.669,227.840 462.215 C 241.414 464.276,270.586 464.276,284.160 462.215 C 320.686 456.667,352.914 443.237,382.029 421.430 C 392.784 413.374,413.374 392.784,421.430 382.029 C 443.237 352.914,456.667 320.686,462.215 284.160 C 464.276 270.586,464.276 241.414,462.215 227.840 C 455.463 183.387,436.803 144.683,406.921 113.150 C 370.380 74.590,322.088 52.062,268.561 48.607 C 255.365 47.755,255.779 47.754,241.493 48.673 M284.160 82.308 C 319.998 88.383,351.735 104.258,377.739 129.118 C 405.349 155.513,423.300 189.800,429.832 228.618 C 431.923 241.048,431.905 271.514,429.799 283.733 C 419.921 341.032,385.307 387.989,334.011 413.679 C 285.590 437.929,226.410 437.929,177.989 413.679 C 126.525 387.905,91.775 340.650,82.174 283.382 C 80.053 270.734,80.053 241.266,82.174 228.618 C 92.715 165.745,133.739 115.017,192.849 91.764 C 205.896 86.632,221.606 82.941,239.787 80.737 C 246.454 79.928,276.372 80.988,284.160 82.308 M247.034 146.220 C 242.296 148.426,237.689 153.149,235.732 157.805 C 234.901 159.780,234.472 163.464,234.513 168.264 C 234.653 184.573,239.865 289.065,240.688 292.067 C 241.785 296.064,246.122 301.108,249.773 302.634 C 253.301 304.108,258.699 304.108,262.227 302.634 C 265.879 301.108,270.215 296.063,271.311 292.067 C 272.167 288.943,277.348 184.021,277.416 168.431 C 277.454 159.621,276.455 156.428,272.113 151.483 C 265.948 144.462,255.512 142.272,247.034 146.220 M250.027 328.991 C 235.272 333.573,231.374 352.349,243.003 362.823 C 250.401 369.487,261.599 369.487,268.997 362.823 C 280.783 352.208,276.688 333.435,261.605 328.935 C 256.554 327.429,255.035 327.436,250.027 328.991 " stroke="none" fill-rule="evenodd" fill="black"></path></svg>