<svg xmlns="http://www.w3.org/2000/svg" width="512" height="512" viewBox="0 0 512 512"><path d="M319.573 32.858 C 319.104 33.021,315.744 33.407,312.107 33.716 C 308.469 34.026,305.493 34.556,305.493 34.894 C 305.493 35.710,476.991 205.963,477.395 205.548 C 477.568 205.371,478.194 201.387,478.787 196.693 C 480.251 185.103,480.025 155.481,478.339 137.813 C 476.020 113.525,469.561 72.222,464.971 52.340 L 463.965 47.982 450.649 45.363 C 404.753 36.333,370.465 32.391,338.773 32.499 C 328.683 32.533,320.043 32.695,319.573 32.858 M251.994 46.501 C 204.053 60.402,160.037 84.291,128.377 113.593 C 90.444 148.700,63.379 194.238,46.478 251.394 C 44.382 258.483,42.667 264.819,42.667 265.476 C 42.667 266.529,101.229 325.282,210.479 433.836 L 244.745 467.884 254.766 465.126 C 295.581 453.895,333.407 435.759,364.206 412.653 C 378.835 401.678,399.705 381.455,410.506 367.787 C 425.678 348.586,441.029 322.544,451.321 298.544 C 456.226 287.107,464.763 262.488,467.664 251.413 L 469.648 243.839 368.901 143.253 C 305.300 79.753,267.565 42.680,266.557 42.704 C 265.679 42.725,259.125 44.433,251.994 46.501 M340.214 193.546 L 323.320 210.456 334.460 220.937 C 340.587 226.702,345.600 231.881,345.600 232.446 C 345.600 233.618,324.946 254.293,323.776 254.293 C 323.355 254.293,318.107 249.401,312.114 243.422 L 301.218 232.550 289.924 243.844 L 278.630 255.138 289.707 266.240 L 300.784 277.342 289.489 288.636 L 278.195 299.930 267.097 288.857 L 256.000 277.785 244.906 288.854 L 233.812 299.923 244.906 311.040 L 256.000 322.157 244.686 333.448 L 233.371 344.739 222.074 333.442 L 210.777 322.145 193.912 338.995 L 177.047 355.845 165.973 344.747 L 154.900 333.649 171.742 316.792 L 188.583 299.935 177.282 288.634 L 165.981 277.333 177.280 266.035 L 188.579 254.736 199.901 266.035 L 211.224 277.334 222.293 266.240 L 233.362 255.147 222.494 244.255 C 216.517 238.264,211.627 232.990,211.627 232.534 C 211.627 231.434,232.263 210.773,233.362 210.773 C 233.832 210.773,239.119 215.666,245.112 221.645 L 256.008 232.517 267.311 221.153 L 278.613 209.789 267.291 198.975 L 255.968 188.160 267.303 176.853 L 278.637 165.546 289.645 176.578 L 300.652 187.610 317.766 171.009 L 334.879 154.407 345.993 165.521 L 357.108 176.636 340.214 193.546 M33.412 312.922 C 31.738 328.100,31.512 337.304,32.410 353.707 C 34.084 384.257,39.091 421.082,46.242 455.428 L 48.055 464.136 59.057 466.751 C 103.246 477.257,133.938 481.026,163.632 479.595 C 181.388 478.739,204.802 476.383,205.916 475.340 C 206.547 474.751,36.963 305.441,35.131 304.830 C 34.693 304.684,33.920 308.326,33.412 312.922 " stroke="none" fill-rule="evenodd" fill="black"></path></svg>