<svg xmlns="http://www.w3.org/2000/svg" width="512" height="512" viewBox="0 0 512 512"><path d="M333.227 15.061 C 331.819 15.225,327.019 15.762,322.560 16.255 C 281.844 20.753,237.429 37.312,194.987 63.818 C 130.986 103.789,74.757 166.085,43.475 231.680 C 17.880 285.349,8.975 338.824,18.047 384.374 C 23.652 412.518,35.530 435.549,54.536 455.123 C 75.001 476.200,100.351 489.100,133.120 495.113 C 147.860 497.818,179.089 497.821,195.941 495.119 C 226.316 490.250,253.678 481.459,282.880 467.188 C 328.856 444.720,372.341 411.024,408.961 369.493 C 487.147 280.822,517.117 171.687,484.060 96.030 C 477.230 80.400,467.152 66.102,454.231 53.716 C 431.181 31.619,401.861 18.931,365.718 15.414 C 357.047 14.570,339.109 14.375,333.227 15.061 M378.092 49.397 C 401.942 54.586,418.263 63.128,433.567 78.433 C 448.883 93.749,457.469 110.162,462.587 133.908 C 464.889 144.593,465.732 170.033,464.235 183.670 C 463.655 188.956,462.978 193.613,462.731 194.020 C 462.305 194.723,317.440 50.513,317.440 49.385 C 317.440 48.094,333.833 47.105,351.147 47.351 C 366.253 47.566,371.516 47.966,378.092 49.397 M285.013 58.713 C 285.013 59.560,286.123 61.960,287.480 64.046 C 290.734 69.050,445.918 223.856,449.451 225.622 C 450.953 226.372,452.777 226.987,453.504 226.987 C 455.372 226.987,455.267 227.507,451.041 239.160 C 417.219 332.431,329.426 419.706,237.094 451.845 C 227.169 455.300,226.987 455.326,226.987 453.287 C 226.987 452.440,225.877 450.040,224.522 447.954 C 221.277 442.960,66.089 288.156,62.549 286.382 C 61.047 285.629,59.223 285.013,58.496 285.013 C 56.747 285.013,56.776 284.790,59.632 276.427 C 71.696 241.094,92.993 204.395,121.254 170.240 C 130.355 159.241,159.241 130.355,170.240 121.254 C 203.836 93.456,237.565 73.695,273.920 60.511 C 284.271 56.757,285.013 56.637,285.013 58.713 M327.253 163.768 C 325.275 164.694,319.019 170.230,312.372 176.936 L 300.905 188.506 294.175 182.076 C 290.473 178.539,286.142 175.101,284.550 174.436 C 275.928 170.834,265.368 175.972,262.864 184.986 C 260.976 191.786,262.455 195.234,271.010 203.977 L 278.144 211.267 267.097 222.290 L 256.050 233.312 248.975 226.405 C 240.370 218.007,236.592 216.482,229.360 218.491 C 225.115 219.670,221.116 223.169,219.204 227.378 C 215.796 234.880,217.605 240.125,226.797 249.395 L 233.362 256.016 222.505 266.873 L 211.647 277.731 206.304 272.490 C 198.095 264.440,195.253 262.827,189.279 262.827 C 183.712 262.827,180.784 264.011,177.334 267.657 C 174.475 270.679,173.227 273.904,173.227 278.270 C 173.227 283.503,175.104 286.878,182.076 294.175 L 188.506 300.905 176.965 312.372 C 170.618 318.680,164.684 325.265,163.779 327.006 C 160.867 332.608,162.411 341.750,166.951 345.781 C 171.593 349.903,179.660 350.994,184.994 348.221 C 186.735 347.316,193.316 341.386,199.618 335.044 L 211.076 323.514 218.158 330.217 C 222.278 334.118,226.538 337.350,228.346 337.946 C 238.675 341.355,249.572 333.673,249.517 323.021 C 249.488 317.431,247.847 314.477,240.437 306.677 L 234.352 300.270 245.168 289.454 L 255.984 278.638 262.605 285.203 C 271.677 294.198,276.780 296.080,283.962 293.079 C 288.179 291.317,290.881 288.718,292.787 284.587 C 296.216 277.158,294.393 271.873,285.207 262.609 L 278.646 255.992 289.689 244.924 L 300.733 233.856 308.035 241.002 C 313.556 246.404,316.222 248.386,318.961 249.123 C 330.982 252.360,341.921 240.389,337.946 228.346 C 337.350 226.538,334.118 222.278,330.217 218.158 L 323.514 211.076 335.044 199.618 C 341.386 193.316,347.316 186.735,348.221 184.994 C 351.133 179.392,349.589 170.250,345.049 166.219 C 340.432 162.119,332.972 161.092,327.253 163.768 M194.560 462.594 C 194.560 463.688,175.638 465.352,163.413 465.333 C 127.584 465.278,99.563 454.814,78.433 433.600 C 69.334 424.465,64.673 418.023,59.218 407.046 C 51.152 390.813,47.837 376.201,47.183 353.993 C 46.754 339.445,47.841 320.277,49.221 318.043 C 49.675 317.309,194.560 461.409,194.560 462.594 " stroke="none" fill="black" fill-rule="evenodd"></path></svg>