<svg xmlns="http://www.w3.org/2000/svg" width="512" height="512" viewBox="0 0 512 512"><path d="M336.640 32.948 C 322.618 34.296,307.504 36.098,306.214 36.575 C 304.975 37.034,321.709 54.191,389.930 122.410 C 466.052 198.529,475.247 207.450,475.678 205.596 C 476.864 200.485,478.757 181.124,479.595 165.529 C 481.821 124.091,475.644 84.298,464.033 65.280 C 453.838 48.582,435.759 39.613,401.920 34.467 C 393.396 33.171,345.832 32.064,336.640 32.948 M253.867 47.778 C 210.548 60.682,175.856 77.975,144.375 102.354 C 134.028 110.367,115.325 128.564,106.667 139.042 C 81.518 169.477,62.719 205.509,49.207 249.173 C 47.101 255.979,45.136 262.891,44.839 264.533 L 44.300 267.520 144.552 367.734 L 244.803 467.947 253.602 465.516 C 302.131 452.103,346.393 429.094,378.213 400.739 C 419.066 364.334,448.728 314.343,465.516 253.602 L 467.947 244.803 367.735 144.588 C 312.618 89.470,266.946 44.396,266.241 44.423 C 265.537 44.451,259.968 45.961,253.867 47.778 M339.867 164.162 C 343.188 165.582,346.871 169.373,348.106 172.642 C 349.441 176.176,349.211 182.309,347.626 185.429 C 346.863 186.931,341.021 193.444,334.643 199.903 L 323.046 211.646 329.594 218.250 C 338.564 227.295,340.451 232.412,337.461 239.570 C 334.923 245.644,329.600 249.173,322.978 249.173 C 317.615 249.173,314.664 247.483,307.184 240.129 L 300.769 233.820 289.732 244.881 L 278.696 255.942 284.714 262.158 C 291.905 269.584,293.635 272.670,293.677 278.153 C 293.735 285.595,289.595 291.151,282.237 293.508 C 276.073 295.483,270.971 293.249,262.158 284.714 L 255.942 278.696 244.881 289.732 L 233.820 300.769 240.129 307.184 C 247.483 314.664,249.173 317.615,249.173 322.978 C 249.173 329.600,245.644 334.923,239.570 337.461 C 232.412 340.451,227.295 338.564,218.250 329.594 L 211.646 323.046 199.903 334.643 C 193.444 341.021,186.931 346.863,185.429 347.626 C 182.069 349.333,174.793 349.430,171.691 347.810 C 168.597 346.193,165.006 342.301,163.894 339.358 C 162.559 335.824,162.789 329.691,164.374 326.571 C 165.137 325.069,170.979 318.556,177.357 312.097 L 188.954 300.354 182.406 293.750 C 173.436 284.705,171.549 279.588,174.539 272.430 C 177.077 266.356,182.400 262.827,189.022 262.827 C 194.385 262.827,197.336 264.517,204.816 271.871 L 211.231 278.180 222.268 267.119 L 233.304 256.058 227.286 249.842 C 220.117 242.439,218.256 239.131,218.256 233.788 C 218.256 221.650,230.640 214.393,241.513 220.161 C 242.676 220.777,246.424 223.987,249.842 227.293 L 256.058 233.304 267.119 222.268 L 278.180 211.231 271.871 204.816 C 264.517 197.336,262.827 194.385,262.827 189.022 C 262.827 182.400,266.356 177.077,272.430 174.539 C 279.591 171.547,284.704 173.436,293.764 182.420 L 300.382 188.981 311.684 177.765 C 317.901 171.596,324.331 165.748,325.973 164.771 C 329.482 162.682,335.766 162.407,339.867 164.162 M36.364 305.534 C 35.452 308.308,33.253 330.834,32.390 346.243 C 30.902 372.812,32.991 400.137,38.081 420.693 C 46.098 453.077,59.017 465.917,91.733 474.023 C 111.443 478.907,137.423 480.897,164.436 479.593 C 181.469 478.771,204.245 476.487,206.273 475.397 C 206.929 475.045,175.575 443.093,122.045 389.565 C 66.979 334.501,36.628 304.734,36.364 305.534 " stroke="none" fill-rule="evenodd" fill="black"></path></svg>