<svg xmlns="http://www.w3.org/2000/svg" width="512" height="512" viewBox="0 0 512 512"><path d="M439.817 129.266 C 417.040 134.222,401.183 157.153,404.560 180.250 L 405.558 187.074 369.979 222.661 L 334.399 258.249 329.119 257.142 C 322.443 255.743,317.556 255.743,310.879 257.142 L 305.599 258.249 279.198 231.738 L 252.796 205.227 253.693 199.108 C 254.412 194.204,254.324 191.641,253.249 186.188 C 249.681 168.075,237.590 154.914,219.754 149.729 C 212.958 147.754,198.638 148.335,192.187 150.848 C 179.594 155.753,169.956 165.383,164.889 178.124 C 162.808 183.358,162.594 184.942,162.584 195.196 L 162.574 206.499 118.976 250.091 L 75.379 293.682 68.517 292.678 C 40.939 288.646,15.891 310.214,16.018 337.885 C 16.080 351.294,20.095 360.768,29.785 370.368 C 40.060 380.548,50.481 384.576,64.427 383.759 C 77.103 383.017,86.812 378.513,95.604 369.294 C 105.278 359.152,109.302 345.561,107.294 329.813 L 106.640 324.693 150.059 281.291 L 193.477 237.889 197.900 238.838 C 203.668 240.075,212.930 240.047,218.438 238.775 L 222.820 237.764 249.093 264.026 L 275.365 290.289 274.550 294.691 C 271.781 309.645,278.993 328.338,291.150 337.717 C 305.913 349.107,323.598 351.054,340.028 343.100 C 358.229 334.289,369.540 312.243,365.235 293.973 L 364.431 290.560 400.455 254.467 C 432.264 222.598,436.730 218.426,438.613 218.824 C 455.004 222.284,470.918 217.810,482.060 206.610 C 500.498 188.075,500.572 159.902,482.232 141.581 C 470.936 130.297,455.576 125.838,439.817 129.266 " stroke="none" fill-rule="evenodd" fill="black"></path></svg>