<svg xmlns="http://www.w3.org/2000/svg" width="512" height="512" viewBox="0 0 512 512"><path d="M446.568 129.303 C 439.306 131.260,434.365 134.015,428.829 139.194 C 420.292 147.179,416.189 156.611,416.252 168.107 C 416.271 171.627,416.844 176.287,417.524 178.463 L 418.761 182.419 376.756 224.418 L 334.750 266.417 330.062 265.368 C 325.533 264.354,312.067 264.608,307.200 265.799 C 305.294 266.265,301.900 263.149,275.357 236.566 L 245.646 206.811 247.087 199.702 C 248.292 193.755,248.369 191.604,247.558 186.537 C 243.224 159.468,214.750 144.448,190.293 156.332 C 173.634 164.426,164.326 184.931,169.461 202.223 L 170.815 206.783 120.923 256.675 L 71.032 306.566 66.449 305.432 C 59.561 303.727,49.865 304.093,43.207 306.309 C 36.758 308.455,28.943 313.849,24.916 318.933 C 14.445 332.153,13.287 351.361,22.134 365.038 C 36.548 387.319,66.361 390.428,84.498 371.541 C 90.505 365.286,94.262 357.891,95.511 349.867 C 96.385 344.250,95.722 336.255,94.018 331.871 C 93.196 329.755,95.290 327.531,143.254 279.572 L 193.349 229.483 198.861 230.782 C 205.949 232.453,210.619 232.439,217.445 230.727 L 222.945 229.348 252.798 259.202 L 282.652 289.055 281.273 294.555 C 279.555 301.406,279.523 307.124,281.166 313.435 C 285.877 331.520,301.637 343.873,320.000 343.873 C 339.753 343.873,356.440 329.431,359.495 309.694 C 360.389 303.923,360.102 300.456,357.952 290.987 C 357.520 289.087,362.043 284.282,399.163 247.200 L 440.859 205.547 448.220 207.062 C 454.612 208.378,456.392 208.439,461.738 207.522 C 481.819 204.078,495.787 187.952,495.787 168.210 C 495.787 160.222,493.766 152.933,489.868 146.859 C 480.620 132.447,462.366 125.046,446.568 129.303 " stroke="none" fill-rule="evenodd" fill="black"></path></svg>