<svg xmlns="http://www.w3.org/2000/svg" width="512" height="512" viewBox="0 0 512 512"><path d="M445.956 129.360 C 433.480 132.378,422.393 142.731,418.092 155.377 C 415.914 161.783,415.561 171.283,417.243 178.234 L 418.352 182.815 376.643 224.567 C 339.245 262.003,334.713 266.266,332.800 265.798 C 327.930 264.607,314.467 264.354,309.936 265.368 L 305.247 266.417 275.371 236.541 L 245.494 206.664 246.694 202.532 C 247.353 200.259,247.875 195.328,247.853 191.573 C 247.783 179.881,243.786 171.139,234.633 162.666 C 228.308 156.810,222.346 153.899,214.057 152.621 C 194.175 149.554,174.340 162.298,169.423 181.299 C 167.771 187.682,167.738 196.205,169.340 202.267 L 170.574 206.933 120.914 256.683 C 73.401 304.281,71.143 306.410,68.693 305.911 C 55.335 303.190,47.594 303.752,38.686 308.088 C 24.584 314.952,16.213 328.285,16.213 343.879 C 16.213 370.264,40.696 389.310,66.103 382.692 C 78.881 379.364,89.589 369.324,93.908 356.623 C 96.086 350.216,96.439 340.717,94.756 333.764 L 93.647 329.181 143.500 279.329 L 193.352 229.476 198.402 230.791 C 204.753 232.445,210.521 232.443,217.566 230.782 L 223.080 229.483 252.798 259.202 L 282.517 288.920 281.218 294.434 C 277.897 308.522,281.642 321.896,291.726 331.960 C 300.056 340.273,308.633 343.893,320.000 343.893 C 331.367 343.893,339.944 340.273,348.274 331.960 C 358.357 321.896,362.103 308.522,358.782 294.435 L 357.483 288.923 399.115 247.249 C 436.181 210.145,440.981 205.627,442.880 206.059 C 451.971 208.125,456.685 208.460,462.377 207.442 C 482.144 203.910,495.787 187.853,495.787 168.121 C 495.787 141.755,471.809 123.104,445.956 129.360 M460.075 161.349 C 461.023 161.856,462.346 163.584,463.017 165.189 C 466.222 172.859,457.189 179.205,450.840 173.744 C 445.805 169.413,448.921 160.427,455.458 160.427 C 457.050 160.427,459.127 160.842,460.075 161.349 M213.684 186.945 C 214.929 188.424,215.893 190.632,215.893 192.000 C 215.893 193.368,214.929 195.576,213.684 197.055 C 211.903 199.172,210.821 199.680,208.099 199.680 C 203.417 199.680,200.533 196.753,200.533 192.000 C 200.533 187.247,203.417 184.320,208.099 184.320 C 210.821 184.320,211.903 184.828,213.684 186.945 M325.055 298.316 C 329.558 302.105,328.438 308.817,322.918 311.124 C 314.812 314.511,308.242 303.956,314.945 298.316 C 316.424 297.071,318.632 296.107,320.000 296.107 C 321.368 296.107,323.576 297.071,325.055 298.316 M61.160 338.256 C 66.185 342.579,63.024 351.570,56.413 351.758 C 50.981 351.912,46.886 346.423,48.736 341.465 C 50.703 336.193,56.900 334.592,61.160 338.256 " stroke="none" fill="black" fill-rule="evenodd"></path></svg>