<svg xmlns="http://www.w3.org/2000/svg" width="512" height="512" viewBox="0 0 512 512"><path d="M241.493 48.641 C 213.518 50.535,183.977 58.925,159.147 72.028 C 139.834 82.219,125.755 92.704,109.202 109.226 C 91.095 127.297,80.078 142.647,69.085 165.120 C 40.921 222.691,40.925 289.206,69.094 346.880 C 80.039 369.290,91.043 384.628,109.208 402.792 C 127.360 420.945,142.678 431.937,165.120 442.915 C 222.691 471.079,289.206 471.075,346.880 442.906 C 369.279 431.966,384.570 420.990,402.780 402.780 C 420.978 384.582,431.942 369.311,442.915 346.880 C 477.350 276.489,469.176 193.283,421.639 130.313 C 405.045 108.333,381.414 87.821,357.134 74.324 C 322.426 55.030,281.471 45.934,241.493 48.641 M284.160 82.326 C 302.488 85.391,319.449 90.948,335.573 99.169 L 343.893 103.412 343.893 140.026 C 343.893 160.164,343.796 176.640,343.677 176.640 C 343.558 176.640,321.766 154.904,295.251 128.338 L 247.040 80.036 261.547 80.503 C 269.525 80.760,279.701 81.581,284.160 82.326 M232.741 111.141 C 246.003 124.397,256.853 135.533,256.853 135.888 C 256.853 136.243,227.861 136.533,192.427 136.533 C 155.291 136.533,128.000 136.211,128.000 135.773 C 128.000 134.441,142.155 121.557,150.368 115.413 C 160.078 108.149,170.318 101.963,181.035 96.886 C 190.330 92.483,204.418 87.150,206.928 87.085 C 208.049 87.055,216.850 95.258,232.741 111.141 M392.075 144.640 C 400.985 155.603,407.155 165.202,413.466 177.920 C 418.869 188.807,424.960 204.320,424.960 207.195 C 424.960 207.996,414.016 219.590,400.640 232.960 L 376.320 257.269 376.320 192.450 L 376.320 127.632 381.076 132.296 C 383.693 134.861,388.642 140.416,392.075 144.640 M176.640 168.323 C 176.640 168.442,154.904 190.234,128.338 216.749 L 80.036 264.960 80.503 250.453 C 81.395 222.771,87.124 200.051,99.169 176.427 L 103.412 168.107 140.026 168.107 C 160.164 168.107,176.640 168.204,176.640 168.323 M316.795 195.195 L 343.893 222.283 343.893 255.990 L 343.893 289.697 316.805 316.795 L 289.717 343.893 256.010 343.893 L 222.303 343.893 195.205 316.805 L 168.107 289.717 168.107 256.010 L 168.107 222.303 195.195 195.205 L 222.283 168.107 255.990 168.107 L 289.697 168.107 316.795 195.195 M431.533 261.760 C 431.256 269.621,430.421 279.701,429.677 284.160 C 426.695 302.040,420.530 320.719,412.426 336.427 L 408.574 343.893 371.756 343.893 L 334.939 343.893 383.147 295.680 C 409.661 269.163,431.508 247.467,431.695 247.467 C 431.883 247.467,431.810 253.899,431.533 261.760 M135.680 319.758 L 135.680 384.368 130.924 379.704 C 124.894 373.791,114.969 361.584,109.374 353.199 C 100.955 340.579,90.828 319.272,87.710 307.617 L 86.673 303.738 110.958 279.442 C 124.314 266.080,135.341 255.147,135.461 255.147 C 135.581 255.147,135.680 284.222,135.680 319.758 M254.512 431.615 C 229.847 432.242,201.801 425.600,177.280 413.325 L 168.107 408.732 168.107 371.836 L 168.107 334.939 216.326 383.149 L 264.544 431.360 254.512 431.615 M376.971 383.559 C 363.383 396.633,349.487 406.187,331.520 414.806 C 321.280 419.718,307.476 424.960,304.780 424.960 C 303.993 424.960,292.410 414.016,279.040 400.640 L 254.731 376.320 319.579 376.353 L 384.427 376.385 376.971 383.559 " stroke="none" fill-rule="evenodd" fill="black"></path></svg>