<svg xmlns="http://www.w3.org/2000/svg" width="512" height="512" viewBox="0 0 512 512"><path d="M216.747 48.174 C 216.747 48.515,277.443 108.859,327.893 158.676 L 345.600 176.160 345.600 111.973 L 345.600 47.787 281.173 47.787 C 245.739 47.787,216.747 47.961,216.747 48.174 M130.575 96.251 L 80.670 133.547 124.389 133.768 C 148.434 133.889,187.787 133.889,211.840 133.768 L 255.573 133.547 218.972 96.427 C 198.841 76.011,181.945 59.227,181.425 59.131 C 180.905 59.034,158.023 75.738,130.575 96.251 M378.027 167.520 C 378.027 215.715,378.259 255.147,378.544 255.147 C 378.828 255.147,394.092 240.492,412.464 222.581 C 430.835 204.670,447.716 188.225,449.976 186.035 L 454.085 182.054 420.109 136.464 C 401.423 111.389,384.309 88.403,382.080 85.383 L 378.027 79.893 378.027 167.520 M47.787 230.185 L 47.787 293.969 111.360 230.400 C 146.325 195.437,174.933 166.734,174.933 166.615 C 174.933 166.497,146.325 166.400,111.360 166.400 L 47.787 166.400 47.787 230.185 M194.342 194.351 L 166.400 222.303 166.400 256.000 L 166.400 289.697 194.342 317.649 L 222.284 345.600 256.000 345.600 L 289.716 345.600 317.658 317.649 L 345.600 289.697 345.600 255.990 L 345.600 222.284 317.649 194.342 L 289.697 166.400 255.990 166.400 L 222.284 166.400 194.342 194.351 M399.360 280.320 L 335.791 343.893 400.002 343.893 L 464.213 343.893 464.213 280.320 C 464.213 245.355,463.924 216.747,463.571 216.747 C 463.218 216.747,434.323 245.355,399.360 280.320 M116.480 272.905 C 107.563 281.727,90.748 298.193,79.115 309.496 L 57.963 330.047 89.382 372.170 C 106.662 395.338,123.765 418.310,127.387 423.219 L 133.973 432.144 133.973 344.499 C 133.973 296.294,133.685 256.856,133.333 256.859 C 132.981 256.863,125.397 264.083,116.480 272.905 M165.755 400.427 L 165.973 463.787 229.973 464.004 L 293.973 464.222 230.402 400.644 C 195.438 365.677,166.540 337.067,166.183 337.067 C 165.827 337.067,165.634 365.579,165.755 400.427 M256.853 378.544 C 256.853 378.828,271.508 394.092,289.419 412.464 C 307.330 430.835,323.775 447.716,325.965 449.976 L 329.946 454.085 375.536 420.109 C 400.611 401.423,423.597 384.309,426.617 382.080 L 432.107 378.027 344.480 378.027 C 296.285 378.027,256.853 378.259,256.853 378.544 " stroke="none" fill-rule="evenodd" fill="black"></path></svg>