<svg xmlns="http://www.w3.org/2000/svg" width="512" height="512" viewBox="0 0 512 512"><path d="M96.560 48.683 C 77.409 51.245,60.978 63.556,52.883 81.409 C 49.314 89.281,47.447 99.564,48.121 107.644 C 49.326 122.094,54.641 133.349,65.196 143.806 C 76.289 154.795,88.476 159.777,104.107 159.711 C 119.425 159.648,132.667 154.156,143.412 143.412 C 154.156 132.667,159.648 119.425,159.711 104.107 C 159.752 94.456,158.125 87.425,153.787 78.507 C 149.443 69.575,138.675 58.798,129.707 54.404 C 119.126 49.221,107.519 47.218,96.560 48.683 M248.458 48.683 C 236.025 50.346,226.046 55.402,216.688 64.781 C 213.136 68.341,208.999 73.428,207.494 76.087 C 191.392 104.538,202.383 139.966,231.680 154.045 C 240.483 158.275,246.898 159.791,256.000 159.791 C 265.121 159.791,271.529 158.272,280.320 154.027 C 300.061 144.494,311.827 125.665,311.783 103.680 C 311.752 88.221,306.646 76.207,295.273 64.834 C 289.834 59.395,286.386 56.760,281.600 54.384 C 271.235 49.238,259.455 47.212,248.458 48.683 M400.351 48.683 C 387.659 50.381,377.913 55.386,368.194 65.196 C 357.205 76.289,352.223 88.476,352.289 104.107 C 352.329 113.894,353.843 120.082,358.541 129.678 C 365.226 143.330,378.959 154.224,394.667 158.337 C 400.746 159.929,414.424 160.163,419.840 158.767 C 440.659 153.404,455.667 139.338,461.774 119.467 C 464.663 110.069,464.507 96.891,461.397 87.449 C 452.725 61.122,427.432 45.060,400.351 48.683 M88.930 202.188 C 79.165 204.980,72.677 208.897,64.838 216.734 C 53.132 228.436,48.231 240.024,48.231 256.000 C 48.231 271.973,53.130 283.559,64.838 295.273 C 76.203 306.645,88.218 311.752,103.680 311.783 C 125.665 311.827,144.494 300.061,154.027 280.320 C 158.272 271.529,159.791 265.121,159.791 256.000 C 159.791 246.815,158.269 240.471,153.875 231.329 C 150.730 224.787,148.804 222.093,143.487 216.798 C 136.073 209.414,126.662 203.965,117.663 201.843 C 110.114 200.064,95.758 200.236,88.930 202.188 M242.347 201.826 C 217.679 207.875,200.182 230.382,200.231 256.000 C 200.261 271.790,205.351 283.918,216.716 295.284 C 228.116 306.683,240.287 311.780,256.000 311.734 C 271.883 311.688,283.921 306.647,295.284 295.284 C 303.265 287.302,307.531 279.998,310.252 269.653 C 312.195 262.264,312.206 249.571,310.275 242.347 C 304.891 222.203,288.955 206.450,269.227 201.773 C 262.867 200.265,248.599 200.293,242.347 201.826 M393.947 201.883 C 374.565 206.575,357.672 224.241,353.213 244.480 C 351.954 250.191,351.979 262.471,353.261 268.091 C 356.239 281.151,366.286 295.562,377.511 302.875 C 387.198 309.186,402.565 313.149,412.499 311.897 C 426.905 310.081,437.540 305.005,447.219 295.326 C 458.585 283.960,463.769 271.643,463.769 256.000 C 463.769 240.033,458.872 228.451,447.162 216.716 C 439.233 208.771,431.788 204.404,421.850 201.870 C 415.340 200.210,400.828 200.217,393.947 201.883 M90.603 353.617 C 81.527 355.922,71.756 361.576,64.781 368.559 C 53.256 380.099,48.227 392.234,48.304 408.320 C 48.341 416.091,48.736 418.885,50.603 424.551 C 56.444 442.285,69.680 455.513,87.467 461.394 C 96.883 464.508,110.063 464.664,119.467 461.774 C 139.338 455.667,153.404 440.659,158.767 419.840 C 160.163 414.424,159.929 400.746,158.337 394.667 C 153.475 376.100,139.918 361.457,121.514 354.894 C 115.056 352.591,97.500 351.866,90.603 353.617 M242.496 353.671 C 239.997 354.276,234.626 356.419,230.560 358.434 C 224.741 361.317,221.707 363.565,216.303 368.995 C 205.370 379.982,200.258 392.357,200.234 407.893 C 200.210 423.745,205.212 435.653,216.727 447.162 C 228.441 458.870,240.027 463.769,256.000 463.769 C 271.643 463.769,283.960 458.585,295.326 447.219 C 305.005 437.540,310.081 426.905,311.897 412.499 C 313.149 402.565,309.186 387.198,302.875 377.511 C 295.528 366.233,280.698 355.926,268.118 353.352 C 262.119 352.125,248.169 352.299,242.496 353.671 M397.653 353.016 C 387.616 354.696,376.663 360.591,368.513 368.698 C 363.191 373.992,361.272 376.675,358.125 383.222 C 353.592 392.653,352.175 398.800,352.237 408.770 C 352.329 423.689,357.496 436.004,368.194 446.804 C 380.027 458.748,391.966 463.775,408.320 463.696 C 416.101 463.659,418.875 463.265,424.533 461.394 C 442.320 455.513,455.556 442.285,461.397 424.551 C 463.264 418.885,463.659 416.091,463.696 408.320 C 463.773 392.243,458.749 380.116,447.219 368.545 C 441.931 363.237,439.264 361.338,432.640 358.163 C 428.181 356.026,422.498 353.861,420.011 353.352 C 415.688 352.467,402.147 352.264,397.653 353.016 " stroke="none" fill-rule="evenodd" fill="black"></path></svg>