<svg xmlns="http://www.w3.org/2000/svg" width="512" height="512" viewBox="0 0 512 512"><path d="M69.041 48.689 C 59.551 50.100,51.647 54.265,44.535 61.603 C 34.742 71.709,32.414 78.468,31.809 98.560 C 31.236 117.583,32.319 126.375,36.258 134.669 C 40.398 143.387,48.684 151.636,57.512 155.828 L 64.000 158.909 64.000 286.332 C 64.000 424.424,63.847 419.630,68.604 430.385 C 75.035 444.927,88.719 457.037,104.107 461.804 L 110.507 463.787 256.427 463.787 L 402.347 463.787 409.165 461.377 C 424.648 455.906,437.093 444.639,443.396 430.385 C 448.153 419.630,448.000 424.424,448.000 286.332 L 448.000 158.909 454.488 155.828 C 463.316 151.636,471.602 143.387,475.742 134.669 C 479.680 126.378,480.764 117.584,480.193 98.560 C 479.856 87.288,479.377 82.864,478.049 78.722 C 473.938 65.899,462.739 54.597,449.707 50.119 L 444.160 48.213 258.987 48.097 C 157.141 48.032,71.666 48.299,69.041 48.689 M443.319 82.773 C 447.641 86.812,448.000 88.427,447.999 103.851 C 447.997 120.007,447.313 122.590,442.114 126.063 L 439.214 128.000 256.087 127.997 C 74.860 127.994,72.931 127.976,70.179 126.298 C 64.601 122.897,64.007 120.777,64.003 104.278 C 64.000 88.578,64.383 86.730,68.399 83.095 C 69.500 82.099,70.976 81.072,71.680 80.813 C 72.384 80.554,155.777 80.409,256.998 80.491 L 441.036 80.640 443.319 82.773 M415.371 288.213 L 415.147 416.000 412.712 419.749 C 409.415 424.827,406.558 427.376,401.493 429.761 L 397.227 431.770 256.000 431.770 L 114.773 431.770 110.507 429.761 C 105.442 427.376,102.585 424.827,99.288 419.749 L 96.853 416.000 96.629 288.213 L 96.405 160.427 256.000 160.427 L 415.595 160.427 415.371 288.213 M249.600 209.428 C 245.977 211.052,243.259 213.878,241.415 217.937 C 239.917 221.235,239.823 224.589,239.805 275.175 L 239.787 328.910 220.800 310.046 C 210.357 299.671,200.584 290.562,199.082 289.804 C 197.580 289.047,194.350 288.427,191.904 288.427 C 180.869 288.427,173.133 299.151,176.952 309.153 C 178.053 312.034,185.643 320.066,213.544 347.879 C 246.470 380.701,248.981 383.009,252.373 383.560 C 254.368 383.885,257.632 383.885,259.627 383.560 C 263.019 383.009,265.530 380.701,298.456 347.879 C 326.357 320.066,333.947 312.034,335.048 309.153 C 338.867 299.151,331.131 288.427,320.096 288.427 C 317.650 288.427,314.420 289.047,312.918 289.804 C 311.416 290.562,301.643 299.671,291.200 310.046 L 272.213 328.910 272.195 275.175 C 272.177 224.692,272.080 221.233,270.596 218.027 C 268.756 214.054,265.120 210.411,261.704 209.121 C 258.443 207.889,252.710 208.034,249.600 209.428 " stroke="none" fill-rule="evenodd" fill="black"></path></svg>