<svg xmlns="http://www.w3.org/2000/svg" width="512" height="512" viewBox="0 0 512 512"><path d="M40.407 48.715 C 36.556 49.836,32.653 54.639,32.003 59.057 C 31.707 61.072,31.585 75.392,31.732 90.880 C 31.983 117.238,32.109 119.225,33.707 121.930 C 34.645 123.520,36.751 125.536,38.387 126.410 C 41.265 127.949,48.250 128.000,256.000 128.000 C 463.750 128.000,470.735 127.949,473.613 126.410 C 475.249 125.536,477.355 123.520,478.293 121.930 C 479.916 119.181,480.000 117.508,480.000 87.743 C 480.000 57.463,479.943 56.368,478.241 54.089 C 477.273 52.793,475.421 50.940,474.125 49.973 L 471.768 48.213 257.431 48.074 C 129.699 47.990,42.008 48.250,40.407 48.715 M64.204 303.573 L 64.427 446.720 67.074 451.413 C 68.530 453.995,71.331 457.345,73.298 458.858 C 80.747 464.587,67.984 464.213,256.000 464.213 C 444.016 464.213,431.253 464.587,438.702 458.858 C 440.669 457.345,443.470 453.995,444.926 451.413 L 447.573 446.720 447.796 303.573 L 448.020 160.427 256.000 160.427 L 63.980 160.427 64.204 303.573 M272.213 268.581 L 272.213 328.949 296.108 305.066 L 320.002 281.183 331.305 292.486 L 342.608 303.790 299.304 347.094 L 256.000 390.398 212.696 347.094 L 169.392 303.790 180.695 292.486 L 191.998 281.183 215.892 305.066 L 239.787 328.949 239.787 268.581 L 239.787 208.213 256.000 208.213 L 272.213 208.213 272.213 268.581 " stroke="none" fill-rule="evenodd" fill="black"></path></svg>