<svg xmlns="http://www.w3.org/2000/svg" width="512" height="512" viewBox="0 0 512 512"><path d="M57.173 48.973 C 43.977 51.907,34.641 61.968,32.397 75.673 C 31.307 82.327,31.358 94.940,32.501 101.177 C 34.427 111.690,41.384 120.682,51.200 125.344 L 55.893 127.573 256.000 127.573 L 456.107 127.573 460.800 125.344 C 470.616 120.682,477.573 111.690,479.499 101.177 C 480.642 94.940,480.693 82.327,479.603 75.673 C 477.292 61.563,467.345 51.263,453.569 48.716 C 445.944 47.307,63.554 47.555,57.173 48.973 M64.942 161.600 C 64.219 162.471,64.027 195.793,64.197 290.667 L 64.427 418.560 66.415 424.533 C 71.323 439.276,81.716 451.368,94.978 457.764 C 109.223 464.636,98.672 464.213,256.000 464.213 C 411.143 464.213,402.656 464.509,415.342 458.655 C 429.804 451.980,439.660 440.985,445.164 425.387 L 447.573 418.560 447.803 290.667 C 447.973 195.793,447.781 162.471,447.058 161.600 C 445.599 159.842,66.401 159.842,64.942 161.600 M261.704 209.121 C 264.683 210.246,268.497 213.790,270.370 217.173 C 271.641 219.470,271.812 225.335,272.030 274.291 L 272.274 328.850 291.230 310.016 C 301.656 299.657,311.416 290.562,312.918 289.804 C 319.827 286.319,329.705 289.264,333.449 295.926 C 335.550 299.663,336.009 306.212,334.460 310.344 C 333.119 313.920,266.606 380.398,262.400 382.366 C 258.066 384.393,253.934 384.393,249.600 382.366 C 245.394 380.398,178.881 313.920,177.540 310.344 C 175.991 306.212,176.450 299.663,178.551 295.926 C 182.295 289.264,192.173 286.319,199.082 289.804 C 200.584 290.562,210.344 299.657,220.770 310.016 L 239.726 328.850 239.970 274.291 C 240.188 225.416,240.360 219.467,241.626 217.173 C 245.696 209.796,254.328 206.334,261.704 209.121 " stroke="none" fill-rule="evenodd" fill="black"></path></svg>