<svg xmlns="http://www.w3.org/2000/svg" width="512" height="512" viewBox="0 0 512 512"><path d="M249.450 77.125 C 247.490 77.765,244.610 79.088,243.050 80.065 C 241.490 81.042,206.752 115.363,165.854 156.334 C 94.945 227.370,91.411 231.056,89.694 235.765 C 88.704 238.482,87.893 242.211,87.893 244.053 C 87.893 248.448,90.645 255.667,93.759 259.442 C 99.574 266.492,110.576 269.577,119.562 266.679 C 123.915 265.275,127.034 262.328,178.125 211.335 L 232.090 157.474 232.312 288.017 L 232.533 418.560 234.639 422.681 C 237.410 428.107,241.867 432.019,247.814 434.244 C 253.923 436.529,258.077 436.529,264.186 434.244 C 270.133 432.019,274.590 428.107,277.361 422.681 L 279.467 418.560 279.688 288.640 C 279.810 217.184,280.190 158.720,280.532 158.720 C 280.875 158.720,305.159 182.677,334.498 211.958 C 384.986 262.347,388.086 265.275,392.438 266.679 C 401.424 269.578,412.426 266.492,418.241 259.442 C 421.355 255.667,424.107 248.448,424.107 244.053 C 424.107 242.211,423.295 238.482,422.303 235.765 C 420.583 231.057,417.006 227.329,345.716 155.917 C 285.805 95.904,270.062 80.578,266.553 78.852 C 261.245 76.241,254.301 75.540,249.450 77.125 " stroke="none" fill="black" fill-rule="evenodd"></path></svg>