<svg xmlns="http://www.w3.org/2000/svg" width="512" height="512" viewBox="0 0 512 512"><path d="M241.920 48.656 C 209.569 50.678,176.936 60.929,148.731 77.932 C 94.814 110.433,58.978 164.884,49.790 228.267 C 47.760 242.269,47.760 269.731,49.790 283.733 C 55.047 319.999,68.580 352.627,90.558 382.029 C 98.598 392.784,119.216 413.402,129.971 421.442 C 159.373 443.420,192.001 456.953,228.267 462.210 C 235.366 463.239,243.873 463.695,256.000 463.695 C 268.127 463.695,276.634 463.239,283.733 462.210 C 319.999 456.953,352.627 443.420,382.029 421.442 C 392.784 413.402,413.402 392.784,421.442 382.029 C 441.901 354.659,455.008 324.668,460.856 291.840 C 470.924 235.321,456.636 176.673,421.441 130.052 C 388.588 86.534,337.751 57.084,283.307 50.031 C 270.567 48.381,254.742 47.855,241.920 48.656 M317.013 201.368 C 341.888 224.974,363.103 245.107,364.158 246.108 L 366.076 247.928 315.945 295.678 L 265.813 343.428 265.588 316.354 L 265.363 289.280 258.761 289.287 C 250.055 289.297,234.364 290.704,225.079 292.307 C 208.790 295.121,193.249 301.128,180.728 309.452 C 173.237 314.432,160.483 326.512,152.054 336.610 L 145.668 344.261 146.261 333.197 C 147.423 311.514,150.165 294.655,154.859 280.324 C 169.871 234.497,203.173 210.101,254.293 207.480 L 264.960 206.933 265.186 179.679 L 265.411 152.424 268.599 155.436 C 270.352 157.092,292.139 177.762,317.013 201.368 " stroke="none" fill-rule="evenodd" fill="black"></path></svg>