<svg xmlns="http://www.w3.org/2000/svg" width="512" height="512" viewBox="0 0 512 512"><path d="M241.920 48.656 C 209.569 50.678,176.936 60.929,148.731 77.932 C 94.814 110.433,58.978 164.884,49.790 228.267 C 47.760 242.269,47.760 269.731,49.790 283.733 C 55.047 319.999,68.580 352.627,90.558 382.029 C 98.598 392.784,119.216 413.402,129.971 421.442 C 159.373 443.420,192.001 456.953,228.267 462.210 C 235.366 463.239,243.873 463.695,256.000 463.695 C 268.127 463.695,276.634 463.239,283.733 462.210 C 319.999 456.953,352.627 443.420,382.029 421.442 C 392.784 413.402,413.402 392.784,421.442 382.029 C 441.901 354.659,455.008 324.668,460.856 291.840 C 470.924 235.321,456.636 176.673,421.441 130.052 C 388.588 86.534,337.751 57.084,283.307 50.031 C 270.567 48.381,254.742 47.855,241.920 48.656 M264.246 156.623 C 266.558 157.978,268.671 160.143,269.868 162.383 L 271.787 165.973 272.025 234.612 L 272.262 303.250 298.910 276.690 C 326.414 249.276,329.626 246.675,336.027 246.632 C 339.235 246.611,344.359 248.558,346.726 250.699 C 351.996 255.465,353.214 265.363,349.227 271.018 C 345.543 276.243,266.164 354.612,262.827 356.319 C 259.004 358.274,252.992 358.273,249.173 356.316 C 245.833 354.604,166.452 276.236,162.773 271.018 C 158.786 265.363,160.004 255.465,165.274 250.699 C 167.641 248.558,172.765 246.611,175.973 246.632 C 182.374 246.675,185.586 249.276,213.090 276.690 L 239.738 303.250 239.975 234.612 L 240.213 165.973 242.123 162.401 C 246.210 154.755,256.481 152.073,264.246 156.623 " stroke="none" fill-rule="evenodd" fill="black"></path></svg>