<svg xmlns="http://www.w3.org/2000/svg" width="512" height="512" viewBox="0 0 512 512"><path d="M241.920 48.656 C 209.569 50.678,176.936 60.929,148.731 77.932 C 94.814 110.433,58.978 164.884,49.790 228.267 C 47.760 242.269,47.760 269.731,49.790 283.733 C 55.047 319.999,68.580 352.627,90.558 382.029 C 98.598 392.784,119.216 413.402,129.971 421.442 C 159.373 443.420,192.001 456.953,228.267 462.210 C 235.366 463.239,243.873 463.695,256.000 463.695 C 268.127 463.695,276.634 463.239,283.733 462.210 C 319.999 456.953,352.627 443.420,382.029 421.442 C 392.784 413.402,413.402 392.784,421.442 382.029 C 441.901 354.659,455.008 324.668,460.856 291.840 C 470.924 235.321,456.636 176.673,421.441 130.052 C 388.588 86.534,337.751 57.084,283.307 50.031 C 270.567 48.381,254.742 47.855,241.920 48.656 M271.018 162.773 C 276.021 166.300,354.565 245.767,356.162 248.918 C 358.209 252.954,357.954 260.008,355.622 263.850 C 353.537 267.285,272.952 348.558,270.137 350.065 C 264.865 352.886,257.688 352.210,252.724 348.424 C 249.342 345.844,246.651 340.433,246.651 336.213 C 246.651 329.632,249.102 326.589,276.699 298.901 L 303.269 272.243 234.621 272.015 C 168.795 271.796,165.837 271.719,162.658 270.141 C 151.889 264.797,151.722 247.830,162.383 242.132 L 165.973 240.213 234.612 239.975 L 303.250 239.738 276.690 213.090 C 257.280 193.616,249.661 185.410,248.390 182.608 C 243.353 171.503,250.535 160.549,262.912 160.461 C 266.782 160.433,268.322 160.872,271.018 162.773 " stroke="none" fill-rule="evenodd" fill="black"></path></svg>