<svg xmlns="http://www.w3.org/2000/svg" width="512" height="512" viewBox="0 0 512 512"><path d="M241.493 48.673 C 201.694 51.236,163.176 65.747,129.707 90.787 C 119.118 98.709,98.459 119.383,90.552 129.971 C 68.706 159.223,55.330 191.336,49.785 227.840 C 47.724 241.414,47.724 270.586,49.785 284.160 C 55.331 320.671,68.725 352.821,90.558 382.029 C 98.598 392.784,119.216 413.402,129.971 421.442 C 159.179 443.275,191.329 456.669,227.840 462.215 C 241.414 464.276,270.586 464.276,284.160 462.215 C 320.686 456.667,352.914 443.237,382.029 421.430 C 392.784 413.374,413.374 392.784,421.430 382.029 C 443.237 352.914,456.667 320.686,462.215 284.160 C 464.276 270.586,464.276 241.414,462.215 227.840 C 455.463 183.387,436.803 144.683,406.921 113.150 C 370.380 74.590,322.088 52.062,268.561 48.607 C 255.365 47.755,255.779 47.754,241.493 48.673 M284.160 82.308 C 319.998 88.383,351.735 104.258,377.739 129.118 C 405.349 155.513,423.300 189.800,429.832 228.618 C 431.923 241.048,431.905 271.514,429.799 283.733 C 419.921 341.032,385.307 387.989,334.011 413.679 C 285.590 437.929,226.410 437.929,177.989 413.679 C 126.525 387.905,91.775 340.650,82.174 283.382 C 80.053 270.734,80.053 241.266,82.174 228.618 C 92.715 165.745,133.739 115.017,192.849 91.764 C 205.896 86.632,221.606 82.941,239.787 80.737 C 246.454 79.928,276.372 80.988,284.160 82.308 M216.545 175.942 C 207.504 184.476,187.755 203.122,172.659 217.378 C 157.563 231.634,144.987 243.883,144.712 244.599 C 143.732 247.154,144.240 250.684,145.891 252.783 C 149.124 256.893,231.392 334.092,233.784 335.261 C 236.784 336.726,240.093 335.985,242.847 333.231 L 244.907 331.171 244.907 310.692 L 244.907 290.214 248.960 290.575 C 251.189 290.774,258.005 291.127,264.107 291.360 C 285.477 292.176,306.591 297.160,322.012 305.029 C 331.792 310.019,339.265 315.394,347.780 323.562 C 351.561 327.189,355.744 330.570,357.077 331.077 C 360.258 332.286,364.805 330.823,366.660 327.993 C 368.445 325.268,367.751 315.306,364.736 300.376 C 352.662 240.581,316.543 209.446,255.230 205.981 L 244.907 205.397 244.907 185.843 C 244.907 166.028,244.608 163.855,241.567 161.520 C 240.823 160.949,238.587 160.469,236.598 160.454 C 233.071 160.427,232.584 160.804,216.545 175.942 " stroke="none" fill-rule="evenodd" fill="black"></path></svg>