<svg xmlns="http://www.w3.org/2000/svg" width="512" height="512" viewBox="0 0 512 512"><path d="M241.920 48.656 C 209.569 50.678,176.936 60.929,148.731 77.932 C 94.814 110.433,58.978 164.884,49.790 228.267 C 47.760 242.269,47.760 269.731,49.790 283.733 C 55.047 319.999,68.580 352.627,90.558 382.029 C 98.598 392.784,119.216 413.402,129.971 421.442 C 159.373 443.420,192.001 456.953,228.267 462.210 C 235.366 463.239,243.873 463.695,256.000 463.695 C 268.127 463.695,276.634 463.239,283.733 462.210 C 319.999 456.953,352.627 443.420,382.029 421.442 C 392.784 413.402,413.402 392.784,421.442 382.029 C 441.901 354.659,455.008 324.668,460.856 291.840 C 470.924 235.321,456.636 176.673,421.441 130.052 C 388.588 86.534,337.751 57.084,283.307 50.031 C 270.567 48.381,254.742 47.855,241.920 48.656 M256.674 162.043 C 258.415 162.931,260.497 164.385,261.301 165.274 C 263.442 167.641,265.389 172.765,265.368 175.973 C 265.325 182.374,262.724 185.586,235.310 213.090 L 208.750 239.738 277.388 239.975 L 346.027 240.213 349.617 242.132 C 360.278 247.830,360.111 264.797,349.342 270.141 C 346.163 271.719,343.205 271.796,277.379 272.015 L 208.731 272.243 235.301 298.901 C 262.898 326.589,265.349 329.632,265.349 336.213 C 265.349 347.708,252.063 355.523,241.830 350.047 C 239.001 348.533,158.482 267.308,156.378 263.845 C 154.044 260.006,153.791 252.953,155.841 248.918 C 157.445 245.760,235.987 166.290,240.979 162.773 C 245.117 159.858,251.786 159.548,256.674 162.043 " stroke="none" fill-rule="evenodd" fill="black"></path></svg>