<svg xmlns="http://www.w3.org/2000/svg" width="512" height="512" viewBox="0 0 512 512"><path d="M241.920 48.656 C 209.569 50.678,176.936 60.929,148.731 77.932 C 94.814 110.433,58.978 164.884,49.790 228.267 C 47.760 242.269,47.760 269.731,49.790 283.733 C 55.047 319.999,68.580 352.627,90.558 382.029 C 98.598 392.784,119.216 413.402,129.971 421.442 C 159.373 443.420,192.001 456.953,228.267 462.210 C 235.366 463.239,243.873 463.695,256.000 463.695 C 268.127 463.695,276.634 463.239,283.733 462.210 C 319.999 456.953,352.627 443.420,382.029 421.442 C 392.784 413.402,413.402 392.784,421.442 382.029 C 441.901 354.659,455.008 324.668,460.856 291.840 C 470.924 235.321,456.636 176.673,421.441 130.052 C 388.588 86.534,337.751 57.084,283.307 50.031 C 270.567 48.381,254.742 47.855,241.920 48.656 M260.688 164.688 L 271.751 175.776 265.805 181.968 C 262.534 185.374,248.336 199.776,234.254 213.973 L 208.650 239.787 283.099 239.787 L 357.547 239.787 357.547 256.000 L 357.547 272.213 283.099 272.213 L 208.650 272.213 234.254 298.027 C 248.336 312.224,262.534 326.626,265.805 330.032 L 271.751 336.224 260.685 347.315 C 254.598 353.415,249.412 358.309,249.160 358.190 C 248.908 358.071,225.904 335.029,198.040 306.986 L 147.377 255.999 198.062 204.877 C 225.939 176.760,248.944 153.720,249.186 153.678 C 249.427 153.635,254.603 158.590,260.688 164.688 " stroke="none" fill-rule="evenodd" fill="black"></path></svg>