<svg xmlns="http://www.w3.org/2000/svg" width="512" height="512" viewBox="0 0 512 512"><path d="M241.920 48.656 C 209.569 50.678,176.936 60.929,148.731 77.932 C 94.814 110.433,58.978 164.884,49.790 228.267 C 47.760 242.269,47.760 269.731,49.790 283.733 C 55.047 319.999,68.580 352.627,90.558 382.029 C 98.598 392.784,119.216 413.402,129.971 421.442 C 159.373 443.420,192.001 456.953,228.267 462.210 C 235.366 463.239,243.873 463.695,256.000 463.695 C 268.127 463.695,276.634 463.239,283.733 462.210 C 319.999 456.953,352.627 443.420,382.029 421.442 C 392.784 413.402,413.402 392.784,421.442 382.029 C 441.901 354.659,455.008 324.668,460.856 291.840 C 470.924 235.321,456.636 176.673,421.441 130.052 C 388.588 86.534,337.751 57.084,283.307 50.031 C 270.567 48.381,254.742 47.855,241.920 48.656 M313.962 205.016 L 364.626 256.005 313.952 306.989 C 286.082 335.030,263.076 358.071,262.830 358.190 C 262.583 358.309,257.402 353.416,251.316 347.316 L 240.250 336.226 245.769 330.460 C 248.804 327.288,263.001 312.885,277.318 298.453 L 303.350 272.213 228.902 272.213 L 154.453 272.213 154.453 256.000 L 154.453 239.787 228.902 239.787 L 303.350 239.787 277.318 213.547 C 263.001 199.115,248.804 184.712,245.769 181.540 L 240.250 175.774 251.316 164.684 C 257.402 158.584,262.588 153.691,262.840 153.810 C 263.092 153.929,286.097 176.972,313.962 205.016 " stroke="none" fill-rule="evenodd" fill="black"></path></svg>