<svg xmlns="http://www.w3.org/2000/svg" width="512" height="512" viewBox="0 0 512 512"><path d="M264.107 74.121 C 260.694 76.229,258.893 78.354,257.313 82.137 C 256.193 84.817,256.000 91.345,256.000 126.601 C 256.000 172.955,256.631 168.954,249.317 168.968 C 244.049 168.978,225.647 171.166,216.659 172.852 C 169.114 181.766,130.671 202.853,103.428 234.963 C 69.033 275.504,50.984 332.260,48.165 408.747 C 47.484 427.219,48.029 430.323,52.798 435.091 C 59.273 441.567,68.580 441.637,74.994 435.260 C 76.691 433.572,82.112 427.219,87.040 421.141 C 96.964 408.901,112.440 392.983,121.607 385.586 C 152.740 360.467,192.556 347.250,243.840 345.012 L 256.000 344.481 256.019 385.787 C 256.036 424.016,256.154 427.350,257.604 430.542 C 261.646 439.441,271.850 442.584,280.097 437.472 C 285.260 434.271,461.414 265.460,462.651 262.528 C 464.104 259.084,464.104 252.916,462.651 249.472 C 461.400 246.506,285.237 77.718,279.990 74.458 C 275.971 71.961,267.881 71.789,264.107 74.121 " stroke="none" fill-rule="evenodd" fill="black"></path></svg>