<svg xmlns="http://www.w3.org/2000/svg" width="512" height="512" viewBox="0 0 512 512"><path d="M241.493 48.673 C 201.694 51.236,163.176 65.747,129.707 90.787 C 119.118 98.709,98.459 119.383,90.552 129.971 C 68.706 159.223,55.330 191.336,49.785 227.840 C 47.724 241.414,47.724 270.586,49.785 284.160 C 55.331 320.671,68.725 352.821,90.558 382.029 C 98.598 392.784,119.216 413.402,129.971 421.442 C 159.179 443.275,191.329 456.669,227.840 462.215 C 241.414 464.276,270.586 464.276,284.160 462.215 C 320.686 456.667,352.914 443.237,382.029 421.430 C 392.784 413.374,413.374 392.784,421.430 382.029 C 443.237 352.914,456.667 320.686,462.215 284.160 C 464.276 270.586,464.276 241.414,462.215 227.840 C 455.463 183.387,436.803 144.683,406.921 113.150 C 370.380 74.590,322.088 52.062,268.561 48.607 C 255.365 47.755,255.779 47.754,241.493 48.673 M284.160 82.308 C 319.998 88.383,351.735 104.258,377.739 129.118 C 405.349 155.513,423.300 189.800,429.832 228.618 C 431.923 241.048,431.905 271.514,429.799 283.733 C 419.921 341.032,385.307 387.989,334.011 413.679 C 285.590 437.929,226.410 437.929,177.989 413.679 C 126.525 387.905,91.775 340.650,82.174 283.382 C 80.053 270.734,80.053 241.266,82.174 228.618 C 92.715 165.745,133.739 115.017,192.849 91.764 C 205.896 86.632,221.606 82.941,239.787 80.737 C 246.454 79.928,276.372 80.988,284.160 82.308 M255.575 161.771 C 251.728 163.777,249.948 165.619,248.218 169.387 C 246.293 173.580,246.190 178.242,247.931 182.409 C 248.801 184.491,258.431 194.775,276.250 212.651 L 303.251 239.738 234.045 239.976 L 164.839 240.213 161.216 242.773 C 151.834 249.401,151.834 262.599,161.216 269.227 L 164.839 271.787 234.050 272.020 L 303.261 272.253 276.255 299.344 C 258.432 317.224,248.801 327.509,247.931 329.591 C 246.188 333.764,246.293 338.425,248.226 342.613 C 250.398 347.320,253.475 349.904,258.439 351.192 C 263.485 352.501,267.824 351.732,271.669 348.848 C 273.142 347.743,292.832 328.224,315.426 305.473 C 354.690 265.935,356.543 263.927,357.349 260.053 C 357.905 257.382,357.905 254.618,357.349 251.947 C 356.543 248.073,354.684 246.059,315.426 206.509 C 292.832 183.747,272.849 164.067,271.018 162.775 C 268.341 160.886,266.755 160.428,262.912 160.432 C 260.249 160.435,257.001 161.028,255.575 161.771 " stroke="none" fill-rule="evenodd" fill="black"></path></svg>