<svg xmlns="http://www.w3.org/2000/svg" width="512" height="512" viewBox="0 0 512 512"><path d="M232.021 74.409 C 230.331 75.489,188.757 114.760,139.633 161.678 C 53.139 244.287,50.273 247.125,48.896 251.491 C 47.570 255.698,47.570 256.302,48.896 260.509 C 50.273 264.875,53.136 267.709,139.643 350.322 C 188.773 397.240,230.066 436.341,231.406 437.213 C 237.378 441.101,246.433 440.287,251.072 435.445 C 256.012 430.286,256.000 430.413,256.000 385.601 L 256.000 344.481 268.160 345.012 C 274.848 345.304,286.464 346.334,293.973 347.301 C 351.362 354.693,387.544 375.124,425.108 421.348 C 429.955 427.312,435.317 433.580,437.024 435.277 C 443.225 441.441,452.878 441.416,459.075 435.219 C 463.908 430.385,464.552 426.782,463.847 408.512 C 462.302 368.485,456.868 334.991,447.156 305.625 C 422.761 231.866,371.640 187.157,295.341 172.852 C 286.353 171.166,267.951 168.978,262.683 168.968 C 255.369 168.954,256.002 172.975,255.981 126.415 C 255.960 79.726,256.042 80.376,249.574 75.442 C 246.943 73.435,245.374 72.953,240.734 72.724 C 236.009 72.490,234.595 72.764,232.021 74.409 " stroke="none" fill-rule="evenodd" fill="black"></path></svg>