<svg xmlns="http://www.w3.org/2000/svg" width="512" height="512" viewBox="0 0 512 512"><path d="M232.010 74.458 C 226.763 77.718,50.600 246.506,49.349 249.472 C 47.893 252.923,47.897 259.086,49.357 262.548 C 50.703 265.739,226.976 434.472,232.367 437.730 C 238.379 441.363,246.674 440.203,251.479 435.056 C 255.964 430.253,256.000 429.855,256.000 385.734 L 256.000 344.747 261.836 344.747 C 265.046 344.747,273.782 345.331,281.250 346.045 C 331.980 350.897,364.516 363.467,395.520 390.194 C 405.294 398.619,416.843 411.022,429.967 427.187 C 438.541 437.747,441.536 439.784,448.535 439.814 C 457.184 439.851,463.294 433.361,464.003 423.386 C 464.511 416.245,462.876 385.904,461.205 371.461 C 455.731 324.146,443.125 285.332,423.416 255.106 C 391.157 205.634,343.736 178.040,277.591 170.253 C 271.583 169.546,264.363 168.870,261.547 168.750 L 256.427 168.533 256.000 125.867 C 255.548 80.650,255.636 81.592,251.413 76.932 C 248.538 73.759,245.365 72.533,240.042 72.538 C 236.403 72.541,234.277 73.049,232.010 74.458 M225.417 190.720 C 227.312 194.143,231.102 197.640,234.240 198.860 C 235.648 199.408,244.102 200.179,253.026 200.573 C 338.244 204.336,390.719 240.700,416.098 313.577 C 421.685 329.621,427.292 355.023,428.911 371.627 L 429.493 377.600 422.320 371.135 C 383.786 336.405,346.770 320.703,288.593 314.408 C 274.945 312.931,240.740 311.791,236.112 312.659 C 234.358 312.988,231.568 314.448,229.911 315.902 C 223.938 321.147,224.046 320.483,223.573 354.817 L 223.147 385.795 155.520 321.249 C 118.325 285.748,87.893 256.386,87.893 256.000 C 87.893 255.614,118.325 226.252,155.520 190.751 L 223.147 126.205 223.573 157.183 C 223.942 183.920,224.194 188.510,225.417 190.720 " stroke="none" fill-rule="evenodd" fill="black"></path></svg>