<svg xmlns="http://www.w3.org/2000/svg" width="512" height="512" viewBox="0 0 512 512"><path d="M252.380 123.848 L 252.160 175.360 242.793 175.940 C 207.134 178.146,171.650 187.363,145.920 201.104 C 90.078 230.925,58.523 283.209,49.877 360.238 C 48.612 371.509,47.030 433.691,47.895 438.135 C 48.137 439.379,52.651 434.712,66.056 419.362 C 85.856 396.688,102.720 379.414,113.067 371.210 C 146.621 344.605,182.387 333.124,242.127 329.783 L 252.573 329.199 252.793 380.380 L 253.013 431.562 357.973 342.235 C 415.701 293.106,462.933 252.505,462.933 252.012 C 462.933 251.371,266.524 83.519,254.051 73.501 C 252.689 72.407,252.587 75.486,252.380 123.848 " stroke="none" fill-rule="evenodd" fill="black"></path></svg>