<svg xmlns="http://www.w3.org/2000/svg" width="512" height="512" viewBox="0 0 512 512"><path d="M238.038 89.014 C 235.903 89.613,232.831 90.932,231.211 91.945 C 229.592 92.958,194.805 127.309,153.907 168.280 C 82.200 240.117,79.481 242.956,77.663 247.893 C 75.300 254.311,75.678 260.695,78.776 266.720 C 80.413 269.904,99.260 289.211,155.885 345.716 C 227.315 416.994,231.058 420.583,235.765 422.303 C 238.482 423.295,242.211 424.107,244.053 424.107 C 248.448 424.107,255.667 421.355,259.442 418.241 C 266.492 412.426,269.578 401.424,266.679 392.438 C 265.275 388.086,262.347 384.986,211.958 334.498 C 182.677 305.159,158.720 280.875,158.720 280.532 C 158.720 280.190,217.184 279.810,288.640 279.688 L 418.560 279.467 422.681 277.361 C 428.107 274.590,432.019 270.133,434.244 264.186 C 436.526 258.087,436.530 253.924,434.259 247.855 C 432.006 241.833,428.888 238.254,423.099 235.048 L 418.560 232.533 288.020 232.309 L 157.480 232.085 211.338 178.123 C 262.328 127.034,265.275 123.915,266.679 119.562 C 270.300 108.337,265.186 95.924,254.894 90.957 C 249.402 88.306,243.138 87.585,238.038 89.014 " stroke="none" fill="black" fill-rule="evenodd"></path></svg>