<svg xmlns="http://www.w3.org/2000/svg" width="512" height="512" viewBox="0 0 512 512"><path d="M270.080 72.317 C 265.693 73.043,264.485 73.538,262.008 75.621 C 256.272 80.448,256.471 78.786,256.000 125.867 L 255.573 168.533 250.453 168.758 C 247.637 168.881,240.341 169.573,234.240 170.296 C 168.074 178.136,120.839 205.639,88.584 255.106 C 68.985 285.162,56.100 324.727,50.774 371.200 C 48.654 389.705,47.328 423.800,48.558 428.205 C 50.779 436.157,59.840 441.506,67.566 439.426 C 72.893 437.991,73.845 437.182,82.074 427.093 C 95.360 410.804,106.784 398.552,116.480 390.194 C 147.484 363.467,180.020 350.897,230.750 346.045 C 238.218 345.331,246.954 344.747,250.164 344.747 L 256.000 344.747 256.019 385.920 C 256.036 424.020,256.154 427.351,257.604 430.542 C 261.646 439.441,271.850 442.584,280.097 437.472 C 285.260 434.271,461.414 265.460,462.651 262.528 C 464.104 259.084,464.104 252.916,462.651 249.472 C 461.518 246.787,285.681 78.076,280.551 74.753 C 277.876 73.020,272.871 71.856,270.080 72.317 M360.747 194.848 C 395.595 228.108,424.107 255.631,424.107 256.011 C 424.107 256.391,393.675 285.748,356.480 321.249 L 288.853 385.795 288.427 354.817 C 287.954 320.483,288.062 321.147,282.089 315.902 C 280.432 314.448,277.642 312.988,275.888 312.659 C 271.260 311.791,237.055 312.931,223.407 314.408 C 165.230 320.703,128.214 336.405,89.680 371.135 L 82.507 377.600 83.089 371.627 C 83.409 368.341,84.633 360.176,85.809 353.481 C 97.320 287.947,126.546 243.649,173.653 220.331 C 198.253 208.155,224.400 202.100,258.974 200.573 C 276.136 199.815,278.866 199.241,282.743 195.572 C 288.046 190.555,287.976 191.046,288.262 157.156 L 288.525 126.152 292.956 130.264 C 295.393 132.526,325.899 161.588,360.747 194.848 " stroke="none" fill-rule="evenodd" fill="black"></path></svg>