<svg xmlns="http://www.w3.org/2000/svg" width="512" height="512" viewBox="0 0 512 512"><path d="M241.920 48.656 C 209.569 50.678,176.936 60.929,148.731 77.932 C 94.814 110.433,58.978 164.884,49.790 228.267 C 47.760 242.269,47.760 269.731,49.790 283.733 C 55.047 319.999,68.580 352.627,90.558 382.029 C 98.598 392.784,119.216 413.402,129.971 421.442 C 159.373 443.420,192.001 456.953,228.267 462.210 C 235.366 463.239,243.873 463.695,256.000 463.695 C 268.127 463.695,276.634 463.239,283.733 462.210 C 319.999 456.953,352.627 443.420,382.029 421.442 C 392.784 413.402,413.402 392.784,421.442 382.029 C 441.901 354.659,455.008 324.668,460.856 291.840 C 470.924 235.321,456.636 176.673,421.441 130.052 C 388.588 86.534,337.751 57.084,283.307 50.031 C 270.567 48.381,254.742 47.855,241.920 48.656 M318.461 197.619 C 368.858 245.057,367.787 243.970,367.787 247.693 C 367.787 249.341,367.044 251.594,366.109 252.783 C 363.242 256.427,280.726 334.013,278.409 335.243 C 276.669 336.166,275.544 336.203,272.941 335.423 C 267.426 333.771,267.093 332.316,267.093 309.843 L 267.093 290.214 263.040 290.575 C 260.811 290.774,253.995 291.127,247.893 291.358 C 228.999 292.076,209.352 296.274,194.987 302.663 C 185.292 306.975,173.040 315.325,164.006 323.776 C 159.736 327.771,155.318 331.272,154.189 331.556 C 151.311 332.278,146.578 330.084,145.118 327.351 C 144.070 325.392,144.046 323.613,144.954 315.334 C 146.986 296.812,151.722 279.601,158.842 264.863 C 176.605 228.095,208.883 208.687,256.770 205.981 L 267.093 205.397 267.093 185.537 L 267.093 165.678 269.303 163.052 C 271.147 160.860,272.126 160.427,275.230 160.427 L 278.948 160.427 318.461 197.619 " stroke="none" fill-rule="evenodd" fill="black"></path></svg>