<svg xmlns="http://www.w3.org/2000/svg" width="512" height="512" viewBox="0 0 512 512"><path d="M261.805 89.046 C 248.033 92.896,240.744 107.173,245.747 120.501 C 247.282 124.590,252.443 130.014,300.790 178.347 L 354.139 231.680 223.789 232.107 L 93.440 232.533 89.097 234.825 C 77.412 240.991,72.836 255.109,78.758 266.720 C 81.306 271.715,84.366 274.749,89.600 277.470 L 93.440 279.467 223.360 279.688 C 294.816 279.810,353.280 280.190,353.280 280.532 C 353.280 280.875,329.323 305.159,300.042 334.498 C 249.653 384.986,246.725 388.086,245.321 392.438 C 242.422 401.424,245.508 412.426,252.558 418.241 C 256.333 421.355,263.552 424.107,267.947 424.107 C 269.789 424.107,273.518 423.295,276.235 422.303 C 280.944 420.582,284.674 417.003,356.448 345.332 C 437.660 264.237,434.997 267.191,435.845 257.280 C 436.103 254.267,435.658 251.509,434.331 247.893 C 432.517 242.952,429.848 240.166,357.666 167.865 C 298.260 108.362,282.003 92.531,278.613 90.885 C 273.248 88.280,266.994 87.596,261.805 89.046 " stroke="none" fill="black" fill-rule="evenodd"></path></svg>