<svg xmlns="http://www.w3.org/2000/svg" width="512" height="512" viewBox="0 0 512 512"><path d="M248.604 77.475 C 240.877 80.235,235.684 85.412,233.103 92.927 C 232.361 95.088,232.107 128.811,232.107 225.178 L 232.107 354.529 178.133 300.637 C 124.249 246.834,124.152 246.743,119.104 245.295 C 112.540 243.413,106.363 244.037,100.622 247.161 C 92.579 251.539,87.393 260.713,88.090 269.334 C 88.868 278.976,87.235 277.168,167.865 357.666 C 240.166 429.848,242.952 432.517,247.893 434.331 C 251.509 435.658,254.267 436.103,257.280 435.845 C 267.191 434.997,264.237 437.660,345.332 356.448 C 417.003 284.674,420.582 280.944,422.303 276.235 C 424.552 270.077,424.582 265.867,422.417 260.085 C 417.814 247.791,405.576 241.659,392.896 245.295 C 387.850 246.742,387.739 246.846,334.491 300.013 C 305.149 329.310,280.865 353.280,280.526 353.280 C 280.187 353.280,279.810 294.816,279.688 223.360 L 279.467 93.440 277.356 89.308 C 272.052 78.924,259.273 73.665,248.604 77.475 " stroke="none" fill="black" fill-rule="evenodd"></path></svg>