<svg xmlns="http://www.w3.org/2000/svg" width="512" height="512" viewBox="0 0 512 512"><path d="M241.920 48.656 C 209.569 50.678,176.936 60.929,148.731 77.932 C 94.814 110.433,58.978 164.884,49.790 228.267 C 47.760 242.269,47.760 269.731,49.790 283.733 C 55.047 319.999,68.580 352.627,90.558 382.029 C 98.598 392.784,119.216 413.402,129.971 421.442 C 159.373 443.420,192.001 456.953,228.267 462.210 C 235.366 463.239,243.873 463.695,256.000 463.695 C 268.127 463.695,276.634 463.239,283.733 462.210 C 319.999 456.953,352.627 443.420,382.029 421.442 C 392.784 413.402,413.402 392.784,421.442 382.029 C 441.901 354.659,455.008 324.668,460.856 291.840 C 470.924 235.321,456.636 176.673,421.441 130.052 C 388.588 86.534,337.751 57.084,283.307 50.031 C 270.567 48.381,254.742 47.855,241.920 48.656 M263.082 155.838 C 266.233 157.435,345.700 235.979,349.227 240.982 C 353.214 246.637,351.996 256.535,346.726 261.301 C 344.487 263.326,339.297 265.388,336.454 265.382 C 329.295 265.368,328.488 264.724,299.758 236.133 L 272.262 208.771 272.025 277.399 L 271.787 346.027 269.403 350.081 C 263.318 360.434,248.210 360.308,242.357 349.856 L 240.213 346.027 239.975 277.399 L 239.738 208.771 212.242 236.133 C 183.512 264.724,182.705 265.368,175.546 265.382 C 172.703 265.388,167.513 263.326,165.274 261.301 C 160.004 256.535,158.786 246.637,162.773 240.982 C 166.079 236.293,244.691 158.433,248.320 156.254 C 251.995 154.047,259.152 153.845,263.082 155.838 " stroke="none" fill-rule="evenodd" fill="black"></path></svg>