<svg xmlns="http://www.w3.org/2000/svg" width="512" height="512" viewBox="0 0 512 512"><path d="M241.920 48.656 C 209.569 50.678,176.936 60.929,148.731 77.932 C 94.814 110.433,58.978 164.884,49.790 228.267 C 47.760 242.269,47.760 269.731,49.790 283.733 C 55.047 319.999,68.580 352.627,90.558 382.029 C 98.598 392.784,119.216 413.402,129.971 421.442 C 159.373 443.420,192.001 456.953,228.267 462.210 C 235.366 463.239,243.873 463.695,256.000 463.695 C 268.127 463.695,276.634 463.239,283.733 462.210 C 319.999 456.953,352.627 443.420,382.029 421.442 C 392.784 413.402,413.402 392.784,421.442 382.029 C 441.901 354.659,455.008 324.668,460.856 291.840 C 470.924 235.321,456.636 176.673,421.441 130.052 C 388.588 86.534,337.751 57.084,283.307 50.031 C 270.567 48.381,254.742 47.855,241.920 48.656 M242.697 163.052 L 244.907 165.678 244.907 185.545 L 244.907 205.412 255.360 206.017 C 287.848 207.897,312.377 217.130,331.285 234.597 C 350.394 252.249,363.333 281.741,367.098 316.227 C 368.221 326.512,367.541 328.861,362.873 330.813 C 358.598 332.600,356.121 331.431,348.115 323.844 C 344.069 320.009,338.238 315.073,335.158 312.875 C 317.233 300.084,291.929 292.422,264.107 291.360 C 258.005 291.127,251.189 290.774,248.960 290.575 L 244.907 290.214 244.907 310.529 C 244.907 330.825,244.905 330.846,242.846 333.068 C 240.165 335.961,236.856 336.762,233.787 335.261 C 231.412 334.100,150.629 258.373,146.386 253.332 C 144.958 251.634,144.213 249.719,144.213 247.743 C 144.213 244.035,143.515 244.754,186.027 204.737 C 203.627 188.170,221.373 171.422,225.464 167.521 C 232.499 160.810,233.106 160.427,236.695 160.427 C 239.883 160.427,240.841 160.845,242.697 163.052 " stroke="none" fill-rule="evenodd" fill="black"></path></svg>