<svg xmlns="http://www.w3.org/2000/svg" width="512" height="512" viewBox="0 0 512 512"><path d="M241.493 48.673 C 201.694 51.236,163.176 65.747,129.707 90.787 C 119.118 98.709,98.459 119.383,90.552 129.971 C 68.706 159.223,55.330 191.336,49.785 227.840 C 47.724 241.414,47.724 270.586,49.785 284.160 C 55.331 320.671,68.725 352.821,90.558 382.029 C 98.598 392.784,119.216 413.402,129.971 421.442 C 159.179 443.275,191.329 456.669,227.840 462.215 C 241.414 464.276,270.586 464.276,284.160 462.215 C 320.686 456.667,352.914 443.237,382.029 421.430 C 392.784 413.374,413.374 392.784,421.430 382.029 C 443.237 352.914,456.667 320.686,462.215 284.160 C 464.276 270.586,464.276 241.414,462.215 227.840 C 455.463 183.387,436.803 144.683,406.921 113.150 C 370.380 74.590,322.088 52.062,268.561 48.607 C 255.365 47.755,255.779 47.754,241.493 48.673 M284.160 82.308 C 319.998 88.383,351.735 104.258,377.739 129.118 C 405.349 155.513,423.300 189.800,429.832 228.618 C 431.923 241.048,431.905 271.514,429.799 283.733 C 419.921 341.032,385.307 387.989,334.011 413.679 C 285.590 437.929,226.410 437.929,177.989 413.679 C 126.525 387.905,91.775 340.650,82.174 283.382 C 80.053 270.734,80.053 241.266,82.174 228.618 C 92.715 165.745,133.739 115.017,192.849 91.764 C 205.896 86.632,221.606 82.941,239.787 80.737 C 246.454 79.928,276.372 80.988,284.160 82.308 M247.743 156.606 C 245.783 157.780,243.287 160.177,242.196 161.931 L 240.213 165.120 239.787 234.033 L 239.360 302.945 214.613 278.143 C 201.003 264.501,188.085 252.017,185.908 250.400 C 176.281 243.251,163.705 247.272,160.812 258.425 C 159.499 263.485,160.265 267.820,163.152 271.669 C 164.257 273.142,183.776 292.832,206.527 315.426 C 246.065 354.690,248.073 356.543,251.947 357.349 C 254.612 357.904,257.388 357.905,260.053 357.352 C 263.929 356.548,265.918 354.712,305.465 315.429 C 328.213 292.834,347.731 273.142,348.840 271.669 C 351.734 267.826,352.502 263.490,351.188 258.425 C 348.295 247.272,335.719 243.251,326.092 250.400 C 323.915 252.017,310.997 264.501,297.387 278.143 L 272.640 302.945 272.213 234.033 L 271.787 165.120 269.792 161.912 C 265.287 154.666,255.078 152.209,247.743 156.606 " stroke="none" fill-rule="evenodd" fill="black"></path></svg>