<svg xmlns="http://www.w3.org/2000/svg" width="512" height="512" viewBox="0 0 512 512"><path d="M241.920 48.656 C 209.569 50.678,176.936 60.929,148.731 77.932 C 94.814 110.433,58.978 164.884,49.790 228.267 C 47.760 242.269,47.760 269.731,49.790 283.733 C 55.047 319.999,68.580 352.627,90.558 382.029 C 98.598 392.784,119.216 413.402,129.971 421.442 C 159.373 443.420,192.001 456.953,228.267 462.210 C 235.366 463.239,243.873 463.695,256.000 463.695 C 268.127 463.695,276.634 463.239,283.733 462.210 C 319.999 456.953,352.627 443.420,382.029 421.442 C 392.784 413.402,413.402 392.784,421.442 382.029 C 441.901 354.659,455.008 324.668,460.856 291.840 C 470.924 235.321,456.636 176.673,421.441 130.052 C 388.588 86.534,337.751 57.084,283.307 50.031 C 270.567 48.381,254.742 47.855,241.920 48.656 M307.645 198.722 L 358.585 249.391 347.625 260.376 C 341.597 266.417,336.385 271.360,336.044 271.360 C 335.703 271.360,321.203 257.298,303.823 240.112 L 272.223 208.863 272.005 283.418 L 271.787 357.973 256.000 357.973 L 240.213 357.973 239.995 283.424 L 239.777 208.874 208.160 240.117 C 190.770 257.301,176.271 271.360,175.939 271.360 C 175.607 271.360,170.401 266.415,164.371 260.371 L 153.406 249.382 204.490 198.537 C 232.586 170.571,255.828 147.772,256.139 147.872 C 256.450 147.972,279.627 170.854,307.645 198.722 " stroke="none" fill-rule="evenodd" fill="black"></path></svg>