<svg xmlns="http://www.w3.org/2000/svg" width="512" height="512" viewBox="0 0 512 512"><path d="M241.493 48.673 C 201.694 51.236,163.176 65.747,129.707 90.787 C 119.118 98.709,98.459 119.383,90.552 129.971 C 68.706 159.223,55.330 191.336,49.785 227.840 C 47.724 241.414,47.724 270.586,49.785 284.160 C 55.331 320.671,68.725 352.821,90.558 382.029 C 98.598 392.784,119.216 413.402,129.971 421.442 C 159.179 443.275,191.329 456.669,227.840 462.215 C 241.414 464.276,270.586 464.276,284.160 462.215 C 320.686 456.667,352.914 443.237,382.029 421.430 C 392.784 413.374,413.374 392.784,421.430 382.029 C 443.237 352.914,456.667 320.686,462.215 284.160 C 464.276 270.586,464.276 241.414,462.215 227.840 C 455.463 183.387,436.803 144.683,406.921 113.150 C 370.380 74.590,322.088 52.062,268.561 48.607 C 255.365 47.755,255.779 47.754,241.493 48.673 M284.160 82.308 C 319.998 88.383,351.735 104.258,377.739 129.118 C 405.349 155.513,423.300 189.800,429.832 228.618 C 431.923 241.048,431.905 271.514,429.799 283.733 C 419.921 341.032,385.307 387.989,334.011 413.679 C 285.590 437.929,226.410 437.929,177.989 413.679 C 126.525 387.905,91.775 340.650,82.174 283.382 C 80.053 270.734,80.053 241.266,82.174 228.618 C 92.715 165.745,133.739 115.017,192.849 91.764 C 205.896 86.632,221.606 82.941,239.787 80.737 C 246.454 79.928,276.372 80.988,284.160 82.308 M240.982 162.773 C 239.151 164.064,219.169 183.744,196.577 206.507 C 157.336 246.043,155.462 248.075,154.653 251.947 C 154.094 254.627,154.094 257.373,154.653 260.053 C 155.462 263.926,157.332 265.952,196.577 305.480 C 219.169 328.235,238.858 347.754,240.331 348.855 C 244.181 351.733,248.520 352.500,253.561 351.192 C 258.525 349.904,261.602 347.320,263.774 342.613 C 265.707 338.425,265.812 333.764,264.069 329.591 C 263.199 327.509,253.568 317.224,235.745 299.344 L 208.739 272.253 277.950 272.020 L 347.161 271.787 350.784 269.227 C 355.371 265.986,357.744 261.477,357.744 256.000 C 357.744 250.441,355.342 245.965,350.646 242.773 L 346.880 240.213 277.814 239.976 L 208.749 239.738 235.750 212.651 C 263.398 184.914,265.387 182.469,265.387 176.213 C 265.387 172.781,263.485 167.689,261.301 165.274 C 256.535 160.004,246.637 158.786,240.982 162.773 " stroke="none" fill-rule="evenodd" fill="black"></path></svg>