<svg xmlns="http://www.w3.org/2000/svg" width="512" height="512" viewBox="0 0 512 512"><path d="M241.493 48.673 C 201.694 51.236,163.176 65.747,129.707 90.787 C 119.118 98.709,98.459 119.383,90.552 129.971 C 68.706 159.223,55.330 191.336,49.785 227.840 C 47.724 241.414,47.724 270.586,49.785 284.160 C 55.331 320.671,68.725 352.821,90.558 382.029 C 98.598 392.784,119.216 413.402,129.971 421.442 C 159.179 443.275,191.329 456.669,227.840 462.215 C 241.414 464.276,270.586 464.276,284.160 462.215 C 320.686 456.667,352.914 443.237,382.029 421.430 C 392.784 413.374,413.374 392.784,421.430 382.029 C 443.237 352.914,456.667 320.686,462.215 284.160 C 464.276 270.586,464.276 241.414,462.215 227.840 C 455.463 183.387,436.803 144.683,406.921 113.150 C 370.380 74.590,322.088 52.062,268.561 48.607 C 255.365 47.755,255.779 47.754,241.493 48.673 M284.160 82.308 C 319.998 88.383,351.735 104.258,377.739 129.118 C 405.349 155.513,423.300 189.800,429.832 228.618 C 431.923 241.048,431.905 271.514,429.799 283.733 C 419.921 341.032,385.307 387.989,334.011 413.679 C 285.590 437.929,226.410 437.929,177.989 413.679 C 126.525 387.905,91.775 340.650,82.174 283.382 C 80.053 270.734,80.053 241.266,82.174 228.618 C 92.715 165.745,133.739 115.017,192.849 91.764 C 205.896 86.632,221.606 82.941,239.787 80.737 C 246.454 79.928,276.372 80.988,284.160 82.308 M269.303 163.052 L 267.093 165.678 267.093 185.537 L 267.093 205.397 256.770 205.981 C 195.438 209.447,159.342 240.562,147.264 300.376 C 144.249 315.306,143.555 325.268,145.340 327.993 C 147.195 330.823,151.742 332.286,154.923 331.077 C 156.256 330.570,160.439 327.189,164.220 323.562 C 172.735 315.394,180.208 310.019,189.988 305.029 C 205.409 297.160,226.523 292.176,247.893 291.360 C 253.995 291.127,260.811 290.774,263.040 290.575 L 267.093 290.214 267.093 310.692 L 267.093 331.171 269.153 333.231 C 271.907 335.985,275.216 336.726,278.216 335.261 C 280.608 334.092,362.876 256.893,366.109 252.783 C 367.046 251.592,367.787 249.341,367.787 247.685 C 367.787 243.965,368.575 244.765,318.056 197.204 L 278.991 160.427 275.252 160.427 C 272.123 160.427,271.151 160.856,269.303 163.052 " stroke="none" fill-rule="evenodd" fill="black"></path></svg>