<svg xmlns="http://www.w3.org/2000/svg" width="512" height="512" viewBox="0 0 512 512"><path d="M154.027 161.791 C 96.299 210.919,49.067 251.520,49.067 252.016 C 49.067 252.512,96.299 293.114,154.027 342.242 L 258.987 431.566 259.207 380.383 L 259.427 329.199 269.873 329.783 C 332.707 333.297,369.275 345.802,404.053 375.669 C 415.793 385.751,423.336 393.630,445.883 419.362 C 459.345 434.726,463.863 439.380,464.105 438.135 C 464.970 433.691,463.388 371.509,462.123 360.238 C 451.742 267.751,407.820 210.050,329.852 186.475 C 311.806 181.019,284.548 176.468,264.533 175.570 L 259.840 175.360 259.413 123.915 L 258.987 72.469 154.027 161.791 " stroke="none" fill-rule="evenodd" fill="black"></path></svg>