<svg xmlns="http://www.w3.org/2000/svg" width="512" height="512" viewBox="0 0 512 512"><path d="M241.920 48.656 C 209.569 50.678,176.936 60.929,148.731 77.932 C 94.814 110.433,58.978 164.884,49.790 228.267 C 47.760 242.269,47.760 269.731,49.790 283.733 C 55.047 319.999,68.580 352.627,90.558 382.029 C 98.598 392.784,119.216 413.402,129.971 421.442 C 159.373 443.420,192.001 456.953,228.267 462.210 C 235.366 463.239,243.873 463.695,256.000 463.695 C 268.127 463.695,276.634 463.239,283.733 462.210 C 319.999 456.953,352.627 443.420,382.029 421.442 C 392.784 413.402,413.402 392.784,421.442 382.029 C 441.901 354.659,455.008 324.668,460.856 291.840 C 470.924 235.321,456.636 176.673,421.441 130.052 C 388.588 86.534,337.751 57.084,283.307 50.031 C 270.567 48.381,254.742 47.855,241.920 48.656 M272.213 228.800 L 272.213 303.146 303.818 271.893 C 321.201 254.704,335.703 240.640,336.044 240.640 C 336.385 240.640,341.599 245.586,347.630 251.630 L 358.596 262.620 307.631 313.284 C 279.600 341.148,256.366 363.947,256.000 363.947 C 255.634 363.947,232.400 341.148,204.369 313.284 L 153.404 262.620 164.370 251.630 C 170.401 245.586,175.607 240.640,175.939 240.640 C 176.271 240.640,190.772 254.701,208.164 271.887 L 239.787 303.135 239.787 228.794 L 239.787 154.453 256.000 154.453 L 272.213 154.453 272.213 228.800 " stroke="none" fill-rule="evenodd" fill="black"></path></svg>