<svg xmlns="http://www.w3.org/2000/svg" width="512" height="512" viewBox="0 0 512 512"><path d="M243.200 48.747 C 207.534 50.511,171.084 62.713,140.833 83.015 C 115.762 99.841,93.129 123.534,77.890 148.907 C 47.563 199.402,39.975 259.714,56.902 315.733 C 77.573 384.141,131.030 436.650,200.107 456.398 C 240.532 467.955,287.219 466.233,326.827 451.724 C 345.691 444.814,369.561 431.512,385.225 419.181 C 392.995 413.064,413.064 392.995,419.181 385.225 C 431.512 369.561,444.814 345.691,451.724 326.827 C 466.233 287.219,467.955 240.532,456.398 200.107 C 439.380 140.579,397.634 91.954,341.912 66.759 C 310.766 52.675,279.417 46.955,243.200 48.747 M277.314 81.554 C 365.088 91.766,431.725 166.946,431.780 255.820 C 431.797 283.975,426.032 308.881,413.752 333.705 C 387.654 386.461,338.006 422.364,279.955 430.461 C 267.372 432.216,244.202 432.193,231.835 430.414 C 144.491 417.847,80.021 343.491,80.241 255.573 C 80.357 208.956,98.728 164.831,131.779 131.779 C 170.228 93.331,222.750 75.205,277.314 81.554 M246.613 131.811 C 215.000 137.448,188.707 151.860,167.389 175.235 C 150.190 194.094,139.343 215.093,133.822 240.213 C 131.266 251.847,131.033 278.249,133.389 289.280 C 143.794 337.986,178.505 371.573,227.413 380.260 C 236.648 381.900,259.092 382.108,269.653 380.651 C 283.650 378.721,306.471 372.020,310.064 368.786 C 319.215 360.549,313.596 344.747,301.518 344.747 C 299.470 344.747,293.453 346.062,288.148 347.671 C 269.842 353.219,253.144 355.073,237.356 353.309 C 215.061 350.818,198.151 342.560,183.222 326.873 C 172.724 315.841,166.331 304.333,162.099 288.853 C 159.516 279.406,158.861 260.335,160.745 249.484 C 164.693 226.758,174.915 207.223,191.511 190.689 C 208.573 173.691,226.263 164.207,248.854 159.947 C 257.975 158.227,282.825 158.692,291.845 160.752 C 323.927 168.078,345.224 188.765,352.125 219.307 C 354.341 229.115,354.131 251.492,351.731 261.304 C 347.484 278.672,338.263 290.018,326.181 292.743 C 317.336 294.738,309.688 285.381,309.797 272.698 C 309.818 270.320,311.289 256.901,313.066 242.879 L 316.297 217.385 311.679 212.397 C 299.989 199.770,282.207 192.853,261.436 192.853 C 240.826 192.853,224.872 199.768,210.616 214.880 C 200.230 225.890,194.624 238.120,192.774 253.802 C 189.870 278.424,201.138 302.955,220.374 313.888 C 234.377 321.847,253.153 322.892,269.778 316.637 C 275.027 314.661,284.081 309.155,287.755 305.703 L 290.071 303.527 295.012 308.656 C 317.716 332.222,356.930 320.266,373.326 284.778 C 384.147 261.358,384.851 225.871,375.036 198.655 C 362.536 163.996,332.704 139.998,292.914 132.594 C 282.866 130.724,255.321 130.259,246.613 131.811 M273.493 222.044 C 277.507 222.909,286.720 226.510,286.720 227.215 C 286.720 231.097,281.976 262.238,280.775 266.240 C 275.746 283.000,261.485 293.531,245.163 292.538 C 238.210 292.114,233.900 290.192,229.392 285.502 C 222.314 278.138,219.307 267.451,220.964 255.542 C 222.226 246.466,225.886 239.145,232.418 232.632 C 243.179 221.903,256.677 218.423,273.493 222.044 " stroke="none" fill-rule="evenodd" fill="black"></path></svg>