<svg xmlns="http://www.w3.org/2000/svg" width="512" height="512" viewBox="0 0 512 512"><path d="M242.773 49.148 C 198.354 52.515,159.533 67.479,125.985 94.164 C 87.707 124.612,61.455 167.401,51.723 215.204 C 48.734 229.887,47.787 239.960,47.787 257.065 C 47.787 280.872,50.777 299.755,58.055 321.915 C 81.968 394.722,144.399 448.505,220.343 461.722 C 278.741 471.886,339.412 456.028,386.133 418.390 C 397.328 409.371,413.509 392.640,421.867 381.440 C 474.472 310.955,477.273 214.785,428.840 142.057 C 395.491 91.981,344.209 59.652,284.160 50.850 C 275.212 49.538,250.842 48.536,242.773 49.148 M286.527 131.837 C 330.056 138.025,361.917 163.123,374.576 201.197 C 378.460 212.877,379.870 221.254,380.352 235.520 C 381.792 278.118,365.442 308.811,336.063 318.658 C 321.007 323.704,305.736 320.132,294.134 308.850 L 288.942 303.801 284.204 307.518 C 278.314 312.139,271.079 315.826,262.797 318.426 C 254.311 321.091,237.652 321.298,230.400 318.828 C 215.484 313.749,205.150 304.943,198.505 291.650 C 192.786 280.211,191.585 274.888,191.615 261.120 C 191.644 248.023,192.836 242.254,197.593 232.182 C 206.774 212.745,224.609 198.362,244.853 194.070 C 252.128 192.528,267.797 192.527,275.853 194.068 C 289.618 196.702,303.627 204.185,311.044 212.867 L 314.934 217.420 311.448 244.524 C 307.608 274.379,307.627 278.832,311.626 286.055 C 317.002 295.763,329.123 294.896,339.129 284.088 C 346.803 275.800,351.088 264.157,352.368 248.121 C 355.306 211.292,340.008 181.855,310.577 167.712 C 297.542 161.448,283.906 158.720,265.622 158.720 C 246.959 158.720,234.950 161.530,218.470 169.754 C 193.082 182.422,172.666 205.903,163.363 233.134 C 159.437 244.624,158.319 252.148,158.379 266.667 C 158.428 278.648,158.714 281.365,160.712 288.853 C 164.885 304.496,172.316 317.512,183.402 328.598 C 201.568 346.764,225.556 355.394,253.360 353.765 C 266.221 353.011,275.479 351.330,286.651 347.718 C 297.860 344.094,302.960 343.874,307.307 346.828 C 315.430 352.348,314.954 365.447,306.459 370.157 C 297.718 375.004,276.271 380.032,258.209 381.468 C 227.012 383.950,198.899 376.393,176.071 359.391 C 139.377 332.059,122.783 285.235,133.077 238.068 C 144.908 183.863,190.800 140.422,245.333 131.807 C 254.746 130.320,275.964 130.336,286.527 131.837 M253.013 221.082 C 242.630 222.620,230.489 230.875,224.701 240.333 C 218.644 250.229,217.495 266.766,222.160 276.907 C 224.860 282.774,229.307 287.749,234.240 290.419 C 237.092 291.963,239.056 292.267,246.187 292.267 C 253.671 292.267,255.323 291.984,259.629 289.966 C 266.521 286.736,273.306 280.031,276.849 272.948 C 280.308 266.035,280.997 262.954,283.576 242.873 L 285.535 227.613 282.928 226.001 C 276.348 221.933,262.571 219.667,253.013 221.082 " stroke="none" fill-rule="evenodd" fill="black"></path></svg>