<svg xmlns="http://www.w3.org/2000/svg" width="512" height="512" viewBox="0 0 512 512"><path d="M243.627 49.148 C 205.051 52.072,170.920 63.677,140.532 84.201 C 127.766 92.823,119.760 99.450,108.800 110.467 C 77.878 141.551,58.047 180.838,50.630 225.707 C 48.423 239.053,48.416 273.651,50.616 287.543 C 57.660 332.010,77.872 371.996,109.159 403.359 C 126.188 420.430,142.449 432.099,164.267 442.904 C 222.864 471.925,289.178 472.096,347.733 443.378 C 412.948 411.393,455.978 349.363,463.446 276.572 C 464.701 264.341,463.981 237.430,462.074 225.280 C 449.908 147.767,395.580 83.712,321.280 59.280 C 301.478 52.768,283.626 49.728,261.973 49.180 C 254.229 48.985,245.973 48.970,243.627 49.148 M295.319 133.046 C 323.376 139.072,345.143 152.041,359.720 171.418 C 374.307 190.809,381.446 213.243,381.435 239.658 C 381.420 273.264,370.499 298.696,350.273 312.224 C 331.231 324.960,309.484 323.505,294.768 308.511 L 289.588 303.233 285.851 306.550 C 280.836 311.000,272.631 315.490,264.676 318.136 C 259.064 320.002,256.554 320.320,247.040 320.369 C 238.324 320.414,234.941 320.084,231.253 318.828 C 210.366 311.715,197.189 295.798,193.178 272.837 C 190.662 258.430,192.722 244.132,199.231 230.827 C 206.199 216.582,216.064 206.861,230.827 199.692 C 241.430 194.543,248.886 192.853,261.000 192.853 C 276.827 192.853,290.275 196.533,301.738 204.002 C 306.931 207.385,315.733 216.108,315.733 217.871 C 315.733 218.302,314.363 229.458,312.689 242.661 C 308.403 276.462,308.626 281.864,314.583 288.458 C 321.282 295.872,330.593 294.167,340.348 283.739 C 356.239 266.751,358.494 226.984,345.076 200.341 C 333.702 177.754,312.580 163.802,283.273 159.517 C 271.852 157.847,250.589 158.893,240.213 161.636 C 229.368 164.503,213.329 172.296,203.912 179.274 C 158.616 212.842,145.356 274.005,174.121 316.688 C 178.822 323.665,189.188 334.031,196.165 338.733 C 212.716 349.887,232.614 354.993,254.720 353.759 C 268.175 353.009,278.523 350.846,294.042 345.542 C 301.044 343.148,307.301 341.126,307.946 341.048 C 309.646 340.843,318.663 366.176,317.212 367.079 C 314.507 368.763,287.043 377.279,279.220 378.859 C 242.932 386.189,208.477 380.463,181.454 362.610 C 172.437 356.654,159.328 343.908,152.794 334.744 C 142.815 320.752,135.542 303.336,132.764 286.783 C 130.971 276.103,130.983 255.401,132.789 244.844 C 142.613 187.404,188.720 141.274,245.760 131.816 C 256.545 130.028,284.495 130.722,295.319 133.046 M253.935 221.067 C 246.599 222.192,238.813 226.167,232.902 231.805 C 223.474 240.797,219.705 250.222,220.361 263.163 C 221.010 275.969,225.612 284.695,234.446 289.873 C 237.595 291.718,239.683 292.224,245.255 292.490 C 259.364 293.165,270.823 286.076,277.666 272.441 C 280.804 266.190,282.141 260.461,284.163 244.606 C 285.129 237.027,286.095 230.013,286.308 229.018 C 286.633 227.507,285.890 226.851,281.802 225.035 C 272.817 221.044,263.105 219.661,253.935 221.067 " stroke="none" fill-rule="evenodd" fill="black"></path></svg>