<svg xmlns="http://www.w3.org/2000/svg" width="512" height="512" viewBox="0 0 512 512"><path d="M252.587 63.282 C 227.587 65.616,200.552 73.756,177.493 85.894 C 116.800 117.842,74.922 176.449,65.125 243.150 C 63.080 257.073,63.093 283.965,65.150 296.533 C 71.665 336.337,87.704 368.489,114.328 395.112 C 134.672 415.456,157.782 429.305,186.027 438.076 C 207.046 444.604,225.265 446.799,251.733 445.994 C 278.108 445.191,290.964 442.963,312.747 435.420 C 326.566 430.634,329.590 429.112,332.276 425.591 C 338.019 418.060,336.200 407.620,328.247 402.462 C 323.087 399.116,318.131 399.400,306.696 403.695 C 285.770 411.555,271.536 413.914,244.480 414.005 C 231.895 414.048,223.893 413.652,217.602 412.677 C 159.002 403.593,114.173 363.215,100.023 306.773 C 96.477 292.629,95.237 279.973,95.812 263.820 C 96.704 238.789,101.611 219.248,112.692 196.592 C 124.173 173.120,138.150 154.963,157.958 137.785 C 183.493 115.643,215.570 100.843,248.430 96.045 C 258.847 94.523,283.121 94.285,294.827 95.590 C 334.348 99.995,367.426 116.198,388.221 141.339 C 402.631 158.760,411.162 178.182,415.721 203.947 C 417.460 213.773,417.173 245.652,415.248 256.427 C 413.053 268.717,408.359 282.203,403.296 290.768 C 390.957 311.641,369.977 322.669,354.046 316.656 C 342.434 312.273,334.572 298.080,334.521 281.408 C 334.513 278.721,336.427 254.769,338.773 228.182 C 341.120 201.594,343.040 177.566,343.040 174.785 C 343.040 168.911,341.750 165.985,337.521 162.272 C 333.836 159.037,331.575 158.398,325.569 158.896 C 317.054 159.602,312.194 165.367,311.071 176.092 L 310.458 181.944 307.762 179.414 C 299.561 171.716,285.075 163.779,273.920 160.871 C 266.406 158.912,248.340 158.207,240.025 159.549 C 193.081 167.122,157.467 214.882,159.831 267.093 C 161.410 301.966,179.317 330.582,207.580 343.400 C 219.956 349.012,233.027 351.037,248.479 349.735 C 269.661 347.951,288.400 339.511,304.707 324.409 L 311.174 318.421 312.739 321.130 C 315.893 326.590,322.858 334.636,327.554 338.245 C 351.139 356.371,382.424 354.209,409.292 332.595 C 429.667 316.203,442.688 290.329,447.705 256.257 C 449.760 242.305,449.758 214.768,447.701 201.387 C 438.330 140.413,402.991 96.130,346.883 75.056 C 319.477 64.761,284.083 60.342,252.587 63.282 M269.806 193.073 C 281.903 197.497,291.899 206.681,297.848 218.837 C 302.577 228.500,303.851 234.200,303.867 245.760 C 303.915 281.043,285.402 308.333,256.000 316.317 C 248.121 318.457,231.669 318.434,225.280 316.274 C 209.071 310.795,197.514 296.919,193.271 277.843 C 191.329 269.114,191.882 250.895,194.360 241.920 C 201.677 215.425,221.311 195.345,244.053 191.098 C 250.959 189.809,263.511 190.771,269.806 193.073 " stroke="none" fill-rule="evenodd" fill="black"></path></svg>