<svg xmlns="http://www.w3.org/2000/svg" width="512" height="512" viewBox="0 0 512 512"><path d="M256.853 62.794 C 255.211 62.988,250.219 63.544,245.760 64.029 C 212.839 67.607,176.390 82.524,147.582 104.210 C 102.204 138.370,73.027 186.542,64.283 241.740 C 62.191 254.944,62.198 286.090,64.295 298.203 C 68.976 325.238,77.915 348.114,92.013 369.137 C 119.340 409.887,161.245 436.272,211.268 444.224 C 222.894 446.072,250.305 446.731,264.960 445.516 C 286.668 443.715,303.576 439.374,327.680 429.412 C 334.016 426.793,339.322 424.567,339.471 424.463 C 339.737 424.279,327.946 395.928,327.359 395.341 C 327.194 395.176,321.375 397.361,314.428 400.195 C 290.586 409.923,278.828 412.683,256.251 413.852 C 230.706 415.175,210.888 412.942,191.284 406.533 C 144.444 391.218,109.445 352.585,98.206 303.787 C 95.327 291.287,94.465 280.838,94.947 264.267 C 95.709 238.072,100.698 218.443,112.735 194.281 C 121.483 176.720,130.753 163.732,145.031 149.032 C 173.173 120.058,209.274 101.364,247.340 96.055 C 258.287 94.528,282.298 94.289,293.973 95.590 C 372.709 104.366,419.216 157.480,416.124 235.093 C 415.260 256.797,412.159 270.640,404.807 285.622 C 392.915 309.854,370.593 323.150,352.910 316.535 C 341.183 312.147,333.682 298.017,333.684 280.320 C 333.684 277.035,335.966 249.403,338.754 218.917 C 341.543 188.430,343.706 163.368,343.561 163.223 C 343.208 162.870,317.722 160.432,314.350 160.429 L 311.687 160.427 311.108 168.320 C 310.790 172.661,310.309 177.490,310.038 179.050 L 309.546 181.888 306.880 179.413 C 296.091 169.398,280.661 161.913,265.895 159.531 C 256.912 158.082,239.533 158.908,230.827 161.198 C 221.161 163.740,206.563 171.236,198.149 177.977 C 157.310 210.696,146.310 274.579,174.356 316.160 C 196.931 349.629,240.295 359.774,279.846 340.838 C 289.277 336.323,295.959 331.723,304.176 324.089 L 310.112 318.574 313.455 323.746 C 320.528 334.688,331.794 343.250,345.173 347.847 C 354.487 351.048,368.198 351.240,378.453 348.314 C 412.521 338.592,436.963 307.968,445.322 264.533 C 456.897 204.380,437.921 141.696,397.227 105.667 C 372.230 83.536,339.367 69.220,302.507 64.406 C 292.624 63.115,262.977 62.068,256.853 62.794 M261.603 191.205 C 270.088 192.734,280.118 198.139,286.722 204.743 C 293.524 211.545,299.660 222.963,301.657 232.533 C 304.337 245.376,302.579 263.744,297.365 277.390 C 292.647 289.736,282.224 302.590,271.911 308.783 C 254.056 319.502,233.841 321.231,217.600 313.426 C 210.657 310.090,201.555 300.616,197.681 292.693 C 192.407 281.908,190.892 274.036,191.376 259.931 C 191.865 245.695,193.171 240.101,198.772 228.267 C 211.440 201.497,236.541 186.691,261.603 191.205 " stroke="none" fill-rule="evenodd" fill="black"></path></svg>