<svg xmlns="http://www.w3.org/2000/svg" width="512" height="512" viewBox="0 0 512 512"><path d="M220.587 63.203 C 212.649 63.915,207.009 65.118,200.756 67.433 C 169.078 79.164,148.435 105.615,145.044 138.818 C 144.392 145.201,144.197 179.681,144.411 250.453 C 144.716 350.718,144.759 353.014,146.505 360.533 C 151.862 383.610,161.387 401.188,177.048 416.900 C 198.693 438.617,225.383 449.707,256.000 449.707 C 313.255 449.707,360.341 407.484,366.896 350.265 C 368.152 339.301,368.094 160.289,366.833 155.747 C 363.037 142.072,344.023 139.872,337.193 152.318 C 335.917 154.642,335.746 164.003,335.346 253.013 C 334.907 350.684,334.896 351.178,333.040 357.738 C 326.087 382.307,311.502 399.789,289.029 410.489 C 267.913 420.542,243.648 420.388,222.119 410.064 C 198.311 398.647,182.522 377.931,177.868 352.000 C 176.847 346.316,176.642 328.016,176.641 242.697 C 176.640 142.719,176.682 140.056,178.361 133.489 C 183.005 115.334,197.307 101.071,215.549 96.406 C 243.282 89.313,271.403 106.001,278.659 133.860 C 279.703 137.867,279.890 154.215,279.875 239.753 C 279.856 339.576,279.833 340.957,278.123 344.747 C 269.742 363.314,243.898 364.012,234.659 345.922 L 232.533 341.760 232.107 264.533 C 231.721 194.778,231.543 187.059,230.268 184.747 C 227.114 179.031,222.456 176.356,215.656 176.356 C 211.575 176.356,210.107 176.787,207.195 178.844 C 205.257 180.213,202.870 182.869,201.889 184.747 C 200.119 188.136,200.107 188.715,200.107 265.813 L 200.107 343.467 202.078 350.293 C 205.851 363.360,213.986 374.344,225.682 382.167 C 243.279 393.937,266.838 394.281,285.523 383.042 C 292.254 378.993,302.743 367.678,306.037 360.913 C 312.364 347.919,311.854 357.708,312.161 243.200 C 312.455 133.897,312.477 134.604,308.299 121.600 C 303.925 107.985,297.364 97.042,287.895 87.568 C 269.927 69.591,245.991 60.927,220.587 63.203 " stroke="none" fill-rule="evenodd" fill="black"></path></svg>