<svg xmlns="http://www.w3.org/2000/svg" width="512" height="512" viewBox="0 0 512 512"><path d="M220.160 62.831 C 206.262 64.822,200.394 66.587,189.627 72.017 C 170.877 81.472,155.133 100.033,148.654 120.320 C 144.525 133.250,144.640 129.776,144.640 241.493 C 144.640 337.815,144.767 347.550,146.116 354.673 C 150.323 376.887,160.777 397.198,176.074 412.879 C 219.307 457.196,288.845 458.317,333.286 415.413 C 352.694 396.675,364.207 372.810,366.906 345.723 C 367.454 340.223,367.787 300.341,367.787 240.123 L 367.787 143.360 351.573 143.360 L 335.360 143.360 335.360 242.662 C 335.360 351.640,335.432 349.935,330.239 363.378 C 326.497 373.063,320.932 381.976,313.974 389.426 C 303.724 400.402,292.546 407.301,277.586 411.884 C 270.818 413.958,268.737 414.189,256.427 414.239 C 244.668 414.286,241.848 414.025,236.104 412.361 C 220.339 407.792,208.884 400.930,198.299 389.715 C 187.906 378.702,181.276 365.905,178.224 350.965 C 176.673 343.372,176.611 338.399,176.834 239.136 L 177.067 135.253 179.305 129.501 C 184.645 115.776,192.976 106.277,204.919 100.299 C 214.486 95.509,219.931 94.404,231.237 94.954 C 242.349 95.495,248.789 97.612,257.644 103.636 C 264.889 108.563,271.051 115.628,274.803 123.307 C 280.171 134.293,279.943 128.821,279.694 240.714 L 279.467 342.613 277.137 346.577 C 272.531 354.412,265.039 358.714,256.000 358.714 C 246.729 358.714,239.049 353.954,234.459 345.364 L 232.533 341.760 232.300 258.755 L 232.066 175.749 216.086 175.981 L 200.107 176.213 200.107 258.560 C 200.107 348.911,199.997 346.790,205.275 358.240 C 214.512 378.278,234.046 390.827,256.000 390.827 C 271.537 390.827,284.526 385.388,295.692 374.208 C 303.018 366.873,306.588 361.078,309.901 351.147 L 311.893 345.173 311.893 239.360 L 311.893 133.547 310.026 126.554 C 307.467 116.969,304.698 110.388,299.820 102.298 C 294.958 94.235,284.244 82.881,276.668 77.762 C 269.633 73.009,256.857 66.924,250.518 65.306 C 241.010 62.880,227.507 61.779,220.160 62.831 " stroke="none" fill-rule="evenodd" fill="black"></path></svg>