<svg xmlns="http://www.w3.org/2000/svg" width="512" height="512" viewBox="0 0 512 512"><path d="M144.213 98.036 C 137.847 100.094,133.416 102.466,128.127 106.646 C 124.338 109.641,116.766 120.532,76.987 180.203 L 30.293 250.245 30.293 256.000 L 30.293 261.755 76.997 331.812 C 127.520 407.599,126.345 406.056,137.703 411.536 C 147.346 416.188,141.317 416.000,280.747 416.000 L 410.027 416.000 416.280 413.952 C 431.701 408.900,443.075 396.673,446.715 381.235 C 448.607 373.212,448.607 138.788,446.715 130.765 C 442.982 114.930,430.282 101.838,414.608 97.666 C 410.729 96.634,390.008 96.452,279.467 96.483 C 156.721 96.516,148.626 96.609,144.213 98.036 M213.589 178.012 C 215.091 178.767,228.805 191.821,244.064 207.020 L 271.809 234.655 299.104 207.296 C 314.117 192.249,327.825 179.195,329.566 178.289 C 339.671 173.027,352.427 180.669,352.427 191.985 C 352.427 198.823,350.884 200.734,322.103 229.552 L 294.400 257.290 321.765 284.592 C 336.815 299.608,349.871 313.318,350.778 315.059 C 354.522 322.250,351.911 331.921,345.183 335.787 C 340.513 338.469,337.036 339.057,332.658 337.903 C 329.403 337.046,325.536 333.515,300.363 308.417 L 271.765 279.905 244.044 307.636 C 228.798 322.888,215.019 335.985,213.425 336.742 C 209.981 338.376,203.316 338.540,200.448 337.061 C 197.521 335.552,193.753 331.901,192.350 329.216 C 190.931 326.499,190.769 319.409,192.049 316.002 C 192.545 314.681,205.598 300.923,221.056 285.429 L 249.162 257.258 221.378 229.536 C 206.097 214.288,193.044 200.776,192.371 199.509 C 190.802 196.557,190.791 188.330,192.350 185.344 C 193.898 182.381,197.807 178.680,200.533 177.596 C 203.843 176.281,210.570 176.495,213.589 178.012 " stroke="none" fill-rule="evenodd" fill="black"></path></svg>