<svg xmlns="http://www.w3.org/2000/svg" width="512" height="512" viewBox="0 0 512 512"><path d="M144.303 97.777 C 141.770 98.458,137.822 100.037,135.528 101.285 C 126.226 106.348,124.183 109.110,77.706 179.455 C 53.272 216.438,32.704 247.811,32.000 249.173 C 30.360 252.345,30.353 259.641,31.987 262.802 C 34.188 267.058,121.052 397.911,124.132 401.611 C 128.250 406.557,136.523 411.837,143.684 414.089 L 149.760 416.000 279.893 416.000 L 410.027 416.000 416.035 414.109 C 429.815 409.774,440.428 399.554,445.530 385.705 L 447.573 380.160 447.573 256.000 L 447.573 131.840 445.542 126.293 C 440.402 112.261,428.695 101.271,415.117 97.735 C 407.752 95.816,151.445 95.856,144.303 97.777 M408.730 129.495 C 410.363 130.315,412.571 132.291,413.636 133.886 L 415.573 136.786 415.573 256.000 L 415.573 375.214 413.636 378.114 C 412.571 379.709,410.363 381.685,408.730 382.505 C 405.943 383.906,398.027 383.997,280.022 383.999 C 167.326 384.000,153.991 383.861,151.450 382.655 C 149.108 381.543,141.413 370.448,107.062 318.652 L 65.508 255.993 107.044 193.359 C 140.148 143.439,149.132 130.452,151.303 129.382 C 153.743 128.179,167.129 128.037,279.893 128.021 C 398.044 128.004,405.942 128.094,408.730 129.495 M198.606 178.590 C 192.353 182.376,189.363 189.572,191.179 196.467 C 192.016 199.644,195.706 203.685,220.229 228.283 C 235.679 243.781,248.320 256.829,248.320 257.280 C 248.320 257.731,235.679 270.779,220.229 286.277 C 195.706 310.875,192.016 314.916,191.179 318.093 C 189.374 324.947,192.083 331.990,198.042 335.933 C 201.768 338.399,209.634 339.005,213.349 337.113 C 214.514 336.520,228.141 323.402,243.631 307.964 L 271.796 279.893 299.525 307.683 C 314.776 322.967,328.396 336.078,329.793 336.818 C 332.845 338.435,340.180 338.582,343.082 337.084 C 346.049 335.553,349.813 331.915,351.223 329.216 C 352.642 326.499,352.804 319.409,351.524 316.002 C 351.028 314.681,337.975 300.923,322.517 285.429 L 294.412 257.258 322.225 229.536 C 337.553 214.258,350.574 200.581,351.232 199.067 C 352.667 195.769,352.799 188.346,351.469 185.757 C 350.053 183.002,346.346 179.214,343.722 177.844 C 340.737 176.284,332.510 176.296,329.558 177.864 C 328.290 178.537,314.778 191.590,299.531 206.871 L 271.808 234.655 243.637 206.550 C 228.144 191.092,214.386 178.038,213.064 177.542 C 208.854 175.961,202.146 176.447,198.606 178.590 " stroke="none" fill-rule="evenodd" fill="black"></path></svg>