<svg xmlns="http://www.w3.org/2000/svg" viewBox="0 0 512 512"><path d="M235.947 33.781 C 196.787 40.674,163.252 67.934,148.405 104.942 C 142.981 118.460,140.797 129.433,140.204 146.133 L 139.697 160.427 94.625 160.427 C 50.816 160.427,49.528 160.473,48.663 162.090 C 48.052 163.232,47.842 211.482,47.993 315.904 L 48.213 468.053 49.997 471.467 C 51.107 473.591,53.338 475.847,55.904 477.440 L 60.026 480.000 256.000 480.000 L 451.974 480.000 456.096 477.440 C 458.662 475.847,460.893 473.591,462.003 471.467 L 463.787 468.053 464.007 315.904 C 464.158 211.482,463.948 163.232,463.337 162.090 C 462.472 160.473,461.184 160.427,417.375 160.427 L 372.303 160.427 371.796 146.133 C 371.411 135.288,370.774 129.625,369.154 122.657 C 363.876 99.961,352.740 80.343,336.090 64.413 C 319.174 48.228,298.272 37.632,275.690 33.794 C 265.763 32.107,245.497 32.100,235.947 33.781 M274.022 74.233 C 296.141 79.983,313.580 93.968,323.510 113.920 C 329.481 125.918,331.107 132.659,331.693 147.840 L 332.179 160.427 256.116 160.427 L 180.053 160.427 180.083 151.253 C 180.099 146.208,180.628 139.200,181.257 135.680 C 187.554 100.459,216.626 74.324,251.733 72.325 C 257.155 72.017,269.591 73.081,274.022 74.233 M342.187 261.644 C 342.187 261.982,233.691 397.905,231.737 400.015 C 230.950 400.866,224.269 393.523,200.488 365.672 C 183.852 346.189,170.240 329.915,170.240 329.508 C 170.240 328.651,192.645 309.333,193.639 309.333 C 194.003 309.333,201.692 317.973,210.724 328.533 C 219.757 339.093,227.820 348.432,228.643 349.286 C 230.078 350.775,231.909 348.625,273.849 296.196 L 317.559 241.553 329.873 251.427 C 336.645 256.858,342.187 261.455,342.187 261.644 " stroke="none" fill-rule="evenodd" fill="black"></path></svg>