<svg xmlns="http://www.w3.org/2000/svg" viewBox="0 0 512 512"><path d="M236.496 33.796 C 197.150 40.392,162.578 70.191,149.813 108.512 C 145.864 120.364,144.849 126.867,144.307 143.787 L 143.787 160.000 107.520 160.427 L 71.253 160.853 66.180 163.344 C 59.479 166.634,54.245 172.015,50.922 179.029 L 48.213 184.747 47.985 298.201 C 47.786 396.819,47.927 412.644,49.060 419.211 C 54.057 448.170,75.089 470.561,104.631 478.375 C 110.176 479.842,118.330 479.946,249.600 480.229 C 345.971 480.437,391.510 480.243,397.863 479.598 C 417.452 477.609,431.732 470.553,445.097 456.262 C 452.883 447.936,457.809 439.372,461.384 427.947 L 463.787 420.267 463.787 302.463 L 463.787 184.659 460.563 178.135 C 456.953 170.832,452.916 166.830,445.466 163.171 L 440.747 160.853 404.480 160.427 L 368.213 160.000 367.693 143.787 C 367.151 126.867,366.136 120.364,362.187 108.512 C 349.297 69.816,314.685 40.221,274.745 33.744 C 264.831 32.136,246.246 32.161,236.496 33.796 M275.471 66.521 C 304.629 73.701,328.025 98.115,334.227 127.833 C 335.095 131.991,335.633 139.096,335.692 147.200 L 335.787 160.000 256.000 160.000 L 176.213 160.000 176.291 147.200 C 176.340 138.924,176.858 132.079,177.755 127.833 C 184.530 95.772,209.542 71.471,242.125 65.292 C 250.861 63.635,266.023 64.194,275.471 66.521 M264.642 242.792 C 266.344 243.892,268.648 246.258,269.762 248.049 C 271.761 251.265,271.790 251.643,272.055 277.491 L 272.324 303.676 298.509 303.945 C 324.357 304.210,324.735 304.239,327.951 306.238 C 333.119 309.452,335.644 313.992,335.644 320.071 C 335.644 324.337,335.234 325.760,333.144 328.733 C 328.221 335.738,328.151 335.753,298.509 336.045 L 272.324 336.304 272.055 362.640 L 271.787 388.977 269.215 392.634 C 265.663 397.686,261.818 399.758,256.000 399.758 C 250.182 399.758,246.337 397.686,242.785 392.634 L 240.213 388.977 239.945 362.640 L 239.676 336.304 213.491 336.045 C 183.849 335.753,183.779 335.738,178.856 328.733 C 176.776 325.774,176.356 324.329,176.356 320.145 C 176.356 314.049,178.599 309.894,183.721 306.503 L 187.178 304.213 213.427 303.945 L 239.676 303.676 239.945 277.491 C 240.208 251.814,240.252 251.245,242.193 248.122 C 247.164 240.127,256.928 237.809,264.642 242.792 " stroke="none" fill-rule="evenodd" fill="black"></path></svg>