<svg id="icons" xmlns="http://www.w3.org/2000/svg" viewBox="0 0 512 512"><path d="M236.800 33.749 C 222.760 36.111,206.302 42.755,193.280 51.320 C 184.494 57.098,168.885 72.707,163.107 81.493 C 155.165 93.568,149.367 107.378,146.268 121.600 C 145.321 125.948,144.600 134.159,144.284 144.213 L 143.787 160.000 107.520 160.427 L 71.253 160.853 66.558 163.056 C 57.749 167.188,50.827 176.049,48.746 185.855 C 48.064 189.071,47.787 222.384,47.787 301.157 C 47.787 396.432,47.968 412.977,49.083 419.372 C 54.168 448.530,76.152 471.547,105.480 478.422 C 111.891 479.924,119.118 480.000,256.427 480.000 L 400.640 480.000 408.150 478.086 C 422.533 474.420,434.162 467.766,443.786 457.698 C 453.016 448.041,457.415 440.582,461.430 427.782 L 463.787 420.267 464.045 305.920 C 464.233 222.593,464.037 190.192,463.325 186.482 C 461.369 176.288,454.517 167.314,445.442 163.056 L 440.747 160.853 404.480 160.427 L 368.213 160.000 367.700 144.213 C 367.066 124.726,365.503 116.515,359.643 101.898 C 345.323 66.176,312.256 39.834,273.923 33.611 C 264.919 32.149,245.888 32.220,236.800 33.749 M273.920 66.154 C 304.535 73.433,327.973 97.454,334.103 127.833 C 334.998 132.269,335.581 139.610,335.660 147.460 L 335.787 160.000 256.000 160.000 L 176.213 160.000 176.382 146.613 C 176.570 131.664,178.147 123.000,182.571 112.604 C 192.735 88.718,215.490 70.239,240.213 65.794 C 243.029 65.288,246.293 64.702,247.467 64.493 C 251.493 63.775,268.375 64.835,273.920 66.154 M431.589 305.280 L 431.360 418.560 428.628 424.327 C 423.648 434.841,413.623 443.464,402.935 446.427 C 397.530 447.926,390.640 448.000,256.411 448.000 C 102.281 448.000,110.822 448.272,101.253 443.065 C 94.676 439.487,87.580 431.838,83.865 424.322 L 80.640 417.796 80.411 304.898 L 80.183 192.000 256.000 192.000 L 431.817 192.000 431.589 305.280 M252.160 240.561 C 246.480 241.972,242.199 246.068,240.678 251.546 C 240.166 253.389,239.794 265.011,239.791 279.253 L 239.787 303.787 215.680 303.807 C 202.421 303.818,190.067 304.177,188.226 304.604 C 176.166 307.401,171.981 322.368,180.795 331.182 C 182.520 332.908,185.459 334.743,187.326 335.262 C 189.438 335.848,199.987 336.206,215.253 336.209 L 239.787 336.213 239.791 360.747 C 239.794 374.989,240.166 386.611,240.678 388.454 C 242.990 396.778,251.768 401.649,260.313 399.347 C 265.006 398.084,270.001 393.214,271.262 388.674 C 271.848 386.562,272.206 376.013,272.209 360.747 L 272.213 336.213 296.747 336.209 C 312.013 336.206,322.562 335.848,324.674 335.262 C 326.541 334.743,329.480 332.908,331.205 331.182 C 340.019 322.368,335.834 307.401,323.774 304.604 C 321.933 304.177,309.579 303.818,296.320 303.807 L 272.213 303.787 272.209 279.253 C 272.206 265.011,271.834 253.389,271.322 251.546 C 270.290 247.830,266.969 243.616,263.792 241.990 C 260.785 240.452,255.306 239.779,252.160 240.561 " fill="black" stroke="none" fill-rule="evenodd"></path></svg>