<svg xmlns="http://www.w3.org/2000/svg" viewBox="0 0 512 512"><path d="M235.947 33.781 C 196.787 40.674,163.252 67.934,148.405 104.942 C 142.981 118.460,140.797 129.433,140.204 146.133 L 139.697 160.427 94.625 160.427 C 50.816 160.427,49.528 160.473,48.663 162.090 C 48.052 163.232,47.842 211.482,47.993 315.904 L 48.213 468.053 49.997 471.467 C 51.107 473.591,53.338 475.847,55.904 477.440 L 60.026 480.000 256.000 480.000 L 451.974 480.000 456.096 477.440 C 458.662 475.847,460.893 473.591,462.003 471.467 L 463.787 468.053 464.007 315.904 C 464.158 211.482,463.948 163.232,463.337 162.090 C 462.472 160.473,461.184 160.427,417.375 160.427 L 372.303 160.427 371.796 146.133 C 371.411 135.288,370.774 129.625,369.154 122.657 C 363.876 99.961,352.740 80.343,336.090 64.413 C 319.174 48.228,298.272 37.632,275.690 33.794 C 265.763 32.107,245.497 32.100,235.947 33.781 M274.022 74.233 C 296.141 79.983,313.580 93.968,323.510 113.920 C 329.481 125.918,331.107 132.659,331.693 147.840 L 332.179 160.427 256.116 160.427 L 180.053 160.427 180.083 151.253 C 180.099 146.208,180.628 139.200,181.257 135.680 C 187.554 100.459,216.626 74.324,251.733 72.325 C 257.155 72.017,269.591 73.081,274.022 74.233 M175.787 226.072 C 175.787 235.894,176.202 246.918,176.710 250.570 C 179.274 269.004,187.636 285.099,201.500 298.289 C 211.250 307.564,222.632 313.859,236.373 317.574 C 246.804 320.395,265.196 320.395,275.627 317.574 C 290.708 313.496,303.192 306.123,313.604 295.145 C 323.772 284.424,329.799 273.596,333.774 258.909 C 335.350 253.084,335.655 249.150,336.000 230.187 L 336.399 208.213 352.180 208.213 L 367.962 208.213 367.548 232.320 C 367.109 257.861,366.555 262.289,362.137 275.542 C 353.227 302.275,333.196 325.793,308.018 339.083 C 291.773 347.658,274.895 351.777,256.000 351.777 C 224.835 351.777,197.048 339.923,175.486 317.430 C 160.504 301.801,151.169 284.330,146.312 262.827 C 145.211 257.953,144.768 250.678,144.452 232.320 L 144.038 208.213 159.913 208.213 L 175.787 208.213 175.787 226.072 " stroke="none" fill-rule="evenodd" fill="black"></path></svg>