<svg id="icons" xmlns="http://www.w3.org/2000/svg" viewBox="0 0 512 512"><path d="M236.800 33.749 C 222.760 36.111,206.302 42.755,193.280 51.320 C 184.494 57.098,168.885 72.707,163.107 81.493 C 155.165 93.568,149.367 107.378,146.268 121.600 C 145.321 125.948,144.600 134.159,144.284 144.213 L 143.787 160.000 107.520 160.427 L 71.253 160.853 66.558 163.056 C 57.749 167.188,50.827 176.049,48.746 185.855 C 48.064 189.071,47.787 222.384,47.787 301.157 C 47.787 396.432,47.968 412.977,49.083 419.372 C 54.168 448.530,76.152 471.547,105.480 478.422 C 111.891 479.924,119.118 480.000,256.427 480.000 L 400.640 480.000 408.150 478.086 C 422.533 474.420,434.162 467.766,443.786 457.698 C 453.016 448.041,457.415 440.582,461.430 427.782 L 463.787 420.267 464.045 305.920 C 464.233 222.593,464.037 190.192,463.325 186.482 C 461.369 176.288,454.517 167.314,445.442 163.056 L 440.747 160.853 404.480 160.427 L 368.213 160.000 367.700 144.213 C 367.066 124.726,365.503 116.515,359.643 101.898 C 345.323 66.176,312.256 39.834,273.923 33.611 C 264.919 32.149,245.888 32.220,236.800 33.749 M273.920 66.154 C 304.535 73.433,327.973 97.454,334.103 127.833 C 334.998 132.269,335.581 139.610,335.660 147.460 L 335.787 160.000 256.000 160.000 L 176.213 160.000 176.382 146.613 C 176.570 131.664,178.147 123.000,182.571 112.604 C 192.735 88.718,215.490 70.239,240.213 65.794 C 243.029 65.288,246.293 64.702,247.467 64.493 C 251.493 63.775,268.375 64.835,273.920 66.154 M431.589 305.280 L 431.360 418.560 428.628 424.327 C 423.648 434.841,413.623 443.464,402.935 446.427 C 397.530 447.926,390.640 448.000,256.411 448.000 C 102.281 448.000,110.822 448.272,101.253 443.065 C 94.676 439.487,87.580 431.838,83.865 424.322 L 80.640 417.796 80.411 304.898 L 80.183 192.000 256.000 192.000 L 431.817 192.000 431.589 305.280 M152.579 209.955 C 150.844 210.871,148.348 213.032,147.032 214.758 L 144.640 217.896 144.640 236.308 C 144.640 250.887,144.963 256.230,146.193 261.973 C 150.850 283.722,160.419 301.823,175.553 317.506 C 197.292 340.036,224.673 351.661,256.000 351.661 C 285.685 351.661,312.018 341.151,333.125 320.879 C 345.060 309.416,353.840 296.577,359.643 282.102 C 365.821 266.690,367.784 255.403,367.786 235.273 C 367.787 222.058,367.577 219.682,366.171 216.926 C 360.745 206.295,346.372 205.135,339.047 214.738 C 336.696 217.821,336.653 218.090,336.064 233.733 C 335.403 251.279,333.961 259.989,330.119 269.653 C 322.012 290.046,304.305 307.430,284.160 314.776 C 273.288 318.741,268.746 319.503,256.000 319.503 C 243.254 319.503,238.712 318.741,227.840 314.776 C 208.332 307.662,190.894 290.957,182.578 271.412 C 178.122 260.941,176.661 252.873,176.078 235.520 C 175.524 219.020,174.798 215.729,170.971 212.370 C 165.998 208.005,158.208 206.982,152.579 209.955 " fill="black" stroke="none" fill-rule="evenodd"></path></svg>