<svg xmlns="http://www.w3.org/2000/svg" viewBox="0 0 512 512"><path d="M235.947 33.781 C 196.787 40.674,163.252 67.934,148.405 104.942 C 142.981 118.460,140.797 129.433,140.204 146.133 L 139.697 160.427 94.625 160.427 C 50.816 160.427,49.528 160.473,48.663 162.090 C 48.052 163.232,47.842 211.482,47.993 315.904 L 48.213 468.053 49.997 471.467 C 51.107 473.591,53.338 475.847,55.904 477.440 L 60.026 480.000 256.000 480.000 L 451.974 480.000 456.096 477.440 C 458.662 475.847,460.893 473.591,462.003 471.467 L 463.787 468.053 464.007 315.904 C 464.158 211.482,463.948 163.232,463.337 162.090 C 462.472 160.473,461.184 160.427,417.375 160.427 L 372.303 160.427 371.796 146.133 C 371.411 135.288,370.774 129.625,369.154 122.657 C 363.876 99.961,352.740 80.343,336.090 64.413 C 319.174 48.228,298.272 37.632,275.690 33.794 C 265.763 32.107,245.497 32.100,235.947 33.781 M274.022 74.233 C 296.141 79.983,313.580 93.968,323.510 113.920 C 329.481 125.918,331.107 132.659,331.693 147.840 L 332.179 160.427 256.116 160.427 L 180.053 160.427 180.083 151.253 C 180.099 146.208,180.628 139.200,181.257 135.680 C 187.554 100.459,216.626 74.324,251.733 72.325 C 257.155 72.017,269.591 73.081,274.022 74.233 M272.213 271.787 L 272.213 303.787 304.213 303.787 L 336.213 303.787 336.213 320.000 L 336.213 336.213 304.213 336.213 L 272.213 336.213 272.213 368.213 L 272.213 400.213 256.000 400.213 L 239.787 400.213 239.787 368.213 L 239.787 336.213 207.787 336.213 L 175.787 336.213 175.787 320.000 L 175.787 303.787 207.787 303.787 L 239.787 303.787 239.787 271.787 L 239.787 239.787 256.000 239.787 L 272.213 239.787 272.213 271.787 " stroke="none" fill-rule="evenodd" fill="black"></path></svg>