<svg id="icons" xmlns="http://www.w3.org/2000/svg" viewBox="0 0 512 512"><path d="M247.893 0.574 C 174.265 4.183,111.077 52.602,88.383 122.801 C 82.741 140.255,80.213 156.692,80.213 175.934 C 80.213 213.963,92.720 254.030,115.073 287.617 C 132.720 314.131,157.578 338.325,184.320 355.011 C 200.657 365.206,227.569 376.459,243.323 379.684 C 247.149 380.467,248.071 380.968,247.811 382.122 C 246.354 388.581,239.787 426.017,239.787 427.862 C 239.787 431.276,243.991 435.206,247.614 435.178 C 249.176 435.166,256.779 434.227,264.510 433.092 C 272.241 431.958,278.681 431.144,278.821 431.284 C 278.961 431.424,280.819 434.954,282.948 439.129 C 289.797 452.555,297.461 463.043,308.463 474.044 C 323.631 489.212,336.334 497.360,359.522 506.799 L 372.164 511.945 373.492 508.772 C 378.831 496.027,383.812 482.475,383.315 482.049 C 382.988 481.768,378.496 479.882,373.333 477.856 C 353.551 470.096,341.358 462.439,329.971 450.627 C 322.554 442.933,311.749 427.674,312.967 426.614 C 313.315 426.311,318.324 425.414,324.098 424.620 C 329.872 423.826,335.494 422.767,336.591 422.267 C 339.085 421.131,340.763 418.085,340.671 414.859 C 340.632 413.500,335.921 403.034,330.201 391.602 C 322.134 375.479,320.063 370.663,320.967 370.135 C 346.687 355.128,363.668 341.146,379.867 321.638 C 405.278 291.038,422.257 254.228,429.329 214.405 C 431.602 201.608,432.477 172.539,430.981 159.525 C 426.186 117.802,410.112 83.043,382.323 54.305 C 356.688 27.795,323.353 9.792,288.000 3.367 C 280.329 1.973,255.040 -0.360,253.440 0.179 C 253.205 0.258,250.709 0.436,247.893 0.574 M166.703 211.413 C 174.411 233.517,186.162 252.106,201.758 266.866 C 214.976 279.375,228.087 287.643,246.187 294.881 C 251.819 297.133,256.517 299.029,256.627 299.093 C 256.958 299.286,245.670 327.198,244.962 327.937 C 243.625 329.333,219.634 318.897,208.284 311.982 C 181.584 295.716,159.971 272.257,145.955 244.331 C 141.847 236.146,133.973 216.094,133.973 213.818 C 133.973 213.115,139.472 210.687,148.267 207.506 C 156.128 204.663,162.772 202.315,163.032 202.288 C 163.291 202.262,164.943 206.368,166.703 211.413 " stroke="none" fill-rule="evenodd" fill="black"></path></svg>