<svg id="icons" xmlns="http://www.w3.org/2000/svg" viewBox="0 0 512 512"><path d="M248.320 0.600 C 166.688 3.867,98.021 63.863,82.687 145.317 C 79.865 160.307,79.482 184.575,81.815 200.533 C 90.812 262.084,125.504 315.778,179.627 351.921 C 195.455 362.490,215.513 371.798,233.924 377.115 C 243.470 379.872,246.613 382.148,246.613 386.301 C 246.613 387.514,245.429 394.885,243.981 402.680 C 241.065 418.378,241.125 421.749,244.408 426.711 C 249.260 434.043,255.056 434.883,276.241 431.327 C 278.958 430.871,279.031 430.950,282.797 438.448 C 289.971 452.733,298.065 463.700,310.995 476.658 C 319.848 485.530,325.443 490.311,332.373 494.922 C 342.831 501.882,360.333 510.747,365.258 511.579 C 375.717 513.346,386.065 502.299,383.183 492.443 C 381.426 486.433,378.503 483.343,371.460 480.050 C 353.832 471.807,343.963 464.971,332.226 452.875 C 323.522 443.904,314.027 430.788,314.027 427.737 C 314.027 426.275,314.778 425.916,318.918 425.399 C 328.635 424.185,334.308 420.089,336.247 412.889 C 337.644 407.700,336.874 405.139,329.351 389.955 C 325.616 382.415,322.560 375.163,322.560 373.838 C 322.560 370.395,325.056 367.673,331.986 363.556 C 347.768 354.180,369.496 334.760,382.629 318.293 C 402.207 293.744,417.953 262.285,425.435 232.769 C 429.657 216.115,431.088 205.277,431.558 186.405 C 432.205 160.389,429.839 142.772,422.841 121.503 C 414.213 95.284,401.202 73.795,381.899 53.884 C 346.829 17.707,298.871 -1.423,248.320 0.600 M162.535 209.132 C 164.631 210.543,166.438 212.962,168.224 216.747 C 180.771 243.334,185.133 249.966,199.680 264.575 C 211.045 275.989,222.627 284.163,237.585 291.327 C 246.289 295.495,247.563 296.393,249.531 299.751 C 255.841 310.519,248.622 323.744,236.397 323.813 C 232.334 323.836,230.202 323.121,221.013 318.649 C 204.781 310.749,193.344 302.838,179.696 290.071 C 163.759 275.163,148.382 252.306,139.977 231.033 C 136.081 221.171,138.960 211.899,147.101 208.091 C 151.816 205.886,158.369 206.328,162.535 209.132 " stroke="none" fill-rule="evenodd" fill="black"></path></svg>