<svg id="icons" xmlns="http://www.w3.org/2000/svg" viewBox="0 0 512 512"><path d="M242.576 0.930 C 196.721 4.125,151.207 27.218,121.953 62.132 C 95.467 93.742,81.639 129.767,80.453 170.240 C 79.646 197.794,83.938 221.784,94.420 248.320 C 105.640 276.722,122.727 302.013,146.032 324.712 C 174.322 352.267,208.933 371.995,241.826 379.313 C 246.883 380.438,248.064 380.997,247.810 382.144 C 245.175 394.053,241.434 417.569,241.770 420.114 C 242.364 424.616,245.960 429.712,249.994 431.770 C 254.652 434.146,259.983 434.056,276.241 431.327 C 278.958 430.871,279.031 430.950,282.797 438.448 C 293.986 460.727,313.123 482.151,334.720 496.577 C 342.818 501.986,360.862 510.836,365.332 511.591 C 370.137 512.403,376.568 510.023,379.640 506.297 C 386.995 497.374,384.073 485.944,373.126 480.814 C 355.268 472.445,346.421 466.680,335.902 456.559 C 326.804 447.805,313.173 429.915,313.173 426.728 C 313.173 426.346,315.533 425.767,318.417 425.441 C 321.301 425.114,325.136 424.257,326.939 423.535 C 333.342 420.973,337.893 412.994,336.670 406.475 C 336.376 404.905,332.505 396.312,328.067 387.379 C 323.630 378.446,320.000 371.015,320.000 370.865 C 320.000 370.716,323.403 368.656,327.561 366.286 C 370.774 341.667,407.042 294.337,422.729 242.092 C 428.713 222.165,430.949 207.992,431.545 186.226 C 431.947 171.518,431.730 166.542,430.089 152.946 C 429.029 144.154,427.688 135.808,427.111 134.400 C 426.533 132.992,424.508 127.009,422.611 121.104 C 406.849 72.054,368.851 31.841,319.964 12.473 C 296.639 3.232,268.906 -0.904,242.576 0.930 M272.236 33.325 C 314.425 38.567,351.965 61.444,375.300 96.132 C 403.612 138.218,407.563 197.780,385.566 250.880 C 369.271 290.215,337.881 325.881,305.565 341.779 C 286.485 351.167,268.866 352.983,247.597 347.756 C 191.802 334.044,139.737 284.412,120.810 226.893 C 108.455 189.345,109.451 152.978,123.752 119.467 C 141.824 77.119,180.294 45.414,225.267 35.805 C 229.733 34.851,235.883 33.749,238.933 33.356 C 247.068 32.310,263.940 32.294,272.236 33.325 M148.660 207.470 C 144.277 208.734,139.492 214.087,138.298 219.063 C 137.396 222.824,137.490 223.935,139.119 228.771 C 146.309 250.112,162.270 273.906,181.305 291.657 C 199.397 308.530,228.336 325.226,237.383 324.013 C 246.249 322.823,252.281 315.526,251.563 306.859 C 250.926 299.181,248.821 296.881,237.045 291.000 C 224.898 284.933,222.550 283.541,214.564 277.670 C 195.747 263.836,180.230 244.295,171.476 223.407 C 167.359 213.582,164.999 210.439,160.000 208.124 C 156.283 206.403,153.013 206.215,148.660 207.470 M292.747 388.374 C 294.665 392.188,295.917 395.583,295.530 395.919 C 294.734 396.612,278.305 398.910,277.796 398.400 C 277.614 398.219,278.112 394.616,278.901 390.395 L 280.336 382.720 283.315 382.192 C 289.182 381.153,289.085 381.089,292.747 388.374 " fill="black" stroke="none" fill-rule="evenodd"></path></svg>