<svg id="icons" xmlns="http://www.w3.org/2000/svg" viewBox="0 0 512 512"><path d="M231.253 33.392 C 214.898 35.057,192.680 40.401,176.511 46.559 C 156.296 54.258,131.841 68.384,114.508 82.373 C 92.069 100.483,71.148 126.126,57.570 152.164 C 42.512 181.038,34.416 210.416,32.447 243.324 C 27.225 330.584,74.485 413.921,152.164 454.430 C 231.416 495.759,326.910 486.355,396.524 430.364 C 473.098 368.774,500.486 263.737,463.793 172.373 C 435.769 102.595,373.381 50.947,299.520 36.379 C 293.653 35.221,284.659 33.859,279.532 33.351 C 268.795 32.286,241.887 32.309,231.253 33.392 M284.160 66.158 C 338.845 74.413,386.638 105.196,417.272 151.893 C 423.753 161.774,433.129 180.887,437.154 192.427 C 444.542 213.607,447.503 231.793,447.503 256.000 C 447.503 287.854,442.048 311.840,428.376 340.098 C 422.588 352.061,411.756 369.203,405.598 376.145 L 402.347 379.809 267.210 244.633 L 132.072 109.457 137.930 104.751 C 153.286 92.411,175.415 80.549,195.413 73.938 C 210.456 68.965,222.551 66.514,241.920 64.514 C 248.788 63.805,275.445 64.843,284.160 66.158 M376.146 405.642 C 369.563 411.560,352.339 422.452,340.098 428.438 C 286.273 454.758,223.319 454.437,170.240 427.571 C 150.271 417.464,136.115 407.310,120.850 392.144 C 95.932 367.387,77.838 335.536,69.686 302.080 C 65.721 285.806,64.497 274.937,64.497 256.000 C 64.497 237.063,65.721 226.194,69.686 209.920 C 75.831 184.700,89.163 157.327,104.751 137.930 L 109.457 132.072 244.635 267.210 L 379.812 402.347 376.146 405.642 " stroke="none" fill="black" fill-rule="evenodd"></path></svg>