<svg xmlns="http://www.w3.org/2000/svg" viewBox="0 0 512 512"><path d="M235.947 32.121 C 215.118 34.495,202.444 37.042,187.123 41.933 C 153.186 52.767,122.302 71.615,96.959 96.959 C 45.131 148.786,22.286 221.012,34.642 293.973 C 42.175 338.453,64.482 381.147,97.285 413.867 C 143.943 460.406,203.705 483.495,269.227 480.296 C 342.739 476.707,410.943 435.346,449.266 371.115 C 476.276 325.844,486.420 271.351,477.526 219.307 C 466.372 154.047,427.068 97.137,369.379 62.717 C 342.461 46.656,311.652 36.352,279.893 32.788 C 270.499 31.733,243.006 31.316,235.947 32.121 M284.160 82.304 C 320.984 88.530,353.998 105.525,380.237 131.763 C 406.551 158.078,423.301 190.689,429.804 228.267 C 431.881 240.265,431.881 271.735,429.804 283.733 C 426.543 302.579,419.942 322.255,411.627 337.920 C 407.398 345.887,397.057 361.813,396.113 361.813 C 395.326 361.813,150.187 116.656,150.187 115.870 C 150.187 114.863,167.587 103.694,175.577 99.572 C 192.158 91.018,214.049 84.056,230.827 82.002 C 235.051 81.485,239.467 80.898,240.640 80.698 C 245.523 79.863,276.482 81.006,284.160 82.304 M239.146 272.852 C 306.613 340.318,361.813 395.813,361.813 396.173 C 361.813 397.315,343.796 408.769,335.360 412.990 C 323.447 418.952,312.578 423.018,299.807 426.291 C 224.280 445.648,145.317 413.207,105.167 346.325 C 93.707 327.235,86.170 306.698,82.196 283.733 C 80.119 271.735,80.119 240.265,82.196 228.267 C 85.430 209.580,91.454 191.313,99.572 175.577 C 103.694 167.587,114.863 150.187,115.870 150.187 C 116.204 150.187,171.678 205.386,239.146 272.852 " stroke="none" fill-rule="evenodd" fill="black"></path></svg>