<svg xmlns="http://www.w3.org/2000/svg" viewBox="0 0 512 512"><path d="M231.253 33.392 C 214.805 35.066,192.462 40.453,176.511 46.590 C 100.880 75.689,47.141 142.028,34.600 221.777 C 23.586 291.818,47.162 363.719,97.722 414.278 C 178.752 495.308,307.182 502.222,396.524 430.364 C 407.036 421.908,421.908 407.036,430.364 396.524 C 502.261 307.133,495.275 178.498,414.132 97.614 C 402.350 85.870,393.752 78.883,378.924 69.002 C 349.629 49.482,314.251 36.792,279.532 33.351 C 268.795 32.286,241.887 32.309,231.253 33.392 M284.160 82.308 C 322.378 88.786,356.650 106.822,382.882 134.261 C 407.982 160.517,423.708 192.124,429.826 228.618 C 431.947 241.266,431.947 270.734,429.826 283.382 C 426.514 303.136,420.572 320.953,411.695 337.742 C 407.027 346.573,398.136 360.561,396.581 361.522 C 395.584 362.138,150.062 116.854,150.465 115.644 C 150.967 114.138,166.624 104.148,175.787 99.487 C 196.125 89.141,214.240 83.834,239.787 80.737 C 246.454 79.928,276.372 80.988,284.160 82.308 M239.361 273.112 L 362.240 396.037 359.680 398.163 C 355.532 401.609,343.055 409.149,333.982 413.693 C 285.592 437.928,226.397 437.922,177.989 413.679 C 161.086 405.213,147.954 395.973,134.364 382.981 C 106.597 356.435,88.694 322.269,82.174 283.382 C 80.053 270.734,80.053 241.266,82.174 228.618 C 86.800 201.028,96.989 176.019,112.477 154.240 C 114.063 152.011,115.613 150.187,115.921 150.187 C 116.230 150.187,171.778 205.503,239.361 273.112 " stroke="none" fill="black" fill-rule="evenodd"></path></svg>