<svg xmlns="http://www.w3.org/2000/svg" width="512" height="512" viewBox="0 0 512 512"><path d="M354.223 17.564 C 344.384 20.210,342.561 21.760,302.720 61.371 C 281.717 82.252,264.533 99.738,264.533 100.230 C 264.533 101.385,410.602 247.467,411.757 247.467 C 413.335 247.467,487.017 172.904,489.759 168.533 C 497.338 156.449,497.763 141.327,490.911 127.573 C 489.288 124.316,477.355 111.833,440.446 74.781 C 410.192 44.411,390.214 25.011,387.048 22.929 C 377.482 16.636,365.160 14.623,354.223 17.564 M183.893 180.907 L 125.870 238.935 199.468 312.534 L 273.067 386.132 331.094 328.105 L 389.121 270.077 315.518 196.478 L 241.916 122.879 183.893 180.907 M261.776 193.321 C 268.181 195.997,271.565 200.941,271.663 207.765 C 271.838 219.994,258.934 227.730,248.314 221.761 C 239.281 216.684,237.573 203.502,245.045 196.526 C 249.657 192.220,256.159 190.974,261.776 193.321 M216.190 242.655 C 223.586 246.724,225.915 257.094,221.128 264.641 C 216.019 272.698,205.219 274.339,197.891 268.173 C 194.606 265.409,192.037 260.067,192.037 256.000 C 192.037 249.744,197.535 242.180,202.946 240.992 C 204.200 240.716,205.611 240.363,206.080 240.208 C 207.799 239.639,212.992 240.896,216.190 242.655 M311.467 241.953 C 316.186 244.353,320.018 250.758,319.981 256.186 C 319.923 264.959,310.672 273.277,302.458 271.944 C 293.962 270.565,288.427 264.340,288.427 256.162 C 288.427 244.137,300.780 236.518,311.467 241.953 M62.652 302.280 C 23.947 341.168,22.406 342.839,19.675 348.899 C 14.223 360.993,15.217 375.783,22.192 386.371 C 26.477 392.875,121.961 487.993,127.147 490.923 C 133.779 494.670,140.197 496.051,148.856 495.595 C 155.476 495.247,157.567 494.735,163.413 492.034 C 170.132 488.929,170.874 488.246,210.142 449.026 L 250.044 409.173 176.420 335.560 L 102.796 261.946 62.652 302.280 M264.246 290.597 C 272.909 295.673,274.313 308.604,266.949 315.479 C 262.355 319.769,255.823 321.019,250.224 318.679 C 243.755 315.976,240.396 311.007,240.396 304.140 C 240.396 291.711,253.475 284.284,264.246 290.597 " stroke="none" fill-rule="evenodd" fill="black"></path></svg>