<svg xmlns="http://www.w3.org/2000/svg" width="512" height="512" viewBox="0 0 512 512"><path d="M376.887 17.149 C 360.767 19.505,345.135 25.814,331.093 35.632 C 327.987 37.804,308.359 56.628,286.476 78.422 C 254.195 110.571,247.447 117.689,247.649 119.381 C 248.062 122.839,250.045 123.361,256.683 121.759 C 266.978 119.274,274.708 120.289,285.867 125.590 C 293.112 129.033,293.170 129.086,338.042 173.958 C 382.914 218.830,382.967 218.888,386.410 226.133 C 391.711 237.292,392.726 245.022,390.241 255.317 C 388.639 261.955,389.160 263.936,392.619 264.354 C 394.313 264.558,401.459 257.774,433.963 225.101 C 461.504 197.417,474.555 183.685,477.589 179.200 C 489.677 161.326,495.778 141.549,495.784 120.218 C 495.798 68.767,459.208 25.719,408.466 17.490 C 400.070 16.128,384.989 15.965,376.887 17.149 M255.954 155.212 C 249.866 159.168,158.175 251.587,156.622 255.333 C 154.951 259.364,154.949 263.721,156.617 267.761 C 158.424 272.137,238.828 352.804,243.627 355.055 C 247.797 357.011,252.451 357.126,256.667 355.378 C 260.754 353.684,355.150 259.694,357.705 254.774 C 359.854 250.639,359.973 244.537,357.983 240.575 C 356.130 236.887,278.234 158.538,273.113 155.211 C 267.761 151.735,261.304 151.735,255.954 155.212 M261.776 193.321 C 268.245 196.024,271.604 200.993,271.604 207.860 C 271.604 220.107,258.891 227.650,248.195 221.749 C 242.141 218.410,238.834 210.654,240.626 203.998 C 243.085 194.866,253.224 189.747,261.776 193.321 M86.109 280.533 C 57.874 308.834,42.266 325.120,39.291 329.387 C 30.554 341.918,23.900 357.952,21.231 372.907 C 19.613 381.970,19.840 400.697,21.673 409.402 C 30.005 448.969,57.638 479.139,95.573 490.086 C 119.911 497.109,147.496 494.600,170.055 483.311 C 183.865 476.400,186.790 473.839,229.791 431.011 C 264.211 396.728,271.379 389.192,271.177 387.499 C 270.773 384.108,268.675 383.459,263.448 385.106 C 253.117 388.363,238.328 385.771,228.132 378.918 C 225.242 376.975,204.831 357.165,179.569 331.783 C 127.988 279.960,130.081 282.704,130.221 267.093 C 130.289 259.484,130.790 255.511,132.449 249.406 C 134.332 242.478,134.443 241.326,133.379 239.806 C 132.714 238.857,131.336 238.080,130.317 238.080 C 129.009 238.080,116.032 250.542,86.109 280.533 M216.190 242.655 C 223.586 246.724,225.915 257.094,221.128 264.641 C 217.397 270.525,209.819 273.439,203.591 271.383 C 197.095 269.239,192.037 262.506,192.037 256.000 C 192.037 249.744,197.535 242.180,202.946 240.992 C 204.200 240.716,205.611 240.363,206.080 240.208 C 207.799 239.639,212.992 240.896,216.190 242.655 M311.467 241.953 C 316.186 244.353,320.018 250.758,319.981 256.186 C 319.923 264.959,310.672 273.277,302.458 271.944 C 290.645 270.027,284.675 257.858,290.593 247.760 C 294.643 240.850,304.116 238.215,311.467 241.953 M264.041 290.476 C 272.790 295.603,274.303 308.613,266.949 315.479 C 264.333 317.922,259.300 320.000,256.000 320.000 C 250.538 320.000,244.353 316.129,241.718 311.062 C 239.882 307.532,239.973 300.651,241.908 296.632 C 245.561 289.043,256.435 286.019,264.041 290.476 " stroke="none" fill-rule="evenodd" fill="black"></path></svg>