<svg xmlns="http://www.w3.org/2000/svg" width="512" height="512" viewBox="0 0 512 512"><path d="M374.382 17.454 C 360.161 19.950,346.567 25.428,333.751 33.828 C 327.404 37.988,307.132 57.890,185.339 179.536 C 107.756 257.026,42.170 322.988,39.592 326.118 C 30.029 337.731,23.003 351.651,19.022 366.870 C 16.121 377.958,15.378 397.782,17.423 409.526 C 24.946 452.736,59.264 487.054,102.474 494.577 C 114.218 496.622,134.042 495.879,145.130 492.978 C 160.349 488.997,174.269 481.971,185.882 472.408 C 189.012 469.830,254.974 404.244,332.464 326.661 C 482.302 176.642,477.503 181.688,485.477 165.737 C 496.889 142.908,499.080 111.995,490.992 87.940 C 479.222 52.930,451.407 27.429,415.525 18.751 C 405.432 16.310,384.638 15.655,374.382 17.454 M411.124 50.409 C 429.928 55.218,447.871 70.355,456.991 89.102 C 462.018 99.435,463.608 106.930,463.616 120.320 C 463.626 136.552,460.542 146.917,451.809 160.000 C 445.337 169.696,387.723 227.230,386.541 225.177 C 383.262 219.480,372.893 208.525,336.062 171.851 C 310.118 146.017,292.419 129.047,289.920 127.610 C 287.691 126.327,285.867 125.019,285.867 124.703 C 285.867 124.387,299.595 110.444,316.373 93.719 C 348.699 61.497,353.040 57.889,365.377 52.978 C 370.949 50.760,376.510 49.393,384.427 48.295 C 389.511 47.591,404.853 48.805,411.124 50.409 M271.616 154.116 C 275.168 155.897,353.564 233.923,356.789 238.887 C 360.265 244.239,360.265 250.696,356.788 256.046 C 352.832 262.134,260.413 353.825,256.667 355.378 C 252.987 356.904,247.759 357.080,244.322 355.794 C 241.159 354.611,159.083 272.719,156.953 268.621 C 154.968 264.803,154.839 259.633,156.622 255.333 C 158.193 251.544,252.131 156.979,256.853 154.432 C 260.597 152.414,267.908 152.257,271.616 154.116 M249.565 193.604 C 242.513 196.807,238.635 204.378,240.491 211.316 C 241.904 216.600,243.686 219.019,248.044 221.573 C 250.700 223.130,253.019 223.770,256.000 223.770 C 260.784 223.770,266.782 220.785,269.098 217.251 C 271.657 213.345,272.646 207.901,271.494 204.059 C 268.622 194.473,258.391 189.595,249.565 193.604 M206.080 240.208 C 205.611 240.363,204.200 240.716,202.946 240.992 C 197.535 242.180,192.037 249.744,192.037 256.000 C 192.037 265.864,202.114 273.970,211.316 271.509 C 216.600 270.096,219.019 268.314,221.573 263.956 C 227.292 254.198,221.336 242.152,209.920 240.387 C 208.277 240.133,206.549 240.052,206.080 240.208 M300.679 240.603 C 290.070 243.124,284.994 254.686,290.427 263.956 C 292.981 268.314,295.400 270.096,300.684 271.509 C 307.622 273.365,315.193 269.487,318.396 262.435 C 323.742 250.667,313.167 237.635,300.679 240.603 M178.083 336.308 C 204.538 362.661,223.763 381.152,225.953 382.350 L 229.613 384.352 199.073 414.961 C 182.276 431.797,166.394 447.239,163.780 449.277 C 156.835 454.693,149.078 458.684,140.373 461.321 C 133.568 463.383,131.284 463.652,120.320 463.685 C 109.992 463.715,106.836 463.404,101.225 461.807 C 81.029 456.055,64.263 441.943,55.028 422.922 C 50.039 412.644,48.417 405.005,48.395 391.680 C 48.376 380.035,49.627 373.182,53.418 364.168 C 58.286 352.592,62.124 348.069,95.388 314.705 L 127.466 282.530 130.670 287.398 C 132.573 290.292,151.806 310.131,178.083 336.308 M247.359 290.872 C 236.710 297.625,237.952 313.121,249.565 318.396 C 253.942 320.384,258.058 320.384,262.435 318.396 C 278.094 311.283,273.186 288.427,256.000 288.427 C 252.198 288.427,250.421 288.929,247.359 290.872 " stroke="none" fill="black" fill-rule="evenodd"></path></svg>