<svg xmlns="http://www.w3.org/2000/svg" width="512" height="512" viewBox="0 0 512 512"><path d="M16.213 256.000 L 16.213 495.787 256.000 495.787 L 495.787 495.787 495.787 480.000 L 495.787 464.213 271.787 464.213 L 47.787 464.213 47.787 240.213 L 47.787 16.213 32.000 16.213 L 16.213 16.213 16.213 256.000 M367.787 264.107 L 367.787 431.787 423.680 431.787 L 479.573 431.787 479.573 264.107 L 479.573 96.427 423.680 96.427 L 367.787 96.427 367.787 264.107 M223.573 296.107 L 223.573 431.787 279.893 431.787 L 336.213 431.787 336.213 296.107 L 336.213 160.427 279.893 160.427 L 223.573 160.427 223.573 296.107 M80.213 320.000 L 80.213 431.787 136.107 431.787 L 192.000 431.787 192.000 320.000 L 192.000 208.213 136.107 208.213 L 80.213 208.213 80.213 320.000 " stroke="none" fill-rule="evenodd" fill="black"></path></svg>