<svg xmlns="http://www.w3.org/2000/svg" width="512" height="512" viewBox="0 0 512 512"><path d="M25.625 17.565 C 21.722 19.257,19.790 21.083,17.823 24.939 C 16.239 28.041,16.206 33.422,16.420 250.237 L 16.640 472.356 19.413 477.989 C 22.701 484.668,28.057 489.911,34.837 493.090 L 39.680 495.360 260.693 495.611 C 412.350 495.783,482.675 495.582,484.791 494.971 C 493.820 492.365,498.261 482.056,494.182 473.173 C 492.317 469.113,490.414 467.294,486.183 465.526 C 483.384 464.356,459.328 464.213,265.414 464.213 L 47.787 464.213 47.768 246.400 C 47.750 36.867,47.690 28.457,46.182 25.173 C 44.317 21.113,42.414 19.294,38.183 17.526 C 34.250 15.883,29.469 15.897,25.625 17.565 M392.960 97.599 C 387.404 99.391,383.941 101.506,379.162 106.026 C 373.860 111.040,371.031 115.571,369.139 122.077 C 367.898 126.345,367.788 140.174,367.990 265.853 L 368.213 404.907 370.891 410.559 C 375.517 420.321,382.628 426.743,392.492 430.066 C 397.587 431.782,399.233 431.860,425.275 431.617 L 452.693 431.360 458.431 428.642 C 468.568 423.840,475.101 416.134,478.231 405.285 C 479.465 401.006,479.577 386.991,479.373 261.880 L 479.147 123.218 475.939 116.727 C 472.190 109.142,466.014 102.974,458.451 99.261 L 453.547 96.853 424.960 96.676 C 403.535 96.542,395.518 96.774,392.960 97.599 M248.672 161.966 C 239.434 165.196,232.120 171.514,227.879 179.930 C 223.578 188.467,223.604 187.778,223.595 295.253 C 223.589 359.259,223.901 397.526,224.457 401.067 C 225.615 408.449,229.437 416.069,234.449 420.991 C 239.843 426.288,242.563 428.008,248.884 430.119 C 253.831 431.771,255.768 431.860,281.737 431.617 L 309.333 431.360 315.307 428.442 C 325.715 423.358,332.899 414.179,335.262 402.945 C 335.931 399.765,336.213 368.033,336.213 296.020 C 336.213 181.528,336.451 186.346,330.332 176.894 C 326.236 170.568,321.922 166.819,314.920 163.501 L 309.333 160.853 281.173 160.651 C 256.049 160.471,252.545 160.612,248.672 161.966 M107.303 209.113 C 99.090 211.117,90.227 217.615,85.456 225.132 C 80.021 233.693,80.213 230.207,80.213 320.000 C 80.213 392.204,80.370 402.144,81.575 406.245 C 84.922 417.640,94.543 427.198,105.972 430.482 C 110.102 431.668,114.864 431.838,137.972 431.618 L 165.120 431.360 170.667 428.693 C 180.790 423.825,187.149 416.591,190.314 406.346 C 191.943 401.072,192.000 398.150,192.000 320.000 C 192.000 241.850,191.943 238.928,190.314 233.654 C 187.149 223.409,180.790 216.175,170.667 211.307 L 165.120 208.640 137.813 208.486 C 122.795 208.401,109.065 208.683,107.303 209.113 " stroke="none" fill-rule="evenodd" fill="black"></path></svg>