<svg xmlns="http://www.w3.org/2000/svg" width="512" height="512" viewBox="0 0 512 512"><path d="M24.579 17.955 C 22.844 18.871,20.348 21.032,19.032 22.757 L 16.640 25.894 16.640 249.107 L 16.640 472.320 18.934 477.215 C 21.865 483.468,28.532 490.135,34.785 493.066 L 39.680 495.360 261.781 495.580 C 478.578 495.794,483.959 495.761,487.061 494.177 C 492.661 491.319,495.787 486.243,495.787 480.008 C 495.787 473.662,492.576 468.594,486.656 465.596 C 484.159 464.332,465.214 464.213,265.856 464.213 L 47.787 464.213 47.787 246.153 C 47.787 33.860,47.744 28.008,46.171 24.926 C 45.282 23.185,43.842 21.134,42.971 20.370 C 37.998 16.005,30.208 14.982,24.579 17.955 M392.107 98.023 C 381.129 101.822,372.310 111.052,369.132 122.067 C 367.901 126.334,367.788 140.490,367.990 265.853 L 368.213 404.907 370.881 410.453 C 375.749 420.578,383.733 427.613,393.615 430.486 C 397.683 431.668,402.449 431.837,425.545 431.618 L 452.693 431.360 458.474 428.622 C 465.095 425.485,472.408 418.692,475.343 412.949 C 479.719 404.391,479.552 410.268,479.563 263.811 C 479.572 139.426,479.446 126.544,478.172 122.162 C 475.746 113.817,470.133 106.448,462.435 101.503 C 455.014 96.736,452.701 96.440,423.253 96.496 C 400.070 96.539,395.787 96.749,392.107 98.023 M446.123 129.024 C 446.910 129.812,447.147 161.008,447.147 264.247 C 447.147 396.053,447.117 398.462,445.496 399.330 C 444.489 399.869,435.834 400.213,423.309 400.213 C 403.911 400.213,402.679 400.119,401.067 398.507 C 399.375 396.815,399.360 395.662,399.360 264.297 C 399.360 145.752,399.500 131.593,400.688 129.897 C 402.001 128.022,402.265 128.000,423.558 128.000 C 439.174 128.000,445.380 128.282,446.123 129.024 M249.600 161.607 C 236.037 165.973,226.180 177.768,224.371 191.793 C 223.319 199.949,223.395 393.168,224.453 400.640 C 225.667 409.214,229.288 416.044,235.899 422.229 C 245.355 431.074,246.435 431.314,278.187 431.616 C 297.250 431.798,306.183 431.573,308.907 430.841 C 320.494 427.729,330.282 418.616,334.341 407.162 C 335.608 403.584,335.771 393.141,336.014 299.520 C 336.200 227.884,335.998 194.126,335.359 190.293 C 333.417 178.639,325.884 168.693,315.149 163.608 L 309.333 160.853 281.173 160.680 C 260.135 160.551,252.150 160.785,249.600 161.607 M302.763 193.024 C 303.548 193.809,303.787 217.795,303.787 295.790 C 303.787 387.144,303.650 397.668,302.446 398.872 C 301.299 400.019,298.059 400.213,280.113 400.213 C 261.777 400.213,258.924 400.035,257.561 398.801 C 256.065 397.448,256.000 393.141,256.000 296.035 C 256.000 205.034,256.137 194.545,257.341 193.341 C 258.489 192.193,261.777 192.000,280.210 192.000 C 295.817 192.000,302.020 192.282,302.763 193.024 M107.303 209.140 C 99.129 211.066,90.572 217.308,85.705 224.894 C 79.978 233.820,80.213 229.753,80.213 320.000 C 80.213 410.309,79.976 406.230,85.738 415.106 C 90.717 422.778,97.701 428.061,106.084 430.498 C 110.100 431.665,114.971 431.837,137.972 431.618 L 165.120 431.360 170.936 428.606 C 177.370 425.558,184.903 418.562,187.742 412.997 C 192.044 404.564,192.000 405.519,192.000 320.000 C 192.000 234.425,192.047 235.442,187.721 226.963 C 185.453 222.517,177.574 214.699,173.011 212.366 C 165.637 208.596,162.264 208.229,135.680 208.309 C 121.835 208.351,109.065 208.725,107.303 209.140 M157.923 240.670 C 159.536 241.534,159.573 243.315,159.573 320.000 C 159.573 396.685,159.536 398.466,157.923 399.330 C 156.914 399.870,148.143 400.213,135.358 400.213 C 114.713 400.213,114.426 400.189,113.115 398.317 C 111.937 396.634,111.787 387.767,111.787 319.810 C 111.787 244.338,111.812 243.175,113.493 241.493 C 115.105 239.881,116.338 239.787,135.736 239.787 C 148.260 239.787,156.916 240.131,157.923 240.670 " stroke="none" fill-rule="evenodd" fill="black"></path></svg>