<svg xmlns="http://www.w3.org/2000/svg" width="512" height="512" viewBox="0 0 512 512"><path d="M106.971 112.676 C 98.146 113.900,89.761 119.467,84.716 127.451 C 80.258 134.508,80.233 134.855,80.223 189.227 L 80.213 239.787 72.157 239.787 L 64.100 239.787 63.837 216.533 C 63.585 194.295,63.489 193.123,61.648 189.676 C 60.588 187.694,58.319 184.669,56.604 182.954 C 47.187 173.537,30.567 174.263,21.828 184.471 C 16.050 191.222,16.213 189.141,16.213 256.000 C 16.213 322.859,16.050 320.778,21.828 327.529 C 23.458 329.432,26.989 332.069,29.675 333.388 C 41.503 339.196,55.157 334.471,61.648 322.324 C 63.489 318.877,63.585 317.705,63.837 295.467 L 64.100 272.213 72.157 272.213 L 80.213 272.213 80.223 322.773 C 80.233 377.145,80.258 377.492,84.716 384.549 C 93.643 398.678,111.295 403.815,126.238 396.634 C 131.086 394.304,138.277 387.078,140.673 382.129 C 143.951 375.358,144.213 370.802,144.213 320.737 L 144.213 272.213 256.000 272.213 L 367.787 272.213 367.787 320.737 C 367.787 349.992,368.131 371.074,368.653 373.827 C 369.902 380.413,372.642 385.527,377.558 390.442 C 392.255 405.139,416.057 402.318,427.284 384.549 C 431.742 377.492,431.767 377.145,431.777 322.773 L 431.787 272.213 439.843 272.213 L 447.900 272.213 448.163 295.467 C 448.415 317.705,448.511 318.877,450.352 322.324 C 456.843 334.471,470.497 339.196,482.325 333.388 C 485.011 332.069,488.542 329.432,490.172 327.529 C 495.950 320.778,495.787 322.859,495.787 256.000 C 495.787 189.141,495.950 191.222,490.172 184.471 C 481.433 174.263,464.813 173.537,455.396 182.954 C 453.681 184.669,451.412 187.694,450.352 189.676 C 448.511 193.123,448.415 194.295,448.163 216.533 L 447.900 239.787 439.843 239.787 L 431.787 239.787 431.777 189.227 C 431.767 134.855,431.742 134.508,427.284 127.451 C 416.123 109.787,392.003 107.104,377.239 121.884 C 372.629 126.499,369.876 131.720,368.653 138.173 C 368.131 140.926,367.787 162.008,367.787 191.263 L 367.787 239.787 256.000 239.787 L 144.213 239.787 144.213 191.263 C 144.213 162.008,143.869 140.926,143.347 138.173 C 142.115 131.676,139.365 126.493,134.642 121.765 C 127.423 114.538,117.362 111.234,106.971 112.676 " stroke="none" fill="black" fill-rule="evenodd"></path></svg>