<svg xmlns="http://www.w3.org/2000/svg" width="512" height="512" viewBox="0 0 512 512"><path d="M105.119 112.712 C 93.916 114.647,83.265 122.891,77.869 133.802 L 74.667 140.277 74.445 162.939 C 74.216 186.269,73.981 189.440,72.476 189.440 C 71.994 189.440,69.742 187.584,67.473 185.315 C 52.502 170.343,27.837 174.511,18.928 193.519 L 16.640 198.400 16.371 253.440 C 16.182 292.224,16.388 309.801,17.071 312.952 C 20.128 327.073,35.911 338.016,49.781 335.630 C 57.040 334.381,62.589 331.564,67.384 326.693 C 71.726 322.282,72.900 321.766,73.722 323.910 C 74.007 324.652,74.240 334.794,74.240 346.447 C 74.240 364.845,74.453 368.319,75.857 372.829 C 81.448 390.794,99.600 402.485,117.339 399.546 C 131.599 397.183,142.250 388.503,147.821 374.703 C 149.722 369.994,149.759 369.211,150.183 324.267 L 150.613 278.613 256.000 278.613 L 361.387 278.613 361.814 323.840 C 362.204 364.995,362.384 369.451,363.812 373.333 C 368.967 387.339,380.041 396.922,394.091 399.535 C 409.876 402.470,427.207 393.006,434.590 377.419 L 437.333 371.627 437.555 349.013 C 437.784 325.681,438.018 322.560,439.538 322.560 C 440.029 322.560,442.230 324.402,444.429 326.654 C 451.509 333.904,461.876 337.414,470.727 335.557 C 481.047 333.393,488.896 327.390,493.081 318.461 L 495.360 313.600 495.360 256.000 L 495.360 198.400 493.157 193.705 C 484.115 174.431,458.967 170.285,444.252 185.642 C 440.353 189.711,439.097 190.226,438.278 188.090 C 437.993 187.348,437.760 177.206,437.760 165.553 C 437.760 141.940,437.107 137.997,431.830 129.774 C 413.774 101.636,371.584 108.767,363.086 141.392 C 362.038 145.416,361.813 154.003,361.813 190.046 L 361.813 233.813 256.000 233.813 L 150.187 233.813 150.187 190.762 C 150.187 146.366,149.949 142.663,146.601 134.851 C 142.713 125.780,133.121 116.968,123.958 114.050 C 118.505 112.314,110.652 111.756,105.119 112.712 " stroke="none" fill-rule="evenodd" fill="black"></path></svg>