<svg xmlns="http://www.w3.org/2000/svg" width="512" height="512" viewBox="0 0 512 512"><path d="M92.878 96.403 L 58.183 96.853 54.905 99.463 C 53.102 100.898,50.763 103.763,49.707 105.830 L 47.787 109.588 47.805 256.394 C 47.823 396.978,47.891 403.346,49.391 406.649 C 51.291 410.832,55.299 414.357,59.558 415.590 C 61.635 416.192,73.845 416.419,95.147 416.253 L 127.573 416.000 127.805 400.000 L 128.038 384.000 104.125 384.000 L 80.213 384.000 80.213 256.000 L 80.213 128.000 104.107 128.000 L 128.000 128.000 128.000 111.787 C 128.000 102.869,127.904 95.659,127.787 95.763 C 127.669 95.868,111.960 96.156,92.878 96.403 M384.195 112.427 L 384.427 128.427 408.107 128.090 L 431.787 127.754 431.787 255.877 L 431.787 384.000 420.829 384.000 C 414.802 384.000,404.050 384.252,396.936 384.560 L 384.000 385.120 384.000 400.818 L 384.000 416.517 417.920 416.258 L 451.840 416.000 455.819 413.661 C 458.008 412.374,460.696 409.878,461.792 408.114 L 463.787 404.907 463.787 256.000 L 463.787 107.093 461.792 103.886 C 460.696 102.122,458.166 99.722,456.171 98.552 L 452.543 96.427 418.253 96.427 L 383.962 96.427 384.195 112.427 M175.787 256.000 L 175.787 367.787 192.000 367.787 L 208.213 367.787 208.213 256.000 L 208.213 144.213 192.000 144.213 L 175.787 144.213 175.787 256.000 M303.787 256.000 L 303.787 367.787 320.000 367.787 L 336.213 367.787 336.213 256.000 L 336.213 144.213 320.000 144.213 L 303.787 144.213 303.787 256.000 M239.996 256.213 L 240.213 352.000 256.000 352.000 L 271.787 352.000 272.004 256.213 L 272.221 160.427 256.000 160.427 L 239.779 160.427 239.996 256.213 M111.787 256.000 L 111.787 336.213 128.000 336.213 L 144.213 336.213 144.213 256.000 L 144.213 175.787 128.000 175.787 L 111.787 175.787 111.787 256.000 M367.787 256.000 L 367.787 336.213 384.000 336.213 L 400.213 336.213 400.213 256.000 L 400.213 175.787 384.000 175.787 L 367.787 175.787 367.787 256.000 " stroke="none" fill="black" fill-rule="evenodd"></path></svg>