<svg xmlns="http://www.w3.org/2000/svg" width="512" height="512" viewBox="0 0 512 512"><path d="M81.920 97.358 C 70.674 99.538,57.952 109.697,52.871 120.555 C 47.620 131.776,47.816 126.504,47.816 256.427 C 47.816 386.889,47.605 381.401,53.047 392.533 C 56.456 399.507,65.200 408.437,71.680 411.560 C 82.520 416.786,70.598 416.485,256.946 416.232 L 427.093 416.000 433.160 413.779 C 448.536 408.149,458.584 397.205,462.525 381.794 C 464.168 375.373,464.213 371.962,464.213 256.000 C 464.213 139.893,464.169 136.635,462.519 130.182 C 458.547 114.652,448.264 103.688,432.689 98.378 L 427.093 96.471 256.427 96.542 C 162.560 96.581,84.032 96.949,81.920 97.358 M198.227 145.366 C 201.541 146.751,206.231 151.881,207.134 155.109 C 207.987 158.155,207.987 353.845,207.134 356.891 C 206.231 360.119,201.541 365.249,198.227 366.634 C 194.699 368.108,189.301 368.108,185.773 366.634 C 182.459 365.249,177.769 360.119,176.866 356.891 C 176.013 353.845,176.013 158.155,176.866 155.109 C 177.741 151.980,182.405 146.788,185.584 145.403 C 188.951 143.936,194.764 143.919,198.227 145.366 M326.227 145.366 C 329.541 146.751,334.231 151.881,335.134 155.109 C 335.987 158.155,335.987 353.845,335.134 356.891 C 334.231 360.119,329.541 365.249,326.227 366.634 C 322.699 368.108,317.301 368.108,313.773 366.634 C 310.459 365.249,305.769 360.119,304.866 356.891 C 304.013 353.845,304.013 158.155,304.866 155.109 C 305.741 151.980,310.405 146.788,313.584 145.403 C 316.951 143.936,322.764 143.919,326.227 145.366 M263.861 162.337 C 265.873 163.468,268.185 165.820,269.524 168.097 L 271.787 171.947 271.787 256.000 L 271.787 340.053 269.524 343.903 C 263.352 354.400,248.648 354.400,242.476 343.903 L 240.213 340.053 240.213 256.000 L 240.213 171.947 242.329 168.252 C 246.602 160.788,256.343 158.112,263.861 162.337 M136.642 178.792 C 138.344 179.892,140.648 182.258,141.762 184.049 L 143.787 187.307 143.787 256.140 L 143.787 324.973 141.215 328.632 C 137.663 333.685,133.819 335.758,128.000 335.758 C 122.181 335.758,118.337 333.685,114.785 328.632 L 112.213 324.973 112.213 256.140 L 112.213 187.307 114.193 184.122 C 119.164 176.127,128.928 173.809,136.642 178.792 M392.642 178.792 C 394.344 179.892,396.648 182.258,397.762 184.049 L 399.787 187.307 399.787 256.140 L 399.787 324.973 397.215 328.632 C 393.663 333.685,389.819 335.758,384.000 335.758 C 378.181 335.758,374.337 333.685,370.785 328.632 L 368.213 324.973 368.213 256.140 L 368.213 187.307 370.193 184.122 C 375.164 176.127,384.928 173.809,392.642 178.792 " stroke="none" fill-rule="evenodd" fill="black"></path></svg>