<svg xmlns="http://www.w3.org/2000/svg" width="512" height="512" viewBox="0 0 512 512"><path d="M80.640 97.612 C 69.845 100.244,57.674 110.243,52.633 120.623 C 47.560 131.068,47.724 126.181,48.001 259.240 C 48.280 393.031,47.863 382.592,53.364 393.446 C 56.479 399.594,64.667 407.955,70.744 411.194 C 79.600 415.914,84.715 416.582,109.623 416.275 L 131.840 416.000 135.819 413.661 C 147.289 406.918,146.508 391.088,134.435 385.604 C 131.381 384.217,128.488 384.035,109.128 384.019 C 88.012 384.001,87.190 383.937,84.918 382.150 C 79.965 378.254,80.213 384.919,80.217 255.814 C 80.220 139.512,80.255 136.901,81.882 134.233 C 85.327 128.584,85.855 128.471,111.031 128.000 L 133.818 127.573 137.096 124.964 C 138.898 123.529,141.264 120.649,142.352 118.564 C 146.040 111.500,143.338 102.753,136.171 98.552 L 132.543 96.427 108.725 96.499 C 93.139 96.547,83.432 96.931,80.640 97.612 M377.378 97.837 C 373.555 99.721,369.777 104.241,368.521 108.433 C 366.565 114.961,369.945 122.608,376.386 126.228 C 379.569 128.017,380.634 128.096,400.844 128.053 C 421.231 128.009,422.090 128.075,425.298 129.924 C 427.126 130.978,429.334 133.178,430.205 134.813 C 431.723 137.667,431.787 142.522,431.787 255.858 C 431.787 386.552,432.177 377.512,426.348 381.670 C 423.804 383.485,422.671 383.595,401.920 384.044 C 381.609 384.484,379.919 384.642,376.534 386.408 C 366.791 391.494,365.146 404.857,373.375 412.082 C 378.234 416.348,380.734 416.674,405.012 416.211 C 422.619 415.874,428.044 415.492,431.787 414.321 C 445.757 409.953,456.979 399.017,461.792 385.081 L 463.787 379.307 463.787 256.000 L 463.787 132.693 461.792 126.919 C 456.794 112.446,444.057 100.572,430.080 97.353 C 427.938 96.859,416.055 96.468,403.200 96.467 C 383.758 96.466,379.726 96.680,377.378 97.837 M185.600 145.428 C 181.977 147.052,179.259 149.878,177.415 153.937 C 175.892 157.290,175.824 161.654,175.824 256.000 C 175.824 350.136,175.895 354.713,177.404 357.973 C 183.518 371.177,200.482 371.177,206.596 357.973 C 208.105 354.713,208.176 350.136,208.176 256.000 C 208.176 161.864,208.105 157.287,206.596 154.027 C 204.756 150.054,201.120 146.411,197.704 145.121 C 194.443 143.889,188.710 144.034,185.600 145.428 M313.600 145.428 C 309.977 147.052,307.259 149.878,305.415 153.937 C 303.892 157.290,303.824 161.654,303.824 256.000 C 303.824 350.136,303.895 354.713,305.404 357.973 C 311.518 371.177,328.482 371.177,334.596 357.973 C 336.105 354.713,336.176 350.136,336.176 256.000 C 336.176 161.864,336.105 157.287,334.596 154.027 C 332.756 150.054,329.120 146.411,325.704 145.121 C 322.443 143.889,316.710 144.034,313.600 145.428 M247.743 162.579 C 245.783 163.754,243.287 166.150,242.196 167.904 L 240.213 171.093 240.213 256.000 L 240.213 340.907 242.208 344.114 C 248.440 354.138,263.560 354.138,269.792 344.114 L 271.787 340.907 271.787 256.000 L 271.787 171.093 269.792 167.886 C 265.287 160.639,255.078 158.182,247.743 162.579 M124.160 176.561 C 118.480 177.972,114.199 182.068,112.678 187.546 C 111.468 191.903,111.468 320.097,112.678 324.454 C 114.990 332.778,123.768 337.649,132.313 335.347 C 137.006 334.084,142.001 329.214,143.262 324.674 C 144.528 320.112,144.585 192.092,143.322 187.546 C 142.290 183.830,138.969 179.616,135.792 177.990 C 132.785 176.452,127.306 175.779,124.160 176.561 M380.160 176.561 C 374.480 177.972,370.199 182.068,368.678 187.546 C 367.468 191.903,367.468 320.097,368.678 324.454 C 370.990 332.778,379.768 337.649,388.313 335.347 C 393.006 334.084,398.001 329.214,399.262 324.674 C 400.528 320.112,400.585 192.092,399.322 187.546 C 398.290 183.830,394.969 179.616,391.792 177.990 C 388.785 176.452,383.306 175.779,380.160 176.561 " stroke="none" fill-rule="evenodd" fill="black"></path></svg>