<svg xmlns="http://www.w3.org/2000/svg" width="512" height="512" viewBox="0 0 512 512"><path d="M201.387 57.222 C 167.819 66.058,134.676 85.042,109.529 109.836 C 89.375 129.708,72.726 154.700,62.451 180.506 C 58.231 191.106,55.165 201.061,55.803 202.094 C 56.068 202.523,57.391 203.094,58.743 203.365 C 62.190 204.054,66.520 207.946,68.369 212.018 C 69.673 214.887,69.939 217.714,69.955 228.845 L 69.973 242.224 74.453 242.669 C 89.330 244.146,97.487 245.171,102.248 246.162 C 106.243 246.993,107.730 247.031,107.976 246.309 C 108.159 245.772,109.456 241.414,110.857 236.624 C 113.757 226.712,115.086 224.310,119.016 221.882 C 122.601 219.666,129.111 219.602,133.133 221.742 C 136.836 223.713,139.914 228.926,139.933 233.259 C 139.940 235.067,138.771 240.579,137.335 245.510 C 135.899 250.441,134.852 254.604,135.010 254.761 C 135.167 254.918,138.550 256.436,142.528 258.135 C 146.506 259.833,154.437 263.659,160.153 266.638 C 172.084 272.856,170.064 273.367,177.851 262.167 C 185.039 251.827,190.694 249.536,198.859 253.653 C 201.627 255.049,203.206 256.622,204.642 259.413 C 207.833 265.618,206.998 269.026,199.690 279.626 L 193.540 288.547 197.250 291.629 C 202.039 295.606,216.394 309.961,220.371 314.750 L 223.453 318.460 232.374 312.310 C 239.263 307.560,242.142 306.071,245.020 305.771 C 252.614 304.980,260.246 311.690,260.234 319.147 C 260.224 325.186,257.716 328.610,248.455 335.222 L 239.829 341.381 245.286 351.810 C 248.287 357.547,251.991 365.312,253.518 369.067 C 255.044 372.821,256.577 376.224,256.924 376.628 C 257.270 377.031,261.572 376.167,266.482 374.708 C 276.956 371.594,280.671 371.414,284.897 373.818 C 289.523 376.448,291.276 379.347,291.688 385.043 C 291.997 389.312,291.736 390.473,289.814 393.378 C 287.101 397.477,285.193 398.498,274.773 401.421 C 270.315 402.673,266.228 403.845,265.693 404.026 C 264.973 404.269,265.015 405.766,265.852 409.751 C 266.845 414.479,267.631 420.940,269.338 438.400 L 269.776 442.880 279.315 442.885 C 284.561 442.887,290.281 443.286,292.027 443.771 C 297.688 445.343,302.915 451.125,302.946 455.851 C 302.976 460.306,303.863 460.488,312.905 457.896 C 372.057 440.940,421.907 397.004,446.163 340.447 C 450.105 331.253,456.533 312.476,456.533 310.152 C 456.533 309.585,455.467 308.907,454.164 308.646 C 451.040 308.021,447.461 305.137,445.659 301.791 C 444.495 299.631,444.142 296.182,443.887 284.490 L 443.569 269.886 435.331 269.315 C 430.800 269.002,423.445 268.178,418.987 267.485 C 414.528 266.792,409.344 265.998,407.467 265.719 L 404.053 265.214 401.546 274.373 C 397.699 288.425,394.298 292.267,385.707 292.267 C 380.109 292.267,377.271 290.721,373.973 285.875 C 371.335 281.999,371.501 277.352,374.665 266.490 C 376.101 261.559,377.157 257.413,377.011 257.275 C 376.866 257.138,371.947 254.928,366.080 252.365 C 360.213 249.802,352.341 245.970,348.587 243.850 C 344.832 241.730,341.508 240.141,341.200 240.319 C 340.891 240.497,337.936 244.428,334.633 249.055 C 327.657 258.825,324.838 260.703,318.110 260.056 C 310.478 259.323,305.138 253.007,305.767 245.459 C 306.056 242.000,307.121 239.854,312.225 232.439 L 318.337 223.560 315.115 220.840 C 310.931 217.309,294.676 201.050,291.124 196.844 L 288.369 193.582 281.181 198.723 C 272.021 205.276,269.593 206.507,265.828 206.507 C 255.451 206.507,248.835 195.966,253.353 186.632 C 254.801 183.642,256.913 181.640,263.484 177.032 C 268.051 173.830,271.929 171.105,272.104 170.977 C 272.278 170.849,271.455 169.094,270.275 167.079 C 267.077 161.617,259.107 145.333,256.890 139.733 C 255.822 137.035,254.762 134.827,254.535 134.827 C 254.307 134.827,250.032 136.018,245.034 137.474 C 234.729 140.477,229.643 140.494,225.494 137.539 C 217.960 132.175,218.463 119.246,226.390 114.507 C 227.891 113.610,233.091 111.766,237.944 110.411 L 246.768 107.947 246.291 104.533 C 246.029 102.656,245.257 97.280,244.574 92.587 C 243.891 87.893,243.077 80.693,242.763 76.587 L 242.193 69.120 233.097 69.115 C 228.094 69.113,222.468 68.685,220.597 68.166 C 216.290 66.970,211.928 62.398,211.035 58.142 L 210.347 54.863 201.387 57.222 M300.910 58.814 C 300.266 62.836,296.790 67.215,292.974 68.809 C 291.161 69.567,286.709 69.973,280.225 69.973 L 270.262 69.973 270.850 77.770 C 271.411 85.201,273.464 98.815,274.123 99.474 C 274.294 99.645,278.638 98.604,283.777 97.162 C 292.024 94.847,293.540 94.652,296.702 95.504 C 305.858 97.970,309.757 108.321,304.671 116.659 C 302.649 119.973,298.822 121.964,289.435 124.583 C 282.557 126.502,282.353 126.633,282.881 128.775 C 283.537 131.442,290.246 145.779,293.188 150.804 L 295.298 154.408 302.316 149.439 C 311.616 142.854,312.364 142.507,317.258 142.507 C 321.904 142.507,325.806 144.604,328.882 148.756 C 331.233 151.929,331.365 159.862,329.124 163.282 C 327.836 165.248,316.579 174.209,312.388 176.605 C 310.912 177.448,318.728 186.440,328.386 195.009 L 334.638 200.557 340.332 192.724 C 347.678 182.620,349.430 181.333,355.840 181.333 C 361.438 181.333,364.276 182.879,367.573 187.725 C 368.967 189.772,369.493 191.783,369.493 195.059 C 369.493 199.028,369.015 200.273,365.523 205.386 C 363.339 208.584,360.626 212.422,359.492 213.916 L 357.432 216.632 359.409 217.927 C 362.744 220.110,382.896 229.547,384.224 229.547 C 385.076 229.547,386.219 226.897,387.813 221.227 C 390.690 210.996,392.558 207.817,397.036 205.533 C 405.615 201.156,415.972 206.585,417.035 216.015 C 417.332 218.650,416.691 222.363,414.849 228.670 C 413.416 233.578,412.375 237.726,412.536 237.887 C 413.124 238.475,427.970 240.613,435.321 241.168 L 442.880 241.738 442.899 235.856 C 442.931 225.617,447.310 219.560,455.331 218.655 C 457.858 218.371,459.093 217.824,459.093 216.991 C 459.093 215.015,455.825 202.525,453.030 193.821 C 433.926 134.325,388.031 85.982,329.366 63.561 C 321.571 60.582,304.573 55.467,302.468 55.467 C 301.905 55.467,301.204 56.973,300.910 58.814 M70.827 277.751 C 70.827 285.661,69.840 288.671,65.846 292.938 C 63.354 295.601,55.610 298.245,52.859 297.372 C 51.223 296.852,51.138 297.049,51.691 300.086 C 53.057 307.584,58.191 324.748,61.896 334.196 C 72.836 362.100,88.938 386.085,111.130 407.537 C 136.789 432.339,167.008 449.589,200.662 458.645 L 208.045 460.632 208.638 456.674 C 209.361 451.856,210.712 449.148,213.897 446.134 C 217.583 442.647,220.228 442.027,231.410 442.027 L 241.695 442.027 241.092 434.560 C 240.552 427.876,238.335 412.984,237.800 412.449 C 237.685 412.334,233.765 413.368,229.089 414.745 C 218.682 417.812,214.572 417.944,210.707 415.340 C 204.327 411.041,202.192 403.742,205.360 397.066 C 207.309 392.958,211.478 390.524,221.227 387.799 C 225.803 386.520,229.545 385.046,229.543 384.524 C 229.536 383.123,222.624 368.038,219.433 362.460 L 216.674 357.638 208.851 363.155 C 199.777 369.553,195.925 370.926,191.304 369.412 C 186.426 367.813,184.556 366.254,182.551 362.111 C 180.349 357.561,180.632 351.799,183.232 348.276 C 184.145 347.039,188.438 343.448,192.773 340.297 L 200.654 334.568 195.031 328.580 C 191.938 325.287,186.692 320.043,183.374 316.926 L 177.341 311.260 174.435 315.417 C 165.036 328.863,162.336 331.093,155.460 331.093 C 148.703 331.093,142.507 324.475,142.507 317.258 C 142.507 312.366,142.855 311.614,149.425 302.335 L 154.380 295.337 149.549 292.573 C 143.964 289.377,128.878 282.464,127.476 282.457 C 126.954 282.455,125.480 286.197,124.201 290.773 C 122.922 295.349,120.984 300.473,119.894 302.160 C 116.125 307.993,107.131 309.940,101.538 306.133 C 94.344 301.237,93.382 296.237,97.151 283.330 C 98.584 278.422,99.660 274.309,99.543 274.192 C 99.145 273.793,83.235 271.507,77.013 270.953 L 70.827 270.403 70.827 277.751 " stroke="none" fill-rule="evenodd" fill="black"></path></svg>