<svg xmlns="http://www.w3.org/2000/svg" width="512" height="512" viewBox="0 0 512 512"><path d="M199.426 55.924 C 142.176 72.628,95.981 111.292,69.982 164.267 C 62.282 179.955,57.256 194.663,52.556 215.253 L 52.021 217.600 60.144 217.600 L 68.267 217.600 68.267 229.973 L 68.267 242.347 70.613 242.437 C 79.414 242.776,91.327 243.998,98.848 245.334 C 105.323 246.483,107.829 246.641,108.269 245.928 C 108.599 245.394,110.160 240.434,111.737 234.905 C 113.313 229.377,114.713 224.718,114.848 224.552 C 115.150 224.179,140.142 231.339,140.975 232.037 C 141.305 232.314,140.098 237.531,138.293 243.631 C 136.487 249.730,135.065 254.781,135.132 254.856 C 135.199 254.930,139.861 256.962,145.493 259.372 C 151.125 261.781,159.090 265.656,163.193 267.983 C 167.296 270.310,170.788 272.213,170.953 272.213 C 171.118 272.213,174.469 267.639,178.401 262.047 L 185.550 251.881 192.402 256.671 C 206.092 266.242,208.272 268.015,207.632 269.057 C 207.287 269.620,204.205 274.017,200.782 278.828 C 197.360 283.640,194.560 287.874,194.560 288.238 C 194.560 288.602,197.873 291.896,201.923 295.557 C 205.972 299.219,211.977 305.160,215.267 308.761 C 218.557 312.361,221.914 316.014,222.726 316.878 C 224.150 318.392,224.579 318.181,234.635 311.028 C 240.373 306.946,245.369 303.935,245.737 304.337 C 246.922 305.630,261.120 325.867,261.120 326.263 C 261.120 326.474,256.608 329.816,251.093 333.690 C 245.579 337.564,240.914 340.861,240.729 341.016 C 240.543 341.171,243.268 346.970,246.786 353.903 C 250.303 360.835,254.101 368.907,255.226 371.840 C 256.351 374.773,257.599 377.173,257.999 377.173 C 258.399 377.173,263.916 375.641,270.259 373.769 C 276.601 371.896,282.074 370.539,282.419 370.752 C 283.161 371.211,290.541 396.709,290.046 397.102 C 289.859 397.250,284.523 398.819,278.187 400.588 C 271.851 402.357,266.400 404.053,266.073 404.356 C 265.747 404.659,266.215 409.323,267.113 414.720 C 268.010 420.117,269.045 428.565,269.413 433.493 L 270.080 442.453 284.915 442.687 L 299.750 442.921 299.327 451.007 C 298.817 460.763,298.020 460.468,313.158 456.111 C 381.965 436.306,436.359 382.474,455.727 315.014 C 457.163 310.012,458.534 305.248,458.773 304.427 C 459.164 303.087,458.457 302.933,451.898 302.933 L 444.587 302.933 444.587 286.476 L 444.587 270.019 433.112 269.020 C 426.800 268.471,417.967 267.366,413.482 266.565 C 408.997 265.764,405.135 265.300,404.901 265.535 C 404.666 265.770,402.884 271.496,400.940 278.261 C 398.997 285.025,397.174 290.806,396.890 291.106 C 396.401 291.623,371.589 284.833,370.693 283.937 C 370.460 283.704,371.970 277.611,374.049 270.397 L 377.830 257.280 375.581 256.257 C 374.345 255.694,369.687 253.657,365.230 251.731 C 360.773 249.805,353.861 246.426,349.870 244.221 C 345.879 242.017,342.403 240.111,342.146 239.986 C 341.888 239.861,338.048 244.925,333.612 251.238 L 325.547 262.717 323.359 261.278 C 313.560 254.837,303.007 246.877,303.279 246.133 C 303.461 245.634,306.914 240.574,310.952 234.889 C 314.990 229.203,318.293 224.186,318.293 223.739 C 318.293 223.293,316.277 221.193,313.813 219.074 C 309.262 215.159,295.756 201.574,291.299 196.430 L 288.853 193.606 277.852 201.386 C 271.802 205.665,266.586 208.856,266.262 208.476 C 265.441 207.515,252.131 188.384,251.436 187.165 C 251.083 186.547,254.669 183.502,260.901 179.129 C 266.419 175.256,271.289 171.776,271.725 171.396 C 272.189 170.991,269.856 165.489,266.087 158.099 C 262.551 151.166,258.770 143.189,257.685 140.373 C 256.600 137.557,255.610 135.118,255.484 134.952 C 255.358 134.786,249.648 136.276,242.796 138.262 C 235.943 140.249,230.102 141.640,229.815 141.353 C 229.079 140.616,221.868 115.768,222.273 115.363 C 222.457 115.179,228.104 113.403,234.823 111.415 C 245.178 108.352,247.024 107.552,246.937 106.167 C 246.881 105.269,246.019 99.157,245.022 92.587 C 244.025 86.016,243.207 78.048,243.205 74.880 L 243.200 69.120 234.453 69.113 C 222.396 69.102,217.004 68.371,216.393 66.663 C 216.121 65.902,214.937 63.975,213.762 62.380 C 212.355 60.470,211.627 58.360,211.627 56.194 C 211.627 54.112,211.236 52.921,210.560 52.947 C 209.973 52.969,204.963 54.309,199.426 55.924 M302.080 56.003 C 302.080 57.623,301.312 60.453,300.373 62.293 C 299.435 64.133,298.667 66.614,298.667 67.806 L 298.667 69.973 284.648 69.973 L 270.630 69.973 271.048 74.880 C 271.769 83.333,274.003 98.533,274.616 99.159 C 274.939 99.489,280.504 98.198,286.982 96.291 C 293.461 94.384,298.909 92.971,299.090 93.152 C 299.876 93.939,306.971 119.502,306.473 119.755 C 306.169 119.910,300.643 121.536,294.194 123.369 C 283.564 126.389,282.512 126.861,282.945 128.417 C 283.208 129.361,286.096 135.621,289.363 142.329 C 293.458 150.738,295.626 154.331,296.344 153.903 C 296.918 153.562,301.649 150.282,306.859 146.615 C 312.068 142.947,316.556 139.947,316.831 139.947 C 317.322 139.947,332.800 161.641,332.800 162.329 C 332.800 162.522,328.192 165.890,322.560 169.813 C 316.928 173.737,312.320 177.242,312.320 177.603 C 312.320 178.566,326.364 193.160,331.131 197.152 L 335.226 200.580 343.028 189.503 L 350.830 178.427 359.948 184.899 C 364.963 188.459,370.100 192.099,371.362 192.987 L 373.658 194.603 366.029 205.393 C 361.833 211.327,358.400 216.410,358.400 216.689 C 358.400 217.409,372.236 224.581,379.123 227.432 C 382.523 228.839,385.198 229.506,385.602 229.047 C 385.981 228.618,387.792 222.989,389.626 216.538 C 391.535 209.823,393.399 204.807,393.987 204.805 C 395.022 204.800,419.167 211.650,419.699 212.100 C 419.857 212.232,418.354 217.941,416.359 224.786 C 414.365 231.631,412.949 237.446,413.212 237.709 C 414.051 238.549,427.277 240.588,435.743 241.184 L 443.930 241.759 443.607 229.253 L 443.283 216.747 451.615 216.747 C 461.447 216.747,461.038 217.522,457.848 204.937 C 445.422 155.918,416.142 113.909,373.760 84.297 C 356.017 71.899,327.219 58.876,307.413 54.292 L 302.080 53.058 302.080 56.003 M69.120 281.381 L 69.120 292.436 60.886 292.977 C 56.357 293.274,52.491 293.678,52.295 293.874 C 52.099 294.069,52.976 298.567,54.244 303.869 C 71.934 377.851,126.926 435.288,200.071 456.179 C 215.057 460.459,214.187 460.805,214.187 450.560 L 214.187 442.027 228.081 442.027 L 241.975 442.027 241.371 434.457 C 240.597 424.780,238.892 413.085,238.194 412.670 C 237.896 412.493,232.513 413.853,226.229 415.693 C 219.946 417.532,214.585 418.816,214.315 418.546 C 213.290 417.521,206.569 392.985,207.163 392.437 C 207.506 392.120,212.779 390.426,218.880 388.673 C 224.981 386.919,230.069 385.407,230.185 385.312 C 230.846 384.777,222.339 366.291,218.611 360.161 L 217.066 357.620 206.979 364.821 L 196.891 372.022 188.920 360.829 C 184.536 354.673,181.134 349.336,181.360 348.970 C 181.586 348.604,185.993 345.341,191.152 341.718 C 196.312 338.095,200.533 334.855,200.533 334.518 C 200.533 333.527,187.498 319.882,182.355 315.488 L 177.630 311.451 170.695 321.291 L 163.761 331.131 158.894 327.624 C 156.217 325.695,151.243 322.182,147.840 319.818 C 144.437 317.454,141.653 315.149,141.653 314.695 C 141.653 314.241,144.533 309.871,148.053 304.984 C 151.573 300.097,154.453 295.783,154.453 295.398 C 154.453 294.335,129.013 282.208,127.788 282.687 C 127.201 282.917,125.425 287.758,123.841 293.446 C 122.258 299.133,120.827 303.787,120.661 303.787 C 120.006 303.787,94.553 296.221,94.327 295.959 C 94.194 295.806,95.436 290.967,97.086 285.207 C 98.736 279.448,99.880 274.529,99.629 274.278 C 98.909 273.558,85.692 271.604,77.013 270.934 L 69.120 270.325 69.120 281.381 " stroke="none" fill-rule="evenodd" fill="black"></path></svg>