<svg xmlns="http://www.w3.org/2000/svg" width="512" height="512" viewBox="0 0 512 512"><path d="M241.493 48.641 C 167.947 53.621,101.956 97.985,69.502 164.267 C 59.681 184.324,53.241 205.089,49.785 227.840 C 47.724 241.414,47.724 270.586,49.785 284.160 C 59.315 346.901,93.568 399.555,146.493 432.819 C 169.436 447.239,198.581 457.771,227.840 462.215 C 241.414 464.276,270.586 464.276,284.160 462.215 C 328.954 455.411,368.033 436.480,399.471 406.355 C 433.620 373.633,454.928 332.133,462.215 284.160 C 464.276 270.586,464.276 241.414,462.215 227.840 C 452.756 165.563,418.679 112.882,366.432 79.766 C 348.848 68.621,321.235 57.299,301.227 53.031 C 282.604 49.059,259.929 47.393,241.493 48.641 M240.981 82.133 C 241.140 82.720,241.899 87.882,242.669 93.604 C 243.439 99.326,244.280 104.559,244.539 105.232 C 244.854 106.054,244.222 106.644,242.611 107.030 C 234.164 109.052,225.855 112.131,223.503 114.110 C 213.414 122.599,217.222 138.158,230.238 141.621 C 233.515 142.493,234.982 142.305,243.713 139.886 C 249.102 138.394,253.616 137.317,253.745 137.493 C 253.874 137.669,255.233 140.885,256.765 144.640 C 258.297 148.395,261.783 155.707,264.511 160.889 L 269.472 170.312 262.425 175.218 C 253.362 181.527,251.742 183.321,250.385 188.556 C 248.931 194.158,250.466 199.829,254.483 203.704 C 257.924 207.024,260.937 208.213,265.903 208.213 C 270.323 208.213,273.736 206.600,281.960 200.622 L 287.866 196.329 294.586 203.511 C 298.282 207.462,304.538 213.718,308.489 217.414 L 315.671 224.134 311.378 230.040 C 305.400 238.264,303.787 241.677,303.787 246.097 C 303.787 250.884,304.962 254.043,307.894 257.143 C 312.414 261.919,317.805 263.386,324.038 261.535 C 328.714 260.147,330.653 258.314,337.229 249.062 L 341.858 242.550 349.489 246.700 C 353.686 248.982,360.960 252.469,365.653 254.447 C 370.347 256.426,374.331 258.145,374.507 258.267 C 374.683 258.389,373.606 262.900,372.113 268.290 C 369.007 279.504,369.140 282.238,373.055 287.643 C 375.887 291.552,381.179 294.363,385.707 294.363 C 389.779 294.363,395.117 291.793,397.890 288.497 C 399.867 286.147,402.950 277.831,404.964 269.414 C 405.365 267.735,405.939 267.166,406.926 267.469 C 409.540 268.272,424.525 270.500,427.333 270.503 C 429.086 270.505,430.326 271.007,430.647 271.844 C 431.465 273.975,429.290 287.894,426.256 299.947 C 415.419 342.996,386.898 381.864,348.775 405.538 C 327.491 418.754,298.740 428.797,276.901 430.643 L 270.507 431.184 270.503 428.285 C 270.500 425.587,268.504 411.593,267.503 407.253 C 267.240 406.113,267.462 405.333,268.049 405.333 C 268.593 405.333,272.832 404.162,277.471 402.731 C 287.190 399.732,290.991 396.948,293.176 391.226 C 297.045 381.095,289.434 370.347,278.390 370.347 C 276.118 370.347,271.015 371.299,267.050 372.462 C 263.084 373.626,259.444 374.586,258.960 374.595 C 258.477 374.605,256.365 370.510,254.267 365.495 C 252.170 360.479,248.622 353.107,246.382 349.112 C 243.381 343.759,242.595 341.688,243.395 341.240 C 248.378 338.443,259.255 329.292,260.526 326.827 C 262.875 322.270,262.198 314.321,259.117 310.281 C 256.050 306.261,251.121 303.787,246.178 303.787 C 241.610 303.787,239.445 304.799,230.570 311.087 L 224.017 315.729 218.210 309.365 C 215.016 305.864,208.772 299.615,204.334 295.477 L 196.266 287.954 200.591 282.004 C 206.713 273.580,208.214 270.357,208.212 265.634 C 208.209 257.183,202.276 250.812,193.840 250.202 C 185.717 249.614,182.395 251.857,174.514 263.253 C 172.242 266.539,170.275 269.366,170.143 269.537 C 170.011 269.708,168.635 269.069,167.085 268.117 C 162.873 265.530,146.073 257.318,141.440 255.581 C 139.211 254.745,137.387 253.734,137.387 253.333 C 137.387 252.932,138.550 248.473,139.973 243.422 C 142.315 235.106,142.466 233.847,141.568 230.075 C 139.073 219.597,126.407 214.521,117.587 220.465 C 113.438 223.261,111.498 226.734,108.738 236.312 C 106.391 244.459,106.121 244.952,104.274 244.490 C 100.975 243.664,85.909 241.504,83.413 241.498 C 81.335 241.494,81.067 241.176,81.070 238.720 C 81.072 237.195,81.660 232.299,82.378 227.840 C 88.279 191.159,105.112 158.409,131.761 131.761 C 157.976 105.545,189.268 89.212,225.707 82.725 C 236.103 80.875,240.595 80.701,240.981 82.133 M284.160 82.378 C 352.833 93.426,409.420 145.070,426.247 212.053 C 428.846 222.400,431.514 237.819,430.815 238.455 C 430.404 238.828,415.735 236.820,415.238 236.322 C 415.024 236.109,415.981 231.905,417.364 226.980 C 420.084 217.299,420.036 215.137,416.983 209.623 C 412.069 200.747,397.933 199.578,391.269 207.497 C 390.116 208.868,387.986 213.832,386.536 218.530 C 384.095 226.441,383.763 227.029,382.030 226.509 C 379.972 225.892,363.797 218.146,361.911 216.874 C 360.969 216.239,361.777 214.509,365.882 208.372 C 371.455 200.040,372.536 196.993,371.637 192.147 C 369.693 181.654,358.375 176.168,348.517 180.940 C 345.817 182.248,343.679 184.466,339.928 189.856 C 337.181 193.803,334.527 197.052,334.031 197.076 C 332.947 197.129,314.866 178.933,314.911 177.834 C 314.929 177.412,318.183 174.809,322.142 172.050 C 327.531 168.294,329.776 166.134,331.071 163.460 C 335.121 155.094,332.033 145.765,323.972 142.012 C 316.646 138.600,312.765 139.506,302.127 147.109 C 299.102 149.271,296.323 151.040,295.952 151.040 C 295.254 151.040,286.411 133.273,285.465 129.970 C 284.970 128.239,285.586 127.897,293.718 125.393 C 301.071 123.129,303.024 122.145,305.674 119.368 C 309.214 115.659,311.007 110.453,310.146 106.382 C 309.161 101.724,306.077 97.194,302.441 95.063 C 297.145 91.960,291.516 92.352,277.495 96.802 C 275.539 97.423,275.207 96.458,274.059 86.827 C 273.257 80.106,272.397 80.485,284.160 82.378 M92.487 274.900 C 95.985 275.602,97.240 276.206,96.923 277.034 C 94.804 282.555,92.188 294.659,92.676 296.685 C 95.157 306.995,103.446 312.167,113.025 309.382 C 119.270 307.567,122.242 303.993,124.985 294.998 C 126.174 291.101,127.147 287.474,127.147 286.940 C 127.147 286.405,127.542 285.723,128.024 285.425 C 128.914 284.875,151.040 295.098,151.040 296.059 C 151.040 296.346,149.118 299.250,146.769 302.512 C 141.213 310.230,139.573 314.536,140.313 319.467 C 141.977 330.566,154.448 336.533,164.024 330.813 C 166.452 329.362,169.257 326.329,172.373 321.785 C 174.955 318.021,177.335 314.927,177.663 314.910 C 178.558 314.865,193.507 329.269,195.568 332.164 C 196.920 334.063,197.101 334.844,196.304 335.337 C 190.256 339.075,182.373 345.733,180.906 348.344 C 177.107 355.103,179.433 364.855,185.830 368.988 C 193.011 373.627,197.753 372.985,208.269 365.951 C 212.520 363.107,216.121 360.917,216.272 361.084 C 216.422 361.250,218.284 364.843,220.409 369.067 C 227.009 382.185,227.795 384.853,225.060 384.853 C 224.526 384.853,220.817 385.851,216.820 387.070 C 208.208 389.697,203.858 393.352,202.254 399.309 C 200.391 406.228,203.727 414.150,209.779 417.176 C 215.277 419.926,217.779 419.946,227.151 417.315 C 231.982 415.959,236.056 414.972,236.206 415.121 C 236.622 415.537,238.043 425.921,238.063 428.685 L 238.080 431.130 233.173 430.544 C 210.495 427.833,183.709 418.257,163.225 405.538 C 125.715 382.245,97.061 343.636,86.127 301.653 C 83.992 293.458,81.080 278.100,81.070 274.987 C 81.066 273.631,85.983 273.593,92.487 274.900 " stroke="none" fill-rule="evenodd" fill="black"></path></svg>