<svg xmlns="http://www.w3.org/2000/svg" width="512" height="512" viewBox="0 0 512 512"><path d="M249.600 65.618 C 247.723 66.487,245.181 68.303,243.951 69.652 C 242.721 71.002,221.503 99.083,196.799 132.053 L 151.884 192.000 109.849 192.000 C 70.476 192.000,67.625 192.101,64.840 193.590 C 61.135 195.571,58.641 199.695,58.667 203.798 C 58.682 206.124,109.743 424.137,112.314 432.853 C 112.732 434.268,120.313 434.347,256.000 434.347 C 391.687 434.347,399.268 434.268,399.686 432.853 C 402.234 424.234,453.314 206.127,453.331 203.798 C 453.360 199.697,450.866 195.571,447.160 193.590 C 444.375 192.101,441.524 192.000,402.151 192.000 L 360.116 192.000 314.160 130.773 C 288.883 97.099,267.459 68.889,266.550 68.086 C 264.113 65.931,259.007 63.997,255.814 64.019 C 254.274 64.029,251.477 64.749,249.600 65.618 M288.324 149.760 L 320.006 192.000 256.000 192.000 L 191.994 192.000 223.676 149.760 C 241.102 126.528,255.647 107.520,256.000 107.520 C 256.353 107.520,270.898 126.528,288.324 149.760 M266.987 278.088 C 277.659 281.409,285.588 288.313,290.402 298.476 C 292.952 303.859,293.118 304.794,293.096 313.600 C 293.076 321.269,292.726 323.845,291.182 327.680 C 287.374 337.138,279.063 345.441,269.653 349.187 C 265.910 350.678,263.147 351.065,256.000 351.101 C 247.423 351.145,246.764 351.015,240.584 348.064 C 214.493 335.603,210.933 300.529,234.038 283.569 C 243.183 276.855,256.115 274.704,266.987 278.088 " stroke="none" fill-rule="evenodd" fill="black"></path></svg>