<svg xmlns="http://www.w3.org/2000/svg" width="512" height="512" viewBox="0 0 512 512"><path d="M249.600 65.618 C 247.723 66.487,245.181 68.303,243.951 69.652 C 242.721 71.002,221.503 99.083,196.799 132.053 L 151.884 192.000 117.969 192.010 C 76.575 192.022,74.952 192.315,65.222 201.517 C 59.302 207.115,56.145 214.120,55.664 222.720 C 55.314 228.986,55.819 230.928,79.752 315.273 C 96.884 375.649,105.006 402.968,106.897 406.580 C 108.451 409.546,112.324 414.490,116.025 418.229 C 122.419 424.690,127.030 427.622,136.514 431.259 C 141.215 433.062,141.493 433.067,253.013 433.308 C 377.541 433.577,371.064 433.854,383.363 427.744 C 392.009 423.448,401.410 413.979,405.612 405.333 C 407.850 400.728,415.444 375.241,432.692 314.453 C 456.465 230.670,456.660 229.917,456.334 223.147 C 455.637 208.701,446.200 196.879,432.439 193.216 C 428.948 192.287,420.385 192.018,394.031 192.010 L 360.116 192.000 314.160 130.773 C 288.883 97.099,267.459 68.889,266.550 68.086 C 264.113 65.931,259.007 63.997,255.814 64.019 C 254.274 64.029,251.477 64.749,249.600 65.618 M288.324 149.760 L 320.006 192.000 256.000 192.000 L 191.994 192.000 223.676 149.760 C 241.102 126.528,255.647 107.520,256.000 107.520 C 256.353 107.520,270.898 126.528,288.324 149.760 M267.253 278.166 C 277.520 281.337,285.676 288.501,290.420 298.513 C 292.947 303.849,293.119 304.813,293.102 313.600 C 293.088 321.295,292.743 323.833,291.188 327.680 C 287.362 337.149,279.058 345.443,269.653 349.187 C 265.910 350.678,263.147 351.065,256.000 351.101 C 247.423 351.145,246.764 351.015,240.584 348.064 C 225.077 340.658,216.337 324.342,219.135 308.024 C 223.018 285.380,245.481 271.442,267.253 278.166 " stroke="none" fill-rule="evenodd" fill="black"></path></svg>