<svg xmlns="http://www.w3.org/2000/svg" width="512" height="512" viewBox="0 0 512 512"><path d="M251.958 48.599 C 250.439 48.970,247.943 50.247,246.412 51.438 C 244.880 52.629,223.083 81.078,197.973 114.659 L 152.320 175.714 110.507 175.768 C 87.509 175.797,66.272 176.171,63.312 176.599 C 43.686 179.437,29.573 198.076,32.572 217.200 C 33.369 222.285,84.488 403.009,87.115 410.030 C 93.303 426.570,109.671 440.352,127.648 444.161 C 136.621 446.062,374.904 446.059,384.158 444.157 C 401.086 440.679,416.337 428.510,423.721 412.587 C 425.400 408.965,436.964 369.661,453.091 312.758 C 481.699 211.821,481.407 213.072,478.716 203.080 C 475.009 189.312,462.928 178.658,448.688 176.599 C 445.728 176.171,424.491 175.797,401.493 175.767 L 359.680 175.713 313.625 114.198 C 283.018 73.315,266.561 52.030,264.559 50.737 C 261.092 48.499,255.945 47.626,251.958 48.599 M287.952 133.328 C 305.109 156.204,319.147 175.116,319.147 175.354 C 319.147 175.592,290.699 175.787,255.929 175.787 C 220.839 175.787,192.838 175.459,192.996 175.050 C 193.702 173.223,255.629 91.327,256.160 91.518 C 256.489 91.637,270.795 110.451,287.952 133.328 M446.738 209.633 C 447.738 210.633,448.003 211.831,447.636 213.686 C 446.231 220.783,395.713 397.322,394.306 400.050 C 391.057 406.352,385.441 410.754,378.328 412.577 C 373.780 413.742,359.226 413.868,253.789 413.655 C 151.996 413.450,133.909 413.232,131.068 412.177 C 125.822 410.228,118.983 403.434,117.047 398.248 C 115.295 393.557,64.000 213.218,64.000 211.752 C 64.000 211.281,64.603 210.292,65.341 209.554 C 66.552 208.343,85.030 208.213,256.000 208.213 C 431.424 208.213,445.422 208.318,446.738 209.633 M253.578 252.617 C 240.711 254.368,231.214 259.301,220.928 269.576 C 215.061 275.437,212.877 278.361,210.033 284.160 C 198.321 308.044,203.648 335.497,223.470 353.401 C 233.964 362.880,247.108 367.797,261.897 367.774 C 276.248 367.752,288.038 363.582,298.667 354.769 C 319.682 337.343,325.846 308.904,313.938 284.302 C 310.989 278.211,309.035 275.611,302.601 269.222 C 291.236 257.937,281.303 253.378,265.813 252.339 C 262.059 252.087,256.553 252.212,253.578 252.617 M273.067 286.586 C 277.952 289.117,281.997 292.954,284.819 297.735 C 287.737 302.676,288.526 313.500,286.350 318.730 C 282.647 327.632,275.503 333.665,266.535 335.466 C 256.199 337.542,246.491 333.266,240.255 323.891 C 237.106 319.156,236.860 318.337,236.532 311.473 C 236.234 305.247,236.473 303.444,238.096 299.672 C 240.402 294.313,247.519 287.466,252.786 285.541 C 258.232 283.550,268.197 284.064,273.067 286.586 " stroke="none" fill-rule="evenodd" fill="black"></path></svg>