<svg xmlns="http://www.w3.org/2000/svg" width="512" height="512" viewBox="0 0 512 512"><path d="M241.493 48.641 C 167.947 53.621,101.956 97.985,69.502 164.267 C 59.681 184.324,53.241 205.089,49.785 227.840 C 47.724 241.414,47.724 270.586,49.785 284.160 C 59.315 346.901,93.568 399.555,146.493 432.819 C 169.436 447.239,198.581 457.771,227.840 462.215 C 241.414 464.276,270.586 464.276,284.160 462.215 C 328.954 455.411,368.033 436.480,399.471 406.355 C 433.620 373.633,454.928 332.133,462.215 284.160 C 464.276 270.586,464.276 241.414,462.215 227.840 C 452.756 165.563,418.679 112.882,366.432 79.766 C 348.848 68.621,321.235 57.299,301.227 53.031 C 282.604 49.059,259.929 47.393,241.493 48.641 M240.981 82.133 C 241.140 82.720,241.905 87.927,242.683 93.704 C 244.357 106.128,248.642 123.367,253.012 135.253 C 260.082 154.482,272.589 176.824,284.963 192.325 L 290.331 199.050 273.165 216.217 L 255.998 233.383 199.596 176.981 L 143.194 120.579 150.743 115.077 C 174.567 97.718,197.792 87.695,225.707 82.725 C 236.103 80.875,240.595 80.701,240.981 82.133 M284.160 82.378 C 312.292 86.904,337.645 97.673,361.214 115.109 L 368.721 120.662 340.902 148.438 L 313.083 176.213 310.946 173.653 C 306.974 168.896,296.241 152.366,292.384 145.067 C 283.303 127.885,276.327 105.709,274.063 86.827 C 273.257 80.106,272.396 80.485,284.160 82.378 M216.197 273.184 L 199.011 290.370 191.879 284.840 C 170.772 268.473,148.067 256.705,122.880 249.077 C 113.468 246.227,96.158 242.724,87.253 241.868 L 81.067 241.273 81.070 238.610 C 81.076 234.089,83.562 220.196,86.127 210.347 C 91.585 189.391,100.917 170.176,115.077 150.743 L 120.579 143.194 176.981 199.596 L 233.383 255.998 216.197 273.184 M397.697 151.902 C 411.235 170.170,420.774 190.268,426.247 212.053 C 428.848 222.406,431.513 237.813,430.815 238.461 C 430.321 238.919,415.692 236.689,409.173 235.162 C 382.489 228.909,354.539 215.169,336.664 199.515 C 336.163 199.077,346.822 187.796,363.544 171.065 C 384.286 150.312,391.468 143.614,392.107 144.426 C 392.576 145.022,395.092 148.386,397.697 151.902 M321.041 228.053 C 342.006 244.429,367.001 256.979,392.643 264.004 C 403.784 267.057,422.133 270.507,427.227 270.507 C 429.079 270.507,430.320 270.992,430.647 271.844 C 431.465 273.977,429.289 287.897,426.254 299.947 C 420.703 321.988,410.993 342.264,396.915 361.214 L 391.337 368.722 334.980 312.365 L 278.622 256.007 295.676 238.937 C 305.056 229.548,312.818 221.867,312.926 221.867 C 313.033 221.867,316.685 224.651,321.041 228.053 M97.803 276.013 C 119.309 280.450,137.609 287.614,155.941 298.775 C 162.330 302.665,175.787 312.405,175.787 313.140 C 175.787 313.399,163.383 326.009,148.223 341.164 L 120.659 368.717 115.107 361.212 C 101.201 342.414,91.608 322.699,86.127 301.653 C 83.992 293.458,81.080 278.100,81.070 274.987 C 81.065 273.345,86.481 273.677,97.803 276.013 M312.607 335.221 L 368.783 391.402 361.245 396.994 C 336.507 415.347,303.959 428.356,277.101 430.626 L 270.907 431.150 269.888 422.623 C 265.669 387.349,251.605 352.626,229.783 323.609 L 221.729 312.900 238.643 295.970 C 247.946 286.658,255.754 279.040,255.994 279.040 C 256.235 279.040,281.711 304.321,312.607 335.221 M204.438 343.271 C 222.595 367.865,235.139 398.629,237.706 424.860 L 238.323 431.160 233.295 430.559 C 205.036 427.178,174.949 414.943,150.756 396.995 L 143.219 391.404 170.805 363.809 C 185.977 348.631,198.584 336.221,198.822 336.231 C 199.059 336.240,201.586 339.408,204.438 343.271 " stroke="none" fill-rule="evenodd" fill="black"></path></svg>