<svg xmlns="http://www.w3.org/2000/svg" width="512" height="512" viewBox="0 0 512 512"><path d="M229.120 49.948 C 197.939 54.025,167.573 65.254,141.845 82.221 C 132.729 88.233,121.173 97.037,121.173 97.971 C 121.173 98.297,151.509 128.898,188.586 165.973 L 255.999 233.382 273.185 216.197 L 290.370 199.011 284.807 191.879 C 266.104 167.900,252.708 140.088,245.819 110.933 C 242.537 97.045,241.362 86.721,240.890 67.627 C 240.474 50.828,240.261 48.651,239.037 48.736 C 238.276 48.789,233.813 49.334,229.120 49.948 M272.567 53.622 C 271.757 60.101,272.762 80.473,274.383 90.441 C 278.582 116.266,287.941 140.155,301.996 160.924 C 305.781 166.517,309.841 172.245,311.018 173.653 L 313.158 176.213 351.992 137.390 C 373.351 116.037,390.827 98.346,390.827 98.077 C 390.827 97.252,380.010 88.862,372.191 83.621 C 343.478 64.375,311.704 52.915,276.744 49.196 L 273.167 48.816 272.567 53.622 M91.881 128.213 C 73.901 151.264,59.694 181.214,53.374 209.390 C 51.274 218.757,48.689 234.758,48.656 238.603 C 48.640 240.370,49.015 240.415,67.627 240.880 C 92.231 241.494,108.898 244.225,128.781 250.897 C 151.678 258.581,172.366 269.710,191.879 284.840 L 199.011 290.370 216.197 273.185 L 233.382 255.999 165.973 188.586 C 128.898 151.509,98.296 121.173,97.968 121.173 C 97.641 121.173,94.901 124.341,91.881 128.213 M374.610 160.008 L 335.787 198.842 338.347 200.982 C 344.910 206.469,362.235 217.364,371.556 221.867 C 387.787 229.707,403.224 234.568,422.010 237.755 C 430.286 239.159,461.700 240.015,462.854 238.868 C 463.126 238.597,462.951 235.141,462.464 231.188 C 457.908 194.213,442.640 157.085,420.119 128.213 C 417.099 124.341,414.359 121.173,414.030 121.173 C 413.702 121.173,395.963 138.649,374.610 160.008 M295.677 238.936 L 278.623 256.006 346.030 323.416 C 383.103 360.492,413.704 390.827,414.032 390.827 C 414.359 390.827,417.099 387.659,420.119 383.787 C 438.099 360.736,452.306 330.786,458.626 302.610 C 460.755 293.113,463.312 277.221,463.344 273.280 L 463.360 271.360 448.044 271.360 C 401.407 271.360,359.699 257.242,322.242 228.776 C 317.242 224.976,313.056 221.867,312.941 221.867 C 312.825 221.867,305.057 229.548,295.677 238.936 M52.265 272.838 L 48.637 273.165 49.162 278.022 C 52.541 309.283,64.327 342.684,81.139 368.640 C 86.807 377.391,96.999 390.827,97.970 390.827 C 98.298 390.827,116.037 373.351,137.390 351.992 L 176.213 313.158 173.653 311.009 C 167.485 305.831,149.886 294.790,140.429 290.165 C 113.739 277.110,79.514 270.384,52.265 272.838 M238.596 296.017 L 221.635 312.995 227.195 320.124 C 245.896 344.100,259.292 371.914,266.181 401.067 C 269.412 414.740,270.613 425.306,271.105 444.373 C 271.535 461.071,271.760 463.359,272.970 463.355 C 273.727 463.353,279.650 462.572,286.131 461.621 C 321.036 456.496,353.473 442.958,381.589 421.778 C 386.168 418.329,390.169 415.093,390.482 414.587 C 390.967 413.803,257.257 279.040,255.994 279.040 C 255.754 279.040,247.925 286.680,238.596 296.017 M159.672 374.941 C 137.811 396.806,121.198 414.070,121.519 414.588 C 122.542 416.244,138.559 427.939,146.807 433.054 C 165.566 444.685,191.912 455.129,213.373 459.442 C 225.576 461.895,238.147 463.578,238.868 462.855 C 239.816 461.904,239.273 432.988,238.156 424.960 C 234.779 400.693,224.952 373.761,212.471 354.560 C 207.415 346.782,199.579 336.213,198.869 336.213 C 198.607 336.213,180.968 353.641,159.672 374.941 " stroke="none" fill-rule="evenodd" fill="black"></path></svg>