<svg xmlns="http://www.w3.org/2000/svg" width="512" height="512" viewBox="0 0 512 512"><path d="M67.840 128.602 C 48.442 131.341,30.047 144.772,21.333 162.560 C 14.657 176.185,14.933 172.153,14.933 256.000 C 14.933 324.950,15.050 331.124,16.461 336.640 C 21.984 358.244,39.460 376.226,60.587 382.046 C 65.829 383.489,75.229 383.573,231.680 383.573 L 397.227 383.573 404.053 381.249 C 417.449 376.687,429.070 367.820,436.799 356.263 C 441.623 349.051,443.893 343.502,445.804 334.251 C 446.963 328.641,447.147 317.937,447.147 256.000 C 447.147 179.058,447.111 178.330,442.739 166.646 C 436.940 151.146,421.225 136.611,403.864 130.690 L 397.227 128.427 233.813 128.334 C 143.936 128.283,69.248 128.403,67.840 128.602 M398.003 162.987 C 403.556 165.814,408.928 171.145,411.887 176.763 L 414.293 181.333 414.293 256.000 L 414.293 330.667 411.863 335.284 C 408.523 341.628,402.168 347.593,396.170 350.015 L 391.253 352.000 235.093 352.237 C 129.262 352.398,77.057 352.186,73.110 351.580 C 59.896 349.549,50.150 340.503,47.866 328.147 C 46.579 321.183,46.574 190.864,47.861 183.837 C 48.371 181.052,49.582 177.429,50.552 175.787 C 54.501 169.100,61.593 163.269,68.267 161.221 C 69.440 160.861,143.168 160.631,232.107 160.710 L 393.813 160.853 398.003 162.987 M472.320 204.039 C 469.492 205.678,465.854 209.337,464.350 212.053 C 463.101 214.311,462.902 219.133,462.672 252.858 C 462.492 279.147,462.714 292.568,463.383 295.790 C 465.421 305.607,473.714 310.962,483.107 308.525 C 488.072 307.238,491.148 304.653,493.320 299.947 C 494.782 296.780,494.896 293.606,494.896 256.000 C 494.896 210.399,494.963 210.926,488.507 206.002 C 485.864 203.986,484.328 203.518,479.668 203.306 C 476.455 203.160,473.292 203.476,472.320 204.039 " stroke="none" fill="black" fill-rule="evenodd"></path></svg>