<svg xmlns="http://www.w3.org/2000/svg" width="512" height="512" viewBox="0 0 512 512"><path d="M69.547 128.527 C 68.608 128.715,65.728 129.281,63.147 129.783 C 60.565 130.285,54.805 132.447,50.347 134.587 C 43.276 137.981,41.204 139.527,34.131 146.679 C 24.915 155.999,20.771 163.091,17.914 174.430 C 16.280 180.917,16.213 184.097,16.213 256.000 C 16.213 327.903,16.280 331.083,17.914 337.570 C 20.771 348.909,24.915 356.001,34.131 365.321 C 41.182 372.451,43.298 374.032,50.347 377.434 C 65.090 384.551,51.357 384.077,235.093 383.810 L 398.080 383.573 404.907 381.249 C 414.767 377.891,421.882 373.417,429.709 365.653 C 437.347 358.077,441.834 350.893,445.340 340.622 L 447.573 334.080 447.573 256.000 L 447.573 177.920 445.249 171.093 C 441.880 161.202,437.401 154.094,429.653 146.347 C 421.906 138.599,414.798 134.120,404.907 130.751 L 398.080 128.427 234.667 128.305 C 144.789 128.238,70.485 128.338,69.547 128.527 M398.933 162.950 C 404.386 165.630,410.370 171.614,413.050 177.067 L 415.147 181.333 415.147 256.000 L 415.147 330.667 413.061 334.933 C 410.124 340.942,403.083 347.570,397.053 350.004 L 392.107 352.000 235.947 352.237 C 130.115 352.398,77.910 352.186,73.964 351.580 C 63.215 349.928,55.197 343.922,50.603 334.080 L 48.213 328.960 48.213 256.000 L 48.213 183.040 50.692 177.671 C 53.728 171.098,60.410 164.685,66.779 162.232 C 71.217 160.523,72.576 160.510,232.960 160.681 L 394.667 160.853 398.933 162.950 M86.086 183.472 C 81.043 184.335,75.883 187.760,72.815 192.282 L 70.400 195.840 70.400 256.000 L 70.400 316.160 72.814 319.717 C 75.837 324.172,80.361 327.334,85.333 328.469 C 90.933 329.746,372.992 329.716,378.955 328.438 C 384.601 327.227,391.862 320.581,393.300 315.307 C 394.572 310.642,394.595 201.420,393.325 196.846 C 392.207 192.820,387.396 187.370,382.778 184.898 L 379.307 183.040 234.667 182.919 C 155.115 182.852,88.254 183.101,86.086 183.472 M473.173 204.303 C 469.993 205.722,466.320 209.575,465.121 212.749 C 463.872 216.053,463.871 295.940,465.119 299.251 C 467.242 304.883,473.594 309.077,480.000 309.077 C 486.406 309.077,492.758 304.883,494.881 299.251 C 496.129 295.940,496.128 216.053,494.879 212.749 C 493.644 209.480,489.961 205.689,486.641 204.268 C 483.186 202.790,476.524 202.807,473.173 204.303 " stroke="none" fill="black" fill-rule="evenodd"></path></svg>