<svg xmlns="http://www.w3.org/2000/svg" width="512" height="512" viewBox="0 0 512 512"><path d="M17.067 256.000 L 17.067 384.000 232.960 384.000 L 448.853 384.000 448.853 256.000 L 448.853 128.000 232.960 128.000 L 17.067 128.000 17.067 256.000 M417.070 256.213 L 416.853 352.000 233.173 352.215 L 49.493 352.431 49.493 256.429 L 49.493 160.427 233.390 160.427 L 417.287 160.427 417.070 256.213 M70.827 256.000 L 70.827 329.387 163.413 329.387 L 256.000 329.387 256.000 256.000 L 256.000 182.613 163.413 182.613 L 70.827 182.613 70.827 256.000 M465.067 256.445 L 465.067 309.798 481.067 309.565 L 497.067 309.333 497.286 256.213 L 497.506 203.093 481.286 203.093 L 465.067 203.093 465.067 256.445 " stroke="none" fill-rule="evenodd" fill="black"></path></svg>