<svg xmlns="http://www.w3.org/2000/svg" width="512" height="512" viewBox="0 0 512 512"><path d="M17.067 256.000 L 17.067 384.000 96.853 384.000 L 176.640 384.000 176.640 380.799 C 176.640 379.038,178.176 372.223,180.053 365.653 C 181.931 359.084,183.467 353.421,183.467 353.068 C 183.467 352.715,153.323 352.427,116.480 352.427 L 49.493 352.427 49.493 256.427 L 49.493 160.427 133.874 160.427 L 218.255 160.427 229.234 145.346 C 235.273 137.051,240.520 129.755,240.896 129.133 C 241.461 128.194,222.383 128.000,129.322 128.000 L 17.067 128.000 17.067 256.000 M254.720 144.360 C 188.473 235.040,160.465 273.595,160.447 274.133 C 160.436 274.485,175.237 274.773,193.338 274.773 C 224.279 274.773,226.222 274.863,225.810 276.267 C 225.569 277.088,218.784 301.318,210.733 330.111 C 200.655 366.153,196.369 382.737,196.976 383.344 C 198.475 384.843,200.289 383.455,204.704 377.429 C 207.042 374.238,230.806 341.675,257.512 305.067 L 306.070 238.507 273.250 238.283 L 240.431 238.060 240.899 235.723 C 241.157 234.438,247.925 210.024,255.940 181.469 C 263.954 152.915,270.296 129.203,270.032 128.776 C 268.546 126.371,265.882 129.082,254.720 144.360 M290.133 130.705 C 290.133 132.193,288.597 138.894,286.720 145.596 C 284.843 152.298,283.307 158.377,283.307 159.104 C 283.307 160.287,290.359 160.427,350.297 160.427 L 417.287 160.427 417.070 256.213 L 416.853 352.000 332.256 352.217 L 247.659 352.435 236.683 367.525 C 230.646 375.825,225.579 382.927,225.422 383.308 C 225.266 383.688,275.474 384.000,336.996 384.000 L 448.853 384.000 448.853 256.000 L 448.853 128.000 369.493 128.000 L 290.133 128.000 290.133 130.705 M70.827 256.000 L 70.827 329.387 130.502 329.387 C 186.595 329.387,190.206 329.297,190.632 327.893 C 192.212 322.692,199.680 295.584,199.680 295.051 C 199.680 294.693,182.016 294.400,160.427 294.400 C 138.837 294.400,121.173 294.226,121.173 294.014 C 121.173 293.802,139.221 268.852,161.280 238.570 C 183.339 208.288,201.387 183.310,201.387 183.063 C 201.387 182.816,172.011 182.613,136.107 182.613 L 70.827 182.613 70.827 256.000 M276.056 183.680 C 275.852 184.267,273.618 192.135,271.091 201.165 L 266.496 217.583 306.085 217.805 L 345.674 218.027 305.542 273.067 C 283.469 303.339,265.405 328.395,265.398 328.747 C 265.392 329.099,294.571 329.387,330.240 329.387 L 395.093 329.387 395.093 256.000 L 395.093 182.613 335.760 182.613 C 289.060 182.613,276.348 182.840,276.056 183.680 M465.067 256.445 L 465.067 309.798 481.067 309.565 L 497.067 309.333 497.286 256.213 L 497.506 203.093 481.286 203.093 L 465.067 203.093 465.067 256.445 " stroke="none" fill-rule="evenodd" fill="black"></path></svg>