<svg xmlns="http://www.w3.org/2000/svg" width="512" height="512" viewBox="0 0 512 512"><path d="M65.411 129.392 C 56.710 131.259,50.966 133.655,43.961 138.340 C 34.756 144.497,27.108 153.162,22.619 162.522 C 16.005 176.312,16.213 173.274,16.213 256.000 C 16.213 338.922,15.985 335.649,22.766 349.780 C 25.992 356.502,27.810 359.001,34.001 365.226 C 42.144 373.413,48.981 377.718,59.591 381.339 L 66.133 383.571 120.387 383.821 L 174.641 384.071 174.761 379.982 C 174.827 377.733,176.371 370.709,178.192 364.373 L 181.504 352.853 126.805 352.427 C 72.156 352.000,72.102 351.998,67.241 350.034 C 60.421 347.278,54.418 341.600,51.013 334.682 L 48.213 328.996 48.213 256.018 L 48.213 183.040 50.692 177.671 C 53.805 170.930,60.414 164.666,67.022 162.194 C 71.660 160.458,73.020 160.427,143.277 160.427 L 214.809 160.427 226.871 144.642 C 233.505 135.960,238.933 128.664,238.933 128.428 C 238.933 128.193,201.205 128.031,155.093 128.070 C 84.781 128.128,70.311 128.341,65.411 129.392 M287.573 131.359 C 287.573 133.252,286.037 140.235,284.160 146.878 C 282.283 153.521,280.747 159.279,280.747 159.674 C 280.747 160.068,306.379 160.495,337.707 160.622 L 394.667 160.853 398.933 162.950 C 404.386 165.630,410.370 171.614,413.050 177.067 L 415.147 181.333 415.147 256.000 L 415.147 330.667 413.056 334.933 C 410.013 341.142,403.312 347.487,397.200 349.949 L 392.107 352.000 319.386 352.241 L 246.665 352.481 234.760 368.027 L 222.856 383.573 307.054 383.805 C 398.418 384.057,398.031 384.074,409.618 379.366 C 424.243 373.423,437.390 360.326,443.280 345.830 C 447.971 334.286,448.000 333.726,448.000 256.000 C 448.000 193.726,447.821 183.380,446.643 177.677 C 442.626 158.230,431.072 143.267,413.288 134.478 C 400.889 128.350,403.248 128.558,342.400 128.222 L 287.573 127.919 287.573 131.359 M247.323 150.827 C 238.113 162.912,214.218 194.242,194.222 220.449 C 174.227 246.656,157.867 268.555,157.867 269.113 C 157.867 269.670,158.464 270.980,159.195 272.023 L 160.523 273.920 192.048 273.920 C 219.215 273.920,223.573 274.093,223.573 275.174 C 223.573 275.864,217.045 299.740,209.067 328.232 C 201.088 356.723,194.560 380.735,194.560 381.591 C 194.560 384.803,197.819 383.156,202.035 377.813 C 204.350 374.880,228.076 343.872,254.758 308.907 C 284.860 269.460,303.406 244.440,303.627 242.979 C 304.377 238.014,304.828 238.080,269.976 238.080 C 252.433 238.080,238.080 237.889,238.080 237.656 C 238.080 237.422,244.814 213.217,253.045 183.865 C 261.276 154.514,267.781 130.129,267.501 129.676 C 265.938 127.148,263.107 130.116,247.323 150.827 M79.359 186.240 C 75.797 188.379,74.196 190.060,72.357 193.591 L 69.973 198.168 69.973 255.930 L 69.973 313.692 72.169 318.098 C 74.864 323.506,79.772 327.292,85.666 328.509 C 88.509 329.096,107.103 329.331,139.082 329.185 L 188.137 328.960 192.918 311.893 L 197.699 294.827 177.143 294.382 C 157.783 293.964,156.350 293.822,152.524 291.937 C 140.466 285.999,134.811 270.299,140.626 258.902 C 141.872 256.460,187.359 195.887,196.473 184.533 C 197.156 183.682,185.882 183.467,140.653 183.467 L 83.978 183.467 79.359 186.240 M273.177 186.240 C 272.042 189.839,264.533 216.659,264.533 217.117 C 264.533 217.309,273.845 217.594,285.227 217.749 C 305.777 218.029,305.950 218.047,310.263 220.321 C 318.949 224.899,323.762 232.936,323.718 242.787 C 323.698 247.394,323.217 249.707,321.633 252.818 C 320.500 255.042,307.570 272.581,292.899 291.793 C 278.229 311.006,265.991 327.337,265.704 328.085 C 265.229 329.322,270.322 329.423,322.244 329.202 C 378.999 328.961,379.325 328.950,382.778 327.102 C 387.396 324.630,392.207 319.180,393.325 315.154 C 394.574 310.657,394.574 201.343,393.325 196.846 C 392.168 192.681,387.109 187.058,382.720 185.059 C 379.537 183.609,375.749 183.503,326.680 183.485 L 274.052 183.467 273.177 186.240 M473.173 204.257 C 469.967 205.745,466.309 209.603,465.121 212.749 C 464.526 214.324,464.213 229.237,464.213 256.083 C 464.213 288.941,464.445 297.556,465.388 299.761 C 468.173 306.269,476.282 310.313,483.372 308.730 C 487.784 307.744,489.966 306.298,492.957 302.378 L 495.360 299.228 495.589 256.921 C 495.847 209.426,496.096 211.496,489.478 206.140 C 486.879 204.036,485.421 203.551,481.035 203.332 C 477.762 203.169,474.754 203.523,473.173 204.257 " stroke="none" fill-rule="evenodd" fill="black"></path></svg>