<svg xmlns="http://www.w3.org/2000/svg" width="512" height="512" viewBox="0 0 512 512"><path d="M110.507 33.014 C 79.668 37.011,58.490 51.288,50.592 73.406 C 48.505 79.250,48.284 81.122,47.961 95.652 L 47.608 111.517 61.137 112.040 C 81.472 112.825,87.976 115.529,92.707 125.165 L 95.147 130.133 95.573 297.410 L 96.000 464.686 98.180 468.922 C 100.909 474.224,106.131 478.281,111.792 479.495 C 114.844 480.149,162.698 480.427,272.527 480.427 C 449.240 480.427,434.996 480.990,442.043 473.724 C 444.276 471.422,446.341 468.272,446.949 466.242 C 447.767 463.512,448.000 421.294,448.001 275.528 C 448.001 152.445,448.306 85.105,448.889 78.933 C 450.255 64.501,451.722 59.003,457.772 45.649 C 460.845 38.865,463.360 33.115,463.360 32.871 C 463.360 32.364,114.427 32.506,110.507 33.014 M417.768 67.731 C 416.348 77.196,415.631 96.955,415.603 127.360 L 415.573 160.427 271.883 160.427 L 128.193 160.427 127.779 142.720 C 127.340 123.928,126.573 119.298,122.378 110.113 C 116.395 97.014,104.745 88.358,88.485 84.928 C 86.497 84.509,86.182 84.102,86.632 82.532 C 87.581 79.222,91.665 73.945,95.169 71.500 C 99.215 68.676,107.675 65.908,115.252 64.928 C 118.274 64.536,187.702 64.168,269.537 64.108 L 418.327 64.000 417.768 67.731 " stroke="none" fill-rule="evenodd" fill="black"></path></svg>