<svg xmlns="http://www.w3.org/2000/svg" width="512" height="512" viewBox="0 0 512 512"><path d="M109.726 33.371 C 91.538 36.024,76.723 43.457,65.192 55.714 C 55.509 66.007,50.481 76.410,48.448 90.357 C 47.594 96.221,47.658 97.549,48.959 100.956 C 51.066 106.473,55.889 110.564,61.570 111.651 C 64.080 112.132,70.355 113.342,75.515 114.340 C 86.270 116.421,90.910 118.637,93.396 122.880 C 95.137 125.850,95.149 126.652,95.618 267.947 C 96.058 400.334,96.194 410.463,97.612 416.427 C 105.172 448.224,127.813 470.863,159.573 478.382 C 165.469 479.778,173.773 479.922,264.960 480.208 C 330.191 480.413,367.354 480.211,373.938 479.617 C 400.863 477.185,422.823 463.545,436.694 440.637 C 441.407 432.854,445.596 421.351,447.106 412.043 C 447.689 408.452,447.989 353.579,447.994 249.970 C 447.998 140.541,448.281 91.801,448.931 88.263 C 450.239 81.148,454.082 71.623,459.027 63.242 C 461.349 59.306,463.506 54.566,463.820 52.709 C 465.024 45.585,460.395 37.125,453.607 34.042 C 450.264 32.523,443.844 32.467,282.453 32.549 C 190.229 32.596,112.502 32.966,109.726 33.371 M422.400 64.798 C 422.400 65.237,421.977 66.677,421.459 67.998 C 416.568 80.486,415.606 90.489,415.588 129.067 L 415.573 160.427 271.879 160.427 L 128.185 160.427 127.804 141.440 C 127.450 123.783,127.265 121.972,125.169 115.586 C 122.465 107.349,119.360 102.454,113.056 96.492 C 107.779 91.501,97.309 86.166,89.387 84.430 C 86.688 83.839,84.480 83.024,84.480 82.618 C 84.480 81.242,91.717 73.974,95.481 71.571 C 100.213 68.550,108.344 65.825,115.333 64.919 C 123.047 63.918,422.400 63.800,422.400 64.798 M415.573 299.767 C 415.573 418.254,415.832 412.180,410.357 422.452 C 404.937 432.621,395.399 440.989,384.324 445.293 L 378.453 447.573 274.565 447.806 C 159.287 448.065,164.836 448.312,153.697 442.432 C 145.174 437.933,137.196 429.705,132.728 420.805 C 127.925 411.236,128.031 413.994,128.015 298.453 L 128.000 192.000 271.787 192.000 L 415.573 192.000 415.573 299.767 " stroke="none" fill-rule="evenodd" fill="black"></path></svg>