<svg xmlns="http://www.w3.org/2000/svg" width="512" height="512" viewBox="0 0 512 512"><path d="M108.221 33.704 C 79.317 38.568,57.447 56.664,50.310 81.621 C 46.653 94.410,47.242 100.756,52.639 106.731 C 56.089 110.549,58.012 111.259,69.968 113.130 C 83.152 115.192,88.923 117.191,92.080 120.786 C 93.532 122.440,94.807 123.875,94.914 123.976 C 95.021 124.077,95.313 188.672,95.563 267.520 L 96.019 410.880 98.255 418.996 C 102.528 434.504,108.929 445.713,119.608 456.392 C 130.293 467.077,141.515 473.483,157.004 477.738 L 165.120 479.968 265.387 480.254 C 334.458 480.451,368.527 480.246,374.889 479.596 C 400.012 477.030,421.500 464.113,434.957 443.489 C 439.690 436.237,442.137 430.882,445.179 421.120 L 447.573 413.440 448.000 250.453 L 448.427 87.467 450.835 80.640 C 453.102 74.211,455.492 69.333,461.286 59.307 C 466.546 50.206,463.457 39.712,454.076 34.811 L 449.512 32.427 282.143 32.514 C 149.606 32.583,113.410 32.831,108.221 33.704 M422.123 65.493 C 416.032 84.586,415.579 88.932,415.576 128.213 L 415.573 160.427 271.879 160.427 L 128.185 160.427 127.804 141.440 C 127.450 123.811,127.263 121.965,125.181 115.627 C 122.497 107.452,119.221 102.064,113.741 96.814 C 108.854 92.131,98.831 86.946,90.537 84.809 C 87.206 83.951,84.480 82.933,84.480 82.548 C 84.480 82.162,86.213 79.994,88.331 77.730 C 94.562 71.068,104.725 66.417,116.366 64.899 C 119.245 64.524,189.325 64.168,272.100 64.108 C 415.073 64.005,422.575 64.075,422.123 65.493 " stroke="none" fill-rule="evenodd" fill="black"></path></svg>