<svg xmlns="http://www.w3.org/2000/svg" width="512" height="512" viewBox="0 0 512 512"><path d="M89.625 81.565 C 85.940 83.163,83.855 85.021,82.046 88.318 C 80.785 90.616,80.596 97.743,80.213 157.440 L 79.787 224.000 74.388 224.595 C 67.622 225.342,64.176 226.438,57.154 230.081 C 46.816 235.442,38.609 245.250,34.393 257.280 L 32.000 264.107 31.751 347.947 L 31.503 431.787 49.885 431.787 L 68.267 431.787 68.267 416.000 L 68.267 400.213 256.000 400.213 L 443.733 400.213 443.733 416.000 L 443.733 431.787 462.115 431.787 L 480.497 431.787 480.249 347.947 L 480.000 264.107 477.637 257.427 C 473.308 245.189,465.186 235.443,454.846 230.081 C 447.824 226.438,444.378 225.342,437.612 224.595 L 432.213 224.000 431.787 157.440 C 431.326 85.597,431.515 88.441,426.936 84.297 C 422.178 79.991,431.452 80.211,255.814 80.247 C 112.403 80.276,92.227 80.436,89.625 81.565 M230.827 177.630 C 234.210 179.503,237.754 183.317,238.879 186.296 C 239.415 187.714,239.787 196.015,239.787 206.562 L 239.787 224.427 180.008 224.427 L 120.229 224.427 120.488 205.375 C 120.741 186.750,120.794 186.254,122.841 183.269 C 125.135 179.924,128.580 177.567,132.634 176.571 C 134.075 176.217,156.181 175.991,181.760 176.070 C 223.332 176.198,228.538 176.364,230.827 177.630 M383.588 178.179 C 385.473 179.260,387.969 181.534,389.135 183.234 C 391.213 186.264,391.258 186.689,391.512 205.375 L 391.771 224.427 331.992 224.427 L 272.213 224.427 272.213 206.479 C 272.213 193.336,272.522 187.793,273.366 185.773 C 274.789 182.366,279.982 177.693,283.109 177.004 C 284.391 176.722,285.824 176.355,286.293 176.188 C 286.763 176.022,308.075 175.960,333.653 176.050 L 380.160 176.213 383.588 178.179 " stroke="none" fill-rule="evenodd" fill="black"></path></svg>