<svg xmlns="http://www.w3.org/2000/svg" width="512" height="512" viewBox="0 0 512 512"><path d="M122.211 81.936 C 103.827 86.752,89.635 99.799,82.942 118.034 L 80.694 124.160 80.409 166.825 C 80.072 217.309,79.182 213.327,90.201 210.645 C 93.860 209.754,101.461 208.792,107.093 208.507 C 118.691 207.920,119.825 207.383,120.672 202.089 C 122.661 189.652,133.772 178.833,146.817 176.633 C 150.568 176.000,163.140 175.770,183.566 175.962 C 213.613 176.243,214.771 176.315,219.517 178.213 C 228.876 181.955,237.610 192.367,239.315 201.813 C 240.438 208.035,240.905 208.215,255.919 208.200 C 263.238 208.193,269.727 207.870,270.339 207.482 C 270.951 207.093,272.039 204.528,272.756 201.781 C 273.473 199.034,274.964 195.002,276.069 192.821 C 278.785 187.463,286.454 180.628,292.483 178.194 C 297.328 176.237,297.792 176.213,331.520 176.213 C 369.444 176.213,369.534 176.224,377.904 181.814 C 384.311 186.092,389.408 193.351,390.906 200.328 C 392.501 207.763,392.692 207.875,404.709 208.486 C 410.450 208.777,418.140 209.747,421.799 210.640 C 432.816 213.329,431.926 217.309,431.607 166.825 L 431.338 124.160 428.769 117.333 C 425.665 109.085,421.397 102.480,415.320 96.520 C 407.718 89.064,399.613 84.495,389.319 81.862 C 383.087 80.268,378.668 80.215,255.650 80.260 C 133.283 80.306,128.189 80.369,122.211 81.936 M95.147 225.832 C 81.045 228.823,65.834 237.293,55.224 248.062 C 44.726 258.718,38.388 269.887,34.311 284.912 L 32.085 293.120 31.773 353.513 C 31.548 397.039,31.736 415.235,32.448 418.664 C 34.263 427.404,40.907 432.419,49.572 431.586 C 59.086 430.672,64.000 424.087,64.000 412.252 C 64.000 405.598,64.140 405.062,66.494 402.708 L 68.989 400.213 256.000 400.213 L 443.011 400.213 445.506 402.708 C 447.860 405.062,448.000 405.598,448.000 412.252 C 448.000 425.179,453.267 431.360,464.285 431.360 C 469.411 431.360,470.381 431.079,473.307 428.745 C 475.111 427.307,477.355 424.619,478.293 422.772 C 479.954 419.504,480.000 417.725,480.000 356.693 C 480.000 294.494,479.984 293.911,478.084 286.458 C 477.031 282.325,475.004 276.144,473.580 272.723 C 465.973 254.451,448.763 237.611,429.882 229.966 C 415.343 224.079,426.206 224.419,255.396 224.496 C 122.422 224.556,100.295 224.741,95.147 225.832 " stroke="none" fill-rule="evenodd" fill="black"></path></svg>