<svg xmlns="http://www.w3.org/2000/svg" width="512" height="512" viewBox="0 0 512 512"><path d="M198.346 17.544 C 178.133 20.942,159.419 30.255,142.382 45.397 L 136.603 50.534 132.233 49.485 C 126.630 48.141,114.488 48.139,107.931 49.482 C 101.106 50.879,92.059 55.168,85.576 60.081 C 67.216 73.995,59.502 99.385,66.921 121.485 L 69.173 128.193 65.484 132.150 C 58.049 140.126,52.799 149.622,49.825 160.476 C 47.546 168.794,47.732 183.642,50.226 192.427 C 54.176 206.344,63.215 219.273,74.748 227.503 L 80.213 231.403 80.213 357.656 C 80.213 479.860,80.265 484.010,81.829 487.074 C 83.825 490.985,85.764 492.780,89.817 494.474 C 92.598 495.636,108.005 495.787,224.000 495.787 C 339.995 495.787,355.402 495.636,358.183 494.474 C 362.414 492.706,364.317 490.887,366.182 486.827 C 367.592 483.757,367.751 480.817,367.768 457.600 L 367.787 431.787 409.544 431.787 C 436.974 431.787,452.127 431.475,453.704 430.879 C 457.120 429.589,460.756 425.946,462.596 421.973 C 464.105 418.713,464.176 414.136,464.176 320.000 C 464.176 225.864,464.105 221.287,462.596 218.027 C 460.756 214.054,457.120 210.411,453.704 209.121 C 452.127 208.525,436.974 208.213,409.544 208.213 L 367.787 208.213 367.787 205.593 C 367.787 203.869,369.066 201.168,371.525 197.700 C 376.350 190.893,379.086 185.383,381.571 177.472 C 384.458 168.277,384.459 151.742,381.574 142.507 C 375.057 121.647,360.056 106.036,340.153 99.403 C 336.454 98.170,330.821 96.943,327.635 96.676 L 321.844 96.191 319.561 89.695 C 306.311 52.001,272.877 23.864,233.813 17.534 C 224.060 15.953,207.780 15.958,198.346 17.544 M234.497 50.390 C 261.263 56.633,282.929 77.899,291.023 105.871 C 293.953 115.999,294.259 131.700,291.800 145.780 C 290.722 151.953,290.050 157.214,290.307 157.471 C 291.141 158.306,320.411 163.713,320.927 163.128 C 321.739 162.207,325.239 141.815,325.755 135.004 C 326.226 128.764,326.240 128.735,328.448 129.270 C 336.559 131.233,344.396 137.719,348.342 145.734 C 350.948 151.028,351.147 152.037,351.147 160.000 C 351.147 167.960,350.948 168.974,348.347 174.256 C 341.765 187.626,326.883 194.518,312.533 190.841 C 305.243 188.974,299.627 185.968,293.132 180.459 L 287.625 175.787 218.210 175.787 L 148.796 175.787 146.799 181.547 C 143.868 190.000,141.945 193.468,137.629 198.082 C 132.946 203.088,126.841 206.118,118.741 207.456 C 104.003 209.890,89.202 202.157,82.910 188.736 C 80.951 184.557,80.640 182.782,80.640 175.787 C 80.640 168.544,80.907 167.136,83.148 162.571 C 86.349 156.053,92.541 149.860,98.785 146.934 C 102.895 145.008,104.844 144.640,110.933 144.640 C 119.681 144.640,123.976 146.404,134.360 154.263 L 141.148 159.400 150.784 146.545 L 160.421 133.691 152.530 127.827 C 143.108 120.825,133.176 115.784,125.013 113.860 C 118.770 112.389,105.663 111.921,100.911 112.999 C 98.439 113.560,98.050 113.385,97.284 111.371 C 96.813 110.131,96.427 106.678,96.427 103.699 C 96.427 89.820,108.196 79.203,122.188 80.460 C 134.271 81.544,141.275 88.941,148.050 107.771 C 149.410 111.552,150.877 114.314,151.448 114.171 C 156.617 112.880,180.043 103.443,180.048 102.651 C 180.063 99.815,171.797 80.814,168.193 75.403 L 164.078 69.224 166.732 66.775 C 183.938 50.901,209.839 44.638,234.497 50.390 M175.787 335.787 L 175.787 431.787 160.000 431.787 L 144.213 431.787 144.213 335.787 L 144.213 239.787 160.000 239.787 L 175.787 239.787 175.787 335.787 M239.787 335.787 L 239.787 431.787 224.000 431.787 L 208.213 431.787 208.213 335.787 L 208.213 239.787 224.000 239.787 L 239.787 239.787 239.787 335.787 M303.787 335.787 L 303.787 431.787 288.000 431.787 L 272.213 431.787 272.213 335.787 L 272.213 239.787 288.000 239.787 L 303.787 239.787 303.787 335.787 M431.787 320.000 L 431.787 400.213 399.787 400.213 L 367.787 400.213 367.787 320.000 L 367.787 239.787 399.787 239.787 L 431.787 239.787 431.787 320.000 " stroke="none" fill-rule="evenodd" fill="black"></path></svg>