<svg xmlns="http://www.w3.org/2000/svg" width="512" height="512" viewBox="0 0 512 512"><path d="M197.547 17.876 C 176.637 21.608,155.426 32.442,141.222 46.646 L 137.305 50.563 132.013 49.435 C 120.838 47.054,107.517 48.422,97.411 52.988 C 82.465 59.740,72.333 70.965,66.768 86.938 C 64.774 92.659,64.505 94.721,64.530 104.107 C 64.555 113.441,64.848 115.617,66.877 121.529 L 69.196 128.285 65.891 131.769 C 58.016 140.070,53.305 148.328,50.176 159.318 C 47.724 167.929,47.546 183.610,49.806 192.000 C 51.943 199.939,57.345 210.406,62.263 216.140 C 66.761 221.386,73.980 227.899,77.867 230.220 L 80.213 231.621 80.213 339.674 C 80.213 444.486,80.264 447.925,81.899 454.318 C 84.480 464.408,88.099 470.428,96.835 479.165 C 105.572 487.901,111.592 491.520,121.682 494.101 C 128.053 495.730,131.463 495.787,224.000 495.787 C 316.888 495.787,319.925 495.736,326.390 494.082 C 335.859 491.661,343.140 487.304,351.222 479.222 C 362.859 467.585,367.787 455.844,367.787 439.757 L 367.787 431.787 384.036 431.787 C 402.537 431.787,409.744 430.696,419.844 426.367 C 437.301 418.885,452.083 403.807,458.951 386.477 C 463.773 374.309,463.787 374.124,463.787 320.000 C 463.787 265.912,463.770 265.683,458.974 253.582 C 452.478 237.188,439.009 222.788,422.975 215.091 C 411.407 209.538,408.034 208.919,386.773 208.449 L 367.787 208.028 367.787 205.563 C 367.787 203.983,369.166 201.224,371.630 197.877 C 379.348 187.394,382.922 177.200,383.728 163.378 C 385.025 141.112,375.305 120.919,356.989 107.827 C 347.626 101.135,334.488 96.427,325.179 96.427 L 321.935 96.427 319.568 89.813 C 305.816 51.399,272.606 23.790,232.533 17.458 C 222.290 15.839,208.003 16.010,197.547 17.876 M232.271 49.986 C 259.221 55.102,282.164 76.594,290.687 104.707 C 292.710 111.381,292.971 113.679,293.034 125.440 C 293.074 132.715,292.972 141.059,292.808 143.982 C 292.555 148.493,292.847 149.873,294.734 153.092 C 297.777 158.285,304.459 161.668,310.024 160.833 C 318.593 159.548,322.765 154.708,324.658 143.854 C 325.381 139.705,325.973 134.602,325.973 132.514 L 325.973 128.718 328.747 129.280 C 333.203 130.183,340.623 135.142,344.442 139.769 C 356.382 154.238,353.073 176.383,337.422 186.750 C 331.852 190.439,327.629 191.566,319.573 191.512 C 309.859 191.447,304.976 189.385,291.622 179.703 C 288.732 177.609,286.275 176.608,283.088 176.227 C 280.627 175.934,250.965 175.810,217.173 175.953 C 160.420 176.194,155.524 176.328,152.985 177.716 C 148.933 179.930,146.952 182.359,143.769 189.013 C 138.652 199.709,131.220 205.319,119.361 207.438 C 108.008 209.467,96.934 206.060,89.523 198.257 C 82.275 190.626,79.745 183.855,80.389 173.816 C 80.905 165.778,83.853 159.266,89.559 153.559 C 96.047 147.071,101.913 144.640,111.077 144.640 C 118.242 144.640,118.717 144.767,126.240 148.693 C 137.042 154.331,142.949 154.213,149.143 148.238 C 155.616 141.994,155.334 131.356,148.535 125.307 C 144.003 121.276,132.613 115.747,125.013 113.889 C 118.881 112.391,105.897 111.921,100.911 113.018 C 98.446 113.560,98.048 113.379,97.284 111.371 C 96.144 108.372,96.305 99.242,97.558 95.843 C 103.067 80.901,121.774 75.508,134.705 85.134 C 138.232 87.759,143.830 96.250,144.544 100.055 C 145.220 103.660,149.296 108.610,153.059 110.395 C 158.570 113.010,166.180 111.836,170.971 107.630 C 178.450 101.066,176.753 87.090,166.795 73.229 L 163.819 69.086 166.939 66.330 C 184.303 50.990,207.281 45.242,232.271 49.986 M282.146 212.156 C 294.645 219.946,307.436 223.768,320.853 223.722 C 325.312 223.707,330.602 223.322,332.608 222.867 L 336.256 222.039 336.021 333.953 L 335.787 445.867 333.664 450.023 C 331.137 454.971,324.602 461.098,320.184 462.664 C 315.517 464.317,132.483 464.317,127.816 462.664 C 123.398 461.098,116.863 454.971,114.336 450.023 L 112.213 445.867 111.977 342.948 L 111.741 240.030 118.804 239.542 C 128.107 238.898,134.410 237.130,144.036 232.464 C 152.835 228.199,162.585 219.812,167.421 212.349 L 170.101 208.213 222.961 208.213 L 275.821 208.213 282.146 212.156 M158.293 240.208 C 157.824 240.363,156.391 240.722,155.109 241.004 C 151.982 241.693,146.789 246.366,145.366 249.773 C 144.424 252.027,144.213 267.893,144.213 336.413 C 144.213 416.482,144.285 420.427,145.796 423.245 C 146.667 424.869,148.785 427.335,150.503 428.725 C 156.245 433.373,166.779 432.498,171.630 426.971 C 175.984 422.011,175.787 426.307,175.787 336.311 C 175.787 279.309,175.498 251.933,174.879 250.296 C 173.784 247.397,170.173 243.450,167.253 241.958 C 164.947 240.780,159.675 239.750,158.293 240.208 M222.293 240.208 C 221.824 240.363,220.391 240.722,219.109 241.004 C 215.982 241.693,210.789 246.366,209.366 249.773 C 208.424 252.027,208.213 267.893,208.213 336.413 C 208.213 416.482,208.285 420.427,209.796 423.245 C 210.667 424.869,212.785 427.335,214.503 428.725 C 220.245 433.373,230.779 432.498,235.630 426.971 C 239.984 422.011,239.787 426.307,239.787 336.311 C 239.787 279.309,239.498 251.933,238.879 250.296 C 237.784 247.397,234.173 243.450,231.253 241.958 C 228.947 240.780,223.675 239.750,222.293 240.208 M286.293 240.208 C 285.824 240.363,284.391 240.722,283.109 241.004 C 279.982 241.693,274.789 246.366,273.366 249.773 C 272.424 252.027,272.213 267.893,272.213 336.413 C 272.213 416.482,272.285 420.427,273.796 423.245 C 274.667 424.869,276.785 427.335,278.503 428.725 C 284.245 433.373,294.779 432.498,299.630 426.971 C 303.984 422.011,303.787 426.307,303.787 336.311 C 303.787 279.309,303.498 251.933,302.879 250.296 C 301.784 247.397,298.173 243.450,295.253 241.958 C 292.947 240.780,287.675 239.750,286.293 240.208 M398.080 240.666 C 410.897 242.481,422.289 251.082,428.160 263.378 L 431.360 270.080 431.360 320.000 L 431.360 369.920 428.289 376.320 C 424.566 384.081,419.136 390.250,412.536 394.218 C 404.739 398.906,398.587 400.107,382.080 400.164 L 367.787 400.213 367.787 320.000 L 367.787 239.787 379.947 239.804 C 386.635 239.813,394.795 240.201,398.080 240.666 " stroke="none" fill-rule="evenodd" fill="black"></path></svg>