<svg xmlns="http://www.w3.org/2000/svg" width="512" height="512" viewBox="0 0 512 512"><path d="M198.346 17.544 C 178.133 20.942,159.419 30.255,142.382 45.397 L 136.603 50.534 132.233 49.485 C 126.630 48.141,114.488 48.139,107.931 49.482 C 101.106 50.879,92.059 55.168,85.576 60.081 C 67.216 73.995,59.502 99.385,66.921 121.485 L 69.173 128.193 65.484 132.150 C 53.841 144.640,48.331 158.635,48.304 175.787 C 48.285 187.452,50.238 195.503,55.573 205.759 C 60.465 215.161,70.570 226.176,77.848 230.042 L 80.176 231.278 80.408 341.559 L 80.640 451.840 83.287 458.696 C 86.655 467.421,89.463 471.848,95.867 478.525 C 102.363 485.299,108.316 489.250,117.167 492.663 L 124.160 495.360 224.000 495.360 L 323.840 495.360 330.833 492.663 C 340.068 489.102,346.021 485.037,353.104 477.451 C 362.773 467.098,367.787 454.109,367.787 439.412 L 367.787 431.951 386.773 431.618 C 405.589 431.288,405.833 431.259,413.867 428.498 C 423.445 425.206,430.323 421.488,437.304 415.832 C 448.584 406.690,457.723 392.466,461.866 377.600 C 463.737 370.890,463.769 369.908,463.769 320.000 C 463.769 269.939,463.742 269.131,461.849 262.400 C 454.042 234.638,432.784 214.660,405.472 209.416 C 401.493 208.652,393.481 208.213,383.498 208.213 L 367.787 208.213 367.787 205.593 C 367.787 203.869,369.066 201.168,371.525 197.700 C 376.350 190.893,379.086 185.383,381.571 177.472 C 384.458 168.277,384.459 151.742,381.574 142.507 C 375.057 121.647,360.056 106.036,340.153 99.403 C 336.454 98.170,330.821 96.943,327.635 96.676 L 321.844 96.191 319.561 89.695 C 306.311 52.001,272.877 23.864,233.813 17.534 C 224.060 15.953,207.780 15.958,198.346 17.544 M234.497 50.390 C 261.242 56.628,282.470 77.430,291.116 105.871 C 292.866 111.629,293.047 113.984,293.082 131.413 C 293.118 149.678,293.211 150.760,294.998 153.633 C 297.006 156.861,301.661 159.882,306.062 160.813 C 311.778 162.022,319.344 158.140,322.260 152.502 C 323.879 149.372,325.902 138.555,325.944 132.814 C 325.973 128.727,326.007 128.676,328.320 129.238 C 336.568 131.238,344.371 137.667,348.342 145.734 C 350.948 151.028,351.147 152.037,351.147 160.000 C 351.147 167.960,350.948 168.974,348.347 174.256 C 342.757 185.611,333.011 191.530,320.000 191.470 C 309.781 191.422,305.125 189.492,291.622 179.703 C 288.735 177.611,286.272 176.607,283.088 176.225 C 280.627 175.930,250.965 175.806,217.173 175.951 C 167.084 176.165,155.339 176.430,153.600 177.384 C 149.596 179.582,146.622 183.036,144.247 188.249 C 138.365 201.156,127.627 207.762,112.640 207.694 C 99.567 207.635,89.313 201.395,83.347 189.867 C 80.910 185.157,80.695 184.062,80.668 176.213 C 80.643 168.700,80.914 167.095,82.934 162.785 C 85.865 156.532,92.532 149.865,98.785 146.934 C 102.918 144.997,104.832 144.640,111.077 144.640 C 118.242 144.640,118.717 144.767,126.240 148.693 C 137.042 154.331,142.949 154.213,149.143 148.238 C 155.691 141.922,155.338 131.360,148.373 125.163 C 143.681 120.990,132.681 115.667,125.013 113.860 C 118.770 112.389,105.663 111.921,100.911 112.999 C 98.439 113.560,98.050 113.385,97.284 111.371 C 96.144 108.372,96.305 99.242,97.558 95.843 C 100.765 87.146,108.735 81.184,118.167 80.427 C 130.640 79.425,139.691 86.455,145.132 101.368 C 147.709 108.435,153.626 112.175,161.343 111.617 C 167.227 111.191,171.475 108.360,174.178 103.061 C 177.712 96.134,174.834 84.418,166.877 73.344 L 163.983 69.316 166.685 66.821 C 183.923 50.903,209.808 44.631,234.497 50.390 M167.253 241.958 C 170.173 243.450,173.784 247.397,174.879 250.296 C 175.498 251.934,175.781 279.190,175.768 336.056 C 175.750 415.114,175.668 419.589,174.182 422.827 C 172.317 426.887,170.414 428.706,166.183 430.474 C 160.647 432.787,153.448 431.623,149.031 427.701 C 148.126 426.897,146.680 424.704,145.818 422.827 C 144.332 419.589,144.250 415.112,144.232 335.973 C 144.217 267.790,144.424 252.027,145.366 249.773 C 146.789 246.366,151.982 241.693,155.109 241.004 C 156.391 240.722,157.824 240.363,158.293 240.208 C 159.675 239.750,164.947 240.780,167.253 241.958 M231.253 241.958 C 234.173 243.450,237.784 247.397,238.879 250.296 C 239.498 251.934,239.781 279.190,239.768 336.056 C 239.750 415.114,239.668 419.589,238.182 422.827 C 236.317 426.887,234.414 428.706,230.183 430.474 C 224.647 432.787,217.448 431.623,213.031 427.701 C 212.126 426.897,210.680 424.704,209.818 422.827 C 208.332 419.589,208.250 415.112,208.232 335.973 C 208.217 267.790,208.424 252.027,209.366 249.773 C 210.789 246.366,215.982 241.693,219.109 241.004 C 220.391 240.722,221.824 240.363,222.293 240.208 C 223.675 239.750,228.947 240.780,231.253 241.958 M295.253 241.958 C 298.173 243.450,301.784 247.397,302.879 250.296 C 303.498 251.934,303.781 279.190,303.768 336.056 C 303.750 415.114,303.668 419.589,302.182 422.827 C 300.317 426.887,298.414 428.706,294.183 430.474 C 288.647 432.787,281.448 431.623,277.031 427.701 C 276.126 426.897,274.680 424.704,273.818 422.827 C 272.332 419.589,272.250 415.112,272.232 335.973 C 272.217 267.790,272.424 252.027,273.366 249.773 C 274.789 246.366,279.982 241.693,283.109 241.004 C 284.391 240.722,285.824 240.363,286.293 240.208 C 287.675 239.750,292.947 240.780,295.253 241.958 M397.986 240.670 C 413.478 242.910,426.494 254.638,430.625 270.080 C 431.511 273.390,431.766 284.578,431.766 320.000 C 431.766 355.422,431.511 366.610,430.625 369.920 C 426.687 384.641,414.494 396.150,399.531 399.270 C 397.044 399.789,388.884 400.213,381.398 400.213 L 367.787 400.213 367.787 320.000 L 367.787 239.787 379.947 239.804 C 386.635 239.813,394.752 240.203,397.986 240.670 " stroke="none" fill-rule="evenodd" fill="black"></path></svg>