<svg xmlns="http://www.w3.org/2000/svg" width="512" height="512" viewBox="0 0 512 512"><path d="M311.495 65.311 C 297.640 69.198,288.427 81.455,288.427 96.000 C 288.427 119.644,312.579 134.848,333.942 124.652 C 353.805 115.173,358.130 87.956,342.149 73.007 C 333.857 65.251,322.170 62.317,311.495 65.311 M253.337 118.480 C 251.168 118.818,247.904 120.089,246.084 121.306 C 244.263 122.523,224.965 140.714,203.200 161.731 C 171.861 191.993,163.272 200.748,161.918 203.808 C 160.573 206.848,160.187 209.685,160.105 217.116 C 159.981 228.362,161.000 231.861,165.523 235.720 C 167.320 237.252,184.750 247.339,204.257 258.133 L 239.723 277.760 239.755 322.773 L 239.787 367.787 256.006 367.787 L 272.225 367.787 272.006 310.905 L 271.787 254.023 256.462 244.715 C 248.034 239.596,237.217 232.841,232.424 229.704 L 223.711 224.000 247.591 198.827 C 260.725 184.981,271.922 173.653,272.473 173.653 C 273.024 173.653,278.891 182.677,285.511 193.707 C 298.073 214.637,303.099 221.310,307.773 223.263 C 309.979 224.185,318.196 224.427,347.279 224.427 L 384.000 224.427 384.000 208.213 L 384.000 192.000 352.023 192.000 L 320.046 192.000 305.137 161.493 C 296.936 144.715,289.122 128.880,287.770 126.304 C 284.146 119.396,282.297 118.612,268.663 118.205 C 262.402 118.019,255.506 118.142,253.337 118.480 M109.227 265.139 C 89.639 268.562,71.705 278.132,57.861 292.547 C 49.717 301.027,45.725 306.750,40.966 316.766 C 18.998 362.997,38.915 417.611,85.746 439.556 C 110.958 451.371,142.766 450.440,167.253 437.172 C 185.669 427.193,202.024 408.955,209.167 390.434 C 214.581 376.395,215.341 372.134,215.341 355.840 C 215.341 343.181,215.061 339.889,213.501 334.225 C 203.614 298.318,176.456 272.466,141.696 265.872 C 135.098 264.621,114.812 264.162,109.227 265.139 M368.640 266.158 C 334.096 273.770,308.235 298.866,298.499 334.225 C 296.940 339.886,296.658 343.188,296.656 355.840 C 296.653 369.230,296.881 371.622,298.862 378.981 C 303.453 396.036,311.767 409.910,324.923 422.468 C 334.559 431.666,343.647 437.476,355.168 441.804 C 367.872 446.576,373.374 447.505,388.693 447.469 C 400.842 447.440,403.284 447.180,410.850 445.113 C 427.224 440.640,441.049 432.710,452.703 421.105 C 483.916 390.026,488.799 341.721,464.459 304.819 C 459.792 297.744,448.015 285.827,440.676 280.753 C 432.605 275.174,420.509 269.453,411.733 267.066 C 401.828 264.372,378.936 263.889,368.640 266.158 M142.080 298.987 C 151.623 302.057,158.925 306.569,166.418 314.027 C 177.746 325.301,183.479 339.488,183.454 356.190 C 183.438 366.912,181.853 373.846,177.292 383.147 C 174.410 389.021,172.267 391.867,166.014 398.120 C 159.763 404.371,156.913 406.518,151.040 409.400 C 141.796 413.935,133.984 415.741,123.733 415.711 C 96.539 415.633,73.378 397.729,66.010 371.091 C 64.168 364.431,63.942 348.980,65.588 342.187 C 66.213 339.605,68.462 333.864,70.585 329.428 C 73.853 322.600,75.575 320.240,81.809 314.037 C 91.519 304.378,101.735 299.047,115.200 296.613 C 116.373 296.401,121.365 296.355,126.293 296.509 C 132.996 296.720,136.973 297.344,142.080 298.987 M400.036 297.438 C 403.802 298.200,410.060 300.432,414.678 302.661 C 421.466 305.935,423.906 307.719,430.082 313.916 C 436.206 320.062,438.070 322.620,441.355 329.387 C 443.519 333.845,445.798 339.605,446.419 342.187 C 448.058 348.995,447.829 364.443,445.990 371.091 C 438.622 397.729,415.461 415.633,388.267 415.711 C 378.016 415.741,370.204 413.935,360.960 409.400 C 355.087 406.518,352.237 404.371,345.986 398.120 C 333.569 385.703,328.571 373.577,328.546 355.806 C 328.531 344.862,329.881 339.130,334.873 328.960 C 346.659 304.945,373.346 292.035,400.036 297.438 " stroke="none" fill-rule="evenodd" fill="black"></path></svg>