<svg xmlns="http://www.w3.org/2000/svg" width="512" height="512" viewBox="0 0 512 512"><path d="M315.553 72.615 C 305.747 73.700,295.828 80.946,291.172 90.425 C 289.096 94.652,288.853 96.085,288.853 104.107 C 288.853 112.251,289.072 113.494,291.255 117.760 C 294.404 123.914,300.235 129.777,306.220 132.811 C 310.614 135.038,311.832 135.253,320.000 135.253 C 328.051 135.253,329.446 135.015,333.747 132.903 C 339.445 130.104,346.715 122.729,349.109 117.317 C 351.681 111.502,352.571 104.542,351.501 98.614 C 348.367 81.244,333.664 70.611,315.553 72.615 M267.369 128.594 C 264.106 129.229,258.927 134.574,218.447 179.081 C 191.077 209.173,178.275 223.861,177.167 226.442 C 175.211 230.997,175.778 236.548,178.629 240.779 C 179.915 242.688,190.069 249.874,209.946 262.942 L 239.360 282.280 239.787 323.681 L 240.213 365.082 242.773 368.705 C 249.458 378.166,262.544 378.165,269.227 368.704 L 271.787 365.080 271.787 317.091 L 271.787 269.102 269.548 265.720 C 267.813 263.098,261.768 258.712,242.668 246.217 C 229.115 237.352,217.689 229.809,217.277 229.457 C 216.585 228.864,267.111 172.499,268.574 172.231 C 268.933 172.166,275.822 183.964,283.883 198.450 C 291.944 212.936,299.770 226.047,301.274 227.585 C 302.777 229.122,305.398 230.767,307.097 231.239 C 308.906 231.742,322.740 232.091,340.480 232.083 C 368.109 232.070,371.079 231.930,374.247 230.491 C 384.031 226.048,386.891 213.808,380.045 205.673 C 376.110 200.995,376.081 200.991,347.864 200.533 L 321.541 200.107 303.328 167.377 C 293.312 149.376,284.421 133.866,283.571 132.910 C 280.228 129.148,273.596 127.382,267.369 128.594 M107.947 273.519 C 60.315 282.462,28.154 324.821,32.576 372.790 C 35.695 406.626,58.367 437.000,89.709 449.331 C 102.501 454.364,107.611 455.221,124.587 455.180 C 139.293 455.145,140.899 454.982,148.053 452.805 C 183.828 441.922,208.401 414.794,214.580 379.362 C 223.196 329.955,189.358 282.208,139.575 273.527 C 130.615 271.964,116.248 271.961,107.947 273.519 M371.759 273.520 C 306.147 285.922,274.984 360.054,311.985 415.712 C 317.407 423.867,328.634 434.895,337.227 440.507 C 345.673 446.022,353.519 449.633,363.947 452.805 C 371.101 454.982,372.707 455.145,387.413 455.180 C 404.389 455.221,409.499 454.364,422.291 449.331 C 453.587 437.018,476.394 406.452,479.436 372.745 C 483.492 327.801,454.411 286.386,410.880 275.115 C 400.027 272.305,382.062 271.572,371.759 273.520 M138.987 306.015 C 148.540 308.140,157.314 313.354,166.051 322.098 C 172.339 328.390,174.481 331.232,177.350 337.091 C 182.172 346.939,183.469 352.637,183.454 363.913 C 183.433 379.464,179.923 389.777,170.697 401.387 C 152.934 423.740,123.291 430.264,97.282 417.546 C 90.536 414.247,87.949 412.354,81.851 406.256 C 75.752 400.157,73.860 397.570,70.561 390.824 C 61.722 372.749,61.915 353.357,71.107 335.825 C 75.318 327.795,85.627 316.896,93.240 312.425 C 106.752 304.490,122.326 302.308,138.987 306.015 M404.480 306.469 C 424.082 311.636,441.316 329.479,446.396 349.867 C 448.073 356.598,447.830 372.815,445.948 379.733 C 441.619 395.649,429.506 410.315,414.718 417.546 C 404.304 422.638,395.161 424.537,384.443 423.833 C 366.967 422.685,352.068 414.932,341.303 401.387 C 332.074 389.772,328.559 379.446,328.559 363.947 C 328.559 353.294,329.936 346.310,333.478 338.997 C 346.753 311.593,374.936 298.681,404.480 306.469 " stroke="none" fill-rule="evenodd" fill="black"></path></svg>