<svg xmlns="http://www.w3.org/2000/svg" width="512" height="512" viewBox="0 0 512 512"><path d="M311.495 65.311 C 297.640 69.198,288.427 81.455,288.427 96.000 C 288.427 119.644,312.579 134.848,333.942 124.652 C 353.805 115.173,358.130 87.956,342.149 73.007 C 333.857 65.251,322.170 62.317,311.495 65.311 M251.136 116.789 C 248.695 117.632,245.080 119.444,243.102 120.814 C 241.125 122.185,222.962 140.112,202.740 160.652 C 163.416 200.595,162.234 202.034,160.479 212.111 C 159.351 218.591,160.369 224.656,163.576 230.547 C 166.607 236.116,169.525 238.564,181.548 245.622 C 224.779 271.001,237.527 278.609,238.578 279.660 C 239.582 280.664,239.787 286.950,239.791 316.861 C 239.794 339.344,240.132 354.063,240.691 356.077 C 241.184 357.849,242.807 360.691,244.300 362.390 C 252.122 371.300,265.463 369.059,270.596 357.973 C 272.072 354.785,272.175 351.580,272.157 309.333 C 272.142 272.817,271.909 263.449,270.945 260.693 C 269.401 256.278,266.187 253.508,244.907 238.250 C 230.770 228.113,227.364 225.286,227.158 223.512 C 226.945 221.678,230.436 217.546,248.431 198.339 C 260.272 185.700,270.475 175.049,271.104 174.668 C 273.784 173.046,275.686 175.589,286.788 195.636 C 293.086 207.009,299.332 217.560,300.667 219.082 C 304.965 223.981,308.242 224.429,339.568 224.406 C 355.555 224.394,368.984 224.011,371.183 223.504 C 385.994 220.091,388.446 201.234,375.040 193.839 C 372.873 192.643,368.553 192.361,346.880 192.000 L 321.280 191.573 306.617 164.693 C 285.308 125.628,285.376 125.736,279.598 121.465 C 271.219 115.271,260.585 113.524,251.136 116.789 M109.227 265.139 C 89.639 268.562,71.705 278.132,57.861 292.547 C 49.717 301.027,45.725 306.750,40.966 316.766 C 18.998 362.997,38.915 417.611,85.746 439.556 C 110.958 451.371,142.766 450.440,167.253 437.172 C 185.669 427.193,202.024 408.955,209.167 390.434 C 214.581 376.395,215.341 372.134,215.341 355.840 C 215.341 343.181,215.061 339.889,213.501 334.225 C 203.614 298.318,176.456 272.466,141.696 265.872 C 135.098 264.621,114.812 264.162,109.227 265.139 M368.640 266.158 C 334.096 273.770,308.235 298.866,298.499 334.225 C 296.940 339.886,296.658 343.188,296.656 355.840 C 296.653 369.230,296.881 371.622,298.862 378.981 C 303.453 396.036,311.767 409.910,324.923 422.468 C 334.559 431.666,343.647 437.476,355.168 441.804 C 367.872 446.576,373.374 447.505,388.693 447.469 C 400.842 447.440,403.284 447.180,410.850 445.113 C 427.224 440.640,441.049 432.710,452.703 421.105 C 483.916 390.026,488.799 341.721,464.459 304.819 C 459.792 297.744,448.015 285.827,440.676 280.753 C 432.605 275.174,420.509 269.453,411.733 267.066 C 401.828 264.372,378.936 263.889,368.640 266.158 M142.080 298.987 C 151.623 302.057,158.925 306.569,166.418 314.027 C 177.746 325.301,183.479 339.488,183.454 356.190 C 183.438 366.912,181.853 373.846,177.292 383.147 C 174.410 389.021,172.267 391.867,166.014 398.120 C 159.763 404.371,156.913 406.518,151.040 409.400 C 141.796 413.935,133.984 415.741,123.733 415.711 C 96.539 415.633,73.378 397.729,66.010 371.091 C 64.168 364.431,63.942 348.980,65.588 342.187 C 66.213 339.605,68.462 333.864,70.585 329.428 C 73.853 322.600,75.575 320.240,81.809 314.037 C 91.519 304.378,101.735 299.047,115.200 296.613 C 116.373 296.401,121.365 296.355,126.293 296.509 C 132.996 296.720,136.973 297.344,142.080 298.987 M400.036 297.438 C 403.802 298.200,410.060 300.432,414.678 302.661 C 421.466 305.935,423.906 307.719,430.082 313.916 C 436.206 320.062,438.070 322.620,441.355 329.387 C 443.519 333.845,445.798 339.605,446.419 342.187 C 448.058 348.995,447.829 364.443,445.990 371.091 C 438.622 397.729,415.461 415.633,388.267 415.711 C 378.016 415.741,370.204 413.935,360.960 409.400 C 355.087 406.518,352.237 404.371,345.986 398.120 C 333.569 385.703,328.571 373.577,328.546 355.806 C 328.531 344.862,329.881 339.130,334.873 328.960 C 346.659 304.945,373.346 292.035,400.036 297.438 " stroke="none" fill-rule="evenodd" fill="black"></path></svg>