<svg xmlns="http://www.w3.org/2000/svg" width="512" height="512" viewBox="0 0 512 512"><path d="M235.310 105.666 L 235.093 211.748 188.690 171.973 C 163.169 150.096,141.998 132.309,141.644 132.445 C 140.669 132.822,116.480 161.293,116.480 162.065 C 116.480 162.435,140.768 183.558,170.453 209.005 C 200.139 234.452,224.427 255.600,224.427 256.000 C 224.427 256.400,200.139 277.548,170.453 302.995 C 140.768 328.442,116.480 349.565,116.480 349.935 C 116.480 350.707,140.669 379.178,141.644 379.555 C 141.998 379.691,163.169 361.904,188.690 340.027 L 235.093 300.252 235.520 406.128 L 235.947 512.004 316.571 431.376 C 386.527 361.417,397.027 350.593,395.931 349.571 C 395.235 348.923,370.571 327.767,341.120 302.557 C 311.669 277.348,287.573 256.395,287.573 255.996 C 287.573 255.596,312.053 234.290,341.973 208.650 C 371.893 183.009,396.470 161.765,396.587 161.441 C 396.705 161.116,360.514 124.566,316.164 80.217 L 235.527 -0.417 235.310 105.666 M337.920 158.860 C 337.920 159.311,284.205 205.720,277.959 210.664 C 276.559 211.773,276.480 208.771,276.480 154.349 L 276.480 96.862 307.200 127.573 C 324.096 144.464,337.920 158.543,337.920 158.860 M308.679 327.536 C 324.762 341.302,337.920 352.824,337.920 353.140 C 337.920 353.457,324.096 367.536,307.200 384.427 L 276.480 415.138 276.480 357.651 C 276.480 303.229,276.559 300.227,277.959 301.336 C 278.773 301.980,292.597 313.770,308.679 327.536 " stroke="none" fill-rule="evenodd" fill="black"></path></svg>