<svg xmlns="http://www.w3.org/2000/svg" width="512" height="512" viewBox="0 0 512 512"><path d="M248.853 29.414 C 244.542 30.950,240.027 35.303,237.759 40.107 C 235.959 43.920,235.944 44.530,235.520 127.842 L 235.093 211.738 195.205 177.562 C 173.266 158.766,153.923 142.805,152.221 142.094 C 147.822 140.256,139.760 140.425,135.814 142.438 C 131.357 144.712,127.432 148.956,125.776 153.291 C 123.739 158.626,124.451 166.101,127.424 170.594 C 128.784 172.649,149.233 190.805,177.082 214.684 C 203.121 237.011,224.427 255.605,224.427 256.003 C 224.427 256.402,203.403 274.763,177.707 296.806 C 152.011 318.849,129.951 337.981,128.685 339.322 C 119.904 348.624,123.342 364.905,135.253 370.432 C 139.499 372.402,146.462 372.505,151.058 370.667 C 153.214 369.804,169.740 356.246,194.808 334.775 L 235.093 300.269 235.520 384.161 C 235.995 477.469,235.581 471.255,241.750 477.758 C 247.164 483.465,256.348 485.480,263.494 482.530 C 267.547 480.858,383.234 365.592,385.938 360.533 C 388.427 355.878,388.433 348.143,385.952 343.467 C 383.496 338.838,382.897 338.297,332.160 294.877 C 307.637 273.891,287.573 256.396,287.573 256.000 C 287.573 255.604,307.637 238.109,332.160 217.123 C 382.897 173.703,383.496 173.162,385.952 168.533 C 388.432 163.860,388.427 156.123,385.941 151.467 C 384.867 149.455,359.825 123.812,324.966 89.029 C 274.108 38.283,265.335 29.877,262.400 29.087 C 257.836 27.860,252.877 27.979,248.853 29.414 M337.920 158.860 C 337.920 159.311,284.205 205.720,277.959 210.664 C 276.559 211.773,276.480 208.771,276.480 154.349 L 276.480 96.862 307.200 127.573 C 324.096 144.464,337.920 158.543,337.920 158.860 M308.679 327.536 C 324.762 341.302,337.920 352.824,337.920 353.140 C 337.920 353.457,324.096 367.536,307.200 384.427 L 276.480 415.138 276.480 357.651 C 276.480 303.229,276.559 300.227,277.959 301.336 C 278.773 301.980,292.597 313.770,308.679 327.536 " stroke="none" fill-rule="evenodd" fill="black"></path></svg>