<svg xmlns="http://www.w3.org/2000/svg" width="512" height="512" viewBox="0 0 512 512"><path d="M247.743 34.579 C 245.783 35.754,243.287 38.150,242.196 39.904 L 240.213 43.093 239.985 132.048 L 239.756 221.003 196.891 184.235 C 173.316 164.013,152.602 146.735,150.861 145.840 C 141.231 140.892,129.254 147.680,128.196 158.685 C 127.396 167.015,126.572 166.173,181.264 212.928 C 208.701 236.383,231.149 255.765,231.149 256.000 C 231.149 256.235,208.701 275.617,181.264 299.072 C 126.572 345.827,127.396 344.985,128.196 353.315 C 129.235 364.129,140.570 370.895,150.427 366.586 C 151.938 365.926,172.654 348.649,196.465 328.192 L 239.756 290.998 239.985 379.953 L 240.213 468.907 242.208 472.114 C 246.750 479.420,256.604 481.914,263.864 477.595 C 269.426 474.286,381.068 362.119,382.686 358.214 C 383.409 356.469,384.000 353.614,384.000 351.870 C 384.000 344.667,383.552 344.223,330.736 299.072 C 303.299 275.617,280.851 256.235,280.851 256.000 C 280.851 255.765,303.299 236.383,330.736 212.928 C 383.552 167.777,384.000 167.333,384.000 160.130 C 384.000 158.386,383.409 155.531,382.686 153.786 C 381.135 150.041,270.699 38.870,264.580 34.892 C 259.486 31.581,252.947 31.460,247.743 34.579 M343.893 158.914 C 343.893 159.259,327.765 173.380,308.053 190.293 L 272.213 221.045 272.213 153.833 L 272.213 86.621 308.053 122.453 C 327.765 142.161,343.893 158.568,343.893 158.914 M343.893 353.086 C 343.893 353.432,327.765 369.839,308.053 389.547 L 272.213 425.379 272.213 358.167 L 272.213 290.955 308.053 321.707 C 327.765 338.620,343.893 352.741,343.893 353.086 " stroke="none" fill="black" fill-rule="evenodd"></path></svg>