<svg xmlns="http://www.w3.org/2000/svg" width="512" height="512" viewBox="0 0 512 512"><path d="M203.446 33.969 C 186.449 39.899,175.787 55.631,175.787 74.783 L 175.787 80.213 156.662 80.213 C 135.583 80.213,128.482 81.113,119.385 84.939 C 111.518 88.247,105.385 92.500,98.468 99.443 C 91.374 106.565,86.068 115.061,82.913 124.349 L 80.658 130.987 80.222 179.163 L 79.787 227.338 64.770 233.349 C 56.511 236.655,48.639 240.082,47.277 240.964 C 40.573 245.305,37.079 250.081,34.155 258.898 C 32.518 263.838,32.276 265.963,32.652 272.125 C 33.090 279.297,33.654 280.881,57.014 340.601 C 70.166 374.225,81.502 402.833,82.204 404.174 C 84.148 407.887,88.701 411.861,93.440 413.981 C 105.497 419.375,136.222 411.921,157.783 398.371 C 160.880 396.425,166.371 392.553,169.986 389.767 C 174.243 386.487,176.949 384.939,177.666 385.374 C 178.275 385.743,181.077 387.834,183.893 390.021 C 194.533 398.285,209.833 406.500,221.867 410.409 C 258.033 422.159,297.406 414.325,328.969 389.099 L 334.951 384.318 339.635 388.083 C 358.779 403.468,379.887 412.653,402.663 415.509 C 413.916 416.920,422.368 414.003,427.850 406.816 C 430.973 402.721,478.446 281.363,479.511 274.752 C 480.958 265.765,477.848 254.156,472.237 247.601 C 467.470 242.031,463.035 239.477,447.061 233.097 L 432.213 227.167 431.778 179.077 L 431.342 130.987 429.087 124.349 C 423.205 107.033,409.220 91.922,392.615 84.939 C 383.518 81.113,376.417 80.213,355.338 80.213 L 336.213 80.213 336.213 74.783 C 336.213 57.220,327.697 43.138,312.572 35.690 L 306.812 32.853 257.299 32.654 C 211.772 32.471,207.437 32.577,203.446 33.969 M301.728 66.821 C 303.443 68.816,303.787 70.132,303.787 74.714 L 303.787 80.213 256.000 80.213 L 208.213 80.213 208.213 74.857 C 208.213 69.098,209.554 66.159,212.785 64.834 C 213.790 64.422,233.751 64.161,257.141 64.255 L 299.669 64.427 301.728 66.821 M372.789 112.680 C 386.721 114.941,397.059 125.279,399.320 139.211 C 400.146 144.303,400.648 214.187,399.858 214.187 C 399.663 214.187,370.105 202.483,334.174 188.178 C 298.243 173.873,267.102 161.730,264.972 161.194 C 262.823 160.653,257.780 160.385,253.643 160.593 L 246.187 160.966 180.480 187.111 C 144.341 201.491,114.101 213.507,113.280 213.813 C 111.873 214.337,111.787 212.354,111.793 179.505 C 111.797 159.644,112.179 142.304,112.680 139.211 C 114.877 125.673,125.341 114.916,138.433 112.736 C 145.028 111.637,366.040 111.585,372.789 112.680 M239.448 382.063 C 238.745 382.766,222.964 376.978,217.600 374.049 C 210.421 370.129,202.555 364.511,195.973 358.606 C 188.845 352.210,183.688 349.883,176.640 349.883 C 169.515 349.883,164.574 352.194,156.587 359.264 C 144.280 370.156,130.432 377.967,117.386 381.376 C 113.660 382.350,110.012 383.141,109.279 383.134 C 107.670 383.118,63.599 270.802,64.410 268.783 C 64.701 268.059,102.162 252.708,152.139 232.833 L 239.360 198.147 239.577 289.932 C 239.697 340.414,239.639 381.872,239.448 382.063 M362.458 233.871 C 418.427 256.107,447.306 267.987,447.598 268.896 C 448.024 270.220,405.146 381.049,403.588 382.652 C 402.251 384.027,388.355 379.966,379.355 375.569 C 370.159 371.077,363.011 366.188,354.107 358.301 C 346.705 351.743,342.505 349.904,334.933 349.904 C 327.636 349.904,323.945 351.460,317.287 357.340 C 302.474 370.424,288.488 378.418,274.560 381.762 L 272.213 382.326 272.213 290.138 L 272.213 197.950 274.987 199.086 C 276.512 199.711,315.874 215.364,362.458 233.871 M155.993 425.489 C 139.252 441.216,121.074 454.976,104.392 464.548 C 96.407 469.130,94.630 471.860,96.845 476.144 C 98.875 480.070,101.817 480.521,110.582 478.250 C 124.333 474.688,145.887 466.024,159.147 458.728 C 167.368 454.204,167.666 454.214,179.421 459.385 C 196.606 466.946,213.523 471.865,231.680 474.580 C 243.085 476.286,272.067 476.052,283.307 474.162 C 301.003 471.187,319.643 465.550,333.653 458.936 C 337.795 456.981,342.188 455.510,343.893 455.508 C 345.910 455.506,351.731 457.866,361.813 462.774 C 378.542 470.918,389.581 475.225,401.262 478.167 C 410.323 480.449,412.763 480.142,414.921 476.448 C 417.435 472.143,415.759 469.158,408.445 464.910 C 389.905 454.142,371.179 439.772,352.296 421.823 C 347.110 416.893,346.299 416.427,342.910 416.429 C 340.169 416.430,337.876 417.229,334.130 419.488 C 300.732 439.627,263.427 446.395,226.987 438.929 C 211.977 435.853,193.040 428.399,178.787 419.957 C 174.337 417.321,171.917 416.427,169.233 416.427 C 165.841 416.427,165.097 416.936,155.993 425.489 " stroke="none" fill-rule="evenodd" fill="black"></path></svg>