<svg xmlns="http://www.w3.org/2000/svg" width="512" height="512" viewBox="0 0 512 512"><path d="M186.453 25.175 C 182.189 26.683,177.901 31.246,176.707 35.546 C 176.204 37.359,175.794 46.368,175.791 55.680 L 175.787 72.533 135.002 72.533 L 94.218 72.533 89.599 75.307 C 86.037 77.446,84.436 79.127,82.597 82.657 L 80.213 87.235 80.213 154.337 L 80.212 221.440 65.066 227.345 C 39.927 237.146,36.709 239.308,33.652 248.455 C 30.427 258.106,29.949 256.339,58.179 339.200 L 84.053 415.147 88.974 415.403 C 99.858 415.970,116.670 411.578,131.042 404.413 C 141.997 398.951,151.833 391.525,162.394 380.740 L 170.762 372.195 174.341 376.131 C 192.800 396.430,213.693 408.242,238.933 412.649 C 250.542 414.676,269.600 413.942,280.819 411.035 C 302.006 405.547,318.395 395.907,333.917 379.806 L 341.363 372.082 344.500 375.694 C 362.910 396.900,387.690 411.084,412.667 414.715 C 416.378 415.254,421.294 415.572,423.593 415.421 L 427.772 415.147 453.771 339.200 C 482.182 256.206,481.627 258.255,478.349 248.455 C 476.651 243.379,472.998 238.731,468.993 236.553 C 467.538 235.761,458.667 232.032,449.280 228.265 L 432.213 221.416 431.787 153.588 L 431.360 85.760 428.974 81.702 C 427.320 78.886,425.229 76.863,422.148 75.096 L 417.707 72.549 376.960 72.541 L 336.213 72.533 336.209 55.680 C 336.206 46.018,335.802 37.378,335.262 35.433 C 334.054 31.083,329.024 26.053,324.674 24.845 C 322.328 24.194,300.990 23.913,255.573 23.936 C 201.176 23.963,189.279 24.176,186.453 25.175 M398.872 105.448 C 400.061 106.637,400.213 112.537,400.213 157.501 C 400.213 188.989,399.906 208.213,399.402 208.213 C 398.956 208.213,366.507 195.569,327.294 180.115 L 255.997 152.017 185.812 179.721 C 147.210 194.959,114.763 207.645,113.707 207.912 L 111.787 208.398 111.787 157.593 C 111.787 112.545,111.939 106.637,113.128 105.448 C 114.336 104.239,128.473 104.107,256.000 104.107 C 383.527 104.107,397.664 104.239,398.872 105.448 M161.673 413.235 C 144.389 434.369,121.576 453.560,103.599 462.091 C 96.522 465.450,83.902 469.321,79.905 469.359 C 77.528 469.382,77.410 469.492,78.857 470.332 C 81.237 471.713,98.383 470.680,109.607 468.479 C 125.243 465.413,145.008 458.290,163.204 449.165 L 170.674 445.419 175.577 447.878 C 190.342 455.282,213.799 462.194,232.364 464.610 C 243.908 466.112,265.895 466.329,276.502 465.045 C 294.990 462.807,318.037 456.362,333.932 448.985 L 341.464 445.490 349.819 449.683 C 367.430 458.521,386.101 465.255,401.955 468.489 C 412.629 470.666,430.721 471.737,433.136 470.336 C 434.603 469.484,434.505 469.383,432.196 469.359 C 423.552 469.272,403.623 460.525,390.400 451.013 C 376.287 440.861,359.364 424.696,347.733 410.256 L 345.173 407.078 340.480 410.138 C 332.918 415.068,316.035 422.962,306.134 426.197 C 284.740 433.187,261.240 435.761,239.966 433.444 C 213.522 430.564,189.454 422.116,168.910 408.504 L 166.726 407.057 161.673 413.235 " stroke="none" fill-rule="evenodd" fill="black"></path></svg>