<svg xmlns="http://www.w3.org/2000/svg" width="512" height="512" viewBox="0 0 512 512"><path d="M245.870 0.961 C 235.781 2.637,224.386 8.744,216.410 16.749 C 205.935 27.262,200.401 40.384,200.258 55.040 C 200.155 65.599,201.340 70.735,206.238 80.971 C 212.501 94.056,223.491 103.709,238.221 109.062 C 243.841 111.105,245.656 111.337,256.000 111.337 C 266.344 111.337,268.159 111.105,273.779 109.062 C 282.785 105.789,288.800 101.960,295.789 95.051 C 300.732 90.164,302.674 87.421,305.762 80.971 C 310.660 70.735,311.845 65.599,311.742 55.040 C 311.409 20.789,280.292 -4.758,245.870 0.961 M47.787 154.027 L 47.787 180.053 119.880 180.053 L 191.974 180.053 191.461 184.960 C 189.170 206.905,159.918 504.801,160.037 504.984 C 160.455 505.631,210.363 511.883,210.810 511.345 C 211.095 511.001,216.038 468.480,221.794 416.853 C 227.550 365.227,232.443 322.315,232.667 321.493 C 233.043 320.118,234.906 320.000,256.324 320.000 L 279.572 320.000 290.109 415.360 C 295.905 467.808,300.892 511.007,301.191 511.358 C 301.490 511.709,312.841 510.461,326.415 508.585 C 339.989 506.708,351.202 505.173,351.334 505.173 C 351.466 505.173,351.573 504.009,351.573 502.585 C 351.573 499.949,321.296 190.303,320.391 183.680 L 319.895 180.053 392.054 180.053 L 464.213 180.053 464.213 154.027 L 464.213 128.000 256.000 128.000 L 47.787 128.000 47.787 154.027 " stroke="none" fill="black" fill-rule="evenodd"></path></svg>