<svg xmlns="http://www.w3.org/2000/svg" width="512" height="512" viewBox="0 0 512 512"><path d="M245.870 0.961 C 235.781 2.637,224.386 8.744,216.410 16.749 C 205.935 27.262,200.401 40.384,200.258 55.040 C 200.155 65.599,201.340 70.735,206.238 80.971 C 212.501 94.056,223.491 103.709,238.221 109.062 C 243.841 111.105,245.656 111.337,256.000 111.337 C 266.344 111.337,268.159 111.105,273.779 109.062 C 282.785 105.789,288.800 101.960,295.789 95.051 C 300.732 90.164,302.674 87.421,305.762 80.971 C 310.660 70.735,311.845 65.599,311.742 55.040 C 311.409 20.789,280.292 -4.758,245.870 0.961 M68.640 128.795 C 64.523 129.788,57.242 134.073,54.833 136.921 C 43.424 150.406,47.022 170.275,62.417 178.802 L 66.987 181.333 124.587 181.760 C 182.069 182.186,182.194 182.191,185.731 184.082 C 198.534 190.929,201.902 208.563,197.484 245.627 C 196.794 251.420,193.186 273.308,189.466 294.267 C 162.669 445.272,156.041 484.344,156.590 488.094 C 157.431 493.837,159.844 498.651,164.237 503.347 C 169.769 509.261,175.225 511.531,183.893 511.526 C 191.604 511.522,196.048 509.849,202.091 504.676 C 208.834 498.905,208.736 499.306,222.306 421.626 C 229.144 382.480,235.522 348.112,236.480 345.252 C 241.673 329.741,249.278 319.989,256.171 320.004 C 260.821 320.015,266.712 325.473,270.902 333.653 C 275.838 343.291,277.380 350.484,289.748 421.547 C 303.222 498.968,303.152 498.675,309.747 504.633 C 316.021 510.302,319.452 511.569,328.533 511.569 C 335.347 511.569,337.225 511.257,340.305 509.614 C 348.961 504.998,354.659 496.913,355.543 487.993 C 355.992 483.466,354.612 475.343,321.724 288.853 C 314.876 250.018,314.288 245.996,313.167 230.313 C 311.364 205.087,315.131 191.182,325.507 184.766 L 329.677 182.187 386.919 181.760 C 439.431 181.369,444.438 181.208,447.527 179.814 C 455.313 176.300,460.491 170.233,462.964 161.727 C 464.732 155.647,464.246 150.134,461.395 143.934 C 458.520 137.680,455.698 134.683,449.537 131.342 L 444.160 128.427 257.707 128.296 C 155.157 128.224,70.078 128.449,68.640 128.795 " stroke="none" fill-rule="evenodd" fill="black"></path></svg>