<svg xmlns="http://www.w3.org/2000/svg" viewBox="0 0 512 512"><path d="M243.627 1.345 C 223.914 5.698,207.206 21.842,201.726 41.828 C 199.335 50.552,199.712 64.247,202.588 73.143 C 210.010 96.094,231.700 111.787,256.000 111.787 C 280.299 111.787,301.979 96.102,309.415 73.143 C 312.271 64.325,312.638 50.642,310.253 41.828 C 305.265 23.385,290.681 8.161,272.640 2.563 C 264.708 0.102,251.724 -0.443,243.627 1.345 M267.674 35.230 C 272.175 38.085,275.234 41.301,277.590 45.653 C 279.040 48.334,279.440 50.533,279.452 55.893 C 279.465 61.966,279.174 63.238,276.819 67.413 C 275.363 69.995,272.554 73.351,270.576 74.873 C 255.609 86.384,234.034 76.913,232.344 58.088 C 231.549 49.235,235.558 40.889,242.830 36.259 C 248.348 32.744,249.490 32.466,257.280 32.733 C 262.956 32.928,264.708 33.349,267.674 35.230 M79.360 128.937 C 73.030 130.173,65.017 134.663,59.761 139.919 C 44.038 155.642,44.086 180.346,59.870 196.130 C 65.426 201.686,72.823 205.772,80.042 207.273 C 83.030 207.894,101.416 208.218,134.229 208.226 C 172.268 208.236,184.387 208.488,186.003 209.306 C 189.337 210.993,190.155 215.500,190.228 232.588 C 190.322 254.640,190.945 250.504,167.632 382.555 C 157.836 438.045,152.747 468.905,152.747 472.822 C 152.747 483.626,157.435 493.808,166.025 501.658 C 173.248 508.260,183.016 512.022,192.819 511.979 C 208.718 511.909,224.016 501.413,229.472 486.831 C 230.468 484.169,235.749 456.320,241.494 423.442 C 252.597 359.892,255.003 347.307,256.053 347.307 C 257.129 347.307,258.729 355.672,270.096 420.693 C 275.962 454.251,281.329 483.392,282.023 485.453 C 287.070 500.438,303.197 511.956,319.181 511.990 C 324.408 512.001,331.983 510.259,337.698 507.731 C 343.637 505.104,351.819 496.623,355.259 489.528 C 358.588 482.664,359.422 478.981,359.347 471.498 C 359.318 468.665,352.394 427.371,343.959 379.733 C 321.407 252.367,321.389 252.241,321.855 229.917 C 322.201 213.328,323.056 209.818,327.006 208.760 C 328.081 208.472,351.117 208.231,378.198 208.225 C 410.704 208.217,428.973 207.894,431.958 207.273 C 452.745 202.952,467.114 181.956,463.423 161.300 C 460.553 145.243,447.448 131.763,431.884 128.858 C 426.097 127.778,84.903 127.854,79.360 128.937 M429.537 162.676 C 432.519 165.659,432.535 169.647,429.577 173.161 L 427.368 175.787 379.444 175.813 C 353.086 175.828,328.640 176.203,325.120 176.646 C 320.394 177.242,316.870 178.384,311.648 181.011 C 295.335 189.215,289.275 203.135,289.283 232.382 C 289.289 253.968,290.100 259.332,312.815 388.066 C 329.319 481.604,328.694 475.867,322.697 478.863 C 319.231 480.594,315.513 479.626,313.433 476.452 C 312.584 475.156,308.467 453.723,302.428 419.164 C 291.214 354.990,289.764 347.251,287.443 339.200 C 283.432 325.290,276.334 314.711,268.263 310.617 C 265.092 309.009,262.424 308.433,257.011 308.191 C 250.461 307.898,249.501 308.078,244.516 310.532 C 241.547 311.994,237.693 314.766,235.952 316.693 C 231.910 321.167,226.786 331.934,224.024 341.760 C 222.836 345.984,216.901 377.801,210.835 412.465 C 199.006 480.053,199.319 478.791,194.138 479.781 C 190.880 480.404,186.943 478.225,185.625 475.071 C 184.515 472.414,185.422 466.626,198.903 390.350 C 221.936 260.033,222.725 254.805,222.714 232.598 C 222.707 218.893,221.205 207.476,218.458 200.240 C 214.728 190.419,205.822 182.147,194.823 178.288 L 189.013 176.249 136.778 175.965 L 84.542 175.680 82.378 173.108 C 79.466 169.648,79.499 165.640,82.463 162.676 L 84.713 160.427 256.000 160.427 L 427.287 160.427 429.537 162.676 " fill="black" stroke="none" fill-rule="evenodd"></path></svg>