<svg xmlns="http://www.w3.org/2000/svg" width="512" height="512" viewBox="0 0 512 512"><path d="M260.347 17.253 C 256.298 18.632,252.297 22.913,250.995 27.258 C 250.391 29.276,249.526 34.625,249.074 39.144 C 247.891 50.976,246.164 57.316,241.464 67.082 C 233.557 83.512,222.266 96.640,189.195 127.856 C 143.359 171.119,129.957 193.402,128.290 229.120 C 127.002 256.727,135.345 280.846,153.446 301.844 C 159.735 309.140,169.733 317.408,175.787 320.319 C 180.764 322.713,182.122 322.983,189.013 322.950 C 194.955 322.921,197.813 322.469,201.640 320.953 C 207.766 318.527,214.782 311.899,218.044 305.454 C 227.349 287.077,243.699 271.313,269.227 256.109 C 273.920 253.313,285.248 246.925,294.400 241.914 C 317.148 229.456,323.941 225.269,335.360 216.666 C 361.218 197.183,376.195 174.960,382.022 147.426 C 383.916 138.478,384.127 115.018,382.393 106.240 C 373.875 63.114,338.765 29.449,291.097 18.700 C 282.115 16.675,264.482 15.845,260.347 17.253 M169.488 49.469 C 166.461 50.442,163.067 53.509,162.021 56.219 C 161.590 57.337,160.907 62.354,160.504 67.369 C 159.593 78.696,157.709 83.004,148.176 95.546 C 138.300 108.539,134.154 115.268,131.162 123.158 C 128.675 129.717,128.514 130.846,128.472 142.080 C 128.438 151.075,128.821 155.564,130.021 160.251 C 130.898 163.674,131.902 166.362,132.253 166.224 C 132.603 166.086,135.911 161.941,139.603 157.013 C 146.192 148.220,160.396 133.544,194.133 100.673 C 210.686 84.545,217.597 76.550,224.045 66.071 L 227.682 60.160 225.841 58.708 C 223.415 56.795,212.243 52.401,205.484 50.702 C 199.226 49.129,173.312 48.241,169.488 49.469 M363.768 213.164 C 354.767 222.176,345.686 229.506,333.760 237.385 C 325.337 242.949,319.197 246.493,289.707 262.810 C 257.693 280.524,241.280 294.832,232.207 312.936 C 227.599 322.131,228.998 325.746,238.560 329.345 C 266.155 339.730,295.477 337.832,323.840 323.826 C 361.836 305.063,385.380 265.780,383.738 223.891 C 383.151 208.919,381.457 205.653,374.278 205.653 C 371.633 205.653,370.366 206.558,363.768 213.164 M41.185 338.396 C 34.694 342.287,30.638 352.221,32.508 359.648 C 34.408 367.194,42.713 373.769,50.463 373.864 C 52.904 373.893,66.240 370.223,89.173 363.208 C 127.898 351.365,128.000 351.316,128.000 344.633 C 128.000 341.979,127.435 340.638,125.506 338.708 L 123.011 336.213 83.906 336.221 L 44.800 336.229 41.185 338.396 M386.494 338.708 C 383.147 342.055,383.092 346.264,386.347 349.905 C 388.448 352.256,392.267 353.647,422.827 363.185 C 444.063 369.813,458.413 373.861,460.805 373.898 C 468.819 374.021,476.981 368.109,479.164 360.600 C 481.872 351.285,477.083 340.150,469.064 337.121 C 467.496 336.528,453.191 336.213,427.825 336.213 L 388.989 336.213 386.494 338.708 M180.053 353.059 C 176.383 354.484,101.106 407.710,98.571 410.672 C 92.984 417.199,91.322 427.109,94.308 436.098 C 96.421 442.459,103.549 449.590,110.332 452.128 C 120.951 456.101,132.956 453.857,140.747 446.441 C 146.733 440.744,198.057 373.244,199.427 369.266 C 201.453 363.388,198.430 356.613,192.534 353.815 C 189.701 352.471,182.665 352.044,180.053 353.059 M246.964 353.597 C 243.391 355.213,238.340 360.555,237.291 363.828 C 236.819 365.301,232.164 387.243,226.948 412.587 C 216.097 465.302,215.984 466.499,220.910 476.505 C 226.958 488.792,239.416 495.787,255.250 495.787 C 266.676 495.787,276.214 491.791,283.576 483.919 C 289.199 477.909,291.155 473.086,291.571 464.213 C 291.883 457.562,291.103 453.088,282.169 410.288 C 276.035 380.902,271.818 362.575,270.785 360.806 C 269.883 359.261,267.507 356.846,265.505 355.439 C 262.409 353.263,260.951 352.846,255.733 352.643 C 251.828 352.491,248.642 352.838,246.964 353.597 M318.704 354.240 C 317.300 355.237,315.429 357.011,314.546 358.181 C 312.590 360.775,311.802 366.781,312.977 370.150 C 313.654 372.092,356.697 429.527,368.891 444.760 C 376.878 454.736,391.762 457.528,404.231 451.390 C 413.905 446.627,418.994 438.011,418.978 426.421 C 418.968 418.478,416.539 413.028,410.789 408.048 C 406.401 404.247,343.405 360.127,335.410 355.256 C 329.599 351.715,322.837 351.304,318.704 354.240 " stroke="none" fill-rule="evenodd" fill="black"></path></svg>