<svg xmlns="http://www.w3.org/2000/svg" width="512" height="512" viewBox="0 0 512 512"><path d="M262.281 29.227 C 262.418 44.204,261.259 49.274,254.723 62.287 C 245.103 81.442,235.755 92.757,197.969 130.987 C 158.780 170.635,147.407 184.625,136.926 206.080 C 130.970 218.273,128.896 226.351,128.261 239.839 C 127.456 256.949,130.265 270.818,137.478 285.346 C 146.091 302.693,162.281 319.059,179.481 327.804 C 184.800 330.508,197.412 335.360,199.123 335.360 C 199.716 335.360,201.206 331.446,202.617 326.187 C 207.173 309.193,215.169 296.170,231.233 279.578 C 246.644 263.660,265.852 249.343,289.748 235.961 C 329.582 213.653,348.242 199.322,363.021 179.686 C 379.221 158.161,386.822 128.349,383.090 100.968 C 381.954 92.635,377.197 78.136,373.199 70.827 C 363.263 52.657,346.235 37.055,325.626 27.238 C 309.599 19.604,293.829 16.222,274.228 16.217 L 262.163 16.213 262.281 29.227 M160.283 62.080 C 160.003 74.882,159.868 75.782,157.444 81.048 C 156.044 84.089,150.905 91.961,146.025 98.542 C 131.332 118.352,127.374 128.868,128.223 145.837 C 128.655 154.469,130.966 166.400,132.206 166.400 C 132.528 166.400,134.688 163.808,137.007 160.640 C 145.097 149.587,156.313 137.391,172.604 121.930 C 205.985 90.253,217.757 77.412,224.738 65.058 L 227.757 59.716 222.892 57.263 C 210.927 51.229,196.674 48.652,175.222 48.645 L 160.577 48.640 160.283 62.080 M374.633 201.080 C 369.088 208.495,354.818 222.336,345.600 229.241 C 334.142 237.823,324.357 243.820,299.947 257.221 C 288.213 263.662,273.768 272.149,267.846 276.080 C 246.927 289.967,234.524 304.332,228.610 321.524 L 227.055 326.042 229.368 326.963 C 236.764 329.909,246.646 332.922,253.195 334.228 C 264.221 336.427,284.339 336.210,295.879 333.768 C 341.417 324.131,375.399 288.939,382.713 243.842 C 385.004 229.715,383.839 212.164,379.828 200.362 L 378.372 196.081 374.633 201.080 M32.902 338.110 C 31.862 339.594,31.573 342.458,31.573 351.281 C 31.573 364.722,32.177 366.933,35.849 366.933 C 40.379 366.933,125.717 352.406,126.885 351.436 C 128.337 350.231,128.411 338.672,126.976 337.237 C 126.205 336.466,114.623 336.213,80.091 336.213 L 34.230 336.213 32.902 338.110 M385.024 337.237 C 383.589 338.672,383.663 350.231,385.115 351.436 C 386.283 352.406,471.621 366.933,476.151 366.933 C 479.823 366.933,480.427 364.722,480.427 351.281 C 480.427 342.458,480.138 339.594,479.098 338.110 L 477.770 336.213 431.909 336.213 C 397.377 336.213,385.795 336.466,385.024 337.237 M136.525 383.787 C 98.303 409.332,90.841 414.640,90.641 416.427 C 90.441 418.204,94.015 422.168,112.057 440.183 C 129.969 458.068,134.066 461.756,135.763 461.516 C 137.417 461.283,143.716 452.395,168.320 415.582 C 185.099 390.477,198.827 369.191,198.827 368.280 C 198.827 366.109,185.997 353.280,183.827 353.280 C 182.916 353.280,161.630 367.008,136.525 383.787 M319.845 359.952 C 316.100 363.696,313.173 367.350,313.173 368.280 C 313.173 369.191,326.901 390.477,343.680 415.582 C 368.284 452.395,374.583 461.283,376.237 461.516 C 377.934 461.756,382.031 458.068,399.943 440.183 C 417.985 422.168,421.559 418.204,421.359 416.427 C 421.159 414.640,413.697 409.332,375.475 383.787 C 350.370 367.008,329.084 353.280,328.173 353.280 C 327.243 353.280,323.590 356.207,319.845 359.952 M240.322 362.027 C 239.184 363.831,214.162 488.220,214.179 491.989 C 214.183 492.951,214.647 494.199,215.211 494.763 C 216.685 496.237,295.315 496.237,296.789 494.763 C 297.353 494.199,297.813 492.818,297.813 491.694 C 297.813 487.607,272.899 363.893,271.700 362.027 C 270.501 360.160,270.069 360.107,256.000 360.107 C 241.925 360.107,241.500 360.159,240.322 362.027 " stroke="none" fill-rule="evenodd" fill="black"></path></svg>