<svg xmlns="http://www.w3.org/2000/svg" width="512" height="512" viewBox="0 0 512 512"><path d="M265.289 17.330 C 259.174 19.635,253.530 24.837,251.266 30.258 C 250.490 32.116,249.313 37.771,248.652 42.826 C 247.520 51.469,243.655 64.445,241.221 67.773 C 240.281 69.059,239.857 68.917,236.784 66.292 C 223.456 54.905,205.413 48.846,183.817 48.504 C 174.733 48.360,172.547 49.010,167.318 53.410 C 163.398 56.708,161.480 61.124,160.471 69.171 C 159.306 78.462,156.612 84.019,146.925 97.117 C 136.743 110.883,133.741 115.937,130.856 124.168 C 128.716 130.272,128.464 132.149,128.447 142.080 C 128.421 157.415,130.888 166.856,137.670 177.388 L 141.311 183.040 139.394 186.430 C 133.043 197.665,129.040 213.054,128.290 229.120 C 126.969 257.438,135.669 281.825,154.482 302.538 C 162.086 310.910,170.689 317.981,176.560 320.683 C 185.457 324.779,196.785 323.974,206.507 318.555 L 210.347 316.414 216.159 319.955 C 245.420 337.781,282.170 340.649,315.153 327.682 C 344.665 316.078,367.948 291.850,377.889 262.400 C 382.420 248.977,383.582 241.637,383.494 226.987 C 383.402 211.497,381.689 203.576,375.013 187.760 L 371.027 178.317 374.453 170.438 C 381.711 153.750,384.532 138.753,383.720 121.173 C 382.479 94.304,372.660 71.654,354.133 52.922 C 338.025 36.636,318.198 25.529,294.513 19.522 C 282.851 16.565,269.899 15.593,265.289 17.330 M294.293 52.638 C 316.018 59.834,335.537 75.573,344.289 92.953 C 349.997 104.286,351.147 109.736,351.144 125.440 C 351.142 136.208,350.791 140.792,349.650 144.926 C 347.563 152.488,343.414 161.652,339.347 167.680 C 334.449 174.942,321.822 187.180,312.320 193.875 C 304.570 199.336,299.211 202.489,265.391 221.485 C 224.665 244.360,206.707 260.619,189.573 290.130 C 188.965 291.176,188.156 290.804,185.082 288.061 C 173.281 277.531,164.296 262.830,161.728 249.849 C 159.135 236.744,160.525 218.342,164.904 207.787 C 170.852 193.450,179.964 181.823,202.561 159.737 C 244.864 118.390,251.655 111.095,261.577 96.337 C 270.362 83.272,277.974 65.019,279.633 53.042 L 280.147 49.338 283.966 49.910 C 286.066 50.225,290.713 51.453,294.293 52.638 M199.287 82.373 C 206.736 84.285,212.381 87.302,216.936 91.803 L 220.965 95.784 217.227 100.159 C 215.171 102.565,205.678 111.975,196.131 121.071 C 186.584 130.166,175.065 141.494,170.534 146.244 C 166.002 150.994,161.979 154.569,161.593 154.189 C 161.208 153.808,160.747 149.570,160.570 144.771 C 160.179 134.206,161.094 131.817,170.247 119.503 C 182.607 102.876,186.038 97.019,189.391 86.827 C 191.521 80.350,191.482 80.368,199.287 82.373 M350.295 214.049 C 352.307 222.455,351.698 239.077,349.039 248.287 C 340.085 279.302,311.002 301.840,277.760 303.526 C 266.584 304.093,258.653 303.000,247.790 299.398 C 239.685 296.711,229.517 291.383,228.902 289.501 C 228.409 287.992,241.483 275.184,249.839 268.990 C 259.581 261.768,269.125 255.956,293.973 242.115 C 317.885 228.797,330.841 220.552,340.907 212.251 C 344.661 209.154,347.972 206.883,348.264 207.203 C 348.556 207.524,349.470 210.605,350.295 214.049 M41.800 337.778 C 35.488 341.101,30.566 352.342,32.415 359.211 C 34.563 367.186,41.433 373.029,49.276 373.550 C 53.628 373.839,58.165 372.660,89.173 363.174 C 127.879 351.335,128.000 351.277,128.000 344.633 C 128.000 341.979,127.435 340.638,125.506 338.708 L 123.011 336.213 83.892 336.213 C 47.602 336.213,44.558 336.327,41.800 337.778 M386.494 338.708 C 383.147 342.055,383.091 346.266,386.347 349.899 C 388.445 352.241,392.305 353.644,422.827 363.158 C 445.310 370.167,458.312 373.809,460.922 373.829 C 465.956 373.867,469.925 372.203,474.366 368.191 C 483.569 359.877,480.980 343.016,469.603 337.171 C 468.304 336.504,455.796 336.213,428.364 336.213 L 388.989 336.213 386.494 338.708 M251.037 352.562 C 246.181 353.417,242.252 355.934,239.441 359.989 C 237.461 362.846,235.821 369.741,227.306 410.980 C 218.815 452.103,217.509 459.495,217.818 464.687 C 218.895 482.804,234.300 495.787,254.720 495.787 C 266.714 495.787,276.079 491.935,283.576 483.919 C 289.199 477.909,291.155 473.086,291.571 464.213 C 291.883 457.562,291.103 453.088,282.169 410.288 C 276.035 380.902,271.818 362.575,270.785 360.806 C 267.245 354.744,258.760 351.202,251.037 352.562 M180.053 353.042 C 176.447 354.396,101.199 407.601,98.607 410.629 C 92.984 417.199,91.315 427.086,94.308 436.098 C 96.421 442.459,103.549 449.590,110.332 452.128 C 120.951 456.101,132.955 453.857,140.747 446.441 C 146.669 440.805,198.071 373.202,199.427 369.266 C 201.266 363.930,199.075 358.083,193.926 354.584 C 191.429 352.888,189.745 352.441,186.042 352.494 C 183.452 352.531,180.757 352.778,180.053 353.042 M318.187 354.508 C 312.864 358.125,310.715 365.970,313.555 371.415 C 314.744 373.694,363.317 437.897,369.434 445.274 C 371.334 447.566,374.559 449.973,378.009 451.674 C 382.920 454.096,384.352 454.400,390.827 454.400 C 397.345 454.400,398.719 454.103,403.822 451.591 C 413.931 446.614,418.994 438.206,418.978 426.421 C 418.968 418.989,416.610 413.298,411.622 408.669 C 408.215 405.507,337.466 355.983,333.112 353.712 C 329.165 351.654,321.810 352.046,318.187 354.508 " stroke="none" fill-rule="evenodd" fill="black"></path></svg>