<svg xmlns="http://www.w3.org/2000/svg" width="512" height="512" viewBox="0 0 512 512"><path d="M42.006 48.736 C 32.372 50.340,23.603 57.073,19.036 66.374 L 16.640 71.253 16.640 223.147 L 16.640 375.040 18.699 380.160 C 21.547 387.243,29.289 394.951,36.267 397.649 C 41.040 399.496,43.119 399.674,66.987 400.287 C 93.504 400.968,107.203 401.871,125.440 404.140 C 170.191 409.706,204.841 422.804,228.969 443.274 C 234.557 448.014,236.856 448.883,238.763 446.976 C 240.374 445.365,240.237 104.276,238.623 100.415 C 235.334 92.542,210.326 76.605,187.733 67.984 C 158.037 56.653,121.592 50.628,70.827 48.659 C 46.541 47.717,48.152 47.712,42.006 48.736 M446.720 48.364 C 395.149 49.695,352.324 56.788,321.191 69.155 C 300.206 77.491,276.471 93.009,273.377 100.415 C 272.408 102.734,272.213 131.841,272.213 274.716 C 272.213 443.417,272.240 446.248,273.864 447.117 C 276.488 448.521,276.982 448.288,283.076 442.763 C 305.403 422.524,339.769 409.788,387.413 404.095 C 405.891 401.887,419.812 400.977,445.594 400.290 C 468.554 399.679,471.020 399.467,475.550 397.713 C 482.058 395.193,489.831 388.004,492.980 381.592 L 495.360 376.747 495.360 224.000 L 495.360 71.253 492.869 66.180 C 486.881 53.984,474.744 47.357,459.520 47.972 C 457.173 48.066,451.413 48.243,446.720 48.364 " stroke="none" fill-rule="evenodd" fill="black"></path></svg>