<svg xmlns="http://www.w3.org/2000/svg" width="512" height="512" viewBox="0 0 512 512"><path d="M16.213 223.862 L 16.213 400.213 36.907 400.216 C 77.108 400.223,119.362 402.552,145.257 406.188 C 183.397 411.545,208.739 421.845,232.608 441.689 L 239.360 447.303 239.575 281.207 C 239.810 100.420,240.013 108.662,235.085 98.777 C 228.452 85.472,206.706 72.993,173.227 63.279 C 138.738 53.272,104.389 49.144,46.720 48.075 L 16.213 47.510 16.213 223.862 M446.720 48.368 C 397.847 49.653,353.198 57.035,321.280 69.106 C 295.692 78.782,282.477 87.621,276.915 98.777 C 271.987 108.662,272.190 100.420,272.425 281.207 L 272.640 447.303 279.392 441.689 C 303.261 421.845,328.603 411.545,366.743 406.188 C 392.638 402.552,434.892 400.223,475.093 400.216 L 495.787 400.213 495.787 224.000 L 495.787 47.787 475.520 47.965 C 464.373 48.063,451.413 48.245,446.720 48.368 " stroke="none" fill-rule="evenodd" fill="black"></path></svg>