<svg xmlns="http://www.w3.org/2000/svg" width="512" height="512" viewBox="0 0 512 512"><path d="M42.006 48.724 C 34.044 50.071,27.648 54.211,21.902 61.739 C 15.819 69.707,16.212 58.527,16.223 223.278 C 16.234 379.909,16.132 375.568,19.993 383.031 C 21.991 386.893,27.855 393.164,31.805 395.662 C 37.416 399.212,43.296 400.029,66.987 400.553 C 126.775 401.874,168.429 409.082,198.761 423.355 C 213.564 430.321,223.432 437.434,236.133 450.296 C 254.680 469.077,257.320 469.077,275.867 450.296 C 292.430 433.524,308.813 423.419,331.476 415.995 C 361.331 406.215,406.893 400.292,452.750 400.230 C 466.441 400.211,473.141 399.212,478.686 396.363 C 483.189 394.050,488.323 389.235,491.284 384.549 C 496.002 377.082,495.767 385.439,495.777 224.131 C 495.788 58.433,496.182 69.709,490.098 61.739 C 484.118 53.905,478.011 50.094,469.171 48.682 C 463.287 47.742,428.684 48.729,411.137 50.337 C 357.052 55.293,319.082 66.245,290.560 85.114 C 281.097 91.375,263.243 108.483,258.942 115.412 C 257.559 117.640,256.235 119.464,256.000 119.464 C 255.765 119.464,254.441 117.640,253.058 115.412 C 248.757 108.483,230.903 91.375,221.440 85.114 C 186.255 61.837,135.870 50.287,61.013 48.340 C 53.035 48.133,44.482 48.305,42.006 48.724 M81.493 81.081 C 147.543 84.956,189.158 97.359,214.986 120.867 C 222.005 127.255,229.541 137.420,233.834 146.288 C 240.260 159.565,239.767 147.976,239.777 286.064 L 239.787 410.422 232.029 405.328 C 201.534 385.304,160.026 374.179,99.840 369.898 C 90.219 369.214,77.509 368.651,71.595 368.647 C 65.682 368.643,57.906 368.392,54.315 368.088 L 47.787 367.536 47.787 223.875 L 47.787 80.213 57.387 80.222 C 62.667 80.226,73.515 80.613,81.493 81.081 M464.213 223.875 L 464.213 367.536 457.685 368.088 C 454.094 368.392,446.318 368.646,440.405 368.653 C 416.468 368.683,383.038 371.833,357.973 376.422 C 327.138 382.068,300.077 392.078,280.107 405.225 L 272.213 410.422 272.223 286.064 C 272.233 147.976,271.740 159.565,278.166 146.288 C 293.783 114.024,328.207 94.419,384.329 85.825 C 407.081 82.341,428.797 80.582,452.053 80.340 L 464.213 80.213 464.213 223.875 " stroke="none" fill-rule="evenodd" fill="black"></path></svg>