<svg xmlns="http://www.w3.org/2000/svg" width="512" height="512" viewBox="0 0 512 512"><path d="M111.787 23.893 L 111.787 47.787 263.678 47.787 L 415.569 47.787 415.785 231.893 L 416.000 416.000 438.613 431.196 C 451.051 439.554,461.899 446.768,462.720 447.226 C 464.141 448.019,464.213 437.141,464.213 224.030 L 464.213 0.000 288.000 0.000 L 111.787 0.000 111.787 23.893 M47.787 296.155 C 47.787 506.003,47.831 512.065,49.363 510.982 C 50.231 510.368,87.896 482.603,133.064 449.280 C 178.232 415.957,215.634 388.732,216.180 388.779 C 216.726 388.826,251.925 414.518,294.400 445.872 C 336.875 477.227,374.411 504.935,377.813 507.446 L 384.000 512.012 384.000 296.113 L 384.000 80.213 215.893 80.213 L 47.787 80.213 47.787 296.155 " stroke="none" fill="black" fill-rule="evenodd"></path></svg>