<svg xmlns="http://www.w3.org/2000/svg" width="512" height="512" viewBox="0 0 512 512"><path d="M144.213 34.166 C 126.184 38.803,111.112 51.085,102.892 67.840 C 95.329 83.257,96.000 62.808,96.000 277.760 C 96.000 455.205,96.098 468.232,97.450 470.700 C 99.553 474.539,104.426 478.511,108.323 479.560 C 113.039 480.830,118.462 479.308,123.042 475.431 C 125.063 473.720,155.804 446.473,191.355 414.883 L 255.993 357.446 322.987 417.016 C 359.834 449.780,391.336 477.303,392.993 478.178 C 396.684 480.130,403.251 480.253,406.765 478.435 C 410.070 476.727,414.507 471.682,415.348 468.678 C 415.706 467.396,416.000 380.907,416.000 276.480 L 416.000 86.613 413.604 78.933 C 406.450 55.998,389.661 39.702,367.437 34.122 C 360.879 32.475,357.693 32.428,255.650 32.474 C 154.774 32.519,150.360 32.586,144.213 34.166 " stroke="none" fill-rule="evenodd" fill="black"></path></svg>