<svg xmlns="http://www.w3.org/2000/svg" width="512" height="512" viewBox="0 0 512 512"><path d="M164.267 1.250 C 151.127 3.698,140.579 9.421,130.466 19.588 C 124.382 25.705,122.442 28.360,119.178 35.034 C 117.011 39.467,114.998 44.138,114.706 45.414 L 114.175 47.735 233.514 48.001 C 352.576 48.267,352.869 48.272,359.680 50.104 C 381.978 56.104,398.660 69.767,408.423 90.027 C 415.800 105.334,415.118 87.953,415.371 267.237 L 415.595 426.528 427.440 435.989 C 433.954 441.193,440.657 446.024,442.335 446.725 C 450.737 450.236,460.930 445.077,463.350 436.089 C 463.958 433.834,464.162 372.648,463.994 243.061 C 463.718 28.902,464.481 50.813,456.747 34.987 C 453.397 28.133,451.591 25.688,445.059 19.167 C 438.611 12.729,435.993 10.789,429.227 7.431 C 413.885 -0.181,426.324 0.460,290.560 0.288 C 194.733 0.168,169.024 0.363,164.267 1.250 M100.267 81.125 C 76.894 85.122,57.181 103.459,50.140 127.751 L 48.213 134.400 48.213 317.440 C 48.213 498.946,48.228 500.504,49.920 503.376 C 52.833 508.319,57.404 511.381,62.501 511.804 C 65.188 512.027,68.100 511.712,69.748 511.022 C 71.264 510.386,104.770 482.674,144.207 449.439 L 215.912 389.010 217.856 390.559 C 218.925 391.410,251.007 418.411,289.148 450.560 C 327.289 482.709,359.914 509.675,361.648 510.484 C 365.253 512.167,369.995 512.412,373.491 511.096 C 377.313 509.658,382.020 504.514,383.091 500.604 C 383.805 498.000,383.992 449.010,383.800 314.880 C 383.552 142.151,383.459 132.428,381.999 127.573 C 375.492 105.944,359.798 89.787,338.347 82.632 L 332.373 80.640 218.453 80.517 C 155.797 80.450,102.613 80.723,100.267 81.125 " stroke="none" fill-rule="evenodd" fill="black"></path></svg>