<svg xmlns="http://www.w3.org/2000/svg" width="512" height="512" viewBox="0 0 512 512"><path d="M167.680 0.524 C 166.741 0.714,163.861 1.293,161.280 1.810 C 150.460 3.976,138.726 10.728,130.016 19.798 C 117.092 33.257,111.880 47.529,111.816 69.635 L 111.787 79.963 105.478 80.496 C 90.843 81.733,78.443 87.792,66.921 99.334 C 56.262 110.013,50.944 120.138,48.686 134.058 C 48.093 137.710,47.797 199.064,47.793 319.179 L 47.787 498.838 49.707 502.596 C 53.844 510.694,62.333 513.992,70.046 510.498 C 72.268 509.491,102.962 484.221,144.864 448.902 L 215.915 389.013 217.858 390.560 C 218.926 391.411,251.007 418.411,289.148 450.560 C 327.289 482.709,359.914 509.675,361.648 510.484 C 367.647 513.284,373.761 512.207,378.768 507.468 C 384.151 502.374,384.000 504.014,384.000 450.587 C 384.000 423.820,384.193 401.920,384.428 401.920 C 384.664 401.920,397.315 411.883,412.543 424.059 C 431.175 438.957,441.334 446.529,443.604 447.209 C 451.070 449.446,459.269 445.578,462.598 438.247 C 464.118 434.901,464.175 427.850,464.165 247.040 C 464.156 93.770,463.944 58.128,463.008 52.888 C 458.701 28.750,441.089 9.448,416.522 1.942 C 412.105 0.592,402.319 0.467,290.560 0.328 C 223.915 0.246,168.619 0.334,167.680 0.524 M414.053 35.658 C 420.659 38.910,425.829 44.239,429.133 51.200 L 431.360 55.893 431.582 227.216 L 431.803 398.538 407.962 379.536 L 384.121 360.533 383.847 246.187 L 383.573 131.840 381.555 125.867 C 375.521 108.004,363.894 94.500,347.733 86.583 C 334.232 79.969,338.529 80.213,235.476 80.213 L 144.053 80.213 144.352 68.053 C 144.621 57.101,144.870 55.423,146.865 51.161 C 150.703 42.958,155.971 37.990,164.602 34.431 L 169.387 32.458 288.871 32.656 L 408.356 32.853 414.053 35.658 M325.002 112.680 C 335.307 114.353,344.122 120.949,348.812 130.499 L 351.147 135.253 351.367 298.137 C 351.575 452.738,351.511 460.960,350.103 459.843 C 349.287 459.196,320.965 435.398,287.163 406.959 C 253.362 378.520,224.478 354.616,222.976 353.839 C 219.110 351.840,211.907 352.002,208.354 354.168 C 206.789 355.123,177.797 379.238,143.927 407.757 C 110.058 436.277,81.863 459.904,81.271 460.261 C 80.408 460.783,80.240 428.952,80.418 298.509 L 80.640 136.107 83.093 130.797 C 87.475 121.310,96.965 114.113,107.046 112.633 C 113.984 111.614,318.706 111.659,325.002 112.680 " stroke="none" fill-rule="evenodd" fill="black"></path></svg>