<svg xmlns="http://www.w3.org/2000/svg" width="512" height="512" viewBox="0 0 512 512"><path d="M145.228 33.732 C 125.305 38.057,105.999 55.479,99.568 74.936 C 98.309 78.747,96.881 85.621,96.394 90.212 C 95.803 95.786,95.590 159.955,95.754 283.307 C 95.960 437.931,96.191 468.401,97.171 470.187 C 98.905 473.346,102.493 476.991,105.321 478.468 C 108.747 480.256,115.341 480.117,119.007 478.178 C 120.664 477.303,152.164 449.781,189.009 417.019 L 256.000 357.452 322.991 417.019 C 359.836 449.781,391.336 477.303,392.993 478.178 C 396.659 480.117,403.253 480.256,406.679 478.468 C 409.507 476.991,413.095 473.346,414.829 470.187 C 415.809 468.401,416.040 437.931,416.246 283.307 C 416.410 159.955,416.197 95.786,415.606 90.212 C 415.119 85.621,413.691 78.747,412.432 74.936 C 405.933 55.273,386.629 37.985,366.382 33.696 C 357.943 31.908,153.476 31.941,145.228 33.732 M364.800 66.815 C 371.520 69.949,378.120 76.521,381.166 83.111 L 383.573 88.320 383.799 258.365 L 384.025 428.410 324.919 375.810 C 291.846 346.377,264.310 322.511,262.400 321.623 C 260.523 320.751,257.643 320.037,256.000 320.037 C 254.357 320.037,251.477 320.751,249.600 321.623 C 247.690 322.511,220.154 346.377,187.081 375.810 L 127.975 428.410 128.201 258.365 L 128.427 88.320 130.816 83.200 C 135.041 74.145,144.108 66.672,153.050 64.877 C 154.995 64.486,202.283 64.225,258.133 64.297 L 359.680 64.427 364.800 66.815 " stroke="none" fill-rule="evenodd" fill="black"></path></svg>