<svg id="icons" xmlns="http://www.w3.org/2000/svg" viewBox="0 0 512 512"><path d="M235.947 32.121 C 215.118 34.495,202.444 37.042,187.123 41.933 C 153.186 52.767,122.302 71.615,96.959 96.959 C 45.131 148.786,22.286 221.012,34.642 293.973 C 42.175 338.453,64.482 381.147,97.285 413.867 C 143.943 460.406,203.705 483.495,269.227 480.296 C 342.739 476.707,410.943 435.346,449.266 371.115 C 476.276 325.844,486.420 271.351,477.526 219.307 C 466.372 154.047,427.068 97.137,369.379 62.717 C 342.461 46.656,311.652 36.352,279.893 32.788 C 270.499 31.733,243.006 31.316,235.947 32.121 M303.456 105.367 C 308.901 106.985,314.333 111.653,317.239 117.216 C 319.132 120.837,319.530 122.713,319.530 128.000 C 319.530 133.287,319.132 135.163,317.239 138.784 C 312.618 147.628,303.899 152.478,294.045 151.687 C 287.827 151.188,283.168 148.974,278.921 144.499 C 273.742 139.043,272.654 136.177,272.658 128.000 C 272.661 119.329,274.290 115.566,280.348 110.234 C 286.955 104.418,294.738 102.779,303.456 105.367 M371.465 147.060 C 383.078 153.866,387.148 167.777,380.891 179.274 C 371.711 196.140,348.877 196.177,338.981 179.342 C 336.922 175.840,336.641 174.486,336.647 168.107 C 336.656 159.931,337.749 157.055,342.921 151.610 C 348.360 145.883,352.914 144.148,361.510 144.529 C 366.240 144.738,368.471 145.305,371.465 147.060 M298.667 178.800 C 307.027 183.056,311.429 190.404,311.429 200.107 C 311.429 226.018,276.604 233.121,266.091 209.354 C 262.275 200.729,264.784 189.159,271.890 182.609 C 279.437 175.652,289.634 174.201,298.667 178.800 " stroke="none" fill-rule="evenodd" fill="black"></path></svg>