<svg id="icons" xmlns="http://www.w3.org/2000/svg" viewBox="0 0 512 512"><path d="M235.947 32.121 C 215.118 34.495,202.444 37.042,187.123 41.933 C 153.186 52.767,122.302 71.615,96.959 96.959 C 45.131 148.786,22.286 221.012,34.642 293.973 C 42.175 338.453,64.482 381.147,97.285 413.867 C 143.943 460.406,203.705 483.495,269.227 480.296 C 342.739 476.707,410.943 435.346,449.266 371.115 C 476.276 325.844,486.420 271.351,477.526 219.307 C 466.372 154.047,427.068 97.137,369.379 62.717 C 342.461 46.656,311.652 36.352,279.893 32.788 C 270.499 31.733,243.006 31.316,235.947 32.121 M307.282 101.679 C 316.604 106.778,321.707 115.377,321.707 125.987 C 321.707 136.199,316.202 145.644,307.503 150.355 C 288.738 160.518,266.134 147.191,266.275 126.048 C 266.386 109.614,278.949 97.660,295.335 98.398 C 300.820 98.644,302.658 99.149,307.282 101.679 M375.312 145.484 C 380.621 148.382,383.963 151.942,387.167 158.112 C 389.147 161.924,389.478 163.597,389.482 169.813 C 389.487 178.576,387.737 183.076,381.896 189.320 C 376.263 195.342,370.938 197.513,361.813 197.508 C 353.687 197.504,349.349 195.922,343.323 190.765 C 337.878 186.104,335.097 180.025,334.668 171.844 C 334.144 161.867,335.865 157.210,342.538 150.539 C 349.241 143.838,352.869 142.468,363.093 142.775 C 369.707 142.974,371.404 143.350,375.312 145.484 M297.110 176.426 C 302.700 178.904,308.456 184.508,311.225 190.169 C 313.194 194.193,313.580 196.097,313.589 201.825 C 313.599 207.871,313.268 209.346,310.755 214.452 C 304.523 227.116,290.146 232.925,276.480 228.300 C 269.964 226.095,262.004 218.156,259.876 211.739 C 254.775 196.365,262.681 180.150,277.672 175.239 C 282.545 173.643,292.157 174.229,297.110 176.426 " stroke="none" fill-rule="evenodd" fill="black"></path></svg>