<svg id="icons" xmlns="http://www.w3.org/2000/svg" viewBox="0 0 512 512"><path d="M231.253 33.392 C 214.898 35.057,192.680 40.401,176.511 46.559 C 156.296 54.258,131.841 68.384,114.508 82.373 C 92.069 100.483,71.148 126.126,57.570 152.164 C 42.512 181.038,34.416 210.416,32.447 243.324 C 27.225 330.584,74.485 413.921,152.164 454.430 C 231.416 495.759,326.910 486.355,396.524 430.364 C 473.098 368.774,500.486 263.737,463.793 172.373 C 435.769 102.595,373.381 50.947,299.520 36.379 C 293.653 35.221,284.659 33.859,279.532 33.351 C 268.795 32.286,241.887 32.309,231.253 33.392 M284.160 66.158 C 338.845 74.413,386.638 105.196,417.272 151.893 C 423.753 161.774,433.129 180.887,437.154 192.427 C 444.542 213.607,447.503 231.793,447.503 256.000 C 447.503 287.858,442.031 311.912,428.384 340.053 C 399.770 399.055,343.207 439.048,277.505 446.733 C 227.482 452.585,175.644 437.575,135.888 405.728 C 103.623 379.883,79.403 341.962,69.686 302.080 C 65.721 285.806,64.497 274.937,64.497 256.000 C 64.497 224.142,69.969 200.088,83.616 171.947 C 106.052 125.685,146.714 90.037,195.413 73.938 C 210.456 68.965,222.551 66.514,241.920 64.514 C 248.788 63.805,275.445 64.843,284.160 66.158 M287.850 105.504 C 283.283 107.122,276.937 112.708,274.535 117.224 C 273.029 120.054,272.660 122.173,272.658 128.000 C 272.654 136.177,273.742 139.043,278.921 144.499 C 283.168 148.974,287.827 151.188,294.045 151.687 C 301.704 152.302,307.289 150.209,312.862 144.636 C 322.459 135.039,322.433 120.936,312.802 111.304 C 306.077 104.579,296.647 102.387,287.850 105.504 M353.274 144.960 C 346.435 147.203,340.026 153.250,337.511 159.834 C 335.538 165.000,336.050 173.869,338.610 178.883 C 340.978 183.521,347.279 188.979,352.199 190.656 C 367.792 195.969,384.000 184.257,384.000 167.677 C 384.000 159.685,379.014 151.484,371.465 147.060 C 368.471 145.305,366.240 144.738,361.510 144.529 C 358.157 144.380,354.451 144.574,353.274 144.960 M283.307 176.596 C 278.251 177.717,275.788 179.016,271.869 182.629 C 266.641 187.448,264.264 192.742,264.215 199.680 C 264.028 225.688,299.132 233.228,309.906 209.493 C 312.255 204.319,312.426 195.811,310.279 190.914 C 305.871 180.859,293.559 174.323,283.307 176.596 " stroke="none" fill="black" fill-rule="evenodd"></path></svg>