<svg xmlns="http://www.w3.org/2000/svg" width="512" height="512" viewBox="0 0 512 512"><path d="M168.918 48.676 C 158.270 50.279,147.568 56.122,140.257 64.325 C 131.276 74.402,128.000 84.248,128.000 101.165 L 128.000 111.603 99.200 111.999 C 66.287 112.452,62.372 113.066,50.217 119.684 C 34.922 128.011,24.526 140.304,19.011 156.587 L 16.698 163.413 16.398 193.920 L 16.098 224.427 256.000 224.427 L 495.902 224.427 495.602 193.920 L 495.302 163.413 492.989 156.587 C 487.474 140.304,477.078 128.011,461.783 119.684 C 449.628 113.066,445.713 112.452,412.800 111.999 L 384.000 111.603 384.000 101.165 C 384.000 83.887,380.624 74.055,371.143 63.726 C 365.693 57.787,358.080 52.918,349.867 50.116 L 344.320 48.224 258.987 48.094 C 212.053 48.022,171.522 48.284,168.918 48.676 M343.025 81.912 C 344.856 82.846,347.433 85.023,348.751 86.749 C 351.044 89.753,351.159 90.356,351.428 100.837 L 351.709 111.787 256.068 111.787 L 160.427 111.787 160.427 101.946 C 160.427 91.347,161.298 87.927,164.797 84.797 C 170.138 80.018,164.806 80.285,255.821 80.247 C 337.916 80.214,339.765 80.249,343.025 81.912 M16.401 334.293 L 16.640 412.587 18.873 419.129 C 26.126 440.374,42.101 455.584,63.751 461.860 L 70.400 463.787 256.000 463.787 L 441.600 463.787 448.249 461.860 C 469.899 455.584,485.874 440.374,493.127 419.129 L 495.360 412.587 495.599 334.293 L 495.838 256.000 416.983 256.000 C 354.918 256.000,337.950 256.227,337.287 257.067 C 336.825 257.653,336.197 260.939,335.892 264.369 C 334.946 275.035,329.395 282.895,320.344 286.386 C 316.382 287.914,312.964 288.000,256.000 288.000 C 199.036 288.000,195.618 287.914,191.656 286.386 C 182.605 282.895,177.054 275.035,176.108 264.369 C 175.803 260.939,175.175 257.653,174.713 257.067 C 174.050 256.227,157.082 256.000,95.017 256.000 L 16.162 256.000 16.401 334.293 " stroke="none" fill-rule="evenodd" fill="black"></path></svg>