<svg xmlns="http://www.w3.org/2000/svg" width="512" height="512" viewBox="0 0 512 512"><path d="M132.474 49.062 C 130.928 49.733,129.318 51.259,128.847 52.497 C 128.348 53.809,128.000 66.437,128.000 83.230 L 128.000 111.736 76.122 111.975 C 18.449 112.240,21.606 111.912,17.882 118.020 C 16.283 120.643,16.220 122.708,16.217 172.587 L 16.213 224.427 256.000 224.427 L 495.787 224.427 495.783 172.587 C 495.780 122.708,495.717 120.643,494.118 118.020 C 490.394 111.912,493.551 112.240,435.878 111.975 L 384.000 111.736 384.000 83.230 C 384.000 66.413,383.652 53.810,383.152 52.494 C 381.279 47.568,387.167 47.784,255.814 47.820 C 153.767 47.848,134.826 48.039,132.474 49.062 M343.893 99.840 L 343.893 111.787 256.000 111.787 L 168.107 111.787 168.107 99.840 L 168.107 87.893 256.000 87.893 L 343.893 87.893 343.893 99.840 M16.213 355.714 L 16.213 455.428 18.150 458.327 C 19.216 459.922,21.424 461.898,23.057 462.719 C 25.862 464.128,38.757 464.211,256.000 464.211 C 473.243 464.211,486.138 464.128,488.943 462.719 C 490.576 461.898,492.784 459.922,493.850 458.327 L 495.787 455.428 495.787 355.714 L 495.787 256.000 416.019 256.000 L 336.251 256.000 336.019 272.000 L 335.787 288.000 256.000 288.000 L 176.213 288.000 175.981 272.000 L 175.749 256.000 95.981 256.000 L 16.213 256.000 16.213 355.714 " stroke="none" fill-rule="evenodd" fill="black"></path></svg>