<svg xmlns="http://www.w3.org/2000/svg" width="512" height="512" viewBox="0 0 512 512"><path d="M168.524 48.657 C 153.838 50.628,139.445 61.369,132.776 75.336 C 129.070 83.098,128.000 89.004,128.000 101.703 L 128.000 111.787 104.320 111.801 C 77.710 111.818,67.566 112.614,59.268 115.339 C 44.219 120.279,30.033 132.936,22.602 148.053 C 15.835 161.819,16.213 153.538,16.213 288.000 C 16.213 422.457,15.836 414.177,22.599 427.947 C 30.754 444.547,46.107 457.266,64.000 462.244 C 69.273 463.710,78.754 463.787,256.000 463.787 C 433.246 463.787,442.727 463.710,448.000 462.244 C 465.922 457.258,481.333 444.478,489.355 427.947 C 496.194 413.855,495.787 422.719,495.787 288.101 C 495.787 153.526,496.165 161.820,489.398 148.053 C 481.967 132.936,467.781 120.279,452.732 115.339 C 444.434 112.614,434.290 111.818,407.680 111.801 L 384.000 111.787 384.000 101.703 C 384.000 96.158,383.587 89.342,383.082 86.557 C 380.239 70.873,366.622 55.543,350.720 50.123 L 345.173 48.232 259.413 48.100 C 212.245 48.028,171.345 48.278,168.524 48.657 M345.308 83.261 C 350.651 87.531,351.570 90.247,351.572 101.760 L 351.573 111.787 256.000 111.787 L 160.427 111.787 160.427 101.946 C 160.427 91.359,161.288 87.971,164.797 84.750 C 170.042 79.936,164.580 80.192,256.988 80.425 L 342.029 80.640 345.308 83.261 M440.076 145.202 C 449.230 147.507,458.195 155.424,461.691 164.288 C 463.651 169.258,463.703 170.073,463.744 196.693 L 463.787 224.000 256.000 224.000 L 48.213 224.000 48.245 196.693 C 48.276 170.011,48.323 169.270,50.298 164.288 C 53.726 155.642,62.201 147.991,71.253 145.369 C 76.165 143.947,434.447 143.784,440.076 145.202 M175.997 263.235 C 176.692 274.360,181.540 281.914,190.628 286.027 L 194.987 288.000 256.000 288.000 L 317.013 288.000 321.280 286.034 C 331.140 281.491,336.213 272.899,336.213 260.742 L 336.213 256.000 400.213 256.000 L 464.213 256.000 464.196 327.467 C 464.187 366.773,463.832 401.330,463.409 404.260 C 461.590 416.833,453.043 427.000,441.296 430.566 C 435.358 432.368,76.642 432.368,70.704 430.566 C 59.162 427.063,50.632 417.097,48.610 404.754 C 48.140 401.886,47.794 369.406,47.792 327.893 L 47.787 256.000 111.666 256.000 L 175.546 256.000 175.997 263.235 " stroke="none" fill-rule="evenodd" fill="black"></path></svg>