<svg xmlns="http://www.w3.org/2000/svg" width="512" height="512" viewBox="0 0 512 512"><path d="M87.731 48.666 C 79.725 49.614,73.020 51.685,66.560 55.204 C 52.349 62.944,40.934 75.782,35.976 89.600 C 31.830 101.158,32.000 94.025,32.000 256.000 C 32.000 417.975,31.830 410.842,35.976 422.400 C 42.551 440.724,59.372 456.147,78.972 461.821 L 85.760 463.787 256.000 463.787 L 426.240 463.787 433.028 461.821 C 454.494 455.606,470.820 439.449,477.604 417.707 L 480.000 410.027 480.000 256.000 L 480.000 101.973 477.604 94.293 C 476.286 90.069,474.027 84.501,472.584 81.920 C 464.024 66.612,449.249 54.749,433.001 50.142 L 426.240 48.224 259.840 48.107 C 168.320 48.043,90.871 48.295,87.731 48.666 M428.990 147.520 C 435.596 151.102,442.255 158.037,445.273 164.478 L 447.573 169.387 447.573 288.427 L 447.573 407.467 444.944 413.016 C 441.711 419.837,435.502 426.214,429.229 429.157 L 424.533 431.360 256.000 431.360 L 87.467 431.360 82.771 429.157 C 76.498 426.214,70.289 419.837,67.056 413.016 L 64.427 407.467 64.427 288.427 L 64.427 169.387 66.714 164.507 C 70.643 156.125,78.994 148.542,87.760 145.398 C 90.300 144.487,121.826 144.313,257.280 144.460 L 423.680 144.640 428.990 147.520 " stroke="none" fill-rule="evenodd" fill="black"></path></svg>