<svg xmlns="http://www.w3.org/2000/svg" width="512" height="512" viewBox="0 0 512 512"><path d="M44.679 48.596 C 40.273 49.654,36.331 52.596,34.101 56.491 L 32.000 60.160 32.000 256.067 L 32.000 451.974 34.560 456.096 C 36.153 458.662,38.409 460.893,40.533 462.003 L 43.947 463.787 256.000 463.787 L 468.053 463.787 471.467 462.003 C 473.591 460.893,475.847 458.662,477.440 456.096 L 480.000 451.974 480.000 256.067 L 480.000 60.160 477.737 56.311 C 476.343 53.940,474.049 51.646,471.764 50.337 L 468.053 48.213 257.707 48.083 C 142.016 48.011,46.154 48.242,44.679 48.596 M443.215 149.830 C 444.100 152.135,443.787 425.260,442.898 426.667 C 442.183 427.798,420.484 427.947,256.000 427.947 C 91.516 427.947,69.817 427.798,69.102 426.667 C 68.213 425.260,67.900 152.135,68.785 149.830 C 69.255 148.605,86.544 148.480,256.000 148.480 C 425.456 148.480,442.745 148.605,443.215 149.830 " stroke="none" fill-rule="evenodd" fill="black"></path></svg>