<svg xmlns="http://www.w3.org/2000/svg" width="512" height="512" viewBox="0 0 512 512"><path d="M88.585 48.666 C 80.590 49.613,74.007 51.665,66.560 55.531 C 50.055 64.099,38.803 78.305,33.830 96.853 L 32.000 103.680 32.000 255.573 C 32.000 426.077,31.527 413.240,38.321 427.218 C 48.001 447.135,65.197 459.879,87.040 463.325 C 94.697 464.533,417.303 464.533,424.960 463.325 C 446.803 459.879,463.999 447.135,473.679 427.218 C 480.472 413.242,480.000 426.024,480.000 256.000 C 480.000 84.817,480.545 98.493,473.141 83.787 C 464.611 66.844,450.619 55.406,431.902 50.079 L 425.387 48.224 259.840 48.107 C 168.789 48.043,91.724 48.294,88.585 48.666 M429.412 83.035 C 436.127 86.332,441.594 91.912,444.855 98.795 C 447.565 104.516,447.574 104.582,447.867 120.588 C 448.192 138.280,447.702 140.881,443.656 142.974 C 440.035 144.846,71.965 144.846,68.344 142.974 C 64.298 140.881,63.808 138.280,64.133 120.588 C 64.426 104.582,64.435 104.516,67.145 98.795 C 71.336 89.947,79.407 83.139,88.220 81.018 C 89.683 80.666,165.952 80.436,257.707 80.509 L 424.533 80.640 429.412 83.035 " stroke="none" fill-rule="evenodd" fill="black"></path></svg>