<svg xmlns="http://www.w3.org/2000/svg" width="512" height="512" viewBox="0 0 512 512"><path d="M409.600 33.744 C 402.962 35.583,394.576 39.648,389.478 43.497 C 384.627 47.159,171.944 283.553,169.636 287.848 C 167.526 291.774,167.714 298.350,170.054 302.481 C 172.425 306.669,176.160 309.254,182.464 311.074 C 190.073 313.270,197.030 317.387,203.516 323.534 C 210.719 330.360,215.233 337.683,217.209 345.748 C 218.329 350.316,219.410 352.505,221.765 354.975 C 227.511 360.999,236.484 361.655,242.729 356.507 C 245.383 354.320,434.275 158.963,462.287 129.436 C 468.742 122.631,470.856 119.695,473.938 113.255 C 478.687 103.328,479.925 98.066,479.902 87.893 C 479.850 64.334,465.159 43.772,442.233 35.172 C 437.393 33.356,434.719 32.968,425.387 32.728 C 417.322 32.521,413.012 32.799,409.600 33.744 M128.109 320.866 C 112.632 323.030,98.478 330.588,86.879 342.883 C 76.049 354.364,69.803 368.630,68.248 385.432 C 67.778 390.511,66.992 396.131,66.500 397.920 C 64.608 404.805,56.929 410.345,47.380 411.714 C 39.093 412.902,34.579 416.569,32.388 423.893 C 30.264 430.995,33.774 437.360,46.663 449.773 C 62.132 464.671,82.571 475.003,104.107 478.813 C 112.580 480.311,129.435 480.124,136.989 478.447 C 164.559 472.326,186.224 455.420,198.423 430.507 C 214.388 397.902,209.951 363.541,186.815 340.619 C 177.922 331.808,165.612 324.815,154.310 322.153 C 147.317 320.506,135.007 319.901,128.109 320.866 " stroke="none" fill-rule="evenodd" fill="black"></path></svg>