<svg xmlns="http://www.w3.org/2000/svg" width="512" height="512" viewBox="0 0 512 512"><path d="M294.202 161.770 C 227.431 232.908,172.704 291.374,172.586 291.693 C 172.468 292.012,186.701 306.599,204.215 324.108 L 236.059 355.944 357.603 226.463 C 424.452 155.249,479.290 96.619,479.466 96.174 C 479.791 95.349,417.377 32.427,416.233 32.427 C 415.887 32.427,360.973 90.631,294.202 161.770 M130.133 321.259 C 116.836 323.717,106.469 329.392,95.958 339.965 C 89.258 346.705,87.657 348.919,83.862 356.693 C 78.648 367.376,76.925 374.013,75.925 387.280 C 75.237 396.390,74.900 397.750,71.765 404.037 C 69.888 407.801,66.574 412.897,64.401 415.363 C 57.001 423.757,45.426 431.294,36.501 433.529 C 31.585 434.760,31.585 434.760,40.506 444.347 C 58.910 464.126,84.985 477.021,111.717 479.565 C 158.217 483.989,199.691 450.285,206.942 402.179 C 208.542 391.563,208.537 386.079,206.917 376.788 C 200.344 339.097,166.405 314.552,130.133 321.259 " stroke="none" fill-rule="evenodd" fill="black"></path></svg>