<svg xmlns="http://www.w3.org/2000/svg" width="512" height="512" viewBox="0 0 512 512"><path d="M416.000 32.366 C 408.000 33.340,399.681 36.524,392.616 41.316 C 386.874 45.211,373.871 59.352,278.757 165.150 C 217.371 233.432,170.688 286.049,169.763 288.000 C 167.712 292.324,167.701 297.265,169.733 301.738 C 171.679 306.023,175.218 308.643,181.847 310.706 C 191.094 313.584,196.119 316.555,203.397 323.444 C 210.972 330.614,214.980 336.854,216.808 344.320 C 218.403 350.837,220.713 354.764,224.383 357.192 C 230.253 361.077,238.204 360.730,243.112 356.375 C 244.760 354.912,435.201 157.775,462.512 129.260 C 473.846 117.426,478.987 106.489,480.115 91.809 C 480.834 82.456,478.833 72.623,474.290 63.179 C 469.382 52.977,459.177 42.797,448.853 37.803 C 438.433 32.764,427.542 30.961,416.000 32.366 M432.267 65.430 C 438.110 67.421,444.699 74.128,446.684 80.105 C 448.540 85.692,448.173 93.706,445.841 98.546 C 444.940 100.416,441.505 104.807,438.208 108.304 C 418.536 129.168,239.403 314.453,238.903 314.453 C 238.569 314.453,236.720 312.459,234.793 310.022 C 230.006 303.965,221.509 295.809,216.107 292.085 C 213.643 290.386,211.627 288.755,211.627 288.459 C 211.627 288.164,255.922 238.596,310.060 178.308 C 409.227 67.876,409.812 67.255,417.280 64.591 C 420.033 63.609,428.277 64.071,432.267 65.430 M124.898 321.200 C 111.792 323.706,100.830 329.432,90.673 339.081 C 76.160 352.867,70.050 365.815,68.220 386.664 C 67.355 396.521,66.004 401.004,62.893 404.336 C 59.522 407.947,54.045 410.542,48.038 411.377 C 37.995 412.772,32.230 418.659,32.230 427.519 C 32.230 432.868,34.529 436.857,42.715 445.707 C 62.216 466.791,91.261 479.654,119.467 479.698 C 131.726 479.717,140.158 478.230,151.162 474.108 C 178.532 463.857,199.659 438.884,206.140 409.120 C 208.359 398.930,208.181 381.341,205.769 372.480 C 199.245 348.510,179.482 328.493,156.405 322.482 C 147.811 320.244,133.045 319.643,124.898 321.200 M153.896 355.639 C 164.286 360.527,172.605 371.067,175.042 382.428 C 176.359 388.570,175.487 401.867,173.316 408.747 C 170.691 417.063,165.870 424.638,158.559 431.933 C 138.718 451.730,108.491 453.265,80.398 435.904 L 77.597 434.172 83.103 429.126 C 93.749 419.372,98.648 408.772,99.844 392.901 C 100.687 381.729,101.736 377.281,104.757 372.066 C 107.618 367.127,113.853 360.459,118.163 357.727 C 124.892 353.463,129.371 352.375,139.093 352.643 C 147.127 352.865,148.657 353.174,153.896 355.639 " stroke="none" fill-rule="evenodd" fill="black"></path></svg>