<svg xmlns="http://www.w3.org/2000/svg" width="512" height="512" viewBox="0 0 512 512"><path d="M236.800 34.112 C 215.290 38.768,197.707 49.090,183.362 65.483 C 168.615 82.335,160.426 104.083,160.302 126.720 L 160.250 136.107 154.579 139.920 C 146.329 145.466,133.522 158.747,128.000 167.481 C 125.419 171.564,123.071 174.911,122.783 174.919 C 121.830 174.945,117.750 164.928,116.126 158.574 C 114.253 151.245,112.905 138.448,112.186 121.173 C 111.588 106.814,111.030 104.504,107.291 100.897 C 103.904 97.631,100.863 96.427,96.000 96.427 C 91.309 96.427,88.141 97.611,85.015 100.534 C 80.898 104.384,80.213 107.171,80.214 120.079 C 80.217 161.675,88.393 187.693,108.314 209.493 L 112.213 213.760 111.968 242.987 L 111.722 272.213 78.261 272.232 C 47.555 272.249,44.519 272.381,41.387 273.826 C 36.680 275.998,34.096 279.075,32.808 284.039 C 30.412 293.275,35.700 301.664,45.201 303.702 C 47.928 304.286,61.249 304.640,80.548 304.640 L 111.518 304.640 112.064 319.787 C 112.793 340.004,114.809 351.866,120.105 367.094 L 122.387 373.654 114.451 381.600 C 94.677 401.401,84.600 421.044,81.123 446.568 C 79.861 455.829,79.976 467.114,81.366 470.441 C 83.538 475.638,90.033 479.786,96.000 479.786 C 102.139 479.786,109.195 475.098,110.856 469.917 C 111.335 468.423,112.117 462.592,112.594 456.960 C 114.378 435.910,120.535 421.587,133.854 407.511 C 136.370 404.852,138.510 402.795,138.610 402.938 C 154.268 425.441,178.792 444.475,205.029 454.487 C 221.762 460.873,237.151 463.635,256.000 463.635 C 274.728 463.635,287.595 461.399,305.067 455.109 C 332.044 445.397,356.804 426.490,373.398 402.931 C 373.502 402.783,375.450 404.651,377.727 407.083 C 391.608 421.909,397.605 435.707,399.406 456.960 C 399.883 462.592,400.665 468.423,401.144 469.917 C 402.826 475.163,410.284 480.037,416.196 479.755 C 422.572 479.450,428.455 475.654,430.634 470.441 C 432.910 464.994,431.777 447.063,428.282 433.214 C 423.401 413.870,414.369 398.663,397.891 382.040 L 389.604 373.681 391.890 367.107 C 397.191 351.866,399.207 340.010,399.936 319.787 L 400.482 304.640 431.452 304.640 C 450.751 304.640,464.072 304.286,466.799 303.702 C 476.300 301.664,481.588 293.275,479.192 284.039 C 477.904 279.075,475.320 275.998,470.613 273.826 C 467.481 272.380,464.444 272.249,433.707 272.232 L 400.213 272.213 400.213 243.551 L 400.213 214.889 405.636 208.947 C 418.175 195.208,425.975 177.168,429.652 153.400 C 431.157 143.672,432.368 113.019,431.442 108.085 C 430.729 104.281,426.449 99.165,422.654 97.580 C 419.348 96.198,413.188 96.080,409.869 97.334 C 406.659 98.547,402.813 102.238,401.478 105.387 C 400.855 106.855,400.152 113.769,399.829 121.600 C 398.783 146.941,396.624 160.884,392.176 171.034 L 390.325 175.257 386.294 168.381 C 379.181 156.248,366.966 143.669,354.904 136.054 L 351.821 134.108 351.723 125.717 C 351.368 95.259,334.909 65.227,309.231 48.183 C 301.801 43.251,289.185 37.648,280.130 35.258 C 268.499 32.189,248.170 31.651,236.800 34.112 M274.357 66.747 C 294.481 72.632,311.410 89.536,317.200 109.526 C 318.271 113.222,319.147 117.089,319.147 118.118 L 319.147 119.989 311.680 118.107 C 286.764 111.828,246.956 110.387,219.606 114.776 C 210.879 116.176,198.729 118.897,195.183 120.245 C 192.982 121.082,192.853 120.996,192.853 118.689 C 192.853 114.521,196.598 103.070,199.857 97.269 C 209.475 80.152,226.015 68.357,245.303 64.861 C 252.416 63.572,266.661 64.496,274.357 66.747 M289.707 146.289 C 335.030 153.444,360.577 173.919,366.490 207.828 C 368.323 218.342,368.379 324.971,366.557 336.640 C 362.432 363.054,349.302 386.840,329.191 404.328 C 313.760 417.747,294.862 426.834,274.987 430.394 L 272.213 430.891 272.209 310.805 C 272.205 230.834,271.909 189.660,271.322 187.546 C 269.402 180.632,263.554 176.364,256.000 176.364 C 248.446 176.364,242.598 180.632,240.678 187.546 C 240.091 189.660,239.795 230.834,239.791 310.805 L 239.787 430.891 237.013 430.394 C 227.110 428.620,215.308 424.672,206.107 420.055 C 173.767 403.826,151.058 372.600,145.443 336.640 C 144.504 330.625,144.241 316.725,144.229 272.521 C 144.212 210.565,144.373 208.158,149.374 195.625 C 160.312 168.211,190.653 149.903,233.051 145.131 C 243.628 143.941,279.473 144.674,289.707 146.289 " stroke="none" fill-rule="evenodd" fill="black"></path></svg>