<svg xmlns="http://www.w3.org/2000/svg" width="512" height="512" viewBox="0 0 512 512"><path d="M217.730 33.801 C 180.997 38.790,163.774 59.681,160.457 103.273 C 159.981 109.530,159.766 114.824,159.980 115.038 C 160.194 115.252,163.742 113.977,167.865 112.205 C 193.278 101.282,214.052 97.336,249.600 96.684 C 289.426 95.952,314.623 99.971,341.923 111.409 C 346.900 113.494,351.274 115.200,351.644 115.200 C 352.663 115.200,351.646 100.647,349.851 89.565 C 344.291 55.220,326.996 38.165,293.239 33.740 C 279.964 32.000,230.701 32.040,217.730 33.801 M80.213 115.052 C 80.213 149.558,83.648 168.995,93.075 187.827 C 96.465 194.600,104.610 205.984,109.147 210.293 L 111.787 212.799 111.787 242.506 L 111.787 272.213 71.661 272.213 L 31.536 272.213 31.768 288.213 L 32.000 304.213 71.727 303.898 L 111.453 303.583 112.495 318.001 C 114.005 338.897,116.860 356.465,120.732 368.687 L 122.234 373.428 113.810 382.016 C 99.986 396.110,91.278 409.571,86.249 424.618 C 81.689 438.265,80.973 442.932,80.473 462.293 L 80.004 480.427 95.766 480.427 L 111.528 480.427 112.027 465.707 C 112.728 445.026,115.403 434.005,122.687 421.797 C 125.682 416.777,136.858 402.773,137.869 402.773 C 138.065 402.773,140.108 406.517,142.409 411.093 C 154.478 435.088,167.923 449.272,185.221 456.259 C 195.991 460.609,218.644 464.213,235.217 464.213 L 239.787 464.213 239.787 320.000 L 239.787 175.787 256.000 175.787 L 272.213 175.787 272.213 320.124 L 272.213 464.462 283.947 463.874 C 310.727 462.531,327.630 458.214,340.409 449.453 C 350.054 442.840,360.563 429.115,369.261 411.772 L 373.982 402.358 377.791 406.619 C 394.116 424.885,399.034 437.985,399.973 465.707 L 400.472 480.427 416.234 480.427 L 431.996 480.427 431.527 462.293 C 431.027 442.932,430.311 438.265,425.751 424.618 C 420.722 409.571,412.014 396.110,398.190 382.016 L 389.766 373.428 391.268 368.687 C 395.156 356.415,398.000 338.868,399.477 318.037 L 400.502 303.582 440.251 303.898 L 480.000 304.213 480.232 288.213 L 480.464 272.213 440.339 272.213 L 400.213 272.213 400.213 243.378 L 400.213 214.542 404.092 210.738 C 412.391 202.598,420.340 188.839,424.795 174.902 C 429.974 158.701,431.787 143.310,431.787 115.536 L 431.787 96.427 416.136 96.427 L 400.485 96.427 399.913 116.793 C 399.308 138.322,398.499 147.436,396.267 157.867 C 394.802 164.713,391.057 174.933,390.012 174.933 C 389.664 174.933,388.653 173.301,387.765 171.307 C 384.785 164.613,376.047 152.474,369.491 145.917 C 348.496 124.923,320.038 115.085,273.046 112.576 C 236.538 110.627,201.937 115.075,177.677 124.834 C 153.868 134.412,138.424 148.016,125.759 170.565 C 124.410 172.967,123.071 174.932,122.783 174.932 C 121.825 174.934,117.746 164.913,116.124 158.570 C 113.689 149.049,112.711 138.904,112.085 116.687 L 111.514 96.427 95.864 96.427 L 80.213 96.427 80.213 115.052 " stroke="none" fill-rule="evenodd" fill="black"></path></svg>