<svg xmlns="http://www.w3.org/2000/svg" width="512" height="512" viewBox="0 0 512 512"><path d="M238.365 33.690 C 211.095 38.638,184.609 57.690,172.031 81.407 C 166.879 91.120,171.509 102.303,181.818 105.047 C 185.343 105.985,186.731 105.829,196.325 103.419 C 217.746 98.038,231.351 96.462,256.550 96.441 C 281.350 96.421,295.742 97.971,317.013 102.954 C 328.495 105.644,332.193 105.058,337.248 99.749 C 343.890 92.774,343.474 86.183,335.650 74.425 C 321.755 53.541,297.953 38.020,273.168 33.679 C 264.497 32.161,246.765 32.166,238.365 33.690 M88.807 97.874 C 87.198 98.721,84.702 100.888,83.261 102.689 C 80.642 105.963,80.640 105.976,80.349 118.476 C 79.415 158.697,88.210 187.608,107.906 209.067 L 112.213 213.760 111.968 242.959 L 111.722 272.158 77.267 272.399 L 42.811 272.640 39.188 275.200 C 34.547 278.480,32.112 283.132,32.234 288.487 C 32.406 296.053,37.521 302.054,45.201 303.702 C 47.930 304.287,61.286 304.640,80.682 304.640 L 111.787 304.640 111.787 314.790 C 111.787 333.694,113.863 347.702,119.089 364.051 L 122.123 373.541 113.755 382.073 C 91.942 404.312,81.720 426.918,80.453 455.722 C 80.035 465.235,80.174 466.865,81.703 470.321 C 87.157 482.651,104.751 482.887,110.371 470.705 C 111.044 469.246,111.861 464.021,112.187 459.093 C 113.591 437.896,118.923 424.403,131.830 409.387 C 134.956 405.749,137.631 402.773,137.774 402.773 C 137.917 402.773,140.781 406.213,144.137 410.417 C 156.553 425.965,173.060 439.193,191.573 448.429 C 203.573 454.416,219.243 459.947,224.206 459.947 C 228.824 459.947,234.424 456.864,237.070 452.866 L 239.360 449.405 239.787 318.715 L 240.213 188.026 242.773 183.903 C 246.039 178.645,250.443 176.250,256.682 176.340 C 262.284 176.421,267.313 179.595,270.004 184.747 C 271.784 188.154,271.787 188.372,272.213 318.783 L 272.640 449.405 274.930 452.866 C 277.576 456.864,283.176 459.947,287.794 459.947 C 292.757 459.947,308.427 454.416,320.427 448.429 C 338.945 439.190,355.447 425.965,367.872 410.405 C 374.916 401.583,373.787 401.481,381.991 411.683 C 393.897 426.486,398.402 438.477,399.805 459.093 C 400.492 469.200,401.979 473.120,406.392 476.459 C 413.344 481.718,422.302 480.816,427.883 474.297 C 431.657 469.887,432.147 467.290,431.542 454.909 C 430.163 426.713,419.804 404.052,398.245 382.073 L 389.877 373.541 392.911 364.051 C 398.137 347.702,400.213 333.694,400.213 314.790 L 400.213 304.640 431.318 304.640 C 450.714 304.640,464.070 304.287,466.799 303.702 C 474.453 302.060,479.722 295.884,479.835 288.422 C 479.914 283.198,477.380 278.428,472.812 275.200 L 469.189 272.640 434.701 272.399 L 400.213 272.158 400.213 243.494 L 400.213 214.831 405.120 209.585 C 423.276 190.175,431.826 161.985,431.768 121.723 C 431.746 106.859,430.778 103.467,425.377 99.348 C 422.848 97.419,421.122 96.861,416.964 96.628 C 410.694 96.276,407.133 97.847,403.287 102.660 L 400.692 105.907 399.689 124.847 C 398.616 145.119,398.211 148.983,396.185 158.293 C 394.814 164.600,391.025 174.943,390.096 174.919 C 389.794 174.911,388.149 172.314,386.441 169.148 C 382.322 161.513,373.495 150.691,366.799 145.068 C 346.370 127.910,322.554 118.524,287.573 113.843 C 272.742 111.859,240.607 111.836,226.133 113.799 C 198.767 117.512,175.400 125.815,156.151 138.667 C 146.961 144.802,133.611 158.437,127.970 167.450 C 125.405 171.547,123.071 174.907,122.783 174.917 C 121.831 174.947,117.751 164.932,116.124 158.570 C 114.003 150.276,112.863 139.975,112.175 122.880 C 111.526 106.773,110.514 103.266,105.386 99.355 C 101.251 96.201,93.331 95.494,88.807 97.874 " stroke="none" fill-rule="evenodd" fill="black"></path></svg>