<svg xmlns="http://www.w3.org/2000/svg" width="512" height="512" viewBox="0 0 512 512"><path d="M317.867 34.084 C 296.301 37.919,278.570 45.414,262.603 57.445 C 240.114 74.390,227.206 94.419,220.436 122.880 C 218.698 130.186,218.220 134.833,217.850 148.053 C 217.351 165.858,218.420 176.433,222.336 192.427 C 224.866 202.763,225.009 208.528,222.823 212.113 C 221.944 213.554,182.105 250.507,134.293 294.231 C 86.480 337.955,46.090 375.478,44.537 377.615 C 34.781 391.042,29.929 410.049,32.428 425.044 C 34.813 439.347,40.885 451.311,50.787 461.213 C 60.873 471.299,73.033 477.391,87.424 479.569 C 103.933 482.067,123.061 476.631,136.367 465.662 C 139.326 463.223,177.065 422.827,220.231 375.893 C 274.915 316.438,299.808 289.957,302.318 288.572 C 306.666 286.173,308.363 286.290,326.400 290.231 C 338.696 292.918,339.956 293.029,358.400 293.069 C 379.554 293.114,385.773 292.288,401.036 287.408 C 417.906 282.015,430.919 274.017,443.750 261.157 C 457.518 247.359,466.064 233.484,472.329 214.764 C 481.796 186.471,482.466 156.951,474.195 132.578 C 469.639 119.151,465.169 114.432,456.335 113.723 C 452.194 113.391,450.171 113.641,447.946 114.760 C 446.333 115.571,430.421 130.771,412.587 148.537 C 390.679 170.360,379.131 181.265,376.987 182.153 C 372.966 183.818,369.437 183.819,365.413 182.155 C 361.869 180.690,332.698 152.249,330.520 148.137 C 329.057 145.374,328.652 139.158,329.681 135.253 C 330.153 133.465,340.233 122.787,363.109 99.840 C 385.184 77.698,396.294 65.952,397.185 63.814 C 399.463 58.346,398.593 52.013,394.821 46.602 C 391.795 42.262,375.712 36.269,360.107 33.666 C 349.905 31.965,328.597 32.176,317.867 34.084 M349.821 64.546 L 352.549 65.091 328.761 89.079 C 303.388 114.664,301.086 117.636,298.267 128.462 C 296.592 134.892,296.592 146.708,298.267 153.138 C 301.022 163.717,303.657 167.237,324.210 187.790 C 344.763 208.343,348.283 210.978,358.862 213.733 C 365.241 215.395,377.092 215.412,383.400 213.769 C 394.650 210.839,397.271 208.817,422.991 183.238 C 450.665 155.715,448.679 156.460,447.675 173.982 C 445.204 217.135,422.584 248.651,387.278 258.132 C 368.988 263.044,350.236 262.907,327.013 257.692 C 305.617 252.887,291.945 255.227,278.853 265.933 C 276.638 267.745,239.495 307.627,196.312 354.560 C 153.129 401.493,116.124 441.069,114.079 442.506 C 101.898 451.064,84.164 449.472,73.561 438.869 C 67.678 432.986,64.808 426.654,64.235 418.291 C 63.633 409.510,65.492 403.361,70.787 396.617 C 72.921 393.900,112.516 357.165,158.776 314.984 C 205.036 272.804,244.236 236.714,245.886 234.786 C 250.283 229.649,253.257 223.707,255.165 216.247 C 257.391 207.544,257.293 201.079,254.778 190.697 C 248.470 164.660,247.823 144.949,252.656 126.022 C 260.810 94.086,288.398 71.081,325.547 65.242 C 333.088 64.057,345.584 63.698,349.821 64.546 M89.625 401.565 C 83.706 404.132,80.213 409.489,80.213 416.000 C 80.213 422.613,83.746 427.938,89.817 430.474 C 95.353 432.787,102.552 431.623,106.969 427.701 C 109.437 425.510,111.749 419.849,111.749 416.000 C 111.749 412.151,109.437 406.490,106.969 404.299 C 102.562 400.386,95.068 399.204,89.625 401.565 " stroke="none" fill-rule="evenodd" fill="black"></path></svg>