<svg xmlns="http://www.w3.org/2000/svg" width="512" height="512" viewBox="0 0 512 512"><path d="M324.267 32.983 C 288.466 38.411,265.961 49.915,247.512 72.219 C 219.560 106.012,211.891 154.722,227.195 201.259 L 229.819 209.238 194.056 244.825 C 174.387 264.397,129.914 308.555,95.229 342.954 L 32.165 405.496 69.486 442.748 L 106.807 480.000 205.232 381.115 C 289.773 296.178,303.937 282.290,305.642 282.658 C 306.733 282.894,311.083 284.116,315.307 285.373 C 329.357 289.555,341.134 291.189,357.547 291.235 C 380.692 291.299,397.730 287.565,416.888 278.229 C 454.369 259.964,475.739 226.980,479.636 181.374 C 481.631 158.034,476.361 127.765,466.413 105.422 L 464.150 100.337 423.008 141.288 C 400.380 163.811,380.608 183.365,379.069 184.743 L 376.271 187.247 350.268 161.254 L 324.264 135.262 367.852 91.668 L 411.439 48.074 405.613 45.474 C 393.346 40.000,377.446 35.624,362.667 33.654 C 354.646 32.585,329.758 32.150,324.267 32.983 " stroke="none" fill-rule="evenodd" fill="black"></path></svg>