<svg xmlns="http://www.w3.org/2000/svg" width="512" height="512" viewBox="0 0 512 512"><path d="M320.427 32.814 C 282.510 38.769,249.593 60.416,232.183 90.844 C 227.576 98.897,222.410 112.822,220.141 123.307 C 218.792 129.537,218.177 135.986,217.861 147.200 C 217.378 164.373,218.599 176.697,222.285 191.841 C 224.710 201.808,224.979 207.252,223.211 210.602 C 221.424 213.987,218.476 216.734,130.987 296.549 C 86.869 336.797,48.921 371.882,46.658 374.516 C 41.745 380.235,35.709 392.365,33.659 400.640 C 31.603 408.938,31.756 422.536,34.002 431.049 C 39.494 451.874,54.708 468.463,74.892 475.636 C 88.477 480.463,102.799 480.532,116.608 475.835 C 132.877 470.302,130.796 472.308,213.478 382.448 C 291.648 297.493,298.914 289.728,301.633 288.233 C 305.785 285.952,309.266 285.917,319.147 288.059 C 324.544 289.229,329.728 290.346,330.667 290.542 C 336.868 291.837,349.432 292.773,360.457 292.763 C 386.487 292.737,408.374 286.611,427.977 273.863 C 436.403 268.384,451.387 253.502,457.145 244.894 C 478.686 212.691,485.710 168.471,474.787 133.827 C 469.599 117.372,464.950 112.212,455.316 112.215 C 451.244 112.216,449.493 112.655,447.147 114.265 C 445.504 115.392,429.376 131.007,411.307 148.965 C 378.904 181.169,378.397 181.626,374.315 182.225 C 366.387 183.389,364.669 182.303,347.454 165.251 C 338.852 156.731,331.203 148.608,330.455 147.200 C 328.970 144.403,328.610 138.431,329.682 134.400 C 330.156 132.617,340.428 121.745,363.544 98.560 C 397.153 64.851,399.360 62.248,399.360 56.320 C 399.360 52.839,397.225 47.898,394.483 45.035 C 390.300 40.668,372.214 34.580,357.233 32.496 C 348.560 31.290,329.059 31.459,320.427 32.814 M108.060 385.822 C 114.510 388.236,121.317 394.723,124.779 401.756 C 127.312 406.899,127.573 408.152,127.569 415.129 C 127.565 421.997,127.273 423.443,124.860 428.545 C 121.544 435.556,116.310 440.938,109.607 444.229 C 105.028 446.477,103.702 446.720,96.000 446.720 C 88.306 446.720,86.968 446.475,82.400 444.235 C 75.705 440.953,70.456 435.556,67.140 428.545 C 64.723 423.435,64.436 422.010,64.444 415.147 C 64.452 408.630,64.798 406.728,66.727 402.587 C 74.146 386.665,91.499 379.626,108.060 385.822 " stroke="none" fill-rule="evenodd" fill="black"></path></svg>