<svg xmlns="http://www.w3.org/2000/svg" width="512" height="512" viewBox="0 0 512 512"><path d="M242.347 16.754 C 241.173 16.923,236.757 17.480,232.533 17.990 C 223.182 19.120,211.106 22.082,201.387 25.629 C 141.853 47.358,101.307 100.973,96.485 164.345 C 93.439 204.365,105.815 247.246,129.415 278.453 C 131.612 281.357,142.678 292.949,154.007 304.213 C 176.531 326.608,181.498 332.599,187.549 344.666 L 191.573 352.693 192.000 371.255 L 192.427 389.817 195.036 393.095 C 202.720 402.748,215.599 402.131,221.661 391.819 L 224.000 387.840 223.940 369.920 C 223.876 350.704,223.319 347.047,218.669 335.360 C 212.645 320.220,203.062 307.824,178.760 283.733 C 159.331 264.474,153.959 258.293,147.604 247.893 C 124.610 210.262,121.862 158.137,140.869 120.134 C 164.845 72.196,212.826 44.684,265.483 48.681 C 305.628 51.729,340.384 71.794,362.262 104.555 C 380.361 131.656,386.865 162.259,382.206 198.400 C 379.293 221.001,369.930 242.873,355.488 260.813 C 352.413 264.634,344.376 272.989,337.630 279.381 C 309.515 306.018,296.406 323.873,290.442 343.653 C 288.318 350.697,288.177 352.248,288.091 369.493 L 288.000 387.840 290.339 391.819 C 293.183 396.657,297.189 399.277,302.661 399.879 C 307.793 400.443,313.130 397.912,316.964 393.095 L 319.573 389.817 320.001 371.335 L 320.428 352.853 323.922 345.600 C 329.324 334.382,336.638 325.523,358.445 303.787 C 378.794 283.503,382.724 278.993,390.791 266.667 C 417.329 226.113,423.532 165.298,405.803 119.474 C 397.236 97.329,385.847 79.645,369.666 63.362 C 343.628 37.159,310.335 21.109,273.740 17.117 C 266.012 16.274,247.177 16.056,242.347 16.754 M211.200 225.636 C 200.494 230.415,199.072 245.658,208.651 252.964 C 214.293 257.267,226.757 264.220,233.325 266.728 L 239.787 269.194 239.791 327.237 C 239.795 366.953,240.094 386.352,240.738 388.674 C 241.999 393.214,246.994 398.084,251.687 399.347 C 260.232 401.649,269.010 396.778,271.322 388.454 C 271.889 386.414,272.206 364.531,272.209 327.237 L 272.213 269.194 278.675 266.728 C 285.279 264.206,297.715 257.261,303.425 252.906 C 311.155 247.010,311.909 235.033,304.958 228.534 C 301.720 225.506,298.647 224.426,293.278 224.429 C 289.398 224.431,288.014 224.975,282.041 228.843 C 278.294 231.270,272.342 234.619,268.814 236.286 C 263.243 238.918,261.559 239.317,256.000 239.317 C 250.441 239.317,248.757 238.918,243.186 236.286 C 239.658 234.619,233.706 231.270,229.959 228.843 C 223.819 224.867,222.683 224.434,218.453 224.462 C 215.872 224.479,212.608 225.008,211.200 225.636 M200.962 417.771 C 197.114 419.777,195.335 421.619,193.605 425.387 C 191.730 429.471,191.568 434.248,193.178 438.001 C 194.614 441.347,199.251 445.866,202.509 447.094 C 204.105 447.696,222.050 448.000,256.000 448.000 C 289.950 448.000,307.895 447.696,309.491 447.094 C 312.749 445.866,317.386 441.347,318.822 438.001 C 320.366 434.403,320.315 429.926,318.687 426.030 C 316.994 421.977,315.198 420.038,311.287 418.043 C 308.282 416.509,305.464 416.427,255.821 416.432 C 210.060 416.437,203.200 416.604,200.962 417.771 M216.579 465.955 C 214.844 466.871,212.348 469.032,211.032 470.757 C 208.921 473.526,208.640 474.619,208.640 480.068 C 208.640 485.667,208.880 486.538,211.221 489.431 C 216.502 495.956,215.315 495.787,255.807 495.787 C 289.548 495.787,292.115 495.681,295.074 494.171 C 300.663 491.318,303.787 486.238,303.787 480.000 C 303.787 473.762,300.663 468.682,295.074 465.829 C 292.111 464.317,289.591 464.216,255.821 464.251 C 221.715 464.287,219.560 464.380,216.579 465.955 " stroke="none" fill-rule="evenodd" fill="black"></path></svg>