<svg xmlns="http://www.w3.org/2000/svg" width="512" height="512" viewBox="0 0 512 512"><path d="M237.227 17.160 C 216.086 19.554,194.774 26.614,176.084 37.414 C 122.744 68.238,92.148 126.069,96.485 187.867 C 99.025 224.065,111.995 257.462,133.551 283.311 C 136.488 286.833,145.423 295.953,153.406 303.576 C 174.107 323.347,184.540 336.227,189.600 348.259 C 191.421 352.589,191.549 354.215,191.826 376.533 L 192.120 400.213 215.954 400.213 L 239.787 400.213 239.787 334.604 L 239.787 268.994 218.044 256.737 C 206.086 249.996,196.294 244.195,196.284 243.846 C 196.251 242.658,213.495 218.453,214.373 218.453 C 214.854 218.453,224.126 223.157,234.977 228.907 C 245.828 234.656,255.093 239.458,255.566 239.579 C 256.039 239.699,265.615 234.833,276.844 228.765 L 297.262 217.733 306.498 230.021 C 311.577 236.780,315.733 242.630,315.733 243.022 C 315.733 243.413,305.941 249.457,293.973 256.452 L 272.213 269.170 272.213 334.692 L 272.213 400.213 296.046 400.213 L 319.880 400.213 320.153 376.533 L 320.427 352.853 323.921 345.600 C 329.376 334.275,336.685 325.417,358.422 303.787 C 378.780 283.529,382.693 279.041,390.791 266.667 C 412.301 233.798,420.963 186.039,412.948 144.505 C 399.840 76.578,343.134 24.687,273.740 17.117 C 264.228 16.080,246.582 16.100,237.227 17.160 M192.000 432.213 L 192.000 448.000 256.000 448.000 L 320.000 448.000 320.000 432.213 L 320.000 416.427 256.000 416.427 L 192.000 416.427 192.000 432.213 M208.213 480.000 L 208.213 495.787 256.000 495.787 L 303.787 495.787 303.787 480.000 L 303.787 464.213 256.000 464.213 L 208.213 464.213 208.213 480.000 " stroke="none" fill-rule="evenodd" fill="black"></path></svg>