<svg xmlns="http://www.w3.org/2000/svg" width="512" height="512" viewBox="0 0 512 512"><path d="M237.227 17.160 C 216.086 19.554,194.774 26.614,176.084 37.414 C 122.744 68.238,92.148 126.069,96.485 187.867 C 99.025 224.065,111.995 257.462,133.551 283.311 C 136.488 286.833,145.423 295.953,153.406 303.576 C 174.163 323.400,184.668 336.383,189.561 348.259 C 191.237 352.328,191.510 354.902,191.949 370.773 C 192.490 390.392,192.856 391.936,197.981 396.249 C 202.202 399.800,205.675 400.369,221.303 400.065 L 235.672 399.787 237.729 397.392 L 239.787 394.998 239.760 333.392 C 239.738 283.820,239.513 271.498,238.610 270.308 C 237.992 269.495,232.917 266.556,227.330 263.778 C 213.168 256.733,205.712 251.416,203.307 246.646 C 197.322 234.778,207.319 221.455,220.372 223.903 C 221.949 224.199,226.867 226.742,231.300 229.555 C 240.672 235.500,251.037 239.787,256.044 239.787 C 260.694 239.787,270.443 235.801,280.573 229.759 C 287.984 225.338,289.265 224.856,293.542 224.880 C 299.538 224.914,303.809 227.398,306.881 232.640 C 308.781 235.882,309.053 237.185,308.738 241.537 C 308.133 249.910,303.695 254.069,285.468 263.347 C 279.383 266.445,273.923 269.611,273.336 270.383 C 272.504 271.476,272.262 285.417,272.240 333.392 L 272.213 394.998 274.271 397.392 L 276.328 399.787 290.697 400.065 C 306.325 400.369,309.798 399.800,314.019 396.249 C 319.160 391.923,319.515 390.409,319.992 370.773 L 320.427 352.853 323.921 345.600 C 329.376 334.275,336.685 325.417,358.422 303.787 C 378.780 283.529,382.693 279.041,390.791 266.667 C 412.301 233.798,420.963 186.039,412.948 144.505 C 399.840 76.578,343.134 24.687,273.740 17.117 C 264.228 16.080,246.582 16.100,237.227 17.160 M200.397 418.152 C 194.352 421.345,191.314 427.650,192.383 434.779 C 193.135 439.798,198.313 445.833,202.976 447.128 C 207.179 448.296,304.821 448.296,309.024 447.128 C 313.687 445.833,318.865 439.798,319.617 434.779 C 320.701 427.549,317.613 421.269,311.420 418.110 C 308.241 416.487,306.231 416.428,255.821 416.464 C 205.806 416.500,203.383 416.574,200.397 418.152 M217.625 465.565 C 213.725 467.256,211.791 469.083,209.829 472.926 C 206.865 478.733,208.367 487.456,213.060 491.701 C 217.422 495.645,218.938 495.788,256.186 495.768 C 288.539 495.751,291.692 495.621,294.827 494.182 C 298.887 492.317,300.706 490.414,302.474 486.183 C 304.144 482.186,304.144 477.814,302.474 473.817 C 300.706 469.586,298.887 467.683,294.827 465.818 C 291.687 464.376,288.575 464.252,256.000 464.265 C 226.371 464.278,220.103 464.490,217.625 465.565 " stroke="none" fill-rule="evenodd" fill="black"></path></svg>