<svg xmlns="http://www.w3.org/2000/svg" width="512" height="512" viewBox="0 0 512 512"><path d="M78.080 34.439 C 75.733 35.537,72.234 38.155,70.304 40.258 C 63.411 47.767,63.958 30.026,64.206 238.110 L 64.427 423.680 66.899 429.033 C 68.632 432.785,70.991 435.901,74.792 439.457 L 80.213 444.528 80.213 462.477 L 80.213 480.427 116.053 480.427 L 151.893 480.427 151.893 464.213 L 151.893 448.000 256.000 448.000 L 360.107 448.000 360.107 464.213 L 360.107 480.427 395.947 480.427 L 431.787 480.427 431.787 462.477 L 431.787 444.528 437.208 439.457 C 441.009 435.901,443.368 432.785,445.101 429.033 L 447.573 423.680 447.794 238.110 C 448.042 30.026,448.589 47.767,441.696 40.258 C 439.766 38.155,436.267 35.537,433.920 34.439 L 429.653 32.443 256.000 32.443 L 82.347 32.443 78.080 34.439 M415.573 80.213 L 415.573 96.427 256.000 96.427 L 96.427 96.427 96.427 80.213 L 96.427 64.000 256.000 64.000 L 415.573 64.000 415.573 80.213 M239.787 208.213 L 239.787 288.427 168.107 288.427 L 96.427 288.427 96.427 208.213 L 96.427 128.000 168.107 128.000 L 239.787 128.000 239.787 208.213 M415.573 208.213 L 415.573 288.427 343.893 288.427 L 272.213 288.427 272.213 208.213 L 272.213 128.000 343.893 128.000 L 415.573 128.000 415.573 208.213 M157.521 339.202 C 163.951 342.348,170.153 348.567,173.062 354.785 C 175.072 359.083,175.349 360.720,175.334 368.213 C 175.318 376.106,175.115 377.136,172.622 381.942 C 163.776 399.000,142.648 405.040,126.985 394.990 C 106.440 381.806,107.727 350.852,129.280 339.826 C 135.289 336.752,137.719 336.259,145.586 336.519 C 151.177 336.704,153.467 337.219,157.521 339.202 M381.254 339.174 C 384.990 340.859,388.007 343.094,391.208 346.553 C 397.275 353.105,399.550 359.017,399.588 368.325 C 399.612 374.286,399.255 376.035,397.054 380.739 C 392.455 390.565,385.533 396.421,375.469 399.000 C 361.255 402.641,346.216 395.382,339.434 381.604 C 336.871 376.398,336.640 375.259,336.640 367.805 C 336.640 360.809,336.953 359.013,338.889 354.884 C 342.849 346.437,349.797 340.289,358.644 337.402 C 364.535 335.479,374.853 336.288,381.254 339.174 " stroke="none" fill-rule="evenodd" fill="black"></path></svg>