<svg xmlns="http://www.w3.org/2000/svg" width="512" height="512" viewBox="0 0 512 512"><path d="M99.083 33.775 C 91.812 35.731,84.525 40.077,78.451 46.080 C 71.620 52.832,67.933 59.135,65.694 67.889 C 64.033 74.386,64.000 77.692,64.013 240.137 C 64.027 423.436,63.650 411.123,69.590 422.312 C 71.236 425.411,74.299 429.795,76.398 432.054 L 80.213 436.161 80.213 447.475 C 80.213 461.083,81.291 464.941,86.809 471.078 C 94.141 479.232,100.551 480.816,124.031 480.274 C 138.464 479.940,139.840 479.767,144.213 477.728 C 153.590 473.358,158.987 465.338,160.055 454.187 L 160.647 448.000 256.000 448.000 L 351.353 448.000 351.945 454.187 C 353.013 465.338,358.410 473.358,367.787 477.728 C 372.160 479.767,373.536 479.940,387.969 480.274 C 411.449 480.816,417.859 479.232,425.191 471.078 C 430.709 464.941,431.787 461.083,431.787 447.475 L 431.787 436.161 435.602 432.054 C 437.701 429.795,440.764 425.411,442.410 422.312 C 448.350 411.123,447.973 423.436,447.987 240.137 C 448.000 77.692,447.967 74.386,446.306 67.889 C 444.067 59.135,440.380 52.832,433.549 46.080 C 427.329 39.932,420.155 35.714,412.551 33.733 C 405.185 31.815,106.224 31.855,99.083 33.775 M405.970 65.313 C 410.023 67.006,411.962 68.802,413.957 72.713 C 415.884 76.488,416.091 83.574,414.370 86.869 C 412.999 89.492,409.212 93.200,406.456 94.616 C 405.099 95.313,364.175 95.573,256.014 95.573 C 94.059 95.573,105.381 95.925,100.584 90.743 C 97.252 87.142,96.427 85.057,96.427 80.235 C 96.427 75.667,98.420 70.666,101.268 68.091 C 105.943 63.864,98.118 64.069,255.814 64.033 C 386.233 64.004,403.183 64.148,405.970 65.313 M239.787 207.787 L 239.787 287.573 173.611 287.573 C 117.494 287.573,107.072 287.385,105.044 286.337 C 102.044 284.786,97.454 279.621,96.839 277.104 C 96.583 276.057,96.481 244.258,96.613 206.440 L 96.853 137.680 99.314 134.454 C 100.668 132.679,103.356 130.510,105.288 129.633 C 108.619 128.120,112.172 128.037,174.293 128.019 L 239.787 128.000 239.787 207.787 M405.970 129.313 C 410.023 131.006,411.962 132.802,413.957 136.713 C 415.503 139.741,415.573 142.842,415.573 208.222 C 415.573 265.391,415.377 276.941,414.370 278.869 C 412.999 281.492,409.212 285.200,406.456 286.616 C 405.125 287.299,385.657 287.573,338.403 287.573 L 272.213 287.573 272.213 207.787 L 272.213 128.000 337.521 128.000 C 394.361 128.000,403.235 128.170,405.970 129.313 M405.970 321.313 C 410.023 323.006,411.962 324.802,413.957 328.713 C 415.468 331.673,415.573 334.243,415.573 368.222 C 415.573 398.288,415.360 404.978,414.337 406.956 C 412.714 410.094,407.612 414.526,404.678 415.348 C 403.396 415.706,336.107 416.000,255.147 416.000 C 118.250 416.000,107.761 415.899,105.300 414.550 C 102.037 412.763,97.467 407.665,96.833 405.104 C 96.574 404.057,96.472 386.658,96.607 366.439 L 96.853 329.679 99.314 326.453 C 100.668 324.679,103.356 322.510,105.288 321.633 C 108.674 320.095,114.073 320.037,255.814 320.019 C 386.211 320.002,403.183 320.148,405.970 321.313 M135.253 337.320 C 129.731 338.999,125.278 341.773,121.048 346.171 C 116.092 351.323,113.857 355.746,112.621 362.844 C 110.824 373.164,113.958 382.842,121.558 390.442 C 136.261 405.145,160.056 402.318,171.293 384.534 C 176.502 376.290,177.211 363.956,173.005 354.769 C 170.149 348.530,163.466 341.849,157.215 338.985 C 151.538 336.384,140.970 335.583,135.253 337.320 M357.803 337.802 C 341.613 343.396,332.505 361.055,337.434 377.296 C 343.081 395.900,364.514 405.152,382.238 396.634 C 387.095 394.300,394.279 387.075,396.685 382.103 C 400.925 373.346,400.811 361.982,396.398 353.375 C 394.025 348.746,387.542 342.302,382.720 339.781 C 375.307 335.904,365.541 335.128,357.803 337.802 " stroke="none" fill-rule="evenodd" fill="black"></path></svg>