<svg xmlns="http://www.w3.org/2000/svg" width="512" height="512" viewBox="0 0 512 512"><path d="M99.471 33.734 C 87.242 37.090,74.624 47.289,69.347 58.082 C 63.609 69.820,63.951 57.541,64.201 242.534 L 64.427 410.027 66.351 415.078 C 68.964 421.941,72.129 427.161,76.527 431.863 L 80.213 435.804 80.213 447.296 C 80.213 455.611,80.592 459.902,81.584 462.812 C 83.449 468.286,90.122 475.415,95.770 477.968 C 100.088 479.919,101.046 480.000,119.893 480.000 C 139.286 480.000,139.577 479.973,144.287 477.764 C 153.712 473.345,159.058 465.364,160.099 454.161 L 160.672 448.000 256.000 448.000 L 351.328 448.000 351.901 454.161 C 352.942 465.364,358.288 473.345,367.713 477.764 C 372.423 479.973,372.714 480.000,392.107 480.000 C 410.954 480.000,411.912 479.919,416.230 477.968 C 421.878 475.415,428.551 468.286,430.416 462.812 C 431.408 459.902,431.787 455.611,431.787 447.296 L 431.787 435.804 435.473 431.863 C 439.871 427.161,443.036 421.941,445.649 415.078 L 447.573 410.027 447.799 242.534 C 448.048 57.798,448.389 70.069,442.682 58.254 C 437.297 47.105,424.815 37.064,412.154 33.694 C 405.409 31.899,106.018 31.938,99.471 33.734 M408.579 66.774 C 412.905 69.637,415.573 74.567,415.573 79.697 C 415.573 84.663,414.384 87.676,411.064 91.117 C 405.643 96.737,414.661 96.427,256.740 96.427 C 155.861 96.427,112.285 96.149,109.201 95.488 C 104.173 94.410,99.336 90.644,97.580 86.441 C 95.146 80.616,96.863 72.075,101.268 68.091 C 105.967 63.842,97.843 64.043,256.916 64.242 L 405.032 64.427 408.579 66.774 M238.763 129.024 C 239.544 129.805,239.787 148.495,239.787 207.938 L 239.787 285.827 237.763 287.153 C 235.971 288.328,228.450 288.452,171.843 288.239 C 102.943 287.981,106.449 288.221,101.257 283.416 C 96.179 278.716,96.427 282.568,96.427 208.222 C 96.427 142.842,96.497 139.741,98.043 136.713 C 100.004 132.870,101.939 131.043,105.839 129.351 C 108.387 128.246,117.796 128.062,173.269 128.033 C 222.312 128.008,237.984 128.245,238.763 129.024 M405.970 129.313 C 410.023 131.006,411.962 132.802,413.957 136.713 C 415.503 139.741,415.573 142.833,415.573 207.697 C 415.573 253.539,415.279 276.294,414.666 277.918 C 413.540 280.896,409.996 284.710,406.613 286.583 C 404.303 287.862,397.823 288.023,340.157 288.239 C 283.550 288.452,276.029 288.328,274.237 287.153 L 272.213 285.827 272.213 207.938 C 272.213 148.495,272.456 129.805,273.237 129.024 C 274.016 128.246,289.684 128.000,338.545 128.000 C 394.464 128.000,403.237 128.171,405.970 129.313 M157.013 338.918 C 163.927 342.124,169.287 347.309,172.555 353.950 C 175.170 359.263,175.358 360.231,175.332 368.198 C 175.305 376.070,175.093 377.152,172.648 381.867 C 160.097 406.071,127.492 406.043,115.519 381.818 C 112.675 376.063,112.388 374.834,112.391 368.434 C 112.396 359.240,114.648 353.249,120.511 346.834 C 127.527 339.156,134.936 336.088,145.493 336.485 C 150.626 336.678,153.485 337.282,157.013 338.918 M381.254 339.174 C 384.990 340.859,388.007 343.094,391.208 346.553 C 397.349 353.185,399.604 359.060,399.609 368.434 C 399.612 374.834,399.325 376.063,396.481 381.818 C 384.508 406.043,351.903 406.071,339.352 381.867 C 336.908 377.154,336.695 376.068,336.668 368.213 C 336.644 360.742,336.920 359.083,338.889 354.884 C 342.849 346.437,349.797 340.289,358.644 337.402 C 364.535 335.479,374.853 336.288,381.254 339.174 " stroke="none" fill-rule="evenodd" fill="black"></path></svg>