<svg xmlns="http://www.w3.org/2000/svg" width="512" height="512" viewBox="0 0 512 512"><path d="M67.954 17.567 C 52.981 21.191,39.512 33.904,34.215 49.410 L 32.000 55.893 32.000 269.227 C 32.000 386.560,32.294 483.609,32.652 484.891 C 33.556 488.119,38.246 493.249,41.559 494.634 C 45.671 496.352,466.329 496.352,470.441 494.634 C 474.744 492.836,478.440 488.017,479.526 482.790 C 480.203 479.526,480.404 440.740,480.229 346.845 C 479.997 222.008,479.907 215.233,478.418 210.773 C 473.088 194.812,461.292 183.025,445.440 177.822 C 441.132 176.408,435.793 176.258,380.400 175.987 L 320.054 175.693 319.813 114.940 C 319.572 54.416,319.564 54.165,317.643 48.507 C 312.408 33.090,297.371 20.058,281.299 17.010 C 278.834 16.542,234.959 16.243,175.030 16.284 C 89.962 16.344,72.126 16.557,67.954 17.567 M279.903 50.476 C 282.180 51.815,284.532 54.127,285.663 56.139 L 287.573 59.539 287.573 261.876 L 287.573 464.213 239.787 464.213 L 192.000 464.213 192.000 438.456 C 192.000 413.953,191.912 412.517,190.190 408.960 C 187.428 403.255,182.879 400.640,175.715 400.640 C 170.563 400.640,169.634 400.913,166.693 403.290 C 159.993 408.706,160.033 408.505,159.731 437.973 L 159.462 464.213 111.731 464.213 L 64.000 464.213 64.019 262.613 C 64.037 68.870,64.099 60.879,65.604 57.565 C 67.406 53.598,71.632 49.720,74.946 48.992 C 76.200 48.716,77.611 48.359,78.080 48.199 C 78.549 48.038,123.285 47.976,177.493 48.060 L 276.053 48.213 279.903 50.476 M89.625 81.565 C 83.703 84.133,80.213 89.488,80.213 96.008 C 80.213 104.881,87.127 111.787,96.008 111.787 C 104.877 111.787,111.787 104.873,111.787 96.000 C 111.787 84.536,100.190 76.982,89.625 81.565 M169.387 81.629 C 164.974 83.951,162.138 87.248,160.865 91.535 C 156.658 105.701,171.967 117.244,184.457 109.323 C 192.063 104.500,194.165 94.672,189.197 87.164 C 185.174 81.085,175.537 78.392,169.387 81.629 M249.600 81.423 C 244.482 83.707,239.763 90.820,239.805 96.186 C 239.854 102.334,246.354 110.327,252.196 111.423 C 256.679 112.264,261.674 111.355,265.027 109.088 C 268.417 106.795,272.222 99.872,272.195 96.046 C 272.154 90.438,267.016 83.128,261.704 81.121 C 258.447 79.890,252.713 80.033,249.600 81.423 M88.807 161.874 C 87.198 162.721,84.719 164.868,83.299 166.645 C 81.181 169.296,80.660 170.829,80.403 175.178 C 80.124 179.887,80.371 180.920,82.614 184.410 C 89.010 194.364,103.025 194.389,109.323 184.457 C 113.819 177.368,112.282 168.980,105.478 163.473 C 101.435 160.200,93.445 159.434,88.807 161.874 M169.371 161.570 C 166.068 163.068,161.452 168.317,160.794 171.322 C 160.514 172.604,160.120 174.174,159.920 174.811 C 159.720 175.448,159.980 177.560,160.497 179.505 C 162.653 187.612,169.777 192.646,177.757 191.701 C 191.956 190.020,196.939 172.004,185.599 163.355 C 183.040 161.403,181.373 160.870,177.178 160.661 C 174.027 160.504,170.922 160.866,169.371 161.570 M247.743 162.579 C 236.759 169.163,237.800 185.052,249.565 190.396 C 257.687 194.085,266.739 190.553,270.600 182.187 C 272.753 177.524,272.606 174.350,269.998 169.115 C 265.814 160.720,255.768 157.769,247.743 162.579 M440.919 210.930 C 443.004 212.310,445.100 214.708,446.190 216.960 L 448.000 220.699 448.000 342.456 L 448.000 464.213 384.000 464.213 L 320.000 464.213 320.001 441.813 L 320.001 419.413 321.831 423.110 C 324.622 428.748,329.176 431.360,336.217 431.360 C 341.127 431.360,342.318 431.035,345.044 428.957 C 350.878 424.507,352.907 418.827,351.143 411.881 C 347.639 398.081,328.165 396.094,321.831 408.890 L 320.001 412.587 320.019 375.893 C 320.037 339.365,320.045 339.216,321.633 342.712 C 325.283 350.751,335.731 354.235,343.583 350.033 C 346.328 348.564,350.637 343.275,351.206 340.678 C 351.486 339.396,351.846 337.914,352.004 337.385 C 352.603 335.386,350.538 328.883,348.424 326.111 C 345.844 322.729,340.433 320.037,336.213 320.037 C 330.139 320.037,322.494 325.384,320.886 330.756 C 320.441 332.244,320.125 318.465,320.092 296.107 C 320.038 259.432,320.056 259.028,321.604 262.435 C 324.807 269.487,332.378 273.365,339.316 271.509 C 344.600 270.096,347.019 268.314,349.573 263.956 C 355.787 253.353,348.245 240.396,335.860 240.396 C 329.084 240.396,324.103 243.706,321.359 250.033 C 320.161 252.796,320.064 251.379,320.033 230.596 L 320.000 208.179 378.730 208.410 L 437.459 208.640 440.919 210.930 M94.293 240.206 C 93.824 240.363,92.391 240.722,91.109 241.004 C 87.982 241.693,82.789 246.366,81.366 249.773 C 79.983 253.083,79.874 258.404,81.121 261.704 C 83.128 267.016,90.438 272.154,96.046 272.195 C 99.918 272.222,106.795 268.417,109.141 264.949 C 111.574 261.353,112.403 254.905,110.985 250.609 C 108.981 244.538,99.333 238.525,94.293 240.206 M172.679 240.601 C 165.259 242.370,160.230 248.591,160.230 256.000 C 160.230 269.489,175.827 276.825,186.109 268.173 C 189.394 265.409,191.963 260.067,191.963 256.000 C 191.963 249.383,186.668 242.463,180.240 240.678 C 176.711 239.697,176.477 239.695,172.679 240.601 M251.958 240.581 C 240.148 243.542,236.125 258.512,244.806 267.194 C 253.523 275.911,268.197 272.014,271.396 260.132 C 274.526 248.511,263.711 237.634,251.958 240.581 M398.080 240.208 C 397.611 240.363,396.200 240.716,394.946 240.992 C 389.535 242.180,384.037 249.744,384.037 256.000 C 384.037 265.864,394.114 273.970,403.316 271.509 C 408.600 270.096,411.019 268.314,413.573 263.956 C 419.292 254.198,413.336 242.152,401.920 240.387 C 400.277 240.133,398.549 240.052,398.080 240.208 M88.890 321.777 C 76.144 328.272,77.909 347.208,91.625 351.132 C 104.912 354.932,115.913 341.948,110.251 329.147 C 106.808 321.364,96.608 317.845,88.890 321.777 M169.288 321.633 C 161.249 325.283,157.765 335.731,161.967 343.583 C 163.436 346.328,168.725 350.637,171.322 351.206 C 172.604 351.486,174.161 351.874,174.781 352.068 C 177.313 352.858,183.767 350.366,186.882 347.395 C 195.164 339.496,192.785 326.403,182.194 321.591 C 177.826 319.607,173.719 319.620,169.288 321.633 M249.565 321.604 C 237.487 327.090,236.885 344.033,248.556 349.987 C 258.116 354.864,268.643 350.033,271.468 339.472 C 273.971 330.112,265.953 320.037,256.000 320.037 C 254.357 320.037,251.461 320.742,249.565 321.604 M393.806 321.591 C 383.183 326.417,380.836 339.496,389.166 347.441 C 392.234 350.366,398.745 352.788,401.408 351.995 C 401.924 351.842,403.396 351.486,404.678 351.206 C 407.275 350.637,412.564 346.328,414.033 343.583 C 418.235 335.731,414.751 325.283,406.712 321.633 C 402.281 319.620,398.174 319.607,393.806 321.591 M89.625 401.565 C 83.703 404.133,80.213 409.488,80.213 416.008 C 80.213 424.881,87.127 431.787,96.008 431.787 C 104.877 431.787,111.787 424.873,111.787 416.000 C 111.787 404.536,100.190 396.982,89.625 401.565 M249.600 401.423 C 244.482 403.707,239.763 410.820,239.805 416.186 C 239.854 422.334,246.354 430.327,252.196 431.423 C 256.679 432.264,261.674 431.355,265.027 429.088 C 268.417 426.795,272.222 419.872,272.195 416.046 C 272.154 410.438,267.016 403.128,261.704 401.121 C 258.447 399.890,252.713 400.033,249.600 401.423 M392.677 402.044 C 387.180 404.765,384.427 409.422,384.427 416.000 C 384.427 422.725,387.191 427.287,392.956 430.078 C 405.421 436.112,418.560 425.337,415.143 411.881 C 412.682 402.187,401.914 397.472,392.677 402.044 " stroke="none" fill-rule="evenodd" fill="black"></path></svg>