<svg xmlns="http://www.w3.org/2000/svg" width="512" height="512" viewBox="0 0 512 512"><path d="M68.499 17.439 C 52.511 21.313,39.424 33.970,33.589 51.200 C 32.059 55.720,31.992 63.674,31.771 267.093 C 31.607 418.391,31.809 479.579,32.482 482.825 C 33.559 488.016,37.268 492.841,41.559 494.634 C 45.149 496.134,153.510 496.352,156.288 494.865 C 160.228 492.756,160.427 490.610,160.427 450.127 C 160.427 414.488,160.528 411.893,162.043 408.926 C 167.942 397.368,184.588 397.388,190.190 408.960 C 191.954 412.603,192.000 413.699,192.000 451.748 L 192.000 490.798 194.502 493.300 L 197.004 495.802 333.516 495.581 L 470.028 495.360 473.308 492.745 C 475.111 491.307,477.355 488.619,478.293 486.772 C 479.978 483.456,480.000 481.725,480.000 350.720 C 480.000 242.046,479.791 217.177,478.845 213.333 C 474.766 196.756,462.055 183.240,445.440 177.814 C 441.142 176.411,435.663 176.257,380.373 175.987 L 320.000 175.693 320.000 117.328 C 320.000 78.538,319.688 57.447,319.070 54.442 C 316.353 41.237,306.574 28.193,294.739 21.989 C 283.218 15.950,289.127 16.232,175.360 16.299 C 95.803 16.345,71.965 16.600,68.499 17.439 M103.074 81.829 C 106.985 83.825,108.780 85.764,110.474 89.817 C 112.788 95.355,111.612 102.614,107.701 106.940 C 105.239 109.662,100.109 111.787,96.000 111.787 C 89.387 111.787,84.062 108.254,81.526 102.183 C 79.213 96.647,80.377 89.448,84.299 85.031 C 88.316 80.508,97.437 78.952,103.074 81.829 M184.993 82.979 C 194.531 89.291,193.968 103.794,183.957 109.661 C 177.330 113.545,169.190 112.203,164.082 106.385 C 157.556 98.953,159.907 86.735,168.792 81.906 C 173.260 79.478,180.419 79.952,184.993 82.979 M262.227 81.366 C 267.100 83.402,272.204 90.888,272.204 96.000 C 272.204 98.745,270.050 103.715,267.700 106.390 C 261.273 113.710,250.722 113.705,244.289 106.378 C 239.816 101.284,238.948 94.697,241.966 88.747 C 243.379 85.960,247.338 82.239,250.027 81.170 C 253.120 79.940,259.041 80.035,262.227 81.366 M105.292 163.283 C 116.910 172.145,111.801 190.412,97.315 191.804 C 82.466 193.231,74.414 174.411,85.464 164.105 C 88.544 161.232,91.264 160.423,96.964 160.683 C 101.139 160.873,102.820 161.398,105.292 163.283 M185.590 163.348 C 189.243 166.134,191.954 171.430,191.981 175.832 C 192.007 180.002,188.357 186.905,184.884 189.252 C 175.142 195.838,161.564 189.489,160.603 177.898 C 160.102 171.866,160.743 169.631,164.050 165.865 C 167.814 161.578,170.913 160.350,177.178 160.661 C 181.369 160.869,183.041 161.404,185.590 163.348 M264.124 162.525 C 275.179 169.004,274.207 185.049,262.435 190.396 C 254.720 193.901,245.693 190.705,241.718 183.062 C 239.882 179.532,239.973 172.651,241.908 168.632 C 245.581 161.001,256.434 158.018,264.124 162.525 M440.919 210.930 C 443.004 212.310,445.100 214.708,446.190 216.960 L 448.000 220.699 448.000 340.896 C 448.000 451.542,447.888 461.216,446.588 462.653 C 445.244 464.138,442.138 464.213,382.588 464.213 L 320.000 464.213 320.001 441.813 L 320.001 419.413 321.831 423.110 C 324.622 428.748,329.176 431.360,336.217 431.360 C 341.127 431.360,342.318 431.035,345.044 428.957 C 350.878 424.507,352.907 418.827,351.143 411.881 C 347.639 398.081,328.165 396.094,321.831 408.890 L 320.001 412.587 320.019 375.893 C 320.037 339.365,320.045 339.216,321.633 342.712 C 325.283 350.751,335.731 354.235,343.583 350.033 C 346.328 348.564,350.637 343.275,351.206 340.678 C 351.486 339.396,351.846 337.914,352.004 337.385 C 352.603 335.386,350.538 328.883,348.424 326.111 C 345.844 322.729,340.433 320.037,336.213 320.037 C 330.139 320.037,322.494 325.384,320.886 330.756 C 320.441 332.244,320.125 318.465,320.092 296.107 C 320.038 259.432,320.056 259.028,321.604 262.435 C 324.807 269.487,332.378 273.365,339.316 271.509 C 344.600 270.096,347.019 268.314,349.573 263.956 C 355.787 253.353,348.245 240.396,335.860 240.396 C 329.084 240.396,324.103 243.706,321.359 250.033 C 320.161 252.796,320.064 251.379,320.033 230.596 L 320.000 208.179 378.730 208.410 L 437.459 208.640 440.919 210.930 M100.114 240.702 C 104.350 241.878,109.718 246.770,110.985 250.609 C 112.403 254.905,111.574 261.353,109.141 264.949 C 106.795 268.417,99.918 272.222,96.046 272.195 C 90.438 272.154,83.128 267.016,81.121 261.704 C 79.874 258.404,79.983 253.083,81.366 249.773 C 82.789 246.366,87.982 241.693,91.109 241.004 C 92.391 240.722,93.824 240.363,94.293 240.206 C 95.817 239.698,96.800 239.781,100.114 240.702 M180.240 240.678 C 186.668 242.463,191.963 249.383,191.963 256.000 C 191.963 260.067,189.394 265.409,186.109 268.173 C 175.843 276.811,160.427 269.601,160.427 256.162 C 160.427 248.382,165.137 242.399,172.679 240.601 C 176.477 239.695,176.711 239.697,180.240 240.678 M264.642 242.753 C 269.406 245.892,271.644 250.172,271.644 256.145 C 271.644 260.329,271.224 261.774,269.144 264.733 C 265.662 269.688,261.788 271.758,256.000 271.758 C 250.212 271.758,246.338 269.688,242.856 264.733 C 238.103 257.970,239.911 247.973,246.771 243.087 C 252.071 239.314,259.217 239.180,264.642 242.753 M398.080 240.208 C 397.611 240.363,396.200 240.716,394.946 240.992 C 389.535 242.180,384.037 249.744,384.037 256.000 C 384.037 265.864,394.114 273.970,403.316 271.509 C 408.600 270.096,411.019 268.314,413.573 263.956 C 419.292 254.198,413.336 242.152,401.920 240.387 C 400.277 240.133,398.549 240.052,398.080 240.208 M104.949 322.878 C 112.150 327.644,113.977 338.790,108.639 345.395 C 105.089 349.787,101.393 351.760,96.579 351.833 C 91.439 351.910,86.650 349.565,83.255 345.307 C 80.921 342.381,80.640 341.411,80.640 336.285 C 80.640 331.491,81.016 329.973,82.917 327.101 C 87.652 319.946,97.629 318.034,104.949 322.878 M181.562 321.321 C 185.779 323.083,188.481 325.682,190.387 329.813 C 196.610 343.297,181.616 357.096,168.417 350.033 C 165.801 348.633,161.387 343.338,160.763 340.852 C 160.465 339.665,160.393 336.628,160.603 334.102 C 161.461 323.751,171.999 317.325,181.562 321.321 M261.776 321.321 C 272.562 325.828,275.282 339.118,267.093 347.307 C 257.117 357.283,240.133 349.957,240.337 335.765 C 240.499 324.493,251.549 317.048,261.776 321.321 M393.806 321.591 C 383.183 326.417,380.836 339.496,389.166 347.441 C 392.234 350.366,398.745 352.788,401.408 351.995 C 401.924 351.842,403.396 351.486,404.678 351.206 C 407.275 350.637,412.564 346.328,414.033 343.583 C 418.235 335.731,414.751 325.283,406.712 321.633 C 402.281 319.620,398.174 319.607,393.806 321.591 M103.074 401.829 C 106.985 403.825,108.780 405.764,110.474 409.817 C 112.788 415.355,111.612 422.614,107.701 426.940 C 105.239 429.662,100.109 431.787,96.000 431.787 C 89.387 431.787,84.062 428.254,81.526 422.183 C 79.213 416.647,80.377 409.448,84.299 405.031 C 88.316 400.508,97.437 398.952,103.074 401.829 M262.227 401.366 C 267.100 403.402,272.204 410.888,272.204 416.000 C 272.204 418.745,270.050 423.715,267.700 426.390 C 261.273 433.710,250.722 433.705,244.289 426.378 C 239.816 421.284,238.948 414.697,241.966 408.747 C 243.379 405.960,247.338 402.239,250.027 401.170 C 253.120 399.940,259.041 400.035,262.227 401.366 M392.677 402.044 C 387.180 404.765,384.427 409.422,384.427 416.000 C 384.427 422.725,387.191 427.287,392.956 430.078 C 405.421 436.112,418.560 425.337,415.143 411.881 C 412.682 402.187,401.914 397.472,392.677 402.044 " stroke="none" fill-rule="evenodd" fill="black"></path></svg>