<svg xmlns="http://www.w3.org/2000/svg" width="512" height="512" viewBox="0 0 512 512"><path d="M88.890 65.831 C 86.726 66.902,84.250 69.087,82.917 71.102 L 80.640 74.542 80.640 180.845 L 80.640 287.147 82.974 295.496 C 88.036 313.601,95.826 327.177,108.324 339.676 C 120.823 352.174,134.399 359.964,152.504 365.026 L 160.853 367.360 231.680 367.360 L 302.507 367.360 310.162 365.411 C 348.395 355.678,375.932 325.934,382.714 287.042 C 383.747 281.120,384.000 271.065,384.000 235.932 L 384.000 192.194 398.720 191.779 C 408.703 191.498,415.067 190.908,418.498 189.947 C 438.881 184.235,455.161 167.999,461.788 146.773 C 463.697 140.660,463.787 139.228,463.787 114.773 C 463.787 90.025,463.721 89.011,461.821 84.308 C 459.489 78.536,453.568 71.661,448.240 68.539 C 440.198 63.826,448.429 64.028,263.680 64.014 L 92.587 64.001 88.890 65.831 M351.573 188.877 C 351.573 278.078,351.514 281.558,349.892 287.903 C 344.258 309.931,327.183 327.407,305.028 333.821 L 298.240 335.787 232.107 335.787 L 165.973 335.787 159.309 333.855 C 136.998 327.389,120.347 310.706,114.099 288.558 C 112.271 282.077,112.255 281.311,111.986 189.227 L 111.716 96.427 231.645 96.427 L 351.573 96.427 351.573 188.877 M431.616 117.120 C 431.366 137.360,431.312 137.916,429.146 142.507 C 427.929 145.088,425.258 148.865,423.212 150.901 C 416.085 157.990,408.238 160.408,392.320 160.420 L 384.000 160.427 384.000 128.427 L 384.000 96.427 407.936 96.427 L 431.871 96.427 431.616 117.120 M57.600 401.424 C 52.307 403.804,47.824 410.487,47.824 416.000 C 47.824 421.532,52.992 428.875,58.296 430.879 C 59.964 431.509,113.098 431.787,232.190 431.787 C 375.910 431.787,404.126 431.596,406.427 430.612 C 412.936 427.827,416.980 419.718,415.396 412.628 C 414.411 408.216,412.965 406.034,409.044 403.043 L 405.893 400.640 233.026 400.457 C 89.537 400.305,59.725 400.469,57.600 401.424 " stroke="none" fill-rule="evenodd" fill="black"></path></svg>