<svg xmlns="http://www.w3.org/2000/svg" width="512" height="512" viewBox="0 0 512 512"><path d="M80.232 193.493 C 80.251 321.927,80.265 323.018,81.989 326.827 C 84.422 332.201,115.799 363.578,121.173 366.011 C 124.971 367.730,126.189 367.749,232.107 367.749 C 334.680 367.749,339.344 367.682,342.613 366.164 C 344.793 365.151,352.524 357.987,364.003 346.342 C 378.653 331.481,382.166 327.457,382.989 324.594 C 383.728 322.027,384.000 303.724,384.000 256.541 L 384.000 192.000 401.651 192.000 C 417.517 192.000,419.655 191.829,422.803 190.305 C 424.988 189.247,433.048 181.790,444.248 170.465 C 458.896 155.653,462.378 151.675,463.203 148.808 C 463.907 146.359,464.208 134.990,464.195 111.261 C 464.177 79.997,464.048 76.949,462.600 73.813 C 460.694 69.682,457.992 67.083,453.776 65.321 C 450.956 64.142,430.645 64.000,265.414 64.000 L 80.213 64.000 80.232 193.493 M431.787 117.161 L 431.787 137.895 420.409 149.161 L 409.032 160.427 396.516 160.427 L 384.000 160.427 384.000 128.427 L 384.000 96.427 407.893 96.427 L 431.787 96.427 431.787 117.161 M47.787 416.000 L 47.787 431.787 232.107 431.787 L 416.427 431.787 416.427 416.000 L 416.427 400.213 232.107 400.213 L 47.787 400.213 47.787 416.000 " stroke="none" fill-rule="evenodd" fill="black"></path></svg>