<svg xmlns="http://www.w3.org/2000/svg" width="512" height="512" viewBox="0 0 512 512"><path d="M88.890 65.825 C 86.732 66.897,84.247 69.092,82.917 71.102 L 80.640 74.542 80.640 180.845 L 80.640 287.147 82.528 294.224 C 87.542 313.013,95.091 326.228,108.431 339.569 C 121.619 352.757,134.420 360.131,153.258 365.393 C 159.912 367.251,160.901 367.280,228.823 367.564 C 295.957 367.846,297.863 367.809,306.477 366.062 C 346.182 358.007,375.803 327.378,382.698 287.248 C 383.750 281.127,384.000 271.259,384.000 235.932 L 384.000 192.194 398.720 191.794 C 410.933 191.463,414.457 191.066,419.413 189.466 C 440.715 182.588,456.223 166.507,462.230 145.067 C 463.572 140.275,463.784 136.092,463.785 114.347 C 463.787 89.990,463.722 89.014,461.806 84.270 C 459.042 77.424,452.634 70.681,445.605 67.221 L 439.930 64.427 266.258 64.208 L 92.587 63.990 88.890 65.825 M431.628 117.120 C 431.361 137.773,431.355 137.823,428.988 142.643 C 422.688 155.473,412.608 160.427,392.803 160.427 L 384.000 160.427 384.000 128.427 L 384.000 96.427 407.948 96.427 L 431.897 96.427 431.628 117.120 M57.600 401.423 C 52.482 403.707,47.763 410.820,47.805 416.186 C 47.853 422.212,54.362 430.353,59.928 431.348 C 61.464 431.622,139.934 431.737,234.306 431.603 L 405.893 431.360 409.044 428.957 C 414.878 424.506,416.907 418.827,415.143 411.881 C 413.972 407.271,411.420 404.175,406.861 401.837 C 403.779 400.257,399.123 400.214,231.927 400.247 C 90.318 400.274,59.711 400.481,57.600 401.423 " stroke="none" fill-rule="evenodd" fill="black"></path></svg>