<svg xmlns="http://www.w3.org/2000/svg" width="512" height="512" viewBox="0 0 512 512"><path d="M131.413 33.654 C 115.654 38.115,102.772 50.581,97.891 66.098 L 96.000 72.107 96.000 256.000 L 96.000 439.893 97.891 445.902 C 102.145 459.425,113.946 472.076,126.895 476.996 C 135.803 480.381,141.206 480.512,260.693 480.237 C 367.893 479.991,376.244 479.868,380.949 478.465 C 396.671 473.777,409.749 460.702,414.474 444.949 C 415.902 440.186,416.005 429.510,416.242 260.693 C 416.419 134.984,416.216 79.367,415.564 74.371 C 413.995 62.350,410.379 54.988,401.760 46.272 C 396.382 40.833,390.971 37.259,384.297 34.738 L 379.307 32.853 257.280 32.710 C 160.684 32.597,134.453 32.794,131.413 33.654 M376.109 66.406 C 377.635 67.495,379.939 69.769,381.229 71.460 L 383.573 74.534 383.573 256.068 L 383.573 437.602 380.964 440.826 C 379.529 442.599,377.293 444.842,375.995 445.811 C 373.637 447.572,373.533 447.573,256.000 447.573 C 138.467 447.573,138.363 447.572,136.005 445.811 C 134.707 444.842,132.471 442.599,131.036 440.826 L 128.427 437.602 128.177 259.121 C 128.040 160.956,128.167 78.959,128.459 76.904 C 128.881 73.942,129.837 72.322,133.074 69.085 C 135.319 66.840,138.072 64.826,139.192 64.611 C 140.311 64.396,193.451 64.267,257.280 64.324 L 373.333 64.427 376.109 66.406 M153.157 97.616 C 149.629 99.153,145.258 104.337,144.641 107.715 C 144.361 109.250,144.246 126.471,144.386 145.984 L 144.640 181.460 146.930 184.920 C 148.309 187.003,150.709 189.100,152.960 190.190 L 156.699 192.000 256.000 192.000 L 355.301 192.000 359.040 190.190 C 361.291 189.100,363.691 187.003,365.070 184.920 L 367.360 181.460 367.614 145.984 C 367.754 126.471,367.639 109.250,367.359 107.715 C 366.725 104.243,362.316 99.109,358.654 97.580 C 354.628 95.897,157.021 95.932,153.157 97.616 M336.019 144.000 L 335.787 160.000 256.000 160.000 L 176.213 160.000 175.981 144.000 L 175.749 128.000 256.000 128.000 L 336.251 128.000 336.019 144.000 M159.960 225.558 C 150.118 229.350,144.213 237.716,144.213 247.869 C 144.213 263.721,159.362 275.373,174.320 271.024 C 191.488 266.033,197.595 245.221,185.696 232.258 C 180.812 226.938,175.123 224.428,168.107 224.500 C 165.056 224.531,161.390 225.007,159.960 225.558 M245.031 227.059 C 237.360 230.893,233.112 237.183,232.323 245.878 C 231.421 255.830,236.304 264.612,245.297 269.212 C 263.751 278.649,284.589 261.421,279.011 241.338 C 277.393 235.513,272.949 230.214,267.156 227.200 C 259.705 223.324,252.596 223.279,245.031 227.059 M334.080 226.395 C 313.971 236.009,316.294 264.807,337.680 271.024 C 349.410 274.434,362.711 267.426,366.572 255.802 C 368.323 250.532,367.901 242.385,365.634 237.682 C 361.719 229.556,354.524 225.062,344.747 224.635 C 339.389 224.401,337.652 224.687,334.080 226.395 M161.965 304.940 C 150.407 308.170,143.475 318.048,144.376 330.003 C 145.493 344.824,159.259 354.792,173.552 351.130 C 185.228 348.139,192.670 337.986,191.764 326.284 C 190.610 311.371,176.111 300.986,161.965 304.940 M249.859 304.940 C 238.167 308.207,231.243 318.213,232.336 330.264 C 233.268 340.540,240.270 348.496,250.745 351.179 C 255.490 352.395,256.495 352.398,261.106 351.217 C 272.551 348.285,279.755 339.444,279.856 328.206 C 279.908 322.447,278.503 318.315,274.852 313.483 C 269.290 306.125,258.642 302.485,249.859 304.940 M337.752 304.940 C 329.679 307.196,323.046 313.763,320.847 321.677 C 320.350 323.469,320.008 342.388,320.005 368.275 C 319.999 417.229,319.931 416.613,326.141 423.668 C 330.719 428.868,335.274 431.091,342.403 431.603 C 352.428 432.322,361.446 426.960,365.774 417.707 L 367.770 413.440 367.778 368.579 C 367.785 330.229,367.594 323.152,366.460 319.825 C 362.683 308.738,349.191 301.743,337.752 304.940 M160.349 385.274 C 155.501 386.831,149.001 392.434,146.610 397.117 C 144.044 402.143,143.538 410.999,145.521 416.192 C 147.600 421.636,153.505 427.755,158.930 430.089 C 162.537 431.641,164.444 431.916,169.352 431.596 C 176.735 431.113,181.188 428.975,185.859 423.668 C 196.211 411.907,193.063 394.614,179.196 387.067 C 173.765 384.111,166.208 383.392,160.349 385.274 M247.893 385.461 C 241.943 387.496,235.411 394.118,233.410 400.144 C 231.597 405.600,231.962 413.689,234.222 418.172 C 236.266 422.226,241.241 427.299,245.333 429.502 C 249.947 431.986,261.759 432.135,266.240 429.766 C 280.358 422.304,284.217 404.296,274.205 392.599 C 267.977 385.323,257.002 382.345,247.893 385.461 " stroke="none" fill="black" fill-rule="evenodd"></path></svg>