<svg xmlns="http://www.w3.org/2000/svg" width="512" height="512" viewBox="0 0 512 512"><path d="M131.648 33.740 C 124.601 35.638,117.505 39.643,111.724 44.986 C 105.143 51.068,101.436 56.739,98.363 65.427 L 96.000 72.107 96.000 256.000 L 96.000 439.893 98.363 446.573 C 103.989 462.478,115.436 473.358,131.885 478.434 C 136.705 479.921,142.931 480.000,256.000 480.000 C 369.069 480.000,375.295 479.921,380.115 478.434 C 397.188 473.165,409.222 461.145,414.430 444.160 C 415.934 439.257,416.000 431.299,416.000 256.000 C 416.000 80.701,415.934 72.743,414.430 67.840 C 409.214 50.828,396.190 37.918,379.987 33.697 C 372.880 31.846,138.529 31.886,131.648 33.740 M358.827 81.818 C 362.887 83.683,364.706 85.586,366.474 89.817 C 368.431 94.500,368.431 161.500,366.474 166.183 C 364.706 170.414,362.887 172.317,358.827 174.182 C 355.577 175.674,350.645 175.750,256.186 175.768 C 168.792 175.784,156.584 175.630,153.817 174.474 C 149.586 172.706,147.683 170.887,145.818 166.827 C 144.379 163.692,144.249 160.539,144.232 128.186 C 144.216 98.385,144.416 92.475,145.526 89.817 C 147.294 85.586,149.113 83.683,153.173 81.818 C 156.424 80.326,161.339 80.251,256.000 80.251 C 350.661 80.251,355.576 80.326,358.827 81.818 M177.920 226.439 C 197.974 235.819,195.632 264.829,174.320 271.024 C 168.476 272.723,163.405 272.171,157.249 269.166 C 138.773 260.146,140.404 232.725,159.843 225.558 C 164.641 223.789,173.140 224.203,177.920 226.439 M267.156 227.200 C 275.974 231.787,280.542 240.218,279.642 250.243 C 279.085 256.453,275.446 263.127,270.576 266.873 C 255.609 278.384,234.034 268.913,232.344 250.088 C 231.079 235.996,241.743 224.427,256.000 224.427 C 260.908 224.427,262.663 224.863,267.156 227.200 M352.157 225.558 C 364.325 230.044,370.708 243.708,366.460 256.175 C 362.606 267.487,349.238 274.384,337.680 271.024 C 316.368 264.829,314.026 235.819,334.080 226.439 C 338.860 224.203,347.359 223.789,352.157 225.558 M177.285 305.956 C 188.267 310.545,194.201 323.087,190.847 334.623 C 188.399 343.042,182.234 348.906,173.468 351.152 C 162.479 353.967,152.046 349.054,146.824 338.606 C 139.945 324.838,147.015 309.118,161.965 304.940 C 166.460 303.683,172.863 304.108,177.285 305.956 M266.841 306.851 C 274.093 310.351,278.901 317.502,279.656 325.912 C 280.184 331.788,278.986 336.421,275.628 341.490 C 272.393 346.374,267.675 349.534,261.106 351.217 C 256.518 352.393,255.482 352.393,250.894 351.217 C 244.622 349.611,239.801 346.517,236.784 342.163 C 230.698 333.382,230.536 323.796,236.317 314.680 C 242.612 304.754,255.596 301.423,266.841 306.851 M354.751 306.859 C 357.203 308.042,360.550 310.577,362.189 312.492 C 367.901 319.165,367.872 318.856,367.602 369.587 C 367.364 414.445,367.332 415.200,365.512 418.598 C 362.993 423.302,356.999 428.643,352.166 430.489 C 347.000 432.462,338.131 431.950,333.117 429.390 C 328.190 426.874,322.815 420.475,321.276 415.294 C 320.218 411.731,320.002 403.774,320.009 368.698 C 320.015 345.434,320.258 324.953,320.550 323.185 C 321.323 318.510,325.858 311.486,329.960 308.611 C 337.341 303.439,346.348 302.803,354.751 306.859 M178.044 386.406 C 183.294 389.084,186.279 391.927,188.903 396.748 C 193.699 405.561,192.537 416.081,185.939 423.577 C 181.283 428.867,176.759 431.089,169.597 431.603 C 162.401 432.119,157.354 430.362,152.085 425.505 C 146.193 420.075,144.662 416.448,144.650 407.893 C 144.641 401.511,144.921 400.162,146.981 396.658 C 150.005 391.514,155.521 386.828,160.401 385.259 C 165.523 383.612,173.596 384.136,178.044 386.406 M266.801 386.838 C 280.753 393.909,284.142 411.865,273.752 423.668 C 268.433 429.712,264.665 431.340,256.000 431.340 C 247.335 431.340,243.567 429.712,238.248 423.668 C 229.688 413.943,230.094 400.384,239.217 391.307 C 246.842 383.721,257.304 382.026,266.801 386.838 " stroke="none" fill-rule="evenodd" fill="black"></path></svg>