<svg xmlns="http://www.w3.org/2000/svg" width="512" height="512" viewBox="0 0 512 512"><path d="M104.497 34.016 C 101.158 36.052,97.457 40.460,96.640 43.372 C 95.795 46.383,95.808 465.660,96.652 468.678 C 97.486 471.657,101.886 476.680,105.300 478.550 C 107.762 479.899,118.300 480.000,256.000 480.000 C 393.700 480.000,404.238 479.899,406.700 478.550 C 410.114 476.680,414.514 471.657,415.348 468.678 C 416.200 465.631,416.200 46.369,415.348 43.322 C 414.444 40.094,409.754 34.964,406.441 33.580 C 404.159 32.626,378.013 32.427,255.387 32.430 C 112.449 32.433,107.000 32.490,104.497 34.016 M367.787 128.000 L 367.787 175.787 256.000 175.787 L 144.213 175.787 144.213 128.000 L 144.213 80.213 256.000 80.213 L 367.787 80.213 367.787 128.000 M192.000 248.320 L 192.000 272.213 168.107 272.213 L 144.213 272.213 144.213 248.320 L 144.213 224.427 168.107 224.427 L 192.000 224.427 192.000 248.320 M279.893 248.320 L 279.893 272.213 256.000 272.213 L 232.107 272.213 232.107 248.320 L 232.107 224.427 256.000 224.427 L 279.893 224.427 279.893 248.320 M367.787 248.320 L 367.787 272.213 343.893 272.213 L 320.000 272.213 320.000 248.320 L 320.000 224.427 343.893 224.427 L 367.787 224.427 367.787 248.320 M192.000 328.107 L 192.000 352.427 168.107 352.427 L 144.213 352.427 144.213 328.107 L 144.213 303.787 168.107 303.787 L 192.000 303.787 192.000 328.107 M279.893 328.107 L 279.893 352.427 256.000 352.427 L 232.107 352.427 232.107 328.107 L 232.107 303.787 256.000 303.787 L 279.893 303.787 279.893 328.107 M367.787 367.787 L 367.787 431.787 343.893 431.787 L 320.000 431.787 320.000 367.787 L 320.000 303.787 343.893 303.787 L 367.787 303.787 367.787 367.787 M192.000 407.893 L 192.000 431.787 168.107 431.787 L 144.213 431.787 144.213 407.893 L 144.213 384.000 168.107 384.000 L 192.000 384.000 192.000 407.893 M279.893 407.893 L 279.893 431.787 256.000 431.787 L 232.107 431.787 232.107 407.893 L 232.107 384.000 256.000 384.000 L 279.893 384.000 279.893 407.893 " stroke="none" fill-rule="evenodd" fill="black"></path></svg>