<svg xmlns="http://www.w3.org/2000/svg" viewBox="0 0 512 512"><path d="M119.743 34.579 C 113.579 38.274,112.261 41.450,111.915 53.438 L 111.617 63.783 97.835 64.247 C 82.675 64.757,78.437 65.636,68.584 70.315 C 51.323 78.512,38.685 93.844,33.516 112.860 C 32.185 117.754,32.044 130.179,31.780 265.813 C 31.587 364.694,31.787 416.196,32.386 421.788 C 34.120 437.999,40.100 450.494,51.423 461.568 C 62.306 472.212,74.089 477.805,89.299 479.547 C 99.638 480.732,412.362 480.732,422.701 479.547 C 438.209 477.770,450.729 471.660,461.568 460.577 C 472.441 449.460,477.912 437.700,479.614 421.788 C 480.213 416.196,480.413 364.694,480.220 265.813 C 479.956 130.179,479.815 117.754,478.484 112.860 C 473.248 93.601,460.426 78.259,442.591 69.913 C 433.433 65.627,429.015 64.746,414.165 64.247 L 400.383 63.783 400.085 53.438 C 399.824 44.385,399.538 42.693,397.792 39.886 C 391.635 29.983,376.365 29.983,370.208 39.886 C 368.459 42.698,368.176 44.382,367.912 53.547 L 367.611 64.000 256.000 64.000 L 144.389 64.000 144.088 53.547 C 143.824 44.382,143.541 42.698,141.792 39.886 C 137.287 32.639,127.078 30.182,119.743 34.579 M427.063 98.195 C 436.967 101.901,444.803 110.787,446.873 120.661 C 447.473 123.524,447.972 129.995,447.982 135.040 L 448.000 144.213 256.000 144.213 L 64.000 144.213 64.000 135.537 C 64.000 123.065,65.257 117.013,69.075 111.106 C 72.895 105.196,77.763 101.160,84.328 98.460 L 89.173 96.467 255.755 96.447 C 422.217 96.427,422.339 96.428,427.063 98.195 M447.803 299.733 L 447.573 423.680 445.166 428.889 C 442.120 435.479,435.520 442.051,428.800 445.185 L 423.680 447.573 256.000 447.573 L 88.320 447.573 83.111 445.166 C 76.521 442.120,69.949 435.520,66.815 428.800 L 64.427 423.680 64.197 299.733 L 63.967 175.787 256.000 175.787 L 448.033 175.787 447.803 299.733 " stroke="none" fill="black" fill-rule="evenodd"></path></svg>