<svg xmlns="http://www.w3.org/2000/svg" viewBox="0 0 512 512"><path d="M119.743 34.579 C 113.579 38.274,112.261 41.450,111.915 53.438 L 111.617 63.783 97.835 64.247 C 82.675 64.757,78.437 65.636,68.584 70.315 C 51.323 78.512,38.685 93.844,33.516 112.860 C 32.185 117.754,32.044 130.179,31.780 265.813 C 31.587 364.694,31.787 416.196,32.386 421.788 C 34.120 437.999,40.100 450.494,51.423 461.568 C 62.306 472.212,74.089 477.805,89.299 479.547 C 99.638 480.732,412.362 480.732,422.701 479.547 C 438.209 477.770,450.729 471.660,461.568 460.577 C 472.441 449.460,477.912 437.700,479.614 421.788 C 480.213 416.196,480.413 364.694,480.220 265.813 C 479.956 130.179,479.815 117.754,478.484 112.860 C 473.248 93.601,460.426 78.259,442.591 69.913 C 433.433 65.627,429.015 64.746,414.165 64.247 L 400.383 63.783 400.085 53.438 C 399.824 44.385,399.538 42.693,397.792 39.886 C 391.635 29.983,376.365 29.983,370.208 39.886 C 368.459 42.698,368.176 44.382,367.912 53.547 L 367.611 64.000 256.000 64.000 L 144.389 64.000 144.088 53.547 C 143.824 44.382,143.541 42.698,141.792 39.886 C 137.287 32.639,127.078 30.182,119.743 34.579 M427.063 98.195 C 436.967 101.901,444.803 110.787,446.873 120.661 C 447.473 123.524,447.972 129.995,447.982 135.040 L 448.000 144.213 256.000 144.213 L 64.000 144.213 64.000 135.537 C 64.000 123.065,65.257 117.013,69.075 111.106 C 72.895 105.196,77.763 101.160,84.328 98.460 L 89.173 96.467 255.755 96.447 C 422.217 96.427,422.339 96.428,427.063 98.195 M447.803 299.733 L 447.573 423.680 445.166 428.889 C 442.120 435.479,435.520 442.051,428.800 445.185 L 423.680 447.573 256.000 447.573 L 88.320 447.573 83.111 445.166 C 76.521 442.120,69.949 435.520,66.815 428.800 L 64.427 423.680 64.197 299.733 L 63.967 175.787 256.000 175.787 L 448.033 175.787 447.803 299.733 M289.274 208.960 C 282.435 211.203,276.026 217.250,273.511 223.834 C 271.538 229.000,272.050 237.869,274.610 242.883 C 276.978 247.521,283.279 252.979,288.199 254.656 C 303.792 259.969,320.000 248.257,320.000 231.677 C 320.000 223.685,315.014 215.484,307.465 211.060 C 304.471 209.305,302.240 208.738,297.510 208.529 C 294.157 208.380,290.451 208.574,289.274 208.960 M366.958 209.982 C 361.415 212.496,357.875 215.456,355.438 219.613 C 345.652 236.314,358.590 257.245,377.781 255.759 C 387.863 254.978,396.162 248.166,399.024 238.320 C 402.384 226.762,395.487 213.394,384.175 209.540 C 378.752 207.692,371.601 207.875,366.958 209.982 M125.867 290.434 C 121.061 292.677,115.938 297.894,113.821 302.701 C 111.705 307.506,111.811 316.923,114.036 321.707 C 118.173 330.602,126.383 335.798,136.107 335.673 C 143.219 335.582,147.188 334.026,152.281 329.332 C 164.457 318.108,161.498 298.057,146.568 290.617 C 140.586 287.637,132.024 287.561,125.867 290.434 M206.080 290.395 C 185.971 300.009,188.294 328.807,209.680 335.024 C 221.410 338.434,234.711 331.426,238.572 319.802 C 240.323 314.532,239.901 306.385,237.634 301.682 C 233.719 293.556,226.524 289.062,216.747 288.635 C 211.389 288.401,209.652 288.687,206.080 290.395 M287.960 289.558 C 278.118 293.350,272.213 301.716,272.213 311.869 C 272.213 327.721,287.362 339.373,302.320 335.024 C 319.488 330.033,325.595 309.221,313.696 296.258 C 308.812 290.938,303.123 288.428,296.107 288.500 C 293.056 288.531,289.390 289.007,287.960 289.558 M365.432 290.617 C 350.469 298.074,347.516 318.083,359.719 329.332 C 364.812 334.026,368.781 335.582,375.893 335.673 C 383.052 335.765,387.909 333.815,392.862 328.862 C 397.815 323.909,399.765 319.052,399.673 311.893 C 399.584 304.896,398.069 300.933,393.581 295.954 C 386.726 288.350,374.597 286.050,365.432 290.617 M130.599 368.694 C 122.757 370.282,115.325 377.386,112.947 385.567 C 107.303 404.979,128.090 422.409,146.274 413.513 C 154.713 409.384,159.760 401.435,159.829 392.165 C 159.941 376.915,145.856 365.605,130.599 368.694 M209.752 368.940 C 195.964 372.793,188.656 387.135,193.725 400.395 C 196.639 408.018,202.359 413.058,210.448 415.130 C 216.082 416.574,222.136 415.948,227.032 413.417 C 230.738 411.500,235.726 406.279,237.634 402.318 C 239.901 397.615,240.323 389.468,238.572 384.198 C 234.786 372.798,221.366 365.694,209.752 368.940 M289.965 368.940 C 278.407 372.170,271.475 382.048,272.376 394.003 C 273.493 408.824,287.259 418.792,301.552 415.130 C 313.228 412.139,320.670 401.986,319.764 390.284 C 318.610 375.371,304.111 364.986,289.965 368.940 " stroke="none" fill="black" fill-rule="evenodd"></path></svg>