<svg xmlns="http://www.w3.org/2000/svg" viewBox="0 0 512 512"><path d="M111.787 48.165 L 111.787 63.904 80.427 64.165 C 49.762 64.421,48.987 64.469,45.463 66.352 C 40.565 68.969,36.063 73.643,33.860 78.396 C 32.097 82.203,32.029 83.466,32.015 113.067 L 32.000 143.787 256.000 143.787 L 480.000 143.787 479.985 113.067 C 479.971 83.466,479.903 82.203,478.140 78.396 C 475.937 73.643,471.435 68.969,466.537 66.352 C 463.013 64.469,462.238 64.421,431.573 64.165 L 400.213 63.904 400.213 48.165 L 400.213 32.427 375.893 32.427 L 351.573 32.427 351.573 48.213 L 351.573 64.000 256.000 64.000 L 160.427 64.000 160.427 48.213 L 160.427 32.427 136.107 32.427 L 111.787 32.427 111.787 48.165 M31.961 176.859 C 31.734 177.451,31.650 241.676,31.774 319.581 L 32.000 461.227 34.381 466.075 C 37.078 471.568,41.213 475.576,46.890 478.203 L 50.773 480.000 256.000 480.000 L 461.227 480.000 466.075 477.619 C 471.568 474.922,475.576 470.787,478.203 465.110 L 480.000 461.227 480.000 318.720 L 480.000 176.213 256.187 175.998 C 76.736 175.826,32.292 175.997,31.961 176.859 M318.976 209.237 C 319.718 209.980,320.000 216.183,320.000 231.790 C 320.000 250.223,319.807 253.511,318.659 254.659 C 317.511 255.807,314.223 256.000,295.790 256.000 C 280.183 256.000,273.980 255.718,273.237 254.976 C 271.780 253.518,271.780 210.695,273.237 209.237 C 274.695 207.780,317.518 207.780,318.976 209.237 M398.872 209.554 C 400.019 210.701,400.213 213.941,400.213 231.887 C 400.213 250.223,400.035 253.076,398.801 254.439 C 397.504 255.872,395.635 256.000,375.932 256.000 C 360.381 256.000,354.193 255.718,353.451 254.976 C 351.993 253.518,351.993 210.695,353.451 209.237 C 354.193 208.495,360.397 208.213,376.003 208.213 C 394.437 208.213,397.724 208.406,398.872 209.554 M159.375 311.467 C 159.582 331.969,159.467 334.180,158.145 335.147 C 157.072 335.932,151.116 336.213,135.565 336.213 C 114.706 336.213,114.427 336.190,113.115 334.317 C 112.003 332.729,111.787 329.108,111.787 312.074 C 111.787 299.572,112.130 291.086,112.677 290.063 C 113.531 288.468,114.511 288.408,136.357 288.626 L 159.147 288.853 159.375 311.467 M238.763 289.451 C 239.505 290.193,239.787 296.397,239.787 312.003 C 239.787 330.437,239.594 333.724,238.446 334.872 C 237.299 336.019,234.059 336.213,216.113 336.213 C 197.777 336.213,194.924 336.035,193.561 334.801 C 192.128 333.504,192.000 331.635,192.000 311.932 C 192.000 296.381,192.282 290.193,193.024 289.451 C 194.482 287.993,237.305 287.993,238.763 289.451 M318.976 289.451 C 319.718 290.192,320.000 296.348,320.000 311.783 C 320.000 330.414,319.822 333.288,318.588 334.653 C 317.292 336.085,315.432 336.213,296.035 336.213 C 277.955 336.213,274.701 336.019,273.554 334.872 C 272.406 333.724,272.213 330.437,272.213 312.003 C 272.213 296.397,272.495 290.193,273.237 289.451 C 274.695 287.993,317.518 287.993,318.976 289.451 M399.330 290.077 C 399.868 291.083,400.213 299.681,400.213 312.074 C 400.213 329.108,399.997 332.729,398.885 334.317 C 397.574 336.189,397.287 336.213,376.642 336.213 C 363.857 336.213,355.086 335.870,354.077 335.330 C 352.510 334.491,352.427 333.319,352.427 312.006 C 352.427 299.663,352.683 289.308,352.996 288.996 C 353.308 288.683,363.663 288.427,376.006 288.427 C 397.319 288.427,398.491 288.510,399.330 290.077 M157.923 368.670 C 159.491 369.509,159.573 370.683,159.573 392.158 L 159.573 414.762 157.384 415.594 C 156.181 416.052,146.197 416.427,135.198 416.427 C 116.338 416.427,115.103 416.330,113.493 414.720 C 111.880 413.106,111.787 411.876,111.787 392.107 C 111.787 372.338,111.880 371.107,113.493 369.493 C 115.105 367.881,116.338 367.787,135.736 367.787 C 148.260 367.787,156.916 368.131,157.923 368.670 M238.446 369.128 C 239.594 370.276,239.787 373.575,239.787 392.119 C 239.787 413.525,239.765 413.785,237.890 415.098 C 236.304 416.209,232.705 416.427,215.893 416.427 C 199.082 416.427,195.483 416.209,193.897 415.098 C 192.022 413.786,192.000 413.518,192.000 392.339 C 192.000 373.594,192.177 370.712,193.412 369.347 C 194.708 367.915,196.568 367.787,215.965 367.787 C 234.045 367.787,237.299 367.981,238.446 369.128 M318.439 369.199 C 319.873 370.496,320.000 372.369,320.000 392.191 C 320.000 413.523,319.978 413.785,318.103 415.098 C 316.517 416.209,312.918 416.427,296.107 416.427 C 279.295 416.427,275.696 416.209,274.110 415.098 C 272.235 413.785,272.213 413.525,272.213 392.119 C 272.213 373.575,272.406 370.276,273.554 369.128 C 274.701 367.981,277.941 367.787,295.887 367.787 C 314.223 367.787,317.076 367.965,318.439 369.199 " stroke="none" fill-rule="evenodd" fill="black"></path></svg>