<svg xmlns="http://www.w3.org/2000/svg" viewBox="0 0 512 512"><path d="M111.787 48.165 L 111.787 63.904 80.427 64.165 C 49.762 64.421,48.987 64.469,45.463 66.352 C 40.565 68.969,36.063 73.643,33.860 78.396 C 32.097 82.203,32.029 83.466,32.015 113.067 L 32.000 143.787 256.000 143.787 L 480.000 143.787 479.985 113.067 C 479.971 83.466,479.903 82.203,478.140 78.396 C 475.937 73.643,471.435 68.969,466.537 66.352 C 463.013 64.469,462.238 64.421,431.573 64.165 L 400.213 63.904 400.213 48.165 L 400.213 32.427 375.893 32.427 L 351.573 32.427 351.573 48.213 L 351.573 64.000 256.000 64.000 L 160.427 64.000 160.427 48.213 L 160.427 32.427 136.107 32.427 L 111.787 32.427 111.787 48.165 M31.774 326.613 L 32.000 461.227 34.381 466.075 C 37.078 471.568,41.213 475.576,46.890 478.203 L 50.773 480.000 256.000 480.000 L 461.227 480.000 466.075 477.619 C 471.568 474.922,475.576 470.787,478.203 465.110 L 480.000 461.227 480.229 326.613 L 480.458 192.000 256.003 192.000 L 31.547 192.000 31.774 326.613 " stroke="none" fill-rule="evenodd" fill="black"></path></svg>