<svg id="icons" xmlns="http://www.w3.org/2000/svg" viewBox="0 0 512 512"><path d="M119.359 34.872 C 113.592 38.529,112.275 41.895,111.933 53.863 L 111.649 63.779 98.278 64.235 C 79.655 64.871,70.898 67.545,58.373 76.424 C 43.849 86.719,34.611 102.891,32.442 121.819 C 31.029 134.154,31.286 140.513,33.280 142.507 C 34.978 144.205,36.124 144.213,256.000 144.213 C 475.876 144.213,477.022 144.205,478.720 142.507 C 480.714 140.513,480.971 134.154,479.558 121.819 C 477.389 102.891,468.151 86.719,453.627 76.424 C 441.087 67.535,432.351 64.871,413.653 64.233 L 400.213 63.775 400.213 54.668 C 400.213 46.697,399.951 45.035,398.108 41.336 C 393.728 32.548,383.573 29.662,375.359 34.872 C 369.577 38.538,368.276 41.885,367.930 53.973 L 367.644 64.000 255.929 64.000 L 144.213 64.000 144.213 54.781 C 144.213 46.690,143.956 45.045,142.108 41.336 C 137.728 32.548,127.573 29.662,119.359 34.872 M33.253 177.521 C 31.523 179.250,31.519 179.569,31.783 302.321 C 32.081 441.036,31.476 428.911,38.868 444.160 C 45.106 457.029,54.965 466.889,67.840 473.136 C 83.316 480.644,65.674 480.000,256.000 480.000 C 446.326 480.000,428.684 480.644,444.160 473.136 C 457.035 466.889,466.894 457.029,473.132 444.160 C 480.524 428.911,479.919 441.036,480.217 302.321 C 480.481 179.569,480.477 179.250,478.747 177.521 L 477.013 175.787 256.000 175.787 L 34.987 175.787 33.253 177.521 M204.617 209.097 C 219.193 211.462,230.769 217.135,240.248 226.560 C 250.663 236.914,255.313 248.538,255.259 264.078 C 255.228 272.820,253.898 279.669,250.927 286.385 C 248.763 291.277,243.180 299.313,239.496 302.838 L 236.474 305.730 240.376 308.954 C 249.098 316.162,255.228 326.046,258.645 338.409 C 261.031 347.043,261.248 361.940,259.115 370.667 C 254.878 388.006,241.503 402.918,223.759 410.085 C 203.574 418.238,181.917 417.847,164.268 409.011 C 156.070 404.907,151.406 401.321,143.939 393.384 C 133.970 382.786,131.269 375.575,134.433 368.004 C 136.969 361.933,142.294 358.400,148.907 358.400 C 154.342 358.400,158.920 361.001,162.852 366.325 C 167.985 373.273,175.157 379.369,180.696 381.493 C 190.964 385.430,204.698 384.323,215.230 378.710 C 224.577 373.728,228.693 366.600,228.693 355.397 C 228.693 343.995,225.119 336.820,216.609 331.137 C 210.253 326.893,203.432 324.306,195.840 323.261 C 186.061 321.915,183.874 321.084,180.620 317.482 C 173.472 309.571,174.934 298.249,183.754 293.208 C 185.858 292.006,189.476 290.948,192.624 290.615 C 210.733 288.699,223.541 277.943,223.565 264.632 C 223.578 257.658,221.978 253.506,217.573 249.082 C 213.012 244.502,206.825 241.876,197.548 240.586 C 184.914 238.829,175.727 242.105,167.724 251.220 C 161.988 257.753,157.454 259.971,151.693 259.060 C 140.095 257.228,134.623 244.841,140.717 234.215 C 142.071 231.855,145.904 227.354,149.234 224.212 C 156.327 217.521,167.617 211.597,177.067 209.609 C 184.145 208.120,197.112 207.879,204.617 209.097 M359.193 213.975 C 360.802 214.795,363.298 216.942,364.739 218.746 L 367.360 222.025 367.360 311.822 L 367.360 401.618 365.227 404.770 C 362.792 408.368,356.005 412.160,352.000 412.160 C 347.996 412.160,341.208 408.368,338.773 404.771 L 336.640 401.619 336.413 329.236 C 336.287 289.426,335.982 256.853,335.734 256.853 C 335.487 256.853,330.021 260.738,323.589 265.485 C 310.528 275.124,309.265 275.780,303.721 275.806 C 299.252 275.826,295.804 274.275,292.584 270.796 C 289.225 267.167,288.425 265.104,288.441 260.109 C 288.466 252.077,289.857 250.592,314.473 232.320 C 326.665 223.271,337.984 215.122,339.627 214.211 C 343.684 211.962,354.977 211.825,359.193 213.975 " stroke="none" fill-rule="evenodd" fill="black"></path></svg>