<svg id="icons" xmlns="http://www.w3.org/2000/svg" viewBox="0 0 512 512"><path d="M111.787 48.165 L 111.787 63.904 80.427 64.165 C 49.762 64.421,48.987 64.469,45.463 66.352 C 40.565 68.969,36.063 73.643,33.860 78.396 C 32.097 82.203,32.029 83.466,32.015 113.067 L 32.000 143.787 256.000 143.787 L 480.000 143.787 479.985 113.067 C 479.971 83.466,479.903 82.203,478.140 78.396 C 475.937 73.643,471.435 68.969,466.537 66.352 C 463.013 64.469,462.238 64.421,431.573 64.165 L 400.213 63.904 400.213 48.165 L 400.213 32.427 375.893 32.427 L 351.573 32.427 351.573 48.213 L 351.573 64.000 256.000 64.000 L 160.427 64.000 160.427 48.213 L 160.427 32.427 136.107 32.427 L 111.787 32.427 111.787 48.165 M31.961 176.859 C 31.734 177.451,31.650 241.676,31.774 319.581 L 32.000 461.227 34.381 466.075 C 37.078 471.568,41.213 475.576,46.890 478.203 L 50.773 480.000 256.000 480.000 L 461.227 480.000 466.075 477.619 C 471.568 474.922,475.576 470.787,478.203 465.110 L 480.000 461.227 480.000 318.720 L 480.000 176.213 256.187 175.998 C 76.736 175.826,32.292 175.997,31.961 176.859 M204.617 209.097 C 219.193 211.462,230.769 217.135,240.248 226.560 C 250.663 236.914,255.313 248.538,255.259 264.078 C 255.228 272.820,253.898 279.669,250.927 286.385 C 248.763 291.277,243.180 299.313,239.496 302.838 L 236.474 305.730 240.376 308.954 C 253.316 319.647,260.471 335.830,260.539 354.560 C 260.582 366.106,259.344 372.184,255.151 381.013 C 247.243 397.666,233.549 408.191,212.899 413.487 C 206.132 415.223,202.261 415.680,194.133 415.705 C 182.111 415.742,174.144 413.974,164.483 409.126 C 156.210 404.974,151.621 401.495,144.422 393.917 C 137.216 386.330,126.774 369.612,128.305 368.112 C 129.623 366.820,154.542 352.215,154.820 352.571 C 154.941 352.726,157.182 356.526,159.801 361.014 C 165.736 371.187,173.374 378.687,180.636 381.471 C 190.968 385.431,204.672 384.337,215.230 378.710 C 225.268 373.360,229.154 365.961,228.522 353.399 C 227.798 338.987,221.466 331.450,204.902 325.285 C 200.240 323.549,197.205 323.109,187.520 322.762 L 175.787 322.341 175.787 306.777 L 175.787 291.213 186.667 290.764 C 197.530 290.315,202.826 289.108,209.832 285.485 C 224.350 277.978,228.220 259.776,217.573 249.082 C 208.597 240.067,188.980 237.374,176.895 243.498 C 171.695 246.133,167.841 250.378,163.413 258.349 C 161.536 261.729,159.789 264.503,159.532 264.514 C 159.116 264.531,133.145 249.406,132.393 248.708 C 132.227 248.555,134.619 244.235,137.708 239.109 C 145.117 226.811,152.264 219.961,163.191 214.683 C 167.537 212.584,173.781 210.300,177.067 209.609 C 184.145 208.120,197.112 207.879,204.617 209.097 M367.787 312.320 L 367.787 412.160 352.000 412.160 L 336.213 412.160 336.213 334.507 C 336.213 291.797,336.007 256.853,335.756 256.853 C 335.504 256.853,327.606 262.517,318.205 269.440 C 308.804 276.363,300.904 281.961,300.650 281.881 C 300.068 281.698,281.536 256.617,281.819 256.394 C 281.933 256.304,295.424 246.386,311.799 234.355 L 341.571 212.480 354.679 212.480 L 367.787 212.480 367.787 312.320 " stroke="none" fill-rule="evenodd" fill="black"></path></svg>