<svg id="icons" xmlns="http://www.w3.org/2000/svg" viewBox="0 0 512 512"><path d="M119.743 34.579 C 113.579 38.274,112.261 41.450,111.915 53.438 L 111.617 63.783 97.835 64.247 C 82.675 64.757,78.437 65.636,68.584 70.315 C 51.323 78.512,38.685 93.844,33.516 112.860 C 32.185 117.754,32.044 130.179,31.780 265.813 C 31.587 364.694,31.787 416.196,32.386 421.788 C 34.120 437.999,40.100 450.494,51.423 461.568 C 62.306 472.212,74.089 477.805,89.299 479.547 C 99.638 480.732,412.362 480.732,422.701 479.547 C 438.209 477.770,450.729 471.660,461.568 460.577 C 472.441 449.460,477.912 437.700,479.614 421.788 C 480.213 416.196,480.413 364.694,480.220 265.813 C 479.956 130.179,479.815 117.754,478.484 112.860 C 473.248 93.601,460.426 78.259,442.591 69.913 C 433.433 65.627,429.015 64.746,414.165 64.247 L 400.383 63.783 400.085 53.438 C 399.824 44.385,399.538 42.693,397.792 39.886 C 391.635 29.983,376.365 29.983,370.208 39.886 C 368.459 42.698,368.176 44.382,367.912 53.547 L 367.611 64.000 256.000 64.000 L 144.389 64.000 144.088 53.547 C 143.824 44.382,143.541 42.698,141.792 39.886 C 137.287 32.639,127.078 30.182,119.743 34.579 M427.063 98.195 C 436.967 101.901,444.803 110.787,446.873 120.661 C 447.473 123.524,447.972 129.995,447.982 135.040 L 448.000 144.213 256.000 144.213 L 64.000 144.213 64.000 135.537 C 64.000 123.065,65.257 117.013,69.075 111.106 C 72.895 105.196,77.763 101.160,84.328 98.460 L 89.173 96.467 255.755 96.447 C 422.217 96.427,422.339 96.428,427.063 98.195 M447.803 299.733 L 447.573 423.680 445.166 428.889 C 442.120 435.479,435.520 442.051,428.800 445.185 L 423.680 447.573 256.000 447.573 L 88.320 447.573 83.111 445.166 C 76.521 442.120,69.949 435.520,66.815 428.800 L 64.427 423.680 64.197 299.733 L 63.967 175.787 256.000 175.787 L 448.033 175.787 447.803 299.733 M178.347 209.431 C 166.322 212.104,157.057 216.836,149.034 224.402 C 139.401 233.487,136.264 241.261,139.146 248.904 C 141.269 254.536,147.621 258.731,154.027 258.731 C 159.461 258.731,162.679 256.966,167.722 251.222 C 175.773 242.052,184.591 239.021,198.269 240.719 C 213.557 242.618,222.265 249.980,223.336 261.912 C 224.667 276.736,213.013 287.879,193.707 290.243 C 185.969 291.190,183.490 292.111,180.626 295.102 C 175.705 300.239,174.532 307.484,177.597 313.814 C 180.208 319.209,184.460 321.719,192.515 322.623 C 208.437 324.408,222.000 332.203,226.271 342.022 C 228.482 347.105,229.334 358.610,227.884 363.790 C 223.042 381.085,194.284 389.911,176.640 379.518 C 172.493 377.075,168.683 373.434,163.384 366.849 C 158.267 360.490,154.699 358.400,148.957 358.400 C 142.291 358.400,136.977 361.913,134.433 368.004 C 131.040 376.124,134.061 383.299,145.877 395.181 C 161.962 411.356,178.874 417.620,200.843 415.542 C 211.457 414.538,218.051 412.807,226.755 408.741 C 249.984 397.891,262.390 377.233,260.824 352.015 C 259.695 333.840,252.804 319.145,240.808 309.333 L 236.635 305.920 241.529 300.568 C 246.973 294.612,251.649 286.358,253.964 278.613 C 255.825 272.390,256.044 257.808,254.380 250.880 C 249.373 230.022,230.539 213.634,206.825 209.498 C 198.166 207.988,184.978 207.957,178.347 209.431 M339.627 214.300 C 334.897 217.172,293.184 248.071,291.452 249.984 C 289.813 251.796,287.426 259.593,287.968 261.367 C 288.142 261.935,288.514 263.449,288.794 264.731 C 289.433 267.647,293.826 272.726,297.235 274.489 C 300.127 275.985,306.520 276.221,309.760 274.952 C 310.933 274.492,317.156 270.232,323.589 265.485 C 330.021 260.738,335.487 256.853,335.734 256.853 C 335.982 256.853,336.287 289.426,336.413 329.236 L 336.640 401.619 338.650 404.543 C 341.333 408.447,343.833 410.215,348.391 411.435 C 355.506 413.338,363.683 409.180,366.633 402.161 C 367.577 399.914,367.787 383.530,367.787 311.976 C 367.787 252.272,367.499 223.776,366.879 222.136 C 365.767 219.193,362.176 215.300,359.082 213.684 C 357.636 212.928,354.140 212.481,349.696 212.483 C 343.983 212.486,342.036 212.837,339.627 214.300 " fill="black" stroke="none" fill-rule="evenodd"></path></svg>