<svg xmlns="http://www.w3.org/2000/svg" viewBox="0 0 512 512"><path d="M119.359 34.872 C 113.592 38.529,112.275 41.895,111.933 53.863 L 111.649 63.779 98.278 64.235 C 79.655 64.871,70.898 67.545,58.373 76.424 C 43.849 86.719,34.611 102.891,32.442 121.819 C 31.029 134.154,31.286 140.513,33.280 142.507 C 34.978 144.205,36.124 144.213,256.000 144.213 C 475.876 144.213,477.022 144.205,478.720 142.507 C 480.714 140.513,480.971 134.154,479.558 121.819 C 477.389 102.891,468.151 86.719,453.627 76.424 C 441.087 67.535,432.351 64.871,413.653 64.233 L 400.213 63.775 400.213 54.668 C 400.213 46.697,399.951 45.035,398.108 41.336 C 393.728 32.548,383.573 29.662,375.359 34.872 C 369.577 38.538,368.276 41.885,367.930 53.973 L 367.644 64.000 255.929 64.000 L 144.213 64.000 144.213 54.781 C 144.213 46.690,143.956 45.045,142.108 41.336 C 137.728 32.548,127.573 29.662,119.359 34.872 M33.280 176.622 C 32.152 177.335,32.000 192.088,32.000 300.982 C 32.000 440.507,31.442 428.860,38.864 444.160 C 45.110 457.033,54.967 466.890,67.840 473.136 C 83.316 480.644,65.674 480.000,256.000 480.000 C 446.326 480.000,428.684 480.644,444.160 473.136 C 457.033 466.890,466.890 457.033,473.136 444.160 C 480.558 428.860,480.000 440.507,480.000 300.982 C 480.000 192.088,479.848 177.335,478.720 176.622 C 476.980 175.522,35.020 175.522,33.280 176.622 M307.465 211.060 C 319.078 217.866,323.148 231.777,316.891 243.274 C 307.711 260.140,284.877 260.177,274.981 243.342 C 272.922 239.840,272.641 238.486,272.647 232.107 C 272.656 223.931,273.749 221.055,278.921 215.610 C 284.360 209.883,288.914 208.148,297.510 208.529 C 302.240 208.738,304.471 209.305,307.465 211.060 M384.175 209.540 C 393.319 212.655,399.739 221.977,399.677 232.048 C 399.620 241.284,395.302 248.637,387.415 252.930 C 371.554 261.563,352.316 250.089,352.500 232.107 C 352.531 229.056,353.007 225.337,353.558 223.843 C 358.044 211.675,371.708 205.292,384.175 209.540 M145.549 290.040 C 161.216 297.156,164.673 318.198,152.046 329.581 C 147.067 334.069,143.104 335.584,136.107 335.673 C 128.968 335.765,124.055 333.803,119.267 328.948 C 114.278 323.888,112.258 318.928,112.322 311.893 C 112.410 302.203,117.612 294.125,126.293 290.200 C 131.368 287.906,140.680 287.828,145.549 290.040 M224.157 289.558 C 236.325 294.044,242.708 307.708,238.460 320.175 C 234.606 331.487,221.238 338.384,209.680 335.024 C 188.368 328.829,186.026 299.819,206.080 290.439 C 210.860 288.203,219.359 287.789,224.157 289.558 M305.920 290.439 C 325.974 299.819,323.632 328.829,302.320 335.024 C 296.476 336.723,291.405 336.171,285.249 333.166 C 266.773 324.146,268.404 296.725,287.843 289.558 C 292.641 287.789,301.140 288.203,305.920 290.439 M385.707 290.200 C 390.728 292.471,394.726 296.374,397.436 301.653 C 400.374 307.376,400.525 316.201,397.781 321.869 C 393.428 330.861,385.602 335.797,375.893 335.673 C 368.896 335.584,364.933 334.069,359.954 329.581 C 349.818 320.444,349.789 303.199,359.895 294.326 C 364.748 290.065,369.117 288.464,375.893 288.464 C 380.073 288.464,383.019 288.985,385.707 290.200 M146.773 370.800 C 155.136 375.056,159.524 382.388,159.555 392.152 C 159.633 417.430,126.192 425.007,114.565 402.347 C 111.922 397.194,111.506 388.056,113.687 383.028 C 115.342 379.213,120.366 373.545,124.186 371.184 C 130.263 367.428,139.831 367.266,146.773 370.800 M226.751 370.859 C 238.537 376.547,243.161 390.629,237.176 402.606 C 231.954 413.054,221.521 417.967,210.532 415.152 C 198.520 412.074,190.934 401.308,192.342 389.334 C 194.320 372.501,211.283 363.393,226.751 370.859 M305.285 369.956 C 316.267 374.545,322.201 387.087,318.847 398.623 C 316.399 407.042,310.234 412.906,301.468 415.152 C 290.479 417.967,280.046 413.054,274.824 402.606 C 267.945 388.838,275.015 373.118,289.965 368.940 C 294.460 367.683,300.863 368.108,305.285 369.956 " stroke="none" fill-rule="evenodd" fill="black"></path></svg>