<svg xmlns="http://www.w3.org/2000/svg" viewBox="0 0 512 512"><path d="M119.359 34.872 C 113.592 38.529,112.275 41.895,111.933 53.863 L 111.649 63.779 98.278 64.235 C 79.655 64.871,70.898 67.545,58.373 76.424 C 43.849 86.719,34.611 102.891,32.442 121.819 C 31.029 134.154,31.286 140.513,33.280 142.507 C 34.978 144.205,36.124 144.213,256.000 144.213 C 475.876 144.213,477.022 144.205,478.720 142.507 C 480.714 140.513,480.971 134.154,479.558 121.819 C 477.389 102.891,468.151 86.719,453.627 76.424 C 441.087 67.535,432.351 64.871,413.653 64.233 L 400.213 63.775 400.213 54.668 C 400.213 46.697,399.951 45.035,398.108 41.336 C 393.728 32.548,383.573 29.662,375.359 34.872 C 369.577 38.538,368.276 41.885,367.930 53.973 L 367.644 64.000 255.929 64.000 L 144.213 64.000 144.213 54.781 C 144.213 46.690,143.956 45.045,142.108 41.336 C 137.728 32.548,127.573 29.662,119.359 34.872 M33.253 177.521 C 31.523 179.250,31.519 179.569,31.783 302.321 C 32.081 441.036,31.476 428.911,38.868 444.160 C 45.106 457.029,54.965 466.889,67.840 473.136 C 83.316 480.644,65.674 480.000,256.000 480.000 C 446.326 480.000,428.684 480.644,444.160 473.136 C 457.035 466.889,466.894 457.029,473.132 444.160 C 480.524 428.911,479.919 441.036,480.217 302.321 C 480.481 179.569,480.477 179.250,478.747 177.521 L 477.013 175.787 256.000 175.787 L 34.987 175.787 33.253 177.521 " stroke="none" fill-rule="evenodd" fill="black"></path></svg>