<svg xmlns="http://www.w3.org/2000/svg" width="512" height="512" viewBox="0 0 512 512"><path d="M130.431 34.981 C 106.749 43.892,85.143 54.952,64.853 68.550 C 48.768 79.329,33.186 91.396,32.339 93.729 C 32.055 94.509,32.930 99.371,34.281 104.533 C 43.558 139.966,63.338 183.754,91.139 230.400 C 104.925 253.530,121.449 276.826,136.537 294.400 C 156.159 317.256,192.760 353.863,215.893 373.768 C 267.278 417.984,349.299 462.490,407.467 477.719 C 412.629 479.070,417.499 479.945,418.288 479.661 C 419.966 479.059,431.957 464.113,439.791 452.858 C 455.213 430.703,468.181 405.628,477.585 379.777 L 480.519 371.715 474.466 365.977 C 465.082 357.083,450.172 345.803,429.653 332.078 C 399.827 312.126,357.821 287.573,353.512 287.573 C 351.602 287.573,341.695 295.166,325.120 309.334 C 311.975 320.570,312.145 320.473,307.866 319.191 C 298.390 316.352,279.317 305.231,263.253 293.179 C 251.810 284.593,231.981 265.338,223.210 254.293 C 209.122 236.556,192.794 208.655,192.605 202.000 C 192.532 199.409,193.847 197.460,203.173 186.347 C 220.871 165.255,224.427 160.641,224.427 158.766 C 224.427 155.254,212.122 132.959,194.733 104.960 C 175.730 74.363,158.232 50.193,145.156 36.480 C 140.566 31.666,139.523 31.560,130.431 34.981 " stroke="none" fill-rule="evenodd" fill="black"></path></svg>