<svg xmlns="http://www.w3.org/2000/svg" width="512" height="512" viewBox="0 0 512 512"><path d="M104.478 36.078 C 79.445 46.924,58.913 61.037,47.732 75.083 C 36.655 88.999,32.253 101.350,32.220 118.613 C 32.167 146.469,42.662 176.464,68.046 221.013 C 97.317 272.383,117.483 298.505,162.935 343.928 C 205.051 386.016,234.027 409.025,278.613 435.786 C 335.076 469.676,369.508 482.303,397.653 479.441 C 430.357 476.116,456.582 451.712,475.915 406.613 C 482.931 390.248,481.083 382.866,465.920 366.686 C 453.946 353.909,436.283 340.774,409.173 324.490 C 393.773 315.240,370.775 303.602,364.006 301.634 C 361.306 300.849,356.338 300.218,352.965 300.231 C 342.884 300.270,336.818 303.183,318.644 316.710 C 313.909 320.234,308.393 323.775,306.387 324.578 C 302.983 325.939,302.416 325.944,297.944 324.644 C 290.688 322.535,283.705 319.134,273.421 312.704 C 243.636 294.079,219.937 270.755,200.577 241.014 C 192.346 228.369,186.871 216.999,186.286 211.337 C 185.707 205.722,186.415 204.262,196.288 190.720 C 214.422 165.849,214.948 157.358,200.250 126.794 C 190.611 106.749,174.013 80.402,160.083 63.034 C 151.558 52.406,138.690 40.050,131.818 35.896 C 127.548 33.314,126.142 32.929,120.018 32.661 C 113.382 32.370,112.677 32.525,104.478 36.078 M136.871 85.333 C 148.146 100.051,161.888 121.606,168.966 135.680 C 174.348 146.382,178.347 156.037,178.347 158.333 C 178.347 159.446,176.251 163.348,173.690 167.005 C 155.057 193.609,154.139 195.587,154.164 209.067 C 154.183 219.779,156.229 226.968,163.039 240.249 C 175.029 263.631,196.555 291.318,217.600 310.427 C 247.345 337.436,280.062 356.069,299.947 357.326 C 312.067 358.092,321.095 354.667,335.862 343.700 C 352.106 331.635,352.171 331.600,355.892 332.715 C 357.693 333.254,364.082 336.218,370.090 339.301 C 398.699 353.979,428.100 373.719,441.374 387.158 L 447.122 392.978 442.228 402.796 C 428.995 429.343,415.259 443.308,398.585 447.167 C 380.524 451.347,348.827 440.039,302.933 413.042 C 253.969 384.238,222.856 359.659,179.627 315.629 C 145.586 280.958,128.145 258.895,106.521 223.147 C 84.030 185.967,72.852 162.579,67.243 140.969 C 65.085 132.657,64.633 129.199,64.539 120.308 C 64.429 109.867,64.489 109.503,67.219 103.951 C 68.755 100.828,71.443 96.548,73.192 94.439 C 79.994 86.240,93.617 76.746,110.046 68.753 L 118.119 64.826 124.389 71.026 C 127.838 74.437,133.455 80.875,136.871 85.333 " stroke="none" fill-rule="evenodd" fill="black"></path></svg>