<svg xmlns="http://www.w3.org/2000/svg" width="512" height="512" viewBox="0 0 512 512"><path d="M110.933 33.423 C 104.990 35.098,82.143 46.841,73.387 52.721 C 56.292 64.200,46.203 74.635,39.216 88.065 C 34.165 97.774,32.427 105.590,32.427 118.599 C 32.427 151.606,46.884 187.986,83.382 246.815 C 102.669 277.904,120.249 300.203,150.613 332.091 C 193.660 377.299,232.143 408.276,282.325 438.111 C 320.829 461.004,347.303 472.781,372.043 478.021 C 381.656 480.057,397.303 480.422,404.907 478.789 C 430.845 473.216,452.834 453.128,469.900 419.413 C 480.996 397.495,482.144 391.305,477.036 380.930 C 468.306 363.198,426.904 332.110,382.170 309.699 C 365.643 301.419,361.491 300.156,351.967 300.511 C 345.036 300.770,343.556 301.134,337.871 303.981 C 334.378 305.731,326.336 311.012,320.000 315.716 C 305.736 326.308,304.338 326.770,295.486 323.813 C 272.179 316.029,236.923 288.545,215.064 261.120 C 200.180 242.446,187.070 219.622,186.234 210.929 C 185.736 205.745,186.601 204.007,196.288 190.720 C 214.647 165.540,215.051 156.535,199.244 124.810 C 184.348 94.914,164.906 66.639,146.836 48.591 C 133.714 35.486,128.449 32.382,119.544 32.504 C 116.451 32.546,112.576 32.959,110.933 33.423 " stroke="none" fill-rule="evenodd" fill="black"></path></svg>