<svg xmlns="http://www.w3.org/2000/svg" width="512" height="512" viewBox="0 0 512 512"><path d="M201.813 80.764 C 193.037 82.731,182.710 88.482,177.691 94.199 C 176.310 95.771,168.980 106.804,161.402 118.716 C 148.030 139.734,145.917 142.439,141.867 143.721 C 140.008 144.309,139.947 144.148,139.947 138.697 C 139.947 130.024,137.370 125.068,131.234 121.936 C 128.465 120.523,126.089 120.320,112.303 120.320 C 95.529 120.320,93.215 120.733,89.310 124.428 C 85.631 127.909,84.379 131.004,83.857 137.913 L 83.380 144.213 78.597 144.226 C 59.165 144.277,40.857 157.966,34.215 177.410 L 32.000 183.893 32.000 288.000 L 32.000 392.107 34.215 398.590 C 39.538 414.172,52.587 426.498,68.013 430.516 C 75.388 432.437,436.612 432.437,443.987 430.516 C 451.297 428.612,458.336 424.718,464.079 419.401 C 470.682 413.287,475.008 406.719,477.785 398.590 L 480.000 392.107 480.000 288.000 L 480.000 183.893 477.785 177.410 C 472.415 161.691,458.979 149.140,443.654 145.527 C 439.274 144.495,431.579 144.236,404.963 144.226 C 373.185 144.214,371.581 144.137,368.111 142.457 C 364.817 140.863,363.209 138.691,350.651 118.880 C 343.044 106.878,335.690 95.771,334.309 94.199 C 331.050 90.487,321.586 84.244,316.160 82.227 C 312.181 80.747,308.241 80.631,257.707 80.511 C 227.904 80.439,202.752 80.553,201.813 80.764 M307.696 113.654 C 309.618 114.707,313.979 120.882,323.909 136.610 C 331.380 148.443,339.029 159.710,340.907 161.648 C 345.422 166.309,351.369 170.331,357.827 173.091 L 363.093 175.342 399.787 175.778 C 439.490 176.249,438.933 176.182,443.479 181.051 C 448.214 186.122,448.000 181.051,448.000 288.000 C 448.000 375.079,447.845 386.985,446.679 389.776 C 444.917 393.992,442.318 396.694,438.187 398.600 C 434.903 400.116,428.005 400.176,256.000 400.176 C 83.995 400.176,77.097 400.116,73.813 398.600 C 69.682 396.694,67.083 393.992,65.321 389.776 C 64.155 386.985,64.000 375.079,64.000 288.000 C 64.000 181.051,63.786 186.122,68.521 181.051 C 73.069 176.179,72.475 176.251,112.640 175.758 C 155.000 175.239,153.884 175.421,164.736 167.290 C 171.875 161.942,173.103 160.326,188.100 136.533 C 195.052 125.504,201.213 115.974,201.791 115.356 C 204.936 111.994,207.722 111.826,257.280 112.023 C 300.293 112.194,305.329 112.357,307.696 113.654 M244.156 176.739 C 240.693 177.140,234.741 178.285,230.930 179.281 C 216.129 183.151,193.915 196.054,190.819 202.580 C 187.274 210.050,188.394 216.485,194.165 221.805 C 200.477 227.623,208.036 227.654,215.837 221.893 C 222.958 216.635,235.171 210.984,242.854 209.394 C 252.632 207.369,266.154 208.100,275.147 211.139 C 286.027 214.817,292.309 218.783,300.925 227.416 C 307.553 234.057,309.316 236.449,312.612 243.272 C 314.747 247.691,316.748 252.363,317.059 253.653 C 317.576 255.795,317.412 256.002,315.186 256.019 C 309.449 256.063,302.521 261.364,300.794 267.030 C 299.805 270.274,300.188 276.211,301.554 278.808 C 302.237 280.109,308.684 286.995,315.878 294.110 C 328.290 306.384,329.172 307.078,333.098 307.660 C 340.863 308.810,342.957 307.561,357.259 293.259 C 371.561 278.957,372.809 276.863,371.660 269.098 C 371.151 265.652,370.359 264.293,366.925 260.969 C 363.676 257.824,361.976 256.854,358.905 256.394 C 356.762 256.072,354.052 256.050,352.883 256.343 C 351.072 256.798,350.681 256.528,350.236 254.518 C 348.255 245.582,345.849 238.301,342.622 231.481 C 327.918 200.399,299.484 180.218,265.387 176.662 C 256.163 175.700,253.013 175.711,244.156 176.739 M169.387 237.591 C 167.979 238.224,161.005 244.641,153.890 251.851 C 141.622 264.282,140.921 265.174,140.340 269.098 C 138.777 279.656,145.959 287.851,156.690 287.755 L 161.188 287.714 162.163 292.410 C 168.248 321.722,189.975 347.936,218.282 360.118 C 232.124 366.075,238.976 367.367,256.427 367.310 C 270.446 367.265,272.532 367.056,280.320 364.919 C 297.645 360.164,317.128 348.603,320.881 340.850 C 326.164 329.937,318.608 318.293,306.242 318.293 C 301.885 318.293,300.892 318.668,295.989 322.166 C 282.502 331.786,266.528 336.840,252.587 335.897 C 233.664 334.618,216.732 325.565,205.180 310.553 C 201.114 305.269,195.785 294.866,194.939 290.560 C 194.460 288.118,194.580 287.990,197.549 287.782 C 202.617 287.427,207.863 283.771,210.472 278.774 C 211.979 275.888,212.139 269.339,210.789 265.826 C 209.512 262.504,187.389 240.127,183.287 238.008 C 179.592 236.100,173.135 235.906,169.387 237.591 " stroke="none" fill-rule="evenodd" fill="black"></path></svg>