<svg xmlns="http://www.w3.org/2000/svg" width="512" height="512" viewBox="0 0 512 512"><path d="M198.923 81.562 C 196.394 82.242,192.103 83.983,189.388 85.430 C 180.421 90.209,176.256 95.162,161.367 118.756 C 148.119 139.747,146.057 142.396,141.958 143.692 C 140.211 144.244,140.116 143.971,139.825 137.566 C 139.448 129.284,136.998 124.937,131.094 122.079 C 127.478 120.328,126.261 120.233,110.635 120.482 L 94.020 120.747 90.743 123.397 C 85.951 127.274,84.421 130.453,83.875 137.670 L 83.398 143.976 76.449 144.466 C 56.597 145.867,40.059 159.197,33.884 178.773 L 32.000 184.747 32.000 288.000 L 32.000 391.253 33.893 397.227 C 39.240 414.105,53.526 427.481,69.802 430.851 C 76.194 432.174,435.806 432.174,442.198 430.851 C 458.474 427.481,472.760 414.105,478.107 397.227 L 480.000 391.253 480.000 288.000 L 480.000 184.747 478.107 178.773 C 473.306 163.620,462.402 152.159,447.430 146.529 C 442.670 144.739,440.870 144.638,406.122 144.222 L 369.791 143.787 366.830 141.756 C 364.748 140.329,359.698 133.134,349.828 117.533 C 334.836 93.839,331.343 89.790,321.652 84.879 C 312.517 80.250,311.928 80.209,255.607 80.269 C 212.941 80.315,202.688 80.549,198.923 81.562 M276.458 178.350 C 306.248 184.488,332.846 206.654,344.387 234.962 C 350.192 249.202,351.020 253.780,351.046 271.787 C 351.068 286.682,350.887 288.673,348.820 296.282 C 337.295 338.720,299.563 367.787,256.000 367.787 C 212.346 367.787,175.114 339.150,163.215 296.423 C 161.046 288.632,160.870 286.816,160.867 272.213 C 160.864 258.341,161.108 255.495,162.882 248.747 C 173.256 209.276,205.557 181.160,245.698 176.662 C 254.037 175.727,267.243 176.452,276.458 178.350 M242.773 209.438 C 218.725 215.066,200.473 232.495,194.013 256.000 C 191.634 264.657,191.836 280.991,194.426 289.280 C 198.061 300.916,202.649 308.530,211.166 317.059 C 217.685 323.589,220.136 325.399,226.987 328.749 C 238.312 334.286,244.150 335.681,256.000 335.681 C 267.850 335.681,273.688 334.286,285.013 328.749 C 291.864 325.399,294.315 323.589,300.834 317.059 C 309.351 308.530,313.939 300.916,317.574 289.280 C 320.164 280.991,320.366 264.657,317.987 256.000 C 312.086 234.529,295.560 217.395,274.347 210.755 C 266.662 208.349,250.335 207.669,242.773 209.438 " stroke="none" fill-rule="evenodd" fill="black"></path></svg>