<svg xmlns="http://www.w3.org/2000/svg" width="512" height="512" viewBox="0 0 512 512"><path d="M193.280 81.011 C 185.066 83.011,182.158 86.395,163.171 116.053 C 148.058 139.661,145.919 142.438,141.867 143.721 C 139.954 144.326,139.947 144.292,139.947 134.819 C 139.947 125.445,139.911 125.273,137.452 122.814 L 134.958 120.320 112.223 120.320 C 98.262 120.320,88.854 120.659,87.846 121.199 C 84.700 122.882,83.627 126.556,83.627 135.638 L 83.627 144.213 67.123 144.213 L 50.619 144.213 45.397 146.823 C 39.623 149.708,36.475 152.934,33.785 158.720 L 32.000 162.560 32.000 288.000 L 32.000 413.440 33.834 417.407 C 36.044 422.189,41.069 427.395,45.682 429.682 C 49.020 431.337,51.946 431.360,256.000 431.360 C 460.054 431.360,462.980 431.337,466.318 429.682 C 470.931 427.395,475.956 422.189,478.166 417.407 L 480.000 413.440 480.000 288.000 C 480.000 170.750,479.903 162.346,478.519 159.285 C 476.137 154.018,472.346 149.854,467.476 147.156 L 462.933 144.640 416.363 144.213 L 369.792 143.787 366.858 141.775 C 364.812 140.373,359.297 132.518,348.648 115.840 C 338.981 100.701,331.708 90.252,328.840 87.384 C 321.348 79.891,324.537 80.200,255.632 80.301 C 222.746 80.349,194.688 80.668,193.280 81.011 M272.640 177.587 C 302.157 182.570,328.258 202.100,341.688 229.253 C 349.394 244.832,352.047 257.759,351.350 276.330 C 350.831 290.157,348.408 300.644,343.130 311.908 C 326.968 346.395,293.614 367.787,256.000 367.787 C 212.409 367.787,174.298 338.403,163.259 296.282 C 160.587 286.089,159.667 268.385,161.248 257.576 C 164.535 235.096,177.119 212.664,194.349 198.575 C 216.902 180.132,244.264 172.797,272.640 177.587 M242.773 209.438 C 218.725 215.066,200.473 232.495,194.013 256.000 C 191.634 264.657,191.836 280.991,194.426 289.280 C 198.061 300.916,202.649 308.530,211.166 317.059 C 217.685 323.589,220.136 325.399,226.987 328.749 C 238.312 334.286,244.150 335.681,256.000 335.681 C 267.850 335.681,273.688 334.286,285.013 328.749 C 291.864 325.399,294.315 323.589,300.834 317.059 C 309.351 308.530,313.939 300.916,317.574 289.280 C 320.164 280.991,320.366 264.657,317.987 256.000 C 312.086 234.529,295.560 217.395,274.347 210.755 C 266.662 208.349,250.335 207.669,242.773 209.438 " stroke="none" fill-rule="evenodd" fill="black"></path></svg>