<svg xmlns="http://www.w3.org/2000/svg" width="512" height="512" viewBox="0 0 512 512"><path d="M201.813 80.764 C 193.037 82.731,182.710 88.482,177.691 94.199 C 176.310 95.771,168.980 106.804,161.402 118.716 C 148.030 139.734,145.917 142.439,141.867 143.721 C 140.008 144.309,139.947 144.148,139.947 138.697 C 139.947 130.024,137.370 125.068,131.234 121.936 C 128.465 120.523,126.089 120.320,112.303 120.320 C 95.529 120.320,93.215 120.733,89.310 124.428 C 85.631 127.909,84.379 131.004,83.857 137.913 L 83.380 144.213 78.597 144.226 C 59.165 144.277,40.857 157.966,34.215 177.410 L 32.000 183.893 32.000 288.000 L 32.000 392.107 34.215 398.590 C 39.538 414.172,52.587 426.498,68.013 430.516 C 75.388 432.437,436.612 432.437,443.987 430.516 C 451.297 428.612,458.336 424.718,464.079 419.401 C 470.682 413.287,475.008 406.719,477.785 398.590 L 480.000 392.107 480.000 288.000 L 480.000 183.893 477.785 177.410 C 472.415 161.691,458.979 149.140,443.654 145.527 C 439.274 144.495,431.579 144.236,404.963 144.226 C 373.185 144.214,371.581 144.137,368.111 142.457 C 364.817 140.863,363.209 138.691,350.651 118.880 C 343.044 106.878,335.690 95.771,334.309 94.199 C 331.050 90.487,321.586 84.244,316.160 82.227 C 312.181 80.747,308.241 80.631,257.707 80.511 C 227.904 80.439,202.752 80.553,201.813 80.764 M307.696 113.654 C 309.618 114.707,313.979 120.882,323.909 136.610 C 331.380 148.443,339.029 159.710,340.907 161.648 C 345.422 166.309,351.369 170.331,357.827 173.091 L 363.093 175.342 399.787 175.778 C 439.490 176.249,438.933 176.182,443.479 181.051 C 448.214 186.122,448.000 181.051,448.000 288.000 C 448.000 375.079,447.845 386.985,446.679 389.776 C 444.917 393.992,442.318 396.694,438.187 398.600 C 434.903 400.116,428.005 400.176,256.000 400.176 C 83.995 400.176,77.097 400.116,73.813 398.600 C 69.682 396.694,67.083 393.992,65.321 389.776 C 64.155 386.985,64.000 375.079,64.000 288.000 C 64.000 181.051,63.786 186.122,68.521 181.051 C 73.069 176.179,72.475 176.251,112.640 175.758 C 155.000 175.239,153.884 175.421,164.736 167.290 C 171.875 161.942,173.103 160.326,188.100 136.533 C 195.052 125.504,201.213 115.974,201.791 115.356 C 204.936 111.994,207.722 111.826,257.280 112.023 C 300.293 112.194,305.329 112.357,307.696 113.654 M246.613 176.679 C 211.397 179.860,179.376 203.988,166.858 236.776 C 162.863 247.238,161.418 253.385,160.556 263.575 C 155.799 319.837,199.714 367.787,256.000 367.787 C 282.634 367.787,306.814 357.432,325.221 338.144 C 361.230 300.411,360.624 241.230,323.851 204.458 C 316.777 197.383,306.529 189.920,298.240 185.805 C 283.650 178.563,264.070 175.102,246.613 176.679 M269.476 209.517 C 282.421 212.084,296.594 220.800,305.617 231.744 C 322.251 251.919,324.593 281.560,311.332 304.066 C 303.560 317.256,290.428 327.900,275.820 332.850 C 268.051 335.484,266.783 335.664,256.000 335.664 C 245.217 335.664,243.949 335.484,236.180 332.850 C 231.255 331.182,225.329 328.364,221.610 325.922 C 179.104 298.017,183.274 236.191,229.155 214.044 C 240.709 208.467,255.693 206.785,269.476 209.517 " stroke="none" fill-rule="evenodd" fill="black"></path></svg>