<svg xmlns="http://www.w3.org/2000/svg" width="512" height="512" viewBox="0 0 512 512"><path d="M191.776 81.568 C 185.030 83.665,180.217 89.472,163.147 116.112 C 148.056 139.664,145.917 142.439,141.867 143.721 C 139.954 144.326,139.947 144.292,139.947 134.819 C 139.947 125.445,139.911 125.273,137.452 122.814 L 134.958 120.320 112.223 120.320 C 98.262 120.320,88.854 120.659,87.846 121.199 C 84.700 122.882,83.627 126.556,83.627 135.638 L 83.627 144.213 67.123 144.213 L 50.619 144.213 45.397 146.823 C 39.623 149.708,36.475 152.934,33.785 158.720 L 32.000 162.560 32.000 288.000 L 32.000 413.440 33.834 417.407 C 36.044 422.189,41.069 427.395,45.682 429.682 C 49.020 431.337,51.946 431.360,256.000 431.360 C 460.054 431.360,462.980 431.337,466.318 429.682 C 470.931 427.395,475.956 422.189,478.166 417.407 L 480.000 413.440 480.000 288.000 C 480.000 170.750,479.903 162.346,478.519 159.285 C 476.137 154.018,472.346 149.854,467.476 147.156 L 462.933 144.640 416.363 144.213 L 369.792 143.787 366.849 141.769 C 364.791 140.358,359.300 132.535,348.584 115.742 C 332.438 90.443,328.630 85.489,323.025 82.488 C 319.585 80.646,319.363 80.639,257.707 80.472 C 205.145 80.330,195.229 80.495,191.776 81.568 M274.613 178.000 C 310.038 184.369,340.082 213.093,348.335 248.483 L 350.088 256.000 372.378 256.024 L 394.667 256.048 365.432 285.098 L 336.197 314.148 306.787 285.287 L 277.377 256.427 297.815 256.198 L 318.254 255.970 316.260 250.476 C 309.622 232.189,294.092 217.272,275.200 211.038 C 269.199 209.058,266.928 208.776,256.427 208.713 C 246.142 208.650,243.593 208.919,238.102 210.643 C 230.566 213.009,224.676 215.858,219.067 219.851 L 214.988 222.754 203.378 211.384 L 191.769 200.013 197.644 195.659 C 220.164 178.969,246.456 172.937,274.613 178.000 M233.813 287.782 C 233.813 288.137,224.981 288.427,214.187 288.427 C 198.442 288.427,194.560 288.651,194.560 289.560 C 194.560 290.183,195.559 293.159,196.779 296.173 C 203.984 313.965,220.296 328.358,239.408 333.787 C 248.160 336.272,263.007 336.448,271.360 334.165 C 277.954 332.362,287.375 328.060,292.655 324.440 C 295.365 322.583,296.836 322.056,297.775 322.607 C 298.500 323.032,303.701 327.803,309.333 333.210 L 319.573 343.040 315.352 346.958 C 307.279 354.449,293.204 361.398,277.838 365.480 C 271.970 367.038,268.627 367.310,255.573 367.290 C 241.719 367.269,239.404 367.048,231.962 365.033 C 210.037 359.098,192.101 347.193,179.029 329.897 C 172.259 320.938,165.307 306.524,162.858 296.365 L 160.944 288.427 139.143 288.427 L 117.343 288.427 146.773 258.987 L 176.204 229.547 205.009 258.342 C 220.851 274.179,233.813 287.427,233.813 287.782 " stroke="none" fill-rule="evenodd" fill="black"></path></svg>