<svg xmlns="http://www.w3.org/2000/svg" width="512" height="512" viewBox="0 0 512 512"><path d="M198.923 81.562 C 196.394 82.242,192.103 83.983,189.388 85.430 C 180.421 90.209,176.256 95.162,161.367 118.756 C 148.119 139.747,146.057 142.396,141.958 143.692 C 140.211 144.244,140.116 143.971,139.825 137.566 C 139.448 129.284,136.998 124.937,131.094 122.079 C 127.478 120.328,126.261 120.233,110.635 120.482 L 94.020 120.747 90.743 123.397 C 85.951 127.274,84.421 130.453,83.875 137.670 L 83.398 143.976 76.449 144.466 C 56.597 145.867,40.059 159.197,33.884 178.773 L 32.000 184.747 32.000 288.000 L 32.000 391.253 33.893 397.227 C 39.240 414.105,53.526 427.481,69.802 430.851 C 76.194 432.174,435.806 432.174,442.198 430.851 C 458.474 427.481,472.760 414.105,478.107 397.227 L 480.000 391.253 480.000 288.000 L 480.000 184.747 478.107 178.773 C 473.306 163.620,462.402 152.159,447.430 146.529 C 442.670 144.739,440.870 144.638,406.122 144.222 L 369.791 143.787 366.830 141.756 C 364.748 140.329,359.698 133.134,349.828 117.533 C 334.836 93.839,331.343 89.790,321.652 84.879 C 312.517 80.250,311.928 80.209,255.607 80.269 C 212.941 80.315,202.688 80.549,198.923 81.562 M272.213 177.611 C 280.444 178.832,294.719 183.871,302.817 188.412 C 325.104 200.910,343.547 225.009,348.667 248.320 C 349.440 251.840,350.208 255.206,350.375 255.800 C 350.589 256.565,351.685 256.719,354.124 256.329 C 362.723 254.954,372.044 263.216,372.044 272.213 C 372.044 277.506,369.976 280.519,358.121 292.497 C 342.594 308.186,338.202 310.345,329.813 306.418 C 325.698 304.491,302.564 281.394,301.269 277.918 C 299.849 274.107,300.214 268.192,302.097 264.500 C 304.186 260.404,309.263 256.872,313.966 256.241 C 315.877 255.985,317.440 255.451,317.440 255.054 C 317.440 252.847,312.722 242.375,309.447 237.311 C 295.117 215.161,268.775 204.231,242.524 209.545 C 234.932 211.081,222.692 216.744,216.041 221.796 C 213.541 223.696,209.984 225.657,208.135 226.154 C 198.986 228.618,189.569 221.759,188.764 212.044 C 188.061 203.565,192.256 198.352,206.809 189.621 C 226.167 178.007,247.941 174.008,272.213 177.611 M182.869 237.739 C 186.650 239.629,207.966 260.837,209.981 264.713 C 215.046 274.456,208.992 285.890,197.681 287.939 C 194.653 288.488,194.442 288.709,194.926 290.827 C 195.215 292.088,197.234 296.768,199.413 301.227 C 202.783 308.124,204.532 310.479,211.127 317.013 C 224.298 330.061,237.860 335.712,256.000 335.712 C 270.869 335.712,282.166 331.969,295.090 322.761 C 303.206 316.978,311.164 316.685,317.159 321.949 C 322.725 326.836,324.121 334.158,320.796 341.026 C 316.710 349.465,295.853 361.097,276.276 365.854 C 267.557 367.973,244.443 367.973,235.724 365.854 C 215.772 361.006,200.163 352.169,186.779 338.144 C 173.867 324.615,166.137 309.721,161.785 289.990 C 161.316 287.864,160.981 287.716,156.737 287.754 C 148.265 287.830,141.524 282.320,140.328 274.340 C 139.321 267.626,140.816 265.182,154.350 251.424 C 161.212 244.448,167.979 238.223,169.387 237.590 C 172.892 236.015,179.569 236.089,182.869 237.739 " stroke="none" fill-rule="evenodd" fill="black"></path></svg>