<svg xmlns="http://www.w3.org/2000/svg" width="512" height="512" viewBox="0 0 512 512"><path d="M119.789 98.551 C 117.854 99.711,115.695 101.540,114.990 102.615 C 114.286 103.691,102.524 130.686,88.854 162.604 L 64.000 220.636 64.000 315.531 L 64.000 410.426 66.488 413.213 L 68.977 416.000 85.404 416.282 C 104.080 416.602,106.900 416.271,109.749 413.422 C 111.728 411.443,111.787 410.988,111.787 397.692 L 111.787 384.000 256.000 384.000 L 400.213 384.000 400.213 397.692 C 400.213 417.169,399.611 416.744,426.596 416.282 L 443.023 416.000 445.512 413.213 L 448.000 410.426 448.000 315.531 L 448.000 220.636 423.146 162.604 C 409.476 130.686,397.709 103.683,396.998 102.597 C 396.287 101.512,394.093 99.679,392.124 98.525 L 388.543 96.427 255.925 96.435 L 123.307 96.443 119.789 98.551 M390.554 167.893 L 407.642 207.787 331.821 208.005 C 290.119 208.124,221.881 208.124,180.179 208.005 L 104.358 207.787 121.446 167.893 L 138.533 128.000 256.000 128.000 L 373.467 128.000 390.554 167.893 M157.435 259.286 C 168.177 264.312,174.862 273.930,175.599 285.417 C 176.117 293.484,174.717 299.123,170.627 305.451 C 159.878 322.081,136.809 324.785,122.207 311.126 C 109.555 299.292,108.862 279.197,120.664 266.393 C 130.132 256.121,144.668 253.311,157.435 259.286 M380.978 258.861 C 401.558 268.282,406.196 295.783,389.793 311.126 C 375.191 324.785,352.122 322.081,341.373 305.451 C 329.376 286.889,339.172 262.322,360.743 256.872 C 366.117 255.515,375.733 256.459,380.978 258.861 " stroke="none" fill-rule="evenodd" fill="black"></path></svg>