<svg xmlns="http://www.w3.org/2000/svg" width="512" height="512" viewBox="0 0 512 512"><path d="M220.160 97.399 C 205.940 98.460,183.754 101.362,171.947 103.706 C 138.051 110.436,119.460 120.196,104.642 139.037 C 98.383 146.996,96.048 150.772,89.108 164.155 L 82.971 175.990 73.272 175.887 C 67.938 175.831,62.067 176.143,60.226 176.582 C 48.094 179.474,43.982 194.369,52.863 203.251 L 56.069 206.457 48.301 210.844 C 38.389 216.443,32.373 221.047,29.440 225.280 C 21.728 236.408,17.235 264.367,16.480 305.920 C 16.082 327.818,16.237 332.269,17.829 344.590 C 19.811 359.936,22.899 375.878,25.785 385.670 C 27.910 392.880,32.050 397.919,36.874 399.166 C 39.313 399.797,39.783 400.378,40.471 403.609 C 41.655 409.167,46.900 414.241,52.735 415.472 C 58.867 416.766,109.317 416.755,115.371 415.458 C 121.138 414.223,125.773 409.863,127.270 404.265 L 128.312 400.371 133.063 399.804 C 135.675 399.492,143.765 397.968,151.040 396.418 C 165.418 393.353,173.667 392.194,190.720 390.841 C 233.979 387.411,278.818 387.423,322.560 390.877 C 338.561 392.141,350.063 393.775,363.520 396.696 C 369.856 398.072,376.983 399.452,379.358 399.763 C 383.634 400.323,383.687 400.368,384.724 404.244 C 386.227 409.864,390.852 414.221,396.629 415.458 C 402.683 416.755,453.133 416.766,459.265 415.472 C 465.100 414.241,470.345 409.167,471.529 403.609 C 472.217 400.378,472.687 399.797,475.126 399.166 C 479.945 397.920,484.088 392.881,486.233 385.656 C 488.958 376.476,492.916 355.557,494.457 342.187 C 497.657 314.418,494.884 264.031,488.882 240.916 C 485.010 226.002,480.588 220.549,465.245 211.767 L 455.944 206.443 459.143 203.244 C 468.018 194.369,463.901 179.473,451.774 176.582 C 449.933 176.143,444.062 175.831,438.728 175.887 L 429.029 175.990 422.827 164.010 C 401.277 122.390,380.322 109.227,322.133 100.760 C 294.601 96.754,248.976 95.250,220.160 97.399 M281.600 128.888 C 318.605 131.200,348.743 136.806,364.081 144.230 C 372.571 148.339,379.848 154.818,385.551 163.345 C 390.007 170.007,399.742 188.489,399.121 189.110 C 398.911 189.320,392.831 188.916,385.610 188.213 C 350.256 184.772,314.811 183.477,256.000 183.477 C 197.189 183.477,161.744 184.772,126.390 188.213 C 119.169 188.916,113.089 189.320,112.879 189.110 C 112.340 188.571,121.400 171.047,125.482 164.732 C 132.786 153.431,141.320 146.429,153.477 141.765 C 179.836 131.651,235.800 126.026,281.600 128.888 M334.933 216.704 C 368.655 218.512,393.585 220.716,413.345 223.637 C 425.038 225.365,425.308 225.455,433.399 230.299 C 437.909 232.999,444.964 237.078,449.076 239.362 C 455.859 243.131,456.636 243.825,457.449 246.846 C 460.973 259.933,463.597 287.638,463.650 312.320 C 463.691 331.410,462.352 345.217,458.809 362.240 L 457.744 367.360 419.198 367.582 L 380.652 367.804 369.067 365.227 C 347.529 360.435,323.747 358.109,281.310 356.642 C 253.600 355.684,218.545 356.522,189.789 358.831 C 169.475 360.462,158.824 361.943,143.974 365.204 L 132.214 367.787 93.185 367.787 L 54.155 367.787 52.666 359.467 C 48.264 334.878,47.173 317.809,48.559 295.253 C 49.890 273.596,52.074 256.045,54.607 246.636 C 55.352 243.871,56.298 243.043,62.924 239.362 C 67.036 237.078,74.091 232.999,78.601 230.299 C 86.692 225.455,86.962 225.365,98.655 223.637 C 124.956 219.749,160.469 217.139,208.640 215.552 C 225.454 214.998,319.040 215.852,334.933 216.704 M81.665 241.017 C 80.534 242.148,80.214 244.011,80.218 249.448 C 80.228 263.930,83.817 268.662,96.853 271.375 C 103.780 272.816,138.946 271.455,155.160 269.118 C 158.970 268.569,160.598 266.651,159.810 263.638 C 159.387 262.021,151.239 256.527,143.501 252.643 C 131.337 246.536,109.520 241.184,92.545 240.144 C 84.314 239.639,82.932 239.750,81.665 241.017 M412.424 240.664 C 398.342 242.146,378.784 247.480,368.499 252.643 C 360.761 256.527,352.613 262.021,352.190 263.638 C 351.402 266.651,353.030 268.569,356.840 269.118 C 373.054 271.455,408.220 272.816,415.147 271.375 C 428.183 268.662,431.772 263.930,431.782 249.448 C 431.788 240.588,431.084 239.743,423.832 239.903 C 420.933 239.966,415.799 240.309,412.424 240.664 M230.400 288.954 C 178.788 294.926,161.204 299.017,149.546 307.766 C 139.766 315.106,143.422 325.675,158.058 332.375 C 166.006 336.014,175.586 336.343,264.194 336.023 L 345.173 335.730 350.897 333.815 C 360.715 330.531,367.790 323.707,367.783 317.527 C 367.771 305.294,350.671 298.289,303.787 291.310 C 290.478 289.329,285.836 289.062,261.120 288.848 C 245.867 288.716,232.043 288.764,230.400 288.954 " stroke="none" fill-rule="evenodd" fill="black"></path></svg>