<svg xmlns="http://www.w3.org/2000/svg" width="512" height="512" viewBox="0 0 512 512"><path d="M142.788 97.753 C 132.532 100.002,119.581 107.249,113.208 114.303 C 107.004 121.169,103.871 127.565,84.020 173.866 L 64.000 220.565 64.019 311.882 C 64.037 398.632,64.116 403.372,65.604 406.649 C 67.723 411.315,71.608 414.380,76.817 415.497 C 82.430 416.701,109.570 416.701,115.183 415.497 C 120.392 414.380,124.277 411.315,126.396 406.649 C 127.614 403.968,127.967 401.063,127.981 393.600 L 128.000 384.000 256.000 384.000 L 384.000 384.000 384.019 393.600 C 384.033 401.063,384.386 403.968,385.604 406.649 C 387.723 411.315,391.608 414.380,396.817 415.497 C 402.430 416.701,429.570 416.701,435.183 415.497 C 440.392 414.380,444.277 411.315,446.396 406.649 C 447.884 403.373,447.963 398.634,447.981 311.924 L 448.000 220.649 428.281 174.538 C 417.435 149.177,407.275 126.291,405.703 123.681 C 397.770 110.508,384.138 100.967,368.571 97.692 C 360.023 95.894,151.007 95.950,142.788 97.753 M368.029 131.259 C 371.192 132.816,374.832 135.391,376.117 136.980 C 377.402 138.569,385.023 155.151,393.052 173.828 L 407.650 207.787 331.825 208.005 C 290.121 208.124,221.880 208.124,180.177 208.005 L 104.354 207.787 118.794 174.086 C 126.736 155.550,134.181 139.143,135.339 137.625 C 137.744 134.472,143.464 130.885,148.724 129.231 C 151.640 128.314,172.174 128.131,257.298 128.264 L 362.277 128.427 368.029 131.259 M415.573 296.086 L 415.573 352.386 256.000 352.386 L 96.427 352.386 96.427 296.086 L 96.427 239.787 256.000 239.787 L 415.573 239.787 415.573 296.086 M136.007 257.153 C 126.580 259.553,117.718 267.362,114.270 276.308 C 111.676 283.040,111.682 292.976,114.284 299.730 C 116.877 306.459,123.272 313.273,130.193 316.679 C 146.273 324.596,165.744 317.350,173.497 300.565 C 175.019 297.272,175.360 294.971,175.360 288.000 C 175.360 280.608,175.065 278.839,173.157 274.771 C 166.847 261.319,150.357 253.499,136.007 257.153 M361.263 256.887 C 352.395 258.642,342.830 266.272,338.843 274.771 C 336.935 278.839,336.640 280.608,336.640 288.000 C 336.640 294.971,336.981 297.272,338.503 300.565 C 348.413 322.019,375.810 326.535,391.553 309.310 C 397.300 303.022,399.605 296.920,399.605 288.000 C 399.605 279.343,397.304 273.055,391.962 267.113 C 383.938 258.188,373.036 254.557,361.263 256.887 " stroke="none" fill-rule="evenodd" fill="black"></path></svg>