<svg xmlns="http://www.w3.org/2000/svg" width="512" height="512" viewBox="0 0 512 512"><path d="M212.053 97.383 C 172.947 100.110,145.621 106.104,125.908 116.281 C 119.139 119.776,115.871 122.151,110.390 127.561 C 103.503 134.359,103.364 134.583,93.329 155.101 L 83.212 175.787 69.040 175.787 C 61.012 175.787,53.711 176.190,52.200 176.717 C 48.908 177.864,47.798 181.224,47.791 190.063 C 47.785 198.005,49.455 202.249,53.496 204.558 L 56.579 206.320 43.863 212.772 C 24.694 222.498,23.366 223.467,21.802 228.865 C 17.448 243.900,15.851 270.973,16.474 319.147 C 16.901 352.129,18.850 395.911,20.036 399.147 C 20.293 399.849,22.299 400.213,25.902 400.213 L 31.377 400.213 31.942 405.120 C 32.746 412.100,33.872 414.462,36.901 415.518 C 40.904 416.913,120.938 416.736,123.733 415.325 C 126.279 414.041,127.886 409.829,127.952 404.267 L 128.000 400.213 256.000 400.213 L 384.000 400.213 384.048 404.267 C 384.114 409.829,385.721 414.041,388.267 415.325 C 390.877 416.642,472.185 416.922,475.594 415.626 C 477.924 414.741,479.127 411.776,480.016 404.731 L 480.577 400.288 486.262 400.037 L 491.947 399.787 492.509 393.482 C 495.497 360.009,496.529 279.633,494.252 257.707 C 492.850 244.198,490.971 232.827,489.280 227.615 C 487.573 222.351,485.399 220.747,468.956 212.611 L 455.680 206.042 458.642 204.446 C 463.031 202.082,464.521 197.483,464.055 187.733 C 463.499 176.103,463.794 176.279,444.336 175.949 L 428.769 175.685 422.443 161.869 C 418.964 154.271,414.555 145.198,412.646 141.708 C 397.912 114.782,364.507 101.861,297.813 97.291 C 283.269 96.295,226.798 96.355,212.053 97.383 M299.520 130.116 C 330.611 133.223,352.625 138.243,366.918 145.485 C 379.215 151.717,391.046 168.618,402.683 196.581 L 406.104 204.800 255.947 204.800 L 105.790 204.800 107.153 201.600 C 107.903 199.840,109.237 196.598,110.119 194.396 C 113.196 186.714,121.388 171.042,125.870 164.267 C 134.178 151.705,142.592 145.330,157.447 140.344 C 171.552 135.609,195.123 131.480,218.027 129.731 C 224.597 129.229,231.701 128.674,233.813 128.496 C 242.375 127.777,287.158 128.881,299.520 130.116 M65.280 240.616 C 81.302 242.065,97.607 246.280,109.841 252.136 C 122.708 258.295,133.266 266.275,130.670 267.879 C 128.040 269.504,89.247 272.181,68.026 272.201 C 51.507 272.217,50.030 271.657,48.615 264.838 C 47.551 259.715,47.796 242.696,48.960 240.812 C 49.705 239.607,53.605 239.560,65.280 240.616 M461.816 240.853 C 463.825 242.451,464.334 248.154,463.298 257.447 C 462.095 268.236,460.968 270.942,457.376 271.661 C 447.735 273.589,388.319 270.469,385.188 267.870 C 382.804 265.891,383.828 263.096,388.053 260.051 C 397.573 253.190,407.666 248.776,422.654 244.921 C 439.568 240.569,458.929 238.559,461.816 240.853 M287.573 306.034 C 317.333 309.346,348.749 317.249,365.312 325.590 C 374.760 330.347,375.495 332.885,370.860 344.747 L 368.027 352.000 256.214 352.216 L 144.402 352.433 140.835 344.301 C 137.561 336.836,137.350 335.922,138.261 333.164 C 139.976 327.966,145.577 325.301,170.667 317.742 C 184.733 313.504,205.752 308.832,220.066 306.762 C 241.346 303.685,264.243 303.438,287.573 306.034 " stroke="none" fill-rule="evenodd" fill="black"></path></svg>