<svg xmlns="http://www.w3.org/2000/svg" width="512" height="512" viewBox="0 0 512 512"><path d="M220.587 97.374 C 182.135 100.268,150.196 107.062,131.840 116.251 C 114.694 124.835,100.598 140.820,88.252 165.682 L 83.312 175.630 71.736 175.944 C 58.416 176.305,54.496 177.677,50.812 183.270 C 46.757 189.425,47.064 195.657,51.755 202.425 C 52.968 204.175,53.747 206.163,53.487 206.842 C 53.226 207.521,50.205 209.694,46.773 211.672 C 28.682 222.099,24.718 228.425,20.592 253.440 C 17.467 272.394,16.645 284.548,16.643 311.893 C 16.640 340.118,17.215 346.371,21.898 369.067 C 25.435 386.208,27.284 391.657,30.732 395.106 C 32.412 396.786,35.045 398.526,36.583 398.974 C 38.980 399.671,39.603 400.454,40.960 404.471 C 43.021 410.571,46.953 414.217,52.832 415.478 C 58.724 416.741,109.328 416.753,115.208 415.492 C 120.950 414.260,125.800 409.763,127.256 404.319 L 128.304 400.399 133.485 399.833 C 136.335 399.522,143.467 398.159,149.333 396.805 C 164.293 393.352,168.247 392.744,185.173 391.296 C 213.509 388.873,238.733 388.042,268.800 388.544 C 313.335 389.286,341.806 391.670,361.813 396.333 C 368.619 397.920,376.325 399.477,378.937 399.794 L 383.688 400.371 384.740 404.305 C 386.200 409.764,391.043 414.259,396.792 415.492 C 402.672 416.753,453.276 416.741,459.168 415.478 C 465.047 414.217,468.979 410.571,471.040 404.471 C 472.397 400.454,473.020 399.671,475.417 398.974 C 480.246 397.569,484.109 392.813,486.224 385.670 C 489.141 375.818,492.159 360.251,494.151 344.771 C 497.182 321.230,495.764 277.780,491.086 250.880 C 487.286 229.021,482.974 222.168,467.168 212.866 C 462.829 210.313,459.035 207.586,458.736 206.806 C 458.411 205.960,459.051 204.148,460.321 202.315 C 464.932 195.661,465.218 189.387,461.188 183.270 C 457.506 177.681,453.581 176.305,440.291 175.944 L 428.743 175.631 423.051 164.402 C 410.513 139.665,397.300 124.832,380.160 116.251 C 361.461 106.891,329.760 100.253,289.707 97.311 C 275.921 96.299,234.369 96.336,220.587 97.374 M282.453 128.872 C 309.933 130.557,337.969 134.943,353.313 139.957 C 369.196 145.148,377.604 151.376,386.131 164.267 C 392.561 173.988,401.067 191.367,401.067 194.784 C 401.067 198.171,399.103 201.202,396.191 202.309 C 394.799 202.838,380.685 202.660,355.957 201.800 C 269.203 198.784,242.644 198.784,157.867 201.802 C 111.829 203.441,116.393 203.564,113.428 200.599 C 109.609 196.780,110.038 193.768,116.144 181.534 C 126.861 160.059,135.368 150.061,147.940 144.170 C 172.999 132.427,231.657 125.756,282.453 128.872 M77.653 241.523 C 104.125 247.817,128.000 258.452,128.000 263.949 C 128.000 268.960,125.133 269.620,95.573 271.413 C 68.701 273.043,58.417 271.694,52.484 265.760 C 46.552 259.828,46.168 244.208,51.878 241.108 C 55.387 239.203,68.804 239.419,77.653 241.523 M461.560 241.400 C 464.973 244.813,464.519 259.310,460.838 264.479 C 458.641 267.565,453.246 270.221,446.664 271.458 C 437.462 273.187,388.145 270.324,385.213 267.891 C 384.430 267.241,384.015 265.765,384.170 264.179 C 384.376 262.064,385.349 260.925,389.120 258.381 C 402.485 249.365,434.155 239.974,451.627 239.847 C 458.700 239.796,460.188 240.028,461.560 241.400 M276.480 304.658 C 291.068 305.544,314.144 308.569,328.960 311.538 C 349.198 315.592,362.096 321.107,365.691 327.240 C 369.435 333.629,367.915 339.263,360.932 344.880 C 355.283 349.424,349.327 350.821,331.947 351.678 C 310.289 352.746,170.698 351.993,165.120 350.777 C 155.265 348.630,145.674 341.600,144.570 335.714 C 143.018 327.443,149.648 321.290,165.991 315.834 C 176.060 312.472,186.911 310.359,208.213 307.610 C 236.254 303.991,253.349 303.252,276.480 304.658 " stroke="none" fill-rule="evenodd" fill="black"></path></svg>