<svg xmlns="http://www.w3.org/2000/svg" width="512" height="512" viewBox="0 0 512 512"><path d="M140.996 98.146 C 127.854 101.590,114.692 110.641,107.860 120.933 C 106.073 123.626,95.474 147.150,84.308 173.208 L 64.007 220.587 64.022 311.893 C 64.037 399.230,64.107 403.353,65.633 406.712 C 67.605 411.055,71.791 414.346,76.817 415.504 C 81.775 416.647,110.225 416.647,115.183 415.504 C 120.209 414.346,124.395 411.055,126.367 406.712 C 127.618 403.959,127.967 401.125,127.981 393.600 L 128.000 384.000 256.000 384.000 L 384.000 384.000 384.019 393.600 C 384.033 401.125,384.382 403.959,385.633 406.712 C 387.605 411.055,391.791 414.346,396.817 415.504 C 401.775 416.647,430.225 416.647,435.183 415.504 C 440.209 414.346,444.395 411.055,446.367 406.712 C 447.893 403.353,447.963 399.230,447.978 311.893 L 447.993 220.587 427.692 173.208 C 416.526 147.150,405.927 123.626,404.140 120.933 C 397.215 110.500,384.065 101.533,370.668 98.106 C 364.300 96.478,360.811 96.428,255.650 96.474 C 151.827 96.519,146.935 96.590,140.996 98.146 M368.029 131.259 C 371.192 132.816,374.832 135.391,376.117 136.980 C 377.402 138.569,385.023 155.151,393.052 173.828 L 407.650 207.787 331.825 208.005 C 290.121 208.124,221.880 208.124,180.177 208.005 L 104.354 207.787 118.794 174.086 C 126.736 155.550,134.181 139.143,135.339 137.625 C 137.878 134.296,143.955 130.604,149.273 129.158 C 152.297 128.337,176.670 128.135,257.725 128.263 L 362.277 128.427 368.029 131.259 M157.435 259.286 C 168.177 264.312,174.862 273.930,175.599 285.417 C 176.117 293.484,174.717 299.123,170.627 305.451 C 159.878 322.081,136.809 324.785,122.207 311.126 C 109.555 299.292,108.862 279.197,120.664 266.393 C 130.132 256.121,144.668 253.311,157.435 259.286 M380.978 258.861 C 401.558 268.282,406.196 295.783,389.793 311.126 C 375.191 324.785,352.122 322.081,341.373 305.451 C 329.376 286.889,339.172 262.322,360.743 256.872 C 366.117 255.515,375.733 256.459,380.978 258.861 " stroke="none" fill-rule="evenodd" fill="black"></path></svg>