<svg xmlns="http://www.w3.org/2000/svg" width="512" height="512" viewBox="0 0 512 512"><path d="M92.016 81.079 C 67.746 85.220,45.631 103.049,37.202 125.268 C 31.665 139.863,32.000 131.432,32.000 256.000 C 32.000 380.568,31.665 372.137,37.202 386.732 C 44.740 406.604,63.238 423.101,85.079 429.431 L 91.733 431.360 256.000 431.360 L 420.267 431.360 426.921 429.431 C 448.762 423.101,467.260 406.604,474.798 386.732 C 480.335 372.137,480.000 380.568,480.000 256.000 C 480.000 131.432,480.335 139.863,474.798 125.268 C 467.368 105.681,449.223 89.352,427.367 82.585 L 421.120 80.651 258.560 80.525 C 169.152 80.456,94.207 80.705,92.016 81.079 M420.469 113.738 C 427.143 116.010,435.096 121.845,439.595 127.768 C 445.397 135.407,447.250 141.009,447.789 152.533 L 448.238 162.133 256.119 162.133 L 64.000 162.133 64.000 155.423 C 64.000 151.733,64.386 146.645,64.858 144.116 C 67.724 128.757,81.817 114.931,96.853 112.728 C 99.677 112.314,172.387 112.031,258.987 112.097 C 407.218 112.209,416.250 112.301,420.469 113.738 M447.814 295.467 L 447.573 369.067 445.568 374.037 C 441.142 385.009,430.608 395.004,420.019 398.280 C 415.435 399.697,405.715 399.787,256.000 399.787 C 106.285 399.787,96.565 399.697,91.981 398.280 C 81.392 395.004,70.858 385.009,66.432 374.037 L 64.427 369.067 64.186 295.467 L 63.946 221.867 256.000 221.867 L 448.054 221.867 447.814 295.467 M119.467 271.285 C 111.645 273.745,104.262 280.179,100.774 287.573 C 98.615 292.149,98.560 292.705,98.560 309.776 L 98.560 327.285 101.342 332.937 C 104.579 339.515,109.203 344.027,115.951 347.191 L 120.747 349.440 150.187 349.695 C 181.326 349.964,184.173 349.704,190.749 345.984 C 196.099 342.958,201.742 336.363,203.892 330.624 C 206.191 324.484,207.189 307.650,205.823 298.050 C 204.176 286.474,198.689 278.279,189.256 273.309 L 184.747 270.933 153.173 270.774 C 135.808 270.686,120.640 270.916,119.467 271.285 " stroke="none" fill="black" fill-rule="evenodd"></path></svg>