<svg xmlns="http://www.w3.org/2000/svg" width="512" height="512" viewBox="0 0 512 512"><path d="M75.236 81.516 C 62.684 84.254,49.333 93.454,42.001 104.416 C 33.867 116.578,32.119 123.792,32.051 145.493 L 32.000 161.707 256.000 161.707 L 480.000 161.707 480.261 150.187 C 480.858 123.861,476.549 109.966,463.724 96.859 C 457.915 90.921,449.465 85.587,441.173 82.623 L 435.627 80.640 258.133 80.488 C 109.884 80.362,79.750 80.531,75.236 81.516 M31.937 223.004 C 31.696 223.631,31.625 260.207,31.778 304.285 C 32.033 377.853,32.180 384.847,33.562 389.547 C 38.513 406.385,48.952 419.146,63.586 426.248 C 75.756 432.154,62.062 431.761,256.000 431.761 C 449.976 431.761,436.266 432.155,448.414 426.236 C 463.249 419.008,473.877 405.887,478.478 389.120 C 479.889 383.979,480.000 377.672,480.000 302.933 L 480.000 222.293 256.187 222.078 C 70.092 221.900,32.301 222.056,31.937 223.004 M188.651 272.857 C 194.653 275.815,199.087 280.090,202.300 286.015 L 205.227 291.413 205.501 308.499 C 205.753 324.259,205.633 325.964,203.947 330.470 C 201.546 336.888,195.076 343.949,188.749 347.056 L 183.893 349.440 151.893 349.440 L 119.893 349.440 115.078 347.075 C 109.466 344.318,104.345 339.091,100.960 332.664 L 98.560 328.107 98.560 310.187 C 98.560 292.319,98.567 292.253,100.932 287.437 C 104.751 279.659,111.504 273.777,119.467 271.290 C 120.640 270.923,135.808 270.693,153.173 270.778 C 184.055 270.930,184.832 270.975,188.651 272.857 " stroke="none" fill-rule="evenodd" fill="black"></path></svg>