<svg xmlns="http://www.w3.org/2000/svg" width="512" height="512" viewBox="0 0 512 512"><path d="M40.850 81.925 C 36.355 84.300,33.534 88.105,32.476 93.218 C 31.876 96.114,31.627 109.062,31.773 129.707 L 32.000 161.707 256.000 161.707 L 480.000 161.707 480.227 129.707 C 480.373 109.062,480.124 96.114,479.524 93.218 C 478.448 88.019,475.601 84.247,470.967 81.883 C 467.745 80.239,464.466 80.214,255.821 80.251 C 48.666 80.288,43.878 80.325,40.850 81.925 M32.144 222.434 C 31.112 223.466,31.476 414.181,32.519 419.044 C 33.677 424.447,38.074 429.673,42.547 430.964 C 44.690 431.582,111.442 431.783,257.841 431.610 L 470.028 431.360 473.307 428.745 C 475.111 427.307,477.355 424.619,478.293 422.772 C 479.971 419.471,480.000 417.725,480.000 320.853 L 480.000 222.293 256.357 222.078 C 133.354 221.960,32.458 222.120,32.144 222.434 M203.559 272.601 L 205.653 274.696 205.626 309.935 C 205.606 336.290,205.337 345.515,204.560 346.527 C 202.043 349.805,201.059 349.867,151.457 349.867 L 103.122 349.867 100.628 347.372 L 98.133 344.878 98.133 309.950 L 98.133 275.023 100.226 272.765 L 102.319 270.507 151.891 270.507 L 201.464 270.507 203.559 272.601 " stroke="none" fill-rule="evenodd" fill="black"></path></svg>