<svg xmlns="http://www.w3.org/2000/svg" width="512" height="512" viewBox="0 0 512 512"><path d="M241.920 48.656 C 209.569 50.678,176.936 60.929,148.731 77.932 C 94.814 110.433,58.978 164.884,49.790 228.267 C 47.760 242.269,47.760 269.731,49.790 283.733 C 55.047 319.999,68.580 352.627,90.558 382.029 C 98.598 392.784,119.216 413.402,129.971 421.442 C 159.373 443.420,192.001 456.953,228.267 462.210 C 235.366 463.239,243.873 463.695,256.000 463.695 C 268.127 463.695,276.634 463.239,283.733 462.210 C 319.999 456.953,352.627 443.420,382.029 421.442 C 392.784 413.402,413.402 392.784,421.442 382.029 C 441.901 354.659,455.008 324.668,460.856 291.840 C 470.924 235.321,456.636 176.673,421.441 130.052 C 388.588 86.534,337.751 57.084,283.307 50.031 C 270.567 48.381,254.742 47.855,241.920 48.656 M292.021 168.311 C 293.920 169.378,296.325 171.765,297.470 173.719 L 299.520 177.217 299.520 256.000 L 299.520 334.783 297.470 338.281 C 293.526 345.012,284.160 347.904,277.333 344.498 C 275.691 343.678,253.803 325.907,228.693 305.006 C 179.640 264.174,179.200 263.739,179.200 256.000 C 179.200 248.288,179.665 247.828,228.693 207.006 C 253.803 186.100,275.499 168.420,276.907 167.717 C 280.825 165.761,287.985 166.042,292.021 168.311 " stroke="none" fill-rule="evenodd" fill="black"></path></svg>