<svg xmlns="http://www.w3.org/2000/svg" width="512" height="512" viewBox="0 0 512 512"><path d="M241.920 48.656 C 209.569 50.678,176.936 60.929,148.731 77.932 C 94.814 110.433,58.978 164.884,49.790 228.267 C 47.760 242.269,47.760 269.731,49.790 283.733 C 55.047 319.999,68.580 352.627,90.558 382.029 C 98.598 392.784,119.216 413.402,129.971 421.442 C 159.373 443.420,192.001 456.953,228.267 462.210 C 235.366 463.239,243.873 463.695,256.000 463.695 C 268.127 463.695,276.634 463.239,283.733 462.210 C 319.999 456.953,352.627 443.420,382.029 421.442 C 392.784 413.402,413.402 392.784,421.442 382.029 C 441.901 354.659,455.008 324.668,460.856 291.840 C 470.924 235.321,456.636 176.673,421.441 130.052 C 388.588 86.534,337.751 57.084,283.307 50.031 C 270.567 48.381,254.742 47.855,241.920 48.656 M362.514 213.973 C 361.815 214.795,337.699 243.787,308.922 278.400 C 280.146 313.013,256.331 341.333,256.000 341.333 C 255.669 341.333,231.854 313.013,203.078 278.400 C 174.301 243.787,150.185 214.795,149.486 213.973 C 148.277 212.552,153.433 212.480,256.000 212.480 C 358.567 212.480,363.723 212.552,362.514 213.973 " stroke="none" fill-rule="evenodd" fill="black"></path></svg>