<svg xmlns="http://www.w3.org/2000/svg" width="512" height="512" viewBox="0 0 512 512"><path d="M241.920 48.656 C 209.569 50.678,176.936 60.929,148.731 77.932 C 94.814 110.433,58.978 164.884,49.790 228.267 C 47.760 242.269,47.760 269.731,49.790 283.733 C 55.047 319.999,68.580 352.627,90.558 382.029 C 98.598 392.784,119.216 413.402,129.971 421.442 C 159.373 443.420,192.001 456.953,228.267 462.210 C 235.366 463.239,243.873 463.695,256.000 463.695 C 268.127 463.695,276.634 463.239,283.733 462.210 C 319.999 456.953,352.627 443.420,382.029 421.442 C 392.784 413.402,413.402 392.784,421.442 382.029 C 441.901 354.659,455.008 324.668,460.856 291.840 C 470.924 235.321,456.636 176.673,421.441 130.052 C 388.588 86.534,337.751 57.084,283.307 50.031 C 270.567 48.381,254.742 47.855,241.920 48.656 M338.281 214.530 C 343.532 217.607,345.876 222.368,345.448 229.089 C 345.173 233.400,344.610 235.114,342.596 237.764 C 341.216 239.581,323.626 260.843,303.508 285.013 C 281.334 311.654,265.701 329.714,263.811 330.876 C 259.520 333.512,252.480 333.512,248.189 330.876 C 246.299 329.714,230.666 311.654,208.492 285.013 C 188.374 260.843,170.784 239.581,169.404 237.764 C 167.390 235.114,166.827 233.400,166.552 229.089 C 166.128 222.432,168.454 217.660,173.635 214.553 L 177.067 212.496 255.925 212.488 L 334.783 212.480 338.281 214.530 " stroke="none" fill-rule="evenodd" fill="black"></path></svg>