<svg xmlns="http://www.w3.org/2000/svg" width="512" height="512" viewBox="0 0 512 512"><path d="M166.744 93.667 C 160.437 95.923,155.785 99.975,153.005 105.636 L 150.613 110.507 150.390 254.255 C 150.194 380.795,150.322 398.537,151.464 402.465 C 154.477 412.828,163.406 419.413,174.446 419.413 C 178.821 419.413,181.536 418.915,184.320 417.602 C 186.604 416.525,222.287 386.520,272.370 343.563 C 351.768 275.462,356.718 271.055,358.983 266.441 C 362.345 259.596,362.342 252.399,358.976 245.544 C 356.699 240.907,351.917 236.655,272.620 168.744 C 226.450 129.204,186.964 95.956,184.872 94.860 C 179.674 92.135,172.372 91.655,166.744 93.667 " stroke="none" fill-rule="evenodd" fill="black"></path></svg>