<svg xmlns="http://www.w3.org/2000/svg" width="512" height="512" viewBox="0 0 512 512"><path d="M241.920 48.656 C 209.569 50.678,176.936 60.929,148.731 77.932 C 94.814 110.433,58.978 164.884,49.790 228.267 C 47.760 242.269,47.760 269.731,49.790 283.733 C 55.047 319.999,68.580 352.627,90.558 382.029 C 98.598 392.784,119.216 413.402,129.971 421.442 C 159.373 443.420,192.001 456.953,228.267 462.210 C 235.366 463.239,243.873 463.695,256.000 463.695 C 268.127 463.695,276.634 463.239,283.733 462.210 C 319.999 456.953,352.627 443.420,382.029 421.442 C 392.784 413.402,413.402 392.784,421.442 382.029 C 441.901 354.659,455.008 324.668,460.856 291.840 C 470.924 235.321,456.636 176.673,421.441 130.052 C 388.588 86.534,337.751 57.084,283.307 50.031 C 270.567 48.381,254.742 47.855,241.920 48.656 M263.493 181.120 C 266.104 182.555,276.223 194.145,303.537 226.987 C 323.640 251.157,341.216 272.419,342.596 274.236 C 344.615 276.893,345.173 278.597,345.450 282.954 C 345.745 287.575,345.480 288.908,343.648 292.034 C 342.360 294.233,340.016 296.548,337.790 297.823 L 334.080 299.947 256.000 299.947 L 177.920 299.947 174.330 298.028 C 172.037 296.802,169.921 294.712,168.473 292.240 C 166.519 288.906,166.252 287.630,166.545 283.029 C 166.783 279.294,167.451 276.892,168.768 275.043 C 169.803 273.589,187.384 252.293,207.835 227.720 C 247.776 179.729,248.301 179.200,256.000 179.200 C 258.542 179.200,261.271 179.899,263.493 181.120 " stroke="none" fill-rule="evenodd" fill="black"></path></svg>