<svg xmlns="http://www.w3.org/2000/svg" width="512" height="512" viewBox="0 0 512 512"><path d="M31.768 80.000 L 32.000 96.000 65.311 96.223 L 98.622 96.446 122.519 231.903 L 146.417 367.360 289.102 367.576 L 431.787 367.792 431.787 352.002 L 431.787 336.213 302.646 336.213 L 173.505 336.213 170.806 320.980 C 169.321 312.602,168.107 305.306,168.107 304.767 C 168.107 304.033,200.917 303.787,298.667 303.787 C 370.475 303.787,429.227 303.686,429.227 303.562 C 429.227 303.164,466.721 115.693,467.198 113.707 L 467.659 111.787 300.833 111.787 L 134.006 111.787 133.578 109.867 C 133.342 108.811,131.787 100.075,130.123 90.453 C 128.458 80.832,126.696 70.944,126.207 68.480 L 125.319 64.000 78.427 64.000 L 31.536 64.000 31.768 80.000 M168.743 384.872 C 155.110 388.316,145.272 399.853,144.401 413.417 C 143.883 421.484,145.283 427.123,149.373 433.451 C 160.689 450.959,185.345 452.855,199.553 437.310 C 205.328 430.991,207.651 424.879,207.651 416.000 C 207.651 403.393,201.157 392.908,189.923 387.377 C 184.000 384.461,174.716 383.363,168.743 384.872 M391.620 385.112 C 382.406 387.726,373.647 395.593,370.247 404.308 C 367.615 411.055,367.621 420.960,370.262 427.730 C 372.888 434.466,379.297 441.285,386.193 444.679 C 400.477 451.712,417.963 446.856,426.627 433.451 C 439.987 412.780,426.306 385.791,401.744 384.366 C 398.085 384.154,393.912 384.462,391.620 385.112 " stroke="none" fill="black" fill-rule="evenodd"></path></svg>