<svg xmlns="http://www.w3.org/2000/svg" width="512" height="512" viewBox="0 0 512 512"><path d="M41.387 65.613 C 39.509 66.479,37.057 68.183,35.937 69.399 C 33.928 71.581,31.355 79.306,31.968 81.313 C 32.142 81.882,32.514 83.396,32.794 84.678 C 33.428 87.571,37.779 92.621,41.300 94.550 C 43.603 95.812,47.499 96.035,71.291 96.266 L 98.636 96.532 121.534 226.399 C 135.966 308.248,144.989 357.371,145.939 359.253 C 147.674 362.694,149.500 364.457,153.344 366.404 C 155.827 367.661,168.062 367.787,287.992 367.787 C 415.753 367.787,420.008 367.736,423.074 366.171 C 428.663 363.318,431.787 358.238,431.787 352.000 C 431.787 345.762,428.663 340.682,423.074 337.829 C 420.011 336.266,415.917 336.213,296.707 336.213 L 173.505 336.213 170.806 320.980 C 169.321 312.602,168.107 305.306,168.107 304.767 C 168.107 304.033,198.971 303.785,290.773 303.782 C 372.643 303.779,414.497 303.484,416.618 302.894 C 420.751 301.747,426.410 297.390,429.524 292.960 C 431.804 289.716,433.193 283.475,447.283 213.200 C 463.640 131.622,463.389 133.380,459.792 125.729 C 457.800 121.491,451.795 115.677,447.308 113.642 C 444.408 112.326,431.961 112.195,289.079 111.984 L 133.998 111.755 133.576 109.851 C 133.344 108.804,131.978 101.227,130.541 93.013 C 129.104 84.800,127.569 76.726,127.129 75.071 C 126.169 71.456,120.999 66.301,116.993 64.966 C 115.019 64.309,103.018 64.006,79.446 64.019 C 47.588 64.036,44.525 64.164,41.387 65.613 M428.373 144.443 C 428.373 144.844,403.683 268.283,403.201 270.293 L 402.741 272.213 282.505 272.213 L 162.269 272.213 161.792 269.867 C 160.689 264.443,139.947 146.036,139.947 145.166 C 139.947 144.468,178.583 144.213,284.160 144.213 C 363.477 144.213,428.373 144.317,428.373 144.443 M169.263 384.887 C 160.395 386.642,150.830 394.272,146.843 402.771 C 144.935 406.839,144.640 408.608,144.640 416.000 C 144.640 422.971,144.981 425.272,146.503 428.565 C 156.413 450.019,183.810 454.535,199.553 437.310 C 205.300 431.022,207.605 424.920,207.605 416.000 C 207.605 407.343,205.304 401.055,199.962 395.113 C 191.938 386.188,181.036 382.557,169.263 384.887 M392.007 385.153 C 382.580 387.553,373.718 395.362,370.270 404.308 C 367.676 411.040,367.682 420.976,370.284 427.730 C 372.877 434.459,379.272 441.273,386.193 444.679 C 402.273 452.596,421.744 445.350,429.497 428.565 C 431.019 425.272,431.360 422.971,431.360 416.000 C 431.360 408.608,431.065 406.839,429.157 402.771 C 422.847 389.319,406.357 381.499,392.007 385.153 " stroke="none" fill-rule="evenodd" fill="black"></path></svg>