<svg xmlns="http://www.w3.org/2000/svg" width="512" height="512" viewBox="0 0 512 512"><path d="M41.288 65.633 C 39.356 66.510,36.786 68.525,35.576 70.111 C 33.462 72.883,31.397 79.386,31.996 81.385 C 32.154 81.914,32.514 83.396,32.794 84.678 C 33.428 87.571,37.779 92.621,41.300 94.550 C 43.603 95.812,47.499 96.035,71.291 96.266 L 98.636 96.532 121.534 226.399 C 135.966 308.248,144.989 357.371,145.939 359.253 C 147.674 362.694,149.500 364.457,153.344 366.404 C 155.828 367.661,168.020 367.785,287.744 367.768 C 413.684 367.750,419.562 367.681,422.827 366.182 C 426.887 364.317,428.706 362.414,430.474 358.183 C 432.144 354.186,432.144 349.814,430.474 345.817 C 428.706 341.586,426.887 339.683,422.827 337.818 C 419.565 336.321,413.942 336.250,296.459 336.232 L 173.505 336.213 170.806 320.980 C 169.321 312.602,168.107 305.311,168.107 304.778 C 168.107 304.060,200.356 303.751,292.480 303.585 L 416.853 303.360 420.835 301.019 C 426.145 297.898,430.695 292.421,432.206 287.331 C 432.885 285.044,440.012 250.291,448.044 210.102 C 463.391 133.308,463.333 133.702,460.357 126.558 C 458.665 122.496,452.718 116.468,448.174 114.209 L 444.160 112.213 289.080 111.987 L 133.999 111.760 133.577 109.853 C 133.344 108.805,131.978 101.227,130.541 93.013 C 127.141 73.581,126.832 72.536,123.536 69.347 C 118.020 64.008,117.942 63.998,79.601 64.019 C 47.457 64.036,44.532 64.159,41.288 65.633 M168.743 384.872 C 155.110 388.316,145.272 399.853,144.401 413.417 C 143.883 421.484,145.283 427.123,149.373 433.451 C 160.689 450.959,185.345 452.855,199.553 437.310 C 205.328 430.991,207.651 424.879,207.651 416.000 C 207.651 403.393,201.157 392.908,189.923 387.377 C 184.000 384.461,174.716 383.363,168.743 384.872 M391.620 385.112 C 382.406 387.726,373.647 395.593,370.247 404.308 C 367.615 411.055,367.621 420.960,370.262 427.730 C 372.888 434.466,379.297 441.285,386.193 444.679 C 400.477 451.712,417.963 446.856,426.627 433.451 C 439.987 412.780,426.306 385.791,401.744 384.366 C 398.085 384.154,393.912 384.462,391.620 385.112 " stroke="none" fill-rule="evenodd" fill="black"></path></svg>