<svg xmlns="http://www.w3.org/2000/svg" width="512" height="512" viewBox="0 0 512 512"><path d="M40.743 64.926 C 31.726 67.052,23.333 73.835,19.131 82.393 L 16.640 87.467 16.383 115.956 L 16.127 144.444 29.183 143.980 C 38.934 143.633,43.861 143.048,48.640 141.671 C 67.066 136.360,80.984 124.789,89.204 107.947 C 94.132 97.851,95.479 91.762,96.142 76.587 L 96.692 64.000 70.319 64.086 C 55.814 64.133,42.505 64.511,40.743 64.926 M127.768 79.147 C 127.377 91.532,126.895 95.820,125.121 102.667 C 117.039 133.856,96.244 157.668,66.987 169.234 C 55.145 173.916,44.325 175.787,29.093 175.787 L 16.213 175.787 16.213 207.787 L 16.213 239.787 24.656 239.787 C 44.298 239.787,58.822 242.719,73.148 249.576 C 95.739 260.389,112.099 278.035,121.429 301.653 C 125.880 312.922,127.164 320.170,127.737 337.280 L 128.245 352.427 256.000 352.427 L 383.755 352.427 384.263 337.280 C 384.843 319.966,386.092 313.079,390.879 300.800 C 396.876 285.414,408.970 269.474,422.339 259.335 C 429.687 253.762,444.826 246.309,454.165 243.667 C 462.729 241.245,475.195 239.787,487.344 239.787 L 495.787 239.787 495.787 207.787 L 495.787 175.787 482.907 175.787 C 467.860 175.787,457.172 173.963,445.260 169.363 C 417.505 158.644,396.109 135.177,387.895 106.447 C 385.133 96.786,384.000 87.487,384.000 74.476 L 384.000 64.000 256.122 64.000 L 128.245 64.000 127.768 79.147 M415.856 76.533 C 416.522 91.777,417.867 97.856,422.807 107.947 C 431.153 124.994,444.759 136.310,463.360 141.671 C 468.139 143.048,473.066 143.633,482.817 143.980 L 495.873 144.444 495.617 115.956 L 495.360 87.467 492.869 82.393 C 489.579 75.692,484.198 70.458,477.185 67.135 L 471.467 64.427 443.385 64.160 L 415.304 63.893 415.856 76.533 M276.458 114.350 C 306.248 120.488,332.846 142.654,344.387 170.962 C 350.192 185.202,351.020 189.780,351.046 207.787 C 351.068 222.682,350.887 224.673,348.820 232.282 C 337.295 274.720,299.563 303.787,256.000 303.787 C 212.346 303.787,175.114 275.150,163.215 232.423 C 161.046 224.632,160.870 222.816,160.867 208.213 C 160.864 194.341,161.108 191.495,162.882 184.747 C 173.256 145.276,205.557 117.160,245.698 112.662 C 254.037 111.727,267.243 112.452,276.458 114.350 M242.773 145.438 C 218.725 151.066,200.473 168.495,194.013 192.000 C 191.634 200.657,191.836 216.991,194.426 225.280 C 198.061 236.916,202.649 244.530,211.166 253.059 C 217.685 259.589,220.136 261.399,226.987 264.749 C 238.312 270.286,244.150 271.681,256.000 271.681 C 267.850 271.681,273.688 270.286,285.013 264.749 C 291.864 261.399,294.315 259.589,300.834 253.059 C 309.351 244.530,313.939 236.916,317.574 225.280 C 320.164 216.991,320.366 200.657,317.987 192.000 C 312.086 170.529,295.560 153.395,274.347 146.755 C 266.662 144.349,250.335 143.669,242.773 145.438 M16.394 300.160 L 16.640 328.107 18.910 332.949 C 21.644 338.780,26.941 344.724,32.100 347.747 C 38.950 351.761,45.307 352.477,71.902 352.227 L 96.000 352.000 96.262 345.600 C 96.637 336.422,95.082 323.791,92.621 316.031 C 89.564 306.391,85.071 299.267,76.752 290.869 C 70.407 284.464,68.282 282.932,60.538 279.183 C 49.321 273.751,41.989 272.213,27.310 272.213 L 16.147 272.213 16.394 300.160 M466.347 273.605 C 463.061 274.294,456.363 276.802,451.462 279.178 C 443.723 282.929,441.589 284.468,435.248 290.869 C 426.929 299.267,422.436 306.391,419.379 316.031 C 416.918 323.791,415.363 336.422,415.738 345.600 L 416.000 352.000 440.098 352.227 C 466.693 352.477,473.050 351.761,479.900 347.747 C 485.059 344.724,490.356 338.780,493.090 332.949 L 495.360 328.107 495.606 300.160 L 495.853 272.213 484.086 272.283 C 477.307 272.323,469.788 272.883,466.347 273.605 M59.958 368.613 C 54.103 370.013,49.411 375.181,48.217 381.547 C 46.875 388.702,52.267 397.302,59.326 399.262 C 64.145 400.599,447.855 400.599,452.674 399.262 C 457.195 398.006,462.084 393.004,463.337 388.353 C 465.240 381.287,462.691 374.747,456.416 370.594 L 452.818 368.213 257.769 368.083 C 150.492 368.011,61.477 368.249,59.958 368.613 M89.157 417.616 C 85.535 419.194,81.256 424.364,80.577 427.982 C 79.136 435.663,82.555 443.090,88.960 446.190 L 92.699 448.000 256.000 448.000 L 419.301 448.000 423.040 446.190 C 428.745 443.428,431.360 438.879,431.360 431.715 C 431.360 426.585,431.080 425.622,428.739 422.693 C 427.298 420.889,424.802 418.742,423.193 417.921 C 420.436 416.516,410.741 416.431,256.000 416.461 C 122.167 416.488,91.256 416.701,89.157 417.616 " stroke="none" fill-rule="evenodd" fill="black"></path></svg>