<svg xmlns="http://www.w3.org/2000/svg" width="512" height="512" viewBox="0 0 512 512"><path d="M41.263 64.882 C 32.382 66.652,22.829 74.275,18.843 82.771 L 16.640 87.467 16.640 207.787 L 16.640 328.107 18.927 332.986 C 23.644 343.050,32.599 349.805,43.520 351.535 C 51.263 352.762,460.816 352.753,468.480 351.526 C 479.292 349.794,487.767 343.566,492.561 333.829 L 495.360 328.142 495.360 207.805 L 495.360 87.467 493.157 82.771 C 490.214 76.498,483.837 70.289,477.016 67.056 L 471.467 64.427 258.133 64.302 C 140.800 64.233,43.208 64.494,41.263 64.882 M93.867 96.834 C 93.867 98.050,89.310 109.077,87.723 111.703 C 84.010 117.846,77.957 124.913,72.533 129.439 C 66.773 134.245,55.373 140.418,50.560 141.337 L 47.787 141.867 47.787 119.147 L 47.787 96.427 70.827 96.427 C 83.499 96.427,93.867 96.610,93.867 96.834 M386.114 99.627 C 387.383 106.433,391.851 118.510,395.731 125.622 C 408.593 149.200,430.434 166.269,456.107 172.805 L 463.787 174.760 464.010 208.030 L 464.233 241.300 461.044 241.898 C 454.433 243.138,443.899 246.925,436.553 250.701 C 418.393 260.036,402.963 275.432,394.039 293.120 C 391.310 298.530,386.816 311.632,386.064 316.373 L 385.489 320.000 255.988 320.000 L 126.487 320.000 125.942 316.363 C 124.364 305.844,116.149 288.039,107.934 277.333 C 94.804 260.224,71.548 245.761,50.956 241.898 L 47.767 241.300 47.990 208.030 L 48.213 174.760 55.893 172.812 C 81.420 166.339,103.451 149.120,116.269 125.622 C 120.149 118.510,124.617 106.433,125.886 99.627 L 126.483 96.427 256.000 96.427 L 385.517 96.427 386.114 99.627 M464.213 119.147 L 464.213 141.867 461.440 141.337 C 456.627 140.418,445.227 134.245,439.467 129.439 C 430.530 121.982,423.192 111.715,419.844 101.985 C 418.903 99.250,418.133 96.881,418.133 96.720 C 418.133 96.559,428.501 96.427,441.173 96.427 L 464.213 96.427 464.213 119.147 M246.613 112.679 C 211.397 115.860,179.376 139.988,166.858 172.776 C 162.863 183.238,161.418 189.385,160.556 199.575 C 155.799 255.837,199.714 303.787,256.000 303.787 C 282.634 303.787,306.814 293.432,325.221 274.144 C 361.230 236.411,360.624 177.230,323.851 140.458 C 316.777 133.383,306.529 125.920,298.240 121.805 C 283.650 114.563,264.070 111.102,246.613 112.679 M269.476 145.517 C 282.421 148.084,296.594 156.800,305.617 167.744 C 322.251 187.919,324.593 217.560,311.332 240.066 C 303.560 253.256,290.428 263.900,275.820 268.850 C 268.051 271.484,266.783 271.664,256.000 271.664 C 245.217 271.664,243.949 271.484,236.180 268.850 C 231.255 267.182,225.329 264.364,221.610 261.922 C 179.104 234.017,183.274 172.191,229.155 150.044 C 240.709 144.467,255.693 142.785,269.476 145.517 M56.152 276.667 C 68.640 281.292,82.504 294.235,89.041 307.370 C 91.213 311.735,93.229 316.363,93.521 317.653 L 94.052 320.000 70.919 320.000 L 47.787 320.000 47.787 296.902 L 47.787 273.805 49.707 274.398 C 50.763 274.724,53.663 275.745,56.152 276.667 M464.213 296.960 L 464.213 320.000 441.081 320.000 L 417.948 320.000 418.479 317.653 C 418.771 316.363,420.813 311.659,423.018 307.200 C 426.389 300.383,428.255 297.872,434.746 291.413 C 438.991 287.189,444.676 282.435,447.379 280.848 C 451.620 278.357,461.639 274.099,463.573 273.964 C 463.925 273.940,464.213 284.288,464.213 296.960 M59.838 368.642 C 51.492 370.612,46.335 379.708,48.663 388.353 C 49.916 393.004,54.805 398.006,59.326 399.262 C 64.145 400.599,447.855 400.599,452.674 399.262 C 454.541 398.743,457.480 396.908,459.205 395.182 C 468.019 386.368,463.834 371.401,451.774 368.604 C 447.628 367.642,63.914 367.679,59.838 368.642 M89.157 417.616 C 85.535 419.194,81.256 424.364,80.577 427.982 C 79.136 435.663,82.555 443.090,88.960 446.190 L 92.699 448.000 256.000 448.000 L 419.301 448.000 423.040 446.190 C 429.445 443.090,432.864 435.663,431.423 427.982 C 430.726 424.269,426.411 419.149,422.654 417.580 C 418.613 415.891,93.035 415.926,89.157 417.616 " stroke="none" fill-rule="evenodd" fill="black"></path></svg>