<svg xmlns="http://www.w3.org/2000/svg" width="512" height="512" viewBox="0 0 512 512"><path d="M417.274 80.990 C 410.848 83.007,404.839 88.403,401.985 94.720 C 400.262 98.536,400.251 99.554,400.240 256.000 L 400.230 413.440 402.253 417.707 C 404.713 422.896,409.566 427.686,414.720 430.015 C 418.342 431.651,420.230 431.749,448.000 431.749 C 475.770 431.749,477.658 431.651,481.280 430.015 C 486.434 427.686,491.287 422.896,493.747 417.707 L 495.770 413.440 495.760 256.000 C 495.749 99.554,495.738 98.536,494.015 94.720 C 491.904 90.047,487.153 84.974,482.560 82.488 C 479.263 80.703,478.128 80.635,449.280 80.479 C 432.853 80.391,418.451 80.621,417.274 80.990 M464.213 256.000 L 464.213 400.213 448.000 400.213 L 431.787 400.213 431.787 256.000 L 431.787 111.787 448.000 111.787 L 464.213 111.787 464.213 256.000 M288.291 161.239 C 282.075 163.172,275.531 169.818,273.212 176.554 C 272.468 178.714,272.215 209.311,272.222 296.447 L 272.230 413.440 274.253 417.707 C 276.713 422.896,281.566 427.686,286.720 430.015 C 290.342 431.651,292.230 431.749,320.000 431.749 C 347.770 431.749,349.658 431.651,353.280 430.015 C 358.434 427.686,363.287 422.896,365.747 417.707 L 367.770 413.440 367.778 296.447 C 367.784 210.135,367.528 178.694,366.800 176.554 C 365.227 171.931,361.316 167.065,356.582 163.840 L 352.196 160.853 321.378 160.693 C 304.428 160.605,289.539 160.851,288.291 161.239 M336.213 296.107 L 336.213 400.213 320.000 400.213 L 303.787 400.213 303.787 296.107 L 303.787 192.000 320.000 192.000 L 336.213 192.000 336.213 296.107 M160.291 225.239 C 154.075 227.172,147.531 233.818,145.212 240.554 C 144.475 242.695,144.218 265.723,144.232 328.447 C 144.251 412.048,144.279 413.503,145.985 417.280 C 148.314 422.434,153.104 427.287,158.293 429.747 C 162.526 431.754,162.794 431.770,192.000 431.770 C 221.206 431.770,221.474 431.754,225.707 429.747 C 230.896 427.287,235.686 422.434,238.015 417.280 C 239.721 413.503,239.749 412.048,239.768 328.447 C 239.782 266.326,239.521 242.674,238.800 240.554 C 237.227 235.931,233.316 231.065,228.582 227.840 L 224.196 224.853 193.378 224.693 C 176.428 224.605,161.539 224.851,160.291 225.239 M208.213 328.107 L 208.213 400.213 192.000 400.213 L 175.787 400.213 175.787 328.107 L 175.787 256.000 192.000 256.000 L 208.213 256.000 208.213 328.107 M32.291 289.239 C 26.075 291.172,19.531 297.818,17.212 304.554 C 16.490 306.650,16.219 322.158,16.232 360.447 C 16.250 411.875,16.302 413.553,17.985 417.280 C 20.314 422.434,25.104 427.287,30.293 429.747 C 34.526 431.754,34.794 431.770,64.000 431.770 C 93.206 431.770,93.474 431.754,97.707 429.747 C 102.896 427.287,107.686 422.434,110.015 417.280 C 111.698 413.553,111.750 411.875,111.768 360.447 C 111.781 322.542,111.506 306.629,110.800 304.554 C 109.227 299.931,105.316 295.065,100.582 291.840 L 96.196 288.853 65.378 288.693 C 48.428 288.605,33.539 288.851,32.291 289.239 M80.213 360.107 L 80.213 400.213 64.000 400.213 L 47.787 400.213 47.787 360.107 L 47.787 320.000 64.000 320.000 L 80.213 320.000 80.213 360.107 " stroke="none" fill="black" fill-rule="evenodd"></path></svg>