<svg xmlns="http://www.w3.org/2000/svg" width="512" height="512" viewBox="0 0 512 512"><path d="M417.274 80.990 C 410.848 83.007,404.839 88.403,401.985 94.720 C 400.262 98.536,400.251 99.554,400.240 256.000 L 400.230 413.440 402.253 417.707 C 404.713 422.896,409.566 427.686,414.720 430.015 C 418.342 431.651,420.230 431.749,448.000 431.749 C 475.770 431.749,477.658 431.651,481.280 430.015 C 486.434 427.686,491.287 422.896,493.747 417.707 L 495.770 413.440 495.760 256.000 C 495.749 99.554,495.738 98.536,494.015 94.720 C 491.904 90.047,487.153 84.974,482.560 82.488 C 479.263 80.703,478.128 80.635,449.280 80.479 C 432.853 80.391,418.451 80.621,417.274 80.990 M287.960 161.542 C 280.866 164.319,275.518 169.759,273.202 176.554 C 272.471 178.697,272.216 209.994,272.222 296.447 L 272.230 413.440 274.253 417.707 C 276.713 422.896,281.566 427.686,286.720 430.015 C 290.341 431.650,292.243 431.750,320.000 431.760 C 349.087 431.770,349.491 431.746,353.707 429.774 C 356.053 428.677,359.546 426.066,361.467 423.973 C 368.357 416.467,367.857 426.997,367.594 294.827 C 367.365 179.692,367.323 176.991,365.682 173.682 C 363.537 169.357,358.856 164.676,354.532 162.532 C 351.379 160.968,349.071 160.842,320.853 160.689 C 299.070 160.571,289.830 160.811,287.960 161.542 M159.960 225.542 C 152.866 228.319,147.518 233.759,145.202 240.554 C 144.478 242.678,144.218 266.223,144.232 328.447 C 144.251 412.048,144.279 413.503,145.985 417.280 C 148.314 422.434,153.104 427.287,158.293 429.747 C 162.526 431.754,162.794 431.770,192.000 431.770 C 221.076 431.770,221.493 431.745,225.707 429.774 C 228.053 428.677,231.546 426.066,233.467 423.973 C 240.276 416.555,239.861 423.141,239.596 326.827 C 239.367 243.517,239.312 240.970,237.682 237.682 C 235.537 233.357,230.856 228.676,226.532 226.532 C 223.379 224.968,221.071 224.842,192.853 224.689 C 171.070 224.571,161.830 224.811,159.960 225.542 M31.960 289.542 C 24.866 292.319,19.518 297.759,17.202 304.554 C 16.494 306.632,16.219 322.476,16.232 360.447 C 16.250 411.875,16.302 413.553,17.985 417.280 C 20.314 422.434,25.104 427.287,30.293 429.747 C 34.526 431.754,34.794 431.770,64.000 431.770 C 93.076 431.770,93.493 431.745,97.707 429.774 C 100.053 428.677,103.546 426.066,105.467 423.973 C 112.112 416.734,111.869 419.316,111.599 358.827 C 111.370 307.348,111.289 304.923,109.682 301.682 C 108.759 299.820,106.634 296.927,104.960 295.253 C 98.548 288.842,98.738 288.873,64.853 288.689 C 43.070 288.571,33.830 288.811,31.960 289.542 " stroke="none" fill-rule="evenodd" fill="black"></path></svg>