<svg xmlns="http://www.w3.org/2000/svg" width="512" height="512" viewBox="0 0 512 512"><path d="M400.213 256.000 L 400.213 431.787 448.000 431.787 L 495.787 431.787 495.787 256.000 L 495.787 80.213 448.000 80.213 L 400.213 80.213 400.213 256.000 M272.213 296.107 L 272.213 431.787 320.000 431.787 L 367.787 431.787 367.787 296.107 L 367.787 160.427 320.000 160.427 L 272.213 160.427 272.213 296.107 M144.213 328.107 L 144.213 431.787 192.000 431.787 L 239.787 431.787 239.787 328.107 L 239.787 224.427 192.000 224.427 L 144.213 224.427 144.213 328.107 M16.213 360.107 L 16.213 431.787 64.000 431.787 L 111.787 431.787 111.787 360.107 L 111.787 288.427 64.000 288.427 L 16.213 288.427 16.213 360.107 " stroke="none" fill-rule="evenodd" fill="black"></path></svg>