<svg xmlns="http://www.w3.org/2000/svg" width="512" height="512" viewBox="0 0 512 512"><path d="M228.155 33.712 C 156.104 42.821,94.592 83.735,59.217 146.078 C 48.893 164.273,39.963 188.744,35.764 210.347 C 32.645 226.394,31.460 245.999,32.524 263.936 C 34.733 301.173,44.620 332.267,64.849 365.595 L 71.711 376.901 61.358 414.370 C 52.113 447.831,51.053 452.366,51.450 456.759 C 52.180 464.845,57.833 473.368,64.880 477.008 C 69.303 479.292,76.697 480.460,80.842 479.529 C 82.761 479.098,100.870 472.787,121.084 465.506 C 146.832 456.231,158.927 452.267,161.479 452.267 C 163.514 452.267,168.883 453.625,173.653 455.345 C 210.010 468.458,244.487 474.171,273.920 471.957 C 305.189 469.606,330.457 462.787,357.973 449.273 C 407.910 424.749,447.390 380.615,466.336 328.134 C 500.480 233.559,468.687 131.832,386.754 73.500 C 358.719 53.541,326.181 40.481,289.556 34.489 C 277.783 32.563,240.932 32.097,228.155 33.712 M282.977 66.133 C 316.416 70.697,347.117 83.427,373.760 103.773 C 428.460 145.547,455.810 212.312,445.817 279.675 C 435.424 349.738,386.598 408.286,320.112 430.410 C 284.567 442.238,249.741 443.342,212.112 433.834 C 207.386 432.640,196.224 429.215,187.307 426.223 C 169.299 420.181,162.853 419.094,154.087 420.620 C 150.949 421.167,134.619 426.591,117.797 432.673 C 100.975 438.756,87.042 443.733,86.835 443.733 C 86.627 443.733,90.058 430.773,94.459 414.933 C 104.744 377.914,104.519 378.994,103.276 372.678 C 101.916 365.765,99.331 360.152,92.479 349.236 C 75.897 322.820,67.030 295.582,64.698 263.895 C 58.533 180.117,110.255 103.161,191.807 74.775 C 206.364 69.708,225.016 65.828,241.067 64.528 C 248.839 63.899,273.541 64.845,282.977 66.133 M148.388 226.395 C 142.255 228.970,139.009 231.308,135.325 235.803 C 130.099 242.182,128.537 246.819,128.525 256.000 C 128.516 262.922,128.834 264.793,130.700 268.800 C 136.900 282.116,151.359 289.982,165.088 287.507 C 175.678 285.598,184.738 278.599,189.300 268.800 C 191.162 264.801,191.485 262.908,191.485 256.000 C 191.485 249.092,191.162 247.199,189.300 243.200 C 186.078 236.281,180.897 230.923,174.271 227.658 C 169.306 225.212,167.594 224.824,160.876 224.620 C 154.373 224.423,152.428 224.699,148.388 226.395 M245.190 225.958 C 231.066 230.994,222.060 246.154,224.454 260.863 C 228.648 286.630,260.051 296.861,278.456 278.456 C 294.014 262.899,289.591 236.922,269.730 227.205 C 263.501 224.157,251.893 223.567,245.190 225.958 M340.388 226.395 C 334.255 228.970,331.009 231.308,327.325 235.803 C 322.099 242.182,320.537 246.819,320.525 256.000 C 320.516 262.922,320.834 264.793,322.700 268.800 C 328.900 282.116,343.359 289.982,357.088 287.507 C 367.678 285.598,376.738 278.599,381.300 268.800 C 383.162 264.801,383.485 262.908,383.485 256.000 C 383.485 249.092,383.162 247.199,381.300 243.200 C 378.078 236.281,372.897 230.923,366.271 227.658 C 361.306 225.212,359.594 224.824,352.876 224.620 C 346.373 224.423,344.428 224.699,340.388 226.395 " stroke="none" fill-rule="evenodd" fill="black"></path></svg>