<svg xmlns="http://www.w3.org/2000/svg" width="512" height="512" viewBox="0 0 512 512"><path d="M51.200 48.583 C 43.828 50.090,37.319 55.429,33.964 62.720 L 32.000 66.987 31.775 213.693 C 31.575 343.611,31.700 360.987,32.866 365.538 C 34.942 373.641,39.978 379.360,47.605 382.275 C 51.888 383.913,54.042 384.000,90.059 384.000 L 128.000 384.000 128.000 423.680 C 128.000 445.504,128.228 463.360,128.506 463.360 C 128.785 463.360,155.284 445.504,187.393 423.680 L 245.774 384.000 352.829 384.000 C 458.199 384.000,459.954 383.973,464.395 382.275 C 472.022 379.360,477.058 373.641,479.134 365.538 C 480.300 360.987,480.425 343.611,480.225 213.693 L 480.000 66.987 478.036 62.720 C 475.552 57.322,471.783 53.377,466.347 50.484 L 462.080 48.213 258.133 48.093 C 145.963 48.027,52.843 48.247,51.200 48.583 M173.428 187.086 C 193.178 196.159,198.022 222.855,182.688 238.121 C 177.229 243.555,172.267 246.218,165.145 247.534 C 159.159 248.641,151.901 247.589,146.025 244.764 C 139.999 241.867,132.919 234.325,130.531 228.260 C 127.988 221.802,127.724 211.586,129.936 205.227 C 132.937 196.597,141.348 188.401,150.070 185.608 C 156.327 183.605,167.370 184.303,173.428 187.086 M270.080 187.505 C 276.308 190.719,281.534 195.970,284.744 202.240 C 286.928 206.507,287.147 207.748,287.147 215.893 C 287.147 223.993,286.916 225.324,284.742 229.751 C 280.140 239.121,271.724 245.398,260.826 247.587 C 248.131 250.136,233.434 242.327,227.258 229.751 C 225.084 225.324,224.853 223.993,224.853 215.893 C 224.853 207.748,225.072 206.507,227.256 202.240 C 230.329 196.238,235.644 190.742,241.067 187.961 C 247.525 184.648,248.967 184.351,257.280 184.617 C 263.919 184.830,265.654 185.221,270.080 187.505 M365.428 187.086 C 385.178 196.159,390.022 222.855,374.688 238.121 C 369.229 243.555,364.267 246.218,357.145 247.534 C 351.159 248.641,343.901 247.589,338.025 244.764 C 331.999 241.867,324.919 234.325,322.531 228.260 C 319.988 221.802,319.724 211.586,321.936 205.227 C 324.937 196.597,333.348 188.401,342.070 185.608 C 348.327 183.605,359.370 184.303,365.428 187.086 " stroke="none" fill-rule="evenodd" fill="black"></path></svg>