<svg xmlns="http://www.w3.org/2000/svg" width="512" height="512" viewBox="0 0 512 512"><path d="M267.808 33.263 C 202.473 41.478,146.261 80.513,118.677 136.823 C 106.302 162.086,100.572 187.102,100.567 215.893 C 100.563 245.015,106.419 270.039,119.438 296.533 C 147.962 354.577,204.261 393.038,270.080 399.444 C 295.546 401.923,324.370 397.460,358.658 385.729 C 365.673 383.329,369.427 382.455,371.031 382.848 C 372.297 383.159,387.251 388.346,404.262 394.374 C 429.102 403.175,436.086 405.333,439.737 405.333 C 449.346 405.333,457.170 400.468,461.384 391.871 C 465.254 383.978,464.858 381.082,455.323 347.514 L 447.020 318.282 451.404 311.674 C 457.716 302.158,466.980 282.815,470.940 270.881 C 477.245 251.879,479.879 235.042,479.808 214.187 C 479.644 166.201,461.646 123.015,427.520 88.721 C 398.978 60.038,364.374 42.073,323.840 34.894 C 315.792 33.469,309.308 33.023,293.547 32.814 C 282.517 32.668,270.935 32.870,267.808 33.263 M63.690 217.143 C 59.652 218.583,56.416 221.571,51.644 228.267 C 46.738 235.149,45.081 238.605,40.971 250.524 C 25.714 294.773,30.320 342.937,53.752 384.148 C 56.137 388.343,58.288 392.810,58.532 394.074 C 58.776 395.339,56.458 409.461,53.381 425.457 C 50.304 441.453,47.787 455.521,47.787 456.719 C 47.787 464.628,54.633 474.490,62.461 477.857 C 71.237 481.633,73.602 481.129,106.127 468.557 C 122.022 462.413,136.001 457.387,137.192 457.387 C 138.383 457.387,143.426 458.696,148.399 460.296 C 170.050 467.262,187.256 469.749,209.333 469.103 C 234.784 468.359,251.737 464.507,276.848 453.765 C 289.788 448.229,293.615 446.072,297.119 442.337 C 301.754 437.397,302.567 430.384,299.177 424.599 C 295.994 419.168,291.977 417.396,280.602 416.408 C 262.553 414.840,253.885 413.752,245.760 412.036 C 205.535 403.536,172.057 385.452,143.349 356.716 C 126.063 339.413,115.010 323.996,104.484 302.507 C 95.204 283.561,88.391 260.408,86.119 240.100 C 84.721 227.601,83.774 224.574,80.115 220.915 C 75.393 216.193,69.897 214.931,63.690 217.143 " stroke="none" fill-rule="evenodd" fill="black"></path></svg>