<svg xmlns="http://www.w3.org/2000/svg" width="512" height="512" viewBox="0 0 512 512"><path d="M228.693 33.661 C 198.494 37.531,172.825 45.616,148.053 59.061 C 92.520 89.202,52.931 139.787,38.336 199.253 C 30.634 230.634,30.059 266.089,36.758 296.474 C 42.248 321.378,53.983 349.563,66.898 368.865 L 71.902 376.344 59.990 427.958 C 53.038 458.079,48.461 479.571,48.999 479.568 C 49.505 479.565,75.267 473.264,106.247 465.565 L 162.574 451.567 181.341 457.830 C 212.902 468.364,234.396 472.204,261.547 472.159 C 280.572 472.127,294.579 470.439,312.747 465.989 C 366.905 452.722,413.270 419.676,444.538 372.058 C 469.691 333.751,482.415 285.258,479.503 238.800 C 473.007 135.195,395.266 51.511,289.707 34.493 C 277.977 32.602,240.903 32.097,228.693 33.661 M174.271 227.658 C 197.105 238.908,197.655 272.005,175.207 283.938 C 149.155 297.787,120.401 272.889,130.132 244.907 C 132.978 236.723,139.430 230.151,148.250 226.451 C 152.440 224.694,154.320 224.421,160.876 224.620 C 167.594 224.824,169.306 225.212,174.271 227.658 M269.795 227.236 C 275.461 230.009,282.667 237.340,285.274 242.986 C 286.826 246.345,287.147 248.576,287.147 256.000 C 287.147 264.021,286.904 265.455,284.828 269.682 C 278.637 282.286,264.589 289.735,251.137 287.546 C 241.068 285.907,231.720 278.959,227.226 269.774 C 224.290 263.772,223.566 253.425,225.594 246.447 C 228.150 237.656,236.310 229.125,245.193 225.957 C 251.928 223.555,263.500 224.157,269.795 227.236 M366.271 227.658 C 389.105 238.908,389.655 272.005,367.207 283.938 C 341.155 297.787,312.401 272.889,322.132 244.907 C 324.978 236.723,331.430 230.151,340.250 226.451 C 344.440 224.694,346.320 224.421,352.876 224.620 C 359.594 224.824,361.306 225.212,366.271 227.658 " stroke="none" fill-rule="evenodd" fill="black"></path></svg>