<svg xmlns="http://www.w3.org/2000/svg" width="512" height="512" viewBox="0 0 512 512"><path d="M94.856 48.746 C 65.517 51.865,40.624 74.588,33.563 104.695 C 32.092 110.966,32.000 117.570,32.000 216.320 L 32.000 321.280 33.873 328.616 C 37.657 343.437,43.767 353.602,55.569 364.712 C 61.789 370.567,64.968 372.803,71.963 376.240 C 85.068 382.681,88.028 383.275,109.404 383.764 L 127.929 384.187 128.178 419.002 L 128.427 453.817 131.036 457.095 C 134.887 461.932,140.204 464.443,145.388 463.873 C 147.677 463.621,150.536 462.768,151.742 461.978 C 152.948 461.188,174.576 443.331,199.803 422.297 L 245.671 384.054 333.396 383.780 C 431.044 383.475,423.822 383.907,437.624 377.542 C 445.829 373.758,453.090 368.485,460.034 361.268 C 469.314 351.625,474.583 342.221,478.082 329.057 C 479.908 322.186,479.925 321.380,480.214 222.293 C 480.402 157.769,480.194 119.351,479.625 113.683 C 479.068 108.128,477.737 101.873,475.996 96.621 C 469.895 78.224,454.015 61.191,435.844 53.556 C 422.420 47.916,434.796 48.298,260.267 48.137 C 172.975 48.056,98.781 48.329,94.856 48.746 M418.594 81.529 C 432.104 85.026,444.084 97.696,447.040 111.615 C 448.388 117.966,448.397 313.763,447.049 320.171 C 443.693 336.128,429.609 349.279,413.440 351.553 C 409.851 352.057,373.497 352.400,322.364 352.410 C 246.135 352.425,236.903 352.570,233.826 353.801 C 231.839 354.596,215.734 367.378,195.622 384.121 L 160.853 413.066 160.427 388.506 C 159.972 362.348,159.940 362.145,155.416 357.257 C 151.049 352.539,150.388 352.428,126.549 352.410 C 114.440 352.400,101.845 352.006,98.560 351.533 C 86.985 349.867,76.759 343.093,69.897 332.546 C 63.770 323.128,64.000 327.679,64.000 215.980 C 64.000 146.129,64.284 114.779,64.947 111.615 C 67.081 101.422,75.034 90.636,84.501 85.096 C 93.104 80.062,83.562 80.331,255.607 80.269 C 395.245 80.220,414.096 80.366,418.594 81.529 " stroke="none" fill-rule="evenodd" fill="black"></path></svg>