<svg xmlns="http://www.w3.org/2000/svg" width="512" height="512" viewBox="0 0 512 512"><path d="M228.693 33.661 C 191.559 38.419,160.075 49.963,130.179 69.782 C 95.973 92.459,67.379 125.825,51.221 161.920 C 21.368 228.605,26.635 304.851,65.356 366.532 C 68.716 371.886,70.827 376.173,70.827 377.646 C 70.827 378.965,66.534 395.430,61.288 414.236 C 53.133 443.470,51.744 449.355,51.710 454.827 C 51.676 460.140,52.053 461.960,53.929 465.547 C 56.279 470.044,61.318 475.181,65.442 477.288 C 69.470 479.345,76.047 480.363,80.213 479.575 C 82.325 479.175,100.655 472.867,120.945 465.557 C 144.883 456.934,159.013 452.267,161.185 452.267 C 163.044 452.267,172.439 454.893,182.319 458.175 C 212.803 468.300,234.716 472.191,261.120 472.167 C 335.316 472.099,403.145 435.098,444.482 372.143 C 477.873 321.291,488.429 255.492,472.685 196.352 C 450.159 111.735,379.137 48.911,289.707 34.493 C 277.977 32.602,240.903 32.097,228.693 33.661 " stroke="none" fill-rule="evenodd" fill="black"></path></svg>