<svg xmlns="http://www.w3.org/2000/svg" width="512" height="512" viewBox="0 0 512 512"><path d="M228.155 33.712 C 200.717 37.181,177.458 44.324,152.215 57.035 C 88.706 89.014,44.270 150.432,34.088 220.306 C 32.362 232.151,31.713 250.265,32.524 263.936 C 34.733 301.180,44.619 332.266,64.860 365.612 L 71.732 376.935 61.367 414.383 C 52.240 447.354,51.052 452.400,51.432 456.591 C 52.167 464.696,57.903 473.404,64.880 477.008 C 69.303 479.292,76.697 480.460,80.842 479.529 C 82.761 479.098,100.870 472.787,121.084 465.506 C 146.832 456.231,158.927 452.267,161.479 452.267 C 163.514 452.267,168.883 453.625,173.653 455.345 C 210.010 468.458,244.487 474.171,273.920 471.957 C 305.189 469.606,330.457 462.787,357.973 449.273 C 407.910 424.749,447.390 380.615,466.336 328.134 C 496.321 245.080,475.702 155.519,412.647 94.921 C 378.952 62.539,337.945 42.406,289.556 34.489 C 277.783 32.563,240.932 32.097,228.155 33.712 M282.977 66.133 C 316.416 70.697,347.117 83.427,373.760 103.773 C 428.486 145.567,455.815 212.280,445.817 279.675 C 435.424 349.738,386.598 408.286,320.112 430.410 C 284.567 442.238,249.741 443.342,212.112 433.834 C 207.386 432.640,196.224 429.215,187.307 426.223 C 169.299 420.181,162.853 419.094,154.087 420.620 C 150.949 421.167,134.619 426.591,117.797 432.673 C 100.975 438.756,87.046 443.733,86.843 443.733 C 86.640 443.733,90.072 430.773,94.469 414.933 C 104.741 377.936,104.520 378.997,103.276 372.678 C 101.916 365.765,99.331 360.152,92.479 349.236 C 75.897 322.820,67.030 295.582,64.698 263.895 C 58.540 180.211,110.306 103.144,191.706 74.810 C 206.364 69.708,224.974 65.832,241.067 64.528 C 248.839 63.899,273.541 64.845,282.977 66.133 " stroke="none" fill-rule="evenodd" fill="black"></path></svg>