<svg xmlns="http://www.w3.org/2000/svg" width="512" height="512" viewBox="0 0 512 512"><path d="M264.960 33.729 C 222.915 39.664,187.041 56.640,157.536 84.564 C 131.538 109.169,114.807 137.446,105.861 171.902 C 98.765 199.232,98.646 230.269,105.529 258.560 C 111.795 284.313,124.731 310.454,141.421 331.093 C 147.654 338.801,162.172 353.258,169.813 359.368 C 191.991 377.100,221.234 390.708,249.173 396.297 C 284.700 403.404,311.163 401.036,354.787 386.846 L 369.521 382.053 402.574 393.717 C 437.183 405.929,439.757 406.547,447.320 404.446 C 452.405 403.034,458.606 397.540,461.277 392.081 C 465.167 384.129,464.829 381.607,455.353 347.944 L 447.005 318.288 452.584 309.536 C 478.104 269.504,486.357 218.609,474.826 172.373 C 461.720 119.822,425.947 76.210,376.133 52.053 C 357.210 42.877,342.131 38.015,321.707 34.503 C 310.406 32.560,276.516 32.098,264.960 33.729 M315.325 66.085 C 396.794 78.462,455.094 150.159,447.205 228.267 C 444.671 253.351,437.557 273.697,423.782 295.253 C 417.008 305.855,414.259 313.670,414.971 320.302 C 415.230 322.717,418.192 334.420,421.554 346.309 C 424.916 358.197,427.538 368.048,427.380 368.200 C 427.222 368.351,416.341 364.606,403.200 359.876 L 379.307 351.278 369.920 351.217 C 360.636 351.157,360.359 351.214,344.585 356.430 C 318.633 365.013,303.335 367.964,285.013 367.920 C 231.849 367.794,183.074 340.054,154.247 293.547 C 134.861 262.270,127.915 221.091,135.824 184.335 C 148.523 125.324,197.882 78.573,259.717 66.986 C 276.062 63.923,298.683 63.556,315.325 66.085 M61.146 217.093 C 56.612 218.772,54.205 221.268,50.391 228.246 C 42.820 242.097,36.388 261.870,33.630 279.773 C 31.954 290.657,31.773 313.739,33.282 324.267 C 36.500 346.723,44.583 369.517,55.751 387.635 L 59.559 393.813 53.713 423.680 C 50.498 440.107,47.849 454.725,47.827 456.165 C 47.753 460.993,50.240 467.265,53.860 471.378 C 59.666 477.974,67.713 480.947,75.712 479.453 C 77.929 479.039,92.548 473.690,108.199 467.566 L 136.653 456.432 145.767 459.432 C 178.655 470.258,208.219 472.261,240.213 465.831 C 258.085 462.239,286.935 450.548,294.656 443.769 C 298.816 440.116,300.908 433.527,299.530 428.412 C 298.394 424.193,294.133 419.145,290.387 417.580 C 284.927 415.298,280.595 416.062,270.709 421.050 C 247.619 432.700,229.077 437.296,205.227 437.282 C 185.903 437.271,176.404 435.662,155.307 428.827 C 141.826 424.459,137.681 423.769,131.726 424.900 C 129.317 425.357,117.453 429.598,105.362 434.323 C 93.271 439.049,83.250 442.788,83.094 442.632 C 82.938 442.476,84.984 431.067,87.641 417.280 L 92.472 392.211 91.073 386.876 C 90.267 383.804,87.710 378.351,85.044 374.023 C 76.205 359.669,71.413 348.577,67.972 334.507 C 60.565 304.219,64.010 273.154,77.902 244.965 C 81.388 237.891,82.334 235.102,82.287 232.029 C 82.123 221.206,71.089 213.411,61.146 217.093 " stroke="none" fill-rule="evenodd" fill="black"></path></svg>