<svg xmlns="http://www.w3.org/2000/svg" width="512" height="512" viewBox="0 0 512 512"><path d="M267.520 33.710 C 245.351 36.855,227.975 42.128,208.640 51.579 C 170.226 70.355,141.303 98.971,123.205 136.107 C 111.272 160.594,105.813 184.615,105.813 212.642 C 105.813 273.284,136.509 329.951,187.647 363.716 C 216.328 382.652,254.752 394.221,289.023 394.237 C 305.005 394.245,331.323 389.005,355.817 380.939 C 365.374 377.791,373.924 375.467,375.943 375.467 C 377.913 375.467,396.835 380.491,419.044 386.911 C 459.063 398.481,460.700 398.808,461.975 395.487 C 462.262 394.739,458.225 377.864,453.004 357.989 C 447.106 335.535,443.705 321.083,444.021 319.822 C 444.302 318.706,447.059 313.969,450.149 309.296 C 496.915 238.581,487.793 147.207,428.000 87.414 C 400.363 59.777,364.470 41.474,324.255 34.511 C 312.929 32.550,279.068 32.072,267.520 33.710 M69.546 203.733 C 62.136 212.582,52.608 227.307,47.874 237.227 C 24.308 286.609,27.081 341.650,55.536 389.289 C 59.252 395.511,62.293 400.941,62.293 401.354 C 62.293 401.768,59.031 418.797,55.044 439.196 C 47.594 477.309,47.438 478.858,50.960 479.741 C 51.796 479.951,68.410 474.431,87.879 467.475 C 114.147 458.089,124.298 454.827,127.234 454.827 C 129.696 454.827,135.984 456.421,143.888 459.050 C 164.542 465.920,180.001 468.480,200.828 468.480 C 236.894 468.480,272.041 456.835,301.031 435.280 C 311.144 427.761,317.440 421.680,317.440 419.432 C 317.440 415.664,315.831 415.291,304.634 416.462 C 292.366 417.746,269.175 417.123,256.000 415.157 C 212.512 408.667,172.075 389.133,142.235 360.201 C 125.351 343.831,108.098 318.925,98.813 297.517 C 87.554 271.558,82.273 247.325,81.335 217.317 C 80.770 199.247,80.443 197.973,76.377 197.973 C 74.944 197.973,72.989 199.621,69.546 203.733 " stroke="none" fill-rule="evenodd" fill="black"></path></svg>