<svg xmlns="http://www.w3.org/2000/svg" width="512" height="512" viewBox="0 0 512 512"><path d="M51.200 48.583 C 43.828 50.090,37.319 55.429,33.964 62.720 L 32.000 66.987 31.775 213.693 C 31.575 343.611,31.700 360.987,32.866 365.538 C 34.942 373.641,39.978 379.360,47.605 382.275 C 51.888 383.913,54.042 384.000,90.059 384.000 L 128.000 384.000 128.000 423.680 C 128.000 445.504,128.228 463.360,128.506 463.360 C 128.785 463.360,155.284 445.504,187.393 423.680 L 245.774 384.000 352.829 384.000 C 458.199 384.000,459.954 383.973,464.395 382.275 C 472.022 379.360,477.058 373.641,479.134 365.538 C 480.300 360.987,480.425 343.611,480.225 213.693 L 480.000 66.987 478.036 62.720 C 475.552 57.322,471.783 53.377,466.347 50.484 L 462.080 48.213 258.133 48.093 C 145.963 48.027,52.843 48.247,51.200 48.583 " stroke="none" fill-rule="evenodd" fill="black"></path></svg>