<svg xmlns="http://www.w3.org/2000/svg" width="512" height="512" viewBox="0 0 512 512"><path d="M94.772 48.704 C 65.691 52.519,42.214 73.410,33.949 102.827 L 32.031 109.653 31.752 210.347 C 31.562 279.037,31.768 313.591,32.401 319.066 C 35.974 350.017,56.106 373.231,87.027 382.056 C 90.384 383.014,96.933 383.509,109.867 383.784 L 128.000 384.170 128.019 417.578 C 128.036 448.145,128.171 451.280,129.604 454.435 C 133.504 463.021,144.502 466.715,151.848 461.907 C 152.996 461.156,174.578 443.330,199.808 422.294 L 245.680 384.046 332.973 383.797 C 413.589 383.566,420.654 383.431,425.334 382.036 C 432.728 379.831,439.703 376.889,445.251 373.636 C 452.193 369.566,465.748 355.851,470.009 348.587 C 474.665 340.649,478.451 329.006,479.596 319.105 C 480.237 313.568,480.440 279.472,480.246 210.347 L 479.962 109.653 478.047 102.827 C 470.619 76.339,451.941 57.656,425.387 50.151 L 418.560 48.222 259.413 48.103 C 171.883 48.037,97.794 48.308,94.772 48.704 M173.428 187.086 C 193.178 196.159,198.022 222.855,182.688 238.121 C 177.229 243.555,172.267 246.218,165.145 247.534 C 159.159 248.641,151.901 247.589,146.025 244.764 C 139.999 241.867,132.919 234.325,130.531 228.260 C 127.988 221.802,127.724 211.586,129.936 205.227 C 132.937 196.597,141.348 188.401,150.070 185.608 C 156.327 183.605,167.370 184.303,173.428 187.086 M270.080 187.505 C 276.308 190.719,281.534 195.970,284.744 202.240 C 286.928 206.507,287.147 207.748,287.147 215.893 C 287.147 223.993,286.916 225.324,284.742 229.751 C 280.140 239.121,271.724 245.398,260.826 247.587 C 248.131 250.136,233.434 242.327,227.258 229.751 C 225.084 225.324,224.853 223.993,224.853 215.893 C 224.853 207.748,225.072 206.507,227.256 202.240 C 230.329 196.238,235.644 190.742,241.067 187.961 C 247.525 184.648,248.967 184.351,257.280 184.617 C 263.919 184.830,265.654 185.221,270.080 187.505 M365.428 187.086 C 385.178 196.159,390.022 222.855,374.688 238.121 C 369.229 243.555,364.267 246.218,357.145 247.534 C 351.159 248.641,343.901 247.589,338.025 244.764 C 331.999 241.867,324.919 234.325,322.531 228.260 C 319.988 221.802,319.724 211.586,321.936 205.227 C 324.937 196.597,333.348 188.401,342.070 185.608 C 348.327 183.605,359.370 184.303,365.428 187.086 " stroke="none" fill-rule="evenodd" fill="black"></path></svg>