<svg xmlns="http://www.w3.org/2000/svg" width="512" height="512" viewBox="0 0 512 512"><path d="M228.693 33.661 C 198.494 37.531,172.825 45.616,148.053 59.061 C 92.520 89.202,52.931 139.787,38.336 199.253 C 30.634 230.634,30.059 266.089,36.758 296.474 C 42.116 320.781,52.700 346.620,65.619 366.933 C 68.843 372.003,70.784 375.978,70.800 377.542 C 70.815 378.918,66.534 395.430,61.288 414.236 C 53.133 443.470,51.744 449.355,51.710 454.827 C 51.676 460.140,52.053 461.960,53.929 465.547 C 56.279 470.044,61.318 475.181,65.442 477.288 C 69.468 479.344,76.047 480.363,80.213 479.576 C 82.325 479.177,100.663 472.870,120.964 465.559 C 145.026 456.894,159.046 452.267,161.239 452.267 C 163.089 452.267,170.864 454.396,178.515 456.998 C 196.607 463.152,208.357 466.244,223.573 468.857 C 249.369 473.285,266.810 473.620,290.987 470.150 C 354.465 461.041,408.973 426.221,444.538 372.058 C 469.691 333.751,482.415 285.258,479.503 238.800 C 473.007 135.195,395.266 51.511,289.707 34.493 C 277.977 32.602,240.903 32.097,228.693 33.661 M174.271 227.658 C 197.105 238.908,197.655 272.005,175.207 283.938 C 149.155 297.787,120.401 272.889,130.132 244.907 C 132.978 236.723,139.430 230.151,148.250 226.451 C 152.440 224.694,154.320 224.421,160.876 224.620 C 167.594 224.824,169.306 225.212,174.271 227.658 M269.795 227.236 C 275.461 230.009,282.667 237.340,285.274 242.986 C 286.826 246.345,287.147 248.576,287.147 256.000 C 287.147 264.021,286.904 265.455,284.828 269.682 C 278.637 282.286,264.589 289.735,251.137 287.546 C 241.068 285.907,231.720 278.959,227.226 269.774 C 224.290 263.772,223.566 253.425,225.594 246.447 C 228.150 237.656,236.310 229.125,245.193 225.957 C 251.928 223.555,263.500 224.157,269.795 227.236 M366.271 227.658 C 389.105 238.908,389.655 272.005,367.207 283.938 C 341.155 297.787,312.401 272.889,322.132 244.907 C 324.978 236.723,331.430 230.151,340.250 226.451 C 344.440 224.694,346.320 224.421,352.876 224.620 C 359.594 224.824,361.306 225.212,366.271 227.658 " stroke="none" fill-rule="evenodd" fill="black"></path></svg>