<svg xmlns="http://www.w3.org/2000/svg" width="512" height="512" viewBox="0 0 512 512"><path d="M94.772 48.704 C 65.691 52.519,42.214 73.410,33.949 102.827 L 32.031 109.653 31.752 210.347 C 31.562 279.037,31.768 313.591,32.401 319.066 C 35.974 350.017,56.106 373.231,87.027 382.056 C 90.384 383.014,96.933 383.509,109.867 383.784 L 128.000 384.170 128.019 417.578 C 128.036 448.145,128.171 451.280,129.604 454.435 C 133.504 463.021,144.502 466.715,151.848 461.907 C 152.996 461.156,174.578 443.330,199.808 422.294 L 245.680 384.046 332.973 383.797 C 413.589 383.566,420.654 383.431,425.334 382.036 C 432.728 379.831,439.703 376.889,445.251 373.636 C 452.193 369.566,465.748 355.851,470.009 348.587 C 474.665 340.649,478.451 329.006,479.596 319.105 C 480.237 313.568,480.440 279.472,480.246 210.347 L 479.962 109.653 478.047 102.827 C 470.619 76.339,451.941 57.656,425.387 50.151 L 418.560 48.222 259.413 48.103 C 171.883 48.037,97.794 48.308,94.772 48.704 " stroke="none" fill-rule="evenodd" fill="black"></path></svg>