<svg xmlns="http://www.w3.org/2000/svg" width="512" height="512" viewBox="0 0 512 512"><path d="M228.693 33.661 C 198.494 37.531,172.825 45.616,148.053 59.061 C 92.520 89.202,52.931 139.787,38.336 199.253 C 30.634 230.634,30.059 266.089,36.758 296.474 C 42.248 321.378,53.983 349.563,66.898 368.865 L 71.902 376.344 59.990 427.958 C 53.038 458.079,48.461 479.571,48.999 479.568 C 49.505 479.565,75.267 473.264,106.247 465.565 L 162.574 451.567 181.341 457.830 C 212.902 468.364,234.396 472.204,261.547 472.159 C 280.572 472.127,294.579 470.439,312.747 465.989 C 366.905 452.722,413.270 419.676,444.538 372.058 C 469.691 333.751,482.415 285.258,479.503 238.800 C 473.007 135.195,395.266 51.511,289.707 34.493 C 277.977 32.602,240.903 32.097,228.693 33.661 " stroke="none" fill-rule="evenodd" fill="black"></path></svg>