<svg xmlns="http://www.w3.org/2000/svg" width="512" height="512" viewBox="0 0 512 512"><path d="M241.493 48.673 C 201.694 51.236,163.176 65.747,129.707 90.787 C 119.118 98.709,98.459 119.383,90.552 129.971 C 68.706 159.223,55.330 191.336,49.785 227.840 C 47.724 241.414,47.724 270.586,49.785 284.160 C 55.331 320.671,68.725 352.821,90.558 382.029 C 98.598 392.784,119.216 413.402,129.971 421.442 C 159.179 443.275,191.329 456.669,227.840 462.215 C 241.414 464.276,270.586 464.276,284.160 462.215 C 320.686 456.667,352.914 443.237,382.029 421.430 C 392.784 413.374,413.374 392.784,421.430 382.029 C 443.237 352.914,456.667 320.686,462.215 284.160 C 464.276 270.586,464.276 241.414,462.215 227.840 C 455.463 183.387,436.803 144.683,406.921 113.150 C 370.380 74.590,322.088 52.062,268.561 48.607 C 255.365 47.755,255.779 47.754,241.493 48.673 M284.160 82.308 C 319.998 88.383,351.735 104.258,377.739 129.118 C 405.349 155.513,423.300 189.800,429.832 228.618 C 431.923 241.048,431.905 271.514,429.799 283.733 C 419.921 341.032,385.307 387.989,334.011 413.679 C 285.590 437.929,226.410 437.929,177.989 413.679 C 126.525 387.905,91.775 340.650,82.174 283.382 C 80.053 270.734,80.053 241.266,82.174 228.618 C 92.715 165.745,133.739 115.017,192.849 91.764 C 205.896 86.632,221.606 82.941,239.787 80.737 C 246.454 79.928,276.372 80.988,284.160 82.308 M345.173 161.642 C 343.765 162.274,341.231 164.275,339.543 166.089 C 337.854 167.903,310.249 200.683,278.199 238.933 C 246.150 277.184,219.287 309.161,218.506 309.994 C 217.161 311.426,215.824 310.106,193.819 285.611 C 181.023 271.368,169.331 258.985,167.837 258.095 C 163.491 255.504,155.675 255.823,151.211 258.774 C 144.982 262.893,142.422 271.563,145.408 278.427 C 147.252 282.666,206.750 348.237,210.496 350.158 C 214.495 352.210,220.540 352.306,224.567 350.382 C 226.933 349.252,244.272 329.157,295.820 267.807 C 333.290 223.212,364.809 185.320,365.862 183.603 C 367.972 180.164,368.423 174.168,366.879 170.082 C 365.767 167.139,362.176 163.247,359.082 161.630 C 356.191 160.120,348.552 160.126,345.173 161.642 " stroke="none" fill-rule="evenodd" fill="black"></path></svg>