<svg xmlns="http://www.w3.org/2000/svg" width="512" height="512" viewBox="0 0 512 512"><path d="M241.920 48.669 C 177.359 52.784,118.768 87.102,81.958 142.362 C 55.666 181.831,43.309 234.683,49.503 281.173 C 55.829 328.652,75.879 369.527,109.176 402.824 C 142.702 436.350,182.619 455.851,231.680 462.670 C 235.904 463.257,246.848 463.738,256.000 463.738 C 265.152 463.738,276.096 463.257,280.320 462.670 C 329.321 455.859,369.272 436.331,402.802 402.802 C 436.331 369.272,455.859 329.321,462.670 280.320 C 464.046 270.420,464.046 241.580,462.670 231.680 C 455.892 182.914,436.342 142.776,403.220 109.623 C 391.401 97.792,382.569 90.546,369.558 82.006 C 331.997 57.351,287.606 45.757,241.920 48.669 M363.759 164.993 C 369.260 169.617,373.760 173.743,373.760 174.164 C 373.760 174.805,223.756 354.038,219.346 358.667 C 217.840 360.248,212.057 354.052,140.180 273.844 L 137.428 270.772 148.967 260.399 C 155.314 254.694,160.784 250.027,161.123 250.027 C 161.462 250.027,174.183 263.868,189.393 280.786 C 215.745 310.099,217.115 311.474,218.505 310.013 C 219.307 309.170,249.212 273.621,284.961 231.015 L 349.960 153.549 351.859 155.068 C 352.903 155.903,358.259 160.370,363.759 164.993 " stroke="none" fill-rule="evenodd" fill="black"></path></svg>