<svg xmlns="http://www.w3.org/2000/svg" width="512" height="512" viewBox="0 0 512 512"><path d="M103.680 48.717 C 76.481 51.947,54.403 73.087,49.059 101.020 C 47.144 111.029,47.144 400.971,49.059 410.980 C 54.229 438.003,73.972 457.814,100.802 462.903 C 106.846 464.050,126.236 464.213,256.000 464.213 C 385.764 464.213,405.154 464.050,411.198 462.903 C 433.391 458.693,451.456 443.830,459.582 423.095 C 464.383 410.844,464.213 416.968,464.213 256.000 C 464.213 126.236,464.050 106.846,462.903 100.802 C 457.554 72.602,435.374 51.879,407.069 48.635 C 398.118 47.609,112.360 47.687,103.680 48.717 M359.040 162.237 C 366.375 165.787,369.921 175.760,366.307 182.672 C 365.432 184.347,333.893 222.412,296.222 267.261 C 222.357 355.199,225.251 352.103,217.084 351.920 C 215.127 351.877,212.137 351.109,210.438 350.214 C 207.409 348.618,149.209 284.900,145.818 279.467 C 143.870 276.347,143.647 268.094,145.417 264.704 C 147.033 261.610,150.926 258.019,153.869 256.908 C 155.190 256.408,158.123 256.000,160.386 256.000 C 163.656 256.000,165.304 256.569,168.415 258.773 C 170.567 260.299,182.393 272.794,194.693 286.541 C 215.949 310.298,217.128 311.460,218.500 310.008 C 219.294 309.168,244.259 279.488,273.979 244.053 C 342.262 162.641,341.480 163.547,344.883 161.870 C 348.834 159.923,354.568 160.072,359.040 162.237 " stroke="none" fill-rule="evenodd" fill="black"></path></svg>