<svg xmlns="http://www.w3.org/2000/svg" width="512" height="512" viewBox="0 0 512 512"><path d="M284.964 183.127 C 243.455 230.831,208.483 271.069,207.248 272.546 L 205.002 275.231 221.212 289.296 C 230.128 297.031,237.724 303.360,238.093 303.360 C 238.461 303.360,271.492 265.728,311.494 219.733 C 351.497 173.739,386.460 133.581,389.190 130.494 L 394.155 124.881 377.957 110.867 C 369.048 103.160,361.461 96.750,361.097 96.624 C 360.733 96.497,326.473 135.424,284.964 183.127 M353.280 221.504 C 293.440 290.226,243.440 347.701,242.168 349.226 L 239.856 352.000 194.376 306.557 L 148.895 261.114 133.331 276.696 L 117.766 292.277 179.851 354.357 L 241.935 416.438 367.368 272.577 C 436.355 193.454,493.480 127.820,494.312 126.724 L 495.824 124.731 479.630 110.579 C 470.724 102.795,463.131 96.456,462.758 96.491 C 462.385 96.526,413.120 152.782,353.280 221.504 M31.143 276.484 L 15.796 291.848 77.870 353.922 L 139.944 415.996 155.516 400.424 L 171.088 384.853 109.226 322.986 C 75.202 288.960,47.167 261.120,46.927 261.120 C 46.686 261.120,39.583 268.034,31.143 276.484 " stroke="none" fill="black" fill-rule="evenodd"></path></svg>