<svg xmlns="http://www.w3.org/2000/svg" width="512" height="512" viewBox="0 0 512 512"><path d="M363.479 112.754 C 361.813 113.209,359.435 114.426,358.194 115.457 C 353.489 119.367,219.016 274.506,217.510 277.760 C 213.350 286.751,218.409 296.795,228.440 299.464 C 232.805 300.625,238.398 299.453,241.715 296.682 C 246.414 292.758,380.868 137.633,382.373 134.400 C 385.074 128.599,383.946 121.834,379.479 117.051 C 375.686 112.988,369.096 111.218,363.479 112.754 M460.373 112.553 C 458.965 112.907,456.932 113.671,455.854 114.249 C 454.777 114.828,406.824 169.135,349.292 234.931 C 291.761 300.727,243.395 355.897,241.814 357.530 L 238.938 360.500 195.202 316.847 C 147.672 269.407,149.994 271.328,141.538 272.462 C 131.197 273.849,125.099 285.323,129.683 294.771 C 130.803 297.079,148.155 314.997,181.523 348.304 C 226.786 393.483,232.047 398.464,235.443 399.360 C 239.513 400.433,243.872 399.939,247.676 397.972 C 250.037 396.751,475.859 139.431,477.875 135.664 C 480.827 130.149,480.450 123.439,476.910 118.468 C 473.741 114.017,465.818 111.184,460.373 112.553 M41.387 273.555 C 37.938 275.349,35.099 278.085,33.504 281.153 C 31.797 284.435,31.809 291.601,33.527 294.847 C 34.266 296.244,57.649 320.096,85.489 347.853 C 126.153 388.395,136.753 398.524,139.394 399.361 C 152.817 403.617,164.826 388.294,157.596 376.136 C 154.299 370.593,58.332 275.147,54.427 273.528 C 50.363 271.844,44.655 271.855,41.387 273.555 " stroke="none" fill="black" fill-rule="evenodd"></path></svg>