<svg xmlns="http://www.w3.org/2000/svg" width="512" height="512" viewBox="0 0 512 512"><path d="M241.920 48.669 C 177.359 52.784,118.768 87.102,81.958 142.362 C 55.666 181.831,43.309 234.683,49.503 281.173 C 55.829 328.652,75.879 369.527,109.176 402.824 C 142.702 436.350,182.619 455.851,231.680 462.670 C 235.904 463.257,246.848 463.738,256.000 463.738 C 265.152 463.738,276.096 463.257,280.320 462.670 C 329.321 455.859,369.272 436.331,402.802 402.802 C 436.331 369.272,455.859 329.321,462.670 280.320 C 464.046 270.420,464.046 241.580,462.670 231.680 C 455.892 182.914,436.342 142.776,403.220 109.623 C 391.401 97.792,382.569 90.546,369.558 82.006 C 331.997 57.351,287.606 45.757,241.920 48.669 M359.040 162.237 C 366.375 165.787,369.921 175.760,366.307 182.672 C 365.432 184.347,333.893 222.412,296.222 267.261 C 222.357 355.199,225.251 352.103,217.084 351.920 C 215.127 351.877,212.137 351.109,210.438 350.214 C 207.409 348.618,149.209 284.900,145.818 279.467 C 143.870 276.347,143.647 268.094,145.417 264.704 C 147.033 261.610,150.926 258.019,153.869 256.908 C 155.190 256.408,158.123 256.000,160.386 256.000 C 163.656 256.000,165.304 256.569,168.415 258.773 C 170.567 260.299,182.393 272.794,194.693 286.541 C 215.949 310.298,217.128 311.460,218.500 310.008 C 219.294 309.168,244.259 279.488,273.979 244.053 C 342.262 162.641,341.480 163.547,344.883 161.870 C 348.834 159.923,354.568 160.072,359.040 162.237 " stroke="none" fill-rule="evenodd" fill="black"></path></svg>