<svg xmlns="http://www.w3.org/2000/svg" width="512" height="512" viewBox="0 0 512 512"><path d="M241.920 48.669 C 177.359 52.784,118.768 87.102,81.958 142.362 C 55.666 181.831,43.309 234.683,49.503 281.173 C 55.829 328.652,75.879 369.527,109.176 402.824 C 142.702 436.350,182.619 455.851,231.680 462.670 C 235.904 463.257,246.848 463.738,256.000 463.738 C 265.152 463.738,276.096 463.257,280.320 462.670 C 329.321 455.859,369.272 436.331,402.802 402.802 C 436.331 369.272,455.859 329.321,462.670 280.320 C 464.046 270.420,464.046 241.580,462.670 231.680 C 455.892 182.914,436.342 142.776,403.220 109.623 C 391.401 97.792,382.569 90.546,369.558 82.006 C 331.997 57.351,287.606 45.757,241.920 48.669 M315.986 179.721 C 322.183 185.170,327.253 190.080,327.253 190.632 C 327.253 191.184,310.934 210.288,290.988 233.084 L 254.723 274.531 242.606 263.051 L 230.490 251.572 252.819 226.693 C 298.466 175.832,303.915 169.813,304.312 169.813 C 304.536 169.813,309.789 174.272,315.986 179.721 M378.280 179.707 C 384.477 185.148,389.666 189.923,389.813 190.318 C 390.069 191.010,258.269 342.392,257.030 342.828 C 256.695 342.945,240.488 327.106,221.014 307.628 L 185.608 272.214 196.910 260.912 L 208.212 249.610 231.674 273.060 L 255.136 296.511 257.589 293.962 C 258.938 292.560,283.918 264.053,313.102 230.613 C 342.285 197.173,366.354 169.813,366.587 169.813 C 366.821 169.813,372.083 174.265,378.280 179.707 M203.304 331.301 L 192.000 342.605 156.590 307.204 L 121.181 271.802 132.477 260.482 L 143.774 249.163 179.191 284.580 L 214.608 319.997 203.304 331.301 " stroke="none" fill-rule="evenodd" fill="black"></path></svg>