<svg xmlns="http://www.w3.org/2000/svg" width="512" height="512" viewBox="0 0 512 512"><path d="M241.493 48.673 C 201.694 51.236,163.176 65.747,129.707 90.787 C 119.118 98.709,98.459 119.383,90.552 129.971 C 68.706 159.223,55.330 191.336,49.785 227.840 C 47.724 241.414,47.724 270.586,49.785 284.160 C 55.331 320.671,68.725 352.821,90.558 382.029 C 98.598 392.784,119.216 413.402,129.971 421.442 C 159.179 443.275,191.329 456.669,227.840 462.215 C 241.414 464.276,270.586 464.276,284.160 462.215 C 320.686 456.667,352.914 443.237,382.029 421.430 C 392.784 413.374,413.374 392.784,421.430 382.029 C 443.237 352.914,456.667 320.686,462.215 284.160 C 464.276 270.586,464.276 241.414,462.215 227.840 C 455.463 183.387,436.803 144.683,406.921 113.150 C 370.380 74.590,322.088 52.062,268.561 48.607 C 255.365 47.755,255.779 47.754,241.493 48.673 M284.160 82.308 C 319.998 88.383,351.735 104.258,377.739 129.118 C 405.349 155.513,423.300 189.800,429.832 228.618 C 431.923 241.048,431.905 271.514,429.799 283.733 C 419.921 341.032,385.307 387.989,334.011 413.679 C 285.590 437.929,226.410 437.929,177.989 413.679 C 126.525 387.905,91.775 340.650,82.174 283.382 C 80.053 270.734,80.053 241.266,82.174 228.618 C 92.715 165.745,133.739 115.017,192.849 91.764 C 205.896 86.632,221.606 82.941,239.787 80.737 C 246.454 79.928,276.372 80.988,284.160 82.308 M300.902 176.821 C 299.074 177.315,296.208 179.116,294.502 180.842 C 286.129 189.317,240.878 241.968,239.596 244.727 C 235.891 252.701,239.907 262.175,248.518 265.773 C 252.568 267.465,255.942 267.444,260.303 265.699 C 263.170 264.552,268.637 258.767,291.146 233.059 C 306.193 215.874,319.216 200.277,320.087 198.400 C 322.887 192.361,321.840 186.220,317.127 181.039 C 313.392 176.933,306.815 175.223,300.902 176.821 M363.418 176.768 C 361.719 177.231,359.164 178.640,357.740 179.899 C 356.316 181.157,333.561 206.955,307.174 237.227 C 280.787 267.499,258.284 293.221,257.166 294.387 L 255.134 296.507 236.154 277.565 C 223.852 265.288,216.057 258.161,214.001 257.311 C 209.834 255.589,206.012 255.681,201.778 257.604 C 192.961 261.609,189.561 272.273,194.548 280.281 C 195.439 281.710,207.806 294.460,222.030 308.614 C 244.706 331.177,248.352 334.470,251.616 335.340 C 255.951 336.494,260.647 335.892,264.209 333.726 C 267.795 331.545,380.462 202.518,382.376 198.400 C 385.181 192.366,384.135 186.222,379.420 181.039 C 375.737 176.989,369.102 175.219,363.418 176.768 M139.406 256.589 C 136.672 257.125,130.496 262.770,129.169 265.947 C 127.561 269.796,127.735 274.553,129.633 278.613 C 130.677 280.848,140.322 291.054,157.561 308.168 C 185.915 336.316,186.741 336.940,194.135 335.831 C 203.769 334.386,209.847 325.087,207.349 315.616 C 206.486 312.345,203.190 308.696,180.197 285.561 C 163.091 268.348,152.844 258.675,150.613 257.633 C 147.400 256.131,143.567 255.774,139.406 256.589 " stroke="none" fill-rule="evenodd" fill="black"></path></svg>