<svg xmlns="http://www.w3.org/2000/svg" width="512" height="512" viewBox="0 0 512 512"><path d="M241.493 48.632 C 206.738 51.017,171.801 62.745,142.933 81.718 C 128.585 91.149,120.680 97.613,108.343 110.003 C 91.556 126.864,78.221 145.748,68.219 166.827 C 46.496 212.602,42.128 264.444,55.943 312.506 C 76.100 382.635,130.610 436.733,201.051 456.521 C 248.226 469.773,299.811 465.232,345.124 443.839 C 387.146 424.000,423.561 387.678,443.573 345.640 C 469.519 291.139,470.759 229.452,447.019 174.126 C 431.508 137.977,405.897 106.938,372.907 84.308 C 346.166 65.965,315.080 54.076,283.273 50.026 C 270.229 48.366,253.508 47.808,241.493 48.632 M313.173 177.940 C 317.906 180.376,321.724 186.764,321.688 192.186 C 321.678 193.726,320.951 196.523,320.074 198.400 C 319.196 200.277,306.179 215.871,291.146 233.054 C 262.287 266.040,261.108 267.122,254.063 267.075 C 247.494 267.030,240.672 261.603,238.897 255.012 C 237.570 250.083,238.628 245.438,242.119 240.864 C 246.657 234.918,292.490 182.532,295.457 179.899 C 299.929 175.930,307.617 175.080,313.173 177.940 M375.467 177.940 C 380.200 180.376,384.018 186.764,383.981 192.186 C 383.971 193.726,383.247 196.523,382.371 198.400 C 380.049 203.384,266.337 333.064,263.199 334.308 C 258.468 336.183,255.924 336.414,251.912 335.330 C 248.279 334.348,245.411 331.781,222.012 308.562 C 207.303 293.967,195.355 281.406,194.334 279.467 C 189.884 271.011,193.532 261.042,202.438 257.321 C 211.001 253.743,213.978 255.458,234.287 275.665 C 249.517 290.819,251.708 292.693,254.184 292.693 C 255.714 292.693,257.723 292.288,258.649 291.792 C 259.575 291.297,281.840 266.241,308.126 236.112 C 334.413 205.984,356.788 180.641,357.849 179.796 C 362.672 175.952,370.088 175.171,375.467 177.940 M150.613 257.628 C 152.854 258.672,163.008 268.266,180.172 285.556 C 204.903 310.470,206.363 312.114,207.168 315.976 C 209.766 328.436,199.620 338.516,187.656 335.360 C 184.334 334.483,180.811 331.304,157.561 308.197 C 140.348 291.091,130.675 280.844,129.633 278.613 C 125.887 270.597,129.439 261.478,137.813 257.613 C 142.157 255.608,146.289 255.613,150.613 257.628 " stroke="none" fill-rule="evenodd" fill="black"></path></svg>