<svg xmlns="http://www.w3.org/2000/svg" width="512" height="512" viewBox="0 0 512 512"><path d="M47.787 256.000 L 47.787 464.213 256.000 464.213 L 464.213 464.213 464.213 256.000 L 464.213 47.787 256.000 47.787 L 47.787 47.787 47.787 256.000 M363.759 164.993 C 369.260 169.617,373.760 173.743,373.760 174.164 C 373.760 174.805,223.756 354.038,219.346 358.667 C 217.840 360.248,212.057 354.052,140.180 273.844 L 137.428 270.772 148.967 260.399 C 155.314 254.694,160.784 250.027,161.123 250.027 C 161.462 250.027,174.183 263.868,189.393 280.786 C 215.745 310.099,217.115 311.474,218.505 310.013 C 219.307 309.170,249.212 273.621,284.961 231.015 L 349.960 153.549 351.859 155.068 C 352.903 155.903,358.259 160.370,363.759 164.993 " stroke="none" fill-rule="evenodd" fill="black"></path></svg>