<svg xmlns="http://www.w3.org/2000/svg" width="512" height="512" viewBox="0 0 512 512"><path d="M103.945 48.665 C 78.348 51.701,57.559 69.728,50.142 95.318 L 48.213 101.973 48.213 256.000 L 48.213 410.027 50.142 416.682 C 56.625 439.049,72.949 455.375,95.309 461.855 L 101.973 463.787 256.000 463.787 L 410.027 463.787 416.691 461.855 C 438.989 455.393,455.393 438.989,461.855 416.691 L 463.787 410.027 463.787 256.000 L 463.787 101.973 461.855 95.309 C 455.391 73.005,438.753 56.394,416.558 50.085 L 410.027 48.229 259.840 48.108 C 177.237 48.042,107.084 48.293,103.945 48.665 M413.215 82.934 C 419.468 85.865,426.135 92.532,429.066 98.785 L 431.360 103.680 431.360 256.000 L 431.360 408.320 429.066 413.215 C 426.135 419.468,419.468 426.135,413.215 429.066 L 408.320 431.360 256.000 431.360 L 103.680 431.360 98.785 429.066 C 92.532 426.135,85.865 419.468,82.934 413.215 L 80.640 408.320 80.640 256.000 L 80.640 103.680 82.576 99.481 C 86.481 91.014,93.296 84.746,101.803 81.797 C 106.021 80.335,113.685 80.269,257.280 80.450 L 408.320 80.640 413.215 82.934 M345.173 161.642 C 343.765 162.274,341.231 164.275,339.543 166.089 C 337.854 167.903,310.249 200.683,278.199 238.933 C 246.150 277.184,219.287 309.161,218.506 309.994 C 217.161 311.426,215.824 310.106,193.819 285.611 C 181.023 271.368,169.331 258.985,167.837 258.095 C 163.491 255.504,155.675 255.823,151.211 258.774 C 144.982 262.893,142.422 271.563,145.408 278.427 C 147.252 282.666,206.750 348.237,210.496 350.158 C 214.495 352.210,220.540 352.306,224.567 350.382 C 226.933 349.252,244.272 329.157,295.820 267.807 C 333.290 223.212,364.809 185.320,365.862 183.603 C 367.972 180.164,368.423 174.168,366.879 170.082 C 365.767 167.139,362.176 163.247,359.082 161.630 C 356.191 160.120,348.552 160.126,345.173 161.642 " stroke="none" fill="black" fill-rule="evenodd"></path></svg>