<svg xmlns="http://www.w3.org/2000/svg" width="512" height="512" viewBox="0 0 512 512"><path d="M101.941 162.393 C 93.031 166.650,87.083 176.926,88.178 186.168 C 89.305 195.687,87.243 193.410,166.650 272.820 C 248.967 355.140,245.122 351.744,256.000 351.744 C 266.878 351.744,263.033 355.140,345.350 272.820 C 424.757 193.410,422.695 195.687,423.822 186.168 C 424.950 176.642,418.645 166.106,409.449 162.150 C 403.481 159.583,393.645 159.966,388.608 162.963 C 386.777 164.051,356.192 193.971,320.640 229.450 L 256.000 293.958 191.360 229.450 C 155.808 193.971,125.214 164.046,123.373 162.950 C 118.231 159.891,107.748 159.618,101.941 162.393 " stroke="none" fill="black" fill-rule="evenodd"></path></svg>