<svg xmlns="http://www.w3.org/2000/svg" width="512" height="512" viewBox="0 0 512 512"><path d="M241.920 48.656 C 209.569 50.678,176.936 60.929,148.731 77.932 C 94.814 110.433,58.978 164.884,49.790 228.267 C 47.760 242.269,47.760 269.731,49.790 283.733 C 55.047 319.999,68.580 352.627,90.558 382.029 C 98.598 392.784,119.216 413.402,129.971 421.442 C 159.373 443.420,192.001 456.953,228.267 462.210 C 235.366 463.239,243.873 463.695,256.000 463.695 C 268.127 463.695,276.634 463.239,283.733 462.210 C 319.999 456.953,352.627 443.420,382.029 421.442 C 392.784 413.402,413.402 392.784,421.442 382.029 C 441.901 354.659,455.008 324.668,460.856 291.840 C 470.924 235.321,456.636 176.673,421.441 130.052 C 388.588 86.534,337.751 57.084,283.307 50.031 C 270.567 48.381,254.742 47.855,241.920 48.656 M288.545 147.177 C 294.637 151.208,297.187 160.919,293.885 167.509 C 293.132 169.011,273.265 189.536,249.736 213.120 L 206.956 256.000 250.215 299.307 C 279.973 329.097,293.885 343.604,294.791 345.786 C 300.516 359.588,286.178 373.219,273.067 366.440 C 271.893 365.833,248.387 342.752,220.830 315.149 C 186.059 280.319,170.325 263.989,169.416 261.787 C 167.756 257.765,167.756 254.235,169.416 250.213 C 171.196 245.901,268.630 148.155,273.493 145.801 C 277.946 143.647,284.053 144.205,288.545 147.177 " stroke="none" fill-rule="evenodd" fill="black"></path></svg>