<svg xmlns="http://www.w3.org/2000/svg" width="512" height="512" viewBox="0 0 512 512"><path d="M321.617 89.031 C 319.455 89.634,315.807 91.520,313.510 93.222 C 311.213 94.925,276.658 129.078,236.722 169.119 C 156.658 249.392,160.256 245.299,160.256 256.093 C 160.256 266.862,156.952 263.125,239.180 345.350 C 318.590 424.757,316.313 422.695,325.832 423.822 C 337.548 425.210,349.217 416.216,351.491 404.044 C 352.288 399.778,351.264 392.690,349.278 388.726 C 348.564 387.300,318.746 356.853,283.016 321.067 L 218.053 256.000 283.016 190.933 C 318.746 155.147,348.564 124.700,349.278 123.274 C 352.586 116.671,352.521 107.534,349.119 100.933 C 344.242 91.470,331.951 86.151,321.617 89.031 " stroke="none" fill="black" fill-rule="evenodd"></path></svg>