<svg xmlns="http://www.w3.org/2000/svg" width="512" height="512" viewBox="0 0 512 512"><path d="M241.920 48.656 C 209.569 50.678,176.936 60.929,148.731 77.932 C 94.814 110.433,58.978 164.884,49.790 228.267 C 47.760 242.269,47.760 269.731,49.790 283.733 C 55.047 319.999,68.580 352.627,90.558 382.029 C 98.598 392.784,119.216 413.402,129.971 421.442 C 159.373 443.420,192.001 456.953,228.267 462.210 C 235.366 463.239,243.873 463.695,256.000 463.695 C 268.127 463.695,276.634 463.239,283.733 462.210 C 319.999 456.953,352.627 443.420,382.029 421.442 C 392.784 413.402,413.402 392.784,421.442 382.029 C 441.901 354.659,455.008 324.668,460.856 291.840 C 470.924 235.321,456.636 176.673,421.441 130.052 C 388.588 86.534,337.751 57.084,283.307 50.031 C 270.567 48.381,254.742 47.855,241.920 48.656 M237.894 145.523 C 242.282 147.334,339.994 244.781,342.255 249.600 C 344.211 253.770,344.314 257.596,342.584 261.787 C 340.772 266.175,243.325 363.888,238.507 366.148 C 227.993 371.080,216.747 363.542,216.747 351.565 C 216.747 349.176,217.363 345.993,218.115 344.491 C 218.868 342.989,238.735 322.464,262.264 298.880 L 305.044 256.000 262.264 213.120 C 238.735 189.536,218.868 169.011,218.115 167.509 C 216.217 163.722,216.366 156.837,218.434 152.785 C 222.049 145.698,230.595 142.510,237.894 145.523 " stroke="none" fill-rule="evenodd" fill="black"></path></svg>