<svg xmlns="http://www.w3.org/2000/svg" width="512" height="512" viewBox="0 0 512 512"><path d="M179.200 88.652 C 169.733 90.689,162.301 98.366,160.509 107.956 C 159.712 112.222,160.736 119.310,162.722 123.274 C 163.436 124.700,193.254 155.147,228.984 190.933 L 293.947 256.000 228.984 321.067 C 193.254 356.853,163.436 387.300,162.722 388.726 C 160.736 392.690,159.712 399.778,160.509 404.044 C 162.783 416.216,174.452 425.210,186.168 423.822 C 195.687 422.695,193.410 424.757,272.820 345.350 C 355.140 263.033,351.744 266.878,351.744 256.000 C 351.744 245.116,355.150 248.969,272.820 166.732 C 216.343 110.319,197.474 91.967,194.560 90.616 C 190.143 88.567,183.527 87.721,179.200 88.652 " stroke="none" fill="black" fill-rule="evenodd"></path></svg>