<svg xmlns="http://www.w3.org/2000/svg" width="512" height="512" viewBox="0 0 512 512"><path d="M241.493 48.673 C 201.694 51.236,163.176 65.747,129.707 90.787 C 119.118 98.709,98.459 119.383,90.552 129.971 C 68.706 159.223,55.330 191.336,49.785 227.840 C 47.724 241.414,47.724 270.586,49.785 284.160 C 55.331 320.671,68.725 352.821,90.558 382.029 C 98.598 392.784,119.216 413.402,129.971 421.442 C 159.179 443.275,191.329 456.669,227.840 462.215 C 241.414 464.276,270.586 464.276,284.160 462.215 C 320.686 456.667,352.914 443.237,382.029 421.430 C 392.784 413.374,413.374 392.784,421.430 382.029 C 443.237 352.914,456.667 320.686,462.215 284.160 C 464.276 270.586,464.276 241.414,462.215 227.840 C 455.463 183.387,436.803 144.683,406.921 113.150 C 370.380 74.590,322.088 52.062,268.561 48.607 C 255.365 47.755,255.779 47.754,241.493 48.673 M284.160 82.308 C 319.998 88.383,351.735 104.258,377.739 129.118 C 405.349 155.513,423.300 189.800,429.832 228.618 C 431.923 241.048,431.905 271.514,429.799 283.733 C 419.921 341.032,385.307 387.989,334.011 413.679 C 285.590 437.929,226.410 437.929,177.989 413.679 C 126.525 387.905,91.775 340.650,82.174 283.382 C 80.053 270.734,80.053 241.266,82.174 228.618 C 92.715 165.745,133.739 115.017,192.849 91.764 C 205.896 86.632,221.606 82.941,239.787 80.737 C 246.454 79.928,276.372 80.988,284.160 82.308 M209.477 145.403 C 205.967 146.932,201.670 152.016,200.585 155.923 C 199.478 159.907,199.479 160.072,200.609 164.267 C 201.394 167.181,207.969 174.132,245.607 211.840 L 289.684 256.000 245.607 300.160 C 207.969 337.868,201.394 344.819,200.609 347.733 C 199.479 351.928,199.478 352.093,200.585 356.077 C 201.698 360.087,206.019 365.110,209.666 366.634 C 213.320 368.161,218.620 368.094,222.534 366.471 C 226.280 364.919,321.255 270.673,325.215 264.580 C 328.691 259.231,328.692 252.773,325.218 247.420 C 321.278 241.350,226.286 147.096,222.534 145.534 C 218.694 143.936,212.976 143.878,209.477 145.403 " stroke="none" fill-rule="evenodd" fill="black"></path></svg>