<svg xmlns="http://www.w3.org/2000/svg" width="512" height="512" viewBox="0 0 512 512"><path d="M245.760 162.608 C 241.711 164.475,230.850 174.988,166.650 239.186 C 87.242 318.591,89.305 316.313,88.178 325.832 C 86.790 337.548,95.784 349.217,107.956 351.491 C 112.222 352.288,119.310 351.264,123.274 349.278 C 124.700 348.564,155.147 318.746,190.933 283.016 L 256.000 218.053 321.067 283.016 C 356.853 318.746,387.300 348.564,388.726 349.278 C 392.690 351.264,399.778 352.288,404.044 351.491 C 416.216 349.217,425.210 337.548,423.822 325.832 C 422.695 316.313,424.758 318.591,345.350 239.186 C 262.910 156.749,267.102 160.443,256.000 160.443 C 251.865 160.443,249.259 160.994,245.760 162.608 " stroke="none" fill="black" fill-rule="evenodd"></path></svg>