<svg xmlns="http://www.w3.org/2000/svg" width="512" height="512" viewBox="0 0 512 512"><path d="M241.920 48.656 C 209.569 50.678,176.936 60.929,148.731 77.932 C 94.814 110.433,58.978 164.884,49.790 228.267 C 47.760 242.269,47.760 269.731,49.790 283.733 C 55.047 319.999,68.580 352.627,90.558 382.029 C 98.598 392.784,119.216 413.402,129.971 421.442 C 159.373 443.420,192.001 456.953,228.267 462.210 C 235.366 463.239,243.873 463.695,256.000 463.695 C 268.127 463.695,276.634 463.239,283.733 462.210 C 319.999 456.953,352.627 443.420,382.029 421.442 C 392.784 413.402,413.402 392.784,421.442 382.029 C 441.901 354.659,455.008 324.668,460.856 291.840 C 470.924 235.321,456.636 176.673,421.441 130.052 C 388.588 86.534,337.751 57.084,283.307 50.031 C 270.567 48.381,254.742 47.855,241.920 48.656 M265.104 187.114 C 266.902 188.362,290.310 211.380,317.122 238.265 C 356.220 277.469,366.081 287.800,366.928 290.446 C 370.869 302.754,360.135 314.633,347.959 311.437 C 344.732 310.591,339.317 305.488,300.156 266.395 L 255.992 222.308 212.263 265.995 C 188.194 290.040,167.453 310.083,166.131 310.574 C 156.609 314.112,145.907 307.593,144.510 297.404 C 143.446 289.641,143.993 289.003,197.301 235.776 C 227.229 205.893,247.345 186.447,249.173 185.629 C 253.696 183.606,261.036 184.291,265.104 187.114 " stroke="none" fill-rule="evenodd" fill="black"></path></svg>