<svg xmlns="http://www.w3.org/2000/svg" width="512" height="512" viewBox="0 0 512 512"><path d="M165.801 17.885 C 161.077 20.766,160.083 23.804,159.726 36.445 L 159.408 47.717 123.825 47.965 C 84.354 48.240,85.508 48.074,81.882 54.020 C 80.246 56.704,80.220 60.146,80.220 272.213 C 80.220 484.413,80.245 487.721,81.885 490.412 C 85.432 496.229,71.100 495.787,256.171 495.781 C 418.827 495.776,423.751 495.729,426.119 494.167 C 427.461 493.283,429.283 491.461,430.167 490.119 C 431.732 487.746,431.775 481.852,431.778 272.213 C 431.780 60.144,431.754 56.704,430.118 54.020 C 426.492 48.074,427.646 48.240,388.175 47.965 L 352.592 47.717 352.274 36.445 C 351.917 23.804,350.923 20.766,346.199 17.885 C 343.536 16.262,341.248 16.220,256.000 16.220 C 170.752 16.220,168.464 16.262,165.801 17.885 M335.360 96.000 L 335.360 111.787 256.000 111.787 L 176.640 111.787 176.640 96.000 L 176.640 80.213 256.000 80.213 L 335.360 80.213 335.360 96.000 " stroke="none" fill-rule="evenodd" fill="black"></path></svg>