<svg xmlns="http://www.w3.org/2000/svg" width="512" height="512" viewBox="0 0 512 512"><path d="M191.573 17.417 C 178.882 20.567,166.596 31.714,162.470 43.823 L 161.120 47.787 152.880 47.801 C 134.245 47.835,122.271 50.367,112.331 56.376 C 100.942 63.260,92.206 72.657,86.598 84.053 C 79.688 98.093,80.155 83.714,80.411 274.773 L 80.640 445.013 82.965 451.840 C 86.377 461.859,90.831 468.858,98.987 477.013 C 107.142 485.169,114.141 489.623,124.160 493.035 L 130.987 495.360 256.000 495.360 L 381.013 495.360 387.840 493.035 C 397.859 489.623,404.858 485.169,413.013 477.013 C 421.169 468.858,425.623 461.859,429.035 451.840 L 431.360 445.013 431.589 274.773 C 431.845 83.714,432.312 98.093,425.402 84.053 C 419.794 72.657,411.058 63.260,399.669 56.376 C 389.729 50.367,377.755 47.835,359.120 47.801 L 350.880 47.787 349.530 43.823 C 345.285 31.364,332.330 19.937,319.318 17.174 C 312.640 15.756,197.383 15.976,191.573 17.417 M313.609 49.015 C 318.466 51.045,319.993 54.586,319.997 63.829 C 320.000 72.893,318.887 75.943,314.625 78.541 C 311.989 80.149,309.930 80.207,255.913 80.210 L 199.932 80.213 197.045 78.268 C 192.544 75.235,191.917 73.266,192.187 63.020 C 192.450 53.036,193.235 51.263,198.400 48.983 C 202.347 47.241,309.434 47.271,313.609 49.015 M162.470 84.177 C 166.634 96.396,179.476 107.972,192.095 110.882 C 197.173 112.052,314.827 112.052,319.905 110.882 C 332.524 107.972,345.366 96.396,349.530 84.177 L 350.880 80.213 361.516 80.213 C 373.093 80.213,378.072 81.112,383.591 84.196 C 389.051 87.248,395.384 94.454,397.734 100.288 L 399.787 105.387 399.787 272.213 L 399.787 439.040 397.062 444.792 C 392.318 454.806,384.051 461.408,373.827 463.347 C 367.564 464.535,144.436 464.535,138.173 463.347 C 127.949 461.408,119.682 454.806,114.938 444.792 L 112.213 439.040 112.213 272.213 L 112.213 105.387 114.266 100.288 C 116.616 94.454,123.184 86.980,128.421 84.184 C 134.166 81.116,138.206 80.384,149.893 80.297 L 161.120 80.213 162.470 84.177 " stroke="none" fill-rule="evenodd" fill="black"></path></svg>