<svg xmlns="http://www.w3.org/2000/svg" width="512" height="512" viewBox="0 0 512 512"><path d="M191.372 17.529 C 179.981 20.597,168.948 29.769,164.009 40.279 C 162.530 43.425,160.640 46.348,159.807 46.775 C 158.975 47.203,152.917 47.787,146.347 48.074 C 132.048 48.697,123.752 50.618,114.529 55.442 C 99.602 63.249,88.601 76.202,82.981 92.587 L 80.640 99.413 80.402 269.227 C 80.134 459.897,79.648 444.949,86.588 459.520 C 93.115 473.222,102.790 482.896,116.480 489.406 C 130.755 496.194,121.856 495.787,256.000 495.787 C 390.144 495.787,381.245 496.194,395.520 489.406 C 409.210 482.896,418.885 473.222,425.412 459.520 C 432.352 444.949,431.866 459.897,431.598 269.227 L 431.360 99.413 429.019 92.587 C 423.399 76.202,412.398 63.249,397.471 55.442 C 388.248 50.618,379.952 48.697,365.653 48.074 C 359.083 47.787,353.031 47.206,352.205 46.782 C 351.380 46.358,349.468 43.435,347.956 40.286 C 344.605 33.303,335.983 24.250,329.609 21.019 C 320.052 16.177,320.549 16.208,255.607 16.269 C 206.993 16.315,195.006 16.550,191.372 17.529 M328.886 83.086 C 333.678 86.741,335.353 90.040,335.357 95.829 C 335.359 98.551,334.818 101.815,334.156 103.082 C 332.540 106.176,328.647 109.767,325.704 110.879 C 324.081 111.492,301.477 111.787,256.000 111.787 C 210.523 111.787,187.919 111.492,186.296 110.879 C 183.353 109.767,179.460 106.176,177.844 103.082 C 176.295 100.118,176.292 91.891,177.839 88.918 C 179.318 86.074,182.227 83.312,185.600 81.547 C 187.875 80.357,195.820 80.232,256.920 80.424 L 325.680 80.640 328.886 83.086 " stroke="none" fill-rule="evenodd" fill="black"></path></svg>