<svg xmlns="http://www.w3.org/2000/svg" width="512" height="512" viewBox="0 0 512 512"><path d="M241.920 48.669 C 177.359 52.784,118.768 87.102,81.958 142.362 C 55.666 181.831,43.309 234.683,49.503 281.173 C 55.829 328.652,75.879 369.527,109.176 402.824 C 142.702 436.350,182.619 455.851,231.680 462.670 C 235.904 463.257,246.848 463.738,256.000 463.738 C 265.152 463.738,276.096 463.257,280.320 462.670 C 329.321 455.859,369.272 436.331,402.802 402.802 C 436.331 369.272,455.859 329.321,462.670 280.320 C 464.046 270.420,464.046 241.580,462.670 231.680 C 455.892 182.914,436.342 142.776,403.220 109.623 C 391.401 97.792,382.569 90.546,369.558 82.006 C 331.997 57.351,287.606 45.757,241.920 48.669 M224.209 201.596 L 256.000 233.378 288.000 201.387 L 320.000 169.395 331.303 180.697 L 342.605 192.000 310.613 224.000 L 278.622 256.000 310.613 288.000 L 342.605 320.000 331.303 331.303 L 320.000 342.605 288.000 310.613 L 256.000 278.622 224.000 310.613 L 192.000 342.605 180.697 331.303 L 169.395 320.000 201.387 288.000 L 233.378 256.000 201.391 224.004 L 169.403 192.008 180.476 180.911 C 186.566 174.807,191.744 169.813,191.983 169.813 C 192.223 169.813,206.724 184.115,224.209 201.596 " stroke="none" fill-rule="evenodd" fill="black"></path></svg>