<svg xmlns="http://www.w3.org/2000/svg" width="512" height="512" viewBox="0 0 512 512"><path d="M137.619 129.397 C 129.431 133.434,125.992 141.963,129.310 150.001 C 130.221 152.207,146.267 168.831,182.000 204.587 L 233.381 256.000 182.000 307.413 C 146.267 343.169,130.221 359.793,129.310 361.999 C 126.687 368.352,128.091 374.602,133.232 379.468 C 138.150 384.123,143.869 385.222,150.001 382.690 C 152.207 381.779,168.831 365.733,204.587 330.000 L 256.000 278.619 307.413 330.000 C 343.169 365.733,359.793 381.779,361.999 382.690 C 368.352 385.313,374.602 383.909,379.468 378.768 C 384.123 373.850,385.222 368.131,382.690 361.999 C 381.779 359.793,365.733 343.169,330.000 307.413 L 278.619 256.000 330.000 204.587 C 365.733 168.831,381.779 152.207,382.690 150.001 C 384.312 146.072,384.364 141.617,382.831 137.947 C 381.051 133.688,375.104 129.031,370.576 128.353 C 362.119 127.084,364.299 125.234,307.837 181.610 L 255.993 233.375 204.583 181.997 C 168.830 146.266,152.207 130.221,150.001 129.310 C 145.945 127.635,141.123 127.669,137.619 129.397 " stroke="none" fill="black" fill-rule="evenodd"></path></svg>