<svg xmlns="http://www.w3.org/2000/svg" width="512" height="512" viewBox="0 0 512 512"><path d="M241.493 48.673 C 201.694 51.236,163.176 65.747,129.707 90.787 C 119.118 98.709,98.459 119.383,90.552 129.971 C 68.706 159.223,55.330 191.336,49.785 227.840 C 47.724 241.414,47.724 270.586,49.785 284.160 C 55.331 320.671,68.725 352.821,90.558 382.029 C 98.598 392.784,119.216 413.402,129.971 421.442 C 159.179 443.275,191.329 456.669,227.840 462.215 C 241.414 464.276,270.586 464.276,284.160 462.215 C 320.686 456.667,352.914 443.237,382.029 421.430 C 392.784 413.374,413.374 392.784,421.430 382.029 C 443.237 352.914,456.667 320.686,462.215 284.160 C 464.276 270.586,464.276 241.414,462.215 227.840 C 455.463 183.387,436.803 144.683,406.921 113.150 C 370.380 74.590,322.088 52.062,268.561 48.607 C 255.365 47.755,255.779 47.754,241.493 48.673 M284.160 82.308 C 319.998 88.383,351.735 104.258,377.739 129.118 C 405.349 155.513,423.300 189.800,429.832 228.618 C 431.923 241.048,431.905 271.514,429.799 283.733 C 419.921 341.032,385.307 387.989,334.011 413.679 C 285.590 437.929,226.410 437.929,177.989 413.679 C 126.525 387.905,91.775 340.650,82.174 283.382 C 80.053 270.734,80.053 241.266,82.174 228.618 C 92.715 165.745,133.739 115.017,192.849 91.764 C 205.896 86.632,221.606 82.941,239.787 80.737 C 246.454 79.928,276.372 80.988,284.160 82.308 M187.838 176.623 C 179.465 178.654,174.356 187.679,176.650 196.384 C 177.516 199.668,180.916 203.401,205.492 228.053 L 233.352 256.000 205.492 283.947 C 180.916 308.599,177.516 312.332,176.650 315.616 C 173.438 327.803,184.197 338.562,196.384 335.350 C 199.668 334.484,203.401 331.084,228.053 306.508 L 256.000 278.648 283.947 306.508 C 308.599 331.084,312.332 334.484,315.616 335.350 C 320.198 336.557,325.044 335.816,328.706 333.348 C 334.577 329.392,337.162 322.492,335.350 315.616 C 334.484 312.332,331.084 308.599,306.508 283.947 L 278.648 256.000 306.503 228.053 C 329.885 204.593,334.505 199.559,335.280 196.693 C 336.423 192.470,336.427 191.524,335.322 187.546 C 334.254 183.701,330.950 179.611,327.448 177.800 C 324.574 176.314,318.382 175.900,314.453 176.933 C 312.676 177.400,303.345 186.131,283.940 205.485 L 255.988 233.364 228.474 205.945 C 213.341 190.865,200.192 178.146,199.253 177.682 C 196.601 176.371,191.016 175.853,187.838 176.623 " stroke="none" fill-rule="evenodd" fill="black"></path></svg>