<svg xmlns="http://www.w3.org/2000/svg" width="512" height="512" viewBox="0 0 512 512"><path d="M136.107 121.367 C 126.257 124.878,120.202 133.664,120.222 144.416 C 120.240 154.038,119.378 153.021,173.041 206.720 L 222.288 256.000 173.041 305.280 C 119.689 358.667,120.312 357.936,120.200 367.285 C 120.031 381.485,130.515 391.969,144.715 391.800 C 154.064 391.688,153.333 392.311,206.720 338.959 L 256.000 289.712 305.280 338.959 C 358.667 392.311,357.936 391.688,367.285 391.800 C 381.485 391.969,391.969 381.485,391.800 367.285 C 391.688 357.936,392.311 358.667,338.959 305.280 L 289.712 256.000 338.955 206.720 C 376.630 169.016,388.602 156.538,389.920 153.600 C 392.044 148.864,392.217 140.973,390.318 135.399 C 388.720 130.710,383.311 124.818,378.453 122.475 C 376.511 121.538,372.539 120.677,369.235 120.476 C 358.193 119.804,361.084 117.428,305.703 172.683 L 255.993 222.281 206.716 173.042 C 169.016 135.369,156.538 123.398,153.600 122.080 C 149.327 120.163,140.494 119.803,136.107 121.367 " stroke="none" fill-rule="evenodd" fill="black"></path></svg>