<svg xmlns="http://www.w3.org/2000/svg" width="512" height="512" viewBox="0 0 512 512"><path d="M241.920 48.669 C 177.359 52.784,118.768 87.102,81.958 142.362 C 55.666 181.831,43.309 234.683,49.503 281.173 C 55.829 328.652,75.879 369.527,109.176 402.824 C 142.702 436.350,182.619 455.851,231.680 462.670 C 235.904 463.257,246.848 463.738,256.000 463.738 C 265.152 463.738,276.096 463.257,280.320 462.670 C 329.321 455.859,369.272 436.331,402.802 402.802 C 436.331 369.272,455.859 329.321,462.670 280.320 C 464.046 270.420,464.046 241.580,462.670 231.680 C 455.892 182.914,436.342 142.776,403.220 109.623 C 391.401 97.792,382.569 90.546,369.558 82.006 C 331.997 57.351,287.606 45.757,241.920 48.669 M199.082 178.003 C 200.584 178.752,214.005 191.518,228.907 206.371 L 256.000 233.377 283.093 206.371 C 297.995 191.518,311.416 178.752,312.918 178.003 C 316.051 176.439,322.192 176.220,325.704 177.548 C 328.973 178.783,332.764 182.465,334.185 185.786 C 335.760 189.466,335.671 195.728,333.997 199.082 C 333.248 200.584,320.482 214.005,305.629 228.907 L 278.623 256.000 306.108 283.520 C 324.563 301.999,334.023 312.082,334.903 314.213 C 338.904 323.900,332.555 334.828,322.250 335.989 C 314.587 336.853,313.969 336.376,283.947 306.479 L 256.000 278.648 228.480 306.102 C 213.344 321.201,199.879 333.961,198.558 334.457 C 195.470 335.618,189.373 335.615,186.296 334.452 C 183.027 333.217,179.236 329.535,177.815 326.214 C 176.240 322.534,176.329 316.272,178.003 312.918 C 178.752 311.416,191.518 297.995,206.371 283.093 L 233.377 256.000 206.371 228.907 C 191.518 214.005,178.752 200.584,178.003 199.082 C 176.439 195.949,176.220 189.808,177.548 186.296 C 178.747 183.122,182.420 179.269,185.600 177.849 C 189.111 176.282,195.786 176.358,199.082 178.003 " stroke="none" fill-rule="evenodd" fill="black"></path></svg>