<svg xmlns="http://www.w3.org/2000/svg" width="512" height="512" viewBox="0 0 512 512"><path d="M128.210 129.064 L 111.786 145.488 167.037 200.744 L 222.288 256.000 167.037 311.256 L 111.786 366.512 128.637 383.363 L 145.488 400.214 200.744 344.963 L 256.000 289.712 311.256 344.963 L 366.512 400.214 383.363 383.363 L 400.214 366.512 344.963 311.256 L 289.712 256.000 344.965 200.741 L 400.219 145.483 383.782 129.061 C 374.741 120.030,366.965 112.640,366.501 112.640 C 366.038 112.640,340.985 137.311,310.829 167.464 L 256.000 222.288 201.171 167.464 C 171.015 137.311,145.958 112.640,145.488 112.640 C 145.019 112.640,137.244 120.031,128.210 129.064 " stroke="none" fill="black" fill-rule="evenodd"></path></svg>