<svg xmlns="http://www.w3.org/2000/svg" width="512" height="512" viewBox="0 0 512 512"><path d="M237.227 81.091 C 219.475 83.545,203.739 88.407,188.628 96.105 C 159.839 110.772,138.829 132.109,122.259 163.504 C 115.478 176.353,114.355 177.322,103.064 180.072 C 54.509 191.896,19.458 222.144,6.142 263.716 C 1.451 278.359,0.459 285.404,0.496 303.787 C 0.524 317.605,0.847 321.895,2.397 329.086 C 9.738 363.141,27.400 389.307,55.911 408.364 C 71.336 418.674,87.850 425.387,107.662 429.401 L 117.333 431.360 266.667 431.360 L 416.000 431.360 425.605 429.413 C 462.447 421.946,487.585 404.220,501.350 376.001 C 509.352 359.598,512.629 342.918,511.750 323.066 C 509.681 276.345,479.720 242.326,428.201 228.201 C 418.210 225.462,414.502 222.430,412.683 215.513 C 404.557 184.617,398.137 168.983,386.030 150.613 C 362.190 114.442,325.248 89.893,283.307 82.351 C 273.928 80.664,245.861 79.897,237.227 81.091 " stroke="none" fill-rule="evenodd" fill="black"></path></svg>