<svg xmlns="http://www.w3.org/2000/svg" width="512" height="512" viewBox="0 0 512 512"><path d="M241.920 48.656 C 209.569 50.678,176.936 60.929,148.731 77.932 C 94.814 110.433,58.978 164.884,49.790 228.267 C 47.760 242.269,47.760 269.731,49.790 283.733 C 55.047 319.999,68.580 352.627,90.558 382.029 C 98.598 392.784,119.216 413.402,129.971 421.442 C 159.373 443.420,192.001 456.953,228.267 462.210 C 235.366 463.239,243.873 463.695,256.000 463.695 C 268.127 463.695,276.634 463.239,283.733 462.210 C 319.999 456.953,352.627 443.420,382.029 421.442 C 392.784 413.402,413.402 392.784,421.442 382.029 C 441.901 354.659,455.008 324.668,460.856 291.840 C 470.924 235.321,456.636 176.673,421.441 130.052 C 388.588 86.534,337.751 57.084,283.307 50.031 C 270.567 48.381,254.742 47.855,241.920 48.656 M274.728 170.667 C 287.535 174.305,297.451 180.450,306.934 190.625 C 316.840 201.252,324.529 217.566,326.889 232.960 C 327.429 236.480,328.307 239.642,328.842 239.987 C 329.376 240.332,330.981 240.620,332.407 240.627 C 336.883 240.649,344.909 243.087,352.109 246.611 C 361.374 251.146,367.806 257.484,371.924 266.138 C 374.765 272.109,375.043 273.381,375.333 281.718 C 375.863 296.942,372.822 305.736,364.008 314.465 C 358.239 320.179,352.267 323.419,342.363 326.207 C 335.852 328.040,335.061 328.058,262.827 328.082 C 184.615 328.108,184.225 328.090,172.485 323.726 C 155.382 317.370,141.779 302.465,137.843 285.769 C 136.205 278.819,136.192 264.810,137.817 257.917 C 141.908 240.564,155.846 226.225,174.934 219.733 C 178.332 218.577,183.083 217.381,185.490 217.075 C 190.616 216.423,192.853 215.433,192.853 213.817 C 192.853 211.403,200.629 197.337,204.784 192.235 C 214.923 179.785,229.843 171.289,246.187 168.658 C 252.000 167.723,268.436 168.880,274.728 170.667 " stroke="none" fill-rule="evenodd" fill="black"></path></svg>