<svg xmlns="http://www.w3.org/2000/svg" width="512" height="512" viewBox="0 0 512 512"><path d="M329.342 35.904 C 298.948 50.566,274.938 78.108,263.337 111.616 C 259.022 124.082,256.846 135.870,256.250 150.014 C 255.799 160.726,255.570 162.147,254.375 161.660 C 253.626 161.356,246.247 160.900,237.977 160.647 C 211.385 159.836,193.741 163.324,171.583 173.773 C 148.769 184.532,128.248 202.306,113.827 223.800 C 102.707 240.374,93.106 264.213,89.561 284.049 C 88.368 290.724,87.900 291.252,82.347 292.195 C 74.915 293.456,63.202 297.298,55.018 301.159 C 43.204 306.731,34.183 313.010,25.574 321.652 C 13.440 333.832,6.680 345.925,2.407 363.093 C -0.159 373.401,-0.375 395.190,1.980 406.187 C 6.159 425.708,13.613 439.555,26.560 451.851 C 44.553 468.939,65.783 477.371,96.363 479.576 C 112.152 480.715,333.973 480.691,348.943 479.549 C 355.241 479.069,363.219 478.092,366.672 477.379 C 418.263 466.722,454.078 430.904,462.603 381.440 C 464.155 372.435,463.960 351.220,462.237 341.644 C 458.510 320.932,450.679 304.516,436.971 288.678 C 433.650 284.842,430.933 281.549,430.933 281.360 C 430.933 281.171,432.565 280.529,434.560 279.933 C 447.749 275.990,468.617 263.093,481.429 250.968 C 497.057 236.177,512.050 212.527,511.981 202.773 C 511.935 196.246,506.476 189.471,499.801 187.656 C 496.733 186.822,495.348 186.946,490.240 188.512 C 470.101 194.683,469.191 194.831,450.987 194.911 C 431.497 194.997,426.077 194.107,411.824 188.481 C 386.127 178.337,365.392 157.650,355.358 132.148 C 346.604 109.896,346.290 81.421,354.534 57.237 C 357.820 47.597,357.301 42.272,352.586 37.228 C 347.008 31.262,339.813 30.853,329.342 35.904 M318.126 117.760 C 329.109 177.551,377.270 221.723,437.204 226.975 C 442.907 227.475,450.261 227.970,453.547 228.075 L 459.520 228.267 454.222 232.556 C 438.476 245.302,419.932 253.037,399.566 255.352 C 391.029 256.323,390.639 256.290,383.780 254.044 C 376.646 251.708,369.467 249.833,362.868 248.583 C 359.252 247.898,359.206 247.842,355.562 239.787 C 343.460 213.040,320.819 188.854,295.356 175.473 C 288.456 171.847,288.449 171.827,288.439 155.733 C 288.425 130.055,296.338 108.047,312.661 88.368 L 316.160 84.150 316.712 98.608 C 317.016 106.560,317.652 115.179,318.126 117.760 M253.078 194.063 C 285.782 200.609,314.125 224.157,327.773 256.119 C 334.224 271.228,341.661 277.176,357.973 280.272 C 393.164 286.952,419.283 308.132,428.245 337.257 C 432.349 350.595,432.763 370.457,429.238 384.853 C 424.262 405.171,409.035 424.573,389.578 435.388 C 382.350 439.405,371.904 443.412,362.721 445.689 C 355.464 447.489,354.532 447.504,227.413 447.801 C 133.806 448.019,97.237 447.833,91.312 447.109 C 65.926 444.003,47.024 432.396,38.569 414.720 C 34.227 405.643,32.427 396.939,32.427 385.026 C 32.427 360.698,43.404 343.052,65.657 331.608 C 73.757 327.442,80.453 325.192,91.307 322.986 C 100.282 321.163,105.718 318.474,110.859 313.316 C 115.814 308.344,118.286 303.129,120.396 293.200 C 124.371 274.500,128.292 263.179,135.157 250.586 C 149.822 223.683,175.036 203.234,202.667 195.836 C 216.962 192.008,238.950 191.234,253.078 194.063 " stroke="none" fill-rule="evenodd" fill="black"></path></svg>