<svg xmlns="http://www.w3.org/2000/svg" width="512" height="512" viewBox="0 0 512 512"><path d="M327.165 37.001 C 313.992 43.934,306.000 49.831,295.211 60.580 C 280.129 75.608,269.973 91.956,263.263 112.007 C 259.592 122.980,258.758 128.101,260.419 129.479 C 261.073 130.022,265.136 131.235,269.448 132.177 C 313.165 141.718,350.228 168.733,375.807 209.700 C 381.432 218.709,382.994 220.026,391.253 222.721 C 414.235 230.220,434.962 242.345,452.490 258.545 C 457.069 262.777,461.136 266.240,461.528 266.240 C 463.562 266.240,475.971 256.327,483.870 248.391 C 497.005 235.195,510.515 214.134,511.750 204.928 C 512.720 197.695,507.419 189.764,500.290 187.785 C 495.839 186.549,495.999 186.526,485.744 189.835 C 471.200 194.528,462.700 195.674,446.293 195.151 C 431.555 194.682,425.374 193.548,413.836 189.197 C 386.104 178.740,363.249 155.217,353.792 127.399 C 349.890 115.922,348.678 108.030,348.707 94.293 C 348.738 79.587,350.206 69.919,354.203 58.092 C 357.476 48.405,357.359 43.539,353.737 38.790 C 350.120 34.049,346.847 32.431,340.907 32.448 C 336.387 32.462,334.776 32.995,327.165 37.001 M214.613 160.950 C 165.255 168.070,125.780 196.799,103.708 241.665 C 99.566 250.083,93.855 266.154,90.015 280.192 C 87.785 288.346,84.462 291.074,72.172 294.844 C 52.405 300.906,38.041 309.176,25.578 321.668 C 17.795 329.468,13.788 334.992,9.092 344.397 C -5.565 373.750,-1.996 415.951,17.313 441.600 C 34.380 464.270,60.507 476.894,96.000 479.621 C 104.044 480.239,148.227 480.431,231.253 480.209 C 352.686 479.885,354.703 479.852,363.959 478.070 C 413.088 468.608,448.735 436.816,460.354 392.099 C 467.757 363.607,463.433 329.757,449.313 305.665 C 433.516 278.711,407.992 260.420,372.843 250.863 C 367.580 249.432,362.208 247.502,360.906 246.575 C 359.561 245.617,356.504 241.045,353.829 235.991 C 332.935 196.515,301.275 171.813,260.080 162.847 C 253.930 161.509,248.251 161.063,234.667 160.852 C 225.045 160.703,216.021 160.746,214.613 160.950 " stroke="none" fill-rule="evenodd" fill="black"></path></svg>