<svg xmlns="http://www.w3.org/2000/svg" width="512" height="512" viewBox="0 0 512 512"><path d="M232.768 33.734 C 199.936 38.211,171.342 52.849,147.573 77.349 C 135.052 90.254,126.844 101.961,119.490 117.402 L 116.206 124.298 104.396 126.607 C 62.148 134.870,28.620 156.585,12.464 186.148 C -2.453 213.445,-4.046 250.194,8.401 279.893 C 23.240 315.300,55.729 339.413,100.930 348.565 C 115.355 351.485,136.106 352.618,168.960 352.278 L 195.840 352.000 199.819 349.661 C 208.709 344.435,210.699 333.647,204.198 325.921 C 199.484 320.319,200.727 320.475,156.587 319.950 C 112.881 319.430,109.914 319.134,91.927 313.490 C 66.170 305.409,45.142 287.207,37.206 266.123 C 33.345 255.867,32.172 247.657,32.660 234.324 C 33.130 221.495,34.756 213.910,38.923 205.102 C 51.465 178.590,82.702 160.600,124.587 155.765 C 137.077 154.324,140.164 151.921,144.659 140.143 C 154.589 114.129,171.345 94.121,194.987 80.045 C 210.348 70.899,228.202 65.652,248.370 64.356 C 258.036 63.734,275.030 65.032,284.160 67.088 C 309.798 72.863,332.073 85.763,349.305 104.815 C 367.644 125.092,378.562 149.062,382.798 178.347 C 384.328 188.923,385.201 191.981,387.543 194.957 C 390.558 198.791,395.043 200.416,405.269 201.381 C 422.830 203.037,435.825 206.369,447.490 212.208 C 469.639 223.294,479.597 238.339,479.559 260.659 C 479.529 277.734,475.538 288.218,465.081 298.691 C 457.816 305.968,449.607 310.705,437.906 314.373 C 422.366 319.245,420.076 319.422,365.653 319.944 C 310.143 320.476,312.596 320.223,307.802 325.921 C 301.301 333.647,303.291 344.435,312.181 349.661 L 316.160 352.000 363.947 351.950 C 415.663 351.895,422.817 351.426,440.320 346.939 C 474.328 338.221,498.046 318.359,507.223 290.915 C 511.794 277.246,513.174 259.516,510.747 245.658 C 506.032 218.734,490.890 198.983,464.103 184.820 C 450.927 177.853,437.743 173.839,415.965 170.164 C 414.503 169.918,413.906 168.458,412.255 161.095 C 407.428 139.570,399.463 120.192,388.482 103.253 C 373.395 79.983,351.321 60.364,326.827 48.457 C 310.417 40.479,296.465 36.232,278.286 33.680 C 267.352 32.145,244.219 32.173,232.768 33.734 M249.600 209.428 C 245.977 211.052,243.259 213.878,241.415 217.937 C 239.892 221.292,239.823 225.759,239.805 323.389 L 239.787 425.339 219.947 405.601 C 203.616 389.355,199.503 385.700,196.693 384.937 C 192.473 383.790,191.527 383.785,187.546 384.891 C 181.506 386.569,175.848 393.543,175.810 399.360 C 175.764 406.337,176.187 406.847,211.067 441.877 C 229.444 460.333,246.125 476.409,248.136 477.602 C 253.109 480.551,258.891 480.551,263.864 477.602 C 265.875 476.409,282.556 460.333,300.933 441.877 C 335.813 406.847,336.236 406.337,336.190 399.360 C 336.152 393.543,330.494 386.569,324.454 384.891 C 320.473 383.785,319.527 383.790,315.307 384.937 C 312.497 385.700,308.384 389.355,292.053 405.601 L 272.213 425.339 272.195 323.389 C 272.177 225.977,272.106 221.288,270.596 218.027 C 268.756 214.054,265.120 210.411,261.704 209.121 C 258.443 207.889,252.710 208.034,249.600 209.428 " stroke="none" fill-rule="evenodd" fill="black"></path></svg>