<svg xmlns="http://www.w3.org/2000/svg" width="512" height="512" viewBox="0 0 512 512"><path d="M235.520 33.357 C 205.545 37.215,176.791 50.214,155.135 69.694 C 139.663 83.613,126.777 101.125,118.395 119.628 C 116.392 124.048,115.902 124.533,112.924 125.044 C 74.337 131.666,47.870 144.375,27.307 166.156 C 8.052 186.551,-1.082 212.461,0.296 242.773 C 1.576 270.912,11.964 294.589,31.543 313.994 C 47.358 329.669,71.167 342.190,95.573 347.669 C 113.325 351.654,116.261 351.812,179.413 352.201 L 239.787 352.573 239.746 385.993 L 239.706 419.413 215.830 395.093 L 191.954 370.773 180.903 382.293 C 174.824 388.629,169.843 394.005,169.833 394.240 C 169.823 394.475,189.207 413.802,212.908 437.189 L 256.000 479.711 299.089 437.189 C 322.789 413.802,342.172 394.475,342.164 394.240 C 342.156 394.005,337.174 388.629,331.093 382.293 L 320.036 370.773 296.163 395.093 L 272.290 419.413 272.252 385.920 L 272.213 352.427 335.147 352.425 C 411.184 352.422,420.688 351.882,441.847 346.365 C 471.686 338.584,493.833 321.506,504.449 298.093 C 513.165 278.870,514.325 252.029,507.307 231.944 C 496.779 201.810,467.383 179.922,427.268 172.347 C 422.009 171.354,416.894 170.383,415.900 170.189 C 414.432 169.904,413.904 168.836,413.083 164.492 C 410.409 150.344,404.133 131.990,397.362 118.519 C 374.129 72.298,330.465 41.008,279.040 33.727 C 269.352 32.355,244.917 32.147,235.520 33.357 M272.213 280.320 L 272.213 352.427 256.000 352.427 L 239.787 352.427 239.787 280.320 L 239.787 208.213 256.000 208.213 L 272.213 208.213 272.213 280.320 " stroke="none" fill-rule="evenodd" fill="black"></path></svg>