<svg xmlns="http://www.w3.org/2000/svg" width="512" height="512" viewBox="0 0 512 512"><path d="M235.520 33.357 C 212.406 36.332,189.832 44.772,170.667 57.604 C 151.815 70.227,135.427 88.166,123.897 108.800 C 115.549 123.741,114.854 124.364,103.977 126.661 C 71.188 133.586,48.261 145.144,29.440 164.238 C 8.224 185.763,-1.148 211.017,0.296 242.773 C 1.576 270.912,11.964 294.589,31.543 313.994 C 47.358 329.669,71.167 342.190,95.573 347.669 C 113.325 351.654,116.261 351.812,179.413 352.201 L 239.787 352.573 239.787 388.973 L 239.787 425.373 220.373 406.057 C 209.696 395.433,200.062 386.284,198.964 385.726 C 197.866 385.168,194.935 384.694,192.452 384.671 C 186.599 384.619,181.458 387.414,178.791 392.097 C 176.061 396.892,175.608 399.579,176.743 404.259 C 177.662 408.051,179.935 410.539,211.104 441.877 C 229.461 460.333,246.125 476.409,248.136 477.602 C 253.109 480.551,258.891 480.551,263.864 477.602 C 265.875 476.409,282.539 460.333,300.896 441.877 C 331.362 411.246,334.354 407.985,335.201 404.480 C 337.715 394.089,330.197 384.576,319.548 384.671 C 317.065 384.694,314.134 385.168,313.036 385.726 C 311.938 386.284,302.304 395.433,291.627 406.057 L 272.213 425.373 272.213 388.900 L 272.213 352.427 335.147 352.425 C 411.184 352.422,420.688 351.882,441.847 346.365 C 460.528 341.493,475.085 333.721,487.075 322.219 C 502.972 306.968,510.702 289.013,511.728 264.960 C 513.444 224.745,492.283 194.765,450.987 178.903 C 444.647 176.469,434.948 173.787,422.592 171.053 C 419.953 170.469,414.269 165.207,413.177 162.337 C 412.688 161.052,411.085 155.664,409.616 150.365 C 392.067 87.073,342.386 42.695,279.040 33.727 C 269.352 32.355,244.917 32.147,235.520 33.357 M261.704 209.121 C 264.683 210.246,268.497 213.790,270.370 217.173 C 271.650 219.487,271.810 226.129,272.025 286.080 L 272.263 352.427 256.000 352.427 L 239.737 352.427 239.975 286.080 C 240.190 226.226,240.352 219.483,241.626 217.173 C 245.696 209.796,254.328 206.334,261.704 209.121 " stroke="none" fill-rule="evenodd" fill="black"></path></svg>