<svg xmlns="http://www.w3.org/2000/svg" width="512" height="512" viewBox="0 0 512 512"><path d="M235.025 81.416 C 206.191 85.574,183.152 95.874,160.608 114.684 C 143.611 128.866,129.068 148.170,119.752 168.920 L 116.094 177.067 105.727 179.412 C 57.681 190.279,21.709 219.409,7.693 258.800 C -5.362 295.491,-1.605 336.452,17.755 368.503 C 38.785 403.317,74.139 425.289,118.187 430.918 C 123.788 431.634,165.368 431.825,271.787 431.624 L 417.707 431.348 426.667 429.380 C 456.593 422.806,477.951 410.109,493.264 389.787 C 514.443 361.680,518.054 315.698,501.645 283.056 C 489.989 259.869,467.992 241.647,439.828 231.848 C 432.585 229.328,428.239 228.207,415.787 225.643 C 414.606 225.400,413.867 224.622,413.867 223.622 C 413.867 222.727,413.061 218.415,412.076 214.038 C 401.522 167.144,377.430 129.928,342.376 106.367 C 324.140 94.110,304.273 86.170,282.027 82.247 C 272.241 80.521,244.617 80.033,235.025 81.416 M277.333 114.075 C 319.435 120.802,356.117 151.600,372.924 194.331 C 377.204 205.214,380.978 219.999,382.767 232.892 C 384.588 246.022,385.155 247.594,389.514 251.612 C 393.429 255.221,393.783 255.330,406.613 256.863 C 436.301 260.410,461.397 275.394,472.212 296.029 C 478.209 307.471,479.147 311.876,479.140 328.533 C 479.133 341.546,478.881 344.339,477.177 350.245 C 474.057 361.061,469.024 369.826,461.670 377.253 C 451.347 387.677,439.365 393.673,420.525 397.841 L 411.733 399.787 267.520 399.787 C 108.795 399.787,117.963 400.071,100.679 394.611 C 67.067 383.993,42.931 359.187,34.726 326.827 C 33.161 320.657,32.886 317.150,32.886 303.360 C 32.886 289.565,33.161 286.065,34.727 279.893 C 38.794 263.864,46.273 250.609,57.630 239.304 C 74.537 222.473,95.130 213.034,124.524 208.642 C 138.098 206.614,140.090 204.985,144.929 191.951 C 151.916 173.133,160.129 159.931,172.800 147.146 C 182.471 137.389,189.983 131.585,200.147 126.016 C 222.751 113.630,249.071 109.559,277.333 114.075 M311.893 192.856 C 310.485 193.292,308.122 194.717,306.642 196.024 C 305.161 197.331,282.544 223.870,256.380 254.999 L 208.810 311.598 206.929 309.612 C 205.895 308.520,197.817 299.608,188.978 289.807 C 172.185 271.186,169.274 268.837,162.987 268.837 C 156.370 268.837,149.449 274.132,147.664 280.560 C 145.340 288.928,145.712 289.502,173.343 320.193 C 187.140 335.518,199.624 348.629,201.490 349.752 C 205.633 352.248,211.625 352.489,216.123 350.340 C 218.588 349.162,231.952 333.825,273.320 284.695 C 303.009 249.435,328.412 219.119,329.772 217.325 C 334.971 210.464,333.162 199.643,326.028 194.921 C 322.185 192.378,316.244 191.510,311.893 192.856 " stroke="none" fill-rule="evenodd" fill="black"></path></svg>