<svg xmlns="http://www.w3.org/2000/svg" width="512" height="512" viewBox="0 0 512 512"><path d="M241.920 48.656 C 209.569 50.678,176.936 60.929,148.731 77.932 C 94.814 110.433,58.978 164.884,49.790 228.267 C 47.760 242.269,47.760 269.731,49.790 283.733 C 55.047 319.999,68.580 352.627,90.558 382.029 C 98.598 392.784,119.216 413.402,129.971 421.442 C 159.373 443.420,192.001 456.953,228.267 462.210 C 235.366 463.239,243.873 463.695,256.000 463.695 C 268.127 463.695,276.634 463.239,283.733 462.210 C 319.999 456.953,352.627 443.420,382.029 421.442 C 392.784 413.402,413.402 392.784,421.442 382.029 C 441.901 354.659,455.008 324.668,460.856 291.840 C 470.924 235.321,456.636 176.673,421.441 130.052 C 388.588 86.534,337.751 57.084,283.307 50.031 C 270.567 48.381,254.742 47.855,241.920 48.656 M267.357 169.057 C 280.332 171.067,292.835 177.195,302.685 186.372 C 313.530 196.477,320.136 207.502,324.625 222.993 C 328.401 236.025,330.658 238.594,341.569 242.282 C 357.662 247.722,366.446 254.626,371.926 266.142 C 374.765 272.109,375.043 273.382,375.333 281.718 C 375.863 296.942,372.822 305.736,364.008 314.465 C 358.243 320.176,352.277 323.413,342.363 326.212 C 335.839 328.053,335.192 328.068,260.693 328.087 L 185.600 328.107 178.812 326.141 C 152.711 318.584,136.508 297.754,136.546 271.804 C 136.570 255.544,140.967 244.623,151.848 233.803 C 159.685 226.009,168.763 221.133,181.280 217.994 C 185.945 216.824,190.375 215.312,191.125 214.633 C 191.875 213.954,194.296 209.830,196.504 205.469 C 210.389 178.049,237.026 164.360,267.357 169.057 " stroke="none" fill-rule="evenodd" fill="black"></path></svg>