<svg xmlns="http://www.w3.org/2000/svg" width="512" height="512" viewBox="0 0 512 512"><path d="M235.093 81.496 C 192.675 87.495,156.913 108.728,131.332 143.103 C 116.034 163.660,104.465 190.451,99.346 217.173 C 98.537 221.397,97.783 224.971,97.671 225.116 C 97.558 225.260,93.680 226.147,89.053 227.088 C 49.603 235.104,17.069 260.836,6.023 292.758 C 2.257 303.642,0.809 311.588,0.281 324.267 C -0.761 349.289,5.817 372.642,18.736 389.787 C 34.049 410.109,55.407 422.806,85.333 429.380 L 94.293 431.348 240.213 431.624 C 389.598 431.906,392.561 431.853,407.467 428.655 C 472.300 414.741,514.758 361.350,511.753 297.512 C 509.611 252.004,486.908 216.061,446.293 193.878 C 434.213 187.280,422.284 183.169,400.826 178.207 L 395.893 177.067 392.098 168.601 C 372.046 123.867,330.823 91.034,284.160 82.630 C 271.405 80.332,247.264 79.775,235.093 81.496 M277.333 114.085 C 298.276 117.464,318.707 127.668,335.194 142.985 C 347.471 154.391,356.949 168.010,364.081 184.493 C 371.206 200.960,377.917 206.388,395.520 209.921 C 420.839 215.003,439.318 224.242,454.400 239.359 C 465.439 250.424,472.786 263.118,476.826 278.108 C 478.832 285.551,479.037 287.802,479.079 302.933 C 479.120 317.287,478.872 320.570,477.281 326.827 C 469.039 359.219,444.931 383.994,411.321 394.611 C 394.042 400.069,403.112 399.787,245.333 399.787 C 108.865 399.787,101.563 399.710,93.440 398.190 C 88.747 397.311,81.316 395.316,76.927 393.756 C 55.305 386.068,40.884 371.268,34.972 350.697 C 32.328 341.497,31.680 322.924,33.661 313.144 C 36.123 300.994,42.015 289.981,50.586 281.506 C 63.048 269.185,77.465 262.084,98.987 257.669 C 110.041 255.401,115.804 252.662,120.830 247.289 C 125.790 241.986,128.399 236.176,130.135 226.560 C 138.613 179.607,164.139 143.218,201.813 124.375 C 223.813 113.372,250.433 109.745,277.333 114.085 " stroke="none" fill-rule="evenodd" fill="black"></path></svg>