<svg xmlns="http://www.w3.org/2000/svg" width="512" height="512" viewBox="0 0 512 512"><path d="M52.474 52.913 L 41.399 64.012 244.698 267.311 L 447.996 470.609 459.302 459.303 L 470.609 447.997 267.518 244.905 C 155.819 133.205,64.230 41.813,63.988 41.813 C 63.747 41.813,58.565 46.808,52.474 52.913 M237.803 81.061 C 228.200 82.265,218.566 84.439,208.682 87.631 C 199.225 90.686,179.900 99.918,175.552 103.459 L 173.184 105.387 324.538 256.719 L 475.893 408.051 481.293 403.065 C 502.443 383.543,513.210 355.244,511.731 323.066 C 509.441 273.256,474.979 237.252,418.987 226.174 L 414.293 225.245 412.706 216.943 C 409.526 200.318,401.542 177.611,394.035 163.840 C 385.966 149.040,377.381 137.553,365.259 125.340 C 343.088 103.001,314.347 87.925,283.307 82.354 C 274.017 80.686,246.926 79.917,237.803 81.061 M102.827 180.131 C 91.077 182.991,80.742 186.781,69.402 192.391 C 37.817 208.015,16.164 232.427,6.142 263.716 C 1.451 278.359,0.459 285.404,0.496 303.787 C 0.524 317.605,0.847 321.895,2.397 329.086 C 9.758 363.233,27.389 389.300,56.108 408.494 C 70.991 418.442,86.925 424.965,107.266 429.437 C 115.580 431.264,116.325 431.276,239.787 431.546 L 363.947 431.817 237.228 305.082 C 167.532 235.377,110.316 178.374,110.081 178.408 C 109.846 178.442,106.581 179.218,102.827 180.131 " stroke="none" fill-rule="evenodd" fill="black"></path></svg>