<svg xmlns="http://www.w3.org/2000/svg" width="512" height="512" viewBox="0 0 512 512"><path d="M61.867 48.187 C 61.397 48.354,59.964 48.722,58.682 49.004 C 55.174 49.777,50.637 54.223,49.011 58.480 C 47.433 62.611,47.766 67.564,49.889 71.556 C 50.550 72.798,138.571 161.242,245.492 268.100 C 423.259 445.762,440.212 462.469,443.616 463.358 C 455.817 466.545,466.545 455.817,463.358 443.616 C 462.469 440.212,445.762 423.259,268.100 245.492 C 161.242 138.571,72.853 50.584,71.680 49.966 C 69.430 48.781,63.313 47.672,61.867 48.187 M242.773 64.497 C 241.365 64.699,237.141 65.268,233.387 65.760 C 217.959 67.785,199.920 73.722,185.600 81.489 C 177.939 85.645,175.611 87.770,173.694 92.358 C 170.098 100.964,175.240 111.048,184.495 113.540 C 189.284 114.830,192.188 114.123,200.967 109.529 C 218.103 100.563,230.781 97.359,251.733 96.700 C 264.481 96.299,268.204 96.493,277.167 98.025 C 316.163 104.690,348.364 128.998,367.181 165.973 C 375.665 182.646,379.925 196.757,383.079 218.638 C 385.538 235.699,388.615 238.799,404.907 240.631 C 436.559 244.190,462.543 259.918,473.170 281.951 C 477.769 291.486,479.575 299.992,479.567 312.071 C 479.551 334.441,473.559 349.875,459.594 363.520 C 450.298 372.602,449.258 380.813,456.424 388.556 C 459.653 392.045,463.089 393.584,467.652 393.584 C 473.511 393.584,476.940 391.535,484.893 383.286 C 495.425 372.360,501.033 363.543,505.730 350.520 C 513.059 330.203,513.825 303.037,507.658 282.148 C 497.243 246.871,464.384 219.529,422.039 210.904 L 414.425 209.354 412.105 198.743 C 404.151 162.365,389.459 134.125,365.961 110.043 C 343.145 86.659,312.777 71.061,280.320 66.055 C 272.564 64.858,247.502 63.819,242.773 64.497 M85.007 169.407 C 63.373 177.104,41.494 191.758,28.745 207.088 C 10.462 229.073,1.547 252.705,0.314 282.453 C -1.584 328.256,19.454 368.923,57.916 393.801 C 70.934 402.221,89.359 409.536,106.240 412.987 C 121.481 416.103,137.771 416.523,232.960 416.256 C 321.888 416.005,323.912 415.963,327.199 414.293 C 338.215 408.695,339.306 393.862,329.217 386.869 L 325.694 384.427 222.794 383.960 C 120.355 383.495,119.856 383.485,111.579 381.597 C 97.030 378.279,83.154 372.424,72.107 364.942 C 65.295 360.330,52.355 347.355,47.811 340.581 C 42.545 332.733,37.754 322.016,35.255 312.496 C 32.604 302.397,31.680 284.302,33.222 272.710 C 37.650 239.437,60.030 212.948,94.720 199.920 C 102.420 197.028,105.165 195.161,107.246 191.402 C 109.749 186.882,110.339 183.331,109.256 179.310 C 107.457 172.627,100.596 167.274,93.867 167.304 C 92.224 167.311,88.237 168.257,85.007 169.407 " stroke="none" fill-rule="evenodd" fill="black"></path></svg>