<svg xmlns="http://www.w3.org/2000/svg" width="512" height="512" viewBox="0 0 512 512"><path d="M240.213 80.778 C 216.700 83.614,196.433 90.203,178.186 100.941 C 139.148 123.917,112.579 161.210,101.019 209.257 C 98.912 218.016,98.389 219.199,95.197 222.427 C 92.586 225.068,90.389 226.336,86.592 227.392 C 73.373 231.067,66.495 233.587,57.253 238.144 C 26.943 253.089,8.525 276.349,1.559 308.480 C -0.178 316.494,0.076 341.793,1.984 350.720 C 6.457 371.654,13.934 385.945,27.717 399.899 C 42.742 415.113,60.901 424.246,86.395 429.413 L 96.000 431.360 245.333 431.360 L 394.667 431.360 404.338 429.401 C 424.150 425.387,440.664 418.674,456.089 408.364 C 484.597 389.308,502.236 363.182,509.609 329.086 C 512.332 316.498,512.328 290.207,509.602 277.599 C 498.901 228.107,464.362 194.363,410.134 180.420 C 405.031 179.108,399.655 177.229,398.188 176.244 C 396.340 175.004,393.766 171.132,389.812 163.638 C 386.672 157.690,382.150 149.928,379.763 146.391 C 354.899 109.544,317.602 86.536,273.942 81.112 C 267.236 80.278,246.089 80.069,240.213 80.778 " stroke="none" fill-rule="evenodd" fill="black"></path></svg>