<svg xmlns="http://www.w3.org/2000/svg" width="512" height="512" viewBox="0 0 512 512"><path d="M238.507 48.729 C 188.739 54.145,146.212 82.916,122.486 127.222 C 119.482 132.830,116.336 137.526,114.806 138.683 C 113.237 139.870,107.666 141.816,100.693 143.615 C 81.549 148.553,66.667 155.103,51.200 165.401 C 42.160 171.419,24.856 188.531,19.319 196.926 C 7.212 215.283,1.093 234.496,0.233 256.853 C -1.278 296.123,16.075 331.895,48.438 356.225 C 57.305 362.891,76.556 372.699,87.893 376.326 C 109.668 383.292,118.618 384.000,184.837 384.000 L 239.787 384.000 239.787 417.307 C 239.787 445.440,239.992 451.106,241.107 453.776 C 246.816 467.438,265.184 467.438,270.893 453.776 C 272.008 451.106,272.213 445.445,272.213 417.357 L 272.213 384.099 342.827 383.760 C 410.988 383.433,413.778 383.357,423.187 381.568 C 460.641 374.445,488.204 355.701,501.803 328.107 C 515.198 300.927,515.461 269.780,502.517 243.710 C 490.212 218.927,463.013 198.424,430.933 189.749 C 421.195 187.116,416.908 184.874,414.662 181.239 C 413.737 179.743,411.636 173.611,409.991 167.611 C 392.543 103.946,345.026 60.390,281.600 49.918 C 271.492 48.250,248.693 47.620,238.507 48.729 M262.400 177.421 C 266.606 179.388,333.119 245.867,334.460 249.442 C 336.009 253.575,335.550 260.123,333.449 263.861 C 329.634 270.648,320.038 273.583,313.108 270.081 C 311.501 269.269,301.643 260.116,291.200 249.741 L 272.213 230.877 272.213 307.438 L 272.213 384.000 256.000 384.000 L 239.787 384.000 239.787 307.438 L 239.787 230.877 220.800 249.741 C 210.357 260.116,200.499 269.269,198.892 270.081 C 192.009 273.559,182.679 270.848,178.810 264.246 C 176.442 260.206,175.895 253.831,177.540 249.442 C 178.881 245.867,245.394 179.388,249.600 177.421 C 251.477 176.543,254.357 175.824,256.000 175.824 C 257.643 175.824,260.523 176.543,262.400 177.421 " stroke="none" fill-rule="evenodd" fill="black"></path></svg>