<svg xmlns="http://www.w3.org/2000/svg" width="512" height="512" viewBox="0 0 512 512"><path d="M238.507 48.729 C 186.497 54.389,142.082 85.858,119.700 132.907 C 116.539 139.551,115.628 140.800,113.944 140.800 C 112.843 140.800,106.781 142.100,100.472 143.689 C 72.395 150.761,49.150 163.877,31.030 182.870 C 11.487 203.355,1.355 227.695,0.233 256.853 C -1.278 296.123,16.075 331.895,48.438 356.225 C 57.305 362.891,76.556 372.699,87.893 376.326 C 109.668 383.292,118.618 384.000,184.837 384.000 L 239.787 384.000 239.787 424.107 L 239.787 464.213 256.000 464.213 L 272.213 464.213 272.213 424.156 L 272.213 384.099 342.827 383.760 C 410.988 383.433,413.778 383.357,423.187 381.568 C 440.543 378.267,456.831 372.061,469.333 363.986 C 496.328 346.550,512.000 317.385,512.000 284.587 C 512.000 243.907,487.182 211.004,443.538 193.820 C 437.613 191.488,423.626 187.604,417.280 186.529 L 414.293 186.024 412.320 176.852 C 397.761 109.175,348.031 60.886,281.600 49.918 C 271.492 48.250,248.693 47.620,238.507 48.729 M299.520 212.906 L 342.606 255.999 331.304 267.301 L 320.002 278.604 296.108 254.721 L 272.213 230.838 272.213 307.419 L 272.213 384.000 256.000 384.000 L 239.787 384.000 239.787 307.419 L 239.787 230.838 215.892 254.721 L 191.998 278.604 180.696 267.301 L 169.394 255.999 212.480 212.906 C 236.178 189.205,255.762 169.813,256.000 169.813 C 256.238 169.813,275.822 189.205,299.520 212.906 " stroke="none" fill-rule="evenodd" fill="black"></path></svg>