<svg xmlns="http://www.w3.org/2000/svg" width="512" height="512" viewBox="0 0 512 512"><path d="M346.981 33.761 C 345.159 34.429,340.188 36.731,335.934 38.876 C 301.470 56.257,273.177 88.052,261.666 122.337 C 260.427 126.028,259.413 129.321,259.413 129.656 C 259.413 129.991,262.005 130.735,265.173 131.310 C 274.648 133.029,288.243 137.238,298.536 141.637 C 331.315 155.648,361.073 182.702,378.334 214.187 L 381.375 219.733 391.861 223.105 C 404.815 227.270,426.200 237.892,436.312 245.184 C 440.444 248.164,447.018 253.524,450.921 257.096 L 458.017 263.590 463.888 258.826 C 481.018 244.927,495.750 226.981,504.765 209.031 C 509.013 200.572,512.125 192.848,511.278 192.864 C 510.971 192.869,507.264 194.033,503.040 195.451 C 481.192 202.780,450.490 204.122,425.387 198.843 C 397.200 192.916,375.367 178.930,361.288 157.781 C 347.355 136.852,341.547 113.212,342.440 81.067 C 342.922 63.722,344.749 52.086,348.958 39.561 C 350.277 35.637,351.117 32.454,350.825 32.487 C 350.532 32.520,348.803 33.093,346.981 33.761 M214.613 160.950 C 165.124 168.089,125.311 197.154,103.584 242.006 C 98.172 253.177,92.099 271.052,89.987 282.027 C 89.173 286.251,88.267 289.983,87.972 290.320 C 87.677 290.657,82.969 292.061,77.510 293.439 C 28.854 305.728,-0.015 339.897,0.003 385.178 C 0.012 406.056,6.517 427.259,17.313 441.600 C 34.380 464.270,60.507 476.894,96.000 479.621 C 104.044 480.239,148.227 480.431,231.253 480.209 C 352.686 479.885,354.703 479.852,363.959 478.070 C 413.088 468.608,448.735 436.816,460.354 392.099 C 466.522 368.359,464.626 340.449,455.316 317.959 C 441.198 283.853,409.296 258.945,367.946 249.741 L 359.146 247.783 355.942 240.585 C 346.633 219.669,329.185 198.279,310.564 184.953 C 301.368 178.372,285.313 170.196,275.014 166.850 C 260.826 162.240,253.451 161.144,234.667 160.852 C 225.045 160.703,216.021 160.746,214.613 160.950 " stroke="none" fill-rule="evenodd" fill="black"></path></svg>