<svg xmlns="http://www.w3.org/2000/svg" width="512" height="512" viewBox="0 0 512 512"><path d="M237.227 81.091 C 200.331 86.193,168.612 103.008,144.944 130.014 C 136.562 139.578,129.017 150.778,121.888 164.238 C 118.198 171.205,115.632 175.019,113.812 176.242 C 112.345 177.228,106.969 179.108,101.866 180.420 C 36.018 197.350,-2.331 245.833,0.236 308.907 C 1.924 350.412,21.484 385.352,55.911 408.364 C 71.336 418.674,87.850 425.387,107.662 429.401 L 117.333 431.360 266.667 431.360 L 416.000 431.360 425.605 429.413 C 462.447 421.946,487.585 404.220,501.350 376.001 C 516.611 344.716,515.334 304.567,498.186 276.583 C 483.475 252.575,460.673 237.161,425.408 227.387 C 417.693 225.249,413.668 220.833,411.821 212.480 C 398.086 150.384,356.796 103.549,300.912 86.676 C 286.183 82.230,277.190 80.928,258.987 80.608 C 250.069 80.452,240.277 80.669,237.227 81.091 M324.054 193.810 C 331.480 197.405,334.747 206.640,331.294 214.273 C 330.298 216.475,306.793 245.062,274.428 283.434 C 232.596 333.030,218.492 349.208,216.083 350.361 C 211.489 352.559,205.799 352.346,201.603 349.817 C 197.830 347.544,152.759 298.121,149.486 292.668 C 147.142 288.763,146.790 281.419,148.765 277.622 C 151.332 272.687,157.578 268.800,162.942 268.800 C 169.272 268.800,171.883 270.905,188.766 289.614 C 197.706 299.521,205.875 308.522,206.918 309.615 L 208.816 311.604 257.719 253.530 C 309.747 191.744,309.499 192.002,316.957 192.001 C 318.804 192.000,321.997 192.815,324.054 193.810 " stroke="none" fill-rule="evenodd" fill="black"></path></svg>