<svg xmlns="http://www.w3.org/2000/svg" width="512" height="512" viewBox="0 0 512 512"><path d="M234.475 81.521 C 182.091 88.663,136.936 122.624,113.675 172.373 C 108.544 183.348,102.113 203.063,99.695 215.231 L 97.707 225.236 93.013 226.169 C 51.105 234.503,20.358 257.259,7.324 289.590 C 1.912 303.015,0.510 310.891,0.466 328.107 C 0.424 344.569,1.443 351.718,5.613 364.196 C 10.376 378.450,16.832 388.878,27.717 399.899 C 42.742 415.113,60.901 424.246,86.395 429.413 L 96.000 431.360 245.333 431.360 L 394.667 431.360 404.338 429.401 C 424.150 425.387,440.664 418.674,456.089 408.364 C 484.597 389.308,502.236 363.182,509.609 329.086 C 512.332 316.498,512.328 290.207,509.602 277.599 C 506.062 261.227,500.034 246.670,491.556 234.019 C 473.767 207.474,443.023 187.809,406.514 179.623 C 400.936 178.372,396.244 177.220,396.085 177.062 C 395.927 176.904,394.157 173.133,392.152 168.681 C 384.420 151.512,374.569 137.384,360.527 123.325 C 348.406 111.189,337.999 103.566,323.372 96.109 C 307.713 88.126,291.981 83.353,273.942 81.112 C 264.319 79.916,244.757 80.119,234.475 81.521 " stroke="none" fill-rule="evenodd" fill="black"></path></svg>