<svg xmlns="http://www.w3.org/2000/svg" width="512" height="512" viewBox="0 0 512 512"><path d="M57.600 49.849 C 54.420 51.269,50.747 55.122,49.548 58.296 C 48.248 61.735,48.428 67.989,49.917 71.124 C 50.619 72.603,138.651 161.242,245.543 268.100 C 424.123 446.621,440.199 462.466,443.656 463.369 C 450.419 465.136,456.697 462.916,460.747 457.324 C 463.770 453.151,464.647 448.548,463.358 443.616 C 462.469 440.212,445.795 423.293,268.526 245.916 C 157.162 134.484,73.319 51.237,71.501 50.290 C 67.814 48.369,61.374 48.165,57.600 49.849 M243.200 64.565 C 220.582 66.778,200.820 72.849,182.527 83.207 C 171.322 89.552,168.107 92.616,168.107 96.951 C 168.107 100.214,170.217 102.371,315.949 248.104 C 456.192 388.347,463.946 395.947,466.776 395.943 C 470.835 395.939,474.060 393.793,483.106 385.072 C 495.147 373.465,502.686 360.997,507.346 344.989 C 515.014 318.645,512.988 289.446,501.970 267.520 C 488.810 241.331,462.624 221.341,430.292 212.802 C 416.123 209.060,414.579 207.397,410.583 191.573 C 406.801 176.597,403.456 167.533,396.409 153.173 C 371.611 102.638,326.019 70.420,271.483 64.895 C 263.200 64.056,249.982 63.902,243.200 64.565 M85.333 169.377 C 39.644 186.126,10.842 218.858,1.978 264.107 C -0.360 276.044,-0.122 301.314,2.441 313.173 C 8.039 339.077,18.219 357.878,36.664 376.378 C 55.236 395.005,78.797 407.508,105.633 412.977 C 121.428 416.195,134.574 416.528,235.238 416.259 L 331.810 416.000 333.967 413.973 C 336.790 411.321,337.522 407.819,335.895 404.756 C 335.192 403.431,281.684 349.440,216.990 284.777 C 113.163 180.999,99.018 167.160,96.403 166.807 C 94.360 166.530,90.923 167.328,85.333 169.377 " stroke="none" fill-rule="evenodd" fill="black"></path></svg>