<svg xmlns="http://www.w3.org/2000/svg" width="512" height="512" viewBox="0 0 512 512"><path d="M237.227 81.091 C 219.468 83.546,203.732 88.409,188.628 96.109 C 174.001 103.566,163.594 111.189,151.473 123.325 C 137.431 137.384,127.580 151.512,119.848 168.681 C 117.843 173.133,116.073 176.904,115.915 177.062 C 115.756 177.220,111.064 178.372,105.486 179.623 C 55.820 190.760,19.725 221.314,6.142 263.716 C 1.451 278.359,0.459 285.404,0.496 303.787 C 0.524 317.605,0.847 321.895,2.397 329.086 C 9.738 363.141,27.400 389.307,55.911 408.364 C 71.336 418.674,87.850 425.387,107.662 429.401 L 117.333 431.360 266.667 431.360 L 416.000 431.360 425.605 429.413 C 462.447 421.946,487.585 404.220,501.350 376.001 C 509.368 359.565,512.641 342.872,511.731 323.066 C 509.441 273.256,474.979 237.252,418.987 226.174 L 414.293 225.245 412.706 216.943 C 409.526 200.318,401.542 177.611,394.035 163.840 C 385.966 149.040,377.381 137.553,365.259 125.340 C 343.090 103.002,314.370 87.937,283.307 82.351 C 273.928 80.664,245.861 79.897,237.227 81.091 M327.588 196.035 C 339.099 205.752,339.403 206.095,338.042 207.802 C 337.271 208.770,308.077 243.471,273.166 284.917 L 209.692 360.273 207.364 357.843 C 206.083 356.507,190.522 339.310,172.783 319.628 L 140.530 283.842 145.606 279.094 C 160.468 265.194,163.793 262.579,165.160 263.713 C 165.886 264.316,175.938 275.297,187.497 288.117 C 201.352 303.482,208.827 311.163,209.431 310.656 C 209.934 310.232,233.771 282.029,262.400 247.982 C 291.029 213.935,314.741 186.066,315.093 186.052 C 315.445 186.038,321.068 190.530,327.588 196.035 " stroke="none" fill-rule="evenodd" fill="black"></path></svg>