<svg xmlns="http://www.w3.org/2000/svg" width="512" height="512" viewBox="0 0 512 512"><path d="M239.821 48.738 C 201.971 52.096,167.388 69.792,142.014 98.783 C 133.924 108.026,125.457 120.838,120.285 131.665 L 116.120 140.384 106.651 142.320 C 87.120 146.311,68.726 153.934,52.367 164.815 C 41.189 172.250,26.284 186.741,19.652 196.620 C -2.133 229.073,-5.962 271.186,9.557 307.627 C 15.688 322.021,23.896 333.623,36.491 345.698 C 58.845 367.127,88.092 379.909,122.027 383.078 C 134.728 384.264,192.208 384.288,196.454 383.109 C 207.367 380.078,211.580 366.267,204.249 357.555 C 199.486 351.894,200.722 352.053,157.013 351.475 C 121.019 350.999,116.653 350.788,110.004 349.196 C 87.729 343.863,72.468 335.916,58.205 322.223 C 46.743 311.220,38.641 297.496,34.475 282.027 C 32.184 273.522,32.164 249.817,34.441 240.640 C 36.491 232.376,43.037 218.595,48.066 211.961 C 63.196 191.998,89.385 177.249,117.625 172.788 C 133.949 170.209,134.968 169.886,138.773 166.080 C 141.014 163.838,142.872 160.856,143.890 157.867 C 146.817 149.272,155.161 133.637,160.812 126.160 C 174.573 107.950,195.640 92.816,216.878 85.883 C 230.472 81.446,236.369 80.662,256.000 80.683 C 271.787 80.700,275.537 80.968,282.880 82.600 C 299.882 86.381,313.143 91.979,327.190 101.304 C 338.008 108.485,352.587 122.931,359.964 133.778 C 371.890 151.312,379.909 172.812,383.113 195.840 C 384.384 204.973,386.086 209.327,389.588 212.402 C 393.026 215.421,396.001 216.291,407.455 217.630 C 429.264 220.178,448.141 228.862,462.114 242.773 C 468.067 248.700,470.621 252.012,473.297 257.280 C 478.440 267.400,479.148 270.818,479.134 285.440 C 479.123 296.492,478.853 299.044,477.161 304.130 C 470.181 325.100,454.810 339.300,430.937 346.831 C 417.286 351.137,411.280 351.561,363.520 351.589 C 339.349 351.603,318.067 351.963,316.226 352.390 C 307.464 354.423,302.278 363.281,304.663 372.140 C 305.969 376.990,310.820 381.824,315.699 383.137 C 318.452 383.879,331.992 384.042,366.868 383.755 C 410.225 383.398,415.100 383.213,423.692 381.599 C 467.001 373.463,497.623 348.278,508.030 312.235 C 514.660 289.270,512.709 264.626,502.663 244.480 C 497.392 233.908,491.853 226.523,482.829 218.033 C 467.045 203.185,445.913 192.511,422.703 187.665 C 418.095 186.702,414.286 185.844,414.240 185.757 C 414.194 185.671,413.266 181.568,412.179 176.640 C 396.238 104.397,341.198 54.838,270.080 48.690 C 258.519 47.690,251.501 47.701,239.821 48.738 M249.600 177.421 C 247.326 178.485,234.758 190.509,211.937 213.456 C 175.185 250.409,174.987 250.655,176.156 257.968 C 177.832 268.451,189.654 274.749,198.892 270.081 C 200.499 269.269,210.357 260.116,220.800 249.741 L 239.787 230.877 239.787 340.964 L 239.787 451.052 241.707 454.810 C 242.763 456.877,245.102 459.742,246.906 461.177 C 249.839 463.511,250.798 463.787,256.000 463.787 C 261.202 463.787,262.161 463.511,265.094 461.177 C 266.898 459.742,269.237 456.877,270.293 454.810 L 272.213 451.052 272.213 340.964 L 272.213 230.877 291.200 249.741 C 301.643 260.116,311.501 269.269,313.108 270.081 C 322.346 274.749,334.168 268.451,335.844 257.968 C 337.013 250.655,336.815 250.409,300.063 213.456 C 264.987 178.187,262.220 175.824,256.000 175.824 C 254.357 175.824,251.477 176.543,249.600 177.421 " stroke="none" fill-rule="evenodd" fill="black"></path></svg>