<svg xmlns="http://www.w3.org/2000/svg" width="512" height="512" viewBox="0 0 512 512"><path d="M241.493 48.673 C 201.694 51.236,163.176 65.747,129.707 90.787 C 119.118 98.709,98.459 119.383,90.552 129.971 C 68.706 159.223,55.330 191.336,49.785 227.840 C 47.724 241.414,47.724 270.586,49.785 284.160 C 55.331 320.671,68.725 352.821,90.558 382.029 C 98.598 392.784,119.216 413.402,129.971 421.442 C 159.179 443.275,191.329 456.669,227.840 462.215 C 241.414 464.276,270.586 464.276,284.160 462.215 C 320.686 456.667,352.914 443.237,382.029 421.430 C 392.784 413.374,413.374 392.784,421.430 382.029 C 443.237 352.914,456.667 320.686,462.215 284.160 C 464.276 270.586,464.276 241.414,462.215 227.840 C 455.463 183.387,436.803 144.683,406.921 113.150 C 370.380 74.590,322.088 52.062,268.561 48.607 C 255.365 47.755,255.779 47.754,241.493 48.673 M284.160 82.308 C 319.998 88.383,351.735 104.258,377.739 129.118 C 405.349 155.513,423.300 189.800,429.832 228.618 C 431.923 241.048,431.905 271.514,429.799 283.733 C 419.921 341.032,385.307 387.989,334.011 413.679 C 285.590 437.929,226.410 437.929,177.989 413.679 C 126.525 387.905,91.775 340.650,82.174 283.382 C 80.053 270.734,80.053 241.266,82.174 228.618 C 92.715 165.745,133.739 115.017,192.849 91.764 C 205.896 86.632,221.606 82.941,239.787 80.737 C 246.454 79.928,276.372 80.988,284.160 82.308 M244.256 168.996 C 223.294 172.760,206.713 185.457,196.273 205.739 C 193.954 210.244,191.528 214.370,190.881 214.906 C 190.235 215.442,185.902 216.835,181.253 218.001 C 168.462 221.208,159.700 225.970,151.409 234.218 C 140.470 245.101,136.219 255.765,136.262 272.213 C 136.281 279.521,136.698 282.436,138.518 288.018 C 144.718 307.025,159.699 321.095,178.992 326.029 C 185.134 327.600,189.088 327.680,260.693 327.680 C 332.478 327.680,336.239 327.604,342.440 326.018 C 358.769 321.841,369.543 312.545,373.718 299.030 C 380.513 277.028,372.010 256.360,352.160 246.633 C 348.317 244.749,342.677 242.609,339.627 241.877 C 332.184 240.090,329.465 238.968,328.582 237.318 C 328.176 236.558,327.026 232.483,326.028 228.262 C 322.011 211.276,316.454 200.557,305.969 189.571 C 297.036 180.211,287.048 174.167,274.728 170.667 C 267.425 168.593,251.397 167.714,244.256 168.996 " stroke="none" fill-rule="evenodd" fill="black"></path></svg>