<svg xmlns="http://www.w3.org/2000/svg" width="512" height="512" viewBox="0 0 512 512"><path d="M153.527 124.204 C 148.928 125.621,153.621 121.662,75.399 190.117 C 33.120 227.117,15.031 243.471,13.576 246.010 C 10.629 251.155,10.630 260.847,13.579 265.995 C 16.093 270.383,144.567 383.249,150.818 386.560 C 156.119 389.369,164.334 389.480,169.387 386.812 C 178.932 381.771,183.091 371.089,179.553 360.705 C 177.815 355.605,177.086 354.928,114.515 300.373 C 86.792 276.203,64.110 256.235,64.110 256.000 C 64.110 255.765,88.098 234.645,117.417 209.067 C 146.737 183.488,172.243 161.110,174.098 159.339 C 178.614 155.027,180.196 151.707,180.694 145.501 C 181.480 135.719,175.462 126.930,166.069 124.141 C 160.937 122.617,158.643 122.628,153.527 124.204 M345.574 124.143 C 336.446 127.070,330.536 135.916,331.306 145.501 C 331.804 151.707,333.386 155.027,337.902 159.339 C 339.757 161.110,365.263 183.488,394.583 209.067 C 423.902 234.645,447.890 255.765,447.890 256.000 C 447.890 256.235,425.208 276.203,397.485 300.373 C 334.914 354.928,334.185 355.605,332.447 360.705 C 328.909 371.089,333.068 381.771,342.613 386.812 C 347.666 389.480,355.881 389.369,361.182 386.560 C 367.433 383.249,495.907 270.383,498.421 265.995 C 500.095 263.072,500.480 261.203,500.480 256.000 C 500.480 250.797,500.095 248.928,498.421 246.005 C 496.958 243.451,477.374 225.785,430.785 184.992 C 394.719 153.412,363.571 126.701,361.568 125.636 C 356.882 123.143,350.539 122.551,345.574 124.143 " stroke="none" fill-rule="evenodd" fill="black"></path></svg>