<svg xmlns="http://www.w3.org/2000/svg" width="512" height="512" viewBox="0 0 512 512"><path d="M297.387 81.629 C 292.493 84.204,290.238 87.144,288.058 93.789 C 286.890 97.352,264.757 170.901,238.874 257.231 C 199.349 389.067,191.882 414.787,192.231 417.887 C 194.096 434.432,217.476 436.766,223.051 420.965 C 223.734 419.029,245.868 345.525,272.239 257.622 C 324.491 83.444,321.712 93.988,317.173 87.128 C 313.174 81.086,303.518 78.402,297.387 81.629 M153.906 129.181 C 151.476 130.286,24.290 241.007,19.897 245.843 C 14.932 251.307,14.932 260.693,19.897 266.157 C 24.776 271.528,151.594 381.759,154.096 382.804 C 160.994 385.686,169.166 382.978,173.386 376.410 C 175.617 372.938,175.875 371.873,175.603 367.273 C 175.423 364.219,174.678 361.123,173.801 359.786 C 172.980 358.532,146.402 334.833,114.740 307.121 C 83.079 279.409,57.173 256.404,57.173 256.000 C 57.173 255.596,83.079 232.591,114.740 204.879 C 146.402 177.167,172.973 153.478,173.787 152.236 C 174.600 150.994,175.428 147.736,175.627 144.995 C 175.932 140.773,175.647 139.432,173.761 136.214 C 172.537 134.124,170.195 131.587,168.556 130.574 C 164.761 128.228,157.517 127.540,153.906 129.181 M347.233 128.816 C 343.402 129.976,340.482 132.386,338.211 136.260 C 336.354 139.429,336.069 140.786,336.373 144.995 C 336.572 147.736,337.400 150.994,338.213 152.236 C 339.027 153.478,365.598 177.167,397.260 204.879 C 428.921 232.591,454.827 255.596,454.827 256.000 C 454.827 256.404,428.921 279.409,397.260 307.121 C 365.598 334.833,339.020 358.532,338.199 359.786 C 337.322 361.123,336.577 364.219,336.397 367.273 C 336.125 371.873,336.383 372.938,338.614 376.410 C 342.834 382.978,351.006 385.686,357.904 382.804 C 360.406 381.759,487.224 271.528,492.103 266.157 C 494.554 263.460,495.787 260.061,495.787 256.000 C 495.787 251.939,494.554 248.540,492.103 245.843 C 487.224 240.472,360.406 130.241,357.904 129.196 C 354.804 127.901,350.731 127.756,347.233 128.816 " stroke="none" fill="black" fill-rule="evenodd"></path></svg>