<svg xmlns="http://www.w3.org/2000/svg" width="512" height="512" viewBox="0 0 512 512"><path d="M81.531 184.682 C 37.434 223.314,1.229 255.298,1.076 255.758 C 0.923 256.217,34.115 285.740,74.836 321.363 C 115.557 356.987,151.815 388.722,155.408 391.886 L 161.940 397.639 175.800 381.800 L 189.659 365.960 186.958 363.674 C 175.691 354.133,64.110 256.335,64.110 256.000 C 64.110 255.665,175.691 157.867,186.958 148.326 L 189.659 146.040 175.793 130.193 C 168.167 121.478,161.878 114.368,161.817 114.394 C 161.756 114.420,125.627 146.050,81.531 184.682 M336.495 129.751 C 329.065 138.243,322.908 145.451,322.812 145.769 C 322.717 146.087,350.820 170.923,385.264 200.960 C 419.708 230.997,447.889 255.765,447.890 256.000 C 447.890 256.335,336.318 354.125,325.042 363.674 L 322.341 365.960 336.200 381.800 L 350.060 397.639 356.592 391.886 C 360.185 388.722,396.430 356.998,437.136 321.388 C 477.842 285.778,511.147 256.353,511.147 256.000 C 511.147 255.647,477.842 226.222,437.136 190.612 C 396.430 155.002,360.173 123.267,356.564 120.089 L 350.003 114.311 336.495 129.751 M234.667 219.940 L 234.667 300.787 213.332 279.465 L 191.997 258.143 177.065 273.074 L 162.133 288.006 209.067 334.933 L 256.000 381.861 302.933 334.933 L 349.867 288.006 334.935 273.074 L 320.003 258.143 298.668 279.465 L 277.333 300.787 277.333 219.940 L 277.333 139.093 256.000 139.093 L 234.667 139.093 234.667 219.940 " stroke="none" fill="black" fill-rule="evenodd"></path></svg>