<svg xmlns="http://www.w3.org/2000/svg" width="512" height="512" viewBox="0 0 512 512"><path d="M81.531 184.682 C 37.434 223.314,1.229 255.298,1.076 255.758 C 0.923 256.217,34.115 285.740,74.836 321.363 C 115.557 356.987,151.815 388.722,155.408 391.886 L 161.940 397.639 175.800 381.800 L 189.659 365.960 186.958 363.674 C 175.691 354.133,64.110 256.335,64.110 256.000 C 64.110 255.665,175.691 157.867,186.958 148.326 L 189.659 146.040 175.793 130.193 C 168.167 121.478,161.878 114.368,161.817 114.394 C 161.756 114.420,125.627 146.050,81.531 184.682 M336.495 129.751 C 329.065 138.243,322.908 145.451,322.812 145.769 C 322.717 146.087,350.820 170.923,385.264 200.960 C 419.708 230.997,447.889 255.765,447.890 256.000 C 447.890 256.335,336.318 354.125,325.042 363.674 L 322.341 365.960 336.200 381.800 L 350.060 397.639 356.592 391.886 C 360.185 388.722,396.430 356.998,437.136 321.388 C 477.842 285.778,511.147 256.353,511.147 256.000 C 511.147 255.647,477.842 226.222,437.136 190.612 C 396.430 155.002,360.173 123.267,356.564 120.089 L 350.003 114.311 336.495 129.751 M157.440 226.132 C 142.358 230.861,132.720 246.421,135.650 261.312 C 136.225 264.234,137.462 268.129,138.400 269.967 C 141.044 275.149,147.356 281.341,152.640 283.936 C 156.910 286.033,158.382 286.293,165.973 286.293 C 176.270 286.293,180.263 284.773,187.201 278.211 C 193.900 271.876,196.641 265.426,196.641 256.000 C 196.641 246.675,193.883 240.101,187.414 234.006 C 180.905 227.873,176.041 225.834,167.266 225.558 C 163.270 225.432,158.848 225.691,157.440 226.132 M244.832 227.241 C 231.854 232.692,224.749 243.790,225.428 257.551 C 226.005 269.246,232.566 279.109,243.032 284.015 C 247.231 285.983,248.998 286.293,256.000 286.293 C 263.002 286.293,264.769 285.983,268.968 284.015 C 275.169 281.108,281.108 275.169,284.015 268.968 C 285.983 264.769,286.293 263.002,286.293 256.000 C 286.293 248.990,285.984 247.233,284.005 243.012 C 281.167 236.957,274.975 230.813,268.800 227.927 C 261.991 224.744,251.491 224.444,244.832 227.241 M336.640 226.418 C 328.659 229.042,321.428 235.618,317.716 243.627 C 315.706 247.965,315.345 249.854,315.351 256.000 C 315.361 265.428,318.106 271.881,324.799 278.211 C 331.737 284.773,335.730 286.293,346.027 286.293 C 353.618 286.293,355.090 286.033,359.360 283.936 C 371.667 277.892,378.902 263.731,376.356 250.667 C 374.420 240.732,368.493 232.913,359.310 228.180 C 355.484 226.209,353.395 225.747,347.363 225.543 C 342.948 225.394,338.702 225.741,336.640 226.418 " stroke="none" fill="black" fill-rule="evenodd"></path></svg>