<svg xmlns="http://www.w3.org/2000/svg" width="512" height="512" viewBox="0 0 512 512"><path d="M153.906 129.181 C 151.476 130.286,24.290 241.007,19.897 245.843 C 14.932 251.307,14.932 260.693,19.897 266.157 C 24.776 271.528,151.594 381.759,154.096 382.804 C 160.994 385.686,169.166 382.978,173.386 376.410 C 175.617 372.938,175.875 371.873,175.603 367.273 C 175.423 364.219,174.678 361.123,173.801 359.786 C 172.980 358.532,146.402 334.833,114.740 307.121 C 83.079 279.409,57.173 256.404,57.173 256.000 C 57.173 255.596,83.079 232.591,114.740 204.879 C 146.402 177.167,172.973 153.478,173.787 152.236 C 174.600 150.994,175.428 147.736,175.627 144.995 C 175.932 140.773,175.647 139.432,173.761 136.214 C 172.537 134.124,170.195 131.587,168.556 130.574 C 164.761 128.228,157.517 127.540,153.906 129.181 M347.233 128.816 C 343.402 129.976,340.482 132.386,338.211 136.260 C 336.354 139.429,336.069 140.786,336.373 144.995 C 336.572 147.736,337.400 150.994,338.213 152.236 C 339.027 153.478,365.598 177.167,397.260 204.879 C 428.921 232.591,454.827 255.596,454.827 256.000 C 454.827 256.404,428.921 279.409,397.260 307.121 C 365.598 334.833,339.020 358.532,338.199 359.786 C 337.322 361.123,336.577 364.219,336.397 367.273 C 336.125 371.873,336.383 372.938,338.614 376.410 C 342.834 382.978,351.006 385.686,357.904 382.804 C 360.406 381.759,487.224 271.528,492.103 266.157 C 494.554 263.460,495.787 260.061,495.787 256.000 C 495.787 251.939,494.554 248.540,492.103 245.843 C 487.224 240.472,360.406 130.241,357.904 129.196 C 354.804 127.901,350.731 127.756,347.233 128.816 M154.643 233.000 C 145.113 237.762,140.420 245.335,140.391 256.000 C 140.376 261.308,140.782 263.232,142.768 267.276 C 150.614 283.253,171.486 286.866,183.948 274.403 C 191.510 266.842,193.859 256.766,190.287 247.218 C 184.872 232.745,168.345 226.153,154.643 233.000 M248.314 231.148 C 233.602 235.963,226.012 252.662,232.297 266.390 C 239.947 283.099,261.385 287.116,274.250 274.250 C 286.686 261.815,283.295 240.892,267.520 232.726 C 263.806 230.803,252.265 229.855,248.314 231.148 M334.884 232.847 C 318.515 240.591,315.087 261.439,328.052 274.403 C 340.514 286.866,361.386 283.253,369.232 267.276 C 372.331 260.965,372.579 251.756,369.812 245.717 C 363.669 232.309,348.127 226.582,334.884 232.847 " stroke="none" fill="black" fill-rule="evenodd"></path></svg>