<svg xmlns="http://www.w3.org/2000/svg" width="512" height="512" viewBox="0 0 512 512"><path d="M153.527 124.204 C 148.928 125.621,153.621 121.662,75.399 190.117 C 32.907 227.303,15.042 243.458,13.588 246.010 C 11.972 248.847,11.541 250.852,11.531 255.573 C 11.510 266.506,7.972 262.878,81.087 326.889 C 117.234 358.535,148.379 385.281,150.299 386.326 C 155.146 388.963,159.012 389.517,164.303 388.333 C 173.044 386.377,179.590 379.207,180.626 370.454 C 181.388 364.021,179.657 359.028,174.865 353.844 C 172.626 351.422,146.790 328.512,117.452 302.933 C 88.114 277.355,64.110 256.235,64.110 256.000 C 64.110 255.765,88.114 234.645,117.452 209.067 C 146.790 183.488,172.626 160.578,174.865 158.156 C 179.657 152.972,181.388 147.979,180.626 141.546 C 179.649 133.295,173.914 126.507,165.876 124.088 C 160.987 122.616,158.608 122.639,153.527 124.204 M345.789 124.086 C 337.998 126.622,332.328 133.489,331.374 141.546 C 330.612 147.979,332.343 152.972,337.135 158.156 C 339.374 160.578,365.210 183.488,394.548 209.067 C 423.886 234.645,447.890 255.765,447.890 256.000 C 447.890 256.235,423.886 277.355,394.548 302.933 C 365.210 328.512,339.374 351.422,337.135 353.844 C 332.343 359.028,330.612 364.021,331.374 370.454 C 332.410 379.207,338.956 386.377,347.697 388.333 C 352.988 389.517,356.854 388.963,361.701 386.326 C 363.621 385.281,394.766 358.535,430.913 326.889 C 504.028 262.878,500.490 266.506,500.469 255.573 C 500.459 250.850,500.028 248.848,498.409 246.005 C 496.947 243.438,477.606 225.988,430.785 184.992 C 394.719 153.412,363.571 126.701,361.568 125.636 C 356.944 123.175,350.525 122.545,345.789 124.086 M157.440 226.132 C 142.358 230.861,132.720 246.421,135.650 261.312 C 136.225 264.234,137.462 268.129,138.400 269.967 C 141.044 275.149,147.356 281.341,152.640 283.936 C 156.910 286.033,158.382 286.293,165.973 286.293 C 176.270 286.293,180.263 284.773,187.201 278.211 C 193.900 271.876,196.641 265.426,196.641 256.000 C 196.641 246.675,193.883 240.101,187.414 234.006 C 180.905 227.873,176.041 225.834,167.266 225.558 C 163.270 225.432,158.848 225.691,157.440 226.132 M244.832 227.241 C 231.854 232.692,224.749 243.790,225.428 257.551 C 226.005 269.246,232.566 279.109,243.032 284.015 C 247.231 285.983,248.998 286.293,256.000 286.293 C 263.002 286.293,264.769 285.983,268.968 284.015 C 275.169 281.108,281.108 275.169,284.015 268.968 C 285.983 264.769,286.293 263.002,286.293 256.000 C 286.293 248.990,285.984 247.233,284.005 243.012 C 281.167 236.957,274.975 230.813,268.800 227.927 C 261.991 224.744,251.491 224.444,244.832 227.241 M336.640 226.418 C 328.659 229.042,321.428 235.618,317.716 243.627 C 315.706 247.965,315.345 249.854,315.351 256.000 C 315.361 265.428,318.106 271.881,324.799 278.211 C 331.737 284.773,335.730 286.293,346.027 286.293 C 353.618 286.293,355.090 286.033,359.360 283.936 C 371.667 277.892,378.902 263.731,376.356 250.667 C 374.420 240.732,368.493 232.913,359.310 228.180 C 355.484 226.209,353.395 225.747,347.363 225.543 C 342.948 225.394,338.702 225.741,336.640 226.418 " stroke="none" fill="black" fill-rule="evenodd"></path></svg>