<svg xmlns="http://www.w3.org/2000/svg" width="512" height="512" viewBox="0 0 512 512"><path d="M153.527 124.204 C 148.928 125.621,153.621 121.662,75.399 190.117 C 32.907 227.303,15.042 243.458,13.588 246.010 C 11.972 248.847,11.541 250.852,11.531 255.573 C 11.510 266.506,7.972 262.878,81.087 326.889 C 117.234 358.535,148.379 385.281,150.299 386.326 C 155.146 388.963,159.012 389.517,164.303 388.333 C 173.044 386.377,179.590 379.207,180.626 370.454 C 181.388 364.021,179.657 359.028,174.865 353.844 C 172.626 351.422,146.790 328.512,117.452 302.933 C 88.114 277.355,64.110 256.235,64.110 256.000 C 64.110 255.765,88.114 234.645,117.452 209.067 C 146.790 183.488,172.626 160.578,174.865 158.156 C 179.657 152.972,181.388 147.979,180.626 141.546 C 179.649 133.295,173.914 126.507,165.876 124.088 C 160.987 122.616,158.608 122.639,153.527 124.204 M345.789 124.086 C 337.998 126.622,332.328 133.489,331.374 141.546 C 330.612 147.979,332.343 152.972,337.135 158.156 C 339.374 160.578,365.210 183.488,394.548 209.067 C 423.886 234.645,447.890 255.765,447.890 256.000 C 447.890 256.235,423.886 277.355,394.548 302.933 C 365.210 328.512,339.374 351.422,337.135 353.844 C 332.343 359.028,330.612 364.021,331.374 370.454 C 332.410 379.207,338.956 386.377,347.697 388.333 C 352.988 389.517,356.854 388.963,361.701 386.326 C 363.621 385.281,394.766 358.535,430.913 326.889 C 504.028 262.878,500.490 266.506,500.469 255.573 C 500.459 250.850,500.028 248.848,498.409 246.005 C 496.947 243.438,477.606 225.988,430.785 184.992 C 394.719 153.412,363.571 126.701,361.568 125.636 C 356.944 123.175,350.525 122.545,345.789 124.086 M249.096 140.263 C 244.032 142.074,239.980 145.782,237.461 150.912 L 235.093 155.733 234.861 228.216 L 234.629 300.699 219.928 286.128 C 203.174 269.523,200.271 267.593,192.000 267.564 C 187.456 267.548,185.641 267.992,181.959 270.022 C 171.463 275.809,167.992 289.339,174.435 299.342 C 177.374 303.904,243.055 368.995,246.613 370.871 C 250.755 373.055,261.246 373.055,265.387 370.871 C 268.871 369.033,333.469 305.052,337.113 299.829 C 344.109 289.802,340.827 275.969,330.041 270.022 C 326.359 267.992,324.544 267.548,320.000 267.564 C 311.729 267.593,308.826 269.523,292.072 286.128 L 277.371 300.699 277.139 228.216 L 276.907 155.733 274.539 150.912 C 270.875 143.452,264.113 139.168,256.000 139.168 C 253.888 139.168,250.781 139.661,249.096 140.263 " stroke="none" fill="black" fill-rule="evenodd"></path></svg>