<svg xmlns="http://www.w3.org/2000/svg" width="512" height="512" viewBox="0 0 512 512"><path d="M153.906 129.181 C 151.476 130.286,24.290 241.007,19.897 245.843 C 14.932 251.307,14.932 260.693,19.897 266.157 C 24.776 271.528,151.594 381.759,154.096 382.804 C 160.994 385.686,169.166 382.978,173.386 376.410 C 175.617 372.938,175.875 371.873,175.603 367.273 C 175.423 364.219,174.678 361.123,173.801 359.786 C 172.980 358.532,146.402 334.833,114.740 307.121 C 83.079 279.409,57.173 256.404,57.173 256.000 C 57.173 255.596,83.079 232.591,114.740 204.879 C 146.402 177.167,172.973 153.478,173.787 152.236 C 174.600 150.994,175.428 147.736,175.627 144.995 C 175.932 140.773,175.647 139.432,173.761 136.214 C 172.537 134.124,170.195 131.587,168.556 130.574 C 164.761 128.228,157.517 127.540,153.906 129.181 M347.233 128.816 C 343.402 129.976,340.482 132.386,338.211 136.260 C 336.354 139.429,336.069 140.786,336.373 144.995 C 336.572 147.736,337.400 150.994,338.213 152.236 C 339.027 153.478,365.598 177.167,397.260 204.879 C 428.921 232.591,454.827 255.596,454.827 256.000 C 454.827 256.404,428.921 279.409,397.260 307.121 C 365.598 334.833,339.020 358.532,338.199 359.786 C 337.322 361.123,336.577 364.219,336.397 367.273 C 336.125 371.873,336.383 372.938,338.614 376.410 C 342.834 382.978,351.006 385.686,357.904 382.804 C 360.406 381.759,487.224 271.528,492.103 266.157 C 494.554 263.460,495.787 260.061,495.787 256.000 C 495.787 251.939,494.554 248.540,492.103 245.843 C 487.224 240.472,360.406 130.241,357.904 129.196 C 354.804 127.901,350.731 127.756,347.233 128.816 M249.600 145.428 C 245.977 147.052,243.259 149.878,241.415 153.937 C 239.900 157.272,239.823 161.178,239.805 235.481 L 239.787 313.521 219.520 293.371 C 202.088 276.039,198.798 273.135,195.999 272.612 C 191.092 271.694,186.308 272.650,182.935 275.222 C 177.017 279.736,174.840 285.748,176.673 292.514 C 177.667 296.184,180.621 299.407,210.685 329.625 C 228.792 347.826,245.115 363.762,246.957 365.038 C 249.785 366.998,251.195 367.360,256.000 367.360 C 260.805 367.360,262.215 366.998,265.043 365.038 C 266.885 363.762,283.208 347.826,301.315 329.625 C 331.379 299.407,334.333 296.184,335.327 292.514 C 338.532 280.685,328.434 270.286,316.001 272.612 C 313.202 273.135,309.912 276.039,292.480 293.371 L 272.213 313.521 272.195 235.481 C 272.177 161.340,272.097 157.269,270.596 154.027 C 268.756 150.054,265.120 146.411,261.704 145.121 C 258.443 143.889,252.710 144.034,249.600 145.428 " stroke="none" fill="black" fill-rule="evenodd"></path></svg>