<svg xmlns="http://www.w3.org/2000/svg" width="512" height="512" viewBox="0 0 512 512"><path d="M81.557 184.608 C 37.475 223.193,1.263 255.197,1.086 255.728 C 0.909 256.259,34.288 285.985,75.262 321.786 C 116.236 357.587,152.495 389.306,155.838 392.273 L 161.915 397.667 175.788 381.813 C 183.418 373.093,189.323 365.662,188.910 365.299 C 188.498 364.935,160.416 340.357,126.507 310.680 C 92.597 281.002,64.853 256.400,64.853 256.007 C 64.853 255.430,184.033 150.437,188.478 147.098 C 189.537 146.303,187.420 143.480,175.839 130.245 C 168.187 121.501,161.878 114.371,161.817 114.400 C 161.756 114.429,125.640 146.023,81.557 184.608 M336.165 130.241 C 324.581 143.480,322.463 146.303,323.522 147.098 C 327.947 150.422,447.147 255.428,447.147 256.003 C 447.147 256.393,419.403 280.996,385.493 310.675 C 351.584 340.353,323.505 364.931,323.095 365.292 C 322.686 365.653,328.583 373.092,336.199 381.824 L 350.047 397.701 356.144 392.287 C 359.497 389.309,395.744 357.600,436.693 321.823 C 477.643 286.045,511.147 256.430,511.147 256.012 C 511.147 255.593,476.299 224.797,433.707 187.575 C 391.115 150.354,354.874 118.649,353.173 117.120 L 350.079 114.340 336.165 130.241 " stroke="none" fill="black" fill-rule="evenodd"></path></svg>