<svg xmlns="http://www.w3.org/2000/svg" width="512" height="512" viewBox="0 0 512 512"><path d="M216.803 51.593 C 212.714 52.397,210.809 53.259,209.337 54.970 C 207.418 57.201,207.360 57.752,207.360 73.671 C 207.360 86.839,207.109 90.432,206.085 91.893 C 204.371 94.341,191.553 99.211,188.557 98.553 C 185.928 97.976,183.897 95.903,173.921 83.617 C 169.916 78.683,166.020 74.134,165.264 73.506 C 162.530 71.237,158.454 72.027,151.320 76.209 C 144.860 79.997,142.507 82.566,142.507 85.831 C 142.507 86.530,144.811 93.156,147.627 100.556 C 154.274 118.023,154.268 118.793,147.413 125.028 C 141.060 130.807,138.898 131.810,135.407 130.593 C 134.007 130.105,127.579 126.442,121.124 122.453 C 105.356 112.710,104.370 112.716,96.421 122.598 C 92.444 127.541,91.307 129.593,91.307 131.825 C 91.307 134.935,91.198 134.781,103.869 149.508 C 108.197 154.539,111.999 159.694,112.318 160.965 C 112.760 162.728,112.109 164.772,109.569 169.598 C 105.751 176.850,103.278 179.207,99.512 179.183 C 98.050 179.173,91.093 178.023,84.053 176.626 C 77.013 175.229,70.360 174.085,69.268 174.083 C 65.986 174.078,62.757 178.228,60.298 185.613 C 59.049 189.364,58.027 193.097,58.027 193.909 C 58.027 196.747,62.814 200.487,75.213 207.335 C 90.046 215.528,90.323 215.898,88.729 225.448 C 87.503 232.794,85.955 236.179,83.372 237.161 C 82.339 237.553,75.003 238.950,67.069 240.264 C 47.896 243.440,48.213 243.175,48.213 256.000 C 48.213 268.947,47.831 268.639,67.892 271.831 C 86.731 274.829,86.586 274.732,88.517 285.666 C 89.882 293.390,89.875 293.626,88.193 295.906 C 87.247 297.190,80.552 301.593,73.316 305.691 C 56.713 315.094,56.602 315.263,60.159 325.818 C 62.849 333.799,65.963 337.931,69.268 337.903 C 70.360 337.893,77.013 336.743,84.053 335.346 C 91.093 333.949,98.050 332.805,99.512 332.803 C 103.289 332.799,105.758 335.140,109.578 342.351 C 112.129 347.167,112.779 349.197,112.336 350.963 C 112.017 352.234,108.013 357.595,103.438 362.877 C 88.513 380.107,88.619 379.705,96.421 389.402 C 99.233 392.899,102.145 395.994,102.890 396.280 C 106.679 397.733,109.750 396.593,122.166 389.120 C 136.635 380.411,138.541 379.954,143.872 383.909 C 149.469 388.061,152.646 391.408,153.241 393.779 C 153.660 395.447,152.319 399.972,148.131 411.024 C 142.176 426.740,142.011 427.966,145.357 431.620 C 147.470 433.927,158.748 440.320,160.705 440.320 C 163.952 440.320,166.869 437.676,175.840 426.600 C 182.070 418.909,186.235 414.517,187.821 413.964 C 189.747 413.292,191.585 413.565,196.674 415.276 C 207.443 418.897,206.863 417.659,207.360 438.088 C 207.864 458.837,207.766 458.614,217.318 460.463 C 225.448 462.036,229.857 461.945,232.024 460.160 C 233.183 459.205,235.662 453.433,238.896 444.160 C 245.226 426.008,245.408 425.813,256.000 425.813 C 266.592 425.813,266.774 426.008,273.104 444.160 C 276.338 453.433,278.817 459.205,279.976 460.160 C 282.143 461.945,286.552 462.036,294.682 460.463 C 304.234 458.614,304.136 458.837,304.640 438.088 C 305.052 421.133,305.132 420.485,307.000 418.975 C 309.744 416.756,322.160 412.771,324.256 413.437 C 325.210 413.739,330.234 419.240,335.420 425.660 C 345.814 438.527,348.211 440.613,351.829 439.938 C 354.692 439.404,365.097 433.452,367.051 431.231 C 369.940 427.946,369.696 426.336,363.979 411.000 C 360.911 402.767,358.400 395.646,358.400 395.176 C 358.400 392.824,360.843 389.674,365.764 385.681 C 373.441 379.452,374.085 379.541,390.017 389.035 C 407.203 399.275,407.436 399.270,416.296 388.436 C 423.294 379.878,423.272 379.805,408.579 362.877 C 403.995 357.595,399.983 352.234,399.664 350.963 C 399.221 349.197,399.871 347.167,402.422 342.351 C 406.242 335.141,408.711 332.799,412.488 332.803 C 413.950 332.805,421.099 333.960,428.373 335.370 C 435.648 336.781,442.651 337.710,443.936 337.435 C 447.220 336.733,449.024 334.061,451.867 325.687 C 455.421 315.218,455.245 314.951,438.653 305.620 C 431.435 301.561,424.761 297.199,423.822 295.926 C 422.196 293.721,422.170 293.256,423.274 286.112 C 424.990 275.005,425.321 274.767,443.027 271.945 C 458.940 269.409,461.253 268.635,462.997 265.263 C 464.642 262.082,464.627 249.888,462.974 246.691 C 461.291 243.437,459.124 242.716,443.343 240.158 C 435.854 238.944,429.102 237.617,428.340 237.209 C 425.841 235.871,424.764 233.887,423.604 228.478 C 422.061 221.286,422.149 217.527,423.912 215.366 C 424.723 214.372,430.763 210.593,437.333 206.967 C 443.904 203.342,450.233 199.449,451.399 198.316 C 454.157 195.635,454.010 191.924,450.810 183.504 C 448.903 178.485,447.805 176.799,445.608 175.516 C 442.831 173.894,442.787 173.897,428.899 176.545 C 412.056 179.757,409.635 179.839,407.268 177.280 C 404.049 173.801,399.360 164.883,399.360 162.239 C 399.360 160.151,401.439 157.223,410.027 147.217 C 421.497 133.851,422.128 132.490,419.121 127.573 C 418.260 126.165,415.535 122.805,413.066 120.107 C 406.712 113.164,405.806 113.267,390.089 122.727 C 383.210 126.867,376.649 130.498,375.508 130.796 C 372.637 131.547,369.087 129.664,363.307 124.324 C 359.513 120.819,358.400 119.232,358.400 117.327 C 358.400 115.971,360.704 108.808,363.520 101.409 C 366.336 94.010,368.640 86.626,368.640 85.000 C 368.640 81.451,365.688 78.699,357.224 74.358 C 348.775 70.024,348.350 70.247,336.162 85.397 C 329.363 93.848,325.214 98.291,323.785 98.650 C 320.962 99.359,309.183 95.170,306.347 92.450 L 304.213 90.403 304.506 74.752 C 304.894 53.993,304.582 53.392,292.323 51.237 C 279.760 49.028,279.130 49.580,272.643 68.501 C 266.645 85.996,266.470 86.187,256.352 86.187 C 244.792 86.187,244.585 85.957,237.980 65.827 C 233.538 52.286,232.027 50.307,226.230 50.430 C 224.065 50.476,219.823 50.999,216.803 51.593 M267.827 112.659 C 287.193 114.373,302.177 118.580,319.573 127.186 C 326.144 130.437,335.168 135.693,339.627 138.868 C 350.024 146.271,365.747 161.998,373.124 172.373 C 383.234 186.593,394.364 211.394,395.645 222.557 C 396.307 228.323,392.696 235.046,387.448 237.822 L 383.666 239.821 326.383 239.591 L 269.101 239.360 265.750 237.133 C 262.821 235.186,259.003 228.917,235.352 187.213 C 220.476 160.982,207.900 138.439,207.406 137.118 C 204.899 130.421,208.491 121.603,215.132 118.147 C 218.464 116.413,233.953 113.449,243.627 112.695 C 256.113 111.721,257.212 111.720,267.827 112.659 M173.909 149.684 C 175.176 150.346,177.218 151.978,178.445 153.310 C 180.324 155.351,227.262 237.127,232.837 248.073 C 235.164 252.641,235.253 259.187,233.049 263.501 C 227.848 273.676,179.556 356.682,177.652 358.718 C 173.252 363.425,166.749 364.754,160.613 362.200 C 152.410 358.786,136.347 338.412,126.768 319.270 C 107.336 280.442,107.438 231.274,127.031 192.231 C 135.172 176.007,151.279 154.846,159.130 150.058 C 162.277 148.139,170.551 147.929,173.909 149.684 M386.982 273.918 C 391.108 275.915,393.675 279.090,395.154 284.025 C 396.462 288.393,395.470 293.593,391.058 305.493 C 371.521 358.183,325.322 393.674,268.800 399.415 C 249.441 401.382,219.767 397.722,212.372 392.456 C 208.695 389.838,206.184 384.408,206.230 379.174 C 206.266 374.986,207.575 372.499,233.382 327.547 C 248.295 301.572,261.209 279.306,262.080 278.067 C 262.951 276.827,265.299 275.004,267.298 274.014 C 270.885 272.239,271.687 272.215,327.197 272.214 C 381.691 272.213,383.572 272.267,386.982 273.918 " stroke="none" fill-rule="evenodd" fill="black"></path></svg>