<svg xmlns="http://www.w3.org/2000/svg" width="512" height="512" viewBox="0 0 512 512"><path d="M217.173 51.577 C 206.115 53.795,205.653 54.752,205.653 75.478 C 205.653 93.961,205.999 93.173,196.453 96.423 C 191.770 98.018,189.902 98.310,188.784 97.622 C 187.972 97.122,183.222 91.753,178.229 85.690 C 168.688 74.103,165.856 71.692,161.780 71.684 C 158.239 71.678,145.163 79.194,143.229 82.347 C 140.780 86.341,141.282 89.373,146.773 103.750 C 149.589 111.124,151.893 117.906,151.893 118.822 C 151.893 122.032,140.762 130.931,137.882 130.024 C 136.906 129.716,131.307 126.499,125.440 122.874 C 111.906 114.512,111.575 114.347,108.387 114.347 C 104.331 114.347,101.538 116.221,96.707 122.182 C 87.803 133.167,87.982 134.185,101.569 149.821 C 107.671 156.843,111.778 162.293,111.766 163.350 C 111.754 164.323,110.118 167.808,108.130 171.093 C 103.648 178.500,103.728 178.487,85.692 174.947 C 78.222 173.481,71.187 172.533,69.889 172.819 C 66.059 173.660,63.583 176.741,60.726 184.223 C 55.665 197.476,56.631 199.321,73.467 208.558 C 80.228 212.268,86.432 215.880,87.253 216.584 C 88.094 217.305,88.747 219.050,88.747 220.577 C 88.747 225.374,86.862 232.857,85.297 234.273 C 84.310 235.166,78.693 236.467,69.298 237.979 C 53.547 240.513,50.940 241.573,48.995 246.226 C 47.411 250.017,47.411 261.983,48.995 265.774 C 50.898 270.329,53.463 271.381,68.924 273.954 C 76.776 275.261,83.845 276.586,84.634 276.900 C 86.491 277.638,87.726 281.281,88.421 288.069 C 88.804 291.808,88.657 293.907,87.952 294.756 C 87.386 295.437,81.128 299.188,74.044 303.091 C 56.635 312.682,55.869 314.040,60.589 326.971 C 63.334 334.493,66.306 338.397,69.880 339.176 C 71.105 339.443,78.059 338.505,85.333 337.091 C 100.676 334.109,103.374 333.960,105.122 336.000 C 108.191 339.580,111.938 347.441,111.468 349.312 C 111.202 350.374,106.564 356.362,101.162 362.618 C 88.207 377.621,87.973 379.042,96.675 389.779 C 105.105 400.181,107.244 400.196,124.400 389.973 C 131.489 385.749,138.248 382.293,139.419 382.293 C 141.392 382.293,148.178 387.261,150.827 390.644 C 152.598 392.906,152.109 395.133,146.773 409.103 C 143.957 416.477,141.653 423.355,141.653 424.388 C 141.653 428.595,144.619 431.994,151.959 436.196 C 159.369 440.439,162.756 441.166,166.709 439.365 C 167.862 438.840,173.096 433.096,178.340 426.600 C 183.584 420.105,188.599 414.560,189.485 414.279 C 191.525 413.631,203.167 417.744,204.587 419.614 C 205.350 420.620,205.653 425.479,205.653 436.725 C 205.653 457.654,206.314 458.731,220.594 461.067 C 233.278 463.141,235.152 461.480,241.450 442.582 C 243.863 435.344,246.522 428.802,247.359 428.044 C 248.504 427.008,250.645 426.667,256.000 426.667 C 261.355 426.667,263.496 427.008,264.641 428.044 C 265.478 428.802,268.137 435.344,270.550 442.582 C 276.848 461.480,278.722 463.141,291.406 461.067 C 305.686 458.731,306.347 457.654,306.347 436.725 C 306.347 425.479,306.650 420.620,307.413 419.614 C 308.490 418.196,319.473 413.867,321.994 413.867 C 322.743 413.867,327.359 418.763,332.251 424.747 C 343.347 438.319,344.625 439.498,348.852 440.065 C 351.774 440.457,353.219 439.986,358.756 436.835 C 372.005 429.297,372.371 427.755,365.296 409.262 C 362.442 401.801,360.107 394.634,360.107 393.336 C 360.107 391.490,361.241 390.026,365.301 386.634 C 368.700 383.794,371.282 382.295,372.768 382.298 C 374.104 382.301,380.311 385.462,387.840 389.973 C 405.093 400.312,406.733 400.250,415.916 388.906 C 424.116 378.776,423.874 377.522,410.823 362.453 C 405.437 356.235,400.812 350.311,400.545 349.289 C 400.040 347.357,405.021 337.390,407.534 335.304 C 409.340 333.805,412.463 334.084,427.055 337.050 C 444.757 340.648,446.716 339.836,451.416 326.957 C 456.052 314.254,455.190 312.598,439.391 303.850 C 421.868 294.148,422.935 295.187,423.562 288.441 C 424.208 281.492,425.468 277.662,427.366 276.878 C 428.155 276.553,435.253 275.208,443.140 273.890 C 451.292 272.529,458.412 270.885,459.638 270.081 C 462.853 267.975,464.213 263.787,464.213 256.000 C 464.213 248.215,462.853 244.025,459.642 241.921 C 458.081 240.899,434.439 236.290,426.902 235.539 C 426.797 235.529,426.130 234.398,425.421 233.026 C 423.619 229.542,422.701 218.867,424.061 217.228 C 424.639 216.532,430.549 212.982,437.196 209.338 C 443.842 205.694,450.135 201.791,451.181 200.665 C 454.409 197.190,454.468 193.775,451.446 185.413 C 446.533 171.818,445.144 171.286,425.123 175.327 C 413.994 177.574,409.956 178.083,408.510 177.425 C 406.417 176.471,400.213 165.862,400.213 163.237 C 400.213 162.335,404.491 156.644,409.720 150.590 C 419.828 138.885,421.913 135.386,421.022 131.619 C 420.346 128.757,414.861 121.417,410.361 117.352 C 404.989 112.498,402.855 112.937,387.600 122.027 C 379.984 126.564,373.778 129.707,372.431 129.707 C 370.916 129.707,368.469 128.249,365.129 125.356 C 361.076 121.845,360.107 120.508,360.107 118.435 C 360.107 117.021,362.432 109.719,365.273 102.208 C 372.080 84.215,371.782 82.865,359.395 75.603 C 352.445 71.528,349.188 70.860,345.183 72.684 C 343.971 73.237,338.568 79.189,333.178 85.911 C 325.671 95.274,322.917 98.133,321.409 98.133 C 319.354 98.133,309.227 94.308,307.462 92.865 C 306.754 92.285,306.365 86.880,306.182 75.044 L 305.920 58.056 303.339 55.477 C 299.210 51.350,284.224 48.946,279.113 51.589 C 276.158 53.117,275.110 55.287,270.024 70.400 C 267.812 76.971,265.332 83.061,264.511 83.934 C 262.750 85.806,256.892 86.642,251.355 85.812 C 246.615 85.101,246.648 85.156,240.616 67.602 C 235.280 52.077,233.827 50.284,226.708 50.448 C 224.280 50.504,219.989 51.012,217.173 51.577 M282.541 123.609 C 328.702 133.117,367.210 166.373,382.728 210.129 C 386.599 221.045,384.635 228.613,376.761 233.128 L 373.333 235.093 325.120 235.346 C 273.487 235.616,271.991 235.513,267.169 231.376 C 264.002 228.658,217.032 146.173,216.236 141.931 C 215.035 135.532,218.214 128.920,224.036 125.706 C 232.434 121.069,264.610 119.916,282.541 123.609 M172.667 160.494 C 174.472 160.995,177.220 162.625,178.775 164.116 C 180.420 165.692,191.544 184.322,205.361 208.640 L 229.120 250.453 229.112 256.000 L 229.105 261.547 204.944 303.360 C 191.656 326.357,179.948 346.087,178.925 347.203 C 174.822 351.685,166.424 352.927,160.534 349.922 C 154.913 347.054,143.407 331.586,135.765 316.626 C 116.800 279.496,116.591 233.426,135.219 196.335 C 140.152 186.512,145.064 178.848,151.736 170.565 C 159.865 160.472,164.521 158.232,172.667 160.494 M377.072 279.085 C 381.381 281.507,384.171 285.893,384.663 291.017 C 385.172 296.307,382.404 304.563,375.742 317.630 C 369.123 330.615,362.012 340.274,350.720 351.621 C 330.885 371.551,306.170 384.409,278.655 389.113 C 260.354 392.242,233.037 390.914,223.775 386.445 C 218.788 384.039,215.650 378.653,215.650 372.502 C 215.650 368.127,216.473 366.535,239.346 326.705 C 252.380 304.009,263.928 284.253,265.008 282.802 C 269.180 277.203,267.346 277.374,323.297 277.353 C 372.830 277.334,374.023 277.372,377.072 279.085 " stroke="none" fill-rule="evenodd" fill="black"></path></svg>