<svg xmlns="http://www.w3.org/2000/svg" width="512" height="512" viewBox="0 0 512 512"><path d="M271.787 48.665 C 209.555 52.532,148.446 79.922,105.381 123.249 C 80.154 148.630,62.888 178.522,54.256 211.761 C 49.520 229.995,48.284 239.680,48.284 258.560 C 48.284 277.440,49.520 287.125,54.256 305.359 C 68.773 361.256,108.778 408.781,164.693 436.556 C 250.949 479.402,360.255 471.297,432.761 416.679 C 444.900 407.535,454.316 398.371,456.899 393.187 C 459.418 388.134,459.610 385.197,457.819 379.166 C 456.197 373.704,446.283 357.039,442.726 353.796 L 440.016 351.326 429.138 351.876 C 409.782 352.856,399.272 350.307,391.010 342.630 C 382.095 334.344,377.246 323.048,378.378 313.204 C 379.085 307.062,383.682 297.583,388.387 292.568 C 390.433 290.387,400.747 280.947,411.307 271.591 C 437.585 248.307,444.637 240.330,452.247 225.280 C 460.306 209.340,463.708 195.157,463.708 177.493 C 463.708 149.462,453.472 124.646,433.135 103.374 C 415.164 84.576,383.114 65.938,354.333 57.544 C 329.013 50.161,299.243 46.958,271.787 48.665 M233.813 113.667 C 241.817 116.104,249.431 122.984,253.290 131.264 C 255.200 135.364,255.548 137.284,255.556 143.787 C 255.564 150.650,255.277 152.075,252.860 157.185 C 249.544 164.196,244.310 169.578,237.607 172.869 C 233.028 175.117,231.701 175.360,224.000 175.360 C 216.299 175.360,214.972 175.117,210.393 172.869 C 203.690 169.578,198.456 164.196,195.140 157.185 C 192.723 152.075,192.436 150.650,192.444 143.787 C 192.452 137.270,192.798 135.368,194.727 131.227 C 201.705 116.251,218.104 108.884,233.813 113.667 M338.977 114.127 C 348.212 117.331,356.377 126.486,358.895 136.458 C 362.530 150.859,355.215 166.241,341.536 172.956 C 337.158 175.105,335.737 175.360,328.107 175.360 C 320.628 175.360,318.969 175.077,314.679 173.066 C 308.419 170.132,302.210 163.914,299.058 157.421 C 296.862 152.898,296.580 151.402,296.566 144.213 C 296.553 137.197,296.857 135.450,298.829 131.227 C 306.089 115.679,322.860 108.535,338.977 114.127 M155.929 178.493 C 161.977 180.756,169.238 187.530,172.616 194.058 C 175.095 198.852,175.305 199.913,175.332 207.787 C 175.356 215.252,175.081 216.907,173.133 221.013 C 169.852 227.927,164.654 233.306,158.167 236.499 C 147.485 241.758,134.127 240.621,125.092 233.685 C 116.609 227.173,112.385 218.526,112.386 207.673 C 112.386 201.727,112.758 199.938,114.978 195.194 C 118.344 188.000,122.470 183.524,128.891 180.102 C 137.526 175.500,146.501 174.966,155.929 178.493 M165.010 281.866 C 171.283 284.738,176.641 289.854,180.147 296.318 C 182.937 301.463,183.040 301.988,183.040 311.040 C 183.040 320.109,182.941 320.609,180.119 325.813 C 168.631 347.001,138.913 348.778,125.820 329.059 C 113.963 311.201,121.971 287.395,142.080 280.723 C 149.059 278.407,158.481 278.877,165.010 281.866 M267.005 320.459 C 289.648 325.796,304.884 346.432,303.524 369.920 C 302.315 390.794,288.188 408.064,267.908 413.461 C 261.935 415.051,250.065 415.051,244.092 413.461 C 228.911 409.421,216.577 398.175,210.859 383.160 C 209.021 378.334,208.739 376.191,208.718 366.933 C 208.696 357.126,208.891 355.785,211.136 350.293 C 216.097 338.159,222.871 330.502,233.663 324.832 C 244.097 319.349,255.790 317.815,267.005 320.459 " stroke="none" fill-rule="evenodd" fill="black"></path></svg>