<svg xmlns="http://www.w3.org/2000/svg" width="512" height="512" viewBox="0 0 512 512"><path d="M270.080 48.670 C 216.092 51.998,163.644 72.743,121.691 107.363 C 99.891 125.354,79.897 150.067,68.062 173.653 C 59.960 189.800,53.078 211.693,49.821 231.680 C 47.941 243.221,47.694 270.576,49.367 282.027 C 55.615 324.783,73.271 360.810,103.253 391.982 C 136.830 426.891,179.243 449.167,231.680 459.435 C 301.858 473.177,379.473 455.945,431.360 415.102 C 449.500 400.823,454.603 392.246,455.450 374.613 C 455.971 363.760,453.903 354.731,448.991 346.417 C 442.449 335.345,431.947 328.305,417.137 325.064 C 398.699 321.030,398.327 320.912,394.661 317.908 C 388.512 312.869,386.735 306.736,389.913 301.524 C 390.815 300.044,399.934 291.380,410.177 282.270 C 420.419 273.160,431.052 263.234,433.804 260.213 C 447.998 244.634,457.310 226.435,461.742 205.616 C 464.222 193.965,464.438 174.745,462.215 163.550 C 454.296 123.681,428.202 92.794,383.445 70.313 C 350.847 53.939,310.273 46.193,270.080 48.670 M233.813 113.667 C 241.817 116.104,249.431 122.984,253.290 131.264 C 255.200 135.364,255.548 137.284,255.556 143.787 C 255.564 150.650,255.277 152.075,252.860 157.185 C 249.544 164.196,244.310 169.578,237.607 172.869 C 233.028 175.117,231.701 175.360,224.000 175.360 C 216.299 175.360,214.972 175.117,210.393 172.869 C 203.690 169.578,198.456 164.196,195.140 157.185 C 192.723 152.075,192.436 150.650,192.444 143.787 C 192.452 137.270,192.798 135.368,194.727 131.227 C 201.705 116.251,218.104 108.884,233.813 113.667 M338.977 114.127 C 348.212 117.331,356.377 126.486,358.895 136.458 C 362.530 150.859,355.215 166.241,341.536 172.956 C 337.158 175.105,335.737 175.360,328.107 175.360 C 320.628 175.360,318.969 175.077,314.679 173.066 C 308.419 170.132,302.210 163.914,299.058 157.421 C 296.862 152.898,296.580 151.402,296.566 144.213 C 296.553 137.197,296.857 135.450,298.829 131.227 C 306.089 115.679,322.860 108.535,338.977 114.127 M155.929 178.493 C 161.977 180.756,169.238 187.530,172.616 194.058 C 175.095 198.852,175.305 199.913,175.332 207.787 C 175.356 215.252,175.081 216.907,173.133 221.013 C 169.852 227.927,164.654 233.306,158.167 236.499 C 147.485 241.758,134.127 240.621,125.092 233.685 C 116.609 227.173,112.385 218.526,112.386 207.673 C 112.386 201.727,112.758 199.938,114.978 195.194 C 118.344 188.000,122.470 183.524,128.891 180.102 C 137.526 175.500,146.501 174.966,155.929 178.493 M165.010 281.866 C 171.283 284.738,176.641 289.854,180.147 296.318 C 182.937 301.463,183.040 301.988,183.040 311.040 C 183.040 320.109,182.941 320.609,180.119 325.813 C 168.631 347.001,138.913 348.778,125.820 329.059 C 113.963 311.201,121.971 287.395,142.080 280.723 C 149.059 278.407,158.481 278.877,165.010 281.866 M267.005 320.459 C 289.648 325.796,304.884 346.432,303.524 369.920 C 302.315 390.794,288.188 408.064,267.908 413.461 C 261.935 415.051,250.065 415.051,244.092 413.461 C 228.911 409.421,216.577 398.175,210.859 383.160 C 209.021 378.334,208.739 376.191,208.718 366.933 C 208.696 357.126,208.891 355.785,211.136 350.293 C 216.097 338.159,222.871 330.502,233.663 324.832 C 244.097 319.349,255.790 317.815,267.005 320.459 " stroke="none" fill-rule="evenodd" fill="black"></path></svg>