<svg xmlns="http://www.w3.org/2000/svg" width="512" height="512" viewBox="0 0 512 512"><path d="M122.453 32.428 C 110.688 34.068,102.816 38.211,92.114 48.396 C 78.303 61.539,73.166 72.444,73.106 88.747 C 73.058 102.110,76.229 111.226,84.535 121.600 C 86.790 124.416,97.891 135.936,109.205 147.200 L 129.775 167.680 85.863 211.200 C 60.267 236.568,40.668 256.678,38.875 259.413 C 29.910 273.086,30.046 293.223,39.195 306.901 C 41.433 310.247,64.961 333.422,110.538 377.173 C 147.940 413.077,180.228 443.655,182.290 445.124 C 195.025 454.198,211.984 455.465,226.600 448.435 C 233.398 445.165,229.488 448.838,329.593 351.684 C 348.715 333.126,364.953 317.610,365.678 317.204 C 366.403 316.799,372.175 315.949,378.503 315.317 C 388.150 314.353,390.634 313.802,393.868 311.907 C 401.597 307.377,406.291 297.353,404.530 289.141 C 404.015 286.739,402.986 283.494,402.243 281.928 C 400.698 278.673,166.085 45.688,159.800 41.168 C 149.647 33.866,135.645 30.589,122.453 32.428 M138.240 65.773 C 141.010 67.025,148.204 73.613,164.060 89.419 L 186.041 111.330 169.615 127.772 C 160.581 136.815,152.785 144.213,152.291 144.213 C 151.797 144.213,141.731 134.504,129.924 122.638 C 114.627 107.265,107.958 99.967,106.726 97.251 C 102.938 88.900,105.382 79.911,113.609 71.937 C 121.611 64.182,130.048 62.070,138.240 65.773 M285.065 209.256 C 326.786 250.662,360.642 284.792,360.301 285.100 C 359.959 285.408,358.144 286.133,356.267 286.712 C 354.389 287.290,351.125 288.739,349.013 289.933 C 344.727 292.355,346.545 290.630,270.585 364.373 C 240.370 393.707,214.648 418.376,213.424 419.194 C 210.843 420.921,204.421 421.141,201.681 419.596 C 200.670 419.026,169.677 389.598,132.807 354.199 C 88.810 311.959,65.467 288.966,64.885 287.299 C 63.560 283.498,63.811 280.640,65.748 277.463 C 67.144 275.174,207.905 134.140,208.924 134.010 C 209.080 133.990,243.343 167.851,285.065 209.256 M412.587 320.369 C 412.117 320.553,410.655 320.943,409.336 321.234 C 406.276 321.911,401.028 326.756,391.727 337.493 C 356.013 378.721,345.938 405.989,355.398 435.817 C 358.482 445.539,362.951 452.547,371.627 461.261 C 384.460 474.152,397.802 479.694,416.000 479.694 C 434.165 479.694,447.470 474.160,460.373 461.238 C 469.051 452.547,473.512 445.560,476.602 435.817 C 485.270 408.487,476.669 381.329,448.453 346.944 C 437.732 333.879,428.834 324.360,425.688 322.592 C 422.673 320.898,414.689 319.543,412.587 320.369 M424.221 368.026 C 437.141 384.076,444.083 396.146,446.854 407.377 C 450.526 422.255,443.183 437.990,429.402 444.774 C 424.247 447.312,422.995 447.573,416.000 447.573 C 409.005 447.573,407.753 447.312,402.598 444.774 C 392.933 440.016,386.473 431.167,384.655 420.196 C 382.924 409.750,386.729 398.092,396.808 382.963 C 403.846 372.398,415.410 358.198,416.451 358.842 C 416.864 359.097,420.360 363.230,424.221 368.026 " stroke="none" fill-rule="evenodd" fill="black"></path></svg>