<svg xmlns="http://www.w3.org/2000/svg" width="512" height="512" viewBox="0 0 512 512"><path d="M106.023 70.190 L 68.266 107.954 102.842 142.510 C 121.859 161.516,137.315 177.515,137.189 178.062 C 137.063 178.610,113.536 201.577,84.907 229.101 C 56.277 256.624,32.751 279.428,32.625 279.775 C 32.366 280.495,207.086 463.362,208.027 463.356 C 208.555 463.352,244.751 428.392,338.436 337.398 L 360.713 315.761 387.930 310.044 C 402.899 306.900,415.322 304.190,415.537 304.022 C 415.951 303.698,144.948 32.427,144.211 32.427 C 143.974 32.427,126.789 49.420,106.023 70.190 M164.181 111.550 C 174.788 122.450,183.467 131.674,183.467 132.048 C 183.467 132.423,180.001 136.177,175.764 140.391 L 168.062 148.053 149.524 128.934 C 139.329 118.418,130.458 109.067,129.811 108.154 C 128.730 106.627,129.246 105.879,136.197 98.895 C 140.357 94.717,144.016 91.396,144.328 91.516 C 144.640 91.635,153.574 100.651,164.181 111.550 M409.063 325.705 C 377.164 352.578,355.523 385.752,352.493 412.424 C 348.347 448.908,377.411 479.694,416.000 479.694 C 449.007 479.694,475.628 457.284,479.466 426.267 C 482.959 398.044,462.936 360.846,427.526 329.776 C 414.904 318.702,416.863 319.134,409.063 325.705 " stroke="none" fill-rule="evenodd" fill="black"></path></svg>