<svg xmlns="http://www.w3.org/2000/svg" width="512" height="512" viewBox="0 0 512 512"><path d="M117.000 33.776 C 106.855 36.504,97.892 42.097,89.456 50.964 C 78.644 62.327,73.312 74.516,73.116 88.320 C 72.982 97.734,74.245 103.229,78.707 112.640 C 82.025 119.637,82.985 120.738,105.905 143.811 L 129.665 167.728 85.258 212.077 C 60.834 236.470,39.878 258.061,38.689 260.058 C 29.737 275.088,29.986 293.368,39.334 307.481 C 43.378 313.587,178.125 442.619,184.543 446.532 C 199.859 455.869,219.036 455.016,233.040 444.374 C 235.666 442.379,265.922 413.492,300.276 380.181 C 334.630 346.870,363.877 318.895,365.269 318.013 C 367.115 316.844,370.514 316.197,377.820 315.623 C 385.700 315.005,388.788 314.377,392.281 312.682 C 403.020 307.469,407.658 294.732,402.854 283.649 C 401.223 279.887,385.005 263.472,283.139 162.476 C 218.334 98.223,163.440 44.239,161.154 42.511 C 156.004 38.619,149.294 35.399,142.821 33.713 C 136.612 32.096,123.125 32.129,117.000 33.776 M140.160 66.850 C 142.155 68.037,153.291 78.541,164.908 90.191 L 186.028 111.374 169.159 128.227 L 152.290 145.081 130.380 123.100 C 106.796 99.442,104.997 97.038,104.997 89.173 C 104.997 83.810,107.206 78.882,111.883 73.808 C 118.873 66.225,123.987 63.770,131.627 64.331 C 134.847 64.568,137.781 65.434,140.160 66.850 M409.431 321.352 C 405.074 322.693,400.829 326.685,388.635 340.907 C 369.536 363.183,358.931 381.024,354.395 398.507 C 348.257 422.162,355.220 446.403,372.824 462.670 C 390.248 478.772,413.093 483.810,435.892 476.578 C 452.667 471.257,467.808 457.229,474.804 440.526 C 483.988 418.599,480.527 394.806,464.372 368.801 C 456.263 355.749,433.990 328.614,427.387 323.742 C 422.246 319.949,416.484 319.182,409.431 321.352 " stroke="none" fill-rule="evenodd" fill="black"></path></svg>