<svg version="1.1" id="icons" xmlns="http://www.w3.org/2000/svg" xmlns:xlink="http://www.w3.org/1999/xlink" x="0px" y="0px" viewBox="0 0 512 512" style="enable-background:new 0 0 512 512;" xml:space="preserve"><path d="M184.171 34.351 C 180.445 36.628,178.128 39.474,176.777 43.434 C 176.109 45.391,175.793 54.826,175.805 72.447 C 175.822 96.042,175.977 98.889,177.404 101.973 C 183.518 115.177,200.482 115.177,206.596 101.973 C 208.023 98.889,208.178 96.042,208.195 72.447 C 208.214 45.491,207.923 42.738,204.599 38.400 C 200.001 32.401,190.459 30.509,184.171 34.351 M83.154 76.359 C 78.120 78.886,75.301 82.723,74.572 88.042 C 73.553 95.483,74.583 96.973,95.037 117.642 C 107.047 129.779,115.162 137.304,117.333 138.317 C 129.911 144.185,143.341 132.217,139.090 118.928 C 137.719 114.645,102.074 78.306,96.853 75.870 C 92.201 73.699,88.165 73.843,83.154 76.359 M287.147 75.870 C 281.926 78.306,246.281 114.645,244.910 118.928 C 240.659 132.217,254.089 144.185,266.667 138.317 C 268.838 137.304,276.953 129.779,288.963 117.642 C 309.417 96.973,310.447 95.483,309.428 88.042 C 308.699 82.723,305.880 78.886,300.846 76.359 C 295.835 73.843,291.799 73.699,287.147 75.870 M189.675 153.979 C 181.629 155.814,172.773 160.861,166.400 167.245 C 151.055 182.614,148.445 207.739,160.320 225.768 C 162.186 228.601,173.588 240.719,186.237 253.312 C 207.819 274.798,208.966 275.797,212.058 275.797 C 215.173 275.797,216.417 274.673,245.545 245.545 C 274.673 216.417,275.797 215.173,275.797 212.058 C 275.797 208.965,274.808 207.832,253.312 186.295 C 240.945 173.904,228.754 162.381,226.220 160.687 C 216.302 154.056,201.363 151.314,189.675 153.979 M44.679 176.573 C 37.293 178.410,32.230 184.684,32.230 192.000 C 32.230 196.696,34.794 202.007,38.301 204.577 C 42.890 207.939,45.481 208.214,72.447 208.195 C 96.042 208.178,98.889 208.023,101.973 206.596 C 108.275 203.678,111.787 198.455,111.787 192.000 C 111.787 187.715,110.523 184.477,107.679 181.470 C 102.719 176.228,102.715 176.228,73.813 176.060 C 59.264 175.976,46.154 176.207,44.679 176.573 M296.448 240.548 C 294.618 241.905,280.953 255.249,266.083 270.201 C 239.031 297.402,237.253 299.571,238.386 304.000 C 238.656 305.056,274.314 341.303,317.625 384.549 C 394.681 461.489,396.511 463.242,402.773 466.173 C 410.408 469.745,416.117 471.040,424.239 471.040 C 445.444 471.040,464.171 456.236,469.823 435.002 C 472.866 423.569,470.242 408.305,463.463 398.013 C 461.332 394.778,432.243 365.106,382.590 315.520 C 296.564 229.610,303.296 235.470,296.448 240.548 M117.333 245.683 C 112.113 248.119,76.467 284.458,75.097 288.741 C 71.031 301.451,83.426 313.327,95.819 308.595 C 101.030 306.605,137.557 269.865,139.090 265.072 C 143.340 251.782,129.911 239.815,117.333 245.683 " stroke="none" fill-rule="evenodd" fill="black"></path></svg>