<svg xmlns="http://www.w3.org/2000/svg" width="512" height="512" viewBox="0 0 512 512"><path d="M247.893 48.324 C 213.470 50.790,184.250 64.074,159.956 88.303 C 136.788 111.409,122.732 141.501,120.633 172.491 C 120.105 180.294,120.169 180.766,121.890 181.687 C 123.311 182.448,125.136 182.296,130.332 180.985 C 158.170 173.963,187.504 174.868,214.937 183.596 C 224.649 186.686,239.386 193.538,248.298 199.107 C 251.806 201.300,255.272 203.093,256.000 203.093 C 256.728 203.093,260.080 201.378,263.448 199.282 C 290.725 182.307,322.454 174.363,353.917 176.632 C 365.886 177.495,375.550 179.038,383.539 181.360 C 391.088 183.555,392.306 181.902,391.322 170.806 C 386.944 121.478,353.173 76.561,306.347 57.787 C 289.160 50.896,265.487 47.064,247.893 48.324 M155.733 192.598 C 141.818 193.868,123.493 198.647,122.026 201.388 C 120.174 204.848,126.432 227.889,133.027 241.892 C 140.154 257.026,149.544 269.861,162.774 282.554 C 170.707 290.165,188.143 302.933,190.603 302.933 C 193.037 302.933,194.452 300.376,196.271 292.693 C 201.994 268.522,214.277 245.431,232.057 225.420 C 236.778 220.107,240.640 215.406,240.640 214.974 C 240.640 210.754,213.410 198.549,196.232 195.069 C 183.035 192.396,168.003 191.479,155.733 192.598 M329.109 192.840 C 312.513 194.943,296.701 199.707,282.931 206.757 C 274.630 211.006,271.360 213.342,271.360 215.025 C 271.360 215.486,274.552 219.422,278.454 223.771 C 297.724 245.254,309.513 266.918,315.394 291.654 C 317.457 300.333,318.842 302.933,321.397 302.933 C 323.857 302.933,341.293 290.165,349.226 282.554 C 362.456 269.861,371.846 257.026,378.973 241.892 C 385.568 227.889,391.826 204.848,389.974 201.388 C 388.911 199.402,378.671 196.109,367.360 194.116 C 358.215 192.504,337.275 191.806,329.109 192.840 M92.932 214.964 C 47.024 245.456,23.822 300.862,34.654 354.128 C 46.940 414.549,100.797 460.661,162.867 463.903 C 184.298 465.023,210.705 459.086,230.400 448.721 C 238.445 444.487,240.640 442.740,240.640 440.574 C 240.640 439.954,236.951 435.515,232.443 430.710 C 207.489 404.113,194.284 371.795,192.112 332.003 L 191.573 322.145 186.880 319.447 C 173.363 311.676,166.426 307.009,158.502 300.356 C 133.824 279.635,115.937 250.780,108.363 219.468 C 106.486 211.708,105.098 209.067,102.897 209.067 C 102.299 209.067,97.815 211.720,92.932 214.964 M406.787 210.295 C 406.111 210.971,404.694 215.099,403.637 219.468 C 396.063 250.780,378.176 279.635,353.498 300.356 C 345.574 307.009,338.637 311.676,325.120 319.447 L 320.427 322.145 319.888 332.003 C 317.719 371.746,304.480 404.146,279.557 430.710 C 275.049 435.515,271.360 439.954,271.360 440.574 C 271.360 442.740,273.555 444.487,281.600 448.721 C 301.287 459.082,327.703 465.023,349.115 463.904 C 368.428 462.896,385.392 458.413,403.200 449.613 C 417.004 442.791,427.710 435.010,439.467 423.253 C 451.208 411.512,458.989 400.812,465.840 386.987 C 479.725 358.966,483.435 329.785,476.929 299.756 C 470.763 271.300,455.773 245.580,434.195 226.440 C 427.388 220.401,411.073 209.067,409.189 209.067 C 408.543 209.067,407.462 209.619,406.787 210.295 M245.550 234.571 C 228.141 252.710,216.372 275.112,210.853 300.622 C 209.528 306.746,209.280 309.418,209.927 310.627 C 210.937 312.513,220.504 315.644,232.533 318.024 C 238.223 319.150,244.305 319.544,256.000 319.544 C 267.695 319.544,273.777 319.150,279.467 318.024 C 291.171 315.708,301.068 312.505,302.021 310.724 C 303.083 308.739,300.483 295.684,296.856 284.790 C 290.781 266.544,279.919 248.605,266.450 234.571 C 255.862 223.540,256.138 223.540,245.550 234.571 M209.280 331.192 C 207.866 332.645,207.935 337.105,209.536 347.889 C 213.721 376.073,226.463 401.736,246.781 422.898 C 255.968 432.469,256.142 432.461,265.943 422.093 C 282.037 405.067,292.486 386.771,299.000 364.212 C 301.266 356.365,303.787 341.281,303.787 335.568 C 303.787 329.480,302.744 329.307,286.720 332.743 C 267.032 336.965,244.886 336.962,225.280 332.733 C 213.570 330.208,210.523 329.915,209.280 331.192 " stroke="none" fill-rule="evenodd" fill="black"></path></svg>