<svg xmlns="http://www.w3.org/2000/svg" viewBox="0 0 512 512"><path d="M183.743 34.579 C 181.783 35.754,179.287 38.150,178.196 39.904 C 176.248 43.038,176.209 43.560,175.942 69.973 C 175.645 99.405,175.878 101.354,180.292 106.381 C 186.726 113.709,197.274 113.709,203.708 106.381 C 208.122 101.354,208.355 99.405,208.058 69.973 C 207.791 43.515,207.755 43.043,205.792 39.886 C 201.287 32.639,191.078 30.182,183.743 34.579 M84.053 75.441 C 75.905 79.053,72.197 88.125,75.551 96.241 C 77.169 100.154,112.463 135.893,117.086 138.299 C 122.686 141.213,131.829 139.670,135.861 135.129 C 139.984 130.486,141.074 122.418,138.299 117.086 C 135.893 112.463,100.154 77.169,96.241 75.551 C 92.387 73.958,87.499 73.914,84.053 75.441 M287.573 75.539 C 283.795 77.218,247.929 112.806,245.701 117.086 C 242.926 122.418,244.016 130.486,248.139 135.129 C 252.168 139.666,261.306 141.212,266.914 138.306 C 268.655 137.404,278.578 128.092,288.963 117.613 C 309.256 97.138,310.365 95.554,309.537 88.210 C 308.397 78.094,296.835 71.424,287.573 75.539 M193.918 153.753 C 180.047 155.221,166.309 164.606,158.856 177.707 C 150.688 192.065,151.329 212.378,160.374 225.809 C 165.011 232.695,394.164 461.535,399.428 464.537 C 412.845 472.188,430.037 472.923,443.744 466.433 C 452.795 462.147,462.143 452.805,466.422 443.767 C 473.215 429.421,472.059 411.156,463.520 397.928 C 462.060 395.665,408.338 341.366,344.139 277.265 C 235.691 168.981,227.016 160.526,221.813 158.037 C 213.233 153.931,204.665 152.616,193.918 153.753 M44.447 176.381 C 40.661 177.143,35.904 180.849,34.052 184.479 C 30.251 191.930,32.848 201.416,39.886 205.792 C 43.043 207.755,43.515 207.791,69.973 208.058 C 99.405 208.355,101.354 208.122,106.381 203.708 C 113.172 197.746,113.747 187.884,107.679 181.470 C 102.707 176.215,102.768 176.225,73.387 176.090 C 58.603 176.021,45.580 176.152,44.447 176.381 M437.417 417.039 C 442.885 429.593,430.468 442.519,417.549 437.721 C 416.190 437.217,375.967 397.667,324.912 346.635 L 234.677 256.440 245.545 245.548 L 256.413 234.656 346.317 324.475 C 398.833 376.940,436.719 415.435,437.417 417.039 M117.333 245.690 C 112.674 247.874,77.327 283.463,75.551 287.759 C 71.548 297.445,77.898 308.374,88.203 309.536 C 95.555 310.365,97.135 309.259,117.613 288.963 C 128.092 278.578,137.404 268.655,138.306 266.914 C 141.212 261.306,139.666 252.168,135.129 248.139 C 130.511 244.038,123.050 243.012,117.333 245.690 " stroke="none" fill-rule="evenodd" fill="black"></path></svg>