<svg xmlns="http://www.w3.org/2000/svg" width="512" height="512" viewBox="0 0 512 512"><path d="M269.227 48.661 C 197.404 53.149,126.334 90.379,86.242 144.519 C 42.894 203.057,35.972 277.199,67.828 341.760 C 77.701 361.770,87.919 376.176,104.074 392.862 C 140.809 430.805,189.518 454.141,248.747 462.173 C 262.128 463.988,297.253 464.266,309.760 462.656 C 339.049 458.887,363.119 452.450,386.849 442.043 C 405.286 433.957,430.434 417.504,442.270 405.784 C 451.557 396.588,455.690 386.325,455.667 372.514 C 455.644 358.397,451.616 347.558,443.058 338.586 C 435.106 330.249,428.616 327.218,411.346 323.780 C 404.659 322.449,399.370 320.875,397.082 319.533 C 389.853 315.297,386.565 307.846,389.457 302.254 C 390.214 300.789,399.427 291.917,409.930 282.540 C 430.248 264.398,436.322 258.098,443.590 247.624 C 458.786 225.727,465.985 198.765,463.381 173.509 C 459.511 135.965,440.239 106.136,404.480 82.339 C 366.944 57.359,319.416 45.525,269.227 48.661 M304.763 81.083 C 342.284 84.773,374.494 97.593,400.285 119.101 C 410.585 127.690,418.790 138.210,424.197 149.760 C 433.710 170.081,434.209 194.135,425.532 214.204 C 418.661 230.097,413.009 236.908,388.820 258.447 C 367.294 277.615,364.223 280.905,360.440 288.853 C 351.474 307.692,356.907 328.367,374.576 342.643 C 382.507 349.050,389.196 351.879,403.627 354.927 C 410.749 356.431,416.905 358.213,418.133 359.126 C 421.915 361.937,423.496 365.702,423.554 372.033 C 423.620 379.264,422.218 381.517,413.129 388.781 C 386.556 410.021,354.639 423.331,314.913 429.738 C 301.867 431.843,270.059 432.276,255.147 430.553 C 206.194 424.896,164.198 406.247,132.626 376.145 C 116.445 360.718,105.258 345.532,95.979 326.400 C 66.351 265.307,79.104 193.827,128.407 144.640 C 164.987 108.146,214.159 85.583,267.520 80.806 C 275.257 80.113,296.514 80.271,304.763 81.083 M218.155 112.657 C 204.409 115.045,193.205 127.581,192.195 141.702 C 190.870 160.215,205.400 175.787,224.000 175.787 C 251.695 175.787,266.203 142.879,247.469 122.555 C 239.983 114.434,229.094 110.757,218.155 112.657 M321.937 112.651 C 312.105 114.688,303.160 121.760,298.986 130.797 C 296.829 135.466,296.533 137.085,296.533 144.213 C 296.533 151.229,296.842 152.979,298.827 157.215 C 301.758 163.468,308.425 170.135,314.679 173.066 C 318.969 175.077,320.628 175.360,328.107 175.360 C 335.737 175.360,337.158 175.105,341.536 172.956 C 351.611 168.011,358.779 157.666,359.814 146.577 C 361.100 132.803,352.012 118.650,338.977 114.127 C 333.790 112.327,326.533 111.699,321.937 112.651 M138.182 176.612 C 121.846 179.525,109.687 196.275,112.403 212.126 C 114.311 223.268,120.878 232.294,130.527 237.037 C 134.715 239.095,136.225 239.360,143.787 239.360 C 151.244 239.360,152.931 239.074,157.163 237.090 C 168.307 231.865,174.971 221.942,175.607 209.625 C 175.891 204.110,175.600 201.632,174.204 197.676 C 169.010 182.956,153.492 173.882,138.182 176.612 M142.080 280.741 C 128.614 285.256,120.320 296.805,120.320 311.040 C 120.320 339.262,154.332 353.605,174.121 333.728 C 184.587 323.215,186.901 309.298,180.338 296.328 C 173.501 282.814,156.525 275.897,142.080 280.741 M244.604 320.498 C 232.066 323.533,219.071 333.687,213.562 344.753 C 203.923 364.115,207.278 385.707,222.252 400.681 C 231.862 410.291,242.475 414.700,256.000 414.700 C 269.525 414.700,280.138 410.291,289.748 400.681 C 308.471 381.959,308.641 352.281,290.133 333.620 C 278.187 321.576,260.825 316.572,244.604 320.498 " stroke="none" fill-rule="evenodd" fill="black"></path></svg>