<svg xmlns="http://www.w3.org/2000/svg" width="512" height="512" viewBox="0 0 512 512"><path d="M249.173 48.351 C 188.991 51.386,138.168 93.548,123.848 152.320 C 121.034 163.872,120.137 173.018,120.449 187.014 L 120.747 200.374 113.698 203.547 C 78.690 219.307,52.894 246.730,40.275 281.600 C 34.624 297.214,32.319 310.555,32.313 327.680 C 32.302 359.370,41.792 387.151,61.028 411.733 C 92.715 452.229,144.782 471.373,195.408 461.141 C 203.554 459.495,220.697 453.728,227.387 450.383 C 235.354 446.400,242.165 442.166,249.387 436.708 L 256.000 431.710 262.613 436.708 C 274.985 446.058,285.068 451.373,299.973 456.401 C 325.934 465.158,350.596 466.258,376.747 459.823 C 430.309 446.643,471.051 401.357,478.711 346.487 C 480.089 336.620,479.938 316.939,478.414 307.599 C 473.572 277.927,460.915 252.953,440.207 232.207 C 428.035 220.014,414.853 210.998,398.302 203.547 L 391.253 200.374 391.545 187.440 C 391.856 173.658,390.863 163.362,388.160 152.320 C 376.099 103.059,337.480 64.122,288.853 52.197 C 277.102 49.315,261.005 47.755,249.173 48.351 M270.507 81.083 C 312.256 87.529,345.696 117.185,356.220 157.096 C 358.749 166.685,360.446 182.123,359.669 188.460 L 359.109 193.027 350.861 192.441 C 341.876 191.803,326.038 192.989,315.775 195.068 C 297.295 198.811,276.641 208.385,261.333 220.303 L 256.000 224.455 250.667 220.303 C 235.359 208.385,214.705 198.811,196.225 195.068 C 185.962 192.989,170.124 191.803,161.139 192.441 L 152.891 193.027 152.331 188.460 C 151.554 182.123,153.251 166.685,155.780 157.096 C 166.208 117.547,199.551 87.711,240.640 81.161 C 247.243 80.108,263.914 80.065,270.507 81.083 M192.000 226.954 C 204.551 230.063,215.329 234.803,226.235 242.010 C 234.568 247.517,234.464 247.182,229.950 253.975 C 226.504 259.160,219.605 272.487,217.501 278.020 C 216.584 280.433,215.315 280.166,207.360 275.881 C 194.116 268.749,177.847 254.296,170.487 243.125 C 166.820 237.559,160.456 226.047,160.439 224.949 C 160.416 223.527,184.286 225.043,192.000 226.954 M351.573 224.878 C 351.573 226.157,345.972 236.127,341.482 242.841 C 332.544 256.203,314.886 271.421,300.877 277.834 C 298.172 279.073,295.676 279.755,295.330 279.350 C 294.984 278.945,293.248 275.349,291.470 271.360 C 288.389 264.443,281.855 252.981,279.197 249.829 C 277.565 247.894,278.441 246.850,285.765 242.009 C 299.313 233.055,313.481 227.635,330.240 224.995 C 333.564 224.472,351.573 224.372,351.573 224.878 M129.481 233.895 C 130.250 236.835,136.021 248.329,139.929 254.702 C 145.658 264.046,152.765 272.829,161.416 281.261 C 173.892 293.418,185.559 301.399,200.533 308.020 L 208.640 311.604 208.362 325.402 C 208.142 336.324,208.447 341.354,209.824 349.532 C 212.883 367.702,220.334 387.054,230.097 402.187 C 232.160 405.384,233.635 408.344,233.375 408.765 C 232.581 410.051,219.194 418.643,213.760 421.355 C 210.944 422.760,205.123 425.087,200.825 426.526 C 156.639 441.315,107.372 424.421,81.784 385.707 C 71.278 369.812,66.703 356.896,64.757 337.639 C 61.903 309.412,71.223 280.563,89.988 259.532 C 96.018 252.774,103.775 245.862,109.924 241.768 C 114.897 238.456,126.960 232.107,128.277 232.107 C 128.682 232.107,129.224 232.912,129.481 233.895 M390.843 235.323 C 417.459 248.731,437.130 273.176,444.562 302.080 C 450.591 325.528,447.815 352.875,437.267 373.946 C 414.014 420.394,360.066 442.890,311.175 426.526 C 306.877 425.087,301.056 422.760,298.240 421.355 C 292.806 418.643,279.419 410.051,278.625 408.765 C 278.365 408.344,279.840 405.384,281.903 402.187 C 291.666 387.054,299.117 367.702,302.176 349.532 C 303.552 341.358,303.858 336.325,303.638 325.432 L 303.360 311.663 311.467 307.973 C 327.429 300.706,338.123 293.404,350.584 281.261 C 363.008 269.153,372.242 256.324,378.902 241.920 C 380.637 238.165,382.291 234.421,382.575 233.600 C 383.274 231.584,383.526 231.637,390.843 235.323 M260.172 280.107 L 263.685 287.147 259.843 287.716 C 257.729 288.029,254.271 288.029,252.157 287.716 L 248.315 287.147 251.828 280.107 C 253.761 276.235,255.638 273.067,256.000 273.067 C 256.362 273.067,258.239 276.235,260.172 280.107 M271.625 323.413 C 272.730 332.792,269.825 352.353,265.700 363.313 C 262.892 370.773,257.004 382.293,256.000 382.293 C 254.996 382.293,249.108 370.773,246.300 363.313 C 242.175 352.353,239.270 332.792,240.375 323.413 L 240.827 319.573 256.000 319.573 L 271.173 319.573 271.625 323.413 " stroke="none" fill="black" fill-rule="evenodd"></path></svg>