<svg xmlns="http://www.w3.org/2000/svg" width="512" height="512" viewBox="0 0 512 512"><path d="M247.467 48.312 C 212.315 51.260,184.075 64.156,159.956 88.276 C 144.136 104.095,133.523 121.254,126.729 141.993 C 123.966 150.429,120.655 165.312,121.380 166.038 C 121.566 166.224,125.916 165.438,131.046 164.292 C 144.338 161.321,152.973 160.424,168.084 160.443 C 188.027 160.468,203.959 163.009,221.867 169.019 C 230.814 172.021,245.360 178.611,251.830 182.591 L 256.000 185.158 260.132 182.615 C 271.812 175.428,293.631 167.065,309.030 163.872 C 332.731 158.958,359.966 159.241,382.690 164.638 C 386.770 165.607,390.304 166.400,390.542 166.400 C 391.981 166.400,386.504 144.396,382.577 134.400 C 375.661 116.796,366.162 102.459,352.017 88.276 C 331.037 67.239,306.249 54.445,277.760 49.950 C 269.485 48.644,253.689 47.790,247.467 48.312 M152.747 192.946 C 144.840 193.841,132.539 196.507,126.293 198.678 L 121.600 200.309 121.840 204.696 C 122.167 210.695,125.691 223.868,129.733 234.207 C 133.953 245.000,140.134 255.908,147.692 265.903 C 153.839 274.031,168.390 288.579,175.135 293.342 L 179.076 296.123 180.083 291.208 C 181.923 282.233,187.714 265.950,192.843 255.328 C 200.756 238.944,210.011 225.436,221.773 213.105 C 225.250 209.460,227.941 206.341,227.754 206.174 C 226.737 205.268,221.035 202.743,214.830 200.450 C 195.606 193.347,173.163 190.634,152.747 192.946 M328.533 192.944 C 320.438 193.859,311.243 195.855,302.507 198.596 C 294.921 200.975,284.160 205.576,284.160 206.440 C 284.160 206.746,286.112 208.903,288.498 211.232 C 307.191 229.481,323.768 259.200,330.848 287.157 L 333.088 296.006 336.946 293.283 C 343.617 288.576,358.192 273.991,364.308 265.903 C 371.831 255.954,377.659 245.676,382.090 234.543 C 386.235 224.127,389.824 210.855,390.160 204.696 L 390.400 200.309 385.707 198.681 C 369.687 193.124,347.049 190.853,328.533 192.944 M85.760 219.869 C 39.265 255.961,20.778 315.557,38.950 370.773 C 53.711 415.625,92.795 450.794,139.022 460.820 C 161.997 465.802,184.916 464.897,206.933 458.137 C 214.502 455.814,226.737 451.094,227.707 450.124 C 227.904 449.927,225.271 446.777,221.857 443.123 C 202.210 422.096,188.230 396.725,181.372 369.653 C 178.881 359.819,176.685 345.677,176.644 339.200 C 176.601 332.556,176.104 331.791,169.044 327.523 C 150.016 316.019,131.394 298.600,118.375 280.127 C 106.904 263.851,95.851 238.814,92.184 220.800 C 91.635 218.101,91.117 215.894,91.033 215.894 C 90.949 215.894,88.576 217.683,85.760 219.869 M419.393 222.509 C 416.152 237.074,408.054 256.830,399.542 270.933 C 386.063 293.267,364.456 314.872,342.791 327.680 C 335.442 332.024,336.315 329.892,334.576 347.740 C 331.297 381.392,314.795 416.953,290.449 442.833 C 286.990 446.510,284.160 449.723,284.160 449.974 C 284.160 450.620,300.491 456.887,307.627 458.979 C 327.766 464.884,351.193 465.544,372.978 460.820 C 397.196 455.567,420.908 442.722,438.902 425.108 C 485.953 379.051,493.379 306.803,456.683 252.120 C 448.763 240.317,435.403 226.351,424.636 218.619 L 420.861 215.908 419.393 222.509 M246.305 233.848 C 231.911 248.870,221.360 266.119,215.140 284.801 C 212.287 293.371,208.750 309.411,209.362 311.006 C 209.838 312.247,222.386 316.057,232.533 318.041 C 243.256 320.139,268.744 320.139,279.467 318.041 C 289.614 316.057,302.162 312.247,302.638 311.006 C 303.281 309.330,299.661 293.237,296.657 284.416 C 290.136 265.271,280.103 248.884,265.695 233.848 C 260.729 228.666,256.367 224.427,256.000 224.427 C 255.633 224.427,251.271 228.666,246.305 233.848 M209.067 346.106 C 209.067 346.384,209.834 350.377,210.772 354.979 C 214.328 372.428,222.875 392.131,233.234 406.757 C 239.174 415.143,254.047 430.948,256.000 430.948 C 257.953 430.948,272.826 415.143,278.766 406.757 C 289.168 392.071,297.672 372.431,301.266 354.795 C 302.224 350.092,302.844 346.079,302.643 345.879 C 302.442 345.678,299.243 346.288,295.533 347.235 C 271.316 353.418,240.750 353.435,216.637 347.279 C 209.380 345.426,209.067 345.377,209.067 346.106 " stroke="none" fill-rule="evenodd" fill="black"></path></svg>