<svg xmlns="http://www.w3.org/2000/svg" width="512" height="512" viewBox="0 0 512 512"><path d="M241.920 48.669 C 177.359 52.784,118.768 87.102,81.958 142.362 C 55.666 181.831,43.309 234.683,49.503 281.173 C 55.829 328.652,75.879 369.527,109.176 402.824 C 142.702 436.350,182.619 455.851,231.680 462.670 C 235.904 463.257,246.848 463.738,256.000 463.738 C 265.152 463.738,276.096 463.257,280.320 462.670 C 329.321 455.859,369.272 436.331,402.802 402.802 C 436.331 369.272,455.859 329.321,462.670 280.320 C 464.046 270.420,464.046 241.580,462.670 231.680 C 455.892 182.914,436.342 142.776,403.220 109.623 C 391.401 97.792,382.569 90.546,369.558 82.006 C 331.997 57.351,287.606 45.757,241.920 48.669 M358.588 152.666 C 360.883 154.717,361.338 155.711,361.225 158.426 C 361.063 162.287,315.032 277.714,310.337 286.031 C 304.363 296.613,295.232 305.619,285.091 310.930 C 278.768 314.242,160.258 361.813,158.331 361.813 C 153.526 361.813,149.524 356.188,150.893 351.360 C 152.603 345.333,198.288 232.186,201.111 226.987 C 206.932 216.266,215.406 207.637,225.980 201.661 C 232.411 198.027,351.158 150.282,353.907 150.226 C 354.955 150.204,357.062 151.302,358.588 152.666 M247.701 233.518 C 242.118 235.495,235.934 241.567,233.861 247.108 C 226.470 266.862,245.048 285.563,264.742 278.195 C 280.917 272.143,285.032 250.194,272.161 238.621 C 265.288 232.442,256.134 230.532,247.701 233.518 " stroke="none" fill-rule="evenodd" fill="black"></path></svg>