<svg xmlns="http://www.w3.org/2000/svg" width="512" height="512" viewBox="0 0 512 512"><path d="M241.493 48.673 C 201.694 51.236,163.176 65.747,129.707 90.787 C 119.118 98.709,98.459 119.383,90.552 129.971 C 68.706 159.223,55.330 191.336,49.785 227.840 C 47.724 241.414,47.724 270.586,49.785 284.160 C 55.331 320.671,68.725 352.821,90.558 382.029 C 98.598 392.784,119.216 413.402,129.971 421.442 C 159.179 443.275,191.329 456.669,227.840 462.215 C 241.414 464.276,270.586 464.276,284.160 462.215 C 320.686 456.667,352.914 443.237,382.029 421.430 C 392.784 413.374,413.374 392.784,421.430 382.029 C 443.237 352.914,456.667 320.686,462.215 284.160 C 464.276 270.586,464.276 241.414,462.215 227.840 C 455.463 183.387,436.803 144.683,406.921 113.150 C 370.380 74.590,322.088 52.062,268.561 48.607 C 255.365 47.755,255.779 47.754,241.493 48.673 M284.160 82.308 C 319.998 88.383,351.735 104.258,377.739 129.118 C 405.349 155.513,423.300 189.800,429.832 228.618 C 431.923 241.048,431.905 271.514,429.799 283.733 C 419.921 341.032,385.307 387.989,334.011 413.679 C 285.590 437.929,226.410 437.929,177.989 413.679 C 126.525 387.905,91.775 340.650,82.174 283.382 C 80.053 270.734,80.053 241.266,82.174 228.618 C 92.715 165.745,133.739 115.017,192.849 91.764 C 205.896 86.632,221.606 82.941,239.787 80.737 C 246.454 79.928,276.372 80.988,284.160 82.308 M291.687 174.439 C 258.514 187.735,228.946 199.983,225.980 201.657 C 215.020 207.844,206.232 216.916,200.663 227.793 C 198.847 231.339,186.693 260.973,173.653 293.646 C 156.453 336.741,150.086 353.614,150.459 355.103 C 151.159 357.891,154.030 360.821,156.725 361.498 C 158.441 361.928,172.505 356.646,218.354 338.347 C 251.027 325.307,280.677 313.144,284.243 311.318 C 295.345 305.634,305.290 295.860,310.930 285.091 C 314.822 277.661,361.813 160.085,361.813 157.779 C 361.813 155.315,356.502 150.177,354.005 150.226 C 352.902 150.247,324.859 161.143,291.687 174.439 M264.161 233.537 C 269.800 235.458,276.542 242.200,278.463 247.839 C 281.446 256.594,279.650 265.186,273.379 272.161 C 264.127 282.451,247.873 282.451,238.621 272.161 C 229.618 262.147,229.904 248.705,239.320 239.288 C 246.146 232.463,254.995 230.414,264.161 233.537 " stroke="none" fill-rule="evenodd" fill="black"></path></svg>