<svg xmlns="http://www.w3.org/2000/svg" width="512" height="512" viewBox="0 0 512 512"><path d="M197.973 48.364 C 182.813 49.464,166.816 53.848,150.421 61.395 C 117.427 76.583,89.557 97.383,70.326 121.173 C 62.646 130.674,60.744 133.815,59.612 138.875 C 58.255 144.941,55.209 147.619,49.641 147.645 C 47.448 147.656,43.975 148.426,41.923 149.357 C 37.268 151.469,5.936 181.344,2.846 186.616 C 1.489 188.931,0.523 192.151,0.237 195.311 C -0.606 204.597,0.569 206.164,29.746 234.667 C 43.919 248.512,56.936 260.595,58.673 261.519 C 62.556 263.582,71.216 264.247,75.555 262.815 C 79.531 261.503,112.480 230.300,115.710 224.788 C 118.593 219.868,119.238 213.258,117.327 208.213 C 116.526 206.101,115.816 203.413,115.749 202.240 C 115.635 200.257,115.882 200.118,119.249 200.268 C 126.458 200.589,139.960 210.019,160.945 229.392 L 171.277 238.930 171.819 244.265 C 172.182 247.832,173.383 251.678,175.443 255.873 L 178.525 262.146 181.636 259.209 C 183.347 257.593,198.294 243.688,214.853 228.308 C 237.039 207.701,244.732 200.071,244.094 199.303 C 242.372 197.228,234.117 193.305,228.693 191.983 L 223.147 190.632 210.109 172.756 C 193.691 150.247,193.280 149.434,193.280 139.507 C 193.280 132.558,193.547 131.271,196.046 126.191 C 199.549 119.068,205.502 113.436,213.564 109.617 C 226.991 103.256,240.524 101.696,253.090 105.061 C 256.803 106.055,260.867 107.055,262.122 107.282 C 267.300 108.219,275.556 103.114,277.887 97.534 C 279.566 93.516,279.301 88.117,277.212 83.803 C 276.207 81.727,271.695 76.294,267.186 71.730 C 259.568 64.022,258.230 63.062,248.320 58.199 C 236.662 52.478,228.032 49.949,215.754 48.655 C 207.955 47.834,205.764 47.798,197.973 48.364 M380.160 48.659 C 348.438 52.037,319.455 68.164,302.746 91.733 C 285.604 115.916,280.537 150.016,288.885 185.028 C 291.252 194.957,291.439 197.754,289.952 201.018 C 289.382 202.268,249.034 240.348,200.289 285.642 C 151.544 330.936,110.121 369.944,108.238 372.326 C 93.681 390.742,92.095 416.093,104.211 436.665 C 105.796 439.356,109.869 444.330,113.261 447.719 C 118.091 452.544,121.143 454.717,127.341 457.743 C 135.647 461.797,145.132 464.213,152.747 464.213 C 165.992 464.213,181.740 457.756,191.786 448.205 C 195.114 445.041,234.149 403.592,278.531 356.095 C 349.536 280.107,359.587 269.668,362.232 269.172 C 365.552 268.549,366.186 268.629,378.453 271.207 C 418.970 279.723,456.639 270.573,480.587 246.399 C 494.836 232.015,504.561 213.305,509.651 190.476 C 511.192 183.568,511.494 179.557,511.466 166.400 C 511.435 152.112,511.219 149.817,509.188 142.228 C 506.659 132.772,503.417 125.146,500.644 122.130 C 495.972 117.048,487.331 115.544,481.033 118.716 C 478.780 119.851,467.073 130.834,449.653 148.156 C 421.945 175.707,421.855 175.787,418.250 175.787 C 416.262 175.787,413.598 175.242,412.331 174.575 C 411.064 173.909,404.406 167.669,397.537 160.709 C 384.411 147.409,383.234 145.522,384.444 139.733 C 384.897 137.566,391.062 130.896,412.637 109.227 C 431.073 90.710,440.687 80.439,441.565 78.321 C 444.475 71.299,442.031 62.301,436.163 58.433 C 425.289 51.265,398.916 46.662,380.160 48.659 M330.125 347.563 L 297.227 382.720 302.427 388.322 C 305.287 391.403,315.270 402.155,324.611 412.215 C 333.953 422.276,346.895 436.459,353.372 443.733 C 359.849 451.008,366.721 457.979,368.643 459.223 C 370.565 460.468,374.662 462.170,377.748 463.005 C 382.474 464.285,384.214 464.377,388.798 463.592 C 398.710 461.894,400.820 460.338,422.573 438.689 C 444.981 416.389,446.952 413.619,447.784 403.257 C 448.660 392.337,444.605 384.532,432.911 374.634 C 424.014 367.105,400.519 346.183,380.181 327.680 C 372.184 320.405,365.053 313.993,364.333 313.430 C 363.225 312.565,357.940 317.839,330.125 347.563 " stroke="none" fill-rule="evenodd" fill="black"></path></svg>