<svg xmlns="http://www.w3.org/2000/svg" width="512" height="512" viewBox="0 0 512 512"><path d="M194.560 48.699 C 180.573 49.998,169.007 53.240,153.461 60.217 C 126.958 72.111,103.371 88.448,84.785 107.780 C 67.151 126.124,62.293 134.210,62.293 145.222 C 62.293 147.952,62.148 150.187,61.971 150.187 C 61.794 150.187,60.270 149.611,58.585 148.907 C 54.334 147.130,48.145 147.301,44.003 149.308 C 41.852 150.349,32.829 158.718,20.267 171.322 C 1.693 189.956,-0.001 191.901,-0.013 194.601 C -0.025 197.354,2.165 199.706,33.481 230.581 C 64.390 261.055,67.215 263.618,69.933 263.648 C 72.655 263.678,74.470 262.098,93.676 242.987 C 105.114 231.605,115.442 220.658,116.628 218.659 C 120.261 212.536,119.539 208.647,113.391 201.234 C 111.570 199.037,110.080 197.051,110.080 196.820 C 110.080 195.727,116.582 194.426,119.619 194.912 C 128.032 196.257,135.141 201.929,168.383 233.810 L 175.059 240.213 173.721 242.773 C 170.951 248.075,172.085 251.973,178.410 258.894 L 182.903 263.809 215.599 231.121 L 248.295 198.433 244.254 194.296 C 242.032 192.021,239.176 189.614,237.909 188.946 C 234.795 187.307,229.527 187.416,227.021 189.171 C 224.999 190.587,224.914 190.547,221.193 186.397 C 207.410 171.027,199.391 160.272,195.572 152.037 C 193.715 148.032,193.325 145.950,193.305 139.931 C 193.282 133.364,193.561 132.089,196.195 126.705 C 200.200 118.521,207.766 111.124,215.163 108.163 C 230.496 102.024,249.822 101.762,263.233 107.511 L 267.015 109.132 272.447 100.433 C 275.435 95.648,278.138 91.294,278.455 90.756 C 279.255 89.397,273.299 80.741,266.544 73.445 C 253.482 59.336,235.797 50.886,214.613 48.633 C 206.100 47.728,204.970 47.731,194.560 48.699 M370.731 48.642 C 327.180 52.363,293.433 76.685,278.638 115.014 C 267.788 143.123,267.307 175.338,277.292 205.245 L 279.714 212.500 188.585 303.007 C 90.822 400.102,95.010 395.568,96.507 402.687 C 97.390 406.887,152.486 462.083,157.227 463.516 C 164.321 465.661,159.568 470.016,257.964 371.222 L 348.872 279.947 354.951 282.015 C 386.499 292.745,423.444 290.966,452.047 277.341 C 491.886 258.363,513.488 220.375,511.736 172.373 C 511.195 157.543,509.715 147.943,505.964 134.924 C 503.141 125.127,498.181 112.530,497.126 112.479 C 496.754 112.461,478.315 130.316,456.151 152.155 L 415.853 191.864 391.821 167.821 L 367.789 143.778 407.894 103.679 C 429.952 81.625,448.000 63.343,448.000 63.054 C 448.000 62.124,430.604 55.565,422.321 53.373 C 406.348 49.146,386.324 47.309,370.731 48.642 M329.568 344.675 C 310.226 364.348,294.400 380.689,294.400 380.988 C 294.400 381.646,368.260 459.772,370.814 461.814 C 373.449 463.921,376.700 464.502,379.918 463.440 C 381.904 462.784,392.372 452.862,414.889 430.292 C 449.958 395.140,449.729 395.437,447.035 388.672 C 446.232 386.655,433.334 373.730,405.773 347.322 C 383.721 326.194,365.467 308.907,365.208 308.907 C 364.948 308.907,348.911 325.003,329.568 344.675 " stroke="none" fill-rule="evenodd" fill="black"></path></svg>