<svg xmlns="http://www.w3.org/2000/svg" width="512" height="512" viewBox="0 0 512 512"><path d="M196.267 48.668 C 178.493 50.121,165.766 54.041,143.787 64.833 C 112.527 80.181,90.190 97.453,69.818 122.027 C 61.456 132.113,59.454 136.100,59.024 143.517 C 58.696 149.174,58.677 149.214,56.598 148.423 C 53.079 147.086,45.916 147.545,41.901 149.366 C 37.256 151.474,5.985 181.260,2.912 186.504 C 0.265 191.020,-0.564 197.507,0.821 202.860 C 1.793 206.619,3.891 208.929,28.031 232.828 C 42.416 247.070,55.720 259.709,57.594 260.916 C 62.506 264.078,71.765 264.632,76.947 262.072 C 79.188 260.966,87.566 253.459,98.259 242.978 C 114.328 227.227,116.008 225.304,117.346 221.131 C 119.183 215.404,118.690 210.392,115.727 204.681 C 114.498 202.313,113.493 200.219,113.493 200.028 C 113.493 199.356,119.074 199.699,122.184 200.563 C 129.045 202.468,144.632 214.191,162.408 230.814 C 170.071 237.979,171.522 239.744,171.530 241.907 C 171.543 245.198,173.386 252.127,175.402 256.463 C 176.277 258.346,182.360 265.327,189.149 272.241 L 201.326 284.641 158.158 324.721 C 134.416 346.764,112.988 366.963,110.540 369.606 C 93.972 387.498,91.370 415.048,104.211 436.611 C 108.078 443.104,117.068 451.966,123.793 455.915 C 132.977 461.307,141.430 463.639,151.893 463.666 C 166.190 463.703,178.757 459.349,188.819 450.870 C 191.527 448.588,211.879 427.276,234.045 403.512 C 256.211 379.748,274.731 360.344,275.200 360.393 C 276.637 360.542,323.063 409.849,346.448 436.063 C 367.993 460.214,369.848 461.696,380.782 463.508 C 387.726 464.659,395.383 462.868,401.543 458.652 C 403.917 457.027,414.190 447.288,424.374 437.009 C 446.304 414.874,447.574 412.904,447.572 401.046 C 447.571 394.583,447.265 393.151,444.829 388.203 C 442.366 383.201,440.630 381.373,427.764 370.243 C 410.677 355.462,392.286 338.919,362.091 311.170 L 339.755 290.643 345.566 284.202 C 348.761 280.659,353.557 275.700,356.221 273.181 L 361.067 268.603 365.920 269.050 C 368.589 269.297,374.421 270.295,378.880 271.269 C 396.206 275.054,416.202 275.244,432.958 271.782 C 465.194 265.123,491.148 242.798,503.389 211.200 C 511.103 191.285,513.773 169.265,510.740 150.564 C 508.552 137.074,504.234 125.456,499.913 121.427 C 495.252 117.083,487.465 115.725,481.501 118.218 C 479.436 119.080,468.699 129.151,450.115 147.658 C 421.930 175.724,421.859 175.787,418.251 175.787 C 416.262 175.787,413.598 175.242,412.331 174.575 C 411.064 173.909,404.396 167.669,397.513 160.709 C 384.319 147.364,382.959 145.147,384.389 139.312 C 384.767 137.770,394.462 127.414,412.555 109.227 C 427.730 93.973,440.760 80.264,441.513 78.762 C 444.545 72.706,442.156 62.618,436.783 58.792 C 428.501 52.895,409.370 48.455,392.107 48.424 C 368.294 48.381,348.036 54.110,330.000 65.985 C 306.435 81.501,292.893 101.297,286.993 128.853 C 285.773 134.550,285.449 139.768,285.483 153.173 C 285.523 168.719,285.745 171.228,287.974 181.333 C 289.319 187.435,290.588 194.295,290.793 196.578 L 291.165 200.730 280.196 211.303 C 274.163 217.117,268.775 221.777,268.222 221.657 C 267.669 221.538,261.291 215.844,254.049 209.004 C 240.324 196.042,236.508 193.507,228.050 191.733 C 223.785 190.839,222.813 190.118,214.616 181.785 C 203.488 170.470,195.516 160.882,192.928 155.700 C 191.146 152.131,190.981 150.945,191.471 145.172 C 192.986 127.308,199.478 116.610,212.769 110.079 C 226.593 103.286,240.159 101.598,253.090 105.061 C 263.170 107.761,264.277 107.850,268.355 106.292 C 278.434 102.443,282.116 90.669,276.001 81.844 C 272.356 76.585,264.027 67.813,259.599 64.570 C 243.448 52.741,219.623 46.759,196.267 48.668 M198.827 80.528 C 198.827 80.700,196.251 82.332,193.102 84.154 C 181.947 90.609,171.431 102.492,166.005 114.773 C 159.427 129.662,157.419 150.680,161.400 162.983 C 164.485 172.516,172.123 183.499,185.634 197.827 L 193.140 205.787 190.650 207.823 C 189.280 208.943,187.828 209.872,187.422 209.889 C 187.016 209.906,183.368 206.778,179.315 202.937 C 160.568 185.170,142.092 172.802,129.165 169.366 C 116.135 165.902,99.966 168.747,89.923 176.271 C 86.392 178.916,81.487 186.415,80.227 191.097 C 78.739 196.621,79.044 204.805,80.922 209.747 L 82.550 214.029 75.387 220.585 L 68.224 227.140 57.365 216.890 C 51.393 211.253,44.279 204.371,41.556 201.598 L 36.606 196.556 43.984 189.857 L 51.363 183.158 60.028 183.045 C 70.588 182.906,76.408 180.921,82.616 175.339 C 88.662 169.904,90.736 164.671,90.817 154.655 L 90.880 146.751 94.855 141.855 C 100.923 134.381,111.888 123.498,119.217 117.674 C 136.906 103.618,161.276 90.125,179.918 84.066 C 185.837 82.142,198.827 79.711,198.827 80.528 M377.811 98.813 C 361.107 115.628,359.045 118.023,356.325 123.773 C 350.543 135.994,350.563 148.976,356.382 161.233 C 359.151 167.067,361.036 169.265,376.201 184.352 C 394.746 202.801,397.515 204.692,409.671 207.205 C 418.146 208.958,427.207 207.827,435.763 203.947 C 440.983 201.580,443.595 199.312,460.483 182.485 C 470.869 172.136,479.546 163.996,479.766 164.395 C 480.425 165.594,478.843 181.391,477.470 187.310 C 473.340 205.119,462.839 221.658,450.095 230.427 C 432.633 242.440,407.299 245.408,379.307 238.719 C 365.190 235.346,353.027 236.716,343.040 242.803 C 336.795 246.610,336.195 247.234,246.656 343.040 C 187.388 406.455,167.869 426.830,164.571 428.721 C 158.255 432.341,149.600 432.818,143.242 429.896 C 136.903 426.982,133.579 423.935,131.009 418.682 C 126.975 410.437,127.279 401.465,131.838 394.243 C 132.980 392.434,163.976 363.026,200.717 328.891 C 305.694 231.363,311.956 225.491,314.388 222.304 C 318.208 217.294,321.608 209.008,322.684 202.082 C 323.745 195.247,323.589 193.940,319.548 175.787 C 317.556 166.838,316.572 152.259,317.388 143.787 C 318.375 133.545,320.287 126.421,324.259 118.187 C 334.976 95.969,361.420 80.609,389.504 80.290 L 396.288 80.213 377.811 98.813 M233.387 233.486 L 244.480 244.166 234.667 253.483 L 224.853 262.801 214.400 252.373 C 208.651 246.638,203.947 241.562,203.947 241.094 C 203.947 240.213,221.067 222.686,221.851 222.763 C 222.094 222.787,227.285 227.613,233.387 233.486 M342.613 336.749 C 367.967 360.033,394.854 384.233,406.443 394.199 L 414.805 401.390 400.043 416.190 L 385.280 430.989 381.867 427.303 C 379.989 425.275,370.965 415.375,361.813 405.303 C 345.640 387.504,327.569 368.141,307.006 346.582 L 296.955 336.043 307.333 325.013 C 317.641 314.057,317.723 313.994,319.495 315.570 C 320.477 316.443,330.880 325.973,342.613 336.749 " stroke="none" fill-rule="evenodd" fill="black"></path></svg>