<svg xmlns="http://www.w3.org/2000/svg" width="512" height="512" viewBox="0 0 512 512"><path d="M231.253 33.392 C 214.898 35.057,192.680 40.401,176.511 46.559 C 156.296 54.258,131.841 68.384,114.508 82.373 C 92.069 100.483,71.148 126.126,57.570 152.164 C 42.512 181.038,34.416 210.416,32.447 243.324 C 27.225 330.584,74.485 413.921,152.164 454.430 C 231.416 495.759,326.910 486.355,396.524 430.364 C 473.098 368.774,500.486 263.737,463.793 172.373 C 435.769 102.595,373.381 50.947,299.520 36.379 C 293.653 35.221,284.659 33.859,279.532 33.351 C 268.795 32.286,241.887 32.309,231.253 33.392 M284.160 66.219 C 331.378 73.017,375.549 98.349,405.613 135.872 C 422.965 157.530,435.915 183.658,442.314 209.920 C 446.279 226.194,447.503 237.063,447.503 256.000 C 447.503 287.858,442.031 311.912,428.384 340.053 C 399.770 399.055,343.207 439.048,277.505 446.733 C 271.550 447.430,264.275 448.000,261.339 448.000 L 256.000 448.000 256.000 255.879 L 256.000 63.757 265.600 64.343 C 270.880 64.666,279.232 65.510,284.160 66.219 " stroke="none" fill-rule="evenodd" fill="black"></path></svg>