<svg xmlns="http://www.w3.org/2000/svg" width="512" height="512" viewBox="0 0 512 512"><path d="M75.406 64.589 C 72.672 65.125,66.496 70.770,65.169 73.947 C 63.636 77.617,63.688 82.072,65.310 86.001 C 66.221 88.207,82.267 104.831,118.000 140.587 L 169.381 192.000 131.040 192.000 C 93.713 192.000,92.600 192.048,88.960 193.810 C 82.125 197.119,78.530 206.075,81.015 213.604 C 82.524 218.175,87.690 222.380,93.205 223.524 C 96.435 224.195,115.053 224.412,154.942 224.242 C 206.789 224.022,212.297 223.866,214.700 222.550 C 218.114 220.680,222.514 215.657,223.348 212.678 C 223.706 211.396,224.000 183.851,224.000 151.467 C 224.000 94.275,223.951 92.490,222.293 89.228 C 221.355 87.381,219.111 84.693,217.307 83.255 C 214.381 80.921,213.411 80.640,208.285 80.640 C 201.121 80.640,196.572 83.255,193.810 88.960 C 192.048 92.600,192.000 93.713,192.000 131.040 L 192.000 169.381 140.587 118.000 C 104.831 82.267,88.207 66.221,86.001 65.310 C 82.973 64.060,79.361 63.814,75.406 64.589 M425.813 65.293 C 423.971 66.113,403.133 86.304,371.413 118.002 L 320.000 169.381 320.000 131.040 C 320.000 93.713,319.952 92.600,318.190 88.960 C 315.428 83.255,310.879 80.640,303.715 80.640 C 298.563 80.640,297.634 80.913,294.693 83.290 C 292.889 84.748,290.645 87.244,289.707 88.837 C 288.044 91.658,288.000 93.268,288.000 151.040 C 288.000 183.659,288.294 211.396,288.652 212.678 C 289.486 215.657,293.886 220.680,297.300 222.550 C 299.703 223.866,305.211 224.022,357.058 224.242 C 396.947 224.412,415.565 224.195,418.795 223.524 C 424.310 222.380,429.476 218.175,430.985 213.604 C 433.470 206.075,429.875 197.119,423.040 193.810 C 419.400 192.048,418.287 192.000,380.967 192.000 L 342.632 192.000 394.369 140.160 C 450.062 84.356,448.678 85.970,447.767 77.881 C 447.287 73.621,445.539 70.851,441.029 67.201 C 437.237 64.131,430.357 63.269,425.813 65.293 M89.157 289.616 C 85.535 291.194,81.256 296.364,80.577 299.982 C 79.136 307.663,82.555 315.090,88.960 318.190 C 92.600 319.952,93.713 320.000,131.040 320.000 L 169.381 320.000 118.000 371.413 C 82.267 407.169,66.221 423.793,65.310 425.999 C 62.778 432.131,63.877 437.850,68.532 442.768 C 73.398 447.909,79.648 449.313,86.001 446.690 C 88.207 445.779,104.831 429.733,140.587 394.000 L 192.000 342.619 192.000 380.960 C 192.000 418.287,192.048 419.400,193.810 423.040 C 197.119 429.875,206.075 433.470,213.604 430.985 C 218.175 429.476,222.380 424.310,223.524 418.795 C 225.031 411.538,224.394 300.664,222.829 297.813 C 221.136 294.728,217.528 291.020,214.869 289.630 C 211.577 287.911,93.102 287.897,89.157 289.616 M296.497 290.016 C 293.158 292.052,289.457 296.460,288.640 299.372 C 288.288 300.627,288.000 328.341,288.000 360.960 C 288.000 427.005,287.620 422.680,293.911 428.205 C 301.273 434.668,313.857 431.991,318.190 423.040 C 319.952 419.400,320.000 418.287,320.000 380.960 L 320.000 342.619 371.413 394.000 C 407.169 429.733,423.793 445.779,425.999 446.690 C 432.352 449.313,438.602 447.909,443.468 442.768 C 448.123 437.850,449.222 432.131,446.690 425.999 C 445.779 423.793,429.733 407.169,394.000 371.413 L 342.619 320.000 380.960 320.000 C 418.287 320.000,419.400 319.952,423.040 318.190 C 432.042 313.832,434.667 301.272,428.131 293.828 C 423.193 288.204,426.026 288.426,359.494 288.430 C 302.167 288.433,298.961 288.514,296.497 290.016 " stroke="none" fill="black" fill-rule="evenodd"></path></svg>