<svg xmlns="http://www.w3.org/2000/svg" width="512" height="512" viewBox="0 0 512 512"><path d="M234.667 33.006 C 143.156 42.386,67.958 104.323,41.337 192.243 C 30.654 227.527,29.179 267.534,37.224 303.787 C 46.585 345.964,67.459 384.089,97.726 414.293 C 143.903 460.374,203.951 483.483,269.227 480.296 C 358.912 475.917,438.871 415.580,468.373 330.019 C 485.428 280.559,484.716 227.715,466.322 177.772 C 458.966 157.799,444.847 133.218,430.381 115.200 C 422.821 105.784,406.832 89.924,396.700 81.791 C 363.271 54.958,324.815 38.757,282.453 33.661 C 273.608 32.596,242.782 32.174,234.667 33.006 M256.000 256.128 L 256.000 448.256 245.954 447.688 C 176.417 443.758,114.504 402.917,84.082 340.907 C 74.653 321.688,69.251 304.475,66.003 283.307 C 63.927 269.778,63.927 242.222,66.003 228.693 C 72.515 186.250,91.209 149.398,121.294 119.701 C 131.842 109.289,139.012 103.448,151.040 95.468 C 179.732 76.434,215.701 65.126,250.667 64.149 L 256.000 64.000 256.000 256.128 " stroke="none" fill-rule="evenodd" fill="black"></path></svg>