<svg xmlns="http://www.w3.org/2000/svg" width="512" height="512" viewBox="0 0 512 512"><path d="M235.947 32.932 C 234.539 33.125,228.779 33.895,223.147 34.643 C 177.430 40.713,131.587 63.851,97.301 98.160 C 62.153 133.331,40.492 177.645,33.687 228.300 C 32.038 240.579,31.799 267.116,33.223 279.893 C 44.003 376.609,114.884 454.925,210.001 475.216 C 238.476 481.290,273.524 481.290,301.999 475.216 C 362.644 462.279,414.824 425.364,447.359 372.382 C 479.872 319.435,488.455 253.962,470.894 192.853 C 449.342 117.853,386.601 57.600,310.613 38.927 C 291.077 34.127,282.762 33.139,259.413 32.845 C 247.915 32.700,237.355 32.740,235.947 32.932 M256.000 256.000 L 256.000 436.053 250.667 436.027 C 243.158 435.989,227.240 433.964,217.173 431.765 C 171.669 421.826,131.398 393.963,105.579 354.554 C 91.435 332.965,82.298 308.975,77.957 282.027 C 75.148 264.593,75.953 238.348,79.881 219.307 C 87.749 181.161,109.857 143.743,138.887 119.435 C 171.356 92.247,210.601 77.135,251.520 76.064 L 256.000 75.947 256.000 256.000 " stroke="none" fill-rule="evenodd" fill="black"></path></svg>