<svg xmlns="http://www.w3.org/2000/svg" width="512" height="512" viewBox="0 0 512 512"><path d="M68.476 68.476 L 57.172 79.780 113.277 135.890 L 169.382 192.000 124.798 192.000 L 80.213 192.000 80.213 208.218 L 80.213 224.436 152.107 224.218 L 224.000 224.000 224.218 152.107 L 224.436 80.213 208.218 80.213 L 192.000 80.213 192.000 124.798 L 192.000 169.382 135.890 113.277 L 79.780 57.172 68.476 68.476 M376.101 113.284 L 320.000 169.385 320.000 124.799 L 320.000 80.213 303.782 80.213 L 287.564 80.213 287.782 152.107 L 288.000 224.000 359.893 224.218 L 431.787 224.436 431.787 208.218 L 431.787 192.000 387.202 192.000 L 342.618 192.000 398.727 135.886 L 454.836 79.772 443.519 68.478 L 432.201 57.184 376.101 113.284 M80.213 304.213 L 80.213 320.000 124.798 320.000 L 169.382 320.000 113.277 376.110 L 57.172 432.220 68.476 443.524 L 79.780 454.828 135.890 398.723 L 192.000 342.618 192.000 387.202 L 192.000 431.787 208.213 431.787 L 224.427 431.787 224.427 360.107 L 224.427 288.427 152.320 288.427 L 80.213 288.427 80.213 304.213 M287.573 360.107 L 287.573 431.787 303.787 431.787 L 320.000 431.787 320.000 387.202 L 320.000 342.618 376.110 398.723 L 432.220 454.828 443.524 443.524 L 454.828 432.220 398.723 376.110 L 342.618 320.000 387.202 320.000 L 431.787 320.000 431.787 304.213 L 431.787 288.427 359.680 288.427 L 287.573 288.427 287.573 360.107 " stroke="none" fill="black" fill-rule="evenodd"></path></svg>