<svg xmlns="http://www.w3.org/2000/svg" width="512" height="512" viewBox="0 0 512 512"><path d="M86.613 34.213 C 63.061 39.952,43.429 58.290,35.541 81.920 C 31.564 93.835,31.458 97.755,31.758 221.867 L 32.040 338.347 33.979 345.173 C 36.235 353.114,40.549 362.646,44.502 368.422 C 52.360 379.905,65.383 390.285,77.867 395.015 L 80.213 395.904 80.225 273.686 C 80.235 157.854,80.319 151.064,81.824 143.772 C 88.226 112.752,112.752 88.226,143.772 81.824 C 151.064 80.319,157.854 80.235,273.686 80.225 L 395.904 80.213 395.015 77.867 C 388.395 60.395,373.344 45.052,355.601 37.687 C 342.356 32.190,348.592 32.420,214.863 32.488 C 97.514 32.548,93.211 32.606,86.613 34.213 M177.920 112.342 C 168.821 113.500,163.422 114.795,157.263 117.296 C 138.903 124.753,123.909 139.843,116.964 157.853 C 111.573 171.830,111.722 167.597,111.987 299.587 L 112.228 419.413 114.101 425.831 C 121.822 452.282,140.302 470.587,166.827 478.055 L 173.653 479.977 290.133 480.248 C 372.137 480.438,409.094 480.235,414.996 479.563 C 449.905 475.586,475.581 449.910,479.564 414.996 C 480.239 409.085,480.440 372.267,480.246 290.133 L 479.971 173.653 478.052 166.827 C 471.806 144.609,457.964 128.126,437.626 118.686 C 422.838 111.822,433.106 112.308,299.520 112.154 C 234.048 112.079,179.328 112.163,177.920 112.342 " stroke="none" fill-rule="evenodd" fill="black"></path></svg>