<svg xmlns="http://www.w3.org/2000/svg" width="512" height="512" viewBox="0 0 512 512"><path d="M100.267 32.952 C 99.328 33.142,96.448 33.711,93.867 34.218 C 86.967 35.572,75.617 40.577,67.840 45.693 C 54.902 54.205,42.955 68.878,37.650 82.772 C 31.691 98.376,32.000 90.842,32.000 220.587 C 32.000 349.778,31.627 340.445,37.385 355.274 C 43.274 370.441,57.324 385.353,72.936 393.008 C 81.217 397.068,90.876 399.373,102.063 399.958 L 111.540 400.455 112.088 409.507 C 113.428 431.644,121.992 448.990,138.546 463.097 C 144.845 468.464,156.127 474.511,164.372 476.939 C 175.898 480.331,183.524 480.512,302.507 480.216 L 416.853 479.932 423.951 478.045 C 438.138 474.274,449.934 467.394,459.569 457.271 C 468.824 447.546,474.488 437.333,478.045 423.951 L 479.932 416.853 480.216 302.507 C 480.512 183.524,480.331 175.898,476.939 164.372 C 471.354 145.401,457.824 129.305,439.893 120.301 C 429.678 115.171,421.660 113.036,409.509 112.213 L 400.458 111.599 399.960 102.093 C 398.935 82.524,393.105 68.558,380.200 54.763 C 371.788 45.770,361.284 39.161,348.587 34.871 L 342.613 32.853 222.293 32.730 C 156.117 32.663,101.205 32.762,100.267 32.952 M336.385 64.960 C 342.769 66.316,349.710 70.026,355.076 74.952 C 363.716 82.882,367.787 92.538,367.787 105.102 L 367.787 111.712 271.147 112.009 C 165.195 112.336,171.526 112.033,157.867 117.427 C 136.677 125.795,120.821 143.731,114.196 166.827 L 112.237 173.653 111.988 270.720 L 111.738 367.787 104.585 367.787 C 96.201 367.787,89.043 365.837,82.859 361.868 C 74.100 356.248,67.045 346.203,64.960 336.385 C 63.639 330.165,63.600 110.042,64.918 102.770 C 68.069 85.387,84.900 68.231,101.973 64.999 C 108.426 63.777,330.641 63.741,336.385 64.960 M417.677 145.521 C 431.982 149.247,444.041 161.949,447.060 176.469 C 448.305 182.458,448.388 408.127,447.148 414.817 C 444.305 430.149,430.957 443.849,415.745 447.049 C 412.548 447.721,377.281 448.000,295.406 448.000 C 185.786 448.000,179.288 447.916,173.957 446.438 C 170.859 445.579,166.627 443.882,164.554 442.667 C 159.487 439.697,151.789 431.811,149.055 426.789 C 143.999 417.498,144.213 423.293,144.213 296.107 C 144.213 194.149,144.377 178.930,145.521 174.537 C 149.152 160.597,160.339 149.283,174.169 145.564 C 181.303 143.645,410.321 143.605,417.677 145.521 " stroke="none" fill-rule="evenodd" fill="black"></path></svg>