<svg xmlns="http://www.w3.org/2000/svg" width="512" height="512" viewBox="0 0 512 512"><path d="M52.053 33.225 C 44.329 35.583,38.064 41.202,34.391 49.067 L 32.000 54.187 32.000 217.600 L 32.000 381.013 34.017 385.474 C 35.126 387.927,37.692 391.463,39.719 393.332 C 45.948 399.073,48.007 399.617,65.057 400.020 L 80.194 400.379 80.417 252.029 L 80.640 103.680 82.934 98.785 C 85.865 92.532,92.532 85.865,98.785 82.934 L 103.680 80.640 252.029 80.417 L 400.379 80.194 400.020 65.057 C 399.620 48.149,399.084 46.058,393.581 39.954 C 391.831 38.013,388.480 35.530,386.133 34.434 L 381.867 32.443 218.027 32.508 C 127.915 32.544,53.227 32.866,52.053 33.225 M123.958 112.611 C 120.318 113.484,115.565 117.177,113.706 120.577 C 112.299 123.150,112.213 133.021,112.213 292.693 C 112.213 453.732,112.289 462.241,113.742 465.338 C 116.074 470.307,121.569 475.742,126.526 477.983 L 130.987 480.000 296.107 480.000 L 461.227 480.000 466.075 477.619 C 471.568 474.922,475.576 470.787,478.203 465.110 L 480.000 461.227 480.000 296.533 C 480.000 137.037,479.949 131.708,478.386 127.656 C 476.308 122.267,471.846 117.368,466.401 114.494 L 462.080 112.213 294.400 112.081 C 202.176 112.008,125.477 112.247,123.958 112.611 " stroke="none" fill-rule="evenodd" fill="black"></path></svg>