<svg xmlns="http://www.w3.org/2000/svg" width="512" height="512" viewBox="0 0 512 512"><path d="M445.867 48.187 C 445.397 48.354,443.924 48.732,442.592 49.027 C 439.684 49.671,424.347 64.172,422.842 67.699 C 421.060 71.878,422.255 74.270,429.993 82.007 C 440.676 92.690,441.877 92.631,453.755 80.837 C 459.878 74.757,461.947 72.088,463.001 68.916 C 465.364 61.803,462.980 54.894,456.780 50.884 C 453.782 48.945,447.852 47.480,445.867 48.187 M309.302 180.089 L 217.092 272.284 212.460 286.354 C 207.671 300.900,207.511 302.934,211.094 303.639 C 211.873 303.792,218.552 301.927,225.936 299.494 L 239.360 295.070 330.964 203.642 C 387.027 147.686,423.049 111.109,423.806 109.367 C 425.704 105.004,424.185 101.895,416.499 94.416 C 410.013 88.104,409.662 87.893,405.654 87.893 L 401.512 87.893 309.302 180.089 M96.560 112.705 C 77.501 115.177,60.982 127.546,52.883 145.409 C 47.521 157.234,47.713 151.561,47.975 290.987 L 48.213 417.707 50.535 424.551 C 56.593 442.407,69.556 455.362,87.467 461.462 L 94.293 463.787 224.000 463.787 L 353.707 463.787 360.533 461.462 C 378.444 455.362,391.407 442.407,397.465 424.551 L 399.787 417.707 400.019 307.834 C 400.274 187.133,400.574 194.270,395.150 192.024 C 393.700 191.423,391.530 191.205,390.203 191.527 C 388.592 191.918,367.478 212.418,323.840 255.962 C 288.640 291.085,258.189 320.839,256.171 322.082 C 250.978 325.280,220.790 335.339,214.612 335.930 C 204.547 336.894,193.486 332.501,185.971 324.555 C 178.448 316.600,174.940 305.368,176.654 294.726 C 177.639 288.608,185.872 263.940,189.079 257.499 C 190.864 253.911,204.178 240.113,255.568 188.587 C 290.910 153.152,320.084 123.290,320.401 122.227 C 320.718 121.163,320.547 118.990,320.021 117.398 C 318.049 111.421,325.261 111.774,207.658 111.895 C 149.531 111.954,99.537 112.319,96.560 112.705 " stroke="none" fill-rule="evenodd" fill="black"></path></svg>