<svg xmlns="http://www.w3.org/2000/svg" width="512" height="512" viewBox="0 0 512 512"><path d="M443.163 42.591 C 438.156 43.859,433.114 47.621,423.689 57.120 L 414.311 66.572 429.870 82.131 L 445.430 97.690 455.697 87.459 C 461.344 81.831,466.719 75.672,467.641 73.772 C 474.400 59.853,465.493 43.856,450.133 42.331 C 447.787 42.098,444.650 42.215,443.163 42.591 M304.848 176.005 L 208.213 272.643 208.213 288.215 L 208.213 303.787 223.788 303.787 L 239.363 303.787 336.005 207.142 L 432.647 110.497 417.065 94.932 L 401.484 79.367 304.848 176.005 M47.787 288.000 L 47.787 464.213 224.000 464.213 L 400.213 464.213 400.213 326.189 L 400.213 188.164 326.185 262.189 L 252.156 336.213 213.972 336.213 L 175.787 336.213 175.787 298.028 L 175.787 259.844 249.811 185.815 L 323.836 111.787 185.811 111.787 L 47.787 111.787 47.787 288.000 " stroke="none" fill-rule="evenodd" fill="black"></path></svg>