<svg xmlns="http://www.w3.org/2000/svg" width="512" height="512" viewBox="0 0 512 512"><path d="M445.867 48.187 C 445.397 48.354,443.924 48.732,442.592 49.027 C 439.684 49.671,424.347 64.172,422.842 67.699 C 421.060 71.878,422.255 74.270,429.993 82.007 C 440.676 92.690,441.877 92.631,453.755 80.837 C 459.878 74.757,461.947 72.088,463.001 68.916 C 465.364 61.803,462.980 54.894,456.780 50.884 C 453.782 48.945,447.852 47.480,445.867 48.187 M309.302 180.089 L 217.092 272.284 212.460 286.354 C 207.671 300.900,207.511 302.934,211.094 303.639 C 211.873 303.792,218.552 301.927,225.936 299.494 L 239.360 295.070 330.964 203.642 C 387.027 147.686,423.049 111.109,423.806 109.367 C 425.704 105.004,424.185 101.895,416.499 94.416 C 410.013 88.104,409.662 87.893,405.654 87.893 L 401.512 87.893 309.302 180.089 M96.853 112.611 C 82.709 114.295,70.396 121.178,60.547 132.905 C 55.876 138.466,52.646 144.487,50.131 152.320 L 48.213 158.293 48.213 288.000 L 48.213 417.707 50.131 423.680 C 52.647 431.517,55.876 437.534,60.554 443.104 C 68.384 452.428,76.956 458.220,88.320 461.869 L 94.293 463.787 224.000 463.787 L 353.707 463.787 359.680 461.869 C 378.131 455.945,391.365 442.857,397.864 424.107 L 399.787 418.560 400.029 320.427 C 400.300 210.777,400.685 217.977,394.241 212.156 C 386.853 205.481,375.236 207.484,370.179 216.305 L 368.213 219.733 367.787 317.440 L 367.360 415.147 365.512 418.560 C 363.026 423.153,357.953 427.904,353.280 430.015 C 349.475 431.733,348.285 431.749,224.000 431.749 C 99.715 431.749,98.525 431.733,94.720 430.015 C 90.047 427.904,84.974 423.153,82.488 418.560 L 80.640 415.147 80.640 288.000 L 80.640 160.853 82.488 157.440 C 84.679 153.392,89.706 148.439,93.867 146.227 C 96.709 144.717,101.197 144.619,186.453 144.213 C 267.725 143.826,276.291 143.655,278.613 142.374 C 283.778 139.525,287.573 133.437,287.573 128.000 C 287.573 122.563,283.778 116.475,278.613 113.626 C 276.282 112.339,268.281 112.204,189.013 112.107 C 141.141 112.049,99.669 112.275,96.853 112.611 " stroke="none" fill-rule="evenodd" fill="black"></path></svg>