<svg xmlns="http://www.w3.org/2000/svg" width="512" height="512" viewBox="0 0 512 512"><path d="M136.962 33.771 C 133.114 35.777,131.335 37.619,129.605 41.387 C 128.153 44.549,128.036 47.863,128.019 86.400 L 128.000 128.000 86.400 128.019 C 47.781 128.036,44.555 128.150,41.387 129.613 C 39.509 130.479,37.057 132.183,35.937 133.399 C 33.928 135.581,31.355 143.306,31.968 145.313 C 32.142 145.882,32.514 147.396,32.794 148.678 C 33.428 151.571,37.779 156.621,41.300 158.550 C 43.670 159.849,48.334 160.026,85.946 160.251 L 127.946 160.502 128.187 246.438 L 128.429 332.373 130.432 338.347 C 137.442 359.251,152.749 374.558,173.653 381.568 L 179.627 383.571 265.562 383.813 L 351.498 384.054 351.749 426.054 C 351.974 463.666,352.151 468.330,353.450 470.700 C 355.379 474.221,360.429 478.572,363.322 479.206 C 364.604 479.486,366.118 479.858,366.687 480.032 C 368.694 480.645,376.419 478.072,378.601 476.063 C 379.817 474.943,381.521 472.491,382.387 470.613 C 383.850 467.445,383.964 464.219,383.981 425.600 L 384.000 384.000 425.600 383.981 C 464.219 383.964,467.445 383.850,470.613 382.387 C 472.491 381.521,474.943 379.817,476.063 378.601 C 478.072 376.419,480.645 368.694,480.032 366.687 C 479.858 366.118,479.486 364.604,479.206 363.322 C 478.579 360.458,474.193 355.337,470.915 353.642 C 468.802 352.549,450.440 352.385,330.881 352.387 C 253.676 352.389,190.942 352.052,187.954 351.621 C 177.138 350.059,168.316 343.687,163.321 333.831 L 160.853 328.960 160.427 186.453 C 160.072 67.883,159.803 43.588,158.829 41.813 C 157.136 38.728,153.528 35.020,150.869 33.630 C 147.806 32.030,140.152 32.108,136.962 33.771 M203.520 128.707 C 192.244 132.494,188.491 145.564,196.087 154.591 C 200.795 160.187,198.010 159.956,266.667 160.427 L 328.960 160.853 333.882 163.347 C 339.722 166.306,346.155 172.846,349.058 178.773 L 351.147 183.040 351.573 245.333 C 351.908 294.235,352.242 308.177,353.124 310.187 C 356.552 317.998,366.337 322.059,374.001 318.850 C 377.740 317.285,382.936 311.335,383.571 307.891 C 383.857 306.338,383.970 276.843,383.821 242.347 L 383.550 179.627 381.558 173.653 C 374.578 152.733,358.813 137.021,338.357 130.600 L 331.520 128.454 268.373 128.294 C 233.643 128.206,204.459 128.392,203.520 128.707 " stroke="none" fill-rule="evenodd" fill="black"></path></svg>