<svg xmlns="http://www.w3.org/2000/svg" width="512" height="512" viewBox="0 0 512 512"><path d="M134.140 34.637 C 131.700 35.853,128.563 38.231,127.169 39.923 C 122.156 46.004,122.027 47.173,122.027 86.339 L 122.027 122.027 86.339 122.027 C 46.712 122.027,45.844 122.130,39.474 127.583 C 33.231 132.926,30.507 143.317,33.232 151.395 C 34.734 155.847,40.481 161.976,45.227 164.185 C 48.906 165.898,50.593 165.984,85.522 166.229 L 121.978 166.485 122.231 249.429 L 122.485 332.373 124.442 338.740 C 125.518 342.242,128.179 348.578,130.355 352.820 C 133.616 359.180,135.815 362.038,142.888 369.112 C 149.962 376.185,152.820 378.384,159.180 381.645 C 163.422 383.821,169.758 386.482,173.260 387.558 L 179.627 389.515 262.571 389.769 L 345.515 390.022 345.771 426.478 C 346.016 461.407,346.102 463.094,347.815 466.773 C 350.024 471.519,356.153 477.266,360.605 478.768 C 371.895 482.576,384.884 476.285,388.670 465.176 C 389.757 461.983,389.973 455.435,389.973 425.661 L 389.973 389.973 425.661 389.973 C 455.435 389.973,461.983 389.757,465.176 388.670 C 479.787 383.691,484.736 364.361,474.197 353.437 C 472.695 351.881,470.123 349.769,468.480 348.744 L 465.493 346.880 325.973 346.453 L 186.453 346.027 181.703 343.799 C 176.370 341.298,171.396 336.615,168.660 331.520 L 166.827 328.107 166.400 188.587 C 165.974 49.306,165.970 49.060,164.190 45.227 C 162.178 40.894,156.542 35.416,152.253 33.624 C 147.463 31.622,139.269 32.081,134.140 34.637 M208.208 122.824 C 199.397 125.504,193.184 132.992,192.248 142.059 C 191.311 151.139,196.536 160.118,204.976 163.932 L 209.493 165.973 268.800 166.400 C 327.472 166.822,328.143 166.846,331.520 168.663 C 335.884 171.011,340.989 176.116,343.337 180.480 C 345.154 183.858,345.178 184.518,345.600 243.627 L 346.027 303.360 348.344 307.754 C 355.683 321.668,373.714 324.065,384.151 312.513 C 390.307 305.698,390.072 308.715,389.769 240.640 C 389.499 179.907,389.489 179.597,387.549 173.260 C 379.601 147.290,358.080 127.813,332.382 123.332 C 326.133 122.242,315.437 122.039,267.622 122.100 C 236.120 122.140,209.384 122.466,208.208 122.824 " stroke="none" fill-rule="evenodd" fill="black"></path></svg>