<svg xmlns="http://www.w3.org/2000/svg" width="512" height="512" viewBox="0 0 512 512"><path d="M122.027 77.227 L 122.027 122.027 76.786 122.027 L 31.545 122.027 31.772 144.000 L 32.000 165.973 77.013 166.194 L 122.027 166.415 122.027 278.194 L 122.027 389.973 233.806 389.973 L 345.585 389.973 345.806 434.987 L 346.027 480.000 368.000 480.228 L 389.973 480.455 389.973 435.214 L 389.973 389.973 435.200 389.973 L 480.427 389.973 480.427 368.213 L 480.427 346.453 323.413 346.453 L 166.400 346.453 166.400 189.440 L 166.400 32.427 144.213 32.427 L 122.027 32.427 122.027 77.227 M192.000 144.213 L 192.000 166.400 268.800 166.400 L 345.600 166.400 345.600 243.200 L 345.600 320.000 367.787 320.000 L 389.973 320.000 389.973 221.013 L 389.973 122.027 290.987 122.027 L 192.000 122.027 192.000 144.213 " stroke="none" fill="black" fill-rule="evenodd"></path></svg>