<svg xmlns="http://www.w3.org/2000/svg" width="512" height="512" viewBox="0 0 512 512"><path d="M239.886 34.171 C 236.420 35.078,231.371 36.927,228.665 38.279 C 225.960 39.631,189.131 60.852,146.825 85.435 C 65.297 132.810,66.275 132.166,70.600 135.668 C 71.555 136.441,113.321 161.182,163.414 190.646 C 235.615 233.116,254.956 244.141,256.739 243.847 C 258.941 243.484,439.608 137.565,441.924 135.280 C 445.258 131.990,444.974 131.806,365.469 85.606 C 323.324 61.116,286.423 39.879,283.468 38.413 C 271.250 32.351,253.450 30.618,239.886 34.171 M49.199 164.547 C 47.904 165.979,47.788 173.484,47.801 255.214 C 47.818 354.005,47.652 350.837,53.409 362.535 C 59.646 375.208,57.700 373.865,150.187 429.333 C 195.947 456.777,234.015 479.471,234.782 479.765 C 235.549 480.058,236.989 479.729,237.982 479.034 L 239.787 477.770 239.787 375.004 L 239.787 272.238 236.587 270.171 C 227.462 264.280,52.854 162.987,51.822 162.987 C 51.156 162.987,49.976 163.689,49.199 164.547 M366.747 217.092 C 316.191 246.800,274.239 271.594,273.520 272.191 C 272.360 273.154,272.213 284.740,272.213 375.523 L 272.213 477.770 274.047 479.054 C 275.681 480.199,276.155 480.197,278.394 479.039 C 279.776 478.325,317.831 455.628,362.960 428.602 C 454.220 373.951,452.331 375.256,458.591 362.535 C 464.348 350.835,464.182 354.021,464.199 255.066 C 464.213 169.671,464.146 165.750,462.653 164.399 C 461.795 163.622,460.547 163.007,459.879 163.032 C 459.212 163.057,417.303 187.384,366.747 217.092 " stroke="none" fill-rule="evenodd" fill="black"></path></svg>