<svg xmlns="http://www.w3.org/2000/svg" width="512" height="512" viewBox="0 0 512 512"><path d="M241.493 33.800 C 238.443 34.461,232.875 36.482,229.120 38.292 C 222.111 41.669,74.909 127.125,68.722 131.408 C 60.462 137.127,53.373 146.536,50.121 156.098 L 48.213 161.707 47.978 253.175 C 47.719 353.728,47.625 351.641,52.865 362.240 C 55.812 368.200,60.796 374.443,65.933 378.609 C 69.816 381.758,216.065 467.200,227.303 472.885 C 245.598 482.140,266.397 482.141,284.697 472.886 C 295.938 467.202,442.164 381.774,446.057 378.617 C 451.204 374.443,456.187 368.204,459.135 362.240 C 464.382 351.626,464.288 353.712,464.026 253.158 L 463.787 161.707 461.879 156.098 C 458.290 145.544,450.793 136.199,440.764 129.774 C 430.517 123.210,288.018 40.682,282.116 37.893 C 278.782 36.318,273.244 34.443,269.811 33.728 C 262.202 32.142,248.989 32.176,241.493 33.800 M268.510 66.940 C 274.077 69.488,414.738 151.225,414.682 151.879 C 414.600 152.831,257.550 244.480,256.000 244.480 C 254.451 244.480,97.400 152.831,97.318 151.879 C 97.277 151.408,236.056 70.535,242.120 67.496 C 250.314 63.390,260.297 63.180,268.510 66.940 M161.280 226.833 L 239.360 272.822 239.577 358.272 L 239.795 443.723 235.737 441.262 C 233.506 439.909,199.808 420.289,160.853 397.662 C 121.899 375.035,88.600 355.558,86.857 354.379 C 85.113 353.200,82.905 350.622,81.950 348.649 C 80.240 345.116,80.213 343.795,80.213 262.101 C 80.213 183.335,80.289 179.183,81.707 179.992 C 82.528 180.461,118.336 201.539,161.280 226.833 M430.054 348.640 C 429.097 350.618,426.887 353.202,425.143 354.383 C 423.400 355.564,390.101 375.043,351.147 397.670 C 312.192 420.297,278.494 439.915,276.263 441.266 L 272.205 443.723 272.423 358.275 L 272.640 272.827 352.000 226.133 L 431.360 179.439 431.578 262.242 C 431.793 344.069,431.775 345.086,430.054 348.640 " stroke="none" fill-rule="evenodd" fill="black"></path></svg>