<svg xmlns="http://www.w3.org/2000/svg" width="512" height="512" viewBox="0 0 512 512"><path d="M160.008 87.936 C 107.916 118.394,65.202 143.612,65.088 143.977 C 64.973 144.341,107.882 169.712,160.440 200.355 L 256.000 256.071 351.561 200.355 C 404.120 169.712,447.128 144.398,447.134 144.103 C 447.152 143.343,257.686 32.885,256.059 32.706 C 255.322 32.626,212.100 57.479,160.008 87.936 M47.996 268.782 L 48.213 367.082 143.700 423.328 C 196.217 454.263,239.321 479.573,239.486 479.573 C 239.652 479.573,239.773 435.509,239.756 381.653 L 239.725 283.733 145.083 227.618 C 93.030 196.754,49.842 171.273,49.110 170.992 C 47.909 170.531,47.801 180.036,47.996 268.782 M367.604 227.205 L 272.274 283.733 272.244 381.653 C 272.227 435.509,272.348 479.573,272.514 479.573 C 272.679 479.573,315.783 454.263,368.300 423.328 L 463.787 367.082 464.004 268.874 C 464.123 214.860,463.931 170.669,463.577 170.672 C 463.223 170.674,420.035 196.114,367.604 227.205 " stroke="none" fill-rule="evenodd" fill="black"></path></svg>