<svg xmlns="http://www.w3.org/2000/svg" width="512" height="512" viewBox="0 0 512 512"><path d="M96.427 80.306 C 87.257 81.111,80.040 83.171,71.211 87.506 C 39.332 103.160,23.940 139.885,34.907 174.124 C 41.861 195.832,58.181 212.353,80.075 219.849 C 101.683 227.248,125.278 224.137,143.925 211.431 L 148.330 208.429 174.191 224.151 C 188.414 232.798,200.130 239.952,200.227 240.049 C 200.597 240.420,191.903 276.914,191.327 277.404 C 190.993 277.689,181.213 283.733,169.593 290.836 L 148.465 303.750 142.770 299.930 C 117.114 282.723,81.816 285.054,57.148 305.583 C 39.736 320.073,29.691 345.280,32.448 367.563 C 36.105 397.120,55.601 420.230,84.218 428.931 C 90.832 430.942,93.165 431.216,103.680 431.216 C 114.250 431.216,116.512 430.947,123.307 428.885 C 143.535 422.746,159.069 409.689,168.134 391.207 C 174.576 378.072,176.990 362.332,174.601 349.047 C 173.886 345.076,173.381 341.753,173.478 341.662 C 173.574 341.571,242.197 300.905,325.973 251.292 C 409.749 201.679,478.773 160.700,479.360 160.226 C 480.143 159.593,480.427 155.200,480.427 143.682 L 480.427 128.000 456.226 128.000 L 432.026 128.000 333.247 162.987 C 278.919 182.229,233.937 197.973,233.287 197.973 C 232.636 197.973,219.042 191.013,203.077 182.505 L 174.050 167.037 174.705 162.665 C 175.856 154.985,175.184 141.734,173.272 134.400 C 164.148 99.397,132.531 77.141,96.427 80.306 M116.907 114.451 C 135.927 121.010,147.169 142.033,142.087 161.542 C 136.355 183.550,114.450 196.416,92.890 190.438 C 81.645 187.320,73.019 180.033,67.605 169.080 C 64.446 162.689,64.427 162.582,64.427 151.938 C 64.427 141.647,64.534 140.999,67.170 135.435 C 72.598 123.975,84.563 114.686,96.427 112.720 C 102.542 111.706,111.028 112.424,116.907 114.451 M264.959 227.355 C 273.756 234.064,273.188 247.098,263.819 253.517 C 259.362 256.572,251.638 256.440,246.781 253.226 C 238.712 247.886,237.314 236.264,243.894 229.229 C 247.343 225.543,250.600 224.366,256.538 224.661 C 260.733 224.870,262.400 225.403,264.959 227.355 M302.080 283.817 C 279.787 296.693,261.455 307.509,261.342 307.854 C 261.229 308.198,299.437 321.824,346.249 338.134 L 431.360 367.787 455.912 367.787 L 480.464 367.787 480.232 351.925 L 480.000 336.063 412.219 298.165 C 374.940 277.321,344.028 260.298,343.526 260.337 C 343.024 260.376,324.373 270.942,302.080 283.817 M111.026 320.871 C 118.430 322.275,125.851 326.247,131.358 331.755 C 154.605 355.002,142.031 393.911,109.466 399.495 C 92.778 402.357,74.760 392.589,67.170 376.565 C 64.534 371.001,64.427 370.353,64.427 360.062 C 64.427 349.404,64.442 349.319,67.628 342.874 C 75.875 326.187,93.075 317.467,111.026 320.871 " stroke="none" fill-rule="evenodd" fill="black"></path></svg>