<svg xmlns="http://www.w3.org/2000/svg" width="512" height="512" viewBox="0 0 512 512"><path d="M92.016 81.029 C 80.341 83.167,69.747 87.881,60.023 95.264 C 42.324 108.703,32.284 129.187,32.266 151.893 C 32.246 176.288,44.106 198.528,64.268 211.911 C 87.785 227.520,119.417 227.777,142.744 212.550 L 148.931 208.511 169.399 216.823 C 185.986 223.559,190.038 224.917,190.772 223.985 C 191.269 223.353,193.381 219.642,195.464 215.738 C 198.208 210.594,201.462 206.348,207.281 200.313 C 211.697 195.734,215.140 191.816,214.932 191.607 C 214.723 191.399,205.741 185.878,194.970 179.338 L 175.388 167.448 175.367 153.484 C 175.343 137.654,174.424 133.050,169.001 121.600 C 164.898 112.937,161.973 108.692,155.661 102.241 C 146.456 92.833,134.487 85.675,122.453 82.381 C 116.538 80.762,97.975 79.937,92.016 81.029 M110.250 112.647 C 118.754 113.877,124.908 117.139,131.884 124.116 C 138.919 131.150,142.133 137.265,143.366 145.963 C 146.300 166.650,133.833 185.498,113.755 190.727 C 86.428 197.845,60.285 173.937,64.638 145.811 C 67.196 129.285,81.091 115.019,96.853 112.736 C 103.890 111.717,103.822 111.718,110.250 112.647 M408.747 139.475 C 387.490 142.537,336.256 155.896,302.080 167.287 C 264.855 179.695,232.985 195.057,221.397 206.176 C 209.884 217.224,205.821 225.850,200.197 251.187 C 196.721 266.847,193.779 273.798,188.021 279.954 C 182.730 285.610,170.045 294.025,158.483 299.548 L 149.334 303.918 143.510 300.047 C 131.824 292.277,118.833 288.456,104.107 288.456 C 79.426 288.456,57.890 299.735,44.463 319.693 C 20.121 355.875,33.218 405.206,72.279 424.472 C 83.260 429.888,90.044 431.350,104.107 431.332 C 118.849 431.313,123.662 430.224,136.107 424.087 C 150.281 417.098,161.098 406.281,168.087 392.107 C 174.395 379.314,175.362 374.888,175.169 359.680 C 175.080 352.640,174.894 345.646,174.757 344.138 L 174.507 341.396 326.827 255.518 C 410.603 208.285,479.289 169.505,479.463 169.339 C 480.220 168.619,473.401 152.893,471.146 150.158 C 467.999 146.341,462.137 143.140,453.971 140.781 C 445.694 138.390,421.189 137.682,408.747 139.475 M409.131 172.232 C 407.710 173.481,304.701 231.253,303.896 231.253 C 303.471 231.253,302.857 229.813,302.532 228.053 C 301.668 223.372,297.518 215.111,293.490 210.052 L 289.972 205.634 292.826 204.446 C 301.530 200.823,331.926 191.113,352.853 185.270 C 363.568 182.279,398.510 173.715,404.907 172.513 C 407.253 172.072,409.346 171.668,409.557 171.615 C 409.769 171.563,409.577 171.841,409.131 172.232 M264.041 226.476 C 273.173 231.828,274.322 245.229,266.232 252.036 C 258.436 258.595,246.458 256.217,241.764 247.177 C 239.690 243.182,239.952 235.832,242.310 231.890 C 246.604 224.710,256.724 222.189,264.041 226.476 M302.310 283.976 C 279.673 296.984,261.147 307.819,261.139 308.053 C 261.126 308.469,271.441 313.415,300.556 326.956 C 334.068 342.541,362.616 351.947,391.253 356.839 C 400.168 358.362,405.782 358.741,419.840 358.768 C 438.202 358.804,443.599 358.026,453.034 353.986 C 456.694 352.419,480.437 336.292,480.416 335.388 C 480.402 334.805,345.168 260.257,344.196 260.296 C 343.795 260.312,324.946 270.968,302.310 283.976 M370.128 310.713 C 383.906 318.277,395.053 324.592,394.899 324.745 C 394.349 325.296,375.701 320.906,365.653 317.861 C 356.273 315.018,333.959 307.029,331.223 305.534 C 330.449 305.111,332.258 303.637,336.770 301.017 C 340.453 298.878,343.829 297.090,344.272 297.044 C 344.715 296.998,356.350 303.149,370.128 310.713 M111.884 320.858 C 127.812 323.830,141.039 337.771,143.343 354.013 C 147.908 386.204,114.956 410.188,86.024 395.731 C 79.155 392.298,71.754 384.814,68.309 377.814 C 53.698 348.137,79.231 314.764,111.884 320.858 " stroke="none" fill-rule="evenodd" fill="black"></path></svg>