<svg xmlns="http://www.w3.org/2000/svg" width="512" height="512" viewBox="0 0 512 512"><path d="M89.600 81.432 C 74.632 84.577,64.105 90.347,52.907 101.548 C 42.303 112.153,37.486 120.446,33.516 134.930 C 31.377 142.732,31.427 162.181,33.605 169.813 C 35.963 178.072,41.920 189.966,46.980 196.514 C 51.799 202.750,61.008 210.643,68.404 214.874 C 75.227 218.778,87.548 222.610,96.134 223.498 C 112.646 225.206,131.499 220.416,144.213 211.281 L 148.289 208.353 169.006 216.818 C 180.400 221.473,189.790 225.185,189.871 225.068 C 189.953 224.950,192.019 221.205,194.462 216.747 C 197.621 210.982,201.197 206.182,206.837 200.131 L 214.770 191.622 194.831 179.559 C 183.865 172.925,174.709 167.313,174.485 167.090 C 174.262 166.866,174.503 163.527,175.022 159.671 C 177.669 140.006,169.818 117.197,155.307 102.386 C 145.650 92.530,135.513 86.408,122.734 82.717 C 114.710 80.398,97.665 79.737,89.600 81.432 M116.907 114.451 C 135.927 121.010,147.169 142.033,142.087 161.542 C 136.355 183.550,114.450 196.416,92.890 190.438 C 81.645 187.320,73.019 180.033,67.605 169.080 C 64.446 162.689,64.427 162.582,64.427 151.938 C 64.427 141.647,64.534 140.999,67.170 135.435 C 72.598 123.975,84.563 114.686,96.427 112.720 C 102.542 111.706,111.028 112.424,116.907 114.451 M414.293 138.814 C 388.927 141.969,334.572 155.914,296.533 169.024 C 255.958 183.009,229.734 196.544,217.400 209.865 C 208.262 219.735,204.437 228.688,199.694 251.307 C 196.887 264.690,193.871 272.592,189.427 278.203 C 184.500 284.423,166.676 296.247,154.683 301.249 L 148.513 303.822 143.590 300.495 C 130.349 291.546,116.046 287.711,99.574 288.694 C 67.046 290.636,41.168 312.805,33.644 345.173 C 31.651 353.746,32.346 371.906,34.983 380.160 C 42.917 404.995,60.688 422.171,85.940 429.413 C 91.417 430.984,94.614 431.309,104.107 431.260 C 114.077 431.209,116.660 430.889,123.307 428.883 C 143.306 422.849,158.608 410.158,167.649 392.107 C 175.377 376.677,177.642 358.267,173.633 343.467 C 173.227 341.966,191.709 331.332,326.385 255.573 C 468.910 175.399,479.566 169.250,479.133 167.429 C 477.959 162.481,471.693 151.041,468.736 148.445 C 460.747 141.430,447.668 138.157,428.475 138.368 C 422.083 138.438,415.701 138.639,414.293 138.814 M264.959 227.355 C 273.756 234.064,273.188 247.098,263.819 253.517 C 259.362 256.572,251.638 256.440,246.781 253.226 C 238.712 247.886,237.314 236.264,243.894 229.229 C 247.343 225.543,250.600 224.366,256.538 224.661 C 260.733 224.870,262.400 225.403,264.959 227.355 M302.080 283.800 C 279.787 296.685,261.440 307.541,261.310 307.924 C 261.083 308.591,300.669 327.635,315.733 334.105 C 351.532 349.481,385.131 357.922,414.720 358.975 C 438.627 359.825,449.015 357.143,465.920 345.757 C 471.787 341.806,477.248 337.946,478.056 337.180 C 479.427 335.880,475.035 333.275,412.388 298.240 C 375.462 277.589,344.657 260.621,343.932 260.533 C 343.207 260.445,324.373 270.915,302.080 283.800 M111.026 320.871 C 118.430 322.275,125.851 326.247,131.358 331.755 C 154.605 355.002,142.031 393.911,109.466 399.495 C 92.778 402.357,74.760 392.589,67.170 376.565 C 64.534 371.001,64.427 370.353,64.427 360.062 C 64.427 349.404,64.442 349.319,67.628 342.874 C 75.875 326.187,93.075 317.467,111.026 320.871 " stroke="none" fill-rule="evenodd" fill="black"></path></svg>