<svg xmlns="http://www.w3.org/2000/svg" width="512" height="512" viewBox="0 0 512 512"><path d="M30.293 48.202 C 29.824 48.361,28.391 48.722,27.109 49.004 C 23.982 49.693,18.789 54.366,17.366 57.773 C 16.412 60.057,16.213 88.622,16.213 223.917 C 16.213 337.281,16.491 388.038,17.121 389.704 C 18.411 393.120,22.054 396.756,26.027 398.596 C 29.276 400.100,33.528 400.177,114.560 400.195 L 199.680 400.213 199.680 416.000 L 199.680 431.787 163.840 431.787 L 128.000 431.787 128.000 448.000 L 128.000 464.213 256.000 464.213 L 384.000 464.213 384.000 448.000 L 384.000 431.787 348.160 431.787 L 312.320 431.787 312.320 416.000 L 312.320 400.213 397.440 400.195 C 478.472 400.177,482.724 400.100,485.973 398.596 C 489.946 396.756,493.589 393.120,494.879 389.704 C 496.155 386.328,496.155 61.672,494.879 58.296 C 493.754 55.317,490.210 51.503,486.827 49.630 C 484.461 48.321,467.071 48.202,257.707 48.063 C 133.099 47.981,30.763 48.043,30.293 48.202 M459.947 192.427 L 459.947 300.373 256.000 300.373 L 52.053 300.373 52.053 192.427 L 52.053 84.480 256.000 84.480 L 459.947 84.480 459.947 192.427 M261.704 337.121 C 267.516 339.317,271.604 345.461,271.604 352.000 C 271.604 366.673,253.957 373.389,244.300 362.390 C 241.950 359.715,239.796 354.745,239.796 352.000 C 239.796 346.997,244.845 339.468,249.584 337.403 C 252.733 336.031,258.466 335.897,261.704 337.121 " stroke="none" fill-rule="evenodd" fill="black"></path></svg>