<svg xmlns="http://www.w3.org/2000/svg" width="512" height="512" viewBox="0 0 512 512"><path d="M57.154 48.611 C 40.227 50.824,24.870 63.238,18.585 79.787 L 16.640 84.907 16.414 221.796 C 16.168 370.956,15.937 363.135,20.889 373.333 C 25.024 381.847,34.987 391.528,43.739 395.535 C 53.809 400.145,54.499 400.182,129.083 400.199 L 198.006 400.213 197.592 402.133 C 197.365 403.189,196.573 409.237,195.832 415.573 C 195.090 421.909,194.284 428.125,194.039 429.386 L 193.595 431.679 166.557 431.946 C 136.191 432.246,136.511 432.184,131.077 438.906 C 128.692 441.857,128.427 442.768,128.427 448.000 C 128.427 453.202,128.702 454.161,131.036 457.094 C 132.471 458.898,135.337 461.237,137.404 462.293 L 141.162 464.213 256.000 464.213 L 370.838 464.213 374.596 462.293 C 376.663 461.237,379.529 458.898,380.964 457.094 C 383.298 454.161,383.573 453.202,383.573 448.000 C 383.573 442.768,383.308 441.857,380.923 438.906 C 375.489 432.184,375.809 432.246,345.443 431.946 L 318.405 431.679 317.961 429.386 C 317.716 428.125,316.910 421.909,316.168 415.573 C 315.427 409.237,314.635 403.189,314.408 402.133 L 313.994 400.213 382.917 400.199 C 457.501 400.182,458.191 400.145,468.261 395.535 C 477.013 391.528,486.976 381.847,491.111 373.333 C 496.063 363.135,495.832 370.956,495.586 221.796 L 495.360 84.907 493.415 79.787 C 488.327 66.390,476.249 54.774,462.568 50.121 L 456.960 48.213 259.413 48.104 C 150.763 48.044,59.746 48.272,57.154 48.611 M453.704 81.121 C 456.683 82.246,460.497 85.790,462.370 89.173 C 463.665 91.514,463.806 100.816,464.016 197.760 L 464.246 303.787 256.000 303.787 L 47.754 303.787 47.984 197.760 C 48.194 100.816,48.335 91.514,49.630 89.173 C 51.427 85.928,55.268 82.267,58.027 81.170 C 61.104 79.946,450.468 79.898,453.704 81.121 M261.704 337.121 C 267.516 339.317,271.604 345.461,271.604 352.000 C 271.604 356.839,270.099 360.301,266.530 363.679 C 256.626 373.049,240.396 365.796,240.396 352.000 C 240.396 345.605,244.429 339.395,250.027 337.170 C 252.894 336.030,258.752 336.005,261.704 337.121 " stroke="none" fill-rule="evenodd" fill="black"></path></svg>