<svg xmlns="http://www.w3.org/2000/svg" width="512" height="512" viewBox="0 0 512 512"><path d="M57.173 48.673 C 51.215 49.535,48.486 50.399,42.191 53.419 C 35.395 56.678,24.995 66.969,21.510 73.882 C 15.958 84.898,16.213 79.347,16.213 188.923 L 16.213 288.427 256.000 288.427 L 495.787 288.427 495.787 188.923 C 495.787 79.347,496.042 84.898,490.490 73.882 C 487.029 67.015,476.602 56.676,469.896 53.461 C 458.017 47.766,477.495 48.260,259.413 48.121 C 150.763 48.051,59.755 48.300,57.173 48.673 M16.213 331.183 C 16.213 353.342,16.470 359.571,17.556 363.763 C 21.078 377.354,30.714 389.107,43.310 395.173 C 53.715 400.185,53.673 400.182,129.083 400.199 L 198.006 400.213 197.592 402.133 C 197.365 403.189,196.573 409.237,195.832 415.573 C 195.090 421.909,194.284 428.125,194.039 429.386 L 193.595 431.679 166.557 431.946 C 137.393 432.234,136.956 432.300,132.521 437.051 C 124.767 445.355,127.760 458.431,138.438 462.893 C 141.237 464.062,154.672 464.213,256.000 464.213 C 380.181 464.213,373.586 464.456,378.768 459.693 C 381.452 457.225,383.958 451.694,383.981 448.186 C 384.004 444.734,381.982 439.731,379.479 437.051 C 375.044 432.300,374.607 432.234,345.443 431.946 L 318.405 431.679 317.961 429.386 C 317.716 428.125,316.910 421.909,316.168 415.573 C 315.427 409.237,314.635 403.189,314.408 402.133 L 313.994 400.213 382.917 400.199 C 458.643 400.182,458.157 400.212,469.116 395.007 C 476.563 391.470,486.773 381.492,490.490 374.118 C 495.417 364.344,495.787 361.344,495.787 331.183 L 495.787 303.787 256.000 303.787 L 16.213 303.787 16.213 331.183 M261.704 337.121 C 267.516 339.317,271.604 345.461,271.604 352.000 C 271.604 356.839,270.099 360.301,266.530 363.679 C 256.626 373.049,240.396 365.796,240.396 352.000 C 240.396 345.605,244.429 339.395,250.027 337.170 C 252.894 336.030,258.752 336.005,261.704 337.121 " stroke="none" fill-rule="evenodd" fill="black"></path></svg>