<svg id="icons" xmlns="http://www.w3.org/2000/svg" viewBox="0 0 512 512"><path d="M118.784 33.451 C 118.221 34.014,117.760 35.080,117.760 35.819 C 117.760 36.559,127.648 60.194,139.733 88.342 L 161.707 139.520 164.356 139.778 C 166.938 140.030,167.993 138.714,205.641 88.309 C 241.590 40.177,244.210 36.436,243.330 34.504 L 242.383 32.427 181.096 32.427 C 134.565 32.427,119.561 32.673,118.784 33.451 M266.240 33.711 C 266.240 35.668,346.376 142.080,347.850 142.080 C 348.739 142.080,356.233 125.521,372.115 88.461 C 384.753 58.970,395.093 34.298,395.093 33.634 C 395.093 32.604,385.644 32.427,330.667 32.427 C 273.867 32.427,266.240 32.579,266.240 33.711 M85.785 57.457 C 83.062 59.927,24.747 154.315,24.747 156.254 C 24.747 157.088,25.600 158.368,26.643 159.098 C 28.308 160.265,34.763 160.427,79.550 160.427 C 129.846 160.427,130.584 160.402,132.310 158.676 C 133.537 157.449,133.885 156.365,133.474 155.050 C 132.956 153.391,94.821 64.512,92.151 58.739 C 90.731 55.671,88.296 55.180,85.785 57.457 M421.364 56.533 C 420.247 57.407,380.512 148.806,378.534 155.050 C 378.115 156.371,378.457 157.444,379.690 158.676 C 381.416 160.402,382.153 160.427,432.545 160.427 C 481.604 160.427,483.732 160.361,485.665 158.794 C 487.429 157.366,487.565 156.860,486.754 154.741 C 485.503 151.468,426.843 56.961,425.554 56.141 C 424.086 55.208,422.916 55.318,421.364 56.533 M224.955 115.917 C 208.499 137.866,196.267 154.946,196.267 155.975 C 196.267 156.962,197.120 158.368,198.163 159.098 C 199.833 160.268,206.751 160.427,256.000 160.427 C 305.249 160.427,312.167 160.268,313.837 159.098 C 314.880 158.368,315.733 156.962,315.733 155.975 C 315.733 154.946,303.501 137.866,287.045 115.917 C 261.341 81.635,258.111 77.653,256.000 77.653 C 253.889 77.653,250.659 81.635,224.955 115.917 M23.079 193.233 C 22.516 193.911,22.181 195.234,22.334 196.172 C 22.721 198.536,238.991 478.591,240.915 479.220 C 241.770 479.499,243.396 479.495,244.529 479.211 C 247.821 478.384,248.040 475.145,245.365 466.842 C 240.038 450.304,149.981 195.691,148.832 193.920 L 147.587 192.000 85.845 192.000 C 33.049 192.000,23.954 192.179,23.079 193.233 M185.813 192.922 C 184.992 193.400,184.320 194.470,184.320 195.300 C 184.320 196.747,251.790 388.848,252.967 390.752 C 253.683 391.910,258.276 391.976,258.979 390.839 C 260.141 388.959,327.680 196.737,327.680 195.310 C 327.680 194.461,326.937 193.369,326.029 192.883 C 323.764 191.671,187.897 191.708,185.813 192.922 M363.172 193.920 C 362.490 194.976,339.824 258.500,312.804 335.085 C 272.286 449.925,263.814 474.695,264.466 476.409 C 265.751 479.790,269.655 480.609,272.447 478.082 C 275.767 475.077,489.396 197.830,489.666 196.175 C 490.369 191.864,492.437 192.000,426.155 192.000 L 364.413 192.000 363.172 193.920 " stroke="none" fill-rule="evenodd" fill="black"></path></svg>