<svg id="icons" xmlns="http://www.w3.org/2000/svg" viewBox="0 0 512 512"><path d="M116.196 33.184 C 118.707 39.871,163.553 143.360,163.940 143.360 C 164.237 143.360,182.256 119.648,203.981 90.667 C 225.707 61.685,244.424 36.725,245.576 35.200 L 247.669 32.427 181.790 32.427 C 143.783 32.427,116.031 32.747,116.196 33.184 M266.424 35.200 C 267.576 36.725,286.293 61.685,308.019 90.667 C 329.744 119.648,347.763 143.360,348.060 143.360 C 348.447 143.360,393.293 39.871,395.804 33.184 C 395.969 32.747,368.217 32.427,330.210 32.427 L 264.331 32.427 266.424 35.200 M56.420 104.796 C 38.530 134.320,23.893 158.916,23.893 159.452 C 23.893 160.173,38.468 160.427,79.878 160.427 C 130.123 160.427,135.810 160.291,135.354 159.102 C 134.378 156.557,89.394 51.624,89.171 51.371 C 89.047 51.230,74.309 75.271,56.420 104.796 M399.953 104.567 C 387.391 133.890,376.894 158.455,376.626 159.155 C 376.196 160.274,382.816 160.427,431.695 160.427 C 469.825 160.427,487.253 160.146,487.253 159.533 C 487.253 158.745,424.733 53.421,423.342 51.865 C 423.039 51.527,412.514 75.243,399.953 104.567 M224.421 116.601 C 207.294 139.432,193.156 158.632,193.004 159.269 C 192.774 160.236,203.154 160.427,255.937 160.427 C 297.791 160.427,319.147 160.136,319.147 159.568 C 319.147 158.624,257.125 75.652,256.160 75.305 C 255.831 75.187,241.549 93.770,224.421 116.601 M46.316 220.895 C 58.623 236.788,108.629 301.434,157.440 364.553 C 206.251 427.673,246.296 479.046,246.429 478.717 C 246.600 478.295,158.862 226.229,147.447 194.347 L 146.606 192.000 85.272 192.000 L 23.938 192.000 46.316 220.895 M186.327 202.453 C 188.354 208.203,204.731 254.667,222.721 305.707 C 240.711 356.747,255.683 398.507,255.993 398.507 C 256.302 398.507,271.278 356.747,289.272 305.707 C 307.265 254.667,323.646 208.203,325.673 202.453 L 329.358 192.000 256.000 192.000 L 182.642 192.000 186.327 202.453 M364.554 194.347 C 353.031 226.533,265.398 478.287,265.569 478.710 C 265.703 479.041,315.810 414.666,376.917 335.656 L 488.021 192.000 426.707 192.000 L 365.394 192.000 364.554 194.347 " stroke="none" fill="black" fill-rule="evenodd"></path></svg>