<svg id="icons" xmlns="http://www.w3.org/2000/svg" viewBox="0 0 512 512"><path d="M180.907 32.427 L 109.653 32.853 104.902 35.226 C 102.289 36.532,98.376 39.412,96.208 41.626 C 91.223 46.718,20.143 161.263,17.756 168.051 C 15.119 175.552,15.881 185.185,19.687 192.441 C 22.620 198.034,227.873 465.003,233.998 471.191 C 245.425 482.738,266.577 482.737,278.002 471.191 C 284.117 465.011,489.380 198.027,492.313 192.437 C 496.123 185.179,496.882 175.554,494.238 168.036 C 491.855 161.256,420.781 46.737,415.786 41.626 C 413.621 39.412,409.711 36.532,407.098 35.226 L 402.347 32.853 379.307 32.643 C 321.667 32.117,246.382 32.035,180.907 32.427 M223.027 65.067 C 221.143 68.171,164.398 143.360,163.938 143.360 C 163.536 143.360,133.042 73.168,129.999 65.237 C 129.588 64.166,135.837 64.000,176.599 64.000 C 214.035 64.000,223.542 64.218,223.027 65.067 M382.001 65.237 C 378.958 73.168,348.464 143.360,348.062 143.360 C 347.602 143.360,290.857 68.171,288.973 65.067 C 288.458 64.218,297.965 64.000,335.401 64.000 C 376.163 64.000,382.412 64.166,382.001 65.237 M287.412 116.582 C 304.453 139.360,318.606 158.543,318.863 159.211 C 319.264 160.256,310.445 160.427,256.000 160.427 C 201.555 160.427,192.736 160.256,193.137 159.211 C 193.736 157.652,255.432 75.168,256.000 75.168 C 256.235 75.168,270.370 93.804,287.412 116.582 M135.680 160.199 C 135.680 160.324,118.551 160.427,97.615 160.427 C 63.626 160.427,59.605 160.285,60.057 159.107 C 60.335 158.382,70.425 141.862,82.478 122.398 L 104.393 87.008 120.036 123.490 C 128.640 143.555,135.680 160.075,135.680 160.199 M429.965 123.035 C 441.766 142.127,451.653 158.351,451.936 159.088 C 452.397 160.292,448.606 160.427,414.314 160.427 C 392.569 160.427,376.300 160.102,376.462 159.672 C 379.835 150.724,407.618 87.331,407.987 87.741 C 408.273 88.060,418.163 103.942,429.965 123.035 M183.016 289.280 C 201.819 342.549,218.834 390.736,220.827 396.362 C 223.532 403.996,224.046 406.161,222.851 404.896 C 221.970 403.963,185.042 356.160,140.787 298.667 C 96.532 241.173,59.949 193.650,59.491 193.059 C 58.824 192.198,67.607 192.029,103.744 192.206 L 148.830 192.427 183.016 289.280 M325.527 202.880 C 282.304 325.632,256.404 398.507,256.000 398.507 C 255.596 398.507,229.696 325.632,186.473 202.880 L 182.642 192.000 256.000 192.000 L 329.358 192.000 325.527 202.880 M452.500 193.067 C 452.045 193.653,415.464 241.173,371.209 298.667 C 326.955 356.160,290.018 403.968,289.128 404.907 C 287.532 406.589,287.526 406.564,288.729 403.200 C 289.400 401.323,306.087 354.091,325.811 298.240 C 345.536 242.389,362.079 195.637,362.576 194.347 L 363.478 192.000 408.403 192.000 C 444.217 192.000,453.161 192.216,452.500 193.067 " fill="black" stroke="none" fill-rule="evenodd"></path></svg>