<svg xmlns="http://www.w3.org/2000/svg" viewBox="0 0 512 512"><path d="M239.956 34.106 C 236.530 35.029,231.531 36.853,228.848 38.159 C 226.165 39.465,189.305 60.689,146.937 85.323 C 66.970 131.818,66.714 131.985,70.076 135.267 C 72.574 137.706,254.378 244.053,256.049 244.053 C 257.727 244.053,439.448 137.704,441.924 135.274 C 445.271 131.987,445.086 131.867,362.917 84.099 C 303.544 49.583,281.919 37.428,276.480 35.513 C 270.049 33.248,267.920 32.928,257.707 32.693 C 248.327 32.476,245.029 32.739,239.956 34.106 M269.922 123.192 C 278.547 127.412,281.836 134.500,278.344 141.345 C 273.882 150.092,258.719 154.286,245.938 150.308 C 227.891 144.691,227.457 128.175,245.190 121.851 C 251.995 119.424,263.495 120.048,269.922 123.192 M49.128 164.328 C 47.925 165.530,47.788 174.914,47.801 254.994 C 47.818 354.028,47.651 350.835,53.409 362.535 C 59.646 375.208,57.700 373.865,150.187 429.333 C 195.947 456.777,234.015 479.471,234.782 479.765 C 235.549 480.058,236.989 479.729,237.982 479.034 L 239.787 477.770 239.787 375.004 L 239.787 272.238 236.587 270.171 C 227.073 264.028,52.831 162.987,51.751 162.987 C 51.046 162.987,49.865 163.590,49.128 164.328 M366.733 217.095 C 316.170 246.814,274.218 271.612,273.506 272.202 C 272.364 273.150,272.213 285.218,272.213 375.523 L 272.213 477.770 274.047 479.054 C 275.681 480.199,276.155 480.197,278.394 479.039 C 279.776 478.325,317.831 455.628,362.960 428.602 C 454.220 373.951,452.331 375.256,458.591 362.535 C 464.348 350.835,464.182 354.021,464.199 255.066 C 464.213 169.671,464.146 165.750,462.653 164.399 C 461.795 163.622,460.547 163.003,459.879 163.024 C 459.212 163.044,417.297 187.376,366.733 217.095 M423.608 234.981 C 425.218 236.208,427.620 239.424,428.947 242.126 C 431.130 246.572,431.360 247.893,431.360 256.000 C 431.360 264.107,431.130 265.428,428.947 269.874 C 425.656 276.575,421.754 279.467,416.000 279.467 C 412.518 279.467,410.960 278.978,408.533 277.127 C 399.442 270.193,397.427 249.994,404.752 239.227 C 409.774 231.845,417.281 230.155,423.608 234.981 M198.867 290.463 C 200.514 291.582,202.880 294.367,204.123 296.651 C 212.652 312.322,205.384 335.787,192.000 335.787 C 178.576 335.787,171.322 312.369,179.877 296.651 C 182.838 291.212,186.943 288.427,192.000 288.427 C 194.673 288.427,196.797 289.057,198.867 290.463 M326.867 290.463 C 328.514 291.582,330.880 294.367,332.123 296.651 C 340.652 312.322,333.384 335.787,320.000 335.787 C 306.576 335.787,299.322 312.369,307.877 296.651 C 310.838 291.212,314.943 288.427,320.000 288.427 C 322.673 288.427,324.797 289.057,326.867 290.463 M101.427 321.646 C 107.120 324.550,110.900 331.928,111.562 341.427 C 112.584 356.100,105.687 367.780,96.000 367.780 C 89.362 367.780,83.223 361.415,81.025 352.254 C 79.809 347.183,80.360 336.138,82.018 332.373 C 85.417 324.656,90.490 320.122,95.821 320.038 C 97.130 320.017,99.653 320.740,101.427 321.646 M421.427 321.646 C 427.120 324.550,430.900 331.928,431.562 341.427 C 432.584 356.100,425.687 367.780,416.000 367.780 C 409.362 367.780,403.223 361.415,401.025 352.254 C 399.809 347.183,400.360 336.138,402.018 332.373 C 405.417 324.656,410.490 320.122,415.821 320.038 C 417.130 320.017,419.653 320.740,421.427 321.646 M326.486 378.205 C 329.806 380.480,333.341 385.734,334.686 390.392 C 335.229 392.274,335.657 396.925,335.637 400.727 C 335.562 414.936,327.352 425.516,317.793 423.722 C 313.536 422.924,309.510 418.958,306.779 412.874 C 302.755 403.907,303.502 391.285,308.512 383.565 C 313.179 376.374,320.588 374.164,326.486 378.205 " stroke="none" fill-rule="evenodd" fill="black"></path></svg>