<svg xmlns="http://www.w3.org/2000/svg" viewBox="0 0 512 512"><path d="M241.493 33.800 C 238.443 34.461,232.875 36.482,229.120 38.292 C 222.111 41.669,74.909 127.125,68.722 131.408 C 60.462 137.127,53.373 146.536,50.121 156.098 L 48.213 161.707 47.978 253.175 C 47.719 353.728,47.625 351.641,52.865 362.240 C 55.812 368.200,60.796 374.443,65.933 378.609 C 69.816 381.758,216.065 467.200,227.303 472.885 C 245.598 482.140,266.397 482.141,284.697 472.886 C 295.938 467.202,442.164 381.774,446.057 378.617 C 451.204 374.443,456.187 368.204,459.135 362.240 C 464.382 351.626,464.288 353.712,464.026 253.158 L 463.787 161.707 461.879 156.098 C 458.290 145.544,450.793 136.199,440.764 129.774 C 430.517 123.210,288.018 40.682,282.116 37.893 C 278.782 36.318,273.244 34.443,269.811 33.728 C 262.202 32.142,248.989 32.176,241.493 33.800 M268.510 66.940 C 274.077 69.488,414.738 151.225,414.682 151.879 C 414.600 152.831,257.550 244.480,256.000 244.480 C 254.451 244.480,97.400 152.831,97.318 151.879 C 97.277 151.408,236.056 70.535,242.120 67.496 C 250.314 63.390,260.297 63.180,268.510 66.940 M246.608 137.285 C 228.712 143.112,227.132 158.174,243.627 165.693 C 247.111 167.282,249.379 167.638,256.000 167.638 C 262.621 167.638,264.889 167.282,268.373 165.693 C 280.272 160.270,283.448 150.065,275.494 142.816 C 270.835 138.570,266.263 137.065,257.280 136.820 C 252.587 136.693,247.784 136.902,246.608 137.285 M161.280 226.833 L 239.360 272.822 239.577 358.272 L 239.795 443.723 235.737 441.262 C 233.506 439.909,199.808 420.289,160.853 397.662 C 121.899 375.035,88.600 355.558,86.857 354.379 C 85.113 353.200,82.905 350.622,81.950 348.649 C 80.240 345.116,80.213 343.795,80.213 262.101 C 80.213 183.335,80.289 179.183,81.707 179.992 C 82.528 180.461,118.336 201.539,161.280 226.833 M430.054 348.640 C 429.097 350.618,426.887 353.202,425.143 354.383 C 423.400 355.564,390.101 375.043,351.147 397.670 C 312.192 420.297,278.494 439.915,276.263 441.266 L 272.205 443.723 272.423 358.275 L 272.640 272.827 352.000 226.133 L 431.360 179.439 431.578 262.242 C 431.793 344.069,431.775 345.086,430.054 348.640 M395.520 217.103 C 383.810 222.330,380.231 245.301,389.199 257.680 C 392.574 262.340,396.023 263.972,401.400 263.455 C 405.237 263.086,406.123 262.592,409.366 259.011 C 419.616 247.688,417.299 223.705,405.366 217.617 C 401.463 215.626,399.105 215.503,395.520 217.103 M202.405 273.643 C 193.338 278.111,189.222 296.433,194.532 308.686 C 196.629 313.524,201.746 318.776,205.211 319.646 C 214.807 322.054,223.808 310.657,223.801 296.107 C 223.793 279.238,213.334 268.257,202.405 273.643 M298.126 273.851 C 286.189 281.129,284.589 305.539,295.369 315.907 C 300.889 321.216,306.528 321.291,312.239 316.131 C 321.244 307.996,322.514 289.709,314.847 278.566 C 310.695 272.531,303.580 270.525,298.126 273.851 M106.810 305.618 C 100.316 308.832,96.316 317.152,96.201 327.680 C 96.111 335.967,98.179 342.201,102.613 347.013 C 108.535 353.437,115.351 353.504,121.367 347.197 C 132.414 335.615,128.483 308.316,115.238 304.636 C 111.172 303.507,111.045 303.522,106.810 305.618 M396.453 304.644 C 386.807 307.650,381.440 324.065,385.612 337.800 C 389.779 351.519,400.646 356.050,408.948 347.531 C 416.700 339.575,418.221 325.039,412.520 313.387 C 409.100 306.397,402.446 302.777,396.453 304.644 M299.093 361.102 C 293.770 364.047,289.977 370.328,288.456 378.720 C 286.254 390.863,292.563 405.476,300.912 407.571 C 316.676 411.528,326.269 383.303,314.833 366.613 C 311.110 361.180,303.666 358.573,299.093 361.102 " fill="black" stroke="none" fill-rule="evenodd"></path></svg>