<svg xmlns="http://www.w3.org/2000/svg" viewBox="0 0 512 512"><path d="M160.008 87.936 C 107.916 118.394,65.202 143.612,65.088 143.977 C 64.973 144.341,107.882 169.712,160.440 200.355 L 256.000 256.071 351.561 200.355 C 404.120 169.712,447.128 144.398,447.134 144.103 C 447.152 143.343,257.686 32.885,256.059 32.706 C 255.322 32.626,212.100 57.479,160.008 87.936 M269.922 123.192 C 278.547 127.412,281.836 134.500,278.344 141.345 C 273.882 150.092,258.719 154.286,245.938 150.308 C 227.891 144.691,227.457 128.175,245.190 121.851 C 251.995 119.424,263.495 120.048,269.922 123.192 M47.996 268.782 L 48.213 367.082 143.700 423.328 C 196.217 454.263,239.321 479.573,239.486 479.573 C 239.652 479.573,239.773 435.509,239.756 381.653 L 239.725 283.733 145.083 227.618 C 93.030 196.754,49.842 171.273,49.110 170.992 C 47.909 170.531,47.801 180.036,47.996 268.782 M367.604 227.205 L 272.274 283.733 272.244 381.653 C 272.227 435.509,272.348 479.573,272.514 479.573 C 272.679 479.573,315.783 454.263,368.300 423.328 L 463.787 367.082 464.004 268.874 C 464.123 214.860,463.931 170.669,463.577 170.672 C 463.223 170.674,420.035 196.114,367.604 227.205 M423.608 234.981 C 425.218 236.208,427.620 239.424,428.947 242.126 C 431.130 246.572,431.360 247.893,431.360 256.000 C 431.360 264.107,431.130 265.428,428.947 269.874 C 425.656 276.575,421.754 279.467,416.000 279.467 C 412.518 279.467,410.960 278.978,408.533 277.127 C 399.442 270.193,397.427 249.994,404.752 239.227 C 409.774 231.845,417.281 230.155,423.608 234.981 M198.867 290.463 C 200.514 291.582,202.880 294.367,204.123 296.651 C 212.652 312.322,205.384 335.787,192.000 335.787 C 178.576 335.787,171.322 312.369,179.877 296.651 C 182.838 291.212,186.943 288.427,192.000 288.427 C 194.673 288.427,196.797 289.057,198.867 290.463 M326.867 290.463 C 328.514 291.582,330.880 294.367,332.123 296.651 C 340.652 312.322,333.384 335.787,320.000 335.787 C 306.576 335.787,299.322 312.369,307.877 296.651 C 310.838 291.212,314.943 288.427,320.000 288.427 C 322.673 288.427,324.797 289.057,326.867 290.463 M101.427 321.646 C 107.120 324.550,110.900 331.928,111.562 341.427 C 112.584 356.100,105.687 367.780,96.000 367.780 C 89.362 367.780,83.223 361.415,81.025 352.254 C 79.809 347.183,80.360 336.138,82.018 332.373 C 85.417 324.656,90.490 320.122,95.821 320.038 C 97.130 320.017,99.653 320.740,101.427 321.646 M421.427 321.646 C 427.120 324.550,430.900 331.928,431.562 341.427 C 432.584 356.100,425.687 367.780,416.000 367.780 C 409.362 367.780,403.223 361.415,401.025 352.254 C 399.809 347.183,400.360 336.138,402.018 332.373 C 405.417 324.656,410.490 320.122,415.821 320.038 C 417.130 320.017,419.653 320.740,421.427 321.646 M326.486 378.205 C 329.806 380.480,333.341 385.734,334.686 390.392 C 335.229 392.274,335.657 396.925,335.637 400.727 C 335.562 414.936,327.352 425.516,317.793 423.722 C 313.536 422.924,309.510 418.958,306.779 412.874 C 302.755 403.907,303.502 391.285,308.512 383.565 C 313.179 376.374,320.588 374.164,326.486 378.205 " stroke="none" fill-rule="evenodd" fill="black"></path></svg>