<svg xmlns="http://www.w3.org/2000/svg" width="512" height="512" viewBox="0 0 512 512"><path d="M235.947 32.121 C 215.118 34.495,202.444 37.042,187.123 41.933 C 153.186 52.767,122.302 71.615,96.959 96.959 C 45.131 148.786,22.286 221.012,34.642 293.973 C 42.175 338.453,64.482 381.147,97.285 413.867 C 143.943 460.406,203.705 483.495,269.227 480.296 C 342.739 476.707,410.943 435.346,449.266 371.115 C 476.276 325.844,486.420 271.351,477.526 219.307 C 466.372 154.047,427.068 97.137,369.379 62.717 C 342.461 46.656,311.652 36.352,279.893 32.788 C 270.499 31.733,243.006 31.316,235.947 32.121 M276.231 178.804 C 284.187 180.815,294.924 185.691,302.029 190.519 C 307.039 193.923,318.077 204.961,321.481 209.971 C 326.326 217.101,331.186 227.821,333.371 236.196 C 336.321 247.507,336.480 263.122,333.759 274.295 C 320.927 326.996,261.199 352.264,214.875 324.591 C 207.372 320.108,194.913 308.578,190.498 302.029 C 185.641 294.824,180.805 284.143,178.624 275.804 C 175.525 263.949,175.525 248.050,178.625 236.192 C 188.353 198.987,222.084 174.271,260.267 176.372 C 264.725 176.617,271.909 177.712,276.231 178.804 M245.190 225.958 C 231.066 230.994,222.060 246.154,224.454 260.863 C 228.648 286.630,260.051 296.861,278.456 278.456 C 294.014 262.899,289.591 236.922,269.730 227.205 C 263.501 224.157,251.893 223.567,245.190 225.958 " stroke="none" fill-rule="evenodd" fill="black"></path></svg>