<svg xmlns="http://www.w3.org/2000/svg" width="512" height="512" viewBox="0 0 512 512"><path d="M231.253 33.392 C 214.898 35.057,192.680 40.401,176.511 46.559 C 156.296 54.258,131.841 68.384,114.508 82.373 C 92.069 100.483,71.148 126.126,57.570 152.164 C 42.512 181.038,34.416 210.416,32.447 243.324 C 27.225 330.584,74.485 413.921,152.164 454.430 C 231.416 495.759,326.910 486.355,396.524 430.364 C 473.098 368.774,500.486 263.737,463.793 172.373 C 435.769 102.595,373.381 50.947,299.520 36.379 C 293.653 35.221,284.659 33.859,279.532 33.351 C 268.795 32.286,241.887 32.309,231.253 33.392 M284.160 66.158 C 338.845 74.413,386.638 105.196,417.272 151.893 C 423.753 161.774,433.129 180.887,437.154 192.427 C 444.542 213.607,447.503 231.793,447.503 256.000 C 447.503 287.858,442.031 311.912,428.384 340.053 C 399.770 399.055,343.207 439.048,277.505 446.733 C 227.482 452.585,175.644 437.575,135.888 405.728 C 103.623 379.883,79.403 341.962,69.686 302.080 C 65.721 285.806,64.497 274.937,64.497 256.000 C 64.497 224.142,69.969 200.088,83.616 171.947 C 106.052 125.685,146.714 90.037,195.413 73.938 C 210.456 68.965,222.551 66.514,241.920 64.514 C 248.788 63.805,275.445 64.843,284.160 66.158 M237.983 145.556 C 215.581 149.058,193.884 160.275,177.036 177.065 C 161.250 192.797,150.958 211.745,146.197 233.842 C 144.007 244.004,144.007 267.996,146.197 278.158 C 150.953 300.230,161.227 319.155,177.036 334.964 C 192.845 350.773,211.770 361.047,233.842 365.803 C 244.004 367.993,267.996 367.993,278.158 365.803 C 300.125 361.070,319.230 350.698,334.964 334.964 C 350.698 319.230,361.070 300.125,365.803 278.158 C 367.993 267.996,367.993 244.004,365.803 233.842 C 354.399 180.916,308.618 143.881,255.147 144.326 C 249.749 144.370,242.026 144.924,237.983 145.556 M272.497 178.010 C 291.912 181.700,310.980 194.454,322.076 211.169 C 326.359 217.622,331.499 228.773,333.153 235.201 C 336.408 247.846,336.416 263.992,333.176 276.799 C 331.349 284.018,324.420 297.975,319.343 304.660 C 308.336 319.154,292.756 329.170,273.920 333.861 C 268.473 335.217,264.010 335.667,256.000 335.667 C 224.533 335.667,198.115 319.050,184.288 290.560 C 177.630 276.840,175.160 263.063,176.696 248.215 C 177.831 237.242,179.534 231.236,184.288 221.440 C 192.985 203.521,204.746 191.976,222.983 183.457 C 238.367 176.272,254.191 174.531,272.497 178.010 M245.190 225.958 C 231.066 230.994,222.060 246.154,224.454 260.863 C 228.648 286.630,260.051 296.861,278.456 278.456 C 294.014 262.899,289.591 236.922,269.730 227.205 C 263.501 224.157,251.893 223.567,245.190 225.958 " stroke="none" fill="black" fill-rule="evenodd"></path></svg>