<svg xmlns="http://www.w3.org/2000/svg" width="512" height="512" viewBox="0 0 512 512"><path d="M235.947 32.121 C 215.118 34.495,202.444 37.042,187.123 41.933 C 153.186 52.767,122.302 71.615,96.959 96.959 C 45.131 148.786,22.286 221.012,34.642 293.973 C 42.175 338.453,64.482 381.147,97.285 413.867 C 143.943 460.406,203.705 483.495,269.227 480.296 C 342.739 476.707,410.943 435.346,449.266 371.115 C 476.276 325.844,486.420 271.351,477.526 219.307 C 466.372 154.047,427.068 97.137,369.379 62.717 C 342.461 46.656,311.652 36.352,279.893 32.788 C 270.499 31.733,243.006 31.316,235.947 32.121 M278.613 146.287 C 323.032 156.098,356.253 189.531,365.847 234.076 C 367.994 244.042,367.942 268.132,365.753 278.187 C 360.997 300.036,350.681 319.187,335.381 334.573 C 322.177 347.851,307.314 357.016,290.133 362.474 C 276.276 366.876,272.932 367.347,255.573 367.342 C 240.753 367.338,238.570 367.138,230.166 365.014 C 203.161 358.187,180.307 342.733,164.663 320.720 C 158.542 312.106,150.728 295.614,148.150 285.867 C 141.004 258.847,143.427 232.210,155.252 207.787 C 166.838 183.858,183.207 167.370,206.933 155.730 C 218.440 150.085,226.836 147.338,238.507 145.401 C 247.241 143.951,270.349 144.462,278.613 146.287 M246.506 176.629 C 234.277 178.149,220.568 183.353,209.971 190.498 C 207.831 191.941,202.816 196.448,198.827 200.513 C 177.552 222.193,170.546 253.064,180.381 281.790 C 184.539 293.932,190.069 302.665,199.702 312.298 C 209.335 321.931,218.068 327.461,230.210 331.619 C 252.468 339.239,276.811 336.684,297.162 324.591 C 306.572 318.999,318.999 306.572,324.591 297.162 C 342.795 266.528,338.718 227.733,314.553 201.640 C 297.743 183.490,270.845 173.603,246.506 176.629 M269.795 227.236 C 275.461 230.009,282.667 237.340,285.274 242.986 C 286.826 246.345,287.147 248.576,287.147 256.000 C 287.147 264.021,286.904 265.455,284.828 269.682 C 278.637 282.286,264.589 289.735,251.137 287.546 C 241.068 285.907,231.720 278.959,227.226 269.774 C 224.290 263.772,223.566 253.425,225.594 246.447 C 228.150 237.656,236.310 229.125,245.193 225.957 C 251.928 223.555,263.500 224.157,269.795 227.236 " stroke="none" fill-rule="evenodd" fill="black"></path></svg>