<svg xmlns="http://www.w3.org/2000/svg" width="512" height="512" viewBox="0 0 512 512"><path d="M130.018 33.701 C 108.584 38.362,90.664 54.639,83.036 76.373 L 80.640 83.200 80.640 256.000 L 80.640 428.800 83.036 435.627 C 86.605 445.795,91.520 453.510,99.346 461.227 C 110.539 472.263,122.080 477.730,138.050 479.560 C 148.102 480.712,363.898 480.712,373.950 479.560 C 389.920 477.730,401.461 472.263,412.654 461.227 C 420.484 453.506,425.406 445.782,428.966 435.627 L 431.360 428.800 431.594 327.792 C 431.763 254.595,431.566 226.469,430.878 225.640 C 430.101 224.704,416.348 224.444,355.124 224.208 C 288.100 223.949,279.833 223.770,275.633 222.489 C 259.385 217.531,247.086 205.515,241.805 189.440 C 240.375 185.086,240.243 179.327,239.986 109.693 C 239.794 57.747,239.425 34.299,238.790 33.533 C 237.437 31.904,137.575 32.057,130.018 33.701 M272.213 111.944 C 272.213 179.057,272.226 179.540,274.023 183.254 C 275.114 185.506,277.210 187.904,279.294 189.283 L 282.755 191.573 350.892 191.802 C 413.033 192.010,419.075 191.908,419.559 190.648 C 419.949 189.633,400.876 170.052,347.647 116.820 C 306.749 75.920,274.553 44.373,273.709 44.373 C 272.296 44.373,272.213 48.127,272.213 111.944 M343.025 273.912 C 344.856 274.846,347.433 277.025,348.751 278.752 C 350.866 281.526,351.147 282.616,351.147 288.068 C 351.147 293.667,350.906 294.538,348.565 297.431 C 347.146 299.185,344.656 301.333,343.032 302.204 C 340.214 303.715,336.269 303.787,256.199 303.787 C 164.983 303.787,169.232 304.009,164.534 298.985 C 161.598 295.844,160.427 292.689,160.427 287.917 C 160.427 281.356,163.239 276.872,169.387 273.631 C 171.669 272.428,181.035 272.278,255.821 272.247 C 337.916 272.214,339.765 272.249,343.025 273.912 M341.918 353.334 C 345.187 354.569,348.978 358.252,350.398 361.573 C 352.865 367.337,351.147 375.916,346.726 379.914 C 342.081 384.115,344.637 384.000,256.000 384.000 C 167.363 384.000,169.919 384.115,165.274 379.914 C 160.840 375.904,158.964 366.235,161.630 361.131 C 162.938 358.629,166.668 354.920,169.387 353.420 C 171.746 352.118,338.480 352.035,341.918 353.334 " stroke="none" fill-rule="evenodd" fill="black"></path></svg>