<svg xmlns="http://www.w3.org/2000/svg" width="512" height="512" viewBox="0 0 512 512"><path d="M206.933 17.614 C 190.263 21.136,173.966 33.809,166.551 49.017 C 161.013 60.376,160.289 64.706,159.801 89.387 L 159.359 111.787 181.013 111.793 C 206.379 111.801,211.521 112.438,220.160 116.648 C 227.550 120.249,221.734 114.619,293.604 187.733 C 323.365 218.010,344.468 240.146,345.877 242.568 C 351.478 252.190,351.105 246.666,351.573 326.827 L 352.000 399.787 383.573 399.757 L 415.147 399.727 421.689 397.524 C 431.517 394.213,439.168 389.561,445.919 382.790 C 455.458 373.223,461.179 362.086,463.314 348.929 C 463.889 345.386,464.203 309.803,464.207 247.680 L 464.213 151.893 415.483 151.893 C 373.792 151.893,365.996 151.698,361.510 150.541 C 346.361 146.636,334.335 134.927,329.674 119.544 C 328.778 116.590,328.533 105.092,328.533 65.998 L 328.533 16.213 270.720 16.283 C 223.163 16.340,211.847 16.576,206.933 17.614 M361.131 33.451 C 360.364 34.217,360.107 44.152,360.110 72.917 C 360.113 109.516,360.193 111.491,361.776 114.087 C 365.417 120.058,364.028 119.866,405.616 120.141 C 439.863 120.367,443.235 120.264,444.695 118.942 C 445.574 118.146,446.293 116.757,446.293 115.855 C 446.293 113.429,366.384 32.427,363.990 32.427 C 362.981 32.427,361.694 32.887,361.131 33.451 M98.605 145.623 C 75.656 150.541,56.917 168.340,50.176 191.622 L 48.213 198.400 48.213 320.000 L 48.213 441.600 50.140 448.249 C 56.416 469.899,71.626 485.874,92.871 493.127 L 99.413 495.360 183.467 495.360 L 267.520 495.360 273.920 493.362 C 295.528 486.614,311.438 470.391,317.985 448.427 C 319.396 443.693,319.531 437.138,319.780 361.600 L 320.049 279.893 271.294 279.893 C 218.323 279.893,217.324 279.817,207.855 275.018 C 201.967 272.035,192.745 262.926,189.558 256.945 C 184.349 247.173,184.320 246.816,184.320 193.101 L 184.320 144.213 144.427 144.283 C 112.524 144.339,103.346 144.607,98.605 145.623 M217.234 161.768 C 216.056 162.946,215.893 167.675,215.893 200.821 C 215.893 243.777,215.748 242.809,222.751 246.400 C 226.461 248.302,226.827 248.320,262.844 248.320 C 302.224 248.320,302.503 248.288,301.940 243.839 C 301.579 240.985,222.584 160.427,220.147 160.427 C 219.282 160.427,217.972 161.030,217.234 161.768 " stroke="none" fill-rule="evenodd" fill="black"></path></svg>