<svg xmlns="http://www.w3.org/2000/svg" width="512" height="512" viewBox="0 0 512 512"><path d="M128.853 33.743 C 125.803 34.392,119.659 36.745,115.200 38.972 C 108.358 42.390,105.824 44.292,98.956 51.164 C 92.344 57.780,90.142 60.666,87.211 66.560 C 85.227 70.549,82.840 76.851,81.908 80.563 C 80.246 87.184,80.213 90.537,80.213 256.000 C 80.213 421.463,80.246 424.816,81.908 431.437 C 82.840 435.149,85.227 441.451,87.211 445.440 C 90.133 451.314,92.366 454.248,98.956 460.868 C 105.775 467.718,108.364 469.677,114.934 472.958 C 130.020 480.492,120.164 480.000,256.000 480.000 C 391.836 480.000,381.980 480.492,397.066 472.958 C 403.636 469.677,406.225 467.718,413.044 460.868 C 419.634 454.248,421.867 451.314,424.789 445.440 C 426.773 441.451,429.160 435.149,430.092 431.437 C 431.737 424.885,431.787 421.610,431.787 319.616 C 431.787 204.000,432.061 210.261,426.497 198.827 C 424.037 193.770,417.089 186.566,347.793 117.221 C 282.865 52.248,270.978 40.719,266.236 38.118 C 255.664 32.320,256.969 32.419,192.461 32.495 C 146.474 32.548,133.247 32.808,128.853 33.743 M239.793 121.387 C 239.797 157.052,240.136 180.873,240.689 184.320 C 243.415 201.319,257.082 216.584,274.773 222.391 C 279.081 223.805,284.422 223.956,339.840 224.226 L 400.213 224.521 400.196 319.834 C 400.187 372.438,399.831 417.551,399.403 420.513 C 397.873 431.090,391.357 439.978,381.616 444.774 L 375.929 447.573 256.018 447.573 L 136.107 447.573 131.227 445.286 C 121.154 440.565,114.153 431.277,112.607 420.581 C 111.572 413.424,111.563 98.640,112.597 91.487 C 114.454 78.647,123.786 68.171,136.007 65.205 C 139.209 64.428,153.623 64.126,190.080 64.073 L 239.787 64.000 239.793 121.387 M330.954 191.794 C 285.307 192.012,284.683 191.992,280.975 190.197 C 278.708 189.100,276.313 187.009,274.930 184.920 L 272.640 181.459 272.412 134.036 L 272.183 86.613 324.681 139.093 L 377.179 191.573 330.954 191.794 " stroke="none" fill-rule="evenodd" fill="black"></path></svg>