<svg xmlns="http://www.w3.org/2000/svg" width="512" height="512" viewBox="0 0 512 512"><path d="M165.801 17.885 C 159.893 21.488,160.027 20.364,159.757 68.480 L 159.514 111.787 181.090 111.793 C 206.377 111.801,211.525 112.440,220.160 116.648 C 227.550 120.249,221.734 114.619,293.604 187.733 C 323.365 218.010,344.468 240.146,345.877 242.568 C 351.478 252.190,351.105 246.666,351.573 326.827 L 352.000 399.787 404.053 399.787 C 452.978 399.787,456.244 399.693,458.394 398.234 C 459.652 397.380,461.380 395.652,462.234 394.394 C 463.714 392.213,463.797 386.519,464.012 272.000 L 464.237 151.893 400.609 151.893 C 330.387 151.893,333.634 152.141,330.205 146.519 C 328.593 143.873,328.540 141.759,328.537 80.000 L 328.533 16.213 248.533 16.217 C 170.693 16.220,168.460 16.265,165.801 17.885 M360.131 71.761 C 360.107 116.315,360.120 116.654,361.902 118.268 C 363.612 119.815,365.806 119.905,407.556 120.129 C 431.677 120.259,451.395 120.067,451.372 119.702 C 451.349 119.338,430.816 98.304,405.743 72.960 L 360.156 26.880 360.131 71.761 M53.673 146.150 C 52.078 147.216,50.102 149.424,49.281 151.057 C 47.876 153.854,47.789 163.688,47.789 320.000 C 47.789 476.312,47.876 486.146,49.281 488.943 C 50.102 490.576,52.084 492.788,53.685 493.858 L 56.597 495.803 184.816 495.582 L 313.036 495.360 315.319 493.227 C 320.287 488.585,320.000 495.328,320.000 383.189 L 320.000 279.893 256.769 279.893 C 186.725 279.893,189.593 280.117,186.040 274.368 C 184.356 271.643,184.320 270.262,184.320 207.899 L 184.320 144.213 120.446 144.213 L 56.572 144.213 53.673 146.150 M215.893 199.514 C 215.893 241.905,215.965 243.953,217.524 245.879 L 219.155 247.893 263.256 248.129 C 291.038 248.278,307.249 248.063,307.065 247.549 C 306.740 246.639,217.543 155.898,216.533 155.449 C 216.181 155.292,215.893 175.122,215.893 199.514 " stroke="none" fill-rule="evenodd" fill="black"></path></svg>