<svg xmlns="http://www.w3.org/2000/svg" viewBox="0 0 512 512"><path d="M85.588 34.099 C 79.743 37.663,80.213 18.247,80.217 256.171 C 80.220 468.199,80.245 471.508,81.885 474.199 C 82.802 475.701,84.816 477.621,86.362 478.465 C 89.041 479.928,97.013 480.000,256.000 480.000 C 414.987 480.000,422.959 479.928,425.638 478.465 C 427.184 477.621,429.198 475.701,430.115 474.199 C 431.746 471.522,431.780 468.950,431.783 347.961 L 431.787 224.456 338.366 224.228 L 244.945 224.000 242.579 221.634 L 240.213 219.268 239.989 125.847 L 239.764 32.427 164.042 32.430 C 90.445 32.433,88.243 32.480,85.588 34.099 M272.213 115.029 C 272.213 172.165,272.456 190.195,273.237 190.976 C 274.018 191.757,291.960 192.000,348.784 192.000 C 416.344 192.000,423.356 191.872,423.831 190.633 C 424.213 189.638,404.099 169.008,349.780 114.686 C 307.663 72.567,274.553 40.107,273.708 40.107 C 272.295 40.107,272.213 44.208,272.213 115.029 M270.507 242.374 C 285.982 246.907,298.449 259.759,302.516 275.373 C 303.341 278.543,303.787 284.339,303.787 291.916 L 303.787 303.581 314.240 303.950 C 325.742 304.357,328.429 305.228,332.272 309.795 C 333.501 311.256,334.795 313.478,335.147 314.732 C 335.499 315.987,335.787 336.597,335.787 360.533 L 335.787 404.053 333.524 407.903 C 332.130 410.274,329.836 412.567,327.550 413.876 L 323.840 416.000 256.000 416.000 L 188.160 416.000 184.450 413.876 C 182.164 412.567,179.870 410.274,178.476 407.903 L 176.213 404.053 176.213 359.680 L 176.213 315.307 178.234 311.781 C 181.611 305.887,185.447 304.345,197.760 303.932 L 208.213 303.581 208.213 291.916 C 208.213 284.339,208.659 278.543,209.484 275.373 C 216.284 249.266,243.601 234.493,270.507 242.374 M248.747 273.826 C 241.385 277.224,239.787 280.827,239.787 294.029 L 239.787 303.787 256.000 303.787 L 272.213 303.787 272.213 294.029 C 272.213 288.662,271.804 283.190,271.303 281.869 C 269.207 276.337,262.706 272.251,256.000 272.251 C 253.888 272.251,250.624 272.960,248.747 273.826 " stroke="none" fill-rule="evenodd" fill="black"></path></svg>