<svg xmlns="http://www.w3.org/2000/svg" width="512" height="512" viewBox="0 0 512 512"><path d="M147.936 17.146 C 126.942 20.655,109.019 36.380,101.082 58.256 C 96.055 72.113,96.186 69.752,95.812 153.173 C 95.584 204.145,95.771 232.269,96.369 236.800 C 98.710 254.542,111.914 268.239,129.750 271.427 C 148.724 274.818,168.345 262.692,174.170 243.976 C 175.708 239.035,175.787 234.914,175.787 159.497 L 175.787 80.213 160.013 80.213 L 144.240 80.213 144.013 157.941 L 143.787 235.668 141.392 237.727 C 137.968 240.672,133.704 240.502,130.494 237.292 L 128.000 234.798 128.000 158.861 C 128.000 76.646,128.076 75.119,132.617 65.519 C 138.783 52.486,150.751 46.379,165.547 48.715 C 178.133 50.702,185.594 57.847,190.002 72.132 C 191.481 76.928,191.573 81.935,191.573 157.440 C 191.573 237.440,191.568 237.672,189.692 244.705 C 182.360 272.177,163.004 287.730,136.093 287.773 C 114.113 287.808,97.037 277.461,87.560 258.365 C 80.501 244.141,80.238 241.662,80.225 189.227 L 80.213 144.213 63.943 144.213 L 47.673 144.213 48.018 192.640 C 48.390 245.062,48.387 245.021,53.461 260.267 C 58.106 274.224,64.454 284.612,74.646 294.935 C 88.467 308.932,101.512 315.209,126.080 319.683 L 128.000 320.033 128.000 395.336 C 128.000 467.163,128.073 470.777,129.590 473.613 C 130.464 475.249,132.480 477.355,134.070 478.293 C 136.932 479.984,138.492 480.000,296.257 480.000 L 455.555 480.000 457.911 478.241 C 459.207 477.273,461.060 475.421,462.027 474.125 C 463.781 471.775,463.787 471.424,464.009 355.778 L 464.231 239.787 370.432 239.787 L 276.632 239.787 274.423 237.161 L 272.213 234.536 272.213 141.161 L 272.213 47.787 243.413 47.776 L 214.613 47.765 211.627 42.996 C 209.984 40.372,205.890 35.611,202.530 32.415 C 195.084 25.333,183.857 19.491,173.903 17.517 C 166.859 16.121,155.076 15.952,147.936 17.146 M304.853 56.080 C 304.011 56.382,303.787 72.128,303.787 130.926 C 303.787 201.981,303.858 205.453,305.347 206.801 C 306.774 208.092,313.237 208.213,380.763 208.213 C 446.805 208.213,454.735 208.072,455.729 206.875 C 456.693 205.713,447.053 195.743,382.660 131.303 C 341.861 90.475,307.904 56.761,307.200 56.383 C 306.496 56.006,305.440 55.869,304.853 56.080 " stroke="none" fill-rule="evenodd" fill="black"></path></svg>