<svg xmlns="http://www.w3.org/2000/svg" width="512" height="512" viewBox="0 0 512 512"><path d="M206.568 17.539 C 187.521 21.669,169.974 37.378,163.406 56.178 C 160.563 64.313,159.589 74.055,159.580 94.418 L 159.573 111.610 129.067 112.021 C 95.870 112.467,92.789 112.842,82.906 117.629 C 66.501 125.576,54.670 139.640,49.776 157.013 C 48.290 162.288,48.213 169.506,48.213 304.213 C 48.213 438.921,48.290 446.139,49.776 451.413 C 56.077 473.782,73.526 490.399,95.402 494.864 C 98.493 495.495,131.732 495.787,200.439 495.787 C 297.685 495.787,301.168 495.732,307.533 494.104 C 318.228 491.369,325.324 487.160,334.099 478.346 C 342.682 469.725,346.810 462.905,349.891 452.253 C 351.510 446.656,351.794 443.047,352.195 423.040 L 352.652 400.213 381.051 400.213 C 417.947 400.213,424.763 398.985,437.505 390.036 C 449.090 381.900,457.122 371.010,461.782 357.120 L 463.787 351.147 464.025 257.948 C 464.286 156.240,464.401 158.965,459.425 149.146 C 456.666 143.701,454.977 141.922,390.565 76.605 C 335.989 21.263,334.745 20.147,324.680 17.526 C 317.587 15.678,215.095 15.689,206.568 17.539 M296.107 96.674 C 296.107 150.234,296.112 150.294,301.258 160.489 C 304.745 167.396,313.113 175.665,320.077 179.085 C 330.283 184.097,332.658 184.289,384.640 184.305 L 431.787 184.320 431.787 264.928 C 431.787 344.150,431.757 345.617,430.034 350.220 C 427.848 356.063,422.191 362.455,416.743 365.237 L 412.587 367.360 382.507 367.604 L 352.427 367.849 352.410 315.978 C 352.400 286.656,352.028 261.510,351.553 258.133 C 351.020 254.348,349.575 249.838,347.608 245.821 C 344.693 239.870,341.463 236.390,294.932 189.074 C 222.730 115.654,226.567 119.388,220.089 116.249 C 214.123 113.358,206.289 111.832,197.268 111.804 L 191.869 111.787 192.148 90.667 C 192.422 69.884,192.463 69.470,194.686 64.727 C 198.649 56.275,206.451 50.091,214.972 48.649 C 217.121 48.285,236.256 47.942,257.493 47.887 L 296.107 47.787 296.107 96.674 M418.945 151.253 C 418.968 151.605,400.709 151.893,378.369 151.893 C 333.418 151.893,333.488 151.901,330.142 146.415 C 328.631 143.936,328.541 141.394,328.562 101.547 L 328.584 59.307 373.744 104.960 C 398.582 130.069,418.923 150.901,418.945 151.253 M184.320 193.770 L 184.320 243.326 186.481 249.762 C 191.224 263.892,202.922 274.866,217.209 278.587 C 221.431 279.686,229.970 279.893,271.133 279.893 L 320.041 279.893 319.807 361.600 L 319.573 443.307 317.566 447.746 C 315.029 453.356,308.090 459.988,302.504 462.142 C 298.382 463.732,294.953 463.787,199.680 463.787 L 101.120 463.787 96.353 461.551 C 90.547 458.828,86.106 454.529,82.987 448.611 L 80.640 444.160 80.640 304.213 L 80.640 164.267 82.902 160.000 C 86.660 152.911,93.389 147.241,100.693 145.011 C 101.867 144.653,121.163 144.327,143.573 144.287 L 184.320 144.213 184.320 193.770 M261.973 201.245 C 286.613 226.276,306.905 247.119,307.066 247.562 C 307.247 248.062,291.658 248.278,265.954 248.130 C 225.658 247.900,224.487 247.846,222.194 246.134 C 220.899 245.166,219.047 243.314,218.079 242.019 C 216.366 239.724,216.314 238.564,216.083 197.406 C 215.953 174.165,216.145 155.280,216.510 155.441 C 216.875 155.602,237.333 176.214,261.973 201.245 " stroke="none" fill-rule="evenodd" fill="black"></path></svg>