<svg xmlns="http://www.w3.org/2000/svg" viewBox="0 0 512 512"><path d="M130.018 33.701 C 108.584 38.362,90.664 54.639,83.036 76.373 L 80.640 83.200 80.640 256.000 L 80.640 428.800 83.036 435.627 C 86.605 445.795,91.520 453.510,99.346 461.227 C 110.539 472.263,122.080 477.730,138.050 479.560 C 148.102 480.712,363.898 480.712,373.950 479.560 C 389.920 477.730,401.461 472.263,412.654 461.227 C 420.484 453.506,425.406 445.782,428.966 435.627 L 431.360 428.800 431.594 327.792 C 431.763 254.595,431.566 226.469,430.878 225.640 C 430.101 224.704,416.348 224.444,355.124 224.208 C 288.100 223.949,279.833 223.770,275.633 222.489 C 259.385 217.531,247.086 205.515,241.805 189.440 C 240.375 185.086,240.243 179.327,239.986 109.693 C 239.794 57.747,239.425 34.299,238.790 33.533 C 237.437 31.904,137.575 32.057,130.018 33.701 M272.213 111.944 C 272.213 179.057,272.226 179.540,274.023 183.254 C 275.114 185.506,277.210 187.904,279.294 189.283 L 282.755 191.573 350.892 191.802 C 413.033 192.010,419.075 191.908,419.559 190.648 C 419.949 189.633,400.876 170.052,347.647 116.820 C 306.749 75.920,274.553 44.373,273.709 44.373 C 272.296 44.373,272.213 48.127,272.213 111.944 M270.507 242.374 C 285.982 246.907,298.449 259.759,302.516 275.373 C 303.342 278.543,303.787 284.339,303.787 291.920 C 303.787 303.298,303.834 303.600,305.707 304.102 C 306.763 304.385,308.631 304.622,309.859 304.628 C 313.435 304.647,323.802 310.319,327.265 314.152 C 329.006 316.079,331.636 320.199,333.109 323.308 L 335.787 328.960 336.073 356.137 C 336.260 373.915,336.023 385.244,335.387 388.895 C 332.897 403.194,322.711 413.247,308.327 415.603 C 301.855 416.663,210.145 416.663,203.673 415.603 C 189.289 413.247,179.103 403.194,176.613 388.895 C 175.977 385.244,175.740 373.915,175.927 356.137 L 176.213 328.960 178.891 323.308 C 180.364 320.199,182.994 316.079,184.735 314.152 C 188.198 310.319,198.565 304.647,202.141 304.628 C 203.369 304.622,205.237 304.385,206.293 304.102 C 208.166 303.600,208.213 303.298,208.213 291.920 C 208.213 284.339,208.658 278.543,209.484 275.373 C 216.284 249.266,243.601 234.493,270.507 242.374 M248.747 273.826 C 241.385 277.224,239.787 280.827,239.787 294.029 L 239.787 303.787 256.000 303.787 L 272.213 303.787 272.213 294.029 C 272.213 288.662,271.804 283.190,271.303 281.869 C 269.207 276.337,262.706 272.251,256.000 272.251 C 253.888 272.251,250.624 272.960,248.747 273.826 " stroke="none" fill-rule="evenodd" fill="black"></path></svg>