<svg xmlns="http://www.w3.org/2000/svg" width="512" height="512" viewBox="0 0 512 512"><path d="M147.627 17.019 C 122.254 21.765,103.834 41.254,97.580 69.973 C 96.105 76.746,96.000 82.568,96.000 157.867 C 96.000 233.866,96.091 238.801,97.576 243.616 C 99.765 250.711,102.463 254.987,108.217 260.475 C 114.206 266.187,120.228 269.363,128.319 271.078 C 138.564 273.248,149.950 271.059,158.396 265.296 C 162.725 262.342,169.422 254.994,171.495 250.925 C 175.897 242.281,175.787 244.671,175.787 157.555 C 175.787 76.686,175.782 76.476,173.977 72.746 C 171.294 67.204,166.628 64.427,160.000 64.427 C 153.372 64.427,148.706 67.204,146.023 72.746 C 144.219 76.473,144.213 76.748,144.213 154.323 C 144.213 237.561,144.259 236.625,140.075 238.865 C 137.204 240.401,133.384 239.932,130.821 237.727 L 128.427 235.667 128.427 157.300 C 128.427 73.700,128.392 74.450,132.674 65.400 C 138.728 52.603,151.090 46.246,165.432 48.555 C 177.958 50.573,185.617 57.922,190.002 72.132 C 191.481 76.928,191.573 81.947,191.573 157.867 C 191.573 233.902,191.482 238.848,189.980 244.480 C 182.710 271.727,162.983 287.725,136.582 287.786 C 125.931 287.810,119.779 286.487,110.995 282.285 C 100.886 277.449,92.877 269.289,87.518 258.366 C 80.539 244.138,80.790 246.508,80.259 189.867 C 79.840 145.190,79.628 139.232,78.374 136.960 C 75.480 131.714,69.402 127.981,63.814 128.019 C 57.378 128.062,50.501 133.374,48.599 139.772 C 47.943 141.978,47.769 157.764,48.022 192.000 C 48.410 244.360,48.500 245.586,53.005 259.389 C 57.828 274.170,68.073 289.681,79.503 299.509 C 92.802 310.945,102.712 315.235,126.048 319.659 L 127.937 320.017 128.188 382.088 L 128.439 444.160 130.451 450.133 C 134.766 462.947,141.644 473.292,150.980 481.011 C 158.145 486.936,163.425 489.943,171.947 492.951 L 178.773 495.360 293.120 495.592 C 421.749 495.852,414.125 496.202,427.947 489.405 C 444.554 481.238,457.267 465.890,462.244 448.000 C 463.694 442.785,463.787 436.067,463.787 335.787 L 463.787 229.120 461.896 223.111 C 460.856 219.806,458.423 214.622,456.489 211.591 C 451.505 203.783,308.265 60.539,300.435 55.534 C 289.502 48.546,288.317 48.372,249.151 47.984 L 214.568 47.642 212.651 44.311 C 209.539 38.904,200.557 29.875,194.049 25.612 C 184.537 19.382,175.976 16.928,162.560 16.584 C 156.459 16.428,149.739 16.624,147.627 17.019 M272.213 139.610 C 272.213 205.123,272.150 204.240,277.614 214.613 C 281.085 221.201,290.799 230.915,297.387 234.386 C 307.760 239.850,306.877 239.787,372.390 239.787 L 431.787 239.787 431.782 338.133 C 431.779 403.361,431.479 437.629,430.891 439.893 C 429.542 445.087,426.844 449.704,422.497 454.257 C 417.762 459.217,412.547 462.033,405.782 463.284 C 398.602 464.611,192.119 464.583,185.855 463.254 C 176.049 461.173,167.188 454.251,163.056 445.442 L 160.853 440.747 160.624 378.741 L 160.394 316.735 164.890 315.283 C 170.849 313.359,180.065 308.688,186.425 304.370 C 200.032 295.129,213.880 276.044,218.955 259.534 C 224.156 242.615,224.555 234.454,224.256 151.253 L 224.000 80.213 248.107 80.213 L 272.213 80.213 272.213 139.610 M363.856 208.008 C 334.882 208.150,317.795 207.915,315.678 207.345 C 311.762 206.291,307.688 203.040,305.676 199.365 C 304.353 196.949,304.191 192.197,303.976 149.760 L 303.739 102.827 356.245 155.307 L 408.752 207.787 363.856 208.008 " stroke="none" fill-rule="evenodd" fill="black"></path></svg>