<svg xmlns="http://www.w3.org/2000/svg" width="512" height="512" viewBox="0 0 512 512"><path d="M147.936 17.146 C 126.942 20.655,109.019 36.380,101.082 58.256 C 96.055 72.113,96.186 69.752,95.812 153.173 C 95.584 204.145,95.771 232.269,96.369 236.800 C 98.710 254.542,111.914 268.239,129.750 271.427 C 148.724 274.818,168.345 262.692,174.170 243.976 C 175.709 239.031,175.787 234.879,175.787 157.633 C 175.787 76.685,175.782 76.476,173.977 72.746 C 168.827 62.108,153.494 61.164,146.930 71.081 L 144.640 74.541 144.213 155.105 L 143.787 235.668 141.392 237.728 C 137.968 240.672,133.704 240.502,130.494 237.292 L 128.000 234.798 128.000 158.861 C 128.000 76.646,128.076 75.119,132.617 65.519 C 138.783 52.486,150.751 46.379,165.547 48.715 C 178.133 50.702,185.594 57.847,190.002 72.132 C 191.481 76.928,191.573 81.935,191.573 157.440 C 191.573 237.440,191.568 237.672,189.692 244.705 C 182.360 272.177,163.004 287.730,136.093 287.773 C 114.113 287.808,97.037 277.461,87.560 258.365 C 80.475 244.089,80.241 241.842,80.206 187.733 C 80.178 144.357,80.070 140.997,78.600 137.813 C 76.694 133.682,73.992 131.083,69.776 129.321 C 61.343 125.797,51.276 130.766,48.599 139.772 C 47.944 141.976,47.765 157.796,48.010 192.000 C 48.390 245.125,48.380 244.999,53.461 260.267 C 58.106 274.224,64.454 284.612,74.646 294.935 C 88.454 308.920,101.615 315.254,126.048 319.675 L 127.936 320.017 128.221 381.662 C 128.536 450.139,128.258 446.672,134.477 459.694 C 142.170 475.803,156.228 487.745,174.110 493.360 L 180.480 495.360 296.533 495.360 L 412.587 495.360 419.129 493.127 C 440.153 485.949,455.169 470.328,461.832 448.701 L 463.757 442.453 464.014 342.613 L 464.272 242.773 462.441 241.280 C 460.730 239.883,455.843 239.787,387.071 239.787 C 306.288 239.787,308.829 239.936,298.090 234.556 C 287.806 229.404,279.677 220.230,274.958 208.452 L 272.640 202.667 272.420 126.720 L 272.200 50.773 270.405 49.280 C 268.780 47.928,266.063 47.786,241.612 47.776 L 214.613 47.765 211.627 42.996 C 209.984 40.372,205.890 35.611,202.530 32.415 C 195.084 25.333,183.857 19.491,173.903 17.517 C 166.859 16.121,155.076 15.952,147.936 17.146 M304.356 61.156 C 303.331 62.180,303.701 192.936,304.738 196.674 C 305.946 201.024,310.976 206.054,315.326 207.262 C 317.666 207.911,339.149 208.205,384.536 208.209 C 443.164 208.213,450.472 208.068,451.457 206.880 C 452.416 205.726,442.866 195.847,380.102 133.067 C 340.248 93.203,307.029 60.587,306.282 60.587 C 305.536 60.587,304.668 60.843,304.356 61.156 " stroke="none" fill-rule="evenodd" fill="black"></path></svg>