<svg xmlns="http://www.w3.org/2000/svg" width="512" height="512" viewBox="0 0 512 512"><path d="M247.743 34.579 C 245.783 35.754,243.287 38.150,242.196 39.904 L 240.213 43.093 239.787 177.712 L 239.360 312.331 214.613 287.529 C 201.003 273.888,188.085 261.404,185.908 259.787 C 176.281 252.638,163.705 256.659,160.812 267.811 C 159.487 272.919,160.238 277.021,163.309 281.443 C 164.510 283.172,183.649 302.711,205.840 324.864 C 233.379 352.355,247.194 365.561,249.359 366.464 C 253.405 368.151,258.595 368.151,262.641 366.464 C 264.806 365.561,278.621 352.355,306.160 324.864 C 328.351 302.711,347.490 283.172,348.691 281.443 C 351.759 277.025,352.513 272.919,351.192 267.826 C 349.904 262.862,347.320 259.785,342.613 257.613 C 338.348 255.644,333.560 255.575,329.516 257.424 C 327.653 258.276,315.505 269.674,299.317 285.757 L 272.234 312.666 272.010 177.880 L 271.787 43.093 269.792 39.886 C 265.287 32.639,255.078 30.182,247.743 34.579 M121.840 161.752 C 111.341 164.297,98.744 172.645,91.835 181.634 C 86.862 188.104,83.850 194.266,81.864 202.032 C 80.273 208.252,80.213 212.537,80.213 320.000 C 80.213 427.463,80.273 431.748,81.864 437.968 C 86.860 457.502,102.001 472.751,122.041 478.432 C 127.300 479.922,133.929 480.000,256.000 480.000 C 378.071 480.000,384.700 479.922,389.959 478.432 C 409.904 472.778,425.151 457.461,430.101 438.105 C 431.737 431.706,431.787 428.258,431.787 320.000 C 431.787 212.537,431.727 208.252,430.136 202.032 C 426.144 186.422,415.275 173.111,400.427 165.644 C 390.741 160.773,386.912 160.331,356.774 160.606 L 329.677 160.853 326.453 163.314 C 321.026 167.455,318.605 175.388,320.906 181.491 C 321.886 184.091,326.213 188.973,328.960 190.577 C 330.112 191.250,339.120 191.713,356.693 192.003 C 381.630 192.415,382.871 192.514,386.324 194.356 C 391.213 196.964,395.791 201.708,397.975 206.430 L 399.787 210.347 399.787 320.000 L 399.787 429.653 397.975 433.570 C 395.792 438.289,391.215 443.034,386.324 445.648 L 382.720 447.573 256.000 447.573 L 129.280 447.573 125.676 445.648 C 120.785 443.034,116.208 438.289,114.025 433.570 L 112.213 429.653 112.213 320.000 L 112.213 210.347 114.025 206.430 C 116.209 201.708,120.787 196.964,125.676 194.356 C 129.129 192.514,130.370 192.415,155.307 192.003 C 172.880 191.713,181.888 191.250,183.040 190.577 C 185.787 188.973,190.114 184.091,191.094 181.491 C 192.374 178.096,192.218 173.694,190.687 170.030 C 188.994 165.977,187.198 164.038,183.287 162.043 C 180.370 160.554,178.020 160.432,153.421 160.498 C 133.785 160.550,125.429 160.882,121.840 161.752 " stroke="none" fill-rule="evenodd" fill="black"></path></svg>