<svg xmlns="http://www.w3.org/2000/svg" width="512" height="512" viewBox="0 0 512 512"><path d="M86.613 34.213 C 63.061 39.952,43.429 58.290,35.541 81.920 C 31.564 93.835,31.458 97.755,31.758 221.867 L 32.040 338.347 33.979 345.173 C 36.235 353.114,40.549 362.646,44.502 368.422 C 52.360 379.905,65.383 390.285,77.867 395.015 L 80.213 395.904 80.225 273.686 C 80.235 157.854,80.319 151.064,81.824 143.772 C 88.226 112.752,112.752 88.226,143.772 81.824 C 151.064 80.319,157.854 80.235,273.686 80.225 L 395.904 80.213 395.015 77.867 C 388.395 60.395,373.344 45.052,355.601 37.687 C 342.356 32.190,348.592 32.420,214.863 32.488 C 97.514 32.548,93.211 32.606,86.613 34.213 M177.920 112.342 C 168.821 113.500,163.422 114.795,157.263 117.296 C 138.903 124.753,123.909 139.843,116.964 157.853 C 111.573 171.830,111.722 167.597,111.987 299.587 L 112.228 419.413 114.101 425.831 C 121.822 452.282,140.302 470.587,166.827 478.055 L 173.653 479.977 290.133 480.248 C 372.137 480.438,409.094 480.235,414.996 479.563 C 449.905 475.586,475.581 449.910,479.564 414.996 C 480.239 409.085,480.440 372.267,480.246 290.133 L 479.971 173.653 478.052 166.827 C 471.806 144.609,457.964 128.126,437.626 118.686 C 422.838 111.822,433.106 112.308,299.520 112.154 C 234.048 112.079,179.328 112.163,177.920 112.342 M303.967 202.444 C 305.979 203.575,308.291 205.927,309.630 208.204 L 311.893 212.053 312.160 245.929 L 312.426 279.804 346.720 280.062 L 381.013 280.320 384.538 282.613 C 392.046 287.497,393.990 298.535,388.532 305.288 C 383.055 312.065,384.303 311.862,346.293 312.152 L 312.427 312.410 312.142 345.858 C 311.929 370.769,311.575 379.960,310.754 381.867 C 305.659 393.698,289.931 395.168,282.682 384.491 L 280.320 381.013 280.062 346.703 L 279.804 312.393 245.929 312.143 C 212.183 311.894,212.040 311.886,208.566 309.895 C 203.487 306.983,200.533 301.996,200.533 296.329 C 200.533 291.480,202.479 286.603,205.506 283.866 C 209.537 280.220,212.159 279.970,246.790 279.931 L 279.820 279.893 280.070 245.973 L 280.320 212.053 282.456 208.239 C 286.585 200.865,296.436 198.211,303.967 202.444 " stroke="none" fill-rule="evenodd" fill="black"></path></svg>