<svg xmlns="http://www.w3.org/2000/svg" width="512" height="512" viewBox="0 0 512 512"><path d="M55.711 33.665 C 43.445 37.498,34.393 48.336,32.351 61.633 C 31.840 64.964,31.618 126.316,31.764 224.000 L 32.000 381.013 34.017 385.474 C 35.126 387.927,37.692 391.463,39.719 393.332 C 45.948 399.073,48.007 399.617,65.057 400.020 L 80.194 400.379 80.417 252.029 L 80.640 103.680 82.934 98.785 C 85.865 92.532,92.532 85.865,98.785 82.934 L 103.680 80.640 252.029 80.417 L 400.379 80.194 400.020 65.057 C 399.620 48.149,399.084 46.058,393.581 39.954 C 391.831 38.013,388.480 35.530,386.133 34.434 L 381.867 32.443 220.587 32.492 C 89.684 32.532,58.629 32.753,55.711 33.665 M130.599 112.712 C 126.054 113.611,119.937 117.626,116.668 121.857 C 111.466 128.588,111.744 118.145,111.989 297.855 C 112.202 453.665,112.292 462.247,113.742 465.338 C 116.074 470.307,121.569 475.742,126.526 477.983 L 130.987 480.000 296.107 480.000 L 461.227 480.000 466.075 477.619 C 471.568 474.922,475.576 470.787,478.203 465.110 L 480.000 461.227 480.000 296.533 C 480.000 137.037,479.949 131.708,478.386 127.656 C 476.308 122.267,471.846 117.368,466.401 114.494 L 462.080 112.213 298.240 112.087 C 206.669 112.016,132.724 112.292,130.599 112.712 M312.320 240.213 L 312.320 279.893 352.000 279.893 L 391.680 279.893 391.680 296.107 L 391.680 312.320 352.008 312.320 L 312.337 312.320 312.115 352.213 L 311.893 392.107 296.107 392.107 L 280.320 392.107 280.098 352.213 L 279.876 312.320 240.205 312.320 L 200.533 312.320 200.533 296.107 L 200.533 279.893 240.213 279.893 L 279.893 279.893 279.893 240.213 L 279.893 200.533 296.107 200.533 L 312.320 200.533 312.320 240.213 " stroke="none" fill-rule="evenodd" fill="black"></path></svg>