<svg xmlns="http://www.w3.org/2000/svg" width="512" height="512" viewBox="0 0 512 512"><path d="M240.640 16.754 C 239.467 16.923,235.051 17.485,230.827 18.002 C 210.094 20.540,185.422 29.313,165.675 41.167 C 125.929 65.027,97.150 103.562,85.690 148.271 C 80.034 170.335,80.153 166.971,80.409 296.976 L 80.640 414.293 82.920 422.545 C 87.648 439.655,95.498 453.674,107.222 465.946 C 116.087 475.225,123.159 480.446,134.400 486.012 C 147.142 492.321,157.661 494.994,171.947 495.550 C 188.764 496.206,202.903 492.931,219.733 484.483 C 237.748 475.440,249.913 465.799,277.680 438.558 C 345.554 371.969,384.860 323.429,408.235 277.333 C 419.181 255.749,425.530 238.269,429.313 219.307 C 431.592 207.880,432.405 185.616,430.997 173.206 C 427.251 140.201,414.525 109.500,393.580 82.943 C 387.373 75.074,373.238 60.884,365.227 54.481 C 339.561 33.967,307.339 20.683,274.594 17.116 C 266.898 16.278,245.515 16.050,240.640 16.754 M282.453 83.054 C 324.238 92.908,355.440 122.412,365.306 161.397 C 366.701 166.911,367.212 172.171,367.552 184.533 L 367.992 200.533 352.215 200.533 L 336.438 200.533 335.976 187.093 C 335.433 171.312,334.187 165.666,328.869 154.880 C 322.558 142.079,312.677 131.509,300.063 124.066 C 267.790 105.022,225.701 109.170,198.443 134.083 C 189.073 142.646,181.314 155.503,177.909 168.107 C 176.750 172.396,176.319 178.248,176.010 193.920 C 175.789 205.067,175.763 214.187,175.951 214.187 C 176.139 214.187,179.830 213.415,184.152 212.471 C 203.351 208.281,240.149 206.658,251.341 209.509 C 268.294 213.826,281.960 227.493,286.278 244.446 C 288.887 254.688,287.536 267.326,282.783 277.136 C 281.585 279.609,276.613 286.493,271.733 292.433 C 260.075 306.624,247.911 323.495,243.540 331.535 C 241.519 335.251,239.038 341.731,237.694 346.803 L 235.358 355.615 222.852 352.302 C 215.974 350.480,209.195 348.673,207.787 348.286 C 205.604 347.686,205.255 347.209,205.422 345.043 C 205.763 340.595,209.918 327.471,213.052 320.938 C 217.246 312.194,231.075 291.923,242.092 278.370 C 254.570 263.019,254.977 262.406,255.644 257.963 C 256.455 252.554,254.093 247.097,249.388 243.508 C 244.770 239.986,239.961 239.362,223.157 240.106 C 204.015 240.954,188.386 243.464,179.083 247.186 L 175.787 248.505 175.787 284.253 L 175.787 320.000 159.969 320.000 L 144.152 320.000 144.409 244.267 L 144.666 168.533 146.907 160.384 C 157.784 120.832,189.656 91.417,230.896 82.866 C 243.127 80.330,243.114 80.331,258.987 80.649 C 270.716 80.885,275.209 81.345,282.453 83.054 " stroke="none" fill-rule="evenodd" fill="black"></path></svg>