<svg xmlns="http://www.w3.org/2000/svg" width="512" height="512" viewBox="0 0 512 512"><path d="M239.787 16.737 C 221.640 18.937,205.939 22.622,192.849 27.753 C 132.982 51.221,91.308 103.445,81.873 166.827 C 80.303 177.371,80.221 183.602,80.217 292.795 C 80.214 391.826,80.392 408.697,81.512 415.118 C 86.630 444.467,105.415 470.607,131.413 484.557 C 145.813 492.283,159.984 495.787,176.837 495.787 C 211.701 495.787,240.898 481.293,263.611 452.711 C 266.374 449.235,274.880 435.921,282.515 423.124 C 290.149 410.328,299.468 395.261,303.224 389.643 C 316.997 369.038,330.981 353.820,346.027 343.062 C 358.771 333.950,365.185 328.633,375.345 318.755 C 404.003 290.896,421.326 260.328,428.802 224.427 C 431.870 209.689,432.639 186.218,430.580 170.096 C 420.670 92.505,361.790 31.466,284.160 18.308 C 276.372 16.988,246.454 15.928,239.787 16.737 M275.627 49.616 C 331.963 56.529,380.844 99.911,395.197 155.733 C 400.300 175.580,401.073 199.946,397.204 218.959 C 393.721 236.073,384.288 257.243,373.095 273.067 C 363.987 285.941,346.074 303.347,328.533 316.365 C 300.168 337.418,286.225 354.430,256.419 404.357 C 241.733 428.957,238.215 433.991,229.882 442.323 C 210.238 461.967,180.328 469.190,155.041 460.396 C 135.550 453.618,118.566 434.505,113.726 413.904 C 112.318 407.912,112.213 399.614,112.213 293.973 C 112.213 172.559,112.151 174.551,116.531 157.013 C 132.958 91.239,193.749 45.582,261.120 48.420 C 265.109 48.588,271.637 49.126,275.627 49.616 M235.840 81.874 C 224.211 83.922,216.304 86.415,205.925 91.305 C 173.725 106.479,151.847 134.029,145.522 167.367 C 144.416 173.200,144.213 184.579,144.213 240.892 C 144.213 307.039,144.226 307.541,146.023 311.254 C 151.173 321.891,166.505 322.836,173.070 312.921 L 175.360 309.462 175.787 278.733 L 176.213 248.004 180.907 246.375 C 197.642 240.565,239.301 237.697,247.251 241.808 C 250.831 243.660,253.967 247.917,255.202 252.602 C 256.679 258.205,255.271 262.201,249.331 269.265 C 226.629 296.259,209.582 322.958,208.410 333.353 C 207.440 341.956,211.681 348.803,219.398 351.095 C 228.204 353.710,236.567 348.823,239.968 339.075 C 242.982 330.432,257.054 309.992,273.368 290.560 C 283.776 278.162,287.544 269.091,287.563 256.393 C 287.596 234.142,272.784 214.970,251.341 209.509 C 245.285 207.966,220.152 207.728,206.384 209.083 C 198.491 209.859,182.839 212.469,177.707 213.864 L 175.787 214.386 175.794 199.566 C 175.798 191.415,176.193 181.325,176.672 177.144 C 181.250 137.176,220.253 108.555,264.471 112.715 C 295.968 115.679,323.148 135.852,332.275 163.038 C 333.475 166.614,334.966 174.104,335.636 179.923 C 336.715 189.296,337.101 190.709,339.360 193.537 C 342.685 197.699,346.757 199.677,352.000 199.677 C 357.285 199.677,361.317 197.696,364.739 193.415 C 367.138 190.415,367.385 189.507,367.653 182.684 C 368.331 165.417,361.570 144.670,349.561 127.162 C 337.237 109.195,313.692 92.279,291.413 85.385 C 274.940 80.288,252.794 78.889,235.840 81.874 " stroke="none" fill-rule="evenodd" fill="black"></path></svg>