<svg xmlns="http://www.w3.org/2000/svg" width="512" height="512" viewBox="0 0 512 512"><path d="M240.640 16.698 C 239.467 16.898,235.051 17.485,230.827 18.002 C 210.094 20.540,185.422 29.313,165.675 41.167 C 125.929 65.027,97.150 103.562,85.690 148.271 C 80.034 170.335,80.153 166.971,80.409 296.976 L 80.640 414.293 82.920 422.545 C 87.648 439.655,95.498 453.674,107.222 465.946 C 116.087 475.225,123.159 480.446,134.400 486.012 C 147.716 492.606,157.598 495.028,173.382 495.567 C 209.776 496.809,240.037 482.377,263.838 452.425 C 266.595 448.957,275.046 435.694,282.619 422.953 C 290.192 410.211,299.361 395.339,302.995 389.903 C 316.874 369.141,330.912 353.863,346.027 343.069 C 370.414 325.653,389.537 306.316,403.862 284.587 C 410.774 274.102,420.039 254.970,423.698 243.627 C 429.011 227.152,431.040 215.001,431.534 196.693 C 432.050 177.556,430.765 165.649,426.310 148.271 C 414.850 103.562,386.071 65.027,346.325 41.167 C 327.320 29.758,306.401 22.064,284.160 18.304 C 276.482 17.006,245.523 15.863,240.640 16.698 M282.453 83.054 C 330.792 94.453,365.066 132.687,367.513 177.938 C 367.972 186.434,367.846 187.686,366.205 190.902 C 365.206 192.859,362.975 195.539,361.248 196.857 C 358.481 198.967,357.377 199.253,352.000 199.253 C 346.623 199.253,345.519 198.967,342.752 196.857 C 338.304 193.465,336.544 189.386,335.928 181.044 C 335.181 170.948,333.230 163.710,328.873 154.880 C 322.553 142.074,312.674 131.507,300.063 124.066 C 267.790 105.022,225.701 109.170,198.443 134.083 C 189.073 142.646,181.314 155.503,177.909 168.107 C 176.748 172.401,176.319 178.256,176.008 194.035 L 175.606 214.417 178.043 213.796 C 184.449 212.164,197.563 209.932,205.530 209.117 C 219.126 207.727,245.220 207.950,251.341 209.509 C 268.294 213.826,281.960 227.493,286.278 244.446 C 287.932 250.942,287.935 261.041,286.284 267.554 C 284.261 275.535,280.773 281.473,271.444 292.827 C 256.759 310.697,246.941 324.802,241.503 335.841 C 236.048 346.916,235.003 348.247,230.183 350.261 C 220.420 354.340,209.608 348.000,208.425 337.502 C 207.340 327.875,219.777 306.023,241.950 278.597 C 254.651 262.887,254.979 262.393,255.644 257.963 C 256.455 252.554,254.093 247.097,249.388 243.508 C 244.774 239.989,239.963 239.363,223.148 240.092 C 204.181 240.915,188.411 243.454,179.083 247.186 L 175.787 248.505 175.787 278.010 C 175.787 306.332,175.714 307.664,173.977 311.254 C 171.294 316.796,166.628 319.573,160.000 319.573 C 153.340 319.573,148.709 316.800,145.990 311.185 L 144.147 307.377 144.409 237.955 L 144.672 168.533 146.910 160.384 C 157.770 120.846,189.655 91.417,230.896 82.866 C 243.127 80.330,243.114 80.331,258.987 80.649 C 270.716 80.885,275.209 81.345,282.453 83.054 " stroke="none" fill-rule="evenodd" fill="black"></path></svg>