<svg xmlns="http://www.w3.org/2000/svg" width="512" height="512" viewBox="0 0 512 512"><path d="M233.387 32.500 C 189.586 36.992,148.156 54.039,113.920 81.657 C 95.683 96.369,74.997 120.185,63.124 140.137 C 42.066 175.526,31.546 213.606,31.468 254.720 C 31.401 289.673,38.427 321.013,53.273 352.000 C 85.525 419.311,149.131 466.717,222.720 478.288 C 276.400 486.729,334.011 474.237,379.408 444.313 C 434.971 407.688,470.339 350.740,479.137 283.733 C 480.708 271.768,480.945 245.767,479.593 233.813 C 471.862 165.501,436.254 107.190,378.741 68.658 C 367.899 61.394,344.398 49.493,331.642 44.807 C 315.748 38.968,294.873 34.354,275.750 32.452 C 265.622 31.445,243.432 31.470,233.387 32.500 M279.040 65.778 C 300.673 68.261,321.331 74.560,342.177 85.030 C 349.927 88.922,357.419 93.064,358.827 94.236 L 361.387 96.365 358.746 96.396 C 355.162 96.438,346.321 102.273,343.095 106.726 C 336.486 115.850,339.860 121.738,352.604 123.317 C 359.024 124.113,365.313 122.574,368.746 119.368 C 371.208 117.068,371.380 116.542,371.027 112.413 C 370.817 109.957,369.692 105.967,368.526 103.548 L 366.407 99.149 369.443 101.377 C 372.085 103.314,380.256 109.840,382.706 111.969 C 383.221 112.416,381.037 115.088,377.058 118.878 C 373.490 122.277,369.197 127.203,367.520 129.826 C 363.364 136.323,360.205 138.768,354.357 140.014 C 347.922 141.386,344.262 143.636,343.115 146.924 C 340.381 154.767,344.332 163.889,351.965 167.356 C 358.327 170.246,368.492 169.052,374.609 164.696 C 375.953 163.739,379.196 159.897,381.816 156.158 C 384.436 152.419,387.521 148.743,388.671 147.990 C 392.148 145.711,396.923 145.517,401.345 147.473 C 405.832 149.458,408.377 152.955,409.168 158.222 C 410.255 165.462,410.646 166.525,412.543 167.389 C 414.048 168.074,415.237 167.878,417.952 166.493 C 419.865 165.516,421.672 164.328,421.966 163.852 C 423.144 161.946,424.271 163.360,428.405 171.930 C 433.222 181.916,433.227 181.776,427.799 187.785 C 422.017 194.184,416.525 192.998,404.907 182.840 C 392.238 171.763,387.285 170.711,365.403 174.454 C 343.723 178.161,340.356 179.971,331.324 192.772 C 328.146 197.276,322.781 203.933,319.400 207.567 C 309.628 218.070,306.282 225.026,306.248 234.910 C 306.197 249.383,315.872 264.486,330.025 272.030 C 340.425 277.573,352.376 278.900,367.360 276.175 C 377.144 274.396,385.015 274.372,388.376 276.110 C 392.093 278.032,394.197 283.228,394.228 290.560 C 394.261 298.550,395.506 305.883,398.574 316.160 C 400.575 322.865,401.395 328.075,402.404 340.480 C 403.111 349.163,404.443 359.975,405.364 364.507 C 406.286 369.040,407.040 373.158,407.040 373.659 C 407.040 375.028,397.392 386.110,389.605 393.683 C 358.869 423.577,318.617 442.412,275.447 447.100 C 261.194 448.648,235.497 447.981,226.225 445.822 C 224.243 445.360,224.199 445.170,224.706 439.207 C 225.554 429.213,229.918 417.588,236.834 406.896 C 242.870 397.567,246.872 393.199,258.717 383.020 C 272.767 370.945,279.008 364.048,282.757 356.453 C 287.229 347.395,288.758 340.700,288.746 330.240 C 288.728 314.976,285.121 306.550,275.089 298.337 C 270.003 294.174,265.977 291.750,247.361 281.643 C 239.673 277.469,235.289 274.348,223.003 264.305 C 214.830 257.624,211.891 256.564,199.680 255.895 C 192.258 255.489,187.480 254.767,183.973 253.522 C 174.977 250.329,172.894 250.783,157.867 259.209 C 148.248 264.602,141.779 263.519,132.661 254.990 C 125.517 248.307,122.027 241.548,122.027 234.398 C 122.027 229.584,122.218 229.100,125.271 226.196 C 129.389 222.279,133.240 221.053,143.360 220.438 C 153.160 219.843,155.424 220.613,162.262 226.862 C 167.831 231.952,171.928 233.951,174.664 232.911 C 177.798 231.721,178.608 229.060,178.004 221.943 C 176.340 202.335,176.328 202.885,178.478 199.734 C 179.579 198.121,183.673 194.089,187.575 190.774 C 191.477 187.459,195.479 183.453,196.470 181.871 C 198.646 178.396,198.900 172.465,197.191 165.078 C 195.566 158.057,196.339 155.731,202.137 150.187 C 208.727 143.886,213.597 141.409,226.647 137.719 C 251.832 130.599,254.397 125.826,241.593 109.913 C 235.542 102.393,230.829 98.375,226.175 96.772 C 220.750 94.903,217.376 96.423,209.067 104.477 C 199.602 113.651,194.096 116.411,185.173 116.451 C 178.197 116.483,175.533 115.259,172.872 110.802 C 170.420 106.694,171.107 105.109,178.347 98.184 C 185.848 91.008,186.485 89.272,183.893 83.068 C 183.189 81.383,182.613 79.695,182.613 79.317 C 182.613 78.939,184.774 77.821,187.416 76.832 C 192.031 75.106,192.365 75.092,195.971 76.469 C 198.942 77.603,201.232 77.786,206.968 77.345 C 215.698 76.674,217.639 77.356,224.853 83.629 C 233.964 91.551,241.722 93.870,248.976 90.839 C 257.415 87.313,260.358 80.128,258.298 68.076 L 257.609 64.046 264.698 64.496 C 268.597 64.743,275.051 65.320,279.040 65.778 M73.388 211.401 C 74.561 213.624,78.727 220.824,82.647 227.401 C 86.567 233.979,91.512 242.810,93.636 247.026 C 95.760 251.243,98.430 255.914,99.569 257.408 C 102.683 261.491,109.488 265.703,119.467 269.723 C 134.448 275.757,139.252 279.583,143.548 288.900 C 145.372 292.857,145.498 294.263,145.572 311.467 C 145.694 339.689,147.028 342.623,165.380 355.035 C 177.958 363.542,182.354 370.640,183.846 384.853 C 185.474 400.362,187.194 412.086,189.525 423.559 C 190.941 430.532,191.922 436.415,191.705 436.632 C 190.202 438.136,162.791 424.501,149.661 415.718 C 103.990 385.168,74.437 338.393,66.000 283.307 C 64.212 271.632,63.950 242.336,65.538 231.680 C 66.988 221.950,70.100 207.360,70.726 207.360 C 71.018 207.360,72.216 209.179,73.388 211.401 " stroke="none" fill-rule="evenodd" fill="black"></path></svg>