<svg xmlns="http://www.w3.org/2000/svg" width="512" height="512" viewBox="0 0 512 512"><path d="M235.947 32.932 C 234.539 33.125,228.779 33.895,223.147 34.643 C 174.285 41.130,124.739 67.476,90.534 105.158 C 59.168 139.711,40.014 181.203,33.687 228.300 C 32.038 240.579,31.799 267.116,33.223 279.893 C 41.717 356.096,87.934 422.350,156.587 456.740 C 205.413 481.198,264.333 486.510,317.848 471.280 C 391.179 450.409,450.409 391.179,471.280 317.848 C 482.692 277.750,482.692 234.250,471.280 194.152 C 449.641 118.120,387.196 57.812,310.550 38.921 C 291.116 34.131,282.765 33.139,259.413 32.845 C 247.915 32.700,237.355 32.740,235.947 32.932 M278.209 73.427 C 290.315 74.924,301.952 77.557,313.646 81.448 C 324.846 85.174,343.893 93.559,343.893 94.763 C 343.893 95.119,342.323 98.683,340.403 102.683 C 338.148 107.383,337.104 110.560,337.453 111.660 C 338.022 113.451,349.638 121.173,351.764 121.173 C 352.445 121.173,356.128 118.455,359.947 115.133 L 366.892 109.092 372.886 114.023 C 376.183 116.735,378.880 119.036,378.880 119.137 C 378.880 119.237,376.426 121.273,373.426 123.660 L 367.971 128.000 359.073 128.000 L 350.176 128.000 342.768 135.570 C 338.693 139.734,335.360 143.646,335.360 144.265 C 335.360 144.883,338.743 148.773,342.879 152.908 L 350.397 160.427 382.043 160.427 L 413.688 160.427 420.163 173.440 C 423.724 180.597,426.877 187.509,427.171 188.800 L 427.705 191.147 422.017 191.147 C 416.378 191.147,416.218 191.081,403.440 183.467 L 390.551 175.787 371.530 175.787 L 352.510 175.787 328.656 191.643 C 312.585 202.326,304.641 208.103,304.306 209.349 C 304.033 210.367,303.805 220.853,303.798 232.652 C 303.788 251.849,303.944 254.291,305.280 255.877 C 306.101 256.853,319.829 264.588,335.787 273.067 C 351.744 281.546,365.472 289.281,366.293 290.256 C 367.573 291.775,367.787 293.894,367.787 305.067 C 367.787 316.252,367.999 318.351,369.280 319.843 C 370.101 320.799,376.149 324.538,382.720 328.152 C 389.291 331.765,395.147 335.323,395.733 336.057 C 396.514 337.034,396.800 342.422,396.800 356.134 L 396.800 374.875 387.200 384.615 C 371.517 400.527,357.086 411.053,337.839 420.618 C 308.941 434.979,274.978 441.905,244.849 439.581 C 238.170 439.066,232.600 438.538,232.469 438.407 C 232.181 438.118,239.425 404.573,240.165 402.773 C 240.454 402.069,251.207 394.056,264.059 384.966 C 278.927 374.450,287.605 367.777,287.915 366.619 C 288.759 363.474,288.481 306.335,287.614 304.715 C 287.166 303.880,272.635 292.577,255.322 279.598 L 223.843 256.000 208.215 256.000 L 192.588 256.000 184.233 247.893 L 175.879 239.787 147.337 239.787 C 122.099 239.787,118.736 239.630,118.278 238.437 C 117.178 235.569,117.925 234.024,122.691 229.307 L 127.623 224.427 144.751 224.427 C 155.085 224.427,162.955 224.052,164.592 223.481 C 168.110 222.255,169.094 220.209,173.168 205.650 C 175.030 199.001,177.033 192.981,177.621 192.273 C 178.209 191.564,184.706 187.972,192.060 184.290 C 199.413 180.608,206.056 176.969,206.821 176.203 C 207.897 175.127,208.213 173.108,208.213 167.304 L 208.213 159.796 216.170 148.379 L 224.126 136.962 235.156 132.861 C 241.223 130.605,246.667 128.131,247.253 127.363 C 248.364 125.910,248.743 115.588,247.778 113.075 C 247.480 112.298,242.040 108.185,235.689 103.934 L 224.141 96.205 208.425 103.985 C 190.383 112.917,192.691 112.888,182.275 104.309 C 173.903 97.413,173.817 96.275,181.271 90.956 C 184.287 88.804,187.343 86.455,188.061 85.737 C 188.780 85.019,191.888 83.482,194.970 82.322 C 199.952 80.447,201.894 80.213,212.511 80.213 L 224.449 80.213 236.256 86.128 L 248.062 92.042 257.791 86.499 C 263.142 83.450,267.861 80.621,268.277 80.211 C 268.718 79.778,268.667 78.017,268.155 76.000 C 267.120 71.922,266.766 72.013,278.209 73.427 M85.677 245.080 L 96.000 264.051 115.627 275.790 C 129.406 284.031,135.444 288.107,135.895 289.471 C 136.247 290.539,138.074 302.933,139.955 317.013 C 141.835 331.093,143.559 343.434,143.785 344.437 C 144.057 345.639,149.581 349.948,159.990 357.079 C 170.446 364.242,175.936 368.527,176.238 369.762 C 179.529 383.232,188.071 426.667,187.429 426.667 C 186.959 426.667,181.530 424.207,175.365 421.200 C 126.373 397.306,90.266 352.456,77.352 299.451 C 73.950 285.487,72.533 272.818,72.533 256.347 C 72.533 242.603,73.936 224.692,74.935 225.690 C 75.165 225.921,80.000 234.647,85.677 245.080 " stroke="none" fill-rule="evenodd" fill="black"></path></svg>