<svg xmlns="http://www.w3.org/2000/svg" width="512" height="512" viewBox="0 0 512 512"><path d="M231.253 33.392 C 214.898 35.057,192.680 40.401,176.511 46.559 C 156.296 54.258,131.841 68.384,114.508 82.373 C 92.069 100.483,71.148 126.126,57.570 152.164 C 42.512 181.038,34.416 210.416,32.447 243.324 C 27.706 322.548,65.877 398.519,132.782 443.018 C 213.296 496.567,320.614 491.418,396.524 430.364 C 473.098 368.774,500.486 263.737,463.793 172.373 C 435.781 102.626,373.348 50.940,299.520 36.379 C 293.653 35.221,284.659 33.859,279.532 33.351 C 268.795 32.286,241.887 32.309,231.253 33.392 M284.160 66.231 C 308.093 69.644,333.178 78.519,354.145 90.991 L 361.004 95.071 357.645 96.063 C 349.187 98.560,339.627 108.409,339.627 114.624 C 339.627 119.741,346.093 123.167,355.739 123.162 C 362.122 123.158,366.395 121.633,369.131 118.382 C 371.052 116.099,371.326 115.107,370.994 111.654 C 370.780 109.426,369.655 105.684,368.495 103.338 C 366.034 98.366,365.951 98.334,375.747 106.084 L 383.280 112.044 376.468 118.955 C 372.721 122.757,368.250 128.096,366.532 130.820 C 363.009 136.406,359.935 138.623,353.922 139.912 C 345.378 141.745,342.170 145.073,342.205 152.064 C 342.272 165.057,355.179 172.376,368.943 167.226 C 373.839 165.394,378.531 161.005,383.771 153.354 C 388.759 146.072,395.031 144.112,401.987 147.661 C 406.188 149.804,408.435 153.347,409.216 159.055 C 410.184 166.133,410.858 167.253,414.144 167.253 C 415.970 167.253,418.278 166.345,420.450 164.771 L 423.877 162.289 428.359 171.569 L 432.841 180.850 429.938 184.932 C 428.341 187.177,425.628 189.707,423.910 190.555 C 418.618 193.166,415.189 191.536,401.449 179.880 C 391.760 171.661,386.047 170.839,364.254 174.527 C 343.306 178.072,340.230 179.800,330.614 193.419 C 327.358 198.031,321.802 204.929,318.269 208.747 C 311.263 216.317,307.930 222.200,306.388 229.716 C 303.968 241.514,311.145 257.990,322.675 267.104 C 334.591 276.523,348.466 279.325,366.933 276.041 C 376.771 274.292,384.824 274.273,388.147 275.991 C 392.329 278.154,393.557 281.591,394.313 293.246 C 395.007 303.944,395.474 306.390,398.963 317.599 C 400.428 322.307,401.363 328.568,402.276 339.786 C 402.975 348.381,404.354 359.577,405.340 364.666 C 407.425 375.431,407.936 373.977,398.293 384.747 C 391.626 392.195,380.948 402.103,372.907 408.302 C 351.798 424.576,322.764 438.049,296.700 443.664 C 274.588 448.428,247.282 449.282,227.200 445.838 C 224.612 445.394,224.427 445.135,224.427 441.943 C 224.427 437.081,226.761 427.448,229.620 420.517 C 235.472 406.325,243.468 396.018,258.887 382.790 C 265.115 377.447,272.360 370.701,274.986 367.798 C 280.324 361.899,285.008 353.083,287.233 344.747 C 289.059 337.905,289.275 323.947,287.656 317.440 C 284.377 304.263,277.928 298.144,253.065 284.618 C 237.511 276.157,237.266 275.995,226.230 266.812 C 214.818 257.317,211.334 255.857,199.383 255.565 C 192.325 255.392,188.564 254.867,184.826 253.533 C 176.288 250.485,172.340 250.992,162.960 256.342 C 158.516 258.877,153.248 261.388,151.253 261.922 C 144.643 263.691,137.714 260.638,130.302 252.692 C 124.759 246.748,122.046 240.730,122.035 234.353 C 122.027 229.695,122.251 229.122,125.246 226.127 C 129.195 222.178,132.892 221.012,143.360 220.417 C 153.120 219.861,155.449 220.644,162.133 226.724 C 167.766 231.848,169.730 232.960,173.151 232.960 C 177.350 232.960,178.685 230.036,178.031 222.274 C 177.735 218.765,177.253 213.055,176.960 209.585 C 176.253 201.210,177.871 198.330,187.715 190.448 C 198.324 181.953,200.015 177.420,197.181 165.078 C 195.579 158.099,196.357 155.737,202.087 150.187 C 208.557 143.921,213.910 141.207,227.509 137.298 C 245.353 132.169,249.770 129.124,248.894 122.557 C 247.987 115.754,234.208 99.729,226.849 96.918 C 220.681 94.563,217.203 95.950,209.685 103.767 C 202.341 111.402,193.891 116.112,186.425 116.731 C 180.764 117.201,177.490 115.967,174.076 112.078 C 169.973 107.405,170.524 105.607,178.347 98.133 C 186.008 90.814,186.602 88.989,183.528 82.219 L 181.920 78.677 187.021 76.817 C 191.928 75.028,192.259 75.012,195.688 76.387 C 198.569 77.543,200.750 77.706,207.049 77.237 C 216.166 76.557,217.385 76.997,225.006 83.728 C 234.103 91.762,242.120 93.969,249.699 90.527 C 256.754 87.324,260.087 79.870,258.590 70.646 C 258.111 67.695,257.717 64.943,257.713 64.530 C 257.705 63.594,272.204 64.526,284.160 66.231 M142.494 121.379 C 144.823 127.594,149.258 133.495,155.572 138.782 C 162.886 144.905,163.944 147.018,163.967 155.559 C 163.988 163.066,163.018 166.421,159.441 171.215 C 151.428 181.952,147.341 186.851,146.091 187.218 C 145.293 187.453,142.144 188.068,139.093 188.584 C 136.043 189.101,127.979 191.016,121.173 192.839 C 113.374 194.929,107.887 195.972,106.330 195.661 C 101.347 194.665,97.863 189.743,92.582 176.239 L 87.670 163.678 89.636 160.132 C 99.018 143.212,116.966 121.940,133.120 108.598 L 139.520 103.312 140.089 109.896 C 140.402 113.517,141.484 118.684,142.494 121.379 M388.452 210.409 C 394.907 216.236,403.404 220.956,410.716 222.778 C 419.182 224.888,431.325 223.130,442.941 218.114 C 444.052 217.634,444.455 218.672,445.296 224.181 C 450.285 256.863,447.597 289.690,437.593 318.262 C 434.640 326.694,433.493 328.398,433.493 324.353 C 433.493 322.804,431.932 316.885,430.025 311.199 C 426.808 301.610,426.501 299.868,425.796 287.177 C 425.236 277.101,424.568 272.144,423.265 268.373 C 418.502 254.599,405.572 244.892,388.508 242.280 C 382.586 241.373,379.773 241.440,368.889 242.744 C 348.670 245.165,339.764 243.826,338.931 238.240 C 338.482 235.224,341.401 230.364,346.671 225.350 C 349.425 222.730,353.357 218.022,355.410 214.887 C 357.462 211.752,360.028 208.712,361.112 208.132 C 364.678 206.223,370.681 204.954,376.505 204.876 L 382.237 204.800 388.452 210.409 M72.769 209.841 C 73.602 211.651,77.578 218.649,81.603 225.393 C 85.628 232.136,90.827 241.441,93.157 246.070 C 100.018 259.703,104.192 263.333,120.637 269.964 C 134.355 275.496,139.000 279.276,143.274 288.388 C 145.438 293.002,145.495 293.576,145.580 311.467 C 145.676 331.944,146.487 336.619,151.032 342.893 C 153.479 346.272,155.422 347.852,169.238 357.708 C 179.640 365.129,182.406 371.276,184.746 392.173 C 186.200 405.154,189.435 424.356,191.529 432.427 C 192.212 435.058,192.353 436.907,191.871 436.907 C 190.149 436.907,175.816 430.599,166.665 425.814 C 130.606 406.961,101.475 376.878,83.616 340.053 C 74.384 321.016,69.249 304.480,65.995 283.307 C 63.966 270.100,63.966 241.410,65.997 228.693 C 67.839 217.151,70.128 206.501,70.759 206.529 C 71.031 206.541,71.935 208.031,72.769 209.841 M193.615 287.129 C 201.559 288.527,201.489 288.490,213.651 297.724 C 221.468 303.659,228.523 308.133,247.309 319.069 C 254.654 323.344,256.846 326.357,256.850 332.187 C 256.857 340.777,251.732 347.976,237.350 359.580 C 231.699 364.140,225.475 369.782,223.519 372.118 C 216.810 380.132,215.132 379.678,213.433 369.389 C 210.918 354.159,199.568 338.534,185.117 330.406 C 177.493 326.118,177.787 326.981,177.204 307.198 C 176.921 297.576,176.915 288.840,177.191 287.785 C 177.629 286.110,178.248 285.867,182.073 285.868 C 184.482 285.868,189.676 286.436,193.615 287.129 " stroke="none" fill-rule="evenodd" fill="black"></path></svg>