<svg xmlns="http://www.w3.org/2000/svg" width="512" height="512" viewBox="0 0 512 512"><path d="M233.813 48.213 L 233.813 64.000 137.587 64.000 C 45.350 64.000,41.237 64.066,38.387 65.590 C 36.751 66.464,34.645 68.480,33.707 70.070 C 32.018 72.929,32.000 74.492,32.000 215.893 C 32.000 351.879,32.075 358.963,33.535 361.638 C 34.379 363.184,36.299 365.198,37.801 366.115 C 40.410 367.705,42.372 367.780,81.280 367.783 C 103.691 367.785,122.027 367.944,122.027 368.136 C 122.027 368.328,114.923 391.055,106.240 418.640 C 97.557 446.226,90.453 469.210,90.453 469.715 C 90.453 470.503,123.473 479.712,125.867 479.593 C 126.336 479.569,134.349 455.267,143.674 425.588 C 152.999 395.909,160.955 370.763,161.353 369.707 L 162.078 367.787 197.946 367.787 L 233.813 367.787 233.813 399.787 L 233.813 431.787 256.000 431.787 L 278.187 431.787 278.187 399.787 L 278.187 367.787 313.969 367.787 C 347.308 367.787,349.782 367.889,350.201 369.280 C 350.447 370.101,357.394 395.134,365.636 424.907 C 373.879 454.681,380.759 479.177,380.926 479.343 C 381.376 479.793,415.880 471.752,416.727 471.000 C 417.250 470.536,396.215 392.102,389.448 369.280 C 389.030 367.872,391.369 367.786,430.236 367.783 C 469.624 367.780,471.589 367.706,474.199 366.115 C 475.701 365.198,477.621 363.184,478.465 361.638 C 479.925 358.963,480.000 351.879,480.000 215.893 C 480.000 74.492,479.982 72.929,478.293 70.070 C 477.355 68.480,475.249 66.464,473.613 65.590 C 470.763 64.066,466.650 64.000,374.413 64.000 L 278.187 64.000 278.187 48.213 L 278.187 32.427 256.000 32.427 L 233.813 32.427 233.813 48.213 M442.027 216.320 L 442.027 330.240 256.000 330.240 L 69.973 330.240 69.973 216.320 L 69.973 102.400 256.000 102.400 L 442.027 102.400 442.027 216.320 M87.893 216.320 L 87.893 312.320 256.000 312.320 L 424.107 312.320 424.107 216.320 L 424.107 120.320 256.000 120.320 L 87.893 120.320 87.893 216.320 " stroke="none" fill-rule="evenodd" fill="black"></path></svg>