<svg xmlns="http://www.w3.org/2000/svg" width="512" height="512" viewBox="0 0 512 512"><path d="M247.359 34.872 C 241.577 38.538,240.276 41.885,239.930 53.973 L 239.644 64.000 157.582 64.015 C 89.668 64.027,74.526 64.240,69.754 65.252 C 56.395 68.082,43.048 78.474,37.264 90.548 C 31.692 102.180,32.000 94.833,32.000 216.320 L 32.000 327.253 33.893 333.227 C 38.043 346.327,47.476 357.465,59.087 362.975 C 68.349 367.371,71.768 367.787,98.660 367.787 L 122.995 367.787 122.385 369.707 C 122.049 370.763,115.857 392.361,108.625 417.704 C 95.982 462.010,95.514 463.928,96.442 467.624 C 98.939 477.556,108.644 482.832,117.562 479.106 C 121.269 477.557,124.286 474.915,125.909 471.798 C 126.546 470.572,132.867 449.260,139.954 424.438 C 147.042 399.616,153.604 376.715,154.536 373.547 L 156.232 367.787 198.009 367.787 L 239.787 367.787 239.805 393.173 C 239.822 416.062,239.980 418.896,241.404 421.973 C 247.518 435.177,264.482 435.177,270.596 421.973 C 272.020 418.896,272.178 416.062,272.195 393.173 L 272.213 367.787 313.991 367.787 L 355.768 367.787 357.464 373.547 C 358.396 376.715,364.958 399.616,372.046 424.438 C 379.133 449.260,385.454 470.572,386.091 471.798 C 387.714 474.915,390.731 477.557,394.438 479.106 C 403.356 482.832,413.061 477.556,415.558 467.624 C 416.486 463.928,416.018 462.010,403.375 417.704 C 396.143 392.361,389.951 370.763,389.615 369.707 L 389.005 367.787 413.340 367.787 C 440.232 367.787,443.651 367.371,452.913 362.975 C 464.524 357.465,473.957 346.327,478.107 333.227 L 480.000 327.253 480.000 215.467 L 480.000 103.680 477.743 97.508 C 476.502 94.114,474.422 89.506,473.121 87.268 C 469.565 81.155,461.199 73.399,454.188 69.717 C 443.084 63.885,445.640 64.031,354.418 64.015 L 272.356 64.000 272.070 53.973 C 271.724 41.885,270.423 38.538,264.641 34.872 C 259.218 31.433,252.782 31.433,247.359 34.872 M439.287 98.043 C 443.198 100.038,444.994 101.977,446.687 106.030 C 447.845 108.801,448.000 121.784,448.000 215.893 C 448.000 310.289,447.847 322.980,446.679 325.776 C 444.917 329.992,442.318 332.694,438.187 334.600 C 434.903 336.116,428.005 336.176,256.000 336.176 C 83.995 336.176,77.097 336.116,73.813 334.600 C 69.682 332.694,67.083 329.992,65.321 325.776 C 64.152 322.979,64.002 310.299,64.019 215.707 C 64.037 113.796,64.111 108.640,65.605 105.387 C 67.308 101.678,69.007 99.936,72.960 97.848 C 75.273 96.626,92.938 96.492,255.821 96.461 C 431.097 96.428,436.210 96.472,439.287 98.043 M88.177 112.719 C 85.239 113.574,81.334 117.643,80.615 120.599 C 80.367 121.619,80.271 165.359,80.402 217.799 L 80.640 313.145 83.854 316.359 L 87.068 319.573 254.521 319.797 C 373.416 319.956,422.625 319.752,424.220 319.095 C 425.455 318.586,427.567 317.020,428.913 315.615 L 431.360 313.062 431.576 216.904 C 431.788 122.771,431.758 120.689,430.124 118.020 C 429.206 116.520,427.397 114.600,426.105 113.753 C 423.862 112.284,416.169 112.207,257.318 112.073 C 157.810 111.988,89.793 112.248,88.177 112.719 " stroke="none" fill-rule="evenodd" fill="black"></path></svg>