<svg xmlns="http://www.w3.org/2000/svg" width="512" height="512" viewBox="0 0 512 512"><path d="M247.743 34.579 C 241.564 38.283,240.261 41.439,239.912 53.547 L 239.611 64.000 157.566 64.015 C 67.138 64.031,68.752 63.945,58.027 69.325 C 50.737 72.981,41.190 82.338,37.730 89.218 C 31.569 101.466,32.000 91.917,32.000 216.320 L 32.000 328.107 34.215 334.590 C 39.538 350.172,52.587 362.498,68.013 366.516 C 71.799 367.502,78.514 367.787,97.977 367.787 C 117.694 367.787,122.975 368.015,122.656 368.853 C 122.432 369.440,116.216 391.076,108.842 416.934 C 95.903 462.313,95.471 464.079,96.445 467.693 C 97.726 472.453,103.300 478.182,107.881 479.446 C 114.298 481.218,122.898 477.634,125.828 471.967 C 126.510 470.649,132.867 449.260,139.954 424.438 C 147.042 399.616,153.604 376.715,154.536 373.547 L 156.232 367.787 198.009 367.787 L 239.787 367.787 239.805 393.173 C 239.822 416.062,239.980 418.896,241.404 421.973 C 247.518 435.177,264.482 435.177,270.596 421.973 C 272.020 418.896,272.178 416.062,272.195 393.173 L 272.213 367.787 313.991 367.787 L 355.768 367.787 357.464 373.547 C 358.396 376.715,364.958 399.616,372.046 424.438 C 379.133 449.260,385.490 470.649,386.172 471.967 C 389.102 477.634,397.702 481.218,404.119 479.446 C 408.700 478.182,414.274 472.453,415.555 467.693 C 416.529 464.079,416.097 462.313,403.158 416.934 C 395.784 391.076,389.568 369.440,389.344 368.853 C 389.025 368.015,394.306 367.787,414.023 367.787 C 441.500 367.787,444.618 367.389,453.901 362.703 C 460.102 359.573,468.168 352.226,472.395 345.857 C 474.142 343.226,476.567 338.156,477.785 334.590 L 480.000 328.107 480.000 216.320 C 480.000 91.917,480.431 101.466,474.270 89.218 C 470.810 82.338,461.263 72.981,453.973 69.325 C 443.248 63.945,444.862 64.031,354.434 64.015 L 272.389 64.000 272.088 53.547 C 271.824 44.382,271.541 42.698,269.792 39.886 C 265.287 32.639,255.078 30.182,247.743 34.579 M439.287 98.043 C 443.198 100.038,444.994 101.977,446.687 106.030 C 447.845 108.801,448.000 121.784,448.000 215.893 C 448.000 310.289,447.847 322.980,446.679 325.776 C 444.917 329.992,442.318 332.694,438.187 334.600 C 434.903 336.116,428.005 336.176,256.000 336.176 C 83.995 336.176,77.097 336.116,73.813 334.600 C 69.682 332.694,67.083 329.992,65.321 325.776 C 64.152 322.979,64.002 310.299,64.019 215.707 C 64.037 113.796,64.111 108.640,65.605 105.387 C 67.335 101.619,69.114 99.777,72.962 97.771 C 75.258 96.574,93.986 96.437,255.821 96.432 C 431.066 96.427,436.210 96.472,439.287 98.043 " stroke="none" fill="black" fill-rule="evenodd"></path></svg>