<svg xmlns="http://www.w3.org/2000/svg" width="512" height="512" viewBox="0 0 512 512"><path d="M245.760 34.057 C 225.619 40.658,202.951 56.385,178.691 80.592 C 150.676 108.545,129.791 137.871,111.806 174.507 C 94.155 210.465,84.284 243.314,80.968 277.140 C 79.575 291.349,80.477 322.406,82.710 337.067 C 93.225 406.123,127.141 450.061,184.747 469.253 C 227.849 483.614,284.151 483.614,327.253 469.253 C 384.811 450.077,418.694 406.188,429.304 337.067 C 431.591 322.171,432.454 290.483,430.969 275.981 C 426.177 229.200,408.366 182.742,376.528 133.973 C 360.915 110.059,350.398 96.843,333.710 80.166 C 315.693 62.163,299.407 49.776,281.785 40.675 C 266.242 32.647,255.873 30.742,245.760 34.057 " stroke="none" fill-rule="evenodd" fill="black"></path></svg>