<svg xmlns="http://www.w3.org/2000/svg" width="512" height="512" viewBox="0 0 512 512"><path d="M240.736 33.693 C 232.234 35.618,227.215 37.430,218.401 41.757 C 157.160 71.821,98.429 160.402,83.709 244.907 C 80.690 262.235,79.952 273.811,80.473 295.639 C 81.264 328.749,85.953 353.251,96.442 379.087 C 108.514 408.821,129.721 435.097,155.307 452.019 C 186.167 472.430,226.712 482.253,268.991 479.561 C 331.374 475.589,378.392 447.570,406.766 397.457 C 423.016 368.757,431.800 330.404,431.778 288.238 C 431.764 259.598,428.321 237.536,419.288 208.213 C 394.445 127.562,332.294 51.668,277.737 35.361 C 268.165 32.500,249.686 31.667,240.736 33.693 M271.881 67.194 C 286.561 72.392,301.083 82.572,318.390 99.798 C 331.607 112.953,340.805 124.225,351.038 139.807 C 371.231 170.557,384.750 200.571,392.915 232.782 C 402.043 268.793,402.064 309.703,392.972 345.173 C 386.041 372.214,374.871 392.338,356.723 410.479 C 345.927 421.269,336.478 428.042,323.912 433.995 C 284.207 452.803,227.793 452.803,188.088 433.995 C 175.522 428.042,166.073 421.269,155.277 410.479 C 128.602 383.814,115.593 350.630,112.645 301.729 C 110.120 259.860,118.860 219.936,140.216 175.787 C 167.498 119.386,213.091 72.399,247.893 64.818 C 253.955 63.498,264.350 64.527,271.881 67.194 " stroke="none" fill-rule="evenodd" fill="black"></path></svg>