<svg xmlns="http://www.w3.org/2000/svg" width="512" height="512" viewBox="0 0 512 512"><path d="M240.640 33.695 C 205.682 41.546,165.888 74.679,133.702 122.733 C 107.588 161.722,89.549 207.083,82.572 251.307 C 80.034 267.399,79.826 307.741,82.200 323.840 C 91.703 388.304,119.934 433.261,167.253 459.287 C 206.619 480.938,266.166 486.102,313.600 471.977 C 388.563 449.656,431.787 382.300,431.787 287.806 C 431.787 253.601,425.599 222.486,411.678 186.691 C 389.745 130.294,349.560 76.952,309.139 50.578 C 300.092 44.675,284.635 37.284,276.480 34.962 C 268.012 32.550,248.767 31.870,240.640 33.695 " stroke="none" fill-rule="evenodd" fill="black"></path></svg>