<svg xmlns="http://www.w3.org/2000/svg" width="512" height="512" viewBox="0 0 512 512"><path d="M249.154 48.597 C 232.148 50.871,216.677 63.401,210.644 79.787 C 207.868 87.326,207.827 103.894,210.563 111.787 C 214.925 124.369,226.410 136.201,238.737 140.813 C 246.390 143.676,255.006 144.674,262.293 143.541 C 274.091 141.707,281.915 137.737,290.020 129.474 C 300.214 119.080,303.360 111.187,303.360 96.000 C 303.360 80.998,300.279 73.118,290.408 62.875 C 279.710 51.774,264.572 46.535,249.154 48.597 M261.704 81.121 C 267.516 83.317,271.604 89.461,271.604 96.000 C 271.604 109.796,255.374 117.049,245.470 107.679 C 241.901 104.301,240.396 100.839,240.396 96.000 C 240.396 89.605,244.429 83.395,250.027 81.170 C 252.894 80.030,258.752 80.005,261.704 81.121 M243.741 209.567 C 236.067 211.425,228.907 215.671,222.289 222.289 C 212.558 232.019,208.213 242.426,208.213 256.000 C 208.213 269.574,212.558 279.981,222.289 289.711 C 232.019 299.442,242.426 303.787,256.000 303.787 C 269.574 303.787,279.981 299.442,289.711 289.711 C 299.442 279.981,303.787 269.574,303.787 256.000 C 303.787 242.426,299.442 232.019,289.711 222.289 C 282.951 215.529,275.932 211.428,267.867 209.527 C 261.125 207.938,250.399 207.956,243.741 209.567 M263.680 241.940 C 268.801 244.575,271.646 249.600,271.640 255.996 C 271.633 263.692,267.322 269.460,260.132 271.396 C 248.911 274.418,238.528 264.850,240.363 253.180 C 241.993 242.812,254.067 236.992,263.680 241.940 M249.154 368.597 C 232.148 370.871,216.677 383.401,210.644 399.787 C 207.868 407.326,207.827 423.894,210.563 431.787 C 214.925 444.369,226.410 456.201,238.737 460.813 C 246.390 463.676,255.006 464.674,262.293 463.541 C 274.091 461.707,281.915 457.737,290.020 449.474 C 300.214 439.080,303.360 431.187,303.360 416.000 C 303.360 400.998,300.279 393.118,290.408 382.875 C 279.710 371.774,264.572 366.535,249.154 368.597 M261.704 401.121 C 267.516 403.317,271.604 409.461,271.604 416.000 C 271.604 420.839,270.099 424.301,266.530 427.679 C 256.626 437.049,240.396 429.796,240.396 416.000 C 240.396 409.605,244.429 403.395,250.027 401.170 C 252.894 400.030,258.752 400.005,261.704 401.121 " stroke="none" fill="black" fill-rule="evenodd"></path></svg>