<svg xmlns="http://www.w3.org/2000/svg" width="512" height="512" viewBox="0 0 512 512"><path d="M84.168 209.515 C 71.024 212.834,58.810 222.888,52.824 235.315 C 37.587 266.951,60.814 303.787,96.000 303.787 C 112.470 303.787,127.293 295.619,136.533 281.453 C 146.297 266.484,146.301 245.553,136.542 230.547 C 130.648 221.483,120.066 213.222,110.523 210.235 C 104.434 208.329,90.385 207.945,84.168 209.515 M246.187 209.027 C 224.018 213.831,208.213 233.382,208.213 256.000 C 208.213 269.119,212.883 280.300,222.291 289.709 C 241.253 308.671,270.747 308.671,289.709 289.709 C 314.540 264.878,305.482 223.605,272.452 211.083 C 266.094 208.672,252.673 207.621,246.187 209.027 M404.168 209.515 C 391.024 212.834,378.810 222.888,372.824 235.315 C 357.587 266.951,380.814 303.787,416.000 303.787 C 432.470 303.787,447.293 295.619,456.533 281.453 C 466.297 266.484,466.301 245.553,456.542 230.547 C 450.648 221.483,440.066 213.222,430.523 210.235 C 424.434 208.329,410.385 207.945,404.168 209.515 " stroke="none" fill="black" fill-rule="evenodd"></path></svg>