<svg xmlns="http://www.w3.org/2000/svg" width="512" height="512" viewBox="0 0 512 512"><path d="M248.747 48.660 C 234.752 50.536,220.527 60.603,213.837 73.367 C 199.845 100.057,212.984 132.363,241.640 141.735 C 254.494 145.939,270.173 143.890,281.453 136.533 C 307.223 119.724,311.505 84.171,290.330 62.823 C 279.108 51.509,264.531 46.544,248.747 48.660 M246.187 209.027 C 224.018 213.831,208.213 233.382,208.213 256.000 C 208.213 269.119,212.883 280.300,222.291 289.709 C 241.253 308.671,270.747 308.671,289.709 289.709 C 314.540 264.878,305.482 223.605,272.452 211.083 C 266.094 208.672,252.673 207.621,246.187 209.027 M248.747 368.660 C 234.752 370.536,220.527 380.603,213.837 393.367 C 199.845 420.057,212.984 452.363,241.640 461.735 C 254.494 465.939,270.173 463.890,281.453 456.533 C 307.223 439.724,311.505 404.171,290.330 382.823 C 279.108 371.509,264.531 366.544,248.747 368.660 " stroke="none" fill="black" fill-rule="evenodd"></path></svg>