<svg xmlns="http://www.w3.org/2000/svg" width="512" height="512" viewBox="0 0 512 512"><path d="M241.493 48.673 C 201.694 51.236,163.176 65.747,129.707 90.787 C 119.118 98.709,98.459 119.383,90.552 129.971 C 68.706 159.223,55.330 191.336,49.785 227.840 C 47.724 241.414,47.724 270.586,49.785 284.160 C 55.331 320.671,68.725 352.821,90.558 382.029 C 98.598 392.784,119.216 413.402,129.971 421.442 C 159.179 443.275,191.329 456.669,227.840 462.215 C 241.414 464.276,270.586 464.276,284.160 462.215 C 320.686 456.667,352.914 443.237,382.029 421.430 C 392.784 413.374,413.374 392.784,421.430 382.029 C 443.237 352.914,456.667 320.686,462.215 284.160 C 464.276 270.586,464.276 241.414,462.215 227.840 C 455.463 183.387,436.803 144.683,406.921 113.150 C 370.380 74.590,322.088 52.062,268.561 48.607 C 255.365 47.755,255.779 47.754,241.493 48.673 M284.160 82.308 C 319.998 88.383,351.735 104.258,377.739 129.118 C 405.349 155.513,423.300 189.800,429.832 228.618 C 431.923 241.048,431.905 271.514,429.799 283.733 C 419.921 341.032,385.307 387.989,334.011 413.679 C 285.590 437.929,226.410 437.929,177.989 413.679 C 126.525 387.905,91.775 340.650,82.174 283.382 C 80.053 270.734,80.053 241.266,82.174 228.618 C 92.715 165.745,133.739 115.017,192.849 91.764 C 205.896 86.632,221.606 82.941,239.787 80.737 C 246.454 79.928,276.372 80.988,284.160 82.308 M154.643 233.000 C 145.113 237.762,140.420 245.335,140.391 256.000 C 140.376 261.308,140.782 263.232,142.768 267.276 C 150.614 283.253,171.486 286.866,183.948 274.403 C 191.510 266.842,193.859 256.766,190.287 247.218 C 184.872 232.745,168.345 226.153,154.643 233.000 M248.314 231.148 C 233.602 235.963,226.012 252.662,232.297 266.390 C 239.947 283.099,261.385 287.116,274.250 274.250 C 286.686 261.815,283.295 240.892,267.520 232.726 C 263.806 230.803,252.265 229.855,248.314 231.148 M334.884 232.847 C 318.515 240.591,315.087 261.439,328.052 274.403 C 340.514 286.866,361.386 283.253,369.232 267.276 C 372.331 260.965,372.579 251.756,369.812 245.717 C 363.669 232.309,348.127 226.582,334.884 232.847 " stroke="none" fill-rule="evenodd" fill="black"></path></svg>