<svg xmlns="http://www.w3.org/2000/svg" width="512" height="512" viewBox="0 0 512 512"><path d="M85.333 209.140 C 83.221 209.548,78.421 211.399,74.667 213.255 C 67.476 216.810,60.115 223.337,55.428 230.317 C 49.681 238.873,46.843 251.897,48.459 262.293 C 50.293 274.091,54.263 281.915,62.526 290.020 C 72.920 300.214,80.813 303.360,96.000 303.360 C 111.187 303.360,119.080 300.214,129.474 290.020 C 137.737 281.915,141.707 274.091,143.541 262.293 C 145.157 251.897,142.319 238.873,136.572 230.317 C 129.591 219.922,116.831 211.076,105.910 209.061 C 100.488 208.061,90.739 208.099,85.333 209.140 M243.741 209.567 C 236.067 211.425,228.907 215.671,222.289 222.289 C 212.558 232.019,208.213 242.426,208.213 256.000 C 208.213 269.574,212.558 279.981,222.289 289.711 C 232.019 299.442,242.426 303.787,256.000 303.787 C 269.574 303.787,279.981 299.442,289.711 289.711 C 299.442 279.981,303.787 269.574,303.787 256.000 C 303.787 242.426,299.442 232.019,289.711 222.289 C 282.951 215.529,275.932 211.428,267.867 209.527 C 261.125 207.938,250.399 207.956,243.741 209.567 M405.333 209.140 C 403.221 209.548,398.421 211.399,394.667 213.255 C 387.476 216.810,380.115 223.337,375.428 230.317 C 369.681 238.873,366.843 251.897,368.459 262.293 C 370.293 274.091,374.263 281.915,382.526 290.020 C 392.920 300.214,400.813 303.360,416.000 303.360 C 431.187 303.360,439.080 300.214,449.474 290.020 C 457.737 281.915,461.707 274.091,463.541 262.293 C 465.157 251.897,462.319 238.873,456.572 230.317 C 449.591 219.922,436.831 211.076,425.910 209.061 C 420.488 208.061,410.739 208.099,405.333 209.140 M103.253 241.958 C 112.468 246.665,114.696 259.049,107.679 266.561 C 104.873 269.565,99.442 272.176,96.000 272.176 C 90.468 272.176,83.125 267.008,81.121 261.704 C 79.874 258.404,79.983 253.083,81.366 249.773 C 82.789 246.366,87.982 241.693,91.109 241.004 C 92.391 240.722,93.824 240.363,94.293 240.208 C 95.675 239.750,100.947 240.780,103.253 241.958 M263.680 241.940 C 268.801 244.575,271.646 249.600,271.640 255.996 C 271.633 263.692,267.322 269.460,260.132 271.396 C 248.911 274.418,238.528 264.850,240.363 253.180 C 241.993 242.812,254.067 236.992,263.680 241.940 M423.253 241.958 C 426.173 243.450,429.784 247.397,430.879 250.296 C 432.945 255.762,431.658 262.301,427.679 266.561 C 424.873 269.565,419.442 272.176,416.000 272.176 C 410.468 272.176,403.125 267.008,401.121 261.704 C 399.874 258.404,399.983 253.083,401.366 249.773 C 402.789 246.366,407.982 241.693,411.109 241.004 C 412.391 240.722,413.824 240.363,414.293 240.208 C 415.675 239.750,420.947 240.780,423.253 241.958 " stroke="none" fill="black" fill-rule="evenodd"></path></svg>