<svg xmlns="http://www.w3.org/2000/svg" width="512" height="512" viewBox="0 0 512 512"><path d="M241.920 48.656 C 209.569 50.678,176.936 60.929,148.731 77.932 C 94.814 110.433,58.978 164.884,49.790 228.267 C 47.760 242.269,47.760 269.731,49.790 283.733 C 55.047 319.999,68.580 352.627,90.558 382.029 C 98.598 392.784,119.216 413.402,129.971 421.442 C 159.373 443.420,192.001 456.953,228.267 462.210 C 235.366 463.239,243.873 463.695,256.000 463.695 C 268.127 463.695,276.634 463.239,283.733 462.210 C 319.999 456.953,352.627 443.420,382.029 421.442 C 392.784 413.402,413.402 392.784,421.442 382.029 C 441.901 354.659,455.008 324.668,460.856 291.840 C 470.924 235.321,456.636 176.673,421.441 130.052 C 388.588 86.534,337.751 57.084,283.307 50.031 C 270.567 48.381,254.742 47.855,241.920 48.656 M177.074 232.827 C 186.528 237.299,191.526 245.298,191.556 256.000 C 191.570 261.308,191.165 263.232,189.179 267.276 C 179.661 286.658,152.286 286.658,142.768 267.276 C 139.669 260.965,139.421 251.756,142.188 245.717 C 148.321 232.329,163.875 226.583,177.074 232.827 M267.520 232.729 C 271.837 234.968,276.963 240.067,279.335 244.480 C 280.843 247.287,281.169 249.333,281.169 256.000 C 281.169 265.232,279.933 268.476,274.217 274.250 C 261.890 286.703,241.148 283.343,232.662 267.520 C 230.009 262.573,230.011 249.420,232.665 244.480 C 235.911 238.440,242.072 233.191,248.314 231.148 C 252.270 229.853,263.807 230.803,267.520 232.729 M357.357 233.000 C 366.874 237.756,371.522 245.276,371.573 256.005 C 371.599 261.323,371.200 263.236,369.221 267.281 C 359.741 286.657,332.337 286.654,322.821 267.276 C 320.835 263.232,320.430 261.308,320.444 256.000 C 320.474 245.298,325.472 237.299,334.926 232.827 C 342.324 229.327,350.127 229.387,357.357 233.000 " stroke="none" fill-rule="evenodd" fill="black"></path></svg>