<svg xmlns="http://www.w3.org/2000/svg" width="512" height="512" viewBox="0 0 512 512"><path d="M241.493 48.673 C 201.694 51.236,163.176 65.747,129.707 90.787 C 119.118 98.709,98.459 119.383,90.552 129.971 C 68.706 159.223,55.330 191.336,49.785 227.840 C 47.724 241.414,47.724 270.586,49.785 284.160 C 55.331 320.671,68.725 352.821,90.558 382.029 C 98.598 392.784,119.216 413.402,129.971 421.442 C 159.179 443.275,191.329 456.669,227.840 462.215 C 241.414 464.276,270.586 464.276,284.160 462.215 C 320.686 456.667,352.914 443.237,382.029 421.430 C 392.784 413.374,413.374 392.784,421.430 382.029 C 443.237 352.914,456.667 320.686,462.215 284.160 C 464.276 270.586,464.276 241.414,462.215 227.840 C 455.463 183.387,436.803 144.683,406.921 113.150 C 370.380 74.590,322.088 52.062,268.561 48.607 C 255.365 47.755,255.779 47.754,241.493 48.673 M284.160 82.308 C 319.998 88.383,351.735 104.258,377.739 129.118 C 405.349 155.513,423.300 189.800,429.832 228.618 C 431.923 241.048,431.905 271.514,429.799 283.733 C 419.921 341.032,385.307 387.989,334.011 413.679 C 285.590 437.929,226.410 437.929,177.989 413.679 C 126.525 387.905,91.775 340.650,82.174 283.382 C 80.053 270.734,80.053 241.266,82.174 228.618 C 92.715 165.745,133.739 115.017,192.849 91.764 C 205.896 86.632,221.606 82.941,239.787 80.737 C 246.454 79.928,276.372 80.988,284.160 82.308 M247.750 141.474 C 229.463 148.011,224.099 170.450,237.597 183.948 C 248.251 194.602,263.749 194.602,274.403 183.948 C 286.777 171.574,283.247 150.590,267.494 142.883 C 261.315 139.860,253.772 139.322,247.750 141.474 M248.314 231.148 C 233.602 235.963,226.012 252.662,232.297 266.390 C 239.947 283.099,261.385 287.116,274.250 274.250 C 286.686 261.815,283.295 240.892,267.520 232.726 C 263.806 230.803,252.265 229.855,248.314 231.148 M247.750 321.527 C 225.788 329.377,223.908 359.010,244.724 369.232 C 254.993 374.275,267.913 371.653,275.550 362.978 C 286.593 350.433,282.542 330.299,267.494 322.937 C 261.315 319.913,253.772 319.375,247.750 321.527 " stroke="none" fill-rule="evenodd" fill="black"></path></svg>