<svg xmlns="http://www.w3.org/2000/svg" width="512" height="512" viewBox="0 0 512 512"><path d="M241.493 48.641 C 167.947 53.621,101.956 97.985,69.502 164.267 C 59.681 184.324,53.241 205.089,49.785 227.840 C 47.724 241.414,47.724 270.586,49.785 284.160 C 59.315 346.901,93.568 399.555,146.493 432.819 C 169.436 447.239,198.581 457.771,227.840 462.215 C 241.414 464.276,270.586 464.276,284.160 462.215 C 328.954 455.411,368.033 436.480,399.471 406.355 C 433.620 373.633,454.928 332.133,462.215 284.160 C 464.276 270.586,464.276 241.414,462.215 227.840 C 452.756 165.563,418.679 112.882,366.432 79.766 C 348.848 68.621,321.235 57.299,301.227 53.031 C 282.604 49.059,259.929 47.393,241.493 48.641 M284.160 82.308 C 322.378 88.786,356.650 106.822,382.882 134.261 C 407.982 160.517,423.708 192.124,429.826 228.618 C 431.947 241.266,431.947 270.734,429.826 283.382 C 416.772 361.241,355.949 420.476,278.783 430.481 C 198.332 440.912,121.572 395.220,91.753 319.151 C 87.905 309.334,84.215 295.556,82.174 283.382 C 80.053 270.734,80.053 241.266,82.174 228.618 C 88.551 190.580,104.926 158.595,131.761 131.761 C 161.386 102.135,195.261 86.135,239.787 80.737 C 246.454 79.928,276.372 80.988,284.160 82.308 " stroke="none" fill="black" fill-rule="evenodd"></path></svg>