<svg xmlns="http://www.w3.org/2000/svg" width="512" height="512" viewBox="0 0 512 512"><path d="M206.933 80.758 C 187.548 84.899,173.153 95.816,165.456 112.213 C 159.979 123.881,160.116 122.152,159.780 183.680 L 159.473 239.787 236.079 239.787 L 312.686 239.787 286.152 213.120 C 271.559 198.453,258.969 185.171,258.175 183.605 C 256.388 180.079,256.291 172.517,257.991 169.249 C 261.867 161.798,271.052 158.496,278.854 161.750 C 281.020 162.652,294.835 175.858,322.374 203.350 C 344.565 225.502,363.726 245.074,364.954 246.842 C 367.619 250.679,368.448 256.917,366.925 261.661 C 366.081 264.288,357.590 273.263,325.226 305.737 C 302.874 328.164,283.175 347.493,281.449 348.690 C 273.549 354.168,262.454 351.395,258.029 342.838 C 256.296 339.488,256.373 331.952,258.175 328.395 C 258.969 326.829,271.559 313.547,286.152 298.880 L 312.686 272.213 236.079 272.213 L 159.473 272.213 159.780 328.320 C 160.054 378.488,160.244 384.969,161.570 389.547 C 166.397 406.216,176.941 419.100,191.597 426.241 C 203.673 432.125,196.750 431.842,322.332 431.589 L 435.627 431.360 441.886 429.074 C 450.699 425.854,456.782 422.000,463.285 415.514 C 472.616 406.208,477.805 395.500,479.591 381.867 C 480.622 374.004,480.622 137.996,479.591 130.133 C 476.678 107.900,463.673 91.461,442.545 83.309 L 435.627 80.640 322.133 80.516 C 259.712 80.449,207.872 80.557,206.933 80.758 M44.679 240.598 C 33.846 243.193,28.879 254.951,34.675 264.282 C 36.160 266.674,38.460 268.919,40.533 270.003 C 43.898 271.761,44.766 271.787,101.973 271.787 L 160.000 271.787 160.000 256.000 L 160.000 240.213 103.680 240.084 C 72.704 240.013,46.154 240.244,44.679 240.598 " stroke="none" fill-rule="evenodd" fill="black"></path></svg>