<svg xmlns="http://www.w3.org/2000/svg" width="512" height="512" viewBox="0 0 512 512"><path d="M203.093 81.545 C 187.835 84.834,172.970 96.683,165.691 111.360 C 160.825 121.170,160.302 124.628,159.817 150.205 C 159.322 176.307,159.896 181.691,163.654 186.157 C 167.809 191.095,175.697 193.279,181.491 191.094 C 184.091 190.114,188.973 185.787,190.577 183.040 C 191.250 181.888,191.713 172.880,192.003 155.307 C 192.415 130.370,192.514 129.129,194.356 125.676 C 196.964 120.787,201.708 116.209,206.430 114.025 L 210.347 112.213 320.000 112.213 L 429.653 112.213 433.570 114.025 C 438.567 116.336,443.450 121.219,445.762 126.217 L 447.573 130.133 447.573 256.000 L 447.573 381.867 445.762 385.783 C 443.450 390.781,438.567 395.664,433.570 397.975 L 429.653 399.787 320.000 399.787 L 210.347 399.787 206.430 397.975 C 201.708 395.791,196.964 391.213,194.356 386.324 C 192.514 382.871,192.415 381.630,192.003 356.693 C 191.699 338.270,191.265 330.128,190.517 328.822 C 189.936 327.807,187.869 325.615,185.925 323.951 C 176.634 315.998,162.972 320.964,160.428 333.219 C 158.817 340.983,159.768 383.527,161.707 390.400 C 164.939 401.856,171.647 412.009,180.894 419.436 C 187.856 425.028,193.773 428.024,202.032 430.136 C 208.252 431.727,212.537 431.787,320.000 431.787 C 428.258 431.787,431.706 431.737,438.105 430.101 C 457.461 425.151,472.778 409.904,478.432 389.959 C 479.922 384.700,480.000 378.071,480.000 256.000 C 480.000 133.929,479.922 127.300,478.432 122.041 C 472.650 101.646,456.054 85.607,436.480 81.497 C 427.787 79.672,211.577 79.716,203.093 81.545 M264.962 161.771 C 261.114 163.777,259.335 165.619,257.605 169.387 C 255.679 173.580,255.577 178.242,257.318 182.409 C 258.188 184.491,267.821 194.778,285.648 212.662 L 312.661 239.761 177.877 239.987 L 43.093 240.213 39.484 242.560 C 29.758 248.883,29.975 263.631,39.886 269.792 L 43.093 271.787 177.880 272.010 L 312.666 272.234 285.651 299.335 C 267.821 317.221,258.188 327.509,257.318 329.591 C 255.574 333.764,255.680 338.425,257.613 342.613 C 259.785 347.320,262.862 349.904,267.826 351.192 C 272.919 352.513,277.025 351.759,281.443 348.691 C 283.172 347.490,302.711 328.351,324.864 306.160 C 352.355 278.621,365.561 264.806,366.464 262.641 C 368.151 258.595,368.151 253.405,366.464 249.359 C 364.934 245.690,287.026 167.085,280.814 162.943 C 277.759 160.906,276.134 160.428,272.280 160.432 C 269.634 160.435,266.384 161.029,264.962 161.771 " stroke="none" fill-rule="evenodd" fill="black"></path></svg>