<svg xmlns="http://www.w3.org/2000/svg" width="512" height="512" viewBox="0 0 512 512"><path d="M165.801 81.885 C 164.299 82.802,162.379 84.816,161.535 86.362 C 160.095 88.999,159.986 93.849,159.769 164.480 L 159.537 239.787 233.151 239.787 L 306.765 239.787 274.979 207.992 L 243.192 176.197 254.510 164.903 L 265.827 153.609 317.018 204.804 L 368.208 256.000 317.018 307.196 L 265.827 358.391 254.510 347.097 L 243.192 335.803 274.979 304.008 L 306.765 272.213 233.151 272.213 L 159.537 272.213 159.769 347.520 C 159.986 418.151,160.095 423.001,161.535 425.638 C 162.379 427.184,164.299 429.198,165.801 430.115 C 168.484 431.750,171.276 431.780,320.000 431.780 C 468.724 431.780,471.516 431.750,474.199 430.115 C 475.701 429.198,477.621 427.184,478.465 425.638 C 479.928 422.959,480.000 414.987,480.000 256.000 C 480.000 97.013,479.928 89.041,478.465 86.362 C 477.621 84.816,475.701 82.802,474.199 81.885 C 471.516 80.250,468.724 80.220,320.000 80.220 C 171.276 80.220,168.484 80.250,165.801 81.885 M31.954 240.878 C 31.722 241.484,31.637 248.686,31.766 256.883 L 32.000 271.787 96.000 271.787 L 160.000 271.787 160.000 256.000 L 160.000 240.213 96.189 239.995 C 44.676 239.818,32.296 239.988,31.954 240.878 " stroke="none" fill-rule="evenodd" fill="black"></path></svg>