<svg xmlns="http://www.w3.org/2000/svg" width="512" height="512" viewBox="0 0 512 512"><path d="M37.460 82.150 C 35.865 83.216,33.889 85.424,33.068 87.057 C 31.663 89.854,31.576 99.680,31.575 255.814 C 31.573 435.710,31.277 424.661,36.225 429.227 L 38.537 431.360 182.895 431.574 C 324.891 431.785,327.298 431.761,329.985 430.119 C 331.488 429.200,333.408 427.184,334.252 425.638 C 335.691 423.001,335.801 418.146,336.022 347.520 L 336.258 272.213 255.596 272.213 L 174.933 272.213 174.933 256.000 L 174.933 239.787 255.596 239.787 L 336.258 239.787 336.022 164.480 C 335.801 93.854,335.691 88.999,334.252 86.362 C 333.408 84.816,331.488 82.802,329.985 81.885 C 327.304 80.251,324.574 80.220,183.806 80.217 L 40.359 80.213 37.460 82.150 M366.291 164.909 L 354.994 176.229 386.568 207.795 L 418.143 239.360 376.965 239.787 L 335.787 240.213 335.787 256.000 L 335.787 271.787 377.161 272.008 L 418.535 272.230 386.757 304.016 L 354.979 335.803 366.297 347.097 L 377.614 358.391 428.805 307.195 L 479.996 255.998 428.792 204.794 L 377.587 153.589 366.291 164.909 " stroke="none" fill-rule="evenodd" fill="black"></path></svg>