<svg xmlns="http://www.w3.org/2000/svg" width="512" height="512" viewBox="0 0 512 512"><path d="M75.093 81.545 C 63.923 83.952,51.048 92.214,43.778 101.640 C 39.342 107.391,35.603 114.862,33.568 122.041 C 32.078 127.300,32.000 133.929,32.000 256.000 C 32.000 378.071,32.078 384.700,33.568 389.959 C 36.945 401.870,43.530 411.915,52.894 419.436 C 59.856 425.028,65.773 428.024,74.032 430.136 C 80.240 431.724,84.450 431.787,184.277 431.787 C 300.014 431.787,292.171 432.181,305.419 425.694 C 318.453 419.313,328.950 406.860,333.732 392.107 C 335.527 386.567,335.693 384.278,336.018 360.555 C 336.396 333.007,336.128 330.591,332.173 325.890 C 324.360 316.606,309.869 319.041,305.107 330.438 C 304.025 333.027,303.787 337.787,303.787 356.780 C 303.787 371.541,303.436 381.131,302.823 383.179 C 301.200 388.594,296.180 394.356,290.596 397.212 L 285.561 399.787 183.954 399.787 L 82.347 399.787 78.430 397.975 C 73.711 395.792,68.966 391.215,66.352 386.324 L 64.427 382.720 64.427 256.000 L 64.427 129.280 66.352 125.676 C 68.966 120.785,73.711 116.208,78.430 114.025 L 82.347 112.213 183.954 112.213 L 285.561 112.213 290.596 114.788 C 296.180 117.644,301.200 123.406,302.823 128.821 C 303.437 130.872,303.787 140.515,303.787 155.438 C 303.787 178.023,303.854 178.969,305.707 182.596 C 306.763 184.663,309.102 187.529,310.906 188.964 C 313.839 191.298,314.798 191.573,320.000 191.573 C 325.202 191.573,326.161 191.298,329.094 188.964 C 330.898 187.529,333.258 184.649,334.340 182.564 C 336.292 178.802,336.304 178.573,335.991 152.320 C 335.696 127.610,335.547 125.473,333.735 119.893 C 330.670 110.454,326.346 103.457,319.228 96.418 C 311.702 88.975,303.753 84.421,293.880 81.896 C 287.502 80.265,284.138 80.215,183.970 80.281 C 98.764 80.337,79.667 80.559,75.093 81.545 M375.743 162.579 C 371.544 165.096,368.932 168.965,368.156 173.819 C 367.006 181.011,367.647 181.841,397.507 211.825 L 425.323 239.758 305.888 239.985 C 175.006 240.235,184.298 239.863,179.454 245.051 C 171.870 253.174,174.500 265.871,184.747 270.600 C 188.013 272.108,193.279 272.177,306.756 272.195 L 425.352 272.213 397.521 300.160 C 367.646 330.160,367.006 330.988,368.156 338.181 C 369.832 348.660,381.635 354.953,390.892 350.303 C 394.405 348.538,476.549 266.908,478.490 263.253 C 479.258 261.806,479.849 258.653,479.849 256.000 C 479.849 253.347,479.258 250.194,478.490 248.747 C 476.613 245.211,394.463 163.490,391.082 161.795 C 386.862 159.680,379.994 160.031,375.743 162.579 " stroke="none" fill-rule="evenodd" fill="black"></path></svg>