<svg xmlns="http://www.w3.org/2000/svg" width="512" height="512" viewBox="0 0 512 512"><path d="M78.933 80.767 C 59.744 84.763,45.161 95.818,37.452 112.213 C 31.623 124.609,32.000 114.671,32.000 256.000 C 32.000 375.776,32.093 383.912,33.522 389.120 C 38.123 405.887,48.751 419.008,63.586 426.236 C 75.468 432.025,69.701 431.760,183.970 431.774 C 284.280 431.786,287.494 431.737,293.925 430.092 C 313.008 425.212,327.084 411.571,333.955 391.300 C 335.640 386.331,335.718 383.953,335.999 329.173 L 336.292 272.213 380.822 272.213 L 425.352 272.213 397.485 300.160 C 367.157 330.574,367.868 329.625,368.856 338.395 C 369.951 348.111,381.136 354.201,390.641 350.257 C 394.544 348.637,474.316 269.382,477.597 263.864 C 480.554 258.889,480.554 253.111,477.597 248.136 C 474.316 242.618,394.544 163.363,390.641 161.743 C 381.136 157.799,369.951 163.889,368.856 173.605 C 367.868 182.375,367.157 181.426,397.485 211.840 L 425.352 239.787 380.822 239.787 L 336.292 239.787 335.999 182.827 C 335.718 128.129,335.637 125.663,333.964 120.747 C 328.273 104.028,318.699 92.805,304.055 85.688 C 292.409 80.027,297.074 80.234,183.467 80.327 C 126.912 80.373,79.872 80.571,78.933 80.767 M336.213 256.000 L 336.213 272.213 262.187 272.195 C 192.212 272.177,187.971 272.090,184.711 270.609 C 171.133 264.442,172.682 244.019,186.985 240.642 C 188.570 240.268,222.795 239.922,263.040 239.874 L 336.213 239.787 336.213 256.000 " stroke="none" fill-rule="evenodd" fill="black"></path></svg>