<svg xmlns="http://www.w3.org/2000/svg" width="512" height="512" viewBox="0 0 512 512"><path d="M75.520 64.725 C 72.113 65.833,68.571 68.494,66.521 71.485 L 64.427 74.542 64.427 136.179 L 64.427 197.815 67.036 201.094 C 74.719 210.748,87.599 210.131,93.661 199.819 L 96.000 195.840 96.255 157.491 L 96.509 119.142 148.308 170.850 C 198.752 221.206,200.216 222.581,204.288 223.416 C 206.588 223.888,208.892 224.149,209.408 223.995 C 209.924 223.842,211.396 223.486,212.678 223.206 C 215.275 222.637,220.564 218.328,222.033 215.583 C 223.765 212.347,224.245 208.333,223.396 204.191 C 222.587 200.246,220.788 198.334,170.850 148.308 L 119.142 96.509 157.491 96.255 L 195.840 96.000 199.819 93.661 C 211.289 86.918,210.508 71.088,198.435 65.604 C 195.191 64.130,191.491 64.041,136.107 64.104 C 103.723 64.140,76.459 64.420,75.520 64.725 M313.565 65.592 C 301.489 71.119,300.710 86.918,312.181 93.661 L 316.160 96.000 354.509 96.255 L 392.858 96.509 341.150 148.308 C 291.212 198.334,289.413 200.246,288.604 204.191 C 287.755 208.333,288.235 212.347,289.967 215.583 C 291.436 218.328,296.725 222.637,299.322 223.206 C 300.604 223.486,302.076 223.842,302.592 223.995 C 303.108 224.149,305.412 223.888,307.712 223.416 C 311.784 222.581,313.248 221.206,363.692 170.850 L 415.491 119.142 415.745 157.491 L 416.000 195.840 418.339 199.819 C 421.183 204.657,425.189 207.277,430.661 207.879 C 435.793 208.443,441.130 205.911,444.964 201.094 L 447.573 197.815 447.573 136.090 C 447.573 75.052,447.554 74.339,445.811 72.005 C 444.842 70.707,442.599 68.471,440.826 67.036 L 437.603 64.427 377.308 64.220 C 320.210 64.025,316.831 64.097,313.565 65.592 M200.960 289.750 C 199.552 290.472,175.475 313.969,147.455 341.967 L 96.509 392.872 96.255 354.516 L 96.000 316.160 93.876 312.450 C 90.948 307.335,85.555 304.253,79.681 304.338 C 74.402 304.414,70.813 306.284,67.077 310.905 L 64.427 314.184 64.175 373.625 C 64.036 406.318,64.156 434.349,64.441 435.917 C 65.134 439.724,71.042 446.041,74.987 447.190 C 77.068 447.797,97.673 448.007,137.948 447.832 L 197.816 447.573 201.095 444.964 C 202.898 443.529,205.264 440.649,206.352 438.564 C 210.040 431.500,207.338 422.753,200.171 418.552 L 196.543 416.427 158.005 416.427 C 136.809 416.427,119.467 416.143,119.467 415.796 C 119.467 415.449,142.662 391.929,171.012 363.529 C 221.208 313.246,222.581 311.784,223.416 307.712 C 223.888 305.412,224.149 303.108,223.995 302.592 C 223.842 302.076,223.486 300.604,223.206 299.322 C 222.582 296.472,218.198 291.340,214.956 289.663 C 211.824 288.044,204.195 288.091,200.960 289.750 M297.387 289.420 C 290.254 293.356,287.027 300.113,288.604 307.809 C 289.413 311.753,291.209 313.664,340.988 363.529 C 369.338 391.929,392.533 415.449,392.533 415.796 C 392.533 416.143,375.191 416.427,353.995 416.427 L 315.457 416.427 311.829 418.552 C 304.662 422.753,301.960 431.500,305.648 438.564 C 306.736 440.649,309.102 443.529,310.905 444.964 L 314.184 447.573 374.052 447.832 C 414.327 448.007,434.932 447.797,437.013 447.190 C 440.958 446.041,446.866 439.724,447.559 435.917 C 447.844 434.349,447.964 406.318,447.825 373.625 L 447.573 314.184 444.923 310.905 C 441.047 306.111,437.553 304.356,431.886 304.356 C 425.777 304.356,420.723 307.318,417.938 312.533 C 416.018 316.127,415.998 316.509,415.745 354.509 L 415.491 392.858 364.119 341.540 C 335.761 313.212,311.670 289.820,310.344 289.324 C 307.225 288.159,299.570 288.215,297.387 289.420 " stroke="none" fill="black" fill-rule="evenodd"></path></svg>