<svg xmlns="http://www.w3.org/2000/svg" width="512" height="512" viewBox="0 0 512 512"><path d="M64.000 136.125 L 64.000 208.251 80.000 208.019 L 96.000 207.787 96.221 163.424 L 96.442 119.060 152.327 174.940 L 208.212 230.820 219.516 219.516 L 230.820 208.212 174.940 152.327 L 119.060 96.442 163.424 96.221 L 207.787 96.000 208.019 80.000 L 208.251 64.000 136.125 64.000 L 64.000 64.000 64.000 136.125 M303.981 80.000 L 304.213 96.000 348.576 96.221 L 392.940 96.442 337.060 152.327 L 281.180 208.212 292.484 219.516 L 303.788 230.820 359.673 174.940 L 415.558 119.060 415.779 163.424 L 416.000 207.787 432.000 208.019 L 448.000 208.251 448.000 136.125 L 448.000 64.000 375.875 64.000 L 303.749 64.000 303.981 80.000 M152.318 337.070 L 96.853 392.539 96.427 348.376 L 96.000 304.213 80.000 303.981 L 64.000 303.749 64.000 375.875 L 64.000 448.000 136.107 448.000 L 208.213 448.000 208.213 432.213 L 208.213 416.427 163.840 416.427 C 139.435 416.427,119.467 416.140,119.467 415.789 C 119.467 415.438,144.519 390.097,175.139 359.474 L 230.812 303.797 219.738 292.698 C 213.648 286.594,208.466 281.600,208.223 281.600 C 207.980 281.600,182.823 306.561,152.318 337.070 M292.262 292.698 L 281.188 303.797 336.861 359.474 C 367.481 390.097,392.533 415.438,392.533 415.789 C 392.533 416.140,372.565 416.427,348.160 416.427 L 303.787 416.427 303.787 432.213 L 303.787 448.000 375.893 448.000 L 448.000 448.000 448.000 375.875 L 448.000 303.749 432.000 303.981 L 416.000 304.213 415.573 348.376 L 415.147 392.539 359.682 337.070 C 329.177 306.561,304.020 281.600,303.777 281.600 C 303.534 281.600,298.352 286.594,292.262 292.698 " stroke="none" fill="black" fill-rule="evenodd"></path></svg>