<svg xmlns="http://www.w3.org/2000/svg" viewBox="0 0 512 512"><path d="M200.346 34.117 C 188.442 37.139,176.676 44.174,168.443 53.193 C 156.853 65.888,151.092 80.635,151.052 97.707 C 151.032 106.242,149.359 110.522,145.733 111.312 C 144.663 111.545,129.003 111.888,110.933 112.075 C 74.727 112.448,73.964 112.543,62.720 118.115 C 48.776 125.024,38.398 137.662,33.968 153.129 C 32.036 159.875,32.000 160.743,32.000 200.981 L 32.000 241.961 34.180 246.200 C 35.728 249.209,37.563 251.183,40.509 253.006 L 44.659 255.573 64.783 256.068 C 80.765 256.461,85.690 256.861,88.710 258.012 C 101.984 263.073,112.071 275.464,114.306 289.453 C 117.232 307.767,106.413 327.099,89.441 333.881 C 85.405 335.494,82.641 335.745,64.284 336.167 L 43.661 336.640 39.964 339.238 C 37.930 340.667,35.307 343.547,34.133 345.638 L 32.000 349.440 32.007 390.827 C 32.015 437.071,32.001 436.933,38.213 449.707 C 42.570 458.665,53.335 469.430,62.293 473.787 C 75.067 479.999,74.929 479.985,121.173 479.993 L 162.560 480.000 166.362 477.867 C 168.453 476.693,171.333 474.069,172.762 472.034 L 175.360 468.335 175.912 450.701 C 176.298 438.362,176.847 432.023,177.740 429.593 C 182.251 417.317,189.591 408.921,200.270 403.822 C 206.713 400.745,207.243 400.640,216.320 400.640 C 223.233 400.640,227.007 401.066,230.639 402.258 C 237.346 404.459,245.520 410.104,249.378 415.199 C 254.900 422.492,255.363 424.757,255.924 447.217 L 256.427 467.341 258.994 471.491 C 260.816 474.434,262.793 476.274,265.796 477.820 L 270.031 480.000 306.749 480.250 C 327.867 480.394,346.455 480.136,350.500 479.642 C 373.256 476.864,390.596 462.591,397.753 440.747 C 399.625 435.033,399.730 433.272,400.175 400.213 C 400.431 381.205,400.952 365.171,401.334 364.581 C 402.904 362.154,406.910 361.166,416.853 360.755 C 424.934 360.421,428.533 359.847,433.920 358.030 C 446.759 353.699,457.135 346.611,464.865 336.890 C 485.484 310.961,484.844 275.812,463.326 252.328 C 450.501 238.332,435.616 231.438,416.427 230.605 C 406.257 230.163,402.669 229.128,401.092 226.181 C 400.536 225.142,400.213 213.228,400.213 193.727 C 400.213 158.455,399.713 154.283,394.079 142.555 C 387.741 129.360,374.116 118.102,359.253 113.778 C 355.418 112.663,348.555 112.351,321.707 112.075 C 303.637 111.888,287.994 111.549,286.944 111.321 C 283.359 110.542,282.254 107.364,281.530 95.748 C 281.031 87.742,280.268 83.121,278.613 78.080 C 271.830 57.420,256.575 42.170,235.492 34.972 C 227.420 32.216,209.548 31.781,200.346 34.117 " stroke="none" fill-rule="evenodd" fill="black"></path></svg>