<svg xmlns="http://www.w3.org/2000/svg" viewBox="0 0 512 512"><path d="M200.346 34.117 C 176.348 40.209,157.443 59.955,152.279 84.321 C 151.606 87.495,151.063 94.823,151.055 100.836 L 151.040 111.644 114.560 112.014 C 73.633 112.429,73.463 112.451,61.013 118.873 C 51.828 123.611,42.629 132.801,38.194 141.669 C 32.013 154.030,32.138 152.755,31.781 207.147 L 31.461 256.000 56.084 256.000 C 75.505 256.000,81.783 256.278,85.794 257.316 C 100.151 261.031,111.877 274.248,114.306 289.453 C 117.482 309.333,104.502 330.018,85.794 334.889 C 81.766 335.938,75.585 336.213,56.079 336.213 L 31.449 336.213 31.799 384.640 C 32.187 438.462,32.044 437.011,38.215 449.707 C 42.570 458.666,53.334 469.430,62.293 473.785 C 74.988 479.955,73.547 479.813,127.285 480.201 L 175.637 480.550 175.925 454.248 L 176.213 427.947 178.952 422.165 C 183.790 411.951,194.995 403.546,207.136 401.024 C 213.699 399.660,225.317 400.421,231.500 402.619 C 241.724 406.252,250.681 414.455,254.031 423.253 C 255.271 426.509,255.540 431.159,255.802 453.821 L 256.111 480.550 304.909 480.203 C 358.318 479.825,356.689 479.971,368.423 474.480 C 379.929 469.096,389.129 459.741,394.621 447.840 C 399.764 436.698,400.213 432.437,400.213 394.805 L 400.213 361.164 413.653 360.777 C 425.451 360.438,427.928 360.106,433.920 358.059 C 459.526 349.312,476.504 328.349,479.508 301.771 C 482.952 271.302,463.547 242.563,433.067 232.989 C 428.406 231.526,424.151 231.010,413.710 230.646 L 400.326 230.178 400.048 193.382 L 399.770 156.587 397.369 149.768 C 392.441 135.774,383.404 125.015,371.282 118.708 C 359.213 112.429,358.930 112.393,318.180 111.998 L 281.800 111.646 281.388 98.276 C 281.030 86.684,280.669 83.999,278.673 78.080 C 271.646 57.235,256.544 42.159,235.492 34.972 C 227.420 32.216,209.548 31.781,200.346 34.117 " stroke="none" fill-rule="evenodd" fill="black"></path></svg>