<svg xmlns="http://www.w3.org/2000/svg" viewBox="0 0 512 512"><path d="M201.387 33.748 C 194.584 35.286,183.425 40.529,177.257 45.086 C 166.779 52.827,158.260 64.860,153.899 78.080 C 151.967 83.937,151.590 86.805,151.243 98.270 L 150.840 111.633 114.460 112.017 C 74.039 112.443,73.296 112.533,61.867 118.432 C 53.241 122.885,42.254 134.006,38.082 142.507 C 32.161 154.574,32.212 154.124,31.799 197.320 C 31.541 224.376,31.721 237.725,32.388 240.840 C 33.708 247.009,36.861 251.239,42.077 253.838 C 46.287 255.936,46.923 256.000,63.562 256.000 C 82.301 256.000,87.829 256.861,94.613 260.836 C 109.488 269.552,117.455 287.108,114.017 303.596 C 111.151 317.339,101.705 328.980,89.441 333.881 C 85.405 335.494,82.641 335.745,64.284 336.167 L 43.661 336.640 40.010 339.208 C 37.801 340.762,35.499 343.449,34.180 346.013 L 32.000 350.251 32.000 391.232 C 32.000 437.088,32.025 437.329,38.170 449.707 C 42.595 458.618,53.382 469.405,62.293 473.830 C 74.671 479.975,74.912 480.000,120.768 480.000 L 161.749 480.000 165.987 477.820 C 168.553 476.500,171.237 474.200,172.792 471.988 L 175.360 468.335 175.922 450.701 C 176.555 430.846,177.294 427.306,182.462 419.350 C 190.548 406.905,202.594 400.181,216.713 400.234 C 233.286 400.296,247.547 408.768,253.689 422.201 C 255.369 425.876,255.576 428.085,255.981 446.720 C 256.410 466.426,256.505 467.337,258.497 470.815 C 261.119 475.392,265.426 478.385,271.157 479.612 C 274.259 480.275,287.852 480.467,315.104 480.231 C 353.337 479.900,354.745 479.829,360.533 477.949 C 375.276 473.161,387.710 462.685,394.145 449.633 C 399.778 438.206,400.213 434.288,400.213 395.018 L 400.213 360.960 411.520 360.954 C 431.868 360.943,444.713 356.320,458.276 344.126 C 466.731 336.524,474.300 324.529,477.425 313.777 C 479.531 306.534,480.386 295.791,479.493 287.810 C 477.760 272.339,471.602 259.924,460.284 249.086 C 446.177 235.577,432.514 230.400,410.973 230.400 L 400.327 230.400 400.011 193.493 C 399.664 152.914,399.763 153.759,393.941 141.653 C 390.265 134.009,378.967 122.708,370.695 118.400 C 359.303 112.468,358.667 112.391,318.080 111.998 L 281.600 111.644 281.600 100.332 C 281.600 91.856,281.173 87.327,279.898 82.270 C 274.326 60.165,257.114 41.638,235.947 34.959 C 228.159 32.502,209.749 31.857,201.387 33.748 M227.050 65.829 C 235.494 68.695,244.141 77.213,247.564 86.038 C 249.244 90.370,249.495 93.035,249.958 111.360 C 250.531 134.083,250.751 135.046,256.457 139.749 C 258.136 141.133,260.972 142.704,262.760 143.239 C 265.004 143.912,279.068 144.216,308.152 144.222 L 350.293 144.230 354.560 146.251 C 359.722 148.695,363.682 152.712,366.013 157.867 C 367.683 161.560,367.750 163.316,367.768 203.848 C 367.781 232.904,368.089 246.998,368.761 249.240 C 370.097 253.698,374.227 258.466,378.393 260.358 C 381.374 261.712,384.165 261.939,398.080 261.961 C 406.997 261.975,416.736 262.383,419.722 262.867 C 434.224 265.220,445.953 277.023,447.561 290.883 C 449.647 308.851,437.655 325.155,419.874 328.527 C 417.381 329.000,407.809 329.395,398.604 329.405 C 380.151 329.426,377.438 330.017,372.748 335.039 C 368.194 339.914,368.244 339.390,367.787 387.413 L 367.360 432.213 365.014 436.204 C 363.724 438.399,361.249 441.364,359.515 442.793 C 353.469 447.777,351.723 448.000,318.700 448.000 L 288.691 448.000 288.148 436.679 C 287.821 429.846,286.923 422.689,285.883 418.625 C 277.594 386.213,244.402 364.701,208.783 368.654 C 183.951 371.410,162.871 386.407,151.507 409.402 C 146.956 418.610,144.992 426.565,144.453 437.973 L 143.979 448.000 113.955 448.000 C 80.216 448.000,78.879 447.809,72.359 442.071 C 70.334 440.288,67.721 436.957,66.552 434.668 L 64.427 430.507 64.174 399.147 L 63.921 367.787 74.918 367.787 C 88.312 367.787,96.017 366.066,107.093 360.601 C 125.594 351.473,138.757 334.918,144.793 313.186 C 146.570 306.791,147.219 290.834,145.991 283.779 C 141.922 260.418,126.605 240.583,104.826 230.472 C 94.996 225.909,87.614 224.427,74.712 224.427 L 64.000 224.427 64.000 194.715 C 64.000 160.567,64.289 158.596,70.244 152.110 C 72.207 149.971,75.733 147.323,78.080 146.226 L 82.347 144.230 124.693 144.222 C 170.912 144.213,171.770 144.131,176.949 139.274 C 181.926 134.605,182.572 131.759,182.611 114.347 C 182.631 105.664,183.030 95.914,183.497 92.681 C 185.454 79.140,196.103 67.628,209.233 64.859 C 213.614 63.935,222.968 64.444,227.050 65.829 " fill="black" stroke="none" fill-rule="evenodd"></path></svg>