<svg xmlns="http://www.w3.org/2000/svg" width="512" height="512" viewBox="0 0 512 512"><path d="M229.547 97.712 C 199.541 101.397,174.876 109.218,146.184 124.148 C 117.405 139.123,95.033 155.831,69.067 181.740 C 53.174 197.597,44.261 207.902,30.067 226.827 C 18.870 241.758,16.886 245.808,16.404 254.720 C 15.917 263.724,17.585 268.366,25.629 280.391 C 41.543 304.179,56.600 321.972,76.690 340.727 C 122.698 383.679,174.455 408.465,231.216 414.727 C 242.744 415.999,268.440 416.003,279.893 414.735 C 333.918 408.753,384.117 385.489,430.080 345.133 C 452.674 325.296,482.886 289.002,492.164 270.551 C 495.190 264.533,495.360 263.762,495.359 256.044 C 495.359 246.409,494.304 243.606,486.206 231.707 C 438.980 162.318,369.096 113.172,299.387 100.323 C 277.936 96.369,249.222 95.296,229.547 97.712 M271.403 128.908 C 337.714 134.157,403.149 173.753,451.107 237.653 C 458.042 246.893,463.360 254.853,463.360 255.992 C 463.360 257.949,449.290 277.691,439.634 289.280 C 400.341 336.443,348.588 369.199,296.638 379.785 C 263.049 386.631,228.768 384.993,195.615 374.958 C 182.121 370.874,176.746 368.718,161.707 361.358 C 119.328 340.618,82.176 307.144,52.303 262.783 L 47.963 256.339 55.342 246.420 C 67.468 230.118,77.252 218.771,91.265 204.756 C 117.587 178.429,141.750 161.091,171.121 147.453 C 204.064 132.158,236.551 126.150,271.403 128.908 M240.571 161.237 C 209.422 166.925,183.694 186.016,170.071 213.550 C 163.335 227.166,160.269 240.445,160.269 256.000 C 160.269 303.175,193.577 342.445,240.640 350.755 C 248.297 352.107,265.348 351.925,273.141 350.409 C 312.857 342.680,342.680 312.857,350.409 273.141 C 351.925 265.348,352.107 248.297,350.755 240.640 C 347.643 223.019,339.742 206.172,328.638 193.483 C 315.817 178.832,299.547 168.606,280.717 163.363 C 273.825 161.445,270.574 161.071,258.560 160.819 C 250.816 160.656,242.721 160.844,240.571 161.237 M274.357 194.747 C 294.477 200.631,311.117 217.238,317.338 237.643 C 319.108 243.448,319.422 246.219,319.422 256.000 C 319.422 265.781,319.108 268.552,317.338 274.357 C 311.086 294.864,294.805 311.067,273.920 317.569 C 264.661 320.451,247.339 320.451,238.080 317.569 C 217.195 311.067,200.914 294.864,194.662 274.357 C 192.892 268.552,192.578 265.781,192.578 256.000 C 192.578 246.219,192.892 243.448,194.662 237.643 C 201.722 214.485,221.243 197.222,245.303 192.861 C 252.416 191.572,266.661 192.496,274.357 194.747 " stroke="none" fill-rule="evenodd" fill="black"></path></svg>