<svg xmlns="http://www.w3.org/2000/svg" width="512" height="512" viewBox="0 0 512 512"><path d="M228.723 97.716 C 185.112 103.554,143.201 121.735,107.314 150.382 C 95.882 159.508,69.367 186.064,57.666 200.107 C 47.701 212.066,29.137 236.581,20.983 248.547 L 15.939 255.949 19.206 261.308 C 30.674 280.116,47.725 303.560,63.280 321.905 C 73.842 334.361,96.678 356.524,107.285 364.613 C 167.053 410.189,241.197 426.406,311.188 409.211 C 346.090 400.636,380.241 383.734,408.747 360.926 C 419.503 352.320,441.483 330.527,451.314 318.720 C 465.421 301.778,482.386 278.297,492.717 261.413 C 496.504 255.223,497.124 257.169,485.958 240.213 C 477.054 226.693,463.540 208.468,453.055 195.840 C 443.112 183.865,418.519 159.447,408.077 151.183 C 373.703 123.976,334.084 106.161,291.840 98.916 C 277.981 96.539,242.544 95.865,228.723 97.716 M273.168 161.679 C 312.669 168.597,344.965 201.783,350.759 241.408 C 352.188 251.181,351.352 270.653,349.144 279.040 C 341.261 308.980,319.871 333.748,292.396 344.749 C 245.343 363.590,193.235 344.078,170.468 299.093 C 163.351 285.031,160.427 272.481,160.427 256.000 C 160.427 239.056,163.443 226.528,171.087 211.728 C 184.477 185.803,209.970 166.842,238.365 161.690 C 246.765 160.166,264.497 160.161,273.168 161.679 M245.397 192.846 C 230.994 195.458,216.672 203.739,206.996 215.049 C 191.721 232.903,187.864 258.142,196.985 280.554 C 203.116 295.622,216.378 308.884,231.446 315.015 C 255.763 324.911,282.696 319.539,301.117 301.117 C 325.081 277.153,326.292 239.192,303.904 213.760 C 296.467 205.312,283.229 197.106,272.135 194.065 C 266.471 192.513,251.097 191.812,245.397 192.846 " stroke="none" fill-rule="evenodd" fill="black"></path></svg>