<svg xmlns="http://www.w3.org/2000/svg" width="512" height="512" viewBox="0 0 512 512"><path d="M74.879 74.881 L 64.011 85.773 245.132 266.892 L 426.253 448.012 437.121 437.119 L 447.989 426.227 266.868 245.108 L 85.747 63.988 74.879 74.881 M229.342 97.671 C 216.095 99.347,200.574 102.764,188.100 106.752 L 177.220 110.230 203.781 136.791 L 230.341 163.351 235.277 162.233 C 242.556 160.585,262.292 160.027,270.563 161.237 C 279.377 162.526,290.548 166.150,299.218 170.534 C 325.143 183.643,342.772 206.494,350.009 236.373 C 351.566 242.800,351.517 267.322,349.932 275.474 L 348.717 281.722 383.634 316.648 C 402.839 335.857,418.933 351.573,419.399 351.573 C 420.781 351.573,443.509 328.015,452.337 317.431 C 466.078 300.957,482.239 278.536,492.717 261.413 C 496.504 255.223,497.124 257.169,485.958 240.213 C 477.054 226.693,463.540 208.468,453.055 195.840 C 443.112 183.865,418.519 159.447,408.077 151.183 C 373.702 123.975,334.063 106.152,291.840 98.918 C 278.123 96.568,243.523 95.878,229.342 97.671 M79.983 175.747 C 60.163 196.161,39.109 222.133,21.342 248.090 L 15.950 255.967 19.212 261.317 C 30.673 280.115,47.727 303.563,63.280 321.905 C 73.842 334.361,96.678 356.524,107.285 364.613 C 171.052 413.239,250.431 428.204,324.480 405.560 C 329.995 403.874,334.507 402.266,334.507 401.988 C 334.507 401.710,322.639 389.620,308.135 375.121 L 281.762 348.759 276.348 349.825 C 232.330 358.492,190.349 338.377,170.468 299.093 C 161.170 280.722,158.136 259.394,161.793 238.107 L 163.159 230.154 129.157 196.144 C 110.456 177.438,94.715 162.133,94.178 162.133 C 93.640 162.133,87.252 168.260,79.983 175.747 M260.267 192.698 C 260.267 193.754,319.064 252.100,319.594 251.571 C 320.367 250.797,318.458 241.290,316.171 234.531 C 313.126 225.529,309.285 219.690,300.768 211.114 C 294.244 204.544,291.812 202.736,284.981 199.381 C 277.401 195.658,270.940 193.609,263.467 192.557 C 261.707 192.310,260.267 192.373,260.267 192.698 M192.416 263.893 C 194.922 279.944,201.012 291.576,212.633 302.507 C 220.087 309.518,226.271 313.377,234.531 316.171 C 241.290 318.458,250.797 320.367,251.571 319.594 C 252.142 319.022,193.710 260.267,192.570 260.267 C 192.174 260.267,192.105 261.899,192.416 263.893 " stroke="none" fill-rule="evenodd" fill="black"></path></svg>