<svg xmlns="http://www.w3.org/2000/svg" width="512" height="512" viewBox="0 0 512 512"><path d="M77.227 64.807 C 67.839 67.059,62.498 75.581,64.846 84.562 C 65.748 88.012,80.509 103.000,244.754 267.243 C 440.430 462.916,425.743 448.972,434.755 447.621 C 437.640 447.188,439.710 446.153,442.224 443.884 C 448.077 438.602,449.525 432.132,446.362 425.387 C 445.246 423.005,390.894 368.155,266.541 243.918 C 113.668 91.188,87.895 65.782,85.333 65.295 C 83.691 64.982,81.771 64.606,81.067 64.460 C 80.363 64.313,78.635 64.469,77.227 64.807 M235.093 96.987 C 216.781 99.167,199.863 102.606,186.880 106.789 C 177.317 109.870,177.186 109.338,190.894 123.047 L 202.981 135.134 211.357 133.273 C 228.410 129.486,236.964 128.568,255.573 128.527 C 275.546 128.483,285.867 129.670,303.671 134.058 C 336.251 142.089,368.136 158.386,398.080 182.313 C 409.461 191.407,432.306 214.089,441.621 225.542 C 450.413 236.353,463.331 254.389,463.348 255.875 C 463.354 256.511,460.423 261.311,456.833 266.542 C 443.638 285.768,427.826 303.843,410.519 319.481 C 404.382 325.027,399.360 330.010,399.360 330.555 C 399.360 331.987,420.328 352.694,421.396 352.317 C 423.453 351.590,444.606 331.672,452.596 322.939 C 469.231 304.755,486.499 281.901,492.179 270.551 C 495.186 264.543,495.360 263.749,495.360 256.044 C 495.360 246.243,493.941 242.658,484.967 229.783 C 432.581 154.626,358.901 106.716,281.844 97.702 C 272.055 96.557,242.505 96.105,235.093 96.987 M241.920 161.033 C 236.916 161.718,232.960 163.067,232.960 164.089 C 232.960 165.948,347.021 279.332,348.371 278.814 C 351.612 277.570,352.913 252.056,350.406 238.873 C 342.906 199.423,311.933 168.468,273.168 161.679 C 266.595 160.528,248.362 160.151,241.920 161.033 M82.287 168.837 C 56.787 191.577,22.620 232.646,17.772 246.382 C 15.403 253.094,15.907 262.980,18.957 269.653 C 24.403 281.568,46.813 310.357,65.706 329.709 C 100.911 365.770,137.682 389.542,180.053 403.633 C 224.868 418.537,272.672 419.905,317.440 407.563 C 330.701 403.907,332.800 403.105,332.800 401.688 C 332.800 400.594,309.736 377.173,308.658 377.173 C 308.362 377.173,304.937 377.909,301.046 378.808 C 284.384 382.659,275.872 383.545,255.573 383.541 C 234.033 383.537,225.040 382.527,206.898 378.076 C 175.407 370.351,143.085 354.099,115.200 331.969 C 95.459 316.303,69.292 287.794,54.049 265.348 L 47.939 256.349 55.515 246.217 C 71.352 225.038,90.735 203.824,108.369 188.368 L 114.765 182.762 104.146 172.021 C 98.306 166.114,92.905 161.280,92.144 161.280 C 91.383 161.280,86.948 164.681,82.287 168.837 M162.710 233.600 C 161.476 235.692,160.105 248.504,160.175 257.280 C 160.444 291.054,178.998 322.611,208.517 339.500 C 215.945 343.750,228.179 348.288,237.720 350.332 C 250.498 353.069,277.495 351.808,278.798 348.413 C 279.135 347.535,261.371 329.214,222.207 290.047 C 190.812 258.649,164.666 232.960,164.106 232.960 C 163.546 232.960,162.918 233.248,162.710 233.600 " stroke="none" fill-rule="evenodd" fill="black"></path></svg>