<svg xmlns="http://www.w3.org/2000/svg" width="512" height="512" viewBox="0 0 512 512"><path d="M77.227 64.807 C 67.839 67.059,62.498 75.581,64.846 84.562 C 65.748 88.012,80.509 103.000,244.754 267.243 C 440.430 462.916,425.743 448.972,434.755 447.621 C 437.640 447.188,439.710 446.153,442.224 443.884 C 448.077 438.602,449.525 432.132,446.362 425.387 C 445.246 423.005,390.894 368.155,266.541 243.918 C 113.668 91.188,87.895 65.782,85.333 65.295 C 83.691 64.982,81.771 64.606,81.067 64.460 C 80.363 64.313,78.635 64.469,77.227 64.807 M235.093 96.937 C 233.685 97.132,229.461 97.696,225.707 98.192 C 208.747 100.429,185.110 106.409,182.311 109.171 C 181.344 110.125,180.926 111.358,181.238 112.340 C 181.519 113.224,192.860 125.035,206.440 138.586 C 230.794 162.887,231.171 163.216,233.966 162.628 C 246.051 160.087,262.203 159.690,273.273 161.664 C 312.006 168.570,342.886 199.297,350.283 238.294 C 351.947 247.066,351.952 264.962,350.293 273.632 C 349.590 277.310,349.014 280.501,349.013 280.723 C 349.013 280.944,364.847 296.976,384.199 316.349 C 407.624 339.799,419.969 351.573,421.131 351.573 C 424.671 351.573,450.261 326.756,464.964 309.063 C 478.694 292.541,492.153 272.686,494.499 265.495 C 496.904 258.117,496.015 249.111,492.110 241.306 C 488.804 234.698,477.368 218.607,466.285 204.969 C 456.527 192.962,430.502 167.235,418.107 157.343 C 378.298 125.574,334.676 105.653,289.280 98.513 C 280.753 97.172,241.622 96.034,235.093 96.937 M87.808 163.967 C 82.131 168.029,55.234 195.389,45.988 206.507 C 34.399 220.441,21.687 237.702,18.965 243.200 C 16.902 247.364,16.640 248.855,16.640 256.427 C 16.640 264.369,16.834 265.344,19.434 270.507 C 22.533 276.659,33.280 291.996,44.370 306.094 C 53.747 318.014,82.296 346.666,94.162 356.067 C 162.056 409.854,238.104 427.903,314.419 408.344 C 328.506 404.734,330.575 403.833,330.957 401.141 C 331.196 399.450,327.076 394.917,307.063 374.855 C 293.762 361.522,282.252 350.263,281.485 349.836 C 280.595 349.340,277.654 349.542,273.378 350.391 C 259.129 353.222,239.771 351.809,225.283 346.881 C 192.514 335.736,167.575 306.833,161.679 273.168 C 160.107 264.191,160.112 247.432,161.690 238.577 C 162.419 234.484,162.598 231.289,162.144 230.471 C 160.919 228.265,93.472 161.280,92.477 161.280 C 91.974 161.280,89.873 162.489,87.808 163.967 M263.680 194.255 C 263.680 196.298,315.619 248.320,317.658 248.320 C 320.140 248.320,319.089 241.664,314.995 231.463 C 307.468 212.710,286.905 196.142,267.553 193.240 C 264.132 192.727,263.680 192.846,263.680 194.255 M193.217 264.816 C 192.601 266.421,194.262 273.298,196.850 279.855 C 201.500 291.638,212.090 304.064,223.267 310.854 C 228.436 313.994,242.375 319.147,245.699 319.147 C 250.772 319.147,248.577 316.427,222.209 290.049 C 207.712 275.546,195.356 263.680,194.752 263.680 C 194.147 263.680,193.457 264.191,193.217 264.816 " stroke="none" fill-rule="evenodd" fill="black"></path></svg>