<svg xmlns="http://www.w3.org/2000/svg" width="512" height="512" viewBox="0 0 512 512"><path d="M234.240 97.032 C 226.420 97.760,209.044 100.890,199.787 103.238 C 163.305 112.490,127.342 131.405,93.092 159.355 C 74.560 174.479,47.878 202.818,31.426 224.853 C 17.493 243.513,15.804 247.261,16.423 258.133 C 16.921 266.870,18.872 271.177,28.606 285.013 C 51.022 316.880,78.342 344.995,107.520 366.224 C 155.816 401.364,214.140 419.192,268.880 415.548 C 325.349 411.788,376.216 390.349,424.533 349.944 C 448.576 329.838,482.330 290.222,492.178 270.551 C 495.186 264.543,495.360 263.750,495.360 256.044 C 495.360 246.243,493.941 242.658,484.967 229.783 C 432.581 154.626,358.901 106.716,281.844 97.702 C 271.911 96.540,243.772 96.144,234.240 97.032 M273.168 161.679 C 312.669 168.597,344.965 201.783,350.759 241.408 C 352.188 251.181,351.352 270.653,349.144 279.040 C 341.261 308.980,319.871 333.748,292.396 344.749 C 245.343 363.590,193.235 344.078,170.468 299.093 C 163.351 285.031,160.427 272.481,160.427 256.000 C 160.427 239.056,163.443 226.528,171.087 211.728 C 184.477 185.803,209.970 166.842,238.365 161.690 C 246.765 160.166,264.497 160.161,273.168 161.679 M245.397 192.846 C 230.994 195.458,216.672 203.739,206.996 215.049 C 191.721 232.903,187.864 258.142,196.985 280.554 C 203.116 295.622,216.378 308.884,231.446 315.015 C 255.763 324.911,282.696 319.539,301.117 301.117 C 325.081 277.153,326.292 239.192,303.904 213.760 C 296.467 205.312,283.229 197.106,272.135 194.065 C 266.471 192.513,251.097 191.812,245.397 192.846 " stroke="none" fill-rule="evenodd" fill="black"></path></svg>