<svg xmlns="http://www.w3.org/2000/svg" width="512" height="512" viewBox="0 0 512 512"><path d="M405.310 32.419 C 398.831 33.452,393.316 35.400,385.280 39.495 C 378.805 42.794,376.320 45.097,337.048 84.190 L 295.642 125.408 278.868 108.634 L 262.095 91.860 253.714 99.596 C 249.105 103.850,233.664 119.125,219.401 133.541 L 193.469 159.750 215.558 181.851 L 237.646 203.952 134.600 307.000 L 31.554 410.049 31.777 445.024 L 32.000 480.000 66.976 480.223 L 101.951 480.446 205.000 377.400 L 308.048 274.354 329.604 295.897 C 341.459 307.746,351.542 317.440,352.010 317.440 C 352.478 317.440,368.025 302.273,386.558 283.735 L 420.255 250.031 403.212 232.972 L 386.170 215.914 427.134 174.730 C 471.509 130.118,472.399 129.056,476.666 115.627 C 480.894 102.323,480.924 89.740,476.761 76.658 C 473.420 66.157,469.130 59.344,460.461 50.773 C 451.681 42.093,443.429 37.172,432.640 34.184 C 425.325 32.159,412.243 31.314,405.310 32.419 M273.071 239.364 L 285.427 251.742 265.167 272.001 L 244.908 292.261 232.326 279.679 L 219.744 267.097 239.785 247.042 C 250.808 236.011,260.026 226.987,260.271 226.987 C 260.515 226.987,266.275 232.557,273.071 239.364 " stroke="none" fill-rule="evenodd" fill="black"></path></svg>