<svg xmlns="http://www.w3.org/2000/svg" width="512" height="512" viewBox="0 0 512 512"><path d="M399.556 34.146 C 391.667 36.213,381.439 41.522,375.226 46.776 C 372.104 49.416,360.806 63.265,343.384 85.807 C 314.717 122.899,312.356 125.749,308.736 127.646 C 304.040 130.106,301.108 129.279,294.804 123.713 C 279.341 110.063,259.431 107.282,240.982 116.195 C 232.557 120.266,223.723 129.125,219.753 137.483 C 209.629 158.802,214.031 178.900,232.903 197.524 C 236.220 200.797,238.933 203.864,238.933 204.341 C 238.933 204.818,197.332 246.877,146.486 297.804 C 43.545 400.911,51.544 391.980,44.825 411.307 C 37.963 431.046,31.137 461.603,32.378 467.030 C 33.862 473.518,38.551 478.164,45.109 479.643 C 48.649 480.441,59.474 478.569,78.080 473.939 C 93.528 470.094,106.232 465.766,114.773 461.436 C 121.434 458.059,123.852 455.726,214.196 365.521 C 265.123 314.671,307.131 273.067,307.545 273.067 C 307.959 273.067,311.506 276.146,315.427 279.911 C 327.583 291.580,336.855 296.323,349.754 297.470 C 357.081 298.121,366.180 296.206,374.473 292.267 C 381.897 288.742,391.569 279.575,395.340 272.490 C 398.502 266.549,401.067 256.127,401.067 249.216 C 401.067 238.565,396.551 226.469,389.688 218.739 C 382.757 210.932,381.797 208.146,384.354 203.264 C 386.240 199.664,389.035 197.355,425.813 169.006 C 449.063 151.086,461.835 140.663,464.841 137.158 C 479.099 120.532,483.561 97.179,476.519 76.043 C 469.536 55.083,451.278 38.687,429.485 33.803 C 421.056 31.914,407.480 32.070,399.556 34.146 M273.694 238.281 C 279.450 244.023,284.160 249.114,284.160 249.595 C 284.160 250.076,276.378 258.244,266.866 267.747 C 252.174 282.427,248.899 285.281,245.097 286.726 C 242.636 287.661,239.211 288.427,237.487 288.427 C 233.134 288.427,227.698 285.583,225.693 282.258 C 223.492 278.606,223.463 269.673,225.638 265.387 C 227.226 262.258,260.907 227.840,262.380 227.840 C 262.847 227.840,267.938 232.538,273.694 238.281 " stroke="none" fill-rule="evenodd" fill="black"></path></svg>