<svg xmlns="http://www.w3.org/2000/svg" width="512" height="512" viewBox="0 0 512 512"><path d="M400.302 33.700 C 392.829 35.385,382.087 40.907,375.694 46.352 C 372.020 49.481,361.704 62.081,342.337 87.091 C 325.352 109.027,313.235 123.922,311.599 124.878 C 310.113 125.746,306.671 126.658,303.950 126.905 C 299.004 127.353,299.001 127.352,294.149 123.106 C 275.529 106.812,248.754 106.877,230.671 123.259 C 213.974 138.386,209.783 160.408,219.749 180.655 C 221.991 185.209,224.965 189.080,231.223 195.588 L 239.671 204.373 146.794 297.387 L 53.918 390.400 50.089 398.507 C 43.813 411.796,37.366 433.875,33.316 455.951 C 31.610 465.252,31.950 468.567,35.081 473.136 C 39.494 479.576,44.999 480.943,57.155 478.616 C 79.658 474.310,100.410 468.166,113.493 461.936 L 121.600 458.075 214.613 365.202 L 307.627 272.329 316.412 280.777 C 322.920 287.035,326.791 290.009,331.345 292.251 C 351.445 302.144,373.320 298.057,388.599 281.554 C 393.836 275.898,398.654 266.718,400.131 259.585 C 403.144 245.027,399.060 229.215,389.556 218.644 C 385.741 214.401,385.570 213.989,385.593 209.132 C 385.637 199.953,385.212 200.378,425.533 169.096 C 462.884 140.117,466.794 136.577,472.327 126.720 C 481.413 110.536,482.292 87.552,474.486 70.335 C 467.107 54.060,452.312 40.748,435.437 35.198 C 429.922 33.384,426.852 32.968,417.280 32.742 C 409.426 32.556,404.023 32.861,400.302 33.700 M421.552 64.854 C 427.982 66.074,433.198 68.902,438.148 73.852 C 443.106 78.810,445.913 83.995,447.185 90.545 C 449.053 100.169,445.602 111.596,438.928 117.883 C 437.112 119.594,420.843 132.402,402.773 146.347 C 384.704 160.291,368.547 173.016,366.870 174.624 C 365.192 176.232,362.504 179.637,360.896 182.191 L 357.973 186.834 341.631 170.523 L 325.288 154.211 330.111 150.978 C 336.984 146.370,338.344 144.775,366.069 108.800 C 379.814 90.965,392.255 75.083,393.717 73.507 C 400.863 65.796,410.585 62.775,421.552 64.854 M269.482 144.585 C 272.267 146.065,366.359 240.281,367.698 242.931 C 369.142 245.788,368.836 253.477,367.145 256.793 C 364.810 261.373,360.027 264.710,355.120 265.181 C 346.617 265.998,348.127 267.268,297.156 216.429 C 265.949 185.302,249.421 168.213,248.303 165.917 C 244.421 157.946,248.164 147.443,256.000 144.319 C 259.198 143.044,266.868 143.195,269.482 144.585 M194.356 340.159 L 103.680 430.723 97.955 432.226 C 88.841 434.617,83.255 432.873,79.950 426.606 C 78.062 423.024,78.544 416.404,81.121 410.521 C 82.488 407.400,100.903 388.537,172.610 316.805 L 262.387 226.997 273.710 238.296 L 285.033 249.595 194.356 340.159 " stroke="none" fill-rule="evenodd" fill="black"></path></svg>