<svg xmlns="http://www.w3.org/2000/svg" width="512" height="512" viewBox="0 0 512 512"><path d="M400.765 26.013 C 384.408 31.327,370.721 36.000,370.350 36.397 C 369.979 36.795,366.528 50.173,362.680 66.127 C 358.833 82.081,355.505 95.425,355.285 95.781 C 355.066 96.136,321.885 96.427,281.550 96.427 L 208.213 96.427 208.213 112.213 L 208.213 128.000 217.501 128.000 L 226.788 128.000 227.350 133.760 C 227.659 136.928,228.118 140.576,228.370 141.867 L 228.829 144.213 238.361 144.214 C 258.091 144.217,283.527 148.778,299.731 155.219 C 319.222 162.967,333.706 172.320,347.360 185.973 C 364.676 203.290,375.509 222.816,380.614 245.916 C 381.600 250.377,382.051 251.017,386.241 253.903 C 395.993 260.619,405.825 273.263,410.781 285.460 C 416.945 300.628,417.184 321.807,411.364 337.122 L 409.654 341.622 411.364 346.811 C 416.322 361.852,416.904 384.374,412.748 400.315 C 406.309 425.015,390.343 445.260,368.795 456.047 C 363.757 458.569,362.366 459.702,361.601 461.907 C 358.754 470.104,351.484 482.426,342.977 493.471 L 341.146 495.848 383.266 495.604 C 424.746 495.364,425.440 495.332,428.881 493.490 C 433.959 490.773,437.452 486.331,439.311 480.228 C 440.487 476.367,446.014 426.659,459.190 301.441 L 477.440 128.002 486.613 128.001 L 495.787 128.000 495.787 112.213 L 495.787 96.427 442.453 96.427 C 392.220 96.427,389.121 96.340,389.142 94.933 C 389.166 93.291,397.306 60.610,397.783 60.239 C 397.946 60.112,407.982 56.628,420.084 52.497 C 432.187 48.366,441.979 44.728,441.844 44.412 C 441.710 44.097,439.488 37.623,436.907 30.026 C 434.326 22.429,431.830 16.244,431.360 16.282 C 430.891 16.320,417.123 20.699,400.765 26.013 M149.537 176.745 C 111.938 179.838,80.873 196.256,63.656 222.133 C 55.315 234.668,50.601 247.939,48.544 264.679 L 47.537 272.871 44.035 273.903 C 38.271 275.601,32.168 279.542,27.141 284.812 C 19.380 292.949,16.213 301.088,16.213 312.902 L 16.213 320.000 60.596 320.000 L 104.979 320.000 124.134 334.108 L 143.290 348.216 162.688 334.108 L 182.086 320.000 283.043 320.000 L 384.000 320.000 384.000 313.779 C 384.000 295.486,373.790 280.495,357.120 274.310 C 354.773 273.440,352.571 272.324,352.226 271.830 C 351.882 271.337,351.594 269.143,351.586 266.955 C 351.557 258.033,347.258 242.173,342.071 231.856 C 333.295 214.397,318.829 200.235,299.840 190.514 C 283.939 182.373,268.939 178.304,248.836 176.677 C 236.008 175.639,162.366 175.689,149.537 176.745 M16.376 370.560 C 16.700 388.243,16.774 388.879,19.349 396.170 C 22.931 406.309,26.605 412.101,33.808 418.959 C 40.998 425.805,48.537 429.796,56.834 431.151 C 60.071 431.680,62.811 432.162,62.922 432.223 C 63.033 432.283,64.044 435.959,65.168 440.390 C 69.039 455.648,76.024 467.823,86.513 477.592 C 94.340 484.882,101.415 489.086,111.787 492.607 L 119.893 495.360 200.107 495.360 L 280.320 495.360 288.292 492.577 C 303.489 487.270,314.841 478.828,323.265 466.568 C 327.817 459.942,332.667 448.959,334.838 440.357 L 336.875 432.288 343.054 431.247 C 360.351 428.332,374.926 414.139,381.495 393.813 C 383.176 388.612,383.474 385.551,383.799 370.133 L 384.172 352.427 284.033 352.428 L 183.893 352.428 163.880 369.494 C 152.872 378.880,143.638 386.560,143.360 386.560 C 143.082 386.560,133.848 378.880,122.840 369.494 L 102.827 352.428 59.435 352.428 L 16.044 352.427 16.376 370.560 " stroke="none" fill-rule="evenodd" fill="black"></path></svg>