<svg xmlns="http://www.w3.org/2000/svg" width="512" height="512" viewBox="0 0 512 512"><path d="M402.727 24.684 C 389.325 29.293,377.164 33.683,375.701 34.439 C 370.726 37.012,369.656 39.747,362.373 68.511 L 355.413 96.000 288.929 96.144 C 252.363 96.223,221.155 96.530,219.578 96.826 C 218.000 97.122,215.317 98.587,213.615 100.082 C 203.125 109.292,208.778 126.468,222.741 127.809 C 225.919 128.115,226.988 128.565,226.990 129.602 C 226.992 130.364,228.144 140.742,229.550 152.665 C 230.956 164.589,232.107 174.669,232.107 175.065 C 232.107 175.462,217.035 175.792,198.613 175.799 C 161.037 175.814,144.759 176.656,132.011 179.248 C 90.322 187.722,60.752 213.641,51.260 250.027 C 50.342 253.547,49.357 258.731,49.072 261.547 C 47.889 273.220,48.157 272.637,43.255 274.199 C 33.468 277.317,24.644 285.239,19.837 295.224 C 17.089 300.933,16.732 302.485,16.400 310.158 C 16.088 317.365,16.324 319.591,17.893 324.221 C 19.573 329.176,24.682 338.105,26.470 339.210 C 26.856 339.449,25.844 341.848,24.222 344.542 C 22.600 347.236,20.244 352.512,18.987 356.267 C 16.920 362.436,16.697 364.325,16.670 375.893 C 16.644 387.081,16.891 389.446,18.633 394.667 C 25.595 415.540,40.986 429.735,58.630 431.559 L 63.074 432.018 64.065 436.809 C 66.854 450.291,73.909 464.278,82.734 473.821 C 91.871 483.701,101.035 489.511,113.640 493.413 L 119.893 495.349 260.693 495.583 C 357.608 495.745,402.855 495.535,405.862 494.911 C 416.640 492.676,429.504 483.623,435.751 473.880 C 442.234 463.768,441.200 471.473,460.086 292.481 L 477.440 128.002 480.371 128.001 C 493.141 127.997,500.578 111.448,492.131 101.828 C 487.097 96.095,488.604 96.242,436.300 96.361 C 391.644 96.462,389.121 96.387,389.142 94.954 C 389.165 93.298,397.302 60.613,397.783 60.239 C 397.946 60.112,406.900 57.038,417.680 53.408 C 438.801 46.297,441.023 45.297,443.681 41.702 C 451.589 31.005,444.010 16.094,430.747 16.259 C 428.442 16.287,418.101 19.396,402.727 24.684 M444.850 130.347 C 444.687 131.637,437.073 203.925,427.929 290.987 C 418.784 378.048,410.909 450.703,410.429 452.442 C 409.259 456.673,405.736 460.698,401.529 462.609 C 398.357 464.050,395.145 464.177,361.537 464.195 L 324.995 464.213 327.553 459.733 C 331.093 453.536,334.323 444.376,336.582 434.133 C 337.015 432.167,337.546 431.785,339.856 431.777 C 348.886 431.743,359.687 426.178,368.119 417.215 C 378.181 406.519,382.793 395.307,383.728 379.272 C 384.427 367.273,382.656 358.728,377.206 347.802 L 372.984 339.338 375.500 336.472 C 382.943 327.995,385.811 314.090,382.657 301.777 C 379.490 289.416,369.623 278.780,357.130 274.263 L 352.000 272.408 351.352 265.271 C 347.562 223.508,317.256 190.859,272.323 180.129 C 268.394 179.191,265.088 178.310,264.976 178.172 C 264.707 177.837,259.392 131.410,259.404 129.493 C 259.413 128.080,264.408 128.000,352.279 128.000 L 445.144 128.000 444.850 130.347 M252.609 209.100 C 280.201 212.483,302.699 225.898,312.701 244.932 C 315.847 250.919,318.469 259.727,319.488 267.733 L 320.059 272.213 200.136 272.213 L 80.213 272.213 80.213 270.044 C 80.213 266.528,82.754 255.260,84.609 250.549 C 92.789 229.775,115.117 213.908,141.653 210.012 C 145.173 209.495,149.013 208.931,150.187 208.759 C 155.454 207.986,245.981 208.287,252.609 209.100 M346.839 304.994 C 352.051 307.172,353.380 313.738,349.372 317.505 L 347.170 319.573 259.985 320.000 L 172.800 320.427 168.960 322.453 C 166.848 323.568,160.427 329.105,154.692 334.758 L 144.263 345.037 133.518 334.580 C 118.100 319.576,121.296 320.518,84.053 319.998 C 67.157 319.762,52.691 319.253,51.906 318.865 C 49.844 317.848,47.854 313.122,48.370 310.467 C 48.870 307.896,51.630 305.016,54.187 304.398 C 55.125 304.170,120.706 303.940,199.921 303.886 C 322.347 303.802,344.382 303.968,346.839 304.994 M118.582 365.543 C 125.921 372.757,133.216 379.327,134.794 380.143 C 136.372 380.959,139.823 381.823,142.463 382.062 C 150.607 382.801,153.840 380.797,168.991 365.622 L 182.166 352.427 260.683 352.430 C 337.618 352.433,339.256 352.467,341.991 354.135 C 345.142 356.056,349.470 362.382,350.726 366.904 C 352.017 371.552,351.728 381.617,350.165 386.459 C 348.484 391.663,343.793 397.426,339.919 399.044 C 337.590 400.018,314.163 400.213,199.977 400.213 C 63.155 400.213,62.824 400.209,59.194 398.452 C 55.100 396.470,50.897 390.858,49.365 385.330 C 47.903 380.052,48.150 370.546,49.885 365.327 C 50.892 362.300,52.777 359.318,55.416 356.580 L 59.420 352.427 82.329 352.427 L 105.239 352.427 118.582 365.543 M303.497 434.303 C 302.466 439.455,297.315 448.444,292.693 453.156 C 286.956 459.005,280.322 462.276,272.005 463.356 C 268.590 463.800,235.394 464.167,197.973 464.174 C 124.036 464.189,123.918 464.182,114.984 459.320 C 112.672 458.062,108.894 454.968,106.588 452.445 C 102.751 448.247,97.283 438.398,96.183 433.707 L 95.733 431.787 199.867 431.787 L 304.000 431.787 303.497 434.303 " stroke="none" fill-rule="evenodd" fill="black"></path></svg>