<svg xmlns="http://www.w3.org/2000/svg" width="512" height="512" viewBox="0 0 512 512"><path d="M402.493 24.764 C 376.923 33.557,373.218 35.216,370.756 38.973 C 369.946 40.210,366.162 53.547,362.348 68.611 L 355.413 96.000 287.147 96.427 C 224.240 96.820,218.666 96.971,216.151 98.346 C 208.967 102.274,206.221 111.399,209.922 119.044 C 212.331 124.020,217.039 127.261,222.642 127.800 L 226.789 128.198 227.370 133.334 C 228.379 142.253,230.892 144.213,241.320 144.214 C 258.123 144.217,284.604 149.206,299.731 155.219 C 319.222 162.967,333.706 172.320,347.360 185.973 C 364.523 203.136,375.468 222.759,380.611 245.586 C 381.534 249.683,382.157 250.527,387.294 254.638 C 402.096 266.483,410.824 280.399,414.334 297.751 C 416.477 308.341,415.727 323.913,412.611 333.570 C 410.070 341.444,410.097 342.603,413.059 352.853 C 414.812 358.916,415.033 361.493,415.036 375.893 C 415.039 390.676,414.843 392.831,412.824 400.315 C 406.292 424.517,390.333 445.174,370.347 455.296 C 363.574 458.726,363.110 459.270,358.056 469.690 C 355.534 474.891,351.297 482.172,348.640 485.870 C 345.984 489.567,343.930 493.215,344.077 493.976 C 344.315 495.214,347.351 495.384,372.852 495.585 C 396.176 495.769,402.304 495.573,406.547 494.504 C 422.846 490.400,436.208 477.836,441.131 461.986 C 442.302 458.216,447.557 411.246,460.096 292.474 L 477.440 128.177 481.472 127.789 C 497.024 126.293,501.122 105.209,487.238 98.125 C 484.031 96.490,482.151 96.427,436.514 96.427 C 391.937 96.427,389.121 96.338,389.142 94.933 C 389.165 93.293,397.305 60.612,397.783 60.236 C 397.946 60.107,407.104 56.986,418.133 53.299 C 436.480 47.167,438.488 46.301,441.727 43.123 C 446.259 38.678,447.800 33.690,446.350 28.160 C 445.209 23.810,441.216 19.137,437.147 17.392 C 431.955 15.164,427.899 16.027,402.493 24.764 M149.537 176.745 C 111.938 179.838,80.873 196.256,63.656 222.133 C 55.315 234.668,50.601 247.939,48.544 264.679 L 47.537 272.871 44.035 273.903 C 35.549 276.403,24.630 285.406,20.681 293.158 C 18.034 298.353,16.213 305.339,16.213 310.294 C 16.213 313.810,16.660 315.304,18.272 317.179 L 20.331 319.573 67.552 320.000 C 123.832 320.509,117.879 319.231,133.018 334.050 C 138.548 339.464,143.582 343.893,144.204 343.893 C 144.826 343.893,149.787 339.519,155.228 334.174 C 160.668 328.828,166.848 323.548,168.960 322.440 L 172.800 320.427 276.341 320.000 L 379.881 319.573 381.941 317.179 C 384.395 314.326,384.630 309.979,382.727 302.672 C 379.241 289.288,370.049 279.107,357.120 274.310 C 354.773 273.440,352.571 272.324,352.226 271.830 C 351.882 271.337,351.594 269.143,351.586 266.955 C 351.557 258.033,347.258 242.173,342.071 231.856 C 333.295 214.397,318.829 200.235,299.840 190.514 C 283.939 182.373,268.939 178.304,248.836 176.677 C 236.008 175.639,162.366 175.689,149.537 176.745 M25.137 354.016 C 21.798 356.052,18.097 360.460,17.280 363.372 C 16.928 364.627,16.658 370.837,16.681 377.173 C 16.719 387.805,16.925 389.270,19.356 396.170 C 22.925 406.301,26.601 412.096,33.808 418.959 C 40.998 425.805,48.537 429.796,56.834 431.151 C 60.071 431.680,62.811 432.162,62.922 432.223 C 63.033 432.283,64.044 435.959,65.168 440.390 C 69.039 455.648,76.024 467.823,86.513 477.592 C 94.340 484.882,101.415 489.086,111.787 492.607 L 119.893 495.360 200.107 495.360 L 280.320 495.360 288.292 492.577 C 303.489 487.270,314.841 478.828,323.265 466.568 C 327.824 459.932,332.668 448.954,334.846 440.320 L 336.891 432.213 340.968 431.623 C 359.954 428.872,375.019 414.673,381.536 393.387 C 383.079 388.347,383.504 384.901,383.534 377.173 C 383.583 364.929,382.913 361.726,379.491 357.828 C 374.460 352.097,380.722 352.427,276.803 352.427 L 182.350 352.427 168.615 365.954 C 153.123 381.212,150.349 382.901,142.169 382.057 C 139.644 381.796,136.287 380.920,134.709 380.109 C 133.131 379.298,125.863 372.738,118.558 365.531 L 105.277 352.427 66.505 352.430 C 30.245 352.433,27.565 352.536,25.137 354.016 " stroke="none" fill-rule="evenodd" fill="black"></path></svg>