<svg xmlns="http://www.w3.org/2000/svg" width="512" height="512" viewBox="0 0 512 512"><path d="M236.373 17.171 C 205.472 20.728,173.892 33.641,149.367 52.750 C 114.375 80.014,91.685 118.378,83.916 163.413 C 81.680 176.373,81.898 205.276,84.331 218.653 C 89.655 247.914,100.848 273.433,118.492 296.533 C 124.631 304.572,138.735 318.774,147.746 325.992 C 169.481 343.401,198.048 356.511,224.000 360.986 C 226.816 361.472,230.176 362.079,231.467 362.336 L 233.813 362.802 233.813 378.521 L 233.813 394.240 204.800 394.240 L 175.787 394.240 175.787 416.000 L 175.787 437.760 204.800 437.760 L 233.813 437.760 233.813 466.773 L 233.813 495.787 256.000 495.787 L 278.187 495.787 278.187 466.773 L 278.187 437.760 307.200 437.760 L 336.213 437.760 336.213 416.000 L 336.213 394.240 307.200 394.240 L 278.187 394.240 278.187 378.521 L 278.187 362.802 280.533 362.336 C 281.824 362.079,285.184 361.472,288.000 360.986 C 313.952 356.511,342.519 343.401,364.254 325.992 C 373.265 318.774,387.369 304.572,393.508 296.533 C 434.776 242.501,441.532 170.834,410.977 111.215 C 384.094 58.762,333.136 23.655,274.347 17.086 C 265.329 16.078,245.485 16.123,236.373 17.171 M274.347 61.535 C 311.443 66.281,346.685 89.464,366.954 122.453 C 374.376 134.535,380.270 149.714,383.686 165.547 C 386.076 176.624,385.898 204.712,383.366 216.049 C 377.451 242.534,366.457 262.574,347.368 281.662 C 331.421 297.609,315.683 307.328,295.222 313.864 C 280.857 318.453,273.441 319.523,256.000 319.523 C 238.559 319.523,231.143 318.453,216.778 313.864 C 196.317 307.328,180.579 297.609,164.632 281.662 C 145.634 262.664,134.396 242.239,128.773 216.486 C 126.590 206.491,125.720 185.867,127.017 174.867 C 134.234 113.673,184.190 65.446,245.333 60.645 C 254.689 59.910,263.843 60.191,274.347 61.535 " stroke="none" fill-rule="evenodd" fill="black"></path></svg>