<svg xmlns="http://www.w3.org/2000/svg" width="512" height="512" viewBox="0 0 512 512"><path d="M234.240 17.538 C 195.467 22.758,161.423 40.118,134.278 68.513 C 85.987 119.025,74.301 194.181,104.925 257.280 C 118.233 284.698,139.272 308.472,165.120 325.298 C 183.521 337.275,208.352 346.756,229.547 349.896 C 233.067 350.418,236.811 351.016,237.867 351.225 L 239.787 351.606 239.787 375.910 L 239.787 400.213 217.229 400.213 C 203.365 400.213,193.745 400.563,192.269 401.121 C 186.966 403.125,181.797 410.468,181.797 416.000 C 181.797 421.532,186.966 428.875,192.269 430.879 C 193.745 431.437,203.365 431.787,217.229 431.787 L 239.787 431.787 239.805 457.173 C 239.822 480.062,239.980 482.896,241.404 485.973 C 247.518 499.177,264.482 499.177,270.596 485.973 C 272.020 482.896,272.178 480.062,272.195 457.173 L 272.213 431.787 294.771 431.787 C 308.635 431.787,318.255 431.437,319.731 430.879 C 325.034 428.875,330.203 421.532,330.203 416.000 C 330.203 410.468,325.034 403.125,319.731 401.121 C 318.255 400.563,308.635 400.213,294.771 400.213 L 272.213 400.213 272.213 375.910 L 272.213 351.606 274.133 351.225 C 275.189 351.016,278.933 350.418,282.453 349.896 C 303.740 346.742,328.869 337.087,347.498 324.905 C 372.779 308.372,393.890 284.407,407.069 257.280 C 428.829 212.493,429.609 161.570,409.246 115.200 C 388.863 68.786,344.606 32.204,294.827 20.625 C 276.346 16.326,252.331 15.103,234.240 17.538 M275.200 49.618 C 324.441 56.143,367.105 91.020,384.022 138.578 C 397.527 176.541,392.908 221.267,372.028 254.732 C 357.335 278.280,335.941 297.168,311.893 307.825 C 265.393 328.430,213.565 322.419,173.227 291.741 C 165.830 286.115,153.024 273.238,147.444 265.813 C 135.635 250.100,127.084 231.088,122.880 211.200 C 120.548 200.166,119.679 178.815,121.117 167.892 C 125.383 135.510,139.540 107.311,162.466 85.533 C 192.747 56.770,232.823 44.002,275.200 49.618 " stroke="none" fill="black" fill-rule="evenodd"></path></svg>