<svg xmlns="http://www.w3.org/2000/svg" width="512" height="512" viewBox="0 0 512 512"><path d="M114.654 65.260 C 106.828 66.680,103.262 67.858,96.387 71.294 C 82.172 78.399,71.545 91.495,66.644 107.947 C 65.665 111.232,57.374 149.498,48.219 192.982 L 31.573 272.043 31.580 327.382 C 31.584 358.755,31.958 385.951,32.442 390.181 C 35.523 417.072,52.412 437.370,78.528 445.571 L 84.907 447.573 256.000 447.573 L 427.093 447.573 433.472 445.571 C 459.588 437.370,476.477 417.072,479.558 390.181 C 480.042 385.952,480.416 358.773,480.420 327.436 L 480.427 272.151 463.303 190.940 C 451.707 135.947,445.363 107.612,443.649 103.168 C 435.686 82.520,419.317 69.156,397.282 65.313 C 390.703 64.166,372.733 64.010,255.248 64.077 C 149.084 64.138,119.463 64.387,114.654 65.260 M400.368 99.234 C 410.127 104.027,413.362 109.999,418.060 131.902 C 429.424 184.884,442.880 249.854,442.880 251.744 C 442.880 252.959,442.419 254.413,441.856 254.976 C 441.078 255.754,425.978 256.000,379.109 256.000 C 312.405 256.000,314.052 255.894,309.019 260.521 C 305.989 263.307,303.828 268.669,303.793 273.493 C 303.667 290.572,292.113 307.964,275.912 315.460 C 270.721 317.862,261.412 319.970,256.000 319.970 C 230.830 319.970,208.388 298.147,208.207 273.493 C 208.172 268.669,206.011 263.307,202.981 260.521 C 197.948 255.894,199.595 256.000,132.891 256.000 C 86.022 256.000,70.922 255.754,70.144 254.976 C 69.581 254.413,69.120 252.962,69.120 251.752 C 69.120 250.542,75.447 219.520,83.179 182.815 C 97.810 113.365,98.397 111.166,104.026 104.756 C 106.607 101.816,112.775 98.310,117.282 97.220 C 118.718 96.873,181.909 96.648,257.707 96.721 L 395.520 96.853 400.368 99.234 M137.806 129.591 C 123.635 136.029,125.654 156.245,140.792 159.492 C 146.915 160.805,365.085 160.805,371.208 159.492 C 386.346 156.245,388.365 136.029,374.194 129.591 C 370.940 128.113,365.193 128.037,256.000 128.037 C 146.807 128.037,141.060 128.113,137.806 129.591 M121.565 193.604 C 114.513 196.807,110.635 204.378,112.491 211.316 C 113.916 216.644,115.688 219.019,120.228 221.688 L 124.160 224.000 256.000 224.000 L 387.840 224.000 391.772 221.688 C 396.312 219.019,398.084 216.644,399.509 211.316 C 401.365 204.378,397.487 196.807,390.435 193.604 C 387.137 192.106,381.259 192.037,256.000 192.037 C 130.741 192.037,124.863 192.106,121.565 193.604 " stroke="none" fill-rule="evenodd" fill="black"></path></svg>