<svg xmlns="http://www.w3.org/2000/svg" width="512" height="512" viewBox="0 0 512 512"><path d="M114.549 17.161 C 101.879 19.272,90.914 24.956,81.809 34.134 C 70.405 45.630,70.236 46.101,49.488 124.081 L 31.573 191.416 31.573 215.837 C 31.573 229.269,31.973 243.512,32.462 247.489 C 36.281 278.583,56.249 307.416,80.759 317.229 L 86.613 319.573 256.000 319.573 L 425.387 319.573 431.241 317.229 C 453.442 308.341,471.598 284.483,478.486 255.147 C 479.471 250.951,479.879 242.531,480.160 220.587 L 480.532 191.573 462.564 124.160 C 447.039 65.910,444.081 55.703,440.808 49.067 C 432.611 32.452,418.534 21.733,399.787 17.833 C 392.456 16.309,385.889 16.240,255.573 16.324 C 180.480 16.373,117.019 16.749,114.549 17.161 M391.070 48.658 C 397.831 49.635,403.804 52.450,407.621 56.457 C 410.561 59.544,414.228 66.303,415.186 70.400 C 415.515 71.808,421.689 95.186,428.905 122.351 C 436.122 149.516,442.027 172.652,442.027 173.764 L 442.027 175.787 380.800 175.807 C 347.125 175.818,318.067 176.177,316.226 176.604 C 309.753 178.105,305.043 183.434,304.260 190.143 C 302.149 208.222,298.660 216.793,289.823 225.610 C 266.638 248.740,227.755 242.440,213.434 213.233 C 210.090 206.413,209.235 202.947,207.740 190.143 C 206.957 183.434,202.247 178.105,195.774 176.604 C 193.933 176.177,164.875 175.818,131.200 175.807 L 69.973 175.787 69.973 173.777 C 69.973 172.672,75.925 149.409,83.200 122.082 C 90.475 94.754,96.427 71.902,96.427 71.299 C 96.427 68.807,102.677 57.960,105.583 55.409 C 109.504 51.966,115.109 49.454,120.700 48.633 C 127.382 47.652,384.275 47.675,391.070 48.658 M41.387 353.420 C 38.636 354.938,34.944 358.628,33.417 361.387 C 32.181 363.620,31.966 368.078,31.735 396.373 C 31.582 415.129,31.846 432.272,32.362 437.035 C 34.171 453.730,39.520 465.241,50.773 476.654 C 58.494 484.484,66.218 489.406,76.373 492.966 L 83.200 495.360 256.000 495.360 L 428.800 495.360 435.627 492.966 C 445.782 489.406,453.506 484.484,461.227 476.654 C 472.480 465.241,477.829 453.730,479.638 437.035 C 480.154 432.272,480.418 415.129,480.265 396.373 C 480.034 368.078,479.819 363.620,478.583 361.387 C 476.710 358.004,472.896 354.460,469.918 353.334 C 468.286 352.718,443.094 352.427,391.365 352.427 L 315.214 352.427 311.359 354.872 C 306.383 358.027,304.551 361.955,303.687 371.322 C 302.474 384.462,297.801 394.233,288.601 402.867 C 279.379 411.521,268.632 415.777,256.000 415.777 C 243.368 415.777,232.621 411.521,223.399 402.867 C 214.199 394.233,209.526 384.462,208.313 371.322 C 207.449 361.955,205.617 358.027,200.641 354.872 L 196.786 352.427 119.940 352.453 C 65.551 352.471,42.595 352.754,41.387 353.420 " stroke="none" fill-rule="evenodd" fill="black"></path></svg>