<svg xmlns="http://www.w3.org/2000/svg" width="512" height="512" viewBox="0 0 512 512"><path d="M114.549 17.152 C 101.833 19.295,90.908 24.962,81.809 34.134 C 70.514 45.520,70.220 46.327,49.706 122.453 L 32.000 188.160 32.033 242.773 C 32.065 296.057,32.111 297.547,33.906 303.954 C 34.918 307.565,36.908 312.862,38.329 315.725 L 40.911 320.929 37.189 324.518 C 31.411 330.088,31.408 330.129,31.776 389.752 C 32.086 439.879,32.159 441.822,33.956 448.303 C 37.041 459.422,42.006 467.765,50.773 476.561 C 59.371 485.187,66.163 489.558,76.373 493.035 L 83.200 495.360 256.000 495.360 L 428.800 495.360 435.627 493.035 C 445.837 489.558,452.629 485.187,461.227 476.561 C 469.998 467.760,474.966 459.409,478.037 448.303 C 479.826 441.833,479.902 439.798,480.223 389.776 C 480.604 330.149,480.600 330.099,474.811 324.518 L 471.089 320.929 473.671 315.725 C 475.092 312.862,477.080 307.565,478.091 303.954 C 479.881 297.554,479.929 296.008,479.964 243.200 L 480.000 189.013 463.499 127.147 C 454.424 93.120,445.901 61.878,444.560 57.720 C 441.331 47.709,437.807 41.957,430.080 34.088 C 422.766 26.640,415.217 22.054,404.917 18.800 L 398.080 16.640 258.560 16.518 C 180.703 16.449,117.055 16.730,114.549 17.152 M396.488 49.804 C 402.686 52.055,408.589 56.859,411.472 61.998 C 413.246 65.161,417.892 81.216,428.016 119.171 C 435.759 148.198,442.312 172.811,442.579 173.867 L 443.065 175.787 380.039 175.805 C 320.589 175.823,316.820 175.914,313.600 177.400 C 307.201 180.353,303.796 186.068,303.774 193.893 C 303.741 205.534,298.873 216.549,289.711 225.711 C 279.981 235.442,269.574 239.787,256.000 239.787 C 242.426 239.787,232.019 235.442,222.289 225.711 C 213.127 216.549,208.259 205.534,208.226 193.893 C 208.204 186.068,204.799 180.353,198.400 177.400 C 195.180 175.914,191.411 175.823,131.961 175.805 L 68.935 175.787 69.417 173.867 C 69.683 172.811,76.239 148.208,83.988 119.194 C 99.237 62.094,100.190 59.412,106.982 54.474 C 111.772 50.992,115.536 49.499,121.600 48.675 C 124.416 48.293,186.432 48.032,259.413 48.097 C 386.597 48.208,392.289 48.279,396.488 49.804 M179.188 213.760 C 182.992 227.263,189.436 238.169,199.633 248.367 C 215.206 263.939,233.901 271.667,256.000 271.667 C 278.099 271.667,296.794 263.939,312.367 248.367 C 322.564 238.169,329.008 227.263,332.812 213.760 L 334.254 208.640 391.170 208.421 L 448.086 208.201 447.830 251.941 L 447.573 295.680 445.273 300.589 C 442.054 307.457,435.496 314.116,428.990 317.121 L 423.680 319.573 256.000 319.573 L 88.320 319.573 83.200 317.185 C 76.480 314.051,69.880 307.479,66.834 300.889 L 64.427 295.680 64.170 251.941 L 63.914 208.201 120.830 208.421 L 177.746 208.640 179.188 213.760 M177.856 353.493 C 183.721 373.701,192.362 387.417,206.045 398.237 C 235.723 421.704,276.838 421.659,306.075 398.126 C 319.926 386.977,328.283 373.689,334.144 353.493 C 334.387 352.654,346.542 352.427,391.227 352.427 L 448.000 352.427 448.000 392.677 C 448.000 418.497,447.658 434.890,447.046 438.403 C 445.296 448.455,436.327 458.752,426.240 462.290 C 422.229 463.697,411.996 463.787,255.573 463.787 L 89.173 463.787 84.200 461.781 C 78.481 459.473,70.361 452.086,67.644 446.718 C 64.294 440.101,64.000 435.791,64.000 393.345 L 64.000 352.427 120.773 352.427 C 165.458 352.427,177.613 352.654,177.856 353.493 M299.957 355.519 C 297.732 360.845,291.031 369.432,286.002 373.403 C 273.752 383.076,258.883 386.195,243.623 382.292 C 236.393 380.443,232.182 378.282,225.467 372.974 C 220.874 369.344,214.184 360.645,212.043 355.519 L 210.750 352.427 256.000 352.427 L 301.250 352.427 299.957 355.519 " stroke="none" fill-rule="evenodd" fill="black"></path></svg>