<svg xmlns="http://www.w3.org/2000/svg" width="512" height="512" viewBox="0 0 512 512"><path d="M114.654 65.251 C 106.813 66.685,103.250 67.864,96.387 71.294 C 82.864 78.053,72.695 90.058,67.344 105.578 C 66.409 108.289,57.954 146.986,48.554 191.571 L 31.463 272.636 31.808 333.225 C 32.055 376.533,32.444 394.909,33.174 397.653 C 39.982 423.270,58.669 441.599,83.200 446.723 C 92.180 448.598,419.820 448.598,428.800 446.723 C 453.331 441.599,472.018 423.270,478.826 397.653 C 479.556 394.908,479.944 376.546,480.188 333.227 L 480.529 272.640 463.444 191.573 C 454.048 146.987,445.597 108.297,444.665 105.597 C 437.807 85.730,423.367 72.113,403.018 66.322 L 396.373 64.431 258.560 64.284 C 148.322 64.166,119.528 64.359,114.654 65.251 M400.282 99.600 C 406.627 102.724,411.916 108.891,414.230 115.867 C 415.558 119.870,443.733 252.539,443.733 254.790 C 443.733 255.780,433.383 256.005,379.030 256.198 L 314.327 256.427 311.359 258.461 C 306.231 261.975,304.585 265.461,303.716 274.647 C 302.705 285.331,300.403 292.022,295.176 299.465 C 283.451 316.161,263.615 323.405,243.623 318.292 C 232.817 315.529,223.793 309.267,217.102 299.891 C 211.722 292.351,209.138 284.955,208.229 274.491 C 207.580 267.022,207.208 265.684,205.031 262.994 C 203.676 261.320,201.506 259.158,200.208 258.189 C 197.879 256.449,197.015 256.424,133.058 256.198 C 78.696 256.005,68.267 255.779,68.267 254.793 C 68.267 251.873,96.794 118.555,98.255 114.648 C 100.113 109.677,105.246 103.417,109.741 100.639 C 116.671 96.356,110.564 96.519,257.298 96.692 L 394.703 96.853 400.282 99.600 M177.856 289.493 C 183.721 309.701,192.362 323.417,206.045 334.237 C 235.723 357.704,276.838 357.659,306.075 334.126 C 319.926 322.977,328.283 309.689,334.144 289.493 C 334.387 288.654,346.549 288.427,391.264 288.427 L 448.075 288.427 447.809 339.840 C 447.519 396.087,447.774 393.271,442.207 401.756 C 438.652 407.174,433.359 411.397,426.797 414.050 L 421.973 416.000 256.000 416.000 L 90.027 416.000 85.203 414.050 C 78.641 411.397,73.348 407.174,69.793 401.756 C 64.226 393.271,64.481 396.087,64.191 339.840 L 63.925 288.427 120.736 288.427 C 165.451 288.427,177.613 288.654,177.856 289.493 " stroke="none" fill-rule="evenodd" fill="black"></path></svg>