<svg xmlns="http://www.w3.org/2000/svg" width="512" height="512" viewBox="0 0 512 512"><path d="M63.572 18.133 C 63.318 19.189,56.015 55.567,47.342 98.974 L 31.573 177.894 31.573 248.947 L 31.573 320.000 256.000 320.000 L 480.427 320.000 480.427 248.947 L 480.427 177.894 464.658 98.974 C 455.985 55.567,448.682 19.189,448.428 18.133 L 447.967 16.213 256.000 16.213 L 64.033 16.213 63.572 18.133 M414.284 59.947 C 414.531 61.003,419.331 86.635,424.950 116.907 C 430.569 147.179,435.374 172.811,435.626 173.867 L 436.086 175.787 378.161 175.787 L 320.236 175.787 319.652 181.547 C 316.954 208.187,299.626 229.335,273.920 237.362 C 268.537 239.043,265.690 239.360,256.000 239.360 C 246.297 239.360,243.475 239.045,238.110 237.360 C 212.266 229.244,195.053 208.251,192.348 181.547 L 191.764 175.787 133.839 175.787 L 75.914 175.787 76.374 173.867 C 76.626 172.811,81.431 147.179,87.050 116.907 C 92.669 86.635,97.469 61.003,97.716 59.947 L 98.166 58.027 256.000 58.027 L 413.834 58.027 414.284 59.947 M31.573 424.107 L 31.573 495.787 256.000 495.787 L 480.427 495.787 480.427 424.107 L 480.427 352.427 400.313 352.427 L 320.199 352.427 319.596 358.053 C 316.860 383.605,299.668 405.168,276.052 412.667 C 236.611 425.192,196.811 399.206,192.404 358.053 L 191.801 352.427 111.687 352.427 L 31.573 352.427 31.573 424.107 " stroke="none" fill-rule="evenodd" fill="black"></path></svg>