<svg xmlns="http://www.w3.org/2000/svg" width="512" height="512" viewBox="0 0 512 512"><path d="M63.650 66.347 C 63.383 67.637,56.056 111.407,47.369 163.612 L 31.573 258.531 31.573 353.266 L 31.573 448.000 256.000 448.000 L 480.427 448.000 480.427 353.266 L 480.427 258.531 464.631 163.612 C 455.944 111.407,448.617 67.637,448.350 66.347 L 447.864 64.000 256.000 64.000 L 64.136 64.000 63.650 66.347 M414.278 108.587 C 414.547 110.112,419.357 142.848,424.966 181.333 C 430.575 219.819,435.355 252.363,435.588 253.653 L 436.011 256.000 378.005 256.000 L 320.000 256.000 320.000 258.466 C 320.000 264.505,317.129 275.599,313.681 282.880 C 306.618 297.799,294.880 309.186,280.554 315.016 C 248.372 328.112,213.063 314.307,198.362 282.880 C 194.384 274.375,193.224 270.302,192.352 261.760 L 191.764 256.000 133.877 256.000 L 75.989 256.000 76.414 253.653 C 76.648 252.363,81.447 219.627,87.080 180.907 C 92.712 142.187,97.534 109.451,97.795 108.160 L 98.269 105.813 256.029 105.813 L 413.789 105.813 414.278 108.587 " stroke="none" fill-rule="evenodd" fill="black"></path></svg>