<svg xmlns="http://www.w3.org/2000/svg" width="512" height="512" viewBox="0 0 512 512"><path d="M64.000 81.436 C 52.620 84.608,42.035 93.516,36.679 104.430 C 34.429 109.016,32.996 113.380,32.443 117.333 C 31.296 125.530,31.313 386.636,32.461 394.667 C 34.813 411.119,48.324 426.317,64.427 430.625 C 70.755 432.318,441.245 432.318,447.573 430.625 C 463.676 426.317,477.187 411.119,479.539 394.667 C 480.703 386.524,480.703 125.476,479.539 117.333 C 477.187 100.881,463.676 85.683,447.573 81.375 C 441.484 79.746,69.852 79.805,64.000 81.436 M106.106 113.753 C 111.247 117.123,111.780 119.225,111.780 136.107 C 111.780 149.839,111.604 151.756,110.115 154.199 C 107.136 159.084,105.094 159.574,87.722 159.570 C 64.557 159.565,64.000 159.014,64.000 136.107 C 64.000 112.919,65.384 111.618,89.639 111.994 C 101.566 112.179,104.122 112.452,106.106 113.753 M362.105 113.753 C 363.398 114.600,365.203 116.520,366.118 118.020 C 367.720 120.649,367.780 122.739,367.783 176.113 C 367.787 230.842,367.766 231.512,365.998 234.373 C 362.421 240.160,370.017 239.787,256.000 239.787 C 141.983 239.787,149.579 240.160,146.002 234.373 C 144.234 231.512,144.213 230.836,144.213 176.284 C 144.213 117.391,144.124 118.716,148.358 114.884 C 149.325 114.008,151.380 112.989,152.925 112.618 C 154.470 112.248,201.638 112.005,257.744 112.079 C 354.503 112.206,359.877 112.293,362.105 113.753 M441.930 113.920 C 447.269 117.073,448.000 119.726,448.000 135.964 C 448.000 159.066,447.493 159.567,424.107 159.567 C 406.565 159.567,404.269 158.968,401.535 153.680 C 399.711 150.154,399.609 122.258,401.406 118.782 C 404.577 112.651,407.466 111.840,425.387 112.052 C 437.328 112.193,439.402 112.427,441.930 113.920 M104.789 193.199 C 106.056 193.858,108.053 195.424,109.227 196.679 C 111.325 198.922,111.364 199.229,111.625 215.135 C 111.877 230.462,111.794 231.466,110.050 234.289 C 106.809 239.533,105.132 239.922,87.050 239.624 C 71.234 239.365,70.921 239.324,68.679 237.227 C 64.340 233.168,64.000 231.605,64.003 215.722 C 64.007 199.223,64.601 197.103,70.179 193.702 C 72.670 192.183,74.497 192.006,87.722 192.003 C 98.744 192.001,103.069 192.304,104.789 193.199 M441.821 193.702 C 447.399 197.103,447.993 199.223,447.997 215.722 C 448.000 231.605,447.660 233.168,443.321 237.227 C 441.079 239.324,440.766 239.365,424.950 239.624 C 406.868 239.922,405.191 239.533,401.950 234.289 C 400.206 231.467,400.123 230.462,400.375 215.156 C 400.667 197.387,400.711 197.234,406.613 193.588 C 408.850 192.206,411.058 192.006,424.107 192.006 C 437.506 192.006,439.326 192.181,441.821 193.702 M106.207 273.900 C 111.454 277.143,111.951 279.270,111.639 297.161 L 111.360 313.149 108.148 316.361 L 104.936 319.573 88.948 319.812 C 74.156 320.033,72.752 319.922,70.179 318.327 C 64.593 314.863,64.007 312.771,64.003 296.278 C 64.000 280.578,64.383 278.730,68.399 275.095 C 69.500 274.099,70.976 273.073,71.680 272.816 C 72.384 272.559,79.827 272.318,88.219 272.281 C 101.998 272.220,103.743 272.377,106.207 273.900 M362.119 273.833 C 363.461 274.717,365.283 276.539,366.167 277.881 C 367.701 280.207,367.776 282.885,367.778 335.787 C 367.780 389.265,367.721 391.351,366.118 393.980 C 365.203 395.480,363.397 397.400,362.105 398.247 C 359.873 399.710,354.567 399.787,256.000 399.787 C 157.433 399.787,152.127 399.710,149.895 398.247 C 148.603 397.400,146.797 395.480,145.882 393.980 C 144.279 391.351,144.220 389.265,144.222 335.787 C 144.224 282.885,144.299 280.207,145.833 277.881 C 146.717 276.539,148.539 274.717,149.881 273.833 C 152.237 272.280,155.866 272.225,256.000 272.225 C 356.134 272.225,359.763 272.280,362.119 273.833 M443.321 274.773 C 447.642 278.814,448.000 280.429,447.999 295.851 C 447.997 312.050,447.319 314.586,442.040 318.113 C 439.151 320.043,438.616 320.092,423.066 319.836 L 407.064 319.573 403.852 316.361 L 400.640 313.149 400.374 296.898 C 400.132 282.082,400.253 280.419,401.744 278.064 C 405.300 272.447,406.540 272.142,424.680 272.404 C 440.803 272.637,441.073 272.671,443.321 274.773 M105.893 353.748 C 111.155 356.469,111.780 358.822,111.780 375.893 C 111.780 389.616,111.603 391.544,110.118 393.980 C 106.799 399.423,105.438 399.787,88.358 399.787 C 74.492 399.787,72.672 399.617,70.070 398.080 C 64.731 394.927,64.000 392.274,64.000 376.036 C 64.000 352.964,64.532 352.435,87.722 352.430 C 100.156 352.427,103.859 352.696,105.893 353.748 M442.522 354.036 C 447.470 357.053,448.171 360.074,447.855 377.019 C 447.594 391.002,447.434 392.301,445.675 394.767 C 442.517 399.196,439.872 399.787,423.214 399.787 C 406.606 399.787,405.187 399.401,401.882 393.980 C 400.399 391.548,400.219 389.614,400.217 376.064 C 400.213 359.157,400.725 357.064,405.588 354.099 C 408.038 352.605,409.951 352.433,424.107 352.433 C 438.050 352.433,440.200 352.620,442.522 354.036 " stroke="none" fill="black" fill-rule="evenodd"></path></svg>