<svg xmlns="http://www.w3.org/2000/svg" width="512" height="512" viewBox="0 0 512 512"><path d="M65.088 81.527 C 50.246 85.524,38.473 96.751,33.911 111.258 L 32.000 117.333 32.000 256.000 L 32.000 394.667 33.885 400.640 C 38.350 414.796,48.822 425.320,62.883 429.785 L 69.185 431.787 256.000 431.787 L 442.815 431.787 449.117 429.785 C 463.178 425.320,473.650 414.796,478.115 400.640 L 480.000 394.667 480.000 256.000 L 480.000 117.333 478.089 111.258 C 473.469 96.569,461.659 85.420,446.547 81.484 C 439.409 79.625,71.996 79.666,65.088 81.527 M106.108 113.753 C 111.247 117.125,111.780 119.226,111.780 136.107 C 111.780 149.839,111.604 151.756,110.115 154.199 C 106.955 159.381,104.583 160.000,87.893 160.000 C 74.492 160.000,72.663 159.825,70.070 158.293 C 64.735 155.143,64.000 152.482,64.000 136.306 C 64.000 120.481,64.655 117.522,68.810 114.573 C 72.411 112.017,73.344 111.903,89.214 112.065 C 101.636 112.192,104.104 112.438,106.108 113.753 M442.763 114.260 C 447.377 117.551,448.000 120.174,448.000 136.306 C 448.000 152.482,447.265 155.143,441.930 158.293 C 439.337 159.825,437.508 160.000,424.107 160.000 C 407.417 160.000,405.045 159.381,401.885 154.199 C 400.398 151.760,400.219 149.837,400.217 136.278 C 400.213 120.366,400.614 118.272,404.301 114.935 C 407.214 112.299,410.421 111.858,425.387 112.039 C 439.188 112.205,440.033 112.313,442.763 114.260 M105.608 193.702 C 111.188 197.104,111.780 199.219,111.783 215.764 C 111.787 232.450,111.134 235.056,106.178 238.119 C 103.493 239.777,102.276 239.874,87.122 239.625 L 70.934 239.360 68.383 236.913 C 64.205 232.907,63.863 231.118,64.157 214.787 C 64.401 201.215,64.594 199.572,66.194 197.393 C 69.677 192.651,72.339 192.002,88.320 192.005 C 101.291 192.006,103.121 192.186,105.608 193.702 M441.113 193.495 C 447.064 196.529,447.542 198.041,447.843 214.787 C 448.137 231.118,447.795 232.907,443.617 236.913 L 441.065 239.360 424.693 239.598 C 409.813 239.815,408.080 239.688,405.692 238.206 C 400.727 235.125,400.076 232.245,400.374 214.674 C 400.666 197.445,400.733 197.220,406.613 193.588 C 408.842 192.211,411.049 192.006,423.680 192.005 C 435.809 192.003,438.666 192.247,441.113 193.495 M360.870 241.920 C 362.462 242.859,364.958 245.102,366.416 246.906 C 368.801 249.857,369.067 250.768,369.067 256.000 C 369.067 261.202,368.791 262.161,366.457 265.094 C 365.022 266.898,362.157 269.237,360.090 270.293 L 356.332 272.213 256.000 272.213 L 155.668 272.213 151.910 270.293 C 149.843 269.237,146.978 266.898,145.543 265.094 C 143.215 262.169,142.933 261.194,142.933 256.068 C 142.933 251.080,143.251 249.904,145.337 247.169 C 148.184 243.437,150.926 241.512,154.688 240.607 C 156.202 240.242,202.560 240.005,257.707 240.079 C 356.314 240.211,358.021 240.242,360.870 241.920 M105.761 273.773 C 111.091 276.631,111.787 279.211,111.783 296.093 C 111.781 309.502,111.606 311.326,110.085 313.821 C 106.695 319.381,104.537 319.993,88.320 319.995 C 72.339 319.998,69.677 319.349,66.194 314.607 C 64.599 312.436,64.400 310.778,64.155 297.616 C 64.006 289.594,64.102 282.162,64.369 281.101 C 64.998 278.592,68.917 273.957,71.184 273.040 C 72.161 272.645,79.686 272.297,87.907 272.267 C 100.820 272.221,103.249 272.425,105.761 273.773 M441.821 273.915 C 447.381 277.305,447.993 279.463,447.995 295.680 C 447.998 311.663,447.349 314.325,442.604 317.806 C 440.363 319.450,439.040 319.573,423.632 319.573 L 407.068 319.573 403.854 316.361 L 400.640 313.149 400.374 296.898 C 400.132 282.082,400.253 280.419,401.744 278.064 C 405.186 272.628,406.699 272.225,423.680 272.222 C 437.507 272.220,439.317 272.389,441.821 273.915 M105.893 353.748 C 111.159 356.471,111.780 358.813,111.783 375.980 C 111.787 390.622,111.686 391.579,109.850 394.327 C 106.250 399.715,103.899 400.298,86.886 400.027 C 73.187 399.809,71.578 399.624,69.393 398.019 C 64.660 394.543,64.003 391.862,64.001 376.022 C 63.999 352.967,64.534 352.435,87.722 352.430 C 100.156 352.427,103.859 352.696,105.893 353.748 M442.475 354.147 C 447.314 357.137,448.000 359.856,447.999 376.022 C 447.997 391.862,447.340 394.543,442.607 398.019 C 440.422 399.624,438.813 399.809,425.114 400.027 C 408.101 400.298,405.750 399.715,402.150 394.327 C 400.317 391.582,400.213 390.613,400.213 376.151 C 400.213 359.150,400.721 357.066,405.588 354.099 C 408.035 352.607,409.954 352.433,424.006 352.430 C 438.247 352.427,439.948 352.585,442.475 354.147 " stroke="none" fill-rule="evenodd" fill="black"></path></svg>