<svg xmlns="http://www.w3.org/2000/svg" width="512" height="512" viewBox="0 0 512 512"><path d="M29.138 122.953 C 14.466 130.284,11.664 149.162,23.491 160.989 C 31.318 168.816,8.135 168.107,256.000 168.107 C 503.865 168.107,480.682 168.816,488.509 160.989 C 496.300 153.198,498.013 142.968,493.154 133.244 C 490.353 127.639,487.411 124.880,481.256 122.088 C 477.454 120.364,476.629 120.357,255.923 120.339 L 34.406 120.320 29.138 122.953 M112.382 233.339 C 104.263 236.235,99.029 242.125,96.783 250.894 C 95.602 255.505,95.605 256.510,96.821 261.255 C 98.603 268.211,102.538 273.509,108.373 276.811 L 113.067 279.467 254.165 279.690 C 346.152 279.836,396.365 279.617,398.429 279.061 C 403.070 277.811,409.063 273.536,411.647 269.630 C 412.891 267.751,414.498 263.915,415.217 261.106 C 416.393 256.518,416.393 255.482,415.217 250.894 C 412.971 242.125,407.737 236.235,399.618 233.339 C 394.795 231.618,117.205 231.618,112.382 233.339 M210.203 344.694 C 197.056 347.912,189.004 362.593,193.297 375.519 C 195.225 381.322,200.866 387.434,206.751 390.095 L 211.200 392.107 256.000 392.107 L 300.800 392.107 305.249 390.095 C 318.292 384.197,323.613 368.971,316.926 356.684 C 314.306 351.870,311.402 349.079,306.019 346.199 C 302.538 344.337,302.110 344.319,257.707 344.176 C 233.067 344.097,211.690 344.330,210.203 344.694 " stroke="none" fill-rule="evenodd" fill="black"></path></svg>