<svg xmlns="http://www.w3.org/2000/svg" viewBox="0 0 512 512"><path d="M241.920 48.669 C 177.359 52.784,118.768 87.102,81.958 142.362 C 55.666 181.831,43.309 234.683,49.503 281.173 C 55.829 328.652,75.879 369.527,109.176 402.824 C 142.702 436.350,182.619 455.851,231.680 462.670 C 235.904 463.257,246.848 463.738,256.000 463.738 C 265.152 463.738,276.096 463.257,280.320 462.670 C 329.321 455.859,369.272 436.331,402.802 402.802 C 436.331 369.272,455.859 329.321,462.670 280.320 C 464.046 270.420,464.046 241.580,462.670 231.680 C 455.892 182.914,436.342 142.776,403.220 109.623 C 391.401 97.792,382.569 90.546,369.558 82.006 C 331.997 57.351,287.606 45.757,241.920 48.669 M384.000 208.213 L 384.000 224.427 256.000 224.427 L 128.000 224.427 128.000 208.213 L 128.000 192.000 256.000 192.000 L 384.000 192.000 384.000 208.213 M351.573 272.213 L 351.573 288.427 256.000 288.427 L 160.427 288.427 160.427 272.213 L 160.427 256.000 256.000 256.000 L 351.573 256.000 351.573 272.213 M303.787 336.213 L 303.787 352.427 256.000 352.427 L 208.213 352.427 208.213 336.213 L 208.213 320.000 256.000 320.000 L 303.787 320.000 303.787 336.213 " stroke="none" fill-rule="evenodd" fill="black"></path></svg>