<svg xmlns="http://www.w3.org/2000/svg" viewBox="0 0 512 512"><path d="M241.493 48.673 C 201.694 51.236,163.176 65.747,129.707 90.787 C 119.118 98.709,98.459 119.383,90.552 129.971 C 68.706 159.223,55.330 191.336,49.785 227.840 C 47.724 241.414,47.724 270.586,49.785 284.160 C 55.331 320.671,68.725 352.821,90.558 382.029 C 98.598 392.784,119.216 413.402,129.971 421.442 C 159.179 443.275,191.329 456.669,227.840 462.215 C 241.414 464.276,270.586 464.276,284.160 462.215 C 320.686 456.667,352.914 443.237,382.029 421.430 C 392.784 413.374,413.374 392.784,421.430 382.029 C 443.237 352.914,456.667 320.686,462.215 284.160 C 464.276 270.586,464.276 241.414,462.215 227.840 C 455.463 183.387,436.803 144.683,406.921 113.150 C 370.380 74.590,322.088 52.062,268.561 48.607 C 255.365 47.755,255.779 47.754,241.493 48.673 M284.160 82.308 C 319.998 88.383,351.735 104.258,377.739 129.118 C 405.349 155.513,423.300 189.800,429.832 228.618 C 431.923 241.048,431.905 271.514,429.799 283.733 C 419.921 341.032,385.307 387.989,334.011 413.679 C 285.590 437.929,226.410 437.929,177.989 413.679 C 126.525 387.905,91.775 340.650,82.174 283.382 C 80.053 270.734,80.053 241.266,82.174 228.618 C 92.715 165.745,133.739 115.017,192.849 91.764 C 205.896 86.632,221.606 82.941,239.787 80.737 C 246.454 79.928,276.372 80.988,284.160 82.308 M139.520 192.719 C 123.761 197.900,124.663 220.033,140.775 223.488 C 146.929 224.808,365.071 224.808,371.225 223.488 C 379.414 221.732,384.720 214.338,383.779 205.993 C 383.281 201.574,381.567 198.874,376.826 195.036 L 373.602 192.427 257.414 192.292 C 193.511 192.218,140.459 192.410,139.520 192.719 M169.387 257.613 C 164.680 259.785,162.096 262.862,160.808 267.826 C 159.702 272.088,160.097 276.088,161.967 279.583 C 163.380 282.223,168.655 286.601,171.322 287.348 C 174.368 288.200,337.632 288.200,340.678 287.348 C 343.345 286.601,348.620 282.223,350.033 279.583 C 351.903 276.088,352.298 272.088,351.192 267.826 C 349.904 262.862,347.320 259.785,342.613 257.613 C 339.369 256.115,335.087 256.037,256.000 256.037 C 176.913 256.037,172.631 256.115,169.387 257.613 M216.890 321.831 C 210.100 325.192,206.545 334.119,209.015 341.604 C 210.487 346.063,215.666 350.347,220.956 351.481 C 226.919 352.760,285.081 352.760,291.044 351.481 C 296.334 350.347,301.513 346.063,302.985 341.604 C 305.470 334.075,301.875 325.119,295.040 321.810 C 291.414 320.055,290.231 320.000,255.944 320.001 C 221.513 320.001,220.490 320.049,216.890 321.831 " fill="black" stroke="none" fill-rule="evenodd"></path></svg>