<svg xmlns="http://www.w3.org/2000/svg" width="512" height="512" viewBox="0 0 512 512"><path d="M24.890 129.831 C 18.100 133.192,14.545 142.119,17.015 149.604 C 18.487 154.063,23.666 158.347,28.956 159.481 C 35.216 160.824,476.784 160.824,483.044 159.481 C 488.334 158.347,493.513 154.063,494.985 149.604 C 497.470 142.075,493.875 133.119,487.040 129.810 L 483.301 128.000 255.944 128.001 L 28.587 128.001 24.890 129.831 M108.447 240.402 C 104.695 241.118,99.911 244.835,98.052 248.479 C 94.251 255.930,96.848 265.416,103.886 269.792 L 107.093 271.787 256.000 271.787 L 404.907 271.787 408.114 269.792 C 418.362 263.421,418.169 248.294,407.764 242.337 L 404.053 240.213 257.280 240.111 C 176.555 240.055,109.580 240.186,108.447 240.402 M200.962 353.771 C 197.114 355.777,195.335 357.619,193.605 361.387 C 191.730 365.471,191.568 370.248,193.178 374.001 C 194.614 377.347,199.251 381.866,202.509 383.094 C 204.105 383.696,222.050 384.000,256.000 384.000 C 289.950 384.000,307.895 383.696,309.491 383.094 C 312.749 381.866,317.386 377.347,318.822 374.001 C 320.366 370.403,320.315 365.926,318.687 362.030 C 316.994 357.977,315.198 356.038,311.287 354.043 C 308.282 352.509,305.464 352.427,255.821 352.432 C 210.060 352.437,203.200 352.604,200.962 353.771 " stroke="none" fill="black" fill-rule="evenodd"></path></svg>