<svg xmlns="http://www.w3.org/2000/svg" width="512" height="512" viewBox="0 0 512 512"><path d="M230.827 16.793 C 181.076 19.961,139.718 31.965,108.569 52.278 L 98.950 58.550 106.301 70.021 C 110.343 76.331,114.095 81.958,114.639 82.526 C 115.404 83.327,117.742 82.190,125.013 77.481 C 137.130 69.635,148.634 64.159,162.987 59.404 C 225.087 38.830,316.989 42.339,368.976 67.268 C 373.719 69.542,381.824 74.138,386.987 77.481 C 394.244 82.181,396.596 83.325,397.353 82.526 C 397.892 81.958,401.630 76.317,405.661 69.991 L 412.991 58.488 403.402 52.282 C 391.363 44.490,383.351 40.297,371.082 35.366 C 347.344 25.826,317.576 19.562,284.160 17.075 C 273.688 16.295,241.322 16.124,230.827 16.793 M233.813 73.118 C 165.368 78.226,107.903 106.373,67.972 154.350 C 60.353 163.504,56.165 169.480,48.481 182.159 C 44.151 189.304,43.020 191.800,43.788 192.516 C 44.344 193.034,50.267 196.774,56.949 200.827 L 69.097 208.197 72.309 202.145 C 85.645 177.014,107.279 153.337,131.840 136.993 C 157.239 120.091,184.968 109.849,220.160 104.370 C 232.660 102.424,275.712 102.174,288.427 103.974 C 354.547 113.334,403.374 144.555,439.253 200.412 L 444.245 208.184 456.785 200.305 C 463.682 195.972,469.327 192.071,469.329 191.636 C 469.337 190.188,455.134 169.512,447.890 160.427 C 438.565 148.731,422.483 132.576,411.557 123.928 C 374.526 94.622,331.625 77.950,281.600 73.427 C 272.639 72.616,243.093 72.426,233.813 73.118 M238.080 128.879 C 211.440 131.410,186.669 138.650,164.760 150.309 C 114.386 177.116,77.207 226.869,67.805 280.055 C 62.778 308.486,64.845 349.885,73.376 391.680 C 76.713 408.027,81.503 424.960,82.790 424.960 C 84.013 424.960,111.244 418.960,111.590 418.615 C 111.766 418.439,110.725 414.456,109.277 409.764 C 100.885 382.568,94.588 334.324,95.947 307.627 C 97.388 279.290,103.044 259.627,116.017 237.849 C 132.272 210.561,153.146 190.425,179.556 176.557 C 222.978 153.757,276.764 151.998,321.707 171.909 C 350.294 184.574,378.288 208.784,396.784 236.838 C 413.540 262.252,419.595 281.533,418.747 306.773 C 418.256 321.402,416.117 330.401,410.667 340.772 C 402.336 356.626,389.592 364.380,373.787 363.210 C 349.526 361.415,338.861 351.549,331.227 323.840 C 329.805 318.677,327.257 309.461,325.564 303.360 C 322.220 291.309,318.336 281.609,313.882 274.188 C 310.227 268.098,301.053 258.933,294.937 255.262 C 274.868 243.215,239.795 242.795,217.623 254.334 C 191.907 267.719,179.685 294.280,181.161 333.578 C 182.035 356.845,185.836 373.533,194.064 390.219 C 204.670 411.726,217.081 429.393,233.379 446.184 C 253.649 467.066,274.564 481.108,298.870 490.154 C 307.180 493.247,326.472 498.347,329.862 498.347 C 331.457 498.347,332.098 496.783,335.548 484.480 C 337.686 476.853,339.321 470.488,339.181 470.334 C 339.041 470.181,334.808 469.124,329.775 467.987 C 288.285 458.609,254.490 432.844,229.693 391.684 C 216.161 369.224,212.731 357.710,211.898 331.947 C 211.222 311.046,213.453 300.490,220.794 289.848 C 226.233 281.965,237.537 276.800,251.302 275.910 C 266.325 274.938,277.374 278.176,284.161 285.540 C 289.429 291.255,292.752 299.341,298.665 320.827 C 304.843 343.280,308.454 352.767,314.128 361.460 C 326.239 380.011,342.316 389.425,367.247 392.563 C 409.053 397.825,441.891 368.000,448.924 318.378 C 450.327 308.483,449.449 286.876,447.233 276.749 C 440.368 245.381,421.816 213.539,394.626 186.457 C 363.530 155.485,325.387 136.240,282.880 130.075 C 272.042 128.504,248.618 127.878,238.080 128.879 M231.253 187.300 C 202.222 191.651,180.701 202.185,161.692 221.349 C 142.314 240.885,131.472 263.032,125.301 295.688 C 123.649 304.429,123.365 308.779,123.350 325.547 C 123.335 342.454,123.602 346.592,125.277 355.413 C 135.516 409.349,155.450 448.481,191.461 485.336 L 201.678 495.792 212.086 484.909 L 222.494 474.027 212.124 463.312 C 183.537 433.773,165.635 399.756,156.805 358.198 C 154.132 345.613,154.039 344.510,154.077 325.547 C 154.112 308.486,154.369 304.748,156.043 296.960 C 166.241 249.519,193.810 222.387,237.613 216.682 C 242.231 216.081,251.008 215.857,259.800 216.117 C 271.657 216.467,275.845 216.943,282.453 218.689 C 305.184 224.699,323.365 238.244,336.784 259.165 C 348.281 277.091,357.199 303.773,358.899 325.333 C 359.590 334.094,357.397 333.312,377.059 331.809 L 390.171 330.807 389.580 323.057 C 387.872 300.658,379.293 272.236,368.309 252.587 C 347.721 215.756,318.481 194.257,280.039 187.685 C 268.588 185.728,243.092 185.527,231.253 187.300 M252.587 306.813 C 245.312 307.407,239.344 307.929,239.325 307.973 C 239.305 308.017,239.588 311.605,239.953 315.947 C 242.277 343.586,250.555 368.735,264.320 389.973 C 283.720 419.906,312.006 438.294,347.897 444.303 C 359.950 446.322,385.273 446.325,399.710 444.309 C 405.300 443.529,410.044 442.721,410.252 442.512 C 410.638 442.127,404.948 414.043,404.370 413.481 C 404.196 413.311,400.597 413.775,396.373 414.511 C 391.309 415.393,383.317 415.857,372.907 415.871 C 358.813 415.890,356.092 415.652,347.528 413.648 C 314.746 405.978,293.221 386.865,279.518 353.261 C 275.769 344.069,272.259 329.528,271.283 319.147 C 270.014 305.645,269.968 305.471,267.717 305.613 C 266.670 305.680,259.861 306.219,252.587 306.813 " stroke="none" fill-rule="evenodd" fill="black"></path></svg>