<svg xmlns="http://www.w3.org/2000/svg" width="512" height="512" viewBox="0 0 512 512"><path d="M234.667 16.790 C 212.445 18.404,185.486 23.991,163.786 31.478 C 144.713 38.060,119.472 49.891,114.305 54.673 C 106.680 61.729,111.712 75.093,121.995 75.093 C 123.565 75.093,130.663 72.089,139.791 67.560 C 171.495 51.831,201.367 43.597,236.588 40.879 C 250.406 39.813,275.111 40.250,287.573 41.780 C 318.450 45.573,344.544 53.634,374.474 68.624 C 389.221 76.009,392.321 76.598,396.765 72.858 C 400.662 69.580,402.187 66.108,401.686 61.660 C 401.093 56.398,398.125 53.621,387.229 48.137 C 351.874 30.342,317.183 20.193,281.173 17.108 C 271.815 16.306,243.952 16.116,234.667 16.790 M228.693 76.010 C 162.870 83.175,104.505 114.400,63.731 164.267 C 51.657 179.033,48.213 184.634,48.213 189.510 C 48.213 196.509,54.112 201.902,60.866 201.077 C 65.003 200.572,66.052 199.591,74.686 188.160 C 92.947 163.983,113.464 145.352,137.901 130.756 C 174.177 109.089,211.730 98.987,256.000 98.987 C 294.098 98.987,326.514 106.309,358.332 122.101 C 390.614 138.124,415.112 158.635,437.770 188.609 C 441.859 194.019,446.236 198.915,447.496 199.489 C 454.528 202.693,462.629 198.021,463.928 190.012 C 464.612 185.800,462.387 181.623,453.070 169.632 C 418.807 125.533,371.658 94.992,317.867 82.050 C 296.315 76.865,286.955 75.800,260.267 75.497 C 246.891 75.345,232.683 75.576,228.693 76.010 M241.920 132.329 C 216.700 133.941,194.880 139.826,171.093 151.431 C 149.483 161.973,134.492 172.800,117.695 189.994 C 89.784 218.567,73.924 250.595,67.684 290.987 C 65.617 304.368,65.633 337.225,67.714 352.427 C 70.842 375.267,78.652 406.675,83.631 416.436 C 87.711 424.432,100.324 424.164,103.731 416.009 C 105.494 411.790,105.312 410.145,101.928 399.731 C 88.846 359.471,85.411 318.652,92.247 284.689 C 98.357 254.336,114.151 226.002,137.503 203.501 C 169.153 173.004,211.010 156.160,255.147 156.160 C 299.729 156.160,340.383 172.438,372.363 203.093 C 399.423 229.032,416.373 262.167,421.125 298.411 C 422.767 310.942,422.768 325.054,421.127 331.355 C 417.385 345.722,406.482 357.647,392.002 363.209 C 384.165 366.220,370.861 366.949,362.667 364.817 C 350.969 361.775,340.756 354.543,334.191 344.655 C 329.434 337.491,327.645 331.335,326.715 318.921 C 325.064 296.895,318.478 282.350,303.946 268.642 C 266.204 233.038,204.244 249.011,187.506 298.660 C 184.789 306.718,184.771 306.887,184.817 323.413 C 184.897 352.102,190.633 376.065,203.532 401.591 C 212.921 420.172,223.079 433.780,239.479 449.747 C 255.729 465.567,270.571 475.894,288.853 484.098 C 300.693 489.411,319.494 495.762,323.413 495.772 C 331.772 495.794,337.007 486.380,333.153 478.259 C 331.323 474.403,329.432 473.322,318.155 469.685 C 290.590 460.797,270.148 448.010,250.380 427.291 C 238.922 415.281,231.597 404.789,224.030 389.547 C 214.149 369.642,209.937 354.522,208.045 332.152 C 206.219 310.581,209.521 299.120,220.868 287.637 C 246.581 261.617,291.850 272.617,301.524 307.236 C 302.240 309.798,303.210 316.757,303.679 322.701 C 305.155 341.380,310.998 355.072,322.794 367.490 C 362.579 409.373,432.356 389.756,444.671 333.227 C 446.172 326.336,445.896 306.208,444.135 294.171 C 440.363 268.379,430.974 242.466,417.891 221.733 C 379.874 161.491,313.470 127.753,241.920 132.329 M243.415 191.206 C 191.522 196.224,147.605 231.372,131.537 280.747 C 126.552 296.063,125.864 301.312,125.891 323.840 C 125.917 345.704,126.825 354.391,131.108 373.760 C 139.523 411.817,160.395 449.631,190.879 482.046 C 198.405 490.050,198.430 490.067,203.103 490.414 C 206.696 490.681,208.399 490.377,210.415 489.108 C 215.327 486.018,217.263 478.725,214.560 473.496 C 213.826 472.078,210.123 467.585,206.331 463.512 C 182.612 438.039,164.983 408.196,156.633 379.384 C 149.725 355.545,146.750 323.719,149.661 304.784 C 156.548 259.976,191.696 224.298,236.804 216.325 C 246.915 214.538,266.094 214.537,275.627 216.322 C 309.042 222.581,337.191 243.313,352.155 272.688 C 359.497 287.103,362.263 297.269,363.458 314.235 C 364.084 323.133,364.413 324.585,366.392 327.179 C 371.887 334.383,382.639 332.750,386.064 324.191 C 387.282 321.148,387.352 319.342,386.595 310.616 C 383.673 276.974,370.368 249.344,345.966 226.251 C 324.450 205.888,298.026 194.076,267.520 191.184 C 257.147 190.201,253.779 190.204,243.415 191.206 M248.482 309.782 C 243.972 312.531,242.890 316.271,243.495 327.014 C 245.074 355.051,256.635 383.394,274.959 404.154 C 295.343 427.248,319.543 440.619,348.989 445.058 C 365.818 447.594,395.405 445.864,401.812 441.968 C 409.369 437.372,408.870 425.478,400.939 421.179 C 398.050 419.613,397.459 419.592,389.029 420.752 C 376.714 422.448,356.431 422.280,347.507 420.408 C 338.315 418.481,326.945 414.480,320.000 410.727 C 302.373 401.205,286.275 384.223,277.324 365.710 C 270.530 351.658,267.657 340.646,266.566 324.474 C 266.257 319.902,265.463 315.087,264.801 313.776 C 262.089 308.405,253.992 306.423,248.482 309.782 " stroke="none" fill-rule="evenodd" fill="black"></path></svg>