<svg xmlns="http://www.w3.org/2000/svg" width="512" height="512" viewBox="0 0 512 512"><path d="M230.827 16.736 C 188.026 20.027,154.703 28.005,127.573 41.457 C 113.723 48.324,108.736 51.926,106.618 56.590 C 104.569 61.103,104.569 64.337,106.618 68.850 C 109.007 74.111,114.136 77.234,120.328 77.199 C 124.448 77.176,126.008 76.654,131.054 73.609 C 162.445 54.672,210.262 44.967,265.387 46.346 C 313.610 47.551,352.142 56.438,380.581 72.912 C 388.503 77.501,390.028 77.967,394.787 77.253 C 403.019 76.019,409.037 66.947,406.863 59.051 C 405.428 53.841,403.205 51.627,394.305 46.544 C 368.961 32.068,337.950 22.881,299.093 18.337 C 287.732 17.008,241.414 15.922,230.827 16.736 M233.813 73.118 C 168.834 77.967,114.205 103.315,74.394 147.089 C 62.789 159.849,50.378 177.329,48.520 183.530 C 46.379 190.678,51.437 199.183,59.106 201.330 C 67.115 203.573,72.532 200.612,79.107 190.396 C 98.683 159.983,127.043 135.946,161.196 120.821 C 178.722 113.059,199.586 107.375,223.147 103.945 C 233.594 102.424,276.572 102.439,288.000 103.968 C 322.295 108.557,350.998 118.912,377.234 136.162 C 397.887 149.741,413.745 165.163,431.141 188.587 C 438.515 198.515,440.992 200.694,446.166 201.802 C 456.057 203.918,466.042 193.429,463.417 183.679 C 461.638 177.070,444.945 155.571,430.119 140.792 C 390.471 101.268,340.913 78.790,281.600 73.427 C 272.639 72.616,243.093 72.426,233.813 73.118 M238.790 128.858 C 193.791 132.923,154.702 150.389,122.872 180.654 C 92.135 209.879,72.708 246.560,66.873 286.384 C 65.066 298.712,64.835 331.307,66.443 346.880 C 69.205 373.622,76.067 408.876,79.725 415.118 C 86.753 427.111,106.008 423.329,107.318 409.698 C 107.561 407.171,106.753 401.438,105.076 393.780 C 95.567 350.368,93.326 308.524,99.014 280.611 C 104.553 253.430,122.503 222.364,144.849 201.284 C 187.368 161.174,250.846 147.584,307.534 166.457 C 349.155 180.314,386.562 213.522,407.493 255.199 C 416.244 272.624,419.370 286.801,418.768 306.347 C 418.425 317.482,417.996 320.788,416.057 327.253 C 409.632 348.674,396.367 361.947,380.142 363.189 C 368.691 364.066,353.869 359.857,346.518 353.642 C 339.437 347.655,334.711 337.073,328.144 312.500 C 326.048 304.657,323.411 295.552,322.285 292.267 C 312.027 262.350,292.581 247.652,261.120 246.036 C 239.907 244.946,221.805 249.878,207.613 260.614 C 190.439 273.605,180.926 297.408,180.912 327.423 C 180.902 347.278,185.112 370.475,191.180 384.003 C 210.723 427.575,245.506 464.919,283.884 483.534 C 295.670 489.251,315.182 495.787,320.465 495.787 C 329.390 495.787,335.834 489.094,335.493 480.180 C 335.238 473.511,330.634 468.502,322.717 466.280 C 291.740 457.586,266.336 440.274,244.669 413.092 C 232.028 397.234,218.435 373.139,215.563 361.497 C 211.613 345.490,210.425 321.596,212.958 309.084 C 215.446 296.793,221.004 287.387,228.697 282.451 C 236.448 277.477,242.069 276.184,256.000 276.169 C 266.970 276.156,268.949 276.381,273.450 278.149 C 284.549 282.509,290.975 292.248,296.561 313.173 C 303.877 340.580,308.102 352.118,314.299 361.615 C 327.040 381.140,345.228 390.947,372.480 392.987 C 407.024 395.574,436.128 371.294,446.440 331.287 C 449.875 317.962,450.713 298.150,448.453 283.733 C 443.352 251.207,424.042 216.021,395.578 187.386 C 364.449 156.071,325.388 136.165,283.252 130.143 C 271.999 128.535,249.551 127.886,238.790 128.858 M236.373 186.565 C 228.118 187.570,214.057 190.655,207.081 192.992 C 153.445 210.957,121.270 263.720,123.127 330.667 C 124.239 370.781,138.959 415.243,162.819 450.560 C 173.839 466.871,190.216 485.726,195.173 487.807 C 206.616 492.612,219.132 482.182,215.877 470.554 C 215.176 468.050,212.785 464.618,208.099 459.389 C 181.523 429.733,165.135 397.402,156.805 358.198 C 154.132 345.613,154.039 344.510,154.077 325.547 C 154.112 308.486,154.369 304.748,156.043 296.960 C 161.032 273.750,169.357 256.793,182.567 242.929 C 193.270 231.697,207.837 223.295,223.422 219.367 C 235.076 216.429,243.261 215.682,259.182 216.105 C 277.475 216.590,286.657 218.650,299.947 225.250 C 328.163 239.261,348.883 270.447,356.944 311.040 C 359.322 323.016,360.719 326.096,365.037 328.886 C 371.596 333.122,378.628 332.400,384.100 326.927 C 390.147 320.881,390.061 314.230,383.638 290.909 C 369.938 241.169,339.843 206.125,299.009 192.362 C 285.258 187.728,278.352 186.730,258.133 186.456 C 247.808 186.316,238.016 186.365,236.373 186.565 M249.533 307.965 C 245.408 309.838,242.722 313.003,241.339 317.619 C 240.022 322.015,241.511 332.866,245.354 346.880 C 260.174 400.923,295.966 435.222,346.880 444.173 C 363.183 447.039,393.049 446.570,399.275 443.351 C 405.210 440.281,408.696 432.818,407.050 426.705 C 406.074 423.080,402.867 418.743,399.908 417.047 C 398.613 416.306,392.105 415.979,377.600 415.928 C 355.767 415.852,351.102 415.274,337.493 410.956 C 310.835 402.498,291.141 382.677,279.159 352.246 C 276.198 344.723,272.675 331.273,271.384 322.560 C 270.222 314.717,267.738 310.637,262.614 308.157 C 258.039 305.942,254.113 305.884,249.533 307.965 " stroke="none" fill-rule="evenodd" fill="black"></path></svg>