<svg xmlns="http://www.w3.org/2000/svg" viewBox="0 0 512 512"><path d="M208.567 82.560 C 208.836 83.851,211.746 97.376,215.035 112.615 C 218.323 127.855,221.013 140.773,221.013 141.323 C 221.013 141.872,219.957 142.585,218.667 142.907 C 213.954 144.083,196.229 152.140,185.507 157.980 C 167.996 167.518,145.247 183.025,125.995 198.546 C 122.310 201.516,119.003 203.947,118.644 203.947 C 118.285 203.947,114.988 201.578,111.317 198.684 C 84.395 177.456,51.913 164.129,20.098 161.258 C 10.908 160.429,0.000 160.184,-0.000 160.807 C -0.000 161.015,0.778 166.487,1.730 172.967 C 5.888 201.288,15.175 227.124,28.515 247.485 L 34.086 255.986 30.323 261.368 C 19.628 276.668,10.253 298.598,5.076 320.427 C 3.772 325.925,-0.000 348.956,-0.000 351.421 C 0.000 352.309,19.532 350.946,29.305 349.377 C 59.344 344.554,86.540 332.534,110.836 313.343 L 118.357 307.402 128.512 315.449 C 142.922 326.869,157.348 337.203,169.765 345.002 C 182.051 352.718,203.922 363.820,213.829 367.369 C 217.546 368.701,220.715 369.884,220.872 369.998 C 221.029 370.112,218.237 383.926,214.667 400.694 C 211.098 417.462,208.346 431.350,208.552 431.556 C 209.038 432.042,235.764 427.066,244.053 424.945 C 266.470 419.211,291.026 407.445,312.700 392.053 C 323.808 384.165,324.082 384.027,328.685 384.013 C 336.199 383.989,369.901 378.628,371.447 377.211 C 371.818 376.871,369.812 372.705,366.990 367.952 C 336.110 315.945,327.764 257.611,342.967 200.037 C 347.621 182.414,356.334 162.035,367.200 143.360 C 370.362 137.925,371.587 135.078,370.918 134.720 C 367.707 133.005,334.999 128.000,327.004 128.000 C 324.893 128.000,322.235 126.601,316.443 122.442 C 294.662 106.802,273.125 95.814,251.232 89.171 C 243.986 86.973,211.833 80.213,208.621 80.213 C 208.322 80.213,208.298 81.269,208.567 82.560 M396.555 156.373 C 379.329 186.735,371.776 208.067,368.680 235.100 C 367.550 244.961,367.550 267.039,368.680 276.900 C 371.770 303.878,381.178 330.013,397.404 356.693 C 402.843 365.637,403.581 366.491,405.734 366.332 C 409.504 366.054,432.981 354.054,444.160 346.692 C 477.411 324.795,503.454 292.303,510.830 263.512 C 513.919 251.455,509.157 236.271,496.030 216.320 C 480.685 192.997,457.815 172.414,430.225 157.094 C 421.390 152.188,405.948 145.067,404.146 145.067 C 403.499 145.067,400.083 150.155,396.555 156.373 M422.131 225.337 C 430.309 228.435,434.040 238.859,429.977 247.254 C 423.069 261.522,401.723 257.127,400.399 241.164 C 399.845 234.483,403.802 227.697,409.600 225.385 C 412.469 224.241,419.172 224.216,422.131 225.337 " stroke="none" fill-rule="evenodd" fill="black"></path></svg>