<svg xmlns="http://www.w3.org/2000/svg" viewBox="0 0 512 512"><path d="M217.173 81.634 C 211.502 84.631,208.213 89.749,208.213 95.579 C 208.213 97.496,210.920 108.502,214.227 120.035 C 217.535 131.567,220.127 141.078,219.987 141.170 C 219.848 141.261,216.085 142.806,211.627 144.602 C 187.582 154.288,165.906 167.847,134.268 192.991 C 126.686 199.017,120.243 203.947,119.950 203.947 C 119.657 203.947,115.994 201.246,111.810 197.946 C 91.724 182.101,69.502 171.420,42.711 164.733 C 21.757 159.502,11.937 159.132,6.391 163.363 C 2.738 166.149,0.046 171.442,0.019 175.890 C -0.018 181.976,8.179 206.800,15.399 222.464 C 19.375 231.093,26.684 243.583,31.880 250.633 L 35.787 255.932 33.793 258.313 C 30.024 262.811,22.383 275.211,18.128 283.733 C 8.580 302.855,-0.439 329.836,0.234 337.265 C 0.718 342.610,4.193 347.559,9.145 349.956 C 12.464 351.563,13.883 351.743,19.703 351.294 C 28.779 350.594,44.069 347.090,58.027 342.511 C 78.142 335.913,96.191 326.146,113.441 312.526 L 119.789 307.513 133.329 318.356 C 164.276 343.141,189.450 358.873,212.480 367.824 C 216.469 369.375,219.848 370.723,219.987 370.820 C 220.127 370.917,217.535 380.433,214.227 391.965 C 210.920 403.498,208.213 414.504,208.213 416.421 C 208.213 424.765,215.313 431.788,223.744 431.786 C 228.317 431.784,242.020 428.493,252.160 424.961 C 269.797 418.818,297.818 403.376,316.807 389.336 L 324.693 383.505 335.787 382.501 C 392.161 377.401,441.979 355.448,476.627 320.439 C 499.698 297.128,513.326 270.858,511.739 252.755 C 510.186 235.029,495.755 210.693,474.348 189.700 C 459.230 174.873,442.495 163.196,422.087 153.233 C 395.269 140.140,369.229 132.992,335.360 129.426 L 324.693 128.304 314.453 120.920 C 288.334 102.086,259.967 88.127,235.947 82.290 C 226.123 79.902,220.803 79.716,217.173 81.634 M264.011 127.400 C 277.427 134.359,289.394 141.901,301.758 151.190 C 307.234 155.303,312.906 159.033,314.364 159.476 C 315.821 159.920,320.853 160.531,325.547 160.832 C 333.981 161.375,351.514 163.516,354.283 164.342 C 355.573 164.726,355.511 165.224,353.653 169.427 C 345.809 187.164,340.579 205.533,337.387 226.560 C 335.214 240.871,335.214 271.129,337.387 285.440 C 340.579 306.467,345.809 324.836,353.653 342.573 C 355.518 346.791,355.577 347.275,354.277 347.688 C 351.520 348.563,334.866 350.661,326.400 351.200 C 321.707 351.498,316.444 352.099,314.705 352.534 C 312.965 352.969,307.692 356.204,302.987 359.723 C 288.823 370.314,274.210 379.492,260.795 386.223 C 253.811 389.728,247.962 392.460,247.798 392.295 C 247.633 392.130,249.411 385.301,251.749 377.119 C 254.087 368.937,256.000 360.978,256.000 359.434 C 256.000 355.839,253.364 350.672,250.150 347.968 C 248.659 346.714,242.664 344.258,235.393 341.923 C 207.822 333.070,183.186 317.985,144.640 286.354 C 127.697 272.450,124.668 270.531,119.646 270.517 C 115.051 270.504,111.023 272.552,104.655 278.141 C 84.306 295.997,67.144 306.151,46.080 312.795 C 43.499 313.609,40.902 314.454,40.310 314.673 C 38.886 315.199,39.294 314.115,45.339 301.332 C 51.362 288.594,57.535 279.138,65.583 270.324 C 72.320 262.945,73.934 259.211,73.020 253.116 C 72.523 249.803,71.334 247.954,65.198 240.948 C 61.218 236.404,55.792 229.196,53.141 224.930 C 48.647 217.699,39.036 197.914,39.694 197.250 C 40.203 196.738,53.563 201.314,61.289 204.646 C 74.792 210.470,89.512 220.266,104.834 233.624 C 113.715 241.366,118.327 242.895,125.152 240.362 C 126.636 239.811,134.892 233.630,143.499 226.627 C 184.588 193.193,207.704 178.968,235.393 170.077 C 242.664 167.742,248.659 165.286,250.150 164.032 C 253.364 161.328,256.000 156.161,256.000 152.566 C 256.000 151.022,254.080 143.039,251.733 134.827 C 249.387 126.615,247.467 119.794,247.467 119.670 C 247.467 119.166,254.245 122.333,264.011 127.400 M398.747 177.596 C 433.680 192.588,461.662 216.588,475.096 243.081 C 478.621 250.031,479.147 251.748,479.147 256.307 C 479.147 260.704,478.602 262.638,475.762 268.327 C 462.460 294.979,433.409 320.075,399.360 334.327 C 386.365 339.767,387.916 340.100,383.643 330.946 C 377.429 317.633,372.695 302.099,369.776 285.435 C 367.652 273.314,367.652 238.686,369.776 226.565 C 371.632 215.971,373.887 207.068,377.295 196.883 C 380.197 188.209,386.933 173.227,387.931 173.227 C 388.279 173.227,393.146 175.193,398.747 177.596 M409.157 225.616 C 405.535 227.194,401.256 232.364,400.577 235.982 C 399.136 243.663,402.555 251.090,408.960 254.190 C 421.202 260.117,434.004 249.740,431.423 235.982 C 430.726 232.269,426.411 227.149,422.654 225.580 C 419.183 224.129,412.529 224.147,409.157 225.616 " fill="black" stroke="none" fill-rule="evenodd"></path></svg>