<svg xmlns="http://www.w3.org/2000/svg" viewBox="0 0 512 512"><path d="M217.173 81.818 C 215.296 82.680,213.103 84.126,212.299 85.031 C 210.176 87.422,208.217 92.533,208.188 95.759 C 208.173 97.300,210.751 107.700,213.915 118.872 C 218.078 133.573,219.435 139.553,218.825 140.519 C 218.362 141.253,213.385 143.833,207.765 146.251 C 184.638 156.201,162.503 170.236,134.604 192.637 C 128.568 197.484,122.547 201.667,121.225 201.931 C 118.277 202.521,117.267 201.992,108.050 195.041 C 87.342 179.422,60.780 167.922,32.971 162.536 C 13.202 158.707,5.704 160.322,1.633 169.288 C -0.647 174.306,-0.398 177.788,3.053 189.177 C 9.725 211.194,17.797 229.322,27.676 244.480 C 31.534 250.399,33.245 253.848,33.259 255.738 C 33.274 257.646,31.737 260.844,28.133 266.405 C 17.836 282.295,8.761 302.578,2.880 322.848 C -0.626 334.931,-0.642 339.417,2.803 344.622 C 5.498 348.695,11.079 351.574,16.269 351.571 C 21.088 351.567,33.087 349.493,43.587 346.849 C 68.346 340.615,92.803 328.912,110.632 314.767 C 116.337 310.241,119.911 309.024,122.861 310.603 C 123.903 311.161,130.400 316.096,137.298 321.569 C 164.772 343.368,188.122 357.882,210.300 366.946 C 214.498 368.662,218.323 370.685,218.800 371.441 C 219.443 372.460,218.178 378.074,213.915 393.128 C 210.751 404.300,208.173 414.895,208.188 416.674 C 208.216 420.203,210.527 425.435,213.029 427.630 C 218.398 432.343,223.900 432.815,236.428 429.640 C 260.692 423.489,287.691 410.191,313.532 391.662 L 324.508 383.792 335.652 382.627 C 348.220 381.312,361.723 379.203,365.867 377.908 C 370.360 376.503,370.250 374.220,365.265 365.377 C 362.867 361.122,358.838 353.300,356.312 347.994 C 325.795 283.892,329.290 207.368,365.516 146.489 C 369.554 139.703,370.350 136.572,368.427 135.038 C 366.950 133.860,354.573 131.723,338.347 129.845 L 324.693 128.265 316.334 122.203 C 290.271 103.304,260.998 88.633,237.518 82.704 C 226.112 79.823,221.916 79.640,217.173 81.818 M396.564 156.713 C 380.669 183.495,371.704 208.697,368.680 235.100 C 367.550 244.961,367.550 267.039,368.680 276.900 C 370.811 295.508,377.760 319.479,385.631 335.373 C 393.408 351.079,401.977 365.896,403.516 366.298 C 404.354 366.517,409.617 364.714,415.213 362.290 C 458.964 343.339,495.806 308.154,508.256 273.432 C 512.288 262.186,512.817 255.354,510.401 245.737 C 503.676 218.968,478.898 188.740,445.160 166.145 C 435.317 159.553,410.623 146.971,406.083 146.234 L 403.073 145.745 396.564 156.713 M422.131 225.337 C 430.309 228.435,434.040 238.859,429.977 247.254 C 423.069 261.522,401.723 257.127,400.399 241.164 C 399.845 234.483,403.802 227.697,409.600 225.385 C 412.469 224.241,419.172 224.216,422.131 225.337 " stroke="none" fill-rule="evenodd" fill="black"></path></svg>