<svg xmlns="http://www.w3.org/2000/svg" width="512" height="512" viewBox="0 0 512 512"><path d="M149.333 64.486 C 148.160 64.691,144.320 65.280,140.800 65.794 C 103.091 71.304,68.210 101.112,54.717 139.359 C 49.612 153.829,48.293 162.382,48.310 180.907 C 48.327 199.354,49.608 210.286,53.792 227.692 C 55.182 233.477,56.320 238.555,56.320 238.975 C 56.320 239.396,50.848 239.846,44.160 239.977 L 32.000 240.213 32.000 256.000 L 32.000 271.787 50.560 272.017 C 60.768 272.143,69.120 272.083,69.120 271.883 C 69.120 271.683,67.993 269.007,66.615 265.936 C 63.754 259.560,57.173 241.931,57.173 240.644 C 57.173 240.080,73.096 239.787,103.681 239.787 L 150.188 239.787 180.691 178.773 C 197.468 145.216,211.390 117.760,211.628 117.760 C 211.867 117.760,222.788 153.520,235.896 197.227 L 259.730 276.693 281.866 232.427 L 304.003 188.161 325.011 230.187 L 346.019 272.213 394.023 272.213 C 420.425 272.213,442.027 272.418,442.027 272.668 C 442.027 274.056,431.567 293.018,427.366 299.247 C 426.043 301.209,424.960 303.033,424.960 303.300 C 424.960 303.568,437.440 303.787,452.693 303.787 L 480.427 303.787 480.427 288.000 L 480.427 272.213 461.562 272.213 C 446.789 272.213,442.799 271.982,443.167 271.147 C 455.058 244.141,461.152 221.162,463.480 194.560 C 466.843 156.128,455.662 122.391,431.360 97.639 C 415.088 81.067,393.622 69.632,371.200 65.593 C 361.068 63.769,340.169 64.188,329.653 66.427 C 303.931 71.902,281.078 85.106,262.044 105.488 L 256.000 111.960 249.956 105.488 C 230.873 85.054,207.710 71.695,182.347 66.495 C 174.105 64.806,154.374 63.605,149.333 64.486 M186.927 237.987 L 169.809 272.213 119.891 272.213 C 92.436 272.213,69.973 272.414,69.973 272.659 C 69.973 273.752,77.387 287.692,81.718 294.744 C 94.796 316.037,107.761 332.256,127.536 352.060 C 152.570 377.132,173.036 393.006,223.352 426.378 L 255.985 448.022 288.632 426.366 C 320.756 405.059,343.721 388.512,360.533 374.560 C 372.039 365.012,397.420 339.487,405.939 328.897 C 413.019 320.096,424.107 305.046,424.107 304.237 C 424.107 303.990,402.028 303.787,375.043 303.787 L 325.980 303.787 314.989 281.818 L 303.998 259.849 278.244 311.352 C 264.079 339.678,252.362 362.716,252.205 362.547 C 252.049 362.378,241.276 326.720,228.267 283.307 C 215.257 239.893,204.485 204.235,204.329 204.067 C 204.172 203.898,196.341 219.162,186.927 237.987 " stroke="none" fill-rule="evenodd" fill="black"></path></svg>