<svg xmlns="http://www.w3.org/2000/svg" width="512" height="512" viewBox="0 0 512 512"><path d="M146.468 64.877 C 120.209 67.875,93.694 81.983,76.408 102.153 C 48.241 135.023,41.089 176.927,54.501 230.506 L 56.771 239.571 49.866 240.002 C 44.361 240.345,42.243 240.886,39.418 242.669 C 29.753 248.770,30.010 263.652,39.886 269.792 C 42.824 271.619,44.211 271.811,56.391 272.072 L 69.689 272.358 72.037 277.192 C 94.025 322.457,139.360 370.714,206.080 419.877 C 222.428 431.923,237.688 442.350,242.773 444.951 C 247.425 447.329,248.634 447.569,256.000 447.569 C 263.366 447.569,264.575 447.329,269.227 444.951 C 276.716 441.121,302.577 422.817,323.840 406.296 C 365.959 373.570,402.595 336.811,421.116 308.693 L 424.348 303.787 446.015 303.787 C 462.514 303.787,468.336 303.506,470.427 302.612 C 476.936 299.827,480.980 291.718,479.396 284.628 C 478.411 280.217,476.965 278.035,473.047 275.043 C 469.945 272.675,469.703 272.636,456.390 272.368 C 448.959 272.218,442.880 271.987,442.880 271.854 C 442.880 271.721,444.569 267.580,446.634 262.652 C 458.369 234.642,463.735 208.627,463.671 180.053 C 463.642 167.199,463.292 162.652,461.786 155.573 C 456.908 132.647,446.601 113.136,431.082 97.446 C 421.159 87.413,413.742 82.030,401.493 75.968 C 383.879 67.252,372.611 64.583,353.280 64.550 C 334.247 64.517,320.998 67.398,304.880 75.076 C 291.094 81.643,281.757 88.506,268.160 102.066 L 256.000 114.193 243.840 102.037 C 230.430 88.632,220.517 81.393,206.470 74.749 C 197.847 70.671,186.625 67.106,178.063 65.727 C 170.130 64.448,154.018 64.015,146.468 64.877 M172.857 97.324 C 199.402 102.025,224.328 121.675,242.496 152.222 C 248.505 162.325,263.495 162.325,269.504 152.222 C 287.928 121.244,313.153 101.564,339.981 97.237 C 349.042 95.775,365.595 96.623,373.727 98.965 C 388.181 103.129,403.824 113.518,412.972 125.030 C 422.193 136.634,427.202 147.302,430.193 161.707 C 433.172 176.053,431.738 200.829,426.736 221.440 C 423.283 235.670,414.744 257.488,408.376 268.355 L 406.115 272.213 376.071 272.211 L 346.027 272.210 331.283 242.768 C 317.804 215.852,316.244 213.131,313.098 211.049 C 306.451 206.650,297.425 207.690,292.139 213.464 C 291.131 214.565,283.427 229.241,275.019 246.076 L 259.732 276.686 243.270 221.756 C 221.756 149.968,222.363 151.825,219.536 149.179 C 213.448 143.482,205.524 142.666,198.895 147.054 C 195.681 149.180,193.904 152.417,172.807 194.561 L 150.168 239.787 120.363 239.787 L 90.557 239.787 88.407 232.741 C 83.121 215.409,81.085 203.053,80.499 184.747 C 80.096 172.138,80.270 169.109,81.827 161.591 C 84.838 147.060,90.616 135.095,100.204 123.539 C 111.011 110.512,129.653 99.896,146.773 97.018 C 151.234 96.268,168.007 96.464,172.857 97.324 M222.747 264.960 C 232.720 298.283,241.402 326.583,242.039 327.849 C 244.876 333.484,253.639 337.186,260.015 335.443 C 266.891 333.563,267.756 332.237,286.423 294.973 L 303.991 259.906 313.489 278.746 C 318.713 289.108,323.535 298.239,324.205 299.036 C 327.638 303.123,329.138 303.336,357.743 303.787 L 384.819 304.213 378.402 311.815 C 352.204 342.845,309.719 379.440,263.460 410.821 L 256.000 415.881 248.540 410.821 C 244.437 408.037,235.317 401.564,228.273 396.435 C 170.013 354.012,131.112 315.007,107.576 275.413 L 105.674 272.213 133.264 272.209 C 150.501 272.206,162.107 271.856,164.195 271.276 C 171.020 269.381,171.624 268.478,188.295 235.220 C 196.965 217.925,204.184 203.909,204.336 204.074 C 204.489 204.239,212.774 231.637,222.747 264.960 " stroke="none" fill-rule="evenodd" fill="black"></path></svg>