<svg xmlns="http://www.w3.org/2000/svg" width="512" height="512" viewBox="0 0 512 512"><path d="M149.333 64.486 C 148.160 64.691,144.320 65.280,140.800 65.794 C 131.638 67.132,119.503 71.190,109.760 76.172 C 73.416 94.757,50.294 131.250,48.066 173.541 C 47.225 189.507,50.000 214.128,54.572 231.253 C 55.511 234.773,56.289 238.078,56.300 238.597 C 56.312 239.162,53.761 239.734,49.943 240.023 C 41.970 240.626,37.371 243.020,34.378 248.127 C 29.935 255.708,32.824 265.973,40.533 270.003 C 43.455 271.530,45.761 271.826,56.533 272.061 C 63.456 272.213,69.120 272.152,69.120 271.928 C 69.120 271.703,67.993 269.007,66.615 265.936 C 63.754 259.560,57.173 241.931,57.173 240.644 C 57.173 240.080,73.093 239.787,103.671 239.787 L 150.168 239.787 172.807 194.561 C 193.904 152.417,195.681 149.180,198.895 147.054 C 205.524 142.666,213.448 143.482,219.536 149.179 C 222.363 151.825,221.757 149.969,243.266 221.743 L 259.724 276.659 275.142 245.927 C 283.622 229.024,291.328 214.351,292.267 213.320 C 297.389 207.693,306.522 206.697,313.098 211.049 C 316.244 213.131,317.804 215.852,331.283 242.768 L 346.027 272.210 394.027 272.211 C 420.427 272.212,442.027 272.418,442.027 272.668 C 442.027 274.056,431.567 293.018,427.366 299.247 C 426.043 301.209,424.960 303.051,424.960 303.340 C 424.960 303.630,435.071 303.752,447.428 303.613 L 469.897 303.360 473.046 300.957 C 476.965 297.965,478.411 295.783,479.396 291.372 C 480.383 286.953,478.851 280.630,476.072 277.652 C 471.704 272.972,468.791 272.213,455.196 272.213 C 445.516 272.213,442.803 271.973,443.167 271.147 C 455.058 244.141,461.152 221.162,463.480 194.560 C 466.843 156.128,455.662 122.391,431.360 97.639 C 415.085 81.063,393.578 69.609,371.200 65.599 C 362.147 63.977,340.967 64.179,332.081 65.971 C 306.291 71.174,281.909 85.639,262.768 107.093 C 259.418 110.848,256.365 113.920,255.983 113.920 C 255.602 113.920,252.764 111.040,249.677 107.520 C 231.079 86.309,205.594 71.078,180.371 66.098 C 173.793 64.799,153.554 63.748,149.333 64.486 M189.215 233.446 C 180.973 249.905,173.156 264.647,171.844 266.207 C 166.715 272.302,167.905 272.174,116.267 272.195 C 90.805 272.205,69.973 272.414,69.973 272.659 C 69.973 273.943,77.814 288.405,83.257 297.161 C 109.220 338.923,149.676 378.958,210.773 423.350 C 228.363 436.130,239.615 443.691,244.053 445.714 C 247.026 447.069,249.724 447.476,256.000 447.516 C 263.415 447.564,264.548 447.345,269.284 444.944 C 278.017 440.516,312.013 416.070,334.507 398.042 C 369.297 370.159,398.447 340.546,417.920 313.305 C 421.323 308.545,424.107 304.466,424.107 304.240 C 424.107 304.014,403.054 303.723,377.324 303.594 L 330.540 303.360 327.025 301.033 C 323.877 298.949,322.492 296.682,313.751 279.305 L 303.992 259.903 286.424 294.972 C 273.780 320.212,268.119 330.661,266.229 332.252 C 259.285 338.095,248.508 336.749,243.035 329.356 C 242.153 328.165,233.377 300.325,223.532 267.489 C 213.687 234.653,205.310 206.827,204.916 205.653 C 204.293 203.798,202.250 207.413,189.215 233.446 " stroke="none" fill-rule="evenodd" fill="black"></path></svg>