<svg xmlns="http://www.w3.org/2000/svg" width="512" height="512" viewBox="0 0 512 512"><path d="M129.280 33.344 C 101.195 36.210,78.669 43.548,68.536 53.131 L 64.000 57.421 64.000 268.940 L 64.000 480.459 82.987 480.230 L 101.973 480.000 102.400 396.378 L 102.827 312.756 107.535 310.888 C 120.392 305.787,147.742 303.134,171.805 304.654 C 196.102 306.189,215.701 309.650,263.784 320.897 C 324.592 335.120,342.372 337.580,368.640 335.406 C 395.626 333.173,420.080 327.156,440.107 317.822 L 448.000 314.143 448.000 184.427 L 448.000 54.710 441.813 57.530 C 438.411 59.081,432.909 61.718,429.588 63.391 C 412.010 72.244,385.923 78.456,360.533 79.836 C 343.185 80.778,328.036 77.637,294.381 66.117 C 240.149 47.554,229.646 44.138,215.893 40.586 C 190.406 34.004,184.317 33.174,159.147 32.848 C 146.944 32.690,133.504 32.913,129.280 33.344 " stroke="none" fill-rule="evenodd" fill="black"></path></svg>