<svg xmlns="http://www.w3.org/2000/svg" width="512" height="512" viewBox="0 0 512 512"><path d="M133.973 32.990 C 99.509 36.344,78.713 42.754,69.931 52.730 C 63.511 60.024,63.998 42.437,64.019 266.182 C 64.037 459.791,64.096 467.326,65.613 470.613 C 66.479 472.491,68.183 474.943,69.399 476.063 C 71.581 478.072,79.306 480.645,81.313 480.032 C 81.882 479.858,83.396 479.486,84.678 479.206 C 87.571 478.572,92.621 474.221,94.550 470.700 C 95.875 468.281,96.037 461.364,96.427 390.400 L 96.853 312.747 102.674 310.802 C 117.452 305.864,147.861 303.138,171.458 304.636 C 196.688 306.238,214.412 309.378,265.813 321.355 C 319.485 333.861,331.106 335.756,353.707 335.690 C 378.014 335.619,400.269 332.123,421.853 324.984 C 434.098 320.934,439.011 318.512,442.630 314.740 C 448.321 308.809,448.000 316.183,448.000 191.309 C 448.000 78.316,447.998 78.188,446.217 74.508 C 443.301 68.485,436.399 64.000,430.045 64.000 C 428.962 64.000,421.326 66.304,413.078 69.121 C 395.315 75.185,381.579 78.140,364.818 79.503 C 343.446 81.240,331.048 78.668,285.867 63.125 C 223.730 41.749,207.630 37.212,181.388 33.682 C 172.936 32.545,143.033 32.109,133.973 32.990 M172.496 64.886 C 195.966 67.238,212.686 71.767,265.558 90.098 C 315.418 107.385,328.929 110.836,349.566 111.558 C 370.428 112.287,392.100 109.323,414.080 102.733 C 415.496 102.308,415.573 107.235,415.573 197.879 L 415.573 293.472 408.668 295.654 C 392.673 300.707,371.597 303.790,353.100 303.782 C 334.866 303.775,323.170 301.773,270.933 289.718 C 228.307 279.881,211.618 276.647,188.587 273.762 C 176.810 272.287,137.334 272.288,125.440 273.763 C 117.316 274.771,101.659 277.583,97.920 278.706 C 96.504 279.132,96.427 273.839,96.427 175.878 L 96.427 72.602 102.187 70.814 C 119.344 65.490,151.484 62.780,172.496 64.886 " stroke="none" fill-rule="evenodd" fill="black"></path></svg>