<svg xmlns="http://www.w3.org/2000/svg" width="512" height="512" viewBox="0 0 512 512"><path d="M133.973 32.937 C 132.331 33.122,127.339 33.685,122.880 34.189 C 98.021 37.001,77.430 44.211,69.931 52.730 C 63.511 60.024,63.998 42.437,64.019 266.182 C 64.037 460.667,64.089 467.314,65.633 470.712 C 66.510 472.644,68.525 475.214,70.111 476.424 C 72.883 478.538,79.386 480.603,81.385 480.004 C 81.914 479.846,83.396 479.486,84.678 479.206 C 87.571 478.572,92.621 474.221,94.550 470.700 C 95.875 468.281,96.037 461.364,96.427 390.400 L 96.853 312.747 102.674 310.802 C 117.493 305.850,147.839 303.140,171.625 304.643 C 196.114 306.190,215.603 309.627,263.784 320.897 C 324.592 335.120,342.372 337.580,368.640 335.406 C 388.994 333.722,407.086 330.069,424.533 324.121 C 434.600 320.689,438.364 318.760,442.224 315.059 C 448.403 309.132,448.050 317.046,447.799 190.187 L 447.573 76.248 445.193 72.651 C 442.586 68.713,439.104 66.220,434.067 64.685 C 430.034 63.457,426.481 64.195,413.213 69.017 C 396.055 75.252,379.434 78.649,360.107 79.868 C 343.889 80.892,327.573 77.478,294.381 66.117 C 240.149 47.554,229.646 44.138,215.893 40.586 C 190.356 33.991,184.324 33.171,159.147 32.869 C 146.944 32.723,135.616 32.753,133.973 32.937 " stroke="none" fill-rule="evenodd" fill="black"></path></svg>