<svg xmlns="http://www.w3.org/2000/svg" width="512" height="512" viewBox="0 0 512 512"><path d="M200.962 33.771 C 197.114 35.777,195.335 37.619,193.605 41.387 C 191.620 45.709,191.624 47.752,193.633 57.893 C 200.393 92.007,192.179 123.368,164.806 167.959 C 161.154 173.907,152.210 187.989,144.929 199.253 C 120.781 236.612,110.707 255.490,103.843 276.240 C 97.090 296.655,95.030 312.205,96.502 331.651 C 101.935 403.424,154.516 462.820,225.125 476.945 C 269.379 485.798,316.884 474.725,352.930 447.154 C 383.604 423.693,405.367 388.756,412.965 350.776 C 417.075 330.232,416.739 297.429,412.103 266.667 C 401.738 197.879,372.532 138.527,326.442 92.587 C 299.700 65.932,271.300 47.579,241.920 37.967 C 226.119 32.797,206.654 30.803,200.962 33.771 M250.945 267.739 C 259.827 273.749,270.972 285.892,280.039 299.438 C 290.137 314.525,297.019 329.616,301.067 345.548 C 303.158 353.778,303.349 355.893,303.266 369.920 C 303.186 383.542,302.926 386.220,300.973 393.590 C 294.385 418.442,278.688 431.766,256.000 431.766 C 243.074 431.766,233.092 427.827,224.853 419.475 C 213.785 408.253,208.205 391.110,208.218 368.365 C 208.229 349.150,212.132 334.732,225.227 305.518 C 229.530 295.920,234.401 284.020,236.053 279.073 C 237.705 274.127,239.863 269.216,240.850 268.160 C 243.055 265.800,247.788 265.602,250.945 267.739 " stroke="none" fill-rule="evenodd" fill="black"></path></svg>