<svg xmlns="http://www.w3.org/2000/svg" width="512" height="512" viewBox="0 0 512 512"><path d="M200.962 33.771 C 197.114 35.777,195.335 37.619,193.605 41.387 C 191.691 45.554,191.620 48.600,193.267 55.705 C 195.215 64.104,196.126 78.002,195.362 87.680 C 193.000 117.627,183.324 139.545,148.672 193.447 C 128.708 224.500,120.441 238.460,113.387 253.027 C 99.869 280.942,94.542 305.749,96.502 331.651 C 100.366 382.697,128.383 428.977,171.675 455.828 C 200.257 473.555,234.443 482.026,267.307 479.526 C 346.747 473.481,409.496 410.945,415.483 331.854 C 416.429 319.344,415.459 293.336,413.412 276.361 C 404.938 206.093,376.041 143.675,329.748 95.648 C 292.829 57.346,245.758 32.426,210.347 32.435 C 205.819 32.437,202.658 32.886,200.962 33.771 M239.211 70.812 C 293.396 92.020,344.284 150.272,367.249 217.377 C 382.066 260.677,387.721 313.991,380.991 346.931 C 375.172 375.408,357.373 403.455,333.653 421.521 C 327.159 426.468,320.000 431.235,320.000 430.614 C 320.000 430.426,321.708 427.061,323.796 423.136 C 335.460 401.207,338.978 370.953,333.182 342.418 C 330.971 331.534,325.428 316.066,319.185 303.360 C 296.799 257.802,257.317 224.427,225.807 224.427 C 219.148 224.427,216.357 225.379,212.709 228.897 C 208.725 232.741,207.912 236.040,208.578 245.656 C 209.536 259.482,207.893 265.538,195.782 292.829 C 191.896 301.587,187.375 312.339,185.735 316.723 C 172.172 352.989,172.818 392.312,187.458 421.547 C 189.691 426.005,191.669 429.973,191.853 430.364 C 192.370 431.457,185.458 426.937,178.347 421.531 C 158.754 406.638,142.978 384.741,135.014 361.387 C 127.280 338.708,126.183 314.521,131.936 293.527 C 137.653 272.665,146.330 256.335,177.269 208.213 C 202.279 169.314,212.289 150.335,219.742 127.686 C 225.233 111.000,227.086 100.383,227.618 82.560 C 227.988 70.152,228.292 67.413,229.299 67.413 C 229.975 67.413,234.436 68.943,239.211 70.812 M248.747 266.065 C 274.232 284.076,296.787 320.546,302.445 352.891 C 304.113 362.431,304.151 375.141,302.542 385.707 C 300.312 400.356,295.395 411.121,287.147 419.415 C 278.482 428.128,269.270 431.787,256.000 431.787 C 242.738 431.787,233.527 428.131,224.853 419.424 C 212.917 407.442,207.356 388.525,208.450 363.630 C 209.240 345.660,212.624 333.793,224.663 306.773 C 233.355 287.266,237.491 276.233,238.898 268.800 C 240.440 260.648,240.310 260.888,242.547 262.048 C 243.610 262.599,246.400 264.407,248.747 266.065 " stroke="none" fill-rule="evenodd" fill="black"></path></svg>