<svg xmlns="http://www.w3.org/2000/svg" width="512" height="512" viewBox="0 0 512 512"><path d="M192.278 33.627 C 192.590 34.440,193.696 39.014,194.736 43.792 C 196.370 51.302,196.629 55.084,196.645 71.680 C 196.661 88.566,196.427 91.960,194.707 99.840 C 191.729 113.478,187.278 125.953,180.322 140.156 C 172.753 155.612,167.016 165.278,149.045 192.853 C 122.123 234.164,110.932 254.809,103.843 276.240 C 97.090 296.655,95.030 312.205,96.502 331.651 C 101.935 403.424,154.516 462.820,225.125 476.945 C 251.629 482.247,279.320 480.500,305.956 471.844 C 353.593 456.365,392.359 417.609,407.831 369.997 C 414.697 348.869,416.746 331.311,415.526 304.088 C 412.049 226.560,386.294 159.875,338.773 105.359 C 304.193 65.688,246.762 35.394,201.029 32.698 C 192.418 32.191,191.754 32.261,192.278 33.627 M254.416 270.383 C 274.886 286.761,293.925 317.438,301.067 345.548 C 303.158 353.778,303.349 355.893,303.266 369.920 C 303.186 383.542,302.926 386.220,300.973 393.590 C 294.385 418.442,278.688 431.766,256.000 431.766 C 230.354 431.766,213.259 414.247,209.119 383.725 C 207.072 368.632,208.564 350.137,212.953 336.210 C 216.250 325.749,218.965 319.182,228.118 299.520 C 235.922 282.757,239.003 273.993,240.200 265.150 L 240.752 261.073 244.161 262.990 C 246.036 264.044,250.651 267.371,254.416 270.383 " stroke="none" fill-rule="evenodd" fill="black"></path></svg>