<svg xmlns="http://www.w3.org/2000/svg" width="512" height="512" viewBox="0 0 512 512"><path d="M266.240 80.474 C 236.907 115.690,212.804 144.918,212.679 145.425 C 212.553 145.932,245.668 179.557,286.268 220.147 C 359.241 293.104,360.103 293.928,361.689 292.254 C 362.571 291.322,378.709 272.032,397.551 249.387 L 431.810 208.213 360.118 208.213 C 292.403 208.213,288.428 208.131,288.443 206.720 C 288.452 205.899,295.539 162.809,304.191 110.966 C 312.844 59.122,319.844 16.647,319.748 16.575 C 319.652 16.503,295.573 45.258,266.240 80.474 M74.879 74.881 L 64.011 85.773 245.132 266.892 L 426.253 448.012 437.121 437.119 L 447.989 426.227 266.868 245.108 L 85.747 63.988 74.879 74.881 M115.763 261.120 L 80.203 303.787 151.888 303.787 C 215.400 303.787,223.573 303.934,223.573 305.081 C 223.573 306.347,193.353 488.596,192.305 493.653 C 191.934 495.444,207.955 476.800,245.647 431.580 C 275.277 396.031,299.520 366.654,299.520 366.298 C 299.520 365.549,152.568 218.453,151.819 218.453 C 151.546 218.453,135.320 237.653,115.763 261.120 " stroke="none" fill="black" fill-rule="evenodd"></path></svg>