<svg xmlns="http://www.w3.org/2000/svg" width="512" height="512" viewBox="0 0 512 512"><path d="M308.479 37.547 L 287.154 58.886 370.136 141.868 L 453.118 224.851 474.452 203.517 L 495.786 182.183 412.796 99.196 L 329.805 16.209 308.479 37.547 M267.661 84.150 C 267.399 85.035,263.274 104.192,258.494 126.720 L 249.804 167.680 132.796 284.800 L 15.789 401.920 62.934 449.066 L 110.080 496.211 227.200 379.170 L 344.320 262.129 384.853 253.471 C 407.147 248.709,426.251 244.546,427.308 244.220 C 429.008 243.694,419.940 234.337,348.683 163.083 C 284.917 99.319,268.037 82.875,267.661 84.150 M233.793 269.656 C 240.476 273.096,244.267 279.421,244.267 287.135 C 244.267 302.083,229.703 311.482,216.320 305.171 C 211.236 302.774,208.918 300.414,206.578 295.253 C 201.467 283.978,208.079 270.991,220.522 267.864 C 224.096 266.966,230.155 267.784,233.793 269.656 " stroke="none" fill-rule="evenodd" fill="black"></path></svg>