<svg xmlns="http://www.w3.org/2000/svg" width="512" height="512" viewBox="0 0 512 512"><path d="M308.828 18.182 C 305.695 19.822,297.119 29.972,257.499 78.932 C 231.337 111.261,209.694 138.460,209.405 139.373 C 208.978 140.717,223.415 155.582,285.132 217.342 C 327.072 259.312,362.031 294.010,362.818 294.449 C 363.606 294.888,364.828 295.025,365.534 294.754 C 367.069 294.165,428.144 218.788,430.293 214.830 C 433.696 208.565,431.007 198.888,424.706 194.717 L 421.246 192.427 364.136 192.190 L 307.027 191.953 307.495 190.057 C 309.567 181.656,335.360 37.148,335.360 33.940 C 335.360 20.840,320.551 12.045,308.828 18.182 M77.227 64.807 C 67.839 67.059,62.498 75.581,64.846 84.562 C 65.748 88.012,80.509 103.000,244.754 267.243 C 440.430 462.916,425.743 448.972,434.755 447.621 C 437.640 447.188,439.710 446.153,442.224 443.884 C 448.077 438.602,449.525 432.132,446.362 425.387 C 445.246 423.005,390.894 368.155,266.541 243.918 C 113.668 91.188,87.895 65.782,85.333 65.295 C 83.691 64.982,81.771 64.606,81.067 64.460 C 80.363 64.313,78.635 64.469,77.227 64.807 M146.219 217.283 C 144.567 217.960,82.425 295.163,81.192 298.071 C 78.231 305.052,82.003 314.822,88.960 318.190 C 92.654 319.978,93.374 320.000,148.817 320.000 L 204.936 320.000 204.437 322.347 C 201.410 336.587,176.645 475.491,176.659 478.147 C 176.696 485.273,182.146 492.667,189.036 494.941 C 193.418 496.387,200.474 495.637,204.211 493.327 C 206.185 492.107,224.223 470.508,253.909 433.816 C 279.540 402.139,301.151 375.094,301.935 373.717 L 303.360 371.213 226.123 293.980 C 183.643 251.501,148.507 216.777,148.043 216.814 C 147.580 216.851,146.759 217.062,146.219 217.283 " stroke="none" fill-rule="evenodd" fill="black"></path></svg>