<svg xmlns="http://www.w3.org/2000/svg" width="512" height="512" viewBox="0 0 512 512"><path d="M308.828 18.196 C 305.650 19.871,287.838 41.465,193.927 157.502 C 132.799 233.031,82.207 296.037,81.500 297.516 C 78.341 304.117,80.935 313.074,87.207 317.226 L 90.754 319.573 147.841 319.804 L 204.928 320.035 204.427 322.364 C 201.665 335.221,176.645 475.712,176.659 478.287 C 176.697 485.276,182.205 492.686,189.036 494.941 C 193.420 496.388,200.474 495.637,204.213 493.326 C 206.247 492.068,245.134 444.675,317.204 355.618 C 377.643 280.933,428.036 218.463,429.187 216.796 C 434.002 209.828,431.942 199.506,424.793 194.774 L 421.246 192.427 364.135 192.196 L 307.024 191.965 307.493 190.062 C 309.566 181.659,335.360 37.149,335.360 33.940 C 335.360 20.832,320.525 12.030,308.828 18.196 M283.192 144.853 C 277.189 177.589,272.263 206.018,272.245 208.027 C 272.178 215.696,277.229 221.824,284.988 223.488 C 287.864 224.105,305.147 224.427,335.402 224.427 C 360.723 224.427,381.440 224.613,381.440 224.841 C 381.440 225.898,218.932 425.968,218.682 425.219 C 218.526 424.750,223.210 397.915,229.092 365.585 C 234.974 333.256,239.787 305.382,239.787 303.644 C 239.787 298.130,236.604 292.712,231.680 289.847 C 230.458 289.136,215.708 288.732,179.761 288.427 L 129.550 288.000 208.244 190.720 C 286.824 93.582,293.529 85.333,293.906 85.333 C 294.017 85.333,289.195 112.117,283.192 144.853 " stroke="none" fill-rule="evenodd" fill="black"></path></svg>