<svg xmlns="http://www.w3.org/2000/svg" width="512" height="512" viewBox="0 0 512 512"><path d="M199.891 160.117 L 80.209 303.787 151.891 303.787 C 219.597 303.787,223.572 303.869,223.557 305.280 C 223.548 306.101,216.461 349.191,207.809 401.034 C 199.156 452.878,192.156 495.353,192.252 495.424 C 192.348 495.495,246.284 430.902,312.109 351.883 L 431.791 208.213 360.109 208.213 C 292.403 208.213,288.428 208.131,288.443 206.720 C 288.452 205.899,295.539 162.809,304.191 110.966 C 312.844 59.122,319.844 16.647,319.748 16.576 C 319.652 16.505,265.716 81.098,199.891 160.117 " stroke="none" fill-rule="evenodd" fill="black"></path></svg>