<svg xmlns="http://www.w3.org/2000/svg" width="512" height="512" viewBox="0 0 512 512"><path d="M319.951 34.332 C 312.030 37.098,305.405 41.313,298.132 48.213 C 292.353 53.697,291.836 54.466,291.838 57.595 C 291.840 60.976,292.465 61.628,371.418 140.582 C 450.099 219.262,451.035 220.160,454.368 220.160 C 457.390 220.160,458.295 219.591,463.083 214.684 C 479.403 197.957,483.929 179.964,476.085 162.987 C 473.710 157.847,469.152 153.075,414.041 98.015 C 357.890 41.917,354.226 38.432,348.587 35.760 C 343.282 33.246,341.658 32.898,334.080 32.653 C 326.913 32.421,324.651 32.690,319.951 34.332 M266.418 86.059 C 264.982 86.969,259.245 100.312,257.006 107.947 C 253.610 119.523,250.067 142.852,250.036 153.835 C 250.024 158.106,247.479 165.151,243.575 171.722 C 241.086 175.913,219.067 198.442,141.611 276.053 C 76.636 341.158,41.816 376.646,39.885 379.733 C 28.676 397.647,29.703 419.524,42.650 438.588 C 47.167 445.240,60.777 459.442,68.888 465.966 C 84.702 478.688,104.191 483.025,120.680 477.490 C 124.368 476.251,129.156 474.235,131.320 473.008 C 133.845 471.576,170.841 435.266,234.667 371.576 C 301.074 305.310,335.638 271.408,338.773 269.464 C 347.459 264.079,351.719 262.784,365.112 261.457 C 385.902 259.397,398.174 256.865,412.329 251.716 C 422.112 248.158,426.176 245.738,426.530 243.259 C 426.773 241.561,414.122 228.532,348.871 163.282 C 297.228 111.639,270.349 85.338,269.221 85.346 C 268.286 85.354,267.024 85.674,266.418 86.059 M233.793 269.656 C 240.476 273.096,244.267 279.421,244.267 287.135 C 244.267 302.083,229.703 311.482,216.320 305.171 C 211.236 302.774,208.918 300.414,206.578 295.253 C 201.640 284.360,207.688 271.438,219.225 268.233 C 223.863 266.945,229.615 267.506,233.793 269.656 " stroke="none" fill-rule="evenodd" fill="black"></path></svg>