<svg xmlns="http://www.w3.org/2000/svg" width="512" height="512" viewBox="0 0 512 512"><path d="M187.733 32.427 C 176.336 32.705,169.612 33.214,168.437 33.887 C 165.606 35.511,161.356 40.759,160.794 43.322 C 160.514 44.604,160.142 46.118,159.968 46.687 C 159.355 48.694,161.928 56.419,163.937 58.601 C 167.776 62.770,171.863 63.961,182.400 63.981 L 192.000 64.000 191.985 104.747 C 191.970 147.663,191.636 152.229,187.902 160.672 C 187.002 162.706,157.545 209.851,122.441 265.438 C 87.337 321.026,57.127 369.662,55.307 373.518 C 50.039 384.680,48.445 391.973,48.445 404.907 C 48.445 413.469,48.853 417.524,50.231 422.680 C 58.033 451.856,80.446 473.029,109.653 478.816 C 118.528 480.575,393.472 480.575,402.347 478.816 C 426.412 474.048,445.618 459.260,456.223 437.333 C 461.856 425.688,463.555 418.171,463.555 404.907 C 463.555 391.976,461.962 384.684,456.695 373.518 C 454.876 369.662,424.690 321.079,389.614 265.557 C 354.538 210.034,325.079 162.889,324.151 160.790 C 320.358 152.216,320.030 147.776,320.015 104.747 L 320.000 64.000 329.600 63.981 C 340.137 63.961,344.224 62.770,348.063 58.601 C 352.001 54.324,352.922 45.816,350.033 40.417 C 348.689 37.906,343.372 33.393,341.104 32.839 C 338.589 32.225,210.171 31.879,187.733 32.427 M287.573 102.310 C 287.573 123.380,287.979 144.596,288.475 149.456 C 289.489 159.401,292.921 170.780,297.335 178.835 C 298.896 181.685,314.600 206.852,332.231 234.761 C 349.863 262.671,364.541 286.163,364.849 286.966 C 365.376 288.340,358.909 288.427,256.000 288.427 C 153.091 288.427,146.624 288.340,147.151 286.966 C 147.459 286.163,162.176 262.643,179.854 234.700 C 197.532 206.756,213.640 180.629,215.650 176.640 C 217.659 172.651,220.332 165.547,221.590 160.853 L 223.876 152.320 224.224 108.160 L 224.572 64.000 256.072 64.000 L 287.573 64.000 287.573 102.310 M404.480 349.078 C 426.747 384.360,427.942 386.421,430.086 393.263 C 437.237 416.071,421.630 442.093,397.825 447.057 C 391.439 448.389,120.561 448.389,114.175 447.057 C 90.843 442.191,74.983 416.458,81.587 394.182 C 83.645 387.242,84.756 385.303,106.125 351.370 L 125.867 320.019 256.000 320.014 L 386.133 320.008 404.480 349.078 " stroke="none" fill-rule="evenodd" fill="black"></path></svg>