<svg xmlns="http://www.w3.org/2000/svg" width="512" height="512" viewBox="0 0 512 512"><path d="M308.828 18.182 C 305.695 19.822,297.119 29.972,257.499 78.932 C 231.337 111.261,209.696 138.455,209.408 139.364 C 209.000 140.648,210.944 143.092,218.148 150.351 C 228.127 160.406,229.585 161.539,231.566 160.779 C 232.275 160.507,246.346 143.618,262.835 123.249 C 279.323 102.879,293.101 86.035,293.452 85.818 C 293.803 85.602,289.182 112.188,283.184 144.899 C 277.185 177.610,272.263 205.980,272.245 207.944 C 272.203 212.641,273.431 215.705,276.722 219.117 C 281.756 224.335,282.760 224.427,334.662 224.427 C 360.390 224.427,381.440 224.625,381.440 224.868 C 381.440 225.110,373.158 235.517,363.036 247.994 C 352.913 260.471,344.203 271.619,343.679 272.769 C 342.788 274.725,343.324 275.460,352.057 284.260 C 362.104 294.383,363.556 295.513,365.543 294.751 C 367.175 294.125,429.291 217.454,430.682 214.349 C 433.532 207.985,430.701 198.685,424.706 194.717 L 421.246 192.427 364.136 192.190 L 307.027 191.953 307.495 190.057 C 309.567 181.656,335.360 37.148,335.360 33.940 C 335.360 20.840,320.551 12.045,308.828 18.182 M77.227 64.807 C 67.839 67.059,62.498 75.581,64.846 84.562 C 65.748 88.012,80.509 103.000,244.754 267.243 C 440.430 462.916,425.743 448.972,434.755 447.621 C 437.640 447.188,439.710 446.153,442.224 443.884 C 448.077 438.602,449.525 432.132,446.362 425.387 C 445.246 423.005,390.894 368.155,266.541 243.918 C 113.668 91.188,87.895 65.782,85.333 65.295 C 83.691 64.982,81.771 64.606,81.067 64.460 C 80.363 64.313,78.635 64.469,77.227 64.807 M146.219 217.283 C 144.567 217.960,82.425 295.163,81.192 298.071 C 78.231 305.052,82.003 314.822,88.960 318.190 C 92.654 319.978,93.374 320.000,148.817 320.000 L 204.936 320.000 204.437 322.347 C 201.410 336.587,176.645 475.491,176.659 478.147 C 176.696 485.273,182.146 492.667,189.036 494.941 C 193.418 496.387,200.474 495.637,204.211 493.327 C 206.185 492.107,224.223 470.508,253.909 433.816 C 279.540 402.139,301.151 375.100,301.935 373.729 L 303.360 371.238 293.973 361.775 C 283.873 351.594,282.418 350.459,280.434 351.221 C 279.725 351.493,265.604 368.444,249.054 388.889 C 232.504 409.335,218.832 425.669,218.671 425.187 C 218.511 424.705,223.196 397.968,229.083 365.771 C 234.970 333.574,239.787 305.676,239.787 303.775 C 239.787 297.486,235.757 291.460,230.131 289.334 C 228.536 288.732,211.397 288.427,179.144 288.427 C 148.704 288.427,130.560 288.121,130.560 287.608 C 130.560 287.158,139.197 276.118,149.754 263.075 C 160.311 250.032,168.951 238.764,168.954 238.035 C 168.960 236.616,149.272 216.701,147.974 216.814 C 147.548 216.851,146.759 217.062,146.219 217.283 " stroke="none" fill-rule="evenodd" fill="black"></path></svg>