<svg xmlns="http://www.w3.org/2000/svg" width="512" height="512" viewBox="0 0 512 512"><path d="M308.828 18.184 C 305.643 19.853,288.035 41.187,193.853 157.491 C 132.686 233.025,82.094 296.062,81.426 297.573 C 78.109 305.083,81.577 314.616,88.919 318.170 C 92.666 319.984,93.186 320.000,148.817 320.000 L 204.936 320.000 204.436 322.347 C 201.318 336.983,176.645 475.243,176.659 478.000 C 176.695 485.270,182.086 492.647,189.036 494.941 C 193.420 496.388,200.474 495.637,204.213 493.326 C 206.247 492.069,245.142 444.669,317.204 355.628 C 377.643 280.949,428.030 218.558,429.175 216.982 C 430.654 214.945,431.362 212.654,431.622 209.064 C 431.933 204.765,431.655 203.446,429.761 200.214 C 428.537 198.124,426.092 195.518,424.328 194.421 L 421.120 192.427 364.150 192.190 L 307.179 191.953 307.608 190.057 C 310.168 178.744,335.360 37.027,335.360 33.940 C 335.360 20.839,320.548 12.043,308.828 18.184 " stroke="none" fill-rule="evenodd" fill="black"></path></svg>