<svg xmlns="http://www.w3.org/2000/svg" width="512" height="512" viewBox="0 0 512 512"><path d="M320.853 33.996 C 314.413 36.125,311.174 37.904,304.213 43.138 C 297.225 48.392,279.165 66.621,274.245 73.387 C 259.782 93.277,253.984 111.341,250.552 147.200 C 249.235 160.970,248.234 164.270,242.729 172.994 C 240.617 176.340,207.792 209.808,140.396 277.333 C 55.028 362.865,40.750 377.521,38.144 382.293 C 28.512 399.931,30.745 423.041,43.749 440.308 C 48.860 447.093,61.687 460.162,69.120 466.155 C 88.113 481.471,111.169 484.192,130.560 473.407 C 134.149 471.411,158.645 447.459,234.667 371.613 C 303.472 302.966,335.620 271.461,339.081 269.285 C 347.086 264.252,351.846 262.781,364.373 261.472 C 408.266 256.886,428.990 248.283,453.340 224.542 C 470.669 207.645,476.514 198.930,479.221 185.944 C 480.255 180.988,480.329 178.574,479.592 173.829 C 477.679 161.495,479.881 164.042,414.352 98.386 C 357.669 41.593,354.249 38.332,348.587 35.666 C 343.237 33.147,341.723 32.832,334.080 32.649 C 327.683 32.495,324.372 32.832,320.853 33.996 M391.492 120.548 C 422.130 151.164,447.411 177.043,447.672 178.058 C 448.496 181.256,444.960 187.380,438.301 194.285 L 431.865 200.960 371.452 140.548 L 311.040 80.135 317.571 73.837 C 325.270 66.412,329.587 63.822,333.227 64.445 C 335.230 64.788,347.907 76.995,391.492 120.548 M404.673 220.245 C 403.543 221.260,390.501 225.178,384.000 226.456 C 380.480 227.148,373.760 228.145,369.067 228.671 C 349.668 230.845,345.821 231.448,341.014 233.068 C 334.589 235.232,325.272 239.918,318.720 244.281 C 315.465 246.448,277.379 283.827,214.187 346.873 C 121.475 439.369,114.505 446.127,110.794 447.118 C 101.029 449.725,93.401 446.033,79.311 431.880 C 68.749 421.270,65.328 415.942,64.320 408.533 C 63.090 399.500,57.262 405.898,165.947 296.960 C 267.258 195.414,268.742 193.840,275.000 181.333 C 279.040 173.257,281.387 163.946,282.419 151.893 C 284.117 132.050,286.611 118.723,290.188 110.379 L 291.924 106.329 348.609 163.009 C 379.785 194.182,405.014 219.939,404.673 220.245 M218.766 268.269 C 208.061 271.745,202.527 282.709,205.843 293.874 C 207.215 298.493,213.507 304.785,218.126 306.157 C 223.107 307.636,228.554 307.419,232.602 305.581 C 242.905 300.902,247.559 288.471,242.652 278.737 C 238.232 269.971,227.718 265.363,218.766 268.269 " stroke="none" fill-rule="evenodd" fill="black"></path></svg>