<svg xmlns="http://www.w3.org/2000/svg" width="512" height="512" viewBox="0 0 512 512"><path d="M169.813 33.381 C 166.143 34.837,162.147 39.430,160.901 43.624 C 158.673 51.127,162.279 59.185,169.288 62.367 C 172.041 63.618,174.875 63.967,182.400 63.981 L 192.000 64.000 191.985 104.747 C 191.970 147.686,191.637 152.227,187.891 160.695 C 186.986 162.743,156.954 210.827,121.154 267.550 C 85.354 324.274,55.164 372.897,54.065 375.603 C 49.544 386.727,48.268 393.183,48.272 404.907 C 48.277 420.588,51.772 432.735,59.834 445.085 C 72.704 464.800,92.471 476.853,116.285 479.508 C 127.706 480.782,384.294 480.782,395.715 479.508 C 428.548 475.847,453.572 454.151,462.158 421.901 C 463.332 417.489,463.716 413.093,463.678 404.480 C 463.634 394.509,463.317 391.928,461.317 385.280 C 460.046 381.056,457.737 375.104,456.185 372.053 C 454.633 369.003,424.665 321.068,389.590 265.531 C 354.515 209.995,325.062 162.850,324.140 160.765 C 320.361 152.222,320.030 147.746,320.015 104.834 L 320.000 64.175 330.594 63.874 C 340.765 63.585,341.333 63.471,344.811 61.013 C 353.425 54.927,354.312 43.696,346.743 36.534 C 345.410 35.273,343.239 33.833,341.918 33.334 C 338.711 32.123,172.872 32.168,169.813 33.381 M286.541 65.067 C 287.114 65.758,287.549 81.288,287.777 109.227 L 288.128 152.320 290.413 160.853 C 291.669 165.547,294.342 172.651,296.353 176.640 C 298.364 180.629,313.340 204.972,329.632 230.734 C 346.502 257.412,359.253 278.424,359.253 279.548 C 359.253 282.569,357.589 285.555,355.190 286.840 C 353.398 287.798,336.166 288.000,256.000 288.000 C 175.834 288.000,158.602 287.798,156.810 286.840 C 154.411 285.555,152.747 282.569,152.747 279.548 C 152.747 278.424,165.498 257.412,182.368 230.734 C 198.660 204.972,213.636 180.629,215.647 176.640 C 217.658 172.651,220.331 165.547,221.587 160.853 L 223.872 152.320 224.223 109.227 C 224.451 81.288,224.886 65.758,225.459 65.067 C 226.135 64.251,233.314 64.000,256.000 64.000 C 278.686 64.000,285.865 64.251,286.541 65.067 " stroke="none" fill-rule="evenodd" fill="black"></path></svg>