<svg xmlns="http://www.w3.org/2000/svg" width="512" height="512" viewBox="0 0 512 512"><path d="M155.307 53.333 L 155.307 74.240 171.093 74.240 L 186.880 74.240 186.878 114.133 L 186.876 154.027 113.231 271.005 C 72.726 335.343,38.758 389.906,37.747 392.256 C 29.972 410.330,30.360 428.880,38.864 445.712 C 47.466 462.738,61.996 474.115,80.640 478.423 C 87.157 479.929,95.102 480.000,256.000 480.000 C 416.898 480.000,424.843 479.929,431.360 478.423 C 450.013 474.113,464.331 462.916,473.024 445.843 C 481.643 428.914,482.067 410.421,474.253 392.256 C 473.242 389.906,439.274 335.343,398.769 271.005 L 325.124 154.027 325.122 114.133 L 325.120 74.240 340.907 74.240 L 356.693 74.240 356.693 53.333 L 356.693 32.427 256.000 32.427 L 155.307 32.427 155.307 53.333 M283.307 118.933 C 283.307 154.887,283.538 164.282,284.492 166.984 C 285.143 168.832,301.653 195.664,321.180 226.611 L 356.683 282.880 306.342 283.100 C 278.654 283.221,233.348 283.221,205.662 283.100 L 155.323 282.880 189.529 228.693 C 208.342 198.891,224.754 172.587,226.000 170.240 L 228.267 165.973 228.508 120.107 L 228.750 74.240 256.028 74.240 L 283.307 74.240 283.307 118.933 " stroke="none" fill-rule="evenodd" fill="black"></path></svg>