<svg xmlns="http://www.w3.org/2000/svg" width="512" height="512" viewBox="0 0 512 512"><path d="M243.851 17.037 C 223.653 20.725,204.928 34.622,195.962 52.577 C 190.851 62.812,189.273 69.179,188.689 81.920 L 188.160 93.440 185.740 90.277 C 179.711 82.396,164.798 72.713,153.173 69.133 C 140.338 65.179,121.818 66.070,109.055 71.256 C 94.062 77.349,80.455 89.994,73.073 104.696 C 68.661 113.484,67.036 121.364,67.036 133.973 C 67.036 147.102,68.651 154.443,73.781 164.629 C 77.200 171.417,85.554 182.128,90.208 185.688 L 93.440 188.160 81.920 188.710 C 73.656 189.104,68.712 189.791,64.427 191.141 C 36.120 200.061,17.739 223.614,16.436 252.637 C 15.522 272.976,21.297 288.312,35.323 302.794 C 48.943 316.857,64.324 323.364,84.053 323.410 L 93.440 323.432 89.029 327.476 C 79.697 336.033,73.029 346.536,69.128 358.827 C 66.250 367.893,65.814 382.957,68.147 392.712 C 74.108 417.635,92.391 436.627,116.956 443.414 C 120.954 444.518,125.596 444.937,133.973 444.948 C 147.103 444.966,154.421 443.360,164.629 438.219 C 171.417 434.800,182.128 426.446,185.688 421.792 L 188.160 418.560 188.681 430.080 C 189.096 439.263,189.659 442.985,191.456 448.427 C 198.859 470.846,214.291 486.089,236.800 493.215 C 245.193 495.872,260.079 496.498,269.497 494.590 C 282.563 491.942,292.618 486.533,302.794 476.677 C 316.857 463.057,323.364 447.676,323.410 427.947 L 323.432 418.560 327.476 422.971 C 336.370 432.671,347.347 439.482,359.858 443.062 C 368.610 445.566,386.604 445.746,395.044 443.414 C 419.609 436.627,437.892 417.635,443.853 392.712 C 446.186 382.957,445.750 367.893,442.872 358.827 C 438.969 346.530,432.317 336.065,422.957 327.494 L 418.560 323.468 427.947 323.428 C 447.159 323.346,461.505 317.536,475.168 304.304 C 490.052 289.888,496.504 273.544,495.564 252.637 C 494.261 223.614,475.880 200.061,447.573 191.141 C 443.288 189.791,438.344 189.104,430.080 188.710 L 418.560 188.160 421.792 185.688 C 426.446 182.128,434.800 171.417,438.219 164.629 C 443.360 154.421,444.966 147.103,444.948 133.973 C 444.926 117.792,441.707 107.210,433.163 95.237 C 419.386 75.930,397.938 65.589,374.203 66.809 C 355.937 67.748,340.070 75.293,327.476 89.029 L 323.432 93.440 323.410 84.053 C 323.362 63.717,316.613 48.324,301.573 34.253 C 293.797 26.977,283.067 20.773,273.920 18.263 C 268.390 16.746,249.636 15.981,243.851 17.037 M267.492 50.076 C 276.128 53.083,284.345 60.559,288.196 68.912 C 293.381 80.160,292.441 94.890,283.567 141.383 C 279.970 160.226,280.166 162.607,285.776 168.217 C 292.994 175.435,304.457 174.289,310.228 165.773 C 340.218 121.519,352.117 107.021,362.406 102.200 C 379.364 94.254,398.939 100.122,408.161 115.915 C 412.202 122.835,413.285 127.534,412.865 136.315 C 411.992 154.572,403.054 163.352,346.227 201.777 C 334.832 209.481,337.535 226.550,350.777 230.518 C 353.889 231.450,356.081 231.219,370.631 228.423 C 391.466 224.420,405.801 222.163,417.937 220.975 C 434.675 219.337,444.636 222.131,453.439 230.934 C 461.370 238.865,464.962 249.789,463.361 261.111 C 461.236 276.146,449.061 288.390,433.526 291.118 C 424.654 292.676,403.864 290.156,367.998 283.176 C 355.880 280.818,353.698 280.607,350.704 281.504 C 337.531 285.451,334.869 302.531,346.227 310.228 C 390.481 340.218,404.979 352.117,409.800 362.406 C 415.976 375.588,413.957 390.679,404.613 401.183 C 397.599 409.066,388.950 412.986,378.353 413.084 C 367.708 413.182,360.023 410.089,352.491 402.675 C 344.315 394.628,331.757 378.050,314.766 352.876 C 311.290 347.725,307.196 342.670,305.670 341.641 C 297.061 335.839,284.569 340.474,281.537 350.595 C 280.600 353.722,280.653 355.368,281.891 361.667 C 285.810 381.599,289.321 402.853,290.558 414.145 C 292.725 433.917,290.715 442.583,281.673 452.459 C 268.148 467.232,245.192 467.758,231.099 453.618 C 222.118 444.608,219.327 434.773,220.975 417.937 C 222.163 405.801,224.420 391.466,228.423 370.631 C 231.279 355.769,231.465 353.939,230.464 350.599 C 228.225 343.123,219.990 337.931,212.404 339.213 C 207.211 340.090,203.935 342.923,198.073 351.606 C 167.692 396.605,156.958 408.498,143.446 412.137 C 138.378 413.501,128.476 413.305,123.379 411.739 C 107.104 406.738,96.577 389.954,98.993 372.859 C 101.295 356.575,111.488 347.016,165.773 310.228 C 174.289 304.457,175.435 292.994,168.217 285.776 C 162.780 280.339,160.074 280.049,144.002 283.176 C 108.357 290.113,87.327 292.674,78.617 291.140 C 58.661 287.625,45.906 270.191,48.725 250.283 C 49.767 242.929,53.070 236.429,58.572 230.908 C 67.349 222.102,77.252 219.330,94.063 220.975 C 106.199 222.163,120.534 224.420,141.369 228.423 C 160.201 232.042,162.595 231.846,168.217 226.224 C 175.435 219.006,174.288 207.534,165.773 201.777 C 108.946 163.352,100.008 154.572,99.135 136.315 C 98.709 127.422,99.808 122.654,103.843 115.879 C 113.275 100.045,132.639 94.256,149.594 102.200 C 159.883 107.021,171.782 121.519,201.772 165.773 C 207.543 174.289,219.006 175.435,226.224 168.217 C 231.846 162.595,232.042 160.201,228.423 141.369 C 219.365 94.225,218.504 78.973,224.253 67.528 C 227.223 61.615,234.038 54.825,240.018 51.820 C 247.796 47.913,259.200 47.189,267.492 50.076 M247.353 176.690 C 237.556 177.751,230.873 179.710,221.440 184.288 C 198.834 195.259,184.310 213.302,178.139 238.080 C 175.624 248.181,175.624 263.819,178.139 273.920 C 182.032 289.549,188.645 301.379,199.633 312.367 C 215.206 327.939,233.901 335.667,256.000 335.667 C 278.099 335.667,296.794 327.939,312.367 312.367 C 327.939 296.794,335.667 278.099,335.667 256.000 C 335.667 222.105,315.895 193.631,283.591 181.004 C 274.176 177.324,258.608 175.471,247.353 176.690 M267.867 209.527 C 275.932 211.428,282.951 215.529,289.711 222.289 C 299.399 231.977,303.761 242.444,303.761 256.000 C 303.761 269.556,299.399 280.023,289.711 289.711 C 279.981 299.442,269.574 303.787,256.000 303.787 C 242.426 303.787,232.019 299.442,222.289 289.711 C 212.601 280.023,208.239 269.556,208.239 256.000 C 208.239 242.444,212.601 231.977,222.289 222.289 C 228.907 215.671,236.067 211.425,243.741 209.567 C 250.399 207.956,261.125 207.938,267.867 209.527 " stroke="none" fill-rule="evenodd" fill="black"></path></svg>