<svg xmlns="http://www.w3.org/2000/svg" width="512" height="512" viewBox="0 0 512 512"><path d="M242.347 17.488 C 227.698 20.430,213.186 29.192,203.471 40.960 C 198.421 47.078,192.421 59.274,190.285 67.763 C 189.098 72.483,188.587 77.359,188.587 83.973 L 188.587 93.434 184.102 88.743 C 174.807 79.022,164.756 72.695,152.747 69.006 C 147.357 67.350,144.461 67.041,134.400 67.045 C 127.403 67.048,120.862 67.496,118.613 68.126 C 93.457 75.175,75.339 93.158,68.607 117.760 C 66.554 125.264,66.455 142.610,68.423 149.760 C 72.204 163.490,78.076 173.756,87.410 182.953 L 92.905 188.368 81.653 188.805 C 73.309 189.129,68.856 189.734,64.427 191.146 C 41.886 198.329,25.703 214.616,18.639 237.227 C 16.929 242.703,16.640 245.413,16.640 256.000 C 16.640 266.595,16.927 269.288,18.638 274.737 C 24.554 293.575,37.297 308.622,54.187 316.713 C 64.159 321.489,72.663 323.413,83.805 323.413 L 93.097 323.413 87.264 329.173 C 74.169 342.104,67.654 356.446,66.793 374.231 C 65.462 401.749,79.419 425.855,103.754 438.068 C 114.301 443.361,121.639 444.980,134.827 444.923 C 144.995 444.879,147.198 444.598,153.600 442.522 C 166.106 438.468,174.769 433.023,184.006 423.411 L 188.385 418.854 188.762 430.227 C 189.091 440.158,189.480 442.597,191.825 449.468 C 199.225 471.149,215.027 486.425,237.227 493.361 C 242.703 495.071,245.413 495.360,256.000 495.360 C 266.587 495.360,269.297 495.071,274.773 493.361 C 293.414 487.537,308.669 474.607,316.713 457.813 C 321.491 447.838,323.408 439.352,323.442 428.023 L 323.471 418.560 326.017 421.675 C 329.441 425.865,338.962 433.524,344.823 436.805 C 370.373 451.106,402.492 447.213,423.860 427.225 C 434.188 417.563,440.525 406.624,443.853 392.712 C 445.324 386.559,445.556 383.517,445.199 375.040 C 444.418 356.466,438.261 342.674,424.805 329.351 L 418.809 323.413 427.644 323.399 C 447.489 323.365,461.614 317.479,475.733 303.360 C 489.783 289.310,495.754 275.062,495.759 255.573 C 495.767 225.531,477.087 200.555,447.573 191.146 C 443.146 189.735,438.694 189.129,430.373 188.806 L 419.145 188.369 424.886 182.629 C 431.871 175.644,436.702 168.565,440.144 160.272 C 456.556 120.733,432.870 76.308,390.836 67.791 C 381.468 65.892,367.435 66.481,358.827 69.133 C 347.202 72.713,332.289 82.396,326.260 90.277 L 323.840 93.440 323.290 81.920 C 322.663 68.768,321.023 62.408,315.518 51.772 C 309.053 39.284,294.783 26.449,281.409 21.095 C 269.746 16.426,254.597 15.027,242.347 17.488 M272.352 172.728 C 289.375 176.012,303.268 183.587,316.160 196.615 C 329.093 209.683,336.915 224.689,339.645 241.667 C 341.338 252.200,340.347 270.046,337.548 279.423 C 328.458 309.880,303.639 332.886,273.096 339.168 C 257.875 342.298,244.480 341.470,229.293 336.459 C 216.064 332.094,207.042 326.491,196.609 316.160 C 179.344 299.063,171.520 280.302,171.520 256.000 C 171.520 231.979,179.324 213.062,196.193 196.193 C 208.561 183.825,222.703 176.085,238.933 172.802 C 246.469 171.278,264.626 171.238,272.352 172.728 M244.907 214.552 C 234.882 217.337,225.081 224.501,219.727 232.960 C 211.128 246.545,211.096 265.406,219.649 278.917 C 222.655 283.666,228.334 289.345,233.083 292.351 C 246.540 300.869,265.460 300.869,278.917 292.351 C 283.666 289.345,289.345 283.666,292.351 278.917 C 300.904 265.406,300.872 246.545,292.273 232.960 C 286.806 224.322,276.993 217.244,266.667 214.491 C 261.408 213.089,250.061 213.121,244.907 214.552 " stroke="none" fill-rule="evenodd" fill="black"></path></svg>