<svg xmlns="http://www.w3.org/2000/svg" width="512" height="512" viewBox="0 0 512 512"><path d="M240.951 17.488 C 225.306 20.890,209.982 31.213,200.749 44.568 C 193.819 54.592,190.231 64.157,188.637 76.849 C 187.417 86.565,184.290 87.772,176.634 81.482 C 165.932 72.689,152.349 67.557,137.797 66.809 C 117.399 65.761,100.619 72.310,86.114 86.980 C 76.295 96.911,70.331 108.343,67.670 122.334 C 66.124 130.461,66.596 143.403,68.733 151.467 C 70.701 158.892,76.025 169.474,80.985 175.817 C 83.358 178.851,85.307 182.197,85.316 183.253 C 85.340 185.968,82.398 188.587,79.324 188.587 C 77.896 188.587,73.768 189.195,70.151 189.938 C 48.194 194.451,29.632 209.929,21.372 230.612 C 14.076 248.878,14.841 268.795,23.500 286.049 C 34.069 307.109,52.410 319.838,77.256 323.357 C 86.546 324.672,87.663 327.844,81.482 335.366 C 72.781 345.956,67.519 359.735,66.796 373.823 C 65.746 394.266,72.237 411.220,86.561 425.455 C 105.107 443.884,130.299 449.898,155.307 441.865 C 163.218 439.323,168.514 436.539,175.455 431.272 C 184.673 424.277,187.374 425.087,188.646 435.230 C 191.727 459.795,207.301 480.877,229.166 490.080 C 238.808 494.138,244.628 495.267,256.000 495.283 C 268.207 495.301,275.998 493.544,286.022 488.514 C 307.111 477.930,319.836 459.603,323.357 434.744 C 324.674 425.438,327.861 424.328,335.366 430.558 C 340.996 435.231,353.336 441.397,360.912 443.322 C 383.124 448.966,407.199 442.810,423.860 427.225 C 449.922 402.845,452.748 363.757,430.495 335.434 C 424.221 327.448,425.408 324.575,435.498 323.323 C 459.198 320.380,479.779 305.444,489.882 283.855 C 494.435 274.124,496.030 265.662,495.599 253.512 C 495.269 244.206,494.840 241.654,492.384 234.383 C 483.949 209.403,461.386 191.251,435.817 188.875 C 425.335 187.901,424.253 184.704,431.273 175.455 C 436.952 167.973,440.566 160.841,443.082 152.149 C 444.687 146.603,445.001 143.502,444.964 133.547 C 444.924 122.523,444.716 120.988,442.275 113.681 C 434.313 89.841,415.088 72.680,390.866 67.791 C 382.417 66.086,368.780 66.466,360.533 68.636 C 353.342 70.528,340.915 76.857,335.366 81.452 C 327.590 87.891,324.578 86.615,323.303 76.341 C 319.682 47.179,298.356 23.321,270.663 17.452 C 263.584 15.951,247.928 15.970,240.951 17.488 M276.231 178.804 C 284.187 180.815,294.924 185.691,302.029 190.519 C 307.039 193.923,318.077 204.961,321.481 209.971 C 326.326 217.101,331.186 227.821,333.371 236.196 C 336.321 247.507,336.480 263.122,333.759 274.295 C 320.927 326.996,261.199 352.264,214.875 324.591 C 207.372 320.108,194.913 308.578,190.498 302.029 C 185.641 294.824,180.805 284.143,178.624 275.804 C 175.525 263.949,175.525 248.050,178.625 236.192 C 188.353 198.987,222.084 174.271,260.267 176.372 C 264.725 176.617,271.909 177.712,276.231 178.804 M246.187 209.027 C 224.018 213.831,208.213 233.382,208.213 256.000 C 208.213 269.119,212.883 280.300,222.291 289.709 C 241.253 308.671,270.747 308.671,289.709 289.709 C 314.540 264.878,305.482 223.605,272.452 211.083 C 266.094 208.672,252.673 207.621,246.187 209.027 " stroke="none" fill-rule="evenodd" fill="black"></path></svg>