<svg xmlns="http://www.w3.org/2000/svg" width="512" height="512" viewBox="0 0 512 512"><path d="M96.000 64.572 C 77.976 67.127,61.128 79.794,53.355 96.637 C 49.079 105.903,47.787 113.667,47.787 130.097 L 47.787 144.213 256.110 144.213 L 464.434 144.213 463.857 139.111 C 461.684 119.907,449.770 105.994,429.653 99.170 L 422.827 96.855 334.933 96.427 C 247.762 96.004,247.008 95.985,243.148 94.199 C 241.008 93.209,232.344 87.780,223.895 82.135 C 195.568 63.208,201.455 64.529,144.640 64.352 C 119.296 64.273,97.408 64.372,96.000 64.572 M59.733 176.323 C 47.203 178.199,38.736 182.188,30.589 190.053 C 21.304 199.017,16.264 210.774,16.219 223.573 C 16.193 231.135,32.057 394.708,33.623 403.023 C 36.697 419.342,48.296 434.567,63.147 441.777 C 76.949 448.478,62.124 448.000,256.000 448.000 C 449.876 448.000,435.051 448.478,448.853 441.777 C 463.704 434.566,475.303 419.341,478.376 403.023 C 480.041 394.184,495.800 231.775,495.793 223.539 C 495.774 203.375,483.024 185.730,463.257 178.513 L 456.960 176.213 259.413 176.108 C 150.763 176.050,60.907 176.147,59.733 176.323 " stroke="none" fill-rule="evenodd" fill="black"></path></svg>