<svg xmlns="http://www.w3.org/2000/svg" width="512" height="512" viewBox="0 0 512 512"><path d="M63.573 64.569 C 58.327 65.319,51.449 67.659,45.653 70.666 C 37.054 75.127,26.145 86.212,21.979 94.720 C 15.854 107.230,16.239 96.417,16.239 256.000 C 16.239 415.403,15.867 404.844,21.904 417.079 C 25.469 424.306,33.870 433.807,40.883 438.544 C 46.646 442.437,54.954 445.824,61.810 447.076 C 68.938 448.377,443.062 448.377,450.190 447.076 C 457.046 445.824,465.354 442.437,471.117 438.544 C 478.130 433.807,486.531 424.306,490.096 417.079 C 496.103 404.905,495.760 413.649,495.774 272.137 C 495.786 148.696,495.732 144.273,494.136 138.032 C 490.167 122.512,479.262 109.100,464.640 101.754 C 454.380 96.599,462.696 96.936,333.653 96.449 L 214.613 96.000 210.270 93.757 C 207.881 92.524,199.528 87.237,191.707 82.009 C 176.474 71.827,170.414 68.457,162.987 66.038 C 158.738 64.654,153.931 64.495,112.213 64.356 C 86.869 64.272,64.981 64.368,63.573 64.569 M156.160 97.579 C 157.803 98.171,166.159 103.347,174.729 109.079 C 191.204 120.099,197.177 123.459,204.800 125.995 C 209.231 127.469,216.117 127.581,328.107 127.992 L 446.720 128.427 450.324 130.352 C 455.244 132.981,459.811 137.733,461.933 142.430 C 463.446 145.777,463.754 148.487,464.055 161.067 L 464.407 175.787 256.039 175.787 L 47.671 175.787 47.942 145.280 C 48.207 115.537,48.262 114.667,50.177 110.507 C 52.745 104.927,56.596 100.960,61.867 98.464 L 66.133 96.443 109.653 96.472 C 142.491 96.494,153.906 96.766,156.160 97.579 M464.022 302.720 L 463.787 397.227 461.770 401.687 C 459.288 407.177,453.966 412.218,448.377 414.374 C 444.275 415.956,439.015 416.000,256.000 416.000 C 72.985 416.000,67.725 415.956,63.623 414.374 C 58.034 412.218,52.712 407.177,50.230 401.687 L 48.213 397.227 47.978 302.720 L 47.744 208.213 256.000 208.213 L 464.256 208.213 464.022 302.720 " stroke="none" fill-rule="evenodd" fill="black"></path></svg>