<svg xmlns="http://www.w3.org/2000/svg" width="512" height="512" viewBox="0 0 512 512"><path d="M60.160 65.371 C 40.000 69.687,23.073 86.094,17.896 106.333 C 16.383 112.249,16.213 115.844,16.213 141.956 L 16.213 171.000 18.506 173.393 L 20.799 175.787 256.000 175.787 L 491.201 175.787 493.578 173.305 L 495.955 170.824 495.620 155.599 C 495.317 141.783,495.077 139.794,493.037 134.114 C 489.889 125.355,486.030 119.248,479.514 112.715 C 473.175 106.359,465.537 101.539,457.387 98.751 L 451.840 96.853 333.227 96.427 C 222.070 96.027,214.411 95.905,211.402 94.490 C 209.635 93.660,200.227 87.692,190.495 81.228 C 176.620 72.013,171.234 68.931,165.547 66.954 L 158.293 64.433 112.213 64.262 C 74.018 64.121,65.111 64.311,60.160 65.371 M18.839 210.423 L 16.213 212.632 16.213 305.859 C 16.213 395.853,16.272 399.315,17.896 405.667 C 20.537 415.992,24.897 423.507,32.805 431.364 C 40.168 438.679,46.037 442.293,55.893 445.581 L 61.867 447.573 256.000 447.573 L 450.133 447.573 456.107 445.581 C 465.963 442.293,471.832 438.679,479.195 431.364 C 487.103 423.507,491.463 415.992,494.104 405.667 C 495.728 399.315,495.787 395.853,495.787 305.859 L 495.787 212.632 493.161 210.423 L 490.536 208.213 256.000 208.213 L 21.464 208.213 18.839 210.423 " stroke="none" fill-rule="evenodd" fill="black"></path></svg>