<svg xmlns="http://www.w3.org/2000/svg" width="512" height="512" viewBox="0 0 512 512"><path d="M69.547 64.794 C 61.528 66.734,54.869 72.205,51.023 80.015 L 48.213 85.718 47.958 114.966 L 47.703 144.213 256.048 144.213 L 464.392 144.213 464.071 130.773 C 463.776 118.465,463.563 116.938,461.542 112.640 C 458.927 107.077,453.502 101.504,448.073 98.802 L 444.160 96.853 344.320 96.427 L 244.480 96.000 220.589 80.000 L 196.698 64.000 134.402 64.087 C 100.140 64.135,70.955 64.453,69.547 64.794 M24.288 176.694 C 20.011 177.938,16.878 181.914,16.463 186.627 C 16.177 189.863,42.762 412.476,44.925 424.960 C 46.380 433.360,53.170 441.976,61.290 445.729 L 65.280 447.573 256.000 447.573 L 446.720 447.573 451.534 445.209 C 457.164 442.445,462.804 436.673,465.224 431.202 C 466.587 428.122,469.892 403.233,481.392 309.452 C 489.675 241.898,495.712 189.653,495.531 187.074 C 495.159 181.761,492.191 177.998,487.302 176.639 C 483.426 175.563,27.993 175.617,24.288 176.694 " stroke="none" fill-rule="evenodd" fill="black"></path></svg>