<svg xmlns="http://www.w3.org/2000/svg" width="512" height="512" viewBox="0 0 512 512"><path d="M91.809 65.403 C 72.815 69.475,56.890 83.924,50.561 102.827 L 48.276 109.653 47.929 144.213 L 47.583 178.773 41.696 181.681 C 37.398 183.804,34.145 186.339,29.638 191.074 C 20.327 200.860,16.213 210.718,16.213 223.248 C 16.213 226.627,19.478 262.650,23.468 303.300 C 27.458 343.951,31.294 383.168,31.992 390.451 C 33.508 406.284,35.878 414.282,41.526 422.634 C 49.659 434.658,63.089 443.941,76.373 446.721 C 85.359 448.601,426.641 448.601,435.627 446.721 C 457.220 442.203,475.370 423.121,478.747 401.387 C 480.301 391.385,495.787 229.772,495.787 223.556 C 495.787 210.561,491.843 201.016,482.364 191.068 C 477.815 186.293,474.629 183.824,470.255 181.681 L 464.320 178.773 464.267 163.164 C 464.202 144.338,462.985 137.246,458.093 127.202 C 451.909 114.504,438.593 102.942,424.960 98.435 C 420.585 96.989,414.394 96.854,333.653 96.442 C 247.967 96.005,246.999 95.981,243.200 94.211 C 241.088 93.227,231.817 87.428,222.598 81.325 C 213.380 75.222,203.372 69.241,200.358 68.035 C 191.352 64.430,184.698 63.995,139.672 64.070 C 106.027 64.125,96.537 64.390,91.809 65.403 M189.013 98.017 C 190.891 98.871,199.531 104.298,208.213 110.076 C 223.833 120.471,231.090 124.428,238.237 126.446 C 240.969 127.217,264.182 127.607,328.107 127.956 L 414.293 128.427 418.133 130.421 C 423.039 132.969,427.174 136.896,429.513 141.227 C 431.172 144.300,431.384 146.192,431.639 160.213 L 431.922 175.787 256.068 175.787 L 80.213 175.787 80.213 145.466 C 80.213 112.711,80.226 112.603,85.015 105.668 C 87.299 102.360,92.700 98.351,96.370 97.238 C 97.574 96.872,118.144 96.549,142.080 96.519 C 182.415 96.468,185.850 96.578,189.013 98.017 M454.227 209.366 C 457.831 210.872,462.193 215.900,463.265 219.785 C 463.928 222.185,462.425 240.147,456.499 300.662 C 452.309 343.447,448.460 382.869,447.947 388.267 C 447.409 393.911,446.357 399.575,445.469 401.598 C 443.204 406.760,438.358 411.679,433.273 413.978 L 428.800 416.000 256.000 416.000 L 83.200 416.000 78.727 413.978 C 73.645 411.681,68.800 406.765,66.526 401.598 C 65.507 399.284,64.508 393.116,63.606 383.573 C 62.851 375.595,58.983 335.936,55.008 295.444 C 48.191 225.983,47.858 221.642,49.110 218.644 C 50.757 214.701,54.233 210.926,57.600 209.423 C 61.429 207.714,450.140 207.658,454.227 209.366 " stroke="none" fill-rule="evenodd" fill="black"></path></svg>