<svg xmlns="http://www.w3.org/2000/svg" width="512" height="512" viewBox="0 0 512 512"><path d="M241.920 48.669 C 177.359 52.784,118.768 87.102,81.958 142.362 C 55.666 181.831,43.309 234.683,49.503 281.173 C 55.829 328.652,75.879 369.527,109.176 402.824 C 142.702 436.350,182.619 455.851,231.680 462.670 C 235.904 463.257,246.848 463.738,256.000 463.738 C 265.152 463.738,276.096 463.257,280.320 462.670 C 329.321 455.859,369.272 436.331,402.802 402.802 C 436.331 369.272,455.859 329.321,462.670 280.320 C 464.046 270.420,464.046 241.580,462.670 231.680 C 455.892 182.914,436.342 142.776,403.220 109.623 C 391.401 97.792,382.569 90.546,369.558 82.006 C 331.997 57.351,287.606 45.757,241.920 48.669 M214.189 108.898 C 226.625 117.166,237.463 124.750,238.274 125.752 C 239.576 127.360,239.748 129.868,239.741 147.200 C 239.734 162.527,239.475 167.166,238.559 168.375 C 237.913 169.226,224.389 180.839,208.506 194.180 C 189.207 210.390,178.777 218.598,177.067 218.923 C 175.089 219.299,170.819 217.839,158.293 212.507 C 149.376 208.711,141.385 204.910,140.536 204.061 C 138.631 202.157,120.320 150.275,120.320 146.782 C 120.320 140.938,141.012 121.108,160.096 108.662 C 169.980 102.217,186.480 93.867,189.335 93.867 C 190.817 93.867,199.253 98.969,214.189 108.898 M330.677 96.777 C 350.529 105.949,373.283 122.882,386.693 138.463 C 390.336 142.696,391.680 144.935,391.680 146.774 C 391.680 149.932,373.374 202.016,371.559 204.021 C 369.480 206.318,339.673 218.749,336.126 218.798 C 333.328 218.837,330.541 216.739,305.052 195.401 C 289.652 182.509,275.964 170.872,274.633 169.542 L 272.213 167.122 272.232 147.348 C 272.249 129.902,272.425 127.359,273.726 125.752 C 276.166 122.737,320.238 93.867,322.400 93.867 C 323.488 93.867,327.213 95.176,330.677 96.777 M147.937 242.812 C 156.933 246.554,164.169 250.091,165.218 251.258 C 167.889 254.231,182.909 315.699,181.725 318.812 C 180.263 322.658,164.664 348.775,162.848 350.419 C 161.229 351.884,159.225 352.000,135.493 352.000 L 109.885 352.000 106.939 348.592 C 102.643 343.622,93.645 324.739,89.250 311.467 C 84.962 298.521,81.354 281.409,82.201 278.036 C 82.586 276.501,89.686 269.863,104.989 256.730 C 126.367 238.383,128.722 236.566,131.297 236.433 C 131.936 236.400,139.424 239.271,147.937 242.812 M385.378 238.270 C 392.804 243.991,429.097 275.765,429.548 276.940 C 430.422 279.216,430.172 282.098,428.310 291.249 C 424.432 310.313,412.262 340.262,404.963 348.705 L 402.115 352.000 376.507 352.000 C 352.687 352.000,350.776 351.889,349.135 350.404 C 347.456 348.884,331.056 321.235,329.953 318.064 C 329.664 317.233,332.914 302.328,337.176 284.942 C 342.974 261.283,345.385 252.815,346.755 251.284 C 348.837 248.959,377.218 236.542,380.685 236.439 C 381.912 236.403,384.024 237.227,385.378 238.270 M303.202 338.133 C 304.341 339.189,308.778 346.125,313.063 353.545 C 318.710 363.325,320.853 367.835,320.853 369.939 C 320.853 372.779,302.546 420.686,299.942 424.660 C 297.614 428.213,282.395 430.942,261.499 431.554 C 241.768 432.132,218.969 429.584,213.648 426.207 C 211.353 424.751,191.147 374.186,191.147 369.900 C 191.147 367.845,193.347 363.227,198.937 353.545 C 203.222 346.125,207.659 339.189,208.798 338.133 L 210.869 336.213 256.000 336.213 L 301.131 336.213 303.202 338.133 " stroke="none" fill-rule="evenodd" fill="black"></path></svg>