<svg xmlns="http://www.w3.org/2000/svg" width="512" height="512" viewBox="0 0 512 512"><path d="M241.493 48.673 C 223.057 49.861,199.426 54.906,183.040 61.152 C 173.330 64.854,153.748 74.582,145.568 79.766 C 93.283 112.906,59.251 165.517,49.785 227.840 C 47.724 241.414,47.724 270.586,49.785 284.160 C 59.315 346.901,93.568 399.555,146.493 432.819 C 169.436 447.239,198.581 457.771,227.840 462.215 C 241.414 464.276,270.586 464.276,284.160 462.215 C 328.954 455.411,368.033 436.480,399.471 406.355 C 433.620 373.633,454.928 332.133,462.215 284.160 C 464.276 270.586,464.276 241.414,462.215 227.840 C 452.756 165.564,418.651 112.842,366.432 79.770 C 358.102 74.495,340.300 65.578,330.240 61.642 C 313.011 54.903,289.895 50.007,268.800 48.630 C 255.361 47.752,255.811 47.752,241.493 48.673 M278.531 81.652 C 279.724 82.320,277.820 83.905,267.994 90.422 L 256.000 98.377 244.041 90.445 C 237.464 86.083,232.310 82.286,232.587 82.008 C 234.327 80.269,275.489 79.950,278.531 81.652 M215.352 109.653 L 239.744 125.867 239.765 146.888 L 239.787 167.909 208.911 193.821 C 191.930 208.073,177.732 219.858,177.360 220.010 C 176.511 220.358,141.569 205.688,140.273 204.439 C 139.175 203.382,119.467 147.577,119.467 145.526 C 119.467 144.780,124.555 139.048,130.773 132.789 C 141.759 121.731,152.011 113.480,164.267 105.831 C 171.485 101.326,188.631 92.921,189.986 93.223 C 190.522 93.342,201.936 100.736,215.352 109.653 M334.129 98.503 C 346.735 104.770,356.240 110.899,367.576 120.073 C 376.202 127.054,392.533 143.774,392.533 145.624 C 392.533 147.530,372.751 203.443,371.723 204.444 C 370.476 205.657,335.432 220.342,334.603 219.998 C 334.252 219.852,320.070 208.073,303.089 193.821 L 272.213 167.909 272.237 146.888 L 272.260 125.867 296.770 109.498 C 310.251 100.495,321.686 93.103,322.182 93.071 C 322.678 93.039,328.054 95.484,334.129 98.503 M103.147 196.872 L 108.260 211.556 96.157 221.983 C 89.500 227.718,83.432 232.931,82.673 233.568 C 81.405 234.632,81.390 234.124,82.485 227.287 C 84.722 213.316,88.700 199.747,94.779 185.346 C 95.829 182.860,96.990 181.132,97.360 181.506 C 97.730 181.881,100.334 188.795,103.147 196.872 M419.947 192.165 C 423.929 202.211,427.781 216.329,429.514 227.230 C 430.610 234.120,430.595 234.632,429.327 233.563 C 428.568 232.924,422.496 227.724,415.833 222.008 L 403.719 211.615 408.813 197.001 C 411.614 188.963,414.142 182.005,414.431 181.537 C 415.128 180.410,415.801 181.707,419.947 192.165 M284.171 219.733 C 299.250 232.405,312.155 243.213,312.849 243.751 C 313.940 244.598,313.241 248.267,307.651 271.031 C 304.098 285.498,300.801 298.785,300.323 300.560 L 299.454 303.787 256.000 303.787 L 212.546 303.787 211.686 300.587 C 211.213 298.827,207.915 285.570,204.357 271.127 L 197.889 244.868 200.624 242.540 C 223.875 222.756,255.708 196.376,256.164 196.514 C 256.489 196.613,269.092 207.061,284.171 219.733 M148.166 242.934 C 160.742 248.243,165.943 250.848,166.481 252.107 C 166.894 253.075,170.730 268.193,175.006 285.704 L 182.780 317.541 177.018 327.517 C 173.848 333.004,169.299 340.757,166.908 344.747 L 162.560 352.000 135.907 352.225 L 109.255 352.451 106.706 348.933 C 103.202 344.095,95.584 328.923,91.750 319.147 C 88.016 309.624,84.164 295.323,82.480 284.732 L 81.281 277.198 89.921 269.701 C 122.018 241.848,129.355 235.588,129.941 235.556 C 130.305 235.536,138.506 238.856,148.166 242.934 M403.499 253.575 C 415.068 263.505,425.917 272.935,427.607 274.531 L 430.681 277.433 429.502 284.850 C 427.773 295.721,423.915 309.821,419.882 320.009 C 416.031 329.738,408.146 345.219,404.778 349.665 L 402.668 352.451 376.054 352.225 L 349.440 352.000 345.092 344.747 C 342.701 340.757,338.152 333.005,334.983 327.518 L 329.221 317.543 337.101 285.278 C 341.436 267.533,345.292 252.405,345.672 251.662 C 346.250 250.529,379.529 235.670,381.739 235.557 C 382.138 235.537,391.930 243.645,403.499 253.575 M312.368 352.427 C 317.465 361.109,321.651 368.779,321.671 369.470 C 321.711 370.866,300.564 424.986,299.553 426.073 C 297.268 428.532,272.455 431.787,256.000 431.787 C 239.528 431.787,214.608 428.515,212.489 426.073 C 211.588 425.035,190.293 370.820,190.293 369.564 C 190.293 368.963,192.349 364.957,194.861 360.662 C 197.373 356.367,201.622 349.106,204.302 344.526 L 209.175 336.199 256.139 336.419 L 303.102 336.640 312.368 352.427 M166.294 396.952 C 169.157 404.076,171.399 410.006,171.275 410.130 C 170.307 411.098,147.642 395.168,139.093 387.512 L 135.253 384.073 148.171 384.036 L 161.088 384.000 166.294 396.952 M372.907 387.512 C 364.817 394.757,355.307 401.638,343.660 408.672 L 340.440 410.617 342.064 406.482 C 342.957 404.207,345.299 398.219,347.269 393.173 L 350.849 384.000 363.798 384.036 L 376.747 384.073 372.907 387.512 " stroke="none" fill="black" fill-rule="evenodd"></path></svg>