<svg xmlns="http://www.w3.org/2000/svg" width="512" height="512" viewBox="0 0 512 512"><path d="M241.920 48.669 C 177.359 52.784,118.768 87.102,81.958 142.362 C 55.666 181.831,43.309 234.683,49.503 281.173 C 55.829 328.652,75.879 369.527,109.176 402.824 C 142.702 436.350,182.619 455.851,231.680 462.670 C 235.904 463.257,246.848 463.738,256.000 463.738 C 265.152 463.738,276.096 463.257,280.320 462.670 C 329.321 455.859,369.272 436.331,402.802 402.802 C 436.331 369.272,455.859 329.321,462.670 280.320 C 464.046 270.420,464.046 241.580,462.670 231.680 C 455.892 182.914,436.342 142.776,403.220 109.623 C 391.401 97.792,382.569 90.546,369.558 82.006 C 331.997 57.351,287.606 45.757,241.920 48.669 M212.919 117.768 L 234.667 132.283 234.667 150.008 L 234.667 167.734 206.799 191.102 C 191.472 203.955,178.464 214.471,177.892 214.471 C 177.320 214.471,170.167 211.644,161.995 208.189 L 147.137 201.908 137.878 175.540 L 128.618 149.172 137.482 140.219 C 151.691 125.869,164.309 116.618,181.617 107.860 C 186.624 105.327,190.822 103.255,190.946 103.254 C 191.070 103.254,200.958 109.785,212.919 117.768 M330.473 107.906 C 340.957 113.210,352.453 120.688,361.291 127.950 C 369.717 134.874,383.424 149.076,382.943 150.384 C 382.725 150.980,378.565 162.819,373.701 176.694 L 364.856 201.921 349.294 208.484 L 333.731 215.048 305.532 191.413 L 277.333 167.779 277.333 150.031 L 277.333 132.283 298.880 117.823 C 310.731 109.870,320.619 103.338,320.853 103.309 C 321.088 103.279,325.417 105.348,330.473 107.906 M149.138 248.392 C 156.989 251.717,163.549 254.573,163.715 254.739 C 163.881 254.904,167.393 268.524,171.518 285.005 L 179.019 314.971 170.742 329.219 L 162.465 343.467 138.878 343.693 L 115.291 343.920 111.662 337.720 C 103.782 324.258,96.886 305.902,93.502 289.387 L 91.470 279.467 93.323 277.551 C 96.506 274.261,133.511 242.433,134.205 242.389 C 134.567 242.366,141.287 245.067,149.138 248.392 M399.547 260.724 L 420.371 278.675 419.357 284.617 C 416.269 302.735,408.785 323.254,399.367 339.427 L 396.750 343.920 373.150 343.693 L 349.550 343.467 341.256 329.257 L 332.962 315.048 340.472 285.044 C 344.603 268.541,348.138 254.885,348.327 254.696 C 349.213 253.809,376.866 242.423,377.735 242.587 C 378.279 242.690,388.094 250.851,399.547 260.724 M306.378 352.853 C 310.536 359.893,313.958 366.203,313.982 366.875 C 314.046 368.617,295.348 415.802,294.131 416.972 C 291.057 419.928,261.560 422.664,245.242 421.508 C 232.818 420.627,219.307 418.383,217.935 416.972 C 216.798 415.803,197.969 368.713,197.972 367.045 C 197.973 366.402,199.262 363.714,200.838 361.072 C 202.414 358.429,205.884 352.519,208.551 347.939 L 213.398 339.611 256.108 339.832 L 298.818 340.053 306.378 352.853 " stroke="none" fill-rule="evenodd" fill="black"></path></svg>