<svg id="icons" xmlns="http://www.w3.org/2000/svg" viewBox="0 0 512 512"><path d="M375.790 17.360 C 364.004 20.380,350.549 29.401,340.777 40.834 C 318.640 66.734,302.108 107.502,295.568 152.320 C 293.711 165.046,293.487 190.434,295.151 199.680 C 301.789 236.574,324.718 258.306,363.108 264.093 C 404.491 270.330,434.852 251.594,450.126 210.393 C 459.008 186.436,463.700 157.996,463.719 128.000 C 463.732 108.331,462.610 98.497,458.582 82.971 C 450.155 50.483,430.722 27.081,405.476 19.017 C 397.430 16.447,382.584 15.618,375.790 17.360 M117.313 112.585 C 94.201 116.221,74.007 132.052,61.937 155.998 C 56.450 166.883,51.781 182.972,49.385 199.253 C 47.763 210.271,47.992 240.023,49.805 253.867 C 57.715 314.272,76.258 346.197,110.080 357.643 C 117.368 360.109,119.446 360.425,130.662 360.775 C 150.205 361.385,164.629 358.272,180.474 350.022 C 190.313 344.899,201.711 333.868,207.099 324.253 C 220.807 299.793,221.943 263.021,210.378 218.153 C 196.175 163.054,168.044 122.472,138.204 114.034 C 132.310 112.367,122.864 111.712,117.313 112.585 M299.677 271.780 C 286.929 275.379,278.400 285.115,274.254 300.800 C 273.006 305.524,272.682 309.808,272.708 321.280 C 272.737 334.288,272.978 336.668,275.038 344.320 C 286.035 385.169,319.937 407.527,355.840 397.608 C 385.743 389.347,408.524 362.247,412.113 330.666 C 413.770 316.079,409.678 303.662,400.426 295.206 C 392.219 287.706,382.408 283.988,359.018 279.515 C 352.811 278.328,341.973 275.992,334.933 274.325 C 319.577 270.689,306.807 269.767,299.677 271.780 M190.293 367.486 C 189.120 367.708,182.400 369.202,175.360 370.807 C 168.320 372.413,156.663 374.890,149.455 376.313 C 118.980 382.328,107.369 389.757,101.578 406.946 C 98.010 417.539,99.991 436.173,106.162 450.062 C 111.967 463.127,123.349 476.311,135.894 484.500 C 157.073 498.326,183.522 499.489,203.860 487.489 C 215.920 480.373,227.474 466.107,233.398 451.020 C 238.266 438.617,239.362 432.243,239.344 416.427 C 239.329 404.338,239.051 401.385,237.375 395.546 C 233.718 382.807,227.354 374.420,217.854 369.820 C 213.367 367.647,211.954 367.408,202.667 367.254 C 197.035 367.160,191.467 367.265,190.293 367.486 " stroke="none" fill-rule="evenodd" fill="black"></path></svg>