<svg id="icons" xmlns="http://www.w3.org/2000/svg" viewBox="0 0 512 512"><path d="M375.725 17.049 C 356.540 21.155,337.299 37.938,321.896 64.000 C 312.408 80.054,303.251 103.222,297.948 124.587 C 292.566 146.274,288.287 178.190,288.223 197.120 C 288.138 222.504,292.703 233.269,307.385 242.309 C 318.612 249.223,341.102 255.559,374.356 261.179 C 413.148 267.734,426.135 262.558,439.812 235.093 C 449.652 215.331,458.302 184.260,462.236 154.546 C 464.442 137.878,464.204 111.043,461.724 96.853 C 459.659 85.040,454.808 69.017,450.986 61.385 C 440.303 40.053,422.575 24.107,403.627 18.786 C 396.430 16.765,381.417 15.831,375.725 17.049 M118.187 112.689 C 71.663 119.800,43.646 169.339,48.486 235.930 C 50.962 269.996,60.007 306.209,72.218 330.944 C 80.906 348.542,88.967 356.055,102.161 358.851 C 105.343 359.525,110.251 360.082,113.067 360.087 C 127.372 360.116,176.436 350.370,192.580 344.293 C 204.530 339.795,214.665 332.096,218.350 324.716 C 223.117 315.171,224.921 300.634,223.561 282.706 C 222.446 268.011,219.011 243.366,216.248 230.249 C 206.763 185.210,185.888 144.886,162.393 126.215 C 148.253 114.979,133.247 110.387,118.187 112.689 M286.293 273.209 C 279.160 277.154,275.368 285.994,272.994 304.213 C 271.726 313.944,272.496 337.865,274.340 346.025 C 280.704 374.188,294.811 391.782,316.160 398.182 C 323.774 400.464,338.015 400.282,346.808 397.789 C 360.899 393.794,371.682 386.907,384.096 373.974 C 396.842 360.695,406.458 344.925,412.066 328.107 C 417.979 310.376,417.189 300.903,409.467 296.913 C 405.952 295.096,296.153 272.198,291.155 272.239 C 289.420 272.254,287.232 272.690,286.293 273.209 M163.437 379.272 C 133.412 385.541,107.413 391.100,105.662 391.625 C 97.407 394.098,94.714 400.248,96.774 411.921 C 98.433 421.328,100.853 428.147,106.715 439.937 C 120.941 468.549,143.650 488.689,168.217 494.480 C 175.143 496.113,187.474 496.124,194.342 494.505 C 222.324 487.907,239.771 458.299,239.783 417.390 C 239.791 392.872,234.943 374.755,227.141 370.147 C 222.094 367.166,219.921 367.477,163.437 379.272 " stroke="none" fill-rule="evenodd" fill="black"></path></svg>