<svg id="icons" xmlns="http://www.w3.org/2000/svg" viewBox="0 0 512 512"><path d="M376.249 17.512 C 344.505 25.220,316.119 65.404,301.214 123.733 C 291.982 159.863,291.374 192.673,299.499 216.264 C 306.641 237.001,322.604 252.291,344.940 259.789 C 371.410 268.674,398.829 266.602,417.590 254.296 C 424.462 249.790,434.641 239.468,439.122 232.463 C 458.669 201.906,468.845 140.526,461.573 97.054 C 458.595 79.255,451.393 60.329,442.755 47.604 C 438.314 41.062,429.105 31.844,422.827 27.657 C 408.277 17.952,390.439 14.067,376.249 17.512 M398.295 50.520 C 407.768 54.023,415.409 62.271,421.888 75.988 C 432.753 98.992,434.753 130.309,427.825 168.960 C 422.206 200.305,412.131 220.797,398.788 228.019 C 391.208 232.121,385.650 233.207,374.690 232.728 C 348.777 231.594,333.540 220.951,327.990 200.107 C 326.673 195.157,326.415 191.209,326.487 177.067 C 326.582 158.547,327.819 149.232,332.782 129.650 C 343.129 88.824,365.570 52.911,383.430 48.596 C 387.006 47.732,392.775 48.479,398.295 50.520 M115.507 113.031 C 107.793 114.451,104.108 115.651,97.707 118.831 C 55.437 139.829,38.294 200.591,53.470 275.627 C 63.608 325.747,84.033 352.611,117.373 359.673 C 125.124 361.315,141.974 361.307,151.568 359.656 C 185.948 353.741,206.899 335.191,215.007 303.487 C 221.726 277.217,217.372 235.303,203.958 197.120 C 190.045 157.517,169.728 129.044,147.158 117.516 C 138.375 113.030,125.462 111.200,115.507 113.031 M133.013 146.365 C 139.035 149.168,148.595 158.775,154.727 168.185 C 174.501 198.529,187.231 244.252,185.786 279.740 C 185.094 296.722,181.970 306.398,174.498 314.709 C 165.275 324.968,143.066 331.362,126.415 328.554 C 106.573 325.207,95.562 311.545,87.451 280.208 C 83.177 263.696,81.037 247.883,80.480 228.693 C 79.747 203.445,82.746 186.770,91.051 169.910 C 101.037 149.639,118.726 139.714,133.013 146.365 M300.906 271.398 C 285.742 275.219,276.032 287.730,272.980 307.379 C 271.572 316.440,272.484 335.873,274.698 344.013 C 281.265 368.148,297.005 387.630,316.260 395.454 C 328.875 400.580,341.285 401.265,355.540 397.623 C 387.086 389.563,412.160 357.252,412.160 324.660 C 412.160 304.426,402.753 292.216,381.518 284.889 C 378.894 283.983,369.451 281.742,360.533 279.908 C 351.616 278.074,339.136 275.362,332.800 273.882 C 320.389 270.981,306.769 269.921,300.906 271.398 M325.547 305.125 C 330.709 306.321,342.282 308.810,351.263 310.655 C 379.995 316.556,381.639 317.630,379.864 329.341 C 377.655 343.910,367.965 357.171,354.552 363.979 C 348.097 367.255,347.623 367.360,339.278 367.359 C 331.618 367.359,330.195 367.110,326.398 365.106 C 315.613 359.412,307.315 345.868,304.759 329.783 C 303.854 324.086,304.762 309.059,306.240 305.280 C 307.080 303.131,307.537 302.934,311.659 302.941 C 314.134 302.945,320.384 303.928,325.547 305.125 M179.200 369.941 C 172.395 371.532,161.643 373.837,155.307 375.063 C 139.407 378.139,131.020 380.321,125.013 382.945 C 107.932 390.408,99.840 402.271,99.840 419.849 C 99.840 440.163,107.857 458.706,123.264 474.027 C 132.343 483.055,140.980 488.479,152.747 492.540 C 160.423 495.189,161.487 495.336,172.800 495.315 C 183.461 495.294,185.481 495.045,191.573 493.001 C 213.538 485.631,229.975 466.500,237.441 439.616 C 238.977 434.087,239.267 430.674,239.305 417.707 C 239.344 404.211,239.115 401.536,237.420 395.671 C 234.052 384.015,229.806 377.504,222.343 372.551 C 212.380 365.938,199.624 365.167,179.200 369.941 M205.588 400.837 C 207.177 404.324,208.118 419.362,207.178 426.240 C 205.562 438.059,198.345 452.055,190.963 457.686 C 180.924 465.343,168.264 465.927,155.823 459.307 C 150.198 456.314,140.150 446.251,137.140 440.597 C 134.564 435.756,131.413 424.561,131.413 420.245 C 131.413 413.914,135.855 411.703,157.013 407.500 C 163.349 406.242,174.101 403.927,180.907 402.357 C 195.810 398.918,196.605 398.770,201.036 398.623 C 204.062 398.522,204.667 398.816,205.588 400.837 " fill="black" stroke="none" fill-rule="evenodd"></path></svg>