<svg xmlns="http://www.w3.org/2000/svg" width="512" height="512" viewBox="0 0 512 512"><path d="M40.731 48.672 C 31.436 50.235,23.678 56.065,19.449 64.663 C 16.902 69.841,16.640 71.093,16.641 78.067 C 16.641 84.595,16.979 86.471,18.871 90.453 C 20.487 93.855,44.620 122.515,106.531 194.560 L 191.961 293.973 191.985 355.413 C 192.000 393.828,192.330 418.009,192.866 419.937 C 194.068 424.264,197.804 429.538,201.816 432.570 C 204.402 434.525,215.644 438.584,248.320 449.361 C 272.021 457.178,292.798 463.761,294.491 463.990 C 298.783 464.569,306.410 462.159,310.683 458.873 C 312.661 457.351,315.470 453.995,316.926 451.413 L 319.573 446.720 319.821 370.347 L 320.070 293.973 405.489 194.560 C 467.496 122.394,491.518 93.860,493.134 90.453 C 495.022 86.473,495.360 84.591,495.360 78.062 C 495.360 71.082,495.098 69.832,492.551 64.658 C 488.160 55.739,480.655 50.280,470.498 48.616 C 464.374 47.613,46.702 47.667,40.731 48.672 " stroke="none" fill-rule="evenodd" fill="black"></path></svg>