<svg xmlns="http://www.w3.org/2000/svg" width="512" height="512" viewBox="0 0 512 512"><path d="M40.731 48.672 C 31.436 50.235,23.678 56.065,19.449 64.663 C 16.902 69.841,16.640 71.093,16.641 78.067 C 16.641 84.595,16.979 86.471,18.871 90.453 C 20.487 93.855,44.620 122.515,106.531 194.560 L 191.961 293.973 191.985 355.413 C 192.000 393.828,192.330 418.009,192.866 419.937 C 194.082 424.316,197.874 429.631,201.832 432.508 C 204.245 434.261,218.039 439.232,249.534 449.698 C 290.111 463.182,294.216 464.383,298.291 463.962 C 306.099 463.157,313.088 458.427,317.057 451.263 L 319.573 446.720 319.825 370.347 L 320.077 293.973 405.488 194.560 C 467.378 122.524,491.513 93.854,493.129 90.453 C 495.021 86.471,495.359 84.594,495.359 78.067 C 495.360 71.093,495.098 69.841,492.551 64.663 C 488.162 55.739,480.659 50.280,470.498 48.616 C 464.374 47.613,46.702 47.667,40.731 48.672 M460.248 81.280 C 459.889 81.867,423.534 124.358,379.460 175.705 C 335.386 227.052,297.682 271.081,295.673 273.547 C 293.664 276.013,291.116 280.274,290.010 283.016 L 288.000 288.000 287.750 358.187 C 287.612 396.789,287.228 428.373,286.896 428.373 C 286.565 428.373,272.390 423.739,255.398 418.075 L 224.502 407.776 224.251 347.888 L 224.000 288.000 221.990 283.016 C 220.884 280.274,218.211 275.858,216.050 273.202 C 213.889 270.546,176.184 226.517,132.261 175.360 C 88.338 124.203,52.108 81.867,51.750 81.280 C 51.230 80.428,92.301 80.213,256.000 80.213 C 419.700 80.213,460.769 80.428,460.248 81.280 " stroke="none" fill-rule="evenodd" fill="black"></path></svg>