<svg xmlns="http://www.w3.org/2000/svg" width="512" height="512" viewBox="0 0 512 512"><path d="M143.787 81.149 C 89.549 88.859,55.176 134.598,31.228 230.923 C 21.097 271.673,16.213 305.834,16.213 335.957 C 16.213 353.135,17.212 363.766,20.005 376.320 C 23.945 394.027,29.986 406.186,39.700 415.956 C 56.100 432.455,80.806 436.496,102.890 426.292 C 116.689 419.917,130.999 407.825,146.252 389.652 C 158.890 374.593,164.830 369.652,177.699 363.485 C 196.125 354.656,227.056 351.128,273.707 352.534 C 301.844 353.381,318.634 356.482,333.653 363.604 C 344.305 368.655,352.252 375.188,363.123 387.830 C 385.551 413.911,400.935 425.401,419.823 430.178 C 429.640 432.660,442.092 432.129,451.600 428.822 C 473.982 421.036,487.469 402.731,493.819 371.519 C 496.019 360.708,496.014 322.022,493.812 305.493 C 486.612 251.473,472.471 196.347,456.771 161.097 C 432.370 106.309,398.583 80.213,352.050 80.213 C 341.802 80.213,332.654 81.827,313.061 87.090 C 292.162 92.704,282.766 94.462,268.105 95.503 C 254.726 96.453,237.479 95.609,225.280 93.406 C 221.291 92.686,210.155 90.016,200.533 87.473 C 190.912 84.930,179.630 82.256,175.462 81.531 C 167.397 80.129,152.250 79.946,143.787 81.149 M166.131 161.337 C 169.368 162.563,172.203 165.318,174.163 169.139 C 175.607 171.955,175.787 174.290,175.787 190.259 L 175.787 208.213 193.741 208.213 C 214.033 208.213,216.155 208.727,220.751 214.752 C 222.866 217.526,223.147 218.616,223.147 224.068 C 223.147 229.667,222.906 230.538,220.565 233.431 C 215.679 239.469,214.346 239.787,193.933 239.787 L 175.787 239.787 175.787 257.741 C 175.787 273.876,175.618 276.026,174.117 278.967 C 171.834 283.443,167.818 286.610,163.561 287.290 C 161.602 287.603,160.000 287.860,160.000 287.860 C 160.000 287.860,158.398 287.603,156.439 287.290 C 152.182 286.610,148.166 283.443,145.883 278.967 C 144.382 276.026,144.213 273.876,144.213 257.741 L 144.213 239.787 126.266 239.787 C 106.711 239.787,104.667 239.405,100.534 234.985 C 95.099 229.172,94.900 219.065,100.110 213.464 C 104.576 208.662,106.812 208.213,126.259 208.213 L 144.213 208.213 144.213 190.259 C 144.213 174.290,144.393 171.955,145.837 169.139 C 147.732 165.444,150.596 162.583,153.600 161.385 C 156.469 160.241,163.172 160.216,166.131 161.337 M344.320 162.019 C 356.222 167.439,359.548 182.807,350.984 192.812 C 346.896 197.588,342.319 199.644,335.787 199.637 C 315.383 199.616,308.666 171.955,326.748 162.412 C 331.485 159.911,339.308 159.736,344.320 162.019 M300.904 206.356 C 308.001 210.005,311.467 215.791,311.467 223.992 C 311.467 230.777,309.616 234.903,304.676 239.131 C 298.550 244.375,290.945 245.425,283.733 242.025 C 278.649 239.627,276.331 237.267,273.992 232.107 C 267.868 218.600,278.612 203.059,293.224 204.287 C 295.629 204.489,299.085 205.420,300.904 206.356 M385.279 204.889 C 393.477 206.953,399.648 215.158,399.653 224.000 C 399.663 243.937,373.652 251.326,363.166 234.365 C 356.491 223.568,361.505 209.461,373.545 205.164 C 377.518 203.746,380.467 203.677,385.279 204.889 M344.368 249.929 C 356.094 255.256,359.515 271.372,350.935 280.869 C 343.785 288.783,333.562 290.224,324.914 284.538 C 315.860 278.585,313.515 265.088,319.983 256.158 C 325.034 249.186,336.361 246.293,344.368 249.929 " stroke="none" fill-rule="evenodd" fill="black"></path></svg>