<svg xmlns="http://www.w3.org/2000/svg" width="512" height="512" viewBox="0 0 512 512"><path d="M146.347 80.790 C 99.696 86.645,68.250 118.837,44.800 184.747 C 33.400 216.789,23.379 259.870,18.202 299.093 C 16.027 315.573,16.041 356.297,18.226 368.640 C 21.127 385.029,26.974 400.428,33.855 409.801 C 47.136 427.894,71.496 435.973,93.558 429.603 C 112.090 424.252,125.034 414.023,151.193 384.055 C 166.411 366.622,183.121 358.459,211.993 354.353 C 225.325 352.458,283.098 352.204,296.533 353.983 C 329.688 358.372,344.732 366.101,363.767 388.527 C 382.883 411.049,398.194 422.915,416.427 429.341 C 421.104 430.990,423.711 431.298,433.067 431.311 C 442.917 431.324,444.937 431.064,451.098 428.991 C 468.853 423.018,482.056 409.294,488.884 389.716 C 493.612 376.157,495.014 367.390,495.534 348.112 C 496.232 322.249,493.551 296.748,486.379 261.030 C 471.331 186.092,451.285 138.127,423.272 110.032 C 406.214 92.923,390.609 84.757,368.644 81.446 C 351.329 78.836,337.729 80.267,311.515 87.459 C 284.710 94.813,265.956 97.066,244.254 95.540 C 229.265 94.486,222.037 93.154,200.533 87.486 C 190.912 84.949,179.584 82.277,175.360 81.546 C 168.428 80.348,153.062 79.948,146.347 80.790 M174.507 114.005 C 177.792 114.684,186.048 116.748,192.853 118.592 C 217.671 125.316,235.684 128.000,256.000 128.000 C 276.749 128.000,293.366 125.409,323.840 117.424 C 343.166 112.359,349.871 111.495,360.598 112.687 C 373.635 114.135,382.400 117.532,392.303 124.976 C 416.966 143.516,437.365 187.162,451.745 252.160 C 470.314 336.092,467.377 386.103,443.200 397.644 C 438.078 400.090,430.709 400.299,424.374 398.180 C 414.490 394.873,402.479 384.722,387.359 366.899 C 358.392 332.754,330.044 321.845,266.240 320.289 C 236.100 319.555,209.496 321.504,189.822 325.888 C 164.305 331.573,144.086 343.474,127.331 362.667 C 107.480 385.406,100.899 391.482,90.593 396.590 C 85.345 399.191,83.412 399.700,78.646 399.740 C 60.573 399.889,51.144 384.041,48.619 349.272 C 46.827 324.599,50.379 291.467,58.939 253.013 C 77.357 170.279,102.699 125.677,137.254 115.182 C 148.498 111.766,161.668 111.350,174.507 114.005 M153.173 161.636 C 149.993 163.056,146.320 166.908,145.121 170.082 C 144.585 171.500,144.213 179.788,144.213 190.304 L 144.213 208.123 125.090 208.381 L 105.967 208.640 102.690 211.290 C 98.022 215.066,96.183 218.625,96.183 223.881 C 96.183 228.833,97.666 232.281,101.257 235.679 C 105.227 239.435,107.374 239.787,126.349 239.787 L 144.213 239.787 144.213 257.651 C 144.213 268.171,144.586 276.503,145.119 277.918 C 147.242 283.550,153.594 287.744,160.000 287.744 C 166.406 287.744,172.758 283.550,174.881 277.918 C 175.414 276.503,175.787 268.171,175.787 257.651 L 175.787 239.787 193.734 239.787 C 207.075 239.787,212.386 239.485,214.427 238.612 C 220.936 235.827,224.980 227.718,223.396 220.628 C 222.411 216.217,220.965 214.035,217.046 211.043 L 213.898 208.640 194.842 208.381 L 175.787 208.123 175.787 190.304 C 175.787 179.788,175.415 171.500,174.879 170.082 C 173.644 166.813,169.961 163.022,166.641 161.602 C 163.186 160.123,156.524 160.140,153.173 161.636 M326.748 162.412 C 324.679 163.503,321.768 165.991,320.279 167.939 C 310.258 181.047,319.372 199.680,335.805 199.680 C 347.235 199.680,355.803 191.272,355.803 180.053 C 355.803 172.059,351.000 164.792,343.707 161.750 C 338.876 159.735,331.256 160.032,326.748 162.412 M285.549 205.149 C 268.757 211.393,267.580 234.528,283.673 242.022 C 290.973 245.421,298.545 244.379,304.676 239.131 C 315.699 229.696,313.775 212.974,300.904 206.356 C 296.556 204.120,289.754 203.585,285.549 205.149 M373.545 205.164 C 368.441 206.985,364.681 210.400,362.204 215.464 C 354.528 231.154,369.757 248.354,386.424 242.819 C 392.299 240.867,397.920 234.696,399.385 228.587 C 401.094 221.465,399.408 215.830,393.928 210.350 C 387.901 204.323,380.896 202.541,373.545 205.164 M326.916 250.569 C 318.399 254.813,314.250 264.142,316.881 273.134 C 321.365 288.459,339.456 292.945,350.463 281.461 C 357.538 274.081,357.718 262.541,350.877 254.953 C 344.632 248.026,335.406 246.338,326.916 250.569 " stroke="none" fill-rule="evenodd" fill="black"></path></svg>