<svg xmlns="http://www.w3.org/2000/svg" width="512" height="512" viewBox="0 0 512 512"><path d="M128.427 80.752 C 97.017 84.564,80.376 94.201,68.782 115.294 C 65.050 122.083,59.664 138.256,57.304 149.760 C 56.341 154.453,46.838 204.181,36.186 260.267 C 14.779 372.987,14.399 375.618,17.469 389.692 C 19.667 399.765,24.030 408.158,30.619 414.990 C 37.045 421.652,42.927 425.460,52.053 428.866 C 57.580 430.928,59.734 431.261,67.840 431.307 C 79.152 431.371,83.473 430.093,92.616 423.978 C 104.571 415.982,112.160 405.526,125.707 378.390 C 130.644 368.499,135.754 359.135,137.062 357.581 C 141.654 352.124,135.119 352.427,248.431 352.427 L 351.850 352.427 355.426 354.523 C 358.733 356.460,359.790 358.149,369.455 376.923 C 381.303 399.937,386.976 408.980,394.112 416.228 C 404.078 426.350,413.230 430.897,424.960 431.555 C 442.305 432.528,460.498 423.578,470.236 409.282 C 477.774 398.215,481.218 383.118,479.635 368.074 C 478.971 361.762,444.930 179.988,439.391 153.173 C 433.829 126.248,426.781 110.909,414.763 99.572 C 405.691 91.014,395.864 86.167,380.160 82.504 C 372.566 80.732,371.134 80.711,251.733 80.577 C 185.323 80.502,129.835 80.581,128.427 80.752 M175.787 184.320 L 175.787 208.213 199.680 208.213 L 223.573 208.213 223.573 224.000 L 223.573 239.787 199.680 239.787 L 175.787 239.787 175.787 264.107 L 175.787 288.427 160.000 288.427 L 144.213 288.427 144.213 264.107 L 144.213 239.787 120.320 239.787 L 96.427 239.787 96.427 224.000 L 96.427 208.213 120.320 208.213 L 144.213 208.213 144.213 184.320 L 144.213 160.427 160.000 160.427 L 175.787 160.427 175.787 184.320 M344.320 162.019 C 356.222 167.439,359.548 182.807,350.984 192.812 C 346.896 197.588,342.319 199.644,335.787 199.637 C 315.383 199.616,308.666 171.955,326.748 162.412 C 331.485 159.911,339.308 159.736,344.320 162.019 M300.904 206.356 C 308.001 210.005,311.467 215.791,311.467 223.992 C 311.467 230.777,309.616 234.903,304.676 239.131 C 298.550 244.375,290.945 245.425,283.733 242.025 C 278.649 239.627,276.331 237.267,273.992 232.107 C 267.868 218.600,278.612 203.059,293.224 204.287 C 295.629 204.489,299.085 205.420,300.904 206.356 M385.279 204.889 C 393.477 206.953,399.648 215.158,399.653 224.000 C 399.663 243.937,373.652 251.326,363.166 234.365 C 356.491 223.568,361.505 209.461,373.545 205.164 C 377.518 203.746,380.467 203.677,385.279 204.889 M344.368 249.929 C 356.148 255.280,359.554 271.328,350.935 280.869 C 346.597 285.670,341.967 287.842,336.052 287.851 C 319.927 287.874,310.491 269.263,319.983 256.158 C 325.034 249.186,336.361 246.293,344.368 249.929 " stroke="none" fill-rule="evenodd" fill="black"></path></svg>