<svg xmlns="http://www.w3.org/2000/svg" width="512" height="512" viewBox="0 0 512 512"><path d="M185.600 33.640 C 150.230 40.537,124.381 70.192,122.316 106.240 C 121.622 118.363,123.845 130.058,129.252 142.720 C 129.852 144.127,128.023 144.214,97.585 144.222 C 65.538 144.230,65.246 144.246,61.013 146.221 C 55.398 148.842,50.783 154.061,49.115 159.677 C 47.199 166.130,47.142 233.893,49.047 240.309 C 50.571 245.438,55.235 251.114,60.038 253.683 L 63.573 255.573 148.693 255.803 L 233.813 256.032 233.813 200.123 L 233.813 144.213 256.000 144.213 L 278.187 144.213 278.187 200.123 L 278.187 256.032 363.307 255.803 L 448.427 255.573 451.962 253.683 C 456.765 251.114,461.429 245.438,462.953 240.309 C 464.858 233.893,464.801 166.130,462.885 159.677 C 461.217 154.061,456.602 148.842,450.987 146.221 C 446.754 144.246,446.462 144.230,414.415 144.222 C 383.967 144.214,382.149 144.128,382.774 142.720 C 392.146 121.627,392.142 98.449,382.761 77.238 C 376.278 62.577,362.311 48.137,347.307 40.580 C 335.902 34.836,325.379 32.427,311.701 32.427 C 292.404 32.427,273.424 39.623,259.940 52.052 L 256.117 55.576 249.872 50.319 C 242.820 44.383,228.211 36.847,219.307 34.553 C 211.801 32.619,193.393 32.120,185.600 33.640 M213.775 79.242 C 221.129 82.683,226.953 88.299,230.503 95.373 L 233.387 101.120 233.665 122.667 L 233.943 144.213 216.000 144.213 C 206.066 144.213,196.039 143.788,193.535 143.261 C 182.960 141.034,173.701 133.708,169.127 123.949 C 167.086 119.594,166.827 118.028,166.827 110.080 C 166.827 101.797,167.028 100.701,169.494 95.573 C 177.603 78.707,197.192 71.482,213.775 79.242 M320.461 77.271 C 330.291 79.831,338.025 86.251,342.506 95.573 C 344.972 100.701,345.173 101.797,345.173 110.080 C 345.173 118.028,344.914 119.594,342.873 123.949 C 338.299 133.708,329.040 141.034,318.465 143.261 C 315.961 143.788,305.934 144.213,296.000 144.213 L 278.057 144.213 278.335 122.667 L 278.613 101.120 281.365 95.497 C 288.563 80.788,304.835 73.202,320.461 77.271 M80.222 375.680 L 80.230 462.933 82.220 467.206 C 84.400 471.889,88.767 476.193,93.685 478.508 C 96.605 479.883,102.222 480.019,165.333 480.238 L 233.813 480.475 233.813 384.451 L 233.813 288.427 157.013 288.427 L 80.213 288.427 80.222 375.680 M278.187 384.451 L 278.187 480.475 346.667 480.238 C 409.778 480.019,415.395 479.883,418.315 478.508 C 423.233 476.193,427.600 471.889,429.780 467.206 L 431.770 462.933 431.778 375.680 L 431.787 288.427 354.987 288.427 L 278.187 288.427 278.187 384.451 " stroke="none" fill-rule="evenodd" fill="black"></path></svg>