<svg xmlns="http://www.w3.org/2000/svg" width="512" height="512" viewBox="0 0 512 512"><path d="M184.747 34.156 C 179.614 35.231,174.236 37.173,168.533 40.011 C 153.628 47.427,143.153 57.780,136.055 72.107 C 130.435 83.450,128.616 91.218,128.562 104.107 C 128.510 116.446,130.323 124.806,135.348 135.395 C 137.013 138.904,138.175 142.299,137.930 142.938 C 137.571 143.873,132.441 144.162,111.622 144.415 C 82.808 144.767,81.468 144.982,71.879 150.801 C 61.370 157.179,53.944 166.398,50.262 177.640 C 48.375 183.400,48.217 185.207,48.257 200.533 C 48.300 216.661,48.375 217.370,50.711 223.573 C 53.798 231.770,57.747 237.704,63.888 243.374 C 70.091 249.102,75.783 252.178,84.126 254.312 C 90.451 255.930,93.790 256.000,164.233 256.000 C 220.266 256.000,237.982 255.757,238.763 254.976 C 239.538 254.201,239.787 240.621,239.787 199.083 L 239.787 144.213 256.000 144.213 L 272.213 144.213 272.213 199.083 C 272.213 240.621,272.462 254.201,273.237 254.976 C 274.018 255.757,291.734 256.000,347.767 256.000 C 418.210 256.000,421.549 255.930,427.874 254.312 C 436.217 252.178,441.909 249.102,448.112 243.374 C 454.253 237.704,458.202 231.770,461.289 223.573 C 463.625 217.370,463.700 216.661,463.743 200.533 C 463.783 185.207,463.625 183.400,461.738 177.640 C 458.056 166.398,450.630 157.179,440.121 150.801 C 430.532 144.982,429.192 144.767,400.378 144.415 C 379.559 144.162,374.429 143.873,374.070 142.938 C 373.825 142.299,374.987 138.904,376.652 135.395 C 381.677 124.806,383.490 116.446,383.438 104.107 C 383.384 91.174,381.551 83.386,375.908 72.107 C 368.638 57.577,358.382 47.431,343.467 40.014 C 331.824 34.224,321.476 32.067,308.480 32.720 C 289.832 33.657,275.574 39.786,261.769 52.797 L 256.000 58.233 250.169 52.733 C 232.217 35.798,208.735 29.130,184.747 34.156 M207.453 64.871 C 218.623 66.989,229.467 74.853,234.664 84.604 C 239.375 93.444,239.765 96.249,239.777 121.387 L 239.787 144.213 218.240 144.201 C 188.678 144.183,182.401 142.521,171.959 131.943 C 163.935 123.815,160.488 115.314,160.448 103.557 C 160.364 79.063,183.197 60.271,207.453 64.871 M320.000 64.887 C 332.318 67.597,342.373 75.551,347.906 86.965 C 350.575 92.470,351.027 94.327,351.391 101.291 C 351.706 107.309,351.438 110.663,350.310 114.830 C 347.602 124.835,339.502 134.827,330.333 139.473 C 322.356 143.515,317.159 144.187,293.760 144.201 L 272.213 144.213 272.234 121.387 C 272.246 108.832,272.629 96.940,273.086 94.960 C 277.820 74.444,299.697 60.420,320.000 64.887 M82.279 290.550 L 80.155 292.674 80.398 360.737 L 80.640 428.800 83.036 435.627 C 86.605 445.795,91.520 453.510,99.346 461.227 C 110.539 472.263,122.080 477.730,138.050 479.560 C 142.144 480.029,165.856 480.416,190.743 480.420 C 230.325 480.426,236.231 480.260,237.890 479.098 L 239.787 477.770 239.787 384.122 C 239.787 312.423,239.547 290.235,238.763 289.451 C 237.981 288.669,219.564 288.427,161.071 288.427 L 84.402 288.427 82.279 290.550 M273.237 289.451 C 272.453 290.235,272.213 312.423,272.213 384.122 L 272.213 477.770 274.110 479.098 C 275.769 480.260,281.675 480.426,321.257 480.420 C 346.144 480.416,369.856 480.029,373.950 479.560 C 389.920 477.730,401.461 472.263,412.654 461.227 C 420.488 453.502,425.411 445.774,428.962 435.627 L 431.351 428.800 431.598 360.737 L 431.845 292.674 429.721 290.550 L 427.598 288.427 350.929 288.427 C 292.436 288.427,274.019 288.669,273.237 289.451 " stroke="none" fill-rule="evenodd" fill="black"></path></svg>