<svg xmlns="http://www.w3.org/2000/svg" width="512" height="512" viewBox="0 0 512 512"><path d="M186.091 33.354 C 164.870 37.518,145.402 52.459,135.382 72.271 C 134.149 74.708,132.106 80.084,130.842 84.218 C 128.823 90.817,128.539 93.190,128.512 103.680 C 128.476 117.806,130.205 125.348,136.156 137.010 L 139.832 144.213 115.259 144.213 C 101.744 144.213,88.618 144.595,86.090 145.061 C 79.861 146.210,68.639 151.918,64.234 156.176 C 55.432 164.686,51.272 171.852,49.052 182.328 C 47.554 189.400,47.278 239.520,48.689 248.320 C 50.903 262.127,61.698 276.651,74.167 282.601 L 80.117 285.440 80.165 355.063 C 80.220 433.931,79.984 430.911,87.211 445.440 C 90.133 451.314,92.366 454.248,98.956 460.868 C 105.775 467.718,108.364 469.677,114.934 472.958 C 130.020 480.492,120.164 480.000,256.000 480.000 C 391.836 480.000,381.980 480.492,397.066 472.958 C 403.636 469.677,406.225 467.718,413.044 460.868 C 419.634 454.248,421.867 451.314,424.789 445.440 C 432.016 430.911,431.780 433.931,431.835 355.063 L 431.883 285.440 437.856 282.589 C 450.230 276.684,461.111 262.035,463.311 248.320 C 464.722 239.520,464.446 189.400,462.948 182.328 C 460.728 171.852,456.568 164.686,447.766 156.176 C 443.361 151.918,432.139 146.210,425.910 145.061 C 423.382 144.595,410.256 144.213,396.741 144.213 L 372.168 144.213 375.844 137.010 C 381.795 125.348,383.524 117.806,383.488 103.680 C 383.461 93.190,383.177 90.817,381.158 84.218 C 377.209 71.307,371.484 61.858,361.972 52.552 C 353.672 44.431,343.986 38.684,332.373 34.990 C 323.913 32.299,307.594 31.674,297.751 33.666 C 283.954 36.457,272.158 42.707,261.781 52.726 L 256.000 58.307 250.219 52.726 C 240.025 42.884,228.116 36.502,214.863 33.778 C 207.799 32.327,192.480 32.101,186.091 33.354 M208.385 64.951 C 222.459 67.911,234.924 79.701,238.471 93.406 C 239.498 97.376,239.787 103.530,239.787 121.448 L 239.787 144.404 215.680 144.024 C 193.023 143.667,191.265 143.526,186.453 141.670 C 176.405 137.794,168.177 130.143,163.496 120.320 C 160.976 115.031,160.853 114.276,160.853 104.062 C 160.853 93.433,160.877 93.303,164.002 86.996 C 172.434 69.977,190.238 61.134,208.385 64.951 M321.649 65.319 C 332.805 67.949,342.522 75.942,347.998 86.996 C 351.123 93.303,351.147 93.433,351.147 104.062 C 351.147 114.276,351.024 115.031,348.504 120.320 C 343.823 130.143,335.595 137.794,325.547 141.670 C 320.735 143.526,318.977 143.667,296.320 144.024 L 272.213 144.404 272.213 121.448 C 272.213 95.841,272.798 91.738,277.583 83.751 C 286.721 68.500,304.173 61.200,321.649 65.319 M239.787 215.893 L 239.787 256.000 166.243 256.000 C 93.043 256.000,92.681 255.992,88.960 254.190 C 86.709 253.100,84.309 251.003,82.930 248.921 L 80.640 245.462 80.382 218.091 C 80.240 203.037,80.355 189.464,80.637 187.928 C 81.181 184.971,85.211 179.785,88.224 178.166 C 89.215 177.633,91.179 176.919,92.587 176.579 C 93.995 176.239,127.691 175.922,167.467 175.874 L 239.787 175.787 239.787 215.893 M422.913 177.663 C 426.701 179.738,430.764 184.674,431.363 187.928 C 431.645 189.464,431.760 203.037,431.618 218.091 L 431.360 245.462 429.070 248.921 C 427.691 251.003,425.291 253.100,423.040 254.190 C 419.319 255.992,418.957 256.000,345.757 256.000 L 272.213 256.000 272.213 215.871 L 272.213 175.741 346.240 175.977 C 414.014 176.193,420.490 176.336,422.913 177.663 M239.787 368.239 L 239.787 448.051 187.947 447.812 L 136.107 447.573 131.227 445.286 C 121.154 440.565,114.153 431.277,112.607 420.581 C 112.175 417.592,111.813 386.635,111.804 351.787 L 111.787 288.427 175.787 288.427 L 239.787 288.427 239.787 368.239 M400.196 351.787 C 400.187 386.635,399.830 417.562,399.403 420.513 C 397.874 431.089,391.357 439.978,381.617 444.774 L 375.932 447.573 324.073 447.812 L 272.213 448.051 272.213 368.239 L 272.213 288.427 336.213 288.427 L 400.213 288.427 400.196 351.787 " stroke="none" fill-rule="evenodd" fill="black"></path></svg>