<svg xmlns="http://www.w3.org/2000/svg" width="512" height="512" viewBox="0 0 512 512"><path d="M297.387 17.565 C 295.979 18.325,279.369 34.363,260.476 53.206 C 225.246 88.343,224.256 89.513,224.256 96.000 C 224.256 102.516,225.205 103.635,261.334 139.688 C 292.377 170.665,296.918 174.883,299.787 175.405 C 307.708 176.845,315.062 173.503,318.190 167.040 C 319.856 163.598,320.000 161.895,320.000 145.576 L 320.000 127.850 333.440 128.138 C 345.842 128.404,347.243 128.599,351.573 130.656 C 357.223 133.340,362.040 138.016,365.098 143.787 L 367.360 148.053 367.586 254.356 L 367.813 360.658 363.108 363.899 C 352.677 371.082,343.546 383.417,339.067 396.373 C 336.901 402.638,336.705 404.254,336.692 416.000 C 336.678 428.174,336.808 429.166,339.334 436.276 C 342.782 445.981,346.447 452.051,353.271 459.354 C 366.086 473.070,381.737 479.876,400.213 479.769 C 415.131 479.682,427.868 475.305,439.354 466.318 C 452.559 455.986,460.982 441.139,463.493 423.770 C 465.438 410.319,461.413 392.984,453.564 381.013 C 449.635 375.021,441.081 366.404,435.648 362.968 L 431.830 360.552 431.577 250.463 L 431.325 140.373 428.979 132.358 C 419.027 98.342,393.325 73.900,359.253 66.049 C 355.926 65.282,346.964 64.570,336.853 64.268 L 320.000 63.766 320.000 46.233 C 320.000 26.032,319.252 23.121,312.993 18.979 C 308.732 16.160,301.249 15.482,297.387 17.565 M97.541 33.664 C 94.633 34.322,89.065 36.366,85.167 38.207 C 64.539 47.949,51.554 65.825,48.512 88.670 C 45.638 110.257,56.414 135.254,73.736 147.185 L 78.428 150.416 78.733 258.888 C 79.064 376.793,78.782 369.690,83.731 384.842 C 92.609 412.026,114.613 434.056,142.042 443.224 C 152.652 446.770,161.702 448.000,177.178 448.000 L 191.147 448.000 191.147 465.954 C 191.147 481.888,191.328 484.264,192.763 487.074 C 194.758 490.985,196.697 492.780,200.750 494.474 C 205.012 496.255,210.191 496.125,214.007 494.142 C 218.098 492.017,284.632 425.298,285.820 422.131 C 286.975 419.049,286.975 412.951,285.820 409.869 C 284.479 406.293,217.966 339.815,213.760 337.848 C 209.589 335.896,204.926 335.781,200.750 337.526 C 196.697 339.220,194.758 341.015,192.763 344.926 C 191.328 347.737,191.147 350.113,191.147 366.105 L 191.147 384.117 177.615 383.845 L 164.083 383.573 158.234 380.587 C 153.978 378.414,151.506 376.437,149.161 373.333 C 142.965 365.131,143.360 373.078,143.360 256.733 L 143.360 151.957 148.293 148.607 C 158.970 141.356,168.371 128.777,172.940 115.627 C 175.132 109.317,175.310 107.830,175.284 96.000 C 175.258 84.312,175.052 82.607,172.914 76.373 C 169.453 66.281,164.529 58.536,156.638 50.773 C 148.537 42.803,142.805 39.198,132.490 35.584 C 125.874 33.267,123.736 32.937,113.920 32.717 C 106.627 32.553,101.016 32.878,97.541 33.664 M124.978 66.861 C 145.558 76.282,150.196 103.783,133.793 119.126 C 119.191 132.785,96.122 130.081,85.373 113.451 C 73.376 94.889,83.172 70.322,104.743 64.872 C 110.117 63.515,119.733 64.459,124.978 66.861 M413.435 387.286 C 424.177 392.312,430.862 401.930,431.599 413.417 C 432.117 421.484,430.717 427.123,426.627 433.451 C 415.878 450.081,392.809 452.785,378.207 439.126 C 365.555 427.292,364.862 407.197,376.664 394.393 C 386.132 384.121,400.668 381.311,413.435 387.286 " stroke="none" fill-rule="evenodd" fill="black"></path></svg>