<svg xmlns="http://www.w3.org/2000/svg" width="512" height="512" viewBox="0 0 512 512"><path d="M243.627 128.503 C 224.071 131.308,211.670 135.056,197.201 142.535 C 167.877 157.692,145.893 183.227,134.868 214.935 L 131.716 224.000 81.635 224.220 L 31.553 224.440 31.776 256.220 L 32.000 288.000 81.989 288.220 L 131.979 288.440 134.645 296.512 C 147.370 335.034,178.186 365.556,216.747 377.833 C 232.108 382.724,237.826 383.558,256.000 383.558 C 274.174 383.558,279.892 382.724,295.253 377.833 C 333.926 365.521,364.592 335.148,377.352 296.521 L 380.021 288.440 430.011 288.220 L 480.000 288.000 480.224 256.220 L 480.447 224.440 430.364 224.220 L 380.280 224.000 377.141 214.853 C 366.197 182.965,344.131 157.517,314.110 142.161 C 296.116 132.956,280.339 129.008,259.413 128.473 C 252.139 128.287,245.035 128.301,243.627 128.503 M272.135 194.065 C 279.311 196.032,290.022 201.538,295.956 206.309 C 310.490 217.998,320.000 237.652,320.000 256.000 C 320.000 280.841,303.532 305.484,280.617 314.933 C 248.515 328.171,213.130 314.384,198.352 282.880 C 193.535 272.612,192.445 267.649,192.445 256.000 C 192.445 244.351,193.535 239.388,198.352 229.120 C 207.282 210.083,224.790 196.583,245.397 192.846 C 251.097 191.812,266.471 192.513,272.135 194.065 " stroke="none" fill-rule="evenodd" fill="black"></path></svg>