<svg xmlns="http://www.w3.org/2000/svg" width="512" height="512" viewBox="0 0 512 512"><path d="M112.922 33.753 C 98.017 37.022,82.570 48.121,73.763 61.887 C 60.805 82.144,60.805 109.856,73.763 130.113 C 77.968 136.686,84.532 143.542,91.144 148.267 C 96.471 152.075,108.400 157.836,110.998 157.856 C 112.028 157.864,112.783 160.096,114.221 167.384 C 116.491 178.889,119.312 187.587,123.728 196.693 C 141.022 232.360,176.299 258.069,221.969 268.288 C 227.423 269.508,233.056 270.507,234.486 270.507 C 240.183 270.507,239.788 267.356,239.777 312.625 L 239.768 353.707 233.516 356.050 C 217.568 362.025,202.969 376.070,196.720 391.450 C 189.024 410.389,190.992 433.274,201.763 450.113 C 210.644 463.996,225.662 474.736,241.297 478.387 C 248.746 480.125,263.254 480.125,270.703 478.387 C 286.338 474.736,301.356 463.996,310.237 450.113 C 321.008 433.274,322.976 410.389,315.280 391.450 C 309.031 376.070,294.432 362.025,278.484 356.050 L 272.232 353.707 272.223 312.625 C 272.212 267.356,271.817 270.507,277.514 270.507 C 278.944 270.507,284.577 269.508,290.031 268.288 C 335.701 258.069,370.978 232.360,388.272 196.693 C 392.688 187.587,395.509 178.889,397.779 167.384 C 399.217 160.096,399.972 157.864,401.002 157.856 C 403.600 157.836,415.529 152.075,420.856 148.267 C 438.122 135.927,448.000 116.907,448.000 96.000 C 448.000 75.159,438.116 56.069,420.989 43.827 C 409.936 35.928,398.578 32.427,384.000 32.427 C 365.269 32.427,349.899 38.959,337.348 52.254 C 317.037 73.768,314.211 106.660,330.559 131.251 C 337.641 141.905,349.083 151.133,361.012 155.813 L 366.958 158.146 366.437 161.206 C 361.705 188.965,342.278 212.797,312.816 226.986 C 266.638 249.226,209.279 241.944,172.429 209.164 C 158.797 197.038,148.555 178.755,145.563 161.206 L 145.042 158.146 150.988 155.813 C 166.827 149.599,181.119 135.712,187.280 120.550 C 194.976 101.611,193.008 78.726,182.237 61.887 C 173.229 47.806,157.897 36.944,142.438 33.692 C 135.089 32.146,120.105 32.177,112.922 33.753 M135.339 65.127 C 157.610 69.796,167.186 97.685,152.776 115.914 C 149.047 120.632,142.909 124.988,137.864 126.499 C 133.408 127.833,122.592 127.833,118.136 126.499 C 109.803 124.004,101.509 115.920,98.195 107.063 C 95.803 100.668,95.803 91.332,98.195 84.937 C 101.824 75.238,110.786 67.206,120.255 65.168 C 126.504 63.822,129.082 63.815,135.339 65.127 M391.339 65.127 C 413.610 69.796,423.186 97.685,408.776 115.914 C 405.047 120.632,398.909 124.988,393.864 126.499 C 389.408 127.833,378.592 127.833,374.136 126.499 C 369.091 124.988,362.953 120.632,359.224 115.914 C 347.523 101.112,351.144 79.252,366.979 69.091 C 371.344 66.290,378.276 64.200,383.573 64.089 C 384.981 64.060,388.476 64.527,391.339 65.127 M263.339 385.127 C 269.822 386.486,276.515 390.695,280.787 396.100 C 292.330 410.702,288.888 432.506,273.422 442.750 C 267.970 446.361,263.693 447.536,256.000 447.536 C 248.307 447.536,244.030 446.361,238.578 442.750 C 219.492 430.108,219.706 401.458,238.979 389.091 C 243.344 386.290,250.276 384.200,255.573 384.089 C 256.981 384.060,260.476 384.527,263.339 385.127 " stroke="none" fill-rule="evenodd" fill="black"></path></svg>