<svg xmlns="http://www.w3.org/2000/svg" width="512" height="512" viewBox="0 0 512 512"><path d="M297.387 17.537 C 294.100 19.223,227.315 85.783,225.529 89.153 C 223.799 92.417,223.799 99.583,225.529 102.847 C 227.498 106.562,295.250 173.841,298.082 174.894 C 307.620 178.439,318.652 171.792,319.776 161.823 C 320.606 154.462,319.529 152.943,298.379 131.627 L 278.694 111.787 309.800 111.804 C 326.909 111.813,343.595 112.199,346.880 112.661 C 364.211 115.098,379.858 130.147,383.134 147.530 C 383.689 150.477,384.000 188.330,384.000 252.995 L 384.000 353.863 380.373 354.929 C 366.445 359.024,349.904 373.103,343.211 386.560 C 338.286 396.461,336.213 405.182,336.213 416.000 C 336.213 426.818,338.286 435.539,343.211 445.440 C 346.142 451.333,348.345 454.221,354.956 460.837 C 368.422 474.313,381.359 479.704,400.213 479.697 C 408.285 479.695,411.390 479.296,417.707 477.451 C 439.078 471.209,455.686 454.472,461.787 433.028 C 464.516 423.438,464.516 408.562,461.787 398.972 C 456.144 379.139,440.855 362.644,421.795 355.826 L 416.497 353.930 416.201 250.138 C 415.935 156.812,415.762 145.756,414.483 140.485 C 407.930 113.488,389.803 92.927,365.073 84.442 C 353.864 80.596,349.293 80.227,312.787 80.220 L 278.694 80.213 298.379 60.373 C 319.529 39.057,320.606 37.538,319.776 30.177 C 318.615 19.877,306.338 12.946,297.387 17.537 M95.573 34.183 C 74.021 39.782,56.418 57.162,50.213 78.972 C 47.484 88.562,47.484 103.438,50.213 113.028 C 55.720 132.385,71.076 149.271,89.108 155.799 L 94.293 157.677 94.736 262.518 L 95.178 367.360 97.065 374.040 C 105.449 403.732,127.210 424.412,156.420 430.445 C 161.705 431.537,169.395 431.787,197.717 431.787 L 232.519 431.787 213.144 451.200 C 193.285 471.099,191.147 473.898,191.147 480.000 C 191.147 483.433,193.048 488.524,195.233 490.940 C 199.056 495.168,207.391 497.013,213.064 494.886 C 216.128 493.738,283.717 426.337,285.435 422.717 C 286.928 419.571,287.115 413.324,285.820 409.869 C 284.632 406.702,218.098 339.983,214.007 337.858 C 208.231 334.857,199.495 336.347,195.233 341.060 C 193.048 343.476,191.147 348.567,191.147 352.000 C 191.147 358.102,193.285 360.901,213.144 380.800 L 232.519 400.213 200.100 400.199 C 164.978 400.182,159.928 399.697,151.386 395.518 C 145.499 392.638,136.775 384.456,133.142 378.408 C 126.955 368.109,127.251 373.983,127.196 260.148 L 127.147 158.057 130.118 157.499 C 131.752 157.193,136.648 155.164,140.998 152.992 C 147.645 149.673,150.205 147.738,157.044 140.868 C 163.634 134.248,165.867 131.314,168.789 125.440 C 173.714 115.539,175.787 106.818,175.787 96.000 C 175.787 85.182,173.714 76.461,168.789 66.560 C 165.858 60.666,163.656 57.780,157.044 51.164 C 150.170 44.286,147.648 42.394,140.800 38.978 C 136.320 36.743,130.021 34.380,126.720 33.695 C 118.104 31.908,103.448 32.138,95.573 34.183 M119.592 65.161 C 132.027 68.088,141.564 78.500,143.316 91.060 C 147.203 118.943,117.163 137.958,94.026 122.260 C 77.725 111.201,75.450 87.671,89.339 73.782 C 97.565 65.556,108.288 62.500,119.592 65.161 M412.743 386.948 C 418.902 389.768,422.800 393.023,426.314 398.280 C 436.037 412.824,432.388 432.271,418.084 442.146 C 395.070 458.035,364.827 439.024,368.672 411.086 C 370.365 398.780,379.840 388.251,392.007 385.153 C 398.072 383.608,407.168 384.396,412.743 386.948 " stroke="none" fill-rule="evenodd" fill="black"></path></svg>