<svg xmlns="http://www.w3.org/2000/svg" width="512" height="512" viewBox="0 0 512 512"><path d="M145.228 33.732 C 125.332 38.051,105.999 55.481,99.588 74.877 C 95.035 88.654,95.033 103.340,99.582 117.104 C 105.157 133.974,121.455 150.506,138.096 156.171 L 144.213 158.254 144.213 256.059 L 144.213 353.863 140.587 354.949 C 122.832 360.265,105.425 377.218,99.588 394.877 C 90.025 423.811,100.785 454.018,126.563 470.604 C 141.494 480.210,162.754 482.483,181.068 476.430 C 198.318 470.729,214.721 454.341,220.412 437.123 C 229.476 409.697,220.476 381.391,197.120 363.873 C 193.763 361.356,181.141 354.987,179.509 354.987 C 177.540 354.987,177.451 353.409,179.166 348.897 C 181.749 342.097,185.898 336.521,191.573 332.220 C 203.368 323.281,215.192 319.242,254.911 310.585 C 292.325 302.429,307.117 297.863,321.707 289.963 C 346.458 276.562,361.172 256.201,366.323 228.225 L 367.360 222.592 374.613 219.853 C 396.859 211.453,412.801 190.889,415.487 167.128 C 417.690 147.646,410.938 128.467,397.133 114.985 C 383.837 102.001,370.332 96.456,352.000 96.456 C 333.668 96.456,320.163 102.001,306.867 114.985 C 289.547 131.899,283.691 157.229,291.582 181.104 C 296.898 197.190,312.734 213.817,328.046 219.392 C 330.895 220.430,333.579 221.590,334.009 221.971 C 335.244 223.064,332.974 231.833,329.618 238.933 C 325.047 248.604,316.357 256.843,304.631 262.623 C 291.016 269.334,280.638 272.390,247.467 279.453 C 209.614 287.513,191.935 293.331,178.560 302.130 L 175.787 303.954 175.787 231.104 L 175.787 158.254 181.904 156.171 C 198.536 150.509,214.843 133.974,220.412 117.123 C 224.965 103.346,224.967 88.660,220.418 74.896 C 213.933 55.274,194.611 37.981,174.382 33.696 C 167.125 32.158,152.392 32.176,145.228 33.732 M173.201 67.051 C 179.560 69.950,186.180 76.627,189.124 83.111 C 191.147 87.568,191.489 89.429,191.489 96.000 C 191.489 102.571,191.147 104.432,189.124 108.889 C 186.134 115.472,179.567 122.029,172.800 125.185 C 168.385 127.244,166.622 127.573,160.000 127.573 C 153.378 127.573,151.615 127.244,147.200 125.185 C 140.433 122.029,133.866 115.472,130.876 108.889 C 128.856 104.439,128.510 102.561,128.504 96.000 C 128.497 89.412,128.831 87.592,130.850 83.200 C 134.986 74.206,143.985 66.762,153.050 64.836 C 158.742 63.626,167.895 64.633,173.201 67.051 M365.201 131.051 C 371.560 133.950,378.180 140.627,381.124 147.111 C 383.147 151.568,383.489 153.429,383.489 160.000 C 383.489 166.571,383.147 168.432,381.124 172.889 C 378.134 179.472,371.567 186.029,364.800 189.185 C 360.385 191.244,358.622 191.573,352.000 191.573 C 345.378 191.573,343.615 191.244,339.200 189.185 C 332.433 186.029,325.866 179.472,322.876 172.889 C 320.856 168.439,320.510 166.561,320.504 160.000 C 320.497 153.412,320.831 151.592,322.850 147.200 C 326.986 138.206,335.985 130.762,345.050 128.836 C 350.742 127.626,359.895 128.633,365.201 131.051 M173.201 387.051 C 179.560 389.950,186.180 396.627,189.124 403.111 C 191.147 407.568,191.489 409.429,191.489 416.000 C 191.489 422.571,191.147 424.432,189.124 428.889 C 186.134 435.472,179.567 442.029,172.800 445.185 C 168.385 447.244,166.622 447.573,160.000 447.573 C 153.378 447.573,151.615 447.244,147.200 445.185 C 140.433 442.029,133.866 435.472,130.876 428.889 C 128.856 424.439,128.510 422.561,128.504 416.000 C 128.497 409.412,128.831 407.592,130.850 403.200 C 134.986 394.206,143.985 386.762,153.050 384.836 C 158.742 383.626,167.895 384.633,173.201 387.051 " stroke="none" fill-rule="evenodd" fill="black"></path></svg>