<svg xmlns="http://www.w3.org/2000/svg" width="512" height="512" viewBox="0 0 512 512"><path d="M112.965 34.067 C 76.604 43.881,56.388 81.850,68.724 117.160 C 73.056 129.558,83.062 142.528,93.225 148.919 L 97.277 151.467 97.277 256.000 L 97.277 360.533 93.225 363.081 C 87.152 366.900,78.376 376.086,74.390 382.795 C 55.634 414.365,66.065 453.609,98.133 472.125 C 108.310 478.001,124.052 481.057,136.329 479.540 C 150.097 477.840,162.031 472.265,172.441 462.670 C 185.541 450.597,192.833 433.979,192.847 416.168 C 192.855 405.973,190.938 397.993,186.034 387.812 C 181.401 378.193,174.141 369.534,166.018 363.940 L 161.280 360.676 161.280 313.885 C 161.280 288.150,161.484 267.093,161.734 267.093 C 161.984 267.093,165.152 269.162,168.774 271.691 C 207.665 298.839,263.076 316.399,320.127 319.654 C 329.259 320.175,330.136 320.374,330.922 322.098 C 332.515 325.594,340.397 334.343,345.473 338.249 C 363.051 351.775,385.057 355.439,405.789 348.294 C 414.976 345.127,421.076 341.458,428.441 334.670 C 441.599 322.543,448.841 305.974,448.841 288.000 C 448.841 269.916,441.679 253.531,428.441 241.330 C 421.058 234.525,415.008 230.894,405.556 227.591 C 399.236 225.383,396.497 224.925,387.840 224.627 C 374.830 224.179,367.400 225.660,357.120 230.751 C 347.930 235.302,339.650 241.944,334.310 249.048 C 332.157 251.913,330.242 254.714,330.056 255.273 C 329.595 256.655,308.316 254.889,292.266 252.138 C 228.544 241.213,181.227 211.552,166.474 173.283 C 164.482 168.115,161.280 154.959,161.280 151.941 C 161.280 151.601,163.391 149.870,165.972 148.092 C 175.373 141.617,183.965 130.653,188.402 119.467 C 194.498 104.097,194.222 85.322,187.681 70.400 C 180.656 54.374,165.563 40.738,148.717 35.198 C 139.518 32.172,122.035 31.619,112.965 34.067 M137.185 65.216 C 156.137 70.261,166.185 91.767,157.862 109.472 C 147.284 131.977,115.871 134.232,102.440 113.451 C 98.349 107.123,96.950 101.484,97.468 93.417 C 98.731 73.739,117.947 60.095,137.185 65.216 M393.185 257.216 C 412.137 262.261,422.185 283.767,413.862 301.472 C 403.284 323.977,371.871 326.232,358.440 305.451 C 354.349 299.123,352.950 293.484,353.468 285.417 C 354.731 265.739,373.947 252.095,393.185 257.216 M137.185 385.216 C 156.137 390.261,166.185 411.767,157.862 429.472 C 147.284 451.977,115.871 454.232,102.440 433.451 C 98.349 427.123,96.950 421.484,97.468 413.417 C 98.731 393.739,117.947 380.095,137.185 385.216 " stroke="none" fill-rule="evenodd" fill="black"></path></svg>