<svg xmlns="http://www.w3.org/2000/svg" width="512" height="512" viewBox="0 0 512 512"><path d="M112.640 34.183 C 95.041 38.755,79.753 51.303,71.635 67.840 C 67.431 76.404,65.747 82.811,65.130 92.587 C 64.006 110.410,70.307 127.080,83.200 140.396 C 90.287 147.714,97.746 152.714,106.356 155.916 L 112.640 158.253 112.640 256.124 L 112.640 353.996 108.160 355.438 C 98.178 358.651,87.058 366.424,79.672 375.350 C 62.278 396.372,60.179 425.668,74.364 449.431 C 78.181 455.826,87.909 465.751,94.548 470.023 C 105.154 476.849,115.490 479.732,129.280 479.709 C 147.481 479.680,160.711 474.169,173.653 461.227 C 182.285 452.595,186.679 445.738,190.059 435.627 C 192.127 429.438,192.340 427.604,192.340 416.000 C 192.340 404.396,192.127 402.562,190.059 396.373 C 188.804 392.619,186.327 387.100,184.555 384.109 C 176.805 371.029,161.878 358.890,148.693 354.948 L 145.067 353.863 145.067 291.996 L 145.067 230.130 154.240 239.071 C 169.622 254.065,184.536 264.290,206.933 275.198 C 237.485 290.078,272.945 299.492,311.467 302.951 C 317.333 303.478,322.375 304.169,322.670 304.488 C 322.966 304.806,323.684 306.603,324.267 308.480 C 326.010 314.093,330.818 322.671,335.382 328.311 C 349.181 345.365,370.254 353.966,392.219 351.509 C 407.448 349.805,419.003 344.121,430.080 332.885 C 438.309 324.539,442.756 317.509,446.059 307.627 C 448.127 301.438,448.340 299.604,448.340 288.000 C 448.340 276.396,448.127 274.562,446.059 268.373 C 440.452 251.597,427.507 237.202,411.141 229.544 C 395.720 222.327,372.811 222.681,357.069 230.379 C 342.264 237.618,328.483 253.287,324.215 267.733 C 323.202 271.162,322.969 271.360,319.955 271.360 C 304.021 271.360,270.156 264.956,249.173 257.974 C 190.937 238.597,154.158 203.933,146.435 161.143 C 145.874 158.032,145.887 158.015,149.949 156.653 C 158.416 153.813,166.618 148.454,174.080 140.885 C 182.309 132.539,186.756 125.509,190.059 115.627 C 192.127 109.438,192.340 107.604,192.340 96.000 C 192.340 84.396,192.127 82.562,190.059 76.373 C 183.062 55.438,164.161 38.038,143.712 33.706 C 135.224 31.908,120.530 32.134,112.640 34.183 M135.851 64.958 C 142.268 66.319,146.428 68.655,151.402 73.693 C 156.672 79.030,159.654 84.874,160.350 91.227 C 161.503 101.747,159.016 110.009,152.451 117.466 C 138.896 132.866,114.159 130.900,102.540 113.500 C 98.387 107.280,96.945 101.570,97.468 93.417 C 98.695 74.301,116.755 60.911,135.851 64.958 M391.851 256.958 C 398.268 258.319,402.428 260.655,407.402 265.693 C 412.672 271.030,415.654 276.874,416.350 283.227 C 417.503 293.747,415.016 302.009,408.451 309.466 C 394.896 324.866,370.159 322.900,358.540 305.500 C 354.387 299.280,352.945 293.570,353.468 285.417 C 354.695 266.301,372.755 252.911,391.851 256.958 M135.851 384.958 C 142.268 386.319,146.428 388.655,151.402 393.693 C 156.672 399.030,159.654 404.874,160.350 411.227 C 161.503 421.747,159.016 430.009,152.451 437.466 C 138.896 452.866,114.159 450.900,102.540 433.500 C 98.387 427.280,96.945 421.570,97.468 413.417 C 98.695 394.301,116.755 380.911,135.851 384.958 " stroke="none" fill-rule="evenodd" fill="black"></path></svg>