<svg xmlns="http://www.w3.org/2000/svg" width="512" height="512" viewBox="0 0 512 512"><path d="M280.747 17.898 C 276.701 20.077,210.248 86.844,209.114 89.869 C 207.958 92.951,207.958 99.049,209.114 102.131 C 210.262 105.195,277.663 172.784,281.283 174.501 C 286.806 177.122,295.740 175.403,299.630 170.971 C 303.807 166.213,305.021 158.548,302.423 153.344 C 301.673 151.842,292.364 141.877,281.737 131.200 L 262.414 111.787 293.554 111.804 C 310.680 111.813,327.381 112.205,330.667 112.674 C 343.233 114.471,356.865 124.058,362.863 135.317 C 367.985 144.931,367.788 140.245,367.777 251.699 L 367.768 353.707 361.516 356.050 C 345.568 362.025,330.969 376.070,324.720 391.450 C 317.024 410.389,318.992 433.274,329.763 450.113 C 338.644 463.996,353.662 474.736,369.297 478.387 C 376.746 480.125,391.254 480.125,398.703 478.387 C 414.338 474.736,429.356 463.996,438.237 450.113 C 449.008 433.274,450.976 410.389,443.280 391.450 C 437.037 376.085,422.454 362.047,406.507 356.050 L 400.277 353.707 400.021 249.173 L 399.765 144.640 397.894 138.041 C 393.393 122.160,388.220 113.316,376.800 101.973 C 365.293 90.546,351.856 83.665,336.030 81.097 C 333.030 80.610,315.629 80.223,296.540 80.220 L 262.414 80.213 281.737 60.800 C 292.364 50.123,301.673 40.158,302.423 38.656 C 305.131 33.233,303.443 24.295,298.971 20.370 C 294.043 16.044,286.170 14.976,280.747 17.898 M112.922 33.753 C 98.017 37.022,82.570 48.121,73.763 61.887 C 62.992 78.726,61.024 101.611,68.720 120.550 C 74.969 135.930,89.568 149.975,105.516 155.950 L 111.768 158.293 111.768 256.000 L 111.768 353.707 105.516 356.050 C 89.568 362.025,74.969 376.070,68.720 391.450 C 61.024 410.389,62.992 433.274,73.763 450.113 C 82.644 463.996,97.662 474.736,113.297 478.387 C 120.746 480.125,135.254 480.125,142.703 478.387 C 158.338 474.736,173.356 463.996,182.237 450.113 C 193.008 433.274,194.976 410.389,187.280 391.450 C 181.031 376.070,166.432 362.025,150.484 356.050 L 144.232 353.707 144.232 256.000 L 144.232 158.293 150.484 155.950 C 166.432 149.975,181.031 135.930,187.280 120.550 C 194.976 101.611,193.008 78.726,182.237 61.887 C 173.229 47.806,157.897 36.944,142.438 33.692 C 135.089 32.146,120.105 32.177,112.922 33.753 M135.339 65.127 C 157.610 69.796,167.186 97.685,152.776 115.914 C 149.047 120.632,142.909 124.988,137.864 126.499 C 133.408 127.833,122.592 127.833,118.136 126.499 C 109.803 124.004,101.509 115.920,98.195 107.063 C 95.803 100.668,95.803 91.332,98.195 84.937 C 101.824 75.238,110.786 67.206,120.255 65.168 C 126.504 63.822,129.082 63.815,135.339 65.127 M135.339 385.127 C 141.822 386.486,148.515 390.695,152.787 396.100 C 164.330 410.702,160.888 432.506,145.422 442.750 C 139.970 446.361,135.693 447.536,128.000 447.536 C 120.307 447.536,116.030 446.361,110.578 442.750 C 91.492 430.108,91.706 401.458,110.979 389.091 C 115.344 386.290,122.276 384.200,127.573 384.089 C 128.981 384.060,132.476 384.527,135.339 385.127 M391.339 385.127 C 397.822 386.486,404.515 390.695,408.787 396.100 C 420.330 410.702,416.888 432.506,401.422 442.750 C 395.970 446.361,391.693 447.536,384.000 447.536 C 376.307 447.536,372.030 446.361,366.578 442.750 C 347.492 430.108,347.706 401.458,366.979 389.091 C 371.344 386.290,378.276 384.200,383.573 384.089 C 384.981 384.060,388.476 384.527,391.339 385.127 " stroke="none" fill-rule="evenodd" fill="black"></path></svg>