<svg xmlns="http://www.w3.org/2000/svg" width="512" height="512" viewBox="0 0 512 512"><path d="M112.213 34.056 C 87.609 40.765,69.928 59.623,65.232 84.162 C 60.597 108.392,70.749 133.720,90.845 148.060 L 96.174 151.863 96.711 158.220 C 98.235 176.251,105.377 198.164,114.864 213.917 C 135.020 247.387,169.805 271.760,212.850 282.573 L 223.573 285.266 223.573 323.038 L 223.573 360.810 218.109 364.710 C 198.540 378.674,188.635 403.809,193.232 427.838 C 195.710 440.786,201.177 451.073,210.773 460.843 C 235.820 486.343,276.180 486.343,301.227 460.843 C 310.823 451.073,316.290 440.786,318.768 427.838 C 323.365 403.809,313.460 378.674,293.891 364.710 L 288.427 360.810 288.427 323.038 L 288.427 285.266 299.150 282.573 C 347.843 270.341,386.104 240.521,403.865 200.960 C 409.670 188.030,414.201 171.089,415.285 158.261 L 415.819 151.945 421.620 147.632 C 439.250 134.522,448.840 114.605,447.715 93.440 C 447.134 82.521,445.558 76.602,440.573 66.622 C 433.376 52.213,420.288 40.995,403.967 35.246 C 397.708 33.041,396.283 32.871,384.000 32.871 C 371.717 32.871,370.292 33.041,364.033 35.246 C 345.739 41.690,331.633 55.023,324.546 72.569 C 319.817 84.276,318.858 99.793,322.096 112.213 C 323.907 119.164,329.350 129.954,334.010 135.834 C 337.534 140.281,344.945 147.048,349.727 150.187 C 351.612 151.424,351.646 151.664,350.737 157.343 C 345.530 189.888,316.871 214.565,275.200 222.385 C 264.332 224.424,246.217 224.261,235.003 222.022 C 211.715 217.374,193.372 207.985,179.776 193.753 C 169.583 183.085,163.453 171.028,161.263 157.343 C 160.354 151.664,160.388 151.424,162.273 150.187 C 167.055 147.048,174.466 140.281,177.990 135.834 C 194.630 114.838,196.387 86.185,182.489 62.482 C 178.579 55.814,167.980 45.384,160.806 41.146 C 150.479 35.045,143.032 33.024,129.707 32.704 C 120.396 32.480,117.041 32.739,112.213 34.056 M139.093 66.115 C 147.552 69.094,154.517 76.161,157.912 85.210 C 160.703 92.651,160.074 102.693,156.342 110.270 C 153.077 116.897,147.720 122.078,140.800 125.300 C 136.801 127.162,134.908 127.485,128.000 127.485 C 121.092 127.485,119.199 127.162,115.200 125.300 C 108.280 122.078,102.923 116.897,99.658 110.270 C 95.899 102.640,95.294 92.657,98.132 85.092 C 103.133 71.761,115.828 63.434,129.707 64.383 C 132.757 64.592,136.981 65.371,139.093 66.115 M395.093 66.115 C 403.552 69.094,410.517 76.161,413.912 85.210 C 416.703 92.651,416.074 102.693,412.342 110.270 C 409.077 116.897,403.720 122.078,396.800 125.300 C 392.801 127.162,390.908 127.485,384.000 127.485 C 377.092 127.485,375.199 127.162,371.200 125.300 C 364.280 122.078,358.923 116.897,355.658 110.270 C 351.899 102.640,351.294 92.657,354.132 85.092 C 359.133 71.761,371.828 63.434,385.707 64.383 C 388.757 64.592,392.981 65.371,395.093 66.115 M267.093 386.115 C 275.552 389.094,282.517 396.161,285.912 405.210 C 288.703 412.651,288.074 422.693,284.342 430.270 C 281.077 436.897,275.720 442.078,268.800 445.300 C 264.801 447.162,262.908 447.485,256.000 447.485 C 249.092 447.485,247.199 447.162,243.200 445.300 C 236.280 442.078,230.923 436.897,227.658 430.270 C 223.899 422.640,223.294 412.657,226.132 405.092 C 231.133 391.761,243.828 383.434,257.707 384.383 C 260.757 384.592,264.981 385.371,267.093 386.115 " stroke="none" fill-rule="evenodd" fill="black"></path></svg>