<svg xmlns="http://www.w3.org/2000/svg" width="512" height="512" viewBox="0 0 512 512"><path d="M245.000 53.040 L 201.146 95.985 232.627 126.936 C 249.941 143.960,269.771 163.304,276.693 169.922 L 289.280 181.957 289.280 154.923 L 289.280 127.890 310.063 128.158 L 330.846 128.427 336.698 131.413 C 340.956 133.587,343.426 135.561,345.772 138.667 C 351.970 146.870,351.573 138.880,351.573 255.650 L 351.573 360.810 346.109 364.710 C 326.540 378.674,316.635 403.809,321.232 427.838 C 323.710 440.786,329.177 451.073,338.773 460.843 C 363.820 486.343,404.180 486.343,429.227 460.843 C 438.823 451.073,444.290 440.786,446.768 427.838 C 451.365 403.809,441.460 378.674,421.891 364.710 L 416.427 360.810 416.412 258.272 C 416.403 197.146,416.058 152.516,415.558 147.766 C 412.584 119.537,398.038 94.997,375.415 80.043 C 355.722 67.026,343.350 64.013,309.559 64.005 L 289.304 64.000 289.079 37.047 L 288.853 10.095 245.000 53.040 M111.827 34.186 C 100.033 37.274,88.886 44.008,80.871 52.890 C 61.584 74.260,58.655 104.703,73.511 129.394 C 77.168 135.473,84.857 143.795,90.354 147.627 L 94.640 150.613 94.680 255.645 L 94.720 360.676 90.116 363.847 C 73.511 375.284,63.183 395.269,63.165 416.000 C 63.150 434.021,70.206 450.223,83.465 462.609 C 90.536 469.215,96.934 473.118,105.876 476.283 C 145.579 490.332,187.546 462.655,190.837 420.252 C 191.774 408.177,188.293 394.044,181.612 382.798 C 177.624 376.086,168.849 366.901,162.775 363.081 L 158.723 360.533 158.722 256.394 L 158.720 152.255 164.197 148.654 C 181.898 137.017,192.862 115.017,191.715 93.440 C 191.157 82.936,189.566 76.685,185.201 67.840 C 176.853 50.925,161.919 38.771,143.784 34.133 C 134.829 31.842,120.688 31.866,111.827 34.186 M139.093 66.115 C 147.552 69.094,154.517 76.161,157.912 85.210 C 160.703 92.651,160.074 102.693,156.342 110.270 C 153.077 116.897,147.720 122.078,140.800 125.300 C 136.801 127.162,134.908 127.485,128.000 127.485 C 121.092 127.485,119.199 127.162,115.200 125.300 C 108.280 122.078,102.923 116.897,99.658 110.270 C 95.899 102.640,95.294 92.657,98.132 85.092 C 103.133 71.761,115.828 63.434,129.707 64.383 C 132.757 64.592,136.981 65.371,139.093 66.115 M138.390 386.275 C 144.555 388.707,149.812 392.848,153.188 397.933 C 157.039 403.734,158.720 409.222,158.720 416.000 C 158.720 434.782,142.988 449.289,124.317 447.724 C 106.067 446.194,93.044 429.690,95.576 411.300 C 97.247 399.170,106.441 388.668,118.422 385.207 C 123.600 383.712,133.192 384.224,138.390 386.275 M395.093 386.115 C 403.552 389.094,410.517 396.161,413.912 405.210 C 416.703 412.651,416.074 422.693,412.342 430.270 C 409.077 436.897,403.720 442.078,396.800 445.300 C 392.801 447.162,390.908 447.485,384.000 447.485 C 377.092 447.485,375.199 447.162,371.200 445.300 C 364.280 442.078,358.923 436.897,355.658 430.270 C 351.899 422.640,351.294 412.657,354.132 405.092 C 359.133 391.761,371.828 383.434,385.707 384.383 C 388.757 384.592,392.981 385.371,395.093 386.115 " stroke="none" fill-rule="evenodd" fill="black"></path></svg>