<svg xmlns="http://www.w3.org/2000/svg" width="512" height="512" viewBox="0 0 512 512"><path d="M112.213 34.056 C 93.736 39.094,79.469 50.515,71.354 66.766 C 66.596 76.294,64.918 82.415,64.277 92.587 C 62.938 113.813,72.949 134.950,90.338 147.613 L 95.573 151.425 95.573 256.118 L 95.573 360.810 90.109 364.710 C 70.540 378.674,60.635 403.809,65.232 427.838 C 67.710 440.786,73.177 451.073,82.773 460.843 C 107.820 486.343,148.180 486.343,173.227 460.843 C 186.446 447.385,192.862 430.645,191.723 412.587 C 191.107 402.808,189.422 396.402,185.216 387.840 C 180.110 377.446,174.230 370.765,162.683 362.240 L 160.372 360.533 160.613 292.205 L 160.853 223.877 240.640 259.529 C 317.344 293.804,320.437 295.273,320.693 297.564 C 321.213 302.209,324.474 311.969,327.334 317.440 C 338.486 338.771,359.603 351.561,384.000 351.759 C 408.375 351.958,430.239 338.351,441.205 316.160 C 446.128 306.195,447.512 300.050,447.545 288.000 C 447.578 276.008,446.238 270.043,441.220 259.840 C 433.402 243.943,419.189 231.909,401.920 226.563 C 399.098 225.689,392.961 224.931,386.528 224.662 C 377.514 224.284,374.731 224.491,368.847 225.979 C 361.976 227.717,350.887 232.665,347.933 235.312 C 346.538 236.562,343.488 235.352,306.973 219.057 C 182.093 163.330,160.831 153.679,160.618 152.623 C 160.488 151.982,162.748 149.735,165.639 147.629 C 185.473 133.186,195.366 108.198,190.768 84.162 C 188.284 71.183,182.746 60.754,173.227 51.129 C 165.891 43.713,157.848 38.659,148.053 35.313 C 138.787 32.147,121.445 31.538,112.213 34.056 M139.093 66.115 C 147.552 69.094,154.517 76.161,157.912 85.210 C 160.703 92.651,160.074 102.693,156.342 110.270 C 153.077 116.897,147.720 122.078,140.800 125.300 C 136.801 127.162,134.908 127.485,128.000 127.485 C 121.092 127.485,119.199 127.162,115.200 125.300 C 108.280 122.078,102.923 116.897,99.658 110.270 C 95.899 102.640,95.294 92.657,98.132 85.092 C 103.133 71.761,115.828 63.434,129.707 64.383 C 132.757 64.592,136.981 65.371,139.093 66.115 M395.093 258.115 C 403.552 261.094,410.517 268.161,413.912 277.210 C 416.703 284.651,416.074 294.693,412.342 302.270 C 409.077 308.897,403.720 314.078,396.800 317.300 C 392.801 319.162,390.908 319.485,384.000 319.485 C 377.092 319.485,375.199 319.162,371.200 317.300 C 364.280 314.078,358.923 308.897,355.658 302.270 C 351.899 294.640,351.294 284.657,354.132 277.092 C 359.133 263.761,371.828 255.434,385.707 256.383 C 388.757 256.592,392.981 257.371,395.093 258.115 M139.093 386.115 C 147.552 389.094,154.517 396.161,157.912 405.210 C 160.703 412.651,160.074 422.693,156.342 430.270 C 153.077 436.897,147.720 442.078,140.800 445.300 C 136.801 447.162,134.908 447.485,128.000 447.485 C 121.092 447.485,119.199 447.162,115.200 445.300 C 108.280 442.078,102.923 436.897,99.658 430.270 C 95.899 422.640,95.294 412.657,98.132 405.092 C 103.133 391.761,115.828 383.434,129.707 384.383 C 132.757 384.592,136.981 385.371,139.093 386.115 " stroke="none" fill-rule="evenodd" fill="black"></path></svg>