<svg xmlns="http://www.w3.org/2000/svg" width="512" height="512" viewBox="0 0 512 512"><path d="M281.173 17.851 C 276.401 20.089,211.325 85.424,209.524 89.786 C 207.780 94.007,207.897 98.660,209.851 102.827 C 212.089 107.599,277.424 172.675,281.786 174.476 C 285.824 176.144,290.188 176.143,294.183 174.474 C 298.236 172.780,300.175 170.985,302.171 167.074 C 303.606 164.263,303.787 161.887,303.787 145.879 L 303.787 127.850 317.317 128.138 L 330.847 128.427 336.698 131.413 C 340.956 133.587,343.427 135.562,345.772 138.667 C 351.970 146.870,351.573 138.880,351.573 255.650 L 351.573 360.810 346.109 364.710 C 326.540 378.674,316.635 403.809,321.232 427.838 C 323.710 440.786,329.177 451.073,338.773 460.843 C 363.820 486.343,404.180 486.343,429.227 460.843 C 438.823 451.073,444.290 440.786,446.768 427.838 C 451.365 403.809,441.460 378.674,421.891 364.710 L 416.427 360.810 416.412 258.272 C 416.403 197.146,416.058 152.516,415.558 147.766 C 412.584 119.537,398.038 94.997,375.415 80.043 C 357.188 67.996,342.640 64.015,316.800 64.005 L 303.787 64.000 303.787 46.046 C 303.787 30.112,303.605 27.736,302.171 24.926 C 300.175 21.015,298.236 19.220,294.183 17.526 C 290.004 15.780,285.342 15.897,281.173 17.851 M111.827 34.139 C 87.834 40.597,69.880 59.873,65.232 84.162 C 60.627 108.231,70.491 133.160,90.338 147.613 L 95.573 151.425 95.573 256.118 L 95.573 360.810 90.109 364.710 C 70.540 378.674,60.635 403.809,65.232 427.838 C 67.710 440.786,73.177 451.073,82.773 460.843 C 107.820 486.343,148.180 486.343,173.227 460.843 C 182.823 451.073,188.290 440.786,190.768 427.838 C 195.365 403.809,185.460 378.674,165.891 364.710 L 160.427 360.810 160.427 256.118 L 160.427 151.425 165.662 147.613 C 182.979 135.002,192.835 114.509,191.715 93.440 C 191.134 82.521,189.558 76.602,184.573 66.622 C 177.358 52.176,164.139 40.866,147.967 35.300 C 142.197 33.314,139.568 32.940,129.707 32.704 C 120.239 32.476,117.053 32.732,111.827 34.139 M139.093 66.115 C 147.552 69.094,154.517 76.161,157.912 85.210 C 160.703 92.651,160.074 102.693,156.342 110.270 C 153.077 116.897,147.720 122.078,140.800 125.300 C 136.801 127.162,134.908 127.485,128.000 127.485 C 121.092 127.485,119.199 127.162,115.200 125.300 C 108.280 122.078,102.923 116.897,99.658 110.270 C 95.899 102.640,95.294 92.657,98.132 85.092 C 103.133 71.761,115.828 63.434,129.707 64.383 C 132.757 64.592,136.981 65.371,139.093 66.115 M139.093 386.115 C 147.552 389.094,154.517 396.161,157.912 405.210 C 160.703 412.651,160.074 422.693,156.342 430.270 C 153.077 436.897,147.720 442.078,140.800 445.300 C 136.801 447.162,134.908 447.485,128.000 447.485 C 121.092 447.485,119.199 447.162,115.200 445.300 C 108.280 442.078,102.923 436.897,99.658 430.270 C 95.899 422.640,95.294 412.657,98.132 405.092 C 103.133 391.761,115.828 383.434,129.707 384.383 C 132.757 384.592,136.981 385.371,139.093 386.115 M395.093 386.115 C 403.552 389.094,410.517 396.161,413.912 405.210 C 416.703 412.651,416.074 422.693,412.342 430.270 C 409.077 436.897,403.720 442.078,396.800 445.300 C 392.801 447.162,390.908 447.485,384.000 447.485 C 377.092 447.485,375.199 447.162,371.200 445.300 C 364.280 442.078,358.923 436.897,355.658 430.270 C 351.899 422.640,351.294 412.657,354.132 405.092 C 359.133 391.761,371.828 383.434,385.707 384.383 C 388.757 384.592,392.981 385.371,395.093 386.115 " stroke="none" fill-rule="evenodd" fill="black"></path></svg>