<svg xmlns="http://www.w3.org/2000/svg" width="512" height="512" viewBox="0 0 512 512"><path d="M148.480 32.961 C 147.307 33.184,143.888 34.139,140.884 35.083 C 123.950 40.405,110.510 51.979,102.848 67.840 C 97.941 77.999,96.190 85.405,96.190 96.000 C 96.190 106.589,97.933 113.963,102.871 124.269 C 107.015 132.916,115.893 143.283,123.680 148.566 L 127.956 151.467 127.978 256.070 L 128.000 360.673 123.947 363.303 C 119.683 366.070,111.668 373.831,107.861 378.880 C 104.499 383.338,99.373 394.725,97.682 401.493 C 95.722 409.340,95.713 422.604,97.664 430.507 C 99.611 438.396,105.648 450.736,110.300 456.338 C 116.183 463.421,123.515 469.147,131.840 473.160 C 142.010 478.061,149.415 479.810,160.000 479.810 C 170.584 479.810,177.989 478.062,188.160 473.161 C 210.056 462.610,223.774 440.593,223.774 416.000 C 223.774 399.493,218.024 384.861,206.885 373.021 C 203.304 369.213,198.472 364.867,196.149 363.361 C 193.317 361.526,192.008 360.128,192.176 359.117 C 192.314 358.288,226.987 327.547,269.227 290.805 L 346.027 224.000 353.520 223.820 C 371.954 223.377,388.646 215.255,401.339 200.554 C 406.253 194.863,412.327 182.673,414.318 174.507 C 416.227 166.673,416.227 153.327,414.318 145.493 C 408.690 122.407,390.350 103.875,367.437 98.122 C 359.105 96.030,346.305 95.879,337.662 97.772 C 325.087 100.525,311.692 108.837,302.405 119.650 C 297.713 125.113,291.675 137.355,289.659 145.493 C 287.529 154.092,287.744 167.514,290.145 175.787 C 291.166 179.307,292.061 183.011,292.134 184.020 C 292.237 185.442,282.328 194.499,247.893 224.458 C 223.488 245.692,200.928 265.354,197.760 268.153 L 192.000 273.242 192.022 212.355 L 192.044 151.467 196.320 148.566 C 204.107 143.283,212.985 132.916,217.129 124.269 C 222.031 114.039,223.774 106.625,223.774 96.000 C 223.774 68.108,206.216 44.064,179.200 34.957 C 174.825 33.482,171.221 33.032,162.133 32.822 C 155.797 32.675,149.653 32.738,148.480 32.961 M173.005 66.962 C 179.522 69.933,186.143 76.558,189.145 83.111 C 191.192 87.580,191.532 89.411,191.539 96.000 C 191.545 102.614,191.217 104.391,189.172 108.800 C 186.060 115.511,179.487 122.116,172.889 125.166 C 168.395 127.243,166.625 127.573,160.000 127.573 C 153.378 127.573,151.615 127.244,147.200 125.185 C 140.457 122.040,133.873 115.476,130.855 108.889 C 128.808 104.420,128.468 102.589,128.461 96.000 C 128.455 89.385,128.783 87.610,130.829 83.200 C 134.902 74.422,143.511 67.150,152.530 64.872 C 158.007 63.488,167.516 64.459,173.005 66.962 M365.005 130.962 C 371.522 133.933,378.143 140.558,381.145 147.111 C 383.192 151.580,383.532 153.411,383.539 160.000 C 383.545 166.614,383.217 168.391,381.172 172.800 C 378.060 179.511,371.487 186.116,364.889 189.166 C 360.395 191.243,358.625 191.573,352.000 191.573 C 345.378 191.573,343.615 191.244,339.200 189.185 C 332.457 186.040,325.873 179.476,322.855 172.889 C 320.808 168.420,320.468 166.589,320.461 160.000 C 320.455 153.385,320.783 151.610,322.829 147.200 C 326.902 138.422,335.511 131.150,344.530 128.872 C 350.007 127.488,359.516 128.459,365.005 130.962 M173.005 386.962 C 179.522 389.933,186.143 396.558,189.145 403.111 C 191.192 407.580,191.532 409.411,191.539 416.000 C 191.545 422.614,191.217 424.391,189.172 428.800 C 186.060 435.511,179.487 442.116,172.889 445.166 C 168.395 447.243,166.625 447.573,160.000 447.573 C 153.378 447.573,151.615 447.244,147.200 445.185 C 140.457 442.040,133.873 435.476,130.855 428.889 C 128.808 424.420,128.468 422.589,128.461 416.000 C 128.455 409.385,128.783 407.610,130.829 403.200 C 134.902 394.422,143.511 387.150,152.530 384.872 C 158.007 383.488,167.516 384.459,173.005 386.962 " stroke="none" fill-rule="evenodd" fill="black"></path></svg>