<svg xmlns="http://www.w3.org/2000/svg" width="512" height="512" viewBox="0 0 512 512"><path d="M237.983 145.556 C 203.383 150.965,171.034 174.960,155.598 206.664 C 150.816 216.486,148.285 224.217,145.533 237.408 L 145.050 239.723 94.072 239.968 L 43.093 240.213 39.484 242.560 C 29.758 248.883,29.975 263.631,39.886 269.792 L 43.093 271.787 94.070 272.026 L 145.047 272.265 145.531 274.586 C 150.916 300.384,160.147 318.075,177.036 334.964 C 192.845 350.773,211.770 361.047,233.842 365.803 C 244.004 367.993,267.996 367.993,278.158 365.803 C 312.198 358.469,340.865 336.377,356.212 305.653 C 361.013 296.040,363.670 287.992,366.469 274.586 L 366.953 272.265 417.930 272.026 L 468.907 271.787 472.114 269.792 C 482.362 263.421,482.169 248.294,471.764 242.337 L 468.053 240.213 417.503 239.974 L 366.953 239.735 366.468 237.414 C 362.618 218.965,357.914 207.370,348.565 193.280 C 331.993 168.305,303.107 150.051,272.874 145.449 C 263.170 143.971,247.818 144.019,237.983 145.556 M272.497 178.010 C 291.912 181.700,310.980 194.454,322.076 211.169 C 326.359 217.622,331.499 228.773,333.153 235.201 C 336.408 247.846,336.416 263.992,333.176 276.799 C 331.349 284.018,324.420 297.975,319.343 304.660 C 308.336 319.154,292.756 329.170,273.920 333.861 C 268.473 335.217,264.010 335.667,256.000 335.667 C 224.533 335.667,198.115 319.050,184.288 290.560 C 177.630 276.840,175.160 263.063,176.696 248.215 C 177.831 237.242,179.534 231.236,184.288 221.440 C 192.985 203.521,204.746 191.976,222.983 183.457 C 238.367 176.272,254.191 174.531,272.497 178.010 " stroke="none" fill="black" fill-rule="evenodd"></path></svg>