<svg xmlns="http://www.w3.org/2000/svg" width="512" height="512" viewBox="0 0 512 512"><path d="M112.055 34.075 C 90.191 39.994,73.324 56.308,66.556 78.080 C 64.035 86.189,63.388 99.888,65.137 108.099 C 67.919 121.153,73.365 131.265,82.773 140.843 C 93.671 151.938,105.967 157.707,123.117 159.772 L 132.102 160.853 177.838 213.039 L 223.573 265.226 223.573 313.018 L 223.573 360.810 218.109 364.710 C 198.540 378.674,188.635 403.809,193.232 427.838 C 195.710 440.786,201.177 451.073,210.773 460.843 C 235.820 486.343,276.180 486.343,301.227 460.843 C 310.823 451.073,316.290 440.786,318.768 427.838 C 323.365 403.809,313.460 378.674,293.891 364.710 L 288.427 360.810 288.427 312.447 L 288.427 264.084 334.082 212.042 C 359.192 183.419,380.168 160.112,380.694 160.248 C 383.029 160.855,398.177 158.533,404.045 156.670 C 423.661 150.440,438.992 134.489,445.562 113.472 C 448.411 104.357,448.399 87.796,445.537 78.507 C 440.127 60.946,428.134 46.568,412.540 38.947 C 403.068 34.318,398.246 33.153,386.528 32.662 C 377.461 32.282,374.745 32.488,368.714 34.013 C 350.154 38.706,335.247 50.736,326.795 67.840 C 321.657 78.238,320.419 83.915,320.470 96.853 C 320.510 107.063,320.732 108.584,323.261 115.941 L 326.008 123.935 322.257 128.314 C 320.194 130.723,304.318 148.861,286.976 168.622 L 255.445 204.552 220.430 164.516 L 185.415 124.481 187.366 119.627 C 192.170 107.680,193.153 92.249,189.904 79.787 C 184.457 58.890,167.272 41.219,145.920 34.559 C 138.465 32.234,119.840 31.967,112.055 34.075 M139.093 66.115 C 147.552 69.094,154.517 76.161,157.912 85.210 C 160.703 92.651,160.074 102.693,156.342 110.270 C 153.077 116.897,147.720 122.078,140.800 125.300 C 136.801 127.162,134.908 127.485,128.000 127.485 C 121.092 127.485,119.199 127.162,115.200 125.300 C 108.280 122.078,102.923 116.897,99.658 110.270 C 95.899 102.640,95.294 92.657,98.132 85.092 C 103.133 71.761,115.828 63.434,129.707 64.383 C 132.757 64.592,136.981 65.371,139.093 66.115 M395.093 66.115 C 403.552 69.094,410.517 76.161,413.912 85.210 C 416.703 92.651,416.074 102.693,412.342 110.270 C 409.077 116.897,403.720 122.078,396.800 125.300 C 392.801 127.162,390.908 127.485,384.000 127.485 C 377.092 127.485,375.199 127.162,371.200 125.300 C 364.280 122.078,358.923 116.897,355.658 110.270 C 351.899 102.640,351.294 92.657,354.132 85.092 C 359.133 71.761,371.828 63.434,385.707 64.383 C 388.757 64.592,392.981 65.371,395.093 66.115 M267.093 386.115 C 275.552 389.094,282.517 396.161,285.912 405.210 C 288.703 412.651,288.074 422.693,284.342 430.270 C 281.077 436.897,275.720 442.078,268.800 445.300 C 264.801 447.162,262.908 447.485,256.000 447.485 C 249.092 447.485,247.199 447.162,243.200 445.300 C 236.280 442.078,230.923 436.897,227.658 430.270 C 223.899 422.640,223.294 412.657,226.132 405.092 C 231.133 391.761,243.828 383.434,257.707 384.383 C 260.757 384.592,264.981 385.371,267.093 386.115 " stroke="none" fill-rule="evenodd" fill="black"></path></svg>