<svg xmlns="http://www.w3.org/2000/svg" width="512" height="512" viewBox="0 0 512 512"><path d="M243.627 128.503 C 224.071 131.308,211.670 135.056,197.201 142.535 C 167.877 157.692,145.891 183.229,134.869 214.935 L 131.718 224.000 93.379 224.427 L 55.040 224.853 50.318 227.172 C 44.415 230.071,38.142 236.266,35.369 241.935 C 25.931 261.225,37.937 284.079,59.350 287.586 C 62.142 288.043,79.625 288.419,98.200 288.422 L 131.974 288.427 134.643 296.506 C 147.370 335.034,178.183 365.555,216.747 377.833 C 232.108 382.724,237.826 383.558,256.000 383.558 C 274.174 383.558,279.892 382.724,295.253 377.833 C 333.929 365.520,364.592 335.149,377.354 296.514 L 380.026 288.427 413.800 288.422 C 432.375 288.419,449.858 288.043,452.650 287.586 C 474.063 284.079,486.069 261.225,476.631 241.935 C 473.858 236.266,467.585 230.071,461.682 227.172 L 456.960 224.853 418.620 224.427 L 380.279 224.000 377.140 214.853 C 366.199 182.967,344.131 157.517,314.110 142.161 C 296.116 132.956,280.339 129.008,259.413 128.473 C 252.139 128.287,245.035 128.301,243.627 128.503 M272.135 194.065 C 279.311 196.032,290.022 201.538,295.956 206.309 C 310.490 217.998,320.000 237.652,320.000 256.000 C 320.000 280.841,303.532 305.484,280.617 314.933 C 248.515 328.171,213.130 314.384,198.352 282.880 C 193.535 272.612,192.445 267.649,192.445 256.000 C 192.445 244.351,193.535 239.388,198.352 229.120 C 207.282 210.083,224.790 196.583,245.397 192.846 C 251.097 191.812,266.471 192.513,272.135 194.065 " stroke="none" fill-rule="evenodd" fill="black"></path></svg>