<svg xmlns="http://www.w3.org/2000/svg" width="512" height="512" viewBox="0 0 512 512"><path d="M147.191 33.242 C 98.454 43.673,79.422 103.164,113.302 139.178 C 116.781 142.876,121.511 147.123,123.813 148.615 L 128.000 151.327 128.000 256.000 L 128.000 360.673 123.813 363.385 C 121.511 364.877,116.696 369.213,113.115 373.021 C 101.976 384.861,96.226 399.493,96.226 416.000 C 96.226 440.472,110.107 462.770,131.816 473.171 C 142.062 478.079,149.436 479.813,160.000 479.798 C 170.770 479.782,178.317 478.014,188.160 473.199 C 201.580 466.634,210.699 457.500,217.148 444.160 C 219.191 439.936,221.525 433.792,222.335 430.507 C 224.307 422.515,224.307 409.280,222.337 401.493 C 220.619 394.706,215.486 383.320,212.142 378.880 C 208.473 374.009,199.990 365.762,196.318 363.496 C 192.227 360.972,191.966 359.062,194.860 352.847 C 200.126 341.538,213.497 335.836,256.000 326.774 C 307.342 315.827,325.200 309.141,346.027 293.068 C 367.825 276.245,380.431 252.040,383.554 221.013 C 384.103 215.561,384.182 215.419,388.191 212.678 C 392.577 209.680,400.485 201.965,404.139 197.120 C 407.502 192.660,412.627 181.273,414.316 174.507 C 416.268 166.691,416.261 153.427,414.301 145.493 C 409.683 126.798,397.093 111.076,380.160 102.858 C 370.557 98.197,362.655 96.427,351.459 96.427 C 341.070 96.427,334.120 97.965,324.693 102.351 C 311.537 108.473,301.204 118.683,294.848 131.840 C 289.977 141.924,288.226 149.370,288.226 160.000 C 288.226 181.284,298.145 200.064,316.216 212.997 L 319.685 215.480 318.677 221.462 C 316.134 236.556,306.722 245.838,286.720 252.980 C 278.592 255.882,261.874 260.074,240.640 264.535 C 222.062 268.438,208.364 271.926,198.891 275.166 C 195.406 276.358,192.430 277.333,192.277 277.333 C 192.125 277.333,192.000 248.917,192.000 214.187 C 192.000 179.456,192.298 151.040,192.663 151.040 C 194.091 151.040,204.796 141.807,208.987 136.960 C 214.197 130.935,220.258 118.924,222.336 110.507 C 223.236 106.858,223.810 101.212,223.810 96.000 C 223.810 85.413,222.061 78.008,217.159 67.840 C 209.549 52.058,196.731 40.966,179.172 34.972 C 174.813 33.484,171.232 33.027,162.133 32.799 C 155.797 32.640,149.073 32.839,147.191 33.242 M173.005 66.962 C 179.522 69.933,186.143 76.558,189.145 83.111 C 191.192 87.580,191.532 89.411,191.539 96.000 C 191.545 102.614,191.217 104.391,189.172 108.800 C 186.060 115.511,179.487 122.116,172.889 125.166 C 168.395 127.243,166.625 127.573,160.000 127.573 C 153.378 127.573,151.615 127.244,147.200 125.185 C 140.457 122.040,133.873 115.476,130.855 108.889 C 128.808 104.420,128.468 102.589,128.461 96.000 C 128.455 89.385,128.783 87.610,130.829 83.200 C 134.902 74.422,143.511 67.150,152.530 64.872 C 158.007 63.488,167.516 64.459,173.005 66.962 M365.005 130.962 C 371.522 133.933,378.143 140.558,381.145 147.111 C 383.192 151.580,383.532 153.411,383.539 160.000 C 383.545 166.614,383.217 168.391,381.172 172.800 C 378.060 179.511,371.487 186.116,364.889 189.166 C 360.395 191.243,358.625 191.573,352.000 191.573 C 345.378 191.573,343.615 191.244,339.200 189.185 C 332.457 186.040,325.873 179.476,322.855 172.889 C 320.808 168.420,320.468 166.589,320.461 160.000 C 320.455 153.385,320.783 151.610,322.829 147.200 C 326.902 138.422,335.511 131.150,344.530 128.872 C 350.007 127.488,359.516 128.459,365.005 130.962 M173.005 386.962 C 179.522 389.933,186.143 396.558,189.145 403.111 C 191.192 407.580,191.532 409.411,191.539 416.000 C 191.545 422.614,191.217 424.391,189.172 428.800 C 186.060 435.511,179.487 442.116,172.889 445.166 C 168.395 447.243,166.625 447.573,160.000 447.573 C 153.378 447.573,151.615 447.244,147.200 445.185 C 140.457 442.040,133.873 435.476,130.855 428.889 C 128.808 424.420,128.468 422.589,128.461 416.000 C 128.455 409.385,128.783 407.610,130.829 403.200 C 134.902 394.422,143.511 387.150,152.530 384.872 C 158.007 383.488,167.516 384.459,173.005 386.962 " stroke="none" fill-rule="evenodd" fill="black"></path></svg>