<svg xmlns="http://www.w3.org/2000/svg" width="512" height="512" viewBox="0 0 512 512"><path d="M117.360 169.064 C 96.900 170.632,77.817 174.970,64.949 180.978 C 58.546 183.967,57.088 184.320,51.137 184.320 C 43.342 184.320,40.687 185.160,36.883 188.829 C 28.243 197.164,32.202 212.079,43.884 215.203 L 47.686 216.220 48.132 221.390 C 48.377 224.234,48.802 231.168,49.076 236.800 C 50.036 256.516,53.283 275.674,58.062 289.811 C 70.690 327.169,97.280 343.893,144.048 343.893 C 163.120 343.893,176.112 341.709,189.236 336.297 C 206.334 329.247,220.391 314.482,227.897 295.690 C 233.239 282.317,235.420 271.314,239.371 237.804 C 240.081 231.785,241.219 225.783,241.900 224.465 C 246.004 216.528,257.229 213.720,264.706 218.759 C 270.718 222.810,271.629 225.806,273.947 249.173 C 276.677 276.697,282.515 296.421,292.272 311.085 C 303.043 327.272,318.225 336.931,340.480 341.754 C 350.579 343.943,377.000 344.445,388.999 342.676 C 426.307 337.177,447.542 317.480,456.899 279.693 C 460.488 265.201,463.350 242.934,463.357 229.452 C 463.359 226.350,463.595 222.098,463.882 220.004 C 464.382 216.356,464.561 216.154,468.161 215.191 C 476.187 213.045,481.200 204.809,479.396 196.735 C 478.411 192.325,476.965 190.140,473.053 187.157 C 470.235 185.007,469.024 184.710,461.302 184.268 C 453.735 183.836,451.919 183.405,446.293 180.710 C 429.530 172.677,401.259 168.116,368.213 168.112 C 329.768 168.108,298.111 174.213,282.121 184.716 L 276.443 188.445 271.555 186.622 C 264.483 183.986,247.517 183.986,240.445 186.622 L 235.557 188.445 229.879 184.716 C 210.273 171.838,164.413 165.459,117.360 169.064 " stroke="none" fill-rule="evenodd" fill="black"></path></svg>