<svg xmlns="http://www.w3.org/2000/svg" width="512" height="512" viewBox="0 0 512 512"><path d="M16.213 207.787 L 16.213 239.787 26.676 239.787 L 37.139 239.787 43.297 295.303 C 46.683 325.837,49.678 351.181,49.951 351.623 C 50.583 352.646,220.734 352.716,221.365 351.694 C 221.789 351.009,238.949 248.665,240.200 239.360 C 241.439 230.149,247.493 224.427,256.000 224.427 C 264.507 224.427,270.561 230.149,271.800 239.360 C 273.051 248.665,290.211 351.009,290.635 351.694 C 291.266 352.716,461.417 352.646,462.049 351.623 C 462.322 351.181,465.317 325.837,468.703 295.303 L 474.861 239.787 485.324 239.787 L 495.787 239.787 495.787 207.787 L 495.787 175.787 256.000 175.787 L 16.213 175.787 16.213 207.787 " stroke="none" fill-rule="evenodd" fill="black"></path></svg>