<svg xmlns="http://www.w3.org/2000/svg" width="512" height="512" viewBox="0 0 512 512"><path d="M117.360 169.064 C 96.900 170.632,77.817 174.970,64.949 180.978 C 58.546 183.967,57.088 184.320,51.137 184.320 C 43.565 184.320,40.704 185.167,37.257 188.428 C 32.374 193.048,30.972 199.087,33.210 205.866 C 34.562 209.963,40.138 214.751,44.395 215.470 L 47.665 216.023 48.126 221.291 C 48.379 224.189,48.815 231.168,49.094 236.800 C 51.684 289.028,66.273 320.440,94.293 334.115 C 109.477 341.525,126.400 344.433,149.664 343.629 C 189.350 342.257,211.879 329.397,225.667 300.247 C 232.420 285.971,235.166 273.487,239.305 238.253 C 240.038 232.012,241.201 225.818,241.888 224.488 C 246.004 216.528,257.219 213.713,264.706 218.759 C 270.690 222.791,271.708 226.093,273.953 248.747 C 277.532 284.862,286.747 308.777,302.730 323.433 C 317.257 336.753,334.733 342.674,362.336 343.629 C 418.041 345.555,447.352 324.401,458.171 274.463 C 460.443 263.981,462.285 249.327,462.906 236.800 C 463.185 231.168,463.621 224.189,463.874 221.291 L 464.335 216.023 467.605 215.470 C 471.862 214.751,477.438 209.963,478.790 205.866 C 481.028 199.087,479.626 193.048,474.743 188.428 C 471.296 185.167,468.435 184.320,460.863 184.320 C 454.910 184.320,453.456 183.968,447.051 180.975 C 429.140 172.605,401.611 168.114,368.213 168.114 C 328.753 168.114,295.837 174.677,280.677 185.569 L 276.627 188.478 272.073 186.635 C 268.188 185.063,265.830 184.792,256.000 184.792 C 246.170 184.792,243.812 185.063,239.927 186.635 L 235.373 188.478 231.323 185.569 C 219.711 177.226,196.110 170.992,168.533 168.984 C 154.795 167.983,130.981 168.021,117.360 169.064 M173.047 201.426 C 186.934 202.922,203.855 206.625,206.981 208.852 C 208.210 209.727,207.034 238.860,205.193 253.150 C 200.674 288.228,190.791 303.727,169.387 309.308 C 160.528 311.618,144.651 312.623,133.784 311.562 C 116.101 309.835,106.570 306.178,99.061 298.239 C 87.632 286.155,81.334 260.236,80.834 223.240 L 80.640 208.826 85.333 207.216 C 91.509 205.097,104.645 202.443,113.585 201.509 C 123.896 200.431,163.302 200.376,173.047 201.426 M409.173 202.971 C 414.336 203.922,421.440 205.608,424.960 206.718 L 431.360 208.735 431.206 221.914 C 431.022 237.770,429.708 252.435,427.392 264.513 C 422.206 291.551,412.362 304.370,392.987 309.317 C 379.381 312.790,355.954 312.786,342.613 309.308 C 321.246 303.736,311.325 288.214,306.829 253.321 C 304.952 238.753,303.751 209.707,304.990 208.852 C 307.997 206.777,321.734 203.586,335.360 201.797 C 349.532 199.936,396.777 200.687,409.173 202.971 " stroke="none" fill-rule="evenodd" fill="black"></path></svg>