<svg xmlns="http://www.w3.org/2000/svg" width="512" height="512" viewBox="0 0 512 512"><path d="M246.613 26.117 C 214.086 28.839,195.233 32.843,172.169 41.926 C 99.671 70.478,47.200 132.551,30.816 209.148 C 24.678 237.840,24.678 274.160,30.816 302.852 C 48.754 386.712,110.525 453.399,192.000 476.862 C 227.765 487.162,267.570 488.716,302.852 481.189 C 379.996 464.733,443.165 410.826,470.942 337.746 C 486.308 297.319,490.031 250.597,481.189 209.148 C 460.211 110.808,379.188 37.648,279.893 27.389 C 270.048 26.372,251.870 25.677,246.613 26.117 M233.813 109.637 L 233.813 141.621 229.760 141.148 C 222.164 140.263,206.952 137.305,198.659 135.101 L 190.384 132.901 193.824 126.060 C 203.210 107.391,216.346 90.269,228.007 81.504 C 230.824 79.386,233.283 77.653,233.471 77.653 C 233.659 77.653,233.813 92.046,233.813 109.637 M286.702 83.679 C 296.983 92.235,308.365 107.381,317.191 124.252 L 321.704 132.878 313.385 135.089 C 305.055 137.303,289.851 140.261,282.240 141.148 L 278.187 141.621 278.187 109.607 C 278.187 72.897,277.233 75.800,286.702 83.679 M154.453 106.667 C 152.098 111.360,149.939 115.200,149.654 115.200 C 149.370 115.200,147.264 114.180,144.974 112.934 C 141.557 111.074,140.992 110.450,141.823 109.449 C 143.124 107.882,157.078 98.133,158.021 98.133 C 158.414 98.133,156.809 101.973,154.453 106.667 M361.930 103.182 C 372.049 110.242,372.032 110.209,367.026 112.934 C 364.736 114.180,362.630 115.200,362.346 115.200 C 362.061 115.200,359.902 111.360,357.547 106.667 C 355.191 101.973,353.586 98.133,353.979 98.133 C 354.373 98.133,357.950 100.405,361.930 103.182 M117.075 147.504 C 121.441 150.252,126.741 153.371,128.853 154.434 C 134.899 157.477,134.867 157.422,133.439 162.228 C 131.441 168.956,127.251 188.762,125.816 198.258 C 124.439 207.375,122.051 228.617,122.036 231.893 L 122.027 233.813 96.853 233.813 L 71.680 233.813 71.680 231.736 C 71.680 227.410,76.239 207.382,79.463 197.547 C 82.885 187.106,90.520 170.364,96.147 160.959 C 99.602 155.185,108.305 142.507,108.814 142.507 C 108.992 142.507,112.709 144.755,117.075 147.504 M409.808 151.529 C 417.697 163.041,428.173 184.185,432.409 197.146 C 435.745 207.351,440.320 227.358,440.320 231.736 L 440.320 233.813 415.147 233.813 L 389.973 233.813 389.964 231.893 C 389.949 228.617,387.561 207.375,386.184 198.258 C 384.749 188.762,380.559 168.956,378.561 162.228 C 377.098 157.302,376.649 157.888,385.707 152.898 C 389.227 150.959,394.411 147.860,397.227 146.011 C 400.043 144.162,402.719 142.741,403.175 142.854 C 403.631 142.967,406.616 146.871,409.808 151.529 M184.947 177.103 C 194.323 179.823,210.539 183.100,220.587 184.306 C 224.811 184.813,229.515 185.425,231.040 185.666 L 233.813 186.104 233.813 209.959 L 233.813 233.813 200.006 233.813 L 166.198 233.813 166.783 226.347 C 167.845 212.797,173.732 178.516,175.502 175.573 C 176.075 174.621,176.792 174.737,184.947 177.103 M336.516 175.585 C 338.174 178.269,344.198 213.421,345.215 226.347 L 345.802 233.813 311.994 233.813 L 278.187 233.813 278.187 209.959 L 278.187 186.104 280.960 185.683 C 282.485 185.451,288.341 184.649,293.973 183.900 C 305.135 182.416,320.838 179.116,328.423 176.659 C 333.824 174.910,335.926 174.631,336.516 175.585 M122.036 280.107 C 122.051 283.383,124.439 304.625,125.816 313.742 C 127.251 323.238,131.441 343.044,133.439 349.772 C 134.895 354.674,135.299 354.129,126.720 358.839 C 123.435 360.642,118.103 363.808,114.872 365.873 C 110.009 368.982,108.808 369.434,107.897 368.495 C 107.292 367.871,104.234 363.520,101.103 358.827 C 93.365 347.230,83.730 327.518,79.553 314.739 C 76.249 304.628,71.680 284.623,71.680 280.264 L 71.680 278.187 96.853 278.187 L 122.027 278.187 122.036 280.107 M233.613 302.267 L 233.387 326.346 224.427 327.358 C 211.801 328.783,201.187 330.742,189.612 333.785 C 174.519 337.753,175.721 338.175,173.433 328.107 C 170.869 316.829,167.582 295.925,166.826 286.080 L 166.219 278.187 200.029 278.187 L 233.840 278.187 233.613 302.267 M345.215 285.653 C 344.061 300.327,337.973 334.718,336.208 336.538 C 335.791 336.968,332.080 336.326,327.526 335.035 C 316.996 332.051,299.618 328.691,288.000 327.392 L 278.613 326.342 278.387 302.264 L 278.160 278.187 311.981 278.187 L 345.802 278.187 345.215 285.653 M440.320 280.264 C 440.320 284.623,435.751 304.628,432.447 314.739 C 428.270 327.518,418.635 347.230,410.897 358.827 C 407.766 363.520,404.708 367.871,404.103 368.495 C 403.192 369.434,401.991 368.982,397.128 365.873 C 393.897 363.808,388.565 360.642,385.280 358.839 C 376.701 354.129,377.105 354.674,378.561 349.772 C 380.559 343.044,384.749 323.238,386.184 313.742 C 387.561 304.625,389.949 283.383,389.964 280.107 L 389.973 278.187 415.147 278.187 L 440.320 278.187 440.320 280.264 M233.813 402.377 C 233.813 439.106,234.767 436.200,225.298 428.321 C 215.017 419.765,203.635 404.619,194.809 387.748 L 190.296 379.122 198.615 376.900 C 206.368 374.829,222.702 371.683,229.547 370.943 C 231.189 370.765,232.821 370.558,233.173 370.483 C 233.525 370.408,233.813 384.760,233.813 402.377 M295.253 373.008 C 300.651 373.927,308.810 375.678,313.385 376.900 L 321.704 379.122 317.191 387.748 C 308.365 404.619,296.983 419.765,286.702 428.321 C 277.234 436.200,278.187 439.094,278.187 402.458 L 278.187 370.509 281.813 370.923 C 283.808 371.151,289.856 372.089,295.253 373.008 M154.446 405.318 C 156.796 410.003,158.720 414.056,158.720 414.325 C 158.720 414.594,155.360 412.486,151.253 409.640 C 141.749 403.055,140.416 402.020,140.862 401.574 C 141.591 400.846,148.924 396.820,149.539 396.810 C 149.887 396.805,152.095 400.633,154.446 405.318 M365.901 398.474 C 371.699 401.539,371.829 401.691,369.916 403.160 C 365.436 406.599,353.280 414.757,353.280 414.325 C 353.280 413.429,361.822 396.800,362.282 396.800 C 362.531 396.800,364.159 397.553,365.901 398.474 " stroke="none" fill-rule="evenodd" fill="black"></path></svg>