<svg xmlns="http://www.w3.org/2000/svg" width="512" height="512" viewBox="0 0 512 512"><path d="M235.947 32.121 C 215.118 34.495,202.444 37.042,187.123 41.933 C 153.186 52.767,122.302 71.615,96.959 96.959 C 45.131 148.786,22.286 221.012,34.642 293.973 C 42.175 338.453,64.482 381.147,97.285 413.867 C 143.943 460.406,203.705 483.495,269.227 480.296 C 342.739 476.707,410.943 435.346,449.266 371.115 C 476.276 325.844,486.420 271.351,477.526 219.307 C 466.372 154.047,427.068 97.137,369.379 62.717 C 342.461 46.656,311.652 36.352,279.893 32.788 C 270.499 31.733,243.006 31.316,235.947 32.121 M272.213 64.871 C 291.758 66.901,307.667 70.785,325.475 77.874 L 336.497 82.261 341.504 89.984 C 344.258 94.231,348.814 102.211,351.627 107.716 C 354.440 113.222,357.524 118.145,358.480 118.656 C 360.362 119.663,363.036 118.525,373.260 112.366 C 377.851 109.600,378.467 109.436,380.086 110.552 C 383.104 112.632,401.067 130.843,401.067 131.823 C 401.067 132.825,388.458 140.900,377.742 146.763 C 374.065 148.774,370.851 150.958,370.598 151.616 C 370.346 152.273,371.899 159.997,374.051 168.779 C 376.202 177.561,378.732 189.355,379.673 194.987 C 381.486 205.837,384.000 228.216,384.000 233.509 C 384.000 239.949,383.157 239.787,416.586 239.787 C 444.127 239.787,446.393 239.898,446.960 241.280 C 447.759 243.225,447.759 268.775,446.960 270.720 C 446.393 272.102,444.134 272.213,416.734 272.213 C 383.710 272.213,384.000 272.163,384.000 277.917 C 384.000 290.473,378.818 323.823,373.572 345.031 C 370.936 355.686,370.247 359.763,370.902 360.818 C 371.388 361.600,375.284 364.160,379.559 366.507 C 388.706 371.527,401.920 379.917,401.920 380.705 C 401.920 381.870,380.336 402.773,379.133 402.773 C 378.435 402.773,376.844 402.051,375.598 401.167 C 374.353 400.284,370.762 398.200,367.619 396.536 C 358.525 391.721,358.323 391.857,348.905 409.075 C 346.110 414.184,342.004 421.096,339.779 424.435 C 335.062 431.515,332.430 433.057,315.501 438.656 C 277.909 451.089,233.754 451.078,196.512 438.627 C 181.092 433.471,177.047 431.408,174.191 427.243 C 169.827 420.880,164.818 412.361,160.823 404.512 C 154.720 392.518,152.193 391.754,140.962 398.508 C 137.062 400.854,133.414 402.764,132.855 402.753 C 131.543 402.726,120.242 392.686,114.295 386.263 L 109.675 381.274 111.958 379.310 C 114.322 377.277,129.354 368.108,137.124 363.961 C 139.560 362.660,141.720 361.164,141.922 360.637 C 142.125 360.109,140.827 353.970,139.038 346.995 C 133.888 326.912,129.909 302.832,128.404 282.634 C 128.021 277.492,127.376 274.271,126.566 273.461 C 125.519 272.414,120.524 272.213,95.486 272.213 C 67.876 272.213,65.607 272.102,65.040 270.720 C 64.703 269.899,64.427 262.973,64.427 255.329 C 64.427 243.903,64.654 241.287,65.707 240.622 C 66.449 240.153,79.438 239.807,96.610 239.800 C 123.943 239.788,126.295 239.671,127.028 238.293 C 127.466 237.472,128.264 231.808,128.802 225.707 C 130.647 204.807,134.892 180.376,139.885 161.928 C 142.864 150.922,143.045 151.314,132.267 145.413 C 123.273 140.488,110.090 132.053,110.084 131.219 C 110.078 130.351,128.384 112.133,130.953 110.450 C 132.986 109.118,133.312 109.218,140.585 113.416 C 149.685 118.667,152.624 118.985,156.244 115.110 C 157.606 113.652,158.720 112.073,158.720 111.600 C 158.720 110.400,166.580 96.518,171.928 88.271 L 176.388 81.395 186.540 77.407 C 214.460 66.439,244.700 62.014,272.213 64.871 M228.686 73.528 C 215.771 81.817,198.554 103.012,188.835 122.591 C 185.171 129.972,185.004 130.600,186.213 132.437 C 187.149 133.860,189.472 134.932,194.659 136.335 C 205.585 139.290,216.323 141.472,226.615 142.830 C 234.720 143.899,236.199 143.900,237.867 142.838 L 239.787 141.614 239.787 106.677 C 239.787 73.009,239.727 71.708,238.136 70.857 C 235.545 69.470,234.588 69.741,228.686 73.528 M273.554 71.314 C 272.379 72.489,272.213 76.928,272.213 107.135 L 272.213 141.614 274.133 142.838 C 277.070 144.710,292.483 142.535,313.592 137.271 C 323.584 134.780,326.827 133.202,326.827 130.833 C 326.827 129.067,321.293 118.333,315.687 109.227 C 306.289 93.960,294.604 81.066,283.364 73.561 C 277.551 69.679,275.630 69.239,273.554 71.314 M172.922 164.926 C 170.235 166.890,164.400 193.991,161.763 216.747 C 160.164 230.549,160.067 237.379,161.451 238.763 C 162.924 240.236,237.289 240.236,238.763 238.763 C 240.378 237.148,240.216 178.912,238.592 177.564 C 237.935 177.019,233.807 176.178,229.419 175.696 C 218.030 174.444,201.847 171.183,187.477 167.243 C 180.651 165.371,174.918 163.840,174.736 163.840 C 174.555 163.840,173.738 164.329,172.922 164.926 M325.547 166.960 C 312.929 170.542,293.221 174.555,282.581 175.708 C 278.193 176.184,274.065 177.019,273.408 177.564 C 271.784 178.912,271.622 237.148,273.237 238.763 C 274.003 239.528,283.795 239.787,312.044 239.787 L 349.827 239.787 351.052 237.867 C 352.049 236.305,352.133 234.356,351.505 227.413 C 348.974 199.462,342.296 166.579,338.768 164.691 C 336.816 163.646,337.829 163.472,325.547 166.960 M161.451 273.237 C 160.069 274.619,160.164 281.458,161.755 295.135 C 163.973 314.191,169.553 341.414,172.056 345.387 C 173.570 347.790,176.158 347.836,183.467 345.588 C 192.213 342.899,211.842 339.031,224.427 337.517 C 230.763 336.755,236.811 335.774,237.867 335.337 L 239.787 334.543 239.787 304.402 C 239.787 282.097,239.520 273.995,238.763 273.237 C 237.289 271.764,162.924 271.764,161.451 273.237 M273.237 273.237 C 272.480 273.994,272.213 281.969,272.213 303.825 C 272.213 330.926,272.338 333.495,273.707 334.665 C 274.652 335.474,279.581 336.466,287.147 337.370 C 300.857 339.008,316.242 342.003,327.053 345.138 C 336.304 347.820,338.380 347.860,339.961 345.387 C 342.633 341.205,348.836 310.269,350.697 291.840 C 351.195 286.912,351.772 281.311,351.979 279.393 C 352.224 277.125,351.904 275.260,351.063 274.059 C 349.770 272.214,349.752 272.213,312.016 272.213 C 283.789 272.213,274.003 272.472,273.237 273.237 M228.267 369.210 C 214.860 370.857,189.235 376.426,187.167 378.143 C 185.078 379.876,185.983 384.293,189.942 391.680 C 198.973 408.530,210.629 423.719,221.676 433.032 C 230.611 440.564,234.668 442.689,237.577 441.363 L 239.787 440.357 239.787 405.522 C 239.787 379.567,239.526 370.427,238.763 369.664 C 237.789 368.690,233.876 368.521,228.267 369.210 M273.280 369.577 C 272.463 370.428,272.213 378.715,272.213 405.016 C 272.213 435.086,272.380 439.511,273.554 440.686 C 275.472 442.604,277.332 442.358,281.646 439.615 C 292.318 432.830,303.098 421.549,312.784 407.030 C 318.878 397.895,326.785 383.423,326.810 381.359 C 326.840 378.890,323.948 377.332,315.307 375.162 C 295.100 370.087,275.314 367.458,273.280 369.577 " stroke="none" fill-rule="evenodd" fill="black"></path></svg>