<svg xmlns="http://www.w3.org/2000/svg" width="512" height="512" viewBox="0 0 512 512"><path d="M248.320 32.097 C 222.704 34.108,209.558 36.230,193.151 41.002 C 166.076 48.876,137.173 64.081,114.508 82.373 C 92.069 100.483,71.148 126.126,57.570 152.164 C 38.695 188.357,30.043 228.508,32.450 268.731 C 35.791 324.555,58.336 374.832,97.666 414.162 C 178.828 495.323,307.112 502.278,396.524 430.364 C 473.098 368.774,500.486 263.737,463.793 172.373 C 435.781 102.626,373.385 50.969,299.520 36.375 C 284.721 33.451,258.732 31.280,248.320 32.097 M239.480 143.951 C 238.976 144.456,224.114 142.588,214.187 140.773 C 201.761 138.501,185.085 133.883,184.583 132.575 C 184.014 131.091,193.607 113.299,200.614 102.842 C 210.516 88.066,223.435 75.686,235.189 69.713 L 239.360 67.592 239.582 105.610 C 239.704 126.519,239.658 143.773,239.480 143.951 M286.796 76.061 C 294.595 81.733,304.388 92.399,311.386 102.842 C 318.393 113.299,327.986 131.091,327.417 132.575 C 326.966 133.750,310.989 138.325,299.947 140.439 C 294.179 141.544,275.039 144.213,272.886 144.213 C 272.516 144.213,272.213 126.927,272.213 105.799 L 272.213 67.385 276.588 69.602 C 278.994 70.821,283.588 73.728,286.796 76.061 M170.543 90.086 C 167.720 94.577,162.899 103.121,159.829 109.072 C 156.760 115.024,154.122 120.033,153.968 120.205 C 153.641 120.569,143.051 114.918,137.104 111.204 L 132.982 108.630 138.384 104.370 C 146.533 97.945,155.951 91.832,165.720 86.627 C 170.553 84.052,174.770 81.940,175.091 81.933 C 175.412 81.926,173.365 85.595,170.543 90.086 M346.173 86.592 C 355.933 91.758,365.390 97.884,373.616 104.370 L 379.018 108.630 374.896 111.204 C 368.949 114.918,358.359 120.569,358.032 120.205 C 357.878 120.033,355.240 115.024,352.171 109.072 C 349.101 103.121,344.280 94.577,341.457 90.086 C 338.635 85.595,336.555 81.920,336.835 81.920 C 337.116 81.920,341.318 84.022,346.173 86.592 M116.158 135.787 C 121.926 139.661,140.610 150.187,141.719 150.187 C 142.885 150.187,142.744 151.063,139.971 161.081 C 134.235 181.804,130.264 204.680,128.643 226.347 L 127.637 239.787 96.245 239.787 C 67.864 239.787,64.853 239.654,64.853 238.403 C 64.853 234.901,67.722 218.007,69.689 209.920 C 75.824 184.706,88.769 158.125,104.860 137.702 C 107.496 134.356,110.037 131.831,110.507 132.091 C 110.976 132.351,113.519 134.014,116.158 135.787 M416.647 151.040 C 427.637 167.588,437.538 190.305,442.311 209.920 C 444.278 218.007,447.147 234.901,447.147 238.403 C 447.147 239.654,444.136 239.787,415.755 239.787 L 384.363 239.787 383.357 226.347 C 381.736 204.680,377.765 181.804,372.029 161.081 C 369.256 151.063,369.115 150.187,370.281 150.187 C 371.468 150.187,390.021 139.670,396.494 135.327 L 402.176 131.516 406.436 136.798 C 408.779 139.703,413.374 146.112,416.647 151.040 M180.480 165.586 C 195.106 170.148,217.600 174.479,231.873 175.482 L 239.787 176.039 239.787 207.913 L 239.787 239.787 199.583 239.787 L 159.380 239.787 159.866 236.160 C 160.134 234.165,160.587 229.461,160.873 225.707 C 162.028 210.534,166.093 187.290,170.394 171.266 C 172.228 164.433,172.887 163.005,173.999 163.448 C 174.748 163.746,177.664 164.708,180.480 165.586 M341.617 171.307 C 345.907 187.291,349.973 210.550,351.127 225.707 C 351.413 229.461,351.866 234.165,352.134 236.160 L 352.620 239.787 312.417 239.787 L 272.213 239.787 272.213 207.913 L 272.213 176.039 280.127 175.482 C 295.134 174.427,320.862 169.309,333.653 164.834 C 336.235 163.930,338.580 163.145,338.865 163.089 C 339.150 163.033,340.388 166.731,341.617 171.307 M128.643 285.653 C 130.274 307.444,134.184 329.903,140.089 351.388 C 141.544 356.684,142.588 361.131,142.407 361.272 C 142.227 361.413,138.318 363.536,133.719 365.989 C 129.121 368.443,121.857 372.700,117.577 375.449 L 109.795 380.447 105.549 375.184 C 89.547 355.345,75.860 327.443,69.689 302.080 C 67.722 293.993,64.853 277.099,64.853 273.597 C 64.853 272.346,67.864 272.213,96.245 272.213 L 127.637 272.213 128.643 285.653 M239.787 304.213 L 239.787 336.213 236.417 336.213 C 223.998 336.213,185.338 343.843,173.999 348.532 C 172.883 348.993,172.235 347.591,170.394 340.734 C 166.093 324.710,162.028 301.466,160.873 286.293 C 160.587 282.539,160.134 277.835,159.866 275.840 L 159.380 272.213 199.583 272.213 L 239.787 272.213 239.787 304.213 M352.134 275.840 C 351.866 277.835,351.413 282.539,351.127 286.293 C 349.972 301.466,345.907 324.710,341.606 340.734 C 339.765 347.591,339.117 348.993,338.001 348.532 C 326.662 343.843,288.002 336.213,275.583 336.213 L 272.213 336.213 272.213 304.213 L 272.213 272.213 312.417 272.213 L 352.620 272.213 352.134 275.840 M447.147 273.597 C 447.147 277.099,444.278 293.993,442.311 302.080 C 436.140 327.443,422.453 355.345,406.451 375.184 L 402.205 380.447 394.423 375.449 C 390.143 372.700,382.879 368.443,378.281 365.989 C 373.682 363.536,369.763 361.403,369.571 361.251 C 369.379 361.098,370.605 355.882,372.296 349.660 C 378.210 327.893,381.713 307.626,383.357 285.653 L 384.363 272.213 415.755 272.213 C 444.136 272.213,447.147 272.346,447.147 273.597 M239.787 406.201 L 239.787 444.615 235.307 442.365 C 223.592 436.482,210.575 424.022,200.614 409.158 C 193.609 398.704,184.014 380.909,184.583 379.426 C 185.593 376.793,217.815 369.927,238.720 367.891 C 239.559 367.809,239.787 375.983,239.787 406.201 M282.880 369.117 C 296.519 370.371,326.616 377.337,327.417 379.426 C 327.986 380.909,318.391 398.704,311.386 409.158 C 301.425 424.022,288.408 436.482,276.693 442.365 L 272.213 444.615 272.213 406.133 L 272.213 367.651 274.560 368.110 C 275.851 368.362,279.595 368.815,282.880 369.117 M159.823 402.928 C 162.896 408.879,167.720 417.423,170.543 421.914 C 173.365 426.405,175.499 430.080,175.283 430.080 C 174.409 430.080,162.198 423.647,156.184 420.018 C 148.240 415.224,133.973 404.754,133.973 403.717 C 133.973 402.468,152.431 391.417,153.704 391.904 C 153.997 392.015,156.750 396.976,159.823 402.928 M366.456 395.978 C 370.708 398.341,375.147 401.038,376.320 401.971 L 378.453 403.666 375.467 406.252 C 370.079 410.918,355.395 420.527,346.285 425.349 C 341.368 427.951,337.120 430.080,336.843 430.080 C 336.567 430.080,338.792 426.161,341.789 421.370 C 344.785 416.580,349.643 407.940,352.584 402.170 C 355.526 396.401,358.111 391.680,358.329 391.680 C 358.547 391.680,362.204 393.614,366.456 395.978 " stroke="none" fill-rule="evenodd" fill="black"></path></svg>