<svg xmlns="http://www.w3.org/2000/svg" width="512" height="512" viewBox="0 0 512 512"><path d="M249.600 17.428 C 245.977 19.052,243.259 21.878,241.415 25.937 C 239.883 29.311,239.823 34.818,239.805 175.045 L 239.787 320.650 231.467 321.250 C 213.581 322.540,189.055 327.585,170.293 333.834 C 125.227 348.842,88.153 376.298,67.382 410.045 C 57.959 425.355,49.961 446.899,48.192 461.738 C 46.535 475.634,55.753 489.761,69.485 494.374 C 73.347 495.671,88.604 495.787,256.000 495.787 C 423.396 495.787,438.653 495.671,442.515 494.374 C 453.710 490.613,461.271 481.654,463.539 469.460 C 464.329 465.212,464.243 463.006,463.050 456.936 C 452.111 401.260,407.123 355.620,341.707 333.834 C 322.943 327.585,298.419 322.540,280.528 321.250 L 272.202 320.650 272.421 261.365 L 272.640 202.081 356.479 163.974 C 411.387 139.017,441.212 125.022,442.910 123.418 C 446.067 120.436,448.000 116.049,448.000 111.863 C 448.000 107.682,444.794 101.555,441.441 99.329 C 439.946 98.336,398.470 79.229,349.273 56.869 C 253.597 13.384,256.266 14.440,249.600 17.428 M332.800 84.469 C 364.949 99.095,391.552 111.350,391.916 111.703 C 392.281 112.056,365.497 124.658,332.396 139.707 L 272.213 167.070 272.213 112.030 C 272.213 68.331,272.433 57.082,273.280 57.434 C 273.867 57.678,300.651 69.843,332.800 84.469 M239.954 378.667 C 240.209 404.465,240.247 404.961,242.208 408.114 C 245.002 412.609,250.697 415.770,256.000 415.770 C 261.303 415.770,266.998 412.609,269.792 408.114 C 271.753 404.960,271.791 404.466,272.046 378.637 L 272.305 352.366 275.032 352.782 C 276.533 353.011,280.256 353.426,283.307 353.705 C 307.035 355.871,335.720 364.091,357.618 375.001 C 392.366 392.314,415.685 416.446,426.922 446.720 C 428.846 451.905,431.787 462.166,431.787 463.697 C 431.787 463.981,352.683 464.213,256.000 464.213 C 159.317 464.213,80.213 463.981,80.213 463.697 C 80.213 462.166,83.154 451.905,85.078 446.720 C 90.285 432.693,98.662 419.164,109.259 407.666 C 135.656 379.028,181.764 358.431,230.827 353.359 C 234.581 352.971,238.113 352.603,238.674 352.540 C 239.442 352.455,239.760 358.932,239.954 378.667 " stroke="none" fill-rule="evenodd" fill="black"></path></svg>