<svg xmlns="http://www.w3.org/2000/svg" width="512" height="512" viewBox="0 0 512 512"><path d="M249.600 17.426 C 246.181 18.957,241.948 23.644,240.754 27.221 C 240.048 29.338,239.787 69.267,239.787 174.999 L 239.787 319.877 234.880 320.363 C 209.452 322.880,191.305 326.528,171.093 333.186 C 112.027 352.644,69.854 390.792,53.772 439.310 C 48.701 454.609,47.274 462.393,48.370 468.766 C 50.258 479.740,56.182 487.958,65.520 492.555 L 71.217 495.360 256.000 495.360 L 440.783 495.360 446.480 492.555 C 455.818 487.958,461.742 479.740,463.630 468.766 C 464.725 462.400,463.299 454.610,458.250 439.377 C 442.159 390.828,399.960 352.639,340.907 333.186 C 320.693 326.527,302.555 322.881,277.114 320.362 L 272.202 319.876 272.421 260.978 L 272.640 202.081 356.267 164.102 C 415.422 137.236,440.735 125.336,442.768 123.434 C 448.259 118.302,449.455 111.616,446.080 104.934 C 445.024 102.844,442.937 100.322,441.441 99.329 C 439.946 98.336,398.470 79.229,349.273 56.869 C 253.600 13.385,256.268 14.441,249.600 17.426 M269.584 320.541 L 272.289 321.082 272.038 362.568 C 271.763 408.048,271.956 406.332,266.530 411.466 C 263.523 414.310,260.285 415.573,256.000 415.573 C 251.715 415.573,248.477 414.310,245.470 411.466 C 240.044 406.331,240.238 408.054,239.962 362.518 L 239.711 320.982 241.669 320.607 C 244.829 320.002,266.633 319.951,269.584 320.541 " stroke="none" fill-rule="evenodd" fill="black"></path></svg>