<svg xmlns="http://www.w3.org/2000/svg" width="512" height="512" viewBox="0 0 512 512"><path d="M239.787 168.045 L 239.787 319.877 234.880 320.389 C 217.828 322.165,212.468 322.924,201.348 325.136 C 129.842 339.356,74.927 381.003,55.094 436.053 C 49.714 450.985,48.521 457.567,48.029 475.028 C 47.776 484.027,47.817 492.379,48.121 493.588 L 48.673 495.787 255.978 495.787 L 463.283 495.787 463.866 492.679 C 464.186 490.970,464.228 482.618,463.959 474.119 C 463.438 457.692,462.118 450.557,456.917 436.053 C 437.248 381.206,382.256 339.495,310.652 325.111 C 301.283 323.229,277.281 320.000,272.658 320.000 C 272.407 320.000,272.300 293.459,272.421 261.021 L 272.640 202.042 359.323 157.554 C 406.999 133.086,446.116 112.683,446.249 112.213 C 446.430 111.578,241.620 16.213,240.074 16.213 C 239.916 16.213,239.787 84.538,239.787 168.045 M269.547 320.533 L 272.213 321.067 272.213 368.320 L 272.213 415.573 256.000 415.573 L 239.787 415.573 239.787 368.273 L 239.787 320.972 241.707 320.602 C 244.806 320.005,266.636 319.951,269.547 320.533 " stroke="none" fill-rule="evenodd" fill="black"></path></svg>