<svg xmlns="http://www.w3.org/2000/svg" width="512" height="512" viewBox="0 0 512 512"><path d="M57.600 33.614 C 44.063 37.943,34.180 49.766,32.371 63.793 C 31.328 71.881,31.401 201.212,32.453 208.640 C 32.933 212.029,34.406 216.883,35.859 219.858 C 39.214 226.730,47.540 234.613,54.343 237.357 L 59.307 239.360 134.348 239.587 C 217.503 239.839,214.210 240.036,223.077 234.281 C 230.743 229.306,236.058 222.309,238.467 214.022 C 239.657 209.929,239.788 200.633,239.587 134.348 L 239.360 59.307 237.357 54.343 C 234.545 47.373,226.751 39.231,219.450 35.637 L 213.797 32.853 137.405 32.688 C 77.344 32.558,60.284 32.756,57.600 33.614 M297.204 33.655 C 288.059 36.537,278.166 45.616,274.632 54.370 L 272.640 59.307 272.413 134.348 C 272.212 200.633,272.343 209.929,273.533 214.022 C 275.942 222.309,281.257 229.306,288.923 234.281 C 297.790 240.036,294.497 239.839,377.652 239.587 L 452.693 239.360 457.657 237.357 C 464.460 234.613,472.786 226.730,476.141 219.858 C 477.594 216.883,479.067 212.029,479.547 208.640 C 480.599 201.212,480.672 71.881,479.629 63.793 C 478.064 51.660,470.174 40.789,459.093 35.501 L 453.547 32.853 377.173 32.688 C 315.705 32.555,300.098 32.744,297.204 33.655 M206.885 65.897 C 208.060 67.575,208.213 75.659,208.213 136.107 C 208.213 196.555,208.060 204.639,206.885 206.317 L 205.557 208.213 136.339 208.213 C 73.128 208.213,66.986 208.091,65.561 206.801 C 64.073 205.455,64.000 202.140,64.000 136.035 C 64.000 74.125,64.144 66.538,65.341 65.341 C 66.538 64.144,74.132 64.000,136.119 64.000 L 205.557 64.000 206.885 65.897 M446.659 65.341 C 447.856 66.538,448.000 74.111,448.000 135.887 C 448.000 199.086,447.877 205.228,446.588 206.653 C 445.242 208.140,441.926 208.213,375.809 208.213 L 306.443 208.213 305.115 206.317 C 303.940 204.639,303.787 196.555,303.787 136.107 C 303.787 75.659,303.940 67.575,305.115 65.897 L 306.443 64.000 375.881 64.000 C 437.868 64.000,445.462 64.144,446.659 65.341 M57.941 273.530 C 51.735 275.460,46.666 278.682,41.883 283.739 C 36.511 289.419,33.610 295.472,32.467 303.386 C 31.402 310.756,31.316 440.027,32.371 448.207 C 34.480 464.564,47.436 477.520,63.793 479.629 C 71.881 480.672,201.212 480.599,208.640 479.547 C 212.029 479.067,216.883 477.594,219.858 476.141 C 226.730 472.786,234.613 464.460,237.357 457.657 L 239.360 452.693 239.587 377.652 C 239.839 294.556,240.034 297.840,234.313 288.923 C 230.528 283.024,225.309 278.516,218.559 275.318 L 212.907 272.640 137.387 272.475 C 73.954 272.336,61.238 272.505,57.941 273.530 M299.303 273.140 C 291.117 275.069,282.572 281.308,277.687 288.923 C 271.966 297.840,272.161 294.556,272.413 377.652 L 272.640 452.693 274.643 457.657 C 277.387 464.460,285.270 472.786,292.142 476.141 C 295.117 477.594,299.971 479.067,303.360 479.547 C 310.788 480.599,440.119 480.672,448.207 479.629 C 464.564 477.520,477.520 464.564,479.629 448.207 C 480.684 440.027,480.598 310.756,479.533 303.386 C 479.061 300.116,477.745 295.411,476.610 292.931 C 474.109 287.468,467.075 279.832,461.861 276.917 C 453.194 272.073,455.668 272.206,375.952 272.299 C 335.557 272.346,301.065 272.725,299.303 273.140 M206.507 305.493 C 208.185 307.172,208.213 308.338,208.213 375.703 C 208.213 436.323,208.060 444.425,206.885 446.103 L 205.557 448.000 136.119 448.000 C 74.132 448.000,66.538 447.856,65.341 446.659 C 64.144 445.462,64.000 437.868,64.000 375.881 L 64.000 306.443 65.897 305.115 C 67.575 303.940,75.677 303.787,136.297 303.787 C 203.662 303.787,204.828 303.815,206.507 305.493 M446.103 305.115 L 448.000 306.443 448.000 375.881 C 448.000 437.868,447.856 445.462,446.659 446.659 C 445.462 447.856,437.868 448.000,375.881 448.000 L 306.443 448.000 305.115 446.103 C 303.940 444.425,303.787 436.323,303.787 375.703 C 303.787 308.338,303.815 307.172,305.493 305.493 C 307.172 303.815,308.338 303.787,375.703 303.787 C 436.323 303.787,444.425 303.940,446.103 305.115 " stroke="none" fill="black" fill-rule="evenodd"></path></svg>