<svg xmlns="http://www.w3.org/2000/svg" width="512" height="512" viewBox="0 0 512 512"><path d="M56.672 33.974 C 47.450 37.181,40.123 43.509,35.879 51.930 C 31.709 60.207,31.604 62.251,31.595 135.253 C 31.589 177.508,31.918 205.633,32.457 209.067 C 34.577 222.581,43.804 233.627,56.668 238.053 C 61.582 239.744,63.544 239.787,135.841 239.787 C 208.516 239.787,210.077 239.752,215.209 238.023 C 226.261 234.300,234.302 226.255,238.029 215.193 C 239.805 209.919,239.820 209.140,239.591 134.587 L 239.360 59.307 237.357 54.343 C 234.545 47.373,226.751 39.231,219.450 35.637 L 213.797 32.853 137.405 32.659 C 66.239 32.477,60.716 32.567,56.672 33.974 M297.204 33.655 C 288.059 36.537,278.166 45.616,274.632 54.370 L 272.640 59.307 272.413 134.348 C 272.211 201.127,272.337 209.911,273.555 214.134 C 276.829 225.480,286.429 235.120,297.755 238.431 C 301.831 239.623,311.261 239.787,375.958 239.787 C 446.964 239.787,449.716 239.728,454.950 238.092 C 461.334 236.097,464.018 234.424,469.551 228.991 C 474.563 224.069,478.385 216.449,479.543 209.067 C 480.731 201.499,480.718 70.603,479.529 63.147 C 477.573 50.880,470.470 41.167,459.511 35.771 L 453.584 32.853 377.192 32.688 C 315.708 32.555,300.098 32.744,297.204 33.655 M57.173 273.802 C 44.174 278.011,34.596 289.299,32.457 302.933 C 31.918 306.367,31.589 334.492,31.595 376.747 C 31.604 450.742,31.657 451.704,36.272 460.810 C 41.153 470.442,51.542 477.679,63.147 479.529 C 70.603 480.718,201.499 480.731,209.067 479.543 C 216.449 478.385,224.069 474.563,228.991 469.551 C 234.424 464.018,236.097 461.334,238.092 454.950 C 239.728 449.716,239.787 446.964,239.787 375.958 C 239.787 311.261,239.623 301.831,238.431 297.755 C 235.620 288.140,228.404 279.982,218.607 275.340 L 212.907 272.640 137.387 272.461 C 67.002 272.294,61.548 272.385,57.173 273.802 M299.303 273.140 C 291.175 275.055,282.240 281.596,277.456 289.132 C 272.055 297.640,272.213 294.998,272.213 376.341 C 272.213 448.455,272.256 450.418,273.947 455.332 C 278.373 468.196,289.419 477.423,302.933 479.543 C 310.501 480.731,441.397 480.718,448.853 479.529 C 465.112 476.936,476.936 465.112,479.529 448.853 C 480.718 441.397,480.731 310.501,479.543 302.933 C 477.379 289.141,467.729 277.887,454.537 273.769 C 449.869 272.311,444.920 272.219,376.031 272.299 C 335.592 272.346,301.065 272.725,299.303 273.140 " stroke="none" fill-rule="evenodd" fill="black"></path></svg>