<svg xmlns="http://www.w3.org/2000/svg" width="512" height="512" viewBox="0 0 512 512"><path d="M31.573 136.107 L 31.573 239.787 135.680 239.787 L 239.787 239.787 239.787 136.107 L 239.787 32.427 135.680 32.427 L 31.573 32.427 31.573 136.107 M272.213 136.107 L 272.213 239.787 376.320 239.787 L 480.427 239.787 480.427 136.107 L 480.427 32.427 376.320 32.427 L 272.213 32.427 272.213 136.107 M31.783 376.107 L 32.000 480.000 135.893 480.217 L 239.787 480.433 239.787 376.323 L 239.787 272.213 135.677 272.213 L 31.567 272.213 31.783 376.107 M272.213 376.323 L 272.213 480.433 376.107 480.217 L 480.000 480.000 480.217 376.107 L 480.433 272.213 376.323 272.213 L 272.213 272.213 272.213 376.323 " stroke="none" fill-rule="evenodd" fill="black"></path></svg>