<svg xmlns="http://www.w3.org/2000/svg" width="512" height="512" viewBox="0 0 512 512"><path d="M238.590 33.744 C 225.264 36.256,210.181 42.365,199.680 49.502 C 194.490 53.029,182.712 64.987,178.860 70.641 C 172.459 80.035,176.763 92.621,187.395 95.598 C 191.438 96.730,192.536 96.583,203.093 93.495 C 214.048 90.290,228.221 90.923,240.720 95.174 C 260.143 101.780,270.565 111.643,275.259 127.862 C 276.299 131.458,277.423 137.309,277.755 140.863 C 278.344 147.160,278.277 147.490,275.184 153.663 C 273.438 157.149,269.079 164.339,265.498 169.643 C 261.917 174.947,258.129 180.707,257.081 182.443 C 254.813 186.200,254.574 191.538,256.472 196.081 C 258.153 200.107,293.468 235.802,298.186 238.245 C 302.260 240.354,308.443 240.512,312.137 238.601 C 313.608 237.841,319.338 233.265,324.872 228.433 C 340.607 214.694,344.724 211.583,351.363 208.415 C 356.973 205.737,358.110 205.493,363.507 205.798 C 371.485 206.248,372.090 207.033,368.292 212.008 C 363.998 217.634,362.258 224.033,363.477 229.717 C 363.995 232.135,365.153 235.294,366.050 236.737 C 366.946 238.180,376.632 248.251,387.573 259.118 C 406.685 278.100,407.664 278.933,412.503 280.336 C 418.516 282.080,423.776 281.596,428.977 278.822 C 433.359 276.485,491.591 219.027,493.688 214.972 C 494.497 213.409,495.352 209.714,495.589 206.761 C 496.361 197.145,495.452 195.775,473.820 173.958 C 451.889 151.838,449.114 149.842,440.282 149.838 C 436.386 149.836,433.639 150.359,431.201 151.565 L 427.706 153.294 427.364 145.127 C 426.840 132.620,423.339 126.619,404.414 105.787 C 375.390 73.840,324.533 43.441,285.867 34.928 C 274.969 32.528,248.548 31.867,238.590 33.744 M223.900 208.115 C 217.834 209.688,212.517 213.277,202.330 222.679 C 196.414 228.139,154.325 266.974,108.800 308.980 C 63.275 350.986,24.909 386.682,23.544 388.304 C 22.178 389.926,20.066 393.365,18.850 395.947 C 16.952 399.979,16.640 401.795,16.640 408.833 C 16.640 421.765,17.788 423.468,45.227 451.237 C 69.632 475.936,72.230 477.927,82.177 479.546 C 93.132 481.329,101.368 478.042,111.971 467.658 C 116.061 463.651,156.330 420.821,201.458 372.480 C 294.709 272.589,288.853 279.765,288.853 265.387 C 288.853 252.625,287.630 250.629,267.257 230.144 C 247.531 210.309,244.447 208.277,233.259 207.745 C 229.575 207.569,225.363 207.736,223.900 208.115 " stroke="none" fill-rule="evenodd" fill="black"></path></svg>