<svg xmlns="http://www.w3.org/2000/svg" width="512" height="512" viewBox="0 0 512 512"><path d="M238.867 33.702 C 225.155 36.289,209.225 42.649,199.127 49.569 C 193.655 53.319,183.869 63.293,179.697 69.372 C 173.566 78.306,174.816 88.083,182.746 93.225 C 188.201 96.761,190.919 96.940,199.905 94.349 C 214.626 90.107,227.381 90.523,242.332 95.735 C 257.687 101.088,266.421 108.333,272.237 120.545 C 275.567 127.536,278.187 138.743,278.187 146.000 C 278.187 153.612,270.832 166.526,257.318 182.641 C 250.638 190.607,247.721 195.162,246.271 199.893 C 245.894 201.126,244.792 201.387,239.968 201.387 C 233.262 201.387,226.543 203.151,221.013 206.364 C 218.901 207.591,204.256 221.311,188.467 236.853 C 147.564 277.116,99.906 321.139,53.760 361.287 C 24.558 386.694,21.718 389.442,19.048 394.881 C 16.894 399.269,16.640 400.686,16.640 408.320 C 16.640 421.681,17.143 422.464,42.297 448.202 C 53.885 460.059,65.060 471.178,67.131 472.911 C 78.054 482.056,96.003 482.103,106.620 473.016 C 108.631 471.294,118.134 460.918,127.736 449.958 C 176.729 394.039,223.012 344.485,264.340 303.701 C 286.090 282.237,289.384 278.637,291.668 273.834 C 294.746 267.359,296.461 258.780,295.697 253.681 C 295.235 250.599,295.394 249.938,296.693 249.536 C 301.827 247.949,306.142 244.916,314.811 236.802 C 339.428 213.763,351.732 205.655,362.083 205.654 C 366.221 205.653,369.436 206.442,371.090 207.863 C 371.263 208.012,370.202 209.654,368.731 211.512 C 364.929 216.312,363.276 220.728,363.258 226.133 C 363.231 234.451,364.830 236.633,387.096 258.649 C 404.729 276.084,408.032 278.980,411.672 280.196 C 416.929 281.951,420.014 281.963,425.782 280.250 C 430.039 278.986,432.221 277.033,460.283 249.368 C 476.759 233.125,491.108 218.676,492.169 217.259 C 496.304 211.739,496.974 202.645,493.747 195.840 C 492.220 192.621,486.932 186.844,472.208 172.312 C 460.529 160.785,451.323 152.396,449.280 151.420 C 444.848 149.303,435.108 149.242,431.189 151.307 C 429.687 152.099,428.293 152.747,428.091 152.747 C 427.889 152.747,427.564 149.195,427.368 144.853 C 427.091 138.698,426.532 135.926,424.832 132.267 C 420.152 122.193,396.358 95.950,380.587 83.468 C 350.691 59.806,314.128 41.013,286.170 34.938 C 275.150 32.543,248.675 31.851,238.867 33.702 M270.529 64.887 C 294.715 67.852,325.897 82.427,355.724 104.708 C 366.384 112.671,382.228 128.125,390.313 138.447 L 395.297 144.811 395.437 154.539 C 395.554 162.678,395.900 164.993,397.560 168.716 C 399.921 174.011,406.350 180.320,411.877 182.765 C 419.681 186.217,431.792 187.172,437.763 184.807 C 438.628 184.464,442.376 187.638,449.275 194.555 L 459.504 204.811 439.247 225.069 L 418.989 245.327 409.038 235.376 L 399.087 225.425 401.138 220.873 C 404.038 214.432,404.117 201.241,401.293 195.120 C 396.406 184.531,385.698 176.985,371.829 174.357 C 350.489 170.313,330.666 179.157,301.133 205.899 L 291.226 214.870 286.092 209.735 L 280.957 204.600 287.465 196.222 C 305.667 172.789,311.800 156.784,309.743 138.088 C 307.443 117.180,300.502 100.713,288.522 87.741 C 280.073 78.591,271.956 73.465,252.587 65.043 C 250.795 64.264,251.482 64.106,256.876 64.058 C 260.408 64.026,266.552 64.399,270.529 64.887 M252.727 243.798 C 261.557 252.535,263.680 255.097,263.680 257.017 C 263.680 258.999,260.152 262.873,242.659 280.099 C 201.434 320.694,148.954 376.911,101.284 431.538 L 86.980 447.929 68.023 428.684 C 57.597 418.099,48.954 409.137,48.816 408.767 C 48.678 408.398,53.667 403.731,59.902 398.395 C 86.881 375.306,142.338 325.375,170.667 298.668 C 178.880 290.925,197.364 272.973,211.743 258.775 C 230.621 240.134,238.427 232.960,239.830 232.960 C 241.175 232.960,245.144 236.295,252.727 243.798 " stroke="none" fill-rule="evenodd" fill="black"></path></svg>