<svg xmlns="http://www.w3.org/2000/svg" width="512" height="512" viewBox="0 0 512 512"><path d="M238.590 33.744 C 208.111 39.490,185.243 56.100,178.136 77.653 C 175.278 86.322,174.930 85.482,183.622 90.884 C 190.059 94.885,191.913 95.663,194.070 95.267 C 195.513 95.003,200.341 94.008,204.800 93.058 C 217.452 90.360,227.267 90.870,239.787 94.875 C 263.750 102.540,275.503 116.776,277.755 140.863 C 278.342 147.143,278.271 147.503,275.257 153.487 C 271.409 161.128,265.769 169.982,259.421 178.347 C 253.355 186.339,252.587 187.792,252.587 191.269 C 252.587 193.787,254.924 196.410,276.267 217.840 C 289.291 230.918,301.031 242.190,302.356 242.890 C 303.751 243.626,305.728 243.950,307.054 243.659 C 308.382 243.367,316.509 236.704,326.405 227.793 C 340.111 215.452,344.809 211.750,350.293 208.971 C 356.711 205.718,357.489 205.529,363.279 205.811 C 371.282 206.200,372.283 207.181,368.765 211.188 C 363.466 217.223,361.797 224.380,363.945 231.862 C 365.314 236.631,366.185 237.627,389.401 260.969 C 402.622 274.261,414.520 285.707,415.839 286.404 C 417.704 287.389,418.846 287.471,420.971 286.769 C 422.840 286.152,436.085 273.476,462.855 246.682 L 502.006 207.498 501.480 204.258 C 501.017 201.408,498.166 198.229,477.733 177.786 C 451.503 151.543,449.224 149.842,440.282 149.838 C 436.339 149.836,433.641 150.357,431.108 151.611 L 427.520 153.386 427.520 146.821 C 427.520 134.459,424.928 129.403,409.259 111.195 C 379.025 76.064,326.708 43.745,285.680 34.855 C 274.935 32.526,248.373 31.900,238.590 33.744 M227.194 199.941 C 225.439 200.585,184.959 238.195,117.351 301.997 C 34.733 379.963,10.067 403.698,9.325 405.945 C 7.126 412.610,6.834 412.238,43.623 449.610 C 62.386 468.671,79.158 485.129,80.895 486.182 C 84.692 488.485,88.198 488.621,91.987 486.612 C 96.368 484.289,295.833 272.643,297.014 269.064 C 299.255 262.273,299.247 262.263,267.672 230.524 C 251.403 214.170,237.292 200.681,235.761 200.017 C 232.490 198.599,230.895 198.585,227.194 199.941 " stroke="none" fill-rule="evenodd" fill="black"></path></svg>