<svg xmlns="http://www.w3.org/2000/svg" width="512" height="512" viewBox="0 0 512 512"><path d="M262.229 1.533 C 255.907 3.797,251.244 7.303,247.381 12.698 C 240.643 22.108,241.118 13.649,240.838 129.101 L 240.588 232.175 233.574 231.927 L 226.560 231.680 226.133 151.467 L 225.707 71.253 223.420 66.374 C 213.045 44.238,185.341 41.914,172.522 62.104 C 166.951 70.879,167.253 63.312,167.253 193.901 L 167.253 312.398 161.618 312.146 L 155.982 311.893 137.847 267.819 C 127.873 243.578,118.913 222.458,117.936 220.886 C 115.031 216.208,109.981 211.865,104.573 209.396 C 93.618 204.393,80.717 207.350,72.208 216.814 C 66.483 223.182,64.468 228.991,64.537 238.933 L 64.592 247.040 96.323 335.787 C 113.775 384.597,128.866 426.645,129.860 429.227 C 133.195 437.893,139.871 450.586,145.255 458.498 C 151.743 468.034,166.153 482.638,175.166 488.812 C 195.800 502.947,227.164 510.592,269.227 511.738 C 299.098 512.552,322.763 509.583,345.409 502.181 C 380.554 490.693,407.348 469.153,425.283 437.968 C 433.527 423.634,441.174 401.891,444.534 383.230 C 447.953 364.244,448.110 357.274,447.837 236.329 L 447.573 119.804 444.350 113.282 C 440.860 106.222,436.764 102.039,430.144 98.777 C 426.923 97.190,424.822 96.853,418.133 96.853 C 410.765 96.853,409.616 97.081,405.514 99.353 C 399.776 102.532,394.713 108.019,391.817 114.197 L 389.547 119.040 389.120 183.467 L 388.693 247.893 383.609 248.155 C 380.812 248.298,377.644 248.195,376.569 247.925 L 374.613 247.434 374.596 156.784 C 374.586 100.522,374.254 63.877,373.720 60.186 C 372.048 48.619,365.980 39.762,356.469 35.009 C 352.150 32.851,350.290 32.427,345.144 32.427 C 337.846 32.427,333.239 33.893,327.651 37.994 C 322.534 41.751,318.758 47.358,316.566 54.454 C 314.934 59.738,314.880 62.671,314.880 146.010 L 314.880 232.107 307.643 232.107 L 300.406 232.107 300.177 128.213 L 299.947 24.320 297.966 19.416 C 295.345 12.924,288.770 5.810,282.766 2.970 C 276.385 -0.049,268.240 -0.619,262.229 1.533 " stroke="none" fill-rule="evenodd" fill="black"></path></svg>