<svg xmlns="http://www.w3.org/2000/svg" width="512" height="512" viewBox="0 0 512 512"><path d="M261.120 1.334 C 252.675 3.157,245.311 7.289,238.404 14.080 C 229.689 22.647,225.367 32.048,223.956 45.505 C 223.522 49.645,223.201 50.386,222.038 49.940 C 221.270 49.645,217.845 49.050,214.428 48.616 C 190.691 45.607,169.295 59.441,161.602 82.773 C 160.170 87.117,160.020 93.062,159.600 162.560 L 159.147 237.653 155.938 229.920 C 148.891 212.938,136.273 203.103,118.329 200.607 C 98.325 197.825,77.216 208.493,68.846 225.615 C 63.812 235.913,62.751 250.527,66.168 262.474 C 67.327 266.527,112.249 390.171,120.615 412.336 C 128.857 434.170,145.618 459.184,161.707 473.657 C 191.224 500.210,234.469 513.471,285.867 511.730 C 314.538 510.759,335.423 505.786,358.118 494.526 C 380.207 483.568,396.864 469.512,411.928 449.122 C 432.106 421.810,443.966 386.082,447.143 343.040 C 447.819 333.885,448.036 299.607,447.847 231.680 L 447.573 133.547 445.293 127.676 C 439.400 112.510,425.567 100.329,410.742 97.251 C 405.949 96.256,391.087 96.545,386.447 97.724 L 384.201 98.294 383.808 83.920 C 383.459 71.119,383.175 68.904,381.214 63.676 C 375.768 49.158,363.066 37.514,348.551 33.733 C 342.216 32.083,329.539 32.065,323.413 33.698 C 320.028 34.600,318.629 34.680,318.392 33.985 C 318.212 33.455,316.590 30.103,314.788 26.537 C 304.728 6.633,283.261 -3.448,261.120 1.334 M278.456 33.384 C 280.867 34.623,284.886 38.356,286.153 40.533 C 286.887 41.794,287.258 68.678,287.573 143.360 C 287.992 242.548,288.033 244.535,289.707 247.376 C 290.645 248.969,292.889 251.465,294.693 252.923 C 297.634 255.301,298.563 255.573,303.715 255.573 C 310.879 255.573,315.428 252.959,318.190 247.254 C 319.996 243.522,320.000 243.339,320.000 161.117 C 320.000 115.799,320.257 77.437,320.570 75.869 C 320.925 74.096,322.658 71.501,325.154 69.005 C 328.405 65.754,329.935 64.876,333.202 64.386 C 340.131 63.347,346.577 66.315,349.670 71.969 C 351.037 74.466,351.178 81.596,351.573 167.680 C 351.967 253.427,352.114 260.902,353.463 263.365 C 356.783 269.429,363.745 272.885,370.576 271.861 C 375.104 271.182,381.051 266.525,382.831 262.266 C 383.782 259.990,384.000 248.587,384.000 201.094 C 384.000 168.988,384.257 141.437,384.570 139.869 C 384.925 138.096,386.658 135.501,389.154 133.005 C 392.405 129.754,393.935 128.876,397.202 128.386 C 404.452 127.299,410.728 130.380,413.890 136.580 C 415.537 139.807,415.573 142.029,415.573 238.809 C 415.573 340.014,415.400 346.330,412.108 365.227 C 401.285 427.336,364.073 467.823,308.918 477.496 C 291.630 480.528,263.416 480.486,245.469 477.403 C 200.933 469.751,175.066 450.796,155.271 411.307 C 153.271 407.317,139.365 370.645,124.368 329.813 C 98.884 260.429,97.073 255.127,96.683 248.747 C 96.307 242.603,96.465 241.628,98.266 238.997 C 100.886 235.169,106.758 232.107,111.477 232.107 C 116.318 232.107,121.656 234.304,123.635 237.110 C 124.826 238.800,153.142 306.193,161.242 326.617 C 163.686 332.778,171.466 336.927,178.576 335.861 C 183.104 335.182,189.051 330.525,190.831 326.266 C 191.801 323.944,192.000 303.846,192.000 208.083 L 192.000 92.699 193.810 88.960 C 196.562 83.276,201.126 80.640,208.217 80.640 C 213.127 80.640,214.318 80.965,217.044 83.043 C 223.650 88.082,223.097 80.923,223.573 167.642 C 223.989 243.397,224.043 245.405,225.707 248.230 C 226.645 249.822,228.889 252.318,230.693 253.776 C 233.634 256.154,234.563 256.427,239.715 256.427 C 246.879 256.427,251.428 253.812,254.190 248.107 L 256.000 244.368 256.019 144.584 C 256.037 49.585,256.113 44.636,257.605 41.387 C 259.335 37.619,261.114 35.777,264.962 33.771 C 267.937 32.220,275.754 31.996,278.456 33.384 " stroke="none" fill-rule="evenodd" fill="black"></path></svg>