<svg xmlns="http://www.w3.org/2000/svg" width="512" height="512" viewBox="0 0 512 512"><path d="M234.993 0.759 C 226.170 3.033,217.552 10.704,214.034 19.416 L 212.053 24.320 211.823 128.213 L 211.594 232.107 204.357 232.107 L 197.120 232.107 197.120 146.010 C 197.120 62.671,197.066 59.738,195.434 54.454 C 193.242 47.358,189.466 41.751,184.349 37.994 C 178.761 33.893,174.154 32.427,166.856 32.427 C 161.710 32.427,159.850 32.851,155.531 35.009 C 146.023 39.761,139.638 49.116,138.178 60.434 C 137.773 63.569,137.430 106.926,137.415 156.784 L 137.387 247.434 135.431 247.925 C 134.356 248.195,131.188 248.298,128.391 248.155 L 123.307 247.893 122.880 183.467 L 122.453 119.040 120.183 114.197 C 117.287 108.019,112.224 102.532,106.486 99.353 C 102.384 97.081,101.235 96.853,93.867 96.853 C 87.178 96.853,85.077 97.190,81.856 98.777 C 75.235 102.040,71.140 106.222,67.650 113.282 L 64.427 119.805 64.427 242.303 C 64.427 357.292,64.524 365.428,66.007 375.040 C 72.003 413.878,86.685 445.124,109.706 468.040 C 134.985 493.203,169.289 507.545,213.004 511.228 C 235.669 513.137,267.417 511.302,290.133 506.768 C 318.739 501.060,334.754 492.973,352.436 475.307 C 362.464 465.288,370.059 454.745,376.225 442.285 C 381.310 432.006,378.504 439.591,416.105 334.507 L 447.402 247.040 447.461 238.933 C 447.532 228.991,445.519 223.184,439.792 216.814 C 431.283 207.350,418.382 204.393,407.427 209.396 C 402.031 211.860,396.969 216.207,394.082 220.856 C 393.116 222.412,384.149 243.532,374.157 267.789 L 355.989 311.893 350.368 312.146 L 344.747 312.398 344.747 193.901 C 344.747 63.312,345.049 70.879,339.478 62.104 C 326.659 41.914,298.955 44.238,288.580 66.374 L 286.293 71.253 285.867 151.467 L 285.440 231.680 278.400 231.928 L 271.360 232.176 271.343 132.941 C 271.333 71.458,271.002 31.434,270.473 27.733 C 268.283 12.398,256.919 1.118,242.892 0.358 C 240.011 0.202,236.456 0.382,234.993 0.759 " stroke="none" fill-rule="evenodd" fill="black"></path></svg>