<svg xmlns="http://www.w3.org/2000/svg" width="512" height="512" viewBox="0 0 512 512"><path d="M268.122 1.616 C 261.903 3.764,257.742 7.376,254.720 13.250 L 252.160 18.225 251.733 126.085 L 251.307 233.945 248.119 236.866 C 245.471 239.292,244.278 239.787,241.067 239.787 C 237.856 239.787,236.662 239.292,234.014 236.866 L 230.827 233.945 230.400 150.466 L 229.973 66.987 227.583 62.119 C 226.268 59.442,223.964 56.213,222.463 54.943 C 208.808 43.393,186.794 47.381,179.531 62.720 L 177.510 66.987 177.502 186.539 C 177.496 271.606,177.221 306.872,176.550 308.797 C 176.032 310.285,174.905 311.879,174.046 312.338 C 171.876 313.500,167.855 313.381,166.170 312.107 C 165.394 311.520,154.796 290.809,142.618 266.082 C 117.956 216.009,117.701 215.612,106.871 210.544 C 102.025 208.276,100.176 207.879,94.327 207.847 C 88.391 207.815,86.714 208.166,81.880 210.446 C 74.327 214.009,70.516 217.568,67.336 224.027 C 64.145 230.509,63.275 238.043,64.805 245.952 C 65.907 251.646,134.089 420.644,142.112 437.565 C 162.968 481.554,191.023 502.368,239.787 510.031 C 247.866 511.301,254.725 511.569,278.613 511.547 C 309.926 511.518,315.202 511.012,333.227 506.303 C 389.570 491.585,428.949 449.251,442.350 388.991 C 447.792 364.521,447.573 370.937,447.573 235.947 L 447.573 113.067 445.726 109.653 C 443.505 105.550,438.440 100.590,434.347 98.510 C 429.989 96.295,419.461 95.849,414.040 97.649 C 408.289 99.559,402.644 104.674,400.119 110.261 L 398.080 114.773 397.653 182.384 L 397.227 249.995 394.587 252.634 C 389.771 257.450,381.922 256.719,378.248 251.114 C 376.843 248.970,376.719 242.471,376.320 150.225 L 375.893 51.627 373.512 46.778 C 370.716 41.084,366.638 37.245,360.309 34.347 C 356.387 32.552,354.749 32.298,348.750 32.555 C 338.521 32.993,330.978 37.441,326.539 45.653 L 324.693 49.067 324.267 140.800 C 323.856 229.107,323.779 232.623,322.220 234.924 C 317.829 241.403,307.430 241.165,303.628 234.499 C 302.725 232.915,302.424 211.637,302.080 125.013 L 301.653 17.493 299.006 12.800 C 292.945 2.054,280.208 -2.558,268.122 1.616 " stroke="none" fill-rule="evenodd" fill="black"></path></svg>