<svg xmlns="http://www.w3.org/2000/svg" width="512" height="512" viewBox="0 0 512 512"><path d="M226.308 1.564 C 220.284 3.714,216.206 7.164,212.997 12.821 L 210.347 17.493 209.920 125.013 C 209.576 211.637,209.275 232.915,208.372 234.499 C 204.570 241.165,194.171 241.403,189.780 234.924 C 188.221 232.623,188.144 229.107,187.733 140.800 L 187.307 49.067 185.461 45.653 C 178.969 33.644,162.889 28.774,150.376 35.027 C 144.535 37.945,140.563 41.995,137.903 47.743 C 136.118 51.603,136.104 52.224,135.680 150.225 C 135.281 242.471,135.157 248.970,133.752 251.114 C 130.078 256.719,122.229 257.450,117.413 252.634 L 114.773 249.995 114.347 182.384 L 113.920 114.773 111.881 110.261 C 109.356 104.674,103.711 99.559,97.960 97.649 C 92.539 95.849,82.011 96.295,77.653 98.510 C 73.560 100.590,68.495 105.550,66.274 109.653 L 64.427 113.067 64.427 235.947 C 64.427 349.871,64.539 359.573,65.961 369.067 C 71.509 406.086,82.788 433.963,101.763 457.553 C 124.101 485.322,155.832 503.022,195.840 510.026 C 208.473 512.238,258.150 512.241,272.213 510.031 C 320.328 502.470,348.304 481.979,369.095 439.069 C 376.391 424.009,445.215 254.435,446.859 247.467 C 448.821 239.148,448.062 230.929,444.699 224.099 C 441.485 217.569,437.693 214.018,430.120 210.446 C 425.286 208.166,423.609 207.815,417.673 207.847 C 411.824 207.879,409.975 208.276,405.129 210.544 C 394.299 215.612,394.044 216.009,369.382 266.082 C 357.204 290.809,346.606 311.520,345.830 312.107 C 344.145 313.381,340.124 313.500,337.954 312.338 C 337.095 311.879,335.968 310.285,335.450 308.797 C 334.779 306.872,334.504 271.606,334.498 186.539 L 334.490 66.987 332.469 62.720 C 326.623 50.375,309.798 44.576,296.953 50.480 C 290.404 53.490,287.188 56.475,284.417 62.119 L 282.027 66.987 281.600 150.466 L 281.173 233.945 277.986 236.866 C 275.316 239.312,274.156 239.787,270.845 239.787 C 267.391 239.787,266.474 239.369,263.580 236.474 L 260.267 233.161 260.267 127.402 C 260.267 10.638,260.541 16.649,254.875 9.220 C 248.946 1.447,236.204 -1.968,226.308 1.564 " stroke="none" fill-rule="evenodd" fill="black"></path></svg>