<svg xmlns="http://www.w3.org/2000/svg" width="512" height="512" viewBox="0 0 512 512"><path d="M229.036 1.268 C 215.960 4.113,203.577 13.945,197.212 26.537 C 195.410 30.103,193.788 33.455,193.608 33.985 C 193.371 34.680,191.972 34.600,188.587 33.698 C 182.461 32.065,169.784 32.083,163.449 33.733 C 148.934 37.514,136.232 49.158,130.786 63.676 C 128.825 68.904,128.541 71.119,128.192 83.920 L 127.799 98.294 125.553 97.724 C 120.913 96.545,106.051 96.256,101.258 97.251 C 86.110 100.396,71.683 113.389,66.421 128.626 L 64.427 134.400 64.427 240.213 C 64.427 337.208,64.554 346.916,65.949 356.693 C 72.522 402.742,85.960 434.489,110.557 462.080 C 129.395 483.211,156.505 499.023,187.307 506.844 C 214.883 513.845,255.499 513.532,286.293 506.081 C 325.629 496.562,353.792 476.846,375.268 443.792 C 384.774 429.161,390.079 416.299,417.173 342.187 C 431.672 302.528,444.364 267.394,445.377 264.112 C 449.279 251.472,448.421 236.492,443.169 225.563 C 440.090 219.156,431.322 210.289,424.077 206.256 C 410.049 198.447,391.246 198.214,377.270 205.675 C 366.999 211.158,360.578 218.745,355.373 231.547 L 352.543 238.507 352.247 162.987 C 351.971 92.774,351.842 87.137,350.401 82.773 C 347.822 74.965,343.786 68.272,338.297 62.701 C 330.060 54.342,321.509 50.076,310.090 48.628 C 304.194 47.880,293.516 48.576,289.962 49.940 C 288.799 50.386,288.478 49.645,288.044 45.505 C 286.633 32.048,282.311 22.647,273.596 14.080 C 261.562 2.249,245.608 -2.338,229.036 1.268 M247.287 34.043 C 251.198 36.038,252.994 37.977,254.687 42.030 C 255.843 44.797,256.000 57.071,256.000 144.770 L 256.000 244.368 257.810 248.107 C 260.572 253.812,265.121 256.427,272.285 256.427 C 277.437 256.427,278.366 256.154,281.307 253.776 C 283.111 252.318,285.355 249.822,286.293 248.230 C 287.957 245.405,288.011 243.397,288.427 167.642 C 288.903 80.923,288.350 88.082,294.956 83.043 C 297.682 80.965,298.873 80.640,303.783 80.640 C 310.874 80.640,315.438 83.276,318.190 88.960 L 320.000 92.699 320.000 208.083 C 320.000 303.846,320.199 323.944,321.169 326.266 C 322.949 330.525,328.896 335.182,333.424 335.861 C 340.535 336.927,348.318 332.777,350.756 326.617 C 358.333 307.475,387.200 238.805,388.382 237.110 C 390.338 234.307,395.676 232.107,400.523 232.107 C 405.242 232.107,411.114 235.169,413.734 238.997 C 415.533 241.626,415.693 242.607,415.323 248.747 C 414.937 255.135,413.158 260.343,387.637 329.813 C 357.296 412.401,354.647 418.567,342.532 434.773 C 321.712 462.626,290.611 476.962,245.538 479.482 C 195.725 482.268,158.611 468.611,131.721 437.600 C 117.639 421.360,106.509 397.562,101.265 372.480 C 96.808 351.163,96.853 352.515,96.853 241.427 L 96.853 137.681 99.321 134.446 C 102.688 130.031,108.244 127.646,113.664 128.288 C 118.368 128.845,121.812 130.981,125.229 135.459 L 127.573 138.532 128.000 200.039 C 128.324 246.706,128.682 261.992,129.483 263.391 C 130.064 264.406,132.131 266.598,134.075 268.263 C 141.773 274.852,153.538 272.496,158.537 263.365 C 159.886 260.902,160.033 253.400,160.427 167.186 L 160.853 73.680 163.321 70.445 C 166.688 66.031,172.244 63.646,177.664 64.288 C 182.368 64.845,185.812 66.981,189.229 71.459 L 191.573 74.533 192.000 159.996 L 192.427 245.459 194.717 248.919 C 199.648 256.369,210.677 258.281,217.395 252.852 C 219.150 251.433,221.355 248.969,222.293 247.376 C 223.967 244.535,224.008 242.548,224.427 143.360 C 224.742 68.678,225.113 41.794,225.847 40.533 C 227.040 38.482,231.025 34.723,233.387 33.420 C 236.145 31.898,243.753 32.239,247.287 34.043 " stroke="none" fill-rule="evenodd" fill="black"></path></svg>