<svg xmlns="http://www.w3.org/2000/svg" width="512" height="512" viewBox="0 0 512 512"><path d="M235.947 32.121 C 215.118 34.495,202.444 37.042,187.123 41.933 C 153.186 52.767,122.302 71.615,96.959 96.959 C 45.131 148.786,22.286 221.012,34.642 293.973 C 42.175 338.453,64.482 381.147,97.285 413.867 C 143.943 460.406,203.705 483.495,269.227 480.296 C 342.739 476.707,410.943 435.346,449.266 371.115 C 476.276 325.844,486.420 271.351,477.526 219.307 C 466.372 154.047,427.068 97.137,369.379 62.717 C 342.461 46.656,311.652 36.352,279.893 32.788 C 270.499 31.733,243.006 31.316,235.947 32.121 M192.175 209.540 C 201.319 212.655,207.739 221.977,207.677 232.048 C 207.657 235.293,207.049 239.032,206.233 240.929 C 199.524 256.524,180.202 260.831,168.028 249.444 C 162.182 243.976,160.126 238.637,160.614 230.197 C 160.965 224.131,161.307 223.074,164.340 218.664 C 170.540 209.652,181.734 205.982,192.175 209.540 M338.737 210.890 C 347.217 215.127,351.398 222.077,351.500 232.107 C 351.684 250.089,332.446 261.563,316.585 252.930 C 305.380 246.832,301.027 233.110,306.650 221.616 C 310.888 212.953,318.224 208.410,328.184 208.281 C 332.386 208.226,334.406 208.726,338.737 210.890 M353.795 305.280 C 353.546 306.101,352.945 308.586,352.460 310.802 C 349.466 324.465,340.419 340.755,328.937 353.157 C 316.042 367.085,295.160 378.267,274.347 382.390 C 270.915 383.070,263.108 383.573,256.000 383.573 C 238.446 383.573,224.882 380.452,210.222 373.039 C 185.842 360.712,166.042 336.782,159.978 312.315 C 159.222 309.267,158.412 306.101,158.178 305.280 C 157.774 303.864,162.837 303.787,256.000 303.787 C 349.173 303.787,354.225 303.864,353.795 305.280 " stroke="none" fill-rule="evenodd" fill="black"></path></svg>