<svg xmlns="http://www.w3.org/2000/svg" width="512" height="512" viewBox="0 0 512 512"><path d="M169.387 33.420 C 166.592 34.962,162.927 38.652,161.475 41.387 C 160.538 43.150,159.999 47.042,159.742 53.889 L 159.369 63.832 137.924 64.204 C 118.223 64.546,115.924 64.745,109.643 66.661 C 89.339 72.854,73.218 88.918,66.500 109.653 C 64.740 115.086,64.531 117.654,64.199 138.027 L 63.834 160.427 53.635 160.427 C 46.397 160.427,42.741 160.786,41.044 161.663 C 37.802 163.340,33.418 168.472,32.794 171.322 C 32.514 172.604,32.142 174.118,31.968 174.687 C 31.355 176.694,33.928 184.419,35.937 186.601 C 39.776 190.770,43.863 191.961,54.400 191.981 L 64.000 192.000 64.000 215.790 L 64.000 239.581 53.547 239.944 C 43.985 240.276,42.785 240.503,39.484 242.606 C 29.755 248.805,29.974 263.630,39.886 269.792 C 42.698 271.541,44.382 271.824,53.547 272.088 L 64.000 272.389 64.000 296.194 L 64.000 320.000 54.400 320.019 C 43.863 320.039,39.776 321.230,35.937 325.399 C 33.928 327.581,31.355 335.306,31.968 337.313 C 32.142 337.882,32.514 339.396,32.794 340.678 C 33.435 343.603,37.818 348.661,41.300 350.493 C 43.148 351.465,46.949 351.998,53.891 352.258 L 63.834 352.631 64.201 374.502 C 64.533 394.311,64.750 396.936,66.501 402.347 C 73.193 423.018,88.982 438.807,109.653 445.499 C 115.064 447.250,117.689 447.467,137.498 447.799 L 159.369 448.166 159.742 458.109 C 160.002 465.051,160.535 468.852,161.507 470.700 C 163.339 474.182,168.397 478.565,171.322 479.206 C 172.604 479.486,174.118 479.858,174.687 480.032 C 176.694 480.645,184.419 478.072,186.601 476.063 C 190.770 472.224,191.961 468.137,191.981 457.600 L 192.000 448.000 215.806 448.000 L 239.611 448.000 239.912 458.453 C 240.176 467.618,240.459 469.302,242.208 472.114 C 248.440 482.138,263.560 482.138,269.792 472.114 C 271.541 469.302,271.824 467.618,272.088 458.453 L 272.389 448.000 296.194 448.000 L 320.000 448.000 320.019 457.600 C 320.039 468.137,321.230 472.224,325.399 476.063 C 327.581 478.072,335.306 480.645,337.313 480.032 C 337.882 479.858,339.396 479.486,340.678 479.206 C 343.603 478.565,348.661 474.182,350.493 470.700 C 351.465 468.852,351.998 465.051,352.258 458.109 L 352.631 448.166 374.502 447.799 C 394.311 447.467,396.936 447.250,402.347 445.499 C 423.018 438.807,438.807 423.018,445.499 402.347 C 447.250 396.936,447.467 394.311,447.799 374.502 L 448.166 352.631 458.109 352.258 C 465.051 351.998,468.852 351.465,470.700 350.493 C 474.182 348.661,478.565 343.603,479.206 340.678 C 479.486 339.396,479.858 337.882,480.032 337.313 C 480.645 335.306,478.072 327.581,476.063 325.399 C 472.224 321.230,468.137 320.039,457.600 320.019 L 448.000 320.000 448.000 296.194 L 448.000 272.389 458.453 272.088 C 467.618 271.824,469.302 271.541,472.114 269.792 C 482.362 263.421,482.169 248.272,471.764 242.350 C 468.523 240.506,466.785 240.199,458.027 239.923 L 448.000 239.607 448.000 215.803 L 448.000 192.000 457.600 191.981 C 468.137 191.961,472.224 190.770,476.063 186.601 C 478.072 184.419,480.645 176.694,480.032 174.687 C 479.858 174.118,479.486 172.604,479.206 171.322 C 478.582 168.472,474.198 163.340,470.956 161.663 C 469.259 160.786,465.603 160.427,458.365 160.427 L 448.166 160.427 447.801 138.027 C 447.469 117.654,447.260 115.086,445.500 109.653 C 438.782 88.918,422.661 72.854,402.357 66.661 C 396.076 64.745,393.777 64.546,374.076 64.204 L 352.631 63.832 352.258 53.889 C 351.841 42.783,350.984 40.307,346.055 35.979 C 342.369 32.743,340.108 32.105,334.102 32.603 C 328.449 33.071,323.936 36.215,321.633 41.288 C 320.382 44.041,320.033 46.875,320.019 54.400 L 320.000 64.000 296.194 64.000 L 272.389 64.000 272.088 53.547 C 271.824 44.382,271.541 42.698,269.792 39.886 C 263.635 29.983,248.365 29.983,242.208 39.886 C 240.459 42.698,240.176 44.382,239.912 53.547 L 239.611 64.000 215.806 64.000 L 192.000 64.000 192.000 54.586 C 192.000 41.827,190.193 37.567,183.287 34.043 C 179.753 32.239,172.145 31.898,169.387 33.420 M397.227 98.942 C 403.154 101.845,409.694 108.278,412.653 114.118 L 415.147 119.040 415.147 256.000 L 415.147 392.960 412.679 397.831 C 407.683 407.689,398.833 414.080,388.068 415.601 C 381.142 416.580,130.858 416.580,123.932 415.601 C 113.167 414.080,104.317 407.689,99.321 397.831 L 96.853 392.960 96.853 256.000 L 96.853 119.040 98.953 114.773 C 102.658 107.243,110.044 100.494,117.666 97.675 C 120.194 96.740,145.146 96.565,256.853 96.695 L 392.960 96.853 397.227 98.942 M153.050 128.877 C 144.108 130.672,135.041 138.145,130.816 147.200 L 128.427 152.320 128.427 256.000 L 128.427 359.680 130.815 364.800 C 133.949 371.520,140.521 378.120,147.111 381.166 L 152.320 383.573 256.000 383.573 L 359.680 383.573 364.800 381.185 C 371.520 378.051,378.120 371.479,381.166 364.889 L 383.573 359.680 383.573 256.000 L 383.573 152.320 381.166 147.111 C 378.120 140.521,371.520 133.949,364.800 130.815 L 359.680 128.427 258.133 128.297 C 202.283 128.225,154.995 128.486,153.050 128.877 M351.573 256.427 L 351.573 352.427 256.000 352.427 L 160.427 352.427 160.427 256.427 L 160.427 160.427 256.000 160.427 L 351.573 160.427 351.573 256.427 " stroke="none" fill="black" fill-rule="evenodd"></path></svg>