<svg xmlns="http://www.w3.org/2000/svg" width="512" height="512" viewBox="0 0 512 512"><path d="M169.387 33.420 C 166.592 34.962,162.927 38.652,161.475 41.387 C 160.536 43.154,159.999 47.053,159.739 53.973 L 159.363 64.000 141.216 64.000 C 118.413 64.000,112.104 65.048,100.201 70.814 C 86.159 77.616,74.567 89.740,68.975 103.474 C 64.852 113.597,64.000 120.059,64.000 141.191 L 64.000 160.427 53.718 160.427 C 46.408 160.427,42.744 160.784,41.044 161.663 C 37.802 163.340,33.418 168.472,32.794 171.322 C 32.514 172.604,32.154 174.086,31.996 174.615 C 31.397 176.614,33.462 183.117,35.576 185.889 C 39.186 190.621,43.320 191.960,54.400 191.981 L 64.000 192.000 64.000 215.788 L 64.000 239.576 53.973 239.934 C 45.317 240.242,43.439 240.576,40.236 242.376 C 32.344 246.812,29.872 256.549,34.675 264.282 C 38.437 270.339,41.878 271.728,53.973 272.071 L 64.000 272.356 64.000 296.178 L 64.000 320.000 54.400 320.019 C 43.320 320.040,39.186 321.379,35.576 326.111 C 33.462 328.883,31.397 335.386,31.996 337.385 C 32.154 337.914,32.514 339.396,32.794 340.678 C 33.435 343.603,37.818 348.661,41.300 350.493 C 43.152 351.467,46.959 351.998,53.973 352.261 L 64.000 352.637 64.000 371.341 C 64.000 391.914,64.877 398.461,68.984 408.554 C 74.956 423.227,88.776 437.041,103.474 443.025 C 113.534 447.122,120.097 448.000,140.659 448.000 L 159.363 448.000 159.739 458.027 C 160.002 465.041,160.533 468.848,161.507 470.700 C 163.339 474.182,168.397 478.565,171.322 479.206 C 172.604 479.486,174.086 479.846,174.615 480.004 C 176.614 480.603,183.117 478.538,185.889 476.424 C 190.621 472.814,191.960 468.680,191.981 457.600 L 192.000 448.000 215.822 448.000 L 239.644 448.000 239.929 458.027 C 240.272 470.122,241.661 473.563,247.718 477.325 C 253.164 480.708,258.836 480.708,264.282 477.325 C 270.339 473.563,271.728 470.122,272.071 458.027 L 272.356 448.000 296.178 448.000 L 320.000 448.000 320.019 457.600 C 320.040 468.680,321.379 472.814,326.111 476.424 C 328.883 478.538,335.386 480.603,337.385 480.004 C 337.914 479.846,339.396 479.486,340.678 479.206 C 343.603 478.565,348.661 474.182,350.493 470.700 C 351.467 468.848,351.998 465.041,352.261 458.027 L 352.637 448.000 371.341 448.000 C 392.044 448.000,398.438 447.131,408.617 442.933 C 416.410 439.720,423.290 434.935,429.749 428.236 C 436.313 421.429,439.770 416.288,442.919 408.652 C 447.132 398.436,448.000 392.060,448.000 371.341 L 448.000 352.637 458.027 352.261 C 465.041 351.998,468.848 351.467,470.700 350.493 C 474.182 348.661,478.565 343.603,479.206 340.678 C 479.486 339.396,479.846 337.914,480.004 337.385 C 480.603 335.386,478.538 328.883,476.424 326.111 C 472.814 321.379,468.680 320.040,457.600 320.019 L 448.000 320.000 448.000 296.178 L 448.000 272.356 458.027 272.071 C 470.122 271.728,473.563 270.339,477.325 264.282 C 482.128 256.549,479.656 246.812,471.764 242.376 C 468.561 240.576,466.683 240.242,458.027 239.934 L 448.000 239.576 448.000 215.788 L 448.000 192.000 457.600 191.981 C 468.680 191.960,472.814 190.621,476.424 185.889 C 482.857 177.455,479.550 164.973,469.918 161.334 C 468.597 160.835,463.125 160.427,457.758 160.427 L 448.000 160.427 448.000 141.191 C 448.000 120.059,447.148 113.597,443.025 103.474 C 437.433 89.740,425.841 77.616,411.799 70.814 C 399.896 65.048,393.587 64.000,370.784 64.000 L 352.637 64.000 352.261 53.973 C 351.856 43.166,351.045 40.605,346.743 36.534 C 342.100 32.141,334.497 31.090,328.713 34.043 C 321.807 37.567,320.000 41.827,320.000 54.586 L 320.000 64.000 296.178 64.000 L 272.356 64.000 272.070 53.973 C 271.724 41.885,270.423 38.538,264.641 34.872 C 259.218 31.433,252.782 31.433,247.359 34.872 C 241.577 38.538,240.276 41.885,239.930 53.973 L 239.644 64.000 215.822 64.000 L 192.000 64.000 192.000 54.586 C 192.000 41.827,190.193 37.567,183.287 34.043 C 179.753 32.239,172.145 31.898,169.387 33.420 M364.800 130.815 C 371.520 133.949,378.120 140.521,381.166 147.111 L 383.573 152.320 383.573 256.000 L 383.573 359.680 381.166 364.889 C 378.120 371.479,371.520 378.051,364.800 381.185 L 359.680 383.573 256.000 383.573 L 152.320 383.573 147.111 381.166 C 140.521 378.120,133.949 371.520,130.815 364.800 L 128.427 359.680 128.427 256.000 L 128.427 152.320 130.816 147.200 C 134.931 138.381,143.658 131.032,152.530 128.918 C 154.338 128.487,200.137 128.214,257.707 128.291 L 359.680 128.427 364.800 130.815 M163.547 161.393 C 159.518 163.735,159.573 162.407,159.573 256.000 C 159.573 353.589,159.295 348.768,165.062 351.177 C 169.555 353.055,342.445 353.055,346.938 351.177 C 352.705 348.768,352.427 353.589,352.427 256.000 C 352.427 161.882,352.502 163.604,348.288 161.349 C 345.875 160.057,165.770 160.101,163.547 161.393 " stroke="none" fill-rule="evenodd" fill="black"></path></svg>