<svg xmlns="http://www.w3.org/2000/svg" width="512" height="512" viewBox="0 0 512 512"><path d="M153.600 48.178 L 153.600 63.930 117.547 64.178 L 81.493 64.427 76.920 66.959 C 74.405 68.353,71.037 71.024,69.435 72.896 C 64.217 78.991,64.000 80.858,64.000 119.622 L 64.000 154.453 47.787 154.453 L 31.573 154.453 31.573 176.213 L 31.573 197.973 47.787 197.973 L 64.000 197.973 64.000 215.875 L 64.000 233.776 48.000 234.008 L 32.000 234.240 32.000 256.000 L 32.000 277.760 48.000 277.992 L 64.000 278.224 64.000 296.125 L 64.000 314.027 47.772 314.027 L 31.545 314.027 31.772 336.000 L 32.000 357.973 48.000 358.205 L 64.000 358.438 64.000 392.824 C 64.000 433.302,64.053 433.658,71.198 440.802 C 78.342 447.947,78.698 448.000,119.176 448.000 L 153.562 448.000 153.795 464.000 L 154.027 480.000 176.000 480.228 L 197.973 480.455 197.973 464.228 L 197.973 448.000 215.875 448.000 L 233.776 448.000 234.008 464.000 L 234.240 480.000 256.000 480.000 L 277.760 480.000 277.992 464.000 L 278.224 448.000 296.125 448.000 L 314.027 448.000 314.027 464.228 L 314.027 480.455 336.000 480.228 L 357.973 480.000 358.205 464.000 L 358.438 448.000 392.824 448.000 C 433.302 448.000,433.658 447.947,440.802 440.802 C 447.947 433.658,448.000 433.302,448.000 392.824 L 448.000 358.438 464.000 358.205 L 480.000 357.973 480.228 336.000 L 480.455 314.027 464.228 314.027 L 448.000 314.027 448.000 296.125 L 448.000 278.224 464.000 277.992 L 480.000 277.760 480.000 256.000 L 480.000 234.240 464.000 234.008 L 448.000 233.776 448.000 215.875 L 448.000 197.973 464.213 197.973 L 480.427 197.973 480.427 176.213 L 480.427 154.453 464.213 154.453 L 448.000 154.453 448.000 119.622 C 448.000 80.858,447.783 78.991,442.565 72.896 C 440.963 71.024,437.595 68.353,435.080 66.959 L 430.507 64.427 394.453 64.178 L 358.400 63.930 358.400 48.178 L 358.400 32.427 336.213 32.427 L 314.027 32.427 314.027 48.213 L 314.027 64.000 296.107 64.000 L 278.187 64.000 278.187 48.213 L 278.187 32.427 256.000 32.427 L 233.813 32.427 233.813 48.213 L 233.813 64.000 215.893 64.000 L 197.973 64.000 197.973 48.213 L 197.973 32.427 175.787 32.427 L 153.600 32.427 153.600 48.178 M384.000 256.000 L 384.000 384.000 256.000 384.000 L 128.000 384.000 128.000 256.000 L 128.000 128.000 256.000 128.000 L 384.000 128.000 384.000 256.000 M159.783 256.213 L 160.000 352.000 256.000 352.000 L 352.000 352.000 352.217 256.213 L 352.434 160.427 256.000 160.427 L 159.566 160.427 159.783 256.213 " stroke="none" fill-rule="evenodd" fill="black"></path></svg>