<svg xmlns="http://www.w3.org/2000/svg" width="512" height="512" viewBox="0 0 512 512"><path d="M230.028 33.813 C 158.019 43.035,89.529 91.887,55.836 158.058 C 23.433 221.695,24.327 290.599,58.582 369.731 C 77.354 413.097,103.760 454.886,121.791 469.764 C 135.235 480.856,144.126 482.206,166.504 476.553 C 183.100 472.361,217.397 459.277,234.738 450.524 L 239.870 447.933 234.068 437.018 C 205.408 383.096,128.278 240.658,127.736 240.650 C 127.356 240.645,115.124 247.576,100.554 256.054 C 85.984 264.531,73.921 271.325,73.747 271.152 C 73.573 270.978,73.182 266.058,72.877 260.218 C 72.212 247.465,73.525 231.377,76.401 217.049 C 83.098 183.677,100.386 151.792,125.668 126.183 C 170.612 80.658,230.785 61.689,291.632 73.866 C 361.846 87.916,421.613 147.358,435.599 217.049 C 438.475 231.377,439.788 247.465,439.123 260.218 C 438.818 266.058,438.417 270.988,438.231 271.173 C 438.046 271.359,425.988 264.564,411.436 256.075 C 396.883 247.586,384.660 240.640,384.273 240.640 C 383.748 240.640,273.829 443.574,272.369 447.238 C 271.309 449.900,324.676 471.294,345.496 476.553 C 367.874 482.206,376.765 480.856,390.209 469.764 C 410.833 452.747,442.027 400.828,459.939 353.707 C 487.655 280.795,486.434 217.506,456.164 158.058 C 425.747 98.321,365.903 51.653,301.227 37.235 C 279.854 32.470,251.247 31.096,230.028 33.813 " stroke="none" fill-rule="evenodd" fill="black"></path></svg>