<svg xmlns="http://www.w3.org/2000/svg" width="512" height="512" viewBox="0 0 512 512"><path d="M230.028 33.813 C 181.671 40.006,134.884 63.615,98.525 100.171 C 85.083 113.686,78.850 121.275,68.672 136.520 C 38.951 181.041,26.117 236.365,34.620 283.307 C 39.606 310.830,60.165 373.602,72.489 398.933 C 91.285 437.567,125.843 469.580,157.085 477.299 C 177.961 482.457,191.178 480.396,211.774 468.771 C 223.331 462.248,228.417 457.852,231.541 451.688 C 236.217 442.461,236.301 432.564,231.787 422.917 C 230.665 420.521,210.164 384.192,186.229 342.187 C 155.154 287.652,141.625 264.680,138.916 261.849 C 134.947 257.703,128.766 254.093,123.793 253.017 C 119.099 252.001,109.954 252.393,106.049 253.778 C 99.627 256.054,82.046 267.034,76.468 272.252 C 71.012 277.356,68.473 278.358,66.628 276.135 C 64.602 273.694,63.586 256.048,64.696 242.572 C 68.485 196.552,87.128 157.012,121.162 122.812 C 147.807 96.037,179.765 77.772,215.040 69.156 C 229.618 65.595,239.400 64.478,256.000 64.478 C 272.600 64.478,282.382 65.595,296.960 69.156 C 332.000 77.714,363.938 95.911,390.438 122.414 C 419.031 151.010,436.439 182.629,444.224 220.110 C 447.214 234.507,448.545 253.601,447.332 264.706 C 446.167 275.380,445.843 276.346,443.208 277.008 C 441.545 277.425,440.143 276.565,435.681 272.392 C 430.502 267.546,418.627 259.890,409.180 255.304 C 397.181 249.480,380.738 252.666,372.206 262.469 C 368.708 266.488,281.287 419.659,278.999 425.776 C 274.532 437.721,277.345 450.801,286.228 459.397 C 290.712 463.736,308.494 473.893,316.351 476.604 C 335.170 483.096,357.303 479.787,378.278 467.344 C 403.524 452.368,425.410 427.916,439.511 398.933 C 448.731 379.982,466.190 329.739,473.029 302.475 C 478.432 280.934,479.813 271.101,479.764 254.527 C 479.640 212.457,467.265 172.377,443.328 136.520 C 433.150 121.275,426.917 113.686,413.475 100.171 C 376.710 63.207,329.936 39.791,280.772 33.737 C 267.693 32.127,242.907 32.164,230.028 33.813 " stroke="none" fill-rule="evenodd" fill="black"></path></svg>