<svg xmlns="http://www.w3.org/2000/svg" width="512" height="512" viewBox="0 0 512 512"><path d="M232.533 33.420 C 193.146 37.867,151.222 55.776,117.760 82.449 C 108.916 89.499,89.251 109.033,82.213 117.760 C 52.220 154.950,35.203 198.176,32.445 244.180 C 30.833 271.077,35.532 296.182,50.712 341.760 C 64.106 381.979,69.606 395.199,80.354 413.015 C 88.452 426.438,94.816 434.531,106.198 445.877 C 134.417 474.009,167.238 485.567,194.678 477.035 C 201.244 474.994,219.167 464.774,224.659 459.940 C 233.263 452.366,237.033 437.740,233.236 426.667 C 231.305 421.035,144.443 268.229,140.226 263.045 C 134.757 256.320,125.833 252.385,116.053 252.385 C 108.338 252.385,105.132 253.490,94.122 259.942 C 81.112 267.567,75.048 272.505,69.330 280.135 C 68.350 281.442,67.340 282.171,67.084 281.757 C 66.209 280.342,64.000 261.047,64.000 254.825 C 64.000 226.040,72.979 192.796,87.921 166.259 C 125.078 100.272,198.398 59.051,268.587 64.689 C 332.172 69.796,391.632 108.637,424.079 166.259 C 442.965 199.800,451.822 243.048,446.237 274.449 C 444.749 282.816,444.717 282.866,442.671 280.137 C 436.952 272.505,430.889 267.567,417.878 259.942 C 406.868 253.490,403.662 252.385,395.947 252.385 C 386.169 252.385,377.247 256.319,371.771 263.045 C 367.553 268.226,280.692 421.033,278.762 426.667 C 274.968 437.744,278.739 452.367,287.341 459.940 C 292.833 464.774,310.756 474.994,317.322 477.035 C 334.297 482.313,352.008 480.236,371.627 470.667 C 384.486 464.394,394.577 457.040,406.241 445.440 C 421.023 430.739,435.379 409.566,443.779 390.075 C 448.274 379.644,461.472 341.852,466.611 324.693 C 477.765 287.455,480.951 267.540,479.537 243.911 C 475.960 184.135,447.534 128.165,400.104 87.509 C 364.993 57.413,321.312 38.029,278.007 33.327 C 268.255 32.268,242.272 32.321,232.533 33.420 M158.760 358.827 C 181.441 398.720,200.702 432.556,201.562 434.018 L 203.126 436.676 195.527 441.061 C 191.347 443.474,186.300 446.022,184.310 446.724 C 171.143 451.369,149.747 443.038,131.532 426.173 C 115.930 411.729,101.973 389.896,94.029 367.511 C 89.017 353.390,87.555 344.980,87.546 330.240 C 87.538 316.625,88.765 310.105,92.695 302.886 C 95.685 297.392,98.870 294.488,107.947 288.980 C 113.707 285.484,115.863 284.566,116.574 285.306 C 117.095 285.849,136.078 318.933,158.760 358.827 M413.354 295.377 C 417.649 299.132,421.008 305.065,422.996 312.410 C 425.165 320.421,424.983 340.709,422.645 351.573 C 418.212 372.167,406.125 396.615,391.567 414.432 C 372.222 438.107,343.879 452.435,327.690 446.724 C 323.199 445.139,308.813 436.903,309.250 436.167 C 309.427 435.870,328.466 402.411,351.560 361.813 C 374.653 321.216,394.087 287.149,394.747 286.109 L 395.947 284.219 402.873 288.243 C 406.682 290.456,411.398 293.666,413.354 295.377 " stroke="none" fill-rule="evenodd" fill="black"></path></svg>