<svg xmlns="http://www.w3.org/2000/svg" width="512" height="512" viewBox="0 0 512 512"><path d="M49.920 48.187 C 49.451 48.354,48.040 48.716,46.786 48.992 C 41.375 50.180,35.877 57.744,35.877 64.000 C 35.877 65.643,36.598 68.523,37.479 70.400 C 38.586 72.761,95.686 130.745,222.771 258.560 C 323.801 360.171,407.736 444.226,409.293 445.350 C 415.534 449.855,425.619 448.084,430.551 441.618 C 433.427 437.847,434.415 430.099,432.583 425.677 C 431.385 422.784,64.432 53.043,60.091 50.354 C 57.672 48.856,51.646 47.572,49.920 48.187 M158.720 80.711 C 146.415 82.904,141.562 83.938,141.256 84.432 C 141.056 84.755,146.920 91.021,154.287 98.356 L 167.680 111.692 176.511 112.645 C 188.433 113.931,198.304 116.939,209.227 122.614 C 224.872 130.741,238.078 142.947,248.135 158.574 C 256.932 172.242,259.464 174.759,265.193 175.528 C 270.165 176.194,274.310 175.213,277.359 172.647 C 278.809 171.427,282.798 166.162,286.223 160.948 C 305.047 132.290,328.829 115.850,356.100 112.644 C 379.812 109.857,404.361 118.893,421.001 136.533 C 427.983 143.934,430.948 148.292,435.649 158.059 C 442.252 171.781,443.241 176.875,443.232 197.120 C 443.226 211.388,442.879 216.518,441.354 224.942 C 435.018 259.932,419.763 291.498,393.311 324.355 L 386.714 332.550 398.055 343.868 L 409.396 355.186 415.812 347.478 C 442.182 315.794,460.129 282.485,468.849 249.042 C 477.981 214.015,478.418 183.055,470.136 157.712 C 464.529 140.555,455.483 126.037,442.050 112.640 C 420.665 91.312,394.242 80.223,364.800 80.223 C 329.900 80.223,297.075 96.555,271.464 126.663 L 267.883 130.872 265.234 127.516 C 260.091 121.003,245.998 107.877,238.034 102.184 C 224.540 92.537,209.277 85.728,193.280 82.222 C 187.535 80.963,163.262 79.901,158.720 80.711 M68.445 150.728 C 66.888 153.674,63.253 166.128,61.722 173.761 C 59.893 182.883,59.704 206.537,61.356 219.733 C 64.791 247.174,74.356 276.296,88.007 300.876 C 115.851 351.015,163.658 398.481,239.360 451.151 C 252.655 460.401,255.748 462.035,262.659 463.463 C 268.897 464.751,275.994 463.649,282.399 460.397 C 289.860 456.610,337.828 421.908,337.888 420.254 C 337.906 419.778,332.973 414.453,326.926 408.419 L 315.933 397.450 305.806 405.089 C 289.442 417.434,268.508 431.857,267.511 431.475 C 265.670 430.768,245.814 416.700,229.590 404.608 C 170.894 360.859,133.769 320.576,112.294 277.333 C 101.225 255.046,95.184 234.440,92.946 211.339 C 92.035 201.930,92.293 184.037,93.441 177.067 C 93.827 174.726,92.810 173.419,81.574 161.821 C 70.791 150.690,69.183 149.331,68.445 150.728 " stroke="none" fill-rule="evenodd" fill="black"></path></svg>