<svg xmlns="http://www.w3.org/2000/svg" width="512" height="512" viewBox="0 0 512 512"><path d="M148.480 64.534 C 133.564 66.428,122.109 69.873,109.760 76.179 C 78.976 91.897,56.992 121.276,50.245 155.709 C 45.895 177.915,48.014 208.000,55.904 236.031 C 75.064 304.106,127.488 365.451,224.000 432.733 C 240.310 444.103,241.810 444.994,247.408 446.639 C 255.542 449.028,264.965 447.831,272.213 443.488 C 277.260 440.464,300.150 424.279,312.747 414.828 C 377.762 366.046,416.777 323.554,440.947 275.200 C 460.312 236.459,468.520 189.001,461.669 155.385 C 452.375 109.779,417.774 74.856,373.086 65.979 C 362.733 63.923,341.770 63.933,331.947 66.000 C 307.338 71.176,286.610 82.901,266.757 102.875 C 260.700 108.969,257.287 111.787,255.962 111.787 C 254.655 111.787,251.624 109.343,246.629 104.262 C 225.753 83.026,205.326 71.250,180.480 66.128 C 173.793 64.750,154.391 63.783,148.480 64.534 " stroke="none" fill-rule="evenodd" fill="black"></path></svg>