<svg xmlns="http://www.w3.org/2000/svg" width="512" height="512" viewBox="0 0 512 512"><path d="M241.920 48.669 C 177.359 52.784,118.768 87.102,81.958 142.362 C 55.666 181.831,43.309 234.683,49.503 281.173 C 55.829 328.652,75.879 369.527,109.176 402.824 C 142.702 436.350,182.619 455.851,231.680 462.670 C 235.904 463.257,246.848 463.738,256.000 463.738 C 265.152 463.738,276.096 463.257,280.320 462.670 C 329.321 455.859,369.272 436.331,402.802 402.802 C 436.331 369.272,455.859 329.321,462.670 280.320 C 464.046 270.420,464.046 241.580,462.670 231.680 C 455.892 182.914,436.342 142.776,403.220 109.623 C 391.401 97.792,382.569 90.546,369.558 82.006 C 331.997 57.351,287.606 45.757,241.920 48.669 M219.678 169.390 C 228.251 171.206,238.181 176.492,246.920 183.892 C 251.079 187.413,255.182 190.293,256.039 190.293 C 256.897 190.293,260.022 188.166,262.986 185.565 C 277.995 172.394,291.424 167.274,308.124 168.356 C 321.586 169.228,333.099 174.528,342.965 184.395 C 358.208 199.637,362.900 219.032,357.863 245.975 C 351.315 281.006,324.594 314.824,276.104 349.450 C 256.329 363.572,255.671 363.572,235.896 349.450 C 178.427 308.412,152.682 270.646,152.410 226.987 C 152.335 214.975,153.319 209.859,157.418 200.960 C 168.542 176.805,193.925 163.934,219.678 169.390 " stroke="none" fill-rule="evenodd" fill="black"></path></svg>