<svg xmlns="http://www.w3.org/2000/svg" width="512" height="512" viewBox="0 0 512 512"><path d="M149.333 64.486 C 148.160 64.691,144.320 65.280,140.800 65.794 C 103.091 71.304,68.210 101.112,54.717 139.359 C 48.815 156.088,46.864 173.689,48.599 194.560 C 52.588 242.570,70.488 284.571,105.697 328.533 C 113.857 338.722,140.193 365.207,151.467 374.561 C 168.286 388.517,191.249 405.065,223.360 426.371 L 256.000 448.028 288.640 426.371 C 338.803 393.088,359.343 377.183,384.063 352.479 C 432.736 303.839,458.598 252.361,463.401 194.560 C 466.095 162.146,459.808 136.257,443.411 112.243 C 427.026 88.247,399.984 70.778,371.200 65.593 C 361.068 63.769,340.169 64.188,329.653 66.427 C 303.931 71.902,281.078 85.106,262.044 105.488 L 256.000 111.960 249.956 105.488 C 230.873 85.054,207.710 71.695,182.347 66.495 C 174.105 64.806,154.374 63.605,149.333 64.486 " stroke="none" fill-rule="evenodd" fill="black"></path></svg>