<svg xmlns="http://www.w3.org/2000/svg" width="512" height="512" viewBox="0 0 512 512"><path d="M241.920 48.669 C 177.359 52.784,118.768 87.102,81.958 142.362 C 55.666 181.831,43.309 234.683,49.503 281.173 C 55.829 328.652,75.879 369.527,109.176 402.824 C 142.702 436.350,182.619 455.851,231.680 462.670 C 235.904 463.257,246.848 463.738,256.000 463.738 C 265.152 463.738,276.096 463.257,280.320 462.670 C 329.321 455.859,369.272 436.331,402.802 402.802 C 436.331 369.272,455.859 329.321,462.670 280.320 C 464.046 270.420,464.046 241.580,462.670 231.680 C 455.892 182.914,436.342 142.776,403.220 109.623 C 391.401 97.792,382.569 90.546,369.558 82.006 C 331.997 57.351,287.606 45.757,241.920 48.669 M293.821 287.369 L 342.308 335.913 330.983 347.064 L 319.658 358.215 228.138 267.214 L 136.618 176.213 147.823 164.954 L 159.028 153.695 202.181 196.259 C 225.915 219.670,267.153 260.669,293.821 287.369 M225.707 170.987 C 234.597 173.847,241.760 178.168,249.629 185.419 L 256.000 191.289 262.371 185.419 C 274.278 174.447,286.282 169.181,301.227 168.375 C 327.978 166.931,351.015 184.101,358.112 210.773 C 360.064 218.111,360.054 234.961,358.092 245.086 C 354.974 261.172,346.986 278.877,336.305 293.373 L 330.460 301.306 264.137 235.386 C 209.052 180.634,198.081 169.350,199.387 168.787 C 202.684 167.367,218.585 168.696,225.707 170.987 M282.233 344.320 C 282.346 344.789,276.619 349.176,269.506 354.068 L 256.572 362.963 254.111 361.550 C 245.053 356.352,205.502 324.563,191.212 310.995 C 172.499 293.228,158.103 267.835,154.089 245.512 C 152.263 235.358,151.621 226.186,152.316 220.195 L 152.924 214.953 217.476 279.210 C 252.979 314.551,282.119 343.851,282.233 344.320 " stroke="none" fill-rule="evenodd" fill="black"></path></svg>