<svg xmlns="http://www.w3.org/2000/svg" width="512" height="512" viewBox="0 0 512 512"><path d="M149.333 64.486 C 148.160 64.691,144.320 65.280,140.800 65.794 C 103.091 71.304,68.210 101.112,54.717 139.359 C 48.815 156.088,46.864 173.689,48.599 194.560 C 54.711 268.121,95.035 331.839,177.224 397.806 C 199.856 415.972,233.896 440.472,242.716 444.944 C 247.417 447.327,248.639 447.569,256.000 447.569 C 263.361 447.569,264.583 447.327,269.284 444.944 C 282.711 438.136,329.794 402.885,355.649 380.281 C 416.518 327.066,451.349 272.097,461.163 213.760 C 468.146 172.260,462.552 140.277,443.411 112.243 C 427.025 88.245,399.937 70.748,371.200 65.599 C 362.147 63.977,340.967 64.179,332.081 65.971 C 306.291 71.174,281.909 85.639,262.768 107.093 C 259.418 110.848,256.365 113.920,255.983 113.920 C 255.602 113.920,252.764 111.040,249.677 107.520 C 231.079 86.309,205.594 71.078,180.371 66.098 C 173.793 64.799,153.554 63.748,149.333 64.486 M373.598 98.911 C 400.646 106.788,422.020 129.095,429.271 157.013 C 434.211 176.031,431.392 209.464,422.655 235.493 C 405.351 287.044,365.911 334.617,297.813 386.081 C 283.472 396.919,257.261 415.573,256.373 415.573 C 256.138 415.573,256.078 365.365,256.239 304.000 C 256.503 203.962,256.679 191.779,257.946 186.162 C 263.594 161.105,273.044 142.940,289.207 126.071 C 304.363 110.252,319.055 101.535,337.067 97.675 C 345.435 95.881,365.530 96.561,373.598 98.911 " stroke="none" fill-rule="evenodd" fill="black"></path></svg>