<svg xmlns="http://www.w3.org/2000/svg" width="512" height="512" viewBox="0 0 512 512"><path d="M146.468 64.877 C 126.284 67.181,105.982 75.914,89.645 89.319 C 69.443 105.896,55.966 128.540,50.214 155.573 C 48.708 162.652,48.358 167.199,48.329 180.053 C 48.310 188.736,48.789 199.488,49.395 203.947 C 60.661 286.914,112.574 354.560,226.133 434.249 C 232.469 438.695,239.957 443.511,242.773 444.951 C 247.425 447.329,248.634 447.569,256.000 447.569 C 263.366 447.569,264.575 447.329,269.227 444.951 C 280.931 438.966,319.798 410.290,345.600 388.602 C 403.444 339.981,437.052 294.800,453.820 243.113 C 460.719 221.846,463.722 202.627,463.671 180.053 C 463.642 167.199,463.292 162.652,461.786 155.573 C 456.908 132.647,446.601 113.136,431.082 97.446 C 421.159 87.413,413.742 82.030,401.493 75.968 C 383.879 67.252,372.611 64.583,353.280 64.550 C 334.247 64.517,320.998 67.398,304.880 75.076 C 291.094 81.643,281.757 88.506,268.160 102.066 L 256.000 114.193 243.840 102.037 C 230.430 88.632,220.517 81.393,206.470 74.749 C 197.847 70.671,186.625 67.106,178.063 65.727 C 170.130 64.448,154.018 64.015,146.468 64.877 M172.857 97.324 C 199.402 102.025,224.328 121.675,242.496 152.222 C 248.505 162.325,263.495 162.325,269.504 152.222 C 287.928 121.244,313.153 101.564,339.981 97.237 C 349.042 95.775,365.595 96.623,373.727 98.965 C 388.181 103.129,403.824 113.518,412.972 125.030 C 422.193 136.634,427.202 147.302,430.193 161.707 C 433.172 176.053,431.738 200.829,426.736 221.440 C 419.785 250.084,404.172 280.065,381.833 307.665 C 356.161 339.383,311.867 377.983,263.460 410.821 L 256.000 415.881 248.540 410.821 C 238.653 404.113,217.363 388.591,207.787 381.108 C 130.771 320.923,92.846 268.290,82.286 206.933 C 81.559 202.709,80.755 192.725,80.500 184.747 C 80.096 172.137,80.270 169.109,81.827 161.591 C 84.838 147.060,90.616 135.095,100.204 123.539 C 111.011 110.512,129.653 99.896,146.773 97.018 C 151.234 96.268,168.007 96.464,172.857 97.324 " stroke="none" fill-rule="evenodd" fill="black"></path></svg>