<svg xmlns="http://www.w3.org/2000/svg" width="512" height="512" viewBox="0 0 512 512"><path d="M49.920 48.187 C 49.451 48.354,48.040 48.716,46.786 48.992 C 41.375 50.180,35.877 57.744,35.877 64.000 C 35.877 65.643,36.596 68.523,37.475 70.400 C 38.583 72.766,95.443 130.506,222.768 258.560 C 323.801 360.171,407.722 444.215,409.259 445.326 C 414.345 448.999,422.634 448.613,427.917 444.457 C 432.910 440.530,434.940 431.781,432.316 425.501 C 431.061 422.498,64.545 53.112,60.071 50.342 C 57.668 48.854,51.640 47.574,49.920 48.187 M158.720 80.768 C 150.679 81.985,141.548 83.960,141.174 84.565 C 140.930 84.961,201.129 146.009,274.950 220.229 L 409.170 355.173 412.862 351.027 C 414.892 348.746,420.337 341.888,424.961 335.787 C 453.302 298.397,469.288 261.140,474.575 220.160 C 476.211 207.481,476.003 181.998,474.192 172.996 C 464.508 124.886,427.591 88.485,381.296 81.400 C 370.613 79.765,352.767 80.191,342.613 82.323 C 319.385 87.201,299.082 98.670,280.010 117.689 C 272.437 125.241,269.728 127.431,267.960 127.431 C 266.198 127.431,263.566 125.317,256.360 118.116 C 246.051 107.812,241.254 103.942,230.204 97.015 C 212.484 85.907,191.545 80.082,170.240 80.335 C 165.077 80.396,159.893 80.591,158.720 80.768 M68.345 150.914 C 66.875 153.702,63.210 166.346,61.722 173.761 C 59.893 182.883,59.704 206.537,61.356 219.733 C 64.791 247.174,74.356 276.296,88.007 300.876 C 107.980 336.842,138.142 371.339,180.480 406.641 C 201.458 424.132,244.868 456.040,253.867 460.582 C 262.603 464.991,272.418 465.094,281.269 460.867 C 288.950 457.200,337.817 422.165,337.888 420.275 C 337.906 419.810,312.087 393.506,280.514 361.822 C 248.941 330.137,188.454 269.405,146.098 226.861 C 84.080 164.569,68.942 149.782,68.345 150.914 " stroke="none" fill-rule="evenodd" fill="black"></path></svg>