<svg xmlns="http://www.w3.org/2000/svg" width="512" height="512" viewBox="0 0 512 512"><path d="M241.920 48.669 C 177.359 52.784,118.768 87.102,81.958 142.362 C 55.666 181.831,43.309 234.683,49.503 281.173 C 55.829 328.652,75.879 369.527,109.176 402.824 C 142.702 436.350,182.619 455.851,231.680 462.670 C 235.904 463.257,246.848 463.738,256.000 463.738 C 265.152 463.738,276.096 463.257,280.320 462.670 C 329.321 455.859,369.272 436.331,402.802 402.802 C 436.331 369.272,455.859 329.321,462.670 280.320 C 464.046 270.420,464.046 241.580,462.670 231.680 C 455.892 182.914,436.342 142.776,403.220 109.623 C 391.401 97.792,382.569 90.546,369.558 82.006 C 331.997 57.351,287.606 45.757,241.920 48.669 M219.307 169.315 C 230.463 171.686,240.632 177.544,250.204 187.116 L 256.036 192.949 261.778 187.037 C 274.867 173.560,290.595 167.221,308.124 168.356 C 321.586 169.228,333.099 174.528,342.965 184.395 C 358.208 199.637,362.900 219.032,357.863 245.975 C 354.106 266.075,341.854 289.059,325.973 305.797 C 314.056 318.359,289.726 339.199,267.480 355.902 L 256.000 364.520 244.268 355.712 C 221.999 338.992,198.036 318.456,186.027 305.797 C 177.693 297.013,170.213 286.336,164.426 274.963 C 155.727 257.866,152.437 244.438,152.463 226.133 C 152.477 216.036,152.756 213.770,154.716 207.787 C 159.894 191.983,170.720 179.609,185.141 173.009 C 195.451 168.291,208.067 166.927,219.307 169.315 " stroke="none" fill-rule="evenodd" fill="black"></path></svg>