<svg xmlns="http://www.w3.org/2000/svg" width="512" height="512" viewBox="0 0 512 512"><path d="M149.333 64.486 C 148.160 64.691,144.320 65.280,140.800 65.794 C 103.091 71.304,68.210 101.112,54.717 139.359 C 45.406 165.751,45.788 199.092,55.820 235.636 C 66.515 274.596,90.299 314.120,123.720 348.471 C 149.030 374.486,170.455 391.196,224.616 427.165 L 255.952 447.975 284.776 428.925 C 314.980 408.963,333.124 396.246,348.054 384.573 C 402.326 342.141,440.202 290.607,455.298 238.661 C 461.502 217.311,463.681 202.093,463.687 180.053 C 463.691 162.454,462.291 153.555,457.283 139.359 C 445.550 106.100,418.543 79.667,385.707 69.305 C 373.466 65.441,366.290 64.433,351.573 64.508 C 336.776 64.584,326.697 66.274,313.439 70.903 C 295.638 77.118,276.529 89.977,262.044 105.488 L 256.000 111.960 249.956 105.488 C 230.873 85.054,207.710 71.695,182.347 66.495 C 174.105 64.806,154.374 63.605,149.333 64.486 M373.598 98.908 C 387.242 102.888,402.817 112.802,411.365 122.947 C 424.680 138.748,430.804 154.669,431.584 175.509 C 433.206 218.823,417.410 262.011,384.356 304.640 C 375.569 315.972,351.633 340.367,339.200 350.662 C 321.915 364.974,299.680 380.967,270.738 399.902 L 256.000 409.545 256.000 285.911 L 256.000 162.278 271.209 144.072 C 279.574 134.059,288.642 123.838,291.361 121.359 C 304.830 109.078,320.036 101.040,336.213 97.650 C 344.704 95.870,365.597 96.574,373.598 98.908 " stroke="none" fill-rule="evenodd" fill="black"></path></svg>