<svg xmlns="http://www.w3.org/2000/svg" width="512" height="512" viewBox="0 0 512 512"><path d="M241.493 48.673 C 201.694 51.236,163.176 65.747,129.707 90.787 C 119.118 98.709,98.459 119.383,90.552 129.971 C 68.706 159.223,55.330 191.336,49.785 227.840 C 47.724 241.414,47.724 270.586,49.785 284.160 C 55.331 320.671,68.725 352.821,90.558 382.029 C 98.598 392.784,119.216 413.402,129.971 421.442 C 159.179 443.275,191.329 456.669,227.840 462.215 C 241.414 464.276,270.586 464.276,284.160 462.215 C 320.686 456.667,352.914 443.237,382.029 421.430 C 392.784 413.374,413.374 392.784,421.430 382.029 C 443.237 352.914,456.667 320.686,462.215 284.160 C 464.276 270.586,464.276 241.414,462.215 227.840 C 455.463 183.387,436.803 144.683,406.921 113.150 C 370.380 74.590,322.088 52.062,268.561 48.607 C 255.365 47.755,255.779 47.754,241.493 48.673 M284.160 82.308 C 319.998 88.383,351.735 104.258,377.739 129.118 C 405.349 155.513,423.300 189.800,429.832 228.618 C 431.923 241.048,431.905 271.514,429.799 283.733 C 419.921 341.032,385.307 387.989,334.011 413.679 C 285.590 437.929,226.410 437.929,177.989 413.679 C 126.525 387.905,91.775 340.650,82.174 283.382 C 80.053 270.734,80.053 241.266,82.174 228.618 C 92.715 165.745,133.739 115.017,192.849 91.764 C 205.896 86.632,221.606 82.941,239.787 80.737 C 246.454 79.928,276.372 80.988,284.160 82.308 M154.027 161.615 C 148.599 163.993,144.223 170.510,144.223 176.213 C 144.223 183.088,141.737 180.418,235.804 274.580 C 296.641 335.479,326.664 364.957,329.016 366.100 C 338.143 370.536,348.354 365.999,351.189 356.247 C 352.294 352.448,352.292 351.433,351.175 347.701 C 349.985 343.728,344.343 337.906,259.647 253.256 C 195.821 189.465,168.458 162.662,166.214 161.736 C 162.370 160.149,157.482 160.101,154.027 161.615 M203.264 169.131 C 202.701 169.694,202.240 170.999,202.240 172.031 C 202.240 173.381,219.632 191.176,264.320 235.550 C 298.464 269.453,327.238 297.743,328.263 298.417 C 331.108 300.287,332.896 298.813,339.099 289.485 C 346.620 278.175,351.049 269.258,354.617 258.247 C 364.607 227.412,360.592 201.959,342.965 184.380 C 332.765 174.206,321.352 169.088,307.239 168.359 C 297.152 167.837,289.063 169.421,280.309 173.631 C 274.379 176.483,263.548 184.359,259.921 188.457 C 257.159 191.578,254.815 190.759,246.838 183.888 C 238.249 176.490,228.417 171.241,219.678 169.390 C 212.481 167.865,204.653 167.742,203.264 169.131 M152.956 221.146 C 150.813 223.288,152.127 239.379,155.487 252.160 C 164.204 285.307,188.237 314.753,233.671 347.952 C 254.463 363.145,256.401 363.344,272.712 351.972 C 278.853 347.690,280.747 345.913,280.747 344.432 C 280.747 343.003,264.710 326.478,219.715 281.540 C 157.086 218.991,156.049 218.053,152.956 221.146 " stroke="none" fill-rule="evenodd" fill="black"></path></svg>