<svg xmlns="http://www.w3.org/2000/svg" width="512" height="512" viewBox="0 0 512 512"><path d="M241.920 48.669 C 177.359 52.784,118.768 87.102,81.958 142.362 C 55.666 181.831,43.309 234.683,49.503 281.173 C 55.829 328.652,75.879 369.527,109.176 402.824 C 142.702 436.350,182.619 455.851,231.680 462.670 C 235.904 463.257,246.848 463.738,256.000 463.738 C 265.152 463.738,276.096 463.257,280.320 462.670 C 329.321 455.859,369.272 436.331,402.802 402.802 C 436.331 369.272,455.859 329.321,462.670 280.320 C 464.046 270.420,464.046 241.580,462.670 231.680 C 455.892 182.914,436.342 142.776,403.220 109.623 C 391.401 97.792,382.569 90.546,369.558 82.006 C 331.997 57.351,287.606 45.757,241.920 48.669 M166.827 162.064 C 171.089 164.062,349.335 342.263,350.678 345.869 C 352.036 349.514,351.748 355.919,350.079 359.193 C 346.231 366.739,336.832 369.898,329.225 366.202 C 326.598 364.925,299.907 338.748,235.804 274.580 C 140.967 179.647,144.189 183.124,144.237 175.787 C 144.256 172.881,146.994 167.067,149.450 164.718 C 154.063 160.304,160.859 159.267,166.827 162.064 M219.678 169.390 C 228.417 171.241,238.249 176.490,246.838 183.888 C 250.928 187.411,255.051 190.293,256.000 190.293 C 256.949 190.293,261.072 187.411,265.162 183.888 C 278.561 172.346,291.562 167.548,307.239 168.359 C 321.352 169.088,332.765 174.206,342.965 184.380 C 349.677 191.074,354.226 198.514,357.275 207.787 C 359.247 213.781,359.523 216.018,359.537 226.133 C 359.563 244.540,355.936 258.977,346.973 276.140 C 341.473 286.671,333.263 298.405,330.860 299.167 C 328.860 299.802,329.746 300.654,254.933 226.141 C 219.398 190.747,202.240 173.088,202.240 171.907 C 202.240 170.943,202.701 169.694,203.264 169.131 C 204.653 167.742,212.481 167.865,219.678 169.390 M218.807 280.522 C 252.170 313.720,279.789 341.396,280.184 342.023 C 281.711 344.452,279.735 347.009,272.301 352.225 C 256.844 363.073,254.803 362.953,236.874 350.155 C 210.763 331.515,189.252 311.717,176.780 294.845 C 165.266 279.270,157.060 261.565,154.130 245.975 C 152.223 235.833,151.516 224.166,152.677 221.997 C 155.236 217.215,154.799 216.828,218.807 280.522 " stroke="none" fill-rule="evenodd" fill="black"></path></svg>