<svg xmlns="http://www.w3.org/2000/svg" width="512" height="512" viewBox="0 0 512 512"><path d="M43.387 53.467 L 32.012 64.865 226.773 259.626 L 421.535 454.387 432.637 443.310 C 438.743 437.217,443.642 431.967,443.523 431.644 C 443.404 431.321,355.884 343.534,249.034 236.563 L 54.761 42.069 43.387 53.467 M165.973 80.743 C 156.704 81.663,143.360 84.341,143.360 85.282 C 143.360 85.546,204.052 146.434,278.232 220.588 L 413.103 355.413 414.978 353.188 C 451.048 310.385,470.453 271.555,477.425 228.227 C 485.159 180.163,475.464 143.375,447.387 114.250 C 413.383 78.976,361.375 70.563,316.160 93.023 C 301.841 100.136,291.932 107.335,279.968 119.318 L 271.082 128.218 266.135 122.683 C 248.070 102.474,220.449 86.763,195.413 82.457 C 187.654 81.122,171.584 80.187,165.973 80.743 M70.459 152.312 C 64.175 167.349,61.473 188.205,63.106 209.067 C 66.278 249.615,78.286 283.525,102.314 319.790 C 125.470 354.739,155.894 384.907,198.889 415.553 C 216.000 427.749,270.695 463.839,271.622 463.545 C 273.559 462.930,339.652 418.650,339.440 418.109 C 339.308 417.771,279.026 357.127,205.481 283.344 L 71.762 149.193 70.459 152.312 " stroke="none" fill-rule="evenodd" fill="black"></path></svg>