<svg xmlns="http://www.w3.org/2000/svg" width="512" height="512" viewBox="0 0 512 512"><path d="M241.996 64.877 C 212.694 68.233,191.604 78.032,172.312 97.252 C 155.794 113.709,145.209 133.071,141.159 154.240 C 139.472 163.058,139.649 167.005,141.953 171.953 C 148.310 185.603,165.425 188.015,175.167 176.634 C 178.151 173.148,179.026 170.682,180.882 160.515 C 182.808 149.966,190.475 135.773,198.918 127.127 C 211.946 113.784,225.156 107.337,244.419 104.920 C 255.730 103.501,273.842 104.312,282.845 106.639 C 300.644 111.240,319.007 125.466,326.362 140.352 C 334.686 157.199,333.456 179.209,323.211 196.693 C 318.390 204.922,305.841 217.079,291.943 226.987 C 270.666 242.154,265.818 245.948,258.291 253.323 C 238.541 272.674,230.058 290.834,228.161 317.827 C 227.725 324.033,227.910 326.597,229.042 330.006 C 231.719 338.064,239.586 343.838,247.939 343.875 C 256.414 343.911,265.008 337.425,267.033 329.462 C 267.461 327.778,268.208 322.327,268.694 317.348 C 269.755 306.464,272.392 298.891,277.722 291.422 C 282.543 284.666,291.310 276.541,301.306 269.566 C 340.549 242.182,356.635 225.019,365.337 201.245 C 374.978 174.906,373.903 145.160,362.493 122.529 C 352.817 103.339,334.756 86.401,311.467 74.676 C 297.844 67.819,284.130 64.930,262.827 64.433 C 255.083 64.252,245.709 64.452,241.996 64.877 M242.118 368.637 C 235.921 369.733,230.467 372.748,225.205 377.986 C 218.758 384.405,216.397 390.344,216.371 400.213 C 216.354 406.553,216.680 408.166,218.965 413.016 C 222.165 419.807,227.953 425.760,234.464 428.956 C 238.842 431.105,240.263 431.360,247.893 431.360 C 255.372 431.360,257.031 431.077,261.321 429.066 C 267.568 426.138,273.777 419.928,276.962 413.421 C 279.189 408.874,279.460 407.440,279.463 400.213 C 279.466 393.064,279.174 391.474,276.991 386.746 C 270.999 373.770,256.288 366.131,242.118 368.637 " stroke="none" fill-rule="evenodd" fill="black"></path></svg>