<svg xmlns="http://www.w3.org/2000/svg" width="512" height="512" viewBox="0 0 512 512"><path d="M231.253 33.392 C 214.898 35.057,192.680 40.401,176.511 46.559 C 156.296 54.258,131.841 68.384,114.508 82.373 C 92.069 100.483,71.148 126.126,57.570 152.164 C 42.512 181.038,34.416 210.416,32.447 243.324 C 27.225 330.584,74.485 413.921,152.164 454.430 C 231.416 495.759,326.910 486.355,396.524 430.364 C 473.098 368.774,500.486 263.737,463.793 172.373 C 435.769 102.595,373.381 50.947,299.520 36.379 C 293.653 35.221,284.659 33.859,279.532 33.351 C 268.795 32.286,241.887 32.309,231.253 33.392 M280.623 65.641 C 283.606 66.089,286.268 66.677,286.538 66.947 C 287.024 67.433,281.624 162.249,281.074 162.894 C 280.917 163.078,278.379 162.694,275.434 162.041 C 268.243 160.446,243.757 160.446,236.566 162.041 C 233.621 162.694,231.081 163.078,230.922 162.894 C 230.602 162.525,225.227 73.741,225.260 69.372 C 225.283 66.247,225.521 66.163,238.080 64.860 C 246.551 63.981,272.776 64.463,280.623 65.641 M192.943 75.307 C 192.992 75.424,194.479 98.560,196.247 126.720 L 199.462 177.920 194.249 182.613 C 189.435 186.948,185.027 191.480,179.947 197.316 L 177.920 199.645 126.720 196.543 C 98.560 194.838,75.351 193.301,75.145 193.128 C 73.642 191.870,87.118 163.494,94.728 151.893 C 112.876 124.228,137.623 101.520,165.973 86.515 C 178.060 80.117,192.451 74.137,192.943 75.307 M328.164 78.127 C 363.996 92.572,395.426 118.591,417.272 151.893 C 424.882 163.494,438.358 191.870,436.855 193.128 C 436.649 193.301,413.440 194.838,385.280 196.543 L 334.080 199.645 332.053 197.316 C 326.973 191.480,322.565 186.948,317.751 182.613 L 312.538 177.920 315.753 126.720 C 317.521 98.560,319.008 75.424,319.057 75.307 C 319.298 74.734,321.242 75.337,328.164 78.127 M274.357 194.747 C 294.477 200.631,311.117 217.238,317.338 237.643 C 319.108 243.448,319.422 246.219,319.422 256.000 C 319.422 265.781,319.108 268.552,317.338 274.357 C 311.086 294.864,294.805 311.067,273.920 317.569 C 264.661 320.451,247.339 320.451,238.080 317.569 C 217.195 311.067,200.914 294.864,194.662 274.357 C 192.892 268.552,192.578 265.781,192.578 256.000 C 192.578 246.219,192.892 243.448,194.662 237.643 C 201.722 214.485,221.243 197.222,245.303 192.861 C 252.416 191.572,266.661 192.496,274.357 194.747 M117.333 227.936 C 142.208 229.419,162.677 230.729,162.819 230.846 C 162.961 230.964,162.446 234.433,161.673 238.556 C 159.863 248.218,159.863 263.782,161.673 273.444 C 162.446 277.567,162.961 281.056,162.819 281.198 C 162.677 281.340,142.592 282.637,118.187 284.081 C 93.781 285.526,72.224 286.889,70.281 287.111 C 65.985 287.602,66.210 288.315,64.719 269.440 C 63.881 258.822,63.875 253.178,64.693 242.560 C 66.008 225.475,66.060 225.285,69.433 225.260 C 70.903 225.248,92.459 226.453,117.333 227.936 M445.757 227.200 C 446.040 228.256,446.738 235.168,447.307 242.560 C 448.125 253.178,448.119 258.822,447.281 269.440 C 445.790 288.315,446.015 287.602,441.719 287.111 C 439.776 286.889,418.219 285.526,393.813 284.081 C 369.408 282.637,349.323 281.340,349.181 281.198 C 349.039 281.056,349.554 277.567,350.327 273.444 C 352.137 263.782,352.137 248.218,350.327 238.556 C 349.554 234.433,349.039 230.960,349.181 230.838 C 349.586 230.490,431.435 225.509,438.727 225.388 C 444.804 225.287,445.276 225.409,445.757 227.200 M182.984 318.080 C 185.713 321.248,190.590 326.119,193.822 328.905 C 199.130 333.481,199.659 334.223,199.295 336.585 C 199.073 338.023,197.636 360.827,196.100 387.259 C 194.564 413.692,193.042 435.748,192.718 436.273 C 191.407 438.393,164.259 425.580,150.162 416.188 C 122.832 397.980,99.741 372.112,85.130 343.334 C 79.473 332.191,74.630 320.178,75.462 319.347 C 75.794 319.015,98.599 317.346,126.139 315.639 C 153.680 313.931,176.621 312.486,177.118 312.427 C 177.616 312.368,180.256 314.912,182.984 318.080 M387.259 315.900 C 413.692 317.436,435.739 318.952,436.252 319.269 C 437.445 320.007,433.247 330.774,426.870 343.334 C 412.053 372.517,389.170 398.029,361.304 416.430 C 346.600 426.141,320.617 438.432,319.299 436.300 C 318.966 435.760,317.436 413.692,315.900 387.259 C 314.364 360.827,312.927 338.023,312.705 336.585 C 312.341 334.223,312.870 333.481,318.178 328.905 C 321.410 326.119,326.290 321.245,329.022 318.073 C 333.497 312.878,334.248 312.345,336.595 312.707 C 338.028 312.927,360.827 314.364,387.259 315.900 M238.507 350.341 C 247.610 352.111,263.943 352.107,273.415 350.332 C 277.554 349.557,281.034 349.039,281.149 349.181 C 281.265 349.323,282.637 370.877,284.199 397.078 C 286.478 435.307,286.824 444.848,285.953 445.387 C 284.214 446.461,266.575 448.000,256.000 448.000 C 245.400 448.000,227.784 446.460,226.038 445.381 C 225.154 444.835,225.474 435.766,227.701 398.352 C 229.218 372.858,230.445 351.328,230.429 350.507 C 230.394 348.698,230.090 348.704,238.507 350.341 " stroke="none" fill="black" fill-rule="evenodd"></path></svg>