<svg xmlns="http://www.w3.org/2000/svg" width="512" height="512" viewBox="0 0 512 512"><path d="M235.947 32.121 C 215.118 34.495,202.444 37.042,187.123 41.933 C 153.186 52.767,122.302 71.615,96.959 96.959 C 45.131 148.786,22.286 221.012,34.642 293.973 C 42.175 338.453,64.482 381.147,97.285 413.867 C 143.943 460.406,203.705 483.495,269.227 480.296 C 342.739 476.707,410.943 435.346,449.266 371.115 C 476.276 325.844,486.420 271.351,477.526 219.307 C 466.372 154.047,427.068 97.137,369.379 62.717 C 342.461 46.656,311.652 36.352,279.893 32.788 C 270.499 31.733,243.006 31.316,235.947 32.121 M192.181 77.440 C 193.229 78.646,194.043 88.300,196.405 127.573 C 198.013 154.325,199.194 176.799,199.029 177.514 C 198.863 178.230,196.343 180.910,193.427 183.471 C 190.512 186.031,186.022 190.527,183.450 193.462 C 180.878 196.396,178.347 198.963,177.827 199.166 C 177.306 199.368,154.842 198.192,127.907 196.551 C 87.504 194.090,78.672 193.333,77.440 192.225 C 76.619 191.487,75.947 190.513,75.947 190.061 C 75.947 187.763,84.452 169.581,89.863 160.311 C 107.313 130.417,130.703 107.021,160.348 89.806 C 169.337 84.587,187.747 75.971,189.948 75.954 C 190.462 75.950,191.467 76.619,192.181 77.440 M330.075 78.997 C 367.668 94.456,400.999 123.848,422.057 160.113 C 427.189 168.950,436.028 187.802,436.046 189.948 C 436.073 193.278,434.458 193.484,384.016 196.556 C 357.038 198.199,334.508 199.286,333.950 198.972 C 333.392 198.657,330.986 196.171,328.604 193.447 C 326.221 190.723,321.779 186.307,318.732 183.634 C 313.478 179.024,313.190 178.575,313.156 174.933 C 313.136 172.821,314.334 150.357,315.819 125.013 C 318.337 82.034,318.632 78.833,320.207 77.440 C 321.136 76.619,322.067 75.947,322.276 75.947 C 322.485 75.947,325.995 77.319,330.075 78.997 M273.493 194.597 C 288.880 199.371,301.104 208.384,309.320 221.013 C 328.926 251.152,320.183 290.786,289.598 310.409 C 269.236 323.474,240.756 322.929,220.442 309.086 C 207.682 300.391,198.106 286.728,194.000 271.360 C 192.141 264.402,191.933 248.146,193.619 241.554 C 196.660 229.660,202.908 218.722,211.358 210.499 C 220.688 201.421,230.792 196.086,244.053 193.235 C 251.828 191.563,265.801 192.210,273.493 194.597 M183.471 318.573 C 186.031 321.488,190.512 325.969,193.427 328.529 C 196.343 331.090,198.863 333.770,199.029 334.486 C 199.194 335.201,198.018 357.675,196.415 384.427 C 192.979 441.777,193.980 437.737,184.146 433.967 C 169.377 428.306,149.404 416.499,135.253 405.062 C 126.945 398.348,112.672 384.003,106.232 375.893 C 95.524 362.410,84.746 344.251,78.970 329.960 C 75.656 321.758,75.635 321.640,77.274 320.079 C 78.768 318.657,83.778 318.209,127.573 315.585 C 154.325 313.982,176.799 312.806,177.514 312.971 C 178.230 313.137,180.910 315.657,183.471 318.573 M386.560 315.833 C 434.090 318.593,436.072 318.842,436.046 322.052 C 436.041 322.566,434.127 327.368,431.792 332.723 C 417.215 366.156,392.683 395.347,361.813 415.994 C 352.431 422.270,336.828 430.528,327.854 433.967 C 318.020 437.737,319.021 441.777,315.585 384.427 C 313.982 357.675,312.806 335.201,312.971 334.486 C 313.137 333.770,315.650 331.094,318.556 328.540 C 321.462 325.985,325.760 321.659,328.107 318.926 C 332.750 313.518,334.361 312.514,337.797 312.887 C 339.038 313.022,360.981 314.347,386.560 315.833 " stroke="none" fill-rule="evenodd" fill="black"></path></svg>