<svg xmlns="http://www.w3.org/2000/svg" width="512" height="512" viewBox="0 0 512 512"><path d="M235.947 32.932 C 234.539 33.125,228.779 33.895,223.147 34.643 C 177.430 40.713,131.587 63.851,97.301 98.160 C 62.153 133.331,40.492 177.645,33.687 228.300 C 32.038 240.579,31.799 267.116,33.223 279.893 C 44.003 376.609,114.884 454.925,210.001 475.216 C 238.476 481.290,273.524 481.290,301.999 475.216 C 362.644 462.279,414.824 425.364,447.359 372.382 C 479.872 319.435,488.455 253.962,470.894 192.853 C 449.342 117.853,386.601 57.600,310.613 38.927 C 291.077 34.127,282.762 33.139,259.413 32.845 C 247.915 32.700,237.355 32.740,235.947 32.932 M196.289 126.249 C 198.755 165.932,198.853 169.304,197.557 170.029 C 190.920 173.744,173.703 190.992,169.965 197.673 C 169.226 198.992,166.415 198.930,130.452 196.802 C 109.157 195.542,89.737 194.288,87.297 194.016 L 82.861 193.521 84.184 189.987 C 87.480 181.176,96.943 163.144,103.115 153.912 C 113.072 139.019,128.069 122.647,141.653 111.841 C 149.167 105.864,163.632 96.561,171.947 92.359 C 179.104 88.741,193.068 82.722,193.449 83.090 C 193.542 83.180,194.820 102.601,196.289 126.249 M336.640 90.922 C 367.744 105.995,394.174 129.917,412.625 159.697 C 417.369 167.353,424.965 182.520,427.809 190.016 L 429.161 193.578 423.861 194.071 C 417.114 194.698,348.589 198.830,345.173 198.816 C 343.233 198.808,342.178 198.137,340.815 196.043 C 335.826 188.378,320.845 173.612,314.397 170.003 C 313.231 169.351,313.371 164.713,315.692 126.979 C 317.123 103.718,318.293 84.258,318.293 83.736 C 318.293 82.460,322.913 84.269,336.640 90.922 M272.135 194.065 C 279.311 196.032,290.022 201.538,295.956 206.309 C 310.490 217.998,320.000 237.652,320.000 256.000 C 320.000 280.965,303.475 305.688,280.554 315.016 C 248.373 328.112,213.101 314.323,198.352 282.880 C 193.535 272.612,192.445 267.649,192.445 256.000 C 192.445 244.351,193.535 239.388,198.352 229.120 C 207.282 210.083,224.790 196.583,245.397 192.846 C 251.097 191.812,266.471 192.513,272.135 194.065 M170.835 315.520 C 174.980 322.522,190.847 338.215,197.605 341.997 C 198.831 342.683,198.711 346.746,196.317 385.721 C 194.865 409.352,193.588 428.774,193.478 428.880 C 193.369 428.986,190.208 427.824,186.453 426.298 C 145.012 409.452,109.541 376.042,90.361 335.787 C 88.125 331.093,85.509 325.237,84.547 322.773 L 82.798 318.293 85.559 318.225 C 87.078 318.187,104.832 317.086,125.013 315.777 C 173.173 312.655,169.152 312.677,170.835 315.520 M385.707 315.733 C 408.469 317.138,427.570 318.289,428.153 318.290 C 429.577 318.294,427.954 322.528,421.074 336.755 C 406.305 367.294,380.981 395.289,352.200 412.893 C 339.654 420.567,318.293 430.231,318.293 428.232 C 318.293 427.727,317.123 408.282,315.692 385.021 C 313.351 346.974,313.224 342.653,314.419 341.984 C 321.155 338.214,337.028 322.509,341.165 315.520 C 341.929 314.229,342.952 313.175,343.437 313.176 C 343.923 313.178,362.944 314.329,385.707 315.733 " stroke="none" fill-rule="evenodd" fill="black"></path></svg>