<svg xmlns="http://www.w3.org/2000/svg" width="512" height="512" viewBox="0 0 512 512"><path d="M241.996 64.877 C 211.750 68.341,191.709 77.905,170.593 98.949 C 154.909 114.580,147.039 127.394,142.363 144.917 C 141.003 150.015,140.517 155.108,140.171 167.893 L 139.726 184.320 159.804 184.320 L 179.881 184.320 180.232 170.027 C 180.523 158.196,180.893 154.890,182.383 150.838 C 184.922 143.933,189.369 136.936,195.405 130.349 C 213.423 110.685,233.821 103.013,264.473 104.370 C 271.843 104.697,278.523 105.522,282.845 106.639 C 300.644 111.240,319.007 125.466,326.362 140.352 C 334.686 157.199,333.456 179.209,323.211 196.693 C 318.388 204.925,305.838 217.082,291.939 226.987 C 261.833 248.440,252.233 256.384,244.190 266.498 C 232.297 281.455,227.855 296.862,227.845 323.200 L 227.840 336.213 247.787 336.213 L 267.735 336.213 268.168 321.067 C 268.672 303.453,269.606 299.531,275.064 292.117 C 279.654 285.881,288.343 278.599,305.920 266.253 C 323.027 254.238,329.541 249.054,339.105 239.840 C 360.245 219.474,370.446 197.193,371.750 168.533 C 372.852 144.327,365.594 122.337,350.619 104.512 C 345.370 98.264,334.194 88.514,326.400 83.384 C 305.425 69.576,290.326 65.075,262.827 64.433 C 255.083 64.252,245.709 64.452,241.996 64.877 M221.653 368.708 C 220.282 369.507,220.160 371.728,220.160 395.818 C 220.160 415.090,220.432 422.331,221.184 423.083 C 221.935 423.834,229.081 424.107,248.016 424.107 C 273.717 424.107,273.829 424.099,275.152 422.210 C 276.279 420.600,276.480 416.602,276.480 395.757 C 276.480 372.338,276.401 371.121,274.773 369.493 C 273.143 367.863,271.947 367.788,248.107 367.813 C 232.746 367.829,222.572 368.173,221.653 368.708 " stroke="none" fill-rule="evenodd" fill="black"></path></svg>