<svg xmlns="http://www.w3.org/2000/svg" width="512" height="512" viewBox="0 0 512 512"><path d="M241.920 64.514 C 213.887 67.408,193.935 72.844,171.947 83.578 C 133.208 102.489,103.257 132.301,84.023 171.093 C 57.348 224.896,57.348 287.104,84.023 340.907 C 93.945 360.918,104.465 375.651,119.925 391.182 C 178.115 449.645,266.304 464.575,340.053 428.450 C 399.326 399.415,439.047 343.213,446.733 277.505 C 456.100 197.428,412.924 118.956,340.053 83.616 C 321.227 74.486,304.296 69.198,284.160 66.158 C 275.445 64.843,248.788 63.805,241.920 64.514 M278.930 97.756 C 348.869 108.010,403.990 163.131,414.244 233.070 C 416.796 250.481,415.649 276.981,411.643 293.120 C 394.712 361.335,337.072 410.217,267.307 415.526 C 184.564 421.822,109.885 361.658,97.756 278.930 C 96.024 267.114,96.024 244.886,97.756 233.070 C 102.788 198.747,118.411 167.707,143.059 143.059 C 168.065 118.053,199.509 102.442,235.093 97.365 C 244.024 96.091,269.099 96.315,278.930 97.756 M242.773 145.108 C 217.110 149.132,195.300 167.862,187.818 192.303 C 184.797 202.171,185.761 208.244,191.057 212.700 C 196.104 216.947,203.008 217.292,208.147 213.553 C 210.742 211.666,214.187 205.301,214.187 202.395 C 214.187 201.270,215.348 197.917,216.768 194.943 C 221.712 184.582,233.175 175.717,244.735 173.313 C 251.161 171.978,265.854 172.144,271.507 173.616 C 281.024 176.095,290.849 183.570,295.108 191.573 C 297.107 195.331,297.379 196.810,297.383 203.965 C 297.386 211.417,297.156 212.557,294.603 217.743 C 291.206 224.644,284.945 230.721,271.292 240.370 C 255.170 251.763,248.964 258.219,243.259 269.531 C 237.312 281.324,235.353 297.341,239.167 303.000 C 243.466 309.379,250.764 311.515,257.441 308.347 C 262.170 306.102,264.340 301.959,265.321 293.299 C 266.748 280.709,271.132 274.693,287.033 263.505 C 315.089 243.766,324.517 229.972,325.703 206.933 C 326.468 192.072,322.665 180.106,313.620 168.912 C 305.626 159.018,291.298 149.787,278.613 146.359 C 272.468 144.699,250.317 143.925,242.773 145.108 M240.855 330.284 C 228.605 336.499,226.411 352.728,236.512 362.410 C 240.316 366.056,244.751 367.791,250.213 367.768 C 255.939 367.744,260.701 365.578,264.644 361.205 C 268.621 356.793,269.925 352.721,269.500 346.042 C 269.090 339.605,266.351 334.880,260.962 331.314 C 256.017 328.042,246.260 327.542,240.855 330.284 " stroke="none" fill-rule="evenodd" fill="black"></path></svg>