<svg xmlns="http://www.w3.org/2000/svg" width="512" height="512" viewBox="0 0 512 512"><path d="M241.493 64.526 C 194.242 68.861,152.620 88.066,120.190 120.496 C 94.620 146.066,75.864 180.358,68.336 215.300 C 51.530 293.308,84.534 373.084,151.893 417.272 C 169.155 428.596,194.688 439.223,215.300 443.664 C 301.663 462.270,389.536 419.553,428.436 340.053 C 461.094 273.310,452.232 194.058,405.604 135.861 C 375.706 98.546,331.686 73.277,284.160 66.149 C 275.373 64.832,249.069 63.830,241.493 64.526 M278.309 147.513 C 290.357 150.660,301.721 157.500,310.679 166.996 C 317.108 173.812,320.074 178.711,323.231 187.733 C 325.191 193.332,325.470 195.468,325.463 204.800 C 325.451 219.501,322.991 227.881,315.441 238.933 C 309.823 247.157,300.015 255.938,285.867 265.411 C 278.176 270.559,270.702 277.867,268.316 282.571 C 265.945 287.245,264.549 294.999,264.540 303.543 C 264.534 308.753,264.279 309.836,262.883 310.583 C 260.736 311.732,241.024 311.732,238.877 310.583 C 237.388 309.786,237.228 308.722,237.241 299.703 C 237.259 287.679,238.777 279.914,242.739 271.571 C 248.470 259.503,255.092 252.630,272.997 240.168 C 284.897 231.885,291.805 225.126,294.983 218.656 C 297.133 214.277,297.387 212.859,297.386 205.227 C 297.385 197.609,297.139 196.226,295.087 192.335 C 290.723 184.061,279.255 175.981,269.283 174.154 C 262.811 172.969,251.772 172.966,245.277 174.149 C 234.900 176.038,223.343 184.130,218.002 193.246 C 215.465 197.575,213.333 205.633,213.333 210.892 C 213.333 217.226,212.555 217.600,199.363 217.600 C 191.721 217.600,187.744 217.269,187.051 216.576 C 185.393 214.918,185.787 201.744,187.721 194.181 C 193.012 173.496,211.217 154.957,232.533 148.547 C 241.697 145.792,247.719 145.127,260.267 145.483 C 268.108 145.705,273.869 146.353,278.309 147.513 M268.373 348.587 L 268.373 365.653 251.307 365.653 L 234.240 365.653 234.007 349.466 C 233.879 340.563,233.966 332.779,234.201 332.168 C 234.535 331.296,238.262 331.107,251.500 331.289 L 268.373 331.520 268.373 348.587 " stroke="none" fill-rule="evenodd" fill="black"></path></svg>