<svg xmlns="http://www.w3.org/2000/svg" width="512" height="512" viewBox="0 0 512 512"><path d="M241.493 64.526 C 194.242 68.861,152.620 88.066,120.190 120.496 C 94.620 146.066,75.864 180.358,68.336 215.300 C 51.530 293.308,84.534 373.084,151.893 417.272 C 169.155 428.596,194.688 439.223,215.300 443.664 C 301.663 462.270,389.536 419.553,428.436 340.053 C 461.094 273.310,452.232 194.058,405.604 135.861 C 375.706 98.546,331.686 73.277,284.160 66.149 C 275.373 64.832,249.069 63.830,241.493 64.526 M272.213 145.415 C 281.157 146.889,286.477 148.648,293.159 152.343 C 315.547 164.721,327.270 184.705,325.672 207.765 C 324.070 230.872,314.388 244.733,286.293 264.141 C 270.770 274.865,266.841 280.356,264.937 293.988 C 263.674 303.031,262.024 306.172,257.381 308.375 C 250.732 311.530,243.498 309.371,239.077 302.913 C 237.192 300.160,237.077 299.357,237.475 291.761 C 238.267 276.653,244.897 262.628,256.249 252.043 C 259.200 249.291,265.815 244.160,270.948 240.640 C 283.416 232.091,292.017 223.878,294.948 217.723 C 298.029 211.255,298.662 201.872,296.485 194.950 C 294.214 187.732,287.706 181.047,278.515 176.493 C 271.466 173.000,271.201 172.942,260.480 172.573 C 248.785 172.171,241.075 173.371,234.803 176.571 C 229.094 179.483,223.061 184.873,219.437 190.300 C 216.067 195.347,215.402 196.996,213.267 205.602 C 211.446 212.943,203.844 217.704,196.922 215.840 C 192.446 214.635,187.963 210.459,186.731 206.346 C 183.995 197.213,191.213 179.133,202.558 166.706 C 213.657 154.548,227.115 147.718,245.760 144.782 C 250.919 143.969,265.567 144.320,272.213 145.415 M261.227 331.538 C 263.510 333.142,265.783 335.826,267.270 338.672 C 274.306 352.141,265.040 367.787,250.027 367.787 C 238.917 367.787,230.462 359.227,230.419 347.937 C 230.388 339.768,234.673 332.964,241.920 329.675 C 243.547 328.937,246.866 328.596,251.024 328.740 C 256.725 328.937,258.041 329.298,261.227 331.538 " stroke="none" fill-rule="evenodd" fill="black"></path></svg>