<svg xmlns="http://www.w3.org/2000/svg" width="512" height="512" viewBox="0 0 512 512"><path d="M243.928 34.449 C 241.277 35.540,238.013 37.293,236.674 38.346 C 234.247 40.254,54.129 212.401,30.818 235.092 C 24.067 241.663,18.019 248.276,17.378 249.786 C 13.978 257.800,17.692 266.737,26.027 270.596 C 33.924 274.252,38.844 272.006,52.482 258.524 C 58.159 252.912,63.073 248.320,63.402 248.320 C 63.731 248.320,64.000 294.340,64.000 350.588 C 64.000 448.137,64.074 453.078,65.593 457.685 C 68.657 466.970,75.558 474.158,85.118 478.018 L 90.027 480.000 142.933 480.000 L 195.840 480.000 199.819 477.661 C 202.008 476.374,204.696 473.878,205.792 472.114 L 207.787 468.907 208.213 396.610 L 208.640 324.313 210.584 322.370 L 212.527 320.427 256.000 320.427 L 299.473 320.427 301.416 322.370 L 303.360 324.313 303.787 396.610 L 304.213 468.907 306.208 472.114 C 307.304 473.878,309.992 476.374,312.181 477.661 L 316.160 480.000 369.067 480.000 L 421.973 480.000 426.882 478.018 C 435.822 474.408,442.920 467.381,446.164 458.927 C 447.438 455.607,447.614 445.268,448.000 351.573 L 448.427 247.893 459.187 258.335 C 470.084 268.908,474.997 272.176,480.000 272.176 C 486.288 272.176,494.309 265.742,495.423 259.804 C 496.225 255.527,495.354 250.150,493.435 247.541 C 492.543 246.327,474.947 229.141,454.333 209.350 L 416.853 173.367 416.427 116.764 L 416.000 60.160 413.876 56.450 C 412.567 54.164,410.274 51.870,407.903 50.476 L 404.053 48.213 376.747 48.213 C 361.728 48.213,348.391 48.507,347.109 48.866 C 344.479 49.602,339.235 53.928,337.674 56.650 C 336.991 57.841,336.495 64.798,336.213 77.125 L 335.787 95.797 306.536 67.812 C 290.448 52.420,276.068 38.929,274.581 37.832 C 266.882 32.151,253.188 30.640,243.928 34.449 M336.129 140.373 L 415.524 216.320 415.549 332.160 L 415.573 448.000 375.924 448.000 L 336.275 448.000 336.031 383.787 L 335.787 319.573 333.741 314.453 C 329.677 304.283,322.091 296.152,312.320 291.496 L 306.773 288.853 256.000 288.853 L 205.227 288.853 199.680 291.496 C 189.909 296.152,182.323 304.283,178.259 314.453 L 176.213 319.573 175.969 383.787 L 175.725 448.000 136.076 448.000 L 96.427 448.000 96.451 332.160 L 96.475 216.320 176.024 140.187 C 219.776 98.314,255.834 64.138,256.153 64.241 C 256.472 64.343,292.461 98.603,336.129 140.373 M384.000 111.081 L 384.000 141.949 376.960 135.227 C 373.088 131.530,369.440 127.934,368.853 127.236 C 368.058 126.290,367.787 120.146,367.787 103.090 L 367.787 80.213 375.893 80.213 L 384.000 80.213 384.000 111.081 " stroke="none" fill-rule="evenodd" fill="black"></path></svg>