<svg xmlns="http://www.w3.org/2000/svg" width="512" height="512" viewBox="0 0 512 512"><path d="M243.999 34.372 C 241.388 35.473,238.458 36.930,237.487 37.609 C 233.993 40.057,21.701 243.476,19.254 246.722 C 14.276 253.325,15.641 263.854,22.088 268.577 C 27.264 272.369,32.631 273.052,38.019 270.605 C 40.353 269.545,73.402 238.544,139.566 175.353 C 193.514 123.828,240.964 78.464,245.010 74.543 C 251.891 67.874,252.602 67.413,256.000 67.413 C 259.396 67.413,260.113 67.877,266.990 74.525 C 283.614 90.596,465.813 264.349,469.090 267.257 C 475.570 273.005,483.257 273.513,489.863 268.628 C 496.247 263.909,497.640 253.233,492.729 246.675 C 491.360 244.848,473.632 227.505,453.333 208.136 L 416.427 172.919 416.422 118.246 C 416.419 80.884,416.118 62.493,415.472 60.160 C 414.151 55.392,411.755 52.331,407.608 50.114 C 404.145 48.262,403.350 48.213,376.747 48.213 C 361.728 48.213,348.391 48.507,347.109 48.866 C 344.479 49.602,339.235 53.928,337.674 56.650 C 336.992 57.840,336.495 64.782,336.213 77.051 L 335.787 95.649 306.078 67.238 C 270.773 33.474,270.127 33.016,257.280 32.629 C 249.889 32.406,248.111 32.639,243.999 34.372 M249.399 102.613 C 243.294 108.144,73.598 270.040,68.464 275.230 L 63.969 279.776 64.198 367.960 L 64.427 456.144 67.226 461.829 C 70.353 468.180,76.184 474.027,82.222 476.865 C 89.419 480.248,94.597 480.522,146.415 480.255 L 195.976 480.000 200.097 477.440 C 202.661 475.848,204.893 473.590,206.003 471.467 C 207.761 468.103,207.793 467.015,208.213 396.086 L 208.640 324.118 211.034 322.059 L 213.429 320.000 256.000 320.000 L 298.571 320.000 300.966 322.059 L 303.360 324.118 303.787 396.086 C 304.207 467.015,304.239 468.103,305.997 471.467 C 307.107 473.590,309.339 475.848,311.903 477.440 L 316.024 480.000 365.585 480.255 C 399.434 480.429,416.904 480.207,420.689 479.554 C 431.557 477.678,440.701 470.767,445.303 460.949 L 447.573 456.107 447.802 367.941 L 448.031 279.776 443.536 275.233 C 437.794 269.432,266.980 106.459,262.163 102.187 C 257.238 97.818,254.594 97.907,249.399 102.613 " stroke="none" fill-rule="evenodd" fill="black"></path></svg>