<svg xmlns="http://www.w3.org/2000/svg" width="512" height="512" viewBox="0 0 512 512"><path d="M95.609 88.107 L 95.644 143.787 149.742 199.680 C 179.496 230.421,203.840 255.765,203.840 256.000 C 203.840 256.235,179.494 281.579,149.738 312.320 L 95.636 368.213 95.818 424.107 L 96.000 480.000 256.000 480.000 L 416.000 480.000 416.182 424.107 L 416.364 368.213 362.262 312.320 C 332.506 281.579,308.160 256.235,308.160 256.000 C 308.160 255.765,332.504 230.421,362.258 199.680 L 416.356 143.787 416.391 88.107 L 416.427 32.427 256.000 32.427 L 95.573 32.427 95.609 88.107 M312.103 184.110 L 272.213 224.007 272.213 280.145 L 272.213 336.283 317.317 383.822 L 362.421 431.360 309.277 431.580 C 280.047 431.701,231.936 431.701,202.362 431.580 L 148.592 431.360 194.189 383.814 L 239.787 336.267 239.787 280.137 L 239.787 224.007 199.897 184.110 L 160.007 144.213 256.000 144.213 L 351.993 144.213 312.103 184.110 " stroke="none" fill-rule="evenodd" fill="black"></path></svg>