<svg xmlns="http://www.w3.org/2000/svg" width="512" height="512" viewBox="0 0 512 512"><path d="M131.840 34.022 C 115.396 38.756,101.889 52.161,97.695 67.910 C 95.755 75.193,96.025 86.422,98.482 100.693 C 103.154 127.832,111.077 150.012,122.920 169.106 C 132.501 184.555,138.840 191.562,172.964 224.427 C 189.963 240.799,191.512 243.434,191.549 256.045 C 191.591 270.208,188.652 274.272,156.875 304.009 C 149.993 310.449,141.378 319.273,137.731 323.619 C 120.509 344.138,108.237 369.107,101.554 397.227 C 96.276 419.436,95.004 434.958,97.697 444.288 C 102.423 460.658,116.010 473.740,133.226 478.497 C 138.299 479.898,146.590 480.000,256.000 480.000 C 365.410 480.000,373.701 479.898,378.774 478.497 C 395.990 473.740,409.577 460.658,414.303 444.288 C 418.608 429.374,411.915 393.054,399.575 364.373 C 390.225 342.642,379.184 327.149,359.136 307.627 C 327.862 277.173,326.150 275.340,323.222 269.155 C 320.744 263.924,320.427 262.427,320.427 255.982 C 320.427 249.441,320.717 248.121,323.321 242.831 C 326.486 236.402,330.233 232.402,354.943 209.067 C 375.336 189.809,384.486 178.441,394.095 160.427 C 408.666 133.110,418.987 87.516,414.675 69.514 C 411.566 56.538,402.117 44.368,390.400 38.251 C 378.519 32.048,387.236 32.420,255.450 32.487 C 145.855 32.544,136.576 32.659,131.840 34.022 M333.112 145.982 C 334.905 147.393,335.360 148.478,335.360 151.348 C 335.360 154.488,334.669 155.808,329.921 161.739 C 322.988 170.401,314.028 178.938,299.520 190.706 C 284.643 202.773,277.273 210.118,274.449 215.692 L 272.178 220.173 272.409 276.700 C 272.640 333.222,272.640 333.227,274.542 337.067 C 279.404 346.880,288.205 354.705,313.764 371.936 C 349.383 395.948,358.231 405.381,357.399 418.454 C 357.005 424.643,354.868 428.279,350.371 430.413 C 347.693 431.684,339.129 431.789,255.270 431.585 C 163.271 431.360,163.107 431.357,160.702 429.575 C 153.920 424.549,152.362 415.807,156.797 407.658 C 159.580 402.545,168.367 394.691,181.514 385.564 C 186.577 382.049,196.288 375.308,203.093 370.584 C 224.482 355.736,233.406 346.938,237.719 336.450 L 239.746 331.520 239.766 275.831 C 239.786 221.884,239.733 220.028,238.079 216.508 C 235.357 210.717,229.441 204.637,213.397 191.140 C 198.001 178.187,185.230 165.756,179.746 158.384 C 176.694 154.280,175.660 149.539,177.293 147.127 C 179.181 144.338,181.166 144.265,256.098 144.239 C 330.463 144.213,330.875 144.223,333.112 145.982 " stroke="none" fill-rule="evenodd" fill="black"></path></svg>