<svg xmlns="http://www.w3.org/2000/svg" width="512" height="512" viewBox="0 0 512 512"><path d="M240.213 17.159 C 225.573 19.269,206.121 27.442,193.998 36.577 C 172.856 52.508,159.005 74.721,153.717 101.176 C 152.824 105.643,151.432 110.028,150.625 110.921 C 149.794 111.839,146.530 113.141,143.106 113.920 C 127.275 117.520,115.684 124.035,103.680 136.078 C 87.752 152.060,80.169 170.210,80.243 192.177 C 80.328 217.332,90.572 239.458,109.181 254.683 C 116.065 260.315,127.177 266.295,134.656 268.394 C 143.963 271.005,143.714 270.244,144.239 297.667 C 144.660 319.663,144.823 321.593,146.611 325.857 C 150.680 335.556,158.640 344.066,167.489 348.179 C 189.448 358.385,214.877 346.909,222.363 323.413 C 223.604 319.517,223.919 314.483,224.219 293.771 L 224.580 268.823 227.129 266.678 C 230.209 264.086,230.115 264.089,240.933 266.326 C 259.685 270.204,277.871 266.587,292.219 256.128 C 298.210 251.760,300.995 251.953,308.053 257.227 C 314.896 262.340,325.478 267.419,334.265 269.808 C 339.374 271.197,343.467 271.624,352.000 271.657 C 365.744 271.710,374.611 269.687,386.987 263.675 C 409.757 252.614,425.195 232.611,430.528 207.260 C 432.183 199.393,432.135 184.230,430.431 175.976 C 423.970 144.699,399.195 120.102,367.528 113.528 C 364.959 112.995,362.203 111.836,361.404 110.952 C 360.604 110.068,359.061 105.191,357.975 100.113 C 353.447 78.945,345.259 63.130,331.223 48.438 C 315.227 31.696,293.126 20.207,270.989 17.128 C 263.388 16.071,247.654 16.087,240.213 17.159 M291.413 292.846 C 284.958 295.517,273.326 298.593,267.366 299.203 C 257.345 300.230,256.495 301.446,255.660 315.937 C 255.089 325.863,253.164 333.333,248.788 342.613 C 240.671 359.824,228.991 370.838,210.618 378.605 C 202.950 381.847,199.680 384.614,199.680 387.861 C 199.680 389.619,237.136 477.845,241.515 486.400 C 246.981 497.079,260.020 499.138,267.589 490.517 C 271.216 486.386,344.749 314.875,344.748 310.549 C 344.746 305.810,342.134 303.988,332.527 302.026 C 323.661 300.214,311.706 296.261,305.308 293.023 C 300.436 290.558,297.046 290.514,291.413 292.846 " stroke="none" fill-rule="evenodd" fill="black"></path></svg>