<svg xmlns="http://www.w3.org/2000/svg" width="512" height="512" viewBox="0 0 512 512"><path d="M238.196 17.584 C 217.496 21.054,198.245 31.172,182.507 46.856 C 167.090 62.219,156.923 81.775,153.630 102.400 C 153.068 105.920,152.454 109.607,152.266 110.592 C 151.982 112.087,150.937 112.548,145.977 113.367 C 108.628 119.535,80.190 153.482,80.220 191.862 C 80.236 212.154,86.578 229.813,99.280 244.933 C 108.650 256.088,120.284 263.685,135.253 268.424 L 143.787 271.125 144.242 296.202 C 144.624 317.295,144.933 321.884,146.186 325.084 C 153.469 343.681,172.969 354.994,191.190 351.195 C 206.393 348.025,217.321 338.435,222.119 324.052 C 223.742 319.185,223.926 316.302,224.225 290.987 C 224.405 275.733,224.836 262.961,225.182 262.604 C 225.528 262.247,228.048 262.724,230.783 263.665 C 253.630 271.525,278.235 267.917,294.728 254.288 C 296.996 252.414,299.126 250.880,299.461 250.880 C 299.795 250.880,302.729 253.017,305.981 255.629 C 321.055 267.738,342.655 273.901,361.316 271.418 C 394.948 266.942,420.832 244.164,429.745 211.200 C 432.043 202.700,432.043 181.300,429.745 172.800 C 422.219 144.964,402.575 124.181,375.893 115.823 C 372.139 114.647,367.049 113.414,364.583 113.082 C 360.915 112.589,360.034 112.144,359.746 110.639 C 359.551 109.628,358.932 105.920,358.370 102.400 C 353.315 70.738,331.837 41.865,302.260 26.971 C 283.520 17.534,259.494 14.013,238.196 17.584 M293.973 291.905 C 286.319 295.569,273.912 298.642,261.450 299.962 L 256.234 300.514 255.771 312.177 C 255.408 321.326,254.821 325.486,253.048 331.478 C 245.909 355.605,228.518 373.335,204.800 380.670 C 201.280 381.758,198.283 382.718,198.140 382.802 C 197.670 383.080,255.355 494.933,255.968 494.933 C 256.297 494.933,277.130 452.021,302.264 399.573 L 347.962 304.213 339.996 303.210 C 327.398 301.623,315.665 298.105,304.451 292.551 C 298.798 289.752,298.510 289.734,293.973 291.905 " stroke="none" fill-rule="evenodd" fill="black"></path></svg>