<svg xmlns="http://www.w3.org/2000/svg" width="512" height="512" viewBox="0 0 512 512"><path d="M239.360 17.474 C 221.597 20.586,207.652 26.600,193.138 37.408 C 172.004 53.147,156.764 78.812,153.304 104.492 L 152.275 112.130 145.044 113.576 C 119.116 118.763,96.853 136.377,87.020 159.484 C 81.647 172.110,80.634 177.470,80.710 192.853 C 80.773 205.630,80.994 207.642,83.105 214.583 C 91.649 242.674,113.258 263.851,139.337 269.687 L 144.122 270.758 144.381 296.446 L 144.640 322.133 147.766 328.679 C 151.472 336.440,158.617 343.974,165.644 347.529 C 169.651 349.556,172.581 350.358,182.258 352.073 C 183.730 352.334,188.767 363.486,211.603 417.047 C 226.765 452.610,240.274 483.819,241.622 486.400 C 245.117 493.087,248.763 495.360,256.000 495.360 C 262.923 495.360,266.834 493.090,269.965 487.253 C 271.099 485.141,292.453 435.722,317.419 377.432 L 362.812 271.451 367.506 270.476 C 388.559 266.106,406.661 253.861,418.554 235.947 C 423.605 228.338,426.555 221.812,429.425 211.896 C 431.060 206.247,431.355 203.204,431.355 192.000 C 431.355 180.796,431.060 177.753,429.425 172.104 C 420.392 140.899,397.818 119.750,366.952 113.576 L 359.718 112.128 358.756 104.918 C 354.025 69.460,328.995 37.568,295.060 23.757 C 278.394 16.975,256.384 14.493,239.360 17.474 M270.933 49.634 C 291.310 53.059,311.564 69.183,321.230 89.676 C 325.630 99.005,326.882 104.808,327.580 119.100 C 328.302 133.915,329.385 137.051,335.195 141.155 C 338.550 143.525,339.296 143.674,350.905 144.271 C 363.881 144.939,368.371 146.088,376.524 150.824 C 385.647 156.124,394.527 167.257,397.747 177.432 C 400.222 185.254,400.222 198.746,397.747 206.568 C 393.486 220.031,381.396 232.608,368.213 237.289 C 360.934 239.874,348.374 240.466,341.741 238.538 C 330.660 235.316,321.975 228.679,314.973 218.079 C 309.012 209.056,303.143 206.089,295.388 208.177 C 290.742 209.428,287.363 212.428,284.021 218.270 C 273.272 237.057,253.640 241.018,231.293 228.910 C 225.067 225.536,223.226 224.947,217.845 224.601 C 207.188 223.917,198.704 228.888,194.443 238.313 C 192.451 242.719,192.421 243.211,192.000 278.613 C 191.765 298.325,191.239 315.140,190.830 315.978 C 190.016 317.648,186.008 320.000,183.976 320.000 C 181.339 320.000,178.387 317.968,177.108 315.273 C 175.993 312.924,175.787 307.813,175.787 282.593 C 175.787 263.545,175.457 251.826,174.879 250.296 C 173.758 247.329,170.170 243.456,167.014 241.808 C 165.709 241.127,160.692 240.222,155.865 239.798 C 150.814 239.354,145.034 238.259,142.250 237.217 C 128.504 232.074,117.519 219.847,113.812 205.564 C 111.778 197.729,111.986 184.635,114.259 177.432 C 117.466 167.266,126.349 156.127,135.476 150.824 C 143.629 146.088,148.119 144.939,161.095 144.271 C 172.704 143.674,173.450 143.525,176.805 141.155 C 182.615 137.051,183.698 133.915,184.420 119.100 C 185.118 104.808,186.370 99.005,190.770 89.676 C 199.611 70.933,216.406 56.417,235.761 50.791 C 245.427 47.981,258.530 47.550,270.933 49.634 M308.504 257.479 C 312.000 260.155,322.810 266.036,327.003 267.543 L 329.312 268.373 292.869 353.475 C 272.826 400.281,256.235 438.576,256.000 438.575 C 255.765 438.574,246.084 416.290,234.487 389.055 L 213.400 339.538 216.486 335.243 C 218.183 332.880,220.546 328.389,221.738 325.261 C 223.874 319.656,223.910 319.154,224.243 290.773 C 224.429 274.933,224.870 261.973,225.224 261.973 C 225.577 261.973,228.091 262.739,230.811 263.675 C 243.893 268.175,260.126 269.036,271.787 265.846 C 279.171 263.826,288.143 259.287,294.458 254.378 L 299.947 250.111 302.507 252.480 C 303.915 253.783,306.613 256.033,308.504 257.479 " stroke="none" fill-rule="evenodd" fill="black"></path></svg>