<svg id="icons" xmlns="http://www.w3.org/2000/svg" viewBox="0 0 512 512"><path d="M131.588 17.155 C 110.394 20.729,90.358 38.449,82.965 60.160 L 80.640 66.987 80.640 256.000 L 80.640 445.013 82.965 451.840 C 86.377 461.859,90.831 468.858,98.987 477.013 C 107.142 485.169,114.141 489.623,124.160 493.035 L 130.987 495.360 256.000 495.360 L 381.013 495.360 387.840 493.035 C 397.859 489.623,404.858 485.169,413.013 477.013 C 421.169 468.858,425.623 461.859,429.035 451.840 L 431.360 445.013 431.360 256.000 L 431.360 66.987 429.035 60.160 C 425.694 50.350,421.229 43.246,413.440 35.346 C 405.723 27.520,398.009 22.605,387.840 19.036 L 381.013 16.640 258.560 16.517 C 190.003 16.448,134.118 16.729,131.588 17.155 M380.758 50.922 C 388.033 54.368,393.632 59.967,397.078 67.242 L 399.787 72.960 399.787 256.000 L 399.787 439.040 397.062 444.792 C 392.318 454.806,384.051 461.408,373.827 463.347 C 367.564 464.535,144.436 464.535,138.173 463.347 C 127.949 461.408,119.682 454.806,114.938 444.792 L 112.213 439.040 112.213 256.000 L 112.213 72.960 114.922 67.242 C 119.595 57.378,128.897 50.079,138.658 48.617 C 141.009 48.264,195.157 48.030,258.987 48.095 L 375.040 48.213 380.758 50.922 M203.520 64.712 C 187.757 69.956,188.657 92.032,204.775 95.488 C 210.800 96.780,301.200 96.780,307.225 95.488 C 315.414 93.732,320.720 86.338,319.779 77.993 C 319.281 73.575,317.568 70.874,312.826 67.036 L 309.603 64.427 257.415 64.286 C 228.711 64.208,204.459 64.400,203.520 64.712 M292.783 273.564 C 278.117 277.507,266.903 290.319,264.508 305.865 C 261.497 325.416,273.042 347.325,290.403 355.005 C 304.049 361.041,318.056 357.860,329.816 346.053 C 349.914 325.874,348.300 292.986,326.521 278.909 C 316.748 272.592,303.940 270.563,292.783 273.564 M286.426 377.683 C 254.743 383.407,231.114 403.526,224.927 430.044 C 223.069 438.011,225.178 443.982,230.792 446.646 C 233.325 447.848,241.522 448.000,303.916 447.999 C 369.131 447.997,374.397 447.890,377.113 446.505 C 381.056 444.495,383.248 441.279,383.758 436.760 C 384.290 432.034,380.155 419.175,375.794 411.996 C 365.059 394.325,344.386 381.473,320.427 377.576 C 310.917 376.029,295.305 376.078,286.426 377.683 " stroke="none" fill-rule="evenodd" fill="black"></path></svg>