<svg id="icons" xmlns="http://www.w3.org/2000/svg" viewBox="0 0 512 512"><path d="M130.133 17.601 C 126.848 18.297,120.704 20.545,116.480 22.597 C 102.588 29.345,93.297 38.644,86.622 52.480 C 79.690 66.850,80.213 50.223,80.213 256.000 C 80.213 461.777,79.690 445.150,86.622 459.520 C 93.306 473.374,102.626 482.694,116.480 489.378 C 130.604 496.191,121.794 495.787,256.000 495.787 C 390.206 495.787,381.396 496.191,395.520 489.378 C 409.374 482.694,418.694 473.374,425.378 459.520 C 432.310 445.150,431.787 461.777,431.787 256.000 C 431.787 50.223,432.310 66.850,425.378 52.480 C 417.383 35.908,404.512 24.811,386.133 18.644 L 380.160 16.640 258.133 16.488 C 153.139 16.357,135.273 16.512,130.133 17.601 M310.187 65.613 C 324.418 72.181,322.427 91.992,307.183 95.504 C 302.005 96.697,209.995 96.697,204.817 95.504 C 189.573 91.992,187.582 72.181,201.813 65.613 C 205.011 64.137,208.439 64.037,256.000 64.037 C 303.561 64.037,306.989 64.137,310.187 65.613 M315.918 273.907 C 340.957 281.641,351.110 309.163,338.304 334.591 C 334.424 342.297,325.927 351.029,319.140 354.287 C 300.699 363.140,279.921 354.816,269.754 334.502 C 265.439 325.882,264.271 320.103,264.678 309.398 C 264.963 301.901,265.353 300.058,267.726 295.008 C 270.939 288.170,278.101 280.287,284.037 277.056 C 293.178 272.081,305.928 270.822,315.918 273.907 M320.427 377.576 C 352.056 382.720,376.198 402.684,382.807 429.162 C 384.395 435.526,384.004 439.280,381.365 442.985 C 377.669 448.176,380.398 448.000,303.730 448.000 C 226.090 448.000,229.721 448.259,226.147 442.475 C 220.845 433.897,228.497 413.247,241.969 399.775 C 252.799 388.945,269.199 380.795,286.426 377.683 C 295.305 376.078,310.917 376.029,320.427 377.576 " stroke="none" fill-rule="evenodd" fill="black"></path></svg>