<svg id="icons" xmlns="http://www.w3.org/2000/svg" viewBox="0 0 512 512"><path d="M97.274 17.006 C 90.903 18.958,84.843 24.394,81.985 30.720 C 80.256 34.549,80.251 35.199,80.251 256.000 C 80.251 476.801,80.256 477.451,81.985 481.280 C 84.314 486.434,89.104 491.287,94.293 493.747 L 98.560 495.770 256.000 495.770 L 413.440 495.770 417.707 493.747 C 422.896 491.287,427.686 486.434,430.015 481.280 C 431.744 477.451,431.749 476.801,431.749 256.000 C 431.749 35.199,431.744 34.549,430.015 30.720 C 427.904 26.047,423.153 20.974,418.560 18.488 L 415.147 16.640 257.280 16.495 C 170.453 16.416,98.451 16.646,97.274 17.006 M320.000 80.213 L 320.000 96.427 256.000 96.427 L 192.000 96.427 192.000 80.213 L 192.000 64.000 256.000 64.000 L 320.000 64.000 320.000 80.213 M313.345 273.160 C 318.823 274.307,327.985 278.956,332.669 282.966 C 347.770 295.892,351.004 321.067,339.791 338.415 C 331.898 350.628,318.544 357.828,303.787 357.828 C 265.569 357.828,246.675 310.796,274.254 284.313 C 284.899 274.091,298.821 270.119,313.345 273.160 M320.528 375.915 C 349.067 380.816,373.807 395.136,381.257 411.067 C 383.461 415.781,383.577 416.712,383.862 432.000 L 384.160 448.000 304.293 448.000 L 224.427 448.000 224.427 432.672 C 224.427 414.926,225.244 411.591,231.562 403.567 C 241.201 391.324,263.435 380.221,286.900 375.934 C 295.492 374.365,311.447 374.355,320.528 375.915 " stroke="none" fill-rule="evenodd" fill="black"></path></svg>