<svg xmlns="http://www.w3.org/2000/svg" width="512" height="512" viewBox="0 0 512 512"><path d="M49.730 33.716 C 27.840 38.473,10.245 54.980,2.444 78.080 L 0.427 84.053 0.196 220.568 C -0.055 368.592,-0.192 363.700,4.546 375.431 C 11.925 393.701,27.114 407.660,45.844 413.387 L 47.742 413.967 47.985 277.597 L 48.228 141.227 50.150 134.400 C 57.964 106.632,79.216 86.660,106.528 81.416 C 111.782 80.407,139.592 80.213,279.222 80.213 L 445.653 80.213 445.124 77.440 C 444.258 72.908,438.163 61.385,433.737 55.914 C 425.272 45.450,410.695 36.375,398.080 33.716 C 389.524 31.912,58.031 31.912,49.730 33.716 M134.665 112.667 C 113.510 115.170,95.375 128.093,86.204 147.200 C 79.845 160.448,80.213 151.282,80.213 296.352 C 80.213 423.708,80.249 426.533,81.925 433.143 C 87.356 454.560,103.047 470.751,125.013 477.604 L 132.693 480.000 294.827 480.000 C 470.968 480.000,461.430 480.251,473.746 475.284 C 481.988 471.959,486.574 469.057,492.829 463.206 C 500.397 456.126,506.030 447.432,509.079 438.123 L 511.573 430.507 511.573 296.107 L 511.573 161.707 509.180 154.880 C 501.969 134.313,486.840 120.002,466.052 114.082 L 459.520 112.222 299.947 112.107 C 212.181 112.043,137.804 112.295,134.665 112.667 M380.587 174.100 C 399.268 176.999,415.357 193.506,418.212 212.704 C 422.887 244.137,394.114 271.036,363.178 264.153 C 348.164 260.813,336.348 250.897,330.380 236.632 C 321.258 214.827,331.322 188.723,352.872 178.290 C 362.454 173.650,370.171 172.484,380.587 174.100 M246.798 263.667 C 256.949 266.803,261.448 270.586,295.680 304.780 L 328.107 337.170 271.475 393.439 L 214.844 449.707 177.938 449.707 C 156.542 449.707,139.114 449.343,136.466 448.841 C 126.696 446.988,119.369 441.203,114.866 431.787 L 112.213 426.240 111.987 389.973 L 111.760 353.707 158.641 311.922 C 184.426 288.940,207.376 269.063,209.641 267.750 C 216.697 263.661,223.073 262.074,232.657 262.021 C 238.991 261.986,242.785 262.428,246.798 263.667 M419.123 324.239 C 427.541 326.839,433.324 330.920,457.252 351.147 L 479.462 369.920 479.517 397.408 C 479.571 423.509,479.481 425.143,477.741 429.793 C 475.189 436.614,467.348 444.499,460.373 447.256 L 455.253 449.280 357.120 449.501 L 258.987 449.723 318.293 390.514 C 357.935 350.938,379.015 330.492,381.867 328.853 C 392.995 322.455,407.523 320.656,419.123 324.239 " stroke="none" fill-rule="evenodd" fill="black"></path></svg>