<svg xmlns="http://www.w3.org/2000/svg" width="512" height="512" viewBox="0 0 512 512"><path d="M86.042 64.866 C 56.896 69.837,35.840 92.162,32.458 121.677 C 31.270 132.052,31.270 379.948,32.458 390.323 C 35.517 417.019,52.466 437.350,78.507 445.556 L 84.907 447.573 256.000 447.573 L 427.093 447.573 433.493 445.556 C 459.534 437.350,476.483 417.019,479.542 390.323 C 480.730 379.948,480.730 132.052,479.542 121.677 C 476.483 94.975,459.308 74.411,433.356 66.376 L 427.093 64.437 258.560 64.311 C 165.867 64.243,88.234 64.492,86.042 64.866 M350.782 130.493 C 357.112 132.467,364.895 137.239,369.828 142.172 C 388.525 160.870,388.407 191.343,369.563 209.920 C 359.910 219.437,349.242 223.813,335.803 223.767 C 314.192 223.694,295.162 208.968,289.731 188.115 C 288.085 181.798,288.068 169.959,289.694 163.846 C 294.132 147.171,308.700 133.031,325.355 129.233 C 332.248 127.661,343.483 128.218,350.782 130.493 M205.761 222.434 C 216.120 226.008,219.353 228.748,255.147 264.296 L 289.707 298.619 230.829 357.523 L 171.951 416.427 133.919 416.427 C 110.128 416.427,94.004 416.079,90.858 415.497 C 78.119 413.142,68.503 404.344,65.323 392.132 C 64.227 387.927,64.007 380.962,64.039 351.607 L 64.078 316.160 109.714 275.627 C 134.814 253.333,157.356 233.464,159.808 231.474 C 165.671 226.713,172.704 223.023,178.888 221.461 C 185.715 219.738,199.378 220.232,205.761 222.434 M385.212 285.809 C 393.379 288.674,396.551 290.953,422.910 312.895 L 448.000 333.780 448.000 360.417 C 448.000 381.723,447.735 388.071,446.677 392.132 C 443.497 404.344,433.881 413.142,421.142 415.497 C 415.276 416.581,218.453 416.844,218.453 415.768 C 218.453 415.405,246.389 387.256,280.533 353.215 C 347.045 286.903,345.467 288.297,357.709 284.977 C 365.686 282.813,377.709 283.177,385.212 285.809 " stroke="none" fill-rule="evenodd" fill="black"></path></svg>