<svg xmlns="http://www.w3.org/2000/svg" width="512" height="512" viewBox="0 0 512 512"><path d="M47.787 34.178 C 24.280 40.303,6.230 59.369,1.288 83.290 C -0.619 92.524,-0.629 355.673,1.277 364.800 C 6.395 389.300,25.878 409.105,50.347 414.680 C 52.459 415.162,60.043 415.812,67.200 416.125 L 80.213 416.694 80.213 421.544 C 80.213 441.525,94.835 463.698,114.529 473.580 C 128.312 480.497,114.232 480.000,296.533 480.000 C 479.043 480.000,463.237 480.575,477.867 473.402 C 483.804 470.491,486.608 468.365,493.324 461.682 C 500.422 454.619,502.055 452.427,505.438 445.426 C 512.487 430.834,512.081 440.544,511.806 293.120 C 511.578 170.900,511.466 162.237,510.046 157.502 C 502.358 131.862,480.980 114.646,453.760 112.174 L 448.000 111.651 447.985 100.412 C 447.956 78.262,442.637 64.495,428.770 50.682 C 421.656 43.595,413.166 38.289,403.864 35.117 L 397.227 32.853 225.707 32.682 C 57.980 32.514,54.045 32.547,47.787 34.178 M389.979 64.854 C 399.636 66.686,408.717 73.759,412.921 82.722 C 414.934 87.014,415.173 88.627,415.423 99.627 L 415.699 111.787 278.890 111.794 C 193.083 111.798,139.298 112.119,134.618 112.656 C 130.513 113.126,125.329 114.128,123.098 114.883 C 106.763 120.408,93.586 131.936,86.159 147.200 C 79.933 159.994,80.213 153.956,80.213 275.256 L 80.213 384.000 70.049 384.000 C 62.449 384.000,58.567 383.590,54.660 382.374 C 45.066 379.388,36.887 371.388,33.739 361.910 C 32.556 358.348,32.435 343.164,32.632 222.690 L 32.853 87.467 35.161 82.543 C 39.170 73.987,48.364 66.678,57.340 64.910 C 62.728 63.849,384.395 63.795,389.979 64.854 M462.507 146.854 C 468.179 149.530,473.801 154.992,476.874 160.814 L 479.147 165.120 479.374 266.893 L 479.600 368.667 459.588 352.047 C 429.474 327.039,427.727 325.833,417.495 322.973 C 410.378 320.984,396.841 321.545,389.638 324.127 C 382.058 326.845,378.507 329.522,363.495 343.837 L 349.730 356.965 335.505 342.948 C 327.681 335.239,307.648 315.478,290.987 299.036 C 258.131 266.611,256.228 265.112,244.392 262.330 C 240.228 261.352,236.136 261.066,230.400 261.354 C 221.420 261.805,215.655 263.592,208.474 268.151 C 206.063 269.681,183.533 289.077,158.407 311.253 C 133.282 333.429,112.502 351.573,112.230 351.573 C 111.958 351.573,111.843 310.197,111.974 259.627 C 112.241 157.171,111.779 164.888,118.156 156.202 C 121.571 151.550,126.011 148.238,131.946 145.915 C 135.994 144.330,140.479 144.291,296.960 144.463 L 457.813 144.640 462.507 146.854 M362.715 174.157 C 350.494 176.554,336.446 187.740,330.761 199.603 C 314.735 233.044,342.865 270.966,379.714 265.595 C 399.937 262.648,416.237 246.408,419.171 226.284 C 422.037 206.615,411.724 187.078,393.835 178.288 C 390.068 176.437,384.918 174.541,382.390 174.075 C 376.971 173.075,368.044 173.112,362.715 174.157 M379.845 207.025 C 382.696 208.456,386.402 212.833,387.092 215.583 C 387.940 218.960,386.894 225.278,385.082 227.724 C 381.962 231.938,378.211 233.813,372.907 233.813 C 364.550 233.813,359.180 228.776,358.593 220.385 C 358.306 216.279,358.579 214.986,360.244 212.558 C 365.050 205.555,372.648 203.410,379.845 207.025 M240.202 294.640 C 241.257 295.212,261.268 314.597,284.672 337.718 L 327.224 379.755 293.105 413.893 L 258.987 448.031 196.693 447.802 L 134.400 447.573 129.707 445.360 C 123.467 442.416,118.076 436.861,114.880 430.080 C 112.280 424.562,112.266 424.457,112.240 409.629 L 112.213 394.724 164.693 348.352 C 227.895 292.505,224.626 295.296,228.523 293.857 C 231.922 292.602,237.083 292.947,240.202 294.640 M411.452 354.796 C 413.175 355.605,429.202 368.363,447.068 383.147 L 479.551 410.027 479.562 417.035 C 479.570 422.134,479.075 425.376,477.742 428.938 C 475.806 434.113,470.287 440.771,465.462 443.753 C 458.529 448.037,459.679 447.981,379.311 447.991 L 304.221 448.000 338.777 413.365 C 379.953 372.095,398.527 354.403,401.218 353.890 C 405.353 353.102,408.424 353.373,411.452 354.796 " stroke="none" fill-rule="evenodd" fill="black"></path></svg>