<svg xmlns="http://www.w3.org/2000/svg" width="512" height="512" viewBox="0 0 512 512"><path d="M11.472 34.036 C 7.211 35.972,2.314 41.543,0.990 45.959 C -0.487 50.889,-0.428 397.307,1.051 402.242 C 1.659 404.272,3.724 407.422,5.957 409.724 C 11.519 415.458,15.488 416.427,33.435 416.427 L 47.787 416.427 47.787 257.416 C 47.787 84.939,47.545 93.861,52.384 87.516 C 53.584 85.943,56.572 83.657,59.024 82.435 L 63.482 80.213 255.741 80.213 L 448.000 80.213 448.000 64.739 C 448.000 55.463,447.603 47.941,447.010 45.959 C 445.686 41.543,440.789 35.972,436.528 34.036 C 433.196 32.523,425.276 32.464,224.000 32.464 C 22.724 32.464,14.804 32.523,11.472 34.036 M94.056 113.036 C 88.749 114.700,84.960 117.956,82.435 123.024 L 80.213 127.482 80.213 295.875 C 80.213 481.865,79.775 467.395,85.590 473.461 C 87.091 475.028,89.856 477.140,91.733 478.155 L 95.147 480.000 293.938 480.222 C 518.407 480.473,498.938 481.069,506.043 473.731 C 508.272 471.429,510.342 468.269,510.949 466.242 C 512.352 461.562,512.483 131.055,511.085 126.020 C 509.967 121.994,505.156 116.543,500.538 114.072 L 497.067 112.213 297.387 112.052 C 132.436 111.920,97.072 112.091,94.056 113.036 M380.587 174.100 C 399.268 176.999,415.357 193.506,418.212 212.704 C 422.887 244.137,394.114 271.036,363.178 264.153 C 348.247 260.831,336.315 250.819,330.380 236.632 C 321.266 214.846,331.257 188.882,352.829 178.292 C 362.277 173.654,370.098 172.473,380.587 174.100 M281.603 290.623 L 328.107 337.193 271.475 393.450 L 214.844 449.707 163.315 449.707 L 111.787 449.707 111.804 401.707 L 111.821 353.707 172.935 298.880 C 206.547 268.725,234.284 244.053,234.574 244.053 C 234.863 244.053,256.026 265.010,281.603 290.623 M441.868 337.920 L 479.469 369.920 479.521 409.813 L 479.573 449.707 369.282 449.707 L 258.990 449.707 331.094 377.600 C 370.751 337.941,403.438 305.589,403.732 305.706 C 404.026 305.824,421.188 320.320,441.868 337.920 " stroke="none" fill-rule="evenodd" fill="black"></path></svg>