<svg xmlns="http://www.w3.org/2000/svg" width="512" height="512" viewBox="0 0 512 512"><path d="M48.135 65.558 C 40.319 68.260,35.039 74.094,32.868 82.429 C 31.732 86.790,31.573 108.049,31.573 256.000 C 31.573 405.168,31.725 425.184,32.889 429.654 C 34.981 437.685,40.019 443.375,47.605 446.275 C 52.088 447.989,53.463 448.000,256.000 448.000 C 458.537 448.000,459.912 447.989,464.395 446.275 C 471.981 443.375,477.019 437.685,479.111 429.654 C 480.275 425.184,480.427 405.168,480.427 256.000 C 480.427 108.049,480.268 86.790,479.132 82.429 C 476.961 74.094,471.681 68.260,463.865 65.558 C 459.765 64.140,448.056 64.056,256.000 64.056 C 63.944 64.056,52.235 64.140,48.135 65.558 M350.782 130.493 C 357.112 132.467,364.895 137.239,369.828 142.172 C 388.525 160.870,388.407 191.343,369.563 209.920 C 359.919 219.428,349.508 223.678,335.760 223.718 C 322.304 223.758,310.757 218.686,301.107 208.498 C 292.618 199.535,288.419 188.706,288.437 175.821 C 288.455 162.502,292.828 151.763,301.979 142.560 C 308.435 136.069,317.138 131.107,325.355 129.233 C 332.248 127.661,343.483 128.218,350.782 130.493 M241.494 250.454 L 289.702 298.667 230.824 357.565 L 171.947 416.463 122.453 416.231 C 74.714 416.008,72.858 415.940,70.070 414.293 C 68.480 413.355,66.464 411.249,65.590 409.613 C 64.095 406.817,64.002 403.943,64.040 361.400 L 64.080 316.160 128.253 259.201 C 163.549 227.874,192.620 202.242,192.856 202.241 C 193.092 202.241,214.979 223.936,241.494 250.454 M407.978 300.444 L 448.000 333.795 448.000 370.218 C 448.000 404.115,447.890 406.846,446.410 409.613 C 445.536 411.249,443.520 413.355,441.930 414.293 C 439.086 415.973,437.299 416.004,328.747 416.226 C 268.085 416.350,218.453 416.159,218.453 415.801 C 218.453 414.901,366.329 267.093,367.230 267.093 C 367.630 267.093,385.966 282.101,407.978 300.444 " stroke="none" fill-rule="evenodd" fill="black"></path></svg>