<svg xmlns="http://www.w3.org/2000/svg" width="512" height="512" viewBox="0 0 512 512"><path d="M87.467 64.527 C 86.528 64.716,83.648 65.289,81.067 65.801 C 78.485 66.313,73.214 68.200,69.352 69.995 C 51.286 78.392,38.479 93.851,33.477 113.297 C 32.107 118.626,32.000 128.916,32.000 256.000 C 32.000 383.084,32.107 393.374,33.477 398.703 C 38.606 418.646,53.378 435.936,71.617 443.348 C 83.614 448.222,74.799 448.000,256.000 448.000 C 437.201 448.000,428.386 448.222,440.383 443.348 C 458.622 435.936,473.394 418.646,478.523 398.703 C 479.893 393.374,480.000 383.084,480.000 256.000 C 480.000 128.916,479.893 118.626,478.523 113.297 C 473.548 93.953,460.627 78.353,442.591 69.913 C 429.936 63.990,445.978 64.478,258.560 64.323 C 165.397 64.246,88.405 64.338,87.467 64.527 M427.672 98.460 C 438.084 102.743,445.392 111.537,447.095 121.831 C 447.764 125.881,447.975 157.910,447.809 230.508 L 447.573 333.442 424.107 313.882 C 396.526 290.894,394.024 289.087,385.659 286.112 C 380.181 284.164,377.956 283.854,369.493 283.865 C 361.563 283.874,358.711 284.232,354.628 285.729 C 345.741 288.988,342.064 291.776,327.047 306.639 L 312.334 321.202 266.034 275.074 C 220.249 229.459,219.653 228.906,212.480 225.401 C 197.608 218.133,182.339 218.252,168.185 225.747 C 163.947 227.991,150.458 239.491,113.493 272.375 L 64.427 316.023 64.191 221.798 C 64.026 155.581,64.238 125.866,64.905 121.831 C 66.608 111.537,73.916 102.742,84.328 98.460 L 89.173 96.467 256.000 96.467 L 422.827 96.467 427.672 98.460 M325.120 129.334 C 308.571 132.908,294.647 146.305,289.655 163.458 C 287.569 170.628,287.752 183.038,290.052 190.355 C 293.259 200.556,301.024 210.428,310.881 216.834 C 329.586 228.992,356.205 225.206,371.465 208.217 C 379.434 199.345,382.998 190.783,383.720 178.773 C 385.648 146.717,356.907 122.469,325.120 129.334 M342.869 161.630 C 345.492 163.001,349.200 166.788,350.616 169.544 C 352.119 172.470,351.771 179.734,349.957 183.287 C 347.962 187.198,346.023 188.994,341.970 190.687 C 335.295 193.476,329.017 191.844,324.037 186.026 C 317.352 178.216,319.659 166.312,328.723 161.844 C 332.189 160.136,339.789 160.021,342.869 161.630 M198.276 253.985 C 199.752 254.727,220.928 275.258,245.333 299.611 L 289.707 343.887 253.378 380.198 L 217.050 416.508 153.538 416.254 L 90.027 416.000 85.118 414.018 C 75.064 409.958,67.437 401.479,65.168 391.837 C 64.445 388.763,64.043 381.829,64.070 372.907 L 64.114 358.827 120.348 308.907 C 151.277 281.451,177.892 257.902,179.493 256.575 C 185.321 251.748,191.996 250.828,198.276 253.985 M378.260 317.790 C 379.927 318.922,396.301 332.368,414.646 347.671 L 448.000 375.495 447.982 380.814 C 447.928 397.019,440.639 408.453,426.797 414.050 L 421.973 416.000 342.827 416.247 C 299.296 416.382,263.680 416.189,263.680 415.817 C 263.680 414.535,361.391 317.506,363.520 316.675 C 364.693 316.216,367.808 315.817,370.441 315.787 C 374.153 315.745,375.910 316.196,378.260 317.790 " stroke="none" fill-rule="evenodd" fill="black"></path></svg>