<svg xmlns="http://www.w3.org/2000/svg" width="512" height="512" viewBox="0 0 512 512"><path d="M109.242 137.882 C 75.202 144.087,45.971 163.035,27.790 190.680 C 1.578 230.537,1.578 281.463,27.790 321.320 C 51.933 358.030,95.947 379.291,139.831 375.440 C 169.663 372.822,194.653 362.126,219.876 341.181 C 228.857 333.723,231.699 328.504,231.642 319.573 C 231.611 314.632,231.176 312.814,229.122 309.049 C 224.513 300.603,217.816 296.603,208.213 296.561 C 200.724 296.529,196.818 298.121,189.440 304.214 C 174.955 316.176,158.542 324.192,143.033 326.878 C 133.358 328.553,116.272 327.518,107.520 324.725 C 87.074 318.202,71.362 304.305,62.308 284.735 C 57.606 274.572,56.747 270.134,56.747 256.000 C 56.747 241.824,57.602 237.435,62.376 227.120 C 72.391 205.480,91.281 190.480,114.577 185.668 C 142.393 179.922,170.653 190.564,197.104 216.747 C 212.267 231.755,223.719 247.305,236.378 270.073 C 248.850 292.505,262.234 310.237,280.223 328.160 C 297.308 345.182,310.181 354.597,328.107 363.181 C 359.008 377.978,390.933 379.933,422.772 368.979 C 442.335 362.249,459.952 350.361,474.229 334.257 C 509.618 294.340,513.722 235.282,484.204 190.720 C 466.600 164.145,439.718 146.008,407.040 138.659 C 398.604 136.761,374.111 135.984,365.339 137.335 C 343.865 140.642,323.422 148.870,304.021 162.014 C 292.103 170.089,285.724 175.814,282.905 180.967 C 280.724 184.955,280.374 186.491,280.390 192.000 C 280.419 201.607,284.712 208.795,293.018 213.145 C 296.694 215.071,298.469 215.434,304.213 215.438 C 312.310 215.444,313.197 215.038,325.434 205.739 C 344.936 190.918,362.452 184.320,382.293 184.320 C 411.865 184.320,437.299 200.487,449.624 227.120 C 454.398 237.435,455.253 241.824,455.253 256.000 C 455.253 270.134,454.394 274.572,449.692 284.735 C 440.653 304.271,425.107 318.041,404.480 324.781 C 397.818 326.958,396.114 327.155,383.573 327.202 C 368.708 327.258,364.863 326.570,352.604 321.661 C 340.118 316.662,327.061 307.452,313.978 294.418 C 299.706 280.200,287.976 264.146,275.622 241.927 C 243.936 184.935,196.152 145.289,150.187 137.852 C 140.197 136.236,118.184 136.252,109.242 137.882 " stroke="none" fill-rule="evenodd" fill="black"></path></svg>