<svg xmlns="http://www.w3.org/2000/svg" width="512" height="512" viewBox="0 0 512 512"><path d="M112.213 145.495 C 86.828 149.535,64.927 161.021,46.908 179.744 C 35.038 192.077,27.334 204.840,21.833 221.281 C 10.573 254.936,16.303 291.868,37.311 321.045 C 43.643 329.841,56.686 342.365,65.707 348.312 C 84.952 361.001,102.706 366.662,125.979 367.528 C 141.659 368.112,151.837 366.678,166.496 361.821 C 187.853 354.744,206.772 342.924,226.066 324.604 C 236.988 314.233,239.787 310.121,239.787 304.446 C 239.787 294.877,233.430 288.427,224.000 288.427 C 218.136 288.427,216.192 289.615,206.134 299.351 C 200.942 304.377,194.389 310.249,191.573 312.398 C 158.797 337.419,123.628 342.621,92.587 327.040 C 84.518 322.990,79.950 319.785,73.500 313.649 C 56.570 297.542,48.444 278.847,48.444 256.000 C 48.444 233.366,56.437 214.791,73.098 198.711 C 94.658 177.903,128.101 170.745,157.013 180.752 C 187.438 191.283,219.742 222.836,241.913 263.680 C 248.390 275.610,259.204 291.928,267.927 302.933 C 276.194 313.363,293.778 331.193,302.835 338.331 C 321.966 353.406,342.785 362.966,364.261 366.538 C 374.885 368.304,395.173 367.867,405.333 365.652 C 439.031 358.307,467.587 336.886,483.303 307.165 C 497.044 281.179,499.582 249.421,490.167 221.281 C 484.667 204.842,476.964 192.080,465.092 179.742 C 442.926 156.704,413.933 144.270,382.293 144.234 C 348.696 144.195,316.014 158.834,285.934 187.396 C 275.064 197.718,272.213 201.889,272.213 207.472 C 272.213 212.478,273.353 215.606,276.321 218.743 C 280.795 223.472,286.265 224.995,292.275 223.187 C 295.384 222.251,298.221 220.048,305.918 212.592 C 328.651 190.569,350.908 178.900,374.449 176.661 C 416.336 172.678,455.092 201.204,462.532 241.493 C 463.848 248.621,463.847 263.392,462.529 270.507 C 458.110 294.370,441.672 315.928,419.413 327.053 C 397.524 337.993,373.686 338.771,349.954 329.319 C 321.967 318.172,290.954 286.719,270.091 248.320 C 247.623 206.968,214.620 172.561,182.087 156.573 C 160.518 145.974,134.815 141.899,112.213 145.495 " stroke="none" fill-rule="evenodd" fill="black"></path></svg>