<svg xmlns="http://www.w3.org/2000/svg" width="512" height="512" viewBox="0 0 512 512"><path d="M108.800 137.912 C 64.103 145.935,27.290 177.635,13.782 219.733 C 8.040 237.627,6.507 259.329,9.773 276.480 C 18.139 320.404,48.599 355.300,90.904 369.423 C 133.912 383.781,180.047 373.959,218.880 342.178 C 225.321 336.907,235.853 325.549,235.283 324.489 C 233.246 320.697,211.950 285.986,211.093 285.060 C 210.116 284.003,208.202 285.538,197.776 295.742 C 184.610 308.627,177.607 313.771,165.333 319.573 C 153.093 325.358,146.536 326.938,132.693 327.435 C 117.825 327.969,109.568 326.267,96.853 320.045 C 81.993 312.773,70.689 301.599,63.613 287.189 C 57.892 275.538,56.792 270.520,56.778 256.000 C 56.764 241.439,57.863 236.408,63.590 224.811 C 70.735 210.347,82.043 199.185,96.853 191.979 C 109.405 185.872,114.109 184.829,129.280 184.792 C 144.484 184.756,149.777 185.894,162.639 191.967 C 189.896 204.837,215.317 231.504,235.071 267.947 C 241.047 278.973,253.889 298.339,261.665 308.053 C 269.029 317.253,285.228 333.938,293.547 340.891 C 323.939 366.294,359.368 378.700,392.418 375.512 C 448.207 370.132,491.894 330.732,502.227 276.480 C 504.319 265.495,504.319 246.505,502.227 235.520 C 492.393 183.888,451.685 144.986,399.503 137.356 C 390.208 135.997,365.348 136.752,356.693 138.656 C 329.491 144.640,298.278 162.208,281.695 180.867 C 276.916 186.244,276.493 187.017,277.402 188.714 C 279.838 193.267,299.852 225.828,300.904 226.951 C 301.910 228.025,303.619 226.669,313.382 217.052 C 337.458 193.334,359.857 183.344,386.133 184.604 C 398.599 185.202,404.067 186.592,415.147 191.981 C 429.972 199.191,441.302 210.381,448.387 224.811 C 454.116 236.478,455.210 241.479,455.210 256.000 C 455.210 270.521,454.116 275.522,448.387 287.189 C 441.310 301.601,430.004 312.776,415.147 320.043 C 395.203 329.798,373.382 330.403,352.571 321.779 C 325.056 310.376,298.091 282.401,275.629 241.952 C 263.709 220.487,250.987 203.323,234.267 186.147 C 223.127 174.703,214.406 167.304,203.093 159.699 C 187.099 148.946,166.703 140.524,150.187 137.852 C 139.998 136.203,118.142 136.235,108.800 137.912 " stroke="none" fill-rule="evenodd" fill="black"></path></svg>