<svg xmlns="http://www.w3.org/2000/svg" width="512" height="512" viewBox="0 0 512 512"><path d="M245.190 97.958 C 231.066 102.994,222.060 118.154,224.454 132.863 C 228.648 158.630,260.051 168.861,278.456 150.456 C 294.014 134.899,289.591 108.922,269.730 99.205 C 263.501 96.157,251.893 95.567,245.190 97.958 M187.299 202.125 C 182.639 204.242,178.748 208.923,176.976 214.545 C 175.709 218.564,175.646 219.890,176.530 223.841 C 177.914 230.024,181.639 234.882,187.075 237.591 L 191.482 239.787 215.634 239.787 L 239.787 239.787 239.787 308.053 L 239.787 376.320 211.173 376.320 C 179.625 376.320,178.893 376.424,173.336 381.697 C 163.066 391.440,166.065 408.067,179.200 414.205 C 183.009 415.985,183.634 416.000,256.000 416.000 C 328.366 416.000,328.991 415.985,332.800 414.205 C 345.935 408.067,348.934 391.440,338.664 381.697 C 333.197 376.510,331.998 376.320,304.667 376.320 L 279.893 376.320 279.889 296.747 C 279.885 243.281,279.587 216.104,278.978 213.913 C 277.822 209.748,272.763 204.124,268.373 202.125 C 265.239 200.698,261.931 200.571,227.840 200.571 C 193.757 200.571,190.440 200.698,187.299 202.125 " stroke="none" fill-rule="evenodd" fill="black"></path></svg>