<svg xmlns="http://www.w3.org/2000/svg" width="512" height="512" viewBox="0 0 512 512"><path d="M233.813 48.660 C 207.528 50.458,184.179 56.790,160.000 68.677 C 99.199 98.570,58.819 155.109,49.372 223.573 C 47.732 235.462,47.973 263.535,49.820 275.627 C 62.289 357.281,119.732 421.467,198.400 441.651 C 213.470 445.517,224.801 447.112,241.493 447.718 C 346.708 451.532,436.998 371.876,447.198 266.240 C 448.427 253.515,447.802 231.349,445.852 218.453 C 432.574 130.657,362.235 61.409,274.773 50.028 C 261.930 48.357,246.018 47.825,233.813 48.660 M275.627 82.307 C 349.002 94.688,405.519 153.831,414.678 227.818 C 415.996 238.461,415.774 260.476,414.238 271.486 C 402.103 358.492,323.997 421.756,236.421 415.514 C 177.079 411.284,124.851 376.589,98.228 323.714 C 86.610 300.639,81.436 280.270,80.487 253.867 C 78.781 206.416,95.894 162.805,129.349 129.349 C 156.249 102.450,190.690 85.722,228.693 81.100 C 237.987 79.969,266.050 80.691,275.627 82.307 M243.439 130.626 C 232.452 132.093,223.349 142.049,222.121 153.941 C 221.128 163.563,226.714 173.865,235.586 178.773 C 239.769 181.087,240.951 181.333,247.893 181.327 C 254.212 181.322,256.212 180.981,259.176 179.402 C 274.819 171.070,278.801 151.820,267.484 139.234 C 261.099 132.132,253.237 129.318,243.439 130.626 M213.700 205.562 C 203.644 210.129,201.016 222.499,208.332 230.832 C 211.781 234.760,217.381 236.373,227.568 236.373 L 235.520 236.373 235.520 280.320 L 235.520 324.267 219.474 324.267 L 203.427 324.267 199.543 326.730 C 189.160 333.315,189.841 348.751,200.746 354.030 C 204.420 355.808,205.324 355.840,252.030 355.840 C 304.451 355.840,302.941 355.986,307.807 350.444 C 310.156 347.768,312.310 342.798,312.310 340.053 C 312.310 337.309,310.156 332.339,307.807 329.663 C 303.455 324.707,301.494 324.267,283.761 324.267 L 267.947 324.267 267.947 270.562 C 267.947 234.692,267.645 216.060,267.039 214.456 C 265.749 211.040,262.106 207.404,258.133 205.564 C 255.138 204.178,252.422 203.984,235.947 203.984 C 219.506 203.984,216.742 204.180,213.700 205.562 " stroke="none" fill-rule="evenodd" fill="black"></path></svg>