<svg xmlns="http://www.w3.org/2000/svg" width="512" height="512" viewBox="0 0 512 512"><path d="M245.190 97.958 C 231.066 102.994,222.060 118.154,224.454 132.863 C 228.648 158.630,260.051 168.861,278.456 150.456 C 294.014 134.899,289.591 108.922,269.730 99.205 C 263.501 96.157,251.893 95.567,245.190 97.958 M175.787 220.160 L 175.787 239.787 207.787 239.787 L 239.787 239.787 239.787 308.053 L 239.787 376.320 203.520 376.320 L 167.253 376.320 167.253 396.373 L 167.253 416.427 256.000 416.427 L 344.747 416.427 344.747 396.373 L 344.747 376.320 312.320 376.320 L 279.893 376.320 279.893 288.427 L 279.893 200.533 227.840 200.533 L 175.787 200.533 175.787 220.160 " stroke="none" fill-rule="evenodd" fill="black"></path></svg>