<svg xmlns="http://www.w3.org/2000/svg" width="512" height="512" viewBox="0 0 512 512"><path d="M237.653 56.847 C 194.188 61.339,156.845 77.581,123.457 106.517 C 88.170 137.097,63.675 183.278,57.609 230.657 C 55.945 243.655,55.945 268.345,57.609 281.343 C 67.931 361.969,127.433 429.369,206.080 449.522 C 225.950 454.614,231.314 455.228,256.000 455.232 C 280.385 455.237,288.225 454.325,307.200 449.276 C 376.200 430.918,430.918 376.200,449.276 307.200 C 454.325 288.225,455.237 280.385,455.232 256.000 C 455.228 231.314,454.614 225.950,449.522 206.080 C 433.295 142.754,386.678 91.293,324.693 68.281 C 303.220 60.309,285.179 57.103,259.840 56.753 C 249.515 56.611,239.531 56.653,237.653 56.847 M265.021 139.670 C 270.741 141.615,278.225 149.099,280.170 154.819 C 285.287 169.867,277.329 185.004,262.137 189.116 C 257.560 190.355,255.887 190.443,252.076 189.644 C 242.717 187.681,236.903 183.407,233.020 175.638 C 230.882 171.359,230.400 169.348,230.400 164.709 C 230.400 161.582,231.044 157.132,231.830 154.819 C 233.691 149.345,241.265 141.617,246.618 139.728 C 251.712 137.930,259.830 137.905,265.021 139.670 M275.627 272.213 L 275.627 331.947 297.813 331.947 L 320.000 331.947 320.000 348.160 L 320.000 364.373 260.267 364.373 L 200.533 364.373 200.533 348.160 L 200.533 331.947 222.293 331.947 L 244.053 331.947 244.053 288.000 L 244.053 244.053 228.267 244.053 L 212.480 244.053 212.480 228.267 L 212.480 212.480 244.053 212.480 L 275.627 212.480 275.627 272.213 " stroke="none" fill-rule="evenodd" fill="black"></path></svg>