<svg xmlns="http://www.w3.org/2000/svg" viewBox="0 0 512 512"><path d="M231.253 33.392 C 214.898 35.057,192.680 40.401,176.511 46.559 C 156.296 54.258,131.841 68.384,114.508 82.373 C 92.069 100.483,71.148 126.126,57.570 152.164 C 42.512 181.038,34.416 210.416,32.447 243.324 C 27.225 330.584,74.485 413.921,152.164 454.430 C 231.416 495.759,326.910 486.355,396.524 430.364 C 473.098 368.774,500.486 263.737,463.793 172.373 C 435.769 102.595,373.381 50.947,299.520 36.379 C 293.653 35.221,284.659 33.859,279.532 33.351 C 268.795 32.286,241.887 32.309,231.253 33.392 M284.160 66.219 C 331.378 73.017,375.549 98.349,405.613 135.872 C 422.965 157.530,435.915 183.658,442.314 209.920 C 446.279 226.194,447.503 237.063,447.503 256.000 C 447.503 287.858,442.031 311.912,428.384 340.053 C 399.770 399.055,343.207 439.048,277.505 446.733 C 271.550 447.430,264.275 448.000,261.339 448.000 L 256.000 448.000 256.000 392.264 L 256.000 336.527 247.287 335.505 C 236.320 334.218,224.106 330.105,214.875 324.591 C 207.372 320.108,194.913 308.578,190.498 302.029 C 185.641 294.824,180.805 284.143,178.624 275.804 C 175.525 263.949,175.525 248.050,178.625 236.192 C 186.065 207.735,207.939 185.857,236.092 178.715 C 240.591 177.574,245.471 176.636,246.936 176.631 C 248.401 176.625,251.040 176.383,252.800 176.092 L 256.000 175.563 256.000 119.660 L 256.000 63.757 265.600 64.343 C 270.880 64.666,279.232 65.510,284.160 66.219 M256.000 256.094 L 256.000 336.414 262.613 335.796 C 282.244 333.961,298.687 326.125,312.747 311.904 C 325.802 298.700,333.355 283.038,335.505 264.713 C 337.463 248.026,333.451 229.707,324.591 214.875 C 320.108 207.372,308.578 194.913,302.029 190.498 C 290.664 182.835,275.705 177.512,262.187 176.320 L 256.000 175.775 256.000 256.094 " stroke="none" fill-rule="evenodd" fill="black"></path></svg>