<svg xmlns="http://www.w3.org/2000/svg" viewBox="0 0 512 512"><path d="M235.947 32.121 C 215.118 34.495,202.444 37.042,187.123 41.933 C 153.186 52.767,122.302 71.615,96.959 96.959 C 45.131 148.786,22.286 221.012,34.642 293.973 C 42.175 338.453,64.482 381.147,97.285 413.867 C 143.943 460.406,203.705 483.495,269.227 480.296 C 342.739 476.707,410.943 435.346,449.266 371.115 C 476.276 325.844,486.420 271.351,477.526 219.307 C 466.372 154.047,427.068 97.137,369.379 62.717 C 342.461 46.656,311.652 36.352,279.893 32.788 C 270.499 31.733,243.006 31.316,235.947 32.121 M284.160 82.365 C 320.352 88.214,353.974 105.501,380.237 131.763 C 406.551 158.078,423.301 190.689,429.804 228.267 C 431.881 240.265,431.881 271.735,429.804 283.733 C 425.851 306.578,418.233 327.335,406.833 346.325 C 382.979 386.061,344.436 414.850,299.755 426.304 C 287.068 429.556,271.853 431.787,262.356 431.787 L 256.000 431.787 256.000 384.157 L 256.000 336.527 247.287 335.505 C 236.320 334.218,224.106 330.105,214.875 324.591 C 207.372 320.108,194.913 308.578,190.498 302.029 C 185.641 294.824,180.805 284.143,178.624 275.804 C 175.525 263.949,175.525 248.050,178.625 236.192 C 186.065 207.735,207.939 185.857,236.092 178.715 C 240.591 177.574,245.471 176.636,246.936 176.631 C 248.401 176.625,251.040 176.383,252.800 176.092 L 256.000 175.563 256.000 127.757 L 256.000 79.951 266.027 80.503 C 271.541 80.806,279.701 81.644,284.160 82.365 M256.000 256.094 L 256.000 336.414 262.613 335.796 C 282.244 333.961,298.687 326.125,312.747 311.904 C 325.802 298.700,333.355 283.038,335.505 264.713 C 337.463 248.026,333.451 229.707,324.591 214.875 C 320.108 207.372,308.578 194.913,302.029 190.498 C 290.664 182.835,275.705 177.512,262.187 176.320 L 256.000 175.775 256.000 256.094 " stroke="none" fill-rule="evenodd" fill="black"></path></svg>