<svg xmlns="http://www.w3.org/2000/svg" viewBox="0 0 512 512"><path d="M231.253 33.392 C 214.898 35.057,192.680 40.401,176.511 46.559 C 156.296 54.258,131.841 68.384,114.508 82.373 C 92.069 100.483,71.148 126.126,57.570 152.164 C 42.512 181.038,34.416 210.416,32.447 243.324 C 27.225 330.584,74.485 413.921,152.164 454.430 C 231.416 495.759,326.910 486.355,396.524 430.364 C 473.098 368.774,500.486 263.737,463.793 172.373 C 435.769 102.595,373.381 50.947,299.520 36.379 C 293.653 35.221,284.659 33.859,279.532 33.351 C 268.795 32.286,241.887 32.309,231.253 33.392 M256.000 119.782 L 256.000 175.563 259.200 176.092 C 260.960 176.383,263.599 176.625,265.064 176.631 C 273.397 176.660,291.821 183.582,302.029 190.519 C 307.039 193.923,318.077 204.961,321.481 209.971 C 326.322 217.094,331.185 227.817,333.376 236.196 C 336.475 248.050,336.475 263.950,333.376 275.804 C 331.195 284.143,326.359 294.824,321.502 302.029 C 317.087 308.578,304.628 320.108,297.125 324.591 C 287.894 330.105,275.680 334.218,264.713 335.505 L 256.000 336.527 256.000 392.264 L 256.000 448.000 250.661 448.000 C 243.151 448.000,225.204 445.798,215.300 443.662 C 194.113 439.092,167.693 427.962,150.187 416.232 C 110.018 389.317,80.871 347.986,69.686 302.080 C 65.721 285.806,64.497 274.937,64.497 256.000 C 64.497 224.142,69.969 200.088,83.616 171.947 C 114.684 107.885,179.499 66.058,250.667 64.143 L 256.000 64.000 256.000 119.782 M246.506 176.671 C 234.464 178.078,220.624 183.316,209.971 190.498 C 203.422 194.913,191.892 207.372,187.409 214.875 C 178.549 229.707,174.537 248.026,176.495 264.713 C 178.645 283.038,186.198 298.700,199.253 311.904 C 213.313 326.125,229.756 333.961,249.387 335.796 L 256.000 336.414 256.000 256.100 L 256.000 175.787 254.080 175.899 C 253.024 175.960,249.616 176.308,246.506 176.671 " stroke="none" fill-rule="evenodd" fill="black"></path></svg>