<svg xmlns="http://www.w3.org/2000/svg" width="512" height="512" viewBox="0 0 512 512"><path d="M95.960 33.558 C 88.628 36.383,83.135 42.131,81.122 49.086 C 80.390 51.615,80.204 104.795,80.390 257.707 C 80.636 459.803,80.666 462.985,82.318 466.318 C 84.605 470.931,89.811 475.956,94.593 478.166 L 98.560 480.000 194.133 480.000 L 289.707 480.000 289.922 256.213 L 290.137 32.427 194.348 32.492 C 123.210 32.540,97.891 32.814,95.960 33.558 M350.078 256.184 L 350.293 480.000 381.867 480.000 C 412.371 480.000,413.574 479.938,417.407 478.166 C 422.189 475.956,427.395 470.931,429.682 466.318 C 431.337 462.980,431.360 460.054,431.360 256.000 C 431.360 51.946,431.337 49.020,429.682 45.682 C 427.537 41.357,422.856 36.676,418.532 34.532 C 415.372 32.965,412.969 32.837,382.505 32.611 L 349.863 32.369 350.078 256.184 " stroke="none" fill-rule="evenodd" fill="black"></path></svg>