<svg xmlns="http://www.w3.org/2000/svg" width="512" height="512" viewBox="0 0 512 512"><path d="M130.133 33.679 C 108.599 38.376,90.652 54.645,83.034 76.373 L 80.640 83.200 80.640 256.000 L 80.640 428.800 83.034 435.627 C 86.594 445.782,91.516 453.506,99.346 461.227 C 110.773 472.494,122.329 477.858,138.965 479.616 C 144.083 480.157,174.167 480.395,218.453 480.243 L 289.707 480.000 289.922 256.213 L 290.137 32.427 212.695 32.495 C 152.274 32.547,134.128 32.808,130.133 33.679 M350.078 256.120 L 350.293 480.000 357.547 480.260 C 373.789 480.842,389.429 477.547,400.199 471.275 C 407.616 466.955,418.719 455.866,423.075 448.427 C 424.999 445.141,427.650 439.381,428.966 435.627 L 431.360 428.800 431.360 256.000 L 431.360 83.200 428.966 76.373 C 425.516 66.533,420.475 58.521,413.084 51.129 C 405.650 43.695,397.601 38.650,387.840 35.307 C 381.612 33.174,379.648 32.937,365.438 32.604 L 349.863 32.239 350.078 256.120 " stroke="none" fill-rule="evenodd" fill="black"></path></svg>