<svg xmlns="http://www.w3.org/2000/svg" width="512" height="512" viewBox="0 0 512 512"><path d="M318.408 33.737 C 279.738 39.774,245.840 61.147,224.682 92.833 C 216.885 104.509,209.872 120.073,206.528 133.120 C 202.870 147.396,202.022 156.372,202.497 175.787 C 202.743 185.877,203.322 195.571,203.781 197.327 L 204.618 200.521 191.717 215.674 C 146.714 268.535,65.555 362.927,54.115 375.713 C 37.948 393.782,35.415 397.210,33.564 403.521 C 29.070 418.846,34.784 435.142,49.916 450.151 C 66.095 466.199,83.721 478.430,92.905 479.982 C 95.137 480.359,97.977 480.097,100.913 479.244 C 105.108 478.024,106.730 476.638,121.715 461.467 C 136.254 446.749,138.171 444.473,139.893 439.893 C 142.357 433.340,142.932 423.943,141.421 414.933 C 140.062 406.835,139.445 407.298,148.972 409.268 C 159.262 411.396,169.625 410.665,176.640 407.316 C 187.284 402.234,198.786 390.434,202.553 380.732 C 204.934 374.598,205.178 368.099,203.255 362.027 C 202.326 359.093,201.729 356.693,201.930 356.693 C 202.130 356.693,204.682 357.503,207.600 358.492 C 220.596 362.898,233.594 359.087,245.568 347.361 C 260.100 333.130,262.633 322.543,255.266 306.822 C 253.315 302.658,251.830 299.139,251.968 299.001 C 252.105 298.864,255.852 299.685,260.295 300.825 C 273.670 304.259,281.518 303.282,290.930 297.013 C 293.011 295.627,295.041 294.696,295.442 294.943 C 295.843 295.191,299.516 296.286,303.605 297.376 C 335.146 305.789,370.190 302.693,400.640 288.803 C 427.526 276.538,452.635 252.450,465.877 226.219 C 471.681 214.721,476.714 198.515,478.738 184.804 C 480.113 175.494,479.932 156.504,478.377 146.960 C 471.588 105.270,445.469 69.057,407.852 49.179 C 385.309 37.267,364.920 32.336,338.992 32.524 C 331.597 32.578,322.334 33.124,318.408 33.737 M352.247 64.905 C 376.571 67.562,398.310 77.511,416.106 94.131 C 430.767 107.823,441.515 126.955,445.918 147.200 C 447.951 156.551,447.958 177.051,445.930 186.453 C 440.112 213.430,425.163 235.546,402.221 251.117 C 373.001 270.949,334.551 275.605,301.800 263.277 C 292.106 259.629,288.296 260.260,278.020 267.217 C 275.347 269.026,272.659 270.506,272.047 270.504 C 271.434 270.503,266.380 269.351,260.816 267.944 C 249.480 265.079,244.412 264.787,238.858 266.679 C 233.524 268.496,226.158 274.554,222.404 280.209 C 216.152 289.629,216.238 297.866,222.742 312.697 C 226.708 321.739,226.643 322.246,220.996 326.413 C 218.332 328.378,218.099 328.406,215.138 327.124 C 202.850 321.804,198.498 320.682,191.573 321.049 C 183.576 321.474,179.611 323.203,174.180 328.634 C 164.869 337.945,163.638 348.111,169.926 363.773 L 172.597 370.425 170.665 372.482 C 169.602 373.613,167.227 375.582,165.387 376.857 L 162.042 379.176 153.767 377.581 C 142.488 375.407,134.018 375.526,127.790 377.948 C 120.654 380.721,114.444 386.753,110.976 394.277 C 108.207 400.283,108.167 400.544,108.689 409.049 C 108.981 413.811,109.442 420.011,109.713 422.827 L 110.207 427.947 101.646 436.428 L 93.085 444.910 89.910 442.651 C 83.918 438.388,71.417 427.091,68.168 423.004 C 66.380 420.754,64.670 417.598,64.369 415.991 C 63.841 413.178,64.305 412.522,76.553 398.747 C 92.691 380.597,126.312 341.580,180.072 278.613 C 235.617 213.557,236.330 212.704,237.271 210.229 C 238.432 207.175,238.271 203.045,236.769 197.375 C 234.959 190.543,233.895 170.444,234.746 159.147 C 237.088 128.024,253.267 100.219,279.398 82.407 C 300.276 68.176,325.879 62.025,352.247 64.905 M355.083 97.775 C 340.814 101.613,328.025 113.475,322.848 127.676 C 319.980 135.543,319.302 146.719,321.204 154.783 C 325.294 172.128,339.872 186.706,357.217 190.796 C 365.281 192.698,376.457 192.020,384.324 189.152 C 398.349 184.039,409.421 172.350,413.960 157.867 C 416.195 150.738,416.381 139.093,414.384 131.417 C 410.283 115.657,396.490 101.929,380.475 97.666 C 374.635 96.112,361.051 96.170,355.083 97.775 M372.131 128.570 C 373.904 128.925,376.499 130.658,378.995 133.154 C 382.246 136.405,383.124 137.935,383.614 141.202 C 385.182 151.657,377.892 159.945,367.270 159.784 C 362.857 159.718,359.420 157.973,355.979 154.055 C 352.743 150.369,352.105 148.108,352.603 142.102 C 353.406 132.415,361.906 126.525,372.131 128.570 " stroke="none" fill-rule="evenodd" fill="black"></path></svg>