<svg xmlns="http://www.w3.org/2000/svg" width="512" height="512" viewBox="0 0 512 512"><path d="M328.433 48.680 C 307.529 50.542,287.899 57.464,270.080 69.256 C 260.007 75.922,244.612 91.558,237.732 102.110 C 229.215 115.174,222.807 130.730,220.213 144.640 C 217.370 159.887,217.572 186.880,220.620 199.013 L 222.061 204.746 214.924 213.085 C 180.713 253.059,60.010 393.176,56.620 396.852 L 54.604 399.037 56.049 417.225 L 57.495 435.413 65.654 442.681 C 82.177 457.399,93.908 465.192,96.980 463.492 C 97.849 463.011,103.922 457.226,110.476 450.635 L 122.392 438.652 126.015 417.192 C 128.007 405.389,129.828 395.541,130.060 395.309 C 130.293 395.076,140.772 394.124,153.348 393.193 C 165.924 392.262,176.356 391.366,176.531 391.202 C 176.705 391.037,177.672 380.735,178.680 368.307 C 179.687 355.879,180.715 345.507,180.965 345.257 C 181.214 345.008,192.439 344.538,205.909 344.213 L 230.400 343.622 230.400 318.474 L 230.400 293.327 237.867 293.849 C 241.973 294.137,253.013 294.592,262.400 294.860 C 271.787 295.129,280.305 295.520,281.329 295.729 C 282.965 296.064,283.731 294.971,287.649 286.722 C 290.101 281.558,292.260 277.333,292.446 277.333 C 292.633 277.333,296.701 278.638,301.486 280.233 C 313.660 284.290,324.312 285.909,338.880 285.914 C 366.940 285.926,388.705 279.480,411.367 264.445 C 421.548 257.691,437.260 242.052,443.856 232.107 C 483.211 172.769,462.968 95.998,399.191 62.721 C 383.137 54.344,369.162 50.302,350.561 48.656 C 339.999 47.721,339.186 47.722,328.433 48.680 M374.187 105.802 C 394.727 109.139,409.320 129.140,406.212 149.696 C 402.201 176.229,373.749 190.509,349.503 178.158 C 344.747 175.736,337.460 168.579,334.563 163.486 C 328.185 152.273,327.642 139.046,333.088 127.577 C 339.423 114.238,352.097 105.913,367.360 105.065 C 368.299 105.013,371.371 105.344,374.187 105.802 " stroke="none" fill-rule="evenodd" fill="black"></path></svg>