<svg xmlns="http://www.w3.org/2000/svg" width="512" height="512" viewBox="0 0 512 512"><path d="M328.433 48.680 C 307.543 50.541,287.953 57.445,270.080 69.245 C 261.460 74.937,244.120 92.199,238.491 100.693 C 230.008 113.492,222.835 130.714,220.187 144.640 C 217.372 159.436,217.591 186.954,220.618 199.003 L 222.056 204.727 205.127 224.603 C 128.122 315.016,69.629 382.929,57.328 396.207 C 51.592 402.398,50.118 404.575,48.950 408.580 C 47.775 412.607,47.697 414.227,48.492 418.033 C 50.198 426.205,52.659 430.011,62.633 439.903 C 77.179 454.329,92.386 465.069,96.443 463.782 C 98.861 463.014,123.834 436.874,125.144 433.739 C 126.586 430.287,126.565 423.310,125.083 413.542 C 123.421 402.597,125.679 396.451,132.498 393.356 C 137.099 391.267,140.012 391.280,151.040 393.440 C 164.975 396.168,170.161 394.732,179.803 385.473 C 185.586 379.920,188.587 374.795,188.587 370.472 C 188.587 368.960,187.294 364.375,185.714 360.283 C 184.133 356.191,182.567 351.599,182.233 350.078 C 181.034 344.617,184.631 338.691,190.096 337.123 C 193.577 336.125,197.945 337.172,207.715 341.346 C 212.092 343.216,216.814 344.747,218.207 344.747 C 225.134 344.747,238.719 333.946,242.476 325.452 C 244.295 321.341,244.102 320.554,238.133 307.768 C 232.261 295.188,232.589 290.946,239.918 284.672 C 244.529 280.725,246.647 280.719,261.693 284.609 C 275.372 288.146,275.694 288.100,285.865 281.175 C 290.138 278.265,292.858 276.926,293.633 277.352 C 297.111 279.261,311.289 283.315,318.986 284.602 C 330.030 286.448,355.195 285.975,365.227 283.733 C 391.306 277.903,411.236 267.218,428.834 249.629 C 446.499 231.974,456.588 213.473,461.801 189.174 C 464.450 176.830,464.417 156.885,461.729 144.214 C 454.237 108.907,431.885 79.780,399.191 62.721 C 383.137 54.344,369.162 50.302,350.561 48.656 C 339.999 47.721,339.186 47.722,328.433 48.680 M381.119 115.173 C 388.466 118.542,392.847 122.830,396.504 130.229 C 399.321 135.928,399.613 137.181,399.614 143.566 C 399.615 151.677,397.755 157.477,393.288 163.296 C 386.546 172.078,377.570 176.184,366.375 175.607 C 353.995 174.968,344.268 168.393,338.867 157.013 C 336.919 152.907,336.644 151.252,336.668 143.787 C 336.695 135.932,336.908 134.846,339.352 130.133 C 347.551 114.321,365.356 107.944,381.119 115.173 " stroke="none" fill-rule="evenodd" fill="black"></path></svg>