<svg xmlns="http://www.w3.org/2000/svg" width="512" height="512" viewBox="0 0 512 512"><path d="M118.187 17.027 C 96.018 21.831,80.213 41.382,80.213 64.000 C 80.213 77.119,84.883 88.300,94.291 97.709 C 113.253 116.671,142.747 116.671,161.709 97.709 C 186.540 72.878,177.482 31.605,144.452 19.083 C 138.094 16.672,124.673 15.621,118.187 17.027 M246.187 17.027 C 224.018 21.831,208.213 41.382,208.213 64.000 C 208.213 77.119,212.883 88.300,222.291 97.709 C 241.253 116.671,270.747 116.671,289.709 97.709 C 314.540 72.878,305.482 31.605,272.452 19.083 C 266.094 16.672,252.673 15.621,246.187 17.027 M374.187 17.027 C 352.018 21.831,336.213 41.382,336.213 64.000 C 336.213 77.119,340.883 88.300,350.291 97.709 C 369.253 116.671,398.747 116.671,417.709 97.709 C 442.540 72.878,433.482 31.605,400.452 19.083 C 394.094 16.672,380.673 15.621,374.187 17.027 M118.187 145.027 C 96.018 149.831,80.213 169.382,80.213 192.000 C 80.213 205.119,84.883 216.300,94.291 225.709 C 113.253 244.671,142.747 244.671,161.709 225.709 C 186.540 200.878,177.482 159.605,144.452 147.083 C 138.094 144.672,124.673 143.621,118.187 145.027 M246.187 145.027 C 224.018 149.831,208.213 169.382,208.213 192.000 C 208.213 205.119,212.883 216.300,222.291 225.709 C 241.253 244.671,270.747 244.671,289.709 225.709 C 314.540 200.878,305.482 159.605,272.452 147.083 C 266.094 144.672,252.673 143.621,246.187 145.027 M374.187 145.027 C 352.018 149.831,336.213 169.382,336.213 192.000 C 336.213 205.119,340.883 216.300,350.291 225.709 C 369.253 244.671,398.747 244.671,417.709 225.709 C 442.540 200.878,433.482 159.605,400.452 147.083 C 394.094 144.672,380.673 143.621,374.187 145.027 M118.187 273.027 C 96.018 277.831,80.213 297.382,80.213 320.000 C 80.213 333.119,84.883 344.300,94.291 353.709 C 113.253 372.671,142.747 372.671,161.709 353.709 C 186.540 328.878,177.482 287.605,144.452 275.083 C 138.094 272.672,124.673 271.621,118.187 273.027 M246.187 273.027 C 224.018 277.831,208.213 297.382,208.213 320.000 C 208.213 333.119,212.883 344.300,222.291 353.709 C 241.253 372.671,270.747 372.671,289.709 353.709 C 314.540 328.878,305.482 287.605,272.452 275.083 C 266.094 272.672,252.673 271.621,246.187 273.027 M374.187 273.027 C 352.018 277.831,336.213 297.382,336.213 320.000 C 336.213 333.119,340.883 344.300,350.291 353.709 C 369.253 372.671,398.747 372.671,417.709 353.709 C 442.540 328.878,433.482 287.605,400.452 275.083 C 394.094 272.672,380.673 271.621,374.187 273.027 M246.187 401.027 C 215.153 407.753,199.268 441.424,213.560 470.187 C 217.236 477.585,226.415 486.764,233.813 490.440 C 253.209 500.077,274.697 496.720,289.709 481.709 C 314.540 456.878,305.482 415.605,272.452 403.083 C 266.094 400.672,252.673 399.621,246.187 401.027 " stroke="none" fill-rule="evenodd" fill="black"></path></svg>