<svg xmlns="http://www.w3.org/2000/svg" width="512" height="512" viewBox="0 0 512 512"><path d="M82.839 18.423 L 80.213 20.632 80.213 63.916 L 80.213 107.201 82.607 109.494 L 85.000 111.787 128.100 111.787 L 171.201 111.787 173.494 109.393 L 175.787 107.000 175.787 63.816 L 175.787 20.632 173.161 18.423 L 170.536 16.213 128.000 16.213 L 85.464 16.213 82.839 18.423 M210.839 18.423 L 208.213 20.632 208.213 63.916 L 208.213 107.201 210.607 109.494 L 213.000 111.787 256.100 111.787 L 299.201 111.787 301.494 109.393 L 303.787 107.000 303.787 63.816 L 303.787 20.632 301.161 18.423 L 298.536 16.213 256.000 16.213 L 213.464 16.213 210.839 18.423 M338.839 18.423 L 336.213 20.632 336.213 63.916 L 336.213 107.201 338.607 109.494 L 341.000 111.787 384.100 111.787 L 427.201 111.787 429.494 109.393 L 431.787 107.000 431.787 63.816 L 431.787 20.632 429.161 18.423 L 426.536 16.213 384.000 16.213 L 341.464 16.213 338.839 18.423 M82.839 146.423 L 80.213 148.632 80.213 191.916 L 80.213 235.201 82.607 237.494 L 85.000 239.787 128.100 239.787 L 171.201 239.787 173.494 237.393 L 175.787 235.000 175.787 191.816 L 175.787 148.632 173.161 146.423 L 170.536 144.213 128.000 144.213 L 85.464 144.213 82.839 146.423 M210.839 146.423 L 208.213 148.632 208.213 191.916 L 208.213 235.201 210.607 237.494 L 213.000 239.787 256.100 239.787 L 299.201 239.787 301.494 237.393 L 303.787 235.000 303.787 191.816 L 303.787 148.632 301.161 146.423 L 298.536 144.213 256.000 144.213 L 213.464 144.213 210.839 146.423 M338.839 146.423 L 336.213 148.632 336.213 191.916 L 336.213 235.201 338.607 237.494 L 341.000 239.787 384.100 239.787 L 427.201 239.787 429.494 237.393 L 431.787 235.000 431.787 191.816 L 431.787 148.632 429.161 146.423 L 426.536 144.213 384.000 144.213 L 341.464 144.213 338.839 146.423 M82.839 274.423 L 80.213 276.632 80.213 319.916 L 80.213 363.201 82.607 365.494 L 85.000 367.787 128.100 367.787 L 171.201 367.787 173.494 365.393 L 175.787 363.000 175.787 319.816 L 175.787 276.632 173.161 274.423 L 170.536 272.213 128.000 272.213 L 85.464 272.213 82.839 274.423 M210.839 274.423 L 208.213 276.632 208.213 319.916 L 208.213 363.201 210.607 365.494 L 213.000 367.787 256.100 367.787 L 299.201 367.787 301.494 365.393 L 303.787 363.000 303.787 319.816 L 303.787 276.632 301.161 274.423 L 298.536 272.213 256.000 272.213 L 213.464 272.213 210.839 274.423 M338.839 274.423 L 336.213 276.632 336.213 319.916 L 336.213 363.201 338.607 365.494 L 341.000 367.787 384.100 367.787 L 427.201 367.787 429.494 365.393 L 431.787 363.000 431.787 319.816 L 431.787 276.632 429.161 274.423 L 426.536 272.213 384.000 272.213 L 341.464 272.213 338.839 274.423 M210.839 402.423 L 208.213 404.632 208.213 447.916 L 208.213 491.201 210.607 493.494 L 213.000 495.787 256.100 495.787 L 299.201 495.787 301.494 493.393 L 303.787 491.000 303.787 447.816 L 303.787 404.632 301.161 402.423 L 298.536 400.213 256.000 400.213 L 213.464 400.213 210.839 402.423 " stroke="none" fill="black" fill-rule="evenodd"></path></svg>