<svg xmlns="http://www.w3.org/2000/svg" width="512" height="512" viewBox="0 0 512 512"><path d="M115.741 17.567 C 108.067 19.425,100.907 23.671,94.289 30.289 C 84.558 40.019,80.213 50.426,80.213 64.000 C 80.213 77.574,84.558 87.981,94.289 97.711 C 104.019 107.442,114.426 111.787,128.000 111.787 C 141.574 111.787,151.981 107.442,161.711 97.711 C 171.442 87.981,175.787 77.574,175.787 64.000 C 175.787 50.426,171.442 40.019,161.711 30.289 C 154.951 23.529,147.932 19.428,139.867 17.527 C 133.125 15.938,122.399 15.956,115.741 17.567 M243.741 17.567 C 236.067 19.425,228.907 23.671,222.289 30.289 C 212.558 40.019,208.213 50.426,208.213 64.000 C 208.213 77.574,212.558 87.981,222.289 97.711 C 232.019 107.442,242.426 111.787,256.000 111.787 C 269.574 111.787,279.981 107.442,289.711 97.711 C 299.442 87.981,303.787 77.574,303.787 64.000 C 303.787 50.426,299.442 40.019,289.711 30.289 C 282.951 23.529,275.932 19.428,267.867 17.527 C 261.125 15.938,250.399 15.956,243.741 17.567 M371.741 17.567 C 364.067 19.425,356.907 23.671,350.289 30.289 C 340.558 40.019,336.213 50.426,336.213 64.000 C 336.213 77.574,340.558 87.981,350.289 97.711 C 360.019 107.442,370.426 111.787,384.000 111.787 C 397.574 111.787,407.981 107.442,417.711 97.711 C 427.442 87.981,431.787 77.574,431.787 64.000 C 431.787 50.426,427.442 40.019,417.711 30.289 C 410.951 23.529,403.932 19.428,395.867 17.527 C 389.125 15.938,378.399 15.956,371.741 17.567 M135.680 49.940 C 140.801 52.575,143.646 57.600,143.640 63.996 C 143.633 71.692,139.322 77.460,132.132 79.396 C 120.911 82.418,110.528 72.850,112.363 61.180 C 113.993 50.812,126.067 44.992,135.680 49.940 M263.680 49.940 C 268.801 52.575,271.646 57.600,271.640 63.996 C 271.633 71.692,267.322 77.460,260.132 79.396 C 248.911 82.418,238.528 72.850,240.363 61.180 C 241.993 50.812,254.067 44.992,263.680 49.940 M391.680 49.940 C 396.801 52.575,399.646 57.600,399.640 63.996 C 399.633 71.692,395.322 77.460,388.132 79.396 C 376.911 82.418,366.528 72.850,368.363 61.180 C 369.993 50.812,382.067 44.992,391.680 49.940 M115.741 145.567 C 108.067 147.425,100.907 151.671,94.289 158.289 C 84.558 168.019,80.213 178.426,80.213 192.000 C 80.213 205.574,84.558 215.981,94.289 225.711 C 104.019 235.442,114.426 239.787,128.000 239.787 C 141.574 239.787,151.981 235.442,161.711 225.711 C 171.442 215.981,175.787 205.574,175.787 192.000 C 175.787 178.426,171.442 168.019,161.711 158.289 C 154.951 151.529,147.932 147.428,139.867 145.527 C 133.125 143.938,122.399 143.956,115.741 145.567 M243.741 145.567 C 236.067 147.425,228.907 151.671,222.289 158.289 C 212.558 168.019,208.213 178.426,208.213 192.000 C 208.213 205.574,212.558 215.981,222.289 225.711 C 232.019 235.442,242.426 239.787,256.000 239.787 C 269.574 239.787,279.981 235.442,289.711 225.711 C 299.442 215.981,303.787 205.574,303.787 192.000 C 303.787 178.426,299.442 168.019,289.711 158.289 C 282.951 151.529,275.932 147.428,267.867 145.527 C 261.125 143.938,250.399 143.956,243.741 145.567 M371.741 145.567 C 364.067 147.425,356.907 151.671,350.289 158.289 C 340.558 168.019,336.213 178.426,336.213 192.000 C 336.213 205.574,340.558 215.981,350.289 225.711 C 360.019 235.442,370.426 239.787,384.000 239.787 C 397.574 239.787,407.981 235.442,417.711 225.711 C 427.442 215.981,431.787 205.574,431.787 192.000 C 431.787 178.426,427.442 168.019,417.711 158.289 C 410.951 151.529,403.932 147.428,395.867 145.527 C 389.125 143.938,378.399 143.956,371.741 145.567 M135.680 177.940 C 140.801 180.575,143.646 185.600,143.640 191.996 C 143.633 199.692,139.322 205.460,132.132 207.396 C 120.911 210.418,110.528 200.850,112.363 189.180 C 113.993 178.812,126.067 172.992,135.680 177.940 M263.680 177.940 C 268.801 180.575,271.646 185.600,271.640 191.996 C 271.633 199.692,267.322 205.460,260.132 207.396 C 248.911 210.418,238.528 200.850,240.363 189.180 C 241.993 178.812,254.067 172.992,263.680 177.940 M391.680 177.940 C 396.801 180.575,399.646 185.600,399.640 191.996 C 399.633 199.692,395.322 205.460,388.132 207.396 C 376.911 210.418,366.528 200.850,368.363 189.180 C 369.993 178.812,382.067 172.992,391.680 177.940 M115.741 273.567 C 108.067 275.425,100.907 279.671,94.289 286.289 C 84.558 296.019,80.213 306.426,80.213 320.000 C 80.213 333.574,84.558 343.981,94.289 353.711 C 104.019 363.442,114.426 367.787,128.000 367.787 C 141.574 367.787,151.981 363.442,161.711 353.711 C 171.442 343.981,175.787 333.574,175.787 320.000 C 175.787 306.426,171.442 296.019,161.711 286.289 C 154.951 279.529,147.932 275.428,139.867 273.527 C 133.125 271.938,122.399 271.956,115.741 273.567 M243.741 273.567 C 236.067 275.425,228.907 279.671,222.289 286.289 C 212.558 296.019,208.213 306.426,208.213 320.000 C 208.213 333.574,212.558 343.981,222.289 353.711 C 232.019 363.442,242.426 367.787,256.000 367.787 C 269.574 367.787,279.981 363.442,289.711 353.711 C 299.442 343.981,303.787 333.574,303.787 320.000 C 303.787 306.426,299.442 296.019,289.711 286.289 C 282.951 279.529,275.932 275.428,267.867 273.527 C 261.125 271.938,250.399 271.956,243.741 273.567 M371.741 273.567 C 364.067 275.425,356.907 279.671,350.289 286.289 C 340.558 296.019,336.213 306.426,336.213 320.000 C 336.213 333.574,340.558 343.981,350.289 353.711 C 360.019 363.442,370.426 367.787,384.000 367.787 C 397.574 367.787,407.981 363.442,417.711 353.711 C 427.442 343.981,431.787 333.574,431.787 320.000 C 431.787 306.426,427.442 296.019,417.711 286.289 C 410.951 279.529,403.932 275.428,395.867 273.527 C 389.125 271.938,378.399 271.956,371.741 273.567 M135.680 305.940 C 140.801 308.575,143.646 313.600,143.640 319.996 C 143.633 327.692,139.322 333.460,132.132 335.396 C 120.911 338.418,110.528 328.850,112.363 317.180 C 113.993 306.812,126.067 300.992,135.680 305.940 M263.680 305.940 C 268.801 308.575,271.646 313.600,271.640 319.996 C 271.633 327.692,267.322 333.460,260.132 335.396 C 248.911 338.418,238.528 328.850,240.363 317.180 C 241.993 306.812,254.067 300.992,263.680 305.940 M391.680 305.940 C 396.801 308.575,399.646 313.600,399.640 319.996 C 399.633 327.692,395.322 333.460,388.132 335.396 C 376.911 338.418,366.528 328.850,368.363 317.180 C 369.993 306.812,382.067 300.992,391.680 305.940 M243.741 401.567 C 236.067 403.425,228.907 407.671,222.289 414.289 C 212.558 424.019,208.213 434.426,208.213 448.000 C 208.213 461.574,212.558 471.981,222.289 481.711 C 232.019 491.442,242.426 495.787,256.000 495.787 C 269.574 495.787,279.981 491.442,289.711 481.711 C 299.442 471.981,303.787 461.574,303.787 448.000 C 303.787 434.426,299.442 424.019,289.711 414.289 C 282.951 407.529,275.932 403.428,267.867 401.527 C 261.125 399.938,250.399 399.956,243.741 401.567 M263.680 433.940 C 268.801 436.575,271.646 441.600,271.640 447.996 C 271.633 455.692,267.322 461.460,260.132 463.396 C 248.911 466.418,238.528 456.850,240.363 445.180 C 241.993 434.812,254.067 428.992,263.680 433.940 " stroke="none" fill-rule="evenodd" fill="black"></path></svg>