<svg xmlns="http://www.w3.org/2000/svg" width="512" height="512" viewBox="0 0 512 512"><path d="M169.813 69.120 L 169.813 90.453 100.693 90.453 L 31.573 90.453 31.573 112.213 L 31.573 133.973 141.227 133.973 C 201.536 133.973,250.880 134.273,250.880 134.640 C 250.880 135.821,241.835 158.828,237.220 169.387 C 227.493 191.638,212.425 219.879,201.824 235.726 L 197.405 242.332 191.415 234.020 C 175.423 211.823,163.673 192.643,151.505 168.873 L 142.904 152.070 131.825 158.487 C 125.732 162.016,117.192 166.983,112.847 169.524 L 104.946 174.144 113.006 190.112 C 126.084 216.023,140.815 239.749,159.260 264.606 C 164.266 271.352,168.400 277.326,168.447 277.882 C 168.594 279.601,147.887 301.716,133.973 314.701 C 116.028 331.449,101.804 342.732,81.289 356.494 L 64.018 368.080 65.502 370.378 C 66.319 371.642,71.403 379.637,76.800 388.146 C 82.197 396.654,86.897 403.618,87.243 403.621 C 88.313 403.631,111.811 389.138,119.467 383.747 C 141.328 368.351,169.464 343.156,191.916 318.870 L 198.089 312.193 211.471 325.270 C 229.968 343.344,249.858 360.037,254.207 361.136 C 254.789 361.282,258.700 352.801,263.621 340.727 L 272.041 320.067 267.220 316.126 C 258.680 309.143,239.052 290.753,232.871 283.944 L 226.865 277.327 236.673 262.610 C 259.755 227.974,277.945 190.935,292.721 148.480 L 297.622 134.400 325.024 134.175 L 352.427 133.950 352.427 112.202 L 352.427 90.453 283.307 90.453 L 214.187 90.453 214.187 69.120 L 214.187 47.787 192.000 47.787 L 169.813 47.787 169.813 69.120 M361.975 178.347 C 361.528 179.520,335.389 243.920,303.888 321.458 C 272.387 398.996,246.613 462.836,246.613 463.325 C 246.613 463.919,254.331 464.213,269.896 464.213 L 293.179 464.213 305.431 435.200 L 317.682 406.187 363.035 406.187 L 408.387 406.187 414.196 420.053 C 417.391 427.680,422.895 440.736,426.426 449.067 L 432.847 464.213 456.310 464.213 C 478.244 464.213,479.745 464.116,479.359 462.720 C 478.840 460.848,364.436 179.242,363.484 177.493 C 362.925 176.468,362.625 176.637,361.975 178.347 M376.273 320.710 C 383.339 342.428,389.120 360.561,389.120 361.005 C 389.120 361.496,378.767 361.813,362.729 361.813 L 336.337 361.813 339.213 353.067 C 340.795 348.256,346.750 329.982,352.445 312.458 C 358.141 294.934,362.942 280.737,363.114 280.909 C 363.286 281.081,369.208 298.992,376.273 320.710 " stroke="none" fill-rule="evenodd" fill="black"></path></svg>