<svg xmlns="http://www.w3.org/2000/svg" width="512" height="512" viewBox="0 0 512 512"><path d="M188.160 48.561 C 182.480 49.972,178.199 54.068,176.678 59.546 C 176.193 61.292,175.794 70.304,175.791 79.573 L 175.787 96.427 109.611 96.427 C 53.494 96.427,43.072 96.615,41.044 97.663 C 37.802 99.340,33.418 104.472,32.794 107.322 C 32.514 108.604,32.142 110.118,31.968 110.687 C 31.355 112.694,33.928 120.419,35.937 122.601 C 37.057 123.817,39.509 125.521,41.387 126.387 C 44.647 127.892,49.605 127.963,152.107 127.981 C 216.802 127.993,259.413 128.312,259.413 128.785 C 259.413 129.216,257.066 135.828,254.197 143.476 C 240.226 180.730,223.529 213.981,204.281 242.884 L 197.760 252.677 188.372 240.045 C 176.497 224.066,158.366 196.712,149.738 181.760 C 139.962 164.817,139.400 164.031,135.713 162.150 C 129.011 158.731,119.255 160.660,115.390 166.167 C 112.836 169.807,111.578 174.587,112.202 178.280 C 113.731 187.332,146.612 238.905,169.843 268.689 C 173.639 273.555,176.566 277.971,176.348 278.502 C 175.427 280.749,155.446 301.777,142.877 313.729 C 121.330 334.218,96.780 354.120,77.927 366.383 C 68.535 372.492,67.186 373.761,65.313 378.244 C 60.474 389.823,71.506 402.606,83.589 399.421 C 93.255 396.874,131.279 368.323,158.264 343.350 C 168.113 334.237,185.451 316.788,193.918 307.468 L 197.939 303.044 214.809 319.884 C 235.569 340.606,246.866 350.151,252.227 351.501 C 262.229 354.020,271.872 346.249,271.728 335.787 C 271.643 329.653,269.891 327.048,260.511 319.115 C 251.475 311.474,219.307 279.491,219.307 278.149 C 219.307 277.698,222.750 272.434,226.958 266.451 C 250.543 232.918,272.071 189.672,288.020 143.787 L 293.359 128.427 317.133 128.000 C 342.803 127.539,343.541 127.410,348.063 122.569 C 350.069 120.422,352.647 112.701,352.032 110.687 C 351.858 110.118,351.486 108.604,351.206 107.322 C 350.577 104.450,346.190 99.336,342.893 97.631 C 340.784 96.540,331.183 96.365,274.327 96.378 L 208.213 96.394 208.209 79.557 C 208.203 61.428,207.646 57.805,204.239 53.756 C 200.483 49.292,193.846 47.148,188.160 48.561 M360.960 209.876 C 359.317 210.749,357.135 212.364,356.110 213.465 C 353.735 216.017,256.792 442.126,256.209 446.475 C 255.269 453.480,260.684 461.285,268.006 463.479 C 272.117 464.710,277.696 463.580,281.747 460.695 C 284.866 458.474,285.905 456.370,299.080 425.600 L 309.950 400.213 368.095 400.231 L 426.240 400.248 438.130 428.177 C 451.108 458.659,452.733 461.300,459.828 463.425 C 466.671 465.475,474.660 461.966,477.984 455.449 C 481.783 448.004,484.031 454.004,431.379 331.041 C 404.765 268.883,382.090 216.633,380.991 214.930 C 377.100 208.900,367.401 206.453,360.960 209.876 M390.286 316.606 L 412.037 367.360 368.444 367.581 C 344.468 367.703,324.691 367.643,324.496 367.447 C 324.211 367.162,366.090 268.447,367.548 265.970 C 367.773 265.587,368.088 265.403,368.247 265.562 C 368.406 265.721,378.324 288.691,390.286 316.606 " stroke="none" fill-rule="evenodd" fill="black"></path></svg>