<svg xmlns="http://www.w3.org/2000/svg" width="512" height="512" viewBox="0 0 512 512"><path d="M187.307 48.547 C 182.693 49.748,177.706 52.799,174.991 56.082 C 170.955 60.962,169.813 66.035,169.813 79.088 L 169.813 90.453 109.199 90.453 C 42.151 90.453,45.846 90.154,39.211 96.130 C 27.109 107.032,31.316 127.385,46.758 132.647 C 50.192 133.817,62.459 133.973,150.765 133.973 C 205.828 133.973,250.880 134.273,250.880 134.640 C 250.880 135.821,241.835 158.828,237.220 169.387 C 227.487 191.654,212.425 219.879,201.807 235.752 L 197.370 242.384 188.412 229.779 C 174.914 210.786,164.004 193.060,155.762 176.735 C 149.991 165.306,143.527 160.475,133.973 160.454 C 121.212 160.425,110.350 172.618,112.192 184.902 C 113.778 195.481,137.049 234.906,159.259 264.643 C 164.190 271.246,168.426 277.171,168.671 277.811 C 169.284 279.408,132.933 315.622,119.506 326.790 C 105.733 338.245,91.572 348.752,81.224 355.192 C 67.056 364.010,64.466 367.539,64.466 378.027 C 64.466 385.697,66.331 389.890,71.841 394.606 C 78.633 400.420,87.986 401.521,95.980 397.448 C 117.696 386.383,155.270 356.085,184.613 325.975 L 198.075 312.162 209.757 323.577 C 224.080 337.570,236.371 347.877,241.373 350.090 C 250.555 354.152,262.245 350.885,267.722 342.728 C 275.587 331.014,273.184 321.022,259.798 309.776 C 250.969 302.359,231.000 283.130,228.540 279.677 L 226.866 277.326 236.673 262.610 C 259.756 227.972,277.953 190.918,292.720 148.480 L 297.620 134.400 316.703 133.973 C 334.489 133.576,336.061 133.412,339.820 131.560 C 353.396 124.874,356.009 106.238,344.789 96.130 C 338.154 90.154,341.849 90.453,274.801 90.453 L 214.187 90.453 214.187 79.088 C 214.187 66.032,213.045 60.962,209.005 56.077 C 204.213 50.283,194.107 46.776,187.307 48.547 M358.779 204.219 C 356.406 205.350,353.142 207.827,351.526 209.725 C 349.229 212.422,338.512 237.588,302.507 324.828 C 256.446 436.433,256.427 436.483,256.460 442.453 C 256.485 446.854,256.971 449.326,258.305 451.840 C 260.424 455.831,264.671 460.033,268.572 461.999 C 277.276 466.384,289.835 463.290,295.474 455.371 C 296.480 453.957,301.614 442.409,306.882 429.707 L 316.459 406.613 367.936 406.398 L 419.413 406.182 427.885 426.878 C 438.524 452.868,439.423 454.671,443.632 458.473 C 455.649 469.330,475.084 463.106,479.244 447.068 C 480.022 444.068,480.130 441.553,479.599 438.768 C 479.180 436.571,458.171 384.706,432.912 323.512 C 383.370 203.490,385.588 208.264,377.563 204.382 C 372.206 201.791,364.026 201.720,358.779 204.219 M385.220 323.413 L 400.890 361.387 368.420 361.610 C 350.561 361.733,335.786 361.671,335.587 361.471 C 335.277 361.161,366.251 285.185,367.605 282.932 C 368.196 281.949,366.523 278.106,385.220 323.413 " stroke="none" fill-rule="evenodd" fill="black"></path></svg>