<svg xmlns="http://www.w3.org/2000/svg" width="512" height="512" viewBox="0 0 512 512"><path d="M70.400 81.075 C 53.488 84.475,39.316 97.554,33.884 114.773 L 32.000 120.747 32.000 247.893 C 32.000 368.827,32.077 375.288,33.566 380.115 C 35.517 386.437,39.293 393.995,42.264 397.526 L 44.525 400.213 28.505 400.213 C 13.925 400.213,12.150 400.376,8.746 402.023 C 3.204 404.706,0.427 409.372,0.427 416.000 C 0.427 422.628,3.204 427.294,8.746 429.977 L 12.486 431.787 256.000 431.787 L 499.514 431.787 503.254 429.977 C 508.796 427.294,511.573 422.628,511.573 416.000 C 511.573 409.372,508.796 404.706,503.254 402.023 C 499.850 400.376,498.075 400.213,483.495 400.213 L 467.475 400.213 469.736 397.526 C 472.707 393.995,476.483 386.437,478.434 380.115 C 479.923 375.288,480.000 368.827,480.000 247.893 L 480.000 120.747 478.116 114.773 C 473.414 99.867,462.767 88.561,448.013 82.808 L 442.453 80.640 258.133 80.514 C 156.757 80.445,72.277 80.698,70.400 81.075 " stroke="none" fill-rule="evenodd" fill="black"></path></svg>