<svg xmlns="http://www.w3.org/2000/svg" width="512" height="512" viewBox="0 0 512 512"><path d="M50.522 81.830 C 42.845 84.481,35.873 91.628,33.099 99.689 C 32.249 102.160,31.970 133.109,31.784 245.287 C 31.562 379.668,31.711 391.046,33.783 398.293 L 34.332 400.213 17.166 400.213 L 0.000 400.213 0.000 416.000 L 0.000 431.787 256.000 431.787 L 512.000 431.787 512.000 416.000 L 512.000 400.213 494.834 400.213 L 477.668 400.213 478.217 398.293 C 480.295 391.025,480.443 379.757,480.216 245.274 C 480.027 133.300,479.745 102.155,478.898 99.689 C 477.259 94.914,472.738 88.694,468.656 85.597 C 461.021 79.805,477.154 80.210,255.632 80.241 C 63.550 80.268,54.848 80.335,50.522 81.830 " stroke="none" fill-rule="evenodd" fill="black"></path></svg>