<svg xmlns="http://www.w3.org/2000/svg" width="512" height="512" viewBox="0 0 512 512"><path d="M67.954 81.567 C 57.525 84.092,46.134 92.306,39.771 101.892 C 38.116 104.385,35.691 109.456,34.381 113.159 L 32.000 119.893 32.000 247.040 C 32.000 383.441,31.829 377.800,36.259 387.840 C 37.295 390.187,39.541 393.931,41.252 396.160 L 44.362 400.213 28.424 400.213 C 13.926 400.213,12.148 400.377,8.746 402.023 C 3.204 404.706,0.427 409.372,0.427 416.000 C 0.427 422.628,3.204 427.294,8.746 429.977 L 12.486 431.787 256.000 431.787 L 499.514 431.787 503.254 429.977 C 508.796 427.294,511.573 422.628,511.573 416.000 C 511.573 409.372,508.796 404.706,503.254 402.023 C 499.852 400.377,498.074 400.213,483.576 400.213 L 467.638 400.213 470.748 396.160 C 472.459 393.931,474.705 390.187,475.741 387.840 C 480.171 377.800,480.000 383.441,480.000 247.040 L 480.000 119.893 477.619 113.159 C 473.390 101.200,464.994 91.271,454.288 85.568 C 443.607 79.879,456.950 80.233,255.573 80.297 C 100.897 80.347,72.194 80.541,67.954 81.567 M439.040 113.626 C 442.525 115.548,445.102 118.448,446.679 122.224 C 447.851 125.028,448.000 139.270,448.000 248.112 L 448.000 370.838 446.080 374.596 C 445.024 376.663,442.684 379.529,440.881 380.964 L 437.602 383.573 259.121 383.823 C 160.956 383.960,78.992 383.838,76.977 383.552 C 72.509 382.917,67.794 379.041,65.591 374.194 C 64.111 370.936,64.037 364.927,64.037 247.893 C 64.037 130.500,64.107 124.859,65.604 121.565 C 67.406 117.598,71.632 113.720,74.946 112.992 C 76.200 112.716,77.611 112.360,78.080 112.201 C 78.549 112.042,159.381 111.979,257.707 112.062 C 422.283 112.201,436.683 112.325,439.040 113.626 " stroke="none" fill="black" fill-rule="evenodd"></path></svg>