<svg xmlns="http://www.w3.org/2000/svg" width="512" height="512" viewBox="0 0 512 512"><path d="M246.187 48.679 C 238.803 49.291,230.245 51.058,224.853 53.083 C 223.445 53.612,187.349 69.960,144.640 89.413 C 93.706 112.611,65.203 126.047,61.803 128.460 C 51.214 135.976,46.519 146.205,48.701 157.008 C 49.951 163.199,52.584 167.600,58.234 172.944 C 63.630 178.047,65.181 178.864,96.853 193.278 C 109.995 199.258,120.826 204.217,120.923 204.297 C 121.021 204.377,108.756 209.983,93.669 216.756 C 65.974 229.187,58.763 233.284,54.314 239.117 C 47.781 247.682,46.339 258.534,50.582 267.206 C 51.935 269.971,55.032 273.981,58.005 276.816 C 63.485 282.044,67.045 283.888,103.451 300.363 C 113.181 304.766,121.053 308.440,120.945 308.528 C 120.836 308.616,109.803 313.575,96.427 319.548 C 83.051 325.520,69.855 331.599,67.102 333.055 C 51.127 341.506,44.297 356.936,50.528 370.496 C 53.166 376.235,58.330 382.081,63.852 385.578 C 70.946 390.071,221.183 458.049,229.067 460.334 C 248.433 465.946,273.447 464.842,291.413 457.584 C 302.640 453.048,444.657 387.824,448.129 385.609 C 453.486 382.192,459.692 375.406,461.782 370.681 C 466.896 359.121,463.448 347.262,452.220 337.789 C 449.807 335.753,438.059 329.532,421.237 321.383 C 406.334 314.164,394.215 307.923,394.305 307.515 C 394.395 307.107,405.841 301.566,419.741 295.201 C 433.641 288.836,446.549 282.649,448.427 281.450 C 453.220 278.391,459.764 271.137,461.719 266.716 C 467.319 254.058,462.411 240.493,448.865 231.187 C 447.229 230.063,433.857 223.730,419.148 217.114 C 404.440 210.497,392.415 204.787,392.428 204.424 C 392.440 204.061,403.934 198.498,417.971 192.060 C 432.008 185.623,445.338 179.275,447.594 177.953 C 468.339 165.796,469.259 140.872,449.449 127.723 C 444.956 124.741,293.470 55.246,285.769 52.634 C 275.441 49.131,259.701 47.558,246.187 48.679 M269.822 81.454 C 273.823 82.302,296.984 92.446,347.049 115.277 C 386.380 133.213,420.669 148.826,423.247 149.972 L 427.935 152.055 425.569 153.294 C 424.268 153.976,405.455 162.608,383.762 172.477 C 362.069 182.345,342.400 191.315,340.053 192.409 C 314.536 204.308,276.979 221.048,274.015 221.844 C 263.499 224.668,245.797 224.438,236.659 221.359 C 233.268 220.216,196.823 203.843,168.960 190.944 C 165.440 189.315,144.982 179.987,123.498 170.215 C 102.014 160.444,84.734 152.192,85.098 151.878 C 85.462 151.563,119.677 135.856,161.131 116.973 C 208.974 95.180,238.427 82.221,241.771 81.494 C 248.776 79.972,262.732 79.952,269.822 81.454 M194.131 237.635 C 208.210 244.066,222.443 250.238,225.760 251.352 C 243.766 257.396,266.497 257.522,285.402 251.683 C 288.623 250.688,304.734 243.712,321.203 236.182 C 337.672 228.651,351.537 222.477,352.014 222.462 C 353.025 222.431,425.929 254.993,426.879 255.900 C 427.231 256.236,410.335 264.323,389.333 273.871 C 368.330 283.420,348.267 292.566,344.747 294.197 C 304.871 312.669,277.481 324.710,272.290 326.049 C 263.632 328.282,248.391 328.286,239.710 326.056 C 236.160 325.144,220.100 318.355,203.093 310.578 C 186.432 302.958,168.000 294.551,162.133 291.894 C 108.893 267.788,84.572 256.426,85.116 255.913 C 85.470 255.579,102.445 247.838,122.838 238.709 L 159.916 222.112 164.225 224.028 C 166.594 225.081,180.052 231.205,194.131 237.635 M390.808 342.219 C 410.276 351.615,426.489 359.588,426.838 359.936 C 427.510 360.609,283.249 426.779,274.950 429.605 C 270.922 430.977,267.647 431.269,256.000 431.295 C 243.080 431.324,241.447 431.152,236.178 429.210 C 226.286 425.563,84.556 360.564,85.173 359.957 C 86.100 359.045,158.147 326.771,159.573 326.627 C 160.277 326.557,173.717 332.383,189.440 339.575 C 205.163 346.767,221.168 353.758,225.007 355.111 C 243.061 361.473,268.322 361.589,286.275 355.392 C 289.766 354.187,306.367 346.905,323.165 339.209 C 339.963 331.513,354.091 325.198,354.560 325.176 C 355.029 325.154,371.341 332.824,390.808 342.219 " stroke="none" fill-rule="evenodd" fill="black"></path></svg>