<svg xmlns="http://www.w3.org/2000/svg" width="512" height="512" viewBox="0 0 512 512"><path d="M248.320 48.344 C 240.918 49.050,232.357 50.637,227.682 52.172 C 224.883 53.091,187.582 69.796,144.790 89.295 C 88.236 115.065,65.492 125.833,61.515 128.721 C 42.556 142.486,43.801 164.921,64.238 177.792 C 69.593 181.164,217.365 248.613,225.280 251.298 C 234.951 254.578,242.102 255.573,256.000 255.573 C 269.902 255.573,277.056 254.577,286.720 251.296 C 294.634 248.609,442.406 181.159,447.762 177.789 C 468.198 164.932,469.444 142.481,450.485 128.723 C 443.713 123.809,292.682 54.739,281.835 51.595 C 271.920 48.722,258.262 47.397,248.320 48.344 M76.246 224.275 C 55.764 233.716,48.259 242.245,48.331 256.000 C 48.384 266.040,53.142 274.157,62.918 280.883 C 67.396 283.964,217.297 352.581,225.919 355.496 C 243.465 361.430,268.522 361.431,286.081 355.498 C 294.584 352.626,444.725 283.880,449.161 280.829 C 458.855 274.159,463.616 266.011,463.669 256.000 C 463.709 248.266,461.831 243.509,456.396 237.583 C 451.693 232.455,446.446 229.112,435.190 224.075 L 426.220 220.061 369.057 246.228 C 290.218 282.317,288.673 282.996,281.081 284.881 C 271.409 287.282,267.246 287.733,255.195 287.682 C 243.573 287.633,234.000 286.150,224.759 282.968 C 221.526 281.855,188.985 267.267,152.447 250.552 C 115.909 233.836,85.765 220.188,85.460 220.221 C 85.156 220.255,81.009 222.079,76.246 224.275 M75.852 328.452 C 65.188 333.284,60.599 336.291,55.584 341.731 C 42.749 355.656,46.679 374.745,64.702 386.020 C 71.487 390.265,221.815 458.233,229.065 460.333 C 245.636 465.136,266.315 465.150,282.807 460.371 C 289.418 458.455,428.953 395.492,443.869 387.694 C 464.807 376.748,470.239 356.799,456.396 341.684 C 451.567 336.411,445.251 332.378,434.683 327.820 L 426.105 324.119 357.642 355.402 C 306.927 378.574,287.035 387.263,280.909 388.917 C 273.321 390.965,271.270 391.149,256.000 391.149 C 240.804 391.149,238.656 390.959,231.248 388.956 C 225.331 387.357,204.622 378.305,154.746 355.515 C 117.132 338.328,86.030 324.285,85.632 324.307 C 85.233 324.330,80.832 326.195,75.852 328.452 " stroke="none" fill-rule="evenodd" fill="black"></path></svg>