<svg xmlns="http://www.w3.org/2000/svg" width="512" height="512" viewBox="0 0 512 512"><path d="M143.202 99.283 C 82.337 127.045,32.801 150.013,33.122 150.321 C 33.444 150.630,83.435 173.977,144.213 202.202 C 222.248 238.442,255.347 253.418,256.853 253.169 C 258.888 252.834,477.662 151.492,478.878 150.322 C 479.658 149.571,257.758 48.605,255.573 48.717 C 254.635 48.766,204.068 71.520,143.202 99.283 M72.960 237.684 C 54.656 245.854,37.985 253.343,35.914 254.326 L 32.147 256.114 141.727 306.069 C 201.996 333.544,252.499 356.414,253.956 356.890 C 256.419 357.696,264.435 354.192,367.663 307.191 C 428.744 279.380,478.720 256.361,478.720 256.038 C 478.720 255.715,462.002 248.042,441.569 238.988 L 404.417 222.525 330.809 256.329 C 290.324 274.922,256.704 290.133,256.097 290.133 C 255.490 290.133,221.902 274.965,181.457 256.427 C 141.011 237.888,107.542 222.744,107.080 222.774 C 106.618 222.804,91.264 229.513,72.960 237.684 M72.533 343.869 C 51.648 353.211,34.063 361.166,33.456 361.547 C 32.746 361.992,72.298 380.423,144.176 413.142 L 256.000 464.044 367.754 413.152 C 429.219 385.162,479.235 362.018,478.901 361.721 C 478.567 361.425,460.974 353.431,439.806 343.957 L 401.319 326.733 328.881 359.693 C 284.465 379.904,255.780 392.506,254.728 392.271 C 253.785 392.060,221.058 377.248,182.001 359.357 C 142.945 341.465,110.881 326.840,110.748 326.856 C 110.615 326.872,93.419 334.528,72.533 343.869 " stroke="none" fill-rule="evenodd" fill="black"></path></svg>