<svg xmlns="http://www.w3.org/2000/svg" width="512" height="512" viewBox="0 0 512 512"><path d="M48.263 49.015 C 41.244 51.609,36.930 57.006,34.581 66.129 C 28.948 88.012,32.766 144.192,43.544 198.027 C 64.778 304.084,104.645 382.066,157.867 421.647 C 185.721 442.362,214.679 455.019,247.467 460.809 C 260.824 463.168,287.378 464.047,300.450 462.564 C 334.388 458.713,364.227 445.644,385.702 425.225 C 393.732 417.589,404.347 404.916,403.457 404.026 C 403.222 403.791,398.268 402.245,392.448 400.591 C 319.348 379.814,252.086 342.871,189.013 288.855 C 170.274 272.806,160.402 263.315,158.620 259.632 C 153.624 249.313,161.363 237.305,173.047 237.245 C 178.071 237.220,182.080 239.483,189.966 246.800 C 257.862 309.794,328.776 350.298,409.021 371.918 L 418.255 374.405 419.110 372.163 C 425.822 354.569,429.240 328.793,427.531 308.661 C 422.447 248.765,389.358 196.860,332.373 159.393 C 302.061 139.463,273.193 129.258,221.867 120.329 C 210.837 118.410,197.589 116.077,192.427 115.145 C 135.739 104.906,105.596 90.841,72.549 59.213 C 68.082 54.937,63.185 50.803,61.668 50.025 C 57.674 47.978,52.187 47.565,48.263 49.015 M414.823 383.003 C 412.853 387.618,409.720 393.996,407.860 397.178 C 406.001 400.360,404.480 403.225,404.480 403.545 C 404.480 403.866,406.496 404.570,408.960 405.111 C 411.424 405.651,418.527 407.260,424.745 408.686 C 430.962 410.112,442.690 412.440,450.808 413.859 C 464.736 416.295,465.806 416.369,469.831 415.173 C 474.624 413.750,477.993 410.698,479.955 406.001 C 482.653 399.542,481.161 393.147,475.875 388.505 C 472.234 385.309,470.371 384.743,453.973 381.851 C 447.168 380.650,436.497 378.531,430.260 377.141 C 424.023 375.751,418.804 374.613,418.663 374.613 C 418.521 374.613,416.794 378.389,414.823 383.003 " stroke="none" fill-rule="evenodd" fill="black"></path></svg>