<svg xmlns="http://www.w3.org/2000/svg" width="512" height="512" viewBox="0 0 512 512"><path d="M32.980 39.467 C 30.091 86.888,33.081 135.031,42.321 189.867 C 64.050 318.821,113.803 403.568,190.385 442.073 C 206.749 450.300,228.630 457.482,247.467 460.809 C 260.824 463.168,287.378 464.047,300.450 462.564 C 334.388 458.713,364.227 445.644,385.702 425.225 C 393.732 417.589,404.347 404.916,403.457 404.026 C 403.222 403.791,398.268 402.245,392.448 400.591 C 335.766 384.481,282.135 358.422,232.107 322.683 C 208.890 306.098,183.438 284.922,159.921 262.625 L 150.456 253.651 161.429 242.023 L 172.402 230.395 181.561 239.044 C 229.034 283.875,271.908 314.483,321.280 338.787 C 350.386 353.116,379.395 364.110,408.561 371.866 L 418.189 374.426 419.307 371.747 C 419.922 370.273,421.433 365.227,422.665 360.533 C 430.699 329.933,429.627 299.215,419.449 268.373 C 409.763 239.026,394.863 214.988,372.053 191.914 C 342.020 161.532,305.851 140.331,265.934 129.710 C 253.034 126.278,243.645 124.392,214.613 119.402 C 149.359 108.186,128.418 100.792,90.453 75.565 C 74.679 65.084,64.610 57.301,47.122 42.073 C 39.952 35.829,33.956 30.720,33.799 30.720 C 33.642 30.720,33.273 34.656,32.980 39.467 M414.823 383.003 C 412.853 387.618,409.720 393.996,407.860 397.178 C 406.001 400.360,404.480 403.225,404.480 403.545 C 404.480 403.866,406.496 404.573,408.960 405.117 C 411.424 405.661,419.392 407.448,426.667 409.087 C 439.902 412.070,477.685 418.615,478.245 418.022 C 478.755 417.481,483.220 387.362,482.845 386.987 C 482.650 386.792,476.362 385.652,468.872 384.453 C 454.021 382.076,436.950 378.790,426.240 376.247 C 422.485 375.355,419.187 374.623,418.910 374.619 C 418.632 374.616,416.794 378.389,414.823 383.003 " stroke="none" fill-rule="evenodd" fill="black"></path></svg>