<svg xmlns="http://www.w3.org/2000/svg" width="512" height="512" viewBox="0 0 512 512"><path d="M48.425 48.959 C 35.954 53.585,32.245 64.566,32.249 96.853 C 32.255 156.526,48.020 235.848,72.124 297.488 C 102.413 374.944,144.306 423.209,202.252 447.407 C 239.846 463.106,281.832 467.503,318.797 459.612 C 352.115 452.500,383.187 433.375,399.787 409.764 C 402.133 406.426,404.466 403.834,404.970 404.003 C 408.633 405.235,435.141 410.943,448.729 413.426 C 461.968 415.846,465.862 416.277,468.356 415.601 C 480.241 412.377,484.916 399.013,477.316 389.981 C 473.902 385.924,471.467 385.073,454.230 381.914 C 445.406 380.296,433.830 377.951,428.505 376.702 C 419.517 374.595,418.855 374.301,419.270 372.603 C 419.516 371.596,420.877 366.620,422.295 361.545 C 435.050 315.870,426.062 266.032,397.259 222.720 C 373.108 186.403,334.798 155.482,293.777 139.197 C 273.056 130.970,253.350 125.863,219.307 119.895 C 183.047 113.539,177.614 112.494,165.887 109.625 C 126.659 100.025,100.821 86.152,73.303 59.913 C 68.421 55.258,63.185 50.811,61.668 50.030 C 57.746 48.013,52.189 47.563,48.425 48.959 M83.771 109.430 C 105.271 123.550,127.189 132.907,155.307 139.969 C 168.167 143.199,172.985 144.142,218.173 152.273 C 255.332 158.959,272.698 164.086,294.827 174.904 C 318.590 186.521,340.353 203.294,357.225 222.994 C 392.216 263.851,404.131 313.353,389.860 358.571 C 388.843 361.794,387.675 364.638,387.265 364.892 C 386.350 365.457,378.902 363.049,362.674 356.942 C 303.523 334.683,251.778 302.146,195.594 251.884 C 188.418 245.465,181.320 239.541,179.820 238.720 C 176.135 236.702,170.312 236.833,165.760 239.037 C 158.274 242.660,154.976 252.111,158.593 259.571 C 160.298 263.087,169.992 272.443,187.733 287.692 C 215.319 311.404,246.474 333.828,275.200 350.648 C 303.033 366.945,341.400 384.435,366.293 392.173 C 368.992 393.012,371.200 393.953,371.200 394.263 C 371.200 394.574,368.348 397.634,364.862 401.063 C 333.802 431.613,279.478 440.008,226.778 422.402 C 190.687 410.345,161.593 388.189,137.693 354.560 C 120.702 330.653,101.924 290.397,90.469 253.323 C 76.114 206.862,66.442 152.894,64.356 107.624 L 63.751 94.502 70.206 99.631 C 73.756 102.452,79.860 106.862,83.771 109.430 " stroke="none" fill-rule="evenodd" fill="black"></path></svg>