<svg xmlns="http://www.w3.org/2000/svg" width="512" height="512" viewBox="0 0 512 512"><path d="M260.133 34.436 C 250.001 38.638,243.035 47.054,240.745 57.855 C 240.109 60.858,239.787 76.805,239.787 105.322 L 239.787 148.266 236.160 146.453 C 232.572 144.660,231.927 144.640,176.213 144.640 C 120.245 144.640,119.868 144.652,115.891 146.489 L 111.889 148.339 111.624 126.009 C 111.362 103.814,111.346 103.651,109.066 98.785 C 106.135 92.532,99.468 85.865,93.215 82.934 L 88.320 80.640 64.000 80.640 L 39.680 80.640 34.785 82.934 C 28.532 85.865,21.865 92.532,18.934 98.785 L 16.640 103.680 16.640 279.893 L 16.640 456.107 18.927 460.986 C 23.644 471.050,32.599 477.805,43.520 479.535 C 50.716 480.675,77.339 480.669,84.480 479.526 C 91.101 478.466,95.731 476.370,100.532 472.261 L 104.081 469.223 106.867 471.922 C 110.798 475.730,117.654 478.727,124.649 479.696 C 128.167 480.184,151.136 480.413,180.306 480.253 C 229.904 479.979,229.980 479.976,234.882 478.007 C 237.581 476.923,241.633 474.580,243.885 472.800 L 247.979 469.563 252.035 472.817 C 254.266 474.607,258.278 476.955,260.952 478.035 C 265.769 479.980,266.155 479.998,303.360 479.999 C 336.566 480.000,341.449 479.829,345.600 478.525 C 354.429 475.749,362.585 467.812,366.008 458.662 C 367.755 453.993,367.789 452.639,367.903 382.048 C 367.967 342.524,368.161 310.955,368.334 311.893 C 368.508 312.832,371.897 343.592,375.867 380.249 C 379.836 416.905,383.495 448.733,383.998 450.977 C 386.439 461.869,393.730 471.142,403.718 476.059 C 412.316 480.291,416.427 480.538,439.467 478.202 C 471.472 474.957,475.408 473.883,483.945 466.071 C 490.918 459.691,494.993 451.137,495.526 441.766 C 495.831 436.392,491.855 397.351,478.348 273.107 C 468.681 184.190,460.357 109.886,459.849 107.987 C 457.905 100.712,454.795 95.704,448.747 90.104 C 441.912 83.776,435.978 81.021,427.881 80.419 C 418.132 79.694,375.404 84.799,369.332 87.415 C 368.014 87.983,367.869 86.665,367.626 71.941 L 367.360 55.847 364.561 50.166 C 361.423 43.798,355.964 38.345,349.365 34.987 L 345.173 32.853 305.067 32.643 L 264.960 32.434 260.133 34.436 M336.213 256.000 L 336.213 448.000 304.213 448.000 L 272.213 448.000 272.213 256.000 L 272.213 64.000 304.213 64.000 L 336.213 64.000 336.213 256.000 M80.213 279.893 L 80.213 448.000 64.000 448.000 L 47.787 448.000 47.787 279.893 L 47.787 111.787 64.000 111.787 L 80.213 111.787 80.213 279.893 M427.031 113.126 C 427.768 113.863,428.565 115.303,428.802 116.326 C 429.375 118.797,463.366 432.785,463.571 437.502 C 463.670 439.776,463.255 441.641,462.479 442.413 C 460.737 444.144,420.315 448.491,417.574 447.242 C 416.367 446.691,415.484 445.339,415.172 443.559 C 414.314 438.660,380.539 126.037,380.451 122.179 C 380.405 120.150,380.814 118.045,381.359 117.500 C 382.107 116.751,406.256 113.620,424.686 111.882 C 425.239 111.829,426.294 112.390,427.031 113.126 M223.573 192.000 L 223.573 208.213 175.787 208.213 L 128.000 208.213 128.000 192.000 L 128.000 175.787 175.787 175.787 L 223.573 175.787 223.573 192.000 M223.573 311.893 L 223.573 384.000 175.787 384.000 L 128.000 384.000 128.000 311.893 L 128.000 239.787 175.787 239.787 L 223.573 239.787 223.573 311.893 M223.573 432.213 L 223.573 448.000 175.787 448.000 L 128.000 448.000 128.000 432.213 L 128.000 416.427 175.787 416.427 L 223.573 416.427 223.573 432.213 " stroke="none" fill-rule="evenodd" fill="black"></path></svg>