<svg xmlns="http://www.w3.org/2000/svg" width="512" height="512" viewBox="0 0 512 512"><path d="M276.388 34.410 C 267.815 37.982,262.285 43.282,258.396 51.655 L 256.427 55.893 256.427 256.000 L 256.427 456.107 258.656 460.800 C 263.450 470.894,272.416 477.665,283.557 479.605 C 287.330 480.262,295.800 480.484,307.873 480.242 C 324.140 479.917,326.952 479.653,330.926 478.080 C 339.569 474.660,346.544 467.708,350.145 458.926 L 352.000 454.400 352.236 259.840 C 352.388 135.218,352.171 63.316,351.632 59.816 C 349.994 49.156,343.219 39.856,333.682 35.172 L 328.960 32.853 305.067 32.635 C 281.711 32.421,281.066 32.461,276.388 34.410 M37.803 81.768 C 29.192 84.810,22.750 90.652,18.860 98.948 L 16.640 103.680 16.640 279.893 L 16.640 456.107 18.910 460.949 C 23.499 470.738,31.424 477.017,42.053 479.283 C 50.734 481.134,68.626 480.452,74.926 478.030 C 83.496 474.734,90.530 467.742,94.145 458.926 L 96.000 454.400 96.228 283.107 C 96.475 96.554,96.666 104.493,91.747 96.100 C 88.724 90.941,82.780 85.644,76.949 82.910 C 72.361 80.759,71.323 80.628,57.173 80.420 C 44.478 80.232,41.575 80.434,37.803 81.768 M409.808 81.915 C 401.239 82.791,392.199 84.099,389.719 84.820 C 380.156 87.600,371.748 96.037,368.951 105.660 C 367.656 110.113,368.048 114.737,383.949 282.743 C 392.943 377.771,400.829 457.199,401.506 459.586 C 404.969 471.790,417.599 479.969,432.640 479.750 C 444.877 479.571,471.249 476.377,476.400 474.450 C 487.189 470.413,495.791 458.863,495.780 448.427 C 495.777 445.611,488.500 366.699,479.609 273.067 C 468.256 153.501,463.027 101.622,462.043 98.778 C 460.030 92.959,454.114 86.783,447.372 83.464 C 442.340 80.987,440.857 80.669,433.561 80.505 C 429.065 80.403,418.376 81.038,409.808 81.915 M136.107 144.999 C 128.581 146.893,119.369 154.038,115.976 160.614 C 112.619 167.120,111.787 172.859,111.787 189.487 C 111.787 203.809,111.942 205.529,113.347 206.801 C 114.769 208.087,120.344 208.213,175.904 208.213 C 224.323 208.213,237.211 207.987,238.404 207.114 C 239.777 206.110,239.884 204.353,239.634 186.825 L 239.360 167.635 236.555 161.943 C 233.303 155.341,227.971 150.169,221.013 146.867 L 216.320 144.640 177.493 144.498 C 156.139 144.419,137.515 144.645,136.107 144.999 M112.744 240.941 C 112.036 241.794,111.835 261.096,111.995 312.840 L 112.213 383.573 175.787 383.573 L 239.360 383.573 239.360 311.893 L 239.360 240.213 176.536 239.995 C 124.277 239.813,113.549 239.972,112.744 240.941 M112.113 417.661 C 111.852 418.340,111.768 427.076,111.926 437.075 L 112.213 455.253 114.922 460.971 C 119.787 471.240,128.457 477.766,139.673 479.603 C 147.942 480.958,207.585 480.621,214.377 479.181 C 224.562 477.023,232.567 470.597,237.090 460.949 C 239.314 456.204,239.365 455.708,239.617 436.267 L 239.874 416.427 176.230 416.427 C 121.483 416.427,112.520 416.599,112.113 417.661 " stroke="none" fill-rule="evenodd" fill="black"></path></svg>