<svg xmlns="http://www.w3.org/2000/svg" width="512" height="512" viewBox="0 0 512 512"><path d="M261.478 34.036 C 260.033 34.917,258.209 36.990,257.425 38.642 C 256.106 41.422,256.000 57.543,256.000 256.142 C 256.000 463.753,256.051 470.735,257.590 473.613 C 258.464 475.249,260.480 477.355,262.070 478.293 C 264.848 479.934,266.492 480.000,304.364 480.000 C 342.832 480.000,343.825 479.958,346.125 478.241 C 347.421 477.273,349.273 475.421,350.241 474.125 L 352.000 471.768 352.253 259.991 C 352.392 143.513,352.257 46.101,351.953 43.520 C 351.480 39.513,350.907 38.359,348.037 35.627 L 344.675 32.427 304.391 32.430 C 266.482 32.433,263.952 32.528,261.478 34.036 M21.515 82.038 C 15.773 85.715,16.213 69.279,16.217 280.064 C 16.220 468.394,16.246 471.511,17.885 474.199 C 21.398 479.959,21.670 480.000,56.471 480.000 C 86.751 480.000,87.846 479.943,90.125 478.241 C 91.421 477.273,93.273 475.421,94.241 474.125 L 96.000 471.768 96.000 280.471 C 96.000 97.926,95.930 89.045,94.465 86.362 C 93.621 84.816,91.701 82.802,90.199 81.885 C 87.618 80.312,85.717 80.220,55.893 80.231 C 25.262 80.242,24.236 80.296,21.515 82.038 M414.293 84.086 C 395.051 86.157,378.472 88.053,377.452 88.299 C 374.398 89.036,370.451 92.928,369.588 96.052 C 368.989 98.219,372.725 147.358,383.945 284.931 C 400.736 490.813,398.912 474.638,405.729 478.175 L 409.111 479.930 447.670 475.124 C 473.458 471.910,487.118 469.859,488.912 468.931 C 492.542 467.054,494.926 462.897,494.930 458.438 C 494.932 456.434,488.224 372.722,480.023 272.411 C 463.945 75.741,465.080 86.401,459.797 82.510 C 458.460 81.525,455.808 80.723,453.397 80.574 C 451.133 80.435,433.536 82.015,414.293 84.086 M117.673 146.150 C 111.941 149.980,111.789 150.879,111.788 181.120 L 111.787 208.213 175.787 208.213 L 239.787 208.213 239.787 180.367 C 239.787 153.938,239.699 152.380,238.067 149.738 C 234.545 144.041,236.497 144.213,175.571 144.213 L 120.572 144.213 117.673 146.150 M111.787 311.893 L 111.787 384.000 175.787 384.000 L 239.787 384.000 239.787 311.893 L 239.787 239.787 175.787 239.787 L 111.787 239.787 111.787 311.893 M111.966 444.099 C 112.202 470.512,112.293 471.878,113.973 474.126 C 114.940 475.421,116.793 477.273,118.089 478.241 C 120.412 479.975,121.225 480.000,175.636 480.000 C 227.155 480.000,231.014 479.898,233.638 478.465 C 235.184 477.621,237.198 475.701,238.115 474.199 C 239.676 471.638,239.780 469.736,239.783 443.947 L 239.787 416.427 175.753 416.427 L 111.720 416.427 111.966 444.099 " stroke="none" fill-rule="evenodd" fill="black"></path></svg>