<svg xmlns="http://www.w3.org/2000/svg" width="512" height="512" viewBox="0 0 512 512"><path d="M123.733 137.826 C 102.730 141.494,80.398 152.194,64.825 166.053 C 41.282 187.003,27.797 213.654,24.602 245.547 C 21.436 277.148,32.735 311.602,53.954 335.045 C 69.988 352.760,86.797 363.637,108.958 370.637 C 124.233 375.463,127.202 375.699,177.707 376.099 L 224.427 376.469 224.427 352.501 L 224.427 328.533 186.240 328.526 C 134.582 328.516,126.063 327.609,112.213 320.642 C 92.859 310.906,77.989 292.050,73.883 272.036 C 72.147 263.574,72.147 248.426,73.883 239.964 C 78.869 215.662,98.886 194.348,123.886 186.720 C 129.969 184.864,131.363 184.807,176.853 184.526 L 223.573 184.239 223.573 160.386 L 223.573 136.533 176.853 136.621 C 142.512 136.685,128.438 137.004,123.733 137.826 M288.427 160.386 L 288.427 184.239 335.147 184.526 C 380.650 184.807,382.029 184.864,388.120 186.722 C 413.084 194.338,433.137 215.692,438.117 239.964 C 439.853 248.426,439.853 263.574,438.117 272.036 C 434.011 292.050,419.141 310.906,399.787 320.642 C 385.937 327.609,377.418 328.516,325.760 328.526 L 287.573 328.533 287.573 352.501 L 287.573 376.469 334.293 376.099 C 373.754 375.786,382.190 375.502,388.585 374.270 C 426.228 367.021,456.296 344.982,474.361 311.396 C 484.528 292.496,489.557 267.094,487.398 245.547 C 484.203 213.654,470.718 187.003,447.175 166.053 C 435.429 155.600,417.363 145.592,402.347 141.219 C 387.184 136.803,383.703 136.564,334.293 136.548 L 288.427 136.533 288.427 160.386 M145.067 256.000 L 145.067 279.893 256.853 279.893 L 368.640 279.893 368.640 256.000 L 368.640 232.107 256.853 232.107 L 145.067 232.107 145.067 256.000 " stroke="none" fill-rule="evenodd" fill="black"></path></svg>