<svg xmlns="http://www.w3.org/2000/svg" width="512" height="512" viewBox="0 0 512 512"><path d="M74.658 112.652 C 65.695 113.920,55.355 121.534,51.353 129.811 C 45.522 141.873,47.787 156.620,56.894 165.882 C 64.116 173.228,71.762 176.198,81.937 175.609 C 98.224 174.668,110.668 162.224,111.609 145.937 C 112.814 125.095,95.696 109.675,74.658 112.652 M152.890 129.831 C 146.100 133.192,142.545 142.119,145.015 149.604 C 146.517 154.153,151.692 158.381,157.143 159.510 C 160.403 160.185,203.149 160.390,306.773 160.227 L 451.840 160.000 455.819 157.661 C 467.289 150.918,466.508 135.088,454.435 129.604 C 451.133 128.104,444.753 128.037,303.787 128.019 L 156.587 128.001 152.890 129.831 M68.133 226.404 C 57.633 230.829,50.859 239.255,48.610 250.688 C 45.266 267.685,58.054 285.134,75.601 287.515 C 89.378 289.385,102.364 282.417,108.561 269.829 C 111.131 264.607,111.360 263.478,111.360 256.000 C 111.360 248.522,111.131 247.393,108.561 242.171 C 105.412 235.776,99.929 230.309,93.365 227.020 C 89.980 225.323,87.613 224.866,81.067 224.644 C 74.061 224.407,72.304 224.646,68.133 226.404 M158.293 240.206 C 157.824 240.363,156.391 240.722,155.109 241.004 C 153.827 241.287,151.370 242.754,149.649 244.266 C 140.700 252.122,142.917 265.452,154.027 270.596 C 157.307 272.114,163.143 272.176,303.360 272.190 C 407.244 272.200,450.258 271.932,452.674 271.262 C 454.541 270.743,457.480 268.908,459.205 267.182 C 468.019 258.368,463.834 243.401,451.774 240.604 C 448.736 239.899,160.385 239.508,158.293 240.206 M71.253 337.320 C 65.731 338.999,61.278 341.773,57.048 346.171 C 52.092 351.323,49.857 355.746,48.621 362.844 C 46.824 373.164,49.958 382.842,57.558 390.442 C 72.261 405.145,96.056 402.318,107.293 384.534 C 112.502 376.290,113.211 363.956,109.005 354.769 C 106.149 348.530,99.466 341.849,93.215 338.985 C 87.538 336.384,76.970 335.583,71.253 337.320 M153.157 353.616 C 149.535 355.194,145.256 360.364,144.577 363.982 C 143.134 371.674,146.554 379.089,152.979 382.199 L 156.738 384.019 305.277 383.796 L 453.815 383.573 457.094 380.964 C 458.898 379.529,461.264 376.649,462.352 374.564 C 466.040 367.500,463.338 358.753,456.171 354.552 L 452.543 352.427 304.138 352.460 C 183.417 352.487,155.253 352.703,153.157 353.616 " stroke="none" fill="black" fill-rule="evenodd"></path></svg>