<svg xmlns="http://www.w3.org/2000/svg" width="512" height="512" viewBox="0 0 512 512"><path d="M60.160 112.544 C 54.453 113.999,50.196 118.078,48.678 123.546 C 48.193 125.292,47.802 134.784,47.810 144.640 C 47.826 164.394,48.353 166.929,53.439 171.679 C 57.510 175.481,59.507 175.787,80.311 175.787 C 96.702 175.787,100.374 175.559,102.656 174.404 C 106.534 172.440,108.322 170.696,110.171 167.074 C 111.618 164.239,111.787 161.857,111.787 144.303 C 111.787 123.501,111.478 121.486,107.679 117.470 C 102.919 112.439,101.929 112.234,81.493 112.056 C 71.168 111.965,61.568 112.185,60.160 112.544 M144.213 144.213 L 144.213 168.107 304.213 168.107 L 464.213 168.107 464.213 144.213 L 464.213 120.320 304.213 120.320 L 144.213 120.320 144.213 144.213 M55.743 226.579 C 53.783 227.754,51.287 230.150,50.196 231.904 C 48.262 235.015,48.213 235.606,48.213 256.000 C 48.213 276.428,48.259 276.980,50.208 280.114 C 51.304 281.878,53.992 284.374,56.181 285.661 C 60.097 287.963,60.427 288.005,76.938 288.289 C 96.671 288.630,101.909 287.848,106.418 283.889 C 111.496 279.431,111.787 277.919,111.787 256.000 C 111.787 234.574,111.463 232.721,106.985 228.534 C 102.902 224.717,100.954 224.426,79.518 224.435 C 59.477 224.443,59.277 224.461,55.743 226.579 M144.213 256.000 L 144.213 279.893 304.213 279.893 L 464.213 279.893 464.213 256.000 L 464.213 232.107 304.213 232.107 L 144.213 232.107 144.213 256.000 M57.600 337.428 C 53.977 339.052,51.259 341.878,49.415 345.937 C 48.026 348.995,47.822 351.716,47.810 367.360 C 47.802 377.862,48.186 386.685,48.738 388.674 C 49.946 393.024,54.976 398.054,59.326 399.262 C 61.315 399.814,70.138 400.198,80.640 400.190 C 100.394 400.174,102.929 399.647,107.679 394.561 C 111.481 390.490,111.787 388.492,111.787 367.697 C 111.787 350.143,111.618 347.761,110.171 344.926 C 108.322 341.304,106.534 339.560,102.656 337.596 C 100.364 336.436,96.727 336.219,80.042 336.247 C 65.289 336.272,59.500 336.576,57.600 337.428 M144.213 368.216 L 144.213 392.538 304.000 392.322 L 463.787 392.107 464.013 368.000 L 464.240 343.893 304.227 343.893 L 144.213 343.893 144.213 368.216 " stroke="none" fill="black" fill-rule="evenodd"></path></svg>