<svg xmlns="http://www.w3.org/2000/svg" width="512" height="512" viewBox="0 0 512 512"><path d="M236.800 50.875 C 210.453 53.589,187.651 60.126,164.267 71.668 C 142.698 82.313,126.416 93.885,109.620 110.507 C 39.107 180.285,27.805 289.622,82.516 372.701 C 97.108 394.858,119.952 417.541,142.507 432.269 C 158.524 442.727,174.290 450.123,194.003 456.426 C 252.234 475.042,317.813 466.014,369.493 432.269 C 392.101 417.506,414.889 394.863,429.566 372.576 C 475.273 303.171,475.448 213.623,430.014 144.149 C 418.781 126.974,401.146 107.579,385.845 95.573 C 362.833 77.518,335.397 63.794,308.053 56.661 C 291.710 52.398,280.807 51.069,259.840 50.787 C 249.045 50.642,238.677 50.681,236.800 50.875 M271.360 82.822 C 312.983 86.622,350.789 104.246,380.169 133.547 C 433.492 186.723,447.039 267.607,413.920 335.068 C 404.049 355.174,394.219 368.651,377.915 384.430 C 366.432 395.544,356.213 403.337,343.757 410.482 C 282.500 445.618,207.012 441.039,150.355 398.752 C 142.085 392.580,126.013 377.030,119.231 368.640 C 102.198 347.567,88.812 319.237,83.748 293.547 C 72.066 234.283,89.705 175.596,131.838 133.547 C 168.713 96.744,219.925 78.125,271.360 82.822 M160.291 161.259 C 156.547 162.390,150.643 166.905,148.357 170.385 C 145.377 174.922,144.213 178.710,144.213 183.869 C 144.213 204.995,169.781 215.868,184.604 201.046 C 199.791 185.858,189.374 160.259,168.107 160.508 C 165.056 160.544,161.539 160.882,160.291 161.259 M218.577 169.012 C 211.467 171.887,207.837 177.692,208.388 185.307 C 208.813 191.173,211.845 195.664,217.228 198.400 C 220.503 200.064,222.275 200.107,288.000 200.107 C 353.725 200.107,355.497 200.064,358.772 198.400 C 364.155 195.664,367.187 191.173,367.612 185.307 C 368.070 178.979,365.812 174.203,360.793 170.881 L 357.245 168.533 288.916 168.366 C 247.202 168.264,219.804 168.516,218.577 169.012 M170.777 176.640 C 171.231 176.640,172.543 177.656,173.694 178.898 C 176.672 182.112,176.514 186.284,173.292 189.506 C 170.112 192.686,166.608 192.783,163.052 189.791 C 160.974 188.042,160.427 186.910,160.427 184.359 C 160.427 179.239,164.642 175.206,168.816 176.333 C 169.442 176.502,170.324 176.640,170.777 176.640 M161.906 233.839 C 158.097 234.795,155.062 236.582,151.179 240.154 C 146.866 244.120,144.853 248.733,144.399 255.692 C 144.060 260.876,144.313 262.465,146.098 266.363 C 148.760 272.178,152.782 276.200,158.597 278.862 C 162.493 280.646,164.087 280.900,169.268 280.564 C 176.328 280.106,179.899 278.531,184.968 273.642 C 196.130 262.875,193.404 244.009,179.564 236.247 C 174.705 233.522,167.228 232.502,161.906 233.839 M222.293 240.193 C 221.824 240.357,220.391 240.722,219.109 241.004 C 217.827 241.287,215.370 242.754,213.649 244.266 C 204.700 252.122,206.917 265.452,218.027 270.596 C 221.257 272.091,225.011 272.176,288.000 272.176 C 350.989 272.176,354.743 272.091,357.973 270.596 C 368.351 265.791,371.168 253.386,363.679 245.470 C 358.403 239.895,362.975 240.229,289.707 240.054 C 253.099 239.967,222.763 240.029,222.293 240.193 M173.292 251.668 C 179.447 257.822,172.938 267.452,164.906 264.075 C 157.432 260.932,159.765 249.173,167.862 249.173 C 169.969 249.173,171.502 249.877,173.292 251.668 M163.112 304.695 C 155.217 306.267,148.050 312.456,145.517 319.891 C 140.788 333.769,148.890 348.306,162.969 351.207 C 171.816 353.030,179.187 350.661,185.428 343.989 C 201.177 327.152,185.852 300.168,163.112 304.695 M216.284 313.056 C 212.491 315.369,209.216 319.619,208.569 323.066 C 207.136 330.703,210.570 338.137,216.960 341.230 C 220.673 343.028,221.162 343.040,288.000 343.040 C 354.838 343.040,355.327 343.028,359.040 341.230 C 367.991 336.897,370.668 324.313,364.205 316.951 C 359.087 311.123,363.866 311.466,287.829 311.470 C 222.175 311.473,218.756 311.549,216.284 313.056 M173.867 323.033 C 177.505 327.167,175.644 333.577,170.293 335.343 C 165.008 337.087,160.427 333.510,160.427 327.639 C 160.427 324.603,162.481 321.767,165.547 320.571 C 167.916 319.646,171.932 320.835,173.867 323.033 " stroke="none" fill-rule="evenodd" fill="black"></path></svg>