<svg xmlns="http://www.w3.org/2000/svg" width="512" height="512" viewBox="0 0 512 512"><path d="M241.920 48.669 C 177.359 52.784,118.768 87.102,81.958 142.362 C 55.666 181.831,43.309 234.683,49.503 281.173 C 55.829 328.652,75.879 369.527,109.176 402.824 C 142.702 436.350,182.619 455.851,231.680 462.670 C 235.904 463.257,246.848 463.738,256.000 463.738 C 265.152 463.738,276.096 463.257,280.320 462.670 C 329.321 455.859,369.272 436.331,402.802 402.802 C 436.331 369.272,455.859 329.321,462.670 280.320 C 464.046 270.420,464.046 241.580,462.670 231.680 C 455.892 182.914,436.342 142.776,403.220 109.623 C 391.401 97.792,382.569 90.546,369.558 82.006 C 331.997 57.351,287.606 45.757,241.920 48.669 M182.222 162.031 C 186.387 163.923,189.913 167.918,191.196 172.201 C 191.756 174.071,192.027 179.931,191.859 186.523 C 191.590 197.030,191.437 197.886,189.226 201.223 C 187.915 203.201,185.334 205.554,183.384 206.549 C 180.209 208.168,178.704 208.306,166.889 208.059 C 154.145 207.792,153.825 207.739,150.749 205.391 C 145.205 201.158,144.213 198.006,144.213 184.623 C 144.213 171.016,145.418 167.235,150.912 163.599 C 155.232 160.740,155.814 160.637,168.107 160.544 C 176.755 160.479,179.426 160.761,182.222 162.031 M367.787 184.747 L 367.787 200.533 290.133 200.533 L 212.480 200.533 212.480 184.747 L 212.480 168.960 290.133 168.960 L 367.787 168.960 367.787 184.747 M183.287 234.576 C 190.424 238.218,192.006 242.228,191.981 256.613 C 191.960 268.935,190.859 272.710,186.122 276.696 C 182.353 279.867,178.473 280.737,168.107 280.737 C 157.398 280.737,153.719 279.841,149.610 276.233 C 144.902 272.100,144.213 269.571,144.213 256.420 C 144.213 243.941,145.062 240.744,149.464 236.638 C 152.780 233.545,155.196 233.071,167.927 233.014 C 178.280 232.968,180.599 233.204,183.287 234.576 M367.787 256.427 L 367.787 272.213 290.133 272.213 L 212.480 272.213 212.480 256.427 L 212.480 240.640 290.133 240.640 L 367.787 240.640 367.787 256.427 M183.254 305.597 C 185.502 306.685,187.906 308.785,189.283 310.864 C 191.425 314.097,191.592 315.042,191.859 325.477 C 192.181 338.074,191.444 341.670,187.655 345.985 C 183.452 350.772,179.446 351.791,166.191 351.446 C 155.201 351.159,154.586 351.046,151.209 348.705 C 145.373 344.659,144.213 341.122,144.213 327.377 C 144.213 312.635,145.597 309.211,153.173 305.208 C 155.145 304.166,158.467 303.847,167.624 303.821 C 178.040 303.791,179.978 304.011,183.254 305.597 M367.787 327.685 L 367.787 343.902 290.347 343.685 L 212.907 343.467 212.675 327.467 L 212.442 311.467 290.115 311.467 L 367.787 311.467 367.787 327.685 " stroke="none" fill-rule="evenodd" fill="black"></path></svg>