<svg xmlns="http://www.w3.org/2000/svg" width="512" height="512" viewBox="0 0 512 512"><path d="M74.658 112.652 C 65.695 113.920,55.355 121.534,51.353 129.811 C 45.522 141.873,47.787 156.620,56.894 165.882 C 64.116 173.228,71.762 176.198,81.937 175.609 C 98.224 174.668,110.668 162.224,111.609 145.937 C 112.814 125.095,95.696 109.675,74.658 112.652 M152.211 121.354 C 150.743 121.827,147.678 123.623,145.399 125.345 C 133.681 134.201,133.117 151.245,144.200 161.611 C 151.700 168.627,138.878 168.107,304.336 168.107 L 451.349 168.107 456.209 166.289 C 468.296 161.766,474.632 148.633,470.593 136.471 C 468.712 130.808,463.422 124.956,457.813 122.332 L 453.547 120.337 304.213 120.415 C 206.463 120.467,153.958 120.791,152.211 121.354 M68.133 226.404 C 57.633 230.829,50.859 239.255,48.610 250.688 C 45.266 267.685,58.054 285.134,75.601 287.515 C 89.378 289.385,102.364 282.417,108.561 269.829 C 111.131 264.607,111.360 263.478,111.360 256.000 C 111.360 248.522,111.131 247.393,108.561 242.171 C 105.412 235.776,99.929 230.309,93.365 227.020 C 89.980 225.323,87.613 224.866,81.067 224.644 C 74.061 224.407,72.304 224.646,68.133 226.404 M152.489 233.334 C 140.643 237.577,134.051 249.393,136.863 261.342 C 138.804 269.588,144.380 275.769,152.489 278.661 C 155.171 279.618,181.428 279.825,303.968 279.856 C 449.923 279.893,452.272 279.867,456.742 278.195 C 462.506 276.038,467.981 270.545,470.208 264.683 C 474.700 252.861,469.806 240.529,458.240 234.526 L 454.400 232.533 305.067 232.353 C 180.870 232.202,155.187 232.367,152.489 233.334 M71.253 337.320 C 65.731 338.999,61.278 341.773,57.048 346.171 C 52.092 351.323,49.857 355.746,48.621 362.844 C 46.824 373.164,49.958 382.842,57.558 390.442 C 72.261 405.145,96.056 402.318,107.293 384.534 C 112.502 376.290,113.211 363.956,109.005 354.769 C 106.149 348.530,99.466 341.849,93.215 338.985 C 87.538 336.384,76.970 335.583,71.253 337.320 M154.740 344.777 C 147.840 346.154,141.326 351.666,138.139 358.827 C 132.659 371.138,139.281 386.065,152.227 390.585 C 156.345 392.022,164.755 392.107,304.213 392.107 C 447.677 392.107,451.960 392.061,456.083 390.470 C 458.416 389.571,462.148 387.129,464.376 385.046 C 476.419 373.781,473.550 354.489,458.703 346.895 L 453.668 344.320 305.981 344.194 C 224.753 344.125,156.694 344.387,154.740 344.777 " stroke="none" fill="black" fill-rule="evenodd"></path></svg>