<svg xmlns="http://www.w3.org/2000/svg" width="512" height="512" viewBox="0 0 512 512"><path d="M246.117 34.462 C 240.384 37.132,235.954 41.835,233.833 47.502 C 232.258 51.713,232.107 54.118,232.107 74.947 L 232.107 97.777 224.436 99.227 C 208.537 102.233,187.262 110.560,172.800 119.437 C 151.971 132.222,132.904 151.149,120.172 171.675 C 110.470 187.319,102.524 207.288,99.211 224.355 L 97.707 232.101 74.912 232.104 C 49.007 232.107,45.988 232.674,39.748 238.705 C 27.128 250.904,31.293 272.102,47.502 278.167 C 51.711 279.741,54.123 279.894,74.912 279.896 L 97.707 279.899 99.211 287.645 C 109.948 342.950,152.043 390.280,206.147 407.882 C 211.901 409.754,220.095 411.962,224.355 412.789 L 232.101 414.293 232.104 437.088 C 232.106 457.877,232.259 460.289,233.833 464.498 C 241.357 484.606,270.643 484.606,278.167 464.498 C 279.741 460.289,279.894 457.877,279.896 437.088 L 279.899 414.293 287.645 412.789 C 304.801 409.459,324.677 401.532,340.530 391.700 C 377.284 368.905,404.669 329.470,412.789 287.645 L 414.293 279.899 437.088 279.896 C 457.877 279.894,460.289 279.741,464.498 278.167 C 480.707 272.102,484.872 250.904,472.252 238.705 C 466.012 232.674,462.993 232.107,437.088 232.104 L 414.293 232.101 412.789 224.355 C 406.989 194.480,391.272 165.334,368.954 143.064 C 346.693 120.852,316.807 104.755,287.564 99.227 L 279.893 97.777 279.893 74.947 C 279.893 54.118,279.742 51.713,278.167 47.502 C 274.731 38.321,266.080 32.443,256.000 32.443 C 251.958 32.443,249.277 32.991,246.117 34.462 M268.030 128.841 C 318.321 133.736,360.814 167.186,376.986 214.613 C 387.584 245.692,385.444 282.698,371.410 311.040 C 353.069 348.079,321.190 372.871,280.747 381.548 C 267.821 384.321,244.179 384.321,231.253 381.548 C 190.745 372.857,158.961 348.139,140.590 311.040 C 126.556 282.698,124.416 245.692,135.014 214.613 C 141.181 196.529,151.033 180.688,164.938 166.503 C 192.170 138.723,229.487 125.090,268.030 128.841 " stroke="none" fill-rule="evenodd" fill="black"></path></svg>