<svg xmlns="http://www.w3.org/2000/svg" width="512" height="512" viewBox="0 0 512 512"><path d="M232.107 33.788 C 150.122 45.702,90.465 116.780,96.452 195.413 C 100.363 246.791,130.025 315.578,185.727 402.446 C 205.225 432.852,229.719 467.086,235.817 472.454 C 247.195 482.470,265.423 482.240,276.694 471.940 C 281.519 467.529,297.013 446.330,315.230 419.212 C 370.167 337.433,404.268 265.663,413.456 212.480 C 420.123 173.886,412.543 135.894,391.918 104.533 C 366.459 65.822,325.728 40.256,279.166 33.762 C 267.410 32.122,243.480 32.135,232.107 33.788 M272.135 130.065 C 279.311 132.032,290.022 137.538,295.956 142.309 C 310.490 153.998,320.000 173.652,320.000 192.000 C 320.000 216.841,303.532 241.484,280.617 250.933 C 248.515 264.171,213.130 250.384,198.352 218.880 C 193.535 208.612,192.445 203.649,192.445 192.000 C 192.445 180.351,193.535 175.388,198.352 165.120 C 207.282 146.083,224.790 132.583,245.397 128.846 C 251.097 127.812,266.471 128.513,272.135 130.065 M245.190 161.958 C 231.066 166.994,222.060 182.154,224.454 196.863 C 228.648 222.630,260.051 232.861,278.456 214.456 C 294.014 198.899,289.591 172.922,269.730 163.205 C 263.501 160.157,251.893 159.567,245.190 161.958 " stroke="none" fill-rule="evenodd" fill="black"></path></svg>