<svg xmlns="http://www.w3.org/2000/svg" width="512" height="512" viewBox="0 0 512 512"><path d="M230.827 34.118 C 170.372 43.892,122.082 83.489,103.733 138.330 C 93.002 170.404,93.660 203.031,105.849 243.200 C 122.752 298.908,163.153 373.335,218.408 450.560 C 231.144 468.361,235.892 473.691,241.632 476.633 C 249.805 480.823,262.174 480.833,270.323 476.656 C 276.122 473.684,280.860 468.370,293.590 450.560 C 357.806 360.718,400.247 277.943,412.160 219.307 C 420.532 178.100,414.422 140.832,393.851 107.639 C 368.859 67.314,327.747 40.918,278.801 33.770 C 266.318 31.947,243.218 32.115,230.827 34.118 M268.373 64.891 C 298.004 67.700,323.151 78.688,345.118 98.427 C 375.506 125.732,388.951 165.822,381.794 207.787 C 374.464 250.762,347.492 309.379,302.282 380.587 C 288.101 402.921,257.350 447.147,256.000 447.147 C 255.180 447.147,234.976 418.776,222.466 400.060 C 184.332 343.007,153.357 284.632,139.683 244.045 C 127.845 208.908,125.396 183.267,131.450 157.867 C 143.324 108.053,188.621 70.105,242.389 64.927 C 252.978 63.907,257.921 63.900,268.373 64.891 M245.303 128.861 C 221.085 133.251,201.807 150.387,194.431 174.080 C 191.549 183.339,191.549 200.661,194.431 209.920 C 200.979 230.953,217.047 247.021,238.080 253.569 C 247.339 256.451,264.661 256.451,273.920 253.569 C 294.953 247.021,311.021 230.953,317.569 209.920 C 320.451 200.661,320.451 183.339,317.569 174.080 C 311.053 153.150,294.623 136.673,274.357 130.747 C 266.661 128.496,252.416 127.572,245.303 128.861 M269.921 163.371 C 275.724 166.307,282.160 172.856,285.058 178.773 C 286.871 182.476,287.147 184.224,287.147 192.000 C 287.147 200.190,286.935 201.379,284.679 205.831 C 279.791 215.476,270.735 222.141,260.659 223.509 C 246.686 225.405,233.769 218.555,227.321 205.831 C 225.065 201.379,224.853 200.190,224.853 192.000 C 224.853 184.207,225.127 182.484,226.953 178.773 C 230.643 171.273,237.926 164.602,245.666 161.633 C 247.704 160.851,251.504 160.527,256.892 160.675 C 263.924 160.869,265.705 161.237,269.921 163.371 " stroke="none" fill-rule="evenodd" fill="black"></path></svg>