<svg xmlns="http://www.w3.org/2000/svg" width="512" height="512" viewBox="0 0 512 512"><path d="M231.253 33.785 C 211.686 36.620,193.838 42.386,175.840 51.685 C 161.683 59.000,151.076 66.647,139.234 78.075 C 103.559 112.505,89.929 155.444,98.613 206.042 C 108.673 264.656,146.930 339.861,207.809 420.693 C 225.049 443.585,254.505 479.573,256.000 479.573 C 257.497 479.573,286.973 443.557,304.188 420.693 C 352.100 357.060,387.820 293.624,403.892 243.627 C 422.977 184.258,419.573 141.883,392.437 101.033 C 384.784 89.513,366.951 71.372,354.987 62.939 C 345.589 56.314,328.827 47.439,317.678 43.184 C 307.914 39.458,291.540 35.356,279.893 33.718 C 268.675 32.140,242.352 32.176,231.253 33.785 M272.135 130.065 C 279.311 132.032,290.022 137.538,295.956 142.309 C 310.490 153.998,320.000 173.652,320.000 192.000 C 320.000 216.841,303.532 241.484,280.617 250.933 C 248.515 264.171,213.130 250.384,198.352 218.880 C 193.535 208.612,192.445 203.649,192.445 192.000 C 192.445 180.351,193.535 175.388,198.352 165.120 C 207.282 146.083,224.790 132.583,245.397 128.846 C 251.097 127.812,266.471 128.513,272.135 130.065 " stroke="none" fill-rule="evenodd" fill="black"></path></svg>