<svg xmlns="http://www.w3.org/2000/svg" width="512" height="512" viewBox="0 0 512 512"><path d="M246.117 34.462 C 240.384 37.132,235.954 41.835,233.833 47.502 C 232.293 51.620,232.107 54.134,232.107 70.842 L 232.107 89.567 230.187 89.979 C 229.131 90.206,225.003 91.021,221.013 91.792 C 204.684 94.944,183.013 103.648,167.492 113.288 C 141.339 129.531,119.632 153.260,106.027 180.480 C 98.820 194.901,92.454 214.190,90.046 228.907 L 89.523 232.107 70.820 232.107 C 49.450 232.107,45.765 232.889,39.748 238.705 C 27.128 250.904,31.293 272.102,47.502 278.167 C 51.620 279.707,54.134 279.893,70.820 279.893 L 89.523 279.893 90.042 283.093 C 90.328 284.853,91.674 290.780,93.033 296.265 C 108.065 356.926,155.074 403.935,215.735 418.967 C 221.220 420.326,227.147 421.672,228.907 421.958 L 232.107 422.477 232.107 441.180 C 232.107 462.501,232.931 466.406,238.683 472.329 C 250.861 484.868,272.123 480.651,278.167 464.498 C 279.707 460.380,279.893 457.866,279.893 441.180 L 279.893 422.477 283.093 421.958 C 284.853 421.672,290.780 420.326,296.265 418.967 C 356.926 403.935,403.935 356.926,418.967 296.265 C 420.326 290.780,421.672 284.853,421.958 283.093 L 422.477 279.893 441.180 279.893 C 457.866 279.893,460.380 279.707,464.498 278.167 C 480.707 272.102,484.872 250.904,472.252 238.705 C 466.235 232.889,462.550 232.107,441.180 232.107 L 422.477 232.107 421.958 228.907 C 420.788 221.704,416.300 205.240,413.367 197.389 C 398.052 156.397,367.985 123.610,328.107 104.413 C 317.259 99.191,301.423 93.807,290.987 91.792 C 286.997 91.021,282.869 90.206,281.813 89.979 L 279.893 89.567 279.893 70.842 C 279.893 54.134,279.707 51.620,278.167 47.502 C 274.731 38.321,266.080 32.443,256.000 32.443 C 251.958 32.443,249.277 32.991,246.117 34.462 M280.747 138.629 C 327.953 149.202,363.449 184.977,373.494 232.107 C 374.686 237.697,375.040 243.175,375.040 256.000 C 375.040 274.356,374.083 280.872,369.336 294.827 C 363.095 313.172,352.680 329.285,338.087 343.170 C 324.527 356.073,307.099 366.039,289.280 371.082 C 276.494 374.700,269.109 375.732,256.000 375.732 C 242.891 375.732,235.506 374.700,222.720 371.082 C 204.901 366.039,187.473 356.073,173.913 343.170 C 155.630 325.774,143.765 304.570,138.506 279.893 C 136.311 269.596,136.311 242.404,138.506 232.107 C 146.289 195.589,169.621 165.280,202.744 148.663 C 211.218 144.412,222.822 140.438,231.680 138.754 C 235.435 138.040,239.275 137.274,240.213 137.050 C 244.356 136.063,274.538 137.239,280.747 138.629 " stroke="none" fill-rule="evenodd" fill="black"></path></svg>