<svg xmlns="http://www.w3.org/2000/svg" width="512" height="512" viewBox="0 0 512 512"><path d="M240.500 18.384 C 207.908 23.461,178.969 46.772,166.772 77.772 C 160.548 93.591,159.575 103.798,159.574 153.276 L 159.573 191.778 145.707 192.215 C 134.621 192.564,130.642 193.031,125.867 194.543 C 109.803 199.631,96.101 210.654,87.661 225.280 C 86.442 227.392,84.364 232.192,83.042 235.947 L 80.640 242.773 80.640 343.893 L 80.640 445.013 82.965 451.840 C 86.377 461.859,90.831 468.858,98.987 477.013 C 107.142 485.169,114.141 489.623,124.160 493.035 L 130.987 495.360 256.000 495.360 L 381.013 495.360 387.840 493.035 C 397.859 489.623,404.858 485.169,413.013 477.013 C 421.169 468.858,425.623 461.859,429.035 451.840 L 431.360 445.013 431.360 343.893 L 431.360 242.773 428.958 235.947 C 421.905 215.908,406.397 200.920,386.133 194.560 C 381.412 193.079,377.252 192.589,366.293 192.223 L 352.427 191.761 352.426 153.267 C 352.426 132.096,352.025 110.549,351.536 105.387 C 349.623 85.206,343.001 68.338,331.189 53.558 C 309.295 26.163,275.273 12.967,240.500 18.384 M270.859 50.773 C 288.510 54.512,304.959 67.731,313.522 85.059 C 319.526 97.207,319.424 96.207,319.777 146.560 L 320.096 192.000 256.000 192.000 L 191.904 192.000 192.223 146.560 C 192.576 96.207,192.474 97.207,198.478 85.059 C 202.173 77.583,206.015 72.341,211.781 66.913 C 220.493 58.710,230.838 52.959,240.752 50.808 C 247.992 49.237,263.525 49.219,270.859 50.773 M381.442 227.056 C 387.119 229.719,393.575 235.972,396.396 241.538 C 397.538 243.791,398.878 248.255,399.374 251.457 C 399.977 255.353,400.195 287.348,400.031 348.160 L 399.787 439.040 397.062 444.792 C 392.318 454.806,384.051 461.408,373.827 463.347 C 367.564 464.535,144.436 464.535,138.173 463.347 C 127.949 461.408,119.682 454.806,114.938 444.792 L 112.213 439.040 111.969 348.160 C 111.805 287.273,112.023 255.356,112.628 251.449 C 114.440 239.750,121.349 230.894,132.133 226.448 L 136.960 224.458 256.853 224.656 L 376.747 224.853 381.442 227.056 " stroke="none" fill-rule="evenodd" fill="black"></path></svg>