<svg xmlns="http://www.w3.org/2000/svg" width="512" height="512" viewBox="0 0 512 512"><path d="M239.611 17.495 C 210.615 22.373,183.878 42.059,170.669 68.255 C 166.622 76.282,163.895 83.854,161.906 92.587 C 160.288 99.688,160.130 103.716,159.801 146.023 L 159.445 191.779 146.069 192.250 C 131.286 192.771,125.921 193.886,116.455 198.406 C 100.507 206.021,88.633 219.803,82.644 237.653 L 80.640 243.627 80.397 341.333 C 80.124 451.384,79.811 445.436,86.616 459.520 C 93.315 473.383,102.630 482.696,116.480 489.378 C 130.604 496.191,121.794 495.787,256.000 495.787 C 390.206 495.787,381.396 496.191,395.520 489.378 C 409.370 482.696,418.685 473.383,425.384 459.520 C 432.189 445.436,431.876 451.384,431.603 341.333 L 431.360 243.627 429.356 237.653 C 422.073 215.948,406.159 200.492,384.427 194.016 C 379.670 192.599,372.654 192.471,285.612 192.220 L 191.917 191.950 192.205 146.535 C 192.531 95.298,192.336 97.033,199.333 83.020 C 207.551 66.563,223.360 54.052,241.297 49.809 C 248.776 48.041,263.224 48.041,270.703 49.809 C 291.501 54.728,308.799 70.347,316.283 90.965 C 317.982 95.646,318.667 99.529,320.557 115.192 C 320.933 118.308,321.762 119.766,324.998 123.002 C 328.244 126.248,329.738 127.095,333.107 127.600 C 341.807 128.905,349.678 123.664,351.454 115.384 C 353.044 107.972,350.547 90.860,346.185 79.271 C 335.795 51.668,314.749 30.998,287.253 21.392 C 273.117 16.453,254.738 14.950,239.611 17.495 " stroke="none" fill-rule="evenodd" fill="black"></path></svg>