<svg xmlns="http://www.w3.org/2000/svg" width="512" height="512" viewBox="0 0 512 512"><path d="M239.495 17.576 C 208.359 23.201,182.414 43.191,168.945 71.933 C 164.484 81.452,161.458 93.037,160.428 104.533 C 159.966 109.696,159.585 131.438,159.581 152.849 L 159.573 191.778 145.707 192.215 C 134.621 192.564,130.642 193.031,125.867 194.543 C 109.803 199.631,96.101 210.654,87.661 225.280 C 86.442 227.392,84.364 232.192,83.042 235.947 L 80.640 242.773 80.640 343.893 L 80.640 445.013 82.965 451.840 C 86.377 461.859,90.831 468.858,98.987 477.013 C 107.142 485.169,114.141 489.623,124.160 493.035 L 130.987 495.360 256.000 495.360 L 381.013 495.360 387.840 493.035 C 397.859 489.623,404.858 485.169,413.013 477.013 C 421.169 468.858,425.623 461.859,429.035 451.840 L 431.360 445.013 431.360 343.893 L 431.360 242.773 428.958 235.947 C 421.925 215.964,406.889 201.388,386.133 194.434 L 380.160 192.432 286.080 192.188 L 192.000 191.943 192.006 149.518 C 192.010 124.151,192.371 104.886,192.904 101.602 C 195.148 87.774,200.744 77.245,211.542 66.537 C 224.195 53.991,237.866 48.419,256.000 48.419 C 274.134 48.419,287.805 53.991,300.458 66.537 C 313.326 79.298,319.967 94.442,319.994 111.091 C 320.002 116.233,321.155 119.200,324.532 122.768 C 329.554 128.074,336.114 129.387,342.613 126.387 C 350.439 122.775,352.670 117.041,351.453 103.664 C 346.908 53.701,305.251 15.867,255.248 16.290 C 250.264 16.332,243.175 16.911,239.495 17.576 M381.442 227.056 C 387.119 229.719,393.575 235.972,396.396 241.538 C 397.538 243.791,398.878 248.255,399.374 251.457 C 399.977 255.353,400.195 287.348,400.031 348.160 L 399.787 439.040 397.062 444.792 C 392.318 454.806,384.051 461.408,373.827 463.347 C 367.564 464.535,144.436 464.535,138.173 463.347 C 127.949 461.408,119.682 454.806,114.938 444.792 L 112.213 439.040 111.969 348.160 C 111.805 287.273,112.023 255.356,112.628 251.449 C 114.440 239.750,121.349 230.894,132.133 226.448 L 136.960 224.458 256.853 224.656 L 376.747 224.853 381.442 227.056 " stroke="none" fill-rule="evenodd" fill="black"></path></svg>