<svg xmlns="http://www.w3.org/2000/svg" width="512" height="512" viewBox="0 0 512 512"><path d="M239.611 17.495 C 210.615 22.373,183.878 42.059,170.669 68.255 C 166.622 76.282,163.895 83.854,161.906 92.587 C 160.288 99.689,160.130 103.716,159.800 146.133 L 159.444 192.000 124.479 192.000 C 86.701 192.000,87.200 191.944,82.773 196.681 L 80.640 198.964 80.419 343.137 C 80.175 502.533,79.766 490.564,85.588 494.115 C 88.273 495.752,91.197 495.780,255.899 495.783 C 421.324 495.787,423.514 495.765,426.207 494.100 C 427.708 493.173,429.595 491.157,430.400 489.620 C 431.769 487.008,431.848 477.508,431.612 342.895 L 431.360 198.964 429.227 196.681 C 424.801 191.944,425.299 192.000,387.526 192.000 L 352.567 192.000 352.199 146.133 C 351.859 103.814,351.695 99.673,350.088 92.587 C 342.410 58.749,319.330 32.598,287.253 21.392 C 273.117 16.453,254.738 14.950,239.611 17.495 M270.885 55.454 C 280.918 58.020,288.606 62.493,296.608 70.419 C 302.309 76.065,304.211 78.680,307.469 85.352 C 313.847 98.413,314.027 100.162,314.027 149.297 L 314.027 192.000 256.000 192.000 L 197.973 192.000 197.973 149.297 C 197.973 100.162,198.153 98.413,204.531 85.352 C 211.644 70.786,225.281 59.554,240.778 55.494 C 249.397 53.237,262.148 53.220,270.885 55.454 " stroke="none" fill-rule="evenodd" fill="black"></path></svg>