<svg xmlns="http://www.w3.org/2000/svg" width="512" height="512" viewBox="0 0 512 512"><path d="M239.611 17.495 C 210.615 22.373,183.878 42.059,170.669 68.255 C 166.622 76.282,163.895 83.854,161.906 92.587 C 160.288 99.689,160.130 103.716,159.800 146.133 L 159.444 192.000 124.479 192.000 C 86.701 192.000,87.200 191.944,82.773 196.681 L 80.640 198.964 80.419 343.137 C 80.175 502.533,79.766 490.564,85.588 494.115 C 88.273 495.752,91.197 495.780,255.899 495.783 C 421.324 495.787,423.514 495.765,426.207 494.100 C 427.708 493.173,429.595 491.157,430.400 489.620 C 431.769 487.008,431.848 477.508,431.612 342.895 L 431.360 198.964 429.227 196.681 C 424.575 191.703,432.129 192.000,310.181 192.000 L 197.878 192.000 198.196 146.560 C 198.553 95.577,198.402 96.958,205.061 84.053 C 207.643 79.049,210.415 75.404,215.443 70.400 C 227.071 58.828,239.536 53.760,256.367 53.760 C 272.600 53.760,285.072 58.923,296.652 70.437 C 302.449 76.200,304.232 78.672,307.440 85.391 C 311.538 93.975,312.715 97.964,313.656 106.453 L 314.247 111.787 333.324 111.787 L 352.400 111.787 351.920 106.453 C 349.705 81.870,341.229 62.604,325.291 45.922 C 303.179 22.777,271.226 12.176,239.611 17.495 " stroke="none" fill-rule="evenodd" fill="black"></path></svg>