<svg xmlns="http://www.w3.org/2000/svg" width="512" height="512" viewBox="0 0 512 512"><path d="M239.611 17.495 C 210.615 22.373,183.878 42.059,170.669 68.255 C 166.622 76.282,163.895 83.854,161.906 92.587 C 160.288 99.688,160.130 103.716,159.801 146.023 L 159.445 191.779 146.069 192.250 C 131.286 192.771,125.921 193.886,116.455 198.406 C 100.507 206.021,88.633 219.803,82.644 237.653 L 80.640 243.627 80.397 341.333 C 80.124 451.384,79.811 445.436,86.616 459.520 C 93.315 473.383,102.630 482.696,116.480 489.378 C 130.604 496.191,121.794 495.787,256.000 495.787 C 390.206 495.787,381.396 496.191,395.520 489.378 C 409.370 482.696,418.685 473.383,425.384 459.520 C 432.189 445.436,431.876 451.384,431.603 341.333 L 431.360 243.627 429.356 237.653 C 423.367 219.803,411.493 206.021,395.545 198.406 C 386.080 193.886,380.714 192.771,365.936 192.250 L 352.566 191.779 352.198 146.023 C 351.859 103.814,351.695 99.671,350.088 92.587 C 342.410 58.749,319.330 32.598,287.253 21.392 C 273.117 16.453,254.738 14.950,239.611 17.495 M271.130 49.986 C 288.314 53.806,304.511 66.686,312.667 83.020 C 319.643 96.991,319.453 95.301,319.794 146.560 L 320.096 192.000 256.006 192.000 L 191.917 192.000 192.205 146.560 C 192.531 95.294,192.336 97.034,199.333 83.020 C 201.830 78.020,205.129 73.119,208.400 69.549 C 224.795 51.657,247.204 44.668,271.130 49.986 " stroke="none" fill-rule="evenodd" fill="black"></path></svg>