<svg xmlns="http://www.w3.org/2000/svg" width="512" height="512" viewBox="0 0 512 512"><path d="M185.600 81.418 C 182.232 82.928,178.756 86.703,177.112 90.639 C 175.949 93.424,175.787 102.744,175.787 166.799 L 175.787 239.787 119.893 239.787 L 64.000 239.787 64.000 256.000 L 64.000 272.213 119.893 272.213 L 175.787 272.213 175.805 345.387 C 175.823 414.319,175.914 418.758,177.378 421.981 C 179.339 426.297,184.296 430.698,187.928 431.349 C 189.464 431.624,246.236 431.739,314.089 431.605 L 437.458 431.360 440.919 429.070 C 443.004 427.690,445.100 425.292,446.190 423.040 L 448.000 419.301 448.000 256.000 L 448.000 92.699 446.190 88.960 C 445.100 86.708,443.004 84.310,440.919 82.930 L 437.458 80.640 312.809 80.456 C 209.960 80.303,187.712 80.472,185.600 81.418 M382.361 249.600 C 384.317 253.770,384.421 257.596,382.690 261.787 C 381.783 263.985,367.034 279.316,334.697 311.676 L 288.014 358.391 276.697 347.097 L 265.379 335.803 297.165 304.008 L 328.951 272.213 252.369 272.213 L 175.787 272.213 175.787 256.000 L 175.787 239.787 252.369 239.787 L 328.951 239.787 297.169 207.996 L 265.387 176.205 276.690 164.902 L 287.993 153.599 334.377 199.893 C 365.608 231.063,381.283 247.302,382.361 249.600 " stroke="none" fill-rule="evenodd" fill="black"></path></svg>