<svg xmlns="http://www.w3.org/2000/svg" width="512" height="512" viewBox="0 0 512 512"><path d="M217.784 81.936 C 203.898 85.574,189.862 96.319,183.248 108.373 C 176.789 120.145,176.363 122.733,176.009 152.320 C 175.696 178.573,175.708 178.802,177.660 182.564 C 178.742 184.649,181.102 187.529,182.906 188.964 C 185.839 191.298,186.798 191.573,192.000 191.573 C 197.232 191.573,198.143 191.308,201.094 188.923 C 207.745 183.547,207.735 183.596,208.213 154.880 C 208.632 129.737,208.678 129.206,210.751 125.148 C 213.233 120.288,217.282 116.506,222.677 114.010 C 226.543 112.221,226.938 112.213,311.467 112.213 C 392.704 112.213,396.554 112.283,400.558 113.827 C 406.089 115.961,411.113 120.610,413.566 125.867 L 415.557 130.133 415.546 256.000 C 415.536 380.792,415.521 381.899,413.798 385.707 C 410.718 392.510,404.819 397.397,397.489 399.218 C 391.969 400.590,240.180 400.635,233.642 399.267 C 224.142 397.280,212.335 388.798,209.448 381.889 C 208.476 379.563,208.213 374.113,208.213 356.267 C 208.213 337.737,207.972 333.021,206.893 330.438 C 201.184 316.776,182.816 316.776,177.107 330.438 C 175.271 334.832,175.217 376.478,177.036 385.063 C 180.470 401.265,192.696 415.763,210.347 424.562 C 225.600 432.166,220.093 431.788,315.657 431.774 C 408.966 431.760,405.168 431.973,417.079 426.096 C 424.306 422.531,433.807 414.130,438.544 407.117 C 442.437 401.354,445.824 393.046,447.076 386.190 C 448.370 379.100,448.370 132.900,447.076 125.810 C 443.074 103.895,424.625 85.090,403.257 81.148 C 399.790 80.508,370.734 80.228,311.097 80.260 C 228.217 80.305,223.699 80.386,217.784 81.936 M281.173 161.636 C 273.561 165.034,270.154 174.306,273.533 182.427 C 274.413 184.542,283.868 194.634,301.875 212.680 L 328.897 239.759 202.208 239.986 C 77.264 240.210,75.480 240.237,72.624 241.920 C 71.031 242.859,68.535 245.102,67.077 246.906 C 64.692 249.857,64.427 250.768,64.427 256.000 C 64.427 261.202,64.702 262.161,67.036 265.094 C 68.471 266.898,71.337 269.237,73.404 270.293 L 77.162 272.213 203.043 272.213 L 328.924 272.213 301.889 299.307 C 283.872 317.363,274.413 327.458,273.533 329.573 C 268.047 342.759,280.003 355.330,293.724 350.802 C 295.761 350.130,308.949 337.459,339.777 306.557 C 380.389 265.847,383.011 263.036,383.563 259.627 C 383.886 257.632,383.886 254.368,383.563 252.373 C 383.011 248.966,380.386 246.146,340.181 205.776 C 315.665 181.159,296.214 162.297,294.641 161.616 C 291.198 160.125,284.537 160.135,281.173 161.636 " stroke="none" fill-rule="evenodd" fill="black"></path></svg>