<svg xmlns="http://www.w3.org/2000/svg" width="512" height="512" viewBox="0 0 512 512"><path d="M89.784 81.936 C 80.196 84.448,72.187 89.085,64.772 96.418 C 57.490 103.619,53.214 110.634,50.203 120.320 L 48.213 126.720 48.213 256.000 L 48.213 385.280 50.203 391.680 C 55.603 409.049,68.150 422.348,85.333 428.914 L 91.733 431.360 181.545 431.592 C 260.508 431.796,272.053 431.663,277.119 430.491 C 293.900 426.607,309.539 413.041,315.959 396.800 C 319.472 387.911,320.000 382.705,320.000 356.936 C 320.000 329.666,319.889 329.056,314.026 324.037 C 307.536 318.482,298.733 318.877,292.616 324.999 C 288.138 329.480,287.577 333.309,287.555 359.509 C 287.537 380.153,287.403 382.161,285.798 385.707 C 282.579 392.817,276.555 397.628,268.763 399.311 C 265.320 400.054,242.541 400.247,181.333 400.051 C 99.253 399.789,98.527 399.772,94.677 397.990 C 89.282 395.494,85.233 391.712,82.751 386.852 L 80.640 382.720 80.640 256.000 L 80.640 129.280 82.751 125.148 C 85.233 120.288,89.282 116.506,94.677 114.010 C 98.523 112.231,99.309 112.211,176.640 111.971 C 228.307 111.810,256.688 112.032,260.537 112.627 C 270.632 114.188,282.165 121.597,285.902 128.923 C 287.429 131.917,287.573 134.034,287.573 153.524 C 287.573 176.814,288.235 182.094,291.667 186.173 C 295.989 191.308,304.083 193.361,310.001 190.822 C 313.347 189.386,317.866 184.749,319.094 181.491 C 320.600 177.497,320.284 132.036,318.707 125.833 C 314.452 109.093,301.713 94.899,283.173 86.238 C 269.901 80.039,272.835 80.208,179.449 80.260 C 100.159 80.305,95.690 80.388,89.784 81.936 M361.387 161.420 C 354.251 165.357,351.024 172.119,352.609 179.809 C 353.409 183.691,354.833 185.280,381.280 211.825 L 409.109 239.757 290.101 239.985 L 171.093 240.213 167.484 242.560 C 157.758 248.883,157.975 263.631,167.886 269.792 L 171.093 271.787 290.104 272.012 L 409.115 272.237 381.283 300.172 C 354.607 326.946,353.415 328.280,352.588 332.288 C 352.114 334.588,351.851 336.892,352.005 337.408 C 352.158 337.924,352.514 339.396,352.794 340.678 C 353.430 343.581,357.821 348.670,361.197 350.416 C 364.268 352.004,369.723 352.193,373.784 350.853 C 375.989 350.125,387.939 338.675,419.566 306.987 C 463.552 262.916,464.204 262.172,464.204 256.000 C 464.204 249.832,463.531 249.063,419.996 205.443 C 396.694 182.095,376.412 162.415,374.925 161.709 C 371.787 160.220,363.868 160.051,361.387 161.420 " stroke="none" fill-rule="evenodd" fill="black"></path></svg>