<svg xmlns="http://www.w3.org/2000/svg" width="512" height="512" viewBox="0 0 512 512"><path d="M57.600 81.423 C 54.234 82.925,50.757 86.700,49.112 90.639 C 47.929 93.470,47.789 111.291,47.805 256.186 C 47.823 412.413,47.884 418.689,49.404 421.973 C 51.244 425.946,54.880 429.589,58.296 430.879 C 59.952 431.505,98.988 431.787,184.106 431.787 L 307.514 431.787 311.254 429.977 C 313.506 428.886,315.903 426.790,317.283 424.706 L 319.573 421.245 319.800 346.729 L 320.028 272.213 364.596 272.213 L 409.165 272.213 377.173 304.213 L 345.182 336.214 356.485 347.517 L 367.788 358.820 414.349 312.317 C 439.958 286.740,461.538 264.661,462.305 263.253 C 463.116 261.764,463.699 258.730,463.699 256.000 C 463.699 253.270,463.116 250.236,462.305 248.747 C 461.538 247.339,439.958 225.260,414.349 199.683 L 367.788 153.180 356.485 164.483 L 345.182 175.786 377.173 207.787 L 409.165 239.787 364.596 239.787 L 320.028 239.787 319.800 165.271 L 319.573 90.755 317.283 87.294 C 315.903 85.210,313.506 83.114,311.254 82.023 L 307.514 80.213 183.837 80.247 C 82.406 80.274,59.700 80.486,57.600 81.423 M320.000 256.000 L 320.000 272.213 240.213 272.213 L 160.427 272.213 160.427 256.000 L 160.427 239.787 240.213 239.787 L 320.000 239.787 320.000 256.000 " stroke="none" fill-rule="evenodd" fill="black"></path></svg>