<svg xmlns="http://www.w3.org/2000/svg" width="512" height="512" viewBox="0 0 512 512"><path d="M91.733 81.460 C 72.764 85.652,57.465 99.643,50.613 119.064 L 48.213 125.867 48.213 256.000 L 48.213 386.133 50.834 393.468 C 57.431 411.937,71.904 425.445,90.075 430.092 C 96.471 431.728,99.703 431.787,183.893 431.787 C 267.881 431.787,271.329 431.725,277.667 430.104 C 287.857 427.498,295.484 423.066,303.372 415.168 C 310.504 408.027,314.035 402.394,317.561 392.533 L 319.544 386.987 319.806 329.600 L 320.068 272.213 364.616 272.213 L 409.163 272.213 381.679 299.733 C 363.224 318.212,353.764 328.296,352.884 330.426 C 351.160 334.600,351.255 338.428,353.186 342.613 C 357.052 350.989,366.175 354.542,374.187 350.791 C 376.484 349.716,391.454 335.287,419.982 306.650 C 463.519 262.948,464.204 262.163,464.204 256.000 C 464.204 249.841,463.498 249.032,420.409 205.777 C 392.181 177.440,377.337 163.137,375.040 162.062 C 365.280 157.493,353.846 163.789,352.651 174.390 C 351.788 182.042,352.296 182.703,381.734 212.267 L 409.138 239.787 364.569 239.787 L 320.000 239.787 319.987 185.387 C 319.977 139.919,319.763 130.090,318.688 125.528 C 315.000 109.881,301.744 94.993,284.084 86.664 C 270.531 80.271,277.252 80.678,182.187 80.494 C 113.978 80.362,95.826 80.556,91.733 81.460 M320.000 256.014 L 320.000 272.241 245.973 272.014 C 161.893 271.756,167.711 272.272,162.872 264.641 C 156.913 255.246,161.832 243.187,172.679 240.601 C 174.154 240.249,207.904 239.922,247.680 239.874 L 320.000 239.787 320.000 256.014 " stroke="none" fill-rule="evenodd" fill="black"></path></svg>