<svg xmlns="http://www.w3.org/2000/svg" width="512" height="512" viewBox="0 0 512 512"><path d="M219.733 81.470 C 200.796 85.618,185.422 99.679,178.629 119.064 L 176.246 125.867 175.977 182.795 L 175.708 239.722 125.614 239.968 C 71.106 240.235,73.190 240.049,68.521 245.051 C 60.767 253.355,63.760 266.431,74.438 270.893 C 77.166 272.033,84.311 272.213,126.693 272.213 L 175.787 272.213 175.801 325.760 C 175.814 369.425,176.047 380.409,177.065 385.280 C 180.665 402.503,195.228 418.542,214.583 426.599 C 227.308 431.897,224.548 431.756,315.810 431.772 C 395.926 431.786,399.337 431.723,405.667 430.104 C 415.857 427.498,423.484 423.066,431.372 415.168 C 438.698 407.833,442.268 402.038,445.581 392.107 L 447.573 386.133 447.573 256.000 L 447.573 125.867 445.581 119.893 C 442.279 109.995,438.692 104.164,431.362 96.782 C 423.461 88.825,414.131 83.601,404.053 81.493 C 395.681 79.741,227.722 79.721,219.733 81.470 M294.827 162.065 C 299.626 164.316,380.883 245.835,382.690 250.213 C 384.420 254.402,384.318 258.228,382.365 262.400 C 381.290 264.697,366.849 279.682,338.223 308.208 C 300.542 345.758,295.308 350.670,292.426 351.193 C 284.356 352.657,277.798 349.564,274.332 342.659 C 271.990 337.994,271.769 335.741,273.155 330.667 C 273.935 327.811,278.563 322.759,301.494 299.733 L 328.901 272.213 252.344 272.213 L 175.787 272.213 175.787 256.000 L 175.787 239.787 252.344 239.787 L 328.901 239.787 301.494 212.267 C 278.563 189.241,273.935 184.189,273.155 181.333 C 271.857 176.580,272.003 174.199,273.842 170.150 C 277.747 161.550,286.521 158.170,294.827 162.065 " stroke="none" fill-rule="evenodd" fill="black"></path></svg>