<svg xmlns="http://www.w3.org/2000/svg" width="512" height="512" viewBox="0 0 512 512"><path d="M83.797 33.451 C 83.234 34.014,82.773 35.349,82.773 36.418 C 82.773 37.884,107.585 62.088,184.005 135.171 L 285.236 231.982 315.308 203.244 C 337.321 182.207,345.123 174.256,344.423 173.571 C 342.157 171.354,88.573 32.427,86.792 32.427 C 85.708 32.427,84.361 32.887,83.797 33.451 M49.128 56.808 C 47.916 58.019,47.787 77.273,47.787 256.000 C 47.787 434.727,47.916 453.981,49.128 455.192 C 49.865 455.930,51.344 456.533,52.414 456.533 C 53.845 456.533,81.488 430.083,156.887 356.565 C 213.276 301.582,259.413 256.329,259.413 256.003 C 259.413 255.676,213.281 210.422,156.897 155.438 C 81.194 81.615,53.868 55.467,52.424 55.467 C 51.349 55.467,49.865 56.070,49.128 56.808 M344.191 223.609 C 325.958 241.059,311.040 255.639,311.040 256.010 C 311.040 257.251,377.342 320.093,378.376 319.832 C 378.937 319.690,395.504 310.741,415.191 299.947 C 445.224 283.480,451.755 279.563,455.757 275.618 C 461.451 270.006,463.730 264.398,463.730 256.000 C 463.730 247.580,461.452 241.992,455.734 236.382 C 451.725 232.448,445.161 228.517,415.551 212.315 C 396.086 201.664,379.526 192.709,378.751 192.416 C 377.716 192.024,368.522 200.323,344.191 223.609 M183.959 376.876 C 94.270 462.647,82.703 473.996,82.937 475.995 C 83.098 477.381,84.015 478.658,85.309 479.300 C 87.198 480.237,88.188 479.927,94.788 476.333 C 147.813 447.456,345.488 338.229,345.353 337.880 C 345.254 337.623,331.689 324.498,315.209 308.714 L 285.245 280.015 183.959 376.876 " stroke="none" fill-rule="evenodd" fill="black"></path></svg>