<svg xmlns="http://www.w3.org/2000/svg" width="512" height="512" viewBox="0 0 512 512"><path d="M47.787 91.172 L 47.787 134.558 62.507 135.093 C 168.286 138.938,264.808 192.431,322.104 278.963 C 356.089 330.289,374.041 386.634,376.844 450.773 L 377.431 464.213 420.822 464.213 L 464.213 464.213 464.206 459.307 C 464.190 449.387,462.464 425.856,460.746 412.160 C 436.956 222.454,285.447 72.545,95.573 50.842 C 86.402 49.794,56.643 47.835,49.280 47.795 C 47.877 47.787,47.787 50.418,47.787 91.172 M47.787 229.756 L 47.787 272.898 57.813 273.468 C 91.390 275.374,117.348 281.612,141.572 293.596 C 177.241 311.241,202.360 336.683,219.378 372.405 C 230.050 394.806,236.653 421.423,237.707 446.293 C 237.956 452.160,238.357 458.592,238.599 460.587 L 239.038 464.213 282.079 464.213 L 325.120 464.213 325.120 456.197 C 325.120 440.739,321.904 417.015,317.299 398.507 C 287.728 279.645,181.748 192.467,60.373 187.164 L 47.787 186.614 47.787 229.756 M96.000 344.292 C 73.356 349.231,55.985 366.231,50.247 389.067 C 47.695 399.221,48.245 412.187,51.657 422.316 C 57.753 440.415,73.590 455.506,92.587 461.318 C 100.605 463.772,117.973 463.574,125.867 460.940 C 136.613 457.354,143.226 453.299,151.111 445.462 C 157.196 439.415,159.113 436.810,162.438 430.078 C 167.678 419.465,169.261 411.897,168.688 400.213 C 167.911 384.390,162.564 372.462,151.062 360.889 C 145.014 354.803,142.411 352.887,135.678 349.563 C 131.220 347.363,124.885 345.002,121.600 344.316 C 114.321 342.797,102.904 342.787,96.000 344.292 " stroke="none" fill-rule="evenodd" fill="black"></path></svg>