<svg xmlns="http://www.w3.org/2000/svg" width="512" height="512" viewBox="0 0 512 512"><path d="M235.520 32.958 C 199.938 37.214,172.516 45.870,145.493 61.378 C 64.490 107.864,20.892 197.523,34.553 289.524 C 43.459 349.506,77.728 404.401,128.402 439.859 C 180.439 476.272,246.979 488.747,308.570 473.636 C 362.100 460.504,408.138 428.931,439.859 383.598 C 480.097 326.095,490.732 252.037,468.382 184.977 C 465.570 176.538,459.365 161.322,458.256 160.143 C 457.888 159.752,455.734 161.413,453.469 163.835 C 447.477 170.241,439.184 176.164,431.099 179.812 C 425.940 182.140,424.124 183.363,424.424 184.305 C 424.651 185.017,426.429 190.016,428.375 195.413 C 435.411 214.923,438.613 233.873,438.613 256.000 C 438.613 279.125,434.759 300.639,427.037 320.620 C 402.568 383.929,347.484 427.835,280.600 437.342 C 267.845 439.155,244.155 439.155,231.400 437.342 C 178.955 429.888,133.091 401.077,103.707 357.128 C 75.562 315.033,66.299 261.366,78.600 211.667 C 96.586 138.993,158.387 84.126,232.947 74.636 C 248.096 72.708,273.311 73.251,287.573 75.813 C 303.378 78.652,322.380 84.702,333.821 90.539 L 336.984 92.153 340.633 85.138 C 343.944 78.775,353.446 65.757,354.843 65.672 C 355.157 65.652,357.097 64.114,359.155 62.254 L 362.897 58.870 353.182 54.298 C 332.775 44.695,310.955 37.884,289.707 34.486 C 281.517 33.176,242.818 32.085,235.520 32.958 M392.960 70.972 C 380.767 73.280,366.666 84.168,361.097 95.573 C 358.215 101.476,355.870 110.857,355.870 116.480 C 355.870 128.081,361.092 140.220,369.849 148.977 C 382.071 161.199,397.680 165.529,414.244 161.293 C 422.882 159.083,429.285 155.375,435.740 148.845 C 444.343 140.140,448.833 129.042,448.833 116.480 C 448.833 103.630,444.298 92.651,435.279 83.671 C 424.202 72.640,408.708 67.991,392.960 70.972 M247.040 154.570 C 220.506 156.548,193.685 170.657,177.085 191.368 C 156.361 217.224,149.086 249.697,157.039 280.846 C 166.422 317.598,194.402 345.578,231.154 354.961 C 272.957 365.635,317.297 348.319,341.434 311.893 C 348.200 301.683,353.366 288.954,356.326 275.200 C 358.332 265.878,358.332 246.122,356.326 236.800 C 350.777 211.018,337.409 189.760,316.990 174.247 C 303.719 164.164,282.372 155.852,267.093 154.818 C 263.573 154.580,259.541 154.283,258.133 154.159 C 256.725 154.035,251.733 154.220,247.040 154.570 " stroke="none" fill-rule="evenodd" fill="black"></path></svg>