<svg xmlns="http://www.w3.org/2000/svg" width="512" height="512" viewBox="0 0 512 512"><path d="M184.416 33.731 C 168.849 38.067,155.544 51.574,151.539 67.110 C 149.787 73.903,149.798 85.423,151.563 91.365 C 155.268 103.845,165.005 115.772,175.787 121.036 C 185.205 125.634,190.338 126.262,218.667 126.279 L 244.053 126.293 244.053 100.850 C 244.053 86.523,243.655 73.195,243.141 70.343 C 240.368 54.949,227.899 40.320,212.873 34.833 C 206.245 32.413,191.236 31.832,184.416 33.731 M302.933 33.648 C 287.477 37.950,276.438 48.458,270.196 64.812 C 268.420 69.464,268.384 70.696,268.138 135.418 C 267.860 208.257,267.791 207.142,273.294 218.398 C 276.972 225.921,286.079 235.028,293.602 238.706 C 301.766 242.697,309.619 244.333,317.867 243.760 C 329.569 242.947,338.814 238.828,347.506 230.557 C 353.750 224.614,357.159 219.267,359.986 210.981 L 362.240 204.373 362.240 138.667 C 362.240 78.512,362.113 72.499,360.734 67.510 C 356.216 51.153,343.013 37.847,327.218 33.733 C 321.241 32.176,308.383 32.131,302.933 33.648 M66.133 151.779 C 51.102 156.099,38.826 168.218,34.036 183.467 C 30.196 195.691,32.434 211.551,39.501 222.191 C 45.572 231.331,52.982 237.174,63.898 241.426 L 69.547 243.627 135.418 243.870 C 192.730 244.082,202.037 243.940,207.043 242.779 C 224.990 238.617,238.569 224.998,242.839 206.878 C 247.483 187.174,236.866 164.601,218.621 155.391 C 208.046 150.053,210.059 150.181,137.421 150.247 C 77.445 150.303,70.774 150.446,66.133 151.779 M420.789 151.535 C 409.019 154.701,396.150 165.165,390.964 175.787 C 386.366 185.205,385.738 190.338,385.721 218.667 L 385.707 244.053 411.150 244.053 C 425.477 244.053,438.805 243.655,441.657 243.141 C 444.441 242.640,449.792 240.746,453.547 238.933 C 483.399 224.516,488.999 183.777,464.141 161.850 C 458.834 157.168,449.623 152.483,443.051 151.123 C 436.879 149.845,426.349 150.040,420.789 151.535 M71.680 268.536 C 63.355 269.930,52.839 275.209,46.770 281.041 C 37.179 290.258,32.285 301.697,32.290 314.880 C 32.304 350.418,68.970 372.701,100.913 356.584 C 108.146 352.934,117.491 343.474,121.036 336.213 C 125.634 326.795,126.262 321.662,126.279 293.333 L 126.293 267.947 100.053 268.063 C 85.621 268.127,72.853 268.340,71.680 268.536 M186.880 269.283 C 178.922 271.007,171.368 275.029,165.131 280.864 C 158.394 287.166,154.918 292.506,152.014 301.019 L 149.760 307.627 149.760 373.760 C 149.760 439.598,149.768 439.920,151.644 445.867 C 160.029 472.447,187.087 486.160,213.106 477.015 C 219.201 474.873,225.365 470.807,230.695 465.412 C 235.530 460.519,238.381 455.920,241.426 448.102 L 243.627 442.453 243.870 376.582 C 244.082 319.270,243.940 309.963,242.779 304.957 C 239.493 290.788,230.552 279.515,217.600 273.211 C 207.031 268.067,197.892 266.899,186.880 269.283 M306.347 268.898 C 303.765 269.311,298.389 271.245,294.400 273.195 C 269.900 285.174,260.778 315.207,274.504 338.705 C 277.539 343.900,285.108 351.762,290.255 355.064 C 292.540 356.531,297.384 358.746,301.019 359.986 L 307.627 362.240 373.760 362.240 C 439.695 362.240,439.911 362.234,445.867 360.347 C 457.715 356.593,467.078 349.337,473.153 339.200 C 487.281 315.628,478.288 285.279,453.547 273.030 C 443.431 268.022,442.559 267.968,373.760 268.061 C 339.264 268.108,308.928 268.484,306.347 268.898 M267.947 411.071 C 267.947 425.455,268.345 438.803,268.859 441.657 C 270.950 453.266,279.141 465.417,289.521 472.309 C 304.104 481.991,323.704 482.343,339.200 473.201 C 349.131 467.343,357.570 456.105,360.461 444.890 C 366.646 420.902,353.333 396.602,329.387 388.170 C 324.132 386.320,322.366 386.200,295.893 385.883 L 267.947 385.549 267.947 411.071 " stroke="none" fill-rule="evenodd" fill="black"></path></svg>