<svg xmlns="http://www.w3.org/2000/svg" width="512" height="512" viewBox="0 0 512 512"><path d="M429.227 140.312 C 399.236 146.662,377.551 170.256,373.635 200.795 L 372.654 208.446 351.328 239.050 L 330.001 269.653 324.189 269.653 C 316.563 269.653,310.607 270.937,303.676 274.076 L 298.019 276.638 200.432 237.424 L 102.845 198.211 100.970 192.974 C 97.860 184.285,94.596 179.076,88.320 172.787 C 78.090 162.534,66.722 157.822,52.053 157.754 C 42.479 157.710,37.531 158.774,29.440 162.617 C 15.417 169.278,5.628 181.361,1.649 196.921 C -4.203 219.799,7.212 244.562,28.587 255.361 C 42.531 262.406,58.937 262.688,72.965 256.123 L 78.251 253.649 176.014 292.881 L 273.778 332.112 275.205 336.509 C 283.523 362.132,309.814 377.432,335.649 371.685 C 355.336 367.305,370.635 351.966,375.119 332.114 L 376.493 326.026 409.411 301.984 L 442.328 277.942 448.791 277.290 C 469.582 275.193,487.018 265.212,498.893 248.610 C 520.219 218.796,514.608 177.245,486.183 154.491 C 479.930 149.485,467.634 143.169,460.373 141.233 C 453.249 139.334,436.221 138.830,429.227 140.312 M452.438 163.064 C 464.913 165.633,478.133 175.754,483.603 186.925 C 490.428 200.863,490.632 214.946,484.204 228.409 C 470.498 257.115,432.389 263.587,409.840 241.038 C 390.044 221.242,392.339 188.258,414.680 171.471 C 425.386 163.427,439.229 160.345,452.438 163.064 M58.027 171.579 C 65.851 172.847,73.285 176.764,78.755 182.500 C 87.074 191.223,86.753 191.527,74.428 186.606 C 64.431 182.614,62.999 182.268,56.305 182.229 C 49.769 182.191,48.462 182.469,43.347 184.986 C 32.460 190.343,26.144 200.336,26.239 212.053 C 26.345 225.079,33.580 235.263,46.507 240.582 C 50.261 242.127,54.640 243.929,56.238 244.587 C 57.835 245.244,58.917 246.007,58.643 246.282 C 58.368 246.556,55.222 246.769,51.651 246.755 C 32.694 246.681,17.576 233.577,14.438 214.499 C 10.803 192.409,27.544 172.497,51.200 170.773 C 51.904 170.722,54.976 171.084,58.027 171.579 M434.130 173.246 C 422.362 176.218,411.771 186.370,408.395 197.915 C 403.344 215.191,411.589 233.046,428.268 240.949 C 433.487 243.422,434.606 243.627,442.880 243.627 C 451.164 243.627,452.259 243.425,457.387 240.959 C 467.510 236.091,473.869 228.858,477.034 218.613 C 482.355 201.383,474.262 183.517,457.535 175.570 C 453.091 173.459,450.828 172.955,444.735 172.721 C 440.664 172.565,435.892 172.801,434.130 173.246 M340.782 287.002 C 364.116 298.534,369.837 328.391,352.271 346.964 C 346.998 352.540,342.415 355.417,335.253 357.646 C 323.763 361.222,310.120 358.450,300.277 350.540 C 297.136 348.016,291.361 340.675,292.007 340.028 C 292.199 339.837,297.294 341.630,303.329 344.013 C 316.934 349.386,321.666 349.970,330.312 347.343 C 335.823 345.670,337.196 344.794,342.275 339.715 C 347.356 334.633,348.229 333.264,349.907 327.741 C 352.837 318.094,351.565 309.749,345.848 301.110 C 342.624 296.238,336.559 292.181,326.388 288.092 C 321.447 286.105,317.701 284.174,318.062 283.800 C 318.424 283.425,322.283 283.300,326.638 283.522 C 333.563 283.874,335.336 284.311,340.782 287.002 " stroke="none" fill-rule="evenodd" fill="black"></path></svg>