<svg xmlns="http://www.w3.org/2000/svg" width="512" height="512" viewBox="0 0 512 512"><path d="M66.712 55.306 C 59.330 75.405,54.893 95.840,52.454 120.984 C 51.140 134.530,50.942 151.772,52.007 160.000 L 52.669 165.120 48.036 170.907 C 31.511 191.548,20.648 219.355,16.988 250.382 C 16.326 256.000,16.151 267.274,16.466 284.079 C 17.090 317.309,18.868 329.566,26.197 351.147 C 30.096 362.629,37.369 378.701,42.029 386.133 C 58.354 412.173,91.353 438.428,121.870 449.655 C 134.822 454.420,154.484 458.703,174.838 461.195 C 199.504 464.215,285.773 464.974,322.409 462.493 C 344.601 460.991,367.510 456.884,384.461 451.369 C 408.704 443.482,432.870 428.220,451.467 409.051 C 464.155 395.974,469.681 388.071,477.337 372.053 C 485.438 355.105,490.987 337.155,493.722 319.047 C 495.545 306.976,496.367 262.929,494.994 250.836 C 491.546 220.450,479.516 189.762,463.218 169.776 L 459.360 165.045 460.161 158.682 C 461.185 150.552,460.417 126.336,458.711 112.958 C 456.234 93.539,452.133 75.405,446.665 59.689 C 442.109 46.596,443.539 47.629,433.300 50.038 C 402.914 57.190,368.014 73.494,330.921 97.863 L 322.643 103.303 314.281 101.627 C 298.769 98.518,286.661 97.706,256.000 97.719 C 225.486 97.731,215.163 98.433,198.741 101.613 L 189.695 103.365 176.128 94.449 C 134.611 67.168,104.478 53.817,72.051 48.335 C 69.453 47.895,69.417 47.942,66.712 55.306 M189.114 250.843 C 250.994 256.934,257.196 257.057,299.093 253.022 C 330.478 249.999,363.689 249.215,373.781 251.258 C 388.914 254.322,398.806 259.648,409.698 270.598 C 428.579 289.580,436.136 312.265,433.631 342.437 C 432.092 360.963,429.376 371.899,423.203 384.427 C 412.337 406.477,394.544 419.106,362.450 427.545 C 334.251 434.961,305.084 437.760,256.000 437.760 C 205.956 437.760,176.292 434.833,148.283 427.130 C 107.798 415.997,89.052 396.594,81.365 357.866 C 80.234 352.171,79.853 345.956,79.828 332.800 C 79.797 317.416,80.024 314.401,81.704 307.796 C 85.270 293.784,91.908 281.829,101.883 271.452 C 120.944 251.624,143.326 246.337,189.114 250.843 M164.577 291.419 C 154.811 294.553,145.536 304.793,141.225 317.200 C 138.214 325.866,137.346 342.578,139.404 352.263 C 142.470 366.695,152.199 380.079,162.379 383.868 C 168.877 386.287,177.336 386.321,182.564 383.949 C 191.543 379.876,199.474 370.061,203.578 357.941 C 206.672 348.803,207.403 334.438,205.274 324.599 C 202.242 310.587,193.663 297.868,183.893 292.903 C 178.598 290.212,170.321 289.576,164.577 291.419 M332.758 291.244 C 320.880 294.604,310.119 308.118,306.783 323.864 C 305.173 331.463,305.169 344.334,306.773 352.000 C 308.566 360.568,314.063 371.199,319.525 376.662 C 325.775 382.911,330.731 385.175,339.036 385.573 C 345.119 385.864,346.173 385.659,351.130 383.219 C 360.848 378.434,368.638 367.748,372.136 354.401 C 374.374 345.863,374.562 331.510,372.547 323.010 C 369.376 309.633,360.678 297.243,351.305 292.750 C 346.336 290.368,338.192 289.707,332.758 291.244 " stroke="none" fill-rule="evenodd" fill="black"></path></svg>