<svg xmlns="http://www.w3.org/2000/svg" width="512" height="512" viewBox="0 0 512 512"><path d="M235.947 32.932 C 234.539 33.125,228.779 33.895,223.147 34.643 C 173.627 41.218,123.400 68.219,89.358 106.565 C 58.305 141.544,39.949 181.682,33.687 228.300 C 32.038 240.579,31.799 267.116,33.223 279.893 C 43.992 376.512,114.918 454.876,210.001 475.211 C 230.275 479.547,259.489 481.036,279.893 478.772 C 362.985 469.554,433.915 415.422,464.453 337.920 C 474.913 311.374,479.784 285.134,479.739 255.573 C 479.650 195.717,456.711 140.199,414.699 98.160 C 380.626 64.064,336.936 41.887,289.280 34.497 C 280.777 33.179,242.376 32.052,235.947 32.932 M282.453 71.369 C 302.211 74.139,319.489 79.500,338.347 88.710 C 349.916 94.361,364.656 103.587,371.591 109.518 L 374.968 112.406 371.471 116.576 C 360.761 129.348,342.539 144.569,324.108 156.138 C 314.519 162.157,286.269 176.623,284.084 176.634 C 283.338 176.637,282.251 175.584,281.668 174.293 C 279.619 169.754,265.886 147.072,258.289 135.680 C 245.286 116.183,229.340 95.793,216.408 82.130 C 213.172 78.710,210.733 75.703,210.988 75.447 C 211.244 75.192,213.700 74.470,216.447 73.845 C 236.698 69.230,260.760 68.328,282.453 71.369 M181.255 100.053 C 197.201 117.057,216.031 141.776,230.180 164.280 C 237.176 175.406,245.915 190.431,245.574 190.745 C 245.100 191.183,233.204 194.511,223.147 197.020 C 203.610 201.894,179.213 206.049,154.453 208.718 C 140.966 210.172,87.731 211.376,79.947 210.404 L 75.244 209.816 76.799 204.375 C 87.942 165.412,113.154 129.528,146.347 105.391 C 155.126 99.007,169.363 90.453,171.210 90.453 C 171.783 90.453,176.303 94.773,181.255 100.053 M410.901 152.320 C 423.118 170.739,431.462 189.391,436.586 209.734 C 439.262 220.358,442.854 242.818,441.973 243.420 C 441.768 243.561,435.456 243.415,427.947 243.096 C 406.339 242.179,365.942 242.263,345.758 243.267 C 335.580 243.773,324.427 244.253,320.973 244.334 L 314.692 244.480 308.923 230.827 C 305.750 223.317,302.356 215.363,301.380 213.150 L 299.606 209.126 311.156 203.572 C 347.057 186.308,376.576 164.138,393.387 141.812 L 398.080 135.579 401.377 139.256 C 403.191 141.279,407.477 147.157,410.901 152.320 M263.966 225.920 C 264.694 227.680,267.440 233.885,270.068 239.708 C 272.696 245.531,274.541 250.554,274.169 250.870 C 273.798 251.186,270.997 252.112,267.947 252.927 C 256.823 255.899,233.196 267.207,213.966 278.761 C 175.322 301.981,142.386 334.211,121.829 368.923 C 118.541 374.475,115.572 378.699,115.231 378.309 C 93.782 353.747,78.869 322.857,72.614 290.034 C 70.629 279.620,68.748 255.605,69.547 250.878 L 70.088 247.678 103.097 247.217 C 143.797 246.648,167.090 244.473,201.544 238.024 C 215.826 235.351,244.586 228.320,255.147 224.919 C 258.667 223.786,261.793 222.828,262.094 222.789 C 262.395 222.751,263.237 224.160,263.966 225.920 M434.644 276.161 L 441.341 276.715 440.774 281.504 C 439.778 289.931,436.042 305.621,432.592 315.870 C 420.352 352.227,396.180 384.931,365.048 407.253 C 361.285 409.952,357.935 412.160,357.606 412.160 C 357.276 412.160,355.938 404.768,354.632 395.733 C 349.379 359.385,342.593 329.402,331.359 292.896 C 328.722 284.325,326.738 277.137,326.952 276.923 C 328.746 275.130,414.828 274.520,434.644 276.161 M292.511 298.453 C 306.181 340.003,316.745 386.739,321.309 425.863 L 321.862 430.606 313.465 433.325 C 274.714 445.872,235.440 445.759,197.120 432.991 C 179.257 427.040,161.880 418.187,147.387 407.656 L 141.600 403.451 145.114 396.925 C 161.486 366.528,187.707 337.689,219.558 315.054 C 236.740 302.842,261.527 289.489,275.447 284.945 C 287.721 280.938,286.405 279.897,292.511 298.453 " stroke="none" fill-rule="evenodd" fill="black"></path></svg>