<svg xmlns="http://www.w3.org/2000/svg" viewBox="0 0 512 512"><path d="M85.846 17.513 C 72.243 20.969,59.095 31.526,53.363 43.597 C 47.462 56.022,47.816 44.194,47.816 228.693 C 47.816 413.226,47.469 401.664,53.368 413.652 C 58.818 424.727,69.811 433.687,83.627 438.314 C 88.098 439.812,94.933 439.897,228.053 440.123 C 304.907 440.253,367.779 440.063,367.770 439.700 C 367.761 439.337,364.936 429.536,361.493 417.920 C 358.050 406.304,355.385 396.800,355.571 396.800 C 355.819 396.800,428.765 463.466,461.876 493.955 L 464.233 496.125 464.010 276.862 L 463.787 57.600 461.790 52.053 C 455.661 35.024,442.958 23.049,426.580 18.860 C 420.529 17.313,413.428 17.225,255.573 16.740 C 110.921 16.295,90.267 16.389,85.846 17.513 M219.720 130.260 C 220.634 131.509,219.502 132.087,209.574 135.436 C 192.036 141.353,167.338 154.108,160.853 160.598 C 159.272 162.181,159.428 162.166,162.987 160.386 C 169.969 156.893,188.888 149.605,196.693 147.400 C 217.720 141.461,232.193 139.593,257.280 139.582 C 272.088 139.575,279.211 139.948,286.293 141.098 C 306.201 144.331,325.684 150.205,341.955 157.880 C 346.797 160.164,350.531 161.665,350.254 161.216 C 349.391 159.820,337.843 152.320,330.240 148.218 C 321.464 143.483,313.081 139.842,301.452 135.713 L 292.717 132.612 294.103 130.634 C 295.407 128.773,295.846 128.691,301.558 129.246 C 319.985 131.038,339.228 138.002,356.198 149.020 L 363.809 153.962 368.243 163.381 C 378.221 184.581,387.341 211.947,392.000 234.667 C 395.322 250.872,396.672 260.912,397.800 277.813 C 398.986 295.590,399.545 293.723,390.180 303.222 C 375.842 317.764,354.747 327.284,332.546 329.232 L 324.964 329.897 320.521 324.735 C 309.566 312.007,308.631 310.662,310.323 310.067 C 326.458 304.396,335.641 299.155,344.842 290.365 C 348.561 286.812,351.434 283.736,351.228 283.530 C 351.021 283.323,348.141 284.738,344.827 286.673 C 328.576 296.164,304.039 304.541,283.672 307.552 C 247.944 312.832,211.517 306.609,176.941 289.317 L 164.016 282.853 167.412 286.910 C 174.266 295.096,190.783 305.615,202.027 308.953 C 204.021 309.546,205.653 310.199,205.653 310.405 C 205.653 310.612,202.101 315.165,197.760 320.524 L 189.867 330.268 184.320 329.787 C 157.746 327.484,134.463 316.433,120.281 299.392 L 115.804 294.012 116.337 282.046 C 118.125 241.839,130.097 195.291,147.606 160.467 C 150.840 154.036,151.542 153.241,157.246 149.551 C 171.768 140.157,189.796 132.831,203.947 130.574 C 207.467 130.012,210.923 129.440,211.627 129.302 C 215.378 128.567,218.777 128.969,219.720 130.260 M201.592 220.644 C 188.723 227.057,183.677 243.886,190.576 257.387 C 195.015 266.075,202.668 270.852,212.053 270.792 C 219.157 270.746,223.091 269.213,228.209 264.496 C 241.897 251.878,238.273 227.684,221.557 220.094 C 216.110 217.621,207.165 217.867,201.592 220.644 M290.560 220.493 C 285.245 223.013,280.570 227.823,278.028 233.387 C 275.147 239.692,275.251 249.601,278.265 256.000 C 284.561 269.367,298.695 274.690,311.076 268.358 C 334.531 256.363,326.402 218.470,300.373 218.470 C 296.306 218.470,293.688 219.010,290.560 220.493 " stroke="none" fill-rule="evenodd" fill="black"></path></svg>