<svg xmlns="http://www.w3.org/2000/svg" width="512" height="512" viewBox="0 0 512 512"><path d="M285.440 32.991 C 248.781 35.976,225.873 40.750,204.650 49.826 C 176.106 62.034,157.621 78.772,146.339 102.627 C 138.745 118.683,135.794 133.326,135.075 158.507 L 134.582 175.787 107.398 175.787 L 80.213 175.787 80.213 200.107 L 80.213 224.427 107.520 224.427 L 134.827 224.427 134.827 248.320 L 134.827 272.213 107.520 272.213 L 80.213 272.213 80.213 296.107 L 80.213 320.000 107.420 320.000 L 134.627 320.000 135.058 345.387 C 135.356 362.953,135.904 373.147,136.837 378.479 C 146.997 436.507,188.697 468.214,267.007 477.453 C 303.348 481.740,353.412 480.534,393.813 474.397 C 404.486 472.776,431.081 467.718,431.623 467.207 C 431.963 466.886,421.599 398.274,421.141 397.817 C 420.951 397.626,413.764 398.472,405.171 399.697 C 369.529 404.777,349.191 406.401,320.853 406.432 C 296.615 406.459,283.714 405.173,270.869 401.451 C 254.853 396.810,244.214 388.743,238.651 377.022 C 233.788 366.774,232.732 360.449,232.302 338.987 L 231.921 320.000 295.998 320.000 L 360.074 320.000 360.513 318.080 C 361.303 314.621,367.787 274.933,367.787 273.556 C 367.787 272.346,361.095 272.213,299.947 272.213 L 232.107 272.213 232.107 248.320 L 232.107 224.427 303.736 224.427 C 343.133 224.427,375.566 224.102,375.811 223.706 C 376.179 223.111,384.000 177.806,384.000 176.270 C 384.000 176.004,349.776 175.787,307.946 175.787 L 231.892 175.787 232.335 163.627 C 233.023 144.733,236.743 134.305,246.123 124.978 C 259.983 111.196,281.069 105.810,321.145 105.817 C 349.791 105.822,371.495 107.513,405.130 112.364 C 413.701 113.599,420.926 114.398,421.185 114.139 C 421.621 113.703,431.787 48.061,431.787 45.680 C 431.787 44.996,427.752 43.821,420.480 42.389 C 396.017 37.571,377.668 35.077,353.707 33.313 C 342.985 32.524,294.017 32.293,285.440 32.991 " stroke="none" fill-rule="evenodd" fill="black"></path></svg>