<svg xmlns="http://www.w3.org/2000/svg" width="512" height="512" viewBox="0 0 512 512"><path d="M310.936 44.163 L 294.618 55.845 333.522 107.496 C 409.127 207.871,414.903 215.467,415.629 215.467 C 416.032 215.467,423.487 210.194,432.195 203.750 L 448.029 192.034 388.175 112.230 C 355.255 68.338,328.080 32.439,327.787 32.454 C 327.493 32.469,319.910 37.738,310.936 44.163 M239.110 111.489 L 226.385 126.589 231.593 130.965 C 234.457 133.372,269.528 162.128,309.529 194.868 L 382.257 254.394 384.720 251.570 C 386.075 250.017,391.848 243.195,397.550 236.409 C 407.371 224.720,407.838 223.996,406.412 222.645 C 404.388 220.728,254.142 97.810,252.851 97.015 C 252.197 96.612,247.309 101.761,239.110 111.489 M189.535 184.533 C 188.218 187.467,184.530 195.551,181.339 202.499 C 178.014 209.740,175.864 215.433,176.302 215.838 C 177.355 216.809,357.892 299.527,358.883 299.492 C 360.159 299.446,375.829 264.553,374.958 263.697 C 374.227 262.979,193.138 179.200,192.317 179.200 C 192.103 179.200,190.851 181.600,189.535 184.533 M153.300 288.922 C 151.038 299.520,149.365 308.369,149.581 308.586 C 149.954 308.958,341.050 348.491,345.600 349.137 C 347.721 349.438,347.756 349.332,351.826 330.322 C 354.077 319.807,355.613 310.927,355.239 310.589 C 354.708 310.109,159.622 269.649,157.853 269.652 C 157.611 269.653,155.562 278.324,153.300 288.922 M64.000 400.213 L 64.000 480.427 247.893 480.427 L 431.787 480.427 431.787 400.213 L 431.787 320.000 411.733 320.000 L 391.680 320.000 391.680 380.160 L 391.680 440.320 247.893 440.320 L 104.107 440.320 104.107 380.160 L 104.107 320.000 84.053 320.000 L 64.000 320.000 64.000 400.213 M144.213 380.160 L 144.213 400.213 246.187 400.213 L 348.160 400.213 348.160 380.160 L 348.160 360.107 246.187 360.107 L 144.213 360.107 144.213 380.160 " stroke="none" fill-rule="evenodd" fill="black"></path></svg>