<svg xmlns="http://www.w3.org/2000/svg" viewBox="0 0 512 512"><path d="M91.406 114.032 C 88.456 116.098,86.838 120.527,87.954 123.479 C 88.451 124.792,98.027 141.803,109.234 161.280 C 120.441 180.757,129.824 197.269,130.084 197.973 C 130.426 198.898,127.834 200.871,120.741 205.086 C 57.229 242.817,12.777 310.264,1.701 385.703 C 0.771 392.041,0.007 397.707,0.005 398.293 C 0.001 399.144,51.766 399.360,256.000 399.360 C 460.234 399.360,511.999 399.144,511.995 398.293 C 511.978 394.202,508.097 372.114,505.661 362.237 C 490.065 299.004,452.843 245.598,400.048 210.701 C 394.559 207.073,388.127 203.049,385.754 201.757 C 383.382 200.465,381.440 199.119,381.440 198.764 C 381.440 198.409,390.516 182.438,401.609 163.273 C 425.776 121.520,425.425 122.231,423.795 118.331 C 421.303 112.365,415.022 110.780,410.540 114.987 C 409.165 116.277,398.550 133.845,386.952 154.027 C 375.353 174.208,365.780 190.821,365.677 190.943 C 365.575 191.066,360.284 189.077,353.919 186.523 C 325.755 175.222,296.773 169.361,264.107 168.361 C 225.425 167.177,188.466 173.803,154.136 188.077 C 149.973 189.808,146.474 191.111,146.360 190.972 C 146.247 190.833,136.665 174.208,125.067 154.027 C 113.468 133.845,102.849 116.277,101.469 114.987 C 98.561 112.267,94.479 111.879,91.406 114.032 M145.171 285.882 C 149.295 287.027,155.596 292.696,157.795 297.239 C 160.151 302.106,160.152 309.678,157.798 314.880 C 150.515 330.968,128.378 332.024,120.027 316.681 C 116.979 311.081,116.375 306.046,118.059 300.290 C 121.423 288.793,133.173 282.549,145.171 285.882 M382.980 287.224 C 398.903 295.158,398.661 317.641,382.567 325.634 C 377.922 327.941,368.540 327.812,363.947 325.378 C 354.121 320.172,349.542 307.233,354.030 297.354 C 355.877 293.286,362.677 287.022,366.424 285.934 C 371.786 284.378,378.286 284.884,382.980 287.224 " stroke="none" fill-rule="evenodd" fill="black"></path></svg>