<svg xmlns="http://www.w3.org/2000/svg" width="512" height="512" viewBox="0 0 512 512"><path d="M76.081 87.151 L 16.055 126.242 28.294 134.200 C 35.026 138.578,61.937 155.965,88.098 172.840 C 114.258 189.714,135.652 203.712,135.640 203.947 C 135.628 204.181,108.756 221.830,75.924 243.166 C 43.093 264.502,16.514 282.226,16.862 282.553 C 18.734 284.318,135.336 360.391,136.168 360.391 C 136.713 360.391,163.903 342.969,196.590 321.676 C 242.483 291.780,255.775 282.740,254.944 281.990 C 254.351 281.456,227.947 264.204,196.267 243.653 C 164.587 223.101,138.181 205.836,137.588 205.287 C 136.745 204.506,149.548 195.818,196.216 165.504 C 229.055 144.173,255.925 126.528,255.927 126.293 C 255.930 125.958,188.036 81.598,143.492 52.830 L 136.107 48.061 76.081 87.151 M316.345 86.959 C 283.634 108.358,256.873 126.059,256.876 126.293 C 256.885 126.972,375.618 203.378,376.661 203.376 C 377.419 203.375,478.878 137.767,492.187 128.671 L 495.841 126.174 442.694 91.553 C 413.463 72.511,386.458 54.934,382.683 52.492 L 375.819 48.052 316.345 86.959 M315.882 243.323 C 267.811 274.618,256.936 282.036,257.855 282.902 C 260.100 285.017,374.861 360.391,375.836 360.391 C 376.635 360.391,492.684 285.422,495.195 283.284 C 495.821 282.751,377.073 204.793,375.652 204.805 C 375.315 204.808,348.419 222.141,315.882 243.323 M195.975 346.374 C 163.665 367.437,136.921 384.999,136.543 385.401 C 135.998 385.984,252.901 462.898,255.395 463.597 C 256.151 463.809,375.456 386.377,375.406 385.707 C 375.355 385.035,257.245 308.504,255.913 308.279 C 255.257 308.169,228.285 325.312,195.975 346.374 " stroke="none" fill-rule="evenodd" fill="black"></path></svg>