<svg xmlns="http://www.w3.org/2000/svg" width="512" height="512" viewBox="0 0 512 512"><path d="M344.394 42.737 C 323.497 45.591,293.240 62.010,268.718 83.804 C 264.866 87.226,260.436 91.106,258.871 92.424 L 256.027 94.822 248.974 88.564 C 223.526 65.986,198.496 51.007,176.234 45.034 C 166.263 42.358,149.284 42.351,142.143 45.020 C 125.350 51.296,114.960 66.925,110.490 92.635 C 108.537 103.873,108.504 126.438,110.421 140.800 C 111.666 150.122,115.083 168.525,116.534 173.722 C 116.984 175.333,116.099 175.795,106.942 178.726 C 57.683 194.491,25.146 218.683,17.472 245.249 C 15.402 252.414,16.042 263.186,18.962 270.318 C 25.500 286.291,39.243 300.657,60.160 313.383 C 73.732 321.641,83.913 326.294,103.680 333.275 C 110.720 335.761,116.390 338.190,116.279 338.673 C 107.318 377.877,106.526 411.188,114.011 434.117 C 121.905 458.300,136.659 469.778,159.573 469.564 C 184.760 469.329,214.966 454.418,247.536 426.142 L 256.984 417.939 259.265 420.030 C 288.071 446.427,312.561 461.588,336.105 467.599 C 365.582 475.125,386.765 464.368,396.947 436.702 C 401.351 424.734,402.832 415.906,403.353 398.507 C 403.881 380.882,402.603 366.429,398.939 348.587 C 397.782 342.955,396.827 337.898,396.818 337.350 C 396.808 336.801,399.392 335.502,402.560 334.463 C 446.703 319.986,479.232 298.278,490.637 275.685 C 496.351 264.366,497.312 251.948,493.294 241.369 C 484.064 217.070,452.128 194.504,404.842 178.870 L 395.391 175.745 397.704 164.459 C 407.472 116.793,402.894 75.424,385.720 56.155 C 375.778 45.001,361.579 40.390,344.394 42.737 M364.122 64.972 C 381.794 73.362,387.368 115.147,377.128 162.480 C 376.224 166.660,375.340 170.225,375.163 170.401 C 374.987 170.577,371.431 169.968,367.261 169.048 C 356.655 166.706,335.259 163.259,322.276 161.801 C 316.254 161.124,311.230 160.442,311.112 160.285 C 310.994 160.128,306.911 154.632,302.039 148.072 C 294.237 137.567,282.857 123.560,273.599 113.067 L 270.587 109.653 274.600 106.006 C 311.554 72.417,346.279 56.500,364.122 64.972 M170.240 64.798 C 186.837 68.783,207.417 80.490,228.485 97.932 C 233.058 101.718,237.912 105.983,239.271 107.411 L 241.741 110.006 235.808 116.656 C 226.517 127.070,218.520 136.874,209.501 148.907 C 204.928 155.008,200.559 160.233,199.793 160.517 C 199.027 160.802,195.328 161.296,191.573 161.616 C 182.746 162.368,159.302 165.987,146.774 168.532 C 141.377 169.628,136.905 170.461,136.838 170.383 C 136.514 170.006,132.249 148.050,131.257 141.653 C 130.574 137.246,130.142 127.035,130.156 115.627 C 130.176 99.151,130.409 95.940,132.059 89.393 C 135.754 74.728,141.532 66.542,149.985 63.996 C 154.114 62.753,163.226 63.114,170.240 64.798 M271.787 142.565 C 275.541 147.121,279.816 152.523,281.286 154.571 L 283.960 158.293 255.997 158.293 L 228.035 158.293 230.669 154.880 C 236.397 147.457,244.649 137.490,250.301 131.166 L 256.243 124.518 260.601 129.400 C 262.999 132.086,268.032 138.010,271.787 142.565 M293.973 179.935 L 299.947 180.480 304.463 187.307 C 308.687 193.692,321.783 215.247,327.275 224.853 C 328.617 227.200,332.847 235.151,336.677 242.522 L 343.639 255.924 336.562 269.603 C 327.790 286.560,317.836 303.923,307.823 319.730 L 300.157 331.834 294.505 332.530 C 287.396 333.406,220.001 333.396,215.675 332.518 C 212.844 331.943,211.891 331.003,207.493 324.440 C 196.468 307.990,180.368 280.060,171.804 262.531 L 168.533 255.835 176.118 241.225 C 185.202 223.726,195.644 205.740,205.316 190.933 C 212.283 180.267,212.486 180.051,215.651 179.946 C 217.427 179.887,224.448 179.544,231.253 179.184 C 244.063 178.505,283.489 178.978,293.973 179.935 M184.677 184.960 C 180.409 191.441,170.570 208.111,164.936 218.406 C 161.455 224.768,158.329 230.258,157.989 230.605 C 157.650 230.952,155.888 227.496,154.075 222.925 C 149.332 210.970,142.392 190.977,142.831 190.538 C 143.459 189.910,162.739 186.191,174.507 184.428 C 180.608 183.513,185.740 182.731,185.911 182.689 C 186.083 182.648,185.527 183.669,184.677 184.960 M345.757 185.974 C 363.858 189.044,369.493 190.250,369.493 191.050 C 369.493 193.207,355.360 231.253,354.558 231.253 C 354.397 231.253,351.667 226.549,348.492 220.800 C 345.317 215.051,339.290 204.587,335.099 197.547 C 330.908 190.507,327.309 184.459,327.102 184.107 C 326.443 182.986,330.603 183.403,345.757 185.974 M126.599 207.579 C 130.881 220.132,138.689 240.135,143.261 250.266 L 145.872 256.053 141.141 266.901 C 135.617 279.566,126.280 304.402,124.115 312.186 C 122.322 318.638,123.348 318.606,106.981 312.722 C 77.490 302.121,52.712 286.153,42.562 271.206 C 35.700 261.101,34.982 254.529,39.709 245.081 C 48.198 228.112,74.624 211.121,111.787 198.734 C 117.184 196.936,121.792 195.455,122.027 195.444 C 122.261 195.433,124.319 200.894,126.599 207.579 M403.776 200.210 C 445.924 214.825,475.303 237.469,475.306 255.343 C 475.308 270.266,457.822 287.531,427.947 302.102 C 416.797 307.540,396.380 315.512,392.451 315.962 C 390.946 316.134,390.067 314.365,385.767 302.507 C 380.389 287.679,374.937 274.209,369.706 262.827 L 366.372 255.573 369.305 249.173 C 373.976 238.979,381.884 218.908,385.873 207.123 C 388.621 199.006,389.907 196.269,390.976 196.268 C 391.762 196.267,397.522 198.041,403.776 200.210 M246.427 213.748 C 234.973 216.659,223.463 225.407,218.260 235.157 C 211.719 247.415,211.715 263.684,218.249 275.989 C 221.405 281.933,230.626 290.893,236.533 293.755 C 253.703 302.075,271.741 299.408,285.529 286.510 C 300.710 272.309,303.480 248.592,291.919 231.796 C 289.018 227.582,282.379 221.271,278.060 218.623 C 269.698 213.497,255.829 211.359,246.427 213.748 M362.174 298.057 C 369.057 315.709,370.714 320.842,369.801 321.683 C 368.619 322.771,331.895 329.387,327.034 329.387 C 326.565 329.387,329.734 323.467,334.077 316.231 C 338.421 308.996,344.803 297.875,348.260 291.517 C 355.630 277.966,354.052 277.224,362.174 298.057 M165.596 294.827 C 169.474 301.867,175.658 312.544,179.337 318.555 C 183.016 324.566,186.027 329.593,186.027 329.728 C 186.027 330.681,144.256 323.682,143.026 322.523 C 142.587 322.109,143.608 317.906,145.442 312.583 C 150.636 297.502,157.371 280.760,157.979 281.415 C 158.291 281.752,161.718 287.787,165.596 294.827 M378.129 349.440 C 387.274 391.535,383.348 430.770,368.663 444.037 C 364.172 448.095,357.309 450.093,350.323 449.377 C 329.778 447.272,303.722 432.593,276.085 407.555 L 270.997 402.945 276.579 396.673 C 284.223 388.083,298.033 370.628,305.353 360.305 L 311.417 351.752 317.629 351.177 C 328.464 350.174,352.498 346.559,362.667 344.402 C 376.827 341.399,376.348 341.243,378.129 349.440 M148.140 344.765 C 158.783 346.954,183.237 350.427,193.411 351.193 L 201.221 351.781 206.565 359.144 C 214.057 369.465,226.348 384.721,235.004 394.444 C 239.043 398.980,242.347 402.876,242.347 403.103 C 242.347 404.011,222.640 420.404,215.040 425.819 C 199.398 436.964,181.903 445.478,169.435 448.012 C 162.165 449.490,152.951 449.317,148.893 447.628 C 141.213 444.431,134.612 434.508,131.742 421.849 C 129.902 413.732,129.230 388.925,130.525 376.937 C 131.535 367.590,134.083 352.655,135.762 346.240 C 136.757 342.436,136.799 342.431,148.140 344.765 M284.160 354.057 C 284.159 355.623,258.138 387.413,256.858 387.413 C 255.517 387.413,228.692 355.759,228.694 354.179 C 228.694 353.919,241.174 353.707,256.428 353.707 C 271.681 353.707,284.160 353.864,284.160 354.057 " stroke="none" fill-rule="evenodd" fill="black"></path></svg>