<svg id="Layer_1" data-name="Layer 1" xmlns="http://www.w3.org/2000/svg" viewBox="0 0 512 512"><path d="M106.367 31.596 C 102.683 32.700,98.344 35.920,96.048 39.253 C 94.779 41.096,83.370 75.249,66.258 128.427 C 51.005 175.829,33.409 230.357,27.156 249.600 C 16.674 281.856,15.787 285.088,15.787 291.006 C 15.787 296.500,16.179 298.221,18.510 302.952 C 20.008 305.993,22.504 309.682,24.057 311.151 C 27.330 314.247,247.553 475.860,250.827 477.568 C 253.933 479.190,257.688 478.985,260.912 477.020 C 268.646 472.304,484.780 313.208,487.865 309.960 C 492.687 304.882,495.201 298.227,495.192 290.560 C 495.185 285.166,493.779 280.242,480.683 239.787 C 472.708 215.147,455.085 160.427,441.522 118.187 L 416.862 41.387 412.591 37.091 C 408.056 32.530,403.889 30.720,397.921 30.720 C 393.493 30.720,386.019 34.576,383.035 38.400 C 381.342 40.569,377.319 51.895,368.335 79.787 C 361.532 100.907,350.455 135.275,343.718 156.160 L 331.471 194.133 256.023 194.351 C 214.526 194.471,180.268 194.263,179.893 193.888 C 179.519 193.513,168.654 160.391,155.750 120.283 C 142.845 80.175,131.669 45.713,130.914 43.700 C 127.232 33.891,116.449 28.574,106.367 31.596 M133.918 126.481 C 145.682 162.940,155.307 193.173,155.307 193.665 C 155.307 194.278,141.674 194.560,112.122 194.560 C 77.954 194.560,69.012 194.337,69.293 193.493 C 69.488 192.907,79.205 162.582,90.885 126.106 C 102.566 89.629,112.214 59.876,112.326 59.988 C 112.438 60.100,122.155 90.022,133.918 126.481 M421.522 129.894 C 432.800 164.963,442.027 193.859,442.027 194.108 C 442.027 194.356,422.635 194.560,398.933 194.560 C 367.325 194.560,355.840 194.302,355.840 193.590 C 355.840 193.057,364.457 165.889,374.989 133.217 C 385.520 100.545,395.176 70.549,396.445 66.560 L 398.753 59.307 399.886 62.720 C 400.508 64.597,410.245 94.826,421.522 129.894 M323.852 217.813 C 323.505 218.840,258.596 420.657,256.708 426.581 C 256.053 428.636,255.594 429.133,255.134 428.287 C 254.777 427.631,239.467 380.376,221.112 323.277 C 202.757 266.179,187.505 218.851,187.218 218.104 C 186.745 216.870,192.944 216.747,255.455 216.747 C 310.085 216.747,324.139 216.966,323.852 217.813 M433.857 217.702 C 433.291 218.618,304.897 384.816,292.531 400.640 C 289.230 404.864,286.759 407.552,287.041 406.613 C 287.588 404.791,347.124 219.612,347.741 217.813 C 348.027 216.979,357.505 216.747,391.277 216.747 C 422.913 216.747,434.290 217.002,433.857 217.702 M193.848 312.720 C 210.617 364.802,224.256 407.495,224.157 407.594 C 223.940 407.811,78.204 219.332,77.793 218.303 C 77.635 217.908,96.823 217.684,120.432 217.805 L 163.359 218.027 193.848 312.720 M127.606 320.427 C 164.567 368.299,195.232 408.027,195.751 408.711 C 196.957 410.303,201.442 413.559,114.359 349.631 C 57.715 308.048,39.506 294.257,38.882 292.464 C 38.241 290.623,38.556 288.546,40.306 283.077 C 57.324 229.891,57.250 230.094,58.874 231.789 C 59.716 232.668,90.645 272.555,127.606 320.427 M454.679 233.173 C 455.111 234.699,459.415 248.173,464.243 263.117 C 471.433 285.368,472.878 290.696,472.228 292.544 C 471.650 294.188,453.956 307.614,407.024 342.019 C 371.598 367.989,336.290 393.873,328.562 399.540 C 320.834 405.206,315.074 409.013,315.762 408.000 C 319.221 402.907,452.778 230.480,453.293 230.443 C 453.623 230.419,454.247 231.648,454.679 233.173 " stroke="none" fill-rule="evenodd" fill="black"></path></svg>