<svg xmlns="http://www.w3.org/2000/svg" width="512" height="512" viewBox="0 0 512 512"><path d="M235.520 32.957 C 205.266 36.581,181.601 43.440,157.557 55.553 C 125.804 71.550,99.607 93.604,78.005 122.524 C 53.319 155.571,37.626 195.785,33.244 237.227 C 31.931 249.649,31.927 275.044,33.237 286.720 C 38.165 330.640,54.471 370.641,81.937 406.187 C 95.506 423.748,119.366 445.150,139.520 457.838 C 149.802 464.311,170.994 474.633,180.481 477.788 C 188.540 480.469,191.780 480.471,196.060 477.798 C 200.117 475.264,200.533 472.724,200.533 450.528 L 200.533 429.848 196.480 430.441 C 178.675 433.043,168.395 432.614,156.186 428.757 C 147.924 426.147,140.607 421.354,134.380 414.473 C 129.833 409.449,128.649 407.374,121.726 392.301 C 116.240 380.358,108.628 370.662,100.912 365.792 C 96.017 362.701,91.307 357.817,91.307 355.831 C 91.307 351.412,101.315 349.973,110.233 353.110 C 119.785 356.470,129.974 365.171,135.416 374.613 C 145.878 392.766,162.327 401.769,180.729 399.417 C 187.720 398.523,195.179 396.541,199.040 394.552 C 200.599 393.749,201.387 392.665,201.387 391.321 C 201.387 388.724,204.531 378.507,206.555 374.529 C 207.414 372.839,209.488 369.661,211.163 367.466 C 214.609 362.952,214.901 363.229,205.227 361.831 C 201.472 361.289,194.160 359.755,188.979 358.422 C 147.582 347.775,125.008 324.701,116.326 284.160 C 113.701 271.906,112.612 244.682,114.319 234.026 C 116.565 220.006,122.607 205.517,130.639 194.890 C 132.808 192.020,134.825 189.280,135.121 188.801 C 135.418 188.321,134.848 184.909,133.856 181.218 C 132.420 175.873,132.048 171.987,132.029 162.133 C 132.004 149.633,132.805 144.124,136.308 132.693 L 137.877 127.573 143.740 127.318 C 154.825 126.835,172.489 133.533,191.348 145.372 C 199.196 150.298,200.680 150.942,202.545 150.233 C 203.728 149.783,209.615 148.460,215.628 147.293 C 244.669 141.656,276.074 142.230,303.573 148.902 L 311.893 150.920 319.573 145.965 C 337.223 134.579,353.333 128.095,365.760 127.376 L 373.547 126.925 375.333 132.369 C 380.769 148.940,381.557 166.982,377.528 182.622 L 376.097 188.178 380.797 194.425 C 386.048 201.406,391.456 211.797,394.190 220.160 C 400.793 240.357,399.797 274.161,391.904 297.779 C 386.952 312.596,379.610 324.354,368.957 334.529 C 354.419 348.413,335.877 356.594,308.399 361.248 L 297.224 363.141 300.193 366.957 C 303.773 371.558,307.460 379.183,309.465 386.133 C 310.739 390.551,311.007 396.874,311.418 432.213 C 311.777 463.195,312.159 473.639,312.985 475.085 C 314.157 477.135,317.270 478.986,321.089 479.902 C 324.435 480.705,336.571 476.478,351.147 469.432 C 374.337 458.223,393.114 444.860,411.813 426.258 C 424.419 413.717,432.412 403.969,442.141 389.274 C 487.310 321.046,492.352 230.986,455.156 156.818 C 422.206 91.119,360.816 45.953,288.853 34.467 C 280.667 33.160,242.779 32.088,235.520 32.957 " stroke="none" fill-rule="evenodd" fill="black"></path></svg>