<svg xmlns="http://www.w3.org/2000/svg" width="512" height="512" viewBox="0 0 512 512"><path d="M405.291 48.660 C 389.569 51.081,377.306 60.313,368.234 76.556 C 368.178 76.657,347.990 72.762,323.373 67.902 C 298.253 62.942,278.399 59.407,278.124 59.845 C 277.855 60.275,270.800 84.713,262.446 114.153 C 254.092 143.593,246.896 167.910,246.454 168.191 C 246.012 168.472,240.779 168.945,234.825 169.243 C 193.722 171.298,149.642 184.521,115.821 204.943 L 107.482 209.978 104.728 207.910 C 100.892 205.029,92.579 200.976,87.282 199.404 C 63.799 192.432,37.114 203.115,24.046 224.718 C 16.940 236.466,14.300 253.202,17.461 266.474 C 20.536 279.387,27.982 290.967,38.276 298.846 L 43.698 302.996 43.569 314.405 C 43.268 340.946,51.233 363.598,68.854 386.322 C 108.682 437.682,190.126 468.564,272.427 463.513 C 327.913 460.108,375.372 444.083,412.160 416.331 C 439.950 395.367,457.654 370.696,465.215 342.401 C 467.644 333.314,467.921 330.977,468.172 317.484 L 468.448 302.595 473.973 298.458 C 496.353 281.698,502.494 249.255,487.954 224.596 C 483.464 216.983,474.266 208.310,466.347 204.223 C 457.718 199.770,452.362 198.199,443.513 197.527 C 431.559 196.618,416.335 200.965,407.280 207.871 L 404.518 209.978 395.752 204.675 C 364.546 185.799,326.767 173.864,285.208 169.751 C 276.269 168.866,274.797 168.514,275.151 167.344 C 275.379 166.590,280.199 149.269,285.863 128.853 C 291.526 108.437,296.309 91.303,296.491 90.776 C 296.715 90.128,306.961 91.843,328.251 96.093 C 345.537 99.544,360.544 102.574,361.600 102.827 C 363.050 103.173,363.520 103.898,363.520 105.786 C 363.520 110.160,367.628 121.416,371.224 126.898 C 378.169 137.482,389.583 145.769,401.489 148.870 C 407.999 150.565,419.454 150.555,426.044 148.847 C 443.953 144.206,458.250 129.862,462.917 111.852 C 464.690 105.007,464.684 93.803,462.903 86.901 C 456.453 61.904,430.623 44.758,405.291 48.660 M421.774 76.437 C 426.647 78.098,432.946 83.525,435.439 88.211 C 436.944 91.041,437.313 93.159,437.316 98.987 C 437.319 107.164,436.231 110.030,431.053 115.486 C 422.412 124.589,408.102 125.348,398.593 117.209 C 392.993 112.416,390.443 106.715,390.443 98.987 C 390.443 93.700,390.842 91.824,392.734 88.202 C 398.300 77.552,410.517 72.602,421.774 76.437 M281.723 196.281 C 336.017 201.613,382.112 220.924,411.972 250.846 C 434.246 273.166,444.530 299.223,441.296 325.140 C 438.799 345.145,429.922 362.509,413.440 379.626 C 386.289 407.822,345.322 426.831,295.253 434.464 C 283.445 436.264,279.190 436.476,255.573 436.445 C 232.891 436.416,227.476 436.152,217.589 434.596 C 168.136 426.811,129.811 409.740,102.087 383.150 C 60.796 343.548,59.579 292.925,98.940 252.272 C 127.943 222.318,173.197 202.543,226.133 196.691 C 238.278 195.349,269.858 195.116,281.723 196.281 M80.213 225.288 C 85.942 226.921,85.959 227.242,80.618 232.652 C 69.886 243.523,62.838 253.147,55.865 266.456 L 51.503 274.780 49.694 272.854 C 48.699 271.795,46.815 268.625,45.508 265.811 C 43.488 261.464,43.133 259.602,43.146 253.440 C 43.158 247.342,43.524 245.438,45.440 241.483 C 49.101 233.926,56.378 227.552,64.000 225.225 C 67.133 224.268,76.769 224.306,80.213 225.288 M453.832 227.827 C 459.784 231.007,464.003 235.553,466.970 241.988 C 468.541 245.393,468.900 247.639,468.874 253.867 C 468.846 260.568,468.531 262.167,466.406 266.419 C 465.066 269.098,463.115 272.095,462.069 273.077 L 460.168 274.863 458.700 271.192 C 454.600 260.935,443.685 245.246,432.125 232.992 C 429.009 229.689,426.602 226.981,426.777 226.974 C 426.951 226.967,428.629 226.385,430.507 225.682 C 432.835 224.809,436.227 224.488,441.173 224.672 C 447.495 224.906,449.121 225.312,453.832 227.827 M180.363 256.886 C 174.762 257.995,166.896 262.419,162.393 266.994 C 145.137 284.523,150.041 313.097,172.183 324.040 C 178.518 327.171,178.928 327.253,188.134 327.253 C 197.114 327.253,197.868 327.113,203.350 324.414 C 217.715 317.342,225.944 301.850,223.476 286.523 C 220.194 266.146,200.830 252.834,180.363 256.886 M315.094 257.262 C 300.849 261.277,290.810 272.333,288.524 286.523 C 286.056 301.850,294.285 317.342,308.650 324.414 C 314.132 327.113,314.886 327.253,323.866 327.253 C 333.058 327.253,333.491 327.167,339.764 324.066 C 361.974 313.089,366.847 284.508,349.511 266.895 C 340.855 258.102,326.434 254.066,315.094 257.262 M176.098 368.797 C 170.694 374.097,168.107 377.257,168.107 378.557 C 168.107 382.631,184.952 395.393,200.107 402.801 C 235.944 420.320,276.056 420.320,311.893 402.801 C 327.048 395.393,343.893 382.631,343.893 378.557 C 343.893 376.228,328.710 360.960,326.394 360.960 C 325.560 360.960,322.836 362.704,320.341 364.835 C 309.525 374.076,293.579 382.109,278.732 385.796 C 269.711 388.036,251.851 388.855,242.338 387.464 C 225.049 384.936,207.196 377.318,194.288 366.961 C 190.174 363.661,186.197 360.960,185.449 360.960 C 184.702 360.960,180.494 364.487,176.098 368.797 " stroke="none" fill-rule="evenodd" fill="black"></path></svg>