<svg id="Layer_1" data-name="Layer 1" xmlns="http://www.w3.org/2000/svg" viewBox="0 0 512 512"><path d="M58.788 33.660 C 45.237 37.410,34.977 48.398,32.506 61.810 C 31.330 68.195,31.214 438.023,32.386 446.128 C 34.417 460.174,45.080 472.946,59.307 478.373 C 63.451 479.953,69.017 480.007,253.013 480.236 C 382.692 480.398,444.303 480.188,448.316 479.572 C 462.453 477.403,472.751 468.511,478.015 453.927 L 480.000 448.427 480.236 258.133 C 480.400 125.977,480.193 66.015,479.558 61.867 C 477.693 49.682,471.709 41.364,461.002 36.072 L 454.489 32.853 258.604 32.713 C 102.129 32.600,61.929 32.791,58.788 33.660 M369.300 131.627 C 376.192 145.903,378.880 158.446,378.880 176.331 C 378.880 199.476,373.320 222.836,360.903 251.866 C 345.425 288.052,323.080 325.390,288.594 372.693 L 277.862 387.413 226.448 387.413 C 198.170 387.413,174.832 387.087,174.585 386.687 C 173.984 385.714,132.869 139.055,133.249 138.700 C 133.552 138.418,223.027 129.786,223.291 130.013 C 223.370 130.082,228.393 169.877,234.452 218.448 L 245.468 306.758 250.774 297.806 C 268.491 267.914,283.808 230.976,288.956 205.728 C 292.820 186.779,291.665 165.361,285.869 148.512 C 284.503 144.540,283.535 141.140,283.719 140.956 C 284.243 140.432,361.116 124.771,363.644 124.674 C 365.653 124.596,366.274 125.360,369.300 131.627 " stroke="none" fill-rule="evenodd" fill="black"></path></svg>