<svg xmlns="http://www.w3.org/2000/svg" width="512" height="512" viewBox="0 0 512 512"><path d="M239.787 51.200 C 239.787 61.525,239.614 69.973,239.404 69.973 C 239.193 69.973,234.489 70.562,228.950 71.281 C 175.927 78.165,138.613 103.963,125.479 142.818 C 120.985 156.113,119.946 162.892,119.966 178.773 C 119.988 195.112,121.501 204.267,126.175 216.320 C 136.260 242.330,158.674 262.550,190.293 274.161 C 194.752 275.799,207.712 279.582,219.093 282.568 L 239.787 287.998 239.787 336.852 L 239.787 385.707 237.867 385.694 C 234.668 385.673,225.414 383.253,219.417 380.870 C 200.894 373.510,187.817 358.650,184.906 341.657 L 183.973 336.213 147.880 336.213 L 111.787 336.213 111.794 338.133 C 111.813 343.463,113.776 356.307,115.657 363.409 C 123.913 394.587,147.828 419.050,182.834 432.124 C 197.555 437.621,214.011 441.169,234.863 443.342 L 239.753 443.852 239.983 461.926 L 240.213 480.000 256.000 480.000 L 271.787 480.000 272.213 461.672 L 272.640 443.343 282.453 442.368 C 325.090 438.130,359.050 422.502,378.531 398.154 C 404.966 365.113,407.371 310.344,383.918 275.451 C 375.844 263.439,360.102 250.726,343.501 242.812 C 329.416 236.097,321.879 233.815,284.587 224.981 L 272.640 222.151 272.419 176.355 L 272.199 130.560 275.056 130.560 C 279.756 130.560,290.739 133.741,296.342 136.726 C 308.800 143.362,316.950 154.837,319.122 168.801 L 320.209 175.787 355.944 175.787 L 391.680 175.787 391.680 170.761 C 391.680 165.360,389.840 154.373,387.663 146.773 C 377.487 111.249,346.736 85.261,302.507 74.807 C 295.389 73.125,275.889 69.973,272.596 69.973 C 272.386 69.973,272.213 61.525,272.213 51.200 L 272.213 32.427 256.000 32.427 L 239.787 32.427 239.787 51.200 M239.787 173.227 C 239.787 200.758,239.488 215.893,238.944 215.893 C 236.582 215.893,220.692 210.206,215.528 207.513 C 197.697 198.212,189.417 180.804,194.161 162.590 C 196.036 155.391,199.399 149.648,204.955 144.151 C 212.529 136.659,225.980 130.831,236.160 130.631 L 239.787 130.560 239.787 173.227 M287.573 297.130 C 311.465 303.359,325.079 315.863,327.786 334.060 C 328.893 341.505,327.905 350.346,325.147 357.684 C 321.553 367.242,311.759 376.385,300.574 380.620 C 294.271 383.007,281.464 385.681,276.267 385.695 L 272.213 385.707 272.213 339.973 L 272.213 294.240 276.693 294.850 C 279.157 295.186,284.053 296.212,287.573 297.130 " stroke="none" fill-rule="evenodd" fill="black"></path></svg>