<svg xmlns="http://www.w3.org/2000/svg" width="512" height="512" viewBox="0 0 512 512"><path d="M63.750 72.757 L 47.714 113.067 47.963 264.533 L 48.213 416.000 96.213 416.220 L 144.213 416.441 144.213 448.434 L 144.213 480.427 176.004 480.427 L 207.795 480.427 239.787 448.427 L 271.778 416.427 311.874 416.427 L 351.970 416.427 408.092 360.329 L 464.213 304.231 464.213 168.329 L 464.213 32.427 272.000 32.437 L 79.787 32.447 63.750 72.757 M415.573 184.549 L 415.573 288.884 383.760 320.655 L 351.947 352.427 303.764 352.427 L 255.582 352.427 223.791 384.209 L 192.000 415.991 192.000 384.218 L 192.000 352.444 152.107 352.222 L 112.213 352.000 111.997 216.107 L 111.781 80.213 263.677 80.213 L 415.573 80.213 415.573 184.549 M208.213 207.787 L 208.213 272.213 232.107 272.213 L 256.000 272.213 256.000 207.787 L 256.000 143.360 232.107 143.360 L 208.213 143.360 208.213 207.787 M320.000 207.787 L 320.000 272.213 343.893 272.213 L 367.787 272.213 367.787 207.787 L 367.787 143.360 343.893 143.360 L 320.000 143.360 320.000 207.787 " stroke="none" fill-rule="evenodd" fill="black"></path></svg>