<svg id="icons" xmlns="http://www.w3.org/2000/svg" viewBox="0 0 512 512"><path d="M145.811 17.650 C 144.578 18.415,142.955 20.081,142.205 21.352 C 140.862 23.626,93.451 323.865,94.032 326.418 C 94.284 327.527,210.595 120.761,211.356 117.850 C 211.666 116.664,164.861 27.592,160.148 20.398 C 157.414 16.226,150.303 14.863,145.811 17.650 M250.698 84.952 C 249.425 85.643,246.880 88.795,245.043 91.958 C 241.574 97.930,93.882 361.223,89.362 369.493 C 87.264 373.331,106.443 354.562,194.574 266.530 L 302.352 158.874 283.614 123.176 C 268.205 93.819,264.369 87.137,262.019 85.553 C 258.724 83.333,254.130 83.089,250.698 84.952 M361.859 122.240 C 342.935 139.845,80.295 399.782,80.872 400.336 C 83.181 402.557,241.205 492.813,245.093 494.132 C 251.251 496.220,259.438 496.263,265.468 494.238 C 269.353 492.932,429.079 402.360,431.239 400.237 C 432.029 399.460,386.311 126.136,384.563 121.187 C 383.146 117.174,378.804 114.347,374.059 114.347 C 370.554 114.347,369.865 114.792,361.859 122.240 " stroke="none" fill-rule="evenodd" fill="black"></path></svg>