<svg id="Layer_1" data-name="Layer 1" xmlns="http://www.w3.org/2000/svg" viewBox="0 0 512 512"><path d="M237.653 34.208 C 144.079 41.760,64.101 108.302,39.794 198.827 C 34.314 219.234,32.205 235.961,32.260 258.560 C 32.380 307.280,47.441 352.114,77.065 391.934 C 85.946 403.873,106.648 425.076,117.858 433.714 C 144.663 454.371,177.758 469.792,209.720 476.517 C 215.477 477.729,220.373 478.720,220.600 478.720 C 220.827 478.720,221.013 443.589,221.013 400.652 L 221.013 322.583 192.640 322.358 L 164.267 322.133 164.043 289.920 L 163.819 257.707 192.340 257.707 L 220.860 257.707 221.261 224.640 C 221.683 189.785,222.050 186.007,226.246 173.251 C 233.819 150.232,250.281 133.619,273.269 125.798 C 284.426 122.003,294.683 120.888,313.532 121.421 C 328.291 121.838,347.541 123.558,353.920 125.030 L 355.840 125.473 355.840 152.763 L 355.840 180.053 342.827 180.068 C 316.145 180.098,307.115 182.405,299.195 191.214 C 291.900 199.328,291.490 201.381,291.162 231.456 L 290.876 257.686 321.907 257.909 L 352.938 258.133 348.040 289.707 C 345.346 307.072,343.119 321.568,343.091 321.920 C 343.063 322.272,331.328 322.560,317.013 322.560 L 290.987 322.560 290.987 400.640 C 290.987 443.584,291.136 478.720,291.319 478.720 C 291.502 478.720,295.438 477.948,300.066 477.005 C 385.347 459.624,452.926 394.696,473.647 310.233 C 479.307 287.163,481.400 255.910,478.793 233.387 C 464.739 111.944,358.789 24.431,237.653 34.208 " stroke="none" fill-rule="evenodd" fill="black"></path></svg>