<svg xmlns="http://www.w3.org/2000/svg" width="512" height="512" viewBox="0 0 512 512"><path d="M221.867 33.325 C 179.819 37.327,157.282 46.417,149.348 62.573 C 144.927 71.577,144.245 77.087,144.228 103.893 L 144.213 128.000 200.107 128.000 L 256.000 128.000 256.000 136.107 L 256.000 144.213 178.560 144.226 C 114.009 144.236,100.249 144.444,95.886 145.473 C 46.131 157.206,17.836 236.415,39.333 303.787 C 43.034 315.387,51.033 331.166,57.618 339.858 C 67.742 353.223,82.161 363.331,95.573 366.465 C 99.272 367.330,105.577 367.766,114.497 367.774 L 127.875 367.787 128.215 335.147 C 128.595 298.664,128.773 297.311,134.864 284.520 C 143.259 266.891,158.328 254.486,178.024 248.990 C 184.628 247.147,185.987 247.106,255.147 246.634 L 325.547 246.153 331.806 243.884 C 340.865 240.598,346.671 236.784,353.447 229.666 C 359.892 222.897,364.139 215.221,366.480 206.114 C 368.412 198.594,368.408 88.502,366.475 80.301 C 364.319 71.158,359.799 63.590,351.592 55.388 C 338.909 42.712,325.812 37.463,299.520 34.519 C 285.045 32.899,234.512 32.122,221.867 33.325 M205.463 67.981 C 215.861 74.410,218.161 88.773,210.267 97.995 C 203.591 105.795,193.853 107.634,185.173 102.735 C 178.658 99.057,175.516 93.925,175.082 86.254 C 174.570 77.186,178.372 70.667,186.418 66.819 C 192.328 63.992,199.742 64.444,205.463 67.981 M386.354 174.635 C 385.950 209.443,385.550 212.113,378.578 226.560 C 368.817 246.784,351.811 260.058,330.378 264.182 C 325.323 265.155,311.488 265.387,258.560 265.387 C 203.942 265.387,191.891 265.599,186.339 266.662 C 179.675 267.937,169.144 272.342,164.843 275.654 C 158.998 280.155,152.612 287.379,149.892 292.568 C 144.123 303.572,144.213 302.405,144.213 366.327 C 144.213 421.373,144.288 424.170,145.907 429.412 C 153.396 453.656,185.532 471.817,232.533 478.366 C 244.632 480.052,268.973 480.267,280.320 478.789 C 318.265 473.846,345.680 462.251,358.159 445.867 C 366.618 434.760,367.764 429.805,367.777 404.267 L 367.787 384.000 311.893 384.000 L 256.000 384.000 256.000 375.893 L 256.000 367.787 333.440 367.774 C 419.171 367.760,416.157 367.938,428.120 362.184 C 442.201 355.412,455.793 341.023,464.529 323.645 C 474.811 303.191,479.802 281.188,479.776 256.427 C 479.761 241.213,478.801 232.551,475.664 219.307 C 467.030 182.856,446.975 156.141,421.344 146.946 C 415.827 144.967,413.587 144.686,400.928 144.384 L 386.709 144.044 386.354 174.635 M325.559 406.233 C 335.541 411.379,339.581 423.547,334.570 433.369 C 326.832 448.538,305.687 448.231,298.140 432.842 C 295.668 427.801,296.035 419.436,298.945 414.469 C 301.317 410.422,305.177 406.928,308.932 405.429 C 312.815 403.880,321.841 404.316,325.559 406.233 " stroke="none" fill-rule="evenodd" fill="black"></path></svg>