<svg xmlns="http://www.w3.org/2000/svg" width="512" height="512" viewBox="0 0 512 512"><path d="M235.947 32.932 C 234.539 33.125,228.779 33.895,223.147 34.643 C 177.430 40.713,131.587 63.851,97.301 98.160 C 62.153 133.331,40.492 177.645,33.687 228.300 C 32.038 240.579,31.799 267.116,33.223 279.893 C 44.003 376.609,114.884 454.925,210.001 475.216 C 238.476 481.290,273.524 481.290,301.999 475.216 C 362.644 462.279,414.824 425.364,447.359 372.382 C 479.872 319.435,488.455 253.962,470.894 192.853 C 449.342 117.853,386.601 57.600,310.613 38.927 C 291.077 34.127,282.762 33.139,259.413 32.845 C 247.915 32.700,237.355 32.740,235.947 32.932 M260.557 119.781 C 262.095 120.424,292.177 140.168,327.406 163.657 C 388.055 204.095,391.557 206.568,393.306 210.180 C 395.136 213.961,395.151 214.384,394.910 257.824 C 394.676 299.887,394.598 301.770,392.960 304.542 C 391.650 306.759,376.482 317.285,327.632 349.874 C 292.641 373.218,262.721 392.985,261.144 393.801 C 254.672 397.148,256.329 398.080,187.509 352.384 C 152.667 329.250,123.245 309.523,122.127 308.547 C 121.010 307.572,119.386 305.237,118.520 303.360 C 117.055 300.186,116.943 296.924,116.925 256.821 C 116.907 213.777,116.910 213.688,118.827 209.887 C 120.625 206.322,124.704 203.434,183.040 164.429 C 217.301 141.521,247.061 121.859,249.173 120.735 C 253.595 118.383,256.607 118.131,260.557 119.781 M197.813 183.456 C 172.615 200.143,151.741 214.055,151.426 214.369 C 150.625 215.171,190.463 241.493,192.483 241.496 C 194.546 241.500,241.273 210.196,242.892 207.726 C 243.853 206.259,244.035 200.906,243.852 179.515 L 243.627 153.114 197.813 183.456 M267.947 179.840 C 267.947 200.307,268.211 207.367,269.013 208.382 C 270.624 210.418,316.742 240.898,318.820 241.300 C 320.077 241.543,326.742 237.572,340.768 228.224 L 360.910 214.800 341.948 202.003 C 322.361 188.784,270.899 154.407,269.013 153.282 C 268.169 152.779,267.947 158.314,267.947 179.840 M233.623 243.471 C 222.959 250.596,214.233 256.619,214.233 256.853 C 214.233 257.088,223.053 263.136,233.834 270.293 C 247.122 279.116,254.185 283.307,255.765 283.307 C 257.347 283.307,264.344 279.150,277.528 270.377 C 288.216 263.266,296.960 257.180,296.960 256.853 C 296.960 256.527,288.216 250.441,277.528 243.330 C 262.957 233.634,257.461 230.414,255.555 230.457 C 253.754 230.498,247.361 234.292,233.623 243.471 M140.800 256.853 L 140.800 276.676 143.147 275.149 C 156.545 266.429,169.813 257.325,169.813 256.853 C 169.813 256.382,156.545 247.278,143.147 238.558 L 140.800 237.030 140.800 256.853 M355.101 247.110 L 340.282 257.001 354.968 266.802 C 363.046 272.192,369.818 276.440,370.017 276.241 C 370.216 276.041,370.276 267.180,370.150 256.549 L 369.920 237.220 355.101 247.110 M171.249 285.396 C 160.540 292.600,151.776 298.767,151.773 299.101 C 151.769 299.601,243.070 360.960,243.818 360.960 C 243.947 360.960,244.053 348.739,244.053 333.802 C 244.053 306.723,244.048 306.639,242.133 304.904 C 238.132 301.277,193.745 272.215,192.268 272.255 C 191.417 272.278,181.958 278.191,171.249 285.396 M293.290 288.610 C 277.415 299.213,268.591 305.620,268.318 306.743 C 268.086 307.698,268.003 320.289,268.135 334.721 L 268.373 360.962 314.027 330.566 C 339.136 313.848,359.968 299.908,360.320 299.589 C 361.163 298.824,321.360 272.213,319.373 272.213 C 318.529 272.213,306.792 279.592,293.290 288.610 " stroke="none" fill-rule="evenodd" fill="black"></path></svg>