<svg xmlns="http://www.w3.org/2000/svg" width="512" height="512" viewBox="0 0 512 512"><path d="M143.360 72.164 C 82.581 93.933,32.757 111.754,32.640 111.766 C 32.055 111.823,33.948 123.332,55.208 248.973 L 78.060 384.027 166.591 431.800 C 215.284 458.075,255.522 479.573,256.010 479.573 C 257.347 479.573,431.149 385.673,432.738 384.092 C 433.761 383.073,439.974 348.190,456.845 248.747 C 469.346 175.061,479.573 114.142,479.573 113.371 C 479.573 112.600,478.901 111.706,478.080 111.385 C 465.130 106.317,256.723 32.449,255.531 32.505 C 254.616 32.548,204.139 50.394,143.360 72.164 M319.871 211.840 C 354.680 287.989,383.156 350.773,383.153 351.360 C 383.148 352.182,378.682 352.427,363.683 352.427 L 344.219 352.427 330.974 324.480 L 317.729 296.533 256.000 296.533 L 194.271 296.533 181.026 324.480 L 167.781 352.427 148.317 352.427 C 133.318 352.427,128.852 352.182,128.847 351.360 C 128.838 349.839,255.295 73.387,256.000 73.387 C 256.321 73.387,285.063 135.691,319.871 211.840 M234.638 211.426 L 213.702 255.573 234.851 255.801 C 246.483 255.927,265.515 255.927,277.144 255.801 L 298.288 255.573 277.357 211.430 C 265.845 187.151,256.235 167.285,256.000 167.283 C 255.765 167.281,246.152 187.145,234.638 211.426 " stroke="none" fill-rule="evenodd" fill="black"></path></svg>