<svg xmlns="http://www.w3.org/2000/svg" width="512" height="512" viewBox="0 0 512 512"><path d="M65.056 33.395 C 65.309 34.036,99.735 89.831,141.558 157.384 L 217.600 280.208 217.600 379.983 L 217.600 479.758 219.947 479.159 C 232.418 475.974,234.480 475.780,256.000 475.780 C 277.520 475.780,279.582 475.974,292.053 479.159 L 294.400 479.758 294.400 380.164 L 294.400 280.571 370.859 156.869 C 412.912 88.833,447.183 33.031,447.016 32.865 C 446.849 32.698,443.642 33.297,439.890 34.196 C 423.455 38.133,395.871 38.077,378.808 34.071 C 374.560 33.073,370.969 32.392,370.828 32.555 C 370.686 32.719,344.934 74.421,313.601 125.227 C 282.267 176.032,256.347 217.600,256.000 217.600 C 255.653 217.600,229.733 176.032,198.399 125.227 C 167.066 74.421,141.314 32.719,141.172 32.555 C 141.031 32.392,137.337 33.098,132.964 34.126 C 113.657 38.662,83.423 38.030,66.218 32.730 C 65.070 32.376,64.730 32.571,65.056 33.395 " stroke="none" fill-rule="evenodd" fill="black"></path></svg>