<svg id="icons" xmlns="http://www.w3.org/2000/svg" viewBox="0 0 512 512"><path d="M31.573 136.960 L 31.573 243.200 138.240 243.200 L 244.907 243.200 244.907 136.960 L 244.907 30.720 138.240 30.720 L 31.573 30.720 31.573 136.960 M267.093 136.960 L 267.093 243.200 373.333 243.200 L 479.573 243.200 479.573 136.960 L 479.573 30.720 373.333 30.720 L 267.093 30.720 267.093 136.960 M31.573 372.053 L 31.573 478.720 138.240 478.720 L 244.907 478.720 244.907 372.053 L 244.907 265.387 138.240 265.387 L 31.573 265.387 31.573 372.053 M267.093 372.053 L 267.093 478.720 373.333 478.720 L 479.573 478.720 479.573 372.053 L 479.573 265.387 373.333 265.387 L 267.093 265.387 267.093 372.053 " stroke="none" fill-rule="evenodd" fill="black"></path></svg>