<svg id="Layer_1" data-name="Layer 1" xmlns="http://www.w3.org/2000/svg" viewBox="0 0 512 512"><path d="M0.000 241.920 L 0.000 327.680 71.253 327.680 L 142.507 327.680 142.507 341.760 L 142.507 355.840 199.253 355.840 L 256.000 355.840 256.000 341.760 L 256.000 327.680 384.000 327.680 L 512.000 327.680 512.000 241.920 L 512.000 156.160 256.000 156.160 L 0.000 156.160 0.000 241.920 M142.507 241.493 L 142.507 298.667 128.000 298.667 L 113.493 298.667 113.493 256.000 L 113.493 213.333 99.413 213.333 L 85.333 213.333 85.333 256.000 L 85.333 298.667 56.747 298.667 L 28.160 298.667 28.160 241.493 L 28.160 184.320 85.333 184.320 L 142.507 184.320 142.507 241.493 M284.160 241.482 L 284.160 298.644 255.787 298.868 L 227.413 299.093 227.179 313.387 L 226.945 327.680 198.806 327.680 L 170.667 327.680 170.667 256.000 L 170.667 184.320 227.413 184.320 L 284.160 184.320 284.160 241.482 M483.840 241.493 L 483.840 298.667 469.760 298.667 L 455.680 298.667 455.680 256.000 L 455.680 213.333 441.173 213.333 L 426.667 213.333 426.667 256.000 L 426.667 298.667 412.587 298.667 L 398.507 298.667 398.507 256.000 L 398.507 213.333 384.000 213.333 L 369.493 213.333 369.493 256.000 L 369.493 298.667 341.333 298.667 L 313.173 298.667 313.173 241.493 L 313.173 184.320 398.507 184.320 L 483.840 184.320 483.840 241.493 M227.840 241.920 L 227.840 270.507 241.920 270.507 L 256.000 270.507 256.000 241.920 L 256.000 213.333 241.920 213.333 L 227.840 213.333 227.840 241.920 " stroke="none" fill-rule="evenodd" fill="black"></path></svg>