<svg xmlns="http://www.w3.org/2000/svg" width="512" height="512" viewBox="0 0 512 512"><path d="M235.947 32.932 C 234.539 33.125,228.779 33.898,223.147 34.650 C 177.329 40.766,131.924 63.628,97.776 97.776 C 61.423 134.129,39.426 179.944,33.280 232.107 C 31.875 244.036,32.077 269.916,33.676 282.880 C 41.776 348.516,78.126 406.937,133.547 443.389 C 142.604 449.346,160.528 459.171,164.480 460.345 L 166.400 460.915 166.417 446.991 C 166.426 439.333,166.972 429.017,167.631 424.068 C 168.290 419.119,175.556 386.479,183.776 351.535 L 198.723 288.000 196.278 280.642 C 192.834 270.281,191.696 261.214,192.238 248.451 C 192.985 230.866,198.352 216.720,208.097 206.650 C 216.785 197.672,225.605 194.083,237.345 194.750 C 248.780 195.399,256.949 200.995,261.834 211.524 C 263.715 215.577,264.110 217.801,264.387 225.886 C 264.791 237.663,263.149 246.388,256.300 268.854 C 244.237 308.421,242.907 315.058,245.226 324.110 C 250.016 342.807,268.738 353.691,289.180 349.664 C 299.475 347.636,307.717 343.206,316.287 335.094 C 337.298 315.204,349.919 280.731,351.334 239.360 C 351.907 222.623,350.806 213.497,346.731 201.193 C 342.644 188.854,336.978 179.760,327.711 170.667 C 310.568 153.845,288.294 145.920,258.156 145.920 C 238.676 145.920,221.685 149.727,206.152 157.573 C 195.616 162.895,189.454 167.241,181.016 175.302 C 168.036 187.702,159.751 200.743,154.075 217.708 C 149.530 231.291,148.227 240.477,148.704 255.573 C 149.263 273.284,152.250 282.259,162.047 295.662 C 167.341 302.904,167.423 304.015,163.738 318.728 C 159.820 334.372,157.161 336.314,146.738 331.143 C 126.167 320.936,113.206 302.274,106.974 273.885 C 104.528 262.743,104.717 232.092,107.298 221.440 C 117.954 177.459,146.093 143.078,187.307 123.686 C 208.023 113.938,230.298 108.852,256.853 107.807 C 302.125 106.026,340.244 119.961,369.122 148.848 C 387.641 167.374,398.091 186.335,403.777 211.729 C 405.518 219.506,405.755 222.773,405.721 238.507 C 405.649 271.570,399.851 297.126,386.421 323.577 C 364.900 365.963,326.012 390.580,283.307 388.852 C 270.766 388.344,264.330 386.686,252.784 380.987 C 246.898 378.082,243.388 375.620,239.067 371.368 C 235.873 368.225,232.692 364.734,231.999 363.610 C 230.812 361.687,230.268 363.401,222.784 392.623 C 218.410 409.704,213.697 426.944,212.311 430.933 C 209.258 439.720,202.241 454.536,196.787 463.712 C 193.743 468.832,193.041 470.630,193.880 471.153 C 195.914 472.419,213.624 476.243,225.707 478.024 C 239.796 480.101,267.715 480.511,280.747 478.832 C 333.418 472.048,378.368 450.319,414.293 414.273 C 445.886 382.575,466.395 344.313,475.705 299.703 C 479.506 281.491,480.804 252.411,478.703 232.533 C 475.032 197.790,462.454 162.532,443.389 133.547 C 408.253 80.127,352.516 44.303,289.280 34.497 C 280.777 33.179,242.376 32.052,235.947 32.932 " stroke="none" fill-rule="evenodd" fill="black"></path></svg>