<svg xmlns="http://www.w3.org/2000/svg" width="512" height="512" viewBox="0 0 512 512"><path d="M234.240 32.979 C 191.848 37.581,152.947 53.021,119.390 78.565 C 111.313 84.714,94.647 99.801,92.772 102.663 C 91.237 105.006,85.618 94.927,156.804 217.510 L 168.397 237.473 171.075 229.030 C 180.495 199.335,203.113 177.487,233.387 168.840 L 240.213 166.890 350.507 166.623 C 423.057 166.448,460.800 166.066,460.800 165.506 C 460.800 164.389,454.682 152.199,450.328 144.640 C 420.027 92.035,369.557 53.768,310.850 38.887 C 292.801 34.311,282.698 33.128,259.413 32.859 C 247.445 32.721,236.117 32.775,234.240 32.979 M70.300 130.804 C 49.548 162.198,37.305 195.645,33.217 232.107 C 31.766 245.051,31.987 269.733,33.672 282.880 C 45.305 373.647,107.903 446.420,196.041 471.641 C 205.007 474.206,206.818 474.494,207.735 473.498 C 209.274 471.828,284.423 341.306,284.045 340.960 C 283.874 340.803,280.085 341.610,275.627 342.752 C 251.015 349.059,224.352 343.720,203.461 328.300 C 196.896 323.455,188.483 314.932,183.895 308.480 C 181.892 305.664,156.952 263.040,128.473 213.760 C 99.993 164.480,76.423 123.886,76.094 123.551 C 75.766 123.216,73.158 126.480,70.300 130.804 M246.538 189.479 C 225.970 192.319,205.714 206.629,196.483 224.841 C 190.316 237.007,187.654 251.300,189.279 263.509 C 191.763 282.167,200.879 298.241,215.096 309.034 C 222.939 314.988,228.151 317.626,237.818 320.532 C 244.212 322.455,246.924 322.792,256.000 322.792 C 265.113 322.792,267.786 322.457,274.347 320.493 C 300.690 312.609,318.629 291.772,322.630 264.410 C 325.811 242.652,316.032 218.219,298.432 203.949 C 291.999 198.734,279.767 192.612,272.213 190.827 C 264.935 189.108,253.556 188.510,246.538 189.479 M319.956 194.773 C 345.040 220.403,352.359 258.065,338.486 290.133 C 336.963 293.653,312.194 337.379,283.444 387.301 C 254.694 437.223,231.377 478.275,231.630 478.527 C 232.692 479.589,255.697 480.238,267.626 479.542 C 340.337 475.301,403.963 438.515,443.948 377.600 C 451.855 365.555,461.853 345.586,466.592 332.373 C 482.166 288.955,484.158 240.538,472.148 197.333 L 469.954 189.440 392.345 189.440 L 314.736 189.440 319.956 194.773 " stroke="none" fill-rule="evenodd" fill="black"></path></svg>