<svg xmlns="http://www.w3.org/2000/svg" width="512" height="512" viewBox="0 0 512 512"><path d="M124.073 34.032 C 111.132 37.754,102.115 46.750,97.885 60.160 L 96.000 66.133 96.000 262.827 L 96.000 459.520 98.032 464.640 C 102.105 474.904,110.188 480.074,121.832 479.864 C 131.191 479.696,135.082 477.052,148.053 462.049 C 154.155 454.991,180.127 424.847,205.771 395.062 C 231.414 365.277,253.497 339.868,254.845 338.598 L 257.295 336.288 300.381 336.038 C 342.776 335.791,343.543 335.756,348.201 333.870 C 358.213 329.816,364.313 322.994,368.214 311.487 C 370.863 303.671,373.071 293.007,396.845 173.227 C 414.446 84.547,415.732 77.442,415.754 68.693 C 415.792 53.574,411.937 44.365,403.127 38.529 C 393.907 32.422,404.938 32.871,259.840 32.694 C 137.626 32.545,128.947 32.630,124.073 34.032 M356.518 83.028 C 360.178 85.027,362.659 89.191,362.663 93.344 C 362.669 98.752,352.511 149.458,350.855 152.294 C 349.048 155.387,344.808 158.385,340.580 159.560 C 338.673 160.089,318.206 160.419,287.038 160.422 C 231.294 160.427,232.959 160.273,228.035 165.882 C 224.582 169.814,223.250 176.380,223.760 186.959 C 224.076 193.527,224.562 195.890,226.211 198.876 C 228.481 202.989,232.407 206.036,237.126 207.346 C 239.008 207.869,257.240 208.206,283.820 208.209 L 327.428 208.213 330.314 210.159 C 333.484 212.295,337.031 217.843,337.053 220.700 C 337.073 223.311,326.947 274.760,325.885 277.446 C 324.682 280.487,321.095 283.790,317.254 285.395 C 314.554 286.523,308.641 286.721,277.574 286.725 C 256.091 286.728,239.814 287.078,238.023 287.575 C 236.348 288.040,233.594 289.478,231.903 290.770 C 230.211 292.063,212.835 312.463,193.290 336.105 C 147.228 391.823,146.629 392.533,145.772 392.533 C 145.371 392.533,145.145 324.879,145.268 242.133 L 145.493 91.733 147.428 88.622 C 149.728 84.923,152.924 82.664,157.013 81.846 C 158.656 81.517,203.584 81.304,256.853 81.371 C 348.347 81.487,353.862 81.578,356.518 83.028 " stroke="none" fill-rule="evenodd" fill="black"></path></svg>