<svg xmlns="http://www.w3.org/2000/svg" width="512" height="512" viewBox="0 0 512 512"><path d="M244.769 33.770 C 242.581 34.443,204.565 56.716,160.289 83.264 C 75.728 133.967,73.571 135.403,68.798 144.173 C 63.838 153.286,64.000 149.500,64.000 256.000 C 64.000 363.443,63.790 358.898,69.181 368.320 C 70.587 370.777,73.772 374.647,76.258 376.920 C 80.937 381.196,122.039 406.113,130.789 409.978 C 144.175 415.891,154.443 417.707,167.089 416.399 C 185.868 414.456,199.735 405.398,206.890 390.400 C 213.192 377.191,212.804 384.216,213.122 277.609 C 213.441 171.124,213.738 176.938,207.845 174.476 C 205.710 173.584,201.492 173.227,193.094 173.228 C 179.250 173.230,176.028 174.256,174.341 179.200 C 173.578 181.438,173.311 205.357,173.275 274.644 C 173.221 377.718,173.622 370.937,167.333 375.079 C 162.843 378.036,157.984 378.543,151.342 376.745 C 147.243 375.635,140.082 371.838,124.499 362.513 L 103.246 349.795 103.463 257.147 L 103.680 164.500 179.444 118.090 C 221.115 92.564,255.555 71.680,255.978 71.680 C 256.401 71.680,290.851 92.563,332.534 118.086 L 408.320 164.492 408.320 257.282 L 408.320 350.072 333.227 394.890 C 291.925 419.539,257.365 439.853,256.427 440.031 C 255.355 440.235,247.254 435.901,234.668 428.391 C 223.105 421.492,213.713 416.429,212.482 416.433 C 211.307 416.437,207.275 418.204,203.520 420.360 C 199.765 422.516,193.446 425.598,189.476 427.208 C 185.506 428.819,181.570 430.759,180.729 431.521 C 178.331 433.691,178.825 437.072,181.973 440.034 C 186.220 444.030,239.511 476.330,244.873 478.158 C 251.246 480.331,260.901 480.302,267.132 478.091 C 274.219 475.576,430.193 381.991,435.728 376.932 C 438.222 374.653,441.413 370.777,442.819 368.320 C 448.210 358.898,448.000 363.443,448.000 256.000 C 448.000 149.500,448.162 153.286,443.202 144.173 C 438.429 135.404,436.271 133.967,351.733 83.277 C 302.262 53.614,269.570 34.521,266.885 33.724 C 261.454 32.111,250.082 32.135,244.769 33.770 M286.916 166.489 C 270.848 168.358,255.494 174.081,245.908 181.774 C 239.512 186.908,233.419 195.940,230.708 204.307 C 228.871 209.976,228.466 212.867,228.430 220.587 C 228.302 247.825,241.147 262.256,272.446 270.035 C 277.246 271.228,290.389 273.367,301.653 274.788 C 323.838 277.587,334.198 279.699,340.983 282.805 C 347.696 285.878,349.013 287.742,349.013 294.162 C 349.013 308.755,340.197 315.271,317.293 317.608 C 299.467 319.427,280.466 316.576,271.191 310.691 C 266.436 307.674,262.472 301.328,261.041 294.443 C 258.925 284.260,257.292 283.307,241.962 283.307 C 229.533 283.307,226.733 284.224,224.763 288.938 C 223.773 291.309,223.694 293.203,224.369 298.481 C 226.230 313.043,231.057 323.235,240.666 332.895 C 255.536 347.844,280.240 355.034,312.734 353.871 C 353.472 352.412,378.351 336.607,386.287 307.143 C 388.322 299.591,388.287 283.868,386.220 276.943 C 382.292 263.781,375.941 256.615,362.408 250.073 C 353.029 245.540,339.387 241.785,323.413 239.341 C 271.621 231.415,266.240 229.643,266.240 220.514 C 266.240 212.357,270.494 207.349,279.993 204.324 C 285.901 202.442,311.661 201.620,320.899 203.019 C 333.819 204.974,340.931 210.404,344.378 220.942 C 346.645 227.875,348.543 228.686,362.496 228.690 C 378.217 228.695,380.587 227.329,380.587 218.262 C 380.587 212.248,378.657 204.970,375.013 197.245 C 366.845 179.927,346.708 169.116,317.720 166.488 C 306.014 165.427,296.050 165.427,286.916 166.489 " stroke="none" fill-rule="evenodd" fill="black"></path></svg>