<svg id="Layer_1" data-name="Layer 1" xmlns="http://www.w3.org/2000/svg" viewBox="0 0 512 512"><path d="M302.080 144.605 C 301.376 144.774,297.920 145.374,294.400 145.937 C 286.054 147.274,273.031 151.431,270.188 153.667 L 267.947 155.431 267.947 259.514 L 267.947 363.598 270.041 365.692 L 272.136 367.787 364.625 367.787 C 454.066 367.787,457.336 367.731,463.863 366.092 C 497.390 357.673,518.226 323.562,510.260 290.133 C 504.706 266.830,485.429 247.544,462.933 242.786 C 451.800 240.432,436.104 241.531,426.489 245.338 C 425.410 245.765,424.929 245.397,424.638 243.918 C 424.422 242.819,423.646 238.627,422.914 234.603 C 419.148 213.915,409.306 194.729,394.452 179.120 C 378.532 162.391,360.068 151.788,337.920 146.656 C 331.259 145.112,305.979 143.666,302.080 144.605 M250.335 160.738 C 247.430 163.237,247.793 156.056,246.190 242.773 C 244.985 307.989,244.999 313.358,246.445 337.817 L 247.978 363.741 250.330 365.764 C 251.624 366.876,253.535 367.787,254.578 367.787 C 256.769 367.787,259.910 365.789,261.019 363.690 C 261.440 362.892,262.475 349.935,263.319 334.895 C 264.795 308.594,264.795 304.829,263.330 236.385 C 262.493 197.245,261.485 164.374,261.091 163.337 C 260.183 160.949,257.038 158.720,254.578 158.720 C 253.535 158.720,251.626 159.628,250.335 160.738 M228.832 173.088 C 226.599 175.321,226.371 180.385,225.215 253.440 C 224.415 303.960,224.468 316.538,225.570 338.338 L 226.863 363.928 229.106 365.858 C 231.972 368.323,235.071 368.313,237.555 365.830 C 239.856 363.528,240.043 361.762,241.588 327.680 C 242.434 309.023,242.367 293.794,241.207 240.640 C 239.893 180.456,239.696 176.073,238.216 174.080 C 236.114 171.251,231.189 170.731,228.832 173.088 M165.641 187.639 C 163.722 189.558,163.586 192.109,161.685 262.030 C 160.465 306.860,160.482 309.618,162.127 336.109 C 163.067 351.242,164.232 364.364,164.716 365.268 C 165.952 367.579,169.397 368.255,171.825 366.665 C 174.208 365.104,174.211 365.082,176.333 331.730 C 177.804 308.620,177.797 306.605,176.019 248.542 C 174.210 189.499,174.182 189.026,172.337 187.532 C 169.934 185.586,167.657 185.623,165.641 187.639 M186.415 190.681 C 184.713 192.383,184.323 193.623,184.334 197.295 C 184.342 199.780,183.711 225.429,182.932 254.293 C 181.596 303.830,181.600 308.353,183.003 334.933 C 184.095 355.614,184.811 363.600,185.696 365.000 C 188.475 369.394,194.921 367.771,195.787 362.460 C 196.036 360.931,196.932 347.968,197.779 333.653 C 199.251 308.759,199.254 305.566,197.858 260.267 C 197.054 234.219,196.368 208.377,196.332 202.841 C 196.270 193.335,196.150 192.659,194.172 190.681 C 193.020 189.529,191.275 188.587,190.293 188.587 C 189.312 188.587,187.567 189.529,186.415 190.681 M145.015 191.870 L 143.068 193.447 141.338 250.858 C 139.664 306.380,139.656 309.086,141.091 333.121 C 142.958 364.400,143.036 364.975,145.632 366.676 C 148.219 368.371,151.615 367.106,152.312 364.189 C 152.569 363.117,153.644 350.144,154.701 335.360 L 156.624 308.480 154.748 255.573 C 153.717 226.475,152.844 200.651,152.810 198.187 C 152.714 191.347,149.189 188.491,145.015 191.870 M207.485 194.435 C 205.560 196.360,205.274 201.889,203.828 265.140 C 203.061 298.697,203.064 313.650,203.839 329.566 C 205.420 362.012,205.589 363.533,207.872 365.817 C 210.355 368.299,212.629 368.314,215.455 365.867 L 217.673 363.947 219.279 336.213 C 220.846 309.170,220.847 307.097,219.331 252.909 C 218.352 217.887,217.437 196.704,216.859 195.623 C 215.176 192.479,210.086 191.834,207.485 194.435 M124.221 201.021 C 123.483 201.758,122.847 202.430,122.807 202.514 C 122.767 202.598,121.844 226.475,120.757 255.573 L 118.780 308.480 120.753 337.022 C 122.481 362.012,122.915 365.702,124.246 366.675 C 126.334 368.202,128.337 368.067,129.927 366.293 C 130.978 365.121,131.737 358.738,133.458 336.619 L 135.651 308.439 133.535 257.686 C 132.372 229.772,131.418 206.069,131.417 205.013 C 131.413 202.862,128.647 199.680,126.781 199.680 C 126.110 199.680,124.958 200.283,124.221 201.021 M104.136 220.818 C 102.354 222.261,102.240 223.568,100.239 265.440 L 98.177 308.575 100.249 336.687 C 102.211 363.299,102.422 364.881,104.190 366.316 C 105.825 367.643,106.283 367.683,107.856 366.639 C 110.098 365.152,110.207 364.382,112.672 332.800 L 114.637 307.627 112.347 265.072 C 111.087 241.668,109.848 222.182,109.594 221.770 C 108.361 219.776,105.944 219.354,104.136 220.818 M63.148 250.452 C 62.464 251.276,61.277 261.893,59.809 280.306 L 57.531 308.882 59.846 336.601 C 61.119 351.847,62.405 364.716,62.704 365.200 C 63.455 366.416,66.167 366.304,67.226 365.013 C 67.707 364.427,69.280 351.490,70.723 336.266 L 73.345 308.585 70.723 279.946 C 69.281 264.194,67.707 250.827,67.226 250.240 C 66.053 248.810,64.441 248.894,63.148 250.452 M42.710 252.800 C 42.284 253.856,40.919 266.816,39.677 281.600 L 37.419 308.480 39.813 335.282 C 42.223 362.267,42.772 364.934,45.685 363.816 C 47.395 363.160,47.397 363.152,50.346 334.193 L 52.943 308.707 50.327 281.713 C 48.888 266.867,47.352 253.856,46.914 252.800 C 46.475 251.744,45.524 250.880,44.800 250.880 C 44.076 250.880,43.135 251.744,42.710 252.800 M83.261 253.928 C 82.523 254.665,81.911 256.105,81.900 257.128 C 81.889 258.150,80.950 270.122,79.814 283.732 L 77.748 308.478 79.844 335.786 C 80.997 350.805,82.311 363.957,82.765 365.013 C 83.718 367.232,86.334 367.533,87.932 365.607 C 88.652 364.740,89.878 354.654,91.478 336.451 L 93.923 308.622 91.425 281.726 C 89.279 258.621,88.711 254.671,87.394 253.708 C 85.425 252.268,84.892 252.297,83.261 253.928 M22.658 262.187 C 21.883 265.774,17.920 304.513,17.920 308.504 C 17.920 312.585,21.856 350.483,22.636 353.920 C 22.907 355.110,23.709 355.840,24.747 355.840 C 26.829 355.840,26.645 356.743,29.946 330.426 L 32.652 308.851 29.854 285.626 C 28.314 272.852,26.681 261.920,26.223 261.333 C 24.913 259.654,23.112 260.085,22.658 262.187 M3.957 279.680 C 3.723 280.501,2.712 287.346,1.711 294.891 L -0.111 308.609 1.689 322.198 C 3.780 337.978,3.969 338.773,5.625 338.773 C 7.413 338.773,8.022 336.518,10.237 321.684 L 12.216 308.434 10.254 295.231 C 9.174 287.968,7.971 281.163,7.580 280.107 C 6.735 277.826,4.557 277.569,3.957 279.680 " stroke="none" fill-rule="evenodd" fill="black"></path></svg>