<svg xmlns="http://www.w3.org/2000/svg" width="512" height="512" viewBox="0 0 512 512"><path d="M0.000 256.000 L 0.000 431.787 256.000 431.787 L 512.000 431.787 512.000 256.000 L 512.000 80.213 256.000 80.213 L 0.000 80.213 0.000 256.000 M381.013 119.381 C 401.016 120.752,409.917 121.928,418.094 124.282 C 439.895 130.556,454.086 146.356,458.603 169.387 C 462.086 187.141,464.715 235.336,463.840 265.387 C 462.786 301.585,459.986 339.774,457.755 348.384 C 453.789 363.694,443.377 376.718,429.990 383.118 C 412.519 391.470,398.364 392.794,310.048 394.331 C 230.845 395.710,141.139 394.110,110.621 390.774 C 91.516 388.685,78.481 383.293,68.642 373.411 C 60.098 364.828,55.225 355.076,53.042 342.187 C 51.779 334.731,49.743 305.753,48.574 278.613 C 46.799 237.372,49.758 181.569,54.656 163.891 C 59.079 147.931,69.069 135.371,82.925 128.350 C 88.732 125.407,99.956 122.344,108.803 121.286 C 116.425 120.375,142.790 118.812,159.147 118.302 C 181.170 117.615,368.541 118.526,381.013 119.381 M164.101 153.681 C 135.487 156.232,116.589 168.231,105.803 190.696 C 96.309 210.469,93.353 228.875,94.103 263.536 C 94.629 287.851,96.364 300.409,101.195 314.867 C 107.394 333.416,116.201 344.533,130.264 351.560 C 141.617 357.233,163.426 360.171,181.758 358.497 C 215.086 355.452,233.406 342.624,242.266 316.127 C 245.207 307.331,247.195 296.324,247.695 286.080 L 248.038 279.040 222.579 279.040 L 197.120 279.040 197.120 283.891 C 197.120 298.104,189.197 308.948,176.956 311.490 C 167.725 313.406,159.569 310.720,153.238 303.678 C 145.981 295.607,144.227 286.575,144.227 257.280 C 144.227 229.111,146.184 217.954,152.613 209.452 C 157.383 203.145,162.352 200.960,171.929 200.960 C 178.764 200.960,180.068 201.219,183.563 203.274 C 191.690 208.052,196.857 216.696,197.717 226.952 L 198.221 232.960 223.347 232.960 L 248.473 232.960 247.916 225.493 C 246.713 209.390,243.511 196.715,237.839 185.600 C 235.202 180.432,232.579 177.007,227.044 171.501 C 215.633 160.151,203.862 155.274,183.893 153.621 C 178.261 153.155,173.269 152.820,172.800 152.878 C 172.331 152.935,168.416 153.296,164.101 153.681 M338.773 153.287 C 299.916 156.003,278.993 172.896,269.161 209.493 C 265.439 223.346,264.241 234.989,264.245 257.280 C 264.250 293.666,269.130 316.821,280.349 333.697 C 290.561 349.058,304.772 356.143,330.136 358.519 C 349.640 360.346,369.577 357.390,384.000 350.534 C 394.027 345.768,403.400 336.379,408.566 325.929 C 413.954 315.026,418.133 296.051,418.133 282.487 L 418.133 279.040 393.083 279.040 L 368.032 279.040 367.468 285.227 C 366.583 294.940,364.782 299.249,359.330 304.695 C 355.260 308.761,353.719 309.687,348.826 311.010 C 334.694 314.829,321.876 307.352,317.424 292.693 C 314.309 282.437,313.159 257.338,314.882 237.227 C 315.901 225.344,317.009 220.227,319.780 214.613 C 324.325 205.408,330.447 201.321,340.602 200.714 C 346.245 200.377,347.750 200.611,351.769 202.451 C 360.882 206.623,366.358 214.760,368.076 226.683 L 368.980 232.960 393.557 232.960 L 418.133 232.960 418.128 227.627 C 418.116 214.236,413.853 196.853,407.613 184.747 C 399.469 168.947,382.716 157.605,363.093 154.608 C 356.141 153.546,344.283 152.902,338.773 153.287 " stroke="none" fill-rule="evenodd" fill="black"></path></svg>