<svg id="Layer_1" data-name="Layer 1" xmlns="http://www.w3.org/2000/svg" viewBox="0 0 512 512"><path d="M24.320 34.023 C 18.870 37.408,16.213 41.878,16.213 47.663 C 16.213 49.412,30.994 143.914,49.059 257.669 C 74.260 416.357,82.317 465.348,83.677 468.157 C 85.686 472.308,90.160 476.568,94.658 478.613 C 97.430 479.874,112.027 480.024,255.573 480.263 C 370.823 480.455,414.652 480.265,417.930 479.560 C 422.841 478.503,426.867 475.632,428.869 471.760 C 429.617 470.314,438.184 418.029,449.300 347.061 C 459.829 279.847,468.678 223.413,468.964 221.653 L 469.483 218.453 397.302 218.453 C 357.602 218.453,325.102 218.741,325.081 219.093 C 325.059 219.445,320.912 244.693,315.865 275.200 L 306.689 330.667 255.958 330.667 L 205.227 330.667 192.423 256.853 L 179.619 183.040 327.463 182.824 C 408.777 182.706,475.307 182.326,475.307 181.982 C 475.307 181.637,479.915 152.098,485.547 116.339 C 491.179 80.581,495.787 49.785,495.787 47.904 C 495.787 41.828,492.520 36.471,487.082 33.630 C 485.116 32.603,451.246 32.427,255.829 32.430 C 33.970 32.433,26.801 32.482,24.320 34.023 " stroke="none" fill-rule="evenodd" fill="black"></path></svg>