<svg xmlns="http://www.w3.org/2000/svg" width="512" height="512" viewBox="0 0 512 512"><path d="M234.667 32.957 C 208.351 36.087,185.936 42.058,164.672 51.602 C 154.503 56.166,140.774 63.618,133.973 68.264 L 130.133 70.887 134.827 70.217 C 143.749 68.943,162.778 69.638,172.073 71.577 C 195.073 76.375,223.077 90.252,247.040 108.726 C 250.795 111.621,254.343 114.282,254.925 114.639 C 255.582 115.043,258.492 113.380,262.605 110.250 C 304.582 78.303,342.889 65.152,378.453 70.479 L 381.867 70.990 378.027 68.315 C 361.254 56.632,331.750 43.864,308.907 38.403 C 290.840 34.084,282.047 33.097,259.413 32.844 C 247.445 32.711,236.309 32.761,234.667 32.957 M99.159 96.297 C 85.257 109.966,73.960 124.148,64.484 139.826 C 25.427 204.448,21.427 284.059,53.810 352.238 C 56.547 358.001,60.217 365.105,61.965 368.025 C 67.713 377.626,76.108 389.973,76.888 389.973 C 77.309 389.973,77.655 387.573,77.658 384.640 C 77.661 381.707,78.425 374.123,79.357 367.787 C 84.622 331.978,98.370 294.650,118.516 261.457 C 136.096 232.491,165.558 195.079,192.675 167.285 L 204.706 154.953 193.873 144.227 C 169.689 120.281,143.144 101.359,119.674 91.336 C 108.054 86.373,109.644 85.989,99.159 96.297 M394.136 90.768 C 379.271 96.826,362.504 106.891,346.422 119.409 C 335.199 128.145,319.376 142.356,312.835 149.573 L 307.591 155.359 319.044 167.066 C 354.344 203.151,388.494 249.164,405.741 283.880 C 421.753 316.111,432.324 352.537,434.093 381.581 C 434.374 386.197,434.834 389.962,435.116 389.948 C 436.814 389.866,449.987 368.893,456.469 355.954 C 489.746 289.518,487.406 209.025,450.327 144.640 C 439.379 125.628,422.783 104.695,408.829 92.293 L 403.033 87.142 394.136 90.768 M242.720 208.455 C 206.272 235.685,173.775 266.785,148.602 298.526 C 125.226 328.001,105.890 360.502,94.958 388.693 C 88.733 404.746,88.759 404.457,93.080 409.581 C 97.267 414.546,112.263 428.049,120.597 434.358 C 136.956 446.742,159.507 459.130,177.920 465.848 C 204.477 475.536,228.126 479.745,256.000 479.745 C 283.910 479.745,307.705 475.504,334.080 465.829 C 352.794 458.963,375.016 446.763,391.403 434.358 C 399.775 428.020,414.740 414.538,418.968 409.523 C 422.598 405.219,422.618 405.159,421.581 401.633 C 421.006 399.679,418.978 394.048,417.074 389.120 C 395.371 332.955,348.506 272.616,288.427 223.483 C 279.992 216.586,262.443 203.334,257.686 200.270 C 255.553 198.897,255.408 198.976,242.720 208.455 " stroke="none" fill-rule="evenodd" fill="black"></path></svg>