<svg xmlns="http://www.w3.org/2000/svg" width="512" height="512" viewBox="0 0 512 512"><path d="M235.947 32.932 C 234.539 33.125,228.779 33.895,223.147 34.643 C 201.378 37.533,178.502 44.686,156.543 55.468 C 135.395 65.852,114.762 80.675,97.721 97.728 C 62.181 133.293,40.515 177.472,33.687 228.301 C 32.038 240.579,31.799 267.116,33.223 279.893 C 42.493 363.058,96.568 433.911,174.080 464.453 C 200.442 474.840,226.772 479.760,256.000 479.760 C 285.228 479.760,311.558 474.840,337.920 464.453 C 408.059 436.816,459.420 376.043,475.216 301.999 C 479.545 281.705,481.019 252.652,478.762 232.107 C 473.176 181.254,450.783 134.429,414.669 98.086 C 381.132 64.337,336.832 41.871,289.280 34.497 C 280.777 33.179,242.376 32.052,235.947 32.932 M238.317 121.225 C 243.251 122.595,246.804 126.330,252.563 136.202 L 257.829 145.230 263.383 135.780 C 266.437 130.583,270.075 125.372,271.467 124.201 C 278.524 118.263,288.783 119.984,294.240 128.020 C 295.964 130.559,296.207 131.787,295.926 136.533 L 295.597 142.080 257.452 207.078 C 236.472 242.827,219.307 272.277,219.307 272.523 C 219.307 272.769,233.419 273.088,250.667 273.232 C 281.555 273.489,282.094 273.524,286.500 275.515 C 295.106 279.406,301.518 289.459,301.059 298.342 L 300.800 303.360 216.747 303.602 C 170.517 303.736,131.422 303.618,129.869 303.341 C 126.500 302.740,120.940 297.956,119.461 294.386 C 117.773 290.312,118.759 283.116,121.496 279.527 C 126.028 273.586,126.266 273.541,156.041 273.067 L 182.802 272.640 211.266 224.188 L 239.731 175.736 231.346 161.468 C 220.025 142.206,219.307 140.689,219.307 136.056 C 219.307 129.144,222.971 123.804,229.252 121.565 C 233.280 120.129,234.240 120.093,238.317 121.225 M307.083 229.143 L 332.992 273.067 356.817 273.067 C 376.390 273.067,381.205 273.302,383.802 274.387 C 390.260 277.086,393.387 281.683,393.387 288.481 C 393.387 293.869,391.106 298.283,386.794 301.241 C 383.813 303.286,383.139 303.369,367.568 303.626 C 353.881 303.851,351.503 304.080,351.907 305.131 C 352.168 305.813,356.232 312.909,360.938 320.900 C 372.326 340.238,372.907 341.458,372.907 346.027 C 372.907 354.739,366.310 361.358,357.627 361.358 C 351.590 361.358,347.560 359.016,344.052 353.469 C 341.564 349.535,291.289 263.955,277.518 240.213 C 273.401 233.115,270.053 226.202,269.268 223.181 C 266.954 214.275,267.819 205.307,271.803 196.893 C 273.936 192.389,279.381 185.148,280.600 185.196 C 280.915 185.208,292.833 204.984,307.083 229.143 M179.200 310.682 C 183.562 312.657,187.326 315.942,189.086 319.311 C 190.246 321.531,189.941 322.183,180.039 338.658 C 174.402 348.035,168.626 356.687,167.203 357.884 C 160.464 363.555,150.776 362.415,145.358 355.312 C 143.494 352.868,142.928 351.078,142.653 346.754 L 142.305 341.286 150.986 326.793 C 155.761 318.821,160.486 311.536,161.488 310.603 C 164.060 308.207,173.828 308.250,179.200 310.682 " stroke="none" fill-rule="evenodd" fill="black"></path></svg>