<svg xmlns="http://www.w3.org/2000/svg" width="512" height="512" viewBox="0 0 512 512"><path d="M64.016 33.067 C 64.142 38.165,98.928 434.572,99.280 434.925 C 100.032 435.676,253.618 479.515,255.573 479.536 C 257.410 479.556,411.928 435.717,412.683 434.961 C 412.933 434.712,420.768 346.440,430.096 238.801 C 439.424 131.162,447.299 40.693,447.596 37.760 L 448.136 32.427 256.068 32.427 C 150.431 32.427,64.007 32.715,64.016 33.067 M375.861 117.973 C 375.374 122.115,372.053 161.200,372.053 162.792 C 372.053 163.614,352.167 163.840,279.864 163.840 L 187.675 163.840 188.139 167.893 C 188.395 170.123,189.177 179.627,189.877 189.013 C 190.577 198.400,191.369 208.096,191.636 210.560 L 192.123 215.040 279.955 215.040 C 363.047 215.040,367.785 215.121,367.757 216.533 C 367.676 220.587,354.380 366.108,354.068 366.357 C 353.869 366.516,331.726 372.909,304.860 380.563 L 256.013 394.480 207.153 380.643 C 180.280 373.033,158.057 366.547,157.767 366.230 C 157.284 365.700,150.979 295.573,151.021 291.200 L 151.040 289.280 174.933 289.280 C 193.472 289.280,198.829 289.519,198.839 290.347 C 198.870 292.914,202.196 327.921,202.433 328.157 C 202.577 328.301,214.690 331.722,229.350 335.760 L 256.005 343.100 282.243 335.765 C 296.673 331.731,308.730 328.166,309.035 327.842 C 309.472 327.379,314.880 269.763,314.880 265.575 C 314.880 264.775,296.082 264.493,231.479 264.324 L 148.078 264.107 141.928 191.573 C 138.546 151.680,135.756 117.984,135.729 116.693 L 135.680 114.347 255.984 114.347 L 376.287 114.347 375.861 117.973 " stroke="none" fill-rule="evenodd" fill="black"></path></svg>