<svg xmlns="http://www.w3.org/2000/svg" width="512" height="512" viewBox="0 0 512 512"><path d="M179.269 120.728 C 150.132 151.928,126.293 177.656,126.293 177.901 C 126.293 178.146,170.385 178.347,224.274 178.347 L 322.254 178.347 372.114 124.864 C 399.537 95.449,423.446 69.721,425.246 67.691 L 428.518 64.000 330.381 64.000 L 232.244 64.000 179.269 120.728 M54.020 255.214 C 25.013 286.226,1.152 311.954,0.996 312.387 C 0.823 312.865,79.953 313.173,202.969 313.173 L 405.226 313.173 457.973 256.786 C 486.984 225.774,510.848 200.046,511.004 199.613 C 511.177 199.135,432.031 198.827,309.025 198.827 L 106.761 198.827 54.020 255.214 M139.947 386.638 C 113.429 415.270,89.878 440.789,87.609 443.348 L 83.485 448.000 181.496 448.000 L 279.506 448.000 319.166 405.602 C 340.980 382.283,364.905 356.747,372.333 348.855 L 385.840 334.507 287.000 334.543 L 188.160 334.580 139.947 386.638 " stroke="none" fill-rule="evenodd" fill="black"></path></svg>