<svg xmlns="http://www.w3.org/2000/svg" width="512" height="512" viewBox="0 0 512 512"><path d="M233.813 33.755 C 214.191 36.796,192.415 45.186,176.284 55.920 C 161.524 65.741,145.613 82.980,137.441 98.006 C 124.109 122.516,120.752 148.274,124.658 196.088 C 125.206 202.796,125.410 208.528,125.111 208.827 C 124.812 209.126,119.100 207.874,112.417 206.046 C 96.402 201.663,90.542 201.555,82.539 205.495 C 71.645 210.858,66.090 220.267,66.757 232.225 C 67.205 240.258,70.057 246.606,75.453 251.580 C 80.500 256.233,84.376 258.074,95.744 261.219 C 111.252 265.509,117.400 269.101,120.036 275.411 C 121.616 279.192,121.010 281.982,116.765 290.464 C 111.993 300.001,107.365 306.513,99.639 314.560 C 91.675 322.856,83.096 328.985,72.306 334.088 C 58.946 340.406,49.064 342.657,22.613 345.406 L 16.640 346.027 16.394 352.964 C 15.817 369.221,21.343 381.920,33.469 392.200 C 40.151 397.866,45.023 399.987,59.821 403.675 C 74.733 407.390,80.789 410.016,82.971 413.709 C 83.718 414.973,84.778 418.486,85.327 421.514 C 86.607 428.570,87.812 430.819,92.547 434.987 C 99.706 441.288,109.721 442.550,128.427 439.507 C 144.370 436.914,149.292 436.602,156.111 437.752 C 164.323 439.137,174.349 444.266,186.880 453.492 C 192.277 457.466,199.609 462.480,203.172 464.634 C 222.094 476.075,244.295 481.604,263.430 479.640 C 281.150 477.821,295.043 471.994,321.707 455.198 C 339.804 443.797,347.266 439.950,353.994 438.554 C 359.831 437.342,374.892 437.879,391.213 439.880 C 413.924 442.664,420.123 439.243,427.665 419.762 C 431.616 409.557,432.385 408.858,441.173 407.507 C 449.164 406.279,461.484 402.531,468.327 399.247 C 476.597 395.278,485.415 387.156,489.211 380.010 C 492.301 374.194,494.852 364.001,495.503 354.870 L 496.028 347.500 491.428 346.923 C 459.363 342.904,440.041 336.000,421.840 322.059 C 406.518 310.323,392.323 289.703,392.166 278.952 C 392.063 271.913,395.228 269.697,415.968 262.287 C 434.443 255.685,440.480 250.961,444.666 239.827 C 449.515 226.933,442.614 211.051,429.569 205.078 C 421.118 201.209,416.596 201.456,396.106 206.903 C 391.265 208.189,387.205 209.107,387.083 208.941 C 386.961 208.775,387.372 202.688,387.997 195.413 C 389.835 173.986,389.630 146.613,387.542 134.809 C 384.342 116.721,379.164 103.409,369.966 89.625 C 351.377 61.769,320.988 42.127,285.329 34.920 C 273.195 32.467,246.079 31.855,233.813 33.755 M215.395 130.874 C 217.004 132.102,219.407 135.317,220.734 138.020 C 222.938 142.509,223.147 143.744,223.145 152.320 C 223.144 160.531,222.892 162.188,221.129 165.547 C 217.369 172.712,213.307 175.787,207.600 175.787 C 202.572 175.787,198.594 172.563,195.258 165.786 C 192.645 160.480,192.428 159.409,192.448 151.911 C 192.464 145.306,192.831 142.991,194.409 139.531 C 199.357 128.681,207.900 125.157,215.395 130.874 M308.736 129.204 C 312.203 131.015,315.418 134.762,317.587 139.520 C 319.169 142.991,319.536 145.302,319.552 151.911 C 319.572 159.409,319.355 160.480,316.742 165.786 C 313.406 172.563,309.428 175.787,304.400 175.787 C 298.672 175.787,294.557 172.659,290.925 165.547 C 288.250 160.309,287.594 148.015,289.657 141.803 C 293.247 130.996,301.603 125.477,308.736 129.204 M209.336 192.988 C 210.361 193.532,213.297 195.840,215.860 198.117 C 221.523 203.148,233.813 209.367,241.920 211.303 C 249.811 213.188,263.240 213.156,270.507 211.235 C 278.386 209.151,287.126 204.872,293.411 200.018 C 304.027 191.821,304.014 191.829,307.093 192.321 C 312.746 193.223,315.483 198.656,312.850 203.748 C 310.099 209.067,295.347 219.208,283.986 223.589 C 266.959 230.155,247.471 230.517,230.381 224.582 C 218.138 220.331,202.213 209.671,199.094 203.639 C 195.581 196.846,202.683 189.461,209.336 192.988 " stroke="none" fill-rule="evenodd" fill="black"></path></svg>