<svg xmlns="http://www.w3.org/2000/svg" width="512" height="512" viewBox="0 0 512 512"><path d="M29.013 112.349 C 24.278 113.206,21.494 114.512,19.127 116.989 C 16.694 119.535,16.642 119.779,16.753 128.276 C 16.846 135.395,17.408 138.883,19.873 147.631 C 32.442 192.251,60.480 247.688,96.673 299.487 C 108.712 316.716,117.385 327.280,129.280 339.202 C 147.667 357.632,166.037 371.014,187.307 381.474 C 210.790 393.023,230.888 398.305,254.393 399.106 C 275.858 399.838,288.132 397.452,293.064 391.591 C 296.462 387.553,296.960 382.435,296.960 351.549 C 296.960 319.005,297.270 316.891,302.355 314.745 C 307.132 312.728,315.698 313.450,322.000 316.399 C 336.772 323.312,356.003 339.677,378.215 364.239 C 399.064 387.292,406.079 394.080,412.141 397.064 L 417.671 399.787 450.542 399.787 C 485.453 399.787,486.841 399.644,491.388 395.595 C 496.014 391.475,497.081 384.066,494.234 375.829 C 488.885 360.356,463.520 327.922,430.552 294.400 C 410.567 274.079,407.424 268.873,410.616 261.373 C 411.174 260.061,418.026 249.195,425.842 237.227 C 461.204 183.081,476.926 155.612,483.093 137.204 C 487.251 124.796,486.554 118.734,480.540 114.994 C 477.485 113.094,476.974 113.063,445.151 112.815 C 407.302 112.519,406.028 112.700,399.469 119.304 C 396.577 122.215,394.476 125.633,391.764 131.840 C 372.445 176.056,344.176 221.169,323.401 240.939 C 315.269 248.678,310.137 251.733,305.267 251.733 C 302.699 251.733,301.756 251.195,299.777 248.601 L 297.387 245.468 296.960 184.387 C 296.490 117.055,296.715 119.724,291.112 115.009 C 289.302 113.487,287.000 112.591,283.955 112.225 C 281.487 111.927,260.459 111.803,237.227 111.949 C 198.474 112.191,194.755 112.340,192.176 113.748 C 186.975 116.588,184.628 123.356,186.833 129.156 C 187.276 130.322,189.997 134.457,192.879 138.344 C 199.310 147.017,201.654 151.556,204.149 160.163 C 206.057 166.747,206.080 167.423,206.080 216.747 C 206.080 262.792,205.963 266.880,204.578 269.415 C 195.470 286.076,167.166 255.623,137.782 197.547 C 127.259 176.749,120.235 160.557,112.159 138.479 C 105.928 121.445,103.279 117.059,97.510 114.218 C 93.480 112.233,93.135 112.212,62.293 112.088 C 45.163 112.019,30.187 112.137,29.013 112.349 " stroke="none" fill-rule="evenodd" fill="black"></path></svg>