<svg xmlns="http://www.w3.org/2000/svg" width="512" height="512" viewBox="0 0 512 512"><path d="M229.342 33.721 C 188.965 38.608,148.933 55.478,115.999 81.484 C 107.194 88.437,86.785 109.035,80.056 117.760 C 63.167 139.656,51.754 160.964,43.491 186.027 C 35.506 210.243,32.260 230.468,32.260 256.000 C 32.260 306.704,48.275 353.028,80.054 394.240 C 87.254 403.577,108.423 424.746,117.760 431.946 C 151.116 457.667,188.543 473.261,229.120 478.344 C 242.300 479.996,267.303 480.210,279.467 478.777 C 322.631 473.689,359.942 458.450,394.240 431.901 C 403.679 424.594,424.812 403.476,431.928 394.240 C 451.770 368.484,464.778 342.239,472.741 311.894 C 477.763 292.755,479.755 276.886,479.755 256.000 C 479.755 205.229,463.774 159.047,431.919 117.760 C 425.166 109.007,404.772 88.411,396.001 81.484 C 362.701 55.189,322.767 38.489,281.704 33.685 C 268.648 32.158,242.105 32.176,229.342 33.721 M190.499 203.278 C 207.186 209.538,219.525 222.144,225.398 238.933 C 227.052 243.660,227.336 246.184,227.322 256.000 C 227.306 266.234,227.055 268.219,225.072 273.779 C 221.884 282.720,218.048 288.764,211.104 295.789 C 206.217 300.732,203.475 302.674,197.024 305.762 C 186.985 310.566,181.756 311.807,171.520 311.815 C 150.166 311.831,131.305 299.860,121.897 280.320 C 106.840 249.048,122.862 212.648,156.160 202.483 C 161.735 200.780,163.990 200.567,173.653 200.824 C 182.967 201.073,185.669 201.466,190.499 203.278 M357.547 202.931 C 384.233 211.705,400.478 239.982,394.654 267.520 C 391.935 280.374,383.494 293.582,373.387 300.793 C 362.687 308.429,352.576 311.773,340.053 311.818 C 330.774 311.852,325.177 310.579,316.160 306.382 C 283.554 291.209,273.957 249.306,296.572 220.850 C 303.356 212.314,314.756 204.950,325.973 201.857 C 332.945 199.935,350.222 200.523,357.547 202.931 " stroke="none" fill-rule="evenodd" fill="black"></path></svg>