<svg xmlns="http://www.w3.org/2000/svg" width="512" height="512" viewBox="0 0 512 512"><path d="M135.680 33.698 C 96.409 40.424,62.831 64.835,45.189 99.487 C 40.727 108.252,35.786 122.383,34.176 130.987 C 29.240 157.353,33.062 184.727,45.013 208.610 L 48.841 216.259 47.424 224.793 C 43.905 245.980,43.765 266.026,46.980 288.427 C 56.096 351.948,94.479 407.909,151.467 440.765 C 187.050 461.280,232.236 471.707,272.185 468.621 C 279.317 468.071,287.791 467.184,291.016 466.652 C 296.808 465.695,296.967 465.721,303.985 468.735 C 322.148 476.538,336.867 479.692,355.413 479.754 C 381.646 479.843,404.562 472.938,426.285 458.400 C 452.052 441.157,472.206 410.892,477.821 381.013 C 482.162 357.908,479.447 331.664,470.579 311.017 L 467.423 303.668 469.336 291.994 C 471.709 277.515,472.543 252.654,471.121 238.793 C 466.927 197.909,452.457 162.009,426.808 128.853 C 414.653 113.141,392.239 92.964,374.187 81.482 C 347.935 64.787,317.839 53.996,284.587 49.358 C 274.155 47.903,243.402 47.926,231.426 49.399 L 221.785 50.584 213.506 46.271 C 195.006 36.633,176.863 32.366,155.009 32.514 C 147.898 32.562,139.200 33.095,135.680 33.698 M275.627 110.985 C 309.358 114.074,334.975 125.161,352.954 144.453 C 363.208 155.457,368.641 168.070,368.639 180.873 C 368.638 189.257,365.726 195.701,359.140 201.894 C 352.410 208.221,346.683 210.180,336.213 209.736 C 330.152 209.479,327.244 208.943,324.687 207.611 C 320.472 205.415,313.663 198.254,309.844 192.000 C 298.877 174.036,291.202 165.407,282.750 161.537 C 265.789 153.772,232.808 155.149,217.240 164.272 C 204.493 171.743,199.213 183.173,203.840 193.280 C 206.183 198.395,213.290 204.491,221.277 208.233 C 229.711 212.186,237.716 214.562,258.560 219.300 C 311.380 231.306,331.918 238.232,350.661 250.357 C 364.992 259.627,375.654 274.100,379.872 290.011 C 382.402 299.550,382.998 318.988,381.056 328.582 C 374.782 359.574,351.723 382.684,315.015 394.768 C 299.144 399.992,285.480 402.061,263.680 402.541 C 229.718 403.289,206.147 399.079,183.837 388.280 C 158.692 376.110,138.189 351.797,133.502 328.591 C 130.097 311.733,135.705 299.452,149.760 292.984 C 154.187 290.946,155.977 290.624,162.987 290.598 C 170.073 290.572,171.684 290.856,175.787 292.852 C 184.120 296.908,187.999 301.523,195.014 315.733 C 204.489 334.927,211.430 342.930,223.838 348.970 C 227.682 350.841,233.786 352.960,237.404 353.679 C 244.989 355.187,263.924 355.419,272.030 354.103 C 290.723 351.070,306.139 341.636,312.026 329.628 C 314.088 325.423,314.439 323.684,314.405 317.867 C 314.351 308.835,312.075 303.587,305.678 297.740 C 296.569 289.415,284.889 285.021,253.772 278.210 C 198.804 266.179,174.543 256.349,157.305 239.126 C 143.115 224.948,137.717 210.301,138.411 187.862 C 138.729 177.601,139.083 175.326,141.385 168.764 C 152.152 138.070,181.420 118.458,225.707 112.263 C 241.514 110.052,260.216 109.573,275.627 110.985 " stroke="none" fill-rule="evenodd" fill="black"></path></svg>