<svg xmlns="http://www.w3.org/2000/svg" width="512" height="512" viewBox="0 0 512 512"><path d="M235.947 32.932 C 234.539 33.125,228.779 33.895,223.147 34.643 C 166.468 42.168,111.630 74.979,76.386 122.453 C 46.986 162.054,32.279 206.531,32.226 256.000 C 32.188 291.519,39.311 322.273,55.053 354.560 C 65.865 376.735,80.520 397.148,98.309 414.813 C 140.043 456.256,196.923 479.671,256.000 479.726 C 327.325 479.792,392.975 446.835,435.633 389.547 C 464.901 350.240,479.710 305.289,479.767 255.573 C 479.819 211.666,467.081 169.212,443.028 133.120 C 432.928 117.965,425.793 109.212,413.819 97.287 C 380.215 63.821,337.664 42.613,287.827 34.492 C 279.873 33.195,242.267 32.065,235.947 32.932 M278.949 87.576 C 326.777 93.792,371.189 121.496,397.775 161.701 C 430.980 211.916,435.495 274.810,409.722 328.107 C 405.089 337.687,395.844 353.569,394.369 354.480 C 394.007 354.704,340.388 301.563,275.215 236.388 L 156.719 117.890 163.480 113.537 C 198.892 90.734,237.118 82.140,278.949 87.576 M271.360 96.510 C 264.989 97.737,255.462 102.975,250.404 108.033 C 237.929 120.508,234.481 141.372,242.170 157.867 C 245.385 164.764,253.598 172.622,261.322 176.191 C 264.766 177.782,269.424 179.548,271.674 180.114 C 275.245 181.013,275.697 181.372,275.239 182.945 C 271.493 195.797,273.385 205.772,281.144 214.067 C 287.970 221.365,290.556 222.037,314.880 222.841 C 337.584 223.592,346.711 224.599,352.000 226.937 C 357.036 229.163,358.423 231.218,359.474 238.011 L 360.410 244.053 367.888 244.053 C 372.001 244.053,375.548 243.758,375.771 243.398 C 375.994 243.037,375.835 239.703,375.419 235.989 C 373.730 220.929,365.955 213.004,349.390 209.460 C 344.599 208.434,336.113 207.836,320.427 207.418 C 295.877 206.763,293.985 206.360,291.326 201.217 C 289.100 196.914,290.051 187.777,293.415 181.144 C 296.385 175.286,296.556 174.294,295.135 171.175 C 293.870 168.398,290.125 166.738,283.536 166.034 C 280.611 165.721,276.033 164.714,273.364 163.795 C 259.095 158.886,253.435 150.595,254.524 136.196 C 255.087 128.751,257.603 122.953,262.212 118.481 C 265.243 115.539,273.038 111.787,276.117 111.787 C 277.180 111.787,277.356 110.457,277.152 103.962 C 277.017 99.642,276.524 96.056,276.053 95.954 C 275.584 95.853,273.472 96.103,271.360 96.510 M295.253 118.824 L 295.253 126.911 300.716 127.471 C 315.821 129.018,322.533 135.632,322.552 148.983 C 322.561 155.819,320.389 165.267,317.100 172.693 C 315.879 175.450,314.880 178.930,314.880 180.425 C 314.880 183.488,317.351 186.645,320.237 187.270 C 321.280 187.496,330.398 187.788,340.500 187.920 L 358.866 188.160 364.571 190.969 C 377.309 197.242,382.257 208.193,383.646 233.188 L 384.249 244.053 392.231 244.053 L 400.213 244.053 400.210 239.573 C 400.205 231.476,398.423 215.839,396.768 209.368 C 392.496 192.665,382.258 180.417,367.877 174.803 C 363.914 173.257,360.679 172.852,349.013 172.442 C 337.452 172.035,334.980 171.729,335.196 170.731 C 335.341 170.063,336.031 167.375,336.730 164.758 C 338.579 157.830,339.170 146.356,337.974 140.613 C 334.378 123.360,321.967 113.734,300.160 111.287 L 295.253 110.737 295.253 118.824 M237.012 274.986 C 301.898 339.870,354.987 393.255,354.987 393.618 C 354.987 394.785,341.165 403.332,331.504 408.141 C 289.962 428.816,246.587 431.877,202.111 417.272 C 158.454 402.936,123.906 372.690,103.189 330.667 C 93.227 310.458,87.746 290.031,86.248 267.531 C 84.248 237.484,89.976 208.698,103.278 181.954 C 108.853 170.742,117.204 157.013,118.448 157.013 C 118.772 157.013,172.126 210.101,237.012 274.986 M111.787 279.893 L 111.787 303.787 176.421 303.787 L 241.055 303.787 217.173 279.893 L 193.291 256.000 152.539 256.000 L 111.787 256.000 111.787 279.893 M334.507 272.640 C 343.650 281.792,351.422 289.280,351.778 289.280 C 352.135 289.280,352.427 281.792,352.427 272.640 L 352.427 256.000 335.155 256.000 L 317.883 256.000 334.507 272.640 M360.107 279.893 L 360.107 303.787 368.213 303.787 L 376.320 303.787 376.320 279.893 L 376.320 256.000 368.213 256.000 L 360.107 256.000 360.107 279.893 M384.000 279.893 L 384.000 303.787 392.107 303.787 L 400.213 303.787 400.213 279.893 L 400.213 256.000 392.107 256.000 L 384.000 256.000 384.000 279.893 " stroke="none" fill-rule="evenodd" fill="black"></path></svg>