<svg id="Layer_1" data-name="Layer 1" xmlns="http://www.w3.org/2000/svg" viewBox="0 0 512 512"><path d="M235.947 32.932 C 234.539 33.125,228.779 33.895,223.147 34.643 C 174.285 41.130,124.739 67.476,90.534 105.158 C 59.168 139.711,40.014 181.203,33.687 228.300 C 32.038 240.579,31.799 267.116,33.223 279.893 C 41.717 356.096,87.934 422.350,156.587 456.740 C 205.413 481.198,264.333 486.510,317.848 471.280 C 391.179 450.409,450.409 391.179,471.280 317.848 C 482.692 277.750,482.692 234.250,471.280 194.152 C 449.641 118.120,387.196 57.812,310.550 38.921 C 291.116 34.131,282.765 33.139,259.413 32.845 C 247.915 32.700,237.355 32.740,235.947 32.932 M222.293 160.691 C 235.924 164.629,247.097 173.384,252.450 184.320 C 259.709 199.150,259.071 220.384,251.038 231.307 C 247.525 236.083,241.744 240.367,236.302 242.227 L 231.680 243.805 236.296 244.803 C 249.976 247.759,257.920 256.130,262.047 271.936 C 264.316 280.628,264.471 297.487,262.360 306.061 C 258.776 320.620,249.732 331.748,236.228 338.216 C 221.331 345.350,224.193 345.072,162.347 345.389 L 107.520 345.671 107.520 252.155 L 107.520 158.639 162.347 158.925 C 211.277 159.181,217.724 159.371,222.293 160.691 M380.587 181.333 L 380.587 192.853 341.760 192.853 L 302.933 192.853 302.933 181.333 L 302.933 169.813 341.760 169.813 L 380.587 169.813 380.587 181.333 M150.187 212.907 L 150.187 233.813 177.366 233.813 C 206.233 233.813,208.545 233.545,212.671 229.719 C 218.963 223.884,219.774 205.126,214.085 197.012 C 210.714 192.203,209.270 192.000,178.431 192.000 L 150.187 192.000 150.187 212.907 M363.947 208.559 C 374.112 211.349,382.877 216.282,389.513 222.947 C 402.139 235.628,407.644 250.696,408.523 274.987 L 408.979 287.573 360.105 287.573 L 311.232 287.573 311.781 292.249 C 314.166 312.541,330.960 323.269,353.763 319.067 C 364.845 317.025,371.735 311.605,373.996 303.150 L 374.967 299.520 391.129 299.520 L 407.290 299.520 406.756 305.841 C 405.057 325.939,391.292 340.759,369.017 346.471 C 342.565 353.254,312.599 348.468,294.986 334.649 C 278.582 321.778,269.170 295.785,272.115 271.486 C 276.278 237.137,294.880 214.533,324.267 208.114 C 333.507 206.096,355.889 206.347,363.947 208.559 M334.446 234.932 C 329.085 236.444,323.336 239.958,319.991 243.767 C 316.909 247.277,312.675 255.707,311.805 260.064 L 311.249 262.848 341.864 262.624 L 372.480 262.400 372.205 259.004 C 371.777 253.713,369.005 246.808,365.680 242.750 C 361.076 237.131,354.736 234.384,345.669 234.078 C 341.484 233.937,336.675 234.303,334.446 234.932 M150.187 287.573 L 150.187 312.320 178.211 312.320 C 207.816 312.320,211.275 311.950,216.515 308.218 C 220.758 305.197,223.823 298.371,224.251 290.991 C 224.989 278.232,221.292 269.374,213.446 265.104 L 209.262 262.827 179.725 262.827 L 150.187 262.827 150.187 287.573 " stroke="none" fill-rule="evenodd" fill="black"></path></svg>