<svg xmlns="http://www.w3.org/2000/svg" width="512" height="512" viewBox="0 0 512 512"><path d="M230.114 33.730 C 190.979 38.464,154.435 53.264,122.027 77.507 C 111.233 85.581,90.138 106.029,82.260 116.053 C 62.578 141.099,48.224 170.170,40.640 200.345 C 35.412 221.146,34.556 228.837,34.589 254.720 C 34.614 274.638,34.877 279.252,36.527 288.770 C 40.878 313.862,49.250 338.826,59.793 358.146 C 61.637 361.527,63.147 364.855,63.147 365.541 C 63.147 366.227,56.205 392.008,47.721 422.831 C 39.236 453.654,32.484 479.061,32.714 479.292 C 32.945 479.523,59.028 472.960,90.676 464.709 C 122.324 456.458,148.797 449.707,149.504 449.707 C 150.212 449.707,155.167 451.776,160.515 454.305 C 228.834 486.608,308.414 482.691,372.364 443.878 C 423.368 412.922,459.287 364.195,473.533 306.634 C 488.200 247.371,477.216 183.149,443.849 133.074 C 433.876 118.107,426.664 109.241,415.044 97.666 C 378.924 61.686,333.352 39.527,283.477 33.693 C 270.294 32.151,243.013 32.170,230.114 33.730 M279.062 70.862 C 338.667 78.191,390.606 113.215,419.333 165.451 C 451.090 223.199,449.533 293.604,415.255 349.777 C 381.508 405.081,321.465 438.625,256.247 438.611 C 224.955 438.604,191.441 429.660,164.979 414.255 C 160.363 411.567,155.951 409.394,155.173 409.425 C 154.395 409.456,138.738 413.403,120.378 418.194 C 102.018 422.986,86.761 426.672,86.475 426.386 C 86.188 426.099,90.065 410.923,95.090 392.661 L 104.226 359.456 97.393 347.768 C 57.511 279.555,64.448 196.029,115.007 135.680 C 144.647 100.302,188.036 76.742,234.240 70.939 C 242.802 69.864,270.555 69.816,279.062 70.862 M168.422 154.420 C 159.777 159.379,149.485 174.222,146.019 186.731 C 139.902 208.804,145.373 231.062,163.518 257.921 C 191.605 299.497,226.377 330.530,262.258 346.045 C 277.741 352.740,297.058 358.988,305.880 360.156 C 324.163 362.575,340.600 358.115,354.945 346.843 C 363.960 339.759,367.546 332.798,369.701 318.196 C 371.044 309.098,370.188 306.562,364.773 303.602 C 356.086 298.854,321.150 282.570,317.667 281.646 C 313.358 280.504,310.078 281.797,307.618 285.610 C 305.337 289.144,292.437 304.684,289.421 307.529 C 287.156 309.667,286.326 309.936,283.139 309.563 C 277.831 308.943,260.614 300.506,249.202 292.933 C 233.081 282.234,215.173 263.208,204.426 245.361 C 199.977 237.973,200.247 236.214,206.998 228.612 C 214.250 220.445,217.427 215.853,218.981 211.292 C 220.484 206.880,221.126 208.912,209.107 180.053 C 199.927 158.010,197.947 154.251,194.749 152.794 C 193.662 152.298,188.279 151.897,182.787 151.901 C 173.302 151.909,172.580 152.035,168.422 154.420 " stroke="none" fill-rule="evenodd" fill="black"></path></svg>