<svg xmlns="http://www.w3.org/2000/svg" width="512" height="512" viewBox="0 0 512 512"><path d="M64.404 37.760 C 64.700 40.693,72.573 131.159,81.899 238.796 C 91.224 346.432,99.061 434.705,99.314 434.959 C 100.043 435.688,253.675 479.516,255.573 479.536 C 257.410 479.556,411.928 435.717,412.683 434.961 C 412.933 434.712,420.768 346.440,430.096 238.801 C 439.424 131.162,447.299 40.693,447.596 37.760 L 448.136 32.427 256.000 32.427 L 63.864 32.427 64.404 37.760 M376.107 119.680 C 375.859 122.144,370.943 178.688,365.183 245.333 C 359.424 311.979,354.633 366.614,354.538 366.746 C 354.443 366.878,332.271 373.301,305.266 381.019 L 256.166 395.053 207.358 381.050 C 180.513 373.348,158.352 366.850,158.112 366.610 C 157.768 366.266,151.147 294.650,151.061 290.347 C 151.045 289.518,156.368 289.280,174.895 289.280 L 198.749 289.280 199.198 292.053 C 199.445 293.579,200.274 302.315,201.039 311.467 C 201.805 320.619,202.550 328.237,202.696 328.396 C 202.842 328.556,215.056 332.110,229.839 336.295 L 256.716 343.905 283.018 336.581 C 297.485 332.552,309.433 329.145,309.569 329.009 C 309.705 328.872,310.939 315.942,312.310 300.274 C 313.681 284.606,314.975 270.347,315.187 268.587 L 315.571 265.387 259.416 265.387 L 203.261 265.387 202.753 260.480 C 202.473 257.781,201.667 247.893,200.962 238.507 C 200.257 229.120,199.483 220.000,199.243 218.240 L 198.806 215.040 259.403 215.040 L 320.000 215.040 320.000 213.139 C 320.000 210.931,323.175 172.842,323.807 167.467 L 324.234 163.840 232.090 163.840 C 158.946 163.840,139.946 163.620,139.944 162.773 C 139.943 162.187,139.180 152.683,138.249 141.653 C 137.318 130.624,136.551 120.160,136.545 118.400 L 136.533 115.200 256.546 115.200 L 376.559 115.200 376.107 119.680 " stroke="none" fill-rule="evenodd" fill="black"></path></svg>