<svg xmlns="http://www.w3.org/2000/svg" width="512" height="512" viewBox="0 0 512 512"><path d="M65.649 35.192 C 68.871 40.787,175.787 239.018,175.787 239.397 C 175.787 239.611,165.035 239.787,151.893 239.787 L 128.000 239.787 128.000 264.107 L 128.000 288.427 164.907 288.440 L 201.813 288.453 208.853 303.659 L 215.893 318.864 215.893 327.539 L 215.893 336.213 171.947 336.213 L 128.000 336.213 128.000 360.107 L 128.000 384.000 171.940 384.000 L 215.879 384.000 216.100 432.000 L 216.320 480.000 256.213 480.222 L 296.107 480.444 296.107 432.222 L 296.107 384.000 340.053 384.000 L 384.000 384.000 384.000 360.107 L 384.000 336.213 340.053 336.213 L 296.107 336.213 296.122 327.467 L 296.137 318.720 303.317 303.787 L 310.497 288.853 347.249 288.631 L 384.000 288.409 384.000 264.098 L 384.000 239.787 360.015 239.787 C 341.155 239.787,336.127 239.559,336.483 238.720 C 336.732 238.133,361.831 191.573,392.258 135.253 L 447.579 32.853 408.323 32.631 C 386.732 32.509,368.683 32.559,368.213 32.742 C 367.744 32.925,342.400 82.452,311.893 142.802 C 281.387 203.152,256.235 252.529,256.000 252.529 C 255.765 252.529,230.577 203.102,200.026 142.691 L 144.480 32.853 104.264 32.632 L 64.048 32.410 65.649 35.192 " stroke="none" fill-rule="evenodd" fill="black"></path></svg>