<svg xmlns="http://www.w3.org/2000/svg" width="512" height="512" viewBox="0 0 512 512"><path d="M31.785 256.213 L 32.000 480.000 256.000 480.000 L 480.000 480.000 480.215 256.213 L 480.430 32.427 256.000 32.427 L 31.570 32.427 31.785 256.213 M385.308 237.682 C 402.605 240.698,415.452 248.877,425.064 262.993 C 428.834 268.529,428.926 268.896,426.880 270.180 C 426.059 270.696,418.787 275.371,410.720 280.570 L 396.053 290.022 393.366 285.834 C 388.271 277.894,381.049 273.179,372.845 272.435 C 358.202 271.107,349.013 278.045,349.013 290.430 C 349.013 302.011,354.808 307.000,381.867 318.710 C 419.099 334.824,433.473 347.559,439.188 369.493 C 440.995 376.429,441.199 393.536,439.555 400.213 C 433.039 426.681,410.390 442.132,376.096 443.503 C 346.823 444.674,323.452 436.454,307.056 419.223 C 302.221 414.141,295.239 404.191,295.270 402.428 C 295.279 401.914,302.838 397.132,312.068 391.801 C 327.819 382.704,328.918 382.207,329.972 383.695 C 340.401 398.404,349.639 404.443,364.186 406.062 C 377.200 407.510,388.432 404.562,393.800 398.291 C 399.292 391.875,399.441 381.928,394.154 374.630 C 390.578 369.693,384.142 365.863,366.080 357.921 C 346.605 349.358,344.354 348.222,335.610 342.550 C 319.215 331.913,310.334 318.145,308.019 299.775 C 304.984 275.690,315.325 254.458,335.031 244.313 C 338.732 242.408,343.242 240.374,345.054 239.794 C 355.703 236.383,372.735 235.490,385.308 237.682 M272.213 309.547 C 272.212 378.851,271.779 392.273,269.218 402.382 C 265.320 417.767,254.801 431.140,241.493 437.628 C 229.860 443.300,225.422 444.166,208.213 444.121 C 194.169 444.085,192.848 443.939,186.027 441.675 C 182.037 440.351,177.045 438.393,174.933 437.325 C 164.603 432.099,154.122 421.762,148.548 411.306 L 145.885 406.308 161.861 396.647 C 170.648 391.334,178.297 386.701,178.860 386.352 C 179.533 385.934,181.221 387.864,183.792 391.988 C 190.848 403.310,196.467 407.030,206.507 407.030 C 213.695 407.030,217.593 405.605,221.500 401.549 C 228.046 394.754,227.840 397.600,227.840 313.757 L 227.840 239.787 250.027 239.787 L 272.213 239.787 272.213 309.547 " stroke="none" fill-rule="evenodd" fill="black"></path></svg>