<svg xmlns="http://www.w3.org/2000/svg" viewBox="0 0 512 512"><path d="M85.333 34.136 C 59.760 40.472,40.760 59.926,33.914 86.783 L 32.000 94.293 32.000 256.000 L 32.000 417.707 33.908 424.960 C 40.820 451.240,61.172 471.417,87.467 478.060 L 95.147 480.000 256.000 480.000 L 416.853 480.000 424.533 478.060 C 455.620 470.206,478.409 443.053,479.704 412.325 L 480.000 405.287 435.627 386.241 C 387.902 365.757,349.293 348.749,322.314 336.324 L 305.428 328.548 302.693 331.741 C 281.754 356.182,257.848 375.573,233.268 388.054 C 208.739 400.509,186.001 406.192,160.744 406.182 C 135.248 406.171,112.900 399.843,96.000 387.848 C 88.812 382.747,78.546 371.721,74.248 364.486 C 57.049 335.537,62.201 297.953,86.825 272.733 C 98.552 260.722,119.404 250.734,139.947 247.289 C 148.847 245.796,173.860 246.080,186.880 247.821 C 209.868 250.896,240.994 258.200,272.560 267.928 C 285.989 272.066,289.706 272.929,290.308 272.048 C 292.545 268.773,301.905 248.451,305.867 238.268 C 309.719 228.369,314.880 213.331,314.880 212.009 C 314.880 211.799,275.136 211.627,226.560 211.627 L 138.240 211.627 138.240 202.667 L 138.240 193.707 183.893 193.707 L 229.547 193.707 229.547 177.920 L 229.547 162.133 174.507 162.133 L 119.467 162.133 119.467 153.173 L 119.467 144.213 174.507 144.213 L 229.547 144.213 229.547 120.254 L 229.547 96.295 232.041 93.801 L 234.535 91.307 258.068 91.307 L 281.600 91.307 281.600 117.760 L 281.600 144.213 336.213 144.213 L 390.827 144.213 390.827 153.173 L 390.827 162.133 336.213 162.133 L 281.600 162.133 281.600 177.920 L 281.600 193.707 325.973 193.707 C 368.570 193.707,370.347 193.770,370.347 195.285 C 370.347 197.519,364.311 217.838,360.044 229.973 C 354.967 244.409,349.190 257.619,340.847 273.873 C 336.885 281.591,333.934 288.167,334.289 288.488 C 335.393 289.486,394.776 311.453,408.289 315.862 C 442.994 327.185,478.354 336.921,479.740 335.534 C 480.157 335.118,480.371 281.787,480.228 214.116 L 479.973 93.440 478.053 86.613 C 475.870 78.852,471.516 69.227,467.642 63.595 C 460.285 52.903,448.414 43.217,436.212 37.952 C 422.603 32.080,433.928 32.420,254.116 32.488 C 98.841 32.548,91.453 32.620,85.333 34.136 M137.813 275.751 C 128.174 276.979,116.213 280.492,107.618 284.619 C 88.465 293.816,77.178 313.099,80.259 331.362 C 82.229 343.045,90.379 355.277,101.115 362.663 C 107.182 366.838,117.098 371.123,126.192 373.502 C 137.353 376.421,157.120 377.159,168.960 375.098 C 201.190 369.489,234.192 348.226,261.055 315.765 L 266.325 309.396 259.669 306.047 C 236.142 294.208,202.620 281.709,185.173 278.270 C 167.809 274.847,151.648 273.987,137.813 275.751 " stroke="none" fill-rule="evenodd" fill="black"></path></svg>