<svg xmlns="http://www.w3.org/2000/svg" viewBox="0 0 512 512"><path d="M169.813 48.632 C 118.037 52.146,70.642 73.513,38.979 107.615 C 28.585 118.810,21.396 129.117,14.942 142.080 C 8.715 154.585,5.254 164.398,2.451 177.493 C -0.122 189.519,-0.352 214.800,2.005 226.560 C 9.038 261.640,29.021 293.040,58.651 315.566 C 69.697 323.963,69.649 323.602,63.128 349.171 C 60.338 360.114,58.048 369.739,58.041 370.560 C 58.021 372.668,61.075 375.467,63.394 375.467 C 64.469 375.467,75.701 369.525,88.354 362.262 C 114.718 347.130,114.278 347.254,127.839 351.135 C 138.372 354.150,153.253 356.521,167.877 357.516 C 179.747 358.324,193.707 358.678,193.707 358.171 C 193.707 358.045,192.724 353.725,191.522 348.571 C 188.489 335.559,187.695 313.185,189.810 300.304 C 196.686 258.413,225.814 221.164,268.761 199.341 C 294.403 186.312,319.954 180.014,352.593 178.677 L 366.840 178.094 366.340 175.447 C 364.395 165.154,358.655 149.331,353.151 139.093 C 321.255 79.764,247.477 43.361,169.813 48.632 M133.737 132.138 C 142.214 136.483,147.003 144.357,147.050 154.027 C 147.112 166.921,137.770 177.111,124.942 178.141 C 114.777 178.957,105.302 173.466,100.999 164.267 C 98.223 158.332,98.226 149.723,101.005 143.754 C 103.357 138.704,109.557 132.921,114.623 131.052 C 119.633 129.205,129.060 129.740,133.737 132.138 M253.667 131.051 C 258.857 132.819,264.910 138.245,267.757 143.681 C 269.686 147.363,270.047 149.131,270.049 154.880 C 270.051 163.082,268.329 166.976,262.388 172.205 C 252.523 180.890,238.356 180.440,229.064 171.149 C 224.118 166.203,221.867 160.846,221.867 154.027 C 221.867 137.461,238.086 125.742,253.667 131.051 M337.963 191.213 C 298.265 195.687,261.733 212.876,237.226 238.612 C 221.065 255.584,210.878 274.080,205.852 295.574 C 203.946 303.726,203.628 307.055,203.601 319.147 C 203.566 335.019,204.699 341.948,209.655 356.188 C 214.469 370.018,220.213 380.182,230.269 392.668 C 258.099 427.222,306.946 448.813,357.367 448.846 C 373.586 448.857,395.534 445.911,405.545 442.379 C 407.424 441.716,410.765 441.173,412.969 441.173 C 416.535 441.173,418.754 442.218,433.128 450.666 C 456.196 464.224,456.864 464.553,458.987 463.417 C 462.743 461.407,462.687 460.074,458.215 445.014 C 453.758 430.003,453.183 425.550,455.200 421.650 C 455.875 420.345,459.858 416.538,464.051 413.190 C 510.050 376.458,524.660 318.594,500.212 269.970 C 491.272 252.189,474.326 232.734,457.387 220.807 C 437.464 206.778,413.483 197.112,387.840 192.773 C 375.947 190.760,349.360 189.929,337.963 191.213 M315.342 258.873 C 322.979 262.430,327.032 269.015,327.037 277.875 C 327.047 296.762,304.458 305.487,291.243 291.701 C 289.742 290.135,287.918 287.426,287.190 285.681 C 285.521 281.679,285.482 273.342,287.115 269.434 C 291.613 258.670,304.528 253.838,315.342 258.873 M419.474 259.873 C 425.305 263.478,428.628 269.082,429.073 276.059 C 429.497 282.725,428.196 286.820,424.275 291.160 C 414.224 302.286,397.487 300.430,390.386 287.403 C 385.673 278.756,387.454 268.421,394.763 262.003 C 399.595 257.761,402.413 256.801,409.256 257.066 C 414.259 257.259,416.037 257.748,419.474 259.873 " stroke="none" fill-rule="evenodd" fill="black"></path></svg>