<svg xmlns="http://www.w3.org/2000/svg" width="512" height="512" viewBox="0 0 512 512"><path d="M146.347 32.991 C 118.587 36.603,91.543 49.851,71.412 69.701 C 56.039 84.857,45.351 101.843,38.831 121.477 C 35.198 132.417,33.530 140.614,32.446 152.866 C 31.301 165.801,31.301 346.199,32.446 359.134 C 34.761 385.289,43.268 407.617,58.827 428.373 C 66.502 438.612,81.628 452.447,93.524 460.107 C 104.504 467.179,123.057 474.605,136.653 477.370 C 150.001 480.085,162.828 480.412,256.000 480.412 C 349.172 480.412,361.999 480.085,375.347 477.370 C 414.271 469.453,448.172 443.228,466.399 406.935 C 473.702 392.395,477.989 376.817,479.554 359.134 C 480.699 346.199,480.699 165.801,479.554 152.866 C 476.726 120.911,464.452 93.962,442.639 71.813 C 424.088 52.977,404.228 41.708,378.027 35.152 L 369.067 32.910 258.987 32.784 C 198.443 32.715,147.755 32.808,146.347 32.991 M358.260 69.989 C 369.398 71.162,378.823 73.730,388.153 78.134 C 408.797 87.877,423.225 102.093,433.106 122.426 C 438.215 132.940,440.765 141.905,442.011 153.740 C 443.130 164.361,443.130 347.639,442.011 358.260 C 440.718 370.538,438.193 379.173,432.613 390.400 C 417.980 419.843,391.633 438.301,358.827 442.092 C 353.771 442.676,316.745 442.870,250.453 442.660 C 141.288 442.314,147.479 442.575,132.939 437.712 C 98.505 426.194,73.869 395.100,69.989 358.260 C 68.870 347.639,68.870 164.361,69.989 153.740 C 72.304 131.761,81.559 112.183,96.871 96.871 C 111.789 81.952,132.009 72.227,152.666 70.035 C 162.215 69.021,348.681 68.980,358.260 69.989 M370.720 107.413 C 366.355 108.548,359.289 112.801,356.508 115.969 C 350.384 122.943,348.043 132.249,350.238 140.896 C 352.934 151.524,360.466 159.055,371.104 161.760 C 383.765 164.979,396.753 158.560,402.917 146.036 C 404.474 142.874,404.869 140.625,404.886 134.827 C 404.904 128.603,404.571 126.890,402.543 122.759 C 399.790 117.154,394.011 111.491,388.603 109.099 C 384.426 107.251,374.826 106.346,370.720 107.413 M238.507 145.401 C 226.836 147.338,218.440 150.085,206.933 155.730 C 176.793 170.516,156.183 195.764,147.372 228.693 C 144.867 238.055,144.744 239.292,144.697 255.573 C 144.650 271.444,144.810 273.284,146.979 281.834 C 157.610 323.755,188.278 354.420,230.166 365.015 C 238.628 367.156,240.685 367.340,256.000 367.332 C 270.568 367.324,273.649 367.073,280.747 365.320 C 323.600 354.734,354.734 323.600,365.320 280.747 C 367.076 273.640,367.323 270.588,367.323 256.000 C 367.323 241.412,367.076 238.360,365.320 231.253 C 354.567 187.721,322.082 155.888,278.613 146.287 C 270.349 144.462,247.241 143.951,238.507 145.401 M271.392 183.047 C 299.814 189.026,322.975 212.188,328.955 240.615 C 329.662 243.975,330.240 250.899,330.240 256.000 C 330.240 276.695,323.360 293.494,308.907 308.085 C 293.604 323.534,277.334 330.396,256.000 330.396 C 244.283 330.396,236.956 328.929,226.300 324.452 C 204.837 315.434,187.806 294.374,182.937 270.829 C 181.239 262.617,181.705 244.462,183.810 236.800 C 185.715 229.868,191.264 218.418,195.774 212.114 C 206.070 197.721,222.596 186.988,240.640 182.978 C 247.401 181.475,264.099 181.513,271.392 183.047 " stroke="none" fill-rule="evenodd" fill="black"></path></svg>