<svg xmlns="http://www.w3.org/2000/svg" width="512" height="512" viewBox="0 0 512 512"><path d="M235.947 32.932 C 234.539 33.125,228.779 33.895,223.147 34.643 C 177.430 40.713,131.587 63.851,97.301 98.160 C 62.153 133.331,40.492 177.645,33.687 228.300 C 32.038 240.579,31.799 267.116,33.223 279.893 C 44.003 376.609,114.884 454.925,210.001 475.216 C 238.476 481.290,273.524 481.290,301.999 475.216 C 362.644 462.279,414.824 425.364,447.359 372.382 C 479.872 319.435,488.455 253.962,470.894 192.853 C 449.342 117.853,386.601 57.600,310.613 38.927 C 291.077 34.127,282.762 33.139,259.413 32.845 C 247.915 32.700,237.355 32.740,235.947 32.932 M269.241 48.692 C 322.031 52.197,370.445 74.777,406.518 112.715 C 476.503 186.318,483.067 299.842,422.030 380.978 C 388.702 425.282,341.063 453.355,284.160 462.223 C 270.615 464.334,240.736 464.319,227.160 462.195 C 181.791 455.097,143.208 436.139,111.468 405.349 C 77.766 372.656,56.618 330.954,49.795 283.733 C 47.829 270.127,47.822 241.437,49.782 228.433 C 56.729 182.338,75.575 143.588,106.667 111.472 C 138.652 78.433,180.060 57.150,225.707 50.288 C 231.435 49.427,238.231 48.847,253.455 47.918 C 254.636 47.846,261.740 48.194,269.241 48.692 M241.920 64.507 C 199.957 68.751,165.738 82.358,135.253 106.921 C 127.074 113.511,112.803 127.844,106.192 136.107 C 100.992 142.607,89.600 159.394,89.600 160.558 C 89.600 161.616,135.193 161.439,153.708 160.310 C 162.459 159.776,170.647 159.598,171.905 159.913 C 176.684 161.113,177.544 170.063,173.109 172.436 C 172.205 172.920,166.773 173.736,161.039 174.248 C 155.305 174.761,150.526 175.245,150.418 175.323 C 150.311 175.401,164.174 216.914,181.224 267.573 C 198.275 318.232,212.410 360.255,212.637 360.959 C 212.863 361.662,221.552 336.729,231.946 305.551 L 250.844 248.864 237.444 212.002 L 224.044 175.139 215.915 174.563 C 205.867 173.851,201.672 172.795,200.548 170.694 C 199.084 167.959,199.562 164.072,201.662 161.631 L 203.645 159.326 222.944 160.434 C 241.439 161.495,274.271 161.241,294.075 159.883 C 301.263 159.390,301.995 159.488,303.675 161.168 C 304.851 162.344,305.493 164.062,305.493 166.029 C 305.493 172.466,303.244 173.607,288.622 174.590 C 281.115 175.095,279.920 175.377,280.296 176.550 C 290.524 208.446,342.177 360.149,342.503 359.253 C 342.760 358.549,346.469 346.261,350.744 331.947 C 355.020 317.632,360.439 300.352,362.785 293.547 C 377.561 250.688,375.776 228.919,354.602 193.776 C 347.622 182.191,344.356 175.243,342.537 168.107 C 338.764 153.302,345.379 137.979,358.279 131.644 C 362.654 129.496,363.951 129.280,372.480 129.280 C 380.966 129.280,382.320 129.503,386.588 131.599 C 395.962 136.203,403.363 146.591,406.518 159.573 C 409.641 172.426,409.037 202.086,405.285 220.196 C 403.028 231.084,401.336 236.258,379.345 299.520 C 354.440 371.165,334.394 430.252,334.841 430.699 C 335.578 431.436,352.729 422.069,362.068 415.830 C 413.868 381.221,445.407 324.888,447.730 262.827 C 449.662 211.205,430.383 160.647,394.724 123.822 C 364.059 92.155,326.729 72.747,283.733 66.118 C 275.436 64.839,248.791 63.812,241.920 64.507 M77.271 189.183 C 66.654 216.920,62.194 247.002,64.770 273.493 C 71.297 340.609,111.637 398.917,171.947 428.409 C 184.893 434.740,189.171 436.260,188.416 434.261 C 188.168 433.604,167.299 376.331,142.039 306.987 L 96.113 180.907 88.276 180.907 L 80.439 180.907 77.271 189.183 M257.511 275.730 C 256.804 277.785,250.159 297.131,242.745 318.720 C 235.330 340.309,222.840 376.405,214.989 398.933 L 200.714 439.893 204.250 440.983 C 210.600 442.940,228.073 446.198,237.104 447.109 C 255.048 448.918,274.842 447.856,293.973 444.056 C 299.882 442.882,319.973 437.218,320.658 436.533 C 320.791 436.400,318.826 431.707,316.291 426.104 C 313.757 420.501,300.077 384.063,285.892 345.132 C 271.707 306.200,259.808 273.817,259.449 273.170 C 259.001 272.363,258.392 273.167,257.511 275.730 " stroke="none" fill-rule="evenodd" fill="black"></path></svg>