<svg xmlns="http://www.w3.org/2000/svg" viewBox="0 0 512 512"><path d="M218.027 17.173 C 170.198 19.824,132.856 26.262,106.833 36.346 C 79.708 46.856,54.198 76.214,42.023 110.933 C 34.694 131.830,32.703 147.217,31.973 188.587 C 31.133 236.123,32.893 288.613,36.350 319.147 C 46.391 407.838,77.885 459.808,133.547 479.538 C 148.244 484.748,173.608 490.243,198.827 493.682 C 212.627 495.564,248.546 496.283,263.803 494.983 C 290.621 492.698,318.287 486.293,337.378 477.951 L 341.530 476.137 341.033 470.815 C 340.759 467.888,340.285 459.061,339.978 451.200 C 339.671 443.339,339.242 436.907,339.025 436.907 C 338.808 436.907,335.581 437.686,331.852 438.637 C 304.242 445.687,277.313 448.382,247.928 447.037 C 210.314 445.315,191.325 439.624,177.466 425.916 C 167.059 415.622,162.286 404.255,160.310 385.051 C 159.765 379.762,159.473 375.293,159.660 375.120 C 159.847 374.946,165.376 375.887,171.947 377.210 C 212.789 385.435,256.707 389.231,290.494 387.456 C 323.329 385.732,358.350 381.590,374.187 377.557 C 402.536 370.337,430.082 356.033,447.656 339.405 C 461.561 326.249,467.969 315.623,470.939 300.800 C 475.086 280.101,478.184 246.228,479.600 206.080 C 481.244 159.464,478.991 137.120,470.004 110.933 C 460.815 84.157,442.042 58.556,421.538 44.841 C 399.198 29.897,355.504 20.582,291.413 17.098 C 272.890 16.092,236.880 16.128,218.027 17.173 M205.922 99.800 C 218.765 103.084,231.190 110.972,238.869 120.715 C 241.103 123.548,245.728 130.571,249.148 136.320 C 252.568 142.069,255.657 146.773,256.012 146.773 C 256.367 146.773,259.665 141.715,263.342 135.532 C 273.915 117.749,280.413 111.066,293.531 104.483 C 303.551 99.454,310.894 97.923,325.120 97.895 C 338.873 97.869,346.301 99.130,355.742 103.097 C 372.956 110.329,387.034 125.794,393.512 144.586 C 398.944 160.346,398.767 157.466,399.119 236.160 L 399.441 308.053 374.697 308.053 L 349.953 308.053 349.647 241.280 C 349.322 170.504,349.429 172.447,345.342 162.791 C 343.330 158.038,336.764 151.501,331.702 149.212 C 327.790 147.443,325.966 147.200,316.587 147.200 C 306.845 147.200,305.504 147.395,301.124 149.449 C 294.482 152.563,289.749 157.120,286.747 163.292 C 281.349 174.388,281.297 174.892,280.954 219.093 L 280.641 259.413 256.000 259.413 L 231.359 259.413 231.046 219.093 C 230.703 174.892,230.651 174.388,225.253 163.292 C 222.251 157.120,217.518 152.563,210.876 149.449 C 206.496 147.395,205.155 147.200,195.413 147.200 C 185.709 147.200,184.323 147.400,180.053 149.413 C 172.201 153.116,167.054 159.588,164.170 169.387 C 162.799 174.046,162.636 180.520,162.355 241.280 L 162.047 308.053 137.303 308.053 L 112.559 308.053 112.881 236.160 C 113.231 157.931,113.056 160.888,118.256 145.165 C 120.830 137.382,126.661 127.015,132.158 120.450 C 141.715 109.035,158.312 100.302,174.507 98.166 C 183.047 97.039,198.214 97.828,205.922 99.800 " stroke="none" fill-rule="evenodd" fill="black"></path></svg>