<svg id="icons" xmlns="http://www.w3.org/2000/svg" viewBox="0 0 512 512"><path d="M267.933 177.707 C 267.925 273.108,267.585 343.237,267.102 349.065 C 265.763 365.225,260.607 378.237,250.995 389.713 C 225.170 420.549,178.421 422.770,149.562 394.531 C 135.155 380.434,128.192 362.250,129.050 340.963 C 129.524 329.184,132.158 319.850,137.953 309.410 C 144.539 297.546,158.094 285.544,171.192 279.979 C 183.038 274.946,199.375 273.383,212.053 276.068 C 215.338 276.764,218.314 277.333,218.666 277.333 C 219.019 277.333,219.307 258.552,219.307 235.597 L 219.307 193.860 211.840 193.236 C 196.345 191.942,177.076 193.716,160.427 197.970 C 113.688 209.910,72.591 247.739,56.847 293.313 C 50.050 312.985,46.691 338.350,48.492 356.393 C 53.018 401.736,73.564 439.075,108.800 465.995 C 132.462 484.073,162.371 494.462,193.838 495.534 C 220.210 496.432,240.526 492.256,263.253 481.263 C 307.145 460.034,336.617 422.129,347.123 373.396 L 349.345 363.093 349.819 269.899 L 350.293 176.706 358.827 182.306 C 372.930 191.561,388.378 198.571,407.317 204.311 C 421.234 208.528,433.429 210.584,458.453 212.929 L 464.213 213.469 464.213 172.441 L 464.213 131.413 458.587 131.413 C 447.634 131.413,426.217 125.663,413.496 119.306 C 386.283 105.707,363.669 79.315,354.700 50.686 C 352.257 42.887,349.867 28.212,349.867 21.010 L 349.867 16.213 308.907 16.213 L 267.947 16.213 267.933 177.707 " stroke="none" fill-rule="evenodd" fill="black"></path></svg>