<svg xmlns="http://www.w3.org/2000/svg" width="512" height="512" viewBox="0 0 512 512"><path d="M28.587 65.202 C 19.397 67.479,9.979 74.689,5.172 83.127 C -0.322 92.771,-0.001 82.023,0.010 256.123 C 0.021 426.360,-0.195 417.827,4.350 427.302 C 7.483 433.834,15.288 441.340,22.425 444.685 L 28.587 447.573 256.044 447.573 L 483.502 447.573 489.981 444.371 C 500.777 439.036,508.616 429.019,511.049 417.451 C 511.728 414.221,512.000 367.954,512.000 255.441 C 512.000 114.597,511.857 97.399,510.650 92.710 C 507.125 79.022,495.655 67.792,482.305 64.959 C 475.458 63.507,34.477 63.743,28.587 65.202 M151.569 183.357 C 164.345 204.651,175.126 222.400,175.525 222.800 C 175.925 223.200,186.943 205.699,200.034 183.870 L 223.815 144.213 255.694 144.213 L 287.573 144.213 287.573 256.000 L 287.573 367.787 256.000 367.787 L 224.427 367.787 224.427 312.320 C 224.427 281.813,224.139 256.870,223.787 256.890 C 223.435 256.909,212.538 271.120,199.572 288.468 L 175.997 320.011 152.212 288.282 L 128.427 256.554 128.207 312.170 L 127.988 367.787 95.994 367.787 L 64.000 367.787 64.000 255.990 L 64.000 144.193 96.170 144.416 L 128.340 144.640 151.569 183.357 M415.573 200.107 L 415.573 256.000 439.538 256.000 C 452.718 256.000,463.374 256.312,463.218 256.694 C 462.655 258.068,384.417 367.706,384.000 367.705 C 383.541 367.703,305.256 258.089,304.782 256.784 C 304.614 256.319,314.260 256.000,328.462 256.000 L 352.427 256.000 352.427 200.107 L 352.427 144.213 384.000 144.213 L 415.573 144.213 415.573 200.107 " stroke="none" fill-rule="evenodd" fill="black"></path></svg>