<svg xmlns="http://www.w3.org/2000/svg" width="512" height="512" viewBox="0 0 512 512"><path d="M334.933 64.901 C 295.853 70.183,263.132 98.967,252.803 137.150 C 250.765 144.684,250.543 146.983,250.511 160.853 C 250.489 170.172,250.863 177.472,251.462 179.413 L 252.449 182.613 247.586 182.613 C 240.227 182.613,222.907 180.303,209.067 177.474 C 166.023 168.679,125.245 149.560,90.030 121.664 C 80.715 114.284,59.875 94.200,53.760 86.707 C 51.648 84.120,49.688 81.984,49.404 81.961 C 48.403 81.881,41.870 97.059,39.736 104.423 C 32.281 130.150,36.331 158.160,50.896 181.593 C 54.764 187.816,68.951 203.076,75.947 208.537 L 78.933 210.868 72.533 210.422 C 63.968 209.824,51.210 206.498,43.085 202.744 C 39.437 201.059,36.078 199.680,35.619 199.680 C 34.304 199.680,35.763 213.609,38.006 222.482 C 42.317 239.529,49.946 253.571,61.587 265.881 C 73.547 278.529,89.953 288.600,105.594 292.895 C 109.462 293.957,112.630 295.060,112.634 295.346 C 112.660 297.476,84.018 299.152,73.972 297.609 C 69.997 296.998,69.883 297.039,70.439 298.889 C 70.755 299.940,72.479 303.959,74.269 307.821 C 88.318 338.121,118.762 359.619,153.077 363.472 C 157.248 363.940,160.783 364.445,160.932 364.594 C 161.080 364.743,156.491 368.018,150.732 371.872 C 127.498 387.423,101.612 397.749,72.960 402.894 C 63.207 404.646,59.169 404.888,39.534 404.897 L 17.201 404.907 20.967 407.251 C 52.723 427.016,91.481 440.516,132.267 446.019 C 148.379 448.193,186.532 448.179,203.520 445.993 C 260.809 438.620,309.238 417.580,350.293 382.226 C 395.058 343.678,427.354 289.226,440.731 229.747 C 444.573 212.665,446.369 197.628,446.894 178.137 L 447.395 159.581 455.164 153.420 C 465.722 145.048,481.219 129.336,488.878 119.240 C 492.352 114.659,495.022 110.737,494.810 110.525 C 494.597 110.313,492.103 111.077,489.266 112.223 C 476.907 117.215,457.079 122.470,444.160 124.179 L 439.893 124.743 445.867 120.699 C 454.014 115.185,465.388 103.507,471.323 94.565 C 475.802 87.816,482.133 74.950,482.133 72.596 C 482.133 72.068,479.338 73.170,475.921 75.046 C 463.477 81.875,443.448 89.377,427.614 93.140 L 420.454 94.841 416.947 91.485 C 404.586 79.656,388.907 71.152,371.627 66.904 C 361.859 64.504,344.775 63.571,334.933 64.901 " stroke="none" fill-rule="evenodd" fill="black"></path></svg>