<svg xmlns="http://www.w3.org/2000/svg" width="512" height="512" viewBox="0 0 512 512"><path d="M16.213 48.298 C 16.213 49.171,255.497 463.360,256.001 463.360 C 256.502 463.360,495.787 49.158,495.787 48.290 C 495.787 48.005,476.302 47.871,452.487 47.992 L 409.187 48.213 332.807 180.655 C 290.798 253.498,256.235 313.097,256.000 313.098 C 255.765 313.099,221.202 253.501,179.193 180.657 L 102.813 48.213 59.513 47.992 C 35.698 47.871,16.213 48.008,16.213 48.298 M123.551 52.258 C 149.783 98.427,255.421 280.320,256.002 280.320 C 256.442 280.320,286.947 228.096,323.792 164.267 L 390.782 48.213 351.338 47.990 C 317.633 47.798,311.761 47.946,310.982 49.007 C 310.481 49.689,298.001 71.193,283.249 96.793 C 268.497 122.393,256.235 143.338,256.000 143.337 C 255.765 143.336,243.236 121.933,228.156 95.774 L 200.739 48.213 160.870 47.992 L 121.001 47.770 123.551 52.258 " stroke="none" fill="black" fill-rule="evenodd"></path></svg>