<svg xmlns="http://www.w3.org/2000/svg" width="512" height="512" viewBox="0 0 512 512"><path d="M200.433 35.206 C 197.040 36.963,194.045 39.322,192.293 41.619 C 190.309 44.219,187.507 46.279,182.440 48.858 C 173.114 53.607,164.693 61.538,164.693 65.572 C 164.693 73.215,169.545 76.183,182.613 76.534 C 192.984 76.813,192.929 76.398,182.435 75.176 C 175.042 74.315,168.725 71.961,167.877 69.752 C 167.098 67.722,169.495 63.552,173.332 60.263 C 176.786 57.302,185.105 52.053,186.344 52.053 C 186.639 52.053,186.882 54.261,186.885 56.960 C 186.891 63.386,188.026 67.241,191.383 72.233 C 194.522 76.901,200.158 80.713,206.199 82.253 L 210.347 83.310 212.114 94.552 C 213.087 100.735,214.125 106.036,214.421 106.332 C 214.717 106.628,217.675 106.205,220.993 105.392 L 227.028 103.913 226.556 101.236 C 226.297 99.764,225.385 94.658,224.529 89.888 L 222.974 81.216 226.564 78.686 C 236.264 71.848,239.788 59.816,235.470 48.275 C 233.869 43.996,233.433 43.525,230.563 42.981 C 228.831 42.653,223.189 42.799,218.027 43.306 C 212.864 43.813,208.534 44.123,208.405 43.995 C 207.953 43.545,222.375 40.982,230.354 40.095 C 237.655 39.283,241.846 39.409,248.447 40.637 C 250.392 40.999,250.697 41.466,250.626 43.975 C 250.571 45.897,251.188 47.578,252.437 48.907 L 254.330 50.923 252.567 53.164 C 251.597 54.397,248.319 57.013,245.281 58.978 C 242.244 60.942,239.931 62.722,240.142 62.933 C 240.965 63.756,249.788 58.244,253.801 54.400 C 256.128 52.171,258.315 50.347,258.661 50.347 C 259.794 50.347,262.827 45.887,262.827 44.219 C 262.827 41.483,258.957 38.326,255.798 38.486 C 254.266 38.563,251.861 38.144,250.453 37.554 C 249.045 36.963,242.901 36.310,236.800 36.101 C 228.457 35.815,224.715 35.313,221.708 34.074 C 219.068 32.986,215.689 32.427,211.756 32.427 C 206.704 32.427,204.989 32.848,200.433 35.206 M244.480 109.248 C 166.176 116.210,101.836 169.325,80.174 244.890 C 78.761 249.821,77.133 254.326,76.558 254.901 C 75.982 255.477,72.904 256.317,69.718 256.768 C 62.966 257.724,57.602 260.558,54.267 264.930 C 45.913 275.883,41.480 298.575,43.441 320.345 C 45.157 339.388,49.555 356.090,56.382 369.493 C 60.602 377.778,62.128 379.970,67.472 385.418 C 75.163 393.260,79.689 394.470,93.592 392.402 L 100.214 391.417 102.116 393.895 C 103.162 395.258,106.984 400.364,110.610 405.242 C 140.025 444.816,183.533 470.538,234.240 478.332 C 245.670 480.088,270.048 480.353,281.600 478.847 C 316.368 474.311,349.062 460.720,375.826 439.677 C 385.164 432.335,401.800 415.222,408.923 405.632 C 423.287 386.293,431.945 368.773,440.069 342.613 L 442.453 334.933 447.051 334.372 C 453.339 333.605,457.784 330.313,461.368 323.769 C 468.815 310.170,470.972 285.681,467.165 257.943 C 463.996 234.851,457.451 220.316,447.670 214.648 C 444.072 212.562,436.045 210.849,436.064 212.170 C 436.070 212.575,437.029 215.893,438.194 219.543 C 441.807 230.855,445.369 255.257,445.426 269.084 C 445.452 275.169,443.390 272.039,442.384 264.468 C 439.314 241.338,432.659 221.266,421.787 202.340 C 393.273 152.704,343.368 118.801,286.686 110.557 C 275.195 108.886,255.443 108.273,244.480 109.248 M99.430 273.060 C 108.489 284.423,115.280 298.828,118.183 312.842 C 122.116 331.820,119.855 355.851,112.641 371.761 C 110.129 377.302,107.658 379.266,108.783 374.827 C 115.966 346.506,111.726 306.649,98.527 278.403 C 96.433 273.923,94.720 269.929,94.720 269.529 C 94.720 267.903,96.208 269.019,99.430 273.060 M360.632 346.379 C 370.020 350.642,372.350 362.661,365.337 370.651 C 358.839 378.054,345.145 376.134,340.889 367.223 C 334.627 354.114,347.572 340.448,360.632 346.379 M281.796 352.077 C 285.805 354.669,288.427 359.699,288.427 364.800 C 288.427 379.124,270.877 385.546,261.661 374.594 C 256.500 368.461,256.766 359.872,262.290 354.298 C 267.760 348.777,275.355 347.913,281.796 352.077 " stroke="none" fill-rule="evenodd" fill="black"></path></svg>