<svg xmlns="http://www.w3.org/2000/svg" width="512" height="512" viewBox="0 0 512 512"><path d="M76.388 151.241 C 43.560 208.141,16.701 255.283,16.701 256.000 C 16.701 256.717,43.560 303.859,76.388 360.759 L 136.074 464.213 179.824 464.213 C 203.886 464.213,223.573 464.084,223.573 463.927 C 223.573 463.769,196.693 417.050,163.840 360.107 C 130.987 303.163,104.107 256.315,104.107 256.000 C 104.107 255.685,130.987 208.837,163.840 151.893 C 196.693 94.950,223.573 48.231,223.573 48.073 C 223.573 47.916,203.886 47.787,179.824 47.787 L 136.074 47.787 76.388 151.241 M237.743 51.413 C 236.579 53.408,226.767 70.400,215.937 89.173 L 196.248 123.307 264.200 123.733 L 332.153 124.160 370.023 189.791 C 390.852 225.888,407.893 255.682,407.893 256.000 C 407.893 256.318,390.852 286.112,370.023 322.209 L 332.153 387.840 264.201 388.267 L 196.249 388.693 217.915 426.240 L 239.581 463.787 307.751 464.005 L 375.920 464.223 435.610 360.764 C 468.439 303.861,495.299 256.717,495.299 256.000 C 495.299 255.283,468.440 208.141,435.612 151.241 L 375.926 47.787 307.892 47.787 L 239.859 47.787 237.743 51.413 " stroke="none" fill="black" fill-rule="evenodd"></path></svg>