<svg xmlns="http://www.w3.org/2000/svg" width="512" height="512" viewBox="0 0 512 512"><path d="M239.628 17.133 C 231.004 18.398,224.165 20.502,216.320 24.304 C 200.097 32.164,189.414 45.143,184.346 63.147 C 181.888 71.876,181.344 85.968,182.598 108.373 C 183.162 118.464,183.819 136.320,184.056 148.053 C 184.548 172.376,183.975 176.538,178.678 187.088 C 175.039 194.334,173.133 196.904,162.062 209.493 C 139.676 234.949,136.533 239.701,130.065 257.865 C 123.959 275.016,120.180 282.765,111.966 294.976 C 104.312 306.354,102.883 308.943,100.614 315.537 C 98.341 322.144,97.756 329.768,98.969 336.963 C 99.945 342.747,99.889 343.411,98.083 347.567 C 96.637 350.891,96.020 354.397,95.614 361.582 C 95.105 370.608,94.933 371.311,92.641 373.704 C 88.535 377.989,84.763 378.815,57.416 381.422 C 57.315 381.432,55.881 382.627,54.228 384.078 C 48.707 388.926,48.683 394.703,54.106 413.409 C 57.269 424.319,57.067 427.305,52.569 436.177 C 47.827 445.529,46.832 452.016,49.295 457.521 C 53.129 466.093,60.727 469.061,93.738 474.879 C 113.877 478.429,126.689 481.593,138.667 485.974 C 165.741 495.878,163.403 495.264,174.080 495.274 C 182.280 495.281,184.694 494.966,188.764 493.354 C 194.363 491.136,203.610 485.228,211.627 478.748 C 218.150 473.474,219.324 472.960,227.323 471.867 C 236.486 470.614,301.161 472.206,307.028 473.828 C 310.829 474.879,312.743 476.246,319.055 482.423 C 330.421 493.546,337.891 496.343,354.117 495.552 C 369.027 494.826,375.598 491.693,392.960 477.030 C 405.156 466.730,413.056 461.615,429.227 453.546 C 458.149 439.115,465.633 432.696,463.861 423.838 C 462.623 417.649,457.292 412.868,441.456 403.744 C 434.582 399.783,429.606 394.551,428.378 389.992 C 427.833 387.967,427.864 385.067,428.470 381.413 C 429.987 372.270,429.843 360.960,428.170 357.862 C 426.801 355.325,422.613 351.224,420.742 350.588 C 420.187 350.399,420.329 348.787,421.137 346.104 C 423.806 337.251,421.968 319.101,415.902 294.412 C 406.633 256.686,399.090 243.018,364.158 200.646 C 349.068 182.343,342.410 171.827,339.320 161.419 C 336.927 153.360,335.453 140.098,334.086 114.347 C 333.352 100.501,332.348 86.101,331.856 82.347 C 325.998 37.644,300.570 15.879,254.720 16.322 C 249.088 16.377,242.297 16.742,239.628 17.133 M283.094 86.307 C 290.752 89.979,294.629 97.851,294.522 109.513 C 294.432 119.420,291.241 128.853,287.980 128.853 C 286.325 128.853,286.383 128.091,288.514 121.786 C 292.573 109.783,286.823 99.167,275.417 97.604 C 264.228 96.071,256.000 105.295,256.000 119.372 C 256.000 124.014,256.393 125.773,257.949 128.087 C 260.448 131.804,267.837 135.516,279.648 138.989 C 294.801 143.444,295.540 144.504,292.662 157.645 C 289.569 171.768,291.299 180.239,299.591 191.573 C 305.300 199.378,308.953 206.722,312.795 218.124 C 316.027 227.713,318.268 232.240,323.156 239.051 C 329.223 247.505,333.762 260.004,336.751 276.480 C 338.321 285.137,338.957 316.177,337.706 323.139 C 336.948 327.362,338.665 329.888,341.674 328.976 C 342.660 328.678,347.683 327.364,352.836 326.056 C 363.670 323.308,364.376 322.630,366.136 313.305 C 367.687 305.081,367.468 280.211,365.770 271.846 C 363.610 261.202,365.474 261.675,368.902 272.640 C 374.152 289.435,374.861 303.054,371.491 322.347 C 371.128 324.421,371.318 325.120,372.241 325.120 C 372.920 325.120,374.980 326.487,376.818 328.158 L 380.160 331.197 377.600 330.663 C 372.135 329.525,359.581 329.230,356.132 330.160 C 351.420 331.431,344.833 335.942,342.409 339.559 C 341.334 341.165,340.218 343.949,339.931 345.746 C 339.476 348.595,339.114 349.013,337.112 349.013 C 328.944 349.013,321.078 354.673,319.094 361.978 C 317.617 367.415,318.651 384.158,321.298 397.653 C 322.905 405.852,323.570 412.003,323.603 418.987 C 323.646 428.062,323.444 429.330,320.909 435.840 C 319.402 439.712,317.873 442.880,317.512 442.880 C 317.150 442.880,317.356 440.288,317.969 437.120 C 319.155 430.992,319.361 421.661,318.388 418.133 C 317.952 416.553,317.145 415.942,315.273 415.774 C 313.198 415.589,311.528 416.634,305.920 421.627 C 289.117 436.590,275.166 443.413,254.426 446.814 C 239.884 449.198,227.943 447.412,219.228 441.547 C 215.577 439.090,214.553 438.739,213.672 439.641 C 212.841 440.492,212.802 441.651,213.505 444.676 C 214.532 449.097,213.851 455.499,212.100 457.894 C 211.046 459.335,210.884 459.086,210.375 455.236 C 209.520 448.765,207.646 443.418,202.961 434.082 C 199.662 427.509,198.948 425.421,199.825 424.911 C 214.692 416.255,215.615 399.502,202.018 385.125 C 196.790 379.598,187.337 372.332,162.465 354.725 C 141.768 340.074,139.498 338.100,136.484 332.145 C 134.740 328.698,134.407 326.670,134.211 318.293 C 133.963 307.712,134.546 307.619,136.898 317.867 C 138.775 326.043,141.935 330.885,147.620 334.293 C 152.690 337.334,154.973 337.695,157.490 335.857 C 159.032 334.731,159.184 333.091,159.687 312.177 C 160.127 293.894,160.552 288.341,161.967 282.377 C 166.098 264.967,171.045 254.061,180.899 240.640 C 191.676 225.962,196.094 218.954,198.113 213.333 C 199.923 208.299,200.094 206.507,199.966 193.920 C 199.888 186.293,200.109 180.053,200.457 180.053 C 200.804 180.053,202.894 182.903,205.101 186.387 C 213.766 200.065,222.174 206.441,230.001 205.267 C 242.758 203.354,263.685 191.542,279.253 177.467 C 283.557 173.576,285.013 171.698,285.013 170.037 C 285.013 167.341,282.792 164.693,280.529 164.693 C 279.616 164.693,272.323 167.605,264.322 171.163 C 246.534 179.074,238.843 182.066,231.678 183.862 C 225.499 185.412,223.370 184.842,219.374 180.564 C 216.838 177.850,217.480 176.987,221.097 178.248 C 222.599 178.772,224.845 179.200,226.087 179.200 C 229.415 179.200,246.283 173.339,259.886 167.455 C 266.431 164.624,275.121 161.272,279.196 160.005 C 286.943 157.596,288.790 156.312,289.688 152.710 C 290.464 149.603,287.408 145.920,284.056 145.920 C 281.023 145.920,277.539 147.601,275.198 150.193 C 272.816 152.830,265.898 156.155,253.440 160.650 C 233.838 167.722,224.668 168.720,216.642 164.653 C 208.290 160.421,197.973 150.520,197.973 146.735 C 197.973 145.109,201.172 142.056,206.933 138.183 C 209.280 136.606,214.456 132.422,218.436 128.884 L 225.672 122.453 232.516 122.453 C 238.309 122.453,240.119 122.826,244.299 124.879 C 250.790 128.066,252.057 127.579,251.147 122.246 C 249.880 114.827,250.318 103.176,252.021 98.987 C 255.017 91.619,261.001 86.235,268.230 84.405 C 272.112 83.422,278.885 84.289,283.094 86.307 M217.609 90.667 C 219.160 91.723,221.133 93.547,221.993 94.720 C 223.866 97.274,225.326 104.430,224.667 107.823 L 224.194 110.259 222.327 106.543 C 219.783 101.477,215.912 98.987,210.581 98.987 C 207.102 98.987,205.958 99.404,203.961 101.401 C 201.648 103.714,199.709 108.600,199.672 112.213 C 199.628 116.363,198.163 116.135,197.127 111.818 C 195.852 106.502,196.471 101.915,199.184 96.569 C 202.862 89.324,211.547 86.541,217.609 90.667 M126.579 353.661 C 129.318 354.787,133.132 356.794,135.054 358.121 C 140.609 361.954,149.274 373.664,160.519 392.533 C 166.253 402.155,174.121 415.268,178.004 421.673 C 190.313 441.978,193.712 450.165,193.702 459.486 C 193.691 469.476,189.895 474.988,181.308 477.484 C 172.333 480.093,161.870 478.319,135.484 469.716 C 120.059 464.688,106.592 461.493,85.563 457.874 C 67.809 454.820,64.853 453.956,64.853 451.823 C 64.853 451.142,66.257 446.452,67.973 441.399 C 72.281 428.713,72.760 420.124,69.710 410.251 C 64.777 394.281,64.881 394.108,79.893 393.396 C 89.115 392.959,91.497 392.553,94.720 390.874 C 105.817 385.093,107.974 381.450,109.635 365.681 C 110.314 359.233,111.315 353.421,111.860 352.766 C 113.429 350.874,120.908 351.329,126.579 353.661 M412.216 363.550 C 414.461 364.751,414.414 370.839,412.092 379.798 C 410.082 387.553,410.346 391.331,413.372 398.082 C 416.054 404.065,421.824 409.474,434.050 417.466 C 441.014 422.018,444.587 424.869,444.587 425.874 C 444.587 427.988,439.461 431.999,432.290 435.494 C 428.962 437.117,420.672 441.150,413.867 444.457 C 404.441 449.039,398.881 452.463,390.526 458.835 C 367.213 476.616,363.123 478.825,353.425 478.881 C 349.100 478.906,347.050 478.420,343.255 476.470 C 337.779 473.656,332.800 467.342,332.800 463.213 C 332.800 461.827,334.408 454.669,336.373 447.307 C 339.827 434.364,339.946 433.482,339.972 420.693 C 339.996 408.887,339.658 405.697,336.826 390.990 C 332.291 367.441,332.597 364.370,339.474 364.377 C 342.377 364.379,342.729 364.660,344.147 368.110 C 349.149 380.274,363.843 386.976,380.611 384.739 C 391.756 383.253,403.121 375.434,407.979 365.911 C 409.809 362.324,409.866 362.292,412.216 363.550 " stroke="none" fill-rule="evenodd" fill="black"></path></svg>