<svg xmlns="http://www.w3.org/2000/svg" width="512" height="512" viewBox="0 0 512 512"><path d="M248.747 32.776 C 235.852 35.971,227.059 45.468,224.307 59.174 C 222.496 68.191,226.319 79.637,233.547 86.842 C 245.921 99.175,265.129 99.418,278.104 87.406 L 283.083 82.797 286.821 85.491 C 303.983 97.859,321.155 125.780,332.121 159.147 C 342.006 189.226,346.963 220.239,347.874 257.707 C 348.800 295.779,344.984 328.823,335.819 362.112 C 334.159 368.143,332.800 373.750,332.800 374.572 C 332.800 375.395,333.677 377.372,334.750 378.967 C 338.260 384.188,345.187 384.801,349.699 380.289 C 355.069 374.919,364.435 330.142,367.001 297.570 C 368.316 280.874,367.572 236.334,365.729 221.440 C 357.902 158.180,338.200 108.626,309.379 79.710 C 304.191 74.504,297.401 68.625,294.290 66.644 C 288.893 63.208,288.608 62.858,288.094 59.041 C 286.942 50.486,280.396 40.857,272.643 36.314 C 268.333 33.788,260.343 31.542,256.034 31.646 C 254.373 31.686,251.093 32.194,248.747 32.776 M261.948 53.320 C 265.905 55.366,268.275 59.424,268.275 64.152 C 268.275 73.141,258.630 79.356,250.897 75.351 C 242.439 70.971,241.593 58.503,249.428 53.725 C 252.702 51.729,258.508 51.542,261.948 53.320 M140.800 123.450 C 92.477 128.248,63.846 153.069,61.728 192.000 C 61.148 202.657,62.649 212.606,66.636 224.539 C 69.899 234.306,76.940 248.762,79.979 251.934 C 86.022 258.242,96.427 253.776,96.427 244.874 C 96.427 243.402,95.093 239.812,93.462 236.896 C 72.871 200.075,79.155 166.097,109.227 151.655 C 123.747 144.681,139.719 141.986,161.707 142.799 C 169.216 143.076,179.167 143.892,183.819 144.612 C 194.724 146.298,196.984 146.257,200.175 144.311 C 205.572 141.020,206.139 133.410,201.292 129.331 C 198.487 126.971,197.987 126.814,189.013 125.485 C 173.540 123.192,152.386 122.299,140.800 123.450 M355.087 126.915 C 351.809 130.193,351.054 133.218,352.539 137.119 C 354.568 142.450,356.722 143.371,369.245 144.259 C 393.069 145.948,405.725 150.572,416.932 161.681 C 426.163 170.831,430.080 180.484,430.080 194.081 C 430.080 215.000,419.362 239.652,398.868 265.869 C 391.586 275.185,390.827 276.467,390.827 279.453 C 390.827 286.706,398.710 291.425,405.212 288.063 C 410.029 285.572,427.794 260.820,435.574 245.760 C 444.669 228.152,448.767 214.161,449.452 198.368 C 450.060 184.353,448.537 175.989,443.397 165.120 C 431.640 140.259,406.293 126.317,370.190 124.851 L 357.659 124.343 355.087 126.915 M293.004 132.296 C 270.302 138.134,249.091 146.066,225.707 157.462 C 134.048 202.131,66.497 275.836,62.591 335.437 L 62.043 343.798 57.167 348.812 C 47.515 358.738,45.261 372.990,51.410 385.217 C 53.970 390.307,61.147 397.391,66.135 399.750 C 82.756 407.614,101.607 400.842,109.505 384.171 C 111.927 379.057,112.212 377.643,112.203 370.773 C 112.193 363.947,111.897 362.477,109.536 357.547 C 108.075 354.496,105.200 350.316,103.146 348.257 C 98.920 344.020,91.095 339.955,85.568 339.127 L 81.846 338.568 82.367 334.618 C 84.649 317.296,90.958 301.528,103.067 282.880 C 140.292 225.551,222.672 170.253,299.528 151.004 C 305.347 149.546,310.798 147.984,311.641 147.533 C 317.316 144.496,317.238 134.532,311.512 131.149 C 308.177 129.179,304.154 129.428,293.004 132.296 M246.099 245.244 C 222.532 256.218,230.074 291.300,256.000 291.300 C 273.353 291.300,285.096 274.514,279.048 258.351 C 277.038 252.978,271.757 247.461,266.240 244.971 C 260.665 242.454,251.833 242.574,246.099 245.244 M113.662 277.907 C 110.323 279.553,108.373 282.932,108.373 287.076 C 108.373 289.569,109.318 291.128,113.957 296.292 C 124.424 307.942,143.326 324.605,160.427 337.255 C 213.292 376.366,275.809 402.705,332.373 409.700 C 345.390 411.310,370.718 411.064,381.013 409.228 C 391.847 407.296,402.110 404.331,409.382 401.034 L 415.079 398.451 419.379 400.389 C 422.873 401.964,425.202 402.329,431.787 402.337 C 438.943 402.346,440.522 402.057,445.254 399.871 C 452.137 396.693,459.039 389.429,461.726 382.536 C 464.391 375.701,464.391 365.846,461.726 359.010 C 459.014 352.054,452.124 344.830,445.254 341.740 C 434.532 336.918,421.547 338.283,412.088 345.226 C 402.298 352.413,397.264 366.875,400.454 378.653 L 401.663 383.120 396.893 384.905 C 357.290 399.722,293.097 388.676,228.267 355.887 C 192.288 337.691,163.078 317.033,135.637 290.377 C 124.315 279.378,120.475 276.442,117.491 276.499 C 116.935 276.510,115.212 277.144,113.662 277.907 M86.162 359.667 C 92.134 362.756,94.343 370.114,91.142 376.257 C 86.567 385.034,75.121 385.419,69.969 376.968 C 67.885 373.550,67.747 367.650,69.675 364.386 C 72.722 359.227,80.826 356.908,86.162 359.667 M438.359 360.072 C 439.861 360.988,441.685 362.888,442.412 364.293 C 444.145 367.645,444.097 374.161,442.317 377.175 C 440.548 380.169,435.374 383.147,431.939 383.147 C 422.060 383.147,415.828 371.904,421.179 363.737 C 424.557 358.581,432.970 356.787,438.359 360.072 M169.387 376.237 C 168.448 376.649,166.752 377.986,165.618 379.206 C 162.283 382.796,162.869 386.898,168.697 400.746 C 188.560 447.943,217.302 475.856,249.845 479.554 C 263.346 481.088,277.908 477.589,291.162 469.628 C 299.861 464.403,313.160 451.849,320.739 441.709 C 332.212 426.359,333.494 422.070,328.192 416.768 C 325.776 414.352,324.666 413.867,321.555 413.867 C 316.614 413.867,315.074 415.092,309.500 423.454 C 292.029 449.669,271.180 462.654,251.074 459.843 C 239.373 458.207,229.641 453.076,219.054 442.961 C 206.517 430.983,195.351 413.428,186.398 391.619 C 183.741 385.146,180.688 379.024,179.614 378.015 C 177.469 376.000,172.065 375.061,169.387 376.237 " stroke="none" fill-rule="evenodd" fill="black"></path></svg>