<svg xmlns="http://www.w3.org/2000/svg" width="512" height="512" viewBox="0 0 512 512"><path d="M58.788 33.660 C 45.237 37.410,34.977 48.398,32.506 61.810 C 31.330 68.195,31.214 438.023,32.386 446.128 C 34.417 460.174,45.080 472.946,59.307 478.373 C 63.451 479.953,69.017 480.007,253.013 480.236 C 382.692 480.398,444.303 480.188,448.316 479.572 C 462.453 477.403,472.751 468.511,478.015 453.927 L 480.000 448.427 480.236 258.133 C 480.400 125.977,480.193 66.015,479.558 61.867 C 477.693 49.682,471.709 41.364,461.002 36.072 L 454.489 32.853 258.604 32.713 C 102.129 32.600,61.929 32.791,58.788 33.660 M150.460 107.943 C 160.608 110.586,166.983 115.599,171.451 124.449 C 180.414 142.206,173.628 164.422,156.956 171.904 C 142.589 178.351,126.623 175.982,116.547 165.906 C 106.574 155.932,103.999 138.988,110.349 125.118 C 116.706 111.232,134.250 103.720,150.460 107.943 M351.573 203.537 C 359.369 205.535,371.559 211.607,377.579 216.491 C 392.120 228.288,401.725 248.323,404.418 272.472 C 404.986 277.567,405.333 304.318,405.333 343.006 L 405.333 405.333 373.333 405.333 L 341.333 405.333 341.304 347.093 C 341.272 285.218,341.075 281.664,337.095 271.150 C 334.657 264.706,328.252 257.706,322.364 255.049 C 318.549 253.327,316.508 253.019,308.907 253.016 C 300.648 253.014,299.513 253.220,294.400 255.656 C 285.501 259.897,279.181 267.063,275.362 277.243 C 273.610 281.913,273.560 283.493,273.262 343.680 L 272.956 405.333 241.011 405.333 L 209.067 405.333 209.067 305.493 L 209.067 205.653 241.067 205.653 L 273.067 205.653 273.067 219.307 C 273.067 226.816,273.355 232.942,273.707 232.919 C 274.059 232.897,275.883 230.734,277.760 228.114 C 284.950 218.079,296.559 209.061,307.346 205.134 C 318.073 201.228,339.539 200.452,351.573 203.537 M170.667 305.493 L 170.667 405.333 138.667 405.333 L 106.667 405.333 106.667 305.493 L 106.667 205.653 138.667 205.653 L 170.667 205.653 170.667 305.493 " stroke="none" fill-rule="evenodd" fill="black"></path></svg>