<svg xmlns="http://www.w3.org/2000/svg" viewBox="0 0 512 512"><path d="M251.733 38.400 L 251.733 60.587 231.680 60.587 L 211.627 60.587 211.627 67.413 L 211.627 74.240 231.666 74.240 L 251.705 74.240 251.932 96.213 L 252.160 118.187 259.413 118.187 L 266.667 118.187 266.894 96.213 L 267.122 74.240 287.161 74.240 L 307.200 74.240 307.200 67.413 L 307.200 60.587 287.147 60.587 L 267.093 60.587 267.093 38.400 L 267.093 16.213 259.413 16.213 L 251.733 16.213 251.733 38.400 M120.320 95.573 L 120.320 128.000 90.027 128.000 L 59.733 128.000 59.733 137.387 L 59.733 146.773 90.027 146.773 L 120.320 146.773 120.320 179.627 L 120.320 212.480 130.560 212.480 L 140.800 212.480 140.800 179.627 L 140.800 146.773 171.093 146.773 L 201.387 146.773 201.387 137.387 L 201.387 128.000 171.093 128.000 L 140.800 128.000 140.800 95.573 L 140.800 63.147 130.560 63.147 L 120.320 63.147 120.320 95.573 M370.347 95.573 L 370.347 128.000 340.480 128.000 L 310.613 128.000 310.613 137.813 L 310.613 147.627 340.480 147.627 L 370.347 147.627 370.347 180.053 L 370.347 212.480 381.440 212.480 L 392.533 212.480 392.533 180.053 L 392.533 147.627 422.827 147.627 L 453.120 147.627 453.120 137.813 L 453.120 128.000 422.827 128.000 L 392.533 128.000 392.533 95.573 L 392.533 63.147 381.440 63.147 L 370.347 63.147 370.347 95.573 M242.347 206.080 L 242.347 242.347 209.493 242.347 L 176.640 242.347 176.640 255.147 L 176.640 267.947 209.484 267.947 L 242.328 267.947 242.551 304.000 L 242.773 340.053 256.000 340.053 L 269.227 340.053 269.449 304.000 L 269.672 267.947 302.943 267.947 L 336.213 267.947 336.213 255.147 L 336.213 242.347 302.933 242.347 L 269.653 242.347 269.653 206.080 L 269.653 169.813 256.000 169.813 L 242.347 169.813 242.347 206.080 M435.769 201.102 C 435.456 201.415,435.200 211.591,435.200 223.716 L 435.200 245.760 415.147 245.760 L 395.093 245.760 395.093 254.720 L 395.093 263.680 415.147 263.680 L 435.200 263.680 435.200 286.293 L 435.200 308.907 445.013 308.907 L 454.827 308.907 454.827 286.293 L 454.827 263.680 475.307 263.680 L 495.787 263.680 495.787 254.720 L 495.787 245.760 475.307 245.760 L 454.827 245.760 454.827 223.147 L 454.827 200.533 445.582 200.533 C 440.498 200.533,436.082 200.789,435.769 201.102 M56.320 225.707 L 56.320 247.467 36.267 247.467 L 16.213 247.467 16.213 254.720 L 16.213 261.973 36.267 261.973 L 56.320 261.973 56.320 283.733 L 56.320 305.493 63.573 305.493 L 70.827 305.493 70.827 283.307 L 70.827 261.120 90.880 261.120 L 110.933 261.120 110.933 254.293 L 110.933 247.467 90.880 247.467 L 70.827 247.467 70.827 225.707 L 70.827 203.947 63.573 203.947 L 56.320 203.947 56.320 225.707 M119.263 327.893 L 119.040 360.533 89.387 360.758 L 59.733 360.982 59.733 370.784 L 59.733 380.587 89.600 380.587 L 119.467 380.587 119.467 413.013 L 119.467 445.440 130.560 445.440 L 141.653 445.440 141.653 413.013 L 141.653 380.587 171.520 380.587 L 201.387 380.587 201.387 370.784 L 201.387 360.982 171.733 360.758 L 142.080 360.533 141.857 327.893 L 141.633 295.253 130.560 295.253 L 119.487 295.253 119.263 327.893 M370.143 327.893 L 369.920 360.533 340.267 360.758 L 310.613 360.982 310.613 370.784 L 310.613 380.587 340.480 380.587 L 370.347 380.587 370.347 413.013 L 370.347 445.440 381.440 445.440 L 392.533 445.440 392.533 413.013 L 392.533 380.587 422.827 380.587 L 453.120 380.587 453.120 370.784 L 453.120 360.982 423.040 360.758 L 392.960 360.533 392.737 327.893 L 392.513 295.253 381.440 295.253 L 370.367 295.253 370.143 327.893 M246.613 410.453 L 246.613 433.493 226.560 433.493 L 206.507 433.493 206.507 441.600 L 206.507 449.707 226.560 449.707 L 246.613 449.707 246.613 472.747 L 246.613 495.787 256.427 495.787 L 266.240 495.787 266.240 472.747 L 266.240 449.707 286.720 449.707 L 307.200 449.707 307.200 441.600 L 307.200 433.493 286.720 433.493 L 266.240 433.493 266.240 410.453 L 266.240 387.413 256.427 387.413 L 246.613 387.413 246.613 410.453 " stroke="none" fill-rule="evenodd" fill="black"></path></svg>