<svg xmlns="http://www.w3.org/2000/svg" width="512" height="512" viewBox="0 0 512 512"><path d="M228.139 89.377 C 287.166 190.254,428.024 429.933,428.752 430.730 C 429.518 431.569,437.019 431.758,462.704 431.584 L 495.674 431.360 392.673 256.000 L 289.671 80.640 256.219 80.417 L 222.766 80.194 228.139 89.377 M197.897 122.153 C 194.478 127.950,186.995 140.693,181.269 150.470 L 170.857 168.247 182.495 188.091 C 188.896 199.005,223.701 258.299,259.840 319.856 L 325.547 431.777 358.705 431.782 C 387.266 431.786,391.797 431.616,391.389 430.554 C 391.016 429.580,211.311 123.445,205.595 114.046 L 204.115 111.612 197.897 122.153 M84.322 315.533 L 16.325 431.360 84.536 431.578 C 122.052 431.699,183.400 431.699,220.865 431.578 L 288.983 431.360 272.163 402.773 L 255.342 374.187 187.831 373.968 C 150.700 373.848,120.320 373.460,120.320 373.106 C 120.320 372.752,135.296 346.964,153.600 315.799 C 171.904 284.634,186.880 258.761,186.880 258.302 C 186.880 257.297,153.356 199.776,152.747 199.735 C 152.512 199.719,121.721 251.828,84.322 315.533 " stroke="none" fill-rule="evenodd" fill="black"></path></svg>