<svg id="Layer_1" data-name="Layer 1" xmlns="http://www.w3.org/2000/svg" viewBox="0 0 512 512"><path d="M232.277 73.557 C 231.535 74.300,231.253 80.503,231.253 96.110 C 231.253 114.543,231.446 117.831,232.594 118.979 C 233.750 120.135,237.269 120.320,258.090 120.320 C 279.503 120.320,282.377 120.160,283.416 118.911 C 284.319 117.823,284.645 112.835,284.844 97.068 C 285.063 79.616,284.905 76.334,283.757 74.584 L 282.414 72.533 257.858 72.533 C 239.896 72.533,233.026 72.808,232.277 73.557 M106.382 131.129 C 106.069 131.442,105.813 141.733,105.813 153.998 C 105.813 170.205,106.093 176.578,106.837 177.323 C 107.586 178.072,114.454 178.347,132.407 178.347 C 155.802 178.347,156.995 178.269,157.837 176.696 C 159.153 174.236,159.025 132.913,157.696 131.584 C 156.946 130.834,150.010 130.560,131.812 130.560 C 118.138 130.560,106.695 130.816,106.382 131.129 M169.984 131.584 C 168.526 133.042,168.526 175.865,169.984 177.323 C 171.446 178.784,219.381 178.784,220.843 177.323 C 222.300 175.865,222.300 133.042,220.843 131.584 C 219.381 130.122,171.446 130.122,169.984 131.584 M232.277 131.584 C 231.535 132.326,231.253 138.530,231.253 154.136 C 231.253 172.570,231.446 175.858,232.594 177.006 C 233.750 178.162,237.269 178.347,258.090 178.347 C 279.517 178.347,282.377 178.187,283.416 176.936 C 284.338 175.823,284.587 171.058,284.587 154.453 C 284.587 137.848,284.338 133.083,283.416 131.971 C 282.376 130.719,279.495 130.560,257.773 130.560 C 239.877 130.560,233.026 130.835,232.277 131.584 M396.876 146.804 C 392.825 152.396,386.744 164.831,384.096 172.934 C 378.610 189.729,378.254 206.628,383.085 221.013 C 384.582 225.472,386.797 230.815,388.007 232.886 C 390.091 236.450,390.127 236.711,388.687 237.763 C 387.081 238.938,377.095 242.343,369.920 244.163 C 366.572 245.013,327.533 245.347,188.587 245.716 C 25.968 246.148,11.311 246.302,8.960 247.599 C 5.814 249.335,3.199 252.145,1.380 255.744 C -1.572 261.587,0.216 291.703,4.813 313.542 C 15.572 364.665,36.993 399.114,69.580 417.703 C 97.102 433.402,147.241 442.178,194.323 439.538 C 233.598 437.336,262.497 431.370,291.939 419.387 C 354.894 393.764,399.060 347.281,428.125 276.053 C 430.231 270.891,432.206 266.397,432.514 266.067 C 432.821 265.737,437.871 265.074,443.736 264.594 C 467.283 262.667,483.076 255.475,497.374 240.165 C 501.848 235.373,504.507 231.521,507.272 225.820 C 512.871 214.278,512.947 215.166,505.961 210.540 C 494.610 203.022,480.261 199.980,460.018 200.799 C 453.173 201.076,446.727 201.553,445.692 201.860 C 444.122 202.326,443.727 202.016,443.304 199.983 C 441.662 192.082,437.127 180.234,433.472 174.293 C 428.704 166.547,420.000 156.832,413.109 151.566 C 408.365 147.940,401.009 143.360,399.930 143.360 C 399.623 143.360,398.248 144.910,396.876 146.804 M45.013 188.655 C 43.651 189.449,43.520 191.498,43.520 212.066 C 43.520 233.478,43.603 234.651,45.171 235.490 C 46.194 236.037,55.742 236.373,70.283 236.373 C 90.474 236.373,93.932 236.186,95.086 235.032 C 96.234 233.884,96.427 230.593,96.427 212.125 C 96.427 192.315,96.300 190.443,94.866 189.146 C 93.492 187.902,90.506 187.736,69.906 187.759 C 55.606 187.775,45.926 188.123,45.013 188.655 M107.307 188.655 C 105.944 189.449,105.813 191.498,105.813 212.066 C 105.813 233.478,105.896 234.651,107.464 235.490 C 108.487 236.037,118.035 236.373,132.576 236.373 C 152.767 236.373,156.225 236.186,157.379 235.032 C 158.527 233.884,158.720 230.593,158.720 212.125 C 158.720 192.315,158.593 190.443,157.159 189.146 C 155.786 187.902,152.799 187.736,132.199 187.759 C 117.899 187.775,108.219 188.123,107.307 188.655 M170.301 189.074 C 169.151 190.224,168.960 193.549,168.960 212.370 C 168.960 228.309,169.241 234.606,169.984 235.349 C 171.446 236.811,219.381 236.811,220.843 235.349 C 221.587 234.605,221.867 228.207,221.867 211.913 C 221.867 190.627,221.784 189.456,220.216 188.617 C 219.193 188.069,209.645 187.733,195.104 187.733 C 174.913 187.733,171.455 187.920,170.301 189.074 M232.666 189.294 C 231.430 190.659,231.253 193.540,231.253 212.273 C 231.253 230.607,231.446 233.885,232.594 235.032 C 233.750 236.188,237.269 236.373,258.090 236.373 C 279.517 236.373,282.377 236.214,283.416 234.962 C 284.340 233.848,284.587 228.990,284.587 211.853 C 284.587 191.360,284.495 190.089,282.930 188.945 C 281.594 187.968,276.709 187.733,257.676 187.733 C 235.898 187.733,233.969 187.854,232.666 189.294 M295.893 188.655 C 294.532 189.448,294.400 191.477,294.400 211.608 C 294.400 230.546,294.591 233.882,295.741 235.032 C 296.897 236.188,300.410 236.373,321.170 236.373 C 338.768 236.373,345.535 236.097,346.283 235.349 C 347.026 234.606,347.307 228.309,347.307 212.370 C 347.307 193.549,347.115 190.224,345.966 189.074 C 344.810 187.919,341.363 187.737,321.006 187.759 C 306.557 187.775,296.807 188.123,295.893 188.655 " stroke="none" fill-rule="evenodd" fill="black"></path></svg>