<svg xmlns="http://www.w3.org/2000/svg" width="512" height="512" viewBox="0 0 512 512"><path d="M213.760 80.767 C 212.352 80.932,207.552 81.481,203.093 81.988 C 135.461 89.682,44.974 139.873,12.582 187.659 C -6.305 215.521,-3.902 240.217,20.232 266.285 C 30.075 276.917,44.078 287.087,74.240 305.508 C 82.923 310.811,91.706 316.292,93.758 317.688 L 97.489 320.226 80.958 328.470 C 46.668 345.571,30.402 358.685,21.386 376.496 C 17.211 384.742,15.877 391.020,16.438 399.787 C 17.516 416.626,26.837 427.727,42.667 431.023 C 49.832 432.515,65.443 431.493,74.667 428.929 C 113.240 418.205,137.515 388.806,137.484 352.853 C 137.476 343.483,136.585 337.729,133.875 329.545 C 132.894 326.582,132.227 324.034,132.392 323.883 C 132.867 323.449,153.533 313.173,153.930 313.173 C 154.126 313.173,153.753 314.944,153.102 317.108 C 149.436 329.288,148.290 347.835,150.549 358.400 C 153.349 371.490,159.745 382.853,166.400 386.556 C 169.655 388.368,171.344 388.693,177.493 388.693 C 183.631 388.693,185.309 388.371,188.401 386.600 C 193.549 383.653,199.934 374.644,208.085 358.827 L 209.845 355.413 209.892 360.533 C 209.994 371.418,213.502 378.772,219.955 381.626 C 226.830 384.667,233.254 382.085,243.438 372.188 C 257.108 358.902,268.638 338.407,285.417 297.565 C 287.691 292.031,289.813 287.807,290.134 288.178 C 290.455 288.550,291.772 291.925,293.062 295.680 C 294.351 299.435,297.100 306.110,299.170 310.514 C 301.240 314.918,302.933 319.119,302.933 319.849 C 302.933 320.579,296.648 327.535,288.965 335.308 C 274.448 349.996,268.844 357.347,267.206 363.854 C 265.614 370.177,268.017 373.837,274.786 375.396 C 294.391 379.914,326.481 365.853,333.673 349.593 C 335.978 344.383,336.890 337.266,336.058 330.980 C 335.662 327.992,335.323 322.656,335.303 319.123 C 335.239 307.460,340.922 294.128,352.781 278.122 L 357.829 271.309 361.064 281.165 C 362.843 286.586,365.682 293.653,367.372 296.870 L 370.445 302.719 365.117 307.733 C 351.463 320.581,345.753 328.128,343.017 336.943 C 339.226 349.154,342.657 358.559,351.799 361.021 C 354.794 361.827,356.485 361.681,362.634 360.082 C 381.381 355.206,396.904 344.298,402.604 331.995 C 405.210 326.371,405.460 317.834,403.242 310.204 C 402.452 307.488,402.120 304.957,402.503 304.580 C 402.886 304.203,407.181 303.086,412.047 302.097 C 446.865 295.025,481.081 303.574,493.078 322.345 C 500.660 334.207,498.091 344.950,485.479 354.124 C 482.231 356.486,479.573 358.982,479.573 359.670 C 479.573 360.358,480.572 361.575,481.792 362.374 C 483.727 363.642,484.518 363.693,487.979 362.770 C 493.385 361.327,499.196 357.444,504.290 351.871 C 513.197 342.125,514.304 328.020,507.299 313.552 C 504.783 308.356,497.134 299.716,491.111 295.266 C 482.397 288.829,470.235 283.775,458.210 281.595 C 450.327 280.165,431.616 280.406,421.896 282.062 C 414.719 283.284,399.374 287.149,395.030 288.828 C 394.005 289.225,392.965 287.776,390.630 282.700 C 385.730 272.045,385.287 270.073,385.307 258.987 C 385.322 250.472,385.721 247.314,387.678 240.242 C 390.003 231.838,390.012 231.712,388.418 229.577 C 387.531 228.389,385.310 226.966,383.483 226.414 C 375.836 224.106,359.707 226.079,356.170 229.755 C 355.152 230.814,353.142 235.520,351.705 240.213 C 347.509 253.916,337.673 272.440,325.277 289.986 C 320.934 296.133,320.935 296.133,318.094 287.147 C 315.506 278.963,315.612 266.107,318.348 256.427 C 319.408 252.672,320.310 248.064,320.352 246.187 C 320.421 243.041,320.167 242.647,317.119 241.158 C 310.458 237.906,292.631 239.020,288.178 242.967 C 283.567 247.053,278.310 257.829,269.288 281.687 C 263.225 297.720,250.478 327.162,245.795 335.951 C 243.764 339.764,240.602 344.551,238.770 346.588 L 235.438 350.293 235.753 343.446 C 236.041 337.191,236.592 335.380,242.109 322.539 C 248.959 306.596,250.880 300.722,250.880 295.725 C 250.880 288.248,245.495 282.944,238.074 283.113 L 234.022 283.205 233.638 276.216 C 233.186 267.974,231.137 263.273,226.434 259.686 C 223.815 257.689,222.299 257.249,217.135 256.988 C 209.939 256.625,203.874 258.139,195.367 262.423 C 188.204 266.030,178.287 273.870,172.341 280.625 C 164.698 289.308,158.364 293.013,133.663 303.248 L 120.126 308.857 115.316 305.167 C 112.671 303.138,104.363 297.313,96.853 292.224 C 56.264 264.715,43.726 250.676,42.140 230.961 C 40.170 206.450,59.295 181.721,97.970 158.772 C 118.447 146.621,144.983 133.925,167.530 125.489 C 209.321 109.853,249.065 107.555,274.920 119.278 C 296.772 129.186,297.899 151.221,277.837 176.285 C 258.451 200.503,217.885 220.138,178.352 224.438 C 159.926 226.442,143.564 222.544,126.254 212.029 C 123.359 210.271,120.354 209.064,119.257 209.220 C 113.727 210.005,119.129 223.282,128.573 232.116 C 137.436 240.408,148.188 244.833,163.840 246.631 C 194.485 250.153,245.551 235.222,279.628 212.777 C 295.305 202.451,311.576 183.180,317.427 168.007 C 328.329 139.738,326.048 122.002,309.373 105.361 C 304.088 100.087,300.719 97.588,294.745 94.509 C 281.573 87.721,265.476 83.116,247.893 81.105 C 240.770 80.291,219.641 80.082,213.760 80.767 M214.187 281.284 C 214.187 284.810,209.402 303.715,205.623 315.121 C 199.139 334.688,191.504 349.437,184.325 356.267 C 181.793 358.675,181.566 358.736,180.505 357.292 C 176.675 352.079,176.655 330.923,180.468 317.909 C 184.295 304.844,192.115 291.966,199.717 286.209 C 203.320 283.480,210.659 279.913,212.693 279.902 C 213.515 279.897,214.187 280.519,214.187 281.284 M377.780 324.701 C 377.219 330.138,374.947 334.771,370.834 338.867 C 367.708 341.981,361.361 345.432,360.446 344.517 C 359.312 343.383,362.916 334.356,366.380 329.650 C 370.515 324.034,376.171 318.954,377.427 319.730 C 377.876 320.007,378.034 322.240,377.780 324.701 M111.239 339.413 C 112.074 344.463,111.874 355.329,110.856 360.278 C 106.435 381.772,81.697 403.827,61.867 403.955 C 52.463 404.015,48.865 400.184,49.712 391.010 C 50.925 377.857,62.444 363.558,82.748 350.000 C 90.741 344.663,106.988 336.213,109.258 336.213 C 110.273 336.213,110.869 337.177,111.239 339.413 M305.572 348.005 C 302.243 354.532,291.840 363.681,291.840 360.083 C 291.840 358.877,306.665 343.229,307.037 344.043 C 307.181 344.360,306.522 346.143,305.572 348.005 " stroke="none" fill-rule="evenodd" fill="black"></path></svg>