<svg xmlns="http://www.w3.org/2000/svg" width="512" height="512" viewBox="0 0 512 512"><path d="M398.080 64.509 C 379.096 67.294,367.269 70.622,355.703 76.436 C 333.151 87.773,312.807 110.211,297.775 140.327 C 289.909 156.085,287.269 163.643,288.814 165.973 C 290.261 168.155,292.202 168.043,301.588 165.235 C 327.212 157.568,343.025 161.402,349.903 176.950 C 353.749 185.645,352.757 202.811,347.607 216.657 C 334.989 250.581,301.290 300.794,286.255 308.072 C 277.302 312.406,269.920 308.469,263.627 296.001 C 251.904 272.778,244.716 243.518,233.782 174.507 C 231.403 159.488,228.345 141.632,226.987 134.827 C 218.164 90.609,200.015 70.038,169.779 69.986 C 157.094 69.964,146.559 73.963,129.707 85.199 C 118.681 92.551,114.754 95.704,86.725 119.714 C 55.517 146.447,32.292 167.276,32.614 168.241 C 33.095 169.684,52.455 194.462,53.140 194.512 C 53.504 194.538,59.609 190.676,66.707 185.928 C 81.051 176.335,85.291 174.126,89.414 174.099 C 94.030 174.068,97.410 176.071,103.308 182.334 C 107.819 187.125,109.999 190.511,114.515 199.741 C 117.599 206.043,121.122 213.888,122.344 217.173 C 125.402 225.394,135.774 261.025,151.904 318.720 C 168.436 377.856,170.988 385.675,178.923 401.493 C 191.444 426.454,207.294 442.333,224.045 446.696 C 245.675 452.330,279.158 439.210,312.320 412.105 C 324.395 402.236,347.077 380.152,358.922 366.731 C 380.685 342.074,416.395 294.827,433.374 268.226 C 455.889 232.953,471.865 197.927,476.975 172.636 C 481.696 149.267,480.746 124.858,474.338 104.960 C 467.914 85.008,452.463 71.453,430.080 66.131 C 424.675 64.846,403.202 63.758,398.080 64.509 " stroke="none" fill-rule="evenodd" fill="black"></path></svg>