<svg version="1.1" xmlns="http://www.w3.org/2000/svg" xmlns:xlink="http://www.w3.org/1999/xlink" x="0px" y="0px" viewBox="0 0 512 512" style="enable-background:new 0 0 512 512;" xml:space="preserve"><path d="M28.160 256.000 L 28.160 483.840 256.000 483.840 L 483.840 483.840 483.840 256.000 L 483.840 28.160 256.000 28.160 L 28.160 28.160 28.160 256.000 M227.425 206.078 C 246.147 247.144,261.736 280.456,262.068 280.105 C 262.400 279.754,276.006 246.155,292.302 205.440 L 321.932 131.413 364.486 131.413 L 407.040 131.413 407.040 133.911 C 407.040 135.623,406.301 136.988,404.693 138.246 C 403.403 139.255,397.259 145.085,391.040 151.199 L 379.733 162.317 379.733 252.475 L 379.733 342.634 392.960 355.840 C 404.636 367.498,406.187 369.373,406.187 371.835 L 406.187 374.625 346.240 374.406 L 286.293 374.187 286.008 371.680 C 285.751 369.427,287.118 367.827,299.491 355.893 L 313.260 342.613 313.004 271.386 L 312.747 200.158 278.613 286.980 L 244.480 373.801 239.813 373.567 L 235.146 373.333 195.237 286.293 L 155.329 199.253 155.318 260.507 C 155.309 311.149,155.514 322.237,156.501 324.507 C 157.158 326.018,165.414 336.594,174.848 348.011 C 188.508 364.542,192.000 369.276,192.000 371.264 L 192.000 373.760 146.347 373.760 L 100.693 373.760 100.693 370.967 C 100.693 368.595,103.277 365.037,117.831 347.369 C 127.257 335.927,135.341 325.586,135.796 324.389 C 136.308 323.042,136.601 294.269,136.566 248.787 L 136.509 175.360 134.636 172.800 C 133.605 171.392,126.315 162.477,118.434 152.988 C 108.210 140.677,104.107 135.118,104.107 133.575 L 104.107 131.413 148.746 131.413 L 193.385 131.413 227.425 206.078 " stroke="none" fill-rule="evenodd" fill="black"></path></svg>