<svg xmlns="http://www.w3.org/2000/svg" width="512" height="512" viewBox="0 0 512 512"><path d="M233.752 33.682 C 205.764 38.239,179.156 50.778,161.471 67.743 C 146.571 82.037,137.678 97.462,132.521 117.956 L 130.413 126.333 132.063 129.513 C 134.949 135.075,136.352 135.457,162.640 137.838 C 175.737 139.025,188.456 140.024,190.904 140.059 C 197.092 140.147,200.822 137.738,202.691 132.446 C 207.711 118.229,212.050 111.451,220.306 104.925 C 226.219 100.251,230.114 98.356,237.936 96.348 C 245.351 94.444,258.270 94.074,264.963 95.574 C 275.239 97.877,285.243 105.903,290.234 115.849 L 293.120 121.600 293.386 143.012 L 293.651 164.424 278.879 164.958 C 243.478 166.238,199.807 174.514,181.333 183.444 C 159.735 193.884,140.778 212.618,129.925 234.247 C 114.459 265.067,116.448 301.167,135.214 330.240 C 144.320 344.347,153.381 352.210,169.114 359.656 C 193.317 371.112,221.242 371.662,251.096 361.271 C 269.147 354.987,281.478 347.225,296.608 332.622 L 304.363 325.137 307.206 329.182 C 312.516 336.735,322.290 348.560,329.757 356.465 C 337.629 364.799,340.935 366.629,346.210 365.574 C 347.852 365.246,356.318 358.683,370.006 347.130 C 399.803 321.979,397.653 324.158,397.653 319.107 C 397.653 315.157,397.093 314.042,389.416 302.714 C 380.443 289.475,378.184 285.040,375.299 274.992 C 373.415 268.430,373.394 267.703,372.878 190.293 C 372.498 133.342,372.077 111.174,371.324 108.373 C 363.080 77.717,348.327 60.018,319.727 46.472 C 309.838 41.788,295.777 37.065,285.142 34.855 C 274.227 32.588,244.623 31.911,233.752 33.682 M293.385 233.600 L 293.110 258.987 290.291 267.093 C 285.102 282.012,276.327 294.699,264.931 303.755 C 257.400 309.740,252.528 311.471,243.258 311.457 C 232.384 311.439,222.739 307.824,215.258 300.960 C 208.148 294.436,203.947 281.569,203.947 266.315 C 203.947 253.267,206.063 245.282,211.791 236.718 C 222.107 221.295,238.099 212.154,258.560 209.987 C 272.349 208.527,272.833 208.495,283.577 208.350 L 293.661 208.213 293.385 233.600 M420.267 369.890 C 407.377 372.398,387.050 381.017,384.531 385.043 C 382.557 388.198,384.830 388.542,397.397 386.988 C 405.659 385.967,413.504 385.616,423.327 385.829 C 439.202 386.172,441.144 386.798,443.450 392.318 C 444.625 395.130,444.577 396.055,442.864 403.558 C 440.492 413.947,435.893 428.309,432.101 437.170 C 426.847 449.445,429.389 451.154,438.917 441.749 C 453.450 427.403,462.423 407.844,463.844 387.413 C 464.297 380.908,464.144 379.769,462.361 376.369 C 459.079 370.110,456.172 369.146,439.898 368.919 C 431.099 368.796,424.115 369.142,420.267 369.890 M49.016 374.145 C 48.170 375.435,47.869 376.942,48.230 378.079 C 49.203 381.145,77.344 408.709,88.919 417.934 C 129.363 450.165,177.733 472.143,220.829 477.870 C 279.264 485.635,344.150 471.442,390.301 440.800 C 403.232 432.214,410.667 426.313,420.895 416.518 C 429.115 408.646,429.876 406.758,426.279 403.161 C 423.226 400.109,420.396 400.511,410.378 405.421 C 377.308 421.627,337.770 434.729,305.053 440.322 C 265.680 447.053,200.276 441.899,164.969 429.282 C 128.470 416.239,96.915 400.342,64.665 378.750 C 53.861 371.516,51.243 370.746,49.016 374.145 " stroke="none" fill-rule="evenodd" fill="black"></path></svg>