<svg id="Layer_1" data-name="Layer 1" xmlns="http://www.w3.org/2000/svg" viewBox="0 0 512 512"><path d="M231.680 16.287 C 175.173 22.081,124.396 46.721,83.887 88.004 C 46.720 125.881,24.278 172.740,16.915 227.840 C 15.280 240.077,15.545 272.869,17.380 285.440 C 19.240 298.173,22.404 313.050,25.275 322.560 C 54.080 417.952,136.777 485.397,235.680 494.160 C 249.582 495.392,275.947 494.712,288.427 492.801 C 350.384 483.310,403.501 453.073,442.150 405.291 C 451.150 394.165,459.947 380.946,459.947 378.547 C 459.947 377.449,459.151 375.538,458.178 374.302 C 455.592 371.014,452.075 371.364,443.157 375.796 C 433.937 380.378,414.857 386.605,401.328 389.446 C 363.574 397.374,322.309 393.483,285.013 378.480 C 243.363 361.724,207.936 325.599,198.471 290.232 C 194.208 274.301,193.447 252.365,196.716 239.663 C 200.354 225.527,208.836 213.930,221.879 205.259 C 232.606 198.129,242.685 195.162,256.000 195.215 C 274.421 195.289,290.378 202.687,302.459 216.755 C 307.309 222.404,313.504 234.888,314.945 241.920 C 316.310 248.582,316.312 261.152,314.948 267.093 C 313.283 274.345,306.167 288.164,300.447 295.253 C 294.836 302.206,293.947 305.612,296.468 310.487 C 301.178 319.595,319.754 328.508,341.985 332.325 C 391.426 340.814,433.773 330.010,462.103 301.677 C 474.239 289.540,483.387 274.825,489.228 258.045 C 494.150 243.904,495.302 236.881,495.301 221.013 C 495.300 199.919,492.421 182.510,485.509 161.793 C 456.594 75.127,361.633 14.815,255.147 15.483 C 245.995 15.540,235.435 15.902,231.680 16.287 " stroke="none" fill-rule="evenodd" fill="black"></path></svg>