<svg xmlns="http://www.w3.org/2000/svg" viewBox="0 0 512 512"><path d="M313.522 21.547 C 309.169 26.151,305.686 32.100,288.034 65.077 L 267.588 103.273 261.105 107.530 L 254.621 111.787 179.364 111.787 L 104.107 111.787 104.107 171.947 L 104.107 232.107 145.427 232.107 L 186.747 232.107 190.227 236.160 C 192.265 238.534,193.512 240.744,193.238 241.493 C 192.981 242.197,172.821 280.047,148.438 325.604 L 104.107 408.435 104.107 452.111 L 104.107 495.787 148.771 495.787 L 193.436 495.787 198.478 490.453 C 202.831 485.849,206.314 479.900,223.966 446.923 L 244.412 408.727 250.895 404.470 L 257.379 400.213 332.636 400.213 L 407.893 400.213 407.893 340.053 L 407.893 279.893 366.573 279.893 L 325.253 279.893 321.765 275.840 C 319.847 273.611,318.377 271.379,318.499 270.882 C 318.620 270.384,338.784 232.537,363.307 186.777 L 407.893 103.577 407.893 59.895 L 407.893 16.213 363.229 16.213 L 318.564 16.213 313.522 21.547 " stroke="none" fill="black" fill-rule="evenodd"></path></svg>