<svg xmlns="http://www.w3.org/2000/svg" width="512" height="512" viewBox="0 0 512 512"><path d="M182.613 64.427 L 182.613 96.427 139.080 96.427 L 95.546 96.427 95.773 120.107 L 96.000 143.787 116.907 144.234 C 139.932 144.727,141.965 145.135,146.139 150.096 C 147.389 151.581,148.715 154.226,149.086 155.972 C 149.457 157.718,149.760 203.115,149.760 256.853 C 149.760 362.679,149.909 359.230,145.097 364.620 L 142.650 367.360 123.593 367.787 L 104.535 368.213 100.521 390.400 C 98.313 402.603,96.489 413.451,96.467 414.507 L 96.427 416.427 139.510 416.427 L 182.593 416.427 182.816 448.213 L 183.040 480.000 203.520 480.000 L 224.000 480.000 224.224 448.213 L 224.447 416.427 240.224 416.427 L 256.000 416.427 256.000 448.427 L 256.000 480.427 276.053 480.427 L 296.107 480.427 296.107 448.110 L 296.107 415.793 304.000 415.199 C 348.290 411.865,376.710 400.282,397.091 377.258 C 407.820 365.137,413.719 346.502,415.215 320.000 C 415.821 309.256,414.585 293.660,412.475 285.440 C 407.515 266.112,389.490 249.567,364.599 241.495 L 357.571 239.216 363.892 235.212 C 376.767 227.055,386.401 214.185,390.109 200.185 C 394.701 182.850,392.084 157.126,384.022 140.373 C 375.330 122.310,354.352 107.285,328.664 100.727 C 319.911 98.492,306.487 96.438,300.587 96.432 L 296.107 96.427 296.107 64.427 L 296.107 32.427 276.053 32.427 L 256.000 32.427 256.000 64.427 L 256.000 96.427 240.213 96.427 L 224.427 96.427 224.427 64.427 L 224.427 32.427 203.520 32.427 L 182.613 32.427 182.613 64.427 M256.000 187.307 L 256.000 224.427 240.213 224.427 L 224.427 224.427 224.427 187.307 L 224.427 150.187 240.213 150.187 L 256.000 150.187 256.000 187.307 M300.024 156.208 C 303.011 158.054,310.322 166.749,312.541 171.093 C 316.328 178.512,317.031 191.057,314.095 198.828 C 311.902 204.632,305.815 212.855,301.006 216.512 C 299.015 218.026,297.099 219.274,296.747 219.285 C 296.395 219.297,296.107 204.715,296.107 186.880 C 296.107 169.045,296.349 154.453,296.646 154.453 C 296.943 154.453,298.463 155.243,300.024 156.208 M256.000 317.013 L 256.000 361.813 240.213 361.813 L 224.427 361.813 224.427 317.013 L 224.427 272.213 240.213 272.213 L 256.000 272.213 256.000 317.013 M309.024 277.701 C 324.816 284.486,332.235 293.720,334.447 309.342 C 335.387 315.983,334.303 325.539,332.024 330.691 C 328.505 338.646,316.258 349.008,305.234 353.358 C 295.049 357.377,296.107 361.850,296.107 314.768 L 296.107 273.697 298.998 274.166 C 300.588 274.424,305.100 276.015,309.024 277.701 " stroke="none" fill-rule="evenodd" fill="black"></path></svg>