<svg xmlns="http://www.w3.org/2000/svg" width="512" height="512" viewBox="0 0 512 512"><path d="M192.000 243.079 L 192.000 422.293 211.840 428.678 C 222.752 432.190,240.320 437.837,250.880 441.226 C 261.440 444.615,270.560 447.567,271.147 447.785 C 271.998 448.102,272.213 417.081,272.213 294.457 C 272.213 144.866,272.257 140.647,273.842 137.566 C 275.828 133.705,279.499 130.125,282.722 128.908 C 289.253 126.440,297.073 129.043,301.012 134.994 L 303.360 138.541 303.588 208.308 L 303.816 278.075 308.708 279.924 C 326.832 286.772,347.109 288.756,360.960 285.035 C 377.224 280.666,390.709 265.013,396.366 243.935 C 402.086 222.628,400.906 188.274,393.662 165.183 C 385.088 137.852,365.681 118.376,333.243 104.551 C 305.197 92.598,238.276 73.205,194.773 64.424 L 192.000 63.864 192.000 243.079 M122.880 298.578 C 52.234 322.104,42.261 325.732,26.182 333.755 C 6.276 343.688,-0.794 351.314,0.278 361.699 C 1.191 370.548,9.123 379.048,22.192 385.181 C 34.482 390.949,62.273 398.564,81.493 401.430 C 108.320 405.430,139.303 405.267,169.173 400.969 L 175.787 400.017 175.787 379.208 C 175.787 362.134,175.576 358.400,174.615 358.400 C 173.055 358.400,156.745 363.313,137.813 369.486 C 118.836 375.674,114.151 376.574,100.693 376.619 C 85.341 376.670,75.790 373.846,74.545 368.888 C 73.780 365.839,76.484 362.715,82.424 359.785 C 86.951 357.553,140.339 339.470,165.760 331.559 L 175.787 328.438 175.787 305.019 C 175.787 286.834,175.548 281.608,174.720 281.635 C 174.133 281.654,150.805 289.278,122.880 298.578 M361.813 302.059 C 356.416 302.445,346.048 303.964,338.773 305.434 C 326.173 307.981,289.862 316.979,288.309 317.939 C 287.904 318.189,287.573 329.166,287.573 342.332 L 287.573 366.270 290.455 365.729 C 292.040 365.432,315.488 357.887,342.562 348.964 C 397.204 330.954,402.433 329.674,417.707 330.577 C 430.292 331.320,437.573 333.677,439.352 337.583 C 440.566 340.248,439.647 342.164,435.720 345.160 C 431.801 348.149,427.793 349.582,353.280 374.640 L 288.000 396.593 287.773 419.737 C 287.582 439.215,287.737 442.880,288.752 442.880 C 290.580 442.880,413.571 400.825,455.253 385.947 C 485.863 375.021,496.031 369.874,504.927 360.802 C 519.735 345.699,510.855 329.631,481.414 318.259 C 462.569 310.980,442.535 305.925,422.280 303.338 C 409.951 301.763,375.993 301.045,361.813 302.059 " stroke="none" fill-rule="evenodd" fill="black"></path></svg>