<svg xmlns="http://www.w3.org/2000/svg" width="512" height="512" viewBox="0 0 512 512"><path d="M357.120 49.522 C 292.352 58.824,237.728 66.678,235.733 66.976 L 232.107 67.518 232.107 158.348 L 232.107 249.179 356.053 248.963 L 480.000 248.747 480.217 140.587 L 480.433 32.427 477.657 32.518 C 476.129 32.568,421.888 40.220,357.120 49.522 M122.027 83.106 L 32.000 96.054 32.000 172.400 L 32.000 248.747 123.947 248.964 L 215.893 249.181 215.893 159.577 L 215.893 69.973 213.973 70.066 C 212.917 70.116,171.541 75.984,122.027 83.106 M31.782 340.230 L 32.000 415.072 77.653 421.691 C 102.763 425.331,144.139 431.332,169.600 435.027 L 215.893 441.745 215.893 353.566 L 215.893 265.387 123.729 265.387 L 31.564 265.387 31.782 340.230 M232.316 354.764 L 232.533 444.140 354.133 461.826 C 421.013 471.553,476.789 479.525,478.080 479.542 L 480.427 479.573 480.427 372.480 L 480.427 265.387 356.263 265.387 L 232.099 265.387 232.316 354.764 " stroke="none" fill-rule="evenodd" fill="black"></path></svg>