<svg xmlns="http://www.w3.org/2000/svg" width="512" height="512" viewBox="0 0 512 512"><path d="M161.279 66.987 L 126.725 101.550 268.375 243.201 L 410.024 384.853 444.584 350.294 L 479.143 315.735 426.025 262.611 C 396.810 233.394,372.907 209.107,372.907 208.640 C 372.907 208.173,396.997 183.699,426.440 154.253 C 479.101 101.587,479.946 100.689,478.280 99.158 C 477.349 98.302,461.693 82.856,443.490 64.833 L 410.394 32.065 356.663 85.790 L 302.933 139.515 249.383 85.970 L 195.834 32.425 161.279 66.987 M66.773 161.491 L 32.428 195.836 85.971 249.385 L 139.515 302.933 85.791 356.662 L 32.068 410.391 63.119 441.782 C 80.197 459.047,95.640 474.706,97.437 476.579 L 100.703 479.985 150.405 430.484 C 177.741 403.259,202.129 379.078,204.602 376.749 L 209.096 372.515 262.414 425.828 L 315.732 479.140 350.294 444.586 L 384.856 410.032 243.416 268.589 C 165.624 190.796,101.782 127.147,101.546 127.147 C 101.310 127.147,85.662 142.602,66.773 161.491 " stroke="none" fill-rule="evenodd" fill="black"></path></svg>