<svg xmlns="http://www.w3.org/2000/svg" width="512" height="512" viewBox="0 0 512 512"><path d="M287.303 167.640 C 244.730 242.007,209.712 303.351,209.486 303.960 C 209.259 304.568,231.479 344.427,258.863 392.533 L 308.652 480.000 360.507 480.220 C 409.965 480.430,412.344 480.369,411.963 478.913 C 411.744 478.074,389.756 439.026,363.102 392.141 C 336.449 345.257,314.464 306.221,314.248 305.396 C 314.007 304.475,343.607 251.793,390.955 168.873 C 433.359 94.611,468.181 33.531,468.338 33.139 C 468.494 32.747,445.242 32.427,416.665 32.427 L 364.708 32.427 287.303 167.640 M65.707 112.558 C 65.707 112.989,78.763 136.484,94.720 164.768 C 110.677 193.053,123.733 216.480,123.733 216.830 C 123.733 217.180,105.880 247.219,84.059 283.583 C 62.238 319.947,44.149 350.313,43.861 351.063 C 43.385 352.303,47.714 352.425,91.429 352.414 C 117.879 352.406,139.953 352.118,140.483 351.774 C 141.563 351.071,221.867 217.922,221.867 216.835 C 221.867 216.453,208.523 192.757,192.213 164.177 L 162.560 112.213 114.133 111.993 C 85.066 111.861,65.707 112.086,65.707 112.558 " stroke="none" fill-rule="evenodd" fill="black"></path></svg>