<svg xmlns="http://www.w3.org/2000/svg" viewBox="0 0 512 512"><path d="M160.967 17.527 C 143.950 20.941,129.995 28.623,118.141 41.102 C 103.487 56.529,96.190 74.779,96.190 96.000 C 96.190 136.162,124.324 168.459,165.315 175.350 C 171.078 176.319,171.444 176.477,168.107 176.558 C 161.990 176.707,150.535 179.808,142.923 183.375 C 113.766 197.039,96.079 224.501,96.150 256.000 C 96.224 289.126,116.004 318.197,146.773 330.404 C 152.077 332.508,162.240 335.024,167.680 335.580 C 169.433 335.760,168.222 336.202,163.840 336.985 C 145.096 340.331,130.609 347.976,118.141 361.102 C 103.487 376.529,96.190 394.779,96.190 416.000 C 96.190 451.866,119.001 482.169,154.094 492.922 C 161.030 495.047,162.958 495.259,175.787 495.307 C 188.022 495.353,190.749 495.104,196.604 493.409 C 226.767 484.672,248.069 461.797,254.384 431.360 C 255.870 424.200,255.984 418.277,256.066 343.893 C 256.141 275.961,256.318 264.994,257.257 270.080 C 260.409 287.149,268.294 301.691,280.855 313.604 C 288.507 320.861,295.274 325.433,303.861 329.145 C 315.347 334.111,322.472 335.579,335.360 335.636 C 349.697 335.700,358.464 333.739,370.891 327.688 C 398.858 314.072,415.833 286.995,415.833 256.000 C 415.833 224.374,398.234 197.039,369.077 183.375 C 361.465 179.808,350.010 176.707,343.893 176.558 C 340.556 176.477,340.922 176.319,346.685 175.350 C 387.651 168.463,415.810 136.138,415.810 96.000 C 415.810 74.755,408.246 56.002,393.489 40.667 C 383.443 30.227,370.619 22.616,356.267 18.576 L 349.440 16.654 258.133 16.503 C 183.515 16.379,165.756 16.566,160.967 17.527 M321.280 177.471 C 288.283 184.090,263.291 209.249,257.257 241.920 C 256.274 247.244,256.146 243.975,256.077 211.840 L 256.000 175.787 292.480 175.859 L 328.960 175.931 321.280 177.471 " stroke="none" fill-rule="evenodd" fill="black"></path></svg>