<svg xmlns="http://www.w3.org/2000/svg" width="512" height="512" viewBox="0 0 512 512"><path d="M243.585 33.702 C 236.664 35.569,38.604 131.413,35.286 134.501 C 31.370 138.145,31.341 141.976,35.200 145.703 C 39.024 149.395,237.641 245.274,245.118 247.037 C 251.973 248.653,260.090 248.637,267.093 246.993 C 270.913 246.096,301.328 231.850,364.800 201.229 C 482.101 144.638,476.673 147.364,478.762 143.981 C 480.831 140.632,480.359 137.857,477.175 134.642 C 474.424 131.864,273.783 34.851,267.782 33.397 C 262.406 32.094,248.912 32.264,243.585 33.702 M420.693 227.286 C 418.112 228.388,383.744 244.885,344.320 263.945 C 292.346 289.073,270.998 298.986,266.667 300.004 C 258.432 301.940,247.260 301.270,239.787 298.392 C 236.736 297.217,201.602 280.478,161.711 261.195 C 105.716 234.126,88.452 226.133,85.979 226.133 C 83.643 226.133,76.947 228.924,61.228 236.447 C 36.102 248.474,34.510 249.382,32.815 252.662 C 31.161 255.859,31.895 258.582,35.267 261.757 C 38.244 264.561,230.822 358.034,241.067 361.648 C 245.868 363.342,248.714 363.759,255.573 363.774 C 260.267 363.784,265.835 363.317,267.947 362.736 C 274.598 360.905,474.886 263.794,477.215 261.271 C 478.374 260.015,479.573 258.280,479.878 257.415 C 480.576 255.438,478.407 250.881,475.918 249.098 C 473.404 247.296,429.600 226.248,427.235 225.705 C 426.218 225.472,423.275 226.183,420.693 227.286 M423.253 341.903 C 422.549 342.186,388.353 358.672,347.262 378.539 C 296.734 402.968,270.769 415.081,267.048 415.958 C 260.199 417.572,252.985 417.606,245.680 416.058 C 241.486 415.169,220.893 405.618,164.754 378.526 C 104.503 349.450,88.778 342.187,86.076 342.187 C 83.527 342.187,77.639 344.607,62.043 352.065 C 36.049 364.496,34.277 365.529,32.784 369.100 C 31.411 372.387,31.832 374.125,34.775 377.314 C 37.129 379.866,237.590 477.035,244.053 478.758 C 249.756 480.277,262.403 480.062,268.395 478.344 C 276.017 476.158,474.630 380.109,477.271 377.332 C 480.367 374.078,480.803 371.323,478.751 368.000 C 477.313 365.671,473.243 363.369,453.346 353.631 C 430.678 342.538,426.110 340.757,423.253 341.903 " stroke="none" fill-rule="evenodd" fill="black"></path></svg>