<svg xmlns="http://www.w3.org/2000/svg" width="512" height="512" viewBox="0 0 512 512"><path d="M106.240 33.039 C 99.862 33.926,89.426 37.107,82.935 40.142 C 54.202 53.577,35.808 79.510,32.420 111.360 C 31.284 122.036,31.316 388.850,32.454 398.933 C 34.788 419.609,42.713 437.184,56.148 451.477 C 65.261 461.173,71.771 466.053,82.347 471.119 C 92.902 476.175,100.926 478.430,112.585 479.616 C 118.760 480.244,165.690 480.433,261.547 480.214 C 388.580 479.924,402.022 479.764,407.221 478.474 C 427.221 473.512,439.684 466.647,453.166 453.166 C 466.631 439.701,473.626 426.992,478.554 407.040 C 479.777 402.088,479.956 386.483,480.228 261.547 C 480.546 115.834,480.426 109.827,476.948 97.225 C 474.916 89.864,469.024 77.006,465.008 71.167 C 461.167 65.585,451.130 55.155,445.221 50.606 C 438.908 45.746,427.703 39.794,419.819 37.113 C 405.415 32.214,412.741 32.416,254.412 32.555 C 174.326 32.625,107.648 32.843,106.240 33.039 M279.893 148.053 L 279.893 184.320 305.920 184.320 L 331.947 184.320 331.947 212.053 L 331.947 239.787 305.920 239.787 L 279.893 239.787 279.893 278.950 C 279.893 315.481,280.006 318.478,281.571 323.537 C 283.536 329.888,287.745 334.756,293.475 337.303 C 297.870 339.257,309.348 340.388,325.333 340.443 L 336.213 340.480 336.213 368.274 L 336.213 396.068 302.293 395.743 C 263.644 395.373,261.593 395.082,247.040 387.914 C 230.724 379.878,220.699 366.738,214.779 345.627 C 213.068 339.524,212.954 336.701,212.515 289.707 L 212.053 240.213 193.920 239.983 L 175.787 239.753 175.787 215.993 L 175.787 192.234 183.277 189.554 C 197.407 184.500,208.812 176.219,217.472 164.726 C 226.375 152.912,232.636 137.466,234.782 122.027 C 235.271 118.507,235.837 114.763,236.039 113.707 L 236.406 111.787 258.150 111.787 L 279.893 111.787 279.893 148.053 " stroke="none" fill-rule="evenodd" fill="black"></path></svg>