<svg xmlns="http://www.w3.org/2000/svg" width="512" height="512" viewBox="0 0 512 512"><path d="M232.107 33.324 C 212.260 35.730,188.105 42.786,171.093 51.147 C 160.276 56.463,147.774 64.350,142.080 69.449 L 138.667 72.506 145.920 69.174 C 185.180 51.143,233.036 46.819,277.280 57.307 C 296.087 61.764,321.576 72.806,336.977 83.166 C 384.003 114.802,408.176 162.842,404.484 217.322 C 402.619 244.825,393.279 264.953,373.655 283.755 C 357.716 299.026,338.724 308.406,317.446 311.517 C 309.079 312.741,300.487 312.216,288.297 309.738 C 264.962 304.994,245.920 294.924,234.737 281.414 C 229.096 274.598,223.268 262.614,221.400 253.987 C 219.417 244.832,220.051 226.756,222.676 217.600 C 224.979 209.566,230.958 197.137,235.157 191.653 L 238.363 187.465 233.315 188.044 C 208.973 190.833,189.325 211.516,182.945 241.067 C 181.331 248.544,181.328 264.770,182.939 272.213 C 183.599 275.264,184.032 277.876,183.901 278.018 C 183.309 278.657,177.980 264.325,176.213 257.343 C 168.344 226.250,172.851 191.875,189.038 159.541 C 202.764 132.121,222.846 111.359,247.915 98.668 C 254.795 95.185,255.117 94.906,252.863 94.368 C 251.538 94.051,242.563 93.567,232.920 93.292 C 207.449 92.567,190.352 94.865,168.285 101.981 C 125.652 115.728,91.398 145.122,74.599 182.374 C 72.529 186.964,70.833 190.072,70.831 189.279 C 70.809 181.641,79.522 143.114,84.840 127.336 L 87.796 118.566 85.498 120.338 C 84.234 121.313,80.569 125.067,77.354 128.682 C 53.814 155.144,38.870 189.253,33.709 228.300 C 32.095 240.512,31.889 266.109,33.298 279.467 C 36.961 314.191,49.545 349.466,68.611 378.453 C 123.034 461.197,223.673 498.330,319.147 470.894 C 377.663 454.079,428.685 411.419,456.361 356.168 C 480.759 307.460,486.385 251.812,472.325 198.264 C 458.398 145.224,424.506 98.631,377.600 68.039 C 351.593 51.077,321.417 39.558,289.707 34.486 C 279.673 32.881,242.025 32.122,232.107 33.324 " stroke="none" fill-rule="evenodd" fill="black"></path></svg>