<svg xmlns="http://www.w3.org/2000/svg" width="512" height="512" viewBox="0 0 512 512"><path d="M0.000 256.427 L 0.000 352.427 24.320 352.427 L 48.640 352.427 48.640 319.224 L 48.640 286.022 73.173 285.633 C 90.923 285.351,98.868 284.906,101.907 284.023 L 106.107 282.802 121.636 235.055 L 137.165 187.307 135.013 184.320 C 126.597 172.640,113.554 164.821,97.399 161.773 C 91.468 160.654,82.653 160.427,45.132 160.427 L 0.000 160.427 0.000 256.427 M212.470 202.453 C 189.406 272.970,185.870 283.435,185.298 282.867 C 184.995 282.566,178.552 269.974,170.980 254.884 L 157.214 227.448 144.314 266.787 C 137.219 288.424,131.421 306.464,131.430 306.877 C 131.439 307.289,137.311 317.611,144.479 329.813 L 157.512 352.000 182.796 352.226 L 208.080 352.452 226.228 297.399 C 236.209 267.120,244.607 242.347,244.889 242.347 C 245.299 242.347,261.590 293.370,277.515 344.533 L 279.972 352.427 305.076 352.427 C 328.115 352.427,330.245 352.304,330.970 350.933 C 332.033 348.924,407.893 161.505,407.893 160.887 C 407.893 160.620,396.309 160.503,382.151 160.627 L 356.409 160.853 330.214 222.187 C 315.807 255.920,303.816 283.184,303.566 282.774 C 303.244 282.241,272.943 183.257,266.571 161.920 C 266.163 160.553,264.436 160.427,246.170 160.427 L 226.215 160.427 212.470 202.453 M426.666 192.060 C 419.939 208.989,414.436 223.304,414.436 223.871 C 414.436 224.437,418.695 236.794,423.900 251.331 C 429.106 265.867,433.490 278.336,433.643 279.040 C 433.881 280.142,430.964 280.379,412.637 280.747 L 391.354 281.173 384.687 297.793 C 381.019 306.934,377.803 315.094,377.539 315.927 C 377.084 317.359,378.915 317.440,411.558 317.440 L 446.058 317.440 451.427 332.587 C 454.380 340.917,457.326 348.795,457.973 350.092 L 459.150 352.451 485.362 352.226 C 508.135 352.030,511.538 351.832,511.300 350.720 C 510.700 347.903,439.869 161.280,439.401 161.280 C 439.124 161.280,433.393 175.131,426.666 192.060 M81.758 199.208 C 87.049 200.868,92.382 205.355,94.929 210.288 C 97.452 215.175,97.973 225.873,96.016 232.603 C 94.912 236.401,93.576 238.614,90.575 241.615 C 84.793 247.398,80.038 248.604,62.720 248.684 L 49.067 248.747 48.841 222.824 L 48.615 196.901 62.921 197.343 C 72.807 197.649,78.626 198.225,81.758 199.208 " stroke="none" fill-rule="evenodd" fill="black"></path></svg>