<svg xmlns="http://www.w3.org/2000/svg" width="512" height="512" viewBox="0 0 512 512"><path d="M326.297 34.523 C 287.521 44.547,256.269 77.715,249.573 115.952 C 248.213 123.713,248.006 129.735,248.878 136.099 L 249.436 140.170 256.007 139.622 C 287.161 137.024,316.892 114.679,331.949 82.547 C 338.481 68.609,342.233 50.063,340.948 38.069 L 340.344 32.427 337.212 32.469 C 335.489 32.492,330.578 33.416,326.297 34.523 M161.173 138.664 C 128.812 144.789,95.055 171.119,78.853 202.870 C 62.410 235.096,59.545 282.536,71.187 329.817 C 80.495 367.617,97.861 403.814,122.247 436.243 C 144.950 466.434,165.274 479.869,188.160 479.814 C 197.983 479.790,203.791 478.260,219.795 471.481 C 235.299 464.913,243.170 462.743,255.360 461.672 C 273.633 460.068,289.068 462.826,306.982 470.899 C 324.356 478.728,333.673 480.747,345.928 479.339 C 367.101 476.906,388.912 458.826,413.130 423.636 C 426.661 403.973,435.510 388.363,444.929 367.537 L 447.936 360.888 441.424 357.920 C 422.171 349.146,404.458 331.963,394.858 312.747 C 386.704 296.423,382.839 274.930,384.831 256.982 C 388.038 228.085,403.164 203.214,427.307 187.143 C 431.179 184.565,434.347 182.153,434.347 181.784 C 434.347 180.459,417.592 164.149,411.830 159.864 C 399.070 150.374,385.711 143.718,371.482 139.760 C 365.675 138.144,362.565 137.895,347.733 137.857 C 331.764 137.816,330.085 137.965,321.621 140.173 C 316.646 141.471,306.278 144.878,298.581 147.744 C 268.847 158.815,259.227 158.796,226.133 147.605 C 201.049 139.123,196.616 138.158,180.907 137.764 C 171.685 137.533,165.710 137.805,161.173 138.664 " stroke="none" fill-rule="evenodd" fill="black"></path></svg>