<svg xmlns="http://www.w3.org/2000/svg" width="512" height="512" viewBox="0 0 512 512"><path d="M162.133 64.954 C 143.595 65.328,114.603 66.205,97.707 66.902 C 62.694 68.347,58.799 68.997,46.224 75.492 C 25.855 86.012,12.206 103.946,5.982 128.367 C 4.155 135.540,2.519 157.146,0.875 195.840 C -1.672 255.813,1.288 365.358,5.949 383.573 C 9.439 397.216,13.954 406.424,22.302 416.929 C 31.648 428.691,44.616 437.308,59.487 441.639 C 66.388 443.649,69.371 443.920,96.853 445.037 C 194.661 449.013,320.824 449.008,415.573 445.025 C 446.632 443.719,452.306 442.858,463.085 437.814 C 485.032 427.545,501.836 405.412,506.859 380.160 C 509.206 368.365,511.999 298.777,511.980 252.587 C 511.962 209.770,509.833 152.724,507.632 136.127 C 505.196 117.748,496.321 100.158,483.285 87.872 C 473.161 78.330,463.909 73.095,451.413 69.839 C 434.464 65.421,273.526 62.703,162.133 64.954 M281.933 208.126 C 337.984 246.111,351.467 255.602,350.564 256.437 C 349.610 257.319,216.475 347.611,209.707 351.966 L 207.360 353.476 207.360 255.588 L 207.360 157.699 209.769 159.276 C 211.095 160.144,243.568 182.126,281.933 208.126 " stroke="none" fill-rule="evenodd" fill="black"></path></svg>