<svg xmlns="http://www.w3.org/2000/svg" width="512" height="512" viewBox="0 0 512 512"><path d="M31.785 256.213 L 32.000 480.000 256.000 480.000 L 480.000 480.000 480.215 256.213 L 480.430 32.427 256.000 32.427 L 31.570 32.427 31.785 256.213 M236.167 191.729 C 248.676 218.097,259.148 239.524,259.439 239.344 C 259.729 239.165,269.731 217.499,281.664 191.199 L 303.360 143.380 329.614 143.370 L 355.869 143.360 353.801 147.413 C 352.664 149.643,335.954 181.035,316.667 217.173 L 281.600 282.880 281.600 324.907 L 281.600 366.933 258.560 366.933 L 235.520 366.933 235.520 325.318 L 235.520 283.702 197.120 213.883 C 176.000 175.483,158.720 143.900,158.720 143.700 C 158.720 143.500,171.028 143.438,186.072 143.562 L 213.424 143.787 236.167 191.729 " stroke="none" fill-rule="evenodd" fill="black"></path></svg>