<svg xmlns="http://www.w3.org/2000/svg" width="512" height="512" viewBox="0 0 512 512"><path d="M71.253 83.667 C 21.364 87.569,16.516 88.117,12.200 90.341 C 2.766 95.203,-1.757 105.831,0.848 117.020 C 2.198 122.819,6.755 132.687,58.942 242.843 C 82.494 292.554,102.328 334.571,103.017 336.213 C 108.231 348.626,121.177 356.852,135.444 356.818 C 141.496 356.803,147.362 355.566,178.110 347.818 C 197.718 342.877,218.176 337.672,223.573 336.250 C 228.971 334.828,233.811 333.662,234.329 333.659 C 234.847 333.656,241.915 345.269,250.035 359.467 C 276.722 406.126,283.049 416.303,289.213 422.478 C 298.345 431.628,307.572 433.804,321.805 430.164 C 336.196 426.483,480.337 375.996,489.028 371.592 C 501.091 365.479,505.353 354.933,500.053 344.311 C 498.880 341.959,487.866 326.791,475.577 310.604 C 463.288 294.417,453.188 280.811,453.133 280.368 C 453.078 279.926,461.981 277.198,472.917 274.308 C 498.426 267.564,498.998 267.381,503.021 264.648 C 511.003 259.227,514.006 250.113,510.454 242.084 C 509.499 239.925,506.283 235.356,503.308 231.932 C 500.334 228.508,487.536 213.042,474.870 197.563 C 462.203 182.083,450.413 167.984,448.669 166.232 C 442.085 159.615,435.599 156.805,427.025 156.854 C 421.650 156.885,361.443 166.136,350.720 168.579 C 339.273 171.187,332.456 178.280,332.402 187.643 C 332.384 190.586,332.998 193.858,333.973 196.024 C 334.853 197.977,343.552 210.639,353.306 224.161 C 369.561 246.698,370.886 248.798,369.200 249.360 C 365.351 250.643,260.161 274.952,259.841 274.632 C 259.656 274.447,234.680 233.603,204.339 183.868 C 173.997 134.133,147.731 91.712,145.968 89.600 C 144.135 87.403,140.636 84.665,137.791 83.201 C 133.233 80.856,132.032 80.630,123.370 80.486 C 118.172 80.400,94.720 81.831,71.253 83.667 M160.111 206.329 C 186.454 250.779,207.901 287.268,207.770 287.416 C 207.414 287.820,150.045 301.227,148.674 301.227 C 147.534 301.227,62.045 130.552,62.798 129.780 C 63.190 129.377,103.590 125.692,108.800 125.583 L 112.213 125.512 160.111 206.329 M433.895 216.492 C 440.243 224.331,445.150 230.997,444.799 231.306 C 444.447 231.616,438.676 233.224,431.973 234.880 L 419.786 237.891 408.002 222.412 C 401.520 213.899,396.357 206.765,396.527 206.559 C 396.984 206.008,416.396 202.460,419.603 202.342 C 422.166 202.247,423.132 203.204,433.895 216.492 M419.000 312.764 C 427.910 324.742,435.200 334.842,435.200 335.208 C 435.200 335.574,409.231 344.431,377.491 354.890 C 329.861 370.585,319.597 373.708,318.728 372.767 C 318.149 372.140,310.728 360.013,302.237 345.820 L 286.800 320.013 289.107 319.437 C 290.375 319.120,315.797 312.617,345.600 304.985 C 375.403 297.354,400.465 291.082,401.293 291.048 C 402.302 291.007,408.147 298.176,419.000 312.764 " stroke="none" fill-rule="evenodd" fill="black"></path></svg>