<svg xmlns="http://www.w3.org/2000/svg" width="512" height="512" viewBox="0 0 512 512"><path d="M223.691 65.280 C 227.391 71.839,293.974 184.118,294.511 184.704 C 294.933 185.165,295.230 171.921,295.200 153.984 L 295.146 122.453 263.993 97.280 C 224.082 65.029,223.117 64.264,223.691 65.280 M339.627 162.148 L 339.627 259.443 318.566 259.215 L 297.504 258.987 262.283 201.387 C 242.912 169.707,226.906 143.403,226.715 142.933 C 226.523 142.464,226.174 142.272,225.939 142.507 C 225.704 142.741,225.939 169.142,226.462 201.174 L 227.413 259.415 204.587 259.414 L 181.760 259.413 181.719 195.200 L 181.678 130.987 161.936 114.773 C 151.077 105.856,141.859 98.425,141.452 98.261 C 141.045 98.096,142.023 100.016,143.626 102.527 C 150.250 112.906,154.933 124.962,157.497 138.240 C 159.611 149.183,159.628 172.813,157.531 184.320 C 151.107 219.570,130.348 245.384,100.693 255.000 C 88.944 258.809,88.700 258.828,43.604 259.341 L -0.260 259.840 113.907 353.920 L 228.074 448.000 370.037 448.000 L 512.000 448.000 512.000 326.870 L 512.000 205.739 426.223 135.296 C 379.045 96.553,340.261 64.853,340.036 64.853 C 339.811 64.853,339.627 108.636,339.627 162.148 M44.373 161.707 L 44.373 215.040 59.093 215.027 C 69.049 215.019,75.542 214.607,79.155 213.755 C 94.842 210.057,104.971 199.494,109.838 181.760 C 111.017 177.463,111.356 173.042,111.344 162.133 C 111.329 150.047,111.051 147.091,109.376 141.257 C 105.355 127.251,98.549 118.428,87.677 113.130 C 79.916 109.347,73.798 108.388,57.387 108.380 L 44.373 108.373 44.373 161.707 " stroke="none" fill-rule="evenodd" fill="black"></path></svg>