<svg xmlns="http://www.w3.org/2000/svg" width="512" height="512" viewBox="0 0 512 512"><path d="M234.240 33.658 C 171.261 41.250,115.546 73.014,79.510 121.873 C 58.010 151.022,43.159 189.191,37.892 228.833 C 36.016 242.950,36.033 269.048,37.929 283.733 C 47.809 360.285,91.012 422.137,157.440 454.835 C 192.250 471.969,226.389 479.779,266.240 479.727 C 303.499 479.678,335.995 471.504,368.213 454.075 C 427.267 422.130,464.739 364.262,474.098 290.560 C 476.742 269.739,475.731 231.176,472.168 216.957 L 470.831 211.620 366.615 211.837 L 262.400 212.053 262.400 256.000 L 262.400 299.947 324.480 300.166 C 380.997 300.365,386.560 300.508,386.560 301.764 C 386.560 304.744,380.306 321.607,376.580 328.673 C 354.635 370.293,303.619 397.465,255.147 393.349 C 190.583 387.866,141.292 344.913,127.886 282.453 C 126.250 274.830,125.960 270.884,125.945 256.000 C 125.929 240.952,126.198 237.254,127.868 229.547 C 130.771 216.146,134.199 206.539,140.807 193.280 C 154.682 165.442,173.239 146.600,199.253 133.938 C 217.031 125.286,234.295 120.688,253.013 119.623 C 278.221 118.188,296.144 121.600,317.013 131.809 C 326.927 136.658,335.633 142.138,342.486 147.841 L 346.625 151.286 377.686 120.234 C 394.769 103.156,408.747 88.944,408.747 88.652 C 408.747 87.656,392.125 74.908,382.691 68.667 C 356.163 51.119,326.681 39.655,294.827 34.502 C 283.204 32.622,247.019 32.118,234.240 33.658 " stroke="none" fill-rule="evenodd" fill="black"></path></svg>