<svg xmlns="http://www.w3.org/2000/svg" width="512" height="512" viewBox="0 0 512 512"><path d="M296.769 33.783 C 265.250 38.705,237.810 51.549,213.566 72.729 C 209.449 76.325,179.539 105.881,147.100 138.407 C 90.588 195.071,87.989 197.815,85.008 203.947 C 79.682 214.906,78.320 224.902,80.649 235.947 C 83.096 247.547,85.712 251.371,103.594 269.486 C 112.537 278.545,121.825 287.266,124.233 288.864 C 131.346 293.586,140.708 296.319,149.760 296.316 C 158.871 296.314,163.966 295.229,171.493 291.687 C 176.619 289.275,182.033 284.119,238.933 227.460 C 296.738 169.901,301.156 165.700,306.226 163.479 C 320.986 157.011,337.099 161.506,346.052 174.588 C 352.281 183.691,353.187 195.121,348.523 205.774 C 346.304 210.844,342.136 215.230,284.971 272.640 C 247.735 310.037,222.942 335.583,221.615 337.920 C 213.106 352.908,213.669 373.504,222.969 387.516 C 224.659 390.063,233.455 399.463,242.514 408.406 C 260.629 426.288,264.453 428.904,276.053 431.351 C 287.086 433.677,297.071 432.321,308.053 427.004 C 314.216 424.020,316.784 421.573,377.258 361.072 C 411.800 326.515,442.206 295.509,444.827 292.171 C 467.870 262.821,479.626 229.158,479.661 192.427 C 479.680 172.178,477.334 157.931,470.900 139.237 C 451.560 83.041,402.483 42.763,342.344 33.730 C 331.627 32.121,307.234 32.149,296.769 33.783 M332.923 64.893 C 376.710 69.317,414.788 95.735,434.719 135.521 C 444.741 155.527,449.261 179.900,447.223 202.949 C 444.990 228.213,436.829 249.284,421.224 270.080 C 415.959 277.096,344.307 349.867,342.664 349.867 C 342.160 349.867,331.779 339.892,319.595 327.701 L 297.441 305.536 333.723 269.035 C 355.632 246.993,371.322 230.516,373.331 227.442 C 391.191 200.102,385.449 163.214,360.148 142.741 C 348.339 133.186,336.109 128.832,320.795 128.729 C 310.528 128.660,304.048 129.732,296.167 132.804 C 284.704 137.271,280.290 141.045,242.543 178.640 L 206.472 214.566 184.303 192.409 C 172.110 180.223,162.133 169.840,162.133 169.336 C 162.133 167.693,234.904 96.041,241.920 90.776 C 269.206 70.302,299.939 61.560,332.923 64.893 M171.513 249.683 C 164.712 256.539,157.911 262.685,156.401 263.341 C 152.815 264.898,148.345 264.853,144.399 263.221 C 140.505 261.610,115.792 237.317,113.433 232.781 C 111.449 228.966,111.318 223.786,113.098 219.527 C 113.870 217.680,119.388 211.368,126.518 204.177 L 138.626 191.964 161.253 214.591 L 183.880 237.218 171.513 249.683 M44.447 304.381 C 40.661 305.143,35.904 308.849,34.052 312.479 C 30.251 319.930,32.848 329.416,39.886 333.792 C 43.043 335.755,43.515 335.791,69.973 336.058 C 99.405 336.355,101.354 336.122,106.381 331.708 C 113.172 325.746,113.747 315.884,107.679 309.470 C 102.707 304.215,102.768 304.225,73.387 304.090 C 58.603 304.021,45.580 304.152,44.447 304.381 M297.622 350.955 L 320.032 373.377 307.821 385.484 C 300.632 392.613,294.320 398.130,292.473 398.902 C 288.834 400.423,283.601 400.600,280.162 399.318 C 276.674 398.019,251.037 372.344,249.103 368.213 C 245.192 359.863,247.102 355.854,262.208 340.693 C 268.872 334.005,274.524 328.533,274.768 328.533 C 275.012 328.533,285.297 338.623,297.622 350.955 M117.333 373.690 C 112.674 375.874,77.327 411.463,75.551 415.759 C 71.548 425.445,77.898 436.374,88.203 437.536 C 95.555 438.365,97.135 437.259,117.613 416.963 C 128.092 406.578,137.404 396.655,138.306 394.914 C 141.212 389.306,139.666 380.168,135.129 376.139 C 130.511 372.038,123.050 371.012,117.333 373.690 M185.600 401.408 C 181.934 403.024,178.644 406.632,177.064 410.769 C 175.891 413.840,175.733 418.233,175.955 441.628 C 176.210 468.516,176.242 468.953,178.208 472.114 C 181.002 476.609,186.697 479.770,192.000 479.770 C 197.303 479.770,202.998 476.609,205.792 472.114 C 207.755 468.957,207.791 468.485,208.058 442.027 C 208.240 424.008,208.016 414.087,207.380 411.933 C 206.186 407.895,201.838 402.875,198.227 401.366 C 194.758 399.917,188.941 399.936,185.600 401.408 " stroke="none" fill-rule="evenodd" fill="black"></path></svg>