<svg xmlns="http://www.w3.org/2000/svg" width="512" height="512" viewBox="0 0 512 512"><path d="M311.893 41.837 C 283.594 45.043,256.053 56.769,234.667 74.717 C 225.515 82.397,158.720 149.557,158.720 151.079 C 158.720 152.696,223.638 217.600,225.255 217.600 C 225.917 217.600,242.802 201.350,262.776 181.488 C 297.083 147.375,299.448 145.206,305.493 142.312 C 319.468 135.623,334.003 135.578,347.918 142.181 C 362.836 149.260,373.054 164.232,374.339 180.895 C 375.034 189.910,373.485 197.846,369.340 206.507 C 365.919 213.653,365.341 214.290,330.134 249.651 C 310.480 269.391,294.400 286.084,294.400 286.745 C 294.400 288.362,359.305 353.280,360.921 353.280 C 362.438 353.280,428.723 287.367,436.438 278.187 C 473.171 234.476,480.879 173.169,456.127 121.598 C 438.809 85.514,402.797 55.953,363.994 45.970 C 348.211 41.909,326.476 40.184,311.893 41.837 M115.051 193.493 C 98.561 210.093,97.408 211.460,96.597 215.366 C 95.942 218.522,96.018 220.487,96.911 223.473 C 97.950 226.944,101.119 230.435,123.498 252.760 C 137.473 266.701,149.988 278.509,151.309 279.000 C 154.842 280.314,160.975 280.088,164.096 278.529 C 165.598 277.779,174.411 269.623,183.680 260.404 C 196.670 247.485,200.533 243.151,200.533 241.497 C 200.533 238.353,137.941 175.787,134.796 175.787 C 133.124 175.787,128.686 179.767,115.051 193.493 M41.813 305.147 C 37.294 307.105,34.228 310.518,32.865 315.108 C 31.076 321.131,32.201 325.793,36.584 330.530 C 41.379 335.710,41.682 335.762,68.919 336.058 C 97.816 336.372,101.718 335.889,106.703 331.386 C 110.634 327.834,112.124 323.814,111.586 318.215 C 111.058 312.713,107.798 307.900,103.040 305.597 C 99.464 303.866,98.112 303.788,72.051 303.820 C 49.636 303.848,44.270 304.083,41.813 305.147 M251.596 328.320 C 242.377 337.589,234.221 346.402,233.471 347.904 C 231.912 351.025,231.686 357.158,233.000 360.691 C 234.361 364.350,283.947 413.664,287.416 414.809 C 291.034 416.003,295.218 415.999,298.856 414.798 C 300.803 414.156,307.392 408.158,319.421 396.080 C 333.575 381.867,337.007 377.979,336.555 376.673 C 336.245 375.775,321.738 360.736,304.319 343.253 C 279.422 318.265,272.190 311.467,270.503 311.467 C 268.849 311.467,264.515 315.330,251.596 328.320 M117.333 373.282 C 113.902 374.839,76.268 412.794,75.134 415.842 C 73.984 418.932,73.990 424.188,75.148 427.251 C 77.076 432.355,84.447 437.703,89.600 437.737 C 96.183 437.780,97.973 436.452,117.560 417.003 C 130.078 404.573,137.172 396.872,138.355 394.430 C 142.055 386.786,139.026 377.724,131.405 373.636 C 127.914 371.764,121.059 371.591,117.333 373.282 M183.743 402.366 C 181.783 403.540,179.287 405.937,178.196 407.691 C 176.243 410.832,176.209 411.299,175.956 438.514 L 175.698 466.148 177.853 470.514 C 182.623 480.179,194.458 482.662,202.241 475.631 C 208.109 470.330,208.316 469.003,208.035 438.611 C 207.808 414.080,207.643 411.444,206.141 408.418 C 202.328 400.733,191.395 397.779,183.743 402.366 " stroke="none" fill-rule="evenodd" fill="black"></path></svg>