<svg xmlns="http://www.w3.org/2000/svg" width="512" height="512" viewBox="0 0 512 512"><path d="M305.920 48.302 C 280.782 51.929,263.672 57.649,246.326 68.225 C 232.291 76.782,225.252 83.089,187.309 121.106 L 150.618 157.869 184.525 191.776 L 218.432 225.683 255.349 188.946 C 294.762 149.726,295.762 148.893,307.627 145.430 C 314.314 143.478,326.413 143.483,333.244 145.440 C 347.760 149.600,359.841 160.758,365.042 174.808 C 367.848 182.390,368.510 194.350,366.578 202.570 C 363.471 215.792,362.447 217.062,322.633 257.082 L 286.326 293.577 320.229 327.479 L 354.131 361.381 389.177 326.397 C 408.452 307.156,426.646 288.533,429.606 285.013 C 445.903 265.638,457.186 241.455,461.822 215.962 C 464.327 202.195,464.319 180.276,461.806 166.331 C 451.212 107.552,406.419 62.010,347.707 50.324 C 340.777 48.945,334.470 48.392,323.413 48.197 C 315.200 48.052,307.328 48.099,305.920 48.302 M105.168 203.312 L 82.775 225.717 116.699 259.633 L 150.623 293.549 173.227 270.933 L 195.830 248.318 162.132 214.612 C 143.599 196.074,128.238 180.907,127.998 180.907 C 127.758 180.907,117.484 190.989,105.168 203.312 M31.573 319.573 L 31.573 335.360 71.680 335.360 L 111.787 335.360 111.787 319.573 L 111.787 303.787 71.680 303.787 L 31.573 303.787 31.573 319.573 M240.848 338.992 L 218.455 361.397 252.379 395.313 L 286.303 429.229 308.907 406.613 L 331.510 383.998 297.812 350.292 C 279.279 331.754,263.918 316.587,263.678 316.587 C 263.438 316.587,253.164 326.669,240.848 338.992 M95.352 393.182 L 67.406 421.137 78.933 432.640 L 90.460 444.143 118.614 416.000 L 146.767 387.856 135.475 376.541 C 129.265 370.318,123.984 365.227,123.740 365.227 C 123.496 365.227,110.722 377.806,95.352 393.182 M175.787 439.467 L 175.787 479.573 192.000 479.573 L 208.213 479.573 208.213 439.467 L 208.213 399.360 192.000 399.360 L 175.787 399.360 175.787 439.467 " stroke="none" fill-rule="evenodd" fill="black"></path></svg>