<svg xmlns="http://www.w3.org/2000/svg" width="512" height="512" viewBox="0 0 512 512"><path d="M249.173 64.535 C 248.000 64.762,245.696 65.358,244.053 65.859 C 239.615 67.212,61.751 155.091,56.541 158.505 C 49.907 162.853,41.657 172.220,38.138 179.401 C 31.587 192.770,32.000 184.919,32.000 296.107 C 32.000 375.568,32.227 396.548,33.132 400.640 C 33.755 403.456,35.997 409.365,38.115 413.771 C 44.624 427.312,56.419 437.346,72.107 442.689 L 78.933 445.013 256.000 445.013 L 433.067 445.013 439.893 442.689 C 455.106 437.508,467.242 427.382,473.473 414.670 C 480.460 400.417,480.000 408.749,480.000 296.533 C 480.000 184.867,480.414 192.773,473.862 179.401 C 470.344 172.221,462.094 162.854,455.459 158.504 C 450.494 155.249,274.316 68.086,268.578 66.045 C 264.861 64.723,252.972 63.798,249.173 64.535 M343.157 138.143 C 389.609 161.087,427.626 180.160,427.639 180.528 C 427.652 180.895,388.943 200.354,341.618 223.770 C 266.565 260.906,255.192 266.293,252.587 265.941 C 249.770 265.561,81.032 182.757,81.097 181.788 C 81.114 181.538,119.802 162.243,167.071 138.911 C 227.250 109.206,253.865 96.479,255.856 96.458 C 257.925 96.435,281.685 107.781,343.157 138.143 " stroke="none" fill-rule="evenodd" fill="black"></path></svg>