<svg xmlns="http://www.w3.org/2000/svg" width="512" height="512" viewBox="0 0 512 512"><path d="M40.850 81.925 C 36.411 84.271,33.571 88.049,32.503 93.030 C 31.179 99.203,31.194 412.868,32.519 419.044 C 33.677 424.447,38.074 429.673,42.547 430.964 C 44.690 431.582,111.442 431.783,257.841 431.610 L 470.028 431.360 473.307 428.745 C 475.111 427.307,477.355 424.619,478.293 422.772 C 479.980 419.453,480.003 417.495,480.227 258.560 C 480.387 145.067,480.180 96.385,479.525 93.218 C 478.448 88.019,475.601 84.247,470.967 81.883 C 467.745 80.239,464.466 80.214,255.821 80.251 C 48.666 80.288,43.878 80.325,40.850 81.925 M183.016 195.015 L 256.000 251.790 328.984 195.015 C 369.126 163.789,402.280 138.240,402.661 138.240 C 403.041 138.240,405.207 140.640,407.472 143.573 C 409.738 146.507,414.028 152.040,417.006 155.870 L 422.421 162.832 344.198 223.710 C 301.175 257.192,264.622 285.303,262.969 286.178 C 261.282 287.072,258.224 287.770,256.000 287.770 C 253.776 287.770,250.718 287.072,249.031 286.178 C 247.378 285.303,210.825 257.192,167.802 223.710 L 89.579 162.832 94.994 155.870 C 97.972 152.040,102.262 146.507,104.528 143.573 C 106.793 140.640,108.959 138.240,109.339 138.240 C 109.720 138.240,142.874 163.789,183.016 195.015 " stroke="none" fill-rule="evenodd" fill="black"></path></svg>