<svg xmlns="http://www.w3.org/2000/svg" width="512" height="512" viewBox="0 0 512 512"><path d="M250.265 67.523 C 247.037 67.909,242.019 69.483,237.465 71.538 C 227.766 75.914,61.505 158.102,58.317 160.096 C 46.398 167.551,37.564 179.830,33.522 194.560 C 32.102 199.736,32.000 206.801,32.000 300.373 L 32.000 400.640 33.998 407.040 C 37.180 417.235,40.691 422.990,48.633 431.027 C 54.500 436.964,57.285 439.055,63.147 441.923 C 76.544 448.479,62.276 448.050,258.776 447.799 C 427.860 447.582,434.958 447.511,439.467 445.984 C 449.877 442.459,455.047 439.253,463.041 431.365 C 469.575 424.916,471.380 422.513,474.260 416.427 C 480.335 403.587,480.000 410.390,480.000 299.947 C 480.000 206.784,479.898 199.736,478.478 194.560 C 476.439 187.130,472.797 179.498,468.546 173.742 C 461.309 163.947,457.823 161.840,408.753 137.608 C 260.592 64.445,268.248 68.045,258.987 67.199 C 257.109 67.028,253.184 67.174,250.265 67.523 M343.893 141.215 C 390.123 164.054,428.256 183.041,428.634 183.407 C 429.315 184.067,308.048 276.480,306.502 276.480 C 306.060 276.480,299.043 271.313,290.910 264.998 C 270.501 249.153,265.362 246.634,253.440 246.634 C 241.478 246.634,235.905 249.303,216.747 264.207 C 208.533 270.597,201.364 276.002,200.815 276.218 C 200.083 276.506,84.949 190.571,79.841 185.924 C 79.380 185.504,95.461 177.104,117.814 166.087 C 139.139 155.576,178.475 136.154,205.227 122.925 C 247.356 102.093,254.266 98.928,256.853 99.281 C 258.496 99.505,297.664 118.376,343.893 141.215 M448.000 302.778 C 448.000 382.344,447.826 395.370,446.712 399.122 C 445.004 404.872,439.196 411.302,433.305 413.964 L 428.800 416.000 256.000 416.000 L 83.200 416.000 78.695 413.964 C 72.742 411.274,66.961 404.843,65.272 399.031 C 64.164 395.221,64.021 382.523,64.209 304.530 L 64.427 214.431 119.040 255.676 C 149.077 278.361,173.582 297.154,173.495 297.438 C 173.408 297.722,156.512 311.012,135.948 326.971 C 115.385 342.931,97.716 356.992,96.684 358.220 C 93.931 361.494,92.668 367.602,93.842 371.962 C 96.600 382.205,109.497 387.255,117.895 381.379 C 119.464 380.282,149.163 357.290,183.893 330.287 C 218.624 303.284,248.480 280.474,250.240 279.599 C 253.366 278.045,253.514 278.046,256.640 279.620 C 258.400 280.506,288.640 303.666,323.840 331.086 C 359.040 358.507,389.184 381.655,390.827 382.527 C 395.018 384.752,401.576 384.165,406.118 381.160 C 413.828 376.058,415.442 364.254,409.330 357.674 C 408.305 356.571,390.660 342.594,370.118 326.614 C 349.577 310.633,332.975 297.354,333.225 297.104 C 334.683 295.646,446.834 210.866,447.360 210.824 C 447.712 210.796,448.000 252.176,448.000 302.778 " stroke="none" fill-rule="evenodd" fill="black"></path></svg>