<svg xmlns="http://www.w3.org/2000/svg" width="512" height="512" viewBox="0 0 512 512"><path d="M418.605 65.354 C 399.717 69.580,383.211 82.410,375.139 99.140 C 373.029 103.514,370.640 109.589,369.831 112.640 C 367.800 120.295,367.795 135.934,369.822 143.311 C 376.212 166.575,393.231 183.592,416.476 189.961 C 423.881 191.990,439.548 192.030,447.147 190.038 C 465.649 185.190,482.878 170.755,490.362 153.832 C 498.141 136.244,497.402 115.267,488.398 98.024 C 480.410 82.726,465.236 70.605,448.427 66.093 C 440.982 64.095,425.903 63.721,418.605 65.354 M40.850 81.925 C 36.411 84.271,33.571 88.049,32.503 93.030 C 31.179 99.203,31.194 412.868,32.519 419.044 C 33.677 424.447,38.074 429.673,42.547 430.964 C 44.690 431.582,111.442 431.783,257.841 431.610 L 470.028 431.360 473.307 428.745 C 475.111 427.307,477.355 424.619,478.293 422.772 C 479.968 419.475,480.004 417.489,480.230 315.422 C 480.415 231.634,480.249 211.523,479.377 211.903 C 478.781 212.162,474.837 213.877,470.613 215.714 C 450.119 224.629,428.747 226.251,407.040 220.538 C 397.548 218.041,384.031 211.691,376.672 206.272 L 371.477 202.448 317.969 244.069 C 288.539 266.960,263.292 286.174,261.863 286.766 C 258.209 288.279,252.487 288.009,248.993 286.159 C 247.361 285.294,210.825 257.192,167.802 223.710 L 89.579 162.832 94.994 155.870 C 97.972 152.040,102.262 146.507,104.528 143.573 C 106.793 140.640,108.959 138.240,109.339 138.240 C 109.720 138.240,142.875 163.789,183.018 195.016 L 256.003 251.793 302.295 215.821 C 327.755 196.036,348.923 179.540,349.334 179.161 C 349.748 178.780,348.349 174.935,346.188 170.517 C 333.158 143.880,332.942 112.725,345.610 86.827 L 348.844 80.213 196.396 80.251 C 47.815 80.288,43.868 80.330,40.850 81.925 " stroke="none" fill-rule="evenodd" fill="black"></path></svg>