<svg xmlns="http://www.w3.org/2000/svg" width="512" height="512" viewBox="0 0 512 512"><path d="M78.933 80.761 C 59.617 84.851,45.165 95.810,37.452 112.213 C 31.623 124.609,32.000 114.671,32.000 256.000 C 32.000 375.776,32.093 383.912,33.522 389.120 C 38.123 405.887,48.751 419.008,63.586 426.236 C 75.734 432.155,62.024 431.761,256.000 431.761 C 447.796 431.761,435.851 432.071,447.354 426.805 C 461.994 420.103,472.964 407.223,478.003 390.821 L 479.968 384.427 480.229 261.120 C 480.392 184.023,480.177 135.255,479.653 130.987 C 476.843 108.072,464.019 91.595,442.545 83.309 L 435.627 80.640 258.133 80.520 C 160.512 80.453,79.872 80.562,78.933 80.761 M119.348 145.968 C 120.926 146.930,152.318 171.133,189.108 199.754 L 256.000 251.791 323.200 199.511 C 360.160 170.757,391.744 146.526,393.387 145.666 C 397.588 143.464,404.155 144.060,408.678 147.054 C 415.348 151.467,417.559 160.682,413.628 167.680 C 412.125 170.355,396.028 183.320,339.189 227.638 C 299.302 258.737,265.155 284.989,263.308 285.976 C 259.229 288.155,253.100 288.324,249.308 286.363 C 246.595 284.960,105.857 175.897,101.257 171.633 C 95.608 166.396,94.467 158.373,98.415 151.637 C 102.458 144.738,112.756 141.949,119.348 145.968 " stroke="none" fill-rule="evenodd" fill="black"></path></svg>