<svg xmlns="http://www.w3.org/2000/svg" width="512" height="512" viewBox="0 0 512 512"><path d="M241.493 69.388 C 227.648 75.988,50.675 163.539,42.416 167.874 C 37.844 170.274,36.130 171.748,34.309 174.845 L 32.000 178.773 31.767 304.640 C 31.609 390.496,31.821 431.849,32.434 434.728 C 33.577 440.089,36.804 444.331,41.288 446.367 C 44.688 447.912,51.548 447.963,256.000 447.963 C 460.452 447.963,467.312 447.912,470.712 446.367 C 475.196 444.331,478.423 440.089,479.566 434.728 C 480.179 431.849,480.391 390.496,480.233 304.640 L 480.000 178.773 477.633 174.746 C 474.839 169.994,483.384 174.421,347.839 107.502 C 279.459 73.742,260.063 64.509,256.959 64.240 C 253.505 63.940,251.579 64.580,241.493 69.388 M342.398 140.587 C 389.682 163.936,428.353 183.232,428.333 183.467 C 428.278 184.110,255.459 269.193,253.691 269.447 C 251.942 269.698,81.784 185.847,81.769 184.726 C 81.760 184.106,254.735 98.133,255.991 98.133 C 256.230 98.133,295.113 117.237,342.398 140.587 " stroke="none" fill-rule="evenodd" fill="black"></path></svg>