<svg xmlns="http://www.w3.org/2000/svg" width="512" height="512" viewBox="0 0 512 512"><path d="M419.840 65.238 C 406.166 68.170,396.963 73.183,386.914 83.173 C 380.348 89.700,378.552 92.121,375.186 98.987 C 366.604 116.485,365.614 132.631,372.041 150.278 C 383.113 180.680,417.046 198.251,448.427 189.832 C 476.186 182.385,495.787 156.794,495.787 128.000 C 495.787 99.163,476.231 73.620,448.427 66.139 C 441.284 64.217,426.737 63.759,419.840 65.238 M78.933 80.767 C 59.744 84.763,45.161 95.818,37.452 112.213 C 31.623 124.609,32.000 114.671,32.000 256.000 C 32.000 375.776,32.093 383.912,33.522 389.120 C 38.123 405.887,48.751 419.008,63.586 426.236 C 75.734 432.155,62.024 431.761,256.000 431.761 C 447.796 431.761,435.851 432.071,447.354 426.805 C 462.001 420.100,472.990 407.194,477.993 390.821 L 479.947 384.427 480.221 298.027 C 480.372 250.507,480.277 211.627,480.010 211.627 C 479.743 211.627,477.328 212.729,474.642 214.076 C 452.449 225.207,424.957 227.006,401.088 218.887 C 393.703 216.376,381.011 209.855,375.877 205.935 C 373.724 204.291,371.456 203.140,370.838 203.377 C 370.220 203.614,346.249 222.065,317.570 244.379 C 288.892 266.692,264.199 285.583,262.699 286.359 C 259.204 288.166,252.799 288.168,249.308 286.363 C 246.595 284.960,105.857 175.897,101.257 171.633 C 95.601 166.389,94.467 158.374,98.426 151.618 C 102.451 144.750,112.776 141.961,119.348 145.968 C 120.926 146.930,152.318 171.134,189.110 199.755 L 256.003 251.793 302.295 215.821 C 327.755 196.036,348.904 179.558,349.293 179.202 C 349.681 178.847,348.049 174.564,345.666 169.684 C 339.548 157.159,337.015 146.742,336.463 131.840 C 335.823 114.564,338.815 99.728,345.709 85.998 C 347.057 83.312,348.160 80.912,348.160 80.664 C 348.160 80.138,81.467 80.239,78.933 80.767 " stroke="none" fill-rule="evenodd" fill="black"></path></svg>