<svg xmlns="http://www.w3.org/2000/svg" width="512" height="512" viewBox="0 0 512 512"><path d="M423.253 64.783 C 395.431 68.727,373.868 89.825,368.991 117.872 C 366.665 131.251,368.633 143.597,375.229 157.013 C 378.585 163.840,380.435 166.338,386.941 172.834 C 395.470 181.351,403.084 185.939,414.720 189.574 C 423.009 192.164,439.343 192.366,448.000 189.987 C 461.440 186.293,474.249 177.754,482.339 167.095 C 487.966 159.682,490.652 154.515,493.357 145.898 C 496.248 136.692,496.256 119.367,493.374 110.080 C 489.638 98.043,482.424 87.121,472.914 79.102 C 467.255 74.330,454.865 67.972,447.700 66.162 C 441.454 64.585,429.433 63.907,423.253 64.783 M75.093 81.545 C 63.923 83.952,51.048 92.214,43.778 101.640 C 39.342 107.391,35.603 114.862,33.568 122.041 C 32.078 127.300,32.000 133.929,32.000 256.000 C 32.000 378.071,32.078 384.700,33.568 389.959 C 36.945 401.870,43.530 411.915,52.894 419.436 C 59.856 425.028,65.773 428.024,74.032 430.136 C 80.311 431.742,85.231 431.786,255.497 431.774 C 449.505 431.760,435.480 432.174,447.799 426.096 C 455.026 422.531,464.527 414.130,469.264 407.117 C 473.157 401.354,476.544 393.046,477.796 386.190 C 478.412 382.812,478.720 357.022,478.720 308.723 C 478.720 245.302,478.556 235.926,477.399 233.158 C 474.693 226.679,469.917 223.454,462.940 223.391 C 456.936 223.337,451.998 226.116,448.983 231.244 L 446.720 235.093 446.293 309.333 C 445.868 383.414,445.863 383.581,444.021 386.987 C 441.680 391.319,437.544 395.245,432.640 397.792 L 428.800 399.787 255.573 399.787 L 82.347 399.787 78.430 397.975 C 73.711 395.792,68.966 391.215,66.352 386.324 L 64.427 382.720 64.427 256.000 L 64.427 129.280 66.352 125.676 C 68.966 120.785,73.711 116.208,78.430 114.025 L 82.347 112.213 203.947 111.787 C 294.208 111.470,325.987 111.104,327.253 110.367 C 331.949 107.634,336.233 100.662,336.195 95.814 C 336.152 90.425,330.915 83.090,325.704 81.121 C 324.045 80.494,285.780 80.234,201.971 80.281 C 101.328 80.337,79.694 80.553,75.093 81.545 M105.387 145.631 C 99.136 148.927,96.183 153.537,96.183 160.000 C 96.183 164.854,97.703 168.338,101.257 171.633 C 105.857 175.897,246.595 284.960,249.308 286.363 C 252.824 288.181,259.212 288.163,262.767 286.324 C 267.080 284.094,353.460 218.715,355.574 216.081 C 361.909 208.186,358.878 196.169,349.475 191.897 C 344.836 189.790,340.680 189.898,336.145 192.243 C 334.070 193.316,317.397 205.529,299.093 219.382 C 280.789 233.236,263.627 246.212,260.955 248.218 L 256.096 251.866 188.848 199.548 C 151.862 170.773,120.271 146.552,118.646 145.722 C 115.015 143.867,108.813 143.825,105.387 145.631 " stroke="none" fill-rule="evenodd" fill="black"></path></svg>