<svg xmlns="http://www.w3.org/2000/svg" width="512" height="512" viewBox="0 0 512 512"><path d="M75.093 81.545 C 63.923 83.952,51.048 92.214,43.778 101.640 C 39.342 107.391,35.603 114.862,33.568 122.041 C 32.078 127.300,32.000 133.929,32.000 256.000 C 32.000 378.071,32.078 384.700,33.568 389.959 C 36.945 401.870,43.530 411.915,52.894 419.436 C 59.856 425.028,65.773 428.024,74.032 430.136 C 80.311 431.742,85.258 431.787,256.000 431.787 C 427.993 431.787,431.646 431.753,438.105 430.101 C 457.461 425.151,472.778 409.904,478.432 389.959 C 479.922 384.700,480.000 378.071,480.000 256.000 C 480.000 133.929,479.922 127.300,478.432 122.041 C 472.650 101.646,456.054 85.607,436.480 81.497 C 427.737 79.662,83.619 79.707,75.093 81.545 M433.570 114.025 C 438.567 116.336,443.450 121.219,445.762 126.217 L 447.573 130.133 447.573 256.000 L 447.573 381.867 445.762 385.783 C 443.450 390.781,438.567 395.664,433.570 397.975 L 429.653 399.787 256.000 399.787 L 82.347 399.787 78.430 397.975 C 73.711 395.792,68.966 391.215,66.352 386.324 L 64.427 382.720 64.427 256.000 L 64.427 129.280 66.352 125.676 C 70.059 118.739,76.060 114.066,83.052 112.672 C 85.011 112.281,163.797 112.018,258.133 112.087 L 429.653 112.213 433.570 114.025 M105.387 145.631 C 99.136 148.927,96.183 153.537,96.183 160.000 C 96.183 164.854,97.703 168.338,101.257 171.633 C 105.857 175.897,246.595 284.960,249.308 286.363 C 252.796 288.167,259.204 288.167,262.692 286.363 C 265.405 284.960,406.143 175.897,410.743 171.633 C 412.075 170.397,413.762 168.244,414.491 166.847 C 416.193 163.587,416.195 156.421,414.496 153.153 C 410.512 145.490,400.617 142.012,393.354 145.722 C 391.729 146.552,360.160 170.757,323.200 199.511 L 256.000 251.791 188.800 199.511 C 151.840 170.757,120.271 146.552,118.646 145.722 C 115.015 143.867,108.813 143.825,105.387 145.631 " stroke="none" fill="black" fill-rule="evenodd"></path></svg>