<svg xmlns="http://www.w3.org/2000/svg" width="512" height="512" viewBox="0 0 512 512"><path d="M330.240 37.973 L 330.240 59.733 351.779 59.733 L 373.319 59.733 354.625 78.442 L 335.931 97.150 330.069 90.874 C 309.184 68.511,277.581 51.164,246.936 45.244 C 154.775 27.439,69.058 90.843,58.777 184.424 C 57.620 194.954,58.265 215.939,60.045 225.707 C 65.087 253.361,76.055 277.925,92.433 298.240 C 99.242 306.687,113.641 320.692,121.596 326.607 C 137.587 338.496,158.611 348.428,177.920 353.213 C 183.552 354.608,189.312 355.867,190.720 356.009 L 193.280 356.267 193.510 375.253 L 193.739 394.240 168.976 394.240 L 144.213 394.240 144.213 416.000 L 144.213 437.760 168.960 437.760 L 193.707 437.760 193.707 466.773 L 193.707 495.787 215.893 495.787 L 238.080 495.787 238.080 466.773 L 238.080 437.760 263.253 437.760 L 288.427 437.760 288.427 416.000 L 288.427 394.240 263.253 394.240 L 238.080 394.240 238.080 375.483 L 238.080 356.726 240.000 356.341 C 271.048 350.120,291.837 341.045,313.129 324.419 C 345.314 299.287,366.709 262.303,372.456 221.863 C 374.107 210.247,374.106 190.270,372.453 178.425 C 370.946 167.619,366.533 150.915,362.738 141.653 L 360.116 135.253 381.871 113.495 L 403.627 91.737 403.627 112.855 L 403.627 133.973 425.813 133.973 L 448.000 133.973 448.000 75.093 L 448.000 16.213 389.120 16.213 L 330.240 16.213 330.240 37.973 M232.960 87.428 C 269.123 92.920,300.472 115.393,316.937 147.627 C 322.379 158.280,325.362 166.336,327.249 175.468 C 335.228 214.093,323.752 253.267,296.532 280.320 C 275.355 301.368,249.498 312.629,219.733 313.766 C 200.563 314.499,183.901 310.895,165.939 302.129 C 132.930 286.022,109.863 255.210,103.691 218.982 C 102.030 209.231,102.044 191.253,103.721 180.907 C 111.407 133.479,150.408 94.973,198.400 87.429 C 207.790 85.953,223.243 85.952,232.960 87.428 " stroke="none" fill-rule="evenodd" fill="black"></path></svg>