<svg xmlns="http://www.w3.org/2000/svg" width="512" height="512" viewBox="0 0 512 512"><path d="M347.066 48.702 C 342.099 49.897,339.272 51.652,335.608 55.814 C 326.128 66.584,329.455 82.763,342.613 89.886 C 345.779 91.599,347.560 91.764,367.154 92.160 L 388.281 92.587 358.407 122.449 C 335.463 145.384,328.261 152.114,327.358 151.462 C 312.155 140.477,292.366 130.074,277.136 125.060 C 241.638 113.375,202.893 113.380,167.347 125.077 C 148.024 131.435,128.900 141.734,113.295 154.185 C 81.855 179.271,59.594 215.751,51.688 255.147 C 45.482 286.070,47.219 314.703,57.124 344.747 C 63.180 363.114,72.597 380.967,84.356 396.373 C 89.856 403.580,105.049 419.063,112.640 425.197 C 152.112 457.093,204.778 470.307,254.293 460.738 C 277.506 456.252,298.080 447.974,317.296 435.390 C 379.892 394.398,409.202 317.726,389.976 245.264 C 385.032 226.630,377.191 209.325,366.292 192.993 L 359.836 183.320 389.625 153.519 L 419.413 123.719 419.840 144.846 C 420.236 164.440,420.401 166.221,422.114 169.387 C 427.576 179.476,438.296 183.961,449.181 180.711 C 454.552 179.107,461.163 172.216,462.853 166.458 C 464.809 159.794,464.900 70.026,462.958 63.515 C 461.322 58.033,457.806 53.881,452.143 50.745 L 447.573 48.213 398.933 48.069 C 372.068 47.989,348.848 48.273,347.066 48.702 M241.493 161.678 C 281.266 167.767,315.185 191.197,335.217 226.417 C 346.274 245.857,351.573 266.632,351.573 290.537 C 351.573 356.031,303.417 410.355,237.653 419.049 C 227.203 420.430,206.739 419.580,196.131 417.323 C 149.999 407.510,113.701 375.338,98.952 331.189 C 93.860 315.946,92.624 307.690,92.679 289.280 C 92.718 276.346,93.069 271.874,94.624 264.533 C 103.257 223.778,129.270 190.334,165.973 172.805 C 177.380 167.357,193.337 162.666,206.080 161.014 C 212.759 160.149,234.119 160.549,241.493 161.678 " stroke="none" fill-rule="evenodd" fill="black"></path></svg>