<svg xmlns="http://www.w3.org/2000/svg" width="512" height="512" viewBox="0 0 512 512"><path d="M344.579 17.955 C 342.844 18.871,340.348 21.032,339.032 22.757 C 336.921 25.526,336.640 26.619,336.640 32.068 C 336.640 37.667,336.880 38.538,339.221 41.431 C 344.248 47.642,344.951 47.787,370.120 47.787 C 382.447 47.787,392.533 48.077,392.533 48.431 C 392.533 49.296,335.506 106.271,335.138 105.775 C 331.882 101.394,322.903 91.989,316.660 86.420 C 281.621 55.169,232.256 41.852,186.027 51.179 C 123.272 63.841,75.988 113.599,65.587 177.920 C 64.163 186.727,64.162 213.479,65.586 222.293 C 73.125 268.978,100.803 309.249,141.146 332.229 C 155.801 340.578,179.670 348.677,194.594 350.365 L 199.680 350.940 199.680 375.577 L 199.680 400.213 177.886 400.213 C 153.313 400.213,151.775 400.539,147.036 406.752 C 144.920 409.526,144.640 410.616,144.640 416.068 C 144.640 421.667,144.880 422.538,147.221 425.431 C 152.236 431.627,153.001 431.787,177.693 431.787 L 199.680 431.787 199.685 456.320 C 199.688 470.806,200.056 482.173,200.585 484.077 C 201.698 488.087,206.019 493.110,209.666 494.634 C 216.433 497.461,225.000 494.904,229.238 488.792 L 231.680 485.270 231.938 458.528 L 232.197 431.787 253.939 431.787 C 270.503 431.787,276.336 431.507,278.427 430.612 C 284.936 427.827,288.980 419.718,287.396 412.628 C 286.411 408.217,284.965 406.034,281.046 403.043 L 277.897 400.640 255.002 400.387 L 232.107 400.135 232.107 375.527 L 232.107 350.919 237.867 350.308 C 250.065 349.013,270.772 342.529,284.033 335.851 C 323.367 316.043,352.918 279.165,363.406 236.800 C 370.920 206.449,368.843 174.094,357.516 145.067 C 355.593 140.139,353.840 135.531,353.620 134.827 C 353.361 133.999,364.232 122.546,384.397 102.404 L 415.573 71.262 415.573 91.056 C 415.573 112.754,416.283 118.151,419.667 122.173 C 423.989 127.308,432.083 129.361,438.001 126.822 C 441.347 125.386,445.866 120.749,447.094 117.491 C 447.690 115.912,448.000 100.185,448.000 71.582 C 448.000 33.163,447.838 27.756,446.617 25.344 C 444.653 21.466,442.909 19.678,439.287 17.829 C 436.298 16.304,433.652 16.215,391.927 16.251 C 349.780 16.287,347.587 16.366,344.579 17.955 M233.387 81.466 C 288.565 89.365,331.172 134.967,335.264 190.506 C 339.516 248.203,304.123 299.235,248.720 315.290 C 182.349 334.524,113.547 292.893,98.554 224.427 C 96.425 214.705,95.908 192.596,97.564 182.156 C 103.832 142.652,127.666 110.145,163.413 92.345 C 174.725 86.712,188.632 82.622,202.667 80.801 C 208.927 79.989,225.587 80.350,233.387 81.466 " stroke="none" fill="black" fill-rule="evenodd"></path></svg>