<svg xmlns="http://www.w3.org/2000/svg" width="512" height="512" viewBox="0 0 512 512"><path d="M350.293 48.206 C 349.824 48.363,348.391 48.722,347.109 49.004 C 345.827 49.287,343.370 50.754,341.649 52.266 C 332.700 60.122,334.917 73.452,346.027 78.596 C 349.141 80.037,352.057 80.177,379.303 80.195 L 409.167 80.213 366.127 123.260 L 323.086 166.307 319.623 163.695 C 301.211 149.808,280.284 139.377,260.073 134.014 C 218.942 123.100,177.809 127.384,139.947 146.525 C 107.303 163.028,82.560 187.856,66.138 220.587 C 50.113 252.525,44.498 287.626,49.957 321.743 C 65.197 416.991,156.101 479.921,250.249 460.398 C 293.893 451.348,332.525 424.892,356.968 387.318 C 370.923 365.865,380.419 338.885,383.215 312.747 C 384.415 301.521,383.785 280.192,381.928 269.227 C 377.199 241.294,366.031 215.653,348.642 192.808 L 345.685 188.922 388.736 145.878 L 431.787 102.833 431.805 132.697 C 431.823 159.943,431.963 162.859,433.404 165.973 C 439.518 179.177,456.482 179.177,462.596 165.973 C 464.077 162.774,464.177 159.391,464.195 111.973 C 464.211 68.214,464.035 60.958,462.893 58.224 C 461.131 54.008,458.531 51.306,454.400 49.400 C 451.201 47.923,447.857 47.827,401.067 47.873 C 373.611 47.900,350.763 48.049,350.293 48.206 M235.947 161.638 C 286.502 169.410,328.056 204.041,344.564 252.160 C 349.902 267.719,351.103 275.787,351.103 296.107 C 351.103 312.045,350.846 315.630,349.150 323.413 C 335.214 387.357,280.606 431.756,215.893 431.756 C 179.310 431.756,145.902 417.907,119.998 392.002 C 94.333 366.338,80.247 332.355,80.247 296.107 C 80.247 228.982,128.103 172.978,195.073 161.733 C 204.085 160.220,226.385 160.168,235.947 161.638 " stroke="none" fill="black" fill-rule="evenodd"></path></svg>