<svg xmlns="http://www.w3.org/2000/svg" width="512" height="512" viewBox="0 0 512 512"><path d="M344.429 17.454 C 336.036 20.476,330.226 28.841,330.259 37.857 C 330.291 46.955,334.632 53.926,342.613 57.700 C 346.524 59.548,347.984 59.717,360.099 59.725 L 373.319 59.733 354.625 78.442 L 335.931 97.150 330.069 90.874 C 309.184 68.511,277.581 51.164,246.936 45.244 C 154.775 27.439,69.058 90.843,58.777 184.424 C 57.620 194.954,58.265 215.939,60.045 225.707 C 65.087 253.361,76.055 277.925,92.433 298.240 C 99.242 306.687,113.641 320.692,121.596 326.607 C 137.587 338.496,158.611 348.428,177.920 353.213 C 183.552 354.608,189.312 355.867,190.720 356.009 L 193.280 356.267 193.510 375.253 L 193.739 394.240 177.296 394.259 C 159.393 394.279,157.159 394.745,151.320 399.675 C 141.985 407.555,141.985 424.445,151.320 432.325 C 157.158 437.254,159.395 437.721,177.280 437.741 L 193.707 437.760 193.707 456.805 C 193.707 480.257,194.321 483.068,200.827 489.405 C 211.746 500.038,228.445 497.202,235.797 483.467 C 237.535 480.221,237.670 478.654,237.921 458.880 L 238.188 437.760 254.561 437.752 C 269.910 437.744,271.200 437.619,275.206 435.754 C 283.119 432.069,287.788 424.738,287.788 416.000 C 287.788 407.262,283.119 399.931,275.206 396.246 C 271.199 394.380,269.912 394.256,254.507 394.248 L 238.080 394.240 238.080 375.483 L 238.080 356.726 240.000 356.341 C 271.048 350.120,291.837 341.045,313.129 324.419 C 345.314 299.287,366.709 262.303,372.456 221.863 C 374.107 210.247,374.106 190.270,372.453 178.425 C 370.947 167.624,366.535 150.920,362.740 141.653 L 360.119 135.253 381.660 113.696 L 403.200 92.138 403.713 104.736 C 404.259 118.169,405.047 121.234,409.232 126.207 C 414.854 132.889,425.283 135.711,433.192 132.691 C 438.080 130.824,443.244 126.275,445.715 121.658 C 447.553 118.224,447.573 117.726,447.573 75.093 C 447.573 34.185,447.490 31.831,445.921 28.669 C 443.813 24.422,439.791 20.400,435.544 18.293 C 432.402 16.733,429.826 16.629,389.973 16.452 C 355.636 16.299,347.115 16.487,344.429 17.454 M232.960 87.428 C 269.123 92.920,300.472 115.393,316.937 147.627 C 322.379 158.280,325.362 166.336,327.249 175.468 C 335.228 214.093,323.752 253.267,296.532 280.320 C 275.355 301.368,249.498 312.629,219.733 313.766 C 200.563 314.499,183.901 310.895,165.939 302.129 C 132.930 286.022,109.863 255.210,103.691 218.982 C 102.030 209.231,102.044 191.253,103.721 180.907 C 111.407 133.479,150.408 94.973,198.400 87.429 C 207.790 85.953,223.243 85.952,232.960 87.428 " stroke="none" fill-rule="evenodd" fill="black"></path></svg>