<svg xmlns="http://www.w3.org/2000/svg" width="512" height="512" viewBox="0 0 512 512"><path d="M243.627 1.345 C 223.914 5.698,207.206 21.842,201.726 41.828 C 199.335 50.552,199.712 64.247,202.588 73.143 C 210.010 96.094,231.700 111.787,256.000 111.787 C 280.299 111.787,301.979 96.102,309.415 73.143 C 312.271 64.325,312.638 50.642,310.253 41.828 C 305.265 23.385,290.681 8.161,272.640 2.563 C 264.708 0.102,251.724 -0.443,243.627 1.345 M267.674 35.230 C 272.175 38.085,275.234 41.301,277.590 45.653 C 279.040 48.334,279.440 50.533,279.452 55.893 C 279.465 61.966,279.174 63.238,276.819 67.413 C 275.363 69.995,272.554 73.351,270.576 74.873 C 255.609 86.384,234.034 76.913,232.344 58.088 C 231.549 49.235,235.558 40.889,242.830 36.259 C 248.348 32.744,249.490 32.466,257.280 32.733 C 262.956 32.928,264.708 33.349,267.674 35.230 M196.918 128.859 C 178.655 132.034,161.408 144.389,151.661 161.280 C 150.442 163.392,148.364 168.192,147.042 171.947 L 144.640 178.773 144.640 234.667 L 144.640 290.560 147.393 296.373 C 154.604 311.598,169.760 320.774,186.162 319.847 L 192.000 319.518 192.000 398.513 C 192.000 466.927,192.176 478.189,193.316 482.594 C 196.682 495.599,208.366 507.280,221.406 510.676 C 231.496 513.303,242.092 512.017,251.259 507.052 L 256.000 504.484 260.741 507.052 C 269.908 512.017,280.504 513.303,290.594 510.676 C 303.634 507.280,315.318 495.599,318.684 482.594 C 319.824 478.189,320.000 466.927,320.000 398.513 L 320.000 319.518 325.838 319.847 C 342.240 320.774,357.396 311.598,364.607 296.373 L 367.360 290.560 367.360 234.667 L 367.360 178.773 364.958 171.947 C 357.923 151.956,342.820 137.322,322.133 130.451 L 316.160 128.467 258.560 128.312 C 226.880 128.227,199.141 128.473,196.918 128.859 M317.442 163.056 C 323.119 165.719,329.575 171.972,332.396 177.538 C 335.945 184.542,336.291 190.326,336.031 238.275 L 335.787 283.269 333.581 285.474 C 330.150 288.904,323.087 288.212,321.112 284.253 C 320.735 283.498,320.235 261.123,320.000 234.532 L 319.573 186.183 316.923 182.905 C 313.047 178.111,309.552 176.356,303.886 176.356 C 297.777 176.356,292.723 179.318,289.938 184.533 L 288.000 188.160 287.573 331.947 C 287.338 411.192,286.813 476.250,286.404 476.884 C 284.007 480.601,276.617 480.551,273.729 476.799 C 272.356 475.016,272.249 469.876,272.214 404.053 C 272.178 337.041,272.091 333.043,270.600 329.813 C 268.694 325.682,265.992 323.083,261.776 321.321 C 253.927 318.041,245.143 321.703,241.400 329.813 C 239.909 333.043,239.822 337.041,239.786 404.053 C 239.751 469.876,239.644 475.016,238.271 476.799 C 235.383 480.551,227.993 480.601,225.596 476.884 C 225.187 476.250,224.662 411.192,224.427 331.947 L 224.000 188.160 221.876 184.450 C 218.948 179.335,213.555 176.253,207.681 176.338 C 202.403 176.414,198.813 178.284,195.077 182.905 L 192.427 186.183 192.000 234.532 C 191.765 261.123,191.265 283.498,190.888 284.253 C 188.913 288.212,181.850 288.904,178.419 285.474 L 176.213 283.269 175.969 238.275 C 175.813 209.617,176.053 191.163,176.628 187.449 C 178.439 175.753,185.342 166.903,196.133 162.443 L 200.960 160.448 256.853 160.651 L 312.747 160.853 317.442 163.056 " stroke="none" fill-rule="evenodd" fill="black"></path></svg>