<svg xmlns="http://www.w3.org/2000/svg" width="512" height="512" viewBox="0 0 512 512"><path d="M245.870 0.961 C 235.781 2.637,224.386 8.744,216.410 16.749 C 205.935 27.262,200.401 40.384,200.258 55.040 C 200.155 65.599,201.340 70.735,206.238 80.971 C 212.501 94.056,223.491 103.709,238.221 109.062 C 243.841 111.105,245.656 111.337,256.000 111.337 C 266.344 111.337,268.159 111.105,273.779 109.062 C 282.785 105.789,288.800 101.960,295.789 95.051 C 300.732 90.164,302.674 87.421,305.762 80.971 C 310.660 70.735,311.845 65.599,311.742 55.040 C 311.409 20.789,280.292 -4.758,245.870 0.961 M168.743 128.916 C 159.694 131.077,151.330 137.841,147.131 146.393 L 144.640 151.467 144.410 235.733 L 144.181 320.000 168.090 320.000 L 192.000 320.000 192.000 256.000 L 192.000 192.000 195.840 192.000 L 199.680 192.000 199.680 352.000 L 199.680 512.000 225.707 512.000 L 251.733 512.000 251.733 420.267 L 251.733 328.533 256.000 328.533 L 260.267 328.533 260.267 420.267 L 260.267 512.000 286.293 512.000 L 312.320 512.000 312.320 352.000 L 312.320 192.000 316.160 192.000 L 320.000 192.000 320.000 256.000 L 320.000 320.000 343.910 320.000 L 367.819 320.000 367.590 235.733 L 367.360 151.467 364.869 146.393 C 361.579 139.692,356.198 134.458,349.185 131.135 L 343.467 128.427 257.707 128.289 C 209.539 128.212,170.542 128.487,168.743 128.916 " stroke="none" fill-rule="evenodd" fill="black"></path></svg>