<svg xmlns="http://www.w3.org/2000/svg" width="512" height="512" viewBox="0 0 512 512"><path d="M245.870 0.961 C 235.781 2.637,224.386 8.744,216.410 16.749 C 205.935 27.262,200.401 40.384,200.258 55.040 C 200.155 65.599,201.340 70.735,206.238 80.971 C 212.501 94.056,223.491 103.709,238.221 109.062 C 243.841 111.105,245.656 111.337,256.000 111.337 C 266.344 111.337,268.159 111.105,273.779 109.062 C 282.785 105.789,288.800 101.960,295.789 95.051 C 300.732 90.164,302.674 87.421,305.762 80.971 C 310.660 70.735,311.845 65.599,311.742 55.040 C 311.409 20.789,280.292 -4.758,245.870 0.961 M200.107 128.514 C 199.168 128.710,196.353 129.285,193.852 129.791 C 172.390 134.139,153.534 151.822,146.626 174.080 L 144.640 180.480 144.640 243.267 L 144.640 306.053 147.223 310.231 C 153.984 321.168,169.115 323.152,177.669 314.224 C 184.272 307.331,183.844 311.428,184.320 250.592 L 184.747 196.118 187.141 194.059 C 190.201 191.427,193.799 191.428,196.859 194.059 L 199.253 196.119 199.680 345.313 C 200.156 511.734,199.556 496.986,206.152 504.288 C 216.733 515.999,234.886 513.986,242.988 500.204 L 245.333 496.213 245.760 419.840 C 246.088 361.161,246.433 343.037,247.248 341.613 C 250.137 336.566,256.289 334.775,261.058 337.593 C 266.062 340.549,265.777 336.041,266.240 419.413 L 266.667 496.213 269.012 500.204 C 276.984 513.765,295.053 515.974,305.479 504.664 C 312.505 497.041,311.842 512.496,312.320 345.313 L 312.747 196.119 315.141 194.059 C 318.452 191.211,322.059 191.367,325.186 194.494 L 327.680 196.989 327.680 248.953 C 327.680 308.660,327.552 307.418,334.383 314.043 C 340.764 320.232,348.496 321.615,356.327 317.968 C 361.430 315.592,365.523 310.970,366.889 306.043 C 367.597 303.489,367.797 285.437,367.608 241.067 L 367.347 179.627 365.361 173.653 C 359.244 155.251,346.120 140.625,329.338 133.509 C 317.052 128.299,320.253 128.533,258.560 128.338 C 227.349 128.239,201.045 128.318,200.107 128.514 " stroke="none" fill-rule="evenodd" fill="black"></path></svg>