<svg xmlns="http://www.w3.org/2000/svg" width="512" height="512" viewBox="0 0 512 512"><path d="M176.065 32.838 C 172.698 33.449,167.898 34.900,165.398 36.064 C 158.857 39.108,45.501 115.308,41.171 119.571 C 36.695 123.980,33.509 130.323,32.414 137.004 C 31.231 144.231,31.295 434.683,32.481 441.998 C 34.228 452.764,41.205 462.021,51.051 466.636 C 55.230 468.596,57.004 468.907,64.000 468.906 C 70.445 468.906,72.894 468.538,75.947 467.114 C 78.059 466.129,102.054 450.793,129.270 433.035 C 175.393 402.939,179.048 400.722,183.104 400.386 C 186.105 400.137,188.316 400.471,190.234 401.462 C 191.762 402.253,217.940 419.165,248.407 439.045 C 280.936 460.270,305.806 475.939,308.658 477.007 C 311.329 478.006,316.629 479.205,320.436 479.670 C 328.441 480.649,336.693 479.335,344.244 475.878 C 351.189 472.698,465.824 397.080,470.438 392.635 C 475.415 387.840,478.369 381.990,479.536 374.613 C 480.763 366.863,480.746 77.568,479.519 70.002 C 477.771 59.231,470.785 49.965,460.949 45.372 C 456.757 43.415,455.017 43.115,448.000 43.139 C 442.220 43.159,438.930 43.591,436.535 44.646 C 434.688 45.459,410.688 60.803,383.202 78.743 L 333.227 111.360 327.672 111.360 L 322.117 111.360 264.485 74.482 C 232.787 54.199,204.995 36.782,202.724 35.777 C 198.782 34.034,187.506 31.580,183.893 31.680 C 182.955 31.706,179.432 32.227,176.065 32.838 M254.720 106.233 C 282.411 123.962,306.699 139.170,308.693 140.030 L 312.320 141.593 312.320 291.810 C 312.320 374.429,312.144 442.027,311.929 442.027 C 311.714 442.027,288.263 426.841,259.816 408.280 C 231.370 389.719,206.393 373.707,204.314 372.697 L 200.533 370.860 200.533 221.172 L 200.533 71.484 202.453 72.741 C 203.509 73.432,227.029 88.503,254.720 106.233 M168.107 221.697 L 168.107 370.860 164.053 372.828 C 161.824 373.910,138.574 388.770,112.387 405.851 C 86.200 422.932,64.600 436.907,64.387 436.907 C 64.174 436.907,64.000 370.495,64.000 289.326 L 64.000 141.746 115.413 107.186 C 143.691 88.178,167.115 72.606,167.467 72.580 C 167.819 72.554,168.107 139.657,168.107 221.697 M448.000 222.635 L 448.000 370.176 397.013 403.689 C 368.971 422.121,345.547 437.567,344.960 438.012 C 344.108 438.660,343.893 408.914,343.893 289.963 L 343.893 141.104 347.947 139.234 C 350.176 138.205,373.312 123.389,399.360 106.309 C 425.408 89.229,447.008 75.218,447.360 75.174 C 447.712 75.130,448.000 141.487,448.000 222.635 " stroke="none" fill-rule="evenodd" fill="black"></path></svg>