<svg xmlns="http://www.w3.org/2000/svg" width="512" height="512" viewBox="0 0 512 512"><path d="M403.664 81.580 C 339.883 123.063,327.912 130.550,326.438 129.871 C 325.478 129.430,293.059 108.824,254.396 84.081 L 184.098 39.094 175.889 44.673 C 171.374 47.741,137.152 71.352,99.840 97.141 L 32.000 144.030 31.785 311.894 C 31.612 446.084,31.783 479.675,32.638 479.346 C 33.226 479.119,67.485 456.988,108.769 430.166 C 150.053 403.343,184.337 381.591,184.956 381.829 C 185.574 382.066,217.959 402.654,256.921 427.579 C 295.884 452.504,328.224 472.688,328.788 472.431 C 329.352 472.175,363.605 448.579,404.907 419.997 L 480.000 368.028 480.215 200.228 C 480.334 107.937,480.142 32.440,479.789 32.457 C 479.436 32.473,445.180 54.579,403.664 81.580 M270.720 136.487 L 312.320 163.218 312.320 292.027 C 312.320 368.772,312.007 420.721,311.546 420.551 C 311.120 420.395,285.972 404.331,255.661 384.853 L 200.550 349.440 200.542 220.395 L 200.533 91.350 214.827 100.553 C 222.688 105.615,247.840 121.785,270.720 136.487 " stroke="none" fill-rule="evenodd" fill="black"></path></svg>