<svg xmlns="http://www.w3.org/2000/svg" width="512" height="512" viewBox="0 0 512 512"><path d="M153.092 41.673 C 137.167 52.019,43.485 116.626,41.123 118.891 C 37.263 122.595,33.396 130.783,32.373 137.420 C 31.827 140.968,31.609 196.616,31.762 293.547 L 32.000 444.160 33.948 448.977 C 36.544 455.398,40.092 460.143,45.012 463.773 C 49.824 467.325,58.304 470.187,64.014 470.187 C 72.774 470.187,76.191 468.323,120.324 439.472 C 169.480 407.338,166.034 409.710,167.195 407.213 C 168.394 404.636,168.487 46.338,167.290 43.190 C 166.427 40.919,162.460 38.400,159.748 38.400 C 158.859 38.400,155.864 39.873,153.092 41.673 M202.501 40.459 L 200.107 42.519 199.887 223.530 C 199.696 381.227,199.829 404.854,200.920 406.962 C 202.675 410.356,300.342 473.884,303.805 473.884 C 306.906 473.884,310.467 471.536,311.505 468.806 C 312.702 465.657,312.605 109.445,311.406 106.005 C 310.629 103.777,302.992 98.487,260.714 70.891 C 206.502 35.506,207.596 36.077,202.501 40.459 M442.453 42.327 C 436.362 43.811,428.678 48.389,391.253 72.828 C 342.648 104.569,345.969 102.284,344.805 104.787 C 344.167 106.158,343.893 160.875,343.893 286.803 C 343.893 484.316,343.516 470.470,348.957 472.723 C 350.378 473.312,352.469 473.560,353.604 473.275 C 356.066 472.657,466.807 396.920,470.877 393.071 C 474.608 389.541,478.540 381.395,479.579 375.040 C 480.670 368.370,480.696 77.622,479.607 70.085 C 477.994 58.934,471.913 50.430,462.071 45.566 C 457.043 43.081,454.572 42.390,449.957 42.178 C 446.769 42.031,443.392 42.098,442.453 42.327 " stroke="none" fill-rule="evenodd" fill="black"></path></svg>