<svg xmlns="http://www.w3.org/2000/svg" width="512" height="512" viewBox="0 0 512 512"><path d="M87.136 33.775 C 79.621 35.796,72.515 40.078,66.020 46.497 C 59.972 52.476,59.822 52.737,41.973 88.427 C 32.095 108.179,23.335 126.604,22.506 129.370 C 20.442 136.259,20.543 148.978,22.712 155.307 L 24.320 160.000 163.576 160.216 L 302.832 160.432 304.940 158.509 C 306.707 156.897,374.142 50.501,380.365 39.506 C 381.995 36.625,382.211 35.575,381.461 34.173 L 380.527 32.427 236.130 32.483 C 112.850 32.531,91.061 32.720,87.136 33.775 M394.288 77.467 C 379.061 101.740,352.151 144.640,334.489 172.800 C 316.827 200.960,301.376 225.582,300.154 227.516 L 297.932 231.032 290.833 228.966 C 269.906 222.875,242.099 222.874,221.180 228.962 L 214.093 231.024 211.025 226.232 C 209.338 223.597,204.136 215.296,199.465 207.787 C 194.794 200.277,190.363 193.653,189.617 193.067 C 188.557 192.233,173.118 192.000,119.009 192.000 C 53.003 192.000,49.692 192.073,48.346 193.561 C 47.569 194.419,46.933 195.519,46.933 196.005 C 46.933 196.492,65.762 226.201,88.774 262.025 C 111.787 297.849,130.446 327.600,130.239 328.138 C 128.866 331.718,127.821 347.294,128.272 357.462 C 130.358 404.485,156.777 445.132,199.253 466.677 C 208.158 471.193,224.370 476.457,235.093 478.315 C 246.452 480.282,265.548 480.282,276.907 478.315 C 330.289 469.069,371.246 428.805,381.991 375.009 C 383.801 365.947,384.117 339.601,382.510 331.767 L 381.511 326.895 433.259 246.434 C 461.721 202.181,486.068 163.466,487.364 160.401 C 491.721 150.098,492.346 139.850,489.281 128.943 C 488.569 126.412,479.905 108.179,470.027 88.427 C 452.231 52.844,452.010 52.457,445.980 46.449 C 441.589 42.074,438.110 39.527,433.493 37.310 C 421.468 31.533,426.043 26.848,394.288 77.467 M270.080 289.716 C 277.757 291.334,290.004 297.325,296.513 302.646 C 321.943 323.435,327.248 360.253,308.790 387.850 C 295.869 407.170,271.851 418.338,249.263 415.531 C 217.302 411.560,194.297 387.264,192.338 355.413 C 191.051 334.490,200.798 313.324,217.351 301.096 C 223.619 296.465,234.817 291.212,241.515 289.760 C 248.838 288.173,262.660 288.151,270.080 289.716 M247.495 321.366 C 235.610 324.560,226.822 334.310,224.498 346.883 C 221.973 360.542,229.884 375.100,243.200 381.300 C 247.199 383.162,249.092 383.485,256.000 383.485 C 262.908 383.485,264.801 383.162,268.800 381.300 C 282.116 375.100,290.027 360.542,287.502 346.883 C 285.142 334.118,276.353 324.506,264.132 321.323 C 257.939 319.709,253.617 319.721,247.495 321.366 " stroke="none" fill-rule="evenodd" fill="black"></path></svg>