<svg xmlns="http://www.w3.org/2000/svg" width="512" height="512" viewBox="0 0 512 512"><path d="M87.136 33.775 C 79.622 35.796,72.515 40.077,66.044 46.481 C 60.032 52.430,59.831 52.780,42.010 88.366 C 32.125 108.103,23.347 126.535,22.502 129.326 C 19.503 139.231,20.891 153.756,25.745 163.272 C 26.678 165.099,49.938 201.591,77.435 244.364 C 104.932 287.137,128.091 323.285,128.899 324.693 C 130.234 327.019,130.266 327.955,129.241 334.933 C 125.216 362.329,131.561 393.142,146.271 417.642 C 167.713 453.357,205.304 476.478,246.801 479.477 C 276.380 481.615,306.187 473.232,330.469 455.946 C 338.487 450.238,351.926 437.227,357.875 429.412 C 378.018 402.951,387.376 367.527,382.785 335.124 L 381.602 326.780 433.291 246.377 C 461.719 202.155,486.046 163.466,487.350 160.401 C 491.726 150.115,492.351 139.866,489.268 128.899 C 488.550 126.343,479.875 108.103,469.990 88.366 C 452.245 52.932,451.942 52.404,445.956 46.412 C 439.413 39.864,432.573 35.837,424.360 33.697 C 417.113 31.810,94.167 31.885,87.136 33.775 M382.734 95.787 L 362.773 127.573 210.396 127.789 L 58.019 128.005 72.444 99.202 C 86.973 70.189,89.121 66.830,94.293 65.027 C 96.035 64.420,145.731 64.113,249.774 64.067 L 402.695 64.000 382.734 95.787 M444.854 109.867 C 459.674 139.706,460.360 141.625,458.213 147.270 C 457.730 148.543,437.135 181.031,412.447 219.467 L 367.561 289.351 364.474 284.249 C 357.127 272.106,344.399 258.334,332.345 249.482 L 326.896 245.482 328.781 242.344 C 336.264 229.890,429.747 81.110,430.102 81.091 C 430.348 81.078,436.987 94.027,444.854 109.867 M157.431 201.173 C 171.458 223.584,183.435 242.712,184.047 243.680 C 185.076 245.307,184.746 245.744,179.684 249.462 C 167.598 258.335,154.880 272.095,147.523 284.255 L 144.432 289.363 103.363 225.433 C 80.775 190.271,62.293 161.261,62.293 160.965 C 62.293 160.669,77.961 160.427,97.111 160.427 L 131.928 160.427 157.431 201.173 M337.799 167.467 C 333.131 174.935,303.169 222.719,299.878 227.942 L 297.932 231.032 290.851 228.981 C 269.839 222.895,242.166 222.893,221.161 228.977 L 214.093 231.024 211.308 226.659 C 208.953 222.966,190.271 193.163,174.204 167.467 L 169.802 160.427 256.000 160.427 L 342.198 160.427 337.799 167.467 M275.257 258.171 C 308.218 264.970,335.542 288.799,346.438 320.246 C 353.338 340.159,353.338 363.841,346.438 383.754 C 335.059 416.595,305.713 441.107,271.040 446.730 C 219.975 455.012,170.605 419.957,161.740 369.122 C 160.060 359.489,160.060 344.511,161.740 334.878 C 168.399 296.692,198.840 265.617,236.840 258.213 C 240.573 257.486,244.971 256.725,246.613 256.523 C 252.200 255.834,268.465 256.769,275.257 258.171 M240.922 289.753 C 226.017 293.022,210.570 304.121,201.763 317.887 C 188.805 338.144,188.805 365.856,201.763 386.113 C 210.644 399.996,225.662 410.736,241.297 414.387 C 248.746 416.125,263.254 416.125,270.703 414.387 C 286.338 410.736,301.356 399.996,310.237 386.113 C 323.195 365.856,323.195 338.144,310.237 317.887 C 301.229 303.806,285.897 292.944,270.438 289.692 C 263.089 288.146,248.105 288.177,240.922 289.753 M263.339 321.127 C 285.610 325.796,295.186 353.685,280.776 371.914 C 277.047 376.632,270.909 380.988,265.864 382.499 C 261.408 383.833,250.592 383.833,246.136 382.499 C 241.091 380.988,234.953 376.632,231.224 371.914 C 219.523 357.112,223.144 335.252,238.979 325.091 C 243.344 322.290,250.276 320.200,255.573 320.089 C 256.981 320.060,260.476 320.527,263.339 321.127 " stroke="none" fill-rule="evenodd" fill="black"></path></svg>