<svg xmlns="http://www.w3.org/2000/svg" width="512" height="512" viewBox="0 0 512 512"><path d="M47.997 96.002 C 30.516 130.968,16.213 159.768,16.213 160.002 C 16.213 160.235,81.083 160.427,160.369 160.427 L 304.524 160.427 306.180 158.080 C 307.521 156.180,382.159 37.189,384.328 33.493 C 384.828 32.642,354.202 32.427,232.368 32.427 L 79.781 32.427 47.997 96.002 M363.093 128.166 C 329.771 180.822,301.489 225.511,300.244 227.475 L 297.982 231.046 290.858 228.973 C 269.893 222.872,242.111 222.870,221.153 228.970 L 214.040 231.040 211.589 227.093 C 210.241 224.923,204.780 216.235,199.453 207.787 L 189.768 192.427 117.071 192.209 C 77.087 192.089,44.373 192.203,44.373 192.463 C 44.373 192.723,63.618 222.882,87.140 259.484 C 110.661 296.085,129.950 326.499,130.003 327.069 C 130.057 327.640,129.574 332.128,128.931 337.042 C 127.448 348.374,128.149 366.050,130.528 377.309 C 138.845 416.668,163.265 448.423,199.253 466.677 C 208.158 471.193,224.370 476.457,235.093 478.315 C 246.452 480.282,265.548 480.282,276.907 478.315 C 330.289 469.069,371.246 428.805,381.991 375.009 C 383.802 365.942,384.117 339.600,382.508 331.757 L 381.507 326.874 438.365 236.184 C 469.638 186.304,495.241 144.904,495.262 144.184 C 495.297 142.935,424.995 32.559,424.107 32.470 C 423.872 32.446,396.416 75.509,363.093 128.166 M272.717 284.174 C 321.866 296.700,341.972 354.274,311.293 394.639 C 296.910 413.563,271.649 424.384,248.533 421.524 C 193.713 414.741,167.392 352.527,200.914 308.967 C 210.090 297.043,223.669 288.204,238.933 284.218 C 247.968 281.859,263.555 281.839,272.717 284.174 M247.495 321.366 C 235.610 324.560,226.822 334.310,224.498 346.883 C 221.973 360.542,229.884 375.100,243.200 381.300 C 247.199 383.162,249.092 383.485,256.000 383.485 C 262.908 383.485,264.801 383.162,268.800 381.300 C 282.116 375.100,290.027 360.542,287.502 346.883 C 285.142 334.118,276.353 324.506,264.132 321.323 C 257.939 319.709,253.617 319.721,247.495 321.366 " stroke="none" fill-rule="evenodd" fill="black"></path></svg>