<svg xmlns="http://www.w3.org/2000/svg" width="512" height="512" viewBox="0 0 512 512"><path d="M233.852 48.681 C 224.424 50.623,215.274 57.757,210.963 66.527 L 208.640 71.253 208.399 119.003 C 208.184 161.637,208.010 166.917,206.773 168.283 C 206.012 169.125,204.851 169.813,204.195 169.813 C 203.538 169.813,185.261 159.557,163.580 147.021 C 140.355 133.592,122.407 123.753,119.893 123.073 C 109.854 120.354,97.167 123.893,89.710 131.491 C 85.161 136.126,67.035 167.490,65.142 174.003 C 62.050 184.637,65.811 197.531,74.170 204.958 C 76.450 206.983,95.626 218.621,116.796 230.827 C 138.538 243.362,155.494 253.663,155.776 254.507 C 156.050 255.328,156.055 256.672,155.787 257.493 C 155.509 258.341,138.102 268.946,115.516 282.027 C 72.040 307.206,70.232 308.535,66.428 318.121 C 63.576 325.307,63.681 335.780,66.669 342.222 C 69.402 348.113,83.832 373.058,87.028 377.417 C 93.066 385.650,103.657 390.490,113.920 389.706 C 117.205 389.456,121.429 388.602,123.307 387.810 C 125.184 387.018,143.891 376.429,164.879 364.278 C 185.866 352.128,203.599 342.187,204.285 342.187 C 204.970 342.187,206.135 342.790,206.872 343.528 C 208.059 344.714,208.213 350.231,208.213 391.336 C 208.213 435.291,208.304 438.060,209.885 442.559 C 212.898 451.132,219.359 457.874,228.086 461.552 C 233.354 463.773,233.525 463.787,256.000 463.787 C 278.475 463.787,278.646 463.773,283.914 461.552 C 292.641 457.874,299.102 451.132,302.115 442.559 C 303.696 438.060,303.787 435.291,303.787 391.336 C 303.787 350.231,303.941 344.714,305.128 343.528 C 305.865 342.790,307.057 342.187,307.776 342.187 C 308.495 342.187,326.619 352.326,348.052 364.719 C 373.374 379.361,388.791 387.766,392.074 388.721 C 402.447 391.736,414.288 388.429,422.184 380.312 C 427.311 375.043,444.795 345.047,446.856 337.984 C 449.952 327.381,446.190 314.476,437.837 307.042 C 435.561 305.017,417.071 293.760,396.747 282.027 C 376.424 270.293,358.848 259.895,357.689 258.920 C 353.165 255.112,353.663 254.738,395.144 230.827 C 416.312 218.624,435.509 206.983,437.803 204.958 C 446.195 197.550,449.934 184.584,446.794 173.783 C 445.489 169.291,429.479 140.279,424.814 133.950 C 420.095 127.549,408.800 122.027,400.426 122.027 C 392.155 122.027,388.276 123.889,348.301 147.054 C 326.699 159.571,308.481 169.813,307.818 169.813 C 307.154 169.813,305.976 169.111,305.199 168.253 C 303.921 166.841,303.787 162.281,303.787 120.445 C 303.787 76.707,303.696 73.939,302.115 69.441 C 299.090 60.835,292.081 53.695,283.139 50.110 C 279.023 48.460,276.758 48.277,258.133 48.096 C 246.869 47.987,235.943 48.250,233.852 48.681 " stroke="none" fill-rule="evenodd" fill="black"></path></svg>