<svg xmlns="http://www.w3.org/2000/svg" width="512" height="512" viewBox="0 0 512 512"><path d="M208.213 110.080 C 208.213 144.341,207.980 172.373,207.696 172.373 C 207.411 172.373,183.260 158.549,154.027 141.653 C 124.793 124.757,100.546 110.950,100.144 110.970 C 99.742 110.990,88.769 129.518,75.759 152.143 C 56.505 185.627,52.326 193.448,53.301 194.185 C 53.959 194.683,78.127 208.699,107.007 225.332 C 135.888 241.965,159.524 255.765,159.532 256.000 C 159.540 256.235,135.891 270.059,106.977 286.720 C 78.064 303.381,53.889 317.397,53.256 317.867 C 51.666 319.044,98.726 401.213,100.732 400.761 C 101.457 400.598,125.734 386.776,154.681 370.046 C 183.627 353.315,207.514 339.627,207.762 339.627 C 208.010 339.627,208.213 367.659,208.213 401.920 L 208.213 464.213 256.000 464.213 L 303.787 464.213 303.787 401.920 C 303.787 367.659,303.990 339.627,304.238 339.627 C 304.486 339.627,328.373 353.315,357.319 370.046 C 386.266 386.776,410.543 400.598,411.268 400.761 C 413.274 401.213,460.334 319.044,458.744 317.867 C 458.111 317.397,433.936 303.381,405.023 286.720 C 376.109 270.059,352.460 256.235,352.468 256.000 C 352.476 255.765,376.112 241.965,404.993 225.332 C 433.873 208.699,458.041 194.683,458.699 194.185 C 459.674 193.448,455.495 185.627,436.241 152.143 C 423.231 129.518,412.258 110.990,411.856 110.970 C 411.454 110.950,387.207 124.757,357.973 141.653 C 328.740 158.549,304.589 172.373,304.304 172.373 C 304.020 172.373,303.787 144.341,303.787 110.080 L 303.787 47.787 256.000 47.787 L 208.213 47.787 208.213 110.080 " stroke="none" fill="black" fill-rule="evenodd"></path></svg>