<svg xmlns="http://www.w3.org/2000/svg" width="512" height="512" viewBox="0 0 512 512"><path d="M234.971 48.642 C 226.081 49.944,217.747 55.490,212.716 63.451 C 208.270 70.488,208.233 70.995,208.223 123.520 C 208.217 150.389,208.007 172.373,207.756 172.373 C 207.504 172.373,188.599 161.542,165.744 148.304 C 140.919 133.924,122.467 123.768,119.909 123.076 C 108.028 119.862,93.086 125.297,86.429 135.253 C 80.425 144.232,66.342 169.873,65.137 174.020 C 62.104 184.453,65.957 197.662,74.157 204.943 C 76.459 206.988,96.469 219.126,118.937 232.107 C 141.277 245.013,159.560 255.772,159.564 256.015 C 159.569 256.259,141.045 267.191,118.400 280.309 C 72.826 306.710,70.084 308.699,66.598 317.893 C 63.976 324.809,63.444 332.158,65.142 337.998 C 66.350 342.154,80.858 368.576,86.222 376.388 C 93.211 386.567,107.383 392.019,119.377 389.142 C 122.346 388.429,137.192 380.305,165.578 363.859 C 188.583 350.531,207.587 339.627,207.809 339.627 C 208.031 339.627,208.217 361.611,208.223 388.480 C 208.233 441.005,208.270 441.512,212.716 448.549 C 217.695 456.429,225.290 461.633,234.218 463.284 C 240.730 464.488,271.270 464.488,277.782 463.284 C 286.710 461.633,294.305 456.429,299.284 448.549 C 303.730 441.512,303.767 441.005,303.777 388.480 C 303.783 361.611,304.009 339.627,304.280 339.627 C 304.551 339.627,323.271 350.345,345.880 363.446 C 373.151 379.249,388.693 387.758,392.057 388.728 C 402.752 391.811,415.057 388.156,422.827 379.588 C 427.640 374.280,444.844 344.641,446.850 338.200 C 449.996 328.104,446.009 314.312,437.849 307.057 C 435.540 305.004,415.622 292.922,393.068 279.893 C 370.725 266.987,352.441 256.228,352.436 255.985 C 352.431 255.741,370.779 244.902,393.210 231.898 C 415.640 218.894,435.570 206.903,437.498 205.253 C 446.058 197.926,449.986 184.480,446.748 173.595 C 445.473 169.309,431.630 144.247,425.773 135.621 C 418.212 124.485,402.785 119.234,390.400 123.580 C 388.053 124.403,367.770 135.719,345.326 148.725 C 322.883 161.732,304.355 172.373,304.153 172.373 C 303.952 172.373,303.783 150.389,303.777 123.520 C 303.767 70.995,303.730 70.488,299.284 63.451 C 294.063 55.188,286.032 50.005,276.260 48.591 C 269.978 47.683,241.283 47.718,234.971 48.642 M272.213 138.966 C 272.213 180.442,272.498 198.572,273.180 200.619 C 274.463 204.472,279.325 209.465,283.875 211.603 C 288.171 213.623,294.873 213.872,298.963 212.163 C 300.504 211.519,323.703 198.271,350.518 182.723 C 377.333 167.175,399.439 154.453,399.643 154.453 C 400.176 154.453,415.832 181.801,415.459 182.080 C 415.287 182.208,392.940 195.148,365.799 210.836 C 338.658 226.524,315.134 240.631,313.523 242.184 C 309.683 245.886,308.049 249.995,308.072 255.891 C 308.094 261.542,310.124 266.534,313.814 270.018 C 315.812 271.903,411.558 328.255,415.047 329.599 C 415.626 329.822,404.498 350.225,400.362 356.522 C 399.817 357.352,387.664 350.693,351.924 329.980 C 325.683 314.772,302.534 301.474,300.481 300.427 C 293.243 296.737,283.622 298.482,277.510 304.595 C 272.007 310.097,272.213 307.454,272.213 372.584 L 272.213 431.787 256.000 431.787 L 239.787 431.787 239.787 372.584 C 239.787 323.340,239.583 312.898,238.574 310.504 C 236.948 306.647,232.444 302.171,228.267 300.263 C 224.186 298.399,216.945 298.204,213.003 299.852 C 211.443 300.503,188.177 313.782,161.301 329.360 C 134.425 344.937,112.161 357.364,111.825 356.975 C 110.619 355.573,96.259 330.125,96.553 329.909 C 96.718 329.787,119.067 316.852,146.217 301.164 C 175.552 284.213,196.871 271.362,198.761 269.490 C 205.721 262.593,205.782 249.410,198.885 242.638 C 196.596 240.390,101.198 184.026,96.908 182.386 C 96.247 182.133,111.481 154.453,112.282 154.453 C 112.423 154.453,133.969 166.877,160.163 182.062 C 186.356 197.247,209.466 210.527,211.519 211.573 C 218.826 215.298,228.434 213.504,234.521 207.279 C 240.002 201.672,239.787 204.452,239.787 139.416 L 239.787 80.213 256.000 80.213 L 272.213 80.213 272.213 138.966 " stroke="none" fill-rule="evenodd" fill="black"></path></svg>