<svg xmlns="http://www.w3.org/2000/svg" width="512" height="512" viewBox="0 0 512 512"><path d="M163.083 33.775 C 148.847 37.604,136.147 49.364,130.792 63.676 C 128.871 68.811,128.546 71.231,128.196 82.987 L 127.796 96.427 99.525 96.441 C 66.646 96.459,63.386 96.900,51.200 102.978 C 44.352 106.394,41.830 108.286,34.956 115.164 C 28.344 121.780,26.142 124.666,23.211 130.560 C 21.227 134.549,18.840 140.851,17.908 144.563 C 16.252 151.157,16.213 154.463,16.213 288.000 C 16.213 421.537,16.252 424.843,17.908 431.437 C 18.840 435.149,21.227 441.451,23.211 445.440 C 26.133 451.314,28.366 454.248,34.956 460.868 C 41.775 467.718,44.364 469.677,50.934 472.958 C 66.305 480.634,47.839 480.000,256.000 480.000 C 464.161 480.000,445.695 480.634,461.066 472.958 C 467.636 469.677,470.225 467.718,477.044 460.868 C 483.634 454.248,485.867 451.314,488.789 445.440 C 490.773 441.451,493.160 435.149,494.092 431.437 C 495.748 424.843,495.787 421.537,495.787 288.000 C 495.787 154.463,495.748 151.157,494.092 144.563 C 493.160 140.851,490.773 134.549,488.789 130.560 C 485.858 124.666,483.656 121.780,477.044 115.164 C 470.170 108.286,467.648 106.394,460.800 102.978 C 448.614 96.900,445.354 96.459,412.475 96.441 L 384.204 96.427 383.804 82.987 C 383.454 71.231,383.129 68.811,381.208 63.676 C 375.781 49.170,363.069 37.515,348.551 33.733 C 341.235 31.828,170.180 31.867,163.083 33.775 M341.970 65.313 C 349.674 68.532,351.573 72.653,351.573 86.153 L 351.573 96.427 255.934 96.427 L 160.294 96.427 160.574 85.050 C 160.845 74.023,160.929 73.575,163.314 70.451 C 164.668 68.678,167.356 66.510,169.288 65.633 C 172.640 64.110,176.580 64.037,255.814 64.019 C 328.617 64.002,339.215 64.161,341.970 65.313 M439.592 129.161 C 452.190 132.126,461.516 142.437,463.403 155.487 C 464.424 162.551,464.424 413.449,463.403 420.513 C 461.873 431.090,455.357 439.978,445.616 444.774 L 439.929 447.573 256.018 447.573 L 72.107 447.573 67.227 445.286 C 57.154 440.565,50.153 431.277,48.607 420.581 C 47.576 413.453,47.567 162.610,48.597 155.487 C 50.454 142.647,59.786 132.171,72.007 129.205 C 78.654 127.592,432.746 127.549,439.592 129.161 M249.600 193.613 C 245.469 195.519,242.869 198.221,241.107 202.438 C 239.992 205.107,239.787 210.771,239.787 238.878 L 239.787 272.158 204.878 272.399 L 169.970 272.640 166.692 275.290 C 162.023 279.065,160.183 282.624,160.183 287.881 C 160.183 294.538,164.228 300.667,170.082 302.879 C 171.631 303.464,184.434 303.787,206.136 303.787 L 239.787 303.787 239.787 337.313 C 239.787 370.398,239.812 370.888,241.707 374.596 C 242.763 376.663,245.102 379.529,246.906 380.964 C 249.839 383.298,250.798 383.573,256.000 383.573 C 261.202 383.573,262.161 383.298,265.094 380.964 C 266.898 379.529,269.237 376.663,270.293 374.596 C 272.188 370.888,272.213 370.398,272.213 337.313 L 272.213 303.787 305.947 303.787 C 332.694 303.787,340.250 303.543,342.427 302.612 C 348.936 299.827,352.980 291.718,351.396 284.628 C 350.411 280.216,348.965 278.034,345.045 275.043 L 341.895 272.640 307.054 272.399 L 272.213 272.158 272.195 238.693 C 272.177 207.982,272.046 204.946,270.600 201.813 C 266.741 193.450,257.647 189.899,249.600 193.613 " stroke="none" fill-rule="evenodd" fill="black"></path></svg>