<svg xmlns="http://www.w3.org/2000/svg" width="512" height="512" viewBox="0 0 512 512"><path d="M163.471 33.734 C 151.125 37.122,138.610 47.297,133.322 58.245 C 129.278 66.618,128.027 73.036,128.013 85.489 L 128.000 96.311 97.493 96.592 L 66.987 96.873 60.160 99.259 C 50.324 102.697,42.310 107.735,34.916 115.129 C 27.525 122.521,22.484 130.533,19.034 140.373 L 16.640 147.200 16.640 288.000 L 16.640 428.800 19.036 435.627 C 22.605 445.795,27.520 453.510,35.346 461.227 C 46.539 472.263,58.080 477.730,74.050 479.560 C 84.206 480.723,427.794 480.723,437.950 479.560 C 453.920 477.730,465.461 472.263,476.654 461.227 C 484.484 453.506,489.406 445.782,492.966 435.627 L 495.360 428.800 495.360 288.000 L 495.360 147.200 492.966 140.373 C 489.516 130.533,484.475 122.521,477.084 115.129 C 469.690 107.735,461.676 102.697,451.840 99.259 L 445.013 96.873 414.507 96.592 L 384.000 96.311 383.987 85.489 C 383.980 78.986,383.473 72.540,382.718 69.338 C 378.677 52.197,365.110 38.206,348.154 33.694 C 341.454 31.911,169.979 31.948,163.471 33.734 M341.970 65.313 C 349.674 68.532,351.573 72.653,351.573 86.153 L 351.573 96.427 256.000 96.427 L 160.427 96.427 160.427 86.153 C 160.427 75.342,161.443 71.550,165.268 68.091 C 169.848 63.949,167.178 64.069,255.814 64.033 C 328.640 64.004,339.214 64.161,341.970 65.313 M261.776 193.321 C 265.552 194.898,268.452 197.475,270.374 200.960 C 271.610 203.199,271.819 207.825,272.045 237.867 L 272.303 272.213 305.999 272.213 C 337.959 272.213,339.866 272.301,343.025 273.912 C 344.856 274.846,347.433 277.025,348.751 278.752 C 350.866 281.526,351.147 282.616,351.147 288.068 C 351.147 293.667,350.906 294.538,348.565 297.431 C 343.313 303.920,344.203 303.787,306.191 303.787 L 272.303 303.787 272.045 338.133 C 271.765 375.323,271.813 374.938,266.949 379.479 C 264.333 381.922,259.300 384.000,256.000 384.000 C 252.700 384.000,247.667 381.922,245.051 379.479 C 240.187 374.938,240.235 375.323,239.955 338.133 L 239.697 303.787 206.091 303.787 C 184.421 303.787,171.631 303.464,170.082 302.879 C 164.329 300.705,160.427 294.726,160.427 288.083 C 160.427 281.296,163.092 276.938,169.139 273.837 C 172.094 272.322,174.558 272.213,206.001 272.213 L 239.697 272.213 239.955 237.867 C 240.181 207.825,240.390 203.199,241.626 200.960 C 245.765 193.457,254.330 190.210,261.776 193.321 " stroke="none" fill-rule="evenodd" fill="black"></path></svg>