<svg xmlns="http://www.w3.org/2000/svg" width="512" height="512" viewBox="0 0 512 512"><path d="M404.743 34.961 C 400.426 37.142,397.860 39.456,390.712 47.615 C 367.662 73.927,342.056 97.289,318.293 113.686 C 307.285 121.283,290.844 130.591,282.482 133.962 C 271.015 138.584,272.213 128.306,272.213 222.016 C 272.213 299.801,272.277 303.126,273.829 306.167 C 276.106 310.629,277.134 311.361,290.826 318.273 C 322.529 334.278,354.906 360.820,388.749 398.549 C 394.411 404.862,400.325 410.891,401.891 411.948 C 410.884 418.020,426.430 416.827,436.214 409.315 C 441.257 405.444,444.337 401.290,446.293 395.726 C 447.941 391.036,448.000 388.687,448.000 327.379 C 448.000 277.588,448.230 263.714,449.067 263.078 C 449.653 262.632,451.966 261.590,454.206 260.762 C 486.802 248.717,488.818 203.114,457.387 188.819 C 454.805 187.645,451.733 186.234,450.560 185.683 L 448.427 184.682 448.000 119.842 L 447.573 55.002 444.764 49.297 C 441.682 43.038,437.323 38.721,430.507 35.176 C 427.005 33.356,424.787 32.898,418.133 32.625 C 410.424 32.308,409.768 32.423,404.743 34.961 M72.107 145.016 C 68.965 145.786,61.621 149.603,59.307 151.668 C 52.438 157.798,49.110 164.853,47.873 175.911 C 47.185 182.054,46.682 183.428,43.270 188.471 C 35.014 200.675,32.230 209.635,32.230 224.000 C 32.230 238.365,35.014 247.325,43.270 259.529 C 46.703 264.603,47.183 265.924,47.891 272.249 C 49.594 287.471,57.007 297.745,69.441 302.115 C 74.801 303.999,89.281 304.474,92.288 302.865 C 96.453 300.636,96.427 301.131,96.427 224.000 C 96.427 146.869,96.453 147.364,92.288 145.135 C 90.380 144.114,76.128 144.030,72.107 145.016 M130.494 146.708 L 128.000 149.202 128.000 304.542 C 128.000 458.368,128.017 459.927,129.725 464.395 C 132.667 472.091,138.358 477.058,146.677 479.189 C 151.221 480.353,156.508 480.513,181.616 480.248 C 209.896 479.949,211.413 479.851,216.023 478.017 C 229.506 472.657,238.342 458.897,236.935 445.453 C 236.316 439.535,229.805 420.369,222.001 401.493 C 218.702 393.515,215.000 383.531,213.773 379.307 C 211.283 370.729,208.590 354.900,209.305 353.037 C 209.564 352.360,211.510 351.587,213.713 351.285 C 223.067 350.003,232.596 342.539,237.073 332.986 L 239.360 328.107 239.585 238.379 L 239.810 148.651 237.173 146.432 L 234.536 144.213 183.762 144.213 L 132.989 144.213 130.494 146.708 " stroke="none" fill-rule="evenodd" fill="black"></path></svg>