<svg xmlns="http://www.w3.org/2000/svg" width="512" height="512" viewBox="0 0 512 512"><path d="M407.793 33.605 C 402.148 35.622,398.848 38.293,391.614 46.704 C 376.634 64.118,354.114 85.945,336.213 100.400 C 313.948 118.380,291.194 131.677,271.334 138.318 C 253.591 144.250,254.493 144.202,160.000 144.213 C 104.377 144.220,74.354 144.526,72.107 145.109 C 64.101 147.188,55.307 154.148,51.633 161.314 C 49.386 165.696,47.787 173.229,47.787 179.432 C 47.787 183.167,47.377 184.086,43.991 187.957 C 36.087 196.992,32.201 208.873,32.201 224.000 C 32.201 239.127,36.087 251.008,43.991 260.043 C 47.504 264.059,47.787 264.734,47.787 269.109 C 47.787 282.316,53.248 292.837,63.451 299.284 C 70.039 303.446,72.748 303.768,101.333 303.777 L 128.000 303.787 128.000 381.835 C 128.000 457.752,128.047 460.007,129.704 464.437 C 131.586 469.468,136.747 475.257,141.258 477.398 C 147.010 480.127,153.428 480.568,182.534 480.231 C 214.607 479.859,216.314 479.591,224.043 473.716 C 231.637 467.943,237.227 457.189,237.227 448.354 C 237.227 443.096,234.550 434.655,226.291 413.867 C 215.318 386.245,211.288 372.569,209.421 356.611 L 208.862 351.835 213.329 351.306 C 222.731 350.193,231.896 343.301,236.561 333.835 C 239.267 328.344,239.369 327.752,239.636 316.009 L 239.911 303.863 245.609 304.337 C 266.974 306.116,289.137 314.926,314.027 331.533 C 335.672 345.977,361.286 368.346,380.692 389.754 C 399.005 409.957,401.791 412.550,407.070 414.303 C 419.437 418.411,434.135 413.776,442.142 403.243 C 448.205 395.268,448.000 397.964,448.000 326.302 L 448.000 261.973 450.019 261.973 C 453.630 261.973,464.180 255.996,468.900 251.276 C 483.603 236.573,483.653 211.465,469.009 196.838 C 464.185 192.020,456.220 187.362,451.220 186.434 L 448.041 185.844 447.807 120.355 L 447.573 54.866 444.587 49.023 C 439.196 38.478,429.069 32.391,417.035 32.464 C 413.650 32.485,409.491 32.998,407.793 33.605 M415.573 224.205 L 415.573 380.143 407.765 371.618 C 365.052 324.984,319.670 291.978,280.488 279.052 L 272.213 276.322 272.213 224.004 L 272.213 171.686 278.200 169.868 C 298.546 163.688,324.754 149.393,347.733 131.940 C 366.863 117.411,395.240 91.200,409.173 75.188 C 412.459 71.412,415.243 68.311,415.360 68.295 C 415.477 68.279,415.573 138.439,415.573 224.205 M95.573 224.000 L 95.573 272.213 87.893 272.213 L 80.213 272.213 80.213 224.000 L 80.213 175.787 87.893 175.787 L 95.573 175.787 95.573 224.000 M239.787 224.000 L 239.787 272.213 183.893 272.213 L 128.000 272.213 128.000 224.000 L 128.000 175.787 183.893 175.787 L 239.787 175.787 239.787 224.000 M208.032 312.107 L 208.277 320.000 198.645 320.019 C 187.696 320.040,183.701 321.286,179.827 325.890 C 175.844 330.624,175.356 333.933,176.495 348.458 C 178.684 376.377,182.707 391.432,198.651 431.360 C 201.463 438.400,204.022 445.024,204.339 446.080 L 204.915 448.000 182.671 448.000 L 160.427 448.000 160.427 375.880 L 160.427 303.760 184.107 303.987 L 207.787 304.213 208.032 312.107 " stroke="none" fill-rule="evenodd" fill="black"></path></svg>