<svg xmlns="http://www.w3.org/2000/svg" width="512" height="512" viewBox="0 0 512 512"><path d="M335.848 88.103 L 272.213 143.779 272.213 224.002 L 272.213 304.226 334.545 358.833 C 368.828 388.867,397.916 414.110,399.185 414.929 C 401.223 416.244,403.990 416.418,422.850 416.422 C 440.804 416.426,444.509 416.215,446.103 415.098 L 448.000 413.770 448.000 338.271 C 448.000 278.605,448.224 262.709,449.067 262.467 C 468.313 256.949,479.829 242.549,479.829 224.000 C 479.829 208.779,471.921 195.985,458.193 188.998 C 456.055 187.910,452.887 186.754,451.153 186.428 L 448.000 185.837 448.000 110.156 C 448.000 52.430,447.757 34.232,446.976 33.451 C 446.230 32.704,439.651 32.427,422.717 32.427 L 399.482 32.427 335.848 88.103 M49.128 145.554 C 47.991 146.690,47.787 149.706,47.787 165.299 L 47.787 183.702 44.422 187.353 C 36.755 195.670,32.242 209.182,32.192 223.967 C 32.143 238.531,36.493 251.670,44.255 260.398 L 47.787 264.369 47.787 282.427 C 47.787 293.243,48.141 301.147,48.670 302.136 C 49.510 303.706,50.692 303.787,72.990 303.787 L 96.427 303.787 96.427 224.000 L 96.427 144.213 73.448 144.213 C 53.695 144.213,50.280 144.402,49.128 145.554 M128.000 310.992 L 128.000 477.770 129.897 479.098 C 131.561 480.264,137.938 480.427,181.977 480.427 C 223.321 480.427,232.671 480.214,235.052 479.219 C 238.302 477.861,239.787 475.672,239.787 472.238 C 239.787 470.957,232.875 443.656,224.427 411.569 C 215.979 379.481,209.067 353.047,209.067 352.827 C 209.067 352.607,214.263 352.427,220.614 352.427 C 232.963 352.427,237.159 351.475,238.865 348.288 C 239.510 347.082,239.787 316.233,239.787 245.389 L 239.787 144.213 183.893 144.213 L 128.000 144.213 128.000 310.992 " stroke="none" fill-rule="evenodd" fill="black"></path></svg>