<svg xmlns="http://www.w3.org/2000/svg" width="512" height="512" viewBox="0 0 512 512"><path d="M82.203 128.819 C 69.205 131.914,61.006 146.705,65.232 159.430 C 67.303 165.665,73.117 171.831,79.001 174.032 C 83.676 175.781,84.215 175.787,256.000 175.787 C 427.785 175.787,428.324 175.781,432.999 174.032 C 438.883 171.831,444.697 165.665,446.768 159.430 C 449.788 150.338,446.355 139.242,438.702 133.355 C 431.247 127.621,444.094 127.991,255.632 128.087 C 161.733 128.135,83.690 128.464,82.203 128.819 M81.920 232.900 C 74.837 235.077,69.808 239.250,66.423 245.760 C 64.848 248.790,64.427 250.951,64.429 256.000 C 64.431 263.771,66.752 269.029,72.359 273.964 C 79.658 280.389,64.319 279.893,256.000 279.893 C 447.681 279.893,432.342 280.389,439.641 273.964 C 445.248 269.029,447.569 263.771,447.571 256.000 C 447.574 246.236,443.456 239.414,434.773 234.800 L 430.507 232.533 257.280 232.389 C 162.005 232.310,83.093 232.540,81.920 232.900 M79.383 337.695 C 73.897 339.631,67.220 346.585,65.303 352.359 C 63.256 358.520,63.901 365.379,67.074 371.210 C 69.694 376.023,72.598 378.814,77.981 381.694 L 81.493 383.573 256.000 383.573 L 430.507 383.573 434.019 381.694 C 439.402 378.814,442.306 376.023,444.926 371.210 C 450.115 361.675,448.563 351.172,440.822 343.431 C 432.893 335.502,451.095 336.204,255.635 336.281 C 100.833 336.341,82.810 336.486,79.383 337.695 " stroke="none" fill="black" fill-rule="evenodd"></path></svg>