<svg xmlns="http://www.w3.org/2000/svg" width="512" height="512" viewBox="0 0 512 512"><path d="M72.677 146.044 C 67.180 148.765,64.427 153.422,64.427 160.000 C 64.427 166.628,67.204 171.294,72.746 173.977 L 76.486 175.787 256.000 175.787 L 435.514 175.787 439.254 173.977 C 444.796 171.294,447.573 166.628,447.573 160.000 C 447.573 153.372,444.796 148.706,439.254 146.023 L 435.514 144.213 255.944 144.214 L 76.373 144.215 72.677 146.044 M76.181 240.610 C 72.423 241.510,69.679 243.435,66.830 247.169 C 64.744 249.904,64.427 251.080,64.427 256.068 C 64.427 261.194,64.709 262.169,67.036 265.094 C 68.471 266.898,71.337 269.237,73.404 270.293 L 77.162 272.213 256.000 272.213 L 434.838 272.213 438.596 270.293 C 440.663 269.237,443.529 266.898,444.964 265.094 C 447.298 262.161,447.573 261.202,447.573 256.000 C 447.573 250.768,447.308 249.857,444.923 246.906 C 443.465 245.102,440.969 242.859,439.376 241.920 C 436.507 240.229,434.826 240.212,257.707 240.082 C 159.381 240.010,77.695 240.248,76.181 240.610 M72.677 338.044 C 67.180 340.765,64.427 345.422,64.427 352.000 C 64.427 358.628,67.204 363.294,72.746 365.977 L 76.486 367.787 256.000 367.787 L 435.514 367.787 439.254 365.977 C 444.796 363.294,447.573 358.628,447.573 352.000 C 447.573 345.372,444.796 340.706,439.254 338.023 L 435.514 336.213 255.944 336.214 L 76.373 336.215 72.677 338.044 " stroke="none" fill="black" fill-rule="evenodd"></path></svg>