<svg xmlns="http://www.w3.org/2000/svg" width="512" height="512" viewBox="0 0 512 512"><path d="M241.920 48.669 C 177.359 52.784,118.768 87.102,81.958 142.362 C 55.666 181.831,43.309 234.683,49.503 281.173 C 55.829 328.652,75.879 369.527,109.176 402.824 C 142.702 436.350,182.619 455.851,231.680 462.670 C 235.904 463.257,246.848 463.738,256.000 463.738 C 265.152 463.738,276.096 463.257,280.320 462.670 C 329.321 455.859,369.272 436.331,402.802 402.802 C 436.331 369.272,455.859 329.321,462.670 280.320 C 464.046 270.420,464.046 241.580,462.670 231.680 C 455.892 182.914,436.342 142.776,403.220 109.623 C 391.401 97.792,382.569 90.546,369.558 82.006 C 331.997 57.351,287.606 45.757,241.920 48.669 M267.888 237.227 L 367.792 346.027 362.456 351.029 C 359.521 353.780,354.201 358.666,350.633 361.886 L 344.145 367.740 244.393 259.028 C 189.529 199.237,144.640 149.881,144.640 149.350 C 144.640 148.256,166.510 127.993,167.406 128.256 C 167.724 128.350,212.941 177.387,267.888 237.227 M270.568 130.473 C 281.887 134.042,292.618 143.014,298.142 153.525 C 303.544 163.806,303.760 165.890,303.774 207.893 C 303.786 243.920,303.493 251.248,302.062 250.700 C 300.607 250.143,214.187 154.268,214.187 153.211 C 214.187 151.139,221.746 141.953,226.333 138.452 C 232.994 133.367,241.323 129.684,248.747 128.543 C 253.873 127.754,265.095 128.747,270.568 130.473 M192.013 230.187 C 192.027 255.092,192.645 259.300,197.733 269.139 C 201.667 276.744,214.589 289.934,222.720 294.643 C 231.678 299.830,242.809 302.996,254.069 303.559 L 263.657 304.039 275.292 316.780 C 282.318 324.473,286.618 329.830,286.147 330.301 C 285.718 330.730,282.504 331.807,279.004 332.695 L 272.640 334.309 272.398 343.368 L 272.156 352.427 287.971 352.427 L 303.787 352.427 303.787 368.213 L 303.787 384.000 256.000 384.000 L 208.213 384.000 208.213 368.213 L 208.213 352.427 224.029 352.427 L 239.844 352.427 239.602 343.368 L 239.360 334.309 233.119 332.726 C 202.410 324.935,175.933 302.642,165.306 275.627 C 161.099 264.931,160.427 258.996,160.427 232.569 L 160.427 208.213 176.213 208.213 L 192.000 208.213 192.013 230.187 M351.363 235.307 C 351.050 260.374,350.882 262.878,349.107 268.790 C 347.134 275.361,340.949 288.682,339.196 290.137 C 338.504 290.711,334.957 287.360,327.320 278.914 C 318.773 269.463,316.528 266.482,316.886 265.062 C 317.136 264.067,317.934 260.949,318.657 258.133 C 319.678 254.164,319.976 247.979,319.987 230.613 L 320.000 208.213 335.850 208.213 L 351.700 208.213 351.363 235.307 M226.986 263.680 C 236.534 274.240,245.282 283.905,246.426 285.157 L 248.505 287.434 244.786 286.633 C 230.555 283.570,216.326 270.801,211.100 256.406 C 209.019 250.670,207.515 242.244,208.819 243.627 C 209.262 244.096,217.437 253.120,226.986 263.680 " stroke="none" fill-rule="evenodd" fill="black"></path></svg>