<svg xmlns="http://www.w3.org/2000/svg" width="512" height="512" viewBox="0 0 512 512"><path d="M241.920 48.669 C 177.359 52.784,118.768 87.102,81.958 142.362 C 55.666 181.831,43.309 234.683,49.503 281.173 C 55.829 328.652,75.879 369.527,109.176 402.824 C 142.702 436.350,182.619 455.851,231.680 462.670 C 235.904 463.257,246.848 463.738,256.000 463.738 C 265.152 463.738,276.096 463.257,280.320 462.670 C 329.321 455.859,369.272 436.331,402.802 402.802 C 436.331 369.272,455.859 329.321,462.670 280.320 C 464.046 270.420,464.046 241.580,462.670 231.680 C 455.892 182.914,436.342 142.776,403.220 109.623 C 391.401 97.792,382.569 90.546,369.558 82.006 C 331.997 57.351,287.606 45.757,241.920 48.669 M284.160 82.304 C 321.162 88.560,353.794 105.371,380.211 131.789 C 406.735 158.313,423.262 190.465,429.804 228.267 C 431.881 240.265,431.881 271.735,429.804 283.733 C 425.851 306.578,418.233 327.335,406.833 346.325 C 382.979 386.061,344.436 414.850,299.755 426.304 C 224.299 445.647,145.298 413.176,105.167 346.325 C 93.767 327.335,86.149 306.578,82.196 283.733 C 80.119 271.735,80.119 240.265,82.196 228.267 C 88.706 190.645,105.418 158.109,131.763 131.763 C 144.838 118.689,161.604 106.505,177.465 98.550 C 192.645 90.937,215.346 83.898,230.827 82.002 C 235.051 81.485,239.467 80.898,240.640 80.698 C 245.523 79.863,276.482 81.006,284.160 82.304 M154.664 128.283 C 146.122 131.382,141.951 141.312,145.729 149.557 C 147.184 152.732,339.845 364.218,343.384 366.525 C 351.024 371.505,363.027 367.871,366.612 359.494 C 368.205 355.771,368.033 349.168,366.258 345.916 C 365.456 344.447,320.888 295.225,267.217 236.533 C 188.424 150.368,168.990 129.563,166.293 128.483 C 162.411 126.930,158.577 126.864,154.664 128.283 M248.320 128.536 C 235.763 130.952,223.731 138.476,217.153 148.028 C 214.028 152.566,213.897 152.997,215.070 154.924 C 217.628 159.129,300.001 249.053,301.349 249.112 C 302.120 249.146,302.984 248.566,303.269 247.824 C 303.554 247.081,303.787 229.185,303.787 208.053 C 303.787 165.313,303.656 164.057,298.088 153.437 C 292.631 143.027,281.866 134.042,270.568 130.467 C 265.112 128.740,252.809 127.673,248.320 128.536 M169.164 209.576 C 164.601 211.904,161.535 216.105,160.388 221.602 C 159.052 228.010,159.837 255.944,161.572 263.701 C 165.630 281.848,176.080 298.399,191.677 311.386 C 203.930 321.587,218.222 328.947,233.119 332.726 L 239.360 334.309 239.602 343.368 L 239.844 352.427 229.968 352.427 C 218.594 352.427,215.104 353.632,211.036 358.966 C 208.965 361.681,208.640 362.878,208.640 367.783 C 208.640 374.874,211.276 379.438,216.960 382.190 C 220.585 383.945,221.771 384.000,256.000 384.000 C 290.229 384.000,291.415 383.945,295.040 382.190 C 300.724 379.438,303.360 374.874,303.360 367.783 C 303.360 362.878,303.035 361.681,300.964 358.966 C 296.896 353.632,293.406 352.427,282.032 352.427 L 272.156 352.427 272.398 343.319 L 272.640 334.212 277.580 333.091 C 283.175 331.822,285.867 330.589,285.867 329.293 C 285.867 328.806,280.875 322.924,274.773 316.224 L 263.679 304.040 254.080 303.560 C 242.806 302.996,231.677 299.831,222.720 294.641 C 215.740 290.596,202.561 277.609,198.954 271.220 C 193.222 261.067,192.645 258.245,192.085 237.589 C 191.594 219.503,191.491 218.632,189.517 215.752 C 188.386 214.103,186.142 211.849,184.531 210.745 C 180.708 208.126,173.136 207.550,169.164 209.576 M328.829 209.969 C 326.880 210.934,324.192 213.299,322.856 215.226 L 320.427 218.728 319.914 238.004 C 319.519 252.861,319.078 258.136,317.994 261.014 C 317.220 263.068,316.587 265.264,316.587 265.894 C 316.587 267.395,337.142 290.133,338.499 290.133 C 340.135 290.133,345.260 280.234,348.059 271.669 C 349.459 267.386,351.014 260.203,351.515 255.708 C 352.666 245.386,352.660 226.047,351.504 221.030 C 349.118 210.675,338.181 205.340,328.829 209.969 M208.632 247.680 C 211.799 263.528,221.223 276.139,234.919 282.852 C 241.479 286.067,246.613 287.490,246.613 286.091 C 246.613 284.902,210.059 244.907,208.972 244.907 C 208.418 244.907,208.289 245.963,208.632 247.680 " stroke="none" fill-rule="evenodd" fill="black"></path></svg>