<svg xmlns="http://www.w3.org/2000/svg" width="512" height="512" viewBox="0 0 512 512"><path d="M241.920 48.669 C 177.359 52.784,118.768 87.102,81.958 142.362 C 55.666 181.831,43.309 234.683,49.503 281.173 C 55.829 328.652,75.879 369.527,109.176 402.824 C 142.702 436.350,182.619 455.851,231.680 462.670 C 235.904 463.257,246.848 463.738,256.000 463.738 C 265.152 463.738,276.096 463.257,280.320 462.670 C 329.321 455.859,369.272 436.331,402.802 402.802 C 436.331 369.272,455.859 329.321,462.670 280.320 C 464.046 270.420,464.046 241.580,462.670 231.680 C 455.892 182.914,436.342 142.776,403.220 109.623 C 391.401 97.792,382.569 90.546,369.558 82.006 C 331.997 57.351,287.606 45.757,241.920 48.669 M270.568 130.467 C 281.902 134.053,292.620 143.018,298.146 153.534 C 303.724 164.148,303.911 166.106,303.610 210.678 L 303.342 250.453 301.183 256.013 C 293.533 275.712,276.433 287.707,256.000 287.707 C 235.567 287.707,218.467 275.712,210.817 256.013 L 208.658 250.453 208.390 210.678 C 208.088 166.032,208.269 164.162,213.918 153.413 C 224.438 133.392,248.725 123.555,270.568 130.467 M192.013 230.187 C 192.027 255.092,192.645 259.300,197.733 269.139 C 200.019 273.558,203.076 277.398,209.021 283.315 C 218.442 292.693,224.851 296.727,236.373 300.531 C 243.653 302.934,245.568 303.213,255.147 303.262 C 267.618 303.326,272.934 302.125,284.587 296.612 C 298.125 290.206,310.170 278.830,315.390 267.520 C 319.497 258.623,320.000 254.597,320.000 230.647 L 320.000 208.213 335.787 208.213 L 351.573 208.213 351.573 232.569 C 351.573 251.424,351.269 258.411,350.225 263.503 C 343.665 295.502,314.654 323.651,278.881 332.726 L 272.640 334.309 272.398 343.368 L 272.156 352.427 287.971 352.427 L 303.787 352.427 303.787 368.213 L 303.787 384.000 256.000 384.000 L 208.213 384.000 208.213 368.213 L 208.213 352.427 224.029 352.427 L 239.844 352.427 239.602 343.368 L 239.360 334.309 233.119 332.726 C 202.410 324.935,175.933 302.642,165.306 275.627 C 161.099 264.931,160.427 258.996,160.427 232.569 L 160.427 208.213 176.213 208.213 L 192.000 208.213 192.013 230.187 " stroke="none" fill-rule="evenodd" fill="black"></path></svg>