<svg xmlns="http://www.w3.org/2000/svg" width="512" height="512" viewBox="0 0 512 512"><path d="M241.920 48.669 C 177.359 52.784,118.768 87.102,81.958 142.362 C 55.666 181.831,43.309 234.683,49.503 281.173 C 55.829 328.652,75.879 369.527,109.176 402.824 C 142.702 436.350,182.619 455.851,231.680 462.670 C 235.904 463.257,246.848 463.738,256.000 463.738 C 265.152 463.738,276.096 463.257,280.320 462.670 C 329.321 455.859,369.272 436.331,402.802 402.802 C 436.331 369.272,455.859 329.321,462.670 280.320 C 464.046 270.420,464.046 241.580,462.670 231.680 C 455.892 182.914,436.342 142.776,403.220 109.623 C 391.401 97.792,382.569 90.546,369.558 82.006 C 331.997 57.351,287.606 45.757,241.920 48.669 M166.294 128.484 C 168.993 129.564,188.342 150.272,266.791 236.039 C 320.227 294.459,364.811 343.838,365.867 345.770 C 370.691 354.595,365.851 365.739,356.119 368.210 C 351.477 369.388,346.586 368.605,343.104 366.125 C 338.915 363.143,147.223 152.802,145.729 149.549 C 139.797 136.635,152.962 123.149,166.294 128.484 M270.568 130.467 C 281.898 134.052,292.620 143.018,298.142 153.525 C 303.552 163.822,303.760 165.845,303.774 208.357 C 303.781 229.321,303.554 247.081,303.269 247.824 C 302.984 248.566,302.223 249.173,301.578 249.173 C 300.934 249.173,280.990 227.831,257.260 201.745 C 220.896 161.772,214.203 154.026,214.676 152.465 C 216.309 147.080,226.406 137.206,234.240 133.334 C 237.794 131.578,244.644 129.243,248.320 128.536 C 252.809 127.673,265.112 128.740,270.568 130.467 M184.681 210.822 C 186.441 212.013,188.671 214.717,189.881 217.128 C 191.901 221.152,192.001 222.065,192.013 236.754 C 192.027 254.532,192.986 259.959,197.733 269.139 C 201.667 276.744,214.589 289.934,222.720 294.643 C 231.681 299.832,242.808 302.996,254.080 303.560 L 263.679 304.040 274.773 316.224 C 280.875 322.924,285.867 328.806,285.867 329.293 C 285.867 330.589,283.175 331.822,277.580 333.091 L 272.640 334.212 272.398 343.319 L 272.156 352.427 282.040 352.427 C 294.745 352.427,298.586 354.116,302.264 361.322 C 305.985 368.614,302.508 378.575,294.968 382.225 C 291.217 384.041,290.574 384.066,254.954 383.822 L 218.752 383.573 215.753 381.517 C 206.214 374.978,205.724 362.141,214.749 355.249 C 217.754 352.955,218.354 352.841,228.865 352.572 L 239.843 352.290 239.602 343.300 L 239.360 334.309 233.119 332.726 C 197.310 323.642,168.346 295.538,161.776 263.503 C 159.970 254.700,159.841 221.479,161.597 217.359 C 162.918 214.259,165.616 211.540,169.387 209.507 C 173.125 207.492,180.725 208.145,184.681 210.822 M342.442 209.596 C 346.350 211.575,348.111 213.307,350.023 217.055 C 351.586 220.118,351.684 221.799,351.406 240.948 C 351.138 259.441,350.903 262.270,349.105 268.619 C 346.552 277.635,340.503 289.707,338.539 289.707 C 337.748 289.707,332.449 284.571,326.765 278.294 C 318.815 269.516,316.521 266.463,316.831 265.067 C 317.053 264.070,317.857 260.965,318.617 258.167 C 319.661 254.328,320.000 249.176,320.000 237.145 C 320.000 221.398,320.028 221.155,322.359 216.693 C 324.123 213.316,325.662 211.679,328.466 210.196 C 332.904 207.849,338.516 207.608,342.442 209.596 M228.239 265.078 C 238.345 276.172,246.613 285.628,246.613 286.091 C 246.613 287.490,241.479 286.067,234.919 282.852 C 224.114 277.556,215.129 267.577,211.136 256.440 C 208.783 249.877,207.862 244.907,209.001 244.907 C 209.476 244.907,218.134 253.984,228.239 265.078 " stroke="none" fill-rule="evenodd" fill="black"></path></svg>