<svg xmlns="http://www.w3.org/2000/svg" width="512" height="512" viewBox="0 0 512 512"><path d="M84.047 52.913 L 72.973 64.012 252.374 243.413 L 431.775 422.815 443.306 411.307 L 454.838 399.799 275.846 220.806 C 177.401 122.360,96.465 41.813,95.988 41.813 C 95.512 41.813,90.138 46.808,84.047 52.913 M246.533 48.669 C 224.392 51.257,203.591 63.538,190.992 81.459 L 186.816 87.399 261.301 161.888 L 335.787 236.377 336.029 180.695 C 336.188 144.166,335.952 122.558,335.344 117.876 C 330.520 80.724,302.223 52.838,265.155 48.705 C 256.147 47.700,254.838 47.698,246.533 48.669 M111.794 219.093 C 111.803 253.889,113.035 265.186,118.798 283.277 C 135.160 334.643,178.247 372.343,231.467 381.860 L 239.787 383.348 239.787 407.567 L 239.787 431.787 207.787 431.787 L 175.787 431.787 175.787 448.000 L 175.787 464.213 256.000 464.213 L 336.213 464.213 336.213 448.000 L 336.213 431.787 304.213 431.787 L 272.213 431.787 272.213 407.591 L 272.213 383.396 282.108 381.533 C 296.841 378.760,316.233 371.836,325.758 365.949 L 328.697 364.133 316.999 352.412 L 305.301 340.691 298.262 343.530 C 282.587 349.850,269.703 351.993,251.429 351.320 C 234.204 350.685,221.230 347.427,206.254 339.973 C 176.026 324.929,154.855 297.862,146.581 263.680 C 145.012 257.198,144.785 253.001,144.448 224.213 L 144.072 192.000 127.929 192.000 L 111.787 192.000 111.794 219.093 M367.578 223.787 C 367.341 246.169,366.904 257.048,366.101 260.557 L 364.960 265.540 377.812 278.392 L 390.664 291.244 393.219 283.222 C 398.963 265.190,400.197 253.861,400.206 219.093 L 400.213 192.000 384.064 192.000 L 367.915 192.000 367.578 223.787 M176.004 231.893 C 176.461 253.111,177.293 258.021,182.582 270.726 C 189.814 288.097,206.544 305.441,223.158 312.788 C 234.733 317.907,241.897 319.409,255.147 319.494 C 264.620 319.555,268.970 319.202,273.707 317.988 C 277.109 317.116,279.893 316.155,279.893 315.852 C 279.893 315.011,177.167 212.480,176.324 212.480 C 175.918 212.480,175.774 221.216,176.004 231.893 " stroke="none" fill-rule="evenodd" fill="black"></path></svg>