<svg xmlns="http://www.w3.org/2000/svg" width="512" height="512" viewBox="0 0 512 512"><path d="M248.320 48.377 C 210.838 52.352,181.552 80.746,176.638 117.876 C 175.997 122.724,175.786 145.271,175.981 188.160 C 176.262 249.798,176.313 251.463,178.110 257.856 C 182.579 273.754,189.294 285.475,200.153 296.333 C 210.754 306.932,220.371 312.619,235.402 317.178 C 241.814 319.123,244.384 319.425,255.147 319.494 C 264.716 319.555,268.970 319.205,273.920 317.946 C 306.835 309.577,330.646 283.104,335.290 249.716 C 336.549 240.666,336.549 126.268,335.290 117.217 C 330.164 80.365,301.955 52.808,265.155 48.705 C 257.057 47.802,254.254 47.747,248.320 48.377 M112.023 223.360 C 112.457 255.625,112.900 260.705,116.501 274.773 C 123.243 301.108,135.268 322.236,154.410 341.377 C 175.732 362.700,203.784 377.378,231.680 381.809 C 233.557 382.108,236.149 382.561,237.440 382.817 L 239.787 383.282 239.787 407.534 L 239.787 431.787 207.787 431.787 L 175.787 431.787 175.787 448.000 L 175.787 464.213 256.000 464.213 L 336.213 464.213 336.213 448.000 L 336.213 431.787 304.213 431.787 L 272.213 431.787 272.213 407.534 L 272.213 383.282 274.560 382.817 C 275.851 382.561,278.443 382.108,280.320 381.809 C 291.878 379.974,307.364 374.922,318.720 369.283 C 334.728 361.334,345.586 353.460,358.400 340.504 C 376.773 321.930,388.949 300.355,395.499 274.773 C 399.070 260.824,399.525 255.588,399.974 223.360 L 400.411 192.000 384.099 192.000 L 367.787 192.000 367.787 220.166 C 367.787 240.833,367.446 250.598,366.508 256.845 C 360.700 295.512,333.922 329.195,297.359 343.825 C 281.662 350.106,275.902 351.122,256.000 351.122 C 236.098 351.122,230.338 350.106,214.641 343.825 C 181.963 330.750,156.560 301.999,147.598 267.947 C 144.910 257.731,144.244 248.325,144.229 220.373 L 144.213 192.000 127.907 192.000 L 111.601 192.000 112.023 223.360 " stroke="none" fill-rule="evenodd" fill="black"></path></svg>