<svg xmlns="http://www.w3.org/2000/svg" width="512" height="512" viewBox="0 0 512 512"><path d="M241.920 48.669 C 177.359 52.784,118.768 87.102,81.958 142.362 C 55.666 181.831,43.309 234.683,49.503 281.173 C 55.829 328.652,75.879 369.527,109.176 402.824 C 142.702 436.350,182.619 455.851,231.680 462.670 C 235.904 463.257,246.848 463.738,256.000 463.738 C 265.152 463.738,276.096 463.257,280.320 462.670 C 329.321 455.859,369.272 436.331,402.802 402.802 C 436.331 369.272,455.859 329.321,462.670 280.320 C 464.046 270.420,464.046 241.580,462.670 231.680 C 455.892 182.914,436.342 142.776,403.220 109.623 C 391.401 97.792,382.569 90.546,369.558 82.006 C 331.997 57.351,287.606 45.757,241.920 48.669 M270.568 130.467 C 281.902 134.053,292.620 143.018,298.146 153.534 C 303.724 164.148,303.911 166.106,303.610 210.678 L 303.342 250.453 301.183 256.013 C 293.533 275.712,276.433 287.707,256.000 287.707 C 235.567 287.707,218.467 275.712,210.817 256.013 L 208.658 250.453 208.390 210.678 C 208.088 166.032,208.269 164.162,213.918 153.413 C 224.438 133.392,248.725 123.555,270.568 130.467 M180.240 209.104 C 184.485 210.283,188.484 213.783,190.396 217.991 C 191.725 220.918,191.967 223.764,191.994 236.800 C 192.044 261.428,194.917 269.276,209.021 283.315 C 218.442 292.693,224.851 296.727,236.373 300.531 C 243.653 302.934,245.568 303.213,255.147 303.262 C 267.618 303.326,272.934 302.125,284.587 296.612 C 298.125 290.206,310.170 278.830,315.390 267.520 C 319.213 259.237,319.999 254.102,320.019 237.261 C 320.035 223.760,320.267 220.934,321.604 217.991 C 327.020 206.069,344.027 205.300,349.850 216.714 C 351.421 219.794,351.573 221.716,351.573 238.509 C 351.573 258.876,350.655 265.619,346.438 276.200 C 335.817 302.848,309.345 324.998,278.881 332.726 L 272.640 334.309 272.398 343.368 L 272.156 352.427 281.942 352.427 C 292.290 352.427,295.293 353.093,298.536 356.110 C 306.678 363.683,304.833 377.450,295.040 382.190 C 291.415 383.945,290.229 384.000,256.000 384.000 C 221.771 384.000,220.585 383.945,216.960 382.190 C 207.167 377.450,205.322 363.683,213.464 356.110 C 216.707 353.093,219.710 352.427,230.058 352.427 L 239.844 352.427 239.602 343.368 L 239.360 334.309 233.119 332.726 C 202.410 324.935,175.933 302.642,165.306 275.627 C 161.347 265.562,160.427 258.560,160.427 238.509 C 160.427 218.007,160.990 215.479,166.416 211.615 C 170.973 208.370,174.978 207.643,180.240 209.104 " stroke="none" fill-rule="evenodd" fill="black"></path></svg>