<svg xmlns="http://www.w3.org/2000/svg" width="512" height="512" viewBox="0 0 512 512"><path d="M94.293 48.208 C 93.824 48.363,92.391 48.722,91.109 49.004 C 87.982 49.693,82.789 54.366,81.366 57.773 C 79.840 61.425,79.906 66.725,81.526 70.641 C 82.462 72.904,131.074 122.064,251.126 242.154 C 343.684 334.741,420.828 411.480,422.557 412.684 C 426.974 415.761,431.077 416.514,436.189 415.188 C 446.665 412.471,451.320 399.898,445.136 391.021 C 441.737 386.141,106.595 51.543,103.680 50.119 C 100.978 48.799,95.733 47.731,94.293 48.208 M246.533 48.622 C 229.429 50.763,213.867 57.972,201.622 69.426 C 195.440 75.209,189.162 82.995,188.187 86.087 C 187.608 87.926,194.556 95.132,260.543 161.119 C 323.859 224.434,333.718 233.969,334.877 233.007 C 336.064 232.022,336.213 225.907,336.213 178.304 C 336.213 144.518,335.872 122.256,335.290 118.070 C 329.915 79.426,298.514 50.401,259.840 48.330 C 255.616 48.103,249.628 48.235,246.533 48.622 M121.600 193.613 C 117.469 195.519,114.869 198.221,113.107 202.438 C 112.040 204.992,111.788 209.494,111.794 225.893 C 111.803 253.555,113.339 266.139,118.798 283.277 C 135.160 334.643,178.247 372.343,231.467 381.860 L 239.787 383.348 239.787 407.511 L 239.787 431.674 213.904 431.944 L 188.022 432.213 183.901 434.773 C 178.669 438.025,176.197 442.506,176.258 448.630 C 176.311 453.910,179.495 459.198,184.332 462.039 C 187.251 463.754,188.554 463.791,253.867 464.035 C 304.317 464.224,321.342 464.031,324.207 463.241 C 331.602 461.202,337.268 452.435,335.795 445.313 C 334.935 441.151,331.681 436.557,327.951 434.238 C 324.735 432.239,324.359 432.210,298.453 431.944 L 272.213 431.676 272.213 407.512 L 272.213 383.348 280.533 381.860 C 291.809 379.844,303.853 376.186,314.179 371.641 C 323.742 367.433,325.973 365.822,325.973 363.129 C 325.973 361.238,306.673 341.333,304.839 341.333 C 304.331 341.333,300.943 342.524,297.310 343.978 C 254.717 361.033,205.822 349.972,174.220 316.133 C 163.752 304.924,154.578 289.485,149.898 275.200 C 145.330 261.256,144.839 257.243,144.297 229.405 L 143.787 203.236 141.215 199.538 C 136.512 192.773,128.598 190.383,121.600 193.613 M377.600 193.613 C 373.469 195.519,370.869 198.221,369.107 202.438 C 368.034 205.007,367.786 209.639,367.782 227.173 C 367.778 242.007,367.376 251.407,366.493 257.261 L 365.210 265.775 376.952 277.545 C 383.410 284.019,389.258 289.209,389.949 289.078 C 392.691 288.557,397.707 269.454,399.368 253.203 C 399.918 247.827,400.224 234.768,400.067 223.431 L 399.787 203.235 397.215 199.538 C 392.511 192.773,384.598 190.383,377.600 193.613 M176.699 215.003 C 174.786 216.186,175.948 249.471,178.196 257.856 C 182.356 273.378,189.224 285.406,200.190 296.370 C 210.899 307.077,220.222 312.585,235.402 317.169 C 241.733 319.081,244.459 319.408,254.720 319.484 C 267.217 319.577,276.488 318.207,278.323 315.995 C 279.151 314.998,270.468 305.903,229.906 265.282 C 202.722 238.057,179.883 215.451,179.154 215.044 C 178.425 214.638,177.320 214.620,176.699 215.003 " stroke="none" fill-rule="evenodd" fill="black"></path></svg>