<svg xmlns="http://www.w3.org/2000/svg" width="512" height="512" viewBox="0 0 512 512"><path d="M241.493 48.673 C 201.694 51.236,163.176 65.747,129.707 90.787 C 119.118 98.709,98.459 119.383,90.552 129.971 C 68.706 159.223,55.330 191.336,49.785 227.840 C 47.724 241.414,47.724 270.586,49.785 284.160 C 55.331 320.671,68.725 352.821,90.558 382.029 C 98.598 392.784,119.216 413.402,129.971 421.442 C 159.179 443.275,191.329 456.669,227.840 462.215 C 241.414 464.276,270.586 464.276,284.160 462.215 C 320.686 456.667,352.914 443.237,382.029 421.430 C 392.784 413.374,413.374 392.784,421.430 382.029 C 443.237 352.914,456.667 320.686,462.215 284.160 C 464.276 270.586,464.276 241.414,462.215 227.840 C 455.463 183.387,436.803 144.683,406.921 113.150 C 370.380 74.590,322.088 52.062,268.561 48.607 C 255.365 47.755,255.779 47.754,241.493 48.673 M284.160 82.308 C 319.998 88.383,351.735 104.258,377.739 129.118 C 405.349 155.513,423.300 189.800,429.832 228.618 C 431.923 241.048,431.905 271.514,429.799 283.733 C 419.921 341.032,385.307 387.989,334.011 413.679 C 285.590 437.929,226.410 437.929,177.989 413.679 C 126.525 387.905,91.775 340.650,82.174 283.382 C 80.053 270.734,80.053 241.266,82.174 228.618 C 92.715 165.745,133.739 115.017,192.849 91.764 C 205.896 86.632,221.606 82.941,239.787 80.737 C 246.454 79.928,276.372 80.988,284.160 82.308 M246.245 128.995 C 240.392 130.112,230.826 134.747,225.473 139.059 C 219.791 143.636,214.019 151.683,210.989 159.251 L 208.640 165.120 208.372 204.800 C 208.189 232.026,208.410 246.087,209.078 249.600 C 212.299 266.540,226.118 281.240,243.599 286.322 C 250.160 288.229,261.840 288.229,268.401 286.322 C 281.718 282.451,293.296 272.884,298.900 261.120 C 303.739 250.962,303.924 248.749,303.628 204.800 L 303.360 165.120 301.011 159.251 C 292.103 137.001,269.555 124.543,246.245 128.995 M170.847 209.177 C 169.304 209.622,166.554 211.473,164.737 213.290 C 159.993 218.033,159.222 222.605,159.832 242.347 C 160.240 255.533,160.683 259.517,162.525 266.534 C 170.815 298.122,198.313 323.831,233.387 332.785 L 239.360 334.309 239.602 343.368 L 239.844 352.427 229.975 352.427 C 218.665 352.427,215.882 353.257,211.869 357.828 C 205.333 365.272,207.958 377.832,216.960 382.190 C 220.585 383.945,221.771 384.000,256.000 384.000 C 290.229 384.000,291.415 383.945,295.040 382.190 C 304.042 377.832,306.667 365.272,300.131 357.828 C 296.118 353.257,293.335 352.427,282.025 352.427 L 272.156 352.427 272.398 343.368 L 272.640 334.309 278.613 332.785 C 297.284 328.018,312.906 319.160,326.667 305.534 C 337.892 294.420,345.534 281.386,349.531 266.534 C 351.633 258.728,351.800 256.805,351.896 239.360 C 351.990 222.439,351.838 220.261,350.362 217.287 C 347.057 210.629,338.305 206.827,331.472 209.082 C 327.052 210.541,321.914 215.436,320.875 219.177 C 320.399 220.891,320.002 229.205,319.992 237.653 C 319.980 248.316,319.581 254.685,318.686 258.481 C 314.289 277.135,295.153 294.906,272.457 301.413 C 263.123 304.089,248.877 304.089,239.543 301.413 C 216.847 294.906,197.711 277.135,193.314 258.481 C 192.419 254.685,192.020 248.316,192.008 237.653 C 191.998 229.205,191.612 220.932,191.150 219.269 C 189.630 213.797,181.788 208.104,176.027 208.290 C 174.722 208.333,172.391 208.731,170.847 209.177 " stroke="none" fill-rule="evenodd" fill="black"></path></svg>