<svg xmlns="http://www.w3.org/2000/svg" width="512" height="512" viewBox="0 0 512 512"><path d="M248.320 48.377 C 210.838 52.352,181.552 80.746,176.638 117.876 C 175.997 122.724,175.786 145.271,175.981 188.160 C 176.262 249.798,176.313 251.463,178.110 257.856 C 182.579 273.754,189.294 285.475,200.153 296.333 C 210.754 306.932,220.371 312.619,235.402 317.178 C 241.814 319.123,244.384 319.425,255.147 319.494 C 264.716 319.555,268.970 319.205,273.920 317.946 C 306.835 309.577,330.646 283.104,335.290 249.716 C 336.549 240.666,336.549 126.268,335.290 117.217 C 330.164 80.365,301.955 52.808,265.155 48.705 C 257.057 47.802,254.254 47.747,248.320 48.377 M121.565 193.604 C 117.463 195.467,114.031 199.306,112.606 203.624 C 111.327 207.497,111.988 251.578,113.461 260.693 C 118.556 292.225,132.261 319.228,154.410 341.377 C 175.732 362.700,203.784 377.378,231.680 381.809 C 233.557 382.108,236.149 382.561,237.440 382.817 L 239.787 383.282 239.787 407.534 L 239.787 431.787 215.680 431.807 C 202.421 431.818,190.067 432.177,188.226 432.604 C 176.166 435.401,171.981 450.368,180.795 459.182 C 182.520 460.908,185.459 462.743,187.326 463.262 C 192.078 464.581,319.922 464.581,324.674 463.262 C 326.541 462.743,329.480 460.908,331.205 459.182 C 340.019 450.368,335.834 435.401,323.774 432.604 C 321.933 432.177,309.579 431.818,296.320 431.807 L 272.213 431.787 272.213 407.534 L 272.213 383.282 274.560 382.817 C 275.851 382.561,278.443 382.108,280.320 381.809 C 296.129 379.298,314.977 372.197,330.667 362.840 C 345.203 354.171,362.950 337.660,373.086 323.376 C 385.947 305.253,394.952 283.068,398.529 260.693 C 400.005 251.462,400.676 207.507,399.400 203.641 C 396.413 194.591,386.614 189.815,378.224 193.321 C 374.008 195.083,371.306 197.682,369.400 201.813 C 368.001 204.843,367.822 207.652,367.805 226.779 C 367.793 241.481,367.380 251.037,366.508 256.845 C 360.700 295.512,333.922 329.195,297.359 343.825 C 281.662 350.106,275.902 351.122,256.000 351.122 C 236.098 351.122,230.338 350.106,214.641 343.825 C 189.853 333.907,169.020 314.999,156.812 291.340 C 146.626 271.599,144.261 259.524,144.210 226.987 C 144.180 207.678,143.998 204.842,142.600 201.813 C 138.739 193.447,129.687 189.915,121.565 193.604 " stroke="none" fill-rule="evenodd" fill="black"></path></svg>