<svg xmlns="http://www.w3.org/2000/svg" width="512" height="512" viewBox="0 0 512 512"><path d="M158.700 37.379 C 96.510 68.827,52.027 127.536,37.208 197.722 C 30.461 229.674,30.443 264.667,37.156 296.025 C 51.610 363.549,96.258 422.057,157.440 453.651 C 183.109 466.907,208.413 474.772,236.881 478.344 C 251.583 480.189,278.540 480.201,292.978 478.368 C 363.916 469.362,424.130 432.539,462.206 374.877 C 468.011 366.086,479.573 344.856,479.573 342.988 C 479.573 342.581,477.898 342.965,475.851 343.843 C 463.124 349.298,438.555 355.289,418.987 357.709 C 407.058 359.184,366.473 359.191,356.267 357.720 C 302.491 349.968,257.556 327.836,220.968 291.081 C 208.313 278.369,201.170 269.653,191.522 255.147 C 171.551 225.123,159.576 192.975,154.331 155.307 C 152.899 145.024,152.877 105.992,154.296 94.293 C 156.817 73.517,160.631 56.710,166.337 41.240 C 168.125 36.392,169.342 32.427,169.041 32.427 C 168.740 32.427,164.087 34.655,158.700 37.379 " stroke="none" fill-rule="evenodd" fill="black"></path></svg>