<svg xmlns="http://www.w3.org/2000/svg" width="512" height="512" viewBox="0 0 512 512"><path d="M163.213 36.268 C 126.944 53.405,93.796 82.314,71.229 116.489 C 37.503 167.563,24.666 231.956,36.212 292.138 C 44.971 337.795,68.785 381.686,102.508 414.328 C 149.515 459.826,213.373 483.626,277.535 479.559 C 338.574 475.691,392.471 451.337,433.530 409.072 C 445.586 396.662,450.912 390.085,460.340 375.968 C 467.682 364.974,479.033 343.098,479.861 338.347 C 481.083 331.336,475.683 322.898,468.627 320.792 C 464.132 319.451,460.915 320.084,447.568 324.939 C 427.284 332.315,405.978 335.608,378.027 335.687 C 356.294 335.747,345.833 334.534,327.253 329.797 C 249.898 310.074,192.072 247.303,178.801 168.649 C 173.085 134.772,177.037 90.483,188.475 60.220 C 192.303 50.092,192.698 46.843,190.687 42.030 C 188.994 37.977,187.198 36.038,183.287 34.043 C 177.964 31.326,172.358 31.947,163.213 36.268 " stroke="none" fill-rule="evenodd" fill="black"></path></svg>