<svg xmlns="http://www.w3.org/2000/svg" width="512" height="512" viewBox="0 0 512 512"><path d="M161.280 37.408 C 149.621 43.205,145.459 45.594,135.253 52.343 C 83.809 86.367,46.615 143.364,35.877 204.631 C 33.187 219.979,32.267 230.963,32.251 247.893 C 32.236 265.740,33.237 276.573,36.394 292.693 C 43.169 327.293,57.503 359.295,79.175 388.204 C 88.818 401.067,110.933 423.182,123.796 432.825 C 157.864 458.364,196.854 473.906,238.933 478.720 C 250.355 480.027,277.654 480.031,289.280 478.727 C 330.920 474.060,366.676 460.691,400.640 437.092 C 432.192 415.170,460.185 382.217,475.643 348.802 C 480.195 338.962,480.681 336.527,479.135 331.322 C 477.747 326.648,474.664 323.273,470.001 321.325 C 465.156 319.302,461.925 319.691,451.780 323.520 C 416.360 336.890,370.978 339.761,331.947 331.102 C 318.514 328.122,300.794 321.772,287.402 315.139 C 247.491 295.371,216.422 264.161,196.677 224.000 C 180.793 191.692,174.506 159.531,176.618 121.393 C 177.973 96.920,181.507 78.692,188.480 60.220 C 192.303 50.090,192.698 46.842,190.687 42.030 C 188.040 35.693,182.835 32.396,175.607 32.477 C 171.886 32.519,169.371 33.384,161.280 37.408 M147.291 91.460 C 144.144 111.951,143.247 139.938,145.119 159.212 C 147.855 187.389,156.792 217.136,170.342 243.164 C 206.230 312.102,276.018 359.426,352.788 366.881 C 372.062 368.753,400.049 367.856,420.540 364.709 C 425.384 363.965,429.492 363.501,429.668 363.677 C 430.371 364.380,418.413 378.938,410.618 386.871 C 383.766 414.197,349.265 433.685,312.320 442.396 C 291.492 447.307,266.519 449.122,246.108 447.209 C 153.403 438.522,78.984 367.688,66.088 275.862 C 61.908 246.101,64.816 212.171,73.971 183.893 C 86.067 146.533,111.456 109.974,141.018 87.350 C 144.858 84.412,148.144 82.153,148.321 82.330 C 148.499 82.507,148.035 86.616,147.291 91.460 " stroke="none" fill-rule="evenodd" fill="black"></path></svg>