<svg xmlns="http://www.w3.org/2000/svg" width="512" height="512" viewBox="0 0 512 512"><path d="M247.420 18.674 C 243.050 21.509,163.744 100.903,162.103 104.087 C 159.087 109.935,159.909 118.226,163.937 122.601 C 168.465 127.517,176.278 129.244,182.409 126.682 C 184.491 125.812,194.782 116.176,212.675 98.339 L 239.787 71.313 239.787 155.550 L 239.787 239.787 155.550 239.787 L 71.313 239.787 98.339 212.675 C 116.176 194.782,125.812 184.491,126.682 182.409 C 129.470 175.738,127.329 167.726,121.590 163.348 C 117.494 160.224,109.400 159.431,104.880 161.711 C 101.189 163.574,21.976 242.331,18.674 247.420 C 15.204 252.770,15.204 259.230,18.674 264.580 C 21.509 268.950,100.903 348.256,104.087 349.897 C 109.935 352.913,118.226 352.091,122.601 348.063 C 127.517 343.535,129.244 335.722,126.682 329.591 C 125.812 327.509,116.176 317.218,98.339 299.325 L 71.313 272.213 155.550 272.213 L 239.787 272.213 239.787 356.462 L 239.787 440.710 213.547 414.622 C 199.115 400.273,186.091 387.702,184.606 386.687 C 178.653 382.617,169.456 383.704,164.300 389.086 C 159.939 393.637,158.980 401.856,162.103 407.913 C 163.744 411.097,243.050 490.491,247.420 493.326 C 252.770 496.796,259.230 496.796,264.580 493.326 C 268.950 490.491,348.256 411.097,349.897 407.913 C 352.913 402.065,352.091 393.774,348.063 389.399 C 343.482 384.425,335.462 382.706,329.516 385.424 C 327.653 386.276,315.501 397.677,299.307 413.768 L 272.213 440.687 272.213 356.450 L 272.213 272.213 356.450 272.213 L 440.687 272.213 413.661 299.325 C 395.824 317.218,386.188 327.509,385.318 329.591 C 382.756 335.722,384.483 343.535,389.399 348.063 C 393.774 352.091,402.065 352.913,407.913 349.897 C 411.097 348.256,490.491 268.950,493.326 264.580 C 495.295 261.544,495.787 259.829,495.787 256.000 C 495.787 252.171,495.295 250.456,493.326 247.420 C 490.024 242.331,410.811 163.574,407.120 161.711 C 402.600 159.431,394.506 160.224,390.410 163.348 C 384.671 167.726,382.530 175.738,385.318 182.409 C 386.188 184.491,395.824 194.782,413.661 212.675 L 440.687 239.787 356.450 239.787 L 272.213 239.787 272.213 155.550 L 272.213 71.313 299.325 98.339 C 317.218 116.176,327.509 125.812,329.591 126.682 C 335.722 129.244,343.535 127.517,348.063 122.601 C 352.091 118.226,352.913 109.935,349.897 104.087 C 348.256 100.903,268.950 21.509,264.580 18.674 C 261.544 16.705,259.829 16.213,256.000 16.213 C 252.171 16.213,250.456 16.705,247.420 18.674 " stroke="none" fill="black" fill-rule="evenodd"></path></svg>