<svg xmlns="http://www.w3.org/2000/svg" width="512" height="512" viewBox="0 0 512 512"><path d="M301.227 46.977 C 270.955 54.887,244.292 62.240,241.976 63.319 C 233.006 67.497,226.141 76.844,224.467 87.158 C 223.890 90.715,223.584 136.515,223.580 220.031 C 223.574 333.229,223.426 347.786,222.254 350.256 C 219.473 356.116,217.726 356.972,187.307 367.370 C 171.349 372.825,155.945 378.596,153.076 380.195 C 143.180 385.706,134.582 396.234,130.452 407.893 C 127.852 415.234,127.645 431.161,130.046 439.040 C 138.047 465.294,163.439 482.484,189.846 479.523 C 197.754 478.636,225.042 469.718,231.962 465.759 C 239.471 461.463,246.909 453.334,250.810 445.163 C 252.641 441.326,254.558 436.152,255.070 433.665 C 255.716 430.521,256.000 391.029,256.000 304.144 C 256.000 193.251,256.149 178.788,257.321 175.984 C 258.872 172.271,261.512 169.260,264.646 167.629 C 265.881 166.987,288.864 160.894,315.721 154.089 C 355.814 143.931,365.259 141.263,368.515 139.173 C 375.823 134.483,380.693 127.973,382.793 120.085 C 384.605 113.279,384.524 52.189,382.696 46.824 C 380.881 41.497,377.101 37.235,371.887 34.637 C 363.994 30.704,362.535 30.958,301.227 46.977 M351.374 89.761 L 351.147 112.109 303.559 124.159 L 255.972 136.209 256.199 113.971 L 256.427 91.733 302.933 79.632 C 328.512 72.976,349.926 67.504,350.521 67.472 C 351.373 67.426,351.553 72.152,351.374 89.761 M223.573 408.781 C 223.573 426.665,223.421 428.739,221.890 431.740 C 220.965 433.554,219.217 435.818,218.007 436.770 C 216.797 437.722,209.248 440.687,201.231 443.359 C 188.224 447.694,186.116 448.168,181.647 447.763 C 173.257 447.002,165.658 441.232,161.922 432.788 C 160.630 429.867,160.322 427.612,160.562 422.844 C 160.932 415.530,163.458 411.088,169.028 407.958 C 171.792 406.404,220.514 389.438,222.933 389.187 C 223.285 389.150,223.573 397.967,223.573 408.781 " stroke="none" fill-rule="evenodd" fill="black"></path></svg>