<svg xmlns="http://www.w3.org/2000/svg" width="512" height="512" viewBox="0 0 512 512"><path d="M302.071 51.496 C 260.060 61.893,225.212 70.711,224.631 71.090 C 223.797 71.635,223.573 101.688,223.573 213.292 C 223.573 325.718,223.354 354.887,222.507 355.207 C 221.920 355.429,208.960 360.127,193.707 365.647 C 154.803 379.727,145.369 384.707,137.569 395.284 C 127.255 409.268,125.061 431.792,132.183 450.560 C 136.125 460.947,147.451 472.140,158.506 476.574 C 174.697 483.067,200.576 480.090,222.102 469.257 C 229.774 465.397,243.978 455.672,248.391 451.260 C 256.231 443.422,255.543 457.143,255.802 303.546 L 256.031 168.053 257.935 167.331 C 258.983 166.933,287.296 159.388,320.853 150.562 C 354.411 141.737,382.347 134.155,382.933 133.713 C 383.766 133.087,384.000 121.866,384.000 82.669 L 384.000 32.427 381.227 32.509 C 379.701 32.555,344.081 41.099,302.071 51.496 " stroke="none" fill-rule="evenodd" fill="black"></path></svg>