<svg xmlns="http://www.w3.org/2000/svg" width="512" height="512" viewBox="0 0 512 512"><path d="M301.227 46.942 C 240.151 62.853,237.929 63.634,231.578 71.426 C 229.622 73.824,227.117 78.031,226.011 80.773 L 224.000 85.760 223.573 217.600 L 223.147 349.440 221.319 352.000 C 220.313 353.408,218.745 355.234,217.832 356.059 C 216.920 356.883,203.180 361.984,187.299 367.394 C 171.419 372.804,156.178 378.428,153.432 379.892 C 134.808 389.818,124.526 413.183,129.239 434.870 C 131.671 446.057,136.426 454.790,144.509 462.910 C 148.336 466.754,153.579 471.084,156.160 472.532 C 166.407 478.280,179.173 480.920,190.073 479.547 C 197.382 478.626,220.502 471.276,229.452 467.028 C 241.280 461.414,251.550 448.426,254.688 435.112 C 255.804 430.378,255.976 413.014,255.987 304.399 C 255.999 193.295,256.149 178.788,257.321 175.984 C 258.872 172.271,261.512 169.260,264.646 167.629 C 265.881 166.987,288.864 160.894,315.721 154.089 C 368.588 140.695,369.116 140.510,375.946 132.949 C 377.668 131.044,380.088 127.327,381.325 124.689 L 383.573 119.893 383.832 85.475 C 384.116 47.521,383.964 46.117,378.875 39.943 C 377.471 38.241,374.327 35.853,371.887 34.637 C 364.015 30.714,362.524 30.974,301.227 46.942 " stroke="none" fill-rule="evenodd" fill="black"></path></svg>