<svg xmlns="http://www.w3.org/2000/svg" width="512" height="512" viewBox="0 0 512 512"><path d="M302.847 68.112 C 234.511 87.675,177.969 104.206,177.196 104.849 C 175.907 105.922,175.775 116.209,175.576 231.071 L 175.360 356.124 172.800 356.951 C 154.237 362.943,121.593 374.684,115.522 377.551 C 90.997 389.137,80.186 403.827,80.228 425.510 C 80.259 441.021,84.731 453.109,94.110 463.025 C 103.032 472.457,113.338 477.539,127.556 479.517 C 133.200 480.302,135.301 480.188,142.580 478.705 C 160.043 475.146,177.613 468.197,190.023 459.939 C 199.267 453.788,203.608 449.358,205.875 443.761 L 207.787 439.040 208.213 320.106 L 208.640 201.173 302.507 175.237 C 354.133 160.972,397.141 149.405,398.080 149.531 C 399.771 149.758,399.789 150.488,400.004 228.372 C 400.177 290.638,399.999 307.153,399.151 307.799 C 398.562 308.247,386.560 312.580,372.480 317.427 C 334.107 330.637,326.528 334.193,316.976 343.467 C 307.672 352.500,302.989 365.821,304.091 380.121 C 306.053 405.587,320.849 424.737,343.040 430.529 C 351.166 432.650,369.633 431.856,380.160 428.932 C 393.824 425.138,405.458 419.408,418.744 409.927 C 424.786 405.615,427.676 402.184,429.850 396.741 C 431.275 393.172,431.373 382.840,431.585 212.693 L 431.810 32.427 429.452 32.486 C 428.155 32.518,371.182 48.550,302.847 68.112 " stroke="none" fill-rule="evenodd" fill="black"></path></svg>