<svg xmlns="http://www.w3.org/2000/svg" width="512" height="512" viewBox="0 0 512 512"><path d="M299.520 59.664 C 244.373 74.551,197.909 87.186,196.267 87.741 C 191.648 89.302,185.075 94.727,181.568 99.871 C 175.471 108.812,175.787 101.648,175.787 231.233 C 175.787 343.100,175.723 347.878,174.204 350.712 C 171.213 356.289,168.057 357.824,139.093 367.794 C 123.840 373.044,108.864 378.550,105.813 380.030 C 98.379 383.635,90.063 391.946,85.953 399.875 C 81.928 407.642,80.242 414.906,80.226 424.550 C 80.172 457.575,109.415 483.558,142.041 479.473 C 149.223 478.574,175.769 469.521,183.891 465.201 C 190.547 461.662,198.918 452.771,202.557 445.377 C 208.426 433.451,208.182 438.972,208.199 317.619 C 208.213 210.262,208.246 208.081,209.901 204.838 C 212.100 200.527,215.015 198.538,222.304 196.379 C 233.743 192.989,394.879 150.187,396.200 150.187 C 396.932 150.187,398.135 150.790,398.872 151.528 C 400.070 152.726,400.213 160.532,400.209 224.701 C 400.205 271.480,399.896 297.640,399.322 299.707 C 398.290 303.426,394.967 307.641,391.792 309.259 C 390.557 309.888,376.875 314.903,361.387 320.403 C 345.899 325.903,331.115 331.587,328.533 333.034 C 325.952 334.482,321.293 338.237,318.179 341.379 C 301.898 357.813,299.414 383.833,312.085 405.227 C 318.942 416.804,332.726 427.008,346.150 430.445 C 352.747 432.133,365.609 432.178,371.930 430.534 C 379.559 428.550,404.320 419.240,408.650 416.728 C 414.712 413.210,423.489 403.811,426.585 397.522 C 432.128 386.263,431.765 398.795,431.777 217.965 C 431.788 30.476,432.556 48.429,424.170 40.043 C 420.933 36.807,418.070 34.830,415.208 33.857 C 406.236 30.806,407.282 30.573,299.520 59.664 " stroke="none" fill-rule="evenodd" fill="black"></path></svg>