<svg xmlns="http://www.w3.org/2000/svg" width="512" height="512" viewBox="0 0 512 512"><path d="M397.653 33.410 C 396.011 33.866,350.351 46.143,296.187 60.692 C 238.367 76.224,195.944 88.039,193.437 89.310 C 188.384 91.870,181.802 98.363,179.640 102.919 C 175.716 111.188,175.808 108.146,175.797 231.067 C 175.788 327.901,175.590 347.821,174.612 350.107 C 172.124 355.921,169.805 357.105,142.436 366.541 C 111.409 377.238,106.850 379.060,100.573 383.269 C 94.059 387.637,89.316 393.324,85.370 401.493 C 81.413 409.689,80.213 415.025,80.213 424.439 C 80.213 449.732,97.627 472.174,121.948 478.223 C 136.741 481.903,146.496 480.245,174.520 469.289 C 191.447 462.670,201.340 452.485,206.385 436.480 C 207.571 432.718,207.784 418.898,208.185 319.573 C 208.636 207.951,208.656 206.906,210.390 203.947 C 211.353 202.304,213.657 200.128,215.510 199.111 C 218.526 197.455,393.184 150.187,396.284 150.187 C 396.984 150.187,398.154 151.040,398.885 152.083 C 400.062 153.763,400.213 162.121,400.209 225.257 C 400.205 271.654,399.896 297.641,399.322 299.707 C 398.291 303.420,394.973 307.633,391.792 309.269 C 390.557 309.904,379.563 313.960,367.360 318.284 C 355.157 322.607,341.756 327.458,337.579 329.062 C 321.763 335.137,311.567 345.529,306.282 360.960 C 304.816 365.240,304.368 368.552,304.321 375.467 C 304.207 392.041,309.027 403.807,320.778 415.646 C 328.738 423.665,335.835 427.804,346.150 430.445 C 353.450 432.313,365.950 432.191,372.973 430.183 C 384.116 426.996,403.320 419.605,408.834 416.381 C 419.076 410.393,427.344 399.336,430.528 387.375 C 431.590 383.383,431.768 359.243,431.777 217.965 C 431.788 33.100,432.367 48.904,425.289 41.032 C 419.842 34.974,414.235 32.407,406.659 32.504 C 403.349 32.546,399.296 32.954,397.653 33.410 M400.213 91.544 L 400.213 117.382 393.173 118.378 C 387.481 119.184,214.979 164.755,209.694 166.849 C 208.272 167.413,208.200 166.043,208.414 142.392 L 208.640 117.338 304.213 91.581 C 356.779 77.414,399.883 65.797,400.000 65.765 C 400.117 65.733,400.213 77.334,400.213 91.544 M400.209 359.040 C 400.206 369.325,399.809 378.169,399.262 380.141 C 397.506 386.464,393.659 389.107,378.027 394.726 C 366.151 398.994,363.078 399.781,358.400 399.747 C 351.769 399.700,347.385 397.703,342.817 392.646 C 338.325 387.675,336.861 384.306,336.402 377.889 C 335.917 371.112,338.064 365.652,342.566 362.218 C 345.192 360.215,395.575 341.535,398.720 341.398 C 400.096 341.338,400.213 342.719,400.209 359.040 M175.616 409.455 L 175.360 429.791 172.969 432.923 C 170.030 436.773,168.736 437.451,153.920 442.905 C 136.530 449.306,129.680 449.426,121.868 443.467 C 111.459 435.528,108.885 418.909,116.879 411.254 C 119.638 408.613,123.616 406.973,147.280 398.724 C 162.255 393.503,174.814 389.207,175.190 389.176 C 175.565 389.145,175.757 398.271,175.616 409.455 " stroke="none" fill-rule="evenodd" fill="black"></path></svg>