<svg xmlns="http://www.w3.org/2000/svg" width="512" height="512" viewBox="0 0 512 512"><path d="M241.493 48.632 C 206.738 51.017,171.801 62.745,142.933 81.718 C 128.585 91.149,120.680 97.613,108.343 110.003 C 91.556 126.864,78.221 145.748,68.219 166.827 C 46.496 212.602,42.128 264.444,55.943 312.506 C 76.100 382.635,130.610 436.733,201.051 456.521 C 248.226 469.773,299.811 465.232,345.124 443.839 C 387.146 424.000,423.561 387.678,443.573 345.640 C 469.519 291.139,470.759 229.452,447.019 174.126 C 431.508 137.977,405.897 106.938,372.907 84.308 C 346.166 65.965,315.080 54.076,283.273 50.026 C 270.229 48.366,253.508 47.808,241.493 48.632 M348.672 163.328 C 354.161 168.817,355.997 163.818,310.999 265.914 C 288.683 316.547,269.636 359.616,268.672 361.623 C 265.896 367.402,259.263 369.518,253.412 366.492 C 248.235 363.815,248.320 364.693,248.320 313.805 C 248.320 278.024,248.076 267.095,247.253 265.998 C 246.285 264.707,241.881 264.555,199.253 264.342 C 156.262 264.126,152.088 263.980,149.561 262.599 C 146.116 260.716,144.213 257.138,144.213 252.544 C 144.213 246.605,146.882 244.807,172.373 233.569 C 184.811 228.086,227.051 209.415,266.240 192.077 C 345.939 156.817,343.138 157.794,348.672 163.328 " stroke="none" fill-rule="evenodd" fill="black"></path></svg>