<svg xmlns="http://www.w3.org/2000/svg" width="512" height="512" viewBox="0 0 512 512"><path d="M444.160 48.601 C 440.706 49.513,56.677 225.803,54.104 227.657 C 51.528 229.514,47.787 236.813,47.787 239.982 C 47.787 245.535,51.754 251.505,57.353 254.376 C 60.408 255.943,63.806 256.000,154.888 256.000 C 257.428 256.000,252.754 255.782,254.981 260.669 C 255.751 262.360,256.005 285.889,256.019 356.947 C 256.037 446.338,256.115 451.157,257.604 454.435 C 263.319 467.017,280.046 467.154,286.372 454.672 C 287.562 452.323,327.933 364.516,376.085 259.547 C 457.524 82.012,463.638 68.365,463.696 63.993 C 463.739 60.723,463.231 58.390,462.025 56.325 C 458.579 50.424,450.493 46.928,444.160 48.601 " stroke="none" fill-rule="evenodd" fill="black"></path></svg>