<svg xmlns="http://www.w3.org/2000/svg" width="512" height="512" viewBox="0 0 512 512"><path d="M241.493 48.673 C 201.694 51.236,163.176 65.747,129.707 90.787 C 119.118 98.709,98.459 119.383,90.552 129.971 C 68.706 159.223,55.330 191.336,49.785 227.840 C 47.724 241.414,47.724 270.586,49.785 284.160 C 55.331 320.671,68.725 352.821,90.558 382.029 C 98.598 392.784,119.216 413.402,129.971 421.442 C 159.179 443.275,191.329 456.669,227.840 462.215 C 241.414 464.276,270.586 464.276,284.160 462.215 C 320.686 456.667,352.914 443.237,382.029 421.430 C 392.784 413.374,413.374 392.784,421.430 382.029 C 443.237 352.914,456.667 320.686,462.215 284.160 C 464.276 270.586,464.276 241.414,462.215 227.840 C 455.463 183.387,436.803 144.683,406.921 113.150 C 370.380 74.590,322.088 52.062,268.561 48.607 C 255.365 47.755,255.779 47.754,241.493 48.673 M284.160 82.308 C 319.998 88.383,351.735 104.258,377.739 129.118 C 405.349 155.513,423.300 189.800,429.832 228.618 C 431.923 241.048,431.905 271.514,429.799 283.733 C 419.921 341.032,385.307 387.989,334.011 413.679 C 285.590 437.929,226.410 437.929,177.989 413.679 C 126.525 387.905,91.775 340.650,82.174 283.382 C 80.053 270.734,80.053 241.266,82.174 228.618 C 92.715 165.745,133.739 115.017,192.849 91.764 C 205.896 86.632,221.606 82.941,239.787 80.737 C 246.454 79.928,276.372 80.988,284.160 82.308 M262.400 193.781 C 221.099 212.057,178.859 230.732,168.533 235.282 C 147.127 244.715,144.213 246.782,144.213 252.544 C 144.213 257.138,146.116 260.716,149.561 262.599 C 152.088 263.980,156.287 264.127,199.501 264.354 L 246.682 264.602 247.501 266.756 C 247.987 268.036,248.320 287.456,248.320 314.551 C 248.320 353.678,248.505 360.549,249.614 362.695 C 252.810 368.875,263.729 369.612,267.472 363.900 C 269.028 361.525,351.119 175.248,351.791 172.566 C 352.566 169.474,350.888 164.987,348.070 162.615 C 342.701 158.098,344.625 157.398,262.400 193.781 " stroke="none" fill-rule="evenodd" fill="black"></path></svg>