<svg xmlns="http://www.w3.org/2000/svg" width="512" height="512" viewBox="0 0 512 512"><path d="M242.347 48.655 C 199.748 51.446,160.004 66.871,125.867 93.862 C 122.112 96.831,114.227 104.095,108.343 110.003 C 75.635 142.854,56.069 183.196,49.330 231.680 C 48.743 235.904,48.262 246.848,48.262 256.000 C 48.262 265.152,48.743 276.096,49.330 280.320 C 56.139 329.307,75.750 369.438,109.179 402.796 C 142.845 436.389,182.680 455.859,231.680 462.670 C 235.904 463.257,246.848 463.738,256.000 463.738 C 265.152 463.738,276.096 463.257,280.320 462.670 C 329.321 455.859,369.272 436.331,402.802 402.802 C 436.331 369.272,455.859 329.321,462.670 280.320 C 464.046 270.420,464.046 241.580,462.670 231.680 C 455.892 182.914,436.342 142.776,403.220 109.623 C 391.401 97.792,382.569 90.546,369.558 82.006 C 332.139 57.444,287.366 45.706,242.347 48.655 M359.825 154.667 C 358.744 157.131,333.309 214.960,303.303 283.176 L 248.747 407.205 248.528 335.869 L 248.310 264.533 175.995 264.483 C 120.649 264.445,104.024 264.200,105.146 263.438 C 106.634 262.428,360.007 150.432,361.163 150.273 C 361.509 150.226,360.907 152.203,359.825 154.667 " stroke="none" fill-rule="evenodd" fill="black"></path></svg>