<svg xmlns="http://www.w3.org/2000/svg" width="512" height="512" viewBox="0 0 512 512"><path d="M443.307 48.970 C 438.391 50.587,56.555 225.889,54.115 227.649 C 51.450 229.571,47.787 236.844,47.787 240.213 C 47.787 244.218,51.578 251.005,55.176 253.440 L 58.328 255.573 157.150 255.797 L 255.972 256.021 256.199 354.918 L 256.427 453.815 259.030 457.094 C 266.864 466.961,280.210 466.038,286.010 455.229 C 290.904 446.109,463.311 68.966,463.816 66.278 C 465.873 55.312,454.135 45.406,443.307 48.970 M414.378 98.648 C 414.089 99.401,385.728 161.385,351.353 236.391 L 288.853 372.765 288.427 308.196 C 287.957 237.054,288.205 240.222,282.543 233.074 C 280.921 231.025,277.731 228.599,274.606 227.038 L 269.381 224.427 203.668 224.427 C 167.526 224.427,138.193 224.190,138.482 223.900 C 139.173 223.209,413.218 97.394,414.171 97.329 C 414.574 97.302,414.666 97.896,414.378 98.648 " stroke="none" fill-rule="evenodd" fill="black"></path></svg>