<svg xmlns="http://www.w3.org/2000/svg" width="512" height="512" viewBox="0 0 512 512"><path d="M35.963 35.627 C 33.095 38.357,32.519 39.516,32.043 43.520 C 31.737 46.101,31.604 134.613,31.749 240.213 C 32.044 455.900,31.367 435.027,38.541 449.678 C 43.468 459.738,52.255 468.528,62.322 473.463 C 76.900 480.609,58.854 480.000,255.929 480.000 C 382.987 480.000,431.304 479.741,431.532 479.058 C 431.704 478.540,428.995 477.077,425.510 475.806 C 404.656 468.200,388.323 448.180,384.939 426.077 C 384.277 421.750,384.000 364.152,384.000 230.792 C 384.000 21.054,384.472 37.853,378.475 34.147 C 375.709 32.437,374.641 32.427,207.509 32.427 L 39.325 32.427 35.963 35.627 M192.000 160.000 L 192.000 208.213 144.213 208.213 L 96.427 208.213 96.427 160.000 L 96.427 111.787 144.213 111.787 L 192.000 111.787 192.000 160.000 M320.000 128.000 L 320.000 144.213 272.213 144.213 L 224.427 144.213 224.427 128.000 L 224.427 111.787 272.213 111.787 L 320.000 111.787 320.000 128.000 M416.185 112.313 C 415.137 113.361,415.446 415.416,416.501 421.177 C 418.431 431.713,425.440 440.756,435.200 445.300 C 439.199 447.162,441.092 447.485,448.000 447.485 C 454.908 447.485,456.801 447.162,460.800 445.300 C 470.766 440.660,477.687 431.570,479.542 420.689 C 480.214 416.746,480.416 372.631,480.243 267.796 C 480.000 120.491,479.999 120.444,478.241 118.089 C 477.273 116.793,475.422 114.940,474.126 113.973 C 471.880 112.295,470.503 112.202,444.284 111.957 C 429.166 111.816,416.522 111.976,416.185 112.313 M320.000 192.000 L 320.000 208.213 272.213 208.213 L 224.427 208.213 224.427 192.000 L 224.427 175.787 272.213 175.787 L 320.000 175.787 320.000 192.000 M320.000 256.000 L 320.000 272.213 208.213 272.213 L 96.427 272.213 96.427 256.000 L 96.427 239.787 208.213 239.787 L 320.000 239.787 320.000 256.000 M320.000 320.000 L 320.000 336.213 208.213 336.213 L 96.427 336.213 96.427 320.000 L 96.427 303.787 208.213 303.787 L 320.000 303.787 320.000 320.000 M320.000 384.000 L 320.000 400.213 208.213 400.213 L 96.427 400.213 96.427 384.000 L 96.427 367.787 208.213 367.787 L 320.000 367.787 320.000 384.000 " stroke="none" fill-rule="evenodd" fill="black"></path></svg>