<svg xmlns="http://www.w3.org/2000/svg" width="512" height="512" viewBox="0 0 512 512"><path d="M58.857 34.365 C 44.619 39.232,34.391 51.888,32.381 67.126 C 31.791 71.606,31.590 133.114,31.775 253.440 C 32.036 423.625,32.132 433.336,33.590 438.187 C 39.570 458.082,53.925 472.436,73.813 478.409 C 78.656 479.863,87.991 479.961,246.187 480.224 C 358.370 480.411,416.189 480.209,421.788 479.612 C 437.993 477.883,450.492 471.902,461.568 460.577 C 472.212 449.694,477.805 437.911,479.547 422.701 C 480.724 412.430,480.711 154.528,479.533 146.347 C 477.087 129.351,463.225 115.305,446.293 112.664 C 443.243 112.189,427.979 111.797,412.373 111.793 L 384.000 111.787 384.000 89.353 C 384.000 64.965,383.424 60.623,379.149 52.768 C 375.875 46.754,367.236 38.857,360.373 35.607 L 354.560 32.853 209.493 32.657 L 64.427 32.461 58.857 34.365 M349.352 66.477 L 351.535 68.528 351.771 246.957 L 352.008 425.387 353.837 431.787 C 354.843 435.307,356.646 440.399,357.844 443.103 L 360.022 448.020 220.757 447.797 L 81.493 447.573 76.943 445.053 C 71.972 442.299,69.194 439.417,66.306 434.019 L 64.427 430.507 64.201 250.880 C 64.033 116.782,64.225 70.650,64.959 68.872 C 67.077 63.744,57.788 64.043,208.785 64.243 L 347.169 64.427 349.352 66.477 M108.679 112.579 C 104.249 113.671,100.325 116.607,98.101 120.491 L 96.000 124.160 96.000 160.067 L 96.000 195.974 98.560 200.096 C 100.153 202.662,102.409 204.893,104.533 206.003 C 107.805 207.713,109.377 207.798,142.507 208.049 C 179.433 208.329,181.375 208.156,186.110 204.173 C 191.907 199.295,191.960 198.893,191.981 160.186 C 192.001 122.782,191.897 121.782,187.479 117.051 C 182.923 112.171,183.383 112.226,145.920 112.065 C 126.912 111.984,110.154 112.215,108.679 112.579 M236.447 112.386 C 232.669 113.137,227.906 116.846,226.052 120.479 C 222.251 127.930,224.848 137.416,231.886 141.792 L 235.093 143.787 270.933 144.026 L 306.773 144.266 310.564 142.319 C 312.649 141.249,315.529 138.898,316.964 137.094 C 319.298 134.161,319.573 133.202,319.573 128.000 C 319.573 122.768,319.308 121.857,316.923 118.906 C 311.333 111.990,312.850 112.228,273.493 112.095 C 254.251 112.029,237.580 112.160,236.447 112.386 M445.179 146.273 L 447.573 148.332 447.573 286.006 L 447.573 423.680 445.185 428.800 C 442.051 435.520,435.479 442.120,428.889 445.166 C 424.395 447.243,422.625 447.573,416.000 447.573 C 409.375 447.573,407.605 447.243,403.111 445.166 C 396.521 442.120,389.949 435.520,386.815 428.800 L 384.427 423.680 384.198 283.947 L 383.970 144.213 413.378 144.213 L 442.785 144.213 445.179 146.273 M236.447 176.386 C 232.669 177.137,227.906 180.846,226.052 184.479 C 222.251 191.930,224.848 201.416,231.886 205.792 L 235.093 207.787 270.933 208.026 L 306.773 208.266 310.564 206.319 C 312.649 205.249,315.529 202.898,316.964 201.094 C 319.298 198.161,319.573 197.202,319.573 192.000 C 319.573 186.768,319.308 185.857,316.923 182.906 C 311.333 175.990,312.850 176.228,273.493 176.095 C 254.251 176.029,237.580 176.160,236.447 176.386 M108.447 240.399 C 104.689 241.122,99.910 244.838,98.052 248.479 C 94.251 255.930,96.848 265.416,103.886 269.792 L 107.093 271.787 206.938 272.014 L 306.783 272.241 310.569 270.307 C 312.651 269.243,315.529 266.898,316.964 265.094 C 319.298 262.161,319.573 261.202,319.573 256.000 C 319.573 250.768,319.308 249.857,316.923 246.906 C 315.465 245.102,312.969 242.859,311.376 241.920 C 308.528 240.241,306.848 240.212,209.493 240.108 C 155.051 240.049,109.580 240.180,108.447 240.399 M108.447 304.399 C 104.689 305.122,99.910 308.838,98.052 312.479 C 94.251 319.930,96.848 329.416,103.886 333.792 L 107.093 335.787 206.938 336.014 L 306.783 336.241 310.569 334.307 C 312.651 333.243,315.529 330.898,316.964 329.094 C 319.298 326.161,319.573 325.202,319.573 320.000 C 319.573 314.768,319.308 313.857,316.923 310.906 C 315.465 309.102,312.969 306.859,311.376 305.920 C 308.528 304.241,306.848 304.212,209.493 304.108 C 155.051 304.049,109.580 304.180,108.447 304.399 M108.447 368.399 C 104.689 369.122,99.910 372.838,98.052 376.479 C 94.251 383.930,96.848 393.416,103.886 397.792 L 107.093 399.787 206.938 400.014 L 306.783 400.241 310.569 398.307 C 312.651 397.243,315.529 394.898,316.964 393.094 C 319.298 390.161,319.573 389.202,319.573 384.000 C 319.573 378.768,319.308 377.857,316.923 374.906 C 315.465 373.102,312.969 370.859,311.376 369.920 C 308.528 368.241,306.848 368.212,209.493 368.108 C 155.051 368.049,109.580 368.180,108.447 368.399 " stroke="none" fill-rule="evenodd" fill="black"></path></svg>