<svg xmlns="http://www.w3.org/2000/svg" width="512" height="512" viewBox="0 0 512 512"><path d="M61.013 33.619 C 47.348 37.984,37.174 48.218,33.595 61.202 C 32.060 66.768,32.000 73.880,32.000 249.173 C 32.000 454.008,31.383 435.085,38.537 449.678 C 43.470 459.740,52.260 468.530,62.322 473.463 C 76.900 480.609,58.854 480.000,255.929 480.000 C 382.987 480.000,431.304 479.741,431.532 479.058 C 431.704 478.540,428.995 477.077,425.510 475.806 C 404.656 468.200,388.323 448.180,384.939 426.077 C 384.279 421.761,383.997 367.554,383.990 243.463 C 383.979 51.483,384.272 63.221,379.246 53.288 C 375.889 46.653,368.556 39.717,360.960 35.992 L 354.560 32.853 209.493 32.691 C 93.756 32.561,63.737 32.749,61.013 33.619 M183.040 113.626 C 186.525 115.548,189.102 118.448,190.679 122.224 C 191.799 124.905,191.997 130.676,191.981 160.186 C 191.960 198.893,191.907 199.295,186.110 204.173 C 181.375 208.156,179.433 208.329,142.507 208.049 C 103.039 207.749,103.421 207.814,98.872 200.641 L 96.427 196.786 96.427 160.162 C 96.427 123.951,96.448 123.501,98.314 120.181 C 100.335 116.585,104.337 113.650,108.679 112.579 C 110.154 112.215,126.912 111.984,145.920 112.065 C 176.297 112.195,180.790 112.384,183.040 113.626 M307.183 112.709 C 322.427 116.222,324.418 136.032,310.187 142.600 C 307.048 144.049,303.987 144.177,272.168 144.195 L 237.562 144.213 233.336 142.108 C 219.816 135.370,221.999 116.101,236.679 112.601 C 240.869 111.602,302.789 111.697,307.183 112.709 M416.142 112.356 C 415.122 113.375,415.473 415.568,416.501 421.177 C 418.431 431.713,425.440 440.756,435.200 445.300 C 439.199 447.162,441.092 447.485,448.000 447.485 C 454.908 447.485,456.801 447.162,460.800 445.300 C 470.762 440.662,477.681 431.579,479.547 420.689 C 480.225 416.735,480.426 376.391,480.249 279.893 L 480.000 144.640 478.076 139.589 C 472.460 124.843,460.344 114.716,445.867 112.666 C 439.136 111.713,417.016 111.482,416.142 112.356 M307.183 176.709 C 322.427 180.222,324.418 200.032,310.187 206.600 C 307.048 208.049,303.987 208.177,272.168 208.195 L 237.562 208.213 233.336 206.108 C 219.816 199.370,221.999 180.101,236.679 176.601 C 240.869 175.602,302.789 175.697,307.183 176.709 M307.183 240.709 C 322.427 244.222,324.418 264.032,310.187 270.600 C 306.931 272.103,302.210 272.177,208.168 272.195 L 109.562 272.213 105.336 270.108 C 91.816 263.370,93.999 244.101,108.679 240.601 C 112.970 239.577,302.721 239.681,307.183 240.709 M307.183 304.709 C 322.427 308.222,324.418 328.032,310.187 334.600 C 306.931 336.103,302.210 336.177,208.168 336.195 L 109.562 336.213 105.336 334.108 C 91.816 327.370,93.999 308.101,108.679 304.601 C 112.970 303.577,302.721 303.681,307.183 304.709 M307.183 368.709 C 322.427 372.222,324.418 392.032,310.187 398.600 C 306.931 400.103,302.210 400.177,208.168 400.195 L 109.562 400.213 105.336 398.108 C 91.816 391.370,93.999 372.101,108.679 368.601 C 112.970 367.577,302.721 367.681,307.183 368.709 " stroke="none" fill-rule="evenodd" fill="black"></path></svg>