<svg xmlns="http://www.w3.org/2000/svg" width="512" height="512" viewBox="0 0 512 512"><path d="M241.920 48.669 C 177.359 52.784,118.768 87.102,81.958 142.362 C 55.666 181.831,43.309 234.683,49.503 281.173 C 55.829 328.652,75.879 369.527,109.176 402.824 C 142.702 436.350,182.619 455.851,231.680 462.670 C 235.904 463.257,246.848 463.738,256.000 463.738 C 265.152 463.738,276.096 463.257,280.320 462.670 C 329.321 455.859,369.272 436.331,402.802 402.802 C 436.331 369.272,455.859 329.321,462.670 280.320 C 464.046 270.420,464.046 241.580,462.670 231.680 C 455.892 182.914,436.342 142.776,403.220 109.623 C 391.401 97.792,382.569 90.546,369.558 82.006 C 331.997 57.351,287.606 45.757,241.920 48.669 M266.839 130.532 C 272.762 133.080,279.291 140.078,282.599 147.424 C 284.023 150.586,285.796 153.858,286.540 154.696 C 287.283 155.533,291.755 158.106,296.479 160.412 C 317.060 170.462,328.632 184.493,334.142 206.080 C 335.975 213.261,336.445 217.724,337.110 234.240 C 337.978 255.792,338.877 264.131,341.415 274.173 C 344.515 286.437,348.019 292.715,358.997 305.676 C 362.462 309.766,365.854 314.182,366.536 315.489 C 370.084 322.291,365.792 332.411,358.131 335.306 C 356.484 335.928,324.326 336.213,255.787 336.213 C 157.828 336.213,155.777 336.180,152.376 334.519 C 147.664 332.218,144.867 327.866,144.387 322.089 C 143.938 316.670,144.260 316.061,153.180 305.493 C 170.115 285.427,173.242 275.167,174.890 234.240 C 175.555 217.724,176.025 213.261,177.858 206.080 C 183.368 184.493,194.940 170.462,215.521 160.412 C 220.245 158.106,224.717 155.533,225.460 154.696 C 226.204 153.858,227.971 150.599,229.387 147.453 C 232.127 141.370,238.472 133.851,242.746 131.622 C 250.512 127.573,259.061 127.186,266.839 130.532 M295.090 356.507 C 295.651 364.272,288.306 374.602,278.979 379.165 C 266.255 385.390,246.667 385.496,233.378 379.413 C 224.523 375.359,217.879 367.002,216.949 358.750 C 216.174 351.879,212.946 352.383,256.190 352.631 L 294.827 352.853 295.090 356.507 " stroke="none" fill-rule="evenodd" fill="black"></path></svg>