<svg xmlns="http://www.w3.org/2000/svg" width="512" height="512" viewBox="0 0 512 512"><path d="M242.053 33.776 C 230.409 36.595,216.455 46.472,208.026 57.861 C 205.139 61.762,200.394 70.946,197.298 78.625 C 196.607 80.339,194.235 81.905,187.360 85.189 C 159.900 98.307,140.345 116.977,127.774 142.080 C 122.372 152.867,116.832 170.780,114.446 185.173 C 113.205 192.656,111.793 215.651,111.790 228.434 C 111.784 247.010,109.461 268.460,105.757 284.135 C 102.280 298.850,94.459 313.559,81.922 328.960 C 69.435 344.300,67.489 347.220,65.595 353.456 C 59.342 374.041,72.722 395.188,94.627 399.342 C 97.322 399.853,115.000 400.213,137.404 400.213 L 175.588 400.213 176.179 405.973 C 179.677 440.062,201.844 467.422,233.365 476.556 C 258.787 483.924,285.392 478.641,306.031 462.128 C 323.119 448.456,333.484 428.933,335.820 406.018 L 336.403 400.303 377.481 400.016 C 415.129 399.754,418.916 399.596,422.827 398.131 C 442.062 390.923,452.050 372.038,446.423 353.515 C 444.472 347.090,442.671 344.318,432.465 332.026 C 416.192 312.428,409.039 298.370,404.956 277.960 C 401.872 262.546,401.110 254.086,400.195 225.107 C 398.869 183.081,395.383 165.273,383.944 142.080 C 372.115 118.100,353.314 99.748,326.930 86.427 C 318.419 82.130,315.294 80.116,314.653 78.518 C 311.670 71.072,306.850 61.747,303.974 57.861 C 295.394 46.268,281.549 36.563,269.556 33.736 C 262.780 32.139,248.731 32.159,242.053 33.776 M266.900 66.889 C 269.137 68.022,272.806 70.916,275.054 73.319 C 278.775 77.297,280.136 79.759,286.814 94.588 C 290.059 101.794,296.122 106.988,307.956 112.697 C 336.991 126.706,351.959 142.811,360.986 169.756 C 365.417 182.980,366.953 194.844,367.803 222.394 C 368.960 259.902,371.301 279.319,376.890 297.786 C 382.867 317.534,389.614 329.760,405.356 349.364 C 415.311 361.761,416.777 364.535,414.549 366.763 C 413.060 368.252,98.940 368.252,97.451 366.763 C 95.223 364.535,96.689 361.761,106.644 349.364 C 122.386 329.760,129.133 317.534,135.110 297.786 C 140.698 279.323,143.083 259.710,144.214 222.925 C 144.643 208.967,145.404 195.051,145.905 192.000 C 148.474 176.361,151.482 166.358,156.810 155.733 C 166.301 136.805,180.274 124.027,203.608 112.935 C 215.500 107.282,222.093 101.674,225.253 94.523 C 231.440 80.520,233.206 77.317,236.942 73.323 C 241.031 68.952,245.656 66.017,250.453 64.751 C 254.658 63.641,262.503 64.660,266.900 66.889 M303.450 405.797 C 302.661 413.501,299.686 421.181,294.887 427.907 C 283.234 444.237,263.400 451.351,243.623 446.292 C 224.937 441.513,210.233 424.489,208.468 405.589 L 207.967 400.213 255.994 400.213 L 304.022 400.213 303.450 405.797 " stroke="none" fill-rule="evenodd" fill="black"></path></svg>