<svg xmlns="http://www.w3.org/2000/svg" width="512" height="512" viewBox="0 0 512 512"><path d="M242.053 33.776 C 230.409 36.595,216.455 46.472,208.026 57.861 C 205.139 61.762,200.394 70.946,197.298 78.625 C 196.604 80.345,194.214 81.914,187.155 85.280 C 175.146 91.006,171.953 93.286,169.843 97.645 C 165.540 106.534,169.736 116.554,179.153 119.877 C 184.336 121.706,186.843 121.049,201.305 114.072 C 215.689 107.134,221.933 102.036,225.253 94.523 C 231.442 80.516,233.206 77.318,236.946 73.319 C 242.971 66.878,248.077 64.520,256.000 64.520 C 263.923 64.520,269.029 66.878,275.054 73.319 C 278.775 77.297,280.136 79.759,286.814 94.588 C 290.059 101.794,296.122 106.988,307.956 112.697 C 336.944 126.683,351.976 142.836,360.942 169.633 C 365.541 183.379,366.937 194.146,367.790 222.429 C 368.640 250.606,369.483 261.220,372.148 277.283 C 376.107 301.144,383.888 320.175,397.301 338.804 C 403.314 347.155,405.931 349.497,410.705 350.803 C 417.131 352.559,425.184 349.230,428.095 343.613 C 432.071 335.940,431.185 331.085,423.988 321.115 C 413.851 307.073,408.219 294.274,404.920 277.782 C 401.890 262.635,401.125 254.085,400.219 225.239 C 398.940 184.533,395.623 166.639,385.239 144.429 C 373.337 118.970,353.270 99.254,325.322 85.559 C 317.983 81.963,315.346 80.232,314.680 78.576 C 311.635 71.003,306.856 61.756,303.974 57.861 C 295.394 46.268,281.549 36.563,269.556 33.736 C 262.780 32.139,248.731 32.159,242.053 33.776 M61.867 48.187 C 61.397 48.354,59.964 48.722,58.682 49.004 C 55.174 49.777,50.637 54.223,49.011 58.480 C 47.433 62.611,47.766 67.564,49.889 71.556 C 50.550 72.798,138.571 161.242,245.492 268.100 C 423.259 445.762,440.212 462.469,443.616 463.358 C 455.817 466.545,466.545 455.817,463.358 443.616 C 462.469 440.212,445.762 423.259,268.100 245.492 C 161.242 138.571,72.853 50.584,71.680 49.966 C 69.430 48.781,63.313 47.672,61.867 48.187 M121.317 190.364 C 113.467 194.364,111.892 200.113,111.824 225.020 C 111.764 247.182,109.672 267.569,105.757 284.135 C 102.280 298.850,94.459 313.559,81.922 328.960 C 69.435 344.300,67.489 347.220,65.595 353.456 C 60.526 370.143,68.252 387.831,83.976 395.542 C 87.304 397.174,92.095 398.892,94.623 399.361 C 97.246 399.847,115.615 400.213,137.404 400.213 L 175.588 400.213 176.179 405.973 C 179.677 440.062,201.844 467.422,233.365 476.556 C 258.787 483.924,285.392 478.641,306.031 462.128 C 320.058 450.905,329.559 435.730,334.109 417.280 C 335.948 409.821,336.836 383.779,335.399 379.426 C 333.970 375.094,330.541 371.256,326.435 369.391 C 323.146 367.897,317.795 367.823,210.731 367.805 C 124.579 367.791,98.237 367.549,97.451 366.763 C 95.235 364.547,96.658 361.777,105.937 350.254 C 121.160 331.349,128.268 319.150,133.505 302.940 C 140.649 280.824,143.119 262.343,143.940 224.851 C 144.451 201.502,144.421 200.873,142.615 197.332 C 138.782 189.819,128.797 186.553,121.317 190.364 M303.450 405.797 C 302.661 413.501,299.686 421.181,294.887 427.907 C 283.234 444.237,263.400 451.351,243.623 446.292 C 224.937 441.513,210.233 424.489,208.468 405.589 L 207.967 400.213 255.994 400.213 L 304.022 400.213 303.450 405.797 " stroke="none" fill-rule="evenodd" fill="black"></path></svg>