<svg xmlns="http://www.w3.org/2000/svg" width="512" height="512" viewBox="0 0 512 512"><path d="M241.493 48.673 C 201.694 51.236,163.176 65.747,129.707 90.787 C 119.118 98.709,98.459 119.383,90.552 129.971 C 68.706 159.223,55.330 191.336,49.785 227.840 C 47.724 241.414,47.724 270.586,49.785 284.160 C 55.331 320.671,68.725 352.821,90.558 382.029 C 98.598 392.784,119.216 413.402,129.971 421.442 C 159.179 443.275,191.329 456.669,227.840 462.215 C 241.414 464.276,270.586 464.276,284.160 462.215 C 320.686 456.667,352.914 443.237,382.029 421.430 C 392.784 413.374,413.374 392.784,421.430 382.029 C 443.237 352.914,456.667 320.686,462.215 284.160 C 464.276 270.586,464.276 241.414,462.215 227.840 C 455.463 183.387,436.803 144.683,406.921 113.150 C 370.380 74.590,322.088 52.062,268.561 48.607 C 255.365 47.755,255.779 47.754,241.493 48.673 M284.160 82.308 C 319.998 88.383,351.735 104.258,377.739 129.118 C 405.349 155.513,423.300 189.800,429.832 228.618 C 431.923 241.048,431.905 271.514,429.799 283.733 C 419.921 341.032,385.307 387.989,334.011 413.679 C 285.590 437.929,226.410 437.929,177.989 413.679 C 126.525 387.905,91.775 340.650,82.174 283.382 C 80.053 270.734,80.053 241.266,82.174 228.618 C 92.715 165.745,133.739 115.017,192.849 91.764 C 205.896 86.632,221.606 82.941,239.787 80.737 C 246.454 79.928,276.372 80.988,284.160 82.308 M248.747 129.142 C 246.869 129.764,244.169 130.880,242.746 131.622 C 238.472 133.851,232.127 141.370,229.387 147.453 C 227.971 150.599,226.204 153.858,225.460 154.696 C 224.717 155.533,220.245 158.106,215.521 160.412 C 194.224 170.812,183.405 184.129,177.383 207.360 C 176.159 212.080,175.398 220.030,174.482 237.653 C 172.462 276.520,169.254 286.782,153.341 305.276 C 144.326 315.752,144.072 316.225,144.430 321.840 C 144.811 327.824,147.522 332.149,152.376 334.519 C 155.777 336.180,157.828 336.213,255.787 336.213 C 324.326 336.213,356.484 335.928,358.131 335.306 C 363.832 333.152,367.790 327.148,367.782 320.667 C 367.777 316.334,367.002 315.060,357.683 304.072 C 352.604 298.083,349.376 293.236,346.413 287.147 C 340.476 274.946,338.946 266.413,337.467 237.234 C 336.587 219.878,335.845 212.092,334.618 207.360 C 328.593 184.127,317.776 170.812,296.479 160.412 C 291.755 158.106,287.283 155.533,286.540 154.696 C 285.796 153.858,284.023 150.586,282.599 147.424 C 279.291 140.078,272.762 133.080,266.839 130.532 C 261.468 128.221,253.397 127.601,248.747 129.142 M216.713 354.197 C 215.072 357.263,218.541 366.750,223.197 371.929 C 237.092 387.384,272.396 388.129,287.244 373.281 C 292.847 367.678,296.689 358.467,295.155 354.318 L 294.455 352.427 256.058 352.427 C 218.076 352.427,217.650 352.446,216.713 354.197 " stroke="none" fill-rule="evenodd" fill="black"></path></svg>