<svg xmlns="http://www.w3.org/2000/svg" width="512" height="512" viewBox="0 0 512 512"><path d="M241.920 48.669 C 177.359 52.784,118.768 87.102,81.958 142.362 C 55.666 181.831,43.309 234.683,49.503 281.173 C 55.829 328.652,75.879 369.527,109.176 402.824 C 142.702 436.350,182.619 455.851,231.680 462.670 C 235.904 463.257,246.848 463.738,256.000 463.738 C 265.152 463.738,276.096 463.257,280.320 462.670 C 329.321 455.859,369.272 436.331,402.802 402.802 C 436.331 369.272,455.859 329.321,462.670 280.320 C 464.046 270.420,464.046 241.580,462.670 231.680 C 455.892 182.914,436.342 142.776,403.220 109.623 C 391.401 97.792,382.569 90.546,369.558 82.006 C 331.997 57.351,287.606 45.757,241.920 48.669 M280.153 129.920 C 280.398 130.976,281.260 136.832,282.069 142.933 C 282.878 149.035,283.967 154.437,284.490 154.939 C 285.012 155.440,287.744 156.542,290.560 157.388 C 309.810 163.169,324.966 177.835,332.888 198.346 C 338.271 212.282,338.942 217.177,339.390 245.743 L 339.798 271.752 353.774 289.689 L 367.751 307.627 367.769 319.116 C 367.784 328.927,367.614 330.423,366.607 329.356 C 365.959 328.669,330.986 290.506,288.890 244.550 C 222.339 171.895,212.554 160.880,213.899 160.127 C 214.750 159.651,218.096 158.421,221.334 157.395 C 224.572 156.368,227.505 154.998,227.852 154.351 C 228.198 153.703,229.118 148.565,229.895 142.933 C 230.672 137.301,231.518 131.637,231.775 130.347 L 232.242 128.000 255.975 128.000 L 279.708 128.000 280.153 129.920 M267.651 245.022 C 325.307 307.038,372.594 358.069,372.734 358.424 C 372.998 359.095,350.722 379.727,349.730 379.731 C 349.140 379.733,139.706 154.693,139.271 153.591 C 139.014 152.940,161.269 132.317,162.264 132.285 C 162.571 132.275,209.995 183.007,267.651 245.022 M225.280 269.734 C 252.736 299.747,277.632 326.984,280.604 330.259 L 286.008 336.213 215.111 336.213 L 144.213 336.213 144.231 321.920 L 144.249 307.627 158.226 289.689 L 172.202 271.752 172.630 245.743 C 173.030 221.430,173.493 214.950,174.819 215.102 C 175.117 215.136,197.824 239.720,225.280 269.734 M295.723 355.627 C 294.568 362.066,293.513 364.985,290.928 368.887 C 286.308 375.862,280.367 379.662,269.894 382.341 C 254.216 386.351,234.952 382.823,225.399 374.193 C 221.308 370.497,217.072 362.283,216.264 356.480 L 215.700 352.427 255.998 352.427 L 296.297 352.427 295.723 355.627 " stroke="none" fill-rule="evenodd" fill="black"></path></svg>