<svg xmlns="http://www.w3.org/2000/svg" width="512" height="512" viewBox="0 0 512 512"><path d="M215.631 34.347 C 215.385 35.403,213.564 46.092,211.586 58.101 L 207.988 79.935 199.781 82.223 C 189.948 84.964,173.258 92.965,165.434 98.688 C 137.024 119.467,120.385 150.874,113.752 196.241 C 112.768 202.972,112.335 215.658,112.026 246.798 L 111.614 288.370 87.807 320.115 L 64.000 351.860 64.000 376.037 L 64.000 400.213 256.000 400.213 L 448.000 400.213 448.000 376.037 L 448.000 351.860 424.193 320.115 L 400.386 288.370 399.986 246.798 C 399.546 201.115,398.837 193.050,393.421 172.109 C 381.138 124.623,351.584 92.659,309.667 81.523 L 304.027 80.025 300.422 58.146 C 298.439 46.112,296.615 35.403,296.369 34.347 L 295.922 32.427 256.000 32.427 L 216.078 32.427 215.631 34.347 M184.850 436.267 C 198.353 462.964,225.836 479.767,256.000 479.767 C 286.164 479.767,313.647 462.964,327.150 436.267 L 329.415 431.787 256.000 431.787 L 182.585 431.787 184.850 436.267 " stroke="none" fill-rule="evenodd" fill="black"></path></svg>