<svg xmlns="http://www.w3.org/2000/svg" width="512" height="512" viewBox="0 0 512 512"><path d="M241.920 48.669 C 177.359 52.784,118.768 87.102,81.958 142.362 C 55.666 181.831,43.309 234.683,49.503 281.173 C 55.829 328.652,75.879 369.527,109.176 402.824 C 142.702 436.350,182.619 455.851,231.680 462.670 C 235.904 463.257,246.848 463.738,256.000 463.738 C 265.152 463.738,276.096 463.257,280.320 462.670 C 329.321 455.859,369.272 436.331,402.802 402.802 C 436.331 369.272,455.859 329.321,462.670 280.320 C 464.046 270.420,464.046 241.580,462.670 231.680 C 455.892 182.914,436.342 142.776,403.220 109.623 C 391.401 97.792,382.569 90.546,369.558 82.006 C 331.997 57.351,287.606 45.757,241.920 48.669 M266.839 130.532 C 272.762 133.080,279.291 140.078,282.599 147.424 C 284.023 150.586,285.796 153.858,286.540 154.696 C 287.283 155.533,291.755 158.106,296.479 160.412 C 317.060 170.462,328.632 184.493,334.142 206.080 C 335.975 213.261,336.445 217.724,337.110 234.240 C 338.787 275.886,341.915 285.711,360.452 307.561 C 368.827 317.432,370.166 323.378,364.178 324.100 C 362.296 324.327,352.737 314.225,289.170 244.827 C 208.636 156.905,212.546 161.770,219.733 158.425 C 224.794 156.070,226.068 154.644,229.166 147.870 C 232.144 141.359,238.379 133.899,242.746 131.622 C 250.512 127.573,259.061 127.186,266.839 130.532 M168.244 136.789 C 172.076 139.093,363.890 350.733,366.163 355.166 C 369.600 361.869,367.116 371.067,360.727 375.295 C 357.933 377.145,356.289 377.574,351.958 377.586 C 347.352 377.598,346.162 377.252,343.207 375.040 C 340.506 373.019,157.445 171.612,148.289 160.588 C 143.008 154.229,143.016 145.865,148.310 139.962 C 153.794 133.847,161.349 132.644,168.244 136.789 M183.410 224.213 C 193.939 234.450,280.747 330.471,280.747 331.879 C 280.747 332.788,280.143 334.135,279.406 334.872 C 278.212 336.066,271.383 336.213,217.085 336.213 C 150.808 336.213,152.950 336.363,148.321 331.412 C 144.487 327.311,143.130 321.253,144.965 316.427 C 145.379 315.340,149.123 310.364,153.285 305.371 C 162.617 294.177,165.946 288.719,169.020 279.570 C 172.306 269.791,174.011 257.549,174.658 239.071 C 175.219 223.068,175.698 221.013,178.867 221.013 C 179.556 221.013,181.600 222.453,183.410 224.213 M294.799 357.547 C 294.712 372.629,278.059 383.970,256.000 383.970 C 238.242 383.970,224.650 377.210,219.174 365.653 C 216.891 360.835,215.946 354.365,217.324 352.987 C 217.642 352.669,235.210 352.509,256.364 352.631 L 294.827 352.853 294.799 357.547 " stroke="none" fill-rule="evenodd" fill="black"></path></svg>