<svg xmlns="http://www.w3.org/2000/svg" width="512" height="512" viewBox="0 0 512 512"><path d="M241.493 48.673 C 201.694 51.236,163.176 65.747,129.707 90.787 C 119.118 98.709,98.459 119.383,90.552 129.971 C 68.706 159.223,55.330 191.336,49.785 227.840 C 47.724 241.414,47.724 270.586,49.785 284.160 C 55.331 320.671,68.725 352.821,90.558 382.029 C 98.598 392.784,119.216 413.402,129.971 421.442 C 159.179 443.275,191.329 456.669,227.840 462.215 C 241.414 464.276,270.586 464.276,284.160 462.215 C 320.686 456.667,352.914 443.237,382.029 421.430 C 392.784 413.374,413.374 392.784,421.430 382.029 C 443.237 352.914,456.667 320.686,462.215 284.160 C 464.276 270.586,464.276 241.414,462.215 227.840 C 455.463 183.387,436.803 144.683,406.921 113.150 C 370.380 74.590,322.088 52.062,268.561 48.607 C 255.365 47.755,255.779 47.754,241.493 48.673 M284.160 82.308 C 319.998 88.383,351.735 104.258,377.739 129.118 C 405.349 155.513,423.300 189.800,429.832 228.618 C 431.923 241.048,431.905 271.514,429.799 283.733 C 419.921 341.032,385.307 387.989,334.011 413.679 C 285.590 437.929,226.410 437.929,177.989 413.679 C 126.525 387.905,91.775 340.650,82.174 283.382 C 80.053 270.734,80.053 241.266,82.174 228.618 C 92.715 165.745,133.739 115.017,192.849 91.764 C 205.896 86.632,221.606 82.941,239.787 80.737 C 246.454 79.928,276.372 80.988,284.160 82.308 M248.747 129.142 C 240.053 132.023,233.585 138.210,229.166 147.870 C 226.057 154.668,224.593 156.318,219.946 158.259 C 216.502 159.698,214.590 162.341,215.644 164.204 C 216.016 164.861,249.106 201.164,289.179 244.878 C 352.618 314.083,362.315 324.325,364.186 324.099 C 365.368 323.957,366.716 323.231,367.182 322.486 C 369.060 319.483,367.013 315.351,358.746 305.463 C 352.733 298.269,349.468 293.421,346.414 287.147 C 340.476 274.947,338.947 266.416,337.467 237.234 C 336.587 219.878,335.845 212.092,334.618 207.360 C 328.593 184.127,317.776 170.812,296.479 160.412 C 291.755 158.106,287.283 155.533,286.540 154.696 C 285.796 153.858,284.023 150.586,282.599 147.424 C 279.291 140.078,272.762 133.080,266.839 130.532 C 261.468 128.221,253.397 127.601,248.747 129.142 M154.986 135.188 C 150.748 136.749,146.222 141.140,144.983 144.893 C 143.955 148.007,144.300 153.476,145.746 157.013 C 146.226 158.187,190.436 207.531,243.992 266.667 C 313.928 343.890,342.383 374.747,344.976 376.174 C 349.738 378.796,355.994 378.428,360.805 375.244 C 366.809 371.271,369.471 362.251,366.603 355.599 C 364.981 351.838,172.170 139.142,168.249 136.789 C 164.069 134.280,159.087 133.679,154.986 135.188 M176.436 222.193 C 175.570 223.059,174.990 228.442,174.251 242.459 C 172.489 275.918,168.843 286.976,153.637 304.981 C 144.201 316.154,143.936 316.644,144.387 322.089 C 144.867 327.866,147.664 332.218,152.376 334.519 C 155.738 336.161,157.732 336.213,216.955 336.213 C 271.372 336.213,278.212 336.066,279.406 334.872 C 280.143 334.135,280.747 332.823,280.747 331.957 C 280.747 330.645,188.814 229.075,182.067 222.933 C 179.640 220.724,178.106 220.522,176.436 222.193 M216.713 354.197 C 215.072 357.263,218.541 366.750,223.197 371.929 C 232.140 381.876,250.966 386.393,268.232 382.735 C 282.911 379.624,291.749 372.212,294.816 360.437 C 297.066 351.797,300.120 352.427,256.000 352.427 C 218.076 352.427,217.650 352.446,216.713 354.197 " stroke="none" fill-rule="evenodd" fill="black"></path></svg>