<svg xmlns="http://www.w3.org/2000/svg" width="512" height="512" viewBox="0 0 512 512"><path d="M241.920 48.669 C 177.359 52.784,118.768 87.102,81.958 142.362 C 55.666 181.831,43.309 234.683,49.503 281.173 C 55.829 328.652,75.879 369.527,109.176 402.824 C 142.702 436.350,182.619 455.851,231.680 462.670 C 235.904 463.257,246.848 463.738,256.000 463.738 C 265.152 463.738,276.096 463.257,280.320 462.670 C 329.321 455.859,369.272 436.331,402.802 402.802 C 436.331 369.272,455.859 329.321,462.670 280.320 C 464.046 270.420,464.046 241.580,462.670 231.680 C 455.892 182.914,436.342 142.776,403.220 109.623 C 391.401 97.792,382.569 90.546,369.558 82.006 C 331.997 57.351,287.606 45.757,241.920 48.669 M280.153 129.920 C 280.398 130.976,281.260 136.832,282.069 142.933 C 282.878 149.035,283.967 154.437,284.490 154.939 C 285.012 155.440,287.744 156.542,290.560 157.388 C 309.810 163.169,324.966 177.835,332.888 198.346 C 338.271 212.282,338.942 217.177,339.390 245.743 L 339.798 271.752 353.774 289.689 L 367.751 307.627 367.769 321.920 L 367.787 336.213 256.000 336.213 L 144.213 336.213 144.231 321.920 L 144.249 307.627 158.226 289.689 L 172.202 271.752 172.621 245.743 C 173.058 218.597,173.474 214.982,177.630 202.240 C 184.826 180.177,199.672 164.764,220.518 157.715 C 224.236 156.458,227.548 154.922,227.879 154.301 C 228.211 153.681,229.118 148.565,229.895 142.933 C 230.672 137.301,231.518 131.637,231.775 130.347 L 232.242 128.000 255.975 128.000 L 279.708 128.000 280.153 129.920 M295.723 355.627 C 293.971 365.400,290.712 371.084,284.064 375.964 C 271.644 385.081,248.833 386.602,233.221 379.354 C 224.123 375.130,217.756 366.528,216.291 356.480 L 215.700 352.427 255.998 352.427 L 296.297 352.427 295.723 355.627 " stroke="none" fill-rule="evenodd" fill="black"></path></svg>