<svg xmlns="http://www.w3.org/2000/svg" width="512" height="512" viewBox="0 0 512 512"><path d="M242.347 33.786 C 223.564 38.775,206.891 54.209,199.308 73.627 L 196.607 80.544 184.703 86.565 C 174.280 91.838,172.610 92.976,171.268 95.721 C 169.890 98.539,169.860 99.142,170.969 101.694 C 171.727 103.438,223.186 155.481,304.348 236.587 C 433.824 365.973,436.559 368.640,439.752 368.640 C 442.249 368.640,443.621 368.030,445.619 366.032 C 447.987 363.665,448.183 363.055,447.751 359.410 C 446.928 352.465,444.013 346.294,438.191 339.172 C 416.587 312.748,410.519 302.102,405.787 282.316 C 402.350 267.949,401.023 254.588,400.204 226.133 C 399.778 211.349,399.012 195.989,398.501 192.000 C 393.663 154.218,378.869 124.356,355.330 104.859 C 345.495 96.712,338.852 92.416,326.457 86.187 L 315.421 80.640 312.706 73.675 C 305.045 54.022,288.297 38.626,269.261 33.734 C 262.849 32.086,248.641 32.114,242.347 33.786 M57.600 49.849 C 54.420 51.269,50.747 55.122,49.548 58.296 C 48.248 61.735,48.428 67.989,49.917 71.124 C 50.619 72.603,138.651 161.242,245.543 268.100 C 424.123 446.621,440.199 462.466,443.656 463.369 C 450.419 465.136,456.697 462.916,460.747 457.324 C 463.770 453.151,464.647 448.548,463.358 443.616 C 462.469 440.212,445.795 423.293,268.526 245.916 C 157.162 134.484,73.319 51.237,71.501 50.290 C 67.814 48.369,61.374 48.165,57.600 49.849 M116.857 193.256 C 112.876 195.421,112.555 197.488,111.763 226.105 C 110.950 255.480,109.558 268.997,105.821 283.826 C 101.454 301.152,94.318 314.239,79.540 332.026 C 69.335 344.308,67.529 347.087,65.577 353.515 C 60.013 371.831,69.463 390.207,88.320 397.741 L 93.440 399.787 203.511 400.019 C 285.691 400.192,314.189 399.999,315.978 399.259 C 319.093 397.968,321.155 393.980,320.503 390.505 C 320.101 388.363,300.532 368.364,222.072 289.915 C 116.052 183.910,122.741 190.055,116.857 193.256 M186.514 433.128 C 184.459 435.183,184.868 437.021,188.697 442.961 C 199.917 460.361,216.554 472.267,237.051 477.565 C 248.771 480.593,263.229 480.593,274.949 477.565 C 295.446 472.267,312.083 460.361,323.303 442.961 C 327.132 437.021,327.541 435.183,325.486 433.128 C 324.289 431.931,316.812 431.787,256.000 431.787 C 195.188 431.787,187.711 431.931,186.514 433.128 " stroke="none" fill-rule="evenodd" fill="black"></path></svg>