<svg xmlns="http://www.w3.org/2000/svg" width="512" height="512" viewBox="0 0 512 512"><path d="M215.631 34.347 C 215.385 35.403,213.564 46.092,211.586 58.101 L 207.988 79.935 199.913 82.204 C 195.471 83.453,188.514 86.030,184.452 87.930 C 176.851 91.488,166.441 97.377,166.415 98.134 C 166.407 98.370,229.760 161.921,307.200 239.360 L 448.000 380.158 448.000 366.009 L 448.000 351.860 424.193 320.115 L 400.386 288.370 399.986 246.798 C 399.546 201.115,398.837 193.050,393.421 172.109 C 381.138 124.623,351.584 92.659,309.667 81.523 L 304.027 80.025 300.422 58.146 C 298.439 46.112,296.615 35.403,296.369 34.347 L 295.922 32.427 256.000 32.427 L 216.078 32.427 215.631 34.347 M52.474 52.913 L 41.399 64.012 244.698 267.311 L 447.996 470.609 459.302 459.303 L 470.609 447.997 267.518 244.905 C 155.819 133.205,64.230 41.813,63.988 41.813 C 63.747 41.813,58.565 46.808,52.474 52.913 M115.616 185.387 C 115.406 185.973,114.602 190.869,113.830 196.267 C 112.743 203.873,112.337 215.332,112.025 247.219 L 111.623 288.358 87.812 320.109 L 64.000 351.860 64.000 376.037 L 64.000 400.213 198.185 400.213 L 332.371 400.213 224.427 292.267 C 165.057 232.896,116.374 184.320,116.241 184.320 C 116.108 184.320,115.827 184.800,115.616 185.387 M184.850 436.267 C 198.353 462.964,225.836 479.767,256.000 479.767 C 286.164 479.767,313.647 462.964,327.150 436.267 L 329.415 431.787 256.000 431.787 L 182.585 431.787 184.850 436.267 " stroke="none" fill-rule="evenodd" fill="black"></path></svg>