<svg xmlns="http://www.w3.org/2000/svg" width="512" height="512" viewBox="0 0 512 512"><path d="M241.493 48.632 C 206.738 51.017,171.801 62.745,142.933 81.718 C 128.585 91.149,120.680 97.613,108.343 110.003 C 91.556 126.864,78.221 145.748,68.219 166.827 C 46.496 212.602,42.128 264.444,55.943 312.506 C 76.100 382.635,130.610 436.733,201.051 456.521 C 248.226 469.773,299.811 465.232,345.124 443.839 C 387.146 424.000,423.561 387.678,443.573 345.640 C 469.519 291.139,470.759 229.452,447.019 174.126 C 431.508 137.977,405.897 106.938,372.907 84.308 C 346.166 65.965,315.080 54.076,283.273 50.026 C 270.229 48.366,253.508 47.808,241.493 48.632 M185.022 149.431 C 196.369 172.481,205.653 191.819,205.653 192.402 C 205.653 192.986,202.852 196.310,199.429 199.790 C 189.643 209.735,183.970 219.176,179.556 232.861 L 177.322 239.787 129.594 239.787 C 87.491 239.787,81.807 239.632,81.364 238.478 C 80.623 236.545,84.016 217.601,86.863 207.787 C 97.133 172.374,117.988 141.086,146.347 118.544 C 154.415 112.130,161.395 107.520,163.037 107.520 C 163.974 107.520,170.735 120.409,185.022 149.431 M357.456 112.474 C 388.288 134.514,410.072 163.681,422.435 199.475 C 426.181 210.320,429.830 226.583,430.235 234.240 L 430.507 239.360 382.595 239.580 L 334.682 239.801 332.446 232.868 C 327.986 219.038,320.219 206.607,310.231 197.311 L 305.542 192.947 322.883 157.700 C 348.356 105.923,347.521 107.520,349.106 107.520 C 349.887 107.520,353.644 109.749,357.456 112.474 M272.319 211.032 C 291.057 218.138,302.446 233.603,303.552 253.440 C 304.353 267.824,299.890 279.522,289.690 289.775 C 280.386 299.127,269.182 303.787,256.000 303.787 C 220.220 303.787,197.472 266.589,213.429 234.175 C 219.501 221.842,232.262 212.045,246.187 209.027 C 252.602 207.637,266.095 208.672,272.319 211.032 M230.032 331.458 C 247.279 337.556,264.157 337.573,282.026 331.511 C 286.718 329.919,290.816 328.886,291.132 329.215 C 294.848 333.085,348.104 404.375,347.947 405.269 C 347.829 405.938,343.509 408.707,338.347 411.423 C 292.818 435.372,239.408 438.415,192.000 419.762 C 178.629 414.501,164.267 406.860,164.267 405.008 C 164.267 404.260,177.118 386.724,192.826 366.040 C 213.322 339.049,221.754 328.558,222.693 328.879 C 223.412 329.124,226.715 330.285,230.032 331.458 " stroke="none" fill-rule="evenodd" fill="black"></path></svg>