<svg xmlns="http://www.w3.org/2000/svg" width="512" height="512" viewBox="0 0 512 512"><path d="M241.493 48.641 C 167.947 53.621,101.956 97.985,69.502 164.267 C 59.681 184.324,53.241 205.089,49.785 227.840 C 47.724 241.414,47.724 270.586,49.785 284.160 C 59.315 346.901,93.568 399.555,146.493 432.819 C 169.436 447.239,198.581 457.771,227.840 462.215 C 241.414 464.276,270.586 464.276,284.160 462.215 C 328.954 455.411,368.033 436.480,399.471 406.355 C 433.620 373.633,454.928 332.133,462.215 284.160 C 464.276 270.586,464.276 241.414,462.215 227.840 C 452.756 165.563,418.679 112.882,366.432 79.766 C 348.848 68.621,321.235 57.299,301.227 53.031 C 282.604 49.059,259.929 47.393,241.493 48.641 M284.148 82.316 C 296.768 84.472,316.928 89.973,319.073 91.846 C 319.266 92.015,309.858 111.580,298.166 135.323 L 276.907 178.491 273.493 177.933 C 260.778 175.852,251.181 175.853,238.507 177.935 L 235.093 178.496 213.833 135.326 C 202.140 111.583,192.732 92.017,192.926 91.847 C 195.429 89.660,219.403 83.443,230.827 82.019 C 235.051 81.493,239.467 80.898,240.640 80.698 C 245.567 79.856,276.476 81.006,284.148 82.316 M185.149 149.727 L 206.365 192.788 199.776 199.434 C 189.391 209.908,182.998 220.715,179.188 234.240 L 177.746 239.360 129.406 239.580 L 81.067 239.801 81.070 237.874 C 81.077 234.011,83.742 219.503,86.127 210.347 C 96.743 169.586,123.586 132.673,160.427 108.175 C 161.600 107.395,162.869 106.736,163.246 106.711 C 163.623 106.687,173.480 126.044,185.149 149.727 M354.456 110.193 C 389.122 133.596,415.529 170.627,425.873 210.347 C 428.258 219.503,430.923 234.011,430.930 237.874 L 430.933 239.801 382.594 239.580 L 334.254 239.360 332.812 234.240 C 329.001 220.714,322.609 209.908,312.221 199.431 L 305.629 192.782 326.844 149.725 C 338.512 126.043,348.323 106.667,348.646 106.667 C 348.969 106.667,351.584 108.254,354.456 110.193 M267.867 209.527 C 275.932 211.428,282.951 215.529,289.711 222.289 C 299.399 231.977,303.761 242.444,303.761 256.000 C 303.761 269.556,299.399 280.023,289.711 289.711 C 279.981 299.442,269.574 303.787,256.000 303.787 C 242.426 303.787,232.019 299.442,222.289 289.711 C 212.601 280.023,208.239 269.556,208.239 256.000 C 208.239 242.444,212.601 231.977,222.289 222.289 C 228.907 215.671,236.067 211.425,243.741 209.567 C 250.399 207.956,261.125 207.938,267.867 209.527 M179.188 277.760 C 181.515 286.019,184.788 293.175,189.176 299.599 C 191.433 302.903,193.809 306.455,194.457 307.491 C 195.569 309.273,194.061 311.447,166.813 347.328 C 150.962 368.202,137.846 385.451,137.667 385.659 C 137.086 386.333,126.345 375.253,119.927 367.360 C 103.831 347.562,92.189 324.931,86.127 301.653 C 83.742 292.497,81.077 277.989,81.070 274.126 L 81.067 272.199 129.406 272.420 L 177.746 272.640 179.188 277.760 M430.930 274.133 C 430.928 275.189,430.340 279.701,429.622 284.160 C 424.719 314.640,412.004 342.805,392.065 367.360 C 385.642 375.270,374.919 386.330,374.324 385.659 C 371.981 383.016,316.587 309.548,316.587 309.083 C 316.587 308.731,318.519 305.793,320.880 302.554 C 326.888 294.313,330.158 287.096,334.145 273.280 C 334.387 272.443,344.834 272.213,382.693 272.213 L 430.933 272.213 430.930 274.133 M226.703 330.304 C 243.519 337.524,266.966 337.589,284.837 330.463 C 287.790 329.286,290.478 328.592,290.810 328.921 C 291.142 329.250,304.340 346.482,320.138 367.213 C 348.035 403.820,348.815 404.948,347.202 406.347 C 344.424 408.757,326.067 417.746,317.130 421.074 C 278.726 435.371,233.274 435.371,194.870 421.074 C 185.954 417.754,167.595 408.767,164.787 406.347 C 163.161 404.946,163.911 403.862,192.218 366.720 C 208.224 345.717,221.603 328.533,221.949 328.533 C 222.295 328.533,224.434 329.330,226.703 330.304 " stroke="none" fill="black" fill-rule="evenodd"></path></svg>