<svg xmlns="http://www.w3.org/2000/svg" width="512" height="512" viewBox="0 0 512 512"><path d="M241.493 48.641 C 201.404 51.355,163.163 65.754,129.782 90.701 C 119.199 98.610,98.544 119.287,90.569 129.956 C 59.894 170.992,44.782 221.063,48.469 269.440 C 50.659 298.178,57.105 322.392,69.085 346.880 C 80.063 369.322,91.055 384.640,109.208 402.792 C 127.366 420.950,142.692 431.948,165.120 442.911 C 194.259 457.156,222.851 463.695,256.000 463.695 C 289.149 463.695,317.741 457.156,346.880 442.911 C 369.308 431.948,384.634 420.950,402.792 402.792 C 420.950 384.634,431.948 369.308,442.911 346.880 C 457.156 317.741,463.695 289.149,463.695 256.000 C 463.695 243.784,463.243 235.418,462.198 228.267 C 456.865 191.788,443.430 159.386,421.442 129.971 C 413.457 119.289,392.806 98.614,382.218 90.701 C 352.402 68.418,318.978 54.672,283.307 50.023 C 270.557 48.362,253.799 47.808,241.493 48.641 M180.187 153.173 C 190.525 174.059,199.120 191.147,199.287 191.147 C 199.453 191.147,202.202 189.162,205.395 186.737 C 212.347 181.456,224.167 175.690,232.960 173.290 C 258.063 166.438,286.787 171.683,306.605 186.737 C 309.798 189.162,312.547 191.147,312.713 191.147 C 312.880 191.147,321.489 174.030,331.845 153.109 C 345.477 125.572,350.975 115.248,351.764 115.712 C 355.795 118.083,366.331 126.668,373.280 133.244 C 396.091 154.832,412.879 183.630,420.714 214.613 C 422.020 219.776,423.362 226.208,423.696 228.907 L 424.303 233.813 381.598 233.813 L 338.892 233.813 339.654 236.468 C 340.073 237.928,340.822 242.824,341.318 247.348 C 343.632 268.418,337.413 290.470,324.219 307.980 C 316.298 318.492,307.517 325.857,295.147 332.364 L 288.642 335.787 314.134 369.302 C 328.155 387.736,339.627 403.130,339.627 403.511 C 339.627 404.787,319.604 413.802,309.138 417.238 C 273.924 428.802,238.076 428.802,202.862 417.238 C 192.396 413.802,172.373 404.787,172.373 403.511 C 172.373 403.130,183.845 387.736,197.866 369.302 L 223.358 335.787 216.853 332.370 C 207.401 327.406,202.621 323.911,195.348 316.645 C 184.245 305.552,176.773 292.393,172.642 276.656 C 170.783 269.574,170.472 266.579,170.494 256.000 C 170.511 248.078,170.967 241.862,171.762 238.720 L 173.003 233.813 130.350 233.813 L 87.697 233.813 88.304 228.907 C 88.638 226.208,89.980 219.776,91.286 214.613 C 99.133 183.584,115.905 154.837,138.804 133.165 C 145.793 126.551,159.840 115.200,161.037 115.200 C 161.231 115.200,169.848 132.288,180.187 153.173 M246.187 209.027 C 224.018 213.831,208.213 233.382,208.213 256.000 C 208.213 269.119,212.883 280.300,222.291 289.709 C 241.253 308.671,270.747 308.671,289.709 289.709 C 314.540 264.878,305.482 223.605,272.452 211.083 C 266.094 208.672,252.673 207.621,246.187 209.027 " stroke="none" fill-rule="evenodd" fill="black"></path></svg>