<svg xmlns="http://www.w3.org/2000/svg" width="512" height="512" viewBox="0 0 512 512"><path d="M333.525 17.548 C 320.688 19.871,305.785 26.683,294.400 35.431 C 283.839 43.546,271.772 58.047,266.011 69.547 C 260.576 80.395,256.000 97.803,256.000 107.632 L 256.000 111.787 259.746 111.787 C 268.958 111.787,286.868 106.798,298.051 101.116 C 328.938 85.425,348.278 56.876,351.956 21.547 L 352.511 16.213 346.282 16.290 C 342.856 16.332,337.115 16.898,333.525 17.548 M150.561 113.038 C 123.200 117.249,103.125 126.970,87.226 143.708 C 65.692 166.378,54.112 198.511,49.375 248.747 C 47.778 265.685,47.989 303.828,49.742 315.140 C 58.345 370.638,87.090 427.666,126.530 467.481 C 137.364 478.418,145.511 484.881,154.608 489.752 C 164.271 494.926,169.397 496.095,180.018 495.547 C 190.543 495.004,199.934 492.502,213.333 486.670 C 233.434 477.921,236.244 476.798,243.200 474.726 C 257.420 470.491,265.247 471.932,290.789 483.488 C 333.511 502.815,352.391 500.113,383.470 470.221 C 421.236 433.898,451.941 375.191,461.144 321.707 C 464.622 301.494,464.964 272.169,462.075 242.009 C 454.600 163.981,426.540 125.503,368.991 114.366 C 344.437 109.614,326.020 111.421,278.287 123.262 C 267.782 125.868,257.798 128.001,256.100 128.001 C 254.402 128.002,242.069 125.329,228.693 122.061 C 215.317 118.793,199.765 115.315,194.133 114.330 C 180.892 112.017,161.028 111.428,150.561 113.038 M221.768 257.656 C 228.241 260.959,234.074 270.145,237.435 282.331 C 238.948 287.816,239.235 291.229,239.235 303.787 C 239.235 316.482,238.955 319.743,237.372 325.547 C 232.324 344.054,222.709 354.171,212.776 351.428 C 205.465 349.410,197.730 338.183,194.589 325.029 C 187.985 297.381,195.700 264.373,210.347 257.613 C 214.737 255.587,217.733 255.598,221.768 257.656 M301.010 257.313 C 305.229 259.076,306.870 260.639,310.753 266.600 C 321.964 283.808,322.880 318.523,312.637 338.015 C 300.750 360.637,282.574 354.675,274.628 325.547 C 273.045 319.743,272.765 316.482,272.765 303.787 C 272.765 291.229,273.052 287.816,274.565 282.331 C 277.878 270.317,283.701 261.054,290.048 257.699 C 293.820 255.706,296.903 255.597,301.010 257.313 " stroke="none" fill-rule="evenodd" fill="black"></path></svg>