<svg xmlns="http://www.w3.org/2000/svg" width="512" height="512" viewBox="0 0 512 512"><path d="M332.524 17.602 C 319.699 20.353,305.058 27.092,294.937 34.902 C 289.032 39.459,279.057 49.632,274.355 55.893 C 266.700 66.086,260.466 80.096,257.650 93.433 C 255.379 104.190,255.490 106.288,258.494 109.292 C 261.402 112.199,263.951 112.426,272.798 110.561 C 313.162 102.052,344.181 70.280,351.111 30.348 C 352.430 22.746,351.612 18.914,348.288 17.135 C 345.970 15.895,339.602 16.083,332.524 17.602 M151.040 113.099 C 127.557 116.812,108.759 126.433,92.148 143.241 C 67.958 167.718,54.822 201.560,49.375 253.440 C 47.732 269.089,47.945 302.289,49.764 314.027 C 56.422 356.998,73.167 400.382,96.918 436.199 C 117.063 466.578,136.695 484.841,157.867 492.895 C 163.969 495.217,164.921 495.330,178.347 495.325 C 198.111 495.317,211.726 491.997,227.413 483.360 C 246.250 472.989,247.974 472.324,256.000 472.331 C 264.067 472.339,264.830 472.631,283.733 482.939 C 300.730 492.207,317.652 496.245,336.640 495.563 C 345.012 495.263,348.950 494.725,352.694 493.370 C 374.205 485.585,394.220 467.356,414.220 437.333 C 433.804 407.934,447.529 376.930,456.568 341.669 C 462.311 319.264,463.715 307.526,463.651 282.453 C 463.392 180.723,428.097 123.069,359.906 112.988 C 342.046 110.348,327.954 112.027,295.455 120.669 C 271.215 127.115,263.792 128.319,252.160 127.696 C 242.409 127.174,236.967 126.046,209.067 118.768 C 182.700 111.890,167.856 110.440,151.040 113.099 M221.768 257.656 C 228.241 260.959,234.074 270.145,237.435 282.331 C 238.948 287.816,239.235 291.229,239.235 303.787 C 239.235 316.482,238.955 319.743,237.372 325.547 C 232.324 344.054,222.709 354.171,212.776 351.428 C 205.465 349.410,197.730 338.183,194.589 325.029 C 187.985 297.381,195.700 264.373,210.347 257.613 C 214.737 255.587,217.733 255.598,221.768 257.656 M301.010 257.313 C 305.229 259.076,306.870 260.639,310.753 266.600 C 321.964 283.808,322.880 318.523,312.637 338.015 C 300.750 360.637,282.574 354.675,274.628 325.547 C 273.045 319.743,272.765 316.482,272.765 303.787 C 272.765 291.229,273.052 287.816,274.565 282.331 C 277.878 270.317,283.701 261.054,290.048 257.699 C 293.820 255.706,296.903 255.597,301.010 257.313 " stroke="none" fill-rule="evenodd" fill="black"></path></svg>