<svg xmlns="http://www.w3.org/2000/svg" width="512" height="512" viewBox="0 0 512 512"><path d="M332.524 17.602 C 295.638 25.515,265.557 55.980,257.650 93.433 C 255.379 104.190,255.490 106.288,258.494 109.292 C 261.534 112.332,264.536 112.490,274.387 110.128 C 294.781 105.239,310.181 96.705,324.015 82.629 C 338.691 67.696,346.551 52.883,350.762 32.222 C 352.274 24.801,352.325 23.594,351.234 20.983 C 350.561 19.374,349.236 17.642,348.288 17.135 C 345.970 15.895,339.602 16.083,332.524 17.602 M155.733 112.375 C 121.831 116.774,96.330 132.422,78.123 160.000 C 60.297 187.001,51.111 221.029,48.479 269.811 C 47.053 296.250,48.602 313.623,54.607 338.510 C 70.098 402.712,109.587 466.709,146.592 487.584 C 156.571 493.213,163.171 495.128,174.145 495.580 C 195.756 496.469,211.368 492.351,234.491 479.663 C 252.783 469.625,259.217 469.625,277.509 479.663 C 300.632 492.351,316.244 496.469,337.855 495.580 C 348.829 495.128,355.429 493.213,365.408 487.584 C 402.413 466.709,441.902 402.712,457.393 338.510 C 463.459 313.369,464.960 296.224,463.489 268.901 C 461.194 226.309,455.049 198.498,442.255 172.800 C 433.976 156.174,420.893 140.334,407.893 131.200 C 386.463 116.142,357.690 109.379,330.411 112.987 C 324.639 113.751,310.239 116.842,298.411 119.858 C 256.621 130.511,255.198 130.510,213.494 119.797 C 201.614 116.745,187.790 113.702,182.774 113.034 C 174.294 111.905,161.715 111.598,155.733 112.375 M191.147 147.094 C 196.075 148.299,206.549 150.998,214.423 153.092 C 233.892 158.269,243.290 159.782,256.000 159.786 C 269.508 159.790,276.869 158.481,306.238 150.857 L 329.813 144.737 344.320 144.693 C 360.223 144.644,366.052 145.742,377.537 150.949 C 406.463 164.065,423.541 195.275,429.651 246.187 C 431.547 261.985,432.246 291.817,430.992 303.360 C 427.862 332.150,418.935 361.214,404.126 390.827 C 385.029 429.014,360.437 457.748,342.291 463.078 C 338.158 464.293,336.194 464.359,328.107 463.559 C 315.612 462.323,307.751 459.677,293.666 451.966 C 287.207 448.429,278.874 444.471,275.148 443.168 C 268.945 440.999,267.329 440.800,256.000 440.800 C 244.671 440.800,243.055 440.999,236.852 443.168 C 233.126 444.471,224.793 448.429,218.334 451.966 C 204.249 459.677,196.388 462.323,183.893 463.559 C 175.806 464.359,173.842 464.293,169.709 463.078 C 151.747 457.802,126.778 428.627,107.874 390.827 C 89.570 354.226,80.270 318.769,80.232 285.440 C 80.189 247.483,85.961 215.654,97.271 191.493 C 102.744 179.799,107.299 173.275,115.978 164.693 C 124.240 156.524,132.238 151.573,142.933 148.004 C 152.872 144.687,156.086 144.281,169.813 144.608 C 179.458 144.838,184.163 145.386,191.147 147.094 M210.339 257.591 C 203.629 260.640,198.130 269.385,194.438 282.880 C 192.887 288.550,192.559 292.093,192.504 303.787 C 192.446 315.969,192.703 318.844,194.409 325.120 C 198.233 339.192,205.334 349.374,212.753 351.422 C 222.749 354.182,232.826 343.421,237.780 324.693 C 240.160 315.697,239.959 291.433,237.430 282.286 C 233.961 269.743,228.454 261.067,221.809 257.677 C 217.745 255.604,214.763 255.582,210.339 257.591 M290.007 257.720 C 283.486 261.166,277.995 269.904,274.570 282.286 C 273.051 287.778,272.745 291.299,272.697 303.787 C 272.633 320.682,273.621 326.068,278.783 336.958 C 290.164 360.968,309.430 355.041,317.581 325.023 C 319.248 318.881,319.517 315.870,319.477 303.787 C 319.425 288.289,318.080 281.153,313.280 270.893 C 307.498 258.538,298.307 253.335,290.007 257.720 " stroke="none" fill-rule="evenodd" fill="black"></path></svg>