<svg xmlns="http://www.w3.org/2000/svg" width="512" height="512" viewBox="0 0 512 512"><path d="M320.000 64.000 L 320.000 80.213 364.578 80.213 L 409.156 80.213 393.387 96.000 L 377.617 111.787 212.702 111.787 L 47.787 111.787 47.787 288.000 L 47.787 464.213 224.000 464.213 L 400.213 464.213 400.213 299.298 L 400.213 134.383 416.000 118.613 L 431.787 102.844 431.787 147.422 L 431.787 192.000 448.000 192.000 L 464.213 192.000 464.213 119.893 L 464.213 47.787 392.107 47.787 L 320.000 47.787 320.000 64.000 M388.699 123.739 L 399.773 134.837 311.893 222.720 L 224.013 310.603 212.695 299.308 L 201.376 288.013 289.060 200.327 C 337.286 152.099,376.942 112.640,377.184 112.640 C 377.426 112.640,382.608 117.634,388.699 123.739 " stroke="none" fill="black" fill-rule="evenodd"></path></svg>