<svg xmlns="http://www.w3.org/2000/svg" width="512" height="512" viewBox="0 0 512 512"><path d="M332.181 48.601 C 328.415 49.515,325.674 51.440,322.830 55.169 C 320.744 57.904,320.427 59.080,320.427 64.068 C 320.427 69.194,320.709 70.169,323.036 73.094 C 324.471 74.898,327.337 77.237,329.404 78.293 C 333.134 80.199,333.437 80.213,371.159 80.213 L 409.156 80.213 309.169 180.267 C 199.744 289.763,207.390 281.388,208.430 290.608 C 209.535 300.416,221.706 306.887,230.656 302.425 C 232.158 301.676,278.027 256.461,332.587 201.947 L 431.787 102.829 431.787 140.834 C 431.787 178.564,431.801 178.866,433.707 182.596 C 434.763 184.663,437.102 187.529,438.906 188.964 C 441.839 191.298,442.798 191.573,448.000 191.573 C 453.202 191.573,454.161 191.298,457.094 188.964 C 458.898 187.529,461.237 184.663,462.293 182.596 L 464.213 178.838 464.209 120.779 C 464.206 83.474,463.889 61.586,463.322 59.546 C 462.258 55.714,458.991 51.661,455.365 49.676 C 452.922 48.339,447.650 48.201,393.813 48.073 C 361.429 47.996,333.695 48.234,332.181 48.601 M96.853 112.611 C 82.709 114.295,70.396 121.178,60.547 132.905 C 55.876 138.466,52.646 144.487,50.131 152.320 L 48.213 158.293 48.213 288.000 L 48.213 417.707 50.131 423.680 C 52.647 431.517,55.876 437.534,60.554 443.104 C 68.384 452.428,76.956 458.220,88.320 461.869 L 94.293 463.787 224.000 463.787 L 353.707 463.787 359.680 461.869 C 378.131 455.945,391.365 442.857,397.864 424.107 L 399.787 418.560 400.029 320.427 C 400.300 210.777,400.685 217.977,394.241 212.156 C 386.853 205.481,375.236 207.484,370.179 216.305 L 368.213 219.733 367.787 317.440 L 367.360 415.147 365.512 418.560 C 363.026 423.153,357.953 427.904,353.280 430.015 C 349.475 431.733,348.285 431.749,224.000 431.749 C 99.715 431.749,98.525 431.733,94.720 430.015 C 90.047 427.904,84.974 423.153,82.488 418.560 L 80.640 415.147 80.640 288.000 L 80.640 160.853 82.488 157.440 C 84.679 153.392,89.706 148.439,93.867 146.227 C 96.709 144.717,101.197 144.619,186.453 144.213 C 267.725 143.826,276.291 143.655,278.613 142.374 C 283.778 139.525,287.573 133.437,287.573 128.000 C 287.573 122.563,283.778 116.475,278.613 113.626 C 276.282 112.339,268.281 112.204,189.013 112.107 C 141.141 112.049,99.669 112.275,96.853 112.611 " stroke="none" fill-rule="evenodd" fill="black"></path></svg>