<svg xmlns="http://www.w3.org/2000/svg" width="512" height="512" viewBox="0 0 512 512"><path d="M334.080 48.192 C 333.611 48.356,332.200 48.716,330.946 48.992 C 325.535 50.180,320.037 57.744,320.037 64.000 C 320.037 67.659,322.484 73.166,325.232 75.693 C 330.079 80.148,330.747 80.213,371.379 80.213 L 409.159 80.213 390.005 99.381 C 379.471 109.924,371.026 118.688,371.239 118.858 C 371.452 119.027,372.971 120.060,374.613 121.153 C 379.028 124.089,387.185 132.147,390.184 136.533 C 391.628 138.645,392.954 140.548,393.130 140.761 C 393.307 140.974,402.076 132.529,412.619 121.995 L 431.787 102.841 431.805 140.807 C 431.823 175.894,431.944 179.032,433.400 182.187 C 435.306 186.318,438.008 188.917,442.224 190.679 C 450.660 194.204,460.762 189.214,463.383 180.228 C 464.016 178.059,464.224 158.582,464.046 118.187 C 463.792 60.626,463.748 59.240,462.039 56.332 C 461.078 54.696,458.645 52.200,456.633 50.785 L 452.974 48.213 393.954 48.053 C 361.493 47.965,334.549 48.027,334.080 48.192 M96.564 112.694 C 75.234 115.504,57.730 130.242,50.535 151.449 L 48.213 158.293 48.213 288.000 L 48.213 417.707 50.535 424.551 C 56.593 442.407,69.556 455.362,87.467 461.462 L 94.293 463.787 224.000 463.787 L 353.707 463.787 360.533 461.462 C 378.444 455.362,391.407 442.407,397.465 424.551 L 399.787 417.707 399.787 288.853 C 399.787 150.024,399.987 156.487,395.366 145.954 L 393.322 141.295 313.354 221.231 C 256.955 277.609,232.452 301.554,230.214 302.477 C 216.877 307.982,204.018 295.123,209.523 281.786 C 210.446 279.548,234.376 255.060,290.714 198.700 L 370.597 118.786 368.125 117.515 C 366.766 116.815,362.965 115.336,359.680 114.228 L 353.707 112.213 227.840 112.097 C 158.613 112.034,99.539 112.302,96.564 112.694 " stroke="none" fill-rule="evenodd" fill="black"></path></svg>