<svg xmlns="http://www.w3.org/2000/svg" width="512" height="512" viewBox="0 0 512 512"><path d="M324.499 81.439 C 312.017 84.464,298.401 95.335,293.184 106.442 L 290.687 111.757 174.934 111.985 L 59.182 112.213 55.584 114.594 C 49.309 118.747,46.760 125.287,48.663 132.353 C 49.916 137.004,54.805 142.006,59.326 143.262 C 61.724 143.927,96.172 144.205,176.696 144.209 L 290.673 144.213 293.176 149.543 C 296.882 157.431,306.604 166.991,314.880 170.883 C 323.795 175.076,328.908 176.085,338.661 175.576 C 348.385 175.067,354.468 173.041,362.856 167.518 C 369.721 162.997,374.397 157.752,378.497 149.973 L 381.533 144.213 415.407 144.209 C 437.488 144.205,450.462 143.876,452.674 143.262 C 457.195 142.006,462.084 137.004,463.337 132.353 C 465.239 125.287,462.691 118.748,456.417 114.594 L 452.821 112.213 417.154 111.957 L 381.488 111.700 378.267 105.557 C 368.388 86.711,345.364 76.384,324.499 81.439 M164.390 209.565 C 151.900 212.589,139.733 222.110,133.733 233.557 L 130.512 239.700 94.846 239.957 L 59.179 240.213 55.583 242.594 C 49.309 246.748,46.761 253.287,48.663 260.353 C 49.916 265.004,54.805 270.006,59.326 271.262 C 61.538 271.876,74.512 272.205,96.593 272.209 L 130.467 272.213 133.503 277.973 C 137.603 285.752,142.279 290.997,149.144 295.518 C 157.172 300.804,163.659 303.036,172.558 303.572 C 187.706 304.485,199.427 300.030,209.920 289.372 C 214.220 285.005,217.141 281.124,218.824 277.543 L 221.327 272.213 335.304 272.209 C 415.828 272.205,450.276 271.927,452.674 271.262 C 457.195 270.006,462.084 265.004,463.337 260.353 C 465.240 253.287,462.691 246.747,456.416 242.594 L 452.818 240.213 337.066 239.985 L 221.313 239.757 218.816 234.442 C 215.124 226.581,205.391 217.010,197.120 213.106 C 193.600 211.445,188.685 209.664,186.198 209.149 C 180.150 207.898,170.520 208.081,164.390 209.565 M324.499 337.439 C 312.017 340.464,298.401 351.335,293.184 362.442 L 290.687 367.757 174.934 367.985 L 59.182 368.213 55.584 370.594 C 49.309 374.747,46.760 381.287,48.663 388.353 C 49.916 393.004,54.805 398.006,59.326 399.262 C 61.724 399.927,96.172 400.205,176.696 400.209 L 290.673 400.213 293.176 405.543 C 296.882 413.431,306.604 422.991,314.880 426.883 C 323.795 431.076,328.908 432.085,338.661 431.576 C 348.385 431.067,354.468 429.041,362.856 423.518 C 369.721 418.997,374.397 413.752,378.497 405.973 L 381.533 400.213 415.407 400.209 C 437.488 400.205,450.462 399.876,452.674 399.262 C 457.195 398.006,462.084 393.004,463.337 388.353 C 465.239 381.287,462.691 374.748,456.417 370.594 L 452.821 368.213 417.154 367.957 L 381.488 367.700 378.267 361.557 C 368.388 342.711,345.364 332.384,324.499 337.439 " stroke="none" fill-rule="evenodd" fill="black"></path></svg>