<svg xmlns="http://www.w3.org/2000/svg" width="512" height="512" viewBox="0 0 512 512"><path d="M324.499 81.439 C 312.009 84.466,298.402 95.334,293.176 106.457 L 290.673 111.787 169.230 111.787 L 47.787 111.787 47.787 128.000 L 47.787 144.213 169.230 144.213 L 290.673 144.213 293.176 149.543 C 296.882 157.431,306.604 166.991,314.880 170.883 C 323.795 175.076,328.908 176.085,338.661 175.576 C 348.385 175.067,354.468 173.041,362.856 167.518 C 369.721 162.997,374.397 157.752,378.497 149.973 L 381.533 144.213 422.873 144.213 L 464.213 144.213 464.213 128.000 L 464.213 111.787 422.873 111.787 L 381.533 111.787 378.290 105.600 C 368.387 86.709,345.387 76.378,324.499 81.439 M164.390 209.565 C 151.879 212.594,139.734 222.108,133.710 233.600 L 130.467 239.787 89.127 239.787 L 47.787 239.787 47.787 256.000 L 47.787 272.213 89.127 272.213 L 130.467 272.213 133.503 277.973 C 137.603 285.752,142.279 290.997,149.144 295.518 C 157.172 300.804,163.659 303.036,172.558 303.572 C 187.706 304.485,199.427 300.030,209.920 289.372 C 214.220 285.005,217.141 281.124,218.824 277.543 L 221.327 272.213 342.770 272.213 L 464.213 272.213 464.213 256.000 L 464.213 239.787 342.770 239.787 L 221.327 239.787 218.824 234.457 C 215.123 226.580,205.399 217.014,197.120 213.106 C 193.600 211.445,188.685 209.664,186.198 209.149 C 180.150 207.898,170.520 208.081,164.390 209.565 M324.499 337.439 C 312.009 340.466,298.402 351.334,293.176 362.457 L 290.673 367.787 169.230 367.787 L 47.787 367.787 47.787 384.000 L 47.787 400.213 169.230 400.213 L 290.673 400.213 293.176 405.543 C 296.882 413.431,306.604 422.991,314.880 426.883 C 323.795 431.076,328.908 432.085,338.661 431.576 C 348.385 431.067,354.468 429.041,362.856 423.518 C 369.721 418.997,374.397 413.752,378.497 405.973 L 381.533 400.213 422.873 400.213 L 464.213 400.213 464.213 384.000 L 464.213 367.787 422.873 367.787 L 381.533 367.787 378.330 361.690 C 368.375 342.746,345.370 332.382,324.499 337.439 " stroke="none" fill-rule="evenodd" fill="black"></path></svg>