<svg xmlns="http://www.w3.org/2000/svg" width="512" height="512" viewBox="0 0 512 512"><path d="M323.954 81.510 C 321.201 82.208,316.593 84.009,313.714 85.512 C 306.524 89.268,296.408 99.542,293.106 106.442 L 290.560 111.764 177.067 111.796 C 112.058 111.814,62.143 112.159,60.226 112.604 C 48.166 115.401,43.981 130.368,52.795 139.182 C 54.520 140.908,57.459 142.743,59.326 143.262 C 61.723 143.927,96.188 144.209,176.640 144.220 L 290.560 144.236 293.106 149.558 C 296.528 156.709,306.630 166.962,313.807 170.568 C 331.169 179.292,351.611 177.143,366.481 165.031 C 371.465 160.970,377.846 152.672,380.026 147.413 L 381.353 144.213 415.316 144.209 C 437.463 144.205,450.461 143.876,452.674 143.262 C 454.541 142.743,457.480 140.908,459.205 139.182 C 468.019 130.368,463.834 115.401,451.774 112.604 C 449.933 112.177,433.400 111.818,415.033 111.807 L 381.640 111.787 379.430 107.307 C 374.112 96.529,363.640 87.048,352.552 82.972 C 345.288 80.302,331.504 79.598,323.954 81.510 M344.190 114.624 C 356.710 121.631,352.617 141.536,338.181 143.844 C 329.218 145.277,320.037 137.260,320.037 128.000 C 320.037 121.744,325.535 114.180,330.946 112.992 C 332.200 112.716,333.611 112.350,334.080 112.179 C 335.766 111.563,340.969 112.821,344.190 114.624 M165.973 209.085 C 152.063 211.878,137.940 223.169,132.108 236.160 L 130.480 239.787 97.027 239.807 C 78.627 239.818,62.067 240.177,60.226 240.604 C 48.166 243.401,43.981 258.368,52.795 267.182 C 54.520 268.908,57.459 270.743,59.326 271.262 C 61.539 271.876,74.522 272.205,96.629 272.209 L 130.537 272.213 131.829 275.306 C 133.998 280.495,140.585 289.011,145.576 293.077 C 154.589 300.418,164.315 303.787,176.503 303.787 C 189.801 303.787,200.118 299.343,209.934 289.386 C 214.168 285.091,217.213 281.071,218.894 277.558 L 221.440 272.236 335.360 272.220 C 415.812 272.209,450.277 271.927,452.674 271.262 C 454.541 270.743,457.480 268.908,459.205 267.182 C 468.019 258.368,463.834 243.401,451.774 240.604 C 449.857 240.159,399.942 239.814,334.933 239.796 L 221.440 239.764 218.894 234.442 C 215.600 227.559,205.475 217.267,198.321 213.531 C 189.270 208.805,176.271 207.018,165.973 209.085 M183.467 241.940 C 186.484 243.493,189.142 246.546,190.679 250.224 C 195.247 261.157,185.460 273.705,173.819 271.844 C 162.626 270.054,156.823 257.605,162.593 247.760 C 166.711 240.734,176.059 238.127,183.467 241.940 M323.954 337.510 C 321.201 338.208,316.593 340.009,313.714 341.512 C 306.524 345.268,296.408 355.542,293.106 362.442 L 290.560 367.764 177.067 367.796 C 112.058 367.814,62.143 368.159,60.226 368.604 C 48.166 371.401,43.981 386.368,52.795 395.182 C 54.520 396.908,57.459 398.743,59.326 399.262 C 61.723 399.927,96.188 400.209,176.640 400.220 L 290.560 400.236 293.106 405.558 C 296.528 412.709,306.630 422.962,313.807 426.568 C 331.169 435.292,351.611 433.143,366.481 421.031 C 371.465 416.970,377.846 408.672,380.026 403.413 L 381.353 400.213 415.316 400.209 C 437.463 400.205,450.461 399.876,452.674 399.262 C 454.541 398.743,457.480 396.908,459.205 395.182 C 468.019 386.368,463.834 371.401,451.774 368.604 C 449.933 368.177,433.400 367.818,415.033 367.807 L 381.640 367.787 379.430 363.307 C 374.112 352.529,363.640 343.048,352.552 338.972 C 345.288 336.302,331.504 335.598,323.954 337.510 M344.190 370.624 C 356.710 377.631,352.617 397.536,338.181 399.844 C 329.218 401.277,320.037 393.260,320.037 384.000 C 320.037 377.744,325.535 370.180,330.946 368.992 C 332.200 368.716,333.611 368.350,334.080 368.179 C 335.766 367.563,340.969 368.821,344.190 370.624 " stroke="none" fill="black" fill-rule="evenodd"></path></svg>