<svg xmlns="http://www.w3.org/2000/svg" width="512" height="512" viewBox="0 0 512 512"><path d="M247.621 109.210 C 136.239 151.394,44.271 186.458,43.248 187.129 C 30.267 195.650,28.433 213.827,39.472 224.540 C 42.244 227.230,53.727 232.408,114.779 258.497 C 191.536 291.297,190.675 290.989,197.361 288.089 C 198.871 287.434,250.219 240.163,311.467 183.043 C 372.715 125.923,423.676 78.858,424.715 78.454 C 429.287 76.676,434.671 81.544,433.708 86.585 C 433.494 87.700,388.436 136.693,329.198 200.220 C 271.923 261.640,224.535 313.129,223.891 314.639 C 221.060 321.277,220.792 320.529,253.381 396.874 C 271.855 440.153,285.031 469.930,286.531 471.791 C 287.901 473.490,291.212 476.007,293.890 477.385 C 304.715 482.955,318.456 478.847,325.102 468.053 C 325.969 466.645,361.138 374.485,403.254 263.253 C 474.474 75.159,479.829 60.651,479.810 55.835 C 479.775 46.708,474.784 38.712,466.568 34.617 C 463.056 32.867,460.961 32.435,456.152 32.469 C 450.283 32.510,445.098 34.418,247.621 109.210 " stroke="none" fill-rule="evenodd" fill="black"></path></svg>