<svg xmlns="http://www.w3.org/2000/svg" width="512" height="512" viewBox="0 0 512 512"><path d="M255.147 112.208 L 15.787 208.044 20.480 210.133 C 23.061 211.282,63.128 229.390,109.517 250.372 C 155.905 271.355,194.379 288.405,195.014 288.261 C 195.649 288.118,250.778 239.424,317.522 180.053 C 384.266 120.683,440.640 70.571,442.798 68.693 L 446.720 65.280 443.307 69.200 C 441.429 71.357,391.317 127.731,331.947 194.477 C 272.576 261.222,223.883 316.349,223.740 316.980 C 223.597 317.611,240.835 356.469,262.047 403.330 C 283.258 450.192,301.376 490.235,302.308 492.315 L 304.004 496.097 399.895 256.370 C 452.635 124.520,495.787 16.546,495.787 16.428 C 495.787 16.310,495.499 16.249,495.147 16.292 C 494.795 16.336,386.795 59.498,255.147 112.208 " stroke="none" fill="black" fill-rule="evenodd"></path></svg>