<svg xmlns="http://www.w3.org/2000/svg" width="512" height="512" viewBox="0 0 512 512"><path d="M247.626 109.133 C 134.359 152.054,43.668 186.875,41.827 188.151 C 34.165 193.460,30.469 203.614,32.858 212.787 C 34.514 219.146,38.339 224.672,42.957 227.378 C 44.964 228.555,84.366 244.826,130.518 263.538 L 214.431 297.558 248.802 382.229 C 267.706 428.797,284.067 468.214,285.160 469.821 C 291.120 478.585,304.001 482.195,313.831 477.857 C 318.215 475.922,323.711 471.086,325.588 467.513 C 326.237 466.277,361.206 374.309,403.298 263.139 C 474.457 75.199,479.827 60.650,479.809 55.835 C 479.778 47.185,475.413 39.681,467.829 35.237 C 464.666 33.383,462.661 32.908,457.039 32.678 L 450.133 32.397 247.626 109.133 M314.333 175.053 L 222.906 266.479 150.717 237.193 C 111.013 221.086,78.694 207.741,78.897 207.539 C 79.237 207.199,404.377 83.846,405.333 83.694 C 405.567 83.657,364.617 124.769,314.333 175.053 M427.417 109.013 C 426.914 110.304,399.249 183.347,365.938 271.331 C 332.627 359.314,305.100 431.788,304.766 432.384 C 304.420 433.003,291.617 402.546,274.866 361.255 L 245.572 289.044 336.758 197.855 C 386.910 147.702,428.031 106.667,428.137 106.667 C 428.244 106.667,427.920 107.723,427.417 109.013 " stroke="none" fill-rule="evenodd" fill="black"></path></svg>