<svg xmlns="http://www.w3.org/2000/svg" width="512" height="512" viewBox="0 0 512 512"><path d="M320.000 64.445 L 320.000 96.464 336.000 96.232 L 352.000 96.000 352.224 64.213 L 352.447 32.427 336.224 32.427 L 320.000 32.427 320.000 64.445 M211.833 83.847 L 200.537 95.166 217.388 111.918 L 234.240 128.670 245.022 129.094 L 255.804 129.518 261.868 123.413 L 267.933 117.307 245.531 94.917 L 223.129 72.527 211.833 83.847 M426.240 94.720 L 404.063 116.909 415.583 128.429 L 427.103 139.949 449.280 117.760 L 471.457 95.571 459.937 84.051 L 448.417 72.531 426.240 94.720 M325.636 112.693 C 308.982 114.527,291.327 121.460,278.356 131.261 L 275.539 133.390 285.609 136.692 C 323.205 149.020,357.436 177.375,377.527 212.828 L 381.351 219.576 391.118 222.782 C 402.599 226.550,412.328 230.721,420.698 235.464 L 426.729 238.882 427.610 236.563 C 429.939 230.437,431.095 222.910,431.506 211.200 C 431.890 200.241,431.690 197.111,430.113 189.440 C 423.080 155.238,398.981 127.935,366.080 116.898 C 354.514 113.018,338.142 111.315,325.636 112.693 M210.347 161.626 C 153.258 171.099,109.785 211.160,93.120 269.653 C 91.716 274.581,90.106 281.109,89.542 284.160 C 88.978 287.211,88.273 289.983,87.976 290.320 C 87.678 290.657,82.969 292.061,77.510 293.439 C 30.082 305.418,1.924 337.497,0.265 381.440 C -1.594 430.695,26.928 466.532,76.373 477.067 C 91.607 480.312,103.350 480.551,231.253 480.209 C 352.686 479.885,354.703 479.852,363.959 478.070 C 413.088 468.608,448.735 436.816,460.354 392.099 C 465.112 373.786,465.129 352.172,460.401 333.572 C 452.103 300.935,430.839 275.556,398.988 260.276 C 389.334 255.644,374.747 250.811,365.374 249.139 C 359.186 248.035,359.106 247.987,357.750 244.545 C 353.404 233.516,342.343 215.943,333.409 205.874 C 313.599 183.548,289.073 169.158,260.080 162.847 C 249.826 160.616,220.740 159.901,210.347 161.626 M448.000 208.213 L 448.000 224.427 480.000 224.427 L 512.000 224.427 512.000 208.213 L 512.000 192.000 480.000 192.000 L 448.000 192.000 448.000 208.213 " stroke="none" fill-rule="evenodd" fill="black"></path></svg>