<svg xmlns="http://www.w3.org/2000/svg" width="512" height="512" viewBox="0 0 512 512"><path d="M328.962 33.771 C 325.114 35.777,323.335 37.619,321.605 41.387 C 320.231 44.378,320.037 47.176,320.037 64.000 C 320.037 84.985,320.534 87.582,325.399 92.063 C 329.676 96.001,338.184 96.922,343.583 94.033 C 346.223 92.620,350.601 87.345,351.348 84.678 C 352.197 81.643,352.197 46.357,351.348 43.322 C 350.526 40.388,346.094 35.286,342.956 33.663 C 339.808 32.035,332.178 32.094,328.962 33.771 M214.781 81.334 C 208.352 85.226,205.629 92.120,207.704 99.249 C 208.866 103.242,210.412 105.089,223.338 117.931 C 235.931 130.442,238.098 132.249,241.081 132.726 C 242.951 133.025,244.672 133.301,244.907 133.338 C 245.141 133.376,246.970 133.145,248.971 132.825 C 251.402 132.436,253.720 131.238,255.963 129.212 C 260.927 124.728,262.538 118.242,260.342 111.587 C 259.200 108.129,232.951 81.668,229.278 80.273 C 225.065 78.672,218.368 79.162,214.781 81.334 M440.187 81.903 C 438.076 83.301,430.939 89.968,424.327 96.717 C 411.966 109.336,410.441 111.699,410.477 118.187 C 410.499 122.156,413.357 127.524,416.880 130.211 C 419.497 132.208,421.103 132.706,425.719 132.953 C 430.849 133.228,431.714 133.019,435.266 130.645 C 441.765 126.301,462.951 104.093,464.196 100.318 C 465.737 95.650,464.784 89.229,462.010 85.593 C 458.491 80.978,455.180 79.367,449.213 79.363 C 444.882 79.361,443.392 79.780,440.187 81.903 M327.253 112.644 C 313.805 113.851,302.947 117.050,291.330 123.230 C 277.149 130.774,263.558 143.015,255.833 155.201 L 252.160 160.996 237.512 160.597 C 211.244 159.881,193.536 163.420,171.583 173.773 C 148.769 184.532,128.248 202.306,113.827 223.800 C 102.707 240.374,93.106 264.213,89.561 284.049 C 88.368 290.724,87.900 291.252,82.347 292.195 C 74.915 293.456,63.202 297.298,55.018 301.159 C 43.204 306.731,34.183 313.010,25.574 321.652 C 13.440 333.832,6.680 345.925,2.407 363.093 C -0.159 373.401,-0.375 395.190,1.980 406.187 C 6.159 425.708,13.613 439.555,26.560 451.851 C 44.553 468.939,65.783 477.371,96.363 479.576 C 112.152 480.715,333.973 480.691,348.943 479.549 C 355.241 479.069,363.219 478.092,366.672 477.379 C 418.263 466.722,454.078 430.904,462.603 381.440 C 464.155 372.435,463.960 351.220,462.237 341.644 C 459.583 326.899,453.835 312.076,446.392 300.787 C 439.167 289.827,426.601 277.140,415.573 269.669 C 413.931 268.556,412.444 267.539,412.270 267.409 C 412.096 267.279,413.804 264.370,416.064 260.946 C 428.436 242.207,434.190 216.526,430.969 194.429 C 428.996 180.896,423.000 165.403,415.405 154.209 C 402.758 135.570,381.741 120.722,360.238 115.234 C 354.910 113.874,336.125 111.448,334.507 111.910 C 334.272 111.977,331.008 112.307,327.253 112.644 M348.298 145.416 C 361.619 147.975,372.740 154.249,382.675 164.811 C 395.350 178.284,401.351 196.462,399.258 215.040 C 397.832 227.701,392.464 240.445,384.817 249.324 L 381.682 252.964 373.668 251.053 C 369.260 250.002,364.209 248.861,362.443 248.518 C 359.364 247.919,359.083 247.562,355.563 239.787 C 342.862 211.728,318.996 187.001,291.627 173.544 C 287.989 171.756,285.013 169.911,285.013 169.445 C 285.013 168.979,287.605 166.064,290.773 162.967 C 306.172 147.914,327.472 141.415,348.298 145.416 M244.929 192.887 C 281.585 197.381,312.897 221.281,327.773 256.119 C 334.385 271.604,340.872 276.662,359.016 280.476 C 400.006 289.093,426.215 314.579,431.011 350.484 C 432.308 360.199,431.516 375.549,429.238 384.853 C 424.262 405.171,409.035 424.573,389.578 435.388 C 382.350 439.405,371.904 443.412,362.721 445.689 C 355.464 447.489,354.532 447.504,227.413 447.801 C 133.806 448.019,97.237 447.833,91.312 447.109 C 65.926 444.003,47.024 432.396,38.569 414.720 C 34.227 405.643,32.427 396.939,32.427 385.026 C 32.427 360.698,43.404 343.052,65.657 331.608 C 73.757 327.442,80.453 325.192,91.307 322.986 C 100.282 321.163,105.718 318.474,110.859 313.316 C 115.814 308.344,118.286 303.129,120.396 293.200 C 123.011 280.899,125.237 273.024,128.321 265.170 C 140.075 235.229,162.875 211.334,190.386 200.124 C 207.315 193.226,226.709 190.653,244.929 192.887 M459.520 192.697 C 443.749 198.082,444.644 220.029,460.775 223.488 C 463.181 224.004,471.833 224.427,480.000 224.427 C 488.167 224.427,496.819 224.004,499.225 223.488 C 507.414 221.732,512.720 214.338,511.779 205.993 C 511.281 201.575,509.568 198.875,504.828 195.036 L 501.606 192.427 481.416 192.271 C 470.312 192.185,460.459 192.377,459.520 192.697 " stroke="none" fill-rule="evenodd" fill="black"></path></svg>