<svg xmlns="http://www.w3.org/2000/svg" width="512" height="512" viewBox="0 0 512 512"><path d="M328.960 33.848 C 325.007 35.936,323.308 37.678,321.605 41.387 C 320.231 44.378,320.037 47.176,320.037 64.000 C 320.037 80.930,320.226 83.615,321.633 86.712 C 325.283 94.751,335.731 98.235,343.583 94.033 C 346.223 92.620,350.601 87.345,351.348 84.678 C 352.197 81.643,352.197 46.357,351.348 43.322 C 350.444 40.094,345.754 34.964,342.441 33.580 C 338.763 32.043,332.126 32.175,328.960 33.848 M214.781 81.334 C 208.344 85.230,205.629 92.118,207.709 99.272 C 208.881 103.302,210.370 105.077,223.397 117.963 C 235.920 130.349,238.226 132.270,241.136 132.735 C 242.975 133.029,244.672 133.301,244.907 133.338 C 245.141 133.376,246.955 133.147,248.938 132.830 C 253.176 132.152,258.258 128.078,259.967 123.987 C 261.350 120.677,261.466 114.515,260.208 111.205 C 258.992 108.007,234.243 83.076,230.221 80.997 C 225.721 78.671,218.935 78.819,214.781 81.334 M440.187 81.903 C 438.076 83.301,430.982 89.925,424.423 96.623 C 414.274 106.987,412.329 109.404,411.364 112.855 C 409.919 118.023,410.639 122.395,413.632 126.631 C 417.975 132.776,425.827 134.920,433.004 131.921 C 436.474 130.471,458.284 109.584,462.143 104.015 C 466.250 98.089,465.774 90.040,460.980 84.342 C 458.078 80.893,454.268 79.360,448.600 79.360 C 444.952 79.360,443.249 79.875,440.187 81.903 M326.161 112.702 C 312.331 114.038,298.329 118.764,285.844 126.307 C 281.291 129.058,279.893 130.356,279.893 131.833 C 279.893 134.304,280.964 135.110,286.720 136.973 C 300.443 141.413,318.877 151.084,330.893 160.146 C 348.246 173.234,360.745 186.753,373.409 206.130 C 377.725 212.734,382.162 218.725,383.268 219.444 C 384.375 220.163,387.392 221.439,389.973 222.279 C 397.924 224.868,407.016 228.630,416.110 233.093 C 423.249 236.598,425.120 237.201,426.523 236.450 C 430.785 234.169,433.315 206.355,430.582 191.821 C 426.920 172.343,418.774 156.238,405.625 142.474 C 396.587 133.015,389.647 127.949,377.600 122.020 C 366.352 116.484,357.603 113.935,345.460 112.655 C 336.649 111.727,336.238 111.728,326.161 112.702 M210.347 161.626 C 153.258 171.099,109.785 211.160,93.120 269.653 C 91.716 274.581,90.106 281.109,89.542 284.160 C 88.978 287.211,88.273 289.983,87.976 290.320 C 87.678 290.657,82.969 292.061,77.510 293.439 C 30.082 305.418,1.924 337.497,0.265 381.440 C -1.594 430.695,26.928 466.532,76.373 477.067 C 91.607 480.312,103.350 480.551,231.253 480.209 C 352.686 479.885,354.703 479.852,363.959 478.070 C 413.088 468.608,448.735 436.816,460.354 392.099 C 468.499 360.751,462.695 324.954,445.315 299.340 C 429.264 275.685,405.383 259.711,372.843 250.863 C 367.580 249.432,362.208 247.502,360.906 246.575 C 359.552 245.611,356.477 240.995,353.726 235.797 C 333.051 196.734,300.977 171.748,260.080 162.847 C 249.826 160.616,220.740 159.901,210.347 161.626 M457.806 193.591 C 443.635 200.029,445.654 220.245,460.792 223.492 C 466.437 224.703,493.563 224.703,499.208 223.492 C 510.765 221.013,515.880 206.837,508.323 198.230 C 503.297 192.506,501.154 192.037,480.000 192.037 C 463.663 192.037,460.783 192.239,457.806 193.591 " stroke="none" fill-rule="evenodd" fill="black"></path></svg>