<svg xmlns="http://www.w3.org/2000/svg" width="512" height="512" viewBox="0 0 512 512"><path d="M153.625 81.565 C 149.725 83.256,147.791 85.083,145.829 88.926 C 144.260 92.000,144.213 96.846,144.213 256.000 C 144.213 417.451,144.239 419.957,145.896 423.207 C 147.912 427.158,151.025 429.758,155.209 430.986 C 157.192 431.568,168.240 431.796,186.162 431.625 L 214.031 431.360 217.309 428.745 C 219.112 427.307,221.355 424.619,222.293 422.772 C 223.980 419.453,224.003 417.495,224.227 258.560 C 224.387 145.067,224.180 96.385,223.525 93.218 C 222.448 88.019,219.601 84.247,214.967 81.883 C 211.915 80.326,209.842 80.216,184.141 80.247 C 161.541 80.274,156.054 80.511,153.625 81.565 M296.850 81.925 C 292.411 84.271,289.571 88.049,288.503 93.030 C 287.185 99.175,287.194 412.866,288.512 419.012 C 289.590 424.040,293.356 428.878,297.559 430.634 C 299.687 431.523,306.625 431.782,327.866 431.768 C 352.765 431.751,355.741 431.599,358.827 430.182 C 362.887 428.317,364.706 426.414,366.474 422.183 C 367.640 419.393,367.785 400.802,367.768 255.814 C 367.750 99.251,367.685 92.447,366.182 89.173 C 364.317 85.113,362.414 83.294,358.183 81.526 C 355.569 80.434,350.415 80.220,327.494 80.251 C 302.029 80.286,299.713 80.412,296.850 81.925 " stroke="none" fill-rule="evenodd" fill="black"></path></svg>