<svg xmlns="http://www.w3.org/2000/svg" width="512" height="512" viewBox="0 0 512 512"><path d="M241.920 48.669 C 177.359 52.784,118.768 87.102,81.958 142.362 C 55.666 181.831,43.309 234.683,49.503 281.173 C 55.829 328.652,75.879 369.527,109.176 402.824 C 142.702 436.350,182.619 455.851,231.680 462.670 C 235.904 463.257,246.848 463.738,256.000 463.738 C 265.152 463.738,276.096 463.257,280.320 462.670 C 329.321 455.859,369.272 436.331,402.802 402.802 C 436.331 369.272,455.859 329.321,462.670 280.320 C 464.046 270.420,464.046 241.580,462.670 231.680 C 455.892 182.914,436.342 142.776,403.220 109.623 C 391.401 97.792,382.569 90.546,369.558 82.006 C 331.997 57.351,287.606 45.757,241.920 48.669 M216.190 178.655 C 218.015 179.659,220.385 182.016,221.524 183.959 L 223.573 187.457 223.573 256.121 L 223.573 324.786 221.128 328.641 C 214.375 339.290,198.879 338.048,193.604 326.435 C 192.127 323.183,192.037 319.167,192.037 256.000 C 192.037 192.833,192.127 188.817,193.604 185.565 C 195.406 181.598,199.632 177.720,202.946 176.992 C 204.200 176.716,205.611 176.363,206.080 176.208 C 207.799 175.639,212.992 176.896,216.190 178.655 M311.467 177.953 C 314.475 179.483,317.139 182.537,318.679 186.224 C 319.834 188.987,319.998 197.794,319.981 256.186 C 319.964 319.150,319.873 323.185,318.396 326.435 C 313.121 338.048,297.625 339.290,290.872 328.641 L 288.427 324.786 288.427 256.162 L 288.427 187.539 290.314 184.181 C 294.329 177.036,304.041 174.177,311.467 177.953 " stroke="none" fill-rule="evenodd" fill="black"></path></svg>