<svg xmlns="http://www.w3.org/2000/svg" width="512" height="512" viewBox="0 0 512 512"><path d="M169.387 81.555 C 165.986 83.324,163.139 86.044,161.412 89.173 C 160.112 91.530,160.000 104.689,160.000 255.147 C 160.000 345.024,160.294 419.609,160.652 420.891 C 161.556 424.119,166.246 429.249,169.559 430.634 C 172.936 432.045,194.130 432.229,197.704 430.879 C 201.120 429.589,204.756 425.946,206.596 421.973 C 208.116 418.689,208.176 412.430,208.176 256.000 C 208.176 99.570,208.116 93.311,206.596 90.027 C 204.756 86.054,201.120 82.411,197.704 81.121 C 193.778 79.638,172.445 79.965,169.387 81.555 M313.600 81.397 C 309.954 83.075,307.250 85.896,305.415 89.937 C 303.881 93.316,303.824 99.208,303.824 256.000 C 303.824 412.430,303.884 418.689,305.404 421.973 C 307.244 425.946,310.880 429.589,314.296 430.879 C 317.870 432.229,339.064 432.045,342.441 430.634 C 346.734 428.840,350.441 424.016,351.516 418.825 C 352.183 415.601,352.388 367.859,352.227 253.440 C 352.003 94.505,351.980 92.547,350.293 89.228 C 349.355 87.381,347.112 84.693,345.310 83.255 L 342.034 80.640 329.097 80.429 C 319.526 80.273,315.494 80.525,313.600 81.397 " stroke="none" fill="black" fill-rule="evenodd"></path></svg>