<svg xmlns="http://www.w3.org/2000/svg" width="512" height="512" viewBox="0 0 512 512"><path d="M241.493 48.673 C 201.694 51.236,163.176 65.747,129.707 90.787 C 119.118 98.709,98.459 119.383,90.552 129.971 C 68.706 159.223,55.330 191.336,49.785 227.840 C 47.724 241.414,47.724 270.586,49.785 284.160 C 55.331 320.671,68.725 352.821,90.558 382.029 C 98.598 392.784,119.216 413.402,129.971 421.442 C 159.179 443.275,191.329 456.669,227.840 462.215 C 241.414 464.276,270.586 464.276,284.160 462.215 C 320.686 456.667,352.914 443.237,382.029 421.430 C 392.784 413.374,413.374 392.784,421.430 382.029 C 443.237 352.914,456.667 320.686,462.215 284.160 C 464.276 270.586,464.276 241.414,462.215 227.840 C 455.463 183.387,436.803 144.683,406.921 113.150 C 370.380 74.590,322.088 52.062,268.561 48.607 C 255.365 47.755,255.779 47.754,241.493 48.673 M284.160 82.308 C 319.998 88.383,351.735 104.258,377.739 129.118 C 405.349 155.513,423.300 189.800,429.832 228.618 C 431.923 241.048,431.905 271.514,429.799 283.733 C 419.921 341.032,385.307 387.989,334.011 413.679 C 285.590 437.929,226.410 437.929,177.989 413.679 C 126.525 387.905,91.775 340.650,82.174 283.382 C 80.053 270.734,80.053 241.266,82.174 228.618 C 92.715 165.745,133.739 115.017,192.849 91.764 C 205.896 86.632,221.606 82.941,239.787 80.737 C 246.454 79.928,276.372 80.988,284.160 82.308 M204.181 176.589 C 200.406 177.522,197.668 179.448,194.830 183.169 L 192.427 186.320 192.427 256.068 L 192.427 325.815 195.036 329.094 C 202.718 338.748,215.599 338.131,221.661 327.819 L 224.000 323.840 224.000 256.000 L 224.000 188.160 221.737 184.311 C 218.187 178.273,210.698 174.979,204.181 176.589 M300.447 176.390 C 296.709 177.126,291.906 180.848,289.938 184.533 L 288.000 188.160 288.000 256.000 L 288.000 323.840 290.339 327.819 C 293.183 332.657,297.189 335.277,302.661 335.879 C 307.793 336.443,313.131 333.911,316.964 329.094 L 319.573 325.815 319.573 256.000 L 319.573 186.185 316.923 182.906 C 315.465 181.102,313.161 178.992,311.803 178.216 C 309.054 176.646,303.598 175.769,300.447 176.390 " stroke="none" fill-rule="evenodd" fill="black"></path></svg>