<svg xmlns="http://www.w3.org/2000/svg" width="512" height="512" viewBox="0 0 512 512"><path d="M176.936 48.721 C 147.513 53.637,126.371 86.551,128.252 124.516 C 129.315 145.977,136.519 163.171,150.119 176.703 C 161.399 187.926,172.783 192.649,186.453 191.775 C 216.674 189.843,239.764 158.709,239.764 119.893 C 239.764 89.756,225.774 63.736,203.792 52.991 C 194.192 48.298,186.646 47.099,176.936 48.721 M320.000 48.693 C 312.524 49.961,301.972 55.647,295.145 62.087 C 280.227 76.160,272.236 96.324,272.236 119.893 C 272.236 158.709,295.326 189.843,325.547 191.775 C 339.393 192.660,350.529 187.946,362.274 176.229 C 370.625 167.899,375.293 160.264,379.399 148.224 C 393.078 108.119,374.818 60.786,341.660 50.401 C 335.150 48.361,326.144 47.651,320.000 48.693 M60.821 145.474 C 41.336 150.952,26.584 167.544,19.073 192.427 C 16.933 199.516,16.752 201.287,16.707 215.467 C 16.668 227.875,16.965 231.974,18.253 236.800 C 20.870 246.610,24.610 255.156,29.520 262.547 C 46.603 288.260,74.549 295.273,97.845 279.692 C 129.399 258.587,137.729 205.200,114.959 170.012 C 107.997 159.252,97.950 150.823,87.164 146.690 C 80.885 144.284,67.286 143.656,60.821 145.474 M428.599 145.529 C 393.675 154.934,374.524 203.350,389.045 245.523 C 394.045 260.047,402.998 272.229,414.155 279.692 C 444.876 300.238,481.752 280.863,493.354 238.080 C 495.076 231.730,495.317 228.913,495.283 215.467 C 495.248 201.271,495.069 199.524,492.927 192.427 C 485.344 167.304,470.329 150.567,450.813 145.484 C 444.775 143.911,434.529 143.932,428.599 145.529 M245.333 192.516 C 226.190 195.350,213.335 201.988,200.466 215.684 C 192.170 224.515,184.747 235.059,173.587 253.867 C 160.349 276.175,157.421 280.470,150.691 287.441 C 143.554 294.834,134.830 301.354,117.338 312.369 C 88.152 330.748,77.381 341.462,70.207 359.253 C 65.570 370.751,64.418 377.131,64.506 390.827 C 64.576 401.644,64.872 404.144,66.861 410.706 C 73.086 431.249,85.532 446.868,103.286 456.422 C 113.559 461.950,121.297 463.757,134.400 463.687 C 147.491 463.617,157.668 462.166,185.487 456.403 C 224.610 448.297,232.628 447.093,250.880 446.579 C 273.089 445.953,281.893 447.114,328.618 456.829 C 354.017 462.109,364.671 463.603,377.600 463.698 C 390.417 463.792,395.933 462.612,406.613 457.491 C 425.480 448.444,438.438 432.738,445.124 410.813 C 447.223 403.929,447.446 401.933,447.446 389.973 C 447.446 378.051,447.218 375.989,445.134 369.067 C 441.815 358.042,437.094 348.680,431.147 341.333 C 423.404 331.766,416.281 326.092,395.520 312.951 C 377.770 301.716,370.374 296.319,363.234 289.392 C 355.930 282.305,351.988 276.824,342.591 260.693 C 328.262 236.094,319.720 224.001,309.405 213.711 C 301.409 205.734,298.742 203.658,292.152 200.282 C 281.741 194.948,272.910 192.865,258.987 192.460 C 252.885 192.282,246.741 192.307,245.333 192.516 " stroke="none" fill-rule="evenodd" fill="black"></path></svg>