<svg xmlns="http://www.w3.org/2000/svg" width="512" height="512" viewBox="0 0 512 512"><path d="M174.371 48.699 C 153.874 52.226,138.244 69.250,130.852 96.099 C 128.705 103.897,128.529 105.757,128.517 120.747 C 128.504 138.330,129.680 146.140,134.457 160.182 C 141.321 180.360,155.981 199.093,170.736 206.542 C 184.878 213.681,200.986 213.457,214.724 205.932 C 221.577 202.177,231.088 191.750,235.652 182.986 C 243.714 167.506,246.213 155.254,245.509 134.646 C 244.997 119.676,243.762 112.457,239.624 100.267 C 232.501 79.280,218.446 61.244,203.057 53.341 C 194.958 49.182,182.903 47.232,174.371 48.699 M323.840 48.648 C 301.173 51.757,279.665 74.484,270.959 104.528 C 264.509 126.786,264.490 151.721,270.908 170.593 C 276.009 185.590,286.977 200.290,297.276 205.932 C 314.767 215.513,335.276 213.175,351.393 199.762 C 370.200 184.111,382.324 156.658,383.727 126.544 C 384.775 104.058,379.745 84.467,369.091 69.537 C 357.895 53.846,341.413 46.238,323.840 48.648 M187.547 81.534 C 197.352 85.614,207.780 102.048,211.808 119.767 C 214.153 130.078,214.340 147.267,212.195 155.307 C 210.315 162.357,206.623 170.269,203.478 173.988 C 200.800 177.155,195.353 180.016,192.000 180.016 C 186.119 180.016,177.769 173.406,171.608 163.872 C 158.895 144.203,156.496 110.872,166.448 92.199 C 172.021 81.743,179.259 78.084,187.547 81.534 M338.594 83.361 C 342.704 86.657,346.892 93.630,349.259 101.120 C 350.889 106.279,351.147 109.012,351.146 121.173 C 351.146 133.224,350.856 136.360,349.135 142.933 C 346.579 152.690,342.668 161.140,337.631 167.785 C 325.411 183.910,312.912 183.806,304.440 167.510 C 299.791 158.568,298.329 151.615,298.376 138.667 C 298.454 117.242,304.223 100.784,316.142 87.985 C 323.861 79.694,331.944 78.030,338.594 83.361 M55.893 153.095 C 35.860 157.700,22.280 173.224,17.459 197.029 C 15.300 207.692,16.064 226.162,19.140 237.653 C 23.560 254.166,31.677 270.325,41.856 282.880 C 59.288 304.380,83.160 315.361,103.253 311.123 C 122.217 307.123,135.959 292.785,141.773 270.933 C 144.215 261.755,144.465 242.588,142.275 232.397 C 138.178 213.327,129.536 194.787,118.671 181.760 C 113.658 175.749,103.994 166.706,98.709 163.081 C 93.552 159.543,83.644 155.001,78.211 153.684 C 71.529 152.063,61.528 151.799,55.893 153.095 M441.173 152.437 C 430.864 153.942,421.246 157.616,413.300 163.083 C 407.481 167.087,397.034 176.930,392.648 182.540 C 381.529 196.765,373.741 213.705,369.725 232.397 C 367.535 242.588,367.785 261.755,370.227 270.933 C 376.041 292.785,389.783 307.123,408.747 311.123 C 419.688 313.430,429.321 311.810,442.453 305.454 C 467.688 293.240,488.367 263.285,494.560 229.973 C 496.504 219.519,495.867 200.272,493.281 191.299 C 491.021 183.458,486.732 174.879,482.214 169.163 C 472.804 157.260,455.750 150.309,441.173 152.437 M75.520 186.777 C 89.774 193.615,103.653 212.370,109.382 232.533 C 111.981 241.682,112.183 259.040,109.777 266.368 C 105.506 279.372,96.578 282.958,83.788 276.807 C 61.336 266.008,44.187 229.755,48.963 203.186 C 52.004 186.268,61.818 180.205,75.520 186.777 M453.726 185.997 C 461.294 190.611,465.454 205.718,463.363 220.993 C 460.069 245.051,445.565 268.190,428.393 276.781 C 415.775 283.093,406.504 279.404,402.223 266.368 C 399.817 259.040,400.019 241.682,402.618 232.533 C 409.968 206.663,430.214 184.315,446.293 184.324 C 449.447 184.326,451.885 184.874,453.726 185.997 M241.557 225.305 C 226.053 228.551,213.285 236.246,201.705 249.323 C 195.795 255.996,184.637 272.075,175.753 286.720 C 168.353 298.918,165.066 303.242,158.134 309.899 C 152.548 315.263,147.641 318.662,120.152 336.204 C 91.488 354.496,80.220 373.565,81.317 401.920 C 81.950 418.267,86.326 429.819,96.433 441.827 C 108.986 456.740,124.090 463.710,143.787 463.680 C 159.031 463.657,165.133 462.240,208.749 448.595 C 251.206 435.313,262.258 435.470,308.110 450.006 C 346.340 462.126,352.505 463.534,367.787 463.637 C 379.972 463.718,385.942 462.452,395.540 457.750 C 407.413 451.934,418.322 440.764,424.511 428.085 C 428.619 419.670,430.134 413.342,430.685 402.302 C 431.249 391.010,429.743 382.262,425.502 372.208 C 418.573 355.777,409.470 346.953,381.725 329.766 C 354.210 312.723,349.721 308.428,335.386 285.440 C 310.493 245.521,299.053 234.083,276.907 226.973 C 272.048 225.413,268.545 225.004,258.133 224.784 C 251.093 224.636,243.634 224.870,241.557 225.305 M265.017 256.927 C 278.994 259.487,284.484 265.636,314.712 312.586 C 321.828 323.638,331.678 334.210,342.068 341.944 C 345.874 344.778,356.329 351.656,365.300 357.228 C 391.085 373.244,396.189 378.942,398.456 394.240 C 400.378 407.211,394.080 421.149,383.281 427.820 C 372.913 434.225,360.368 433.078,328.107 422.776 C 284.801 408.947,273.223 406.589,252.160 407.311 C 233.110 407.964,224.547 409.907,183.893 422.807 C 145.884 434.867,134.130 434.770,122.022 422.294 C 112.738 412.727,110.474 396.683,116.509 383.235 C 120.320 374.742,126.905 369.303,152.320 353.652 C 175.215 339.553,188.738 326.724,200.049 308.371 C 217.764 279.626,228.846 265.310,237.145 260.446 C 243.998 256.430,254.832 255.062,265.017 256.927 " stroke="none" fill-rule="evenodd" fill="black"></path></svg>