<svg xmlns="http://www.w3.org/2000/svg" width="512" height="512" viewBox="0 0 512 512"><path d="M418.040 48.698 C 409.664 49.930,404.086 53.263,393.920 63.114 C 383.402 73.307,381.185 76.352,379.900 82.369 C 378.891 87.089,379.857 93.559,382.124 97.272 C 384.093 100.496,410.437 127.014,413.889 129.247 C 420.517 133.535,430.184 133.546,436.889 129.274 C 438.541 128.221,443.950 123.183,448.909 118.080 C 458.986 107.707,461.854 102.822,463.500 93.228 C 467.000 72.816,451.738 51.935,430.933 48.670 C 424.787 47.705,424.795 47.705,418.040 48.698 M349.440 109.502 C 345.992 111.165,318.878 137.912,208.185 248.846 C 132.841 324.354,70.193 387.477,68.968 389.120 C 67.743 390.763,62.590 402.091,57.517 414.293 C 48.963 434.869,48.294 436.887,48.300 442.090 C 48.305 446.741,48.747 448.491,50.891 452.330 C 55.196 460.038,64.353 464.982,72.306 463.892 C 77.035 463.243,119.000 445.929,122.880 443.024 C 124.523 441.795,187.749 379.029,263.383 303.544 C 415.917 151.313,405.075 162.979,404.284 151.919 C 404.064 148.847,403.205 144.992,402.375 143.353 C 400.193 139.046,372.352 111.557,368.213 109.624 C 366.336 108.747,362.304 107.897,359.253 107.737 C 354.744 107.499,352.909 107.829,349.440 109.502 " stroke="none" fill-rule="evenodd" fill="black"></path></svg>