<svg xmlns="http://www.w3.org/2000/svg" width="512" height="512" viewBox="0 0 512 512"><path d="M414.293 48.950 C 411.947 49.550,408.750 50.710,407.189 51.529 C 404.743 52.812,371.150 84.468,370.559 86.048 C 370.441 86.363,382.822 99.094,398.073 114.340 L 425.802 142.059 428.243 139.509 C 429.585 138.107,437.097 130.336,444.936 122.240 C 461.752 104.872,463.707 101.655,463.730 91.307 C 463.752 81.274,462.038 78.371,447.700 64.155 C 439.513 56.038,434.317 51.573,431.752 50.450 C 426.659 48.222,419.539 47.610,414.293 48.950 M202.854 253.769 L 47.787 409.449 47.787 436.831 L 47.787 464.213 75.307 464.168 L 102.827 464.123 258.374 309.075 L 413.922 154.027 385.921 126.058 L 357.920 98.090 202.854 253.769 " stroke="none" fill-rule="evenodd" fill="black"></path></svg>