<svg xmlns="http://www.w3.org/2000/svg" width="512" height="512" viewBox="0 0 512 512"><path d="M426.971 48.676 C 417.930 49.930,413.927 52.657,398.528 68.047 C 382.985 83.581,381.763 85.490,382.494 93.097 C 383.038 98.761,385.357 101.831,399.698 115.879 C 412.875 128.787,415.241 130.202,422.484 129.506 C 428.206 128.956,431.317 126.580,445.946 111.590 C 459.307 97.900,461.708 94.235,463.434 84.897 C 467.258 64.210,448.599 45.674,426.971 48.676 M359.702 109.852 C 358.775 110.087,356.855 111.109,355.435 112.124 C 354.015 113.139,290.026 176.934,213.237 253.891 L 73.620 393.813 61.200 418.133 C 54.368 431.509,48.525 443.832,48.213 445.517 C 47.484 449.467,48.973 454.931,51.644 458.105 C 54.210 461.154,60.431 464.199,64.204 464.253 C 66.138 464.280,74.668 460.439,92.160 451.666 L 117.333 439.040 257.669 299.093 C 334.854 222.123,398.871 158.037,399.928 156.681 C 402.422 153.484,403.291 147.612,401.945 143.062 C 401.115 140.255,398.127 136.711,387.542 125.981 C 371.724 109.945,367.952 107.760,359.702 109.852 " stroke="none" fill-rule="evenodd" fill="black"></path></svg>