<svg xmlns="http://www.w3.org/2000/svg" width="512" height="512" viewBox="0 0 512 512"><path d="M324.045 81.564 C 315.693 83.074,308.630 85.445,300.895 89.338 C 275.819 101.957,259.334 123.782,253.324 152.320 C 251.826 159.434,252.039 178.205,253.701 185.629 C 257.035 200.514,264.296 215.024,274.038 226.269 C 284.517 238.366,301.534 248.804,317.867 253.154 C 325.301 255.134,328.104 255.433,339.627 255.476 C 350.567 255.516,354.152 255.198,360.369 253.633 C 370.993 250.960,379.729 247.112,388.509 241.239 C 402.225 232.065,412.384 220.309,419.371 205.527 C 428.756 185.672,430.522 164.476,424.512 143.826 C 416.395 115.936,395.589 94.107,368.213 84.758 C 355.179 80.307,337.906 79.058,324.045 81.564 M142.558 112.664 C 120.214 115.759,100.095 129.480,89.002 149.191 C 78.724 167.454,77.363 191.897,85.532 211.539 C 96.500 237.912,123.419 256.000,151.701 256.000 C 185.715 256.000,214.225 233.048,222.421 199.066 C 224.447 190.669,224.212 175.583,221.920 166.827 C 213.748 135.609,187.562 114.183,155.307 112.322 C 151.317 112.092,145.581 112.246,142.558 112.664 M130.560 277.738 C 79.020 285.352,36.149 308.040,21.884 335.251 C 16.678 345.181,16.213 348.503,16.213 375.808 L 16.213 400.223 91.093 400.005 L 165.973 399.787 166.473 384.853 C 166.948 370.659,167.121 369.491,169.959 361.252 C 178.239 337.212,196.347 317.251,224.188 301.475 C 228.985 298.757,232.921 296.299,232.935 296.012 C 232.972 295.235,220.810 289.842,212.053 286.753 C 201.772 283.126,186.132 279.359,174.774 277.775 C 163.667 276.226,140.927 276.207,130.560 277.738 M316.805 289.739 C 282.072 294.663,248.064 306.883,222.681 323.562 C 213.379 329.674,199.117 343.439,194.108 351.140 C 192.278 353.952,189.918 358.391,188.862 361.005 C 184.577 371.614,184.320 374.036,184.320 403.806 L 184.320 431.787 340.053 431.787 L 495.787 431.787 495.787 404.190 C 495.787 379.711,495.600 375.865,494.138 370.147 C 492.393 363.323,488.698 355.291,484.469 349.125 C 477.933 339.597,463.570 326.990,449.945 318.822 C 429.675 306.671,399.480 296.041,370.537 290.868 C 357.358 288.513,329.573 287.929,316.805 289.739 " stroke="none" fill-rule="evenodd" fill="black"></path></svg>