<svg xmlns="http://www.w3.org/2000/svg" width="512" height="512" viewBox="0 0 512 512"><path d="M241.920 48.669 C 177.359 52.784,118.768 87.102,81.958 142.362 C 55.666 181.831,43.309 234.683,49.503 281.173 C 55.829 328.652,75.879 369.527,109.176 402.824 C 142.702 436.350,182.619 455.851,231.680 462.670 C 235.904 463.257,246.848 463.738,256.000 463.738 C 265.152 463.738,276.096 463.257,280.320 462.670 C 329.321 455.859,369.272 436.331,402.802 402.802 C 436.331 369.272,455.859 329.321,462.670 280.320 C 464.046 270.420,464.046 241.580,462.670 231.680 C 455.892 182.914,436.342 142.776,403.220 109.623 C 391.401 97.792,382.569 90.546,369.558 82.006 C 331.997 57.351,287.606 45.757,241.920 48.669 M284.160 82.304 C 321.162 88.560,353.794 105.371,380.211 131.789 C 406.735 158.313,423.262 190.465,429.804 228.267 C 431.881 240.265,431.881 271.735,429.804 283.733 C 426.705 301.640,420.594 320.318,412.716 335.958 L 409.621 342.102 399.154 336.639 C 338.196 304.821,252.763 317.513,212.724 364.335 C 200.110 379.086,191.898 395.496,188.344 413.053 L 187.289 418.268 177.911 413.539 C 163.206 406.122,162.759 405.782,163.428 402.535 C 164.714 396.281,169.967 381.953,173.708 374.490 C 180.419 361.102,187.112 352.111,199.851 339.370 C 210.824 328.397,211.627 327.374,211.627 324.372 C 211.627 318.271,205.563 315.326,187.555 312.681 C 174.205 310.720,147.427 311.383,135.457 313.971 C 124.150 316.416,112.878 320.291,103.773 324.862 C 97.820 327.851,96.029 328.427,95.457 327.536 C 93.743 324.868,87.954 308.664,85.905 300.800 C 81.605 284.300,80.719 276.646,80.719 256.000 C 80.719 241.653,81.092 234.643,82.196 228.267 C 88.706 190.645,105.418 158.109,131.763 131.763 C 144.838 118.689,161.604 106.505,177.465 98.550 C 192.645 90.937,215.346 83.898,230.827 82.002 C 235.051 81.485,239.467 80.898,240.640 80.698 C 245.523 79.863,276.482 81.006,284.160 82.304 M309.218 145.415 C 283.766 150.274,263.961 168.215,256.827 192.877 C 254.056 202.455,253.601 218.913,255.814 229.547 C 259.417 246.861,267.391 261.445,279.670 273.176 C 287.496 280.653,295.545 285.649,305.153 288.993 C 311.183 291.092,313.106 291.343,323.413 291.376 C 333.276 291.408,335.793 291.127,340.907 289.420 C 357.942 283.735,371.628 272.453,381.502 255.954 C 385.598 249.110,388.432 242.010,390.959 232.262 C 393.636 221.936,393.626 204.874,390.937 194.987 C 384.309 170.610,366.825 153.024,342.613 146.377 C 335.578 144.445,317.088 143.913,309.218 145.415 M156.587 171.641 C 132.478 173.745,113.204 190.472,107.071 214.613 C 104.906 223.137,105.068 237.260,107.435 246.187 C 112.464 265.161,125.344 281.874,141.083 289.850 C 146.958 292.827,157.175 295.255,163.763 295.241 C 195.084 295.170,222.069 264.739,222.017 229.547 C 221.992 212.392,216.848 199.678,205.245 188.091 C 192.314 175.179,176.668 169.889,156.587 171.641 " stroke="none" fill-rule="evenodd" fill="black"></path></svg>