<svg xmlns="http://www.w3.org/2000/svg" width="512" height="512" viewBox="0 0 512 512"><path d="M323.840 80.762 C 292.323 85.713,268.220 105.028,258.647 133.002 C 252.167 151.941,252.299 173.562,259.020 194.154 C 263.871 209.012,271.401 221.167,282.826 232.576 C 314.188 263.896,358.345 263.735,389.892 232.188 C 412.645 209.435,423.287 171.608,415.602 140.800 C 410.045 118.525,395.301 99.904,374.859 89.347 C 362.999 83.221,353.737 80.987,338.773 80.644 C 331.968 80.487,325.248 80.541,323.840 80.762 M140.800 112.360 C 123.275 113.747,104.792 123.025,94.050 135.829 C 67.122 167.927,74.865 220.634,110.455 247.503 C 120.872 255.366,134.187 259.801,147.200 259.740 C 157.405 259.693,164.173 258.065,173.653 253.380 C 192.073 244.277,207.586 224.377,213.519 202.240 C 216.329 191.758,216.338 171.559,213.537 161.885 C 207.370 140.582,192.388 124.117,172.315 116.582 C 163.817 113.392,150.425 111.598,140.800 112.360 M125.440 279.970 C 87.799 284.811,54.202 302.954,34.879 328.875 C 24.954 342.190,16.213 363.263,16.213 373.878 C 16.213 384.086,22.303 393.729,31.406 397.935 C 35.398 399.780,35.637 399.787,95.763 399.787 C 166.199 399.787,158.203 401.253,162.159 387.607 C 170.945 357.294,188.207 331.526,212.306 312.747 C 221.803 305.347,223.284 302.712,220.897 297.471 C 218.269 291.704,194.265 283.181,172.490 280.282 C 162.607 278.966,134.684 278.781,125.440 279.970 M311.893 289.370 C 291.498 291.823,270.060 297.986,252.611 306.413 C 233.963 315.419,222.388 323.717,208.985 337.687 C 195.403 351.845,186.380 366.788,179.792 386.038 C 176.801 394.776,176.253 397.435,176.245 403.241 C 176.237 409.284,176.570 410.788,179.029 415.782 C 182.389 422.606,187.736 427.613,194.280 430.062 C 198.918 431.797,199.740 431.806,337.339 431.583 L 475.733 431.360 479.775 429.352 C 485.240 426.636,490.470 421.246,493.146 415.573 C 495.053 411.531,495.357 409.755,495.336 402.773 C 495.314 395.666,494.916 393.517,492.108 385.341 C 487.995 373.365,480.133 358.229,473.239 349.013 C 466.461 339.952,452.290 326.149,443.307 319.857 C 422.431 305.235,399.237 295.975,370.773 290.899 C 362.573 289.436,356.369 289.020,339.627 288.811 C 328.128 288.667,315.648 288.919,311.893 289.370 " stroke="none" fill-rule="evenodd" fill="black"></path></svg>