<svg xmlns="http://www.w3.org/2000/svg" width="512" height="512" viewBox="0 0 512 512"><path d="M241.493 48.632 C 206.738 51.017,171.801 62.745,142.933 81.718 C 128.585 91.149,120.680 97.613,108.343 110.003 C 91.556 126.864,78.221 145.748,68.219 166.827 C 46.496 212.602,42.128 264.444,55.943 312.506 C 76.100 382.635,130.610 436.733,201.051 456.521 C 248.226 469.773,299.811 465.232,345.124 443.839 C 387.146 424.000,423.561 387.678,443.573 345.640 C 469.519 291.139,470.759 229.452,447.019 174.126 C 431.508 137.977,405.897 106.938,372.907 84.308 C 346.166 65.965,315.080 54.076,283.273 50.026 C 270.229 48.366,253.508 47.808,241.493 48.632 M339.627 145.900 C 359.503 149.980,376.549 163.057,385.658 181.213 C 390.926 191.713,392.694 199.647,392.720 212.907 C 392.765 236.508,384.689 256.405,368.646 272.213 C 358.202 282.505,348.519 287.840,335.085 290.703 C 327.395 292.342,314.025 291.756,306.773 289.460 C 282.890 281.902,263.375 260.014,256.683 233.282 C 254.209 223.397,254.008 204.160,256.283 194.987 C 258.347 186.666,264.398 174.687,269.861 168.107 C 285.719 149.008,312.791 140.391,339.627 145.900 M178.773 172.880 C 198.487 177.534,215.098 193.969,220.184 213.853 C 222.476 222.815,222.449 236.022,220.120 245.760 C 213.297 274.280,189.448 295.253,163.840 295.253 C 139.289 295.253,116.817 276.629,108.239 249.173 C 106.504 243.617,106.240 241.029,106.240 229.547 C 106.240 218.004,106.492 215.560,108.217 210.347 C 117.808 181.375,147.644 165.532,178.773 172.880 M188.334 312.792 C 205.734 315.376,211.627 318.337,211.627 324.499 C 211.627 327.651,211.067 328.383,202.123 336.937 C 183.339 354.903,173.388 370.542,165.960 393.774 C 164.467 398.445,162.671 402.629,161.971 403.071 C 158.714 405.125,135.330 385.597,121.659 369.406 C 110.589 356.297,96.865 334.015,97.431 330.072 C 98.113 325.322,122.696 315.841,142.189 312.809 C 152.795 311.160,177.281 311.151,188.334 312.792 M342.860 320.049 C 362.835 322.225,382.352 327.879,398.080 336.046 C 405.258 339.773,407.530 341.365,407.736 342.810 C 407.900 343.955,406.429 347.138,404.007 350.882 C 374.873 395.918,328.201 424.869,274.884 430.977 C 263.535 432.277,237.644 431.599,227.413 429.733 C 212.135 426.947,192.223 420.985,189.167 418.281 C 187.339 416.664,187.579 414.549,190.806 403.801 C 197.571 381.273,213.143 360.041,233.398 345.728 C 252.058 332.542,278.419 322.940,303.787 320.088 C 313.170 319.033,333.345 319.013,342.860 320.049 " stroke="none" fill-rule="evenodd" fill="black"></path></svg>