<svg xmlns="http://www.w3.org/2000/svg" width="512" height="512" viewBox="0 0 512 512"><path d="M319.798 81.504 C 268.249 91.263,241.481 141.903,259.449 195.676 C 264.366 210.392,271.421 221.350,283.727 233.387 C 299.268 248.587,315.859 255.593,336.213 255.551 C 348.504 255.526,355.896 253.822,367.345 248.374 C 375.933 244.287,380.851 240.727,389.232 232.530 C 402.898 219.162,410.722 205.118,415.616 185.173 C 417.274 178.414,417.613 174.727,417.656 162.987 C 417.700 150.848,417.430 147.848,415.701 141.227 C 407.993 111.708,386.292 89.913,357.456 82.728 C 347.940 80.357,329.094 79.745,319.798 81.504 M140.800 112.374 C 127.682 113.363,111.383 119.949,101.763 128.150 C 90.906 137.406,83.145 149.948,79.679 163.840 C 77.382 173.048,77.567 190.575,80.070 200.795 C 86.601 227.458,105.004 248.795,128.420 256.851 C 150.314 264.384,173.828 258.098,192.040 239.844 C 207.773 224.074,215.854 204.302,215.882 181.511 C 215.907 161.151,209.875 145.986,196.267 132.193 C 188.104 123.920,178.409 118.177,167.006 114.862 C 162.831 113.649,147.709 111.602,145.493 111.951 C 145.024 112.024,142.912 112.215,140.800 112.374 M349.440 113.620 C 364.090 116.720,377.938 129.161,383.328 144.067 C 385.866 151.085,386.434 168.146,384.433 177.220 C 379.067 201.546,361.145 220.734,341.118 223.596 C 320.504 226.542,298.090 209.820,289.738 185.264 C 286.967 177.119,285.524 165.973,286.135 157.440 C 288.416 125.603,315.961 106.536,349.440 113.620 M157.440 145.373 C 167.339 148.017,175.852 154.988,180.285 164.078 C 192.220 188.551,173.678 226.108,148.883 227.687 C 137.308 228.424,125.871 221.484,117.596 208.702 C 108.845 195.184,107.623 173.830,114.892 161.427 C 119.401 153.733,127.055 147.905,135.701 145.581 C 141.614 143.992,151.902 143.894,157.440 145.373 M122.866 280.277 C 90.921 284.828,62.481 298.795,42.778 319.611 C 34.586 328.265,30.366 334.251,25.220 344.519 C 17.310 360.300,14.585 373.536,17.463 382.201 C 19.617 388.687,24.570 394.462,30.458 397.353 L 35.413 399.787 95.147 400.046 C 136.754 400.226,155.855 400.020,158.094 399.367 C 162.124 398.192,167.149 393.845,168.660 390.227 C 171.023 384.572,169.836 377.836,165.706 373.470 C 160.489 367.957,163.623 368.237,104.320 367.970 C 69.449 367.812,50.347 367.427,50.347 366.882 C 50.347 365.549,56.278 354.099,59.161 349.867 C 70.236 333.608,91.100 320.300,114.580 314.518 C 140.905 308.036,172.278 309.859,196.076 319.255 C 199.674 320.676,203.904 321.707,206.136 321.707 C 217.911 321.707,225.283 309.675,220.085 298.939 C 219.106 296.916,217.350 294.510,216.185 293.593 C 211.668 290.040,192.925 283.844,178.254 281.054 C 168.375 279.175,133.988 278.693,122.866 280.277 M315.307 288.964 C 281.896 292.452,253.594 302.784,228.012 320.829 C 219.427 326.885,204.889 341.089,198.322 349.837 C 186.699 365.322,176.516 390.022,176.317 403.213 C 176.224 409.330,176.509 410.653,179.013 415.744 C 182.487 422.808,188.398 428.355,194.577 430.351 C 198.668 431.672,209.985 431.787,336.279 431.787 C 472.801 431.787,473.561 431.777,478.237 430.028 C 484.214 427.792,490.076 422.155,493.072 415.761 C 495.068 411.503,495.354 409.845,495.310 402.773 C 495.267 395.740,494.841 393.428,492.087 385.314 C 485.180 364.957,476.259 350.666,460.873 335.306 C 436.768 311.244,408.209 297.263,369.433 290.541 C 361.636 289.189,323.727 288.085,315.307 288.964 M363.093 322.029 C 405.521 328.693,439.173 349.921,454.851 379.912 C 458.503 386.897,462.507 396.856,462.507 398.953 C 462.507 400.059,446.985 400.213,335.770 400.213 L 209.034 400.213 209.575 397.867 C 210.672 393.108,217.144 379.343,221.256 373.020 C 230.535 358.754,248.759 343.481,266.665 334.965 C 284.075 326.684,296.433 323.484,322.560 320.490 C 328.442 319.816,355.560 320.846,363.093 322.029 " stroke="none" fill-rule="evenodd" fill="black"></path></svg>