<svg xmlns="http://www.w3.org/2000/svg" width="512" height="512" viewBox="0 0 512 512"><path d="M241.920 48.669 C 177.359 52.784,118.768 87.102,81.958 142.362 C 55.666 181.831,43.309 234.683,49.503 281.173 C 55.829 328.652,75.879 369.527,109.176 402.824 C 142.702 436.350,182.619 455.851,231.680 462.670 C 235.904 463.257,246.848 463.738,256.000 463.738 C 265.152 463.738,276.096 463.257,280.320 462.670 C 329.321 455.859,369.272 436.331,402.802 402.802 C 436.331 369.272,455.859 329.321,462.670 280.320 C 464.046 270.420,464.046 241.580,462.670 231.680 C 455.892 182.914,436.342 142.776,403.220 109.623 C 391.401 97.792,382.569 90.546,369.558 82.006 C 331.997 57.351,287.606 45.757,241.920 48.669 M343.040 146.381 C 346.091 147.153,352.064 149.449,356.314 151.484 C 371.498 158.753,383.090 170.329,390.345 185.469 C 395.925 197.113,397.184 203.000,397.124 217.173 C 397.080 227.589,396.781 230.083,394.793 236.636 C 385.581 266.996,360.216 287.168,328.960 288.991 C 309.005 290.155,290.322 283.163,275.470 268.972 C 264.837 258.814,257.902 246.932,254.597 233.213 C 252.648 225.125,252.663 209.678,254.628 201.074 C 261.017 173.090,282.380 151.992,310.583 145.812 C 319.303 143.901,334.282 144.164,343.040 146.381 M187.307 173.247 C 199.337 177.035,208.934 183.564,216.287 192.961 C 225.101 204.225,228.926 215.226,229.008 229.547 C 229.072 240.528,227.918 245.603,223.041 255.795 C 212.817 277.164,189.799 290.651,166.391 288.990 C 136.486 286.867,113.000 263.204,111.176 233.357 C 109.401 204.323,128.981 178.404,157.516 172.014 C 165.685 170.184,179.382 170.751,187.307 173.247 M182.736 306.389 C 196.566 307.790,219.545 313.193,222.093 315.644 C 222.453 315.989,219.774 318.155,216.140 320.457 C 198.897 331.380,184.191 346.854,176.431 362.240 C 171.373 372.269,169.612 380.060,169.055 394.883 L 168.533 408.752 161.845 404.464 C 135.446 387.538,114.731 364.956,100.019 337.067 C 93.742 325.167,93.731 325.874,100.255 322.693 C 114.392 315.800,132.806 310.091,148.584 307.710 C 164.026 305.379,170.354 305.134,182.736 306.389 M350.293 317.860 C 361.035 319.778,376.208 323.676,385.280 326.848 C 396.406 330.737,411.456 338.007,410.975 339.260 C 410.756 339.832,408.388 343.837,405.714 348.160 C 377.631 393.559,331.288 423.526,278.356 430.514 C 261.036 432.800,236.687 431.908,220.580 428.398 C 218.237 427.888,212.000 426.285,206.720 424.838 L 197.120 422.206 197.130 404.596 C 197.141 385.140,197.758 381.310,202.330 372.302 C 215.362 346.627,258.094 323.743,305.493 317.054 C 316.594 315.488,339.295 315.896,350.293 317.860 " stroke="none" fill-rule="evenodd" fill="black"></path></svg>