<svg xmlns="http://www.w3.org/2000/svg" width="512" height="512" viewBox="0 0 512 512"><path d="M241.920 48.669 C 177.359 52.784,118.768 87.102,81.958 142.362 C 55.666 181.831,43.309 234.683,49.503 281.173 C 55.829 328.652,75.879 369.527,109.176 402.824 C 142.702 436.350,182.619 455.851,231.680 462.670 C 235.904 463.257,246.848 463.738,256.000 463.738 C 265.152 463.738,276.096 463.257,280.320 462.670 C 329.321 455.859,369.272 436.331,402.802 402.802 C 436.331 369.272,455.859 329.321,462.670 280.320 C 464.046 270.420,464.046 241.580,462.670 231.680 C 455.892 182.914,436.342 142.776,403.220 109.623 C 391.401 97.792,382.569 90.546,369.558 82.006 C 331.997 57.351,287.606 45.757,241.920 48.669 M275.474 146.735 C 301.703 154.228,320.470 176.167,323.259 202.596 C 325.220 221.173,320.210 241.465,309.924 256.612 C 290.641 285.007,259.695 295.218,231.569 282.465 C 212.105 273.640,196.555 253.914,190.621 230.520 C 188.332 221.498,187.706 205.639,189.318 197.547 C 194.868 169.697,216.394 149.414,245.333 144.766 C 251.374 143.796,269.281 144.966,275.474 146.735 M272.705 320.907 C 309.268 324.465,342.972 338.640,365.230 359.822 C 372.939 367.158,381.440 377.068,381.440 378.719 C 381.440 380.023,370.142 390.158,361.387 396.709 C 342.124 411.122,322.828 420.391,299.807 426.291 C 241.841 441.148,180.861 425.810,136.747 385.279 C 133.344 382.153,130.560 379.201,130.560 378.719 C 130.560 377.068,139.061 367.158,146.770 359.822 C 176.415 331.611,225.819 316.345,272.705 320.907 " stroke="none" fill-rule="evenodd" fill="black"></path></svg>