<svg xmlns="http://www.w3.org/2000/svg" width="512" height="512" viewBox="0 0 512 512"><path d="M241.493 48.632 C 206.738 51.017,171.801 62.745,142.933 81.718 C 128.585 91.149,120.680 97.613,108.343 110.003 C 91.556 126.864,78.221 145.748,68.219 166.827 C 46.496 212.602,42.128 264.444,55.943 312.506 C 76.100 382.635,130.610 436.733,201.051 456.521 C 248.226 469.773,299.811 465.232,345.124 443.839 C 387.146 424.000,423.561 387.678,443.573 345.640 C 469.519 291.139,470.759 229.452,447.019 174.126 C 431.508 137.977,405.897 106.938,372.907 84.308 C 346.166 65.965,315.080 54.076,283.273 50.026 C 270.229 48.366,253.508 47.808,241.493 48.632 M284.160 82.304 C 359.465 95.035,416.619 152.312,429.809 228.267 C 432.071 241.287,431.856 272.628,429.415 285.867 C 423.637 317.204,410.171 346.003,390.268 369.588 C 383.734 377.330,381.937 377.924,378.287 373.547 C 371.692 365.639,357.176 352.301,349.867 347.432 C 319.012 326.880,278.293 317.112,239.295 320.907 C 210.746 323.685,183.962 332.892,162.133 347.432 C 154.824 352.301,140.308 365.639,133.713 373.547 C 130.063 377.924,128.266 377.330,121.732 369.588 C 101.367 345.455,87.535 315.469,82.326 284.160 C 80.413 272.659,79.763 250.679,80.988 238.893 C 86.441 186.426,114.990 139.253,159.232 109.605 C 181.357 94.778,209.260 84.473,236.373 81.115 C 245.695 79.961,274.544 80.679,284.160 82.304 M245.333 144.766 C 223.022 148.349,204.945 161.014,195.577 179.627 C 181.437 207.720,187.734 243.529,211.086 267.808 C 230.146 287.626,256.679 293.235,280.431 282.465 C 313.078 267.662,331.911 224.378,320.685 189.948 C 313.829 168.922,297.071 152.905,275.474 146.735 C 269.281 144.966,251.374 143.796,245.333 144.766 " stroke="none" fill-rule="evenodd" fill="black"></path></svg>