<svg xmlns="http://www.w3.org/2000/svg" width="512" height="512" viewBox="0 0 512 512"><path d="M241.920 48.669 C 177.359 52.784,118.768 87.102,81.958 142.362 C 55.666 181.831,43.309 234.683,49.503 281.173 C 55.829 328.652,75.879 369.527,109.176 402.824 C 142.702 436.350,182.619 455.851,231.680 462.670 C 235.904 463.257,246.848 463.738,256.000 463.738 C 265.152 463.738,276.096 463.257,280.320 462.670 C 329.321 455.859,369.272 436.331,402.802 402.802 C 436.331 369.272,455.859 329.321,462.670 280.320 C 464.046 270.420,464.046 241.580,462.670 231.680 C 455.892 182.914,436.342 142.776,403.220 109.623 C 391.401 97.792,382.569 90.546,369.558 82.006 C 331.997 57.351,287.606 45.757,241.920 48.669 M271.498 145.416 C 298.846 150.667,320.591 171.149,327.749 198.400 C 330.262 207.966,330.260 223.837,327.744 233.387 C 322.283 254.120,308.591 271.096,289.707 280.548 C 277.786 286.515,263.004 289.130,250.174 287.543 C 214.757 283.161,188.515 255.469,186.316 220.160 C 184.494 190.893,201.200 163.027,227.976 150.669 C 233.960 147.907,241.536 145.584,247.040 144.823 C 253.031 143.995,265.695 144.301,271.498 145.416 M276.907 320.892 C 330.603 324.871,367.204 339.702,380.447 362.849 C 381.878 365.350,383.535 369.214,384.129 371.435 L 385.209 375.473 380.978 379.812 C 374.077 386.888,362.001 396.704,352.427 403.021 C 294.220 441.425,217.764 441.425,159.573 403.019 C 149.858 396.608,137.744 386.772,131.022 379.838 L 126.791 375.473 127.871 371.435 C 131.416 358.182,144.763 345.112,163.449 336.597 C 190.717 324.171,236.195 317.875,276.907 320.892 " stroke="none" fill-rule="evenodd" fill="black"></path></svg>