<svg xmlns="http://www.w3.org/2000/svg" width="512" height="512" viewBox="0 0 512 512"><path d="M236.496 33.796 C 213.928 37.579,191.838 49.472,175.241 66.774 C 166.802 75.572,161.467 83.017,156.228 93.306 C 148.260 108.956,144.211 125.941,144.217 143.685 C 144.231 187.726,168.787 226.504,208.640 245.422 C 262.328 270.908,327.869 248.655,355.248 195.644 C 368.983 169.051,371.589 138.314,362.531 109.759 C 350.075 70.492,315.216 40.307,274.745 33.744 C 264.831 32.136,246.246 32.161,236.496 33.796 M229.547 289.786 C 192.681 294.206,152.343 306.455,121.235 322.678 C 84.461 341.856,61.235 364.992,52.172 391.474 C 48.245 402.947,47.751 409.375,47.990 445.875 L 48.213 480.000 256.000 480.000 L 463.787 480.000 463.787 443.733 C 463.787 416.689,463.495 406.056,462.640 401.920 C 456.220 370.871,432.616 344.662,391.672 323.122 C 360.120 306.523,318.864 294.014,281.600 289.748 C 267.592 288.144,243.095 288.162,229.547 289.786 " stroke="none" fill-rule="evenodd" fill="black"></path></svg>