<svg xmlns="http://www.w3.org/2000/svg" width="512" height="512" viewBox="0 0 512 512"><path d="M269.227 33.639 C 235.022 40.228,209.924 58.447,195.311 87.294 C 187.521 102.671,184.077 117.715,184.037 136.533 C 183.915 194.166,223.321 245.816,274.251 254.779 C 307.499 260.631,344.037 243.927,367.280 212.250 C 384.916 188.216,394.550 154.450,391.744 126.510 C 389.259 101.768,379.894 80.801,363.808 63.964 C 355.233 54.989,348.106 49.680,337.067 44.045 C 320.235 35.453,310.930 33.223,290.133 32.796 C 279.939 32.586,273.304 32.854,269.227 33.639 M307.280 66.449 C 333.976 73.368,353.752 94.511,358.864 121.600 C 359.949 127.350,360.197 131.853,359.850 139.520 C 359.123 155.596,356.255 166.567,349.144 180.464 C 335.455 207.221,312.111 223.744,288.000 223.744 C 271.830 223.744,256.549 216.737,243.149 203.178 C 224.598 184.408,214.760 158.103,216.149 130.987 C 217.105 112.336,223.747 97.006,236.323 84.430 C 246.086 74.668,259.083 67.924,273.067 65.365 C 282.528 63.634,298.351 64.135,307.280 66.449 M79.769 162.500 C 77.843 163.655,75.410 166.178,74.222 168.252 C 72.144 171.882,72.102 172.331,71.841 193.869 L 71.576 215.791 49.228 216.055 L 26.880 216.320 23.285 218.759 C 17.102 222.954,14.515 231.511,17.366 238.334 C 18.890 241.981,23.913 246.302,27.923 247.415 C 29.754 247.924,39.905 248.313,51.413 248.315 L 71.680 248.320 71.685 268.587 C 71.687 280.095,72.076 290.246,72.585 292.077 C 73.698 296.087,78.019 301.110,81.666 302.634 C 88.433 305.461,96.999 302.904,101.238 296.792 L 103.680 293.270 103.945 270.847 L 104.209 248.424 126.131 248.159 C 147.694 247.898,148.114 247.858,151.764 245.769 C 161.999 239.909,162.551 225.763,152.813 218.880 L 149.191 216.320 126.688 216.055 L 104.186 215.791 103.933 193.377 L 103.680 170.964 101.332 167.419 C 96.750 160.499,86.867 158.244,79.769 162.500 M259.840 289.710 C 175.566 299.446,109.811 347.261,87.041 415.365 C 78.745 440.178,78.161 453.207,84.837 464.597 C 87.956 469.920,94.598 475.654,100.310 477.955 L 105.387 480.000 288.000 480.000 L 470.613 480.000 475.690 477.955 C 481.487 475.620,487.869 470.065,491.111 464.532 C 497.853 453.028,497.296 440.300,488.959 415.365 C 466.081 346.938,400.121 299.201,315.307 289.687 C 301.862 288.179,272.991 288.191,259.840 289.710 M314.453 321.731 C 341.969 324.900,373.540 335.495,395.093 348.792 C 426.795 368.350,448.365 394.398,458.523 425.387 C 460.514 431.463,464.192 445.677,464.207 447.360 C 464.211 447.712,384.917 448.000,288.000 448.000 C 191.083 448.000,111.789 447.712,111.793 447.360 C 111.808 445.677,115.486 431.463,117.477 425.387 C 131.653 382.137,168.452 348.228,219.733 331.161 C 237.484 325.253,251.007 322.637,274.773 320.515 C 280.771 319.979,305.945 320.751,314.453 321.731 " stroke="none" fill-rule="evenodd" fill="black"></path></svg>