<svg xmlns="http://www.w3.org/2000/svg" width="512" height="512" viewBox="0 0 512 512"><path d="M268.373 33.781 C 236.667 39.362,209.602 58.973,195.470 86.607 C 179.377 118.076,179.843 157.153,196.734 192.519 C 207.713 215.506,228.176 236.723,249.013 246.725 C 284.133 263.584,322.147 257.045,352.397 228.941 C 384.955 198.694,399.677 149.638,388.617 108.245 C 383.952 90.786,376.380 77.239,364.034 64.266 C 348.091 47.513,329.778 37.736,306.875 33.747 C 297.473 32.109,277.773 32.127,268.373 33.781 M79.769 162.500 C 77.843 163.655,75.410 166.178,74.222 168.252 C 72.144 171.882,72.102 172.331,71.841 193.868 L 71.576 215.789 49.655 216.055 L 27.733 216.320 23.762 218.655 C 17.201 222.512,14.381 231.189,17.366 238.334 C 18.890 241.981,23.913 246.302,27.923 247.415 C 29.754 247.924,39.905 248.313,51.413 248.315 L 71.680 248.320 71.685 268.587 C 71.687 280.095,72.076 290.246,72.585 292.077 C 73.698 296.087,78.019 301.110,81.666 302.634 C 87.689 305.150,94.905 303.590,99.434 298.791 C 103.651 294.323,103.972 292.286,104.042 269.492 L 104.107 248.425 126.080 248.159 C 147.697 247.898,148.114 247.859,151.764 245.769 C 162.016 239.900,162.460 225.209,152.581 218.668 L 149.036 216.320 126.611 216.055 L 104.186 215.791 103.933 193.377 L 103.680 170.964 101.332 167.419 C 96.750 160.499,86.867 158.244,79.769 162.500 M261.973 289.393 C 200.317 295.683,144.036 325.230,111.837 368.213 C 100.567 383.257,92.866 397.943,86.921 415.723 C 78.803 440.003,78.228 453.320,84.811 464.553 C 87.879 469.789,94.788 475.718,100.521 478.034 L 105.387 480.000 288.000 480.000 L 470.613 480.000 475.517 478.020 C 478.222 476.927,482.447 474.188,484.940 471.909 C 498.147 459.839,498.985 443.572,488.005 412.426 C 468.731 357.757,420.787 316.000,355.988 297.444 C 344.549 294.168,325.294 290.566,312.443 289.299 C 302.077 288.276,272.381 288.332,261.973 289.393 " stroke="none" fill-rule="evenodd" fill="black"></path></svg>