<svg xmlns="http://www.w3.org/2000/svg" width="512" height="512" viewBox="0 0 512 512"><path d="M268.373 33.781 C 236.667 39.362,209.602 58.973,195.470 86.607 C 179.377 118.076,179.843 157.153,196.734 192.519 C 207.713 215.506,228.176 236.723,249.013 246.725 C 284.133 263.584,322.147 257.045,352.397 228.941 C 384.955 198.694,399.677 149.638,388.617 108.245 C 383.952 90.786,376.380 77.239,364.034 64.266 C 348.091 47.513,329.778 37.736,306.875 33.747 C 297.473 32.109,277.773 32.127,268.373 33.781 M27.959 216.732 C 18.572 219.604,13.695 229.549,17.366 238.334 C 18.920 242.052,23.971 246.339,28.111 247.454 C 30.401 248.070,50.380 248.289,89.776 248.130 L 148.053 247.893 151.903 245.630 C 162.062 239.657,162.426 225.185,152.579 218.668 L 149.033 216.320 89.663 216.169 C 57.010 216.085,29.243 216.339,27.959 216.732 M261.973 289.393 C 200.317 295.683,144.036 325.230,111.837 368.213 C 100.567 383.257,92.866 397.943,86.921 415.723 C 78.803 440.003,78.228 453.320,84.811 464.553 C 87.879 469.789,94.788 475.718,100.521 478.034 L 105.387 480.000 288.000 480.000 L 470.613 480.000 475.517 478.020 C 478.222 476.927,482.447 474.188,484.940 471.909 C 498.147 459.839,498.985 443.572,488.005 412.426 C 468.731 357.757,420.787 316.000,355.988 297.444 C 344.549 294.168,325.294 290.566,312.443 289.299 C 302.077 288.276,272.381 288.332,261.973 289.393 " stroke="none" fill-rule="evenodd" fill="black"></path></svg>