<svg xmlns="http://www.w3.org/2000/svg" width="512" height="512" viewBox="0 0 512 512"><path d="M236.746 33.757 C 215.054 37.404,194.090 48.613,179.315 64.467 C 166.083 78.664,158.210 94.100,153.873 114.347 C 151.542 125.231,151.776 150.079,154.318 161.632 C 160.001 187.463,170.726 207.448,188.542 225.401 C 203.361 240.335,217.446 248.694,235.947 253.536 C 246.552 256.311,265.849 256.337,275.920 253.589 C 293.694 248.738,307.046 241.192,320.567 228.354 C 332.143 217.362,339.257 207.804,346.035 194.133 C 355.203 175.644,359.098 160.813,359.875 141.429 C 361.132 110.089,351.112 83.321,330.240 62.266 C 315.458 47.355,295.444 37.101,274.487 33.702 C 264.924 32.151,246.137 32.178,236.746 33.757 M275.200 66.532 C 295.668 71.785,311.717 84.837,320.877 103.680 C 326.184 114.597,327.860 122.541,327.808 136.533 C 327.713 161.810,318.959 183.989,302.082 201.707 C 281.303 223.522,256.605 229.430,232.287 218.404 C 217.666 211.774,203.011 196.884,194.554 180.065 C 188.332 167.688,185.450 157.431,184.356 143.758 C 182.294 117.991,189.436 98.327,206.646 82.394 C 216.580 73.196,229.551 67.053,243.627 64.879 C 251.409 63.677,267.322 64.510,275.200 66.532 M227.840 289.718 C 197.333 293.338,172.679 300.615,146.526 313.720 C 93.746 340.168,58.768 384.903,49.000 438.451 C 47.815 444.948,47.721 447.419,48.482 452.014 C 50.958 466.954,61.284 477.593,75.274 479.616 C 82.377 480.644,429.623 480.644,436.726 479.616 C 450.716 477.593,461.042 466.954,463.518 452.014 C 464.279 447.419,464.185 444.948,463.000 438.451 C 453.231 384.899,418.276 340.205,365.436 313.705 C 338.893 300.393,314.723 293.327,283.307 289.694 C 270.392 288.200,240.525 288.213,227.840 289.718 M272.213 320.878 C 340.722 326.076,396.907 360.193,420.909 411.170 C 425.991 421.961,431.787 440.713,431.787 446.361 C 431.787 447.972,428.809 448.000,256.000 448.000 C 83.191 448.000,80.213 447.972,80.213 446.361 C 80.213 443.844,83.361 431.159,85.672 424.366 C 108.353 357.679,186.422 314.369,272.213 320.878 " stroke="none" fill-rule="evenodd" fill="black"></path></svg>