<svg xmlns="http://www.w3.org/2000/svg" width="512" height="512" viewBox="0 0 512 512"><path d="M268.373 33.804 C 252.250 36.697,234.953 44.141,221.713 53.887 C 208.246 63.800,195.108 79.250,187.766 93.806 C 184.285 100.709,180.192 112.720,178.149 122.027 C 175.579 133.739,175.606 154.046,178.207 166.173 C 183.124 189.098,192.712 206.612,209.402 223.155 C 223.386 237.016,235.923 244.764,253.440 250.370 C 266.945 254.692,272.802 255.573,288.000 255.573 C 303.198 255.573,309.055 254.692,322.560 250.370 C 340.077 244.764,352.614 237.016,366.598 223.155 C 383.288 206.612,392.876 189.098,397.793 166.173 C 399.289 159.202,399.662 154.686,399.644 143.787 C 399.620 129.135,398.569 122.165,394.495 109.653 C 381.602 70.055,347.844 40.805,306.875 33.735 C 297.410 32.101,277.670 32.137,268.373 33.804 M16.213 232.107 L 16.213 250.027 88.320 250.027 L 160.427 250.027 160.427 232.107 L 160.427 214.187 88.320 214.187 L 16.213 214.187 16.213 232.107 M268.373 288.958 C 208.589 295.150,145.883 319.673,113.553 349.505 C 97.303 364.499,88.268 377.892,83.059 394.709 L 80.694 402.347 80.406 441.387 L 80.119 480.427 288.000 480.427 L 495.881 480.427 495.594 441.387 L 495.306 402.347 492.941 394.709 C 483.902 365.526,459.456 341.077,419.129 320.887 C 391.285 306.947,359.088 296.799,325.275 291.305 C 314.247 289.513,308.365 289.085,291.840 288.868 C 280.811 288.723,270.251 288.763,268.373 288.958 " stroke="none" fill-rule="evenodd" fill="black"></path></svg>