<svg xmlns="http://www.w3.org/2000/svg" width="512" height="512" viewBox="0 0 512 512"><path d="M236.307 33.751 C 199.284 40.455,169.439 65.863,157.899 100.503 C 153.560 113.526,152.375 121.127,152.346 136.107 C 152.296 162.549,159.315 185.963,173.965 208.213 C 183.043 222.003,201.837 239.072,215.626 246.053 C 243.275 260.051,274.981 258.974,301.323 243.142 C 311.128 237.249,316.084 233.249,325.003 224.029 C 353.797 194.266,366.465 148.272,356.608 109.290 C 346.580 69.636,314.712 40.225,274.750 33.744 C 264.830 32.136,245.208 32.139,236.307 33.751 M229.547 289.391 C 209.732 291.407,184.621 297.496,166.196 304.753 C 108.245 327.575,67.367 370.084,52.595 422.882 C 48.559 437.308,47.338 445.698,48.385 451.813 C 50.928 466.653,60.657 476.911,74.644 479.497 C 81.731 480.807,430.269 480.807,437.356 479.497 C 451.343 476.911,461.072 466.653,463.615 451.813 C 464.389 447.289,464.291 444.960,463.050 438.422 C 455.501 398.652,435.533 365.119,403.382 338.222 C 371.526 311.570,327.318 293.919,280.870 289.305 C 270.527 288.277,239.992 288.329,229.547 289.391 " stroke="none" fill-rule="evenodd" fill="black"></path></svg>