<svg xmlns="http://www.w3.org/2000/svg" width="512" height="512" viewBox="0 0 512 512"><path d="M56.320 112.608 C 43.307 114.013,30.731 119.844,20.886 129.037 C 13.691 135.757,7.016 145.178,4.270 152.488 C 0.006 163.837,0.000 163.993,-0.000 256.111 C -0.000 348.706,-0.030 348.000,4.407 359.860 C 8.406 370.547,20.370 384.448,31.267 391.067 C 34.068 392.769,39.986 395.426,44.420 396.974 L 52.480 399.787 256.000 399.787 L 459.520 399.787 467.580 396.974 C 472.014 395.426,477.932 392.769,480.733 391.067 C 491.630 384.448,503.594 370.547,507.593 359.860 C 512.030 347.999,512.000 348.716,512.000 256.000 C 512.000 163.284,512.030 164.001,507.593 152.140 C 504.984 145.168,498.196 135.651,491.114 129.037 C 484.009 122.403,474.974 117.260,465.043 114.199 L 458.667 112.233 260.267 112.122 C 151.147 112.060,59.371 112.279,56.320 112.608 M461.829 147.439 C 468.202 150.577,473.653 156.031,477.013 162.635 L 479.147 166.827 479.147 256.000 L 479.147 345.173 477.013 349.365 C 473.653 355.969,468.202 361.423,461.829 364.561 L 456.143 367.360 256.000 367.360 L 55.857 367.360 50.171 364.561 C 43.798 361.423,38.347 355.969,34.987 349.365 C 33.028 345.517,32.830 344.070,32.565 331.733 C 32.308 319.737,32.427 318.293,33.674 318.293 C 37.720 318.293,46.650 311.445,50.847 305.125 C 55.808 297.653,56.290 293.297,56.290 256.000 C 56.290 218.703,55.808 214.347,50.847 206.875 C 46.650 200.555,37.720 193.707,33.674 193.707 C 32.427 193.707,32.308 192.263,32.565 180.267 C 32.830 167.929,33.028 166.484,34.984 162.654 C 39.256 154.289,46.407 148.097,54.857 145.448 C 57.801 144.525,94.540 144.349,257.298 144.480 L 456.143 144.640 461.829 147.439 " stroke="none" fill-rule="evenodd" fill="black"></path></svg>