<svg xmlns="http://www.w3.org/2000/svg" width="512" height="512" viewBox="0 0 512 512"><path d="M53.397 112.685 C 30.289 116.587,10.541 133.786,2.660 156.871 L 0.427 163.413 0.427 256.000 L 0.427 348.587 2.660 355.129 C 8.685 372.778,20.434 385.995,37.120 393.895 C 51.466 400.687,35.049 400.213,256.000 400.213 C 476.951 400.213,460.534 400.687,474.880 393.895 C 491.398 386.074,503.373 372.666,509.249 355.413 L 511.573 348.587 511.573 256.427 L 511.573 164.267 509.253 157.013 C 503.823 140.043,491.742 126.172,475.655 118.437 C 461.490 111.626,483.262 112.261,258.560 112.110 C 148.032 112.036,55.709 112.294,53.397 112.685 M460.800 146.869 C 467.767 150.178,473.091 155.343,476.342 161.947 L 479.147 167.644 479.147 256.000 L 479.147 344.356 476.342 350.053 C 473.091 356.657,467.767 361.822,460.800 365.131 L 456.107 367.360 256.000 367.360 L 55.893 367.360 51.200 365.131 C 44.235 361.823,38.909 356.656,35.658 350.055 C 33.006 344.671,32.837 343.765,32.554 333.442 C 32.204 320.673,32.529 319.843,39.414 315.958 C 47.660 311.304,53.465 303.519,55.362 294.571 C 56.670 288.398,56.670 223.602,55.362 217.429 C 53.465 208.481,47.660 200.696,39.414 196.042 C 32.529 192.157,32.204 191.327,32.554 178.558 C 32.837 168.235,33.006 167.329,35.658 161.945 C 39.800 153.535,47.642 147.236,56.747 145.006 C 58.155 144.661,148.587 144.438,257.707 144.509 L 456.107 144.640 460.800 146.869 M55.359 162.872 C 49.682 166.472,46.684 173.726,48.554 179.337 C 49.105 180.991,52.362 184.990,56.319 188.870 C 61.641 194.090,63.884 197.081,66.559 202.524 C 68.443 206.357,70.366 211.562,70.832 214.090 C 71.945 220.122,71.945 291.878,70.832 297.910 C 69.267 306.392,64.012 315.465,56.005 323.508 C 47.994 331.555,46.766 334.358,48.685 340.211 C 50.295 345.123,51.907 347.148,56.228 349.688 L 60.160 352.000 256.067 352.000 L 451.974 352.000 456.096 349.440 C 458.662 347.847,460.893 345.591,462.003 343.467 C 463.777 340.071,463.787 339.609,463.787 256.000 C 463.787 174.709,463.733 171.838,462.141 168.632 C 461.151 166.636,458.962 164.343,456.641 162.872 L 452.786 160.427 256.000 160.427 L 59.214 160.427 55.359 162.872 " stroke="none" fill-rule="evenodd" fill="black"></path></svg>