<svg xmlns="http://www.w3.org/2000/svg" width="512" height="512" viewBox="0 0 512 512"><path d="M164.267 0.907 C 149.828 3.390,135.906 11.861,125.946 24.222 C 121.261 30.036,115.150 42.322,113.375 49.493 C 111.646 56.479,111.646 455.521,113.375 462.507 C 115.150 469.678,121.261 481.964,125.946 487.778 C 134.170 497.984,144.303 505.049,156.871 509.340 L 163.413 511.573 256.000 511.573 L 348.587 511.573 355.413 509.249 C 372.666 503.373,386.074 491.398,393.895 474.880 C 400.687 460.534,400.213 476.951,400.213 256.000 C 400.213 35.049,400.687 51.466,393.895 37.120 C 385.995 20.434,372.778 8.685,355.129 2.660 L 348.587 0.427 258.560 0.300 C 209.045 0.230,166.613 0.504,164.267 0.907 M191.721 33.692 C 192.714 34.388,194.669 36.981,196.064 39.453 C 200.696 47.660,208.496 53.468,217.429 55.362 C 223.602 56.670,288.398 56.670,294.571 55.362 C 303.519 53.465,311.304 47.660,315.958 39.414 C 319.843 32.529,320.673 32.204,333.442 32.554 C 343.765 32.837,344.671 33.006,350.055 35.658 C 356.656 38.909,361.823 44.235,365.131 51.200 L 367.360 55.893 367.360 256.000 L 367.360 456.107 365.131 460.800 C 361.822 467.767,356.657 473.091,350.053 476.342 L 344.356 479.147 256.000 479.147 L 167.644 479.147 161.947 476.342 C 155.343 473.091,150.178 467.767,146.869 460.800 L 144.640 456.107 144.640 256.000 L 144.640 55.893 146.609 51.655 C 150.636 42.986,157.144 37.008,165.815 34.011 C 171.665 31.990,188.985 31.777,191.721 33.692 M172.679 48.601 C 168.279 49.650,164.333 52.593,162.101 56.491 L 160.000 60.160 160.000 256.067 L 160.000 451.974 162.560 456.096 C 164.153 458.662,166.409 460.893,168.533 462.003 C 171.929 463.777,172.391 463.787,256.000 463.787 C 339.609 463.787,340.071 463.777,343.467 462.003 C 345.591 460.893,347.847 458.662,349.440 456.096 L 352.000 451.974 352.000 256.067 L 352.000 60.160 349.899 56.491 C 347.580 52.440,343.743 49.669,338.935 48.572 C 333.617 47.358,330.382 48.856,323.991 55.494 C 314.164 65.700,305.404 70.134,292.043 71.665 C 282.376 72.773,229.624 72.773,219.957 71.665 C 206.599 70.134,197.839 65.702,188.012 55.499 C 184.177 51.518,181.172 49.174,179.203 48.627 C 177.559 48.170,176.021 47.833,175.787 47.879 C 175.552 47.924,174.154 48.249,172.679 48.601 " stroke="none" fill-rule="evenodd" fill="black"></path></svg>