<svg xmlns="http://www.w3.org/2000/svg" width="512" height="512" viewBox="0 0 512 512"><path d="M164.896 0.948 C 152.149 3.071,140.989 9.044,130.929 19.127 C 120.533 29.547,114.884 40.296,112.686 53.845 C 111.454 61.434,111.454 450.566,112.686 458.155 C 113.905 465.670,117.076 474.384,120.854 480.604 C 127.551 491.628,141.399 503.574,152.140 507.593 C 164.001 512.030,163.284 512.000,256.000 512.000 C 348.716 512.000,347.999 512.030,359.860 507.593 C 370.547 503.594,384.448 491.630,391.067 480.733 C 392.769 477.932,395.426 472.014,396.974 467.580 L 399.787 459.520 399.787 256.000 L 399.787 52.480 396.912 44.180 C 388.998 21.329,369.539 4.659,346.398 0.904 C 339.620 -0.196,171.517 -0.155,164.896 0.948 M193.707 33.741 C 193.707 38.458,203.130 49.436,210.036 52.764 C 216.466 55.864,222.329 56.311,256.427 56.300 C 293.257 56.289,297.673 55.794,305.125 50.847 C 311.445 46.650,318.293 37.720,318.293 33.674 C 318.293 32.427,319.737 32.308,331.733 32.565 C 344.070 32.830,345.517 33.028,349.365 34.987 C 355.969 38.347,361.423 43.798,364.561 50.171 L 367.360 55.857 367.360 256.000 L 367.360 456.143 364.561 461.829 C 359.767 471.566,351.292 477.794,340.480 479.526 C 332.950 480.731,179.125 480.740,171.520 479.535 C 160.599 477.805,151.644 471.050,146.927 460.986 L 144.640 456.107 144.640 256.000 L 144.640 55.893 146.860 51.161 C 149.669 45.171,153.690 40.578,159.227 37.034 C 165.387 33.091,167.853 32.590,181.547 32.504 C 191.960 32.438,193.707 32.615,193.707 33.741 " stroke="none" fill-rule="evenodd" fill="black"></path></svg>