<svg xmlns="http://www.w3.org/2000/svg" width="512" height="512" viewBox="0 0 512 512"><path d="M234.240 33.032 C 226.852 33.720,209.224 36.840,201.125 38.893 C 151.816 51.392,107.383 80.911,76.971 121.373 C 59.297 144.887,45.356 174.202,38.514 202.240 C 33.835 221.416,32.184 235.438,32.184 256.000 C 32.184 286.712,36.983 311.669,48.312 339.879 C 52.349 349.930,54.956 353.577,59.493 355.518 C 66.512 358.522,63.096 359.861,167.571 313.158 C 272.545 266.232,269.311 267.876,271.318 260.421 C 271.952 258.069,272.164 224.252,272.010 150.486 C 271.794 47.230,271.736 43.844,270.141 40.632 C 269.151 38.636,266.962 36.343,264.641 34.872 C 260.849 32.467,260.597 32.429,249.220 32.570 C 242.858 32.649,236.117 32.857,234.240 33.032 M306.608 70.326 L 304.213 72.385 303.787 169.526 L 303.360 266.667 301.042 272.452 C 296.862 282.885,290.273 291.058,281.658 296.497 C 279.706 297.729,239.477 316.023,192.261 337.149 C 145.045 358.276,104.990 376.287,103.249 377.175 C 99.683 378.995,97.643 382.804,98.599 385.857 C 101.383 394.745,128.883 424.670,146.185 437.639 C 176.303 460.214,208.532 473.388,245.856 478.378 C 259.694 480.229,283.655 480.214,297.813 478.347 C 368.024 469.087,427.855 426.230,458.715 363.093 C 471.254 337.439,477.698 312.938,479.527 283.974 C 482.313 239.828,470.157 194.794,445.409 157.573 C 415.455 112.524,371.210 81.809,318.129 69.217 C 312.043 67.773,309.265 68.040,306.608 70.326 " stroke="none" fill-rule="evenodd" fill="black"></path></svg>