<svg xmlns="http://www.w3.org/2000/svg" width="512" height="512" viewBox="0 0 512 512"><path d="M231.253 33.392 C 214.805 35.066,192.462 40.453,176.511 46.590 C 106.140 73.665,54.519 132.963,37.615 206.143 C 30.571 236.640,30.251 270.847,36.719 302.039 C 40.458 320.072,49.510 345.720,54.099 351.288 C 58.901 357.114,66.827 358.340,75.023 354.524 C 77.566 353.341,79.913 352.672,80.238 353.039 C 80.563 353.406,82.126 356.587,83.712 360.107 C 98.666 393.296,125.056 423.788,157.492 445.356 C 203.933 476.235,261.385 487.003,316.587 475.174 C 338.640 470.448,367.493 458.282,386.133 445.849 C 409.618 430.186,430.186 409.618,445.849 386.133 C 458.282 367.493,470.448 338.640,475.174 316.587 C 481.315 287.930,481.365 255.037,475.308 227.847 C 466.199 186.952,445.818 150.729,415.665 121.842 C 399.617 106.468,383.461 95.244,363.093 85.322 C 337.076 72.647,315.498 66.881,285.736 64.651 L 272.379 63.650 272.083 53.372 C 271.738 41.415,270.384 38.194,264.171 34.552 C 260.777 32.563,259.835 32.434,249.525 32.540 C 243.465 32.602,235.243 32.986,231.253 33.392 M239.577 155.400 L 239.360 245.947 168.960 277.475 C 89.443 313.086,77.791 318.266,75.868 318.857 C 74.041 319.419,69.820 305.201,66.833 288.427 C 64.933 277.757,64.619 273.468,64.550 257.280 C 64.490 243.209,64.850 236.048,65.987 228.693 C 69.268 207.459,74.392 190.967,83.616 171.947 C 111.459 114.536,166.168 74.853,229.973 65.789 C 232.789 65.389,236.151 65.015,237.444 64.957 L 239.794 64.853 239.577 155.400 M292.716 97.320 C 330.632 102.007,365.493 118.360,392.926 144.327 C 440.135 189.015,458.666 255.700,441.504 319.147 C 430.064 361.440,400.928 399.730,362.667 422.754 C 336.414 438.552,309.096 446.589,277.760 447.735 C 208.914 450.252,145.036 411.878,114.214 349.487 C 110.529 342.028,109.471 339.147,110.269 338.744 C 110.869 338.442,145.700 322.868,187.672 304.137 C 269.496 267.620,269.322 267.710,271.261 260.693 C 271.918 258.314,272.205 232.926,272.209 176.853 L 272.213 96.427 278.849 96.427 C 282.499 96.427,288.739 96.829,292.716 97.320 " stroke="none" fill-rule="evenodd" fill="black"></path></svg>