<svg xmlns="http://www.w3.org/2000/svg" width="512" height="512" viewBox="0 0 512 512"><path d="M234.240 33.032 C 226.852 33.720,209.224 36.840,201.125 38.893 C 131.187 56.621,73.859 107.081,47.536 174.080 C 28.033 223.720,26.826 277.764,44.085 328.533 C 47.137 337.512,56.603 359.878,57.899 361.174 C 58.279 361.554,106.559 340.408,165.188 314.184 L 271.787 266.504 272.003 149.465 L 272.219 32.427 254.936 32.570 C 245.431 32.649,236.117 32.857,234.240 33.032 M303.787 176.902 L 303.787 287.245 202.880 332.343 C 147.381 357.146,100.335 378.255,98.332 379.249 L 94.691 381.058 98.860 387.309 C 128.256 431.378,174.855 463.337,226.531 474.867 C 243.048 478.553,254.107 479.738,271.787 479.719 C 304.972 479.682,333.964 473.019,363.093 458.735 C 426.167 427.805,468.867 368.328,478.317 298.240 C 480.143 284.697,480.149 258.945,478.328 245.333 C 466.551 157.261,400.042 85.848,313.466 68.315 C 308.699 67.350,304.571 66.560,304.293 66.560 C 304.014 66.560,303.787 116.214,303.787 176.902 " stroke="none" fill-rule="evenodd" fill="black"></path></svg>