<svg xmlns="http://www.w3.org/2000/svg" width="512" height="512" viewBox="0 0 512 512"><path d="M242.910 17.051 C 212.933 22.491,188.782 43.632,179.727 72.360 C 169.087 106.117,182.206 142.720,212.067 162.593 C 218.987 167.198,228.321 171.408,235.733 173.266 L 239.787 174.283 239.787 317.355 C 239.787 431.443,240.010 461.287,240.888 464.667 C 241.493 466.999,244.450 474.761,247.459 481.917 C 252.953 494.986,254.088 496.508,257.524 495.418 C 259.152 494.901,269.066 472.450,271.104 464.667 C 271.993 461.269,272.213 432.035,272.213 317.355 L 272.213 174.283 276.267 173.266 C 297.673 167.899,317.601 151.583,327.906 130.987 C 334.140 118.528,337.177 101.187,335.506 87.590 C 333.191 68.751,325.415 52.559,312.602 39.892 C 305.433 32.806,300.202 29.006,291.654 24.677 C 280.593 19.076,271.890 16.952,258.560 16.603 C 252.224 16.437,245.181 16.639,242.910 17.051 M267.731 49.415 C 269.506 49.889,269.354 50.148,265.673 52.910 C 249.554 65.009,254.766 90.088,274.448 95.130 C 284.183 97.624,294.631 93.670,299.615 85.606 C 300.764 83.748,301.743 82.948,302.250 83.455 C 303.534 84.739,304.075 99.761,303.041 105.387 C 300.298 120.303,287.569 135.460,273.303 140.798 C 262.103 144.988,249.897 144.988,238.697 140.798 C 228.303 136.909,218.412 127.782,213.269 117.333 C 206.351 103.277,206.351 88.723,213.269 74.667 C 220.115 60.759,233.894 50.658,248.747 48.662 C 253.749 47.989,263.905 48.392,267.731 49.415 " stroke="none" fill-rule="evenodd" fill="black"></path></svg>