<svg xmlns="http://www.w3.org/2000/svg" width="512" height="512" viewBox="0 0 512 512"><path d="M244.480 16.767 C 222.864 20.227,202.683 32.047,190.097 48.620 C 184.745 55.668,178.082 69.236,175.632 78.080 C 174.042 83.815,173.733 87.159,173.697 98.987 C 173.649 114.398,174.672 119.757,180.093 132.496 C 188.793 152.941,207.605 170.168,229.127 177.400 L 236.800 179.979 237.227 322.736 L 237.653 465.493 246.497 480.213 C 251.360 488.309,255.637 494.933,256.000 494.933 C 256.363 494.933,260.640 488.309,265.503 480.213 L 274.347 465.493 274.773 322.727 L 275.200 179.961 281.437 177.861 C 303.888 170.301,321.174 154.924,331.141 133.648 C 336.947 121.253,338.354 114.267,338.294 98.133 C 338.246 85.281,338.036 83.384,335.891 76.373 C 327.097 47.634,305.054 26.084,276.907 18.709 C 270.168 16.943,250.673 15.775,244.480 16.767 M289.334 53.547 C 300.542 59.231,304.039 71.925,297.480 83.118 C 290.963 94.238,275.203 96.286,265.846 87.229 C 261.441 82.965,259.455 78.340,259.432 72.293 C 259.371 56.222,275.129 46.343,289.334 53.547 " stroke="none" fill-rule="evenodd" fill="black"></path></svg>