<svg xmlns="http://www.w3.org/2000/svg" width="512" height="512" viewBox="0 0 512 512"><path d="M242.910 17.051 C 217.531 21.657,195.574 38.068,184.094 61.013 C 177.870 73.453,174.771 91.118,176.463 104.514 C 180.501 136.489,201.303 162.161,230.869 171.657 L 239.739 174.507 239.763 317.467 C 239.782 431.403,240.010 461.289,240.888 464.667 C 241.493 466.999,244.450 474.761,247.459 481.917 C 252.953 494.986,254.088 496.508,257.524 495.418 C 259.152 494.901,269.066 472.450,271.104 464.667 C 271.993 461.269,272.213 432.035,272.213 317.355 L 272.213 174.283 276.267 173.266 C 289.992 169.825,303.298 161.776,314.116 150.370 C 322.491 141.540,327.631 133.011,331.649 121.274 C 346.384 78.238,322.062 32.293,277.574 19.123 C 271.523 17.332,267.862 16.847,258.560 16.603 C 252.224 16.437,245.181 16.639,242.910 17.051 M290.751 50.859 C 302.537 56.547,307.161 70.629,301.176 82.606 C 295.954 93.054,285.521 97.967,274.532 95.152 C 262.520 92.074,254.934 81.308,256.342 69.334 C 258.320 52.501,275.283 43.393,290.751 50.859 " stroke="none" fill-rule="evenodd" fill="black"></path></svg>