<svg xmlns="http://www.w3.org/2000/svg" width="512" height="512" viewBox="0 0 512 512"><path d="M139.047 17.446 C 129.468 20.990,123.136 26.555,119.359 34.748 C 116.532 40.882,116.309 42.965,113.395 90.453 C 110.496 137.701,111.557 146.254,128.761 214.245 C 143.387 272.049,147.298 289.445,152.247 318.720 C 158.440 355.356,159.651 372.096,160.302 430.080 C 160.810 475.262,160.977 479.395,162.415 482.286 C 164.699 486.876,169.494 491.449,174.437 493.751 L 178.773 495.770 256.000 495.770 L 333.227 495.770 337.511 493.775 C 342.957 491.239,347.026 487.170,349.561 481.725 C 351.552 477.450,351.557 477.355,351.579 441.600 C 351.591 421.888,351.971 396.244,352.423 384.613 C 354.460 332.152,362.829 285.704,384.437 206.926 C 397.439 159.522,399.662 146.913,399.628 120.747 C 399.609 105.593,396.849 55.241,395.419 43.947 C 394.113 33.634,386.591 23.556,376.836 19.048 L 371.627 16.640 256.853 16.482 C 163.804 16.354,141.506 16.536,139.047 17.446 M363.802 51.840 C 364.077 54.069,364.565 61.365,364.885 68.053 L 365.466 80.213 255.996 80.213 L 146.526 80.213 147.098 67.627 C 147.412 60.704,147.895 53.408,148.171 51.413 L 148.674 47.787 255.987 47.787 L 363.300 47.787 363.802 51.840 M367.555 125.653 C 366.894 145.160,364.153 159.612,354.165 196.267 C 339.957 248.407,334.043 273.496,329.020 302.933 C 321.534 346.799,320.724 357.139,320.246 414.933 L 319.838 464.213 255.993 464.213 L 192.148 464.213 191.763 417.067 C 191.356 367.222,190.999 361.381,186.402 329.473 C 181.673 296.639,175.590 268.412,159.923 206.598 C 147.469 157.460,145.104 145.093,144.445 125.653 L 143.974 111.787 256.000 111.787 L 368.026 111.787 367.555 125.653 " stroke="none" fill-rule="evenodd" fill="black"></path></svg>