<svg xmlns="http://www.w3.org/2000/svg" width="512" height="512" viewBox="0 0 512 512"><path d="M118.250 18.987 C 118.008 20.512,116.398 43.840,114.673 70.827 C 111.808 115.649,111.619 121.001,112.487 132.693 C 113.867 151.274,116.942 167.864,124.191 195.840 C 142.272 265.620,149.599 299.029,154.840 335.592 C 159.323 366.875,159.737 374.718,160.199 437.120 L 160.634 495.787 255.988 495.787 L 351.342 495.787 351.835 435.413 C 352.200 390.593,352.670 371.413,353.658 360.960 C 358.150 313.441,366.743 270.189,383.962 208.433 C 395.406 167.385,397.764 155.887,399.495 132.693 C 400.365 121.042,400.171 115.337,397.334 69.120 C 395.619 41.195,394.222 17.867,394.228 17.280 C 394.238 16.431,366.122 16.213,256.465 16.213 L 118.691 16.213 118.250 18.987 M363.802 51.840 C 364.077 54.069,364.565 61.365,364.885 68.053 L 365.466 80.213 255.996 80.213 L 146.526 80.213 147.098 67.627 C 147.412 60.704,147.895 53.408,148.171 51.413 L 148.674 47.787 255.987 47.787 L 363.300 47.787 363.802 51.840 " stroke="none" fill-rule="evenodd" fill="black"></path></svg>