<svg xmlns="http://www.w3.org/2000/svg" width="512" height="512" viewBox="0 0 512 512"><path d="M140.373 17.008 C 129.169 19.789,119.199 30.243,116.938 41.582 C 116.491 43.821,115.083 62.741,113.808 83.627 C 110.344 140.408,110.774 144.146,128.843 214.187 C 141.597 263.628,148.232 293.760,153.111 324.401 C 158.782 360.011,159.666 373.002,160.304 430.080 C 160.810 475.264,160.977 479.395,162.415 482.286 C 164.699 486.876,169.494 491.449,174.437 493.751 L 178.773 495.770 256.000 495.770 L 333.227 495.770 337.563 493.751 C 342.506 491.449,347.301 486.876,349.585 482.286 C 351.024 479.392,351.189 475.242,351.693 429.227 C 352.227 380.389,352.869 365.931,355.499 343.467 C 360.132 303.896,367.703 268.139,384.329 207.301 C 394.800 168.985,397.824 154.311,399.515 133.612 C 400.383 122.985,400.230 117.220,398.182 83.627 C 396.909 62.741,395.448 43.733,394.937 41.387 C 392.867 31.895,386.761 24.125,377.600 19.323 L 372.480 16.640 257.707 16.506 C 194.581 16.433,141.781 16.659,140.373 17.008 M362.258 48.975 C 363.676 50.011,363.985 51.932,364.685 64.037 C 365.438 77.057,365.390 77.983,363.914 79.063 C 361.574 80.774,150.426 80.774,148.086 79.063 C 146.610 77.983,146.562 77.057,147.315 64.037 C 148.015 51.932,148.324 50.011,149.742 48.975 C 152.172 47.197,359.828 47.197,362.258 48.975 " stroke="none" fill-rule="evenodd" fill="black"></path></svg>