<svg xmlns="http://www.w3.org/2000/svg" width="512" height="512" viewBox="0 0 512 512"><path d="M215.893 33.744 C 167.709 37.750,121.567 47.829,79.360 63.565 C 65.118 68.874,59.583 71.951,54.739 77.251 C 49.892 82.555,47.237 89.903,48.059 95.743 C 48.802 101.023,59.895 128.038,63.223 132.672 C 66.382 137.072,72.075 141.192,77.054 142.684 C 79.021 143.273,80.651 144.397,81.049 145.440 C 83.480 151.809,187.809 378.459,213.839 433.920 C 227.899 463.876,228.395 464.780,233.809 470.265 C 240.782 477.330,246.454 479.756,256.000 479.756 C 265.548 479.756,271.219 477.330,278.187 470.265 L 283.733 464.640 356.816 305.920 C 397.011 218.624,430.105 146.564,430.358 145.787 C 430.611 145.010,432.092 144.099,433.649 143.763 C 438.277 142.764,442.312 140.327,446.046 136.276 C 450.364 131.591,450.737 130.875,457.917 113.455 C 463.022 101.070,463.706 98.759,463.713 93.867 C 463.722 87.080,461.078 81.400,455.543 76.318 C 449.985 71.214,446.741 69.495,433.074 64.415 C 388.790 47.954,342.179 37.719,293.139 33.688 C 274.510 32.156,234.638 32.185,215.893 33.744 M278.613 64.861 C 328.608 67.557,378.377 77.976,425.083 95.525 L 429.899 97.335 426.948 104.331 C 425.325 108.179,423.882 111.443,423.740 111.584 C 423.598 111.726,418.877 110.128,413.248 108.034 C 380.168 95.725,344.476 87.199,306.783 82.601 C 293.273 80.953,287.129 80.722,256.000 80.698 C 227.055 80.675,218.249 80.951,207.787 82.208 C 165.325 87.311,140.438 93.120,102.565 106.771 C 94.911 109.530,88.521 111.787,88.364 111.787 C 88.094 111.787,87.229 109.756,83.588 100.573 L 82.018 96.612 94.129 92.269 C 153.230 71.077,217.320 61.556,278.613 64.861 M272.213 112.665 C 313.404 114.501,352.776 121.483,383.496 132.399 C 390.109 134.749,396.211 136.882,397.055 137.140 C 397.899 137.397,398.475 138.145,398.335 138.803 C 397.918 140.761,256.467 447.119,255.973 447.134 C 255.724 447.141,254.139 444.171,252.451 440.533 C 250.763 436.896,240.659 415.296,229.998 392.533 C 219.337 369.771,200.805 329.835,188.817 303.787 C 163.277 248.291,115.528 144.126,113.848 140.241 L 112.685 137.548 122.689 133.987 C 155.846 122.184,197.281 114.437,236.373 112.734 C 245.056 112.355,252.352 111.993,252.587 111.928 C 252.821 111.863,261.653 112.195,272.213 112.665 M181.190 161.958 C 167.066 166.994,158.060 182.154,160.454 196.863 C 164.648 222.630,196.051 232.861,214.456 214.456 C 230.014 198.899,225.591 172.922,205.730 163.205 C 199.501 160.157,187.893 159.567,181.190 161.958 M313.173 176.973 C 296.010 180.789,285.267 197.262,288.822 214.312 C 290.954 224.534,297.370 232.552,307.051 237.090 C 311.229 239.049,313.005 239.360,320.000 239.360 C 326.995 239.360,328.771 239.049,332.949 237.090 C 342.630 232.552,349.046 224.534,351.178 214.312 C 354.827 196.809,343.384 180.010,325.569 176.716 C 319.617 175.616,319.242 175.624,313.173 176.973 M245.190 289.958 C 231.066 294.994,222.060 310.154,224.454 324.863 C 228.648 350.630,260.051 360.861,278.456 342.456 C 294.014 326.899,289.591 300.922,269.730 291.205 C 263.501 288.157,251.893 287.567,245.190 289.958 " stroke="none" fill-rule="evenodd" fill="black"></path></svg>