<svg xmlns="http://www.w3.org/2000/svg" width="512" height="512" viewBox="0 0 512 512"><path d="M225.707 32.988 C 195.581 35.406,176.672 37.889,154.471 42.344 C 118.602 49.541,84.404 60.265,54.941 73.555 C 48.573 76.428,43.182 79.248,42.961 79.823 C 42.599 80.767,63.531 123.733,64.353 123.733 C 64.544 123.733,74.082 119.715,85.549 114.804 C 110.605 104.072,129.154 97.651,149.760 92.575 C 187.456 83.290,223.094 79.605,266.667 80.487 C 308.683 81.338,341.021 85.938,375.893 96.026 C 391.610 100.572,404.338 105.329,428.606 115.727 C 438.885 120.130,447.452 123.733,447.644 123.733 C 448.113 123.733,469.333 81.281,469.333 80.344 C 469.333 78.782,442.867 67.621,421.663 60.241 C 382.888 46.746,336.824 37.168,294.120 33.723 C 279.834 32.570,236.682 32.107,225.707 32.988 M241.067 112.360 C 199.512 114.027,160.811 121.053,121.862 134.002 C 109.205 138.210,88.953 146.495,84.593 149.248 C 83.673 149.829,85.763 155.071,94.479 174.044 C 102.902 192.381,123.377 231.576,180.552 338.813 C 221.814 416.202,255.765 479.522,256.000 479.522 C 256.505 479.523,428.695 151.594,429.027 149.999 C 429.429 148.070,396.808 135.374,375.893 129.320 C 343.216 119.861,311.045 114.536,275.200 112.654 C 259.806 111.845,254.955 111.804,241.067 112.360 M203.490 162.195 C 229.452 171.909,231.464 207.940,206.743 220.467 C 188.478 229.722,166.772 219.712,161.636 199.665 C 158.570 187.698,163.155 174.125,172.731 166.821 C 181.049 160.477,193.780 158.563,203.490 162.195 M331.520 178.167 C 358.354 188.586,359.322 225.347,333.081 237.458 C 329.689 239.024,327.451 239.360,320.427 239.360 C 312.725 239.360,311.399 239.117,306.820 236.869 C 293.723 230.438,286.489 216.079,289.258 202.008 C 289.828 199.108,291.062 195.231,292.000 193.393 C 296.026 185.501,305.312 178.473,314.069 176.689 C 318.804 175.724,327.021 176.420,331.520 178.167 M267.490 290.195 C 293.452 299.909,295.464 335.940,270.743 348.467 C 252.478 357.722,230.772 347.712,225.636 327.665 C 222.570 315.698,227.155 302.125,236.731 294.821 C 245.049 288.477,257.780 286.563,267.490 290.195 " stroke="none" fill-rule="evenodd" fill="black"></path></svg>