<svg xmlns="http://www.w3.org/2000/svg" width="512" height="512" viewBox="0 0 512 512"><path d="M219.307 33.336 C 179.698 36.450,139.135 44.078,103.253 55.159 C 85.681 60.585,65.732 68.380,60.537 71.849 C 46.254 81.387,44.156 93.815,53.680 112.483 C 56.343 117.703,61.290 120.687,67.309 120.704 C 71.501 120.715,74.259 119.766,89.173 113.179 C 143.260 89.291,198.515 79.094,266.240 80.501 C 328.126 81.788,372.392 91.309,425.915 114.846 C 441.275 121.600,444.944 122.257,450.560 119.257 C 455.202 116.778,457.362 113.742,460.769 104.908 C 464.864 94.289,463.904 85.853,457.788 78.709 C 451.786 71.697,442.176 67.179,413.013 57.661 C 378.115 46.270,343.840 39.004,303.787 34.506 C 289.241 32.873,234.793 32.119,219.307 33.336 M234.240 112.626 C 199.867 114.484,166.160 120.342,132.746 130.265 C 121.863 133.498,101.487 140.758,97.473 142.833 C 91.238 146.058,87.027 153.746,88.222 159.722 C 89.004 163.631,169.775 340.095,210.604 427.093 C 228.047 464.261,228.281 464.697,233.792 470.265 C 240.794 477.338,246.462 479.755,256.000 479.732 C 265.596 479.710,271.253 477.296,278.187 470.265 L 283.733 464.640 353.179 314.027 C 426.805 154.347,424.858 158.914,422.446 151.605 C 420.879 146.858,416.689 143.932,404.778 139.266 C 355.118 119.810,289.881 109.620,234.240 112.626 M205.795 163.236 C 211.461 166.009,218.667 173.340,221.274 178.986 C 222.826 182.345,223.147 184.576,223.147 192.000 C 223.147 200.021,222.904 201.455,220.828 205.682 C 213.148 221.319,194.530 228.071,178.564 221.009 C 173.390 218.720,166.262 211.634,163.347 205.882 C 161.062 201.371,160.853 200.211,160.853 192.000 C 160.853 183.863,161.074 182.604,163.259 178.296 C 167.239 170.447,173.576 164.673,181.190 161.958 C 187.928 159.555,199.499 160.156,205.795 163.236 M325.569 176.716 C 335.833 178.614,344.073 184.847,348.656 194.180 C 350.928 198.808,351.147 200.040,351.147 208.213 C 351.147 216.780,351.020 217.407,348.253 222.508 C 344.739 228.989,339.421 234.056,332.949 237.090 C 328.771 239.049,326.995 239.360,320.000 239.360 C 313.005 239.360,311.229 239.049,307.051 237.090 C 300.579 234.056,295.261 228.989,291.747 222.508 C 288.980 217.407,288.853 216.780,288.853 208.213 C 288.853 200.122,289.085 198.781,291.249 194.374 C 295.721 185.267,303.446 179.136,313.173 176.973 C 319.242 175.624,319.617 175.616,325.569 176.716 M269.795 291.236 C 275.461 294.009,282.667 301.340,285.274 306.986 C 286.826 310.345,287.147 312.576,287.147 320.000 C 287.147 328.021,286.904 329.455,284.828 333.682 C 277.148 349.319,258.530 356.071,242.564 349.009 C 237.390 346.720,230.262 339.634,227.347 333.882 C 225.062 329.371,224.853 328.211,224.853 320.000 C 224.853 311.863,225.074 310.604,227.259 306.296 C 231.239 298.447,237.576 292.673,245.190 289.958 C 251.928 287.555,263.499 288.156,269.795 291.236 " stroke="none" fill-rule="evenodd" fill="black"></path></svg>