<svg xmlns="http://www.w3.org/2000/svg" width="512" height="512" viewBox="0 0 512 512"><path d="M240.640 80.698 C 239.467 80.898,235.051 81.485,230.827 82.002 C 214.725 83.973,192.384 91.016,176.213 99.219 C 138.508 118.345,107.920 152.041,92.163 191.812 C 89.383 198.829,89.351 198.867,87.562 197.361 C 73.023 185.126,54.203 165.569,44.627 152.747 C 38.025 143.908,32.427 133.108,32.427 129.214 C 32.427 126.579,32.706 126.283,36.053 125.370 C 42.027 123.741,64.156 124.927,76.800 127.552 C 82.667 128.771,88.067 129.949,88.801 130.171 C 89.677 130.436,91.634 128.704,94.497 125.132 C 96.895 122.139,102.190 116.189,106.262 111.910 L 113.665 104.130 111.233 103.203 C 107.056 101.611,85.382 96.478,74.667 94.542 C 60.919 92.059,37.336 91.833,29.013 94.103 C 15.917 97.677,6.227 105.260,2.592 114.780 C -4.687 133.841,4.332 156.318,31.794 187.561 C 93.511 257.777,246.967 354.004,366.749 397.600 C 438.909 423.864,485.202 426.859,503.401 406.440 C 509.565 399.524,511.519 394.124,511.520 384.000 C 511.521 377.737,511.063 374.535,509.508 369.920 C 503.902 353.288,492.131 336.517,469.827 313.387 C 464.284 307.637,459.505 302.935,459.207 302.938 C 458.910 302.941,457.624 306.762,456.349 311.430 C 455.075 316.098,452.655 323.595,450.971 328.090 L 447.910 336.263 455.213 344.558 C 469.843 361.175,479.573 376.419,479.573 382.720 C 479.573 385.250,479.210 385.701,476.373 386.693 C 471.950 388.240,454.752 387.987,444.212 386.220 C 432.191 384.205,417.204 380.506,402.347 375.887 C 395.307 373.698,389.416 371.777,389.256 371.619 C 389.096 371.460,391.689 367.807,395.017 363.500 C 412.676 340.651,423.895 315.410,429.325 286.309 C 431.823 272.922,432.433 247.976,430.601 234.115 C 422.098 169.759,380.413 116.228,320.086 92.194 C 310.141 88.232,295.685 84.253,284.160 82.304 C 276.482 81.006,245.523 79.863,240.640 80.698 M81.467 279.157 C 81.790 281.674,83.010 288.149,84.179 293.547 C 95.546 346.024,131.065 390.973,179.627 414.336 C 203.812 425.972,224.029 430.824,251.307 431.539 C 275.995 432.186,296.903 428.723,318.283 420.446 L 327.253 416.973 322.133 414.698 C 319.317 413.447,309.717 409.212,300.800 405.286 C 280.860 396.507,238.809 375.424,217.600 363.572 C 169.999 336.972,127.300 309.527,91.000 282.199 L 80.880 274.580 81.467 279.157 " stroke="none" fill-rule="evenodd" fill="black"></path></svg>