<svg xmlns="http://www.w3.org/2000/svg" width="512" height="512" viewBox="0 0 512 512"><path d="M240.640 80.698 C 239.467 80.898,235.051 81.485,230.827 82.002 C 214.725 83.973,192.384 91.016,176.213 99.219 C 138.508 118.345,107.920 152.041,92.163 191.812 C 89.383 198.829,89.351 198.867,87.562 197.361 C 73.023 185.126,54.203 165.569,44.627 152.747 C 38.056 143.948,32.427 133.106,32.427 129.247 C 32.427 126.757,32.792 126.305,35.542 125.397 C 40.360 123.807,63.178 124.829,74.667 127.149 C 82.650 128.761,84.627 128.895,87.893 128.047 C 91.965 126.989,96.589 123.198,98.682 119.200 C 102.021 112.824,98.995 102.854,92.637 99.288 C 85.806 95.456,58.683 91.661,43.545 92.419 C 27.169 93.239,17.468 96.779,9.312 104.912 C 3.613 110.594,0.833 117.013,0.236 125.867 C -1.598 153.040,29.902 193.336,90.792 241.707 C 168.804 303.679,277.663 365.176,366.749 397.600 C 438.909 423.864,485.202 426.859,503.401 406.440 C 509.565 399.524,511.519 394.124,511.520 384.000 C 511.521 375.150,509.806 368.586,504.943 358.827 C 498.388 345.669,479.753 321.840,473.612 318.759 C 467.615 315.752,461.061 316.618,455.968 321.089 C 452.236 324.367,450.560 328.063,450.560 333.019 C 450.560 337.975,452.316 341.096,460.703 351.050 C 472.050 364.516,479.547 377.163,479.565 382.867 C 479.577 386.794,475.909 387.868,462.933 387.736 C 451.181 387.616,440.680 386.045,423.604 381.851 C 413.186 379.292,390.112 372.404,389.249 371.595 C 389.086 371.442,391.056 368.698,393.627 365.498 C 411.427 343.347,423.750 316.021,429.339 286.309 C 431.839 273.022,432.440 248.093,430.598 234.115 C 422.122 169.792,380.413 116.228,320.086 92.194 C 310.141 88.232,295.685 84.253,284.160 82.304 C 276.482 81.006,245.523 79.863,240.640 80.698 M87.161 287.176 C 85.748 288.365,84.454 290.189,84.286 291.229 C 83.857 293.889,88.266 310.255,91.900 319.494 C 115.515 379.522,168.853 421.528,232.785 430.445 C 255.614 433.629,286.126 431.149,306.549 424.449 C 313.861 422.051,316.188 416.153,311.680 411.441 C 310.338 410.038,304.585 406.866,298.240 404.030 C 236.627 376.497,168.741 337.542,109.691 295.835 C 93.051 284.083,91.531 283.499,87.161 287.176 " stroke="none" fill-rule="evenodd" fill="black"></path></svg>