<svg xmlns="http://www.w3.org/2000/svg" width="512" height="512" viewBox="0 0 512 512"><path d="M239.787 80.737 C 205.677 84.872,178.033 95.181,153.927 112.756 L 149.560 115.939 140.274 112.517 C 120.030 105.056,92.351 97.464,73.387 94.170 C 62.111 92.212,36.976 91.979,29.867 93.767 C 21.179 95.952,14.685 99.477,9.407 104.870 C 2.434 111.997,0.464 117.209,0.506 128.427 C 0.533 135.903,0.876 137.858,3.269 144.213 C 12.129 167.737,37.001 196.992,76.000 229.759 L 80.746 233.747 80.374 250.704 C 80.089 263.667,80.348 270.229,81.470 278.566 C 84.894 303.987,93.329 327.592,106.689 349.132 C 119.992 370.580,141.420 392.008,162.868 405.311 C 221.692 441.794,296.437 440.615,353.745 402.299 C 358.269 399.275,362.347 396.800,362.807 396.800 C 363.267 396.800,371.083 399.274,380.176 402.298 C 419.560 415.396,446.137 420.624,468.053 419.584 C 484.648 418.796,494.414 415.351,502.242 407.522 C 526.263 383.501,505.129 341.401,441.919 287.358 L 431.188 278.184 431.598 261.758 C 431.908 249.384,431.656 242.562,430.577 234.096 C 420.691 156.528,361.790 95.466,284.160 82.308 C 276.372 80.988,246.454 79.928,239.787 80.737 M275.627 113.616 C 314.725 118.414,352.996 142.193,375.111 175.430 C 391.770 200.467,399.529 226.068,399.529 256.000 C 399.529 285.932,391.770 311.533,375.111 336.570 C 370.285 343.823,358.185 358.209,356.303 358.931 C 353.947 359.835,312.629 341.051,279.880 324.189 C 224.049 295.440,169.260 261.508,126.682 229.308 C 120.587 224.698,117.240 221.590,117.065 220.378 C 116.683 217.735,122.425 201.496,126.948 192.427 C 152.376 141.435,204.998 110.056,261.120 112.420 C 265.109 112.588,271.637 113.126,275.627 113.616 M67.413 125.969 C 78.603 127.566,97.026 132.020,111.436 136.614 C 117.495 138.545,122.577 140.241,122.728 140.382 C 122.879 140.523,121.024 143.075,118.604 146.053 C 108.728 158.207,97.495 177.668,91.728 192.615 L 89.350 198.776 85.422 195.485 C 76.909 188.353,61.743 173.310,54.010 164.330 C 36.755 144.294,28.311 127.742,34.347 125.786 C 40.602 123.760,52.384 123.825,67.413 125.969 M125.985 268.471 C 179.628 306.784,257.389 351.365,314.771 376.703 L 326.183 381.742 319.688 385.009 C 307.433 391.176,291.126 396.247,276.053 398.579 C 267.266 399.938,244.734 399.938,235.947 398.579 C 211.963 394.868,188.720 385.401,171.093 372.163 C 139.621 348.528,119.673 315.628,113.851 277.760 C 112.753 270.617,112.216 259.413,112.971 259.413 C 113.154 259.413,119.010 263.489,125.985 268.471 M438.210 327.192 C 461.555 349.234,479.573 373.476,479.573 382.843 C 479.573 385.233,479.174 385.713,476.373 386.683 C 468.563 389.390,446.364 387.489,425.107 382.293 C 416.145 380.102,389.955 372.312,389.272 371.634 C 389.121 371.484,390.976 368.925,393.396 365.947 C 403.269 353.795,414.505 334.332,420.269 319.394 L 422.643 313.241 424.868 314.968 C 426.092 315.919,432.096 321.419,438.210 327.192 " stroke="none" fill-rule="evenodd" fill="black"></path></svg>