<svg xmlns="http://www.w3.org/2000/svg" width="512" height="512" viewBox="0 0 512 512"><path d="M230.400 112.640 C 228.288 112.998,225.216 113.866,223.573 114.569 C 218.070 116.922,29.487 230.193,25.856 233.326 C 23.707 235.180,21.144 238.709,19.456 242.138 C 16.867 247.397,16.640 248.513,16.640 256.000 C 16.640 263.467,16.871 264.611,19.422 269.793 C 20.951 272.900,23.705 276.800,25.541 278.458 C 28.975 281.561,217.403 394.793,224.374 397.944 C 229.962 400.469,240.199 400.388,246.824 397.767 C 257.595 393.504,265.462 382.851,267.071 370.347 C 267.523 366.827,267.906 346.914,267.920 326.095 C 267.942 294.353,268.136 288.317,269.119 288.694 C 269.764 288.941,310.180 313.039,358.932 342.244 C 407.685 371.448,449.685 396.327,452.267 397.529 C 458.178 400.283,467.431 400.568,474.257 398.207 C 483.305 395.078,491.183 386.691,494.210 376.969 C 495.711 372.145,495.787 366.332,495.787 256.014 C 495.787 142.839,495.747 139.999,494.094 134.703 C 491.061 124.985,482.088 116.008,472.793 113.392 C 467.608 111.933,459.333 112.134,454.306 113.840 C 452.011 114.619,409.237 139.737,359.253 169.657 L 268.373 224.059 267.876 181.789 C 267.514 151.007,267.082 138.592,266.287 136.107 C 261.061 119.764,246.093 109.977,230.400 112.640 M235.520 256.496 L 235.520 367.926 232.747 366.227 C 231.221 365.293,189.461 340.284,139.947 310.652 C 90.432 281.020,49.822 256.498,49.702 256.160 C 49.484 255.546,233.625 145.067,234.865 145.067 C 235.225 145.067,235.520 195.210,235.520 256.496 M464.213 256.454 L 464.213 367.841 462.209 366.747 C 454.556 362.572,278.187 256.490,278.187 256.063 C 278.187 255.344,461.778 145.249,463.147 145.146 C 463.995 145.083,464.213 167.871,464.213 256.454 " stroke="none" fill-rule="evenodd" fill="black"></path></svg>