<svg xmlns="http://www.w3.org/2000/svg" width="512" height="512" viewBox="0 0 512 512"><path d="M42.484 112.647 C 34.335 114.057,26.131 119.637,21.511 126.912 C 15.912 135.730,16.213 128.379,16.213 256.079 C 16.213 366.334,16.289 372.145,17.790 376.969 C 20.817 386.691,28.695 395.078,37.743 398.207 C 44.086 400.401,53.800 400.250,59.075 397.875 C 61.294 396.876,103.602 371.842,153.093 342.243 C 202.584 312.644,243.296 288.427,243.565 288.427 C 243.833 288.427,244.061 305.611,244.070 326.613 C 244.080 347.616,244.468 367.488,244.933 370.773 C 246.658 382.962,254.632 393.594,265.176 397.767 C 272.367 400.612,282.074 400.508,288.427 397.517 C 296.753 393.598,481.562 282.560,485.872 278.888 C 488.709 276.471,490.886 273.548,492.699 269.723 C 495.099 264.658,495.360 263.309,495.360 255.980 C 495.360 248.565,495.121 247.369,492.637 242.327 C 491.139 239.287,488.643 235.576,487.090 234.081 C 484.356 231.448,292.283 115.986,287.710 114.226 C 270.822 107.729,252.026 117.291,245.941 135.475 C 244.807 138.864,244.510 146.383,244.107 181.832 L 243.627 224.144 151.994 169.325 C 101.257 138.972,58.793 114.103,56.847 113.604 C 51.337 112.192,46.846 111.893,42.484 112.647 M142.211 200.755 C 192.592 230.888,233.813 255.788,233.813 256.089 C 233.813 256.792,49.845 366.933,48.670 366.933 C 48.066 366.933,47.787 331.879,47.787 255.909 C 47.787 152.980,47.890 144.924,49.198 145.426 C 49.974 145.724,91.830 170.622,142.211 200.755 M370.750 200.715 C 421.204 230.887,462.489 255.807,462.495 256.092 C 462.501 256.378,421.515 281.114,371.413 311.063 C 321.312 341.011,279.456 366.070,278.400 366.749 L 276.480 367.983 276.480 256.434 C 276.480 158.090,276.630 144.942,277.748 145.371 C 278.446 145.638,320.297 170.543,370.750 200.715 " stroke="none" fill-rule="evenodd" fill="black"></path></svg>