<svg xmlns="http://www.w3.org/2000/svg" width="512" height="512" viewBox="0 0 512 512"><path d="M241.920 48.669 C 177.359 52.784,118.768 87.102,81.958 142.362 C 55.666 181.831,43.309 234.683,49.503 281.173 C 55.829 328.652,75.879 369.527,109.176 402.824 C 142.702 436.350,182.619 455.851,231.680 462.670 C 235.904 463.257,246.848 463.738,256.000 463.738 C 265.152 463.738,276.096 463.257,280.320 462.670 C 329.321 455.859,369.272 436.331,402.802 402.802 C 436.331 369.272,455.859 329.321,462.670 280.320 C 464.046 270.420,464.046 241.580,462.670 231.680 C 455.892 182.914,436.342 142.776,403.220 109.623 C 391.401 97.792,382.569 90.546,369.558 82.006 C 331.997 57.351,287.606 45.757,241.920 48.669 M200.642 178.792 C 202.344 179.892,204.648 182.258,205.762 184.049 C 207.763 187.268,207.792 187.645,208.213 215.974 L 208.640 244.641 264.885 210.678 C 295.819 191.998,322.165 176.487,323.431 176.209 C 324.761 175.917,327.267 176.318,329.367 177.159 C 332.191 178.288,333.357 179.394,334.589 182.107 C 336.094 185.420,336.177 189.219,336.195 255.944 C 336.213 325.070,336.183 326.350,334.469 329.891 C 332.368 334.231,328.094 336.641,323.896 335.853 C 322.375 335.568,295.820 320.055,264.885 301.380 L 208.640 267.426 208.213 296.201 L 207.787 324.977 205.215 328.634 C 201.663 333.686,197.818 335.758,192.000 335.758 C 186.181 335.758,182.337 333.685,178.785 328.632 L 176.213 324.973 176.213 256.140 L 176.213 187.307 178.193 184.122 C 183.164 176.127,192.928 173.809,200.642 178.792 " stroke="none" fill-rule="evenodd" fill="black"></path></svg>