<svg xmlns="http://www.w3.org/2000/svg" width="512" height="512" viewBox="0 0 512 512"><path d="M127.691 72.709 C 120.650 73.610,114.252 76.809,108.482 82.313 C 102.977 87.563,99.920 92.594,97.569 100.267 C 96.071 105.154,96.000 112.227,96.000 256.000 C 96.000 399.773,96.071 406.846,97.569 411.733 C 99.920 419.406,102.977 424.437,108.482 429.687 C 119.058 439.775,133.525 442.635,146.517 437.207 C 148.281 436.470,206.175 402.054,275.169 360.726 C 366.224 306.184,401.849 284.416,405.121 281.322 C 419.590 267.637,419.345 243.779,404.595 230.265 C 400.957 226.932,366.376 205.825,275.924 151.729 C 207.891 111.041,150.246 76.756,147.825 75.539 C 142.637 72.934,134.675 71.814,127.691 72.709 " stroke="none" fill-rule="evenodd" fill="black"></path></svg>