<svg xmlns="http://www.w3.org/2000/svg" width="512" height="512" viewBox="0 0 512 512"><path d="M241.920 48.669 C 177.359 52.784,118.768 87.102,81.958 142.362 C 55.666 181.831,43.309 234.683,49.503 281.173 C 55.829 328.652,75.879 369.527,109.176 402.824 C 142.702 436.350,182.619 455.851,231.680 462.670 C 235.904 463.257,246.848 463.738,256.000 463.738 C 265.152 463.738,276.096 463.257,280.320 462.670 C 329.321 455.859,369.272 436.331,402.802 402.802 C 436.331 369.272,455.859 329.321,462.670 280.320 C 464.046 270.420,464.046 241.580,462.670 231.680 C 455.892 182.914,436.342 142.776,403.220 109.623 C 391.401 97.792,382.569 90.546,369.558 82.006 C 331.997 57.351,287.606 45.757,241.920 48.669 M242.930 177.944 C 247.799 181.135,247.858 181.505,248.320 211.795 L 248.747 239.777 301.227 208.076 C 346.937 180.465,354.147 176.374,357.124 176.366 C 361.447 176.353,364.021 177.729,366.122 181.174 C 367.729 183.810,367.780 186.103,367.780 256.000 C 367.780 326.821,367.750 328.157,366.058 330.931 C 363.756 334.707,358.996 336.717,354.987 335.607 C 353.344 335.152,328.768 320.723,300.373 303.542 L 248.747 272.304 248.320 300.358 C 247.915 326.996,247.804 328.533,246.132 330.819 C 245.163 332.143,242.881 333.965,241.062 334.868 C 238.022 336.377,237.474 336.408,234.291 335.256 C 229.996 333.701,119.067 266.815,115.860 263.846 C 110.962 259.312,110.962 252.673,115.860 248.167 C 118.224 245.992,229.949 178.315,233.829 176.707 C 236.363 175.658,240.246 176.185,242.930 177.944 " stroke="none" fill-rule="evenodd" fill="black"></path></svg>