<svg xmlns="http://www.w3.org/2000/svg" width="512" height="512" viewBox="0 0 512 512"><path d="M105.288 65.633 C 100.945 67.605,97.654 71.791,96.496 76.817 C 95.224 82.338,95.235 429.274,96.508 435.208 C 98.312 443.619,106.112 448.917,114.779 447.617 C 119.798 446.865,125.833 441.687,127.128 437.024 C 127.676 435.052,127.992 408.787,127.995 365.013 C 127.998 327.115,128.193 296.107,128.430 296.107 C 128.666 296.107,181.394 327.559,245.603 366.002 C 309.812 404.444,363.797 436.503,365.570 437.243 C 371.259 439.620,378.952 440.550,384.516 439.533 C 398.545 436.968,409.598 426.905,414.115 412.587 L 416.000 406.613 416.000 256.000 L 416.000 105.387 414.115 99.413 C 408.297 80.972,392.655 70.548,373.991 72.674 C 371.067 73.007,366.702 74.270,364.291 75.481 C 361.879 76.693,307.939 108.781,244.423 146.788 C 180.908 184.796,128.729 215.893,128.470 215.893 C 128.212 215.893,127.998 184.885,127.995 146.987 C 127.992 104.397,127.670 76.925,127.150 75.055 C 125.589 69.436,117.898 63.977,111.601 64.019 C 110.060 64.029,107.219 64.755,105.288 65.633 " stroke="none" fill-rule="evenodd" fill="black"></path></svg>