<svg xmlns="http://www.w3.org/2000/svg" width="512" height="512" viewBox="0 0 512 512"><path d="M241.920 48.669 C 177.359 52.784,118.768 87.102,81.958 142.362 C 55.666 181.831,43.309 234.683,49.503 281.173 C 55.829 328.652,75.879 369.527,109.176 402.824 C 142.702 436.350,182.619 455.851,231.680 462.670 C 235.904 463.257,246.848 463.738,256.000 463.738 C 265.152 463.738,276.096 463.257,280.320 462.670 C 329.321 455.859,369.272 436.331,402.802 402.802 C 436.331 369.272,455.859 329.321,462.670 280.320 C 464.046 270.420,464.046 241.580,462.670 231.680 C 455.892 182.914,436.342 142.776,403.220 109.623 C 391.401 97.792,382.569 90.546,369.558 82.006 C 331.997 57.351,287.606 45.757,241.920 48.669 M203.655 203.822 C 235.643 223.129,262.427 239.161,263.175 239.448 C 264.404 239.920,264.533 236.582,264.533 204.394 C 264.533 182.833,264.846 168.930,265.327 169.102 C 266.803 169.631,400.123 255.570,400.135 256.000 C 400.142 256.235,369.730 275.833,332.554 299.553 L 264.960 342.679 264.737 307.358 C 264.561 279.340,264.292 272.123,263.437 272.451 C 262.845 272.679,236.065 288.697,203.927 308.047 C 171.788 327.397,145.205 343.401,144.853 343.611 C 144.501 343.822,144.213 304.397,144.213 256.000 C 144.213 207.603,144.501 168.166,144.853 168.362 C 145.205 168.557,171.666 184.515,203.655 203.822 " stroke="none" fill-rule="evenodd" fill="black"></path></svg>