<svg xmlns="http://www.w3.org/2000/svg" width="512" height="512" viewBox="0 0 512 512"><path d="M105.351 65.551 C 100.661 67.754,97.615 71.632,96.503 76.817 C 95.192 82.930,95.192 429.070,96.503 435.183 C 97.014 437.566,98.438 440.712,99.667 442.173 C 103.989 447.308,112.083 449.361,118.001 446.822 C 121.347 445.386,125.866 440.749,127.094 437.491 C 127.706 435.869,128.000 412.525,128.000 365.598 C 128.000 327.378,128.193 296.107,128.430 296.107 C 128.666 296.107,181.394 327.559,245.603 366.002 C 309.812 404.444,363.774 436.493,365.519 437.222 C 387.211 446.286,412.116 431.051,415.553 406.613 C 416.693 398.504,416.693 113.496,415.553 105.387 C 413.805 92.961,405.468 81.192,394.667 75.902 C 385.396 71.362,372.883 71.223,364.254 75.564 C 361.738 76.829,307.763 108.921,244.308 146.879 C 180.853 184.837,128.732 215.893,128.482 215.893 C 128.233 215.893,127.926 184.049,127.801 145.129 C 127.576 75.135,127.554 74.339,125.811 72.005 C 120.423 64.788,112.380 62.251,105.351 65.551 M382.231 106.355 L 384.000 108.603 384.000 255.648 C 384.000 366.207,383.752 403.237,383.000 404.887 C 382.451 406.094,381.142 407.296,380.093 407.560 C 377.267 408.269,129.077 259.852,128.312 256.994 C 127.971 255.721,128.265 254.516,129.127 253.654 C 131.316 251.465,377.465 104.216,379.031 104.159 C 379.819 104.130,381.259 105.118,382.231 106.355 " stroke="none" fill-rule="evenodd" fill="black"></path></svg>