<svg xmlns="http://www.w3.org/2000/svg" width="512" height="512" viewBox="0 0 512 512"><path d="M241.493 48.673 C 201.694 51.236,163.176 65.747,129.707 90.787 C 119.118 98.709,98.459 119.383,90.552 129.971 C 68.706 159.223,55.330 191.336,49.785 227.840 C 47.724 241.414,47.724 270.586,49.785 284.160 C 55.331 320.671,68.725 352.821,90.558 382.029 C 98.598 392.784,119.216 413.402,129.971 421.442 C 159.179 443.275,191.329 456.669,227.840 462.215 C 241.414 464.276,270.586 464.276,284.160 462.215 C 320.686 456.667,352.914 443.237,382.029 421.430 C 392.784 413.374,413.374 392.784,421.430 382.029 C 443.237 352.914,456.667 320.686,462.215 284.160 C 464.276 270.586,464.276 241.414,462.215 227.840 C 455.463 183.387,436.803 144.683,406.921 113.150 C 370.380 74.590,322.088 52.062,268.561 48.607 C 255.365 47.755,255.779 47.754,241.493 48.673 M284.160 82.308 C 319.998 88.383,351.735 104.258,377.739 129.118 C 405.349 155.513,423.300 189.800,429.832 228.618 C 431.923 241.048,431.905 271.514,429.799 283.733 C 419.921 341.032,385.307 387.989,334.011 413.679 C 285.590 437.929,226.410 437.929,177.989 413.679 C 126.525 387.905,91.775 340.650,82.174 283.382 C 80.053 270.734,80.053 241.266,82.174 228.618 C 92.715 165.745,133.739 115.017,192.849 91.764 C 205.896 86.632,221.606 82.941,239.787 80.737 C 246.454 79.928,276.372 80.988,284.160 82.308 M182.045 177.513 C 175.417 180.859,175.787 176.214,175.787 256.142 C 175.787 323.611,175.868 327.431,177.358 330.210 C 179.399 334.016,184.239 336.579,188.037 335.866 C 189.595 335.574,216.180 320.055,247.115 301.380 L 303.360 267.426 303.787 296.060 C 304.256 327.542,304.269 327.622,309.768 332.249 C 318.551 339.640,332.381 335.330,335.358 324.275 C 335.957 322.049,336.176 298.835,336.020 254.127 C 335.791 188.538,335.754 187.252,334.039 184.332 C 333.078 182.696,330.690 180.232,328.733 178.856 C 325.746 176.757,324.345 176.356,320.000 176.356 C 315.655 176.356,314.254 176.757,311.267 178.856 C 304.219 183.809,304.269 183.561,303.787 215.982 L 303.360 244.656 279.467 230.225 C 202.293 183.612,190.482 176.623,188.160 176.193 C 186.471 175.880,184.391 176.329,182.045 177.513 " stroke="none" fill-rule="evenodd" fill="black"></path></svg>