<svg xmlns="http://www.w3.org/2000/svg" width="512" height="512" viewBox="0 0 512 512"><path d="M393.813 65.618 C 389.476 67.626,385.908 71.415,384.837 75.152 C 384.321 76.949,384.000 104.515,384.000 146.981 C 384.000 184.883,383.788 215.893,383.530 215.893 C 383.271 215.893,331.092 184.796,267.577 146.788 C 204.061 108.781,150.121 76.693,147.709 75.481 C 145.298 74.270,140.933 73.007,138.009 72.674 C 119.345 70.548,103.703 80.972,97.885 99.413 L 96.000 105.387 96.000 256.000 L 96.000 406.613 97.885 412.587 C 102.402 426.905,113.455 436.968,127.484 439.533 C 133.048 440.550,140.741 439.620,146.430 437.243 C 148.203 436.503,202.188 404.444,266.397 366.002 C 330.606 327.559,383.334 296.107,383.570 296.107 C 383.807 296.107,384.002 327.115,384.005 365.013 C 384.008 408.787,384.324 435.052,384.872 437.024 C 386.167 441.687,392.202 446.865,397.221 447.617 C 405.888 448.917,413.688 443.619,415.492 435.208 C 416.765 429.274,416.776 82.338,415.504 76.817 C 413.170 66.688,402.926 61.399,393.813 65.618 " stroke="none" fill-rule="evenodd" fill="black"></path></svg>