<svg xmlns="http://www.w3.org/2000/svg" width="512" height="512" viewBox="0 0 512 512"><path d="M241.493 48.673 C 201.694 51.236,163.176 65.747,129.707 90.787 C 119.118 98.709,98.459 119.383,90.552 129.971 C 68.706 159.223,55.330 191.336,49.785 227.840 C 47.724 241.414,47.724 270.586,49.785 284.160 C 55.331 320.671,68.725 352.821,90.558 382.029 C 98.598 392.784,119.216 413.402,129.971 421.442 C 159.179 443.275,191.329 456.669,227.840 462.215 C 241.414 464.276,270.586 464.276,284.160 462.215 C 320.686 456.667,352.914 443.237,382.029 421.430 C 392.784 413.374,413.374 392.784,421.430 382.029 C 443.237 352.914,456.667 320.686,462.215 284.160 C 464.276 270.586,464.276 241.414,462.215 227.840 C 455.463 183.387,436.803 144.683,406.921 113.150 C 370.380 74.590,322.088 52.062,268.561 48.607 C 255.365 47.755,255.779 47.754,241.493 48.673 M284.160 82.308 C 319.998 88.383,351.735 104.258,377.739 129.118 C 405.349 155.513,423.300 189.800,429.832 228.618 C 431.923 241.048,431.905 271.514,429.799 283.733 C 419.921 341.032,385.307 387.989,334.011 413.679 C 285.590 437.929,226.410 437.929,177.989 413.679 C 126.525 387.905,91.775 340.650,82.174 283.382 C 80.053 270.734,80.053 241.266,82.174 228.618 C 92.715 165.745,133.739 115.017,192.849 91.764 C 205.896 86.632,221.606 82.941,239.787 80.737 C 246.454 79.928,276.372 80.988,284.160 82.308 M187.958 176.599 C 184.309 177.490,179.561 181.185,177.706 184.577 C 176.327 187.100,176.196 192.377,175.980 254.127 C 175.824 298.835,176.043 322.049,176.642 324.275 C 179.619 335.330,193.449 339.640,202.232 332.249 C 207.731 327.622,207.744 327.542,208.213 296.060 L 208.640 267.426 264.885 301.380 C 295.820 320.055,322.405 335.574,323.963 335.866 C 327.761 336.579,332.601 334.016,334.642 330.210 C 336.132 327.431,336.213 323.611,336.213 256.142 C 336.213 175.584,336.618 180.415,329.619 177.320 C 327.259 176.276,325.015 175.862,323.509 176.192 C 322.200 176.480,295.819 191.998,264.885 210.678 L 208.640 244.641 208.213 215.974 C 207.813 189.045,207.681 187.126,206.039 184.332 C 202.535 178.367,194.606 174.976,187.958 176.599 " stroke="none" fill-rule="evenodd" fill="black"></path></svg>