<svg xmlns="http://www.w3.org/2000/svg" width="512" height="512" viewBox="0 0 512 512"><path d="M136.214 183.865 C 71.036 222.999,17.406 255.334,17.037 255.722 C 16.668 256.110,70.284 288.760,136.183 328.277 L 256.000 400.128 256.000 256.384 C 256.000 177.325,255.712 112.656,255.360 112.676 C 255.008 112.696,201.392 144.730,136.214 183.865 M375.680 184.178 C 310.325 223.445,256.853 255.804,256.853 256.086 C 256.853 256.618,494.405 399.360,495.289 399.360 C 495.563 399.360,495.787 334.848,495.787 256.000 C 495.787 177.152,495.499 112.672,495.147 112.712 C 494.795 112.752,441.035 144.912,375.680 184.178 " stroke="none" fill="black" fill-rule="evenodd"></path></svg>