<svg xmlns="http://www.w3.org/2000/svg" width="512" height="512" viewBox="0 0 512 512"><path d="M127.573 72.720 C 112.241 74.671,98.780 88.798,96.447 105.387 C 95.307 113.496,95.307 398.504,96.447 406.613 C 99.925 431.338,125.189 446.497,147.016 436.955 C 148.994 436.090,207.061 401.579,276.053 360.264 C 367.054 305.770,402.637 284.034,405.660 281.094 C 415.849 271.184,418.751 254.377,412.604 240.885 C 409.836 234.812,406.620 230.967,401.067 227.094 C 395.158 222.973,153.935 78.674,147.792 75.586 C 142.463 72.907,134.723 71.810,127.573 72.720 M257.494 178.012 C 325.430 218.660,381.736 252.609,382.619 253.455 C 383.716 254.505,384.054 255.624,383.688 256.989 C 382.921 259.849,134.731 408.269,131.903 407.559 C 130.856 407.296,129.549 406.094,129.000 404.887 C 128.248 403.237,128.000 366.207,128.000 255.648 L 128.000 108.603 129.769 106.355 C 130.741 105.118,132.086 104.107,132.756 104.107 C 133.427 104.107,189.559 137.364,257.494 178.012 " stroke="none" fill-rule="evenodd" fill="black"></path></svg>