<svg xmlns="http://www.w3.org/2000/svg" width="512" height="512" viewBox="0 0 512 512"><path d="M395.520 64.725 C 392.113 65.833,388.571 68.494,386.521 71.485 L 384.427 74.541 384.199 145.217 C 384.074 184.089,383.764 215.893,383.512 215.893 C 383.259 215.893,331.137 184.837,267.686 146.879 C 204.235 108.921,150.262 76.829,147.746 75.563 C 139.117 71.223,126.603 71.362,117.333 75.902 C 106.532 81.192,98.195 92.961,96.447 105.387 C 95.307 113.496,95.307 398.504,96.447 406.613 C 99.885 431.053,124.788 446.286,146.486 437.220 C 148.233 436.490,202.190 404.441,266.390 366.000 C 330.589 327.559,383.315 296.107,383.558 296.107 C 383.801 296.107,384.000 327.378,384.000 365.598 C 384.000 412.525,384.294 435.869,384.906 437.491 C 386.134 440.749,390.653 445.386,393.999 446.822 C 399.917 449.361,408.011 447.308,412.333 442.173 C 413.562 440.712,414.986 437.566,415.497 435.183 C 416.808 429.070,416.808 82.930,415.497 76.817 C 414.986 74.434,413.562 71.288,412.333 69.827 C 408.431 65.190,401.013 62.939,395.520 64.725 M257.494 178.012 C 325.430 218.660,381.736 252.609,382.619 253.455 C 383.716 254.505,384.054 255.624,383.688 256.989 C 382.921 259.849,134.731 408.269,131.903 407.559 C 130.856 407.296,129.549 406.094,129.000 404.887 C 128.248 403.237,128.000 366.207,128.000 255.648 L 128.000 108.603 129.769 106.355 C 130.741 105.118,132.086 104.107,132.756 104.107 C 133.427 104.107,189.559 137.364,257.494 178.012 " stroke="none" fill-rule="evenodd" fill="black"></path></svg>