<svg xmlns="http://www.w3.org/2000/svg" width="512" height="512" viewBox="0 0 512 512"><path d="M241.920 48.669 C 177.359 52.784,118.768 87.102,81.958 142.362 C 55.666 181.831,43.309 234.683,49.503 281.173 C 55.829 328.652,75.879 369.527,109.176 402.824 C 142.702 436.350,182.619 455.851,231.680 462.670 C 235.904 463.257,246.848 463.738,256.000 463.738 C 265.152 463.738,276.096 463.257,280.320 462.670 C 329.321 455.859,369.272 436.331,402.802 402.802 C 436.331 369.272,455.859 329.321,462.670 280.320 C 464.046 270.420,464.046 241.580,462.670 231.680 C 455.892 182.914,436.342 142.776,403.220 109.623 C 391.401 97.792,382.569 90.546,369.558 82.006 C 331.997 57.351,287.606 45.757,241.920 48.669 M308.053 203.928 L 367.360 168.089 367.581 212.044 C 367.703 236.220,367.703 275.747,367.581 299.883 L 367.360 343.765 308.053 308.047 L 248.747 272.329 248.524 307.752 C 248.401 327.235,247.978 343.049,247.582 342.895 C 245.967 342.262,111.849 256.394,111.862 256.000 C 111.871 255.765,142.481 235.894,179.885 211.842 L 247.893 168.111 248.320 203.940 L 248.747 239.768 308.053 203.928 " stroke="none" fill-rule="evenodd" fill="black"></path></svg>