<svg xmlns="http://www.w3.org/2000/svg" width="512" height="512" viewBox="0 0 512 512"><path d="M42.608 112.616 C 34.434 114.066,26.056 119.753,21.482 126.957 C 15.916 135.724,16.213 128.446,16.213 256.079 C 16.213 366.334,16.289 372.145,17.790 376.969 C 23.502 395.320,43.561 404.987,60.087 397.352 C 62.474 396.249,104.299 371.457,153.032 342.259 C 201.764 313.061,242.180 288.963,242.845 288.708 C 243.876 288.312,244.057 293.805,244.080 326.095 C 244.094 346.914,244.477 366.827,244.929 370.347 C 246.538 382.851,254.405 393.504,265.176 397.767 C 272.367 400.612,282.074 400.508,288.427 397.518 C 296.590 393.675,481.520 282.613,485.708 279.038 C 488.310 276.817,490.697 273.615,492.534 269.882 C 495.133 264.603,495.360 263.491,495.360 256.018 C 495.360 248.811,495.085 247.333,492.926 242.936 C 491.587 240.209,488.707 236.226,486.526 234.085 C 483.731 231.341,454.347 213.315,386.987 173.021 C 334.421 141.576,290.107 115.290,288.510 114.605 C 271.630 107.374,252.148 116.925,245.941 135.475 C 244.807 138.864,244.510 146.380,244.107 181.801 L 243.627 224.083 152.747 169.657 C 102.763 139.722,60.139 114.668,58.027 113.980 C 52.796 112.277,47.274 111.789,42.608 112.616 " stroke="none" fill-rule="evenodd" fill="black"></path></svg>