<svg xmlns="http://www.w3.org/2000/svg" width="512" height="512" viewBox="0 0 512 512"><path d="M241.493 48.673 C 201.694 51.236,163.176 65.747,129.707 90.787 C 119.118 98.709,98.459 119.383,90.552 129.971 C 68.706 159.223,55.330 191.336,49.785 227.840 C 47.724 241.414,47.724 270.586,49.785 284.160 C 55.331 320.671,68.725 352.821,90.558 382.029 C 98.598 392.784,119.216 413.402,129.971 421.442 C 159.179 443.275,191.329 456.669,227.840 462.215 C 241.414 464.276,270.586 464.276,284.160 462.215 C 320.686 456.667,352.914 443.237,382.029 421.430 C 392.784 413.374,413.374 392.784,421.430 382.029 C 443.237 352.914,456.667 320.686,462.215 284.160 C 464.276 270.586,464.276 241.414,462.215 227.840 C 455.463 183.387,436.803 144.683,406.921 113.150 C 370.380 74.590,322.088 52.062,268.561 48.607 C 255.365 47.755,255.779 47.754,241.493 48.673 M284.160 82.308 C 319.998 88.383,351.735 104.258,377.739 129.118 C 405.349 155.513,423.300 189.800,429.832 228.618 C 431.923 241.048,431.905 271.514,429.799 283.733 C 419.921 341.032,385.307 387.989,334.011 413.679 C 285.590 437.929,226.410 437.929,177.989 413.679 C 126.525 387.905,91.775 340.650,82.174 283.382 C 80.053 270.734,80.053 241.266,82.174 228.618 C 92.715 165.745,133.739 115.017,192.849 91.764 C 205.896 86.632,221.606 82.941,239.787 80.737 C 246.454 79.928,276.372 80.988,284.160 82.308 M151.420 176.690 C 149.986 177.111,147.874 178.455,146.726 179.676 L 144.640 181.897 144.432 255.002 C 144.269 311.973,144.457 328.559,145.285 330.158 C 147.048 333.563,150.792 335.788,154.729 335.771 C 157.895 335.756,164.154 332.212,210.773 304.030 L 263.253 272.305 263.680 300.359 C 264.085 326.996,264.196 328.533,265.868 330.819 C 266.837 332.143,269.119 333.965,270.938 334.868 C 273.978 336.377,274.526 336.408,277.709 335.256 C 282.872 333.387,393.331 266.488,396.800 263.130 C 399.424 260.589,399.787 259.724,399.787 256.000 C 399.787 252.274,399.426 251.414,396.800 248.883 C 393.309 245.518,281.171 177.726,276.956 176.432 C 273.465 175.361,268.604 177.443,265.868 181.181 C 264.195 183.467,264.085 185.003,263.680 211.682 L 263.253 239.776 211.137 208.309 C 182.473 191.002,157.897 176.635,156.523 176.382 C 155.150 176.130,152.854 176.268,151.420 176.690 " stroke="none" fill-rule="evenodd" fill="black"></path></svg>