<svg xmlns="http://www.w3.org/2000/svg" width="512" height="512" viewBox="0 0 512 512"><path d="M241.920 48.669 C 177.359 52.784,118.768 87.102,81.958 142.362 C 55.666 181.831,43.309 234.683,49.503 281.173 C 55.829 328.652,75.879 369.527,109.176 402.824 C 142.702 436.350,182.619 455.851,231.680 462.670 C 235.904 463.257,246.848 463.738,256.000 463.738 C 265.152 463.738,276.096 463.257,280.320 462.670 C 329.321 455.859,369.272 436.331,402.802 402.802 C 436.331 369.272,455.859 329.321,462.670 280.320 C 464.046 270.420,464.046 241.580,462.670 231.680 C 455.892 182.914,436.342 142.776,403.220 109.623 C 391.401 97.792,382.569 90.546,369.558 82.006 C 331.997 57.351,287.606 45.757,241.920 48.669 M210.454 207.897 C 238.738 224.977,262.477 239.180,263.207 239.460 C 264.390 239.914,264.533 236.886,264.533 211.357 L 264.533 182.744 266.695 180.176 C 269.524 176.813,273.934 175.327,277.448 176.552 C 281.049 177.807,393.244 245.502,396.140 248.167 C 401.038 252.673,401.038 259.312,396.140 263.846 C 393.434 266.350,283.032 333.142,278.396 335.079 C 274.350 336.770,269.802 335.517,266.730 331.866 L 264.533 329.256 264.533 300.643 C 264.533 277.206,264.328 272.109,263.400 272.466 C 262.777 272.705,238.997 286.958,210.557 304.139 C 182.117 321.320,157.736 335.599,156.378 335.871 C 152.858 336.575,147.973 334.262,145.942 330.931 C 144.250 328.157,144.220 326.818,144.217 255.913 L 144.213 183.719 146.163 180.820 C 148.378 177.525,152.794 175.622,156.527 176.354 C 157.903 176.623,182.170 190.818,210.454 207.897 " stroke="none" fill-rule="evenodd" fill="black"></path></svg>