<svg xmlns="http://www.w3.org/2000/svg" width="512" height="512" viewBox="0 0 512 512"><path d="M181.666 33.671 C 170.158 37.943,162.127 47.858,160.378 59.954 C 159.954 62.883,159.600 79.377,159.590 96.607 L 159.573 127.934 100.053 128.181 L 40.533 128.427 34.984 131.056 C 28.163 134.289,21.786 140.498,18.843 146.771 L 16.640 151.467 16.388 305.493 C 16.200 419.984,16.388 460.391,17.120 462.914 C 19.512 471.160,26.475 477.445,35.259 479.286 C 39.497 480.174,82.871 480.391,256.000 480.391 C 488.748 480.391,478.534 480.593,485.366 475.859 C 489.486 473.003,493.558 467.467,494.877 462.929 C 495.613 460.394,495.802 428.215,495.613 337.493 L 495.360 215.467 493.157 210.771 C 490.214 204.498,483.837 198.289,477.016 195.056 L 471.467 192.427 411.947 192.181 L 352.427 191.934 352.410 128.607 C 352.400 93.777,352.046 62.883,351.622 59.954 C 350.057 49.136,343.686 40.315,333.831 35.321 L 328.960 32.853 256.853 32.690 C 198.368 32.558,184.165 32.743,181.666 33.671 M320.000 256.000 L 320.000 448.000 256.000 448.000 L 192.000 448.000 192.000 256.000 L 192.000 64.000 256.000 64.000 L 320.000 64.000 320.000 256.000 M159.573 304.213 L 159.573 448.000 103.680 448.000 L 47.787 448.000 47.787 304.213 L 47.787 160.427 103.680 160.427 L 159.573 160.427 159.573 304.213 M464.213 336.213 L 464.213 448.000 408.320 448.000 L 352.427 448.000 352.427 336.213 L 352.427 224.427 408.320 224.427 L 464.213 224.427 464.213 336.213 " stroke="none" fill-rule="evenodd" fill="black"></path></svg>