<svg xmlns="http://www.w3.org/2000/svg" width="512" height="512" viewBox="0 0 512 512"><path d="M181.193 33.995 C 172.906 36.878,165.500 44.185,161.855 53.074 L 160.000 57.600 160.000 267.691 C 160.000 438.935,160.205 477.986,161.109 478.891 C 162.748 480.529,349.252 480.529,350.891 478.891 C 351.793 477.988,352.043 439.384,352.233 271.531 C 352.381 139.895,352.162 63.303,351.629 59.816 C 349.998 49.162,343.222 39.858,333.682 35.172 L 328.960 32.853 257.280 32.658 C 190.221 32.475,185.316 32.562,181.193 33.995 M40.743 128.914 C 31.687 131.083,23.330 137.842,19.131 146.393 L 16.640 151.467 16.640 307.200 C 16.640 460.342,16.668 462.990,18.318 466.318 C 20.605 470.931,25.811 475.956,30.593 478.166 C 34.490 479.968,35.336 480.000,78.790 480.000 L 123.019 480.000 125.510 477.213 L 128.000 474.426 128.000 303.821 L 128.000 133.215 125.941 130.821 L 123.882 128.427 83.914 128.287 C 61.932 128.210,42.505 128.492,40.743 128.914 M388.571 192.826 C 387.566 193.243,386.126 194.465,385.371 195.542 C 384.125 197.321,384.000 210.168,384.000 335.963 L 384.000 474.426 386.490 477.213 L 388.981 480.000 433.210 480.000 C 476.664 480.000,477.510 479.968,481.407 478.166 C 486.189 475.956,491.395 470.931,493.682 466.318 C 495.327 462.999,495.360 460.522,495.360 339.200 L 495.360 215.467 492.869 210.393 C 489.579 203.692,484.198 198.458,477.185 195.135 L 471.467 192.427 430.933 192.247 C 408.640 192.149,389.577 192.409,388.571 192.826 " stroke="none" fill-rule="evenodd" fill="black"></path></svg>