<svg xmlns="http://www.w3.org/2000/svg" width="512" height="512" viewBox="0 0 512 512"><path d="M233.813 160.000 L 233.813 272.213 256.000 272.213 L 278.187 272.213 278.187 160.000 L 278.187 47.787 256.000 47.787 L 233.813 47.787 233.813 160.000 M127.147 92.506 C 99.041 116.328,83.416 135.877,69.112 165.120 C 59.437 184.897,53.920 202.493,50.168 225.535 C 47.561 241.547,47.568 270.278,50.183 286.465 C 53.831 309.048,59.825 328.027,69.533 347.733 C 100.604 410.799,159.730 452.802,231.253 462.617 C 241.696 464.050,270.304 464.050,280.747 462.617 C 352.270 452.802,411.396 410.799,442.467 347.733 C 452.183 328.012,458.184 309.004,461.810 286.465 C 464.241 271.354,464.429 243.335,462.200 228.279 C 455.512 183.112,435.732 142.956,404.670 111.488 C 396.112 102.818,372.840 82.773,371.332 82.773 C 370.864 82.773,365.967 88.245,360.450 94.933 C 354.933 101.621,348.768 109.043,346.751 111.427 L 343.083 115.760 356.659 127.039 C 374.695 142.022,386.150 154.875,395.995 171.174 C 444.246 251.055,416.904 353.742,335.176 399.590 C 320.616 407.758,302.833 414.076,283.733 417.867 C 272.724 420.053,239.276 420.053,228.267 417.867 C 194.598 411.184,166.868 397.268,144.123 375.641 C 128.923 361.188,117.363 345.632,108.888 328.227 C 86.575 282.400,86.551 229.226,108.822 183.893 C 121.139 158.822,133.984 143.550,162.255 120.362 L 167.923 115.712 154.668 99.883 C 147.377 91.177,140.987 83.595,140.466 83.036 C 139.750 82.265,136.519 84.562,127.147 92.506 " stroke="none" fill-rule="evenodd" fill="black"></path></svg>