<svg xmlns="http://www.w3.org/2000/svg" width="512" height="512" viewBox="0 0 512 512"><path d="M252.160 48.561 C 246.480 49.972,242.199 54.068,240.678 59.546 C 239.405 64.127,239.464 256.082,240.738 260.674 C 241.999 265.214,246.994 270.084,251.687 271.347 C 260.232 273.649,269.010 268.778,271.322 260.454 C 272.541 256.065,272.541 63.935,271.322 59.546 C 270.290 55.830,266.969 51.616,263.792 49.990 C 260.785 48.452,255.306 47.779,252.160 48.561 M126.559 93.363 C 122.366 95.259,107.639 109.080,98.484 119.711 C 44.191 182.756,32.602 272.303,69.085 346.880 C 80.063 369.322,91.055 384.640,109.208 402.792 C 127.360 420.945,142.678 431.937,165.120 442.915 C 184.358 452.326,205.433 458.811,227.840 462.215 C 241.414 464.276,270.586 464.276,284.160 462.215 C 320.686 456.667,352.914 443.237,382.029 421.430 C 392.784 413.374,413.374 392.784,421.430 382.029 C 443.237 352.914,456.667 320.686,462.215 284.160 C 463.284 277.120,463.704 269.162,463.701 256.000 C 463.698 237.789,463.195 232.401,459.912 215.362 C 452.798 178.442,434.137 142.237,407.597 113.861 C 399.241 104.926,387.074 94.344,383.670 93.050 C 380.431 91.819,375.092 91.937,371.799 93.313 C 365.808 95.816,361.004 104.221,362.131 110.228 C 363.037 115.056,365.320 118.076,373.700 125.533 C 402.441 151.107,422.123 186.647,429.413 226.133 C 431.856 239.369,432.072 270.705,429.809 283.733 C 419.838 341.151,385.309 387.988,334.011 413.679 C 297.411 432.009,253.418 436.748,213.217 426.691 C 145.308 409.703,93.941 353.766,82.330 284.160 C 80.441 272.836,79.780 250.828,80.967 238.740 C 84.209 205.708,95.859 175.770,115.841 149.118 C 119.447 144.308,128.038 134.789,134.932 127.964 C 145.289 117.709,147.634 114.928,148.436 111.951 C 150.166 105.525,147.904 99.531,142.069 95.081 C 138.285 92.194,130.942 91.381,126.559 93.363 " stroke="none" fill-rule="evenodd" fill="black"></path></svg>