<svg xmlns="http://www.w3.org/2000/svg" width="512" height="512" viewBox="0 0 512 512"><path d="M251.307 48.547 C 246.693 49.748,241.706 52.799,238.991 56.082 C 233.614 62.583,233.813 58.587,233.813 160.000 C 233.813 264.833,233.387 258.215,240.599 265.427 C 244.735 269.563,250.749 272.213,256.000 272.213 C 261.251 272.213,267.265 269.563,271.401 265.427 C 278.613 258.215,278.187 264.833,278.187 160.000 C 278.187 58.579,278.386 62.584,273.005 56.077 C 268.213 50.283,258.107 46.776,251.307 48.547 M366.626 90.993 C 357.519 93.790,350.604 104.704,351.909 114.222 C 352.806 120.767,355.416 124.834,362.913 131.370 C 425.283 185.749,437.992 277.298,392.725 346.107 C 370.182 380.373,335.183 405.169,295.375 415.078 C 280.230 418.848,275.097 419.413,256.000 419.413 C 236.903 419.413,231.770 418.848,216.625 415.078 C 200.882 411.160,185.516 404.898,172.792 397.218 C 98.764 352.531,71.360 260.748,108.818 182.949 C 117.473 164.971,132.234 145.360,146.773 132.518 C 156.247 124.152,158.737 119.753,158.701 111.446 C 158.651 99.661,149.123 90.453,136.979 90.453 C 129.328 90.453,125.785 92.319,115.452 101.783 C 79.561 134.660,57.453 177.004,49.771 227.580 C 47.763 240.804,47.769 270.247,49.784 283.307 C 53.052 304.494,57.641 320.824,65.331 338.633 C 92.100 400.630,149.154 446.819,215.040 459.833 C 230.888 462.963,239.014 463.738,256.000 463.738 C 278.256 463.738,295.297 461.273,315.733 455.098 C 387.327 433.465,442.399 374.515,458.687 302.080 C 462.686 284.300,463.713 274.621,463.670 255.147 C 463.626 235.320,462.144 222.727,457.876 205.909 C 448.195 167.765,429.436 134.859,402.084 108.044 C 389.678 95.881,385.165 92.333,380.218 90.857 C 375.050 89.313,371.994 89.344,366.626 90.993 " stroke="none" fill-rule="evenodd" fill="black"></path></svg>