<svg xmlns="http://www.w3.org/2000/svg" width="512" height="512" viewBox="0 0 512 512"><path d="M303.787 33.225 C 296.310 35.507,293.027 38.656,169.108 162.429 C 100.432 231.024,42.607 289.451,40.607 292.267 C 29.895 307.349,29.262 325.210,38.847 341.969 C 42.028 347.531,164.469 469.972,170.031 473.153 C 186.790 482.738,204.651 482.105,219.733 471.393 C 222.549 469.393,281.149 411.376,349.955 342.465 C 449.347 242.921,475.424 216.361,476.846 213.219 C 480.362 205.451,480.535 201.380,480.233 133.547 C 479.984 77.646,479.761 68.163,478.618 64.853 C 473.132 48.960,462.263 38.211,447.205 33.788 C 443.122 32.589,434.432 32.435,374.245 32.500 C 336.666 32.540,304.960 32.866,303.787 33.225 M397.795 99.236 C 403.461 102.009,410.667 109.340,413.274 114.986 C 414.826 118.345,415.147 120.576,415.147 128.000 C 415.147 136.021,414.904 137.455,412.828 141.682 C 406.637 154.286,392.589 161.735,379.137 159.546 C 369.068 157.907,359.720 150.959,355.226 141.774 C 352.290 135.772,351.566 125.425,353.594 118.447 C 356.150 109.656,364.310 101.125,373.193 97.957 C 379.928 95.555,391.500 96.157,397.795 99.236 " stroke="none" fill-rule="evenodd" fill="black"></path></svg>