<svg xmlns="http://www.w3.org/2000/svg" width="512" height="512" viewBox="0 0 512 512"><path d="M269.501 18.247 C 266.836 19.343,263.188 21.420,261.394 22.862 C 259.601 24.304,201.660 82.054,132.637 151.195 C -3.742 287.808,4.513 278.966,1.167 292.016 C -1.536 302.559,0.781 316.582,6.758 325.844 C 8.167 328.027,38.039 358.467,73.140 393.487 C 142.889 463.077,139.629 460.230,152.767 463.019 C 163.908 465.383,176.773 463.009,186.027 456.881 C 191.937 452.967,442.149 202.937,444.143 198.953 C 448.006 191.232,447.981 191.737,447.991 121.566 C 448.001 48.956,448.079 50.249,443.066 40.107 C 437.963 29.780,424.619 19.531,413.185 17.153 C 410.109 16.514,387.181 16.220,341.505 16.234 L 274.347 16.254 269.501 18.247 M410.253 50.201 C 415.839 54.185,415.573 50.678,415.573 120.501 L 415.573 183.913 292.053 307.365 C 181.058 418.300,168.204 430.877,165.286 431.406 C 157.159 432.879,161.151 436.363,94.097 369.289 L 32.427 307.602 32.427 303.078 C 32.427 300.590,32.850 297.716,33.368 296.691 C 33.886 295.665,89.854 239.235,157.742 171.289 L 281.173 47.751 344.320 47.982 L 407.467 48.213 410.253 50.201 M489.351 65.551 C 484.661 67.754,481.615 71.632,480.503 76.817 C 479.880 79.722,479.573 102.024,479.573 144.470 L 479.573 207.789 348.530 338.774 C 273.902 413.370,216.777 471.123,215.837 472.926 C 212.837 478.682,214.335 487.534,219.003 491.630 C 223.710 495.762,231.396 497.014,236.676 494.509 C 238.157 493.806,299.693 432.846,373.423 359.042 C 492.980 239.365,507.699 224.346,509.525 220.160 L 511.573 215.467 511.573 144.916 C 511.573 74.959,511.559 74.346,509.811 72.005 C 504.424 64.789,496.380 62.251,489.351 65.551 M341.760 81.751 C 323.574 88.069,314.920 108.744,323.321 125.807 C 328.911 137.164,339.337 143.651,352.000 143.651 C 360.879 143.651,366.991 141.328,373.310 135.553 C 385.528 124.386,387.370 106.026,377.597 92.806 C 374.087 88.057,367.104 83.171,361.354 81.441 C 355.883 79.794,346.988 79.935,341.760 81.751 " stroke="none" fill-rule="evenodd" fill="black"></path></svg>