<svg xmlns="http://www.w3.org/2000/svg" width="512" height="512" viewBox="0 0 512 512"><path d="M143.999 160.215 L -0.001 304.216 87.893 392.107 L 175.787 479.997 320.000 335.786 L 464.213 191.575 464.213 103.894 L 464.213 16.213 376.106 16.213 L 287.998 16.213 143.999 160.215 M479.573 136.319 L 479.573 208.638 348.376 339.838 L 217.178 471.037 229.624 483.484 L 242.070 495.930 377.029 359.965 L 511.988 224.000 511.994 144.000 L 512.000 64.000 495.787 64.000 L 479.573 64.000 479.573 136.319 M381.943 83.450 C 388.601 86.811,395.189 93.925,397.716 100.483 C 400.651 108.100,400.391 117.607,397.053 124.741 C 392.455 134.565,385.533 140.422,375.469 143.000 C 361.426 146.597,346.383 139.462,339.347 125.867 C 336.910 121.157,336.695 120.062,336.668 112.213 C 336.645 105.106,336.964 102.978,338.576 99.481 C 342.465 91.049,349.216 84.821,357.803 81.746 C 364.696 79.278,375.138 80.015,381.943 83.450 " stroke="none" fill-rule="evenodd" fill="black"></path></svg>