<svg xmlns="http://www.w3.org/2000/svg" width="512" height="512" viewBox="0 0 512 512"><path d="M271.604 17.451 C 269.626 18.069,266.362 19.555,264.351 20.752 C 262.339 21.949,203.801 79.881,134.265 149.491 C 21.185 262.691,7.558 276.615,5.191 281.378 C 0.183 291.454,-1.247 302.905,1.286 312.634 C 4.519 325.046,1.943 322.138,71.150 391.505 C 132.518 453.015,135.532 455.896,141.783 459.040 C 154.990 465.682,168.062 465.672,181.760 459.011 L 189.013 455.483 315.844 328.648 C 429.310 215.179,442.933 201.274,445.124 196.693 L 447.573 191.573 447.811 123.972 C 448.015 66.025,447.865 55.576,446.757 50.799 C 442.989 34.554,430.428 21.732,414.120 17.484 C 407.317 15.712,277.265 15.682,271.604 17.451 M489.288 65.633 C 484.945 67.605,481.654 71.791,480.496 76.817 C 479.933 79.258,479.608 103.619,479.594 144.207 L 479.573 207.774 347.412 340.047 C 220.849 466.717,215.209 472.492,214.278 476.381 C 212.137 485.316,217.785 493.898,227.282 496.140 C 228.677 496.470,231.582 496.165,234.108 495.424 C 238.331 494.186,243.891 488.743,372.992 359.494 C 492.927 239.420,507.699 224.346,509.525 220.160 L 511.573 215.467 511.829 148.053 C 511.970 110.976,511.848 78.992,511.558 76.977 C 510.606 70.354,502.907 64.037,495.787 64.037 C 494.144 64.037,491.219 64.755,489.288 65.633 M365.676 83.174 C 372.307 86.418,377.552 91.820,380.860 98.815 C 383.273 103.917,383.565 105.363,383.569 112.231 C 383.573 119.208,383.312 120.461,380.779 125.604 C 375.082 137.177,364.759 143.651,352.000 143.651 C 339.241 143.651,328.918 137.177,323.221 125.604 C 320.685 120.454,320.428 119.218,320.440 112.231 C 320.452 105.663,320.794 103.803,322.773 99.553 C 325.894 92.853,329.391 88.616,334.512 85.330 C 340.862 81.255,344.981 80.194,353.349 80.477 C 359.362 80.681,361.566 81.163,365.676 83.174 " stroke="none" fill-rule="evenodd" fill="black"></path></svg>