<svg xmlns="http://www.w3.org/2000/svg" width="512" height="512" viewBox="0 0 512 512"><path d="M159.573 176.214 L 15.788 320.000 103.894 408.106 L 192.000 496.212 336.213 352.000 L 480.427 207.789 480.427 120.108 L 480.427 32.427 391.892 32.427 L 303.358 32.427 159.573 176.214 M397.795 99.236 C 403.461 102.009,410.667 109.340,413.274 114.986 C 414.826 118.345,415.147 120.576,415.147 128.000 C 415.147 136.021,414.904 137.455,412.828 141.682 C 406.637 154.286,392.589 161.735,379.137 159.546 C 369.068 157.907,359.720 150.959,355.226 141.774 C 352.290 135.772,351.566 125.425,353.594 118.447 C 356.150 109.656,364.310 101.125,373.193 97.957 C 379.928 95.555,391.500 96.157,397.795 99.236 " stroke="none" fill-rule="evenodd" fill="black"></path></svg>