<svg xmlns="http://www.w3.org/2000/svg" width="512" height="512" viewBox="0 0 512 512"><path d="M303.787 33.225 C 296.292 35.513,293.120 38.562,167.155 164.561 C 69.027 262.714,39.747 292.475,37.735 296.107 C 33.825 303.164,32.292 309.527,32.310 318.618 C 32.329 327.969,34.298 334.930,38.974 342.187 C 43.044 348.503,163.497 468.956,169.813 473.026 C 184.133 482.254,204.233 482.154,218.155 472.784 C 221.231 470.714,271.460 421.030,349.061 343.299 C 445.770 246.428,475.410 216.260,476.851 213.234 C 480.260 206.071,480.548 199.187,480.229 132.267 C 479.950 73.854,479.801 68.312,478.390 64.000 C 473.541 49.184,460.353 36.591,446.293 33.353 C 441.795 32.317,307.157 32.196,303.787 33.225 M441.196 65.718 C 443.364 66.824,445.176 68.636,446.282 70.804 C 447.958 74.089,448.000 75.717,448.000 136.720 L 448.000 199.267 324.053 323.151 C 213.412 433.736,199.763 447.096,196.907 447.612 C 188.893 449.059,192.438 452.141,127.336 387.135 C 87.112 346.971,66.811 326.111,65.682 323.784 C 63.644 319.581,63.555 316.542,65.361 312.918 C 66.110 311.416,122.078 254.795,189.734 187.093 L 312.744 64.000 375.286 64.000 C 436.283 64.000,437.911 64.042,441.196 65.718 M373.190 97.958 C 359.066 102.994,350.060 118.154,352.454 132.863 C 356.648 158.630,388.051 168.861,406.456 150.456 C 422.014 134.899,417.591 108.922,397.730 99.205 C 391.501 96.157,379.893 95.567,373.190 97.958 " stroke="none" fill-rule="evenodd" fill="black"></path></svg>