<svg xmlns="http://www.w3.org/2000/svg" width="512" height="512" viewBox="0 0 512 512"><path d="M117.238 48.619 C 116.247 49.022,114.608 50.403,113.597 51.689 C 111.811 53.959,111.764 54.640,111.985 75.014 L 112.213 96.000 256.000 96.000 L 399.787 96.000 399.787 74.472 L 399.787 52.943 397.421 50.578 L 395.055 48.213 257.047 48.050 C 181.143 47.960,118.229 48.216,117.238 48.619 M96.560 112.705 C 77.518 115.175,60.982 127.548,52.899 145.372 C 47.639 156.975,47.787 153.353,47.787 270.513 C 47.787 387.134,47.537 381.267,52.576 383.183 C 53.789 383.644,67.144 384.000,83.230 384.000 L 111.735 384.000 111.974 421.528 L 112.213 459.056 114.579 461.421 L 116.945 463.787 256.000 463.787 L 395.055 463.787 397.421 461.421 L 399.787 459.056 400.026 421.528 L 400.265 384.000 428.770 384.000 C 444.856 384.000,458.211 383.644,459.424 383.183 C 464.523 381.244,464.273 387.538,464.019 267.739 L 463.787 158.293 461.465 151.449 C 454.136 129.847,436.729 115.450,414.582 112.673 C 406.039 111.602,104.831 111.632,96.560 112.705 M401.549 162.040 C 410.495 166.103,415.579 174.013,415.565 183.848 C 415.554 191.481,413.078 197.123,407.633 201.916 C 403.542 205.516,396.893 208.213,392.107 208.213 C 387.356 208.213,380.677 205.521,376.663 201.988 C 371.155 197.140,368.559 191.563,368.491 184.435 C 368.397 174.377,373.577 166.166,382.603 162.067 C 387.360 159.907,396.824 159.894,401.549 162.040 M359.083 265.557 C 359.864 266.339,360.107 284.875,360.107 343.783 C 360.107 414.423,359.987 421.118,358.694 422.546 C 357.341 424.041,353.041 424.107,256.148 424.107 C 163.240 424.107,154.887 423.992,153.454 422.694 C 151.964 421.346,151.893 417.784,151.893 343.932 C 151.893 284.908,152.136 266.339,152.917 265.557 C 154.404 264.070,357.596 264.070,359.083 265.557 " stroke="none" fill-rule="evenodd" fill="black"></path></svg>