<svg xmlns="http://www.w3.org/2000/svg" width="512" height="512" viewBox="0 0 512 512"><path d="M160.427 48.657 C 153.669 49.486,144.969 52.577,138.703 56.374 C 132.609 60.067,123.770 69.073,119.911 75.520 C 117.092 80.230,112.640 92.273,112.640 95.191 C 112.640 96.265,131.409 96.427,256.000 96.427 C 380.591 96.427,399.360 96.265,399.360 95.191 C 399.360 92.240,394.870 80.191,391.917 75.214 C 388.162 68.887,378.349 59.231,371.879 55.498 C 369.394 54.064,364.288 51.839,360.533 50.554 L 353.707 48.218 259.840 48.097 C 208.213 48.030,163.477 48.282,160.427 48.657 M98.133 112.721 C 85.570 114.347,74.272 120.102,64.704 129.747 C 59.437 135.056,57.400 137.913,54.302 144.335 C 47.560 158.310,47.787 154.671,47.787 248.747 C 47.787 342.704,47.570 339.204,54.236 353.022 C 63.143 371.488,80.835 382.743,102.613 383.797 L 111.787 384.242 111.799 405.668 C 111.809 421.552,112.138 428.477,113.073 432.443 C 116.657 447.645,128.311 459.333,143.439 462.899 C 151.670 464.839,360.330 464.839,368.561 462.899 C 383.689 459.333,395.343 447.645,398.927 432.443 C 399.862 428.477,400.191 421.552,400.201 405.668 L 400.213 384.242 409.387 383.797 C 431.897 382.707,449.536 371.085,458.664 351.328 C 464.411 338.889,464.298 341.145,464.029 244.907 L 463.787 158.293 461.465 151.449 C 454.136 129.847,436.729 115.450,414.582 112.673 C 405.959 111.592,106.503 111.637,98.133 112.721 M401.549 162.040 C 410.495 166.103,415.579 174.013,415.565 183.848 C 415.554 191.481,413.078 197.123,407.633 201.916 C 403.542 205.516,396.893 208.213,392.107 208.213 C 387.356 208.213,380.677 205.521,376.663 201.988 C 371.155 197.140,368.559 191.563,368.491 184.435 C 368.397 174.377,373.577 166.166,382.603 162.067 C 387.360 159.907,396.824 159.894,401.549 162.040 M365.727 258.821 L 367.787 261.215 367.787 344.007 L 367.787 426.798 365.292 429.292 L 362.798 431.787 256.000 431.787 L 149.202 431.787 146.708 429.292 L 144.213 426.798 144.213 344.149 C 144.213 254.230,143.974 258.796,148.785 256.841 C 149.797 256.430,198.179 256.171,257.141 256.262 L 363.668 256.427 365.727 258.821 " stroke="none" fill-rule="evenodd" fill="black"></path></svg>