<svg xmlns="http://www.w3.org/2000/svg" width="512" height="512" viewBox="0 0 512 512"><path d="M160.853 48.618 C 147.782 50.235,138.943 54.696,128.768 64.811 C 122.878 70.667,120.728 73.538,117.873 79.360 C 113.919 87.421,111.787 96.675,111.787 105.766 L 111.787 111.543 103.040 112.135 C 85.626 113.313,76.246 117.400,64.768 128.811 C 58.882 134.663,56.725 137.542,53.869 143.360 C 47.540 156.254,47.702 153.288,47.974 251.375 L 48.215 338.347 50.203 344.320 C 55.305 359.655,67.325 373.077,81.615 379.396 C 88.097 382.264,96.898 384.000,104.946 384.000 L 111.648 384.000 111.965 408.107 C 112.267 431.012,112.383 432.469,114.294 437.333 C 116.752 443.591,119.846 448.172,124.723 452.774 C 129.906 457.664,132.719 459.422,139.093 461.756 L 144.640 463.787 256.000 463.787 L 367.360 463.787 372.907 461.751 C 383.075 458.018,391.579 450.348,395.984 440.934 C 399.678 433.042,400.213 428.516,400.213 405.217 L 400.213 384.000 407.085 384.000 C 423.363 384.000,436.610 378.433,448.099 366.764 C 454.236 360.531,458.261 353.984,461.377 345.165 L 463.787 338.347 464.031 251.307 C 464.305 153.310,464.483 156.537,458.089 143.360 C 455.243 137.494,453.167 134.712,447.232 128.811 C 435.754 117.400,426.374 113.313,408.960 112.135 L 400.213 111.543 400.213 105.655 C 400.213 96.869,398.031 87.505,394.084 79.360 C 389.543 69.987,379.016 59.128,369.920 54.432 C 357.245 47.890,364.716 48.317,259.840 48.142 C 208.213 48.056,163.669 48.270,160.853 48.618 M354.133 82.227 C 358.340 84.463,363.350 89.427,365.452 93.440 C 366.734 95.890,367.346 98.962,367.617 104.320 L 367.995 111.787 256.000 111.787 L 144.005 111.787 144.380 104.320 C 144.801 95.950,146.064 92.724,150.921 87.610 C 154.053 84.312,157.342 82.213,161.274 81.003 C 162.451 80.641,205.653 80.411,257.280 80.493 C 346.998 80.633,351.279 80.710,354.133 82.227 M418.560 146.488 C 422.608 148.679,427.561 153.706,429.773 157.867 C 431.285 160.713,431.371 164.895,431.589 246.928 L 431.819 333.004 429.788 337.439 C 427.700 342.000,422.765 347.477,418.969 349.446 C 416.351 350.804,407.913 352.427,403.470 352.427 L 400.213 352.427 400.201 306.560 C 400.187 257.121,399.995 254.591,395.600 245.919 C 391.034 236.907,381.729 229.079,371.976 226.043 C 366.990 224.492,362.329 224.427,256.000 224.427 C 149.671 224.427,145.010 224.492,140.024 226.043 C 130.271 229.079,120.966 236.907,116.400 245.919 C 112.005 254.591,111.813 257.121,111.799 306.560 L 111.787 352.427 108.530 352.427 C 104.087 352.427,95.649 350.804,93.031 349.446 C 89.235 347.477,84.300 342.000,82.212 337.439 L 80.181 333.004 80.411 246.928 C 80.629 164.895,80.715 160.713,82.227 157.867 C 85.370 151.954,91.390 146.809,97.274 145.006 C 98.451 144.646,170.453 144.416,257.280 144.495 L 415.147 144.640 418.560 146.488 M381.867 162.434 C 377.061 164.677,371.938 169.894,369.821 174.701 C 367.705 179.506,367.811 188.923,370.036 193.707 C 374.173 202.602,382.383 207.798,392.107 207.673 C 399.219 207.582,403.188 206.026,408.281 201.332 C 420.457 190.108,417.498 170.057,402.568 162.617 C 396.586 159.637,388.024 159.561,381.867 162.434 M362.936 256.953 C 363.961 257.477,365.463 258.725,366.274 259.727 C 367.648 261.423,367.750 267.174,367.768 344.172 L 367.787 426.798 365.292 429.292 L 362.798 431.787 256.000 431.787 L 149.202 431.787 146.708 429.292 L 144.213 426.798 144.232 344.172 C 144.250 267.170,144.352 261.424,145.726 259.738 C 146.537 258.743,147.968 257.507,148.907 256.990 C 151.350 255.647,360.311 255.611,362.936 256.953 " stroke="none" fill-rule="evenodd" fill="black"></path></svg>