<svg id="icons" xmlns="http://www.w3.org/2000/svg" viewBox="0 0 512 512"><path d="M136.107 183.643 C 70.400 275.682,16.533 351.248,16.402 351.567 C 16.271 351.886,70.127 384.522,136.082 424.092 L 256.000 496.037 375.918 424.092 C 441.873 384.522,495.729 351.886,495.598 351.567 C 495.067 350.272,256.395 16.298,256.000 16.298 C 255.765 16.298,201.813 91.603,136.107 183.643 M235.311 356.266 L 235.093 436.906 155.307 389.051 C 111.424 362.731,75.177 340.864,74.757 340.459 C 74.316 340.033,108.033 292.064,154.543 226.946 L 235.093 114.172 235.311 194.899 C 235.431 239.299,235.431 311.915,235.311 356.266 " stroke="none" fill-rule="evenodd" fill="black"></path></svg>