<svg id="icons" xmlns="http://www.w3.org/2000/svg" viewBox="0 0 512 512"><path d="M244.053 17.561 C 236.045 19.668,228.686 23.914,222.725 29.867 C 218.431 34.156,195.070 67.935,119.689 178.856 C 66.073 257.750,21.374 324.180,20.357 326.478 C 17.448 333.055,16.234 338.679,16.223 345.634 C 16.200 360.552,22.942 374.472,34.342 383.042 C 39.718 387.084,231.837 490.029,239.787 493.128 C 244.668 495.030,246.613 495.290,256.000 495.290 C 265.394 495.290,267.329 495.031,272.213 493.124 C 280.191 490.010,472.298 387.076,477.658 383.044 C 494.690 370.233,500.537 346.585,491.644 326.481 C 490.627 324.183,445.928 257.753,392.311 178.858 C 316.961 67.983,293.566 34.154,289.274 29.867 C 283.192 23.793,275.871 19.627,267.554 17.509 C 261.242 15.901,250.268 15.925,244.053 17.561 M238.136 68.297 C 239.760 69.166,239.787 72.200,239.787 258.656 L 239.787 448.131 237.292 450.626 C 234.185 453.733,231.668 453.788,225.892 450.874 C 215.818 445.793,58.204 361.461,55.270 359.583 C 49.925 356.160,47.003 348.265,48.721 341.885 C 49.333 339.614,81.472 291.583,141.003 203.974 C 191.242 130.039,232.942 69.067,233.669 68.480 C 235.278 67.183,236.001 67.154,238.136 68.297 " stroke="none" fill-rule="evenodd" fill="black"></path></svg>