<svg id="icons" xmlns="http://www.w3.org/2000/svg" viewBox="0 0 512 512"><path d="M246.053 17.046 C 237.059 18.968,225.334 25.962,219.815 32.698 C 214.275 39.458,23.648 319.498,20.804 325.054 C 17.358 331.785,16.213 336.875,16.213 345.463 C 16.213 362.232,24.749 377.889,38.355 386.080 C 48.322 392.080,236.181 491.845,240.640 493.506 C 244.413 494.912,247.424 495.263,256.000 495.300 C 266.325 495.344,266.891 495.250,273.681 492.366 C 277.539 490.727,324.574 465.963,378.203 437.333 C 474.613 385.866,475.778 385.213,481.774 379.307 C 496.093 365.202,500.075 342.690,491.348 325.179 C 489.020 320.507,297.330 38.971,292.434 33.033 C 288.039 27.702,280.097 22.150,272.668 19.214 C 267.891 17.326,265.038 16.807,258.161 16.576 C 253.452 16.417,248.004 16.629,246.053 17.046 M239.577 357.877 L 239.360 457.331 147.200 408.202 C 96.512 381.181,54.140 358.250,53.039 357.243 C 49.835 354.313,48.365 350.646,48.360 345.574 C 48.357 342.402,48.885 340.023,49.968 338.320 C 50.856 336.927,93.832 273.771,145.471 197.975 L 239.360 60.163 239.577 159.293 C 239.696 213.815,239.696 303.177,239.577 357.877 M366.595 197.973 C 417.638 272.832,460.366 335.785,461.545 337.870 C 465.371 344.635,463.756 353.536,457.907 357.929 C 456.039 359.331,306.188 439.655,273.707 456.665 C 272.286 457.408,272.213 447.719,272.213 258.846 C 272.213 137.484,272.520 60.561,273.001 61.056 C 273.434 61.502,315.551 123.115,366.595 197.973 " fill="black" stroke="none" fill-rule="evenodd"></path></svg>