<svg xmlns="http://www.w3.org/2000/svg" width="512" height="512" viewBox="0 0 512 512"><path d="M172.368 48.584 C 168.318 49.816,164.824 52.033,163.086 54.474 C 161.890 56.154,151.691 95.534,130.499 180.301 L 99.653 303.683 71.373 303.948 L 43.093 304.213 39.484 306.560 C 29.758 312.883,29.975 327.631,39.886 333.792 C 43.091 335.785,43.115 335.787,78.080 336.053 C 101.569 336.232,114.106 336.014,116.228 335.390 C 120.007 334.280,124.184 330.934,125.875 327.663 C 126.550 326.358,137.357 284.273,149.890 234.142 C 162.424 184.011,172.793 143.364,172.933 143.817 C 173.073 144.270,184.722 213.881,198.818 298.508 C 217.831 412.651,224.890 453.243,226.161 455.734 C 228.122 459.578,232.839 462.992,237.304 463.799 C 243.420 464.904,251.023 461.179,253.864 455.685 C 254.533 454.392,266.258 414.218,279.921 366.411 C 293.583 318.603,304.886 279.363,305.039 279.210 C 305.191 279.058,308.673 289.037,312.776 301.387 C 316.880 313.736,320.935 325.232,321.788 326.933 C 323.766 330.879,327.712 334.198,331.760 335.322 C 333.619 335.839,345.620 336.206,360.735 336.209 L 386.537 336.213 387.829 339.306 C 388.540 341.007,390.860 344.834,392.984 347.811 C 409.688 371.220,443.135 374.791,464.079 355.401 C 470.784 349.193,475.080 342.605,477.648 334.590 C 486.059 308.340,469.952 279.722,443.219 273.419 C 435.100 271.505,423.113 272.180,415.448 274.983 C 404.379 279.031,393.892 288.522,388.570 299.307 L 386.360 303.787 366.904 303.787 L 347.449 303.787 333.205 260.907 C 325.372 237.323,318.069 216.633,316.977 214.930 C 313.243 209.103,303.717 206.484,297.558 209.591 C 292.466 212.159,290.187 215.103,288.081 221.831 C 286.973 225.371,276.718 261.030,265.292 301.074 C 251.778 348.432,244.301 373.338,243.900 372.327 C 243.560 371.473,231.707 301.077,217.559 215.893 C 201.887 121.540,191.245 59.679,190.326 57.600 C 188.402 53.244,185.655 50.742,180.988 49.096 C 176.956 47.673,175.624 47.594,172.368 48.584 M439.467 305.940 C 442.484 307.493,445.142 310.546,446.679 314.224 C 451.247 325.157,441.460 337.705,429.819 335.844 C 418.626 334.054,412.823 321.605,418.593 311.760 C 422.711 304.734,432.059 302.127,439.467 305.940 " stroke="none" fill="black" fill-rule="evenodd"></path></svg>