<svg xmlns="http://www.w3.org/2000/svg" width="512" height="512" viewBox="0 0 512 512"><path d="M172.291 48.727 C 170.133 49.050,167.253 49.894,165.891 50.602 C 162.007 52.621,157.192 57.922,155.747 61.769 C 155.022 63.700,141.050 117.504,124.698 181.333 L 94.967 297.387 63.484 297.813 L 32.000 298.240 32.000 320.000 L 32.000 341.760 72.926 341.982 C 119.245 342.233,119.740 342.179,126.530 336.202 C 129.226 333.829,130.970 331.349,132.090 328.292 C 132.988 325.844,142.129 290.144,152.403 248.960 C 162.677 207.776,171.289 174.080,171.540 174.080 C 171.791 174.080,182.285 234.656,194.861 308.693 C 207.436 382.731,218.263 445.251,218.920 447.628 C 221.305 456.250,228.403 462.475,237.358 463.796 C 245.992 465.071,256.665 459.100,259.812 451.235 C 260.608 449.245,271.021 414.775,282.952 374.635 C 294.883 334.495,304.880 301.077,305.167 300.373 C 305.463 299.648,307.806 305.378,310.577 313.600 C 316.448 331.025,317.224 332.605,321.860 336.574 C 327.755 341.619,331.106 342.183,355.355 342.212 L 376.747 342.237 379.733 347.539 C 384.249 355.555,392.833 363.602,401.280 367.737 C 410.390 372.196,416.776 373.763,425.779 373.747 C 441.118 373.721,452.981 368.814,463.848 358.000 C 474.607 347.294,479.821 334.890,479.821 320.000 C 479.821 297.990,466.742 278.696,445.844 269.874 C 436.014 265.725,420.524 265.222,409.600 268.697 C 397.551 272.530,385.648 282.007,379.733 292.476 L 376.747 297.763 364.231 297.788 L 351.715 297.813 337.855 256.213 C 330.231 233.333,323.064 213.204,321.929 211.482 C 316.410 203.112,304.234 199.863,294.820 204.246 C 290.345 206.330,285.520 211.096,284.011 214.921 C 283.522 216.160,274.756 246.357,264.531 282.027 C 254.306 317.696,245.723 346.304,245.457 345.600 C 245.191 344.896,234.382 281.920,221.437 205.653 C 208.492 129.387,197.346 65.302,196.669 63.243 C 193.346 53.144,183.188 47.096,172.291 48.727 " stroke="none" fill-rule="evenodd" fill="black"></path></svg>