<svg xmlns="http://www.w3.org/2000/svg" width="512" height="512" viewBox="0 0 512 512"><path d="M171.314 48.981 C 166.379 50.773,164.003 52.649,162.273 56.119 C 161.398 57.872,146.952 114.291,130.169 181.494 L 99.654 303.682 71.800 303.948 L 43.947 304.213 40.097 306.476 C 32.249 311.091,29.890 320.578,34.675 328.282 C 36.160 330.674,38.460 332.919,40.533 334.003 C 43.807 335.713,45.358 335.797,78.312 336.028 C 100.581 336.184,113.859 335.951,116.033 335.365 C 119.946 334.312,124.131 331.037,125.875 327.663 C 126.550 326.358,137.357 284.273,149.890 234.142 C 162.424 184.011,172.793 143.364,172.933 143.817 C 173.073 144.270,184.722 213.881,198.818 298.508 C 217.513 410.741,224.902 453.266,226.125 455.663 C 229.278 461.844,237.083 465.279,243.801 463.443 C 247.921 462.316,252.101 459.094,253.864 455.685 C 254.533 454.392,266.258 414.218,279.921 366.411 C 293.583 318.603,304.886 279.363,305.039 279.210 C 305.191 279.058,308.673 289.037,312.776 301.387 C 316.880 313.736,320.935 325.232,321.788 326.933 C 323.766 330.879,327.712 334.198,331.760 335.322 C 333.618 335.839,345.609 336.206,360.700 336.209 L 386.467 336.213 389.503 341.973 C 393.603 349.752,398.279 354.997,405.144 359.518 C 413.172 364.804,419.659 367.036,428.558 367.572 C 442.541 368.415,454.681 364.178,464.433 355.051 C 480.609 339.913,484.421 317.565,474.262 297.431 C 468.751 286.510,456.189 276.792,443.341 273.512 C 422.777 268.262,399.643 278.652,389.710 297.600 L 386.467 303.787 366.958 303.787 L 347.449 303.787 333.205 260.907 C 325.372 237.323,318.069 216.633,316.977 214.930 C 313.243 209.103,303.717 206.484,297.558 209.591 C 292.466 212.159,290.187 215.103,288.081 221.831 C 286.973 225.371,276.718 261.030,265.292 301.074 C 251.778 348.432,244.301 373.338,243.900 372.327 C 243.560 371.473,231.702 301.077,217.548 215.893 C 203.394 130.709,191.261 59.675,190.586 58.038 C 187.398 50.312,178.791 46.267,171.314 48.981 " stroke="none" fill-rule="evenodd" fill="black"></path></svg>