<svg xmlns="http://www.w3.org/2000/svg" width="512" height="512" viewBox="0 0 512 512"><path d="M85.588 34.099 C 79.785 37.637,80.213 25.032,80.217 192.171 C 80.220 340.723,80.250 343.516,81.885 346.199 C 82.802 347.701,84.816 349.621,86.362 350.465 C 88.999 351.905,93.849 352.014,164.475 352.231 L 239.776 352.463 239.995 416.231 L 240.213 480.000 256.000 480.000 L 271.787 480.000 272.005 416.231 L 272.224 352.463 347.525 352.231 C 418.151 352.014,423.001 351.905,425.638 350.465 C 427.184 349.621,429.198 347.701,430.115 346.199 C 431.750 343.516,431.780 340.723,431.783 192.171 C 431.787 25.032,432.215 37.637,426.412 34.099 C 423.727 32.462,420.805 32.433,256.000 32.433 C 91.195 32.433,88.273 32.462,85.588 34.099 M307.406 195.193 L 358.391 246.173 347.097 257.490 L 335.803 268.808 304.008 237.021 L 272.213 205.235 272.213 278.831 L 272.213 352.427 256.000 352.427 L 239.787 352.427 239.787 278.831 L 239.787 205.235 207.996 237.018 L 176.205 268.800 164.902 257.497 L 153.599 246.193 204.583 195.203 C 232.625 167.159,255.760 144.213,255.995 144.213 C 256.229 144.213,279.365 167.154,307.406 195.193 " stroke="none" fill-rule="evenodd" fill="black"></path></svg>