<svg xmlns="http://www.w3.org/2000/svg" width="512" height="512" viewBox="0 0 512 512"><path d="M121.840 33.752 C 111.341 36.297,98.744 44.645,91.835 53.634 C 86.862 60.104,83.850 66.266,81.864 74.032 C 80.273 80.252,80.213 84.537,80.213 192.000 C 80.213 299.463,80.273 303.748,81.864 309.968 C 86.815 329.327,102.037 344.775,121.600 350.293 C 128.377 352.205,171.013 353.184,178.629 351.603 C 187.403 349.782,192.752 342.619,191.779 333.993 C 191.281 329.575,189.568 326.875,184.828 323.036 L 181.606 320.427 155.443 320.000 C 130.346 319.591,129.133 319.495,125.676 317.648 C 120.785 315.034,116.208 310.289,114.025 305.570 L 112.213 301.653 112.213 192.000 L 112.213 82.347 114.025 78.430 C 116.208 73.711,120.785 68.966,125.676 66.352 L 129.280 64.427 256.000 64.427 L 382.720 64.427 386.324 66.352 C 391.215 68.966,395.792 73.711,397.975 78.430 L 399.787 82.347 399.787 192.000 L 399.787 301.653 397.975 305.570 C 395.792 310.289,391.215 315.034,386.324 317.648 C 382.868 319.494,381.648 319.591,356.693 320.000 C 330.821 320.424,330.648 320.439,327.581 322.515 C 320.928 327.018,318.457 334.486,321.223 341.730 C 323.247 347.030,327.332 350.350,333.371 351.603 C 340.987 353.184,383.623 352.205,390.400 350.293 C 409.867 344.801,425.196 329.285,430.101 310.105 C 431.737 303.706,431.787 300.258,431.787 192.000 C 431.787 84.537,431.727 80.252,430.136 74.032 C 426.145 58.426,415.275 45.111,400.435 37.648 C 389.553 32.176,397.170 32.446,255.573 32.510 C 148.799 32.559,125.884 32.772,121.840 33.752 M249.173 145.571 C 245.991 146.947,167.250 224.883,163.309 230.557 C 160.241 234.975,159.487 239.081,160.808 244.174 C 162.096 249.138,164.680 252.215,169.387 254.387 C 173.575 256.320,178.236 256.426,182.409 254.682 C 184.491 253.812,194.779 244.179,212.665 226.349 L 239.766 199.334 239.990 334.120 L 240.213 468.907 242.208 472.114 C 248.440 482.138,263.560 482.138,269.792 472.114 L 271.787 468.907 272.010 334.120 L 272.234 199.334 299.335 226.349 C 317.221 244.179,327.509 253.812,329.591 254.682 C 333.764 256.426,338.425 256.320,342.613 254.387 C 347.320 252.215,349.904 249.138,351.192 244.174 C 352.513 239.081,351.759 234.975,348.691 230.557 C 347.490 228.828,328.351 209.289,306.160 187.136 C 278.621 159.645,264.806 146.439,262.641 145.536 C 258.661 143.877,253.059 143.891,249.173 145.571 " stroke="none" fill-rule="evenodd" fill="black"></path></svg>