<svg xmlns="http://www.w3.org/2000/svg" width="512" height="512" viewBox="0 0 512 512"><path d="M121.345 34.145 C 101.843 39.276,86.175 55.462,81.495 75.313 C 79.611 83.302,79.611 300.698,81.495 308.687 C 86.152 328.439,100.971 343.857,121.179 349.975 C 127.496 351.887,128.251 351.914,183.663 352.219 L 239.752 352.527 239.983 410.290 C 240.209 467.001,240.246 468.116,241.997 471.467 C 247.683 482.347,264.317 482.347,270.003 471.467 C 271.754 468.116,271.791 467.001,272.017 410.290 L 272.248 352.527 328.337 352.219 C 383.749 351.914,384.504 351.887,390.821 349.975 C 407.148 345.032,420.095 334.013,426.810 319.343 C 432.056 307.884,431.839 313.764,431.589 189.668 L 431.360 76.373 429.074 70.114 C 425.854 61.301,422.000 55.218,415.514 48.715 C 409.175 42.359,401.537 37.539,393.387 34.751 L 387.840 32.853 257.707 32.680 C 131.810 32.513,127.371 32.560,121.345 34.145 M262.641 145.536 C 264.806 146.439,278.621 159.645,306.160 187.136 C 328.351 209.289,347.521 228.873,348.761 230.658 C 351.876 235.144,352.390 241.667,349.997 246.357 C 345.602 254.973,336.715 257.942,328.107 253.671 C 326.699 252.972,313.547 240.451,298.880 225.845 L 272.213 199.290 272.213 275.858 L 272.213 352.427 256.000 352.427 L 239.787 352.427 239.787 275.858 L 239.787 199.290 213.120 225.845 C 198.453 240.451,185.301 252.972,183.893 253.671 C 175.285 257.942,166.398 254.973,162.003 246.357 C 159.610 241.667,160.124 235.144,163.239 230.658 C 167.228 224.914,245.957 146.962,249.173 145.571 C 253.059 143.891,258.661 143.877,262.641 145.536 " stroke="none" fill-rule="evenodd" fill="black"></path></svg>