<svg xmlns="http://www.w3.org/2000/svg" width="512" height="512" viewBox="0 0 512 512"><path d="M31.573 136.107 L 31.573 239.787 135.680 239.787 L 239.787 239.787 239.787 136.107 L 239.787 32.427 135.680 32.427 L 31.573 32.427 31.573 136.107 M272.213 136.107 L 272.213 239.787 376.320 239.787 L 480.427 239.787 480.427 136.107 L 480.427 32.427 376.320 32.427 L 272.213 32.427 272.213 136.107 M196.267 136.107 L 196.267 196.267 136.107 196.267 L 75.947 196.267 75.947 136.107 L 75.947 75.947 136.107 75.947 L 196.267 75.947 196.267 136.107 M436.053 136.107 L 436.053 196.267 375.893 196.267 L 315.733 196.267 315.733 136.107 L 315.733 75.947 375.893 75.947 L 436.053 75.947 436.053 136.107 M95.573 136.107 L 95.573 175.787 135.680 175.787 L 175.787 175.787 175.787 136.107 L 175.787 96.427 135.680 96.427 L 95.573 96.427 95.573 136.107 M336.213 136.107 L 336.213 175.787 376.320 175.787 L 416.427 175.787 416.427 136.107 L 416.427 96.427 376.320 96.427 L 336.213 96.427 336.213 136.107 M31.783 376.107 L 32.000 480.000 135.893 480.217 L 239.787 480.433 239.787 376.323 L 239.787 272.213 135.677 272.213 L 31.567 272.213 31.783 376.107 M272.213 304.213 L 272.213 336.213 304.213 336.213 L 336.213 336.213 336.213 376.328 L 336.213 416.444 376.107 416.222 L 416.000 416.000 416.222 376.107 L 416.444 336.213 376.328 336.213 L 336.213 336.213 336.213 304.213 L 336.213 272.213 304.213 272.213 L 272.213 272.213 272.213 304.213 M431.787 296.107 L 431.787 320.000 456.107 320.000 L 480.427 320.000 480.427 296.107 L 480.427 272.213 456.107 272.213 L 431.787 272.213 431.787 296.107 M196.267 375.893 L 196.267 436.053 136.107 436.053 L 75.947 436.053 75.947 375.893 L 75.947 315.733 136.107 315.733 L 196.267 315.733 196.267 375.893 M95.778 376.107 L 96.000 416.000 135.893 416.222 L 175.787 416.444 175.787 376.328 L 175.787 336.213 135.672 336.213 L 95.556 336.213 95.778 376.107 M415.776 448.213 L 416.000 480.000 448.000 480.000 L 480.000 480.000 480.224 448.213 L 480.447 416.427 448.000 416.427 L 415.553 416.427 415.776 448.213 M272.213 456.107 L 272.213 480.427 296.107 480.427 L 320.000 480.427 320.000 456.107 L 320.000 431.787 296.107 431.787 L 272.213 431.787 272.213 456.107 " stroke="none" fill-rule="evenodd" fill="black"></path></svg>