<svg xmlns="http://www.w3.org/2000/svg" width="512" height="512" viewBox="0 0 512 512"><path d="M53.193 33.996 C 44.908 36.876,37.500 44.185,33.855 53.074 C 32.005 57.587,31.999 57.822,31.756 132.815 C 31.490 214.764,31.545 215.866,36.253 223.900 C 39.276 229.059,45.220 234.356,51.051 237.090 L 55.893 239.360 136.125 239.360 L 216.356 239.360 221.989 236.587 C 228.668 233.299,233.911 227.943,237.090 221.163 L 239.360 216.320 239.360 136.107 L 239.360 55.893 237.090 51.051 C 234.056 44.579,228.989 39.261,222.508 35.747 L 217.173 32.853 137.387 32.659 C 62.549 32.477,57.327 32.560,53.193 33.996 M294.267 33.616 C 285.565 36.724,278.742 42.880,274.889 51.098 L 272.640 55.893 272.640 136.107 L 272.640 216.320 274.910 221.163 C 278.089 227.943,283.332 233.299,290.011 236.587 L 295.644 239.360 375.875 239.360 L 456.107 239.360 460.949 237.090 C 466.780 234.356,472.724 229.059,475.747 223.900 C 480.455 215.866,480.510 214.764,480.244 132.815 C 480.001 57.822,479.995 57.587,478.145 53.074 C 474.498 44.179,467.080 36.865,458.807 34.005 C 454.701 32.586,449.041 32.483,375.893 32.492 C 313.477 32.500,296.747 32.730,294.267 33.616 M173.692 98.521 L 175.787 100.616 175.787 135.576 L 175.787 170.536 173.577 173.161 L 171.368 175.787 135.992 175.787 L 100.616 175.787 98.521 173.692 L 96.427 171.598 96.427 136.107 L 96.427 100.616 98.521 98.521 L 100.616 96.427 136.107 96.427 L 171.598 96.427 173.692 98.521 M413.479 98.521 L 415.573 100.616 415.573 136.107 L 415.573 171.598 413.479 173.692 L 411.384 175.787 376.008 175.787 L 340.632 175.787 338.423 173.161 L 336.213 170.536 336.213 135.576 L 336.213 100.616 338.308 98.521 L 340.402 96.427 375.893 96.427 L 411.384 96.427 413.479 98.521 M54.857 273.442 C 42.951 277.193,34.552 286.887,32.472 299.280 C 31.784 303.382,31.574 326.808,31.751 379.733 C 31.999 454.157,32.006 454.415,33.855 458.926 C 37.438 467.665,44.335 474.562,53.074 478.145 C 57.587 479.995,57.822 480.001,132.815 480.244 C 214.764 480.510,215.866 480.455,223.900 475.747 C 229.059 472.724,234.356 466.780,237.090 460.949 L 239.360 456.107 239.360 375.875 L 239.360 295.644 236.555 289.947 C 233.303 283.341,227.974 278.171,221.013 274.867 L 216.320 272.640 137.387 272.475 C 73.802 272.342,57.754 272.530,54.857 273.442 M274.839 274.423 L 272.213 276.632 272.213 303.815 L 272.213 330.998 274.273 333.392 L 276.332 335.787 303.693 335.787 L 331.055 335.787 333.421 333.421 L 335.787 331.055 335.787 303.693 L 335.787 276.332 333.392 274.273 L 330.998 272.213 304.231 272.213 L 277.464 272.213 274.839 274.423 M434.608 274.271 L 432.213 276.329 431.953 294.703 C 431.669 314.835,432.174 317.509,436.576 319.183 C 437.758 319.632,446.757 320.000,456.575 320.000 L 474.426 320.000 477.213 317.512 L 480.000 315.023 480.282 298.596 C 480.602 279.920,480.271 277.100,477.422 274.251 C 475.395 272.224,475.286 272.213,456.193 272.213 C 437.141 272.213,436.984 272.228,434.608 274.271 M173.292 338.708 L 175.787 341.202 175.787 375.884 C 175.787 399.095,175.482 411.135,174.865 412.288 C 172.799 416.148,170.192 416.427,136.107 416.427 C 102.021 416.427,99.414 416.148,97.349 412.288 C 96.731 411.134,96.427 398.982,96.427 375.484 L 96.427 340.402 98.521 338.308 L 100.616 336.213 135.707 336.213 L 170.798 336.213 173.292 338.708 M338.839 338.423 L 336.213 340.632 336.213 375.599 C 336.213 399.015,336.518 411.135,337.135 412.288 C 339.201 416.148,341.808 416.427,375.893 416.427 C 402.106 416.427,408.493 416.199,410.938 415.177 C 416.284 412.944,416.427 411.926,416.427 375.893 C 416.427 341.808,416.148 339.201,412.288 337.135 C 411.136 336.518,399.133 336.213,376.015 336.213 L 341.464 336.213 338.839 338.423 M419.547 417.393 C 416.008 419.450,415.573 422.797,415.573 448.000 C 415.573 467.095,415.826 472.554,416.823 474.938 C 418.979 480.098,420.844 480.427,448.000 480.427 C 475.156 480.427,477.021 480.098,479.177 474.938 C 480.174 472.554,480.427 467.095,480.427 448.000 C 480.427 422.560,479.991 419.330,476.288 417.349 C 473.930 416.087,421.724 416.127,419.547 417.393 M276.288 433.117 C 275.009 433.811,273.569 435.114,273.088 436.013 C 272.566 436.988,272.213 445.261,272.213 456.516 C 272.213 482.016,270.817 480.758,298.596 480.282 L 315.023 480.000 317.512 477.213 L 320.000 474.426 320.000 456.575 C 320.000 446.757,319.618 437.721,319.152 436.494 C 317.621 432.467,314.157 431.783,295.494 431.821 C 282.264 431.848,278.110 432.128,276.288 433.117 " stroke="none" fill-rule="evenodd" fill="black"></path></svg>