<svg xmlns="http://www.w3.org/2000/svg" width="512" height="512" viewBox="0 0 512 512"><path d="M53.666 33.672 C 42.161 37.940,34.128 47.858,32.378 59.954 C 31.283 67.523,31.362 205.518,32.465 212.480 C 34.195 223.401,40.950 232.356,51.014 237.073 L 55.893 239.360 136.107 239.360 L 216.320 239.360 221.215 237.066 C 227.468 234.135,234.135 227.468,237.066 221.215 L 239.360 216.320 239.360 136.089 L 239.360 55.858 236.561 50.171 C 233.423 43.798,227.969 38.347,221.365 34.987 L 217.173 32.853 136.960 32.691 C 71.733 32.559,56.171 32.743,53.666 33.672 M294.480 33.407 C 290.306 34.619,283.351 39.279,279.980 43.122 C 278.384 44.941,276.080 48.558,274.860 51.161 L 272.640 55.893 272.640 136.107 L 272.640 216.320 274.934 221.215 C 277.865 227.468,284.532 234.135,290.785 237.066 L 295.680 239.360 375.911 239.360 L 456.142 239.360 461.829 236.561 C 471.566 231.767,477.794 223.292,479.526 212.480 C 480.638 205.536,480.725 67.578,479.622 59.954 C 478.057 49.136,471.686 40.315,461.831 35.321 L 456.960 32.853 377.173 32.708 C 326.654 32.616,296.321 32.873,294.480 33.407 M208.213 136.107 L 208.213 208.213 136.107 208.213 L 64.000 208.213 64.000 136.107 L 64.000 64.000 136.107 64.000 L 208.213 64.000 208.213 136.107 M448.000 136.107 L 448.000 208.213 375.893 208.213 L 303.787 208.213 303.787 136.107 L 303.787 64.000 375.893 64.000 L 448.000 64.000 448.000 136.107 M99.547 97.393 C 95.856 99.538,95.573 102.294,95.573 136.107 C 95.573 170.192,95.852 172.799,99.712 174.865 C 100.865 175.482,112.962 175.787,136.318 175.787 L 171.201 175.787 173.494 173.393 L 175.787 171.000 175.787 135.808 L 175.787 100.616 173.692 98.521 L 171.598 96.427 136.359 96.453 C 112.888 96.470,100.595 96.784,99.547 97.393 M338.308 98.521 L 336.213 100.616 336.213 135.808 L 336.213 171.000 338.506 173.393 L 340.799 175.787 375.682 175.787 C 399.038 175.787,411.135 175.482,412.288 174.865 C 416.148 172.799,416.427 170.192,416.427 136.107 C 416.427 102.021,416.148 99.414,412.288 97.349 C 411.134 96.731,398.982 96.427,375.484 96.427 L 340.402 96.427 338.308 98.521 M54.857 273.442 C 46.546 276.060,38.824 282.617,35.201 290.133 C 31.680 297.437,31.490 302.383,31.751 380.179 L 32.000 454.400 34.234 459.701 C 37.807 468.177,43.823 474.193,52.299 477.766 L 57.600 480.000 131.821 480.249 C 209.167 480.508,214.591 480.307,221.637 476.911 C 227.595 474.038,233.475 468.096,236.561 461.829 L 239.360 456.142 239.360 375.911 L 239.360 295.680 237.066 290.785 C 234.135 284.532,227.468 277.865,221.215 274.934 L 216.320 272.640 137.387 272.475 C 73.802 272.342,57.754 272.530,54.857 273.442 M274.839 274.423 L 272.213 276.632 272.213 303.815 L 272.213 330.998 274.273 333.392 L 276.332 335.787 303.693 335.787 L 331.055 335.787 333.421 333.421 L 335.787 331.055 335.787 303.693 L 335.787 276.332 333.392 274.273 L 330.998 272.213 304.231 272.213 L 277.464 272.213 274.839 274.423 M434.608 274.271 L 432.213 276.329 431.953 294.703 C 431.669 314.835,432.174 317.509,436.576 319.183 C 437.758 319.632,446.757 320.000,456.575 320.000 L 474.426 320.000 477.213 317.512 L 480.000 315.023 480.282 298.596 C 480.602 279.920,480.271 277.100,477.422 274.251 C 475.395 272.224,475.286 272.213,456.193 272.213 C 437.141 272.213,436.984 272.228,434.608 274.271 M208.213 375.893 L 208.213 448.000 136.107 448.000 L 64.000 448.000 64.000 375.893 L 64.000 303.787 136.107 303.787 L 208.213 303.787 208.213 375.893 M99.547 337.180 C 95.856 339.325,95.573 342.081,95.573 375.893 C 95.573 411.926,95.716 412.944,101.062 415.177 C 103.507 416.199,109.894 416.427,136.107 416.427 C 170.192 416.427,172.799 416.148,174.865 412.288 C 175.482 411.135,175.787 399.015,175.787 375.599 L 175.787 340.632 173.161 338.423 L 170.536 336.213 135.828 336.239 C 112.734 336.257,100.594 336.571,99.547 337.180 M338.839 338.423 L 336.213 340.632 336.213 375.599 C 336.213 399.015,336.518 411.135,337.135 412.288 C 339.201 416.148,341.808 416.427,375.893 416.427 C 402.106 416.427,408.493 416.199,410.938 415.177 C 416.284 412.944,416.427 411.926,416.427 375.893 C 416.427 341.808,416.148 339.201,412.288 337.135 C 411.136 336.518,399.133 336.213,376.015 336.213 L 341.464 336.213 338.839 338.423 M419.547 417.393 C 416.008 419.450,415.573 422.797,415.573 448.000 C 415.573 467.095,415.826 472.554,416.823 474.938 C 418.979 480.098,420.844 480.427,448.000 480.427 C 475.156 480.427,477.021 480.098,479.177 474.938 C 480.174 472.554,480.427 467.095,480.427 448.000 C 480.427 422.560,479.991 419.330,476.288 417.349 C 473.930 416.087,421.724 416.127,419.547 417.393 M276.288 433.117 C 275.009 433.811,273.569 435.114,273.088 436.013 C 272.566 436.988,272.213 445.261,272.213 456.516 C 272.213 482.016,270.817 480.758,298.596 480.282 L 315.023 480.000 317.512 477.213 L 320.000 474.426 320.000 456.575 C 320.000 446.757,319.618 437.721,319.152 436.494 C 317.621 432.467,314.157 431.783,295.494 431.821 C 282.264 431.848,278.110 432.128,276.288 433.117 " stroke="none" fill="black" fill-rule="evenodd"></path></svg>