<svg xmlns="http://www.w3.org/2000/svg" width="512" height="512" viewBox="0 0 512 512"><path d="M70.105 81.659 C 64.851 84.248,50.487 101.996,38.982 120.117 C 32.157 130.866,21.054 153.165,16.787 164.693 C 9.765 183.666,4.199 206.107,1.549 226.133 C 0.142 236.761,0.142 275.239,1.549 285.867 C 6.423 322.695,18.151 356.943,36.314 387.384 C 47.717 406.495,64.981 428.298,70.557 430.627 C 80.378 434.731,91.794 427.968,92.804 417.448 C 93.346 411.814,91.901 408.945,83.264 398.507 C 58.000 367.973,41.988 332.552,34.813 291.330 C 33.130 281.656,32.897 277.369,32.897 256.000 C 32.897 234.637,33.131 230.331,34.817 220.587 C 41.977 179.209,58.047 143.911,83.956 112.652 C 91.889 103.080,93.339 100.115,92.804 94.552 C 91.772 83.813,79.677 76.943,70.105 81.659 M427.664 82.044 C 420.739 85.472,417.146 94.703,420.064 101.571 C 420.756 103.200,424.615 108.516,428.639 113.383 C 454.520 144.691,471.202 182.218,477.620 223.573 C 479.783 237.516,479.783 274.484,477.620 288.427 C 471.321 329.012,455.088 366.027,430.158 396.651 C 420.631 408.354,419.634 409.992,419.183 414.681 C 418.647 420.257,421.340 425.941,425.968 429.004 C 430.130 431.758,436.914 432.520,441.227 430.717 C 447.014 428.300,464.075 406.844,475.686 387.384 C 494.083 356.549,505.897 321.771,510.460 285.013 C 511.905 273.375,511.905 238.625,510.460 226.987 C 505.897 190.229,494.083 155.451,475.686 124.616 C 464.357 105.628,447.576 84.386,441.702 81.599 C 437.666 79.684,432.074 79.861,427.664 82.044 M126.494 126.804 C 123.196 128.487,116.303 135.767,109.366 144.894 C 82.937 179.670,69.067 226.125,72.434 268.587 C 75.412 306.141,88.544 340.284,111.158 369.270 C 118.593 378.800,124.237 384.438,127.635 385.730 C 136.814 389.220,148.007 382.376,149.109 372.601 C 149.735 367.042,148.233 363.690,141.588 355.823 C 128.279 340.066,118.108 322.354,112.259 304.751 C 95.058 252.980,105.805 198.543,141.588 156.177 C 144.881 152.279,148.015 147.755,148.554 146.123 C 150.701 139.618,147.944 132.138,141.864 127.972 C 138.040 125.351,130.469 124.776,126.494 126.804 M372.480 126.635 C 366.867 129.109,362.667 135.354,362.667 141.227 C 362.667 145.802,364.405 149.126,370.632 156.453 C 383.557 171.662,393.932 189.767,399.741 207.249 C 416.942 259.020,406.195 313.457,370.412 355.823 C 363.767 363.690,362.265 367.042,362.891 372.601 C 363.993 382.376,375.186 389.220,384.365 385.730 C 387.782 384.431,393.433 378.771,400.800 369.270 C 423.687 339.751,436.460 306.568,439.555 268.587 C 442.513 232.291,431.945 189.956,412.104 158.622 C 402.443 143.364,389.440 128.200,384.365 126.270 C 381.324 125.114,375.528 125.292,372.480 126.635 M176.640 178.299 C 171.656 180.940,162.300 193.415,156.220 205.524 C 142.830 232.194,140.544 262.768,149.839 290.870 C 152.932 300.220,157.977 310.922,162.340 317.389 C 167.734 325.382,174.230 332.677,177.218 334.095 C 186.290 338.400,197.350 333.128,199.687 323.384 C 201.045 317.721,199.705 313.523,194.458 307.010 C 181.852 291.362,176.502 276.164,176.502 256.000 C 176.502 235.836,181.852 220.638,194.458 204.990 C 199.680 198.507,201.073 194.192,199.701 188.743 C 198.529 184.088,196.323 181.115,192.149 178.564 C 188.162 176.129,180.966 176.005,176.640 178.299 M319.851 178.564 C 315.677 181.115,313.471 184.088,312.299 188.743 C 310.927 194.192,312.320 198.507,317.542 204.990 C 330.148 220.638,335.498 235.836,335.498 256.000 C 335.498 276.152,330.179 291.278,317.532 307.089 C 312.256 313.685,310.958 317.737,312.313 323.384 C 314.662 333.177,325.711 338.399,334.878 334.049 C 339.292 331.955,348.190 320.677,354.716 308.907 C 358.099 302.803,363.082 289.441,365.293 280.541 C 367.813 270.395,368.430 249.905,366.557 238.509 C 364.162 223.930,357.132 205.671,349.655 194.611 C 344.235 186.593,338.245 179.826,335.181 178.259 C 330.710 175.973,323.871 176.109,319.851 178.564 M245.193 225.957 C 232.630 230.437,224.234 242.472,224.234 256.000 C 224.234 273.852,238.175 287.813,256.000 287.813 C 269.454 287.813,281.123 279.696,286.027 266.926 C 288.441 260.641,288.381 251.249,285.886 244.664 C 283.429 238.180,276.259 230.399,269.853 227.265 C 263.499 224.156,251.959 223.544,245.193 225.957 " stroke="none" fill-rule="evenodd" fill="black"></path></svg>