<svg xmlns="http://www.w3.org/2000/svg" width="512" height="512" viewBox="0 0 512 512"><path d="M70.041 77.609 C 51.351 98.826,39.595 115.589,29.168 135.888 C 0.940 190.843,-7.076 253.437,6.414 313.583 C 11.002 334.039,19.373 357.043,29.168 376.112 C 39.595 396.411,51.351 413.174,70.041 434.391 L 81.227 447.090 96.391 433.479 C 104.731 425.993,112.038 419.285,112.629 418.574 C 113.533 417.484,112.775 416.250,107.838 410.770 C 86.632 387.230,76.069 372.095,65.628 350.293 C 50.078 317.821,43.694 287.466,44.631 250.453 C 45.372 221.200,49.944 198.765,60.369 173.227 C 70.798 147.679,83.851 127.883,107.838 101.235 C 112.775 95.750,113.533 94.516,112.629 93.426 C 112.038 92.715,104.731 86.007,96.391 78.521 L 81.227 64.910 70.041 77.609 M416.853 77.334 C 409.344 84.101,402.086 90.752,400.723 92.112 L 398.247 94.586 408.302 105.960 C 424.884 124.715,433.640 137.071,442.970 154.880 C 476.008 217.944,476.006 294.120,442.964 357.120 C 433.809 374.577,424.344 387.952,408.451 405.893 C 402.982 412.068,398.537 417.444,398.574 417.840 C 398.612 418.236,405.877 424.988,414.720 432.843 L 430.798 447.127 443.166 432.980 C 449.969 425.200,458.602 414.548,462.352 409.310 C 528.596 316.773,528.598 195.229,462.355 102.695 C 456.496 94.510,438.076 72.504,432.362 66.862 L 430.507 65.030 416.853 77.334 M126.672 122.667 C 114.566 135.840,106.754 145.927,99.408 157.867 C 86.681 178.554,77.903 203.225,73.753 229.973 C 71.763 242.794,71.763 269.206,73.753 282.027 C 78.939 315.452,90.865 344.273,110.123 369.920 C 116.331 378.187,136.964 401.067,138.212 401.067 C 138.629 401.067,146.066 394.454,154.737 386.373 L 170.504 371.678 163.354 364.165 C 147.303 347.299,139.188 336.291,131.423 320.853 C 111.195 280.639,111.195 231.361,131.423 191.147 C 139.185 175.715,147.305 164.700,163.335 147.854 L 170.466 140.361 154.734 125.647 C 146.081 117.555,138.654 110.933,138.228 110.933 C 137.802 110.933,132.602 116.213,126.672 122.667 M357.846 125.144 C 349.468 132.959,342.484 139.683,342.326 140.085 C 342.169 140.486,346.218 145.324,351.325 150.834 C 356.431 156.345,362.175 162.773,364.088 165.120 C 373.322 176.449,383.838 195.866,388.580 210.347 C 400.337 246.246,397.444 287.281,380.821 320.382 C 372.955 336.046,366.006 345.673,351.192 361.426 L 341.526 371.706 357.318 386.424 C 366.003 394.518,373.544 400.999,374.075 400.825 C 375.897 400.228,396.081 377.718,402.702 368.900 C 429.208 333.597,443.068 286.074,439.485 242.773 C 436.118 202.091,420.501 163.265,396.063 134.827 C 388.157 125.626,374.423 110.933,373.729 110.933 C 373.371 110.933,366.224 117.328,357.846 125.144 M183.892 166.178 C 166.258 186.125,161.660 192.517,155.212 206.056 C 140.443 237.062,140.443 274.938,155.212 305.944 C 161.661 319.484,166.862 326.706,184.006 345.926 L 188.386 350.835 204.637 336.484 C 213.576 328.591,220.908 321.941,220.931 321.707 C 220.955 321.472,217.085 316.864,212.332 311.467 C 194.297 290.985,188.367 277.261,188.367 256.000 C 188.367 234.739,194.297 221.015,212.332 200.533 C 217.085 195.136,220.956 190.528,220.933 190.293 C 220.890 189.835,191.996 164.101,189.596 162.383 C 188.364 161.501,187.546 162.046,183.892 166.178 M307.313 175.560 C 298.402 183.429,291.083 190.062,291.049 190.302 C 291.015 190.541,295.186 195.519,300.319 201.363 C 305.451 207.208,311.386 214.908,313.508 218.474 C 327.105 241.333,326.953 271.859,313.129 294.181 C 310.875 297.822,304.980 305.408,300.030 311.040 C 295.080 316.672,291.047 321.472,291.068 321.707 C 291.110 322.166,320.005 347.900,322.416 349.625 C 323.682 350.530,325.067 349.293,333.240 339.960 C 348.692 322.316,356.229 310.088,361.673 293.833 C 366.410 279.688,367.360 273.369,367.360 256.000 C 367.360 238.632,366.410 232.314,361.673 218.167 C 355.621 200.094,347.337 187.343,327.618 165.747 L 323.515 161.253 307.313 175.560 M247.140 221.055 C 237.300 223.526,227.972 231.449,223.305 241.303 C 220.786 246.618,220.587 247.699,220.587 256.000 C 220.587 264.301,220.786 265.382,223.305 270.697 C 227.082 278.671,232.654 284.347,240.518 288.234 C 246.722 291.300,247.274 291.413,256.000 291.413 C 264.726 291.413,265.278 291.300,271.482 288.234 C 279.346 284.347,284.918 278.671,288.695 270.697 C 291.214 265.382,291.413 264.301,291.413 256.000 C 291.413 247.699,291.214 246.618,288.695 241.303 C 284.959 233.416,279.334 227.647,271.702 223.875 C 266.258 221.185,264.561 220.769,257.972 220.514 C 253.837 220.354,248.963 220.598,247.140 221.055 " stroke="none" fill-rule="evenodd" fill="black"></path></svg>