<svg xmlns="http://www.w3.org/2000/svg" width="512" height="512" viewBox="0 0 512 512"><path d="M75.528 75.665 C 70.463 77.219,63.570 83.913,54.080 96.495 C 27.351 131.934,10.620 170.631,3.475 213.541 C -8.256 283.991,9.746 356.744,53.151 414.293 C 67.888 433.833,73.904 438.319,84.372 437.570 C 90.778 437.111,94.270 435.593,98.387 431.476 C 102.136 427.727,104.326 422.971,104.784 417.583 C 105.357 410.826,103.264 405.988,95.991 397.263 C 69.260 365.195,52.917 329.299,46.360 288.254 C 45.157 280.722,44.820 273.667,44.820 256.000 C 44.820 231.295,45.694 223.098,50.350 204.120 C 57.850 173.552,73.728 141.653,92.911 118.613 C 100.762 109.183,103.094 105.303,104.259 99.722 C 106.358 89.670,99.592 78.566,89.550 75.584 C 84.035 73.946,81.076 73.963,75.528 75.665 M422.093 75.633 C 416.048 77.489,410.132 83.667,408.272 90.065 C 405.724 98.830,407.551 104.577,416.162 114.883 C 436.089 138.733,451.032 166.599,459.396 195.506 C 470.687 234.529,470.391 279.845,458.588 318.892 C 449.665 348.415,436.156 373.016,414.514 399.161 C 407.153 408.052,405.443 414.849,408.390 423.497 C 409.881 427.873,414.807 433.465,419.149 435.710 C 420.695 436.510,424.510 437.347,427.628 437.570 C 438.487 438.347,443.652 434.356,459.947 412.598 C 519.443 333.155,528.626 226.092,483.557 137.340 C 473.589 117.712,457.333 93.945,445.897 82.282 C 438.478 74.715,431.461 72.755,422.093 75.633 M130.131 121.471 C 121.414 125.530,102.836 149.464,92.550 169.884 C 57.269 239.928,68.288 324.311,120.301 382.405 C 126.641 389.487,132.101 392.512,138.568 392.525 C 144.638 392.537,148.931 390.969,153.260 387.159 C 162.498 379.027,163.766 366.700,156.329 357.317 C 154.593 355.127,150.631 350.155,147.523 346.268 C 130.625 325.131,120.031 299.101,116.964 271.180 C 112.488 230.441,126.112 188.992,154.416 157.235 C 160.968 149.884,162.804 142.164,159.976 133.864 C 155.878 121.838,141.851 116.013,130.131 121.471 M363.809 121.117 C 358.768 123.406,353.773 128.731,352.122 133.577 C 349.146 142.310,350.904 149.608,357.921 157.654 C 379.477 182.371,391.599 209.533,395.036 240.820 C 399.195 278.673,387.522 318.124,363.441 347.599 C 353.796 359.404,352.528 361.309,351.510 365.522 C 347.237 383.201,365.443 398.178,381.896 390.516 C 386.767 388.248,392.756 382.046,402.402 369.282 C 426.439 337.476,439.566 298.098,439.738 257.280 C 439.858 229.045,434.758 204.359,423.475 178.548 C 413.450 155.614,392.014 126.195,381.896 121.484 C 376.465 118.955,368.908 118.801,363.809 121.117 M185.457 170.632 C 175.974 172.891,164.479 186.422,154.977 206.513 C 143.107 231.609,140.912 261.663,148.898 289.732 C 152.162 301.205,160.847 318.013,168.713 328.081 C 174.175 335.072,176.236 337.036,180.272 339.099 C 189.400 343.764,199.215 341.947,206.236 334.293 C 209.610 330.616,212.480 323.952,212.480 319.796 C 212.480 315.120,210.155 310.014,204.690 302.688 C 193.205 287.293,188.367 273.455,188.367 256.000 C 188.367 239.080,193.472 223.965,203.496 211.200 C 211.019 201.621,212.014 199.378,212.014 192.000 C 212.014 184.334,210.149 180.136,204.653 175.432 C 199.231 170.791,192.186 169.029,185.457 170.632 M314.854 171.077 C 310.001 172.632,304.297 177.455,301.857 182.065 C 300.413 184.793,299.986 187.061,299.983 192.000 C 299.980 199.252,300.948 201.615,306.932 208.966 C 322.941 228.636,327.899 255.568,319.906 279.449 C 316.872 288.513,314.225 293.333,306.836 303.244 C 300.277 312.041,298.634 317.262,300.310 323.981 C 303.069 335.041,310.878 341.410,321.845 341.547 C 329.365 341.641,334.922 338.499,341.332 330.531 C 353.800 315.033,361.400 299.021,365.773 279.040 C 368.025 268.749,368.027 243.247,365.776 233.005 C 361.338 212.804,353.629 196.704,340.802 180.843 C 333.373 171.657,324.022 168.138,314.854 171.077 M247.140 221.055 C 237.300 223.526,227.972 231.449,223.305 241.303 C 220.786 246.618,220.587 247.699,220.587 256.000 C 220.587 264.301,220.786 265.382,223.305 270.697 C 227.082 278.671,232.654 284.347,240.518 288.234 C 246.722 291.300,247.274 291.413,256.000 291.413 C 264.726 291.413,265.278 291.300,271.482 288.234 C 279.346 284.347,284.918 278.671,288.695 270.697 C 291.214 265.382,291.413 264.301,291.413 256.000 C 291.413 247.699,291.214 246.618,288.695 241.303 C 284.959 233.416,279.334 227.647,271.702 223.875 C 266.258 221.185,264.561 220.769,257.972 220.514 C 253.837 220.354,248.963 220.598,247.140 221.055 " stroke="none" fill-rule="evenodd" fill="black"></path></svg>