<svg xmlns="http://www.w3.org/2000/svg" width="512" height="512" viewBox="0 0 512 512"><path d="M237.367 17.218 C 228.395 18.343,213.131 22.357,203.839 26.037 C 184.548 33.675,168.461 44.648,153.588 60.315 C 134.547 80.372,120.194 108.520,114.043 137.866 L 112.120 147.039 103.633 148.961 C 72.899 155.921,48.329 172.920,35.085 196.388 C 18.596 225.605,20.933 269.121,40.460 296.472 C 45.104 302.977,56.513 313.933,62.893 318.014 C 74.437 325.399,88.906 330.896,105.590 334.235 C 112.474 335.613,123.144 335.755,240.213 336.026 C 371.879 336.330,377.922 336.204,393.458 332.825 C 429.902 324.896,460.521 301.851,475.689 270.933 C 484.908 252.141,487.573 240.469,487.573 218.880 C 487.573 206.260,487.238 201.962,485.693 194.787 C 478.051 159.284,456.685 132.583,423.022 116.468 C 411.771 111.082,403.080 108.068,391.467 105.525 L 383.041 103.680 380.241 97.280 C 373.399 81.640,362.888 66.848,349.296 53.731 C 335.891 40.793,324.918 33.423,308.859 26.568 C 288.355 17.817,261.065 14.248,237.367 17.218 M118.602 392.976 C 104.932 413.474,93.870 430.345,94.020 430.469 C 95.903 432.010,120.537 448.056,120.708 447.852 C 121.767 446.593,169.166 375.069,169.475 374.264 C 169.813 373.382,162.156 367.874,145.756 357.203 L 143.458 355.708 118.602 392.976 M182.677 417.185 L 141.764 478.546 154.963 487.309 C 162.693 492.440,168.463 495.747,168.886 495.289 C 170.336 493.720,250.136 373.586,249.872 373.370 C 249.722 373.248,243.748 369.250,236.595 364.486 L 223.590 355.824 182.677 417.185 M278.677 393.040 C 264.119 414.911,254.318 430.420,254.784 430.849 C 257.568 433.411,280.371 447.853,280.829 447.345 C 282.376 445.631,329.387 374.527,329.387 373.900 C 329.387 373.313,316.973 364.703,305.493 357.327 L 303.360 355.957 278.677 393.040 M342.757 416.848 C 320.384 450.407,302.080 478.051,302.080 478.279 C 302.080 478.852,327.483 495.792,328.300 495.763 C 329.031 495.737,409.027 375.914,409.419 374.256 C 409.621 373.405,401.198 367.387,385.637 357.265 L 383.433 355.832 342.757 416.848 " stroke="none" fill-rule="evenodd" fill="black"></path></svg>