<svg xmlns="http://www.w3.org/2000/svg" width="512" height="512" viewBox="0 0 512 512"><path d="M235.681 17.497 C 176.733 26.512,131.336 69.078,116.052 129.665 C 114.685 135.085,113.251 141.241,112.866 143.344 C 112.172 147.133,112.126 147.175,107.923 147.876 C 76.895 153.047,47.570 172.920,34.383 197.713 C 25.653 214.125,22.197 234.361,24.766 254.018 C 27.806 277.291,35.492 293.332,50.452 307.632 C 61.993 318.663,73.325 325.248,89.173 330.130 C 108.232 336.002,98.952 335.637,238.507 336.001 C 369.915 336.344,378.203 336.172,393.387 332.779 C 436.078 323.239,468.858 294.951,481.988 256.319 C 485.894 244.827,487.507 234.148,487.581 219.307 C 487.659 203.553,486.393 194.745,482.156 181.569 C 469.627 142.600,434.399 113.791,388.405 104.901 C 384.886 104.220,382.833 103.377,382.528 102.488 C 380.832 97.531,373.111 82.866,368.929 76.657 C 348.515 46.350,318.169 25.774,283.394 18.661 C 272.372 16.407,246.878 15.785,235.681 17.497 M265.387 48.658 C 270.784 49.129,278.464 50.324,282.453 51.314 C 312.153 58.683,338.961 82.152,351.666 111.906 C 358.139 127.066,364.754 132.422,381.577 136.129 C 398.811 139.926,409.065 143.989,420.333 151.486 C 445.313 168.107,456.786 191.772,455.446 223.911 C 454.907 236.848,452.625 245.959,447.240 256.667 C 434.791 281.424,408.743 299.005,378.693 302.933 C 373.807 303.572,331.605 303.770,241.920 303.576 C 120.719 303.315,111.794 303.196,105.813 301.766 C 84.848 296.753,69.806 285.844,62.400 270.283 C 57.551 260.094,56.743 255.843,56.769 240.640 C 56.789 228.500,56.977 226.899,59.055 221.154 C 66.916 199.425,85.388 185.329,113.920 179.287 C 124.591 177.028,130.125 174.354,135.067 169.071 C 140.526 163.235,142.155 159.530,145.014 146.447 C 151.022 118.958,160.810 99.225,176.830 82.301 C 195.680 62.387,219.177 50.883,245.411 48.722 C 250.062 48.339,254.251 47.975,254.720 47.913 C 255.189 47.852,259.989 48.187,265.387 48.658 M138.824 369.003 C 137.032 369.653,134.768 370.893,133.792 371.759 C 130.209 374.936,96.675 426.299,96.229 429.291 C 95.598 433.530,97.541 440.035,100.300 442.914 C 105.503 448.346,114.806 449.387,120.898 445.220 C 122.699 443.988,129.752 434.192,140.706 417.707 C 150.062 403.627,158.179 391.185,158.744 390.059 C 160.352 386.851,159.986 380.474,157.967 376.516 C 154.738 370.187,145.526 366.572,138.824 369.003 M220.026 368.600 C 214.010 370.467,212.680 372.216,179.803 421.502 C 161.774 448.530,146.390 471.866,145.618 473.360 C 142.858 478.697,144.536 487.687,149.029 491.630 C 154.184 496.155,161.909 497.075,167.680 493.853 C 170.623 492.210,175.781 484.931,205.079 441.079 C 240.928 387.420,240.816 387.619,239.423 380.196 C 238.788 376.810,234.772 371.733,231.340 369.977 C 228.301 368.423,222.766 367.749,220.026 368.600 M300.368 368.565 C 293.903 370.588,292.966 371.701,274.831 398.888 C 263.526 415.835,256.744 426.806,256.382 428.736 C 255.020 435.996,258.283 442.553,264.914 445.881 C 270.147 448.508,274.147 448.564,279.073 446.080 C 282.504 444.350,284.497 441.760,299.264 419.840 C 317.317 393.044,320.000 388.436,320.000 384.232 C 320.000 378.735,316.204 372.378,311.467 369.940 C 308.561 368.445,302.967 367.752,300.368 368.565 M379.838 368.616 C 378.253 369.004,375.949 370.048,374.718 370.934 C 372.209 372.741,309.051 466.505,305.851 473.173 C 303.249 478.596,303.260 481.603,305.905 486.872 C 308.998 493.033,312.863 495.360,320.000 495.360 C 324.648 495.360,326.236 494.975,328.795 493.227 C 331.110 491.646,340.541 478.159,365.197 441.173 C 383.500 413.717,398.908 389.993,399.437 388.453 C 400.700 384.778,399.771 378.889,397.364 375.316 C 393.890 370.158,385.942 367.119,379.838 368.616 " stroke="none" fill-rule="evenodd" fill="black"></path></svg>