<svg xmlns="http://www.w3.org/2000/svg" width="512" height="512" viewBox="0 0 512 512"><path d="M241.067 16.776 C 218.977 19.426,196.728 27.268,179.627 38.433 C 148.937 58.469,126.851 89.686,116.561 127.573 C 111.511 146.166,111.227 146.484,95.436 151.197 C 75.774 157.066,63.749 163.788,51.104 175.978 C 43.746 183.073,39.043 189.133,34.636 197.202 C 18.581 226.593,21.089 269.340,40.460 296.472 C 45.104 302.977,56.513 313.933,62.893 318.014 C 74.437 325.399,88.906 330.896,105.590 334.235 C 112.474 335.613,123.144 335.755,240.213 336.026 C 329.508 336.232,370.154 336.037,376.747 335.369 C 408.447 332.157,434.120 320.394,454.854 299.581 C 471.319 283.053,481.161 264.594,486.051 241.067 C 488.420 229.672,488.239 206.684,485.687 194.787 C 476.239 150.746,444.521 119.248,397.334 107.047 C 392.231 105.727,386.855 103.840,385.388 102.852 C 383.621 101.663,381.028 97.897,377.710 91.702 C 355.052 49.397,319.819 23.799,275.601 17.514 C 267.629 16.381,247.878 15.959,241.067 16.776 M138.824 368.984 C 137.032 369.644,134.768 370.893,133.792 371.759 C 132.815 372.625,124.073 385.251,114.363 399.817 C 102.284 417.937,96.549 427.290,96.201 429.436 C 95.118 436.109,99.120 443.567,105.288 446.367 C 111.474 449.177,117.655 448.280,122.343 443.892 C 124.777 441.614,155.400 396.422,158.269 390.874 C 160.416 386.722,160.205 380.662,157.761 376.314 C 154.160 369.907,145.459 366.539,138.824 368.984 M219.012 369.031 C 217.208 369.675,214.758 371.098,213.569 372.194 C 211.441 374.154,148.318 468.139,145.604 473.386 C 142.857 478.698,144.546 487.696,149.029 491.630 C 154.184 496.155,161.909 497.075,167.680 493.853 C 170.623 492.209,175.787 484.922,205.135 440.993 C 236.352 394.269,239.211 389.692,239.581 385.840 C 239.803 383.529,239.535 380.276,238.985 378.609 C 237.718 374.770,232.350 369.878,228.114 368.702 C 223.998 367.559,223.046 367.593,219.012 369.031 M299.622 368.751 C 298.036 369.218,295.781 370.227,294.612 370.993 C 292.372 372.460,259.193 421.530,257.175 426.359 C 255.771 429.721,255.662 434.193,256.906 437.491 C 258.134 440.749,262.653 445.386,265.999 446.822 C 271.100 449.010,278.461 447.733,282.753 443.914 C 285.003 441.912,316.428 394.768,318.386 390.457 C 321.066 384.556,319.943 377.831,315.479 373.051 C 311.695 368.997,304.978 367.176,299.622 368.751 M379.555 368.598 C 378.284 368.999,376.046 370.180,374.582 371.222 C 371.829 373.183,308.364 467.445,305.393 473.987 C 303.405 478.363,303.408 481.662,305.404 485.973 C 308.322 492.275,313.545 495.787,320.000 495.787 C 324.275 495.787,327.510 494.529,330.562 491.679 C 331.913 490.418,347.901 467.077,366.092 439.809 C 391.032 402.426,399.309 389.384,399.749 386.785 C 400.843 380.309,397.933 373.934,392.306 370.483 C 389.056 368.489,382.822 367.567,379.555 368.598 " stroke="none" fill-rule="evenodd" fill="black"></path></svg>