<svg xmlns="http://www.w3.org/2000/svg" width="512" height="512" viewBox="0 0 512 512"><path d="M128.853 33.743 C 125.803 34.392,119.659 36.745,115.200 38.972 C 108.358 42.390,105.824 44.292,98.956 51.164 C 92.344 57.780,90.142 60.666,87.211 66.560 C 85.227 70.549,82.840 76.851,81.908 80.563 C 80.246 87.184,80.213 90.537,80.213 256.000 C 80.213 421.463,80.246 424.816,81.908 431.437 C 82.840 435.149,85.227 441.451,87.211 445.440 C 90.133 451.314,92.366 454.248,98.956 460.868 C 105.775 467.718,108.364 469.677,114.934 472.958 C 130.020 480.492,120.164 480.000,256.000 480.000 C 391.836 480.000,381.980 480.492,397.066 472.958 C 403.636 469.677,406.225 467.718,413.044 460.868 C 419.634 454.248,421.867 451.314,424.789 445.440 C 426.773 441.451,429.160 435.149,430.092 431.437 C 431.754 424.816,431.787 421.463,431.787 256.000 C 431.787 90.537,431.754 87.184,430.092 80.563 C 429.160 76.851,426.773 70.549,424.789 66.560 C 421.858 60.666,419.656 57.780,413.044 51.164 C 406.170 44.286,403.648 42.394,396.800 38.978 C 382.898 32.044,391.762 32.450,255.573 32.509 C 155.799 32.553,133.420 32.771,128.853 33.743 M375.592 65.161 C 388.190 68.126,397.516 78.437,399.403 91.487 C 400.429 98.580,400.429 413.420,399.403 420.513 C 397.873 431.090,391.357 439.978,381.616 444.774 L 375.929 447.573 256.018 447.573 L 136.107 447.573 131.227 445.286 C 121.154 440.565,114.153 431.277,112.607 420.581 C 111.572 413.424,111.563 98.640,112.597 91.487 C 114.454 78.647,123.786 68.171,136.007 65.205 C 142.625 63.599,368.779 63.557,375.592 65.161 M172.447 112.399 C 168.690 113.122,163.910 116.837,162.052 120.479 C 158.251 127.930,160.848 137.416,167.886 141.792 L 171.093 143.787 256.000 143.787 L 340.907 143.787 344.114 141.792 C 354.326 135.444,354.210 120.536,343.903 114.476 L 340.053 112.213 257.280 112.108 C 211.755 112.050,173.580 112.181,172.447 112.399 M169.387 193.613 C 164.680 195.785,162.096 198.862,160.808 203.826 C 159.702 208.088,160.097 212.088,161.967 215.583 C 163.380 218.223,168.655 222.601,171.322 223.348 C 174.368 224.200,337.632 224.200,340.678 223.348 C 343.345 222.601,348.620 218.223,350.033 215.583 C 351.903 212.088,352.298 208.088,351.192 203.826 C 349.904 198.862,347.320 195.785,342.613 193.613 C 339.369 192.115,335.087 192.037,256.000 192.037 C 176.913 192.037,172.631 192.115,169.387 193.613 M169.387 273.555 C 163.241 276.752,160.183 281.551,160.183 288.000 C 160.183 294.539,164.271 300.683,170.082 302.879 C 171.665 303.477,187.298 303.787,215.893 303.787 C 244.489 303.787,260.122 303.477,261.704 302.879 C 267.008 300.875,272.176 293.532,272.176 288.000 C 272.176 282.468,267.008 275.125,261.704 273.121 C 260.121 272.523,244.423 272.215,215.624 272.219 C 177.720 272.223,171.608 272.400,169.387 273.555 " stroke="none" fill="black" fill-rule="evenodd"></path></svg>