<svg xmlns="http://www.w3.org/2000/svg" width="512" height="512" viewBox="0 0 512 512"><path d="M130.133 33.671 C 108.558 38.412,90.651 54.647,83.034 76.373 L 80.640 83.200 80.640 256.000 L 80.640 428.800 83.034 435.627 C 86.594 445.782,91.516 453.506,99.346 461.227 C 110.539 472.263,122.080 477.730,138.050 479.560 C 148.102 480.712,363.898 480.712,373.950 479.560 C 389.920 477.730,401.461 472.263,412.654 461.227 C 420.484 453.506,425.406 445.782,428.966 435.627 L 431.360 428.800 431.360 256.000 L 431.360 83.200 428.966 76.373 C 425.516 66.533,420.475 58.521,413.084 51.129 C 405.698 43.744,397.691 38.707,387.840 35.249 L 381.013 32.853 258.133 32.699 C 159.127 32.575,134.259 32.764,130.133 33.671 M343.903 114.476 C 348.996 117.471,351.573 122.070,351.573 128.162 C 351.573 134.043,348.239 139.724,343.368 142.141 C 340.162 143.733,337.291 143.787,256.000 143.787 C 174.709 143.787,171.838 143.733,168.632 142.141 C 166.636 141.151,164.343 138.962,162.872 136.641 C 156.913 127.246,161.816 115.223,172.679 112.590 C 174.154 112.233,212.416 112.002,257.707 112.077 L 340.053 112.213 343.903 114.476 M341.970 193.313 C 343.697 194.034,345.838 195.282,346.726 196.086 C 351.137 200.075,352.855 208.613,350.420 214.441 C 349.036 217.754,343.906 222.444,340.678 223.348 C 337.632 224.200,174.368 224.200,171.322 223.348 C 168.388 222.526,163.286 218.094,161.663 214.956 C 158.972 209.751,160.812 200.121,165.268 196.091 C 169.848 191.949,167.178 192.069,255.814 192.033 C 328.640 192.004,339.214 192.161,341.970 193.313 M261.704 273.121 C 267.516 275.317,271.604 281.461,271.604 288.000 C 271.604 294.539,267.516 300.683,261.704 302.879 C 260.122 303.477,244.465 303.787,215.810 303.787 C 168.560 303.787,169.068 303.834,164.534 298.985 C 161.598 295.844,160.427 292.689,160.427 287.917 C 160.427 281.356,163.239 276.872,169.387 273.631 C 171.622 272.453,177.491 272.277,215.624 272.247 C 244.492 272.225,260.117 272.521,261.704 273.121 " stroke="none" fill-rule="evenodd" fill="black"></path></svg>