<svg xmlns="http://www.w3.org/2000/svg" width="512" height="512" viewBox="0 0 512 512"><path d="M153.173 33.636 C 149.993 35.056,146.320 38.908,145.121 42.082 C 144.493 43.743,144.213 86.985,144.213 182.242 L 144.213 320.000 94.507 320.013 C 56.529 320.024,43.678 320.291,40.047 321.146 C 31.184 323.232,22.630 330.494,18.505 339.435 C 16.856 343.007,16.611 345.212,16.357 358.764 C 15.055 428.265,34.452 464.624,78.952 476.096 C 93.664 479.888,90.562 479.812,246.187 480.181 C 404.876 480.557,410.372 480.446,424.916 476.553 C 461.358 466.801,489.672 435.050,494.895 398.080 C 495.593 393.136,495.790 343.078,495.610 216.612 L 495.360 41.972 492.739 38.692 C 489.289 34.375,485.294 32.430,479.876 32.428 C 476.104 32.427,473.548 33.387,461.743 39.235 L 448.000 46.044 434.257 39.235 C 415.844 30.113,416.156 30.112,397.653 39.280 L 383.820 46.133 370.243 39.280 C 352.015 30.079,352.224 30.079,333.719 39.247 L 319.953 46.067 306.333 39.247 C 288.213 30.173,288.651 30.174,269.952 39.214 L 255.914 46.001 242.214 39.214 C 223.862 30.122,224.138 30.122,205.743 39.235 L 192.000 46.044 178.257 39.235 C 166.350 33.336,163.928 32.431,160.124 32.460 C 157.709 32.478,154.581 33.008,153.173 33.636 M256.769 79.954 C 259.111 79.696,265.694 76.989,274.262 72.760 L 288.000 65.979 302.467 73.096 C 312.460 78.012,317.882 80.213,320.000 80.213 C 322.119 80.213,327.537 78.013,337.533 73.093 L 352.000 65.972 366.507 73.170 C 384.459 82.076,383.362 82.088,402.262 72.760 L 416.000 65.979 430.467 73.096 C 439.900 77.737,445.932 80.213,447.803 80.213 C 449.381 80.213,453.581 78.869,457.136 77.227 C 460.691 75.584,463.749 74.240,463.930 74.240 C 464.112 74.240,464.147 146.336,464.009 234.453 L 463.757 394.667 461.796 401.043 C 458.745 410.964,453.601 420.005,446.963 427.114 C 433.068 441.992,416.286 448.845,396.408 447.759 C 372.628 446.459,352.556 432.828,342.105 410.880 C 336.795 399.728,336.213 394.927,336.213 362.249 C 336.213 338.320,335.996 333.078,334.893 330.438 C 333.131 326.221,330.531 323.519,326.400 321.613 C 323.166 320.120,319.118 320.036,249.387 320.019 L 175.787 320.000 175.787 197.120 C 175.787 129.536,175.925 74.240,176.093 74.240 C 176.262 74.240,179.309 75.584,182.864 77.227 C 186.419 78.869,190.619 80.213,192.197 80.213 C 194.069 80.213,200.097 77.737,209.533 73.093 L 224.000 65.972 238.507 73.170 C 251.589 79.660,253.382 80.326,256.769 79.954 M216.890 129.831 C 210.100 133.192,206.545 142.119,209.015 149.604 C 210.487 154.063,215.666 158.347,220.956 159.481 C 227.152 160.810,412.848 160.810,419.044 159.481 C 424.334 158.347,429.513 154.063,430.985 149.604 C 433.470 142.075,429.875 133.119,423.040 129.810 L 419.301 128.000 319.944 128.001 L 220.587 128.001 216.890 129.831 M280.579 209.955 C 278.844 210.871,276.348 213.032,275.032 214.757 C 272.921 217.526,272.640 218.619,272.640 224.068 C 272.640 229.667,272.880 230.538,275.221 233.431 C 280.726 240.232,275.354 239.787,351.807 239.787 C 416.949 239.787,420.046 239.716,423.074 238.171 C 428.663 235.318,431.787 230.238,431.787 224.000 C 431.787 217.762,428.663 212.682,423.074 209.829 C 420.044 208.283,416.990 208.215,351.821 208.251 C 285.975 208.288,283.630 208.344,280.579 209.955 M303.803 370.133 C 303.813 380.433,304.322 391.588,305.020 396.800 C 307.341 414.124,314.703 431.265,325.280 443.970 L 328.674 448.047 211.910 447.774 C 102.239 447.517,94.784 447.406,89.173 445.946 C 65.421 439.767,54.932 426.272,50.390 396.050 C 49.628 390.980,47.868 362.619,47.802 354.347 L 47.787 352.427 175.787 352.427 L 303.787 352.427 303.803 370.133 " stroke="none" fill-rule="evenodd" fill="black"></path></svg>