<svg xmlns="http://www.w3.org/2000/svg" width="512" height="512" viewBox="0 0 512 512"><path d="M144.213 160.427 L 144.213 288.427 255.972 288.427 L 367.731 288.427 367.972 360.320 L 368.213 432.213 370.513 438.512 C 377.225 456.891,393.320 470.917,415.320 477.557 C 422.203 479.634,424.068 479.823,437.760 479.832 C 451.619 479.841,453.189 479.680,459.587 477.583 C 476.950 471.895,489.268 458.158,494.081 439.117 C 495.762 432.463,495.787 429.522,495.787 232.397 C 495.787 122.413,495.499 32.427,495.147 32.427 C 494.795 32.427,483.976 35.937,471.104 40.228 L 447.701 48.028 431.836 40.131 L 415.971 32.234 399.986 40.213 L 384.000 48.192 368.014 40.213 L 352.029 32.234 336.014 40.206 L 320.000 48.177 303.986 40.206 L 287.971 32.234 271.993 40.209 L 256.015 48.185 239.993 40.209 L 223.971 32.234 208.144 40.134 L 192.316 48.034 168.904 40.230 C 156.028 35.938,145.205 32.427,144.853 32.427 C 144.501 32.427,144.213 90.027,144.213 160.427 M431.787 144.217 L 431.787 160.433 320.213 160.217 L 208.640 160.000 208.408 144.000 L 208.176 128.000 319.981 128.000 L 431.787 128.000 431.787 144.217 M431.787 224.000 L 431.787 239.787 352.000 239.787 L 272.213 239.787 272.213 224.000 L 272.213 208.213 352.000 208.213 L 431.787 208.213 431.787 224.000 M16.456 354.347 C 16.905 390.352,17.724 400.400,21.444 415.573 C 28.999 446.394,46.513 466.091,74.094 474.787 C 91.112 480.153,83.709 479.898,231.893 480.211 C 306.165 480.368,366.907 480.192,366.874 479.821 C 366.842 479.450,364.532 477.305,361.741 475.055 C 351.843 467.073,343.073 454.519,338.966 442.453 L 336.642 435.627 336.394 377.813 L 336.146 320.000 176.086 320.000 L 16.027 320.000 16.456 354.347 " stroke="none" fill-rule="evenodd" fill="black"></path></svg>