<svg xmlns="http://www.w3.org/2000/svg" width="512" height="512" viewBox="0 0 512 512"><path d="M152.320 34.023 C 148.922 36.133,146.239 39.138,145.124 42.082 C 144.494 43.743,144.213 82.130,144.213 166.442 L 144.213 288.399 244.693 288.626 L 345.173 288.853 350.508 291.747 C 356.989 295.261,362.056 300.579,365.090 307.051 L 367.360 311.893 367.787 372.053 L 368.213 432.213 370.513 438.512 C 377.227 456.897,393.360 470.952,415.320 477.545 C 422.059 479.568,424.267 479.806,436.907 479.867 C 452.666 479.943,458.197 478.939,467.364 474.340 C 480.735 467.630,491.782 453.333,494.837 438.785 C 495.518 435.541,495.787 379.165,495.787 239.291 C 495.787 27.004,496.126 41.341,490.985 36.534 C 487.794 33.550,484.681 32.427,479.607 32.427 C 476.173 32.427,473.193 33.563,461.743 39.235 L 448.000 46.044 434.257 39.235 C 415.856 30.119,416.144 30.119,397.743 39.235 L 384.000 46.044 370.257 39.235 C 351.780 30.081,351.971 30.081,333.643 39.258 L 320.000 46.090 306.357 39.258 C 288.210 30.172,288.654 30.172,269.952 39.214 L 255.914 46.001 242.214 39.214 C 223.862 30.122,224.138 30.122,205.743 39.235 L 192.000 46.044 178.257 39.235 C 165.972 33.149,164.004 32.427,159.697 32.430 C 156.487 32.432,154.026 32.964,152.320 34.023 M421.973 129.618 C 423.851 130.487,426.418 132.303,427.679 133.652 C 435.971 142.530,431.133 156.889,418.970 159.497 C 413.106 160.755,226.486 160.761,221.030 159.504 C 212.882 157.627,207.736 150.835,208.399 142.836 C 208.881 137.025,211.997 132.253,216.890 129.831 L 220.587 128.001 319.573 128.019 C 414.103 128.037,418.714 128.109,421.973 129.618 M424.876 211.043 C 435.681 218.194,433.166 235.385,420.791 238.976 C 418.721 239.576,395.524 239.787,350.231 239.615 L 282.755 239.360 279.207 237.012 C 272.908 232.843,270.561 224.913,273.526 217.817 C 275.292 213.589,277.111 211.685,281.173 209.810 C 284.414 208.314,288.043 208.245,352.916 208.437 L 421.245 208.640 424.876 211.043 M40.743 320.926 C 31.726 323.052,23.333 329.835,19.131 338.393 C 16.724 343.295,16.630 343.958,16.347 357.973 C 15.657 392.132,20.533 421.071,29.908 438.463 C 41.966 460.831,60.141 473.132,89.027 478.476 C 96.120 479.788,109.011 479.950,226.560 480.212 C 297.899 480.371,357.144 480.282,358.216 480.014 C 359.288 479.746,360.579 478.616,361.086 477.504 C 361.928 475.657,361.294 474.684,353.748 466.238 C 347.873 459.664,344.515 455.019,342.116 450.151 C 336.341 438.433,336.247 437.358,336.209 382.293 C 336.178 336.433,336.073 333.004,334.600 329.813 C 332.694 325.682,329.992 323.083,325.776 321.321 C 322.964 320.146,307.240 320.009,183.281 320.086 C 105.819 320.133,42.524 320.507,40.743 320.926 " stroke="none" fill-rule="evenodd" fill="black"></path></svg>