<svg xmlns="http://www.w3.org/2000/svg" width="512" height="512" viewBox="0 0 512 512"><path d="M109.983 145.556 C 87.581 149.058,65.884 160.275,49.036 177.065 C 33.250 192.797,22.958 211.745,18.197 233.842 C 16.007 244.004,16.007 267.996,18.197 278.158 C 22.953 300.230,33.227 319.155,49.036 334.964 C 64.845 350.773,83.770 361.047,105.842 365.803 C 112.672 367.275,120.867 367.360,256.000 367.360 C 391.133 367.360,399.328 367.275,406.158 365.803 C 440.273 358.452,468.846 336.398,484.294 305.493 C 492.484 289.109,495.360 276.245,495.360 256.000 C 495.360 239.687,494.260 232.424,489.870 219.762 C 474.253 174.719,431.718 144.312,384.208 144.229 C 354.222 144.176,326.502 155.673,305.036 177.065 C 289.250 192.797,278.958 211.745,274.197 233.842 C 272.007 244.004,272.007 267.996,274.197 278.158 C 278.376 297.555,287.100 315.051,299.922 329.753 L 305.556 336.213 256.000 336.213 L 206.444 336.213 212.078 329.753 C 224.826 315.136,233.648 297.443,237.803 278.158 C 239.993 267.996,239.993 244.004,237.803 233.842 C 226.399 180.916,180.618 143.881,127.147 144.326 C 121.749 144.370,114.026 144.924,109.983 145.556 M144.497 178.010 C 163.912 181.700,182.980 194.454,194.076 211.169 C 198.359 217.622,203.499 228.773,205.153 235.201 C 208.408 247.846,208.416 263.992,205.176 276.799 C 203.349 284.018,196.420 297.975,191.343 304.660 C 180.308 319.191,164.478 329.349,145.966 333.779 C 135.631 336.252,119.830 336.288,110.080 333.860 C 85.304 327.691,67.260 313.166,56.288 290.560 C 49.630 276.840,47.160 263.063,48.696 248.215 C 49.831 237.242,51.534 231.236,56.288 221.440 C 64.985 203.521,76.746 191.976,94.983 183.457 C 110.367 176.272,126.191 174.531,144.497 178.010 M400.497 178.010 C 419.912 181.700,438.980 194.454,450.076 211.169 C 454.359 217.622,459.499 228.773,461.153 235.201 C 464.408 247.846,464.416 263.992,461.176 276.799 C 459.349 284.018,452.420 297.975,447.343 304.660 C 436.336 319.154,420.754 329.171,401.920 333.860 C 392.170 336.288,376.369 336.252,366.034 333.779 C 341.613 327.935,323.268 313.183,312.288 290.560 C 307.534 280.764,305.831 274.758,304.696 263.785 C 303.160 248.937,305.630 235.160,312.288 221.440 C 320.985 203.521,332.746 191.976,350.983 183.457 C 366.367 176.272,382.191 174.531,400.497 178.010 " stroke="none" fill="black" fill-rule="evenodd"></path></svg>