<svg xmlns="http://www.w3.org/2000/svg" width="512" height="512" viewBox="0 0 512 512"><path d="M113.920 138.760 C 87.429 142.661,65.326 153.110,46.924 170.433 C 28.593 187.689,15.864 211.528,11.541 236.698 C 9.885 246.342,9.859 265.539,11.489 274.886 C 14.426 291.727,20.974 308.137,30.485 322.487 C 36.798 332.013,52.020 347.233,61.440 353.437 C 74.318 361.919,85.551 366.905,101.059 371.021 L 109.653 373.303 251.733 373.562 C 406.407 373.845,400.482 374.006,417.707 369.075 C 428.808 365.897,444.683 357.853,454.547 350.409 C 470.029 338.722,481.453 324.896,489.863 307.661 C 498.127 290.725,501.753 274.972,501.753 256.000 C 501.753 236.986,498.129 221.277,489.808 204.227 C 473.971 171.777,444.478 148.673,408.650 140.651 C 401.102 138.961,397.444 138.669,384.000 138.679 C 370.643 138.690,366.834 138.998,359.253 140.677 C 336.528 145.712,316.891 156.549,300.373 173.171 C 284.302 189.342,274.443 207.178,268.737 230.400 C 267.005 237.447,266.740 240.682,266.706 255.147 C 266.675 268.312,266.998 273.301,268.254 279.040 C 271.830 295.384,278.124 310.111,287.035 322.987 L 291.760 329.813 273.880 330.044 C 264.046 330.170,247.954 330.170,238.120 330.044 L 220.240 329.813 224.837 323.126 C 233.738 310.176,240.253 294.969,243.734 279.017 C 245.945 268.887,245.972 243.231,243.783 233.220 C 233.434 185.900,198.660 150.704,152.320 140.648 C 144.866 139.030,120.291 137.822,113.920 138.760 M145.672 184.360 C 171.994 190.440,193.320 211.865,199.818 238.755 C 202.280 248.947,202.280 263.053,199.818 273.245 C 188.955 318.205,139.580 342.462,97.639 323.444 C 81.489 316.122,67.451 301.881,60.177 285.440 C 51.940 266.823,52.423 242.525,61.400 224.000 C 76.767 192.285,110.760 176.296,145.672 184.360 M401.672 184.360 C 427.994 190.440,449.320 211.865,455.818 238.755 C 458.266 248.888,458.280 263.071,455.851 273.067 C 449.353 299.812,428.941 320.660,402.466 327.595 C 362.794 337.986,321.873 313.351,312.182 273.245 C 307.134 252.349,312.046 228.594,324.930 211.606 C 343.019 187.755,371.931 177.490,401.672 184.360 " stroke="none" fill-rule="evenodd" fill="black"></path></svg>