<svg xmlns="http://www.w3.org/2000/svg" width="512" height="512" viewBox="0 0 512 512"><path d="M114.773 144.744 C 88.227 148.773,67.033 159.111,49.427 176.619 C 39.931 186.063,33.900 194.305,28.185 205.653 C -2.900 267.370,28.607 341.440,94.931 362.569 C 111.943 367.988,105.496 367.780,256.000 367.780 C 406.504 367.780,400.057 367.988,417.069 362.569 C 437.227 356.147,453.734 345.403,467.939 329.459 C 494.072 300.126,502.675 258.441,490.257 221.317 C 484.275 203.433,475.836 189.809,462.573 176.619 C 447.187 161.319,428.036 151.003,406.187 146.247 C 395.958 144.020,372.042 144.020,361.813 146.247 C 317.487 155.896,284.756 188.465,274.238 233.387 C 271.737 244.071,271.980 269.751,274.687 280.747 C 278.937 298.013,286.266 312.922,297.226 326.601 C 300.474 330.656,302.839 334.376,302.586 335.035 C 301.886 336.859,210.086 336.785,209.385 334.960 C 209.097 334.209,210.937 331.217,213.977 327.493 C 226.163 312.565,233.197 298.110,237.762 278.613 C 240.046 268.858,240.046 243.142,237.762 233.387 C 227.353 188.932,195.503 156.761,151.893 146.656 C 144.801 145.013,121.061 143.790,114.773 144.744 " stroke="none" fill-rule="evenodd" fill="black"></path></svg>