<svg xmlns="http://www.w3.org/2000/svg" width="512" height="512" viewBox="0 0 512 512"><path d="M244.476 46.937 L 233.403 58.035 264.115 88.825 L 294.827 119.615 290.481 119.052 C 288.091 118.743,275.803 118.467,263.174 118.440 C 245.655 118.401,237.989 118.732,230.827 119.835 C 211.628 122.790,196.268 127.584,178.773 136.079 C 124.968 162.206,88.564 213.576,81.107 273.898 C 79.820 284.312,80.008 305.555,81.486 316.756 C 90.322 383.688,136.326 439.425,200.340 460.753 C 237.532 473.146,274.468 473.146,311.660 460.753 C 376.599 439.116,422.399 382.764,430.893 314.049 C 431.384 310.072,431.787 300.376,431.787 292.502 L 431.787 278.187 416.128 278.187 L 400.469 278.187 399.880 293.333 C 399.168 311.648,397.581 322.391,393.689 335.262 C 375.183 396.457,319.705 437.753,256.000 437.753 C 193.598 437.753,139.127 398.224,119.141 338.435 C 110.241 311.813,110.076 279.110,118.700 251.309 C 133.469 203.698,172.477 166.649,220.587 154.538 C 235.116 150.881,246.957 149.953,272.826 150.446 C 286.069 150.698,297.345 151.177,297.884 151.510 C 298.490 151.885,286.404 164.578,266.129 184.858 L 233.395 217.600 244.698 228.903 L 256.001 240.207 307.201 189.013 L 358.400 137.819 307.416 86.829 C 279.375 58.785,256.233 35.840,255.990 35.840 C 255.747 35.840,250.566 40.834,244.476 46.937 " stroke="none" fill-rule="evenodd" fill="black"></path></svg>