<svg xmlns="http://www.w3.org/2000/svg" width="512" height="512" viewBox="0 0 512 512"><path d="M241.920 48.669 C 200.408 51.315,161.414 66.345,127.147 92.907 C 117.682 100.244,99.925 117.973,92.853 127.147 C 68.534 158.693,54.971 191.264,49.324 231.680 C 47.743 242.995,48.000 271.299,49.795 283.733 C 53.013 306.012,59.531 327.351,69.085 346.880 C 80.063 369.322,91.055 384.640,109.208 402.792 C 127.366 420.950,142.692 431.948,165.120 442.911 C 223.426 471.414,291.655 470.915,349.947 441.559 C 387.605 422.595,422.595 387.605,441.559 349.947 C 477.483 278.613,469.745 194.037,421.441 130.052 C 388.588 86.534,337.751 57.084,283.307 50.031 C 270.524 48.375,254.701 47.854,241.920 48.669 M286.085 159.365 L 315.733 189.022 285.871 218.875 L 256.009 248.728 246.189 238.936 L 236.369 229.143 250.238 215.179 L 264.107 201.216 253.440 201.629 C 245.101 201.953,241.284 202.526,235.947 204.254 C 217.438 210.247,202.058 224.510,194.841 242.377 C 190.346 253.506,189.013 269.020,191.532 280.903 C 197.912 311.006,224.985 332.800,256.000 332.800 C 282.565 332.800,306.528 316.908,316.790 292.484 C 320.407 283.876,321.675 276.588,321.692 264.320 L 321.707 253.440 335.787 253.440 L 349.867 253.440 349.863 263.893 C 349.852 296.893,336.805 323.892,311.917 342.415 C 258.582 382.110,182.250 355.053,164.919 290.309 C 162.931 282.885,162.702 280.479,162.702 267.093 C 162.702 253.682,162.929 251.310,164.934 243.817 C 172.100 217.039,189.956 195.123,214.613 182.841 C 226.759 176.791,241.196 173.227,253.552 173.227 C 256.776 173.227,259.413 172.933,259.413 172.575 C 259.413 172.216,254.230 166.750,247.894 160.427 L 236.375 148.932 245.960 139.319 C 251.232 134.032,255.746 129.707,255.991 129.707 C 256.235 129.707,269.778 143.053,286.085 159.365 " stroke="none" fill-rule="evenodd" fill="black"></path></svg>