<svg xmlns="http://www.w3.org/2000/svg" width="512" height="512" viewBox="0 0 512 512"><path d="M253.867 42.213 C 253.397 42.381,251.987 42.743,250.732 43.018 C 245.691 44.126,239.846 51.701,239.810 57.173 C 239.765 64.038,240.586 65.069,268.235 92.879 L 294.827 119.624 290.481 119.057 C 288.091 118.745,275.803 118.467,263.174 118.440 C 245.655 118.401,237.989 118.732,230.827 119.835 C 211.628 122.790,196.268 127.584,178.773 136.079 C 124.968 162.206,88.564 213.576,81.107 273.898 C 79.820 284.312,80.008 305.555,81.486 316.756 C 90.322 383.688,136.326 439.425,200.340 460.753 C 237.532 473.146,274.468 473.146,311.660 460.753 C 364.745 443.066,405.829 401.752,423.203 348.587 C 428.744 331.631,431.787 313.856,431.787 298.442 C 431.787 287.019,429.531 282.569,422.183 279.499 C 418.186 277.829,413.814 277.829,409.817 279.499 C 402.224 282.672,400.497 286.447,399.422 302.218 C 398.451 316.474,396.967 324.817,393.300 336.637 C 374.615 396.873,319.105 437.753,256.000 437.753 C 193.598 437.753,139.127 398.224,119.141 338.435 C 110.241 311.813,110.076 279.110,118.700 251.309 C 133.469 203.698,172.477 166.649,220.587 154.538 C 235.116 150.881,246.957 149.953,272.826 150.446 C 286.069 150.698,297.342 151.175,297.876 151.505 C 298.472 151.874,288.133 162.843,271.068 179.946 C 242.561 208.517,239.824 211.853,239.824 218.027 C 239.824 223.559,244.992 230.902,250.296 232.906 C 253.631 234.166,258.948 234.039,262.214 232.621 C 263.781 231.941,283.350 212.979,307.788 188.461 C 339.701 156.443,350.755 144.841,351.166 142.933 C 351.468 141.525,351.842 139.951,351.995 139.435 C 352.149 138.919,351.888 136.615,351.415 134.315 C 350.582 130.260,349.269 128.842,308.185 87.621 C 284.880 64.240,264.853 44.605,263.680 43.989 C 261.428 42.806,255.310 41.699,253.867 42.213 " stroke="none" fill-rule="evenodd" fill="black"></path></svg>