<svg xmlns="http://www.w3.org/2000/svg" width="512" height="512" viewBox="0 0 512 512"><path d="M241.493 48.673 C 201.694 51.236,163.176 65.747,129.707 90.787 C 119.118 98.709,98.459 119.383,90.552 129.971 C 68.706 159.223,55.330 191.336,49.785 227.840 C 47.724 241.414,47.724 270.586,49.785 284.160 C 55.331 320.671,68.725 352.821,90.558 382.029 C 98.598 392.784,119.216 413.402,129.971 421.442 C 159.179 443.275,191.329 456.669,227.840 462.215 C 241.414 464.276,270.586 464.276,284.160 462.215 C 320.686 456.667,352.914 443.237,382.029 421.430 C 392.784 413.374,413.374 392.784,421.430 382.029 C 443.237 352.914,456.667 320.686,462.215 284.160 C 464.276 270.586,464.276 241.414,462.215 227.840 C 455.463 183.387,436.803 144.683,406.921 113.150 C 370.380 74.590,322.088 52.062,268.561 48.607 C 255.365 47.755,255.779 47.754,241.493 48.673 M284.160 82.308 C 319.998 88.383,351.735 104.258,377.739 129.118 C 405.349 155.513,423.300 189.800,429.832 228.618 C 431.923 241.048,431.905 271.514,429.799 283.733 C 419.921 341.032,385.307 387.989,334.011 413.679 C 285.590 437.929,226.410 437.929,177.989 413.679 C 126.525 387.905,91.775 340.650,82.174 283.382 C 80.053 270.734,80.053 241.266,82.174 228.618 C 92.715 165.745,133.739 115.017,192.849 91.764 C 205.896 86.632,221.606 82.941,239.787 80.737 C 246.454 79.928,276.372 80.988,284.160 82.308 M251.464 136.063 C 245.360 138.240,242.347 142.485,242.347 148.907 C 242.347 154.242,243.602 156.272,252.098 164.674 C 256.122 168.653,259.413 172.148,259.413 172.440 C 259.413 172.732,255.285 173.198,250.240 173.476 C 226.901 174.762,204.878 184.958,188.421 202.094 C 171.932 219.265,163.361 239.401,162.390 263.253 C 160.890 300.069,180.307 333.561,212.938 350.443 C 259.430 374.496,316.824 355.582,340.269 308.480 C 348.544 291.856,352.400 267.993,348.059 260.270 C 344.385 253.732,334.566 251.270,328.492 255.363 C 323.822 258.510,322.357 261.981,321.599 271.692 C 320.812 281.782,318.495 290.057,314.286 297.813 C 305.785 313.478,291.753 325.032,274.743 330.373 C 269.287 332.086,266.598 332.373,256.000 332.373 C 242.655 332.373,236.196 331.024,226.582 326.229 C 211.431 318.672,197.979 302.751,192.839 286.293 C 190.183 277.790,189.593 262.961,191.529 253.404 C 194.810 237.216,204.895 222.058,218.672 212.613 C 229.831 204.963,241.467 201.426,255.560 201.401 L 264.080 201.387 254.159 211.413 C 248.703 216.928,243.813 222.279,243.293 223.304 C 241.757 226.330,242.152 233.057,244.049 236.168 C 245.999 239.366,250.096 242.113,254.024 242.855 C 260.022 243.989,262.105 242.429,285.318 219.419 C 297.454 207.389,307.918 196.311,308.572 194.801 C 309.225 193.290,309.760 190.686,309.760 189.013 C 309.760 187.341,309.225 184.736,308.572 183.226 C 307.918 181.716,297.454 170.627,285.318 158.584 C 267.063 140.469,262.664 136.528,259.840 135.762 C 255.642 134.623,255.484 134.629,251.464 136.063 " stroke="none" fill-rule="evenodd" fill="black"></path></svg>