<svg xmlns="http://www.w3.org/2000/svg" width="512" height="512" viewBox="0 0 512 512"><path d="M241.920 48.669 C 200.408 51.315,161.414 66.345,127.147 92.907 C 117.682 100.244,99.925 117.973,92.853 127.147 C 68.534 158.693,54.971 191.264,49.324 231.680 C 47.743 242.995,48.000 271.299,49.795 283.733 C 53.013 306.012,59.531 327.351,69.085 346.880 C 80.063 369.322,91.055 384.640,109.208 402.792 C 127.366 420.950,142.692 431.948,165.120 442.911 C 223.426 471.414,291.655 470.915,349.947 441.559 C 387.605 422.595,422.595 387.605,441.559 349.947 C 477.483 278.613,469.745 194.037,421.441 130.052 C 388.588 86.534,337.751 57.084,283.307 50.031 C 270.524 48.375,254.701 47.854,241.920 48.669 M259.840 135.762 C 262.664 136.528,267.063 140.469,285.318 158.584 C 297.454 170.627,307.918 181.716,308.572 183.226 C 309.225 184.736,309.760 187.341,309.760 189.013 C 309.760 190.686,309.225 193.290,308.572 194.801 C 307.918 196.311,297.454 207.389,285.318 219.419 C 262.105 242.429,260.022 243.989,254.024 242.855 C 250.096 242.113,245.999 239.366,244.049 236.168 C 242.152 233.057,241.757 226.330,243.293 223.304 C 243.813 222.279,248.709 216.889,254.173 211.327 L 264.107 201.213 253.440 201.628 C 245.103 201.953,241.282 202.526,235.947 204.254 C 217.438 210.247,202.058 224.510,194.841 242.377 C 190.346 253.506,189.013 269.020,191.532 280.903 C 197.928 311.085,225.026 332.837,256.168 332.787 C 276.166 332.756,294.591 323.994,307.007 308.611 C 315.871 297.630,320.264 286.607,321.664 271.830 C 322.236 265.787,323.075 261.677,324.089 259.940 C 329.135 251.300,341.315 251.131,347.600 259.615 C 352.252 265.895,349.111 289.352,341.397 305.938 C 330.356 329.678,310.498 347.641,286.179 355.886 C 234.397 373.442,179.179 343.581,164.919 290.309 C 162.931 282.885,162.702 280.479,162.702 267.093 C 162.702 253.682,162.929 251.310,164.934 243.817 C 172.100 217.039,189.956 195.123,214.613 182.841 C 226.759 176.791,241.196 173.227,253.552 173.227 C 256.776 173.227,259.413 172.930,259.413 172.568 C 259.413 172.205,256.122 168.653,252.098 164.674 C 243.602 156.272,242.347 154.242,242.347 148.907 C 242.347 142.485,245.360 138.240,251.464 136.063 C 255.484 134.629,255.642 134.623,259.840 135.762 " stroke="none" fill-rule="evenodd" fill="black"></path></svg>