<svg xmlns="http://www.w3.org/2000/svg" width="512" height="512" viewBox="0 0 512 512"><path d="M225.707 48.684 C 168.196 52.268,114.176 80.558,77.513 126.293 C 36.810 177.068,22.399 244.173,38.570 307.627 C 54.570 370.407,100.468 423.470,159.888 447.884 C 186.734 458.914,211.189 463.781,239.360 463.701 C 264.505 463.629,282.658 460.716,305.920 453.022 C 363.949 433.829,410.508 389.641,433.494 331.946 C 438.411 319.604,437.933 313.939,431.498 308.289 C 425.918 303.389,419.609 302.828,412.758 306.620 C 408.969 308.718,407.262 311.258,403.768 320.000 C 394.955 342.049,384.909 358.285,370.213 374.233 C 335.603 411.791,290.392 431.787,240.079 431.787 C 152.858 431.787,79.986 369.235,65.971 282.337 C 64.008 270.168,64.008 241.832,65.971 229.663 C 77.291 159.477,127.448 103.738,195.413 85.815 C 220.161 79.289,249.759 78.506,275.627 83.692 C 301.391 88.858,329.718 102.282,350.898 119.363 C 357.917 125.024,376.320 143.898,376.320 145.436 C 376.320 145.943,364.774 157.875,350.662 171.952 C 336.550 186.029,324.262 198.971,323.355 200.713 C 321.429 204.412,321.209 210.492,322.860 214.441 C 324.244 217.754,329.374 222.444,332.602 223.348 C 333.884 223.706,361.268 224.000,393.454 224.000 L 451.975 224.000 456.097 221.440 C 458.662 219.847,460.893 217.590,462.003 215.467 C 463.754 212.115,463.791 211.003,464.017 154.183 C 464.167 116.648,463.941 95.172,463.375 93.067 C 460.843 83.666,449.526 78.877,440.692 83.469 C 438.845 84.430,428.908 93.671,418.610 104.005 L 399.887 122.794 389.772 112.212 C 377.483 99.356,369.400 92.524,355.485 83.231 C 331.002 66.881,302.433 55.533,273.886 50.820 C 266.305 49.568,242.899 47.681,238.080 47.934 C 236.907 47.995,231.339 48.333,225.707 48.684 " stroke="none" fill-rule="evenodd" fill="black"></path></svg>