<svg xmlns="http://www.w3.org/2000/svg" width="512" height="512" viewBox="0 0 512 512"><path d="M241.493 48.673 C 201.694 51.236,163.176 65.747,129.707 90.787 C 119.118 98.709,98.459 119.383,90.552 129.971 C 68.706 159.223,55.330 191.336,49.785 227.840 C 47.724 241.414,47.724 270.586,49.785 284.160 C 55.331 320.671,68.725 352.821,90.558 382.029 C 98.598 392.784,119.216 413.402,129.971 421.442 C 159.179 443.275,191.329 456.669,227.840 462.215 C 241.414 464.276,270.586 464.276,284.160 462.215 C 320.686 456.667,352.914 443.237,382.029 421.430 C 392.784 413.374,413.374 392.784,421.430 382.029 C 443.237 352.914,456.667 320.686,462.215 284.160 C 464.276 270.586,464.276 241.414,462.215 227.840 C 455.463 183.387,436.803 144.683,406.921 113.150 C 370.380 74.590,322.088 52.062,268.561 48.607 C 255.365 47.755,255.779 47.754,241.493 48.673 M284.160 82.308 C 319.998 88.383,351.735 104.258,377.739 129.118 C 405.349 155.513,423.300 189.800,429.832 228.618 C 431.923 241.048,431.905 271.514,429.799 283.733 C 419.921 341.032,385.307 387.989,334.011 413.679 C 285.590 437.929,226.410 437.929,177.989 413.679 C 126.525 387.905,91.775 340.650,82.174 283.382 C 80.053 270.734,80.053 241.266,82.174 228.618 C 92.715 165.745,133.739 115.017,192.849 91.764 C 205.896 86.632,221.606 82.941,239.787 80.737 C 246.454 79.928,276.372 80.988,284.160 82.308 M240.641 137.434 C 226.616 139.191,213.077 143.621,199.253 150.975 C 187.488 157.234,180.458 162.485,170.667 172.327 C 136.922 206.247,126.903 255.991,144.797 300.776 C 163.472 347.516,210.651 377.706,261.120 375.212 C 278.547 374.351,291.574 370.971,307.627 363.144 C 331.252 351.626,350.728 332.514,361.625 310.156 C 367.661 297.772,368.886 293.965,368.466 288.901 C 367.397 276.008,351.927 270.209,341.862 278.930 C 340.979 279.694,338.043 284.993,335.337 290.705 C 327.762 306.692,321.658 314.799,310.430 323.782 C 266.491 358.938,202.537 345.021,177.269 294.805 C 160.596 261.673,167.254 220.883,193.642 194.495 C 201.319 186.818,208.019 182.151,218.692 177.044 C 231.679 170.831,238.610 169.381,255.147 169.417 C 266.844 169.443,270.525 169.773,276.901 171.371 C 285.403 173.501,299.348 179.878,305.913 184.638 C 310.939 188.283,323.413 200.457,323.413 201.718 C 323.413 202.199,318.037 208.016,311.467 214.643 C 300.386 225.819,299.520 226.924,299.520 229.882 C 299.520 233.962,300.654 236.033,303.770 237.645 C 305.859 238.725,311.295 238.933,337.395 238.933 C 355.555 238.933,369.441 238.587,370.717 238.101 C 371.921 237.644,373.680 236.012,374.626 234.475 C 376.283 231.783,376.338 230.485,376.120 199.396 L 375.893 167.112 373.107 164.623 C 371.113 162.842,369.438 162.133,367.223 162.133 C 364.446 162.133,363.225 163.020,355.413 170.707 L 346.701 179.281 343.862 176.040 C 331.447 161.868,312.584 149.406,294.245 143.262 C 278.355 137.939,256.007 135.509,240.641 137.434 " stroke="none" fill-rule="evenodd" fill="black"></path></svg>