<svg xmlns="http://www.w3.org/2000/svg" width="512" height="512" viewBox="0 0 512 512"><path d="M241.920 48.669 C 177.359 52.784,118.768 87.102,81.958 142.362 C 55.666 181.831,43.309 234.683,49.503 281.173 C 55.829 328.652,75.879 369.527,109.176 402.824 C 142.702 436.350,182.619 455.851,231.680 462.670 C 235.904 463.257,246.848 463.738,256.000 463.738 C 265.152 463.738,276.096 463.257,280.320 462.670 C 329.321 455.859,369.272 436.331,402.802 402.802 C 436.331 369.272,455.859 329.321,462.670 280.320 C 464.046 270.420,464.046 241.580,462.670 231.680 C 455.892 182.914,436.342 142.776,403.220 109.623 C 391.401 97.792,382.569 90.546,369.558 82.006 C 331.997 57.351,287.606 45.757,241.920 48.669 M278.912 139.067 C 302.193 143.812,323.024 155.010,339.544 171.661 L 346.880 179.055 361.600 164.417 L 376.320 149.778 376.320 194.356 L 376.320 238.933 331.741 238.933 L 287.162 238.933 305.287 220.793 C 315.257 210.815,323.413 202.245,323.413 201.748 C 323.413 200.265,311.306 188.728,305.417 184.599 C 290.371 174.050,273.861 168.949,254.839 168.971 C 205.308 169.030,166.292 209.831,168.353 259.413 C 168.930 273.314,171.155 281.905,177.522 294.827 C 189.850 319.845,212.015 336.647,239.508 341.817 C 250.735 343.928,268.325 343.166,278.613 340.123 C 293.712 335.658,304.756 329.235,316.038 318.358 C 327.120 307.673,332.832 298.412,339.237 280.747 C 341.024 275.819,342.781 271.444,343.141 271.024 C 343.763 270.301,370.818 279.289,372.333 280.723 C 373.313 281.650,366.687 300.037,362.024 309.333 C 345.202 342.867,315.519 365.354,277.333 373.493 C 267.415 375.607,244.217 375.594,233.524 373.469 C 209.382 368.671,188.645 357.652,171.488 340.506 C 153.353 322.383,142.169 300.892,137.783 275.740 C 136.159 266.432,136.159 245.568,137.783 236.260 C 147.001 183.395,189.293 143.479,242.573 137.353 C 251.913 136.279,269.243 137.097,278.912 139.067 " stroke="none" fill-rule="evenodd" fill="black"></path></svg>