<svg xmlns="http://www.w3.org/2000/svg" width="512" height="512" viewBox="0 0 512 512"><path d="M225.707 48.684 C 168.196 52.268,114.176 80.558,77.513 126.293 C 36.810 177.068,22.399 244.173,38.570 307.627 C 51.082 356.721,82.300 400.831,124.371 428.861 C 151.410 446.876,181.018 457.866,215.467 462.675 C 225.198 464.033,252.935 463.984,264.107 462.588 C 302.177 457.832,339.620 442.279,369.067 418.989 C 387.698 404.254,407.714 381.393,418.754 362.240 C 426.507 348.790,438.367 321.840,440.724 312.317 C 441.239 310.235,440.880 310.049,426.493 304.928 L 411.733 299.674 410.689 301.943 C 410.115 303.192,408.243 308.053,406.529 312.747 C 397.206 338.274,386.239 356.842,370.213 374.233 C 335.603 411.791,290.392 431.787,240.079 431.787 C 152.858 431.787,79.986 369.235,65.971 282.337 C 64.008 270.168,64.008 241.832,65.971 229.663 C 77.291 159.477,127.448 103.738,195.413 85.815 C 220.161 79.289,249.759 78.506,275.627 83.692 C 301.391 88.858,329.718 102.282,350.898 119.363 C 357.914 125.021,376.320 143.897,376.320 145.434 C 376.320 145.940,360.192 162.479,340.480 182.187 C 315.003 207.658,304.640 218.561,304.640 219.894 C 304.640 224.581,301.922 224.427,384.617 224.427 C 459.662 224.427,460.825 224.401,462.507 222.720 C 464.188 221.039,464.213 219.876,464.213 144.584 C 464.213 93.531,463.920 67.606,463.330 66.504 C 462.789 65.493,461.547 64.853,460.125 64.853 C 458.213 64.853,452.697 69.962,428.844 93.822 L 399.885 122.792 389.770 112.211 C 377.483 99.356,369.400 92.524,355.485 83.231 C 331.002 66.881,302.433 55.533,273.886 50.820 C 266.305 49.568,242.899 47.681,238.080 47.934 C 236.907 47.995,231.339 48.333,225.707 48.684 " stroke="none" fill-rule="evenodd" fill="black"></path></svg>