<svg xmlns="http://www.w3.org/2000/svg" width="512" height="512" viewBox="0 0 512 512"><path d="M241.920 48.669 C 177.359 52.784,118.768 87.102,81.958 142.362 C 55.666 181.831,43.309 234.683,49.503 281.173 C 55.829 328.652,75.879 369.527,109.176 402.824 C 142.702 436.350,182.619 455.851,231.680 462.670 C 235.904 463.257,246.848 463.738,256.000 463.738 C 265.152 463.738,276.096 463.257,280.320 462.670 C 329.321 455.859,369.272 436.331,402.802 402.802 C 436.331 369.272,455.859 329.321,462.670 280.320 C 464.046 270.420,464.046 241.580,462.670 231.680 C 455.892 182.914,436.342 142.776,403.220 109.623 C 391.401 97.792,382.569 90.546,369.558 82.006 C 331.997 57.351,287.606 45.757,241.920 48.669 M278.912 139.067 C 302.170 143.807,322.975 154.984,339.544 171.642 L 346.880 179.017 355.503 170.575 C 363.297 162.945,364.431 162.133,367.302 162.133 C 369.674 162.133,371.109 162.764,372.972 164.628 L 375.467 167.122 375.467 200.097 C 375.467 221.082,375.147 233.669,374.588 234.714 C 372.433 238.741,370.744 238.933,337.480 238.933 C 316.148 238.933,305.643 238.631,304.371 237.980 C 301.268 236.394,299.559 233.584,299.539 230.039 C 299.521 226.870,300.155 226.051,311.467 214.643 C 318.037 208.016,323.413 202.201,323.413 201.720 C 323.413 200.249,313.941 190.885,307.627 186.115 C 299.918 180.292,286.532 173.813,277.333 171.453 C 268.141 169.094,250.989 168.296,241.687 169.794 C 214.095 174.240,190.070 191.811,177.488 216.747 C 151.326 268.600,182.304 331.061,239.520 341.819 C 250.656 343.913,268.299 343.162,278.613 340.156 C 304.757 332.536,325.278 314.388,336.185 289.242 C 340.055 280.317,341.269 278.691,345.779 276.389 C 352.422 272.999,361.107 275.134,365.817 281.315 C 367.924 284.081,368.212 285.187,368.203 290.497 C 368.193 296.074,367.827 297.289,363.392 306.466 C 360.752 311.929,356.948 318.841,354.939 321.826 C 336.706 348.922,310.378 366.450,277.333 373.493 C 267.415 375.607,244.217 375.594,233.524 373.469 C 209.382 368.671,188.645 357.652,171.488 340.506 C 153.353 322.383,142.169 300.892,137.783 275.740 C 136.159 266.432,136.159 245.568,137.783 236.260 C 147.001 183.395,189.293 143.479,242.573 137.353 C 251.913 136.279,269.243 137.097,278.912 139.067 " stroke="none" fill-rule="evenodd" fill="black"></path></svg>