<svg xmlns="http://www.w3.org/2000/svg" width="512" height="512" viewBox="0 0 512 512"><path d="M241.920 48.669 C 177.359 52.784,118.768 87.102,81.958 142.362 C 55.666 181.831,43.309 234.683,49.503 281.173 C 55.829 328.652,75.879 369.527,109.176 402.824 C 142.702 436.350,182.619 455.851,231.680 462.670 C 235.904 463.257,246.848 463.738,256.000 463.738 C 265.152 463.738,276.096 463.257,280.320 462.670 C 329.321 455.859,369.272 436.331,402.802 402.802 C 436.331 369.272,455.859 329.321,462.670 280.320 C 464.046 270.420,464.046 241.580,462.670 231.680 C 455.892 182.914,436.342 142.776,403.220 109.623 C 391.401 97.792,382.569 90.546,369.558 82.006 C 331.997 57.351,287.606 45.757,241.920 48.669 M343.903 242.476 C 348.996 245.471,351.573 250.070,351.573 256.162 C 351.573 262.043,348.239 267.724,343.368 270.141 C 340.162 271.733,337.291 271.787,256.000 271.787 C 174.709 271.787,171.838 271.733,168.632 270.141 C 166.636 269.151,164.343 266.962,162.872 264.641 C 156.913 255.246,161.816 243.223,172.679 240.590 C 174.154 240.233,212.416 240.002,257.707 240.077 L 340.053 240.213 343.903 242.476 " stroke="none" fill-rule="evenodd" fill="black"></path></svg>