<svg xmlns="http://www.w3.org/2000/svg" width="512" height="512" viewBox="0 0 512 512"><path d="M80.213 112.213 L 80.213 133.973 256.000 133.973 L 431.787 133.973 431.787 112.213 L 431.787 90.453 256.000 90.453 L 80.213 90.453 80.213 112.213 M80.213 208.213 L 80.213 230.400 256.000 230.400 L 431.787 230.400 431.787 208.213 L 431.787 186.027 256.000 186.027 L 80.213 186.027 80.213 208.213 M80.213 304.213 L 80.213 325.973 256.000 325.973 L 431.787 325.973 431.787 304.213 L 431.787 282.453 256.000 282.453 L 80.213 282.453 80.213 304.213 M80.213 400.213 L 80.213 422.400 256.000 422.400 L 431.787 422.400 431.787 400.213 L 431.787 378.027 256.000 378.027 L 80.213 378.027 80.213 400.213 " stroke="none" fill="black" fill-rule="evenodd"></path></svg>