<svg xmlns="http://www.w3.org/2000/svg" width="512" height="512" viewBox="0 0 512 512"><path d="M111.610 187.159 C 99.343 191.040,92.770 205.296,97.916 216.857 C 99.950 221.427,106.081 227.206,110.578 228.794 C 113.371 229.780,137.264 229.973,256.000 229.973 C 417.135 229.973,402.520 230.656,409.888 222.780 C 421.032 210.866,415.312 190.891,399.622 186.930 C 394.283 185.582,115.894 185.803,111.610 187.159 M108.510 284.367 C 106.474 285.412,103.330 287.871,101.524 289.830 C 91.423 300.788,96.494 319.787,110.824 324.670 C 114.196 325.818,131.447 325.973,256.000 325.973 C 411.437 325.973,401.427 326.313,408.100 320.812 C 412.216 317.419,415.645 310.303,415.736 304.964 C 415.883 296.272,412.493 290.040,404.943 285.125 L 401.493 282.880 256.853 282.673 L 112.213 282.466 108.510 284.367 " stroke="none" fill="black" fill-rule="evenodd"></path></svg>