<svg xmlns="http://www.w3.org/2000/svg" width="512" height="512" viewBox="0 0 512 512"><path d="M105.387 193.613 C 100.680 195.785,98.096 198.862,96.808 203.826 C 95.702 208.088,96.097 212.088,97.967 215.583 C 99.380 218.223,104.655 222.601,107.322 223.348 C 110.369 224.200,401.631 224.200,404.678 223.348 C 407.345 222.601,412.620 218.223,414.033 215.583 C 415.903 212.088,416.298 208.088,415.192 203.826 C 413.904 198.862,411.320 195.785,406.613 193.613 C 403.337 192.101,397.309 192.037,256.000 192.037 C 114.691 192.037,108.663 192.101,105.387 193.613 M105.387 289.420 C 98.040 293.473,94.820 300.512,96.808 308.174 C 98.096 313.138,100.680 316.215,105.387 318.387 C 108.663 319.899,114.691 319.963,256.000 319.963 C 397.309 319.963,403.337 319.899,406.613 318.387 C 408.491 317.521,410.943 315.817,412.063 314.601 C 414.072 312.419,416.645 304.694,416.032 302.687 C 415.858 302.118,415.486 300.604,415.206 299.322 C 414.582 296.472,410.198 291.340,406.956 289.663 C 404.894 288.597,384.075 288.430,255.829 288.453 C 149.021 288.471,106.612 288.744,105.387 289.420 " stroke="none" fill="black" fill-rule="evenodd"></path></svg>