<svg xmlns="http://www.w3.org/2000/svg" width="512" height="512" viewBox="0 0 512 512"><path d="M92.587 92.487 C 76.032 100.313,76.162 123.685,92.806 131.959 C 95.886 133.490,101.709 133.547,256.000 133.547 C 410.291 133.547,416.114 133.490,419.194 131.959 C 423.950 129.595,428.910 124.191,430.437 119.711 C 434.247 108.529,429.725 97.362,419.413 92.487 L 415.147 90.470 256.000 90.470 L 96.853 90.470 92.587 92.487 M96.421 186.819 C 89.532 188.930,83.596 194.323,81.548 200.333 C 77.043 213.555,84.360 226.513,97.980 229.434 C 104.391 230.809,407.609 230.809,414.020 229.434 C 427.640 226.513,434.957 213.555,430.452 200.333 C 428.893 195.757,424.631 191.067,419.579 188.366 L 416.000 186.453 257.280 186.309 C 169.984 186.229,97.598 186.459,96.421 186.819 M92.587 284.487 C 76.032 292.313,76.162 315.685,92.806 323.959 C 95.886 325.490,101.709 325.547,256.000 325.547 C 410.291 325.547,416.114 325.490,419.194 323.959 C 423.950 321.595,428.910 316.191,430.437 311.711 C 434.247 300.529,429.725 289.362,419.413 284.487 L 415.147 282.470 256.000 282.470 L 96.853 282.470 92.587 284.487 M96.421 378.819 C 89.532 380.930,83.596 386.323,81.548 392.333 C 77.043 405.555,84.360 418.513,97.980 421.434 C 104.391 422.809,407.609 422.809,414.020 421.434 C 427.640 418.513,434.957 405.555,430.452 392.333 C 428.893 387.757,424.631 383.067,419.579 380.366 L 416.000 378.453 257.280 378.309 C 169.984 378.229,97.598 378.459,96.421 378.819 " stroke="none" fill="black" fill-rule="evenodd"></path></svg>