<svg xmlns="http://www.w3.org/2000/svg" width="512" height="512" viewBox="0 0 512 512"><path d="M89.157 97.616 C 85.535 99.194,81.256 104.364,80.577 107.982 C 79.136 115.663,82.555 123.090,88.960 126.190 L 92.699 128.000 256.000 128.000 L 419.301 128.000 423.040 126.190 C 429.445 123.090,432.864 115.663,431.423 107.982 C 430.726 104.269,426.411 99.149,422.654 97.580 C 418.613 95.891,93.035 95.926,89.157 97.616 M88.890 193.831 C 82.100 197.192,78.545 206.119,81.015 213.604 C 82.487 218.063,87.666 222.347,92.956 223.481 C 99.197 224.820,412.803 224.820,419.044 223.481 C 424.334 222.347,429.513 218.063,430.985 213.604 C 433.470 206.075,429.875 197.119,423.040 193.810 L 419.301 192.000 255.944 192.001 L 92.587 192.001 88.890 193.831 M89.157 289.616 C 85.535 291.194,81.256 296.364,80.577 299.982 C 79.136 307.663,82.555 315.090,88.960 318.190 L 92.699 320.000 256.000 320.000 L 419.301 320.000 423.040 318.190 C 429.445 315.090,432.864 307.663,431.423 299.982 C 430.726 296.269,426.411 291.149,422.654 289.580 C 418.613 287.891,93.035 287.926,89.157 289.616 M88.890 385.831 C 82.100 389.192,78.545 398.119,81.015 405.604 C 82.487 410.063,87.666 414.347,92.956 415.481 C 99.197 416.820,412.803 416.820,419.044 415.481 C 424.334 414.347,429.513 410.063,430.985 405.604 C 433.470 398.075,429.875 389.119,423.040 385.810 L 419.301 384.000 255.944 384.001 L 92.587 384.001 88.890 385.831 " stroke="none" fill="black" fill-rule="evenodd"></path></svg>