<svg xmlns="http://www.w3.org/2000/svg" width="512" height="512" viewBox="0 0 512 512"><path d="M92.587 156.487 C 76.032 164.313,76.162 187.685,92.806 195.959 C 95.886 197.490,101.709 197.547,256.000 197.547 C 410.291 197.547,416.114 197.490,419.194 195.959 C 423.950 193.595,428.910 188.191,430.437 183.711 C 434.247 172.529,429.725 161.362,419.413 156.487 L 415.147 154.470 256.000 154.470 L 96.853 154.470 92.587 156.487 M97.559 234.698 C 92.839 235.640,89.752 237.330,86.448 240.781 C 77.758 249.857,78.319 263.914,87.709 272.379 C 94.614 278.604,82.533 278.187,256.000 278.187 C 429.467 278.187,417.386 278.604,424.291 272.379 C 436.213 261.632,433.196 242.365,418.560 235.777 C 415.316 234.316,407.366 234.234,258.133 234.113 C 171.776 234.044,99.517 234.307,97.559 234.698 M96.421 314.819 C 89.532 316.930,83.596 322.323,81.548 328.333 C 77.043 341.555,84.360 354.513,97.980 357.434 C 104.391 358.809,407.609 358.809,414.020 357.434 C 427.640 354.513,434.957 341.555,430.452 328.333 C 428.893 323.757,424.631 319.067,419.579 316.366 L 416.000 314.453 257.280 314.309 C 169.984 314.229,97.598 314.459,96.421 314.819 " stroke="none" fill="black" fill-rule="evenodd"></path></svg>