<svg xmlns="http://www.w3.org/2000/svg" width="512" height="512" viewBox="0 0 512 512"><path d="M89.157 161.616 C 85.535 163.194,81.256 168.364,80.577 171.982 C 79.136 179.663,82.555 187.090,88.960 190.190 L 92.699 192.000 256.000 192.000 L 419.301 192.000 423.040 190.190 C 429.445 187.090,432.864 179.663,431.423 171.982 C 430.726 168.269,426.411 163.149,422.654 161.580 C 418.613 159.891,93.035 159.926,89.157 161.616 M94.293 240.200 C 93.824 240.360,92.391 240.722,91.109 241.004 C 89.827 241.287,87.370 242.754,85.649 244.266 C 76.700 252.122,78.917 265.452,90.027 270.596 C 93.311 272.116,99.570 272.176,256.000 272.176 C 412.430 272.176,418.689 272.116,421.973 270.596 C 428.275 267.678,431.787 262.455,431.787 256.000 C 431.787 249.968,428.571 244.810,422.827 241.630 C 420.469 240.325,407.426 240.201,257.707 240.062 C 168.299 239.978,94.763 240.041,94.293 240.200 M88.890 321.831 C 82.100 325.192,78.545 334.119,81.015 341.604 C 82.487 346.063,87.666 350.347,92.956 351.481 C 99.197 352.820,412.803 352.820,419.044 351.481 C 424.334 350.347,429.513 346.063,430.985 341.604 C 433.470 334.075,429.875 325.119,423.040 321.810 L 419.301 320.000 255.944 320.001 L 92.587 320.001 88.890 321.831 " stroke="none" fill="black" fill-rule="evenodd"></path></svg>