<svg xmlns="http://www.w3.org/2000/svg" width="512" height="512" viewBox="0 0 512 512"><path d="M313.600 105.449 C 308.216 108.249,303.851 114.452,303.805 119.368 C 303.751 125.225,305.760 128.313,317.331 140.160 L 328.790 151.893 236.223 151.893 C 175.303 151.893,140.478 152.213,134.360 152.829 C 89.485 157.345,53.692 192.729,48.699 237.512 C 47.203 250.930,47.530 266.031,49.404 270.080 C 54.212 280.464,66.555 283.263,74.561 275.786 C 79.279 271.378,80.173 267.973,80.201 254.293 C 80.215 247.488,80.630 239.431,81.123 236.390 C 84.642 214.700,102.298 194.531,124.349 187.010 L 130.987 184.747 229.930 184.513 L 328.873 184.278 317.274 196.064 C 305.501 208.024,303.770 210.683,303.810 216.747 C 303.829 219.665,306.541 225.308,309.019 227.586 C 311.751 230.097,316.745 232.111,320.186 232.088 C 326.068 232.049,329.378 229.317,355.979 202.546 C 384.632 173.709,384.844 173.421,383.617 164.992 C 383.025 160.925,382.545 160.382,356.014 133.768 C 341.163 118.872,327.791 106.104,326.297 105.395 C 322.791 103.731,316.854 103.756,313.600 105.449 M441.600 233.400 C 433.445 237.796,431.829 241.829,431.805 257.845 C 431.769 282.402,426.953 295.143,412.185 309.760 C 401.222 320.611,389.181 326.116,372.958 327.695 C 363.692 328.597,183.467 328.844,183.467 327.955 C 183.467 327.637,188.610 322.151,194.896 315.764 C 203.725 306.794,206.539 303.382,207.265 300.769 C 208.568 296.076,208.426 293.670,206.609 289.671 C 202.768 281.215,192.532 277.705,184.349 282.039 C 183.160 282.669,170.412 295.020,156.021 309.485 C 127.365 338.291,127.155 338.575,128.383 347.008 C 128.975 351.072,129.471 351.635,156.013 378.330 C 171.007 393.412,184.262 406.044,185.786 406.704 C 189.054 408.119,194.371 408.245,197.704 406.986 C 202.759 405.076,208.148 397.703,208.195 392.632 C 208.249 386.775,206.240 383.687,194.669 371.840 L 183.210 360.107 278.698 360.103 C 359.133 360.100,375.421 359.900,382.013 358.830 C 413.977 353.646,440.216 334.367,454.026 305.920 C 461.455 290.617,464.213 277.044,464.213 255.788 C 464.213 246.561,463.977 244.806,462.293 241.510 C 459.343 235.736,454.972 232.705,449.054 232.330 C 445.673 232.116,443.369 232.447,441.600 233.400 " stroke="none" fill-rule="evenodd" fill="black"></path></svg>