<svg xmlns="http://www.w3.org/2000/svg" width="512" height="512" viewBox="0 0 512 512"><path d="M297.387 81.555 C 291.241 84.752,288.183 89.551,288.183 96.000 C 288.183 102.539,292.271 108.683,298.082 110.879 C 299.650 111.471,313.874 111.787,339.041 111.787 L 377.598 111.787 244.906 244.482 L 112.213 377.177 111.787 337.709 C 111.487 309.943,111.066 297.734,110.367 296.533 C 108.815 293.866,104.771 290.332,102.131 289.334 C 98.812 288.080,92.652 288.198,89.346 289.580 C 85.681 291.111,81.273 296.246,80.646 299.715 C 80.369 301.250,80.254 329.447,80.391 362.375 L 80.640 422.242 83.221 425.431 C 88.691 432.188,84.367 431.787,151.694 431.787 C 200.733 431.787,212.183 431.572,214.427 430.612 C 220.936 427.827,224.980 419.718,223.396 412.628 C 222.411 408.216,220.965 406.034,217.045 403.043 L 213.895 400.640 174.359 400.213 L 134.823 399.787 267.518 267.094 L 400.213 134.402 400.213 172.959 C 400.213 198.071,400.529 212.353,401.119 213.918 C 403.242 219.550,409.594 223.744,416.000 223.744 C 422.406 223.744,428.758 219.550,430.881 213.918 C 431.488 212.307,431.787 191.832,431.787 151.795 C 431.787 98.428,431.640 91.785,430.404 89.344 C 428.440 85.466,426.696 83.678,423.074 81.829 C 420.056 80.289,417.107 80.214,359.927 80.219 C 307.251 80.223,299.635 80.386,297.387 81.555 " stroke="none" fill="black" fill-rule="evenodd"></path></svg>