<svg xmlns="http://www.w3.org/2000/svg" width="512" height="512" viewBox="0 0 512 512"><path d="M392.923 17.875 C 387.633 20.567,306.885 102.013,301.775 109.810 C 291.927 124.838,287.636 140.763,287.588 162.465 L 287.573 169.197 281.103 175.970 C 274.092 183.308,272.213 186.678,272.213 191.917 C 272.213 198.457,275.694 203.664,282.027 206.596 C 289.647 210.124,295.170 207.827,306.227 196.534 C 312.142 190.493,314.905 186.909,316.874 182.721 C 319.467 177.209,319.549 176.658,320.114 160.853 C 320.746 143.182,321.222 140.749,325.790 131.840 C 328.540 126.475,333.196 121.503,371.475 83.050 C 411.337 43.007,414.166 39.968,415.133 36.157 C 417.703 26.037,411.376 17.080,401.197 16.428 C 397.562 16.194,395.523 16.551,392.923 17.875 M53.839 32.193 C 47.278 33.430,37.707 44.302,31.487 57.582 C 15.387 91.956,22.816 140.577,51.024 185.459 C 63.195 204.823,70.536 212.895,127.261 269.288 C 154.775 296.641,172.164 313.278,175.586 315.525 C 189.089 324.388,208.286 328.056,223.573 324.693 C 234.418 322.308,236.600 322.981,246.448 331.753 C 256.786 340.960,257.067 341.499,257.828 353.571 C 258.603 365.861,260.624 373.127,265.239 380.222 C 269.548 386.846,363.661 482.635,369.983 486.831 C 376.206 490.962,381.172 493.078,388.073 494.541 C 417.558 500.789,445.921 482.033,451.888 452.342 C 454.432 439.684,451.524 424.412,444.617 414.159 C 442.536 411.069,369.768 337.724,253.269 221.293 C 89.244 57.362,64.845 33.295,61.867 32.497 C 58.365 31.559,57.396 31.522,53.839 32.193 M433.067 57.672 C 428.689 60.032,347.332 141.655,345.532 145.493 C 343.507 149.811,343.498 153.943,345.506 158.293 C 349.372 166.669,358.495 170.222,366.507 166.471 C 370.726 164.497,453.441 81.819,454.781 78.238 C 456.143 74.598,455.856 68.191,454.185 64.914 C 453.365 63.305,451.239 60.826,449.462 59.406 C 446.783 57.266,445.322 56.778,440.928 56.558 C 437.245 56.374,434.845 56.714,433.067 57.672 M419.065 434.718 C 423.474 444.967,418.501 457.173,408.004 461.864 C 402.886 464.151,395.415 464.081,390.495 461.700 C 387.730 460.361,374.170 447.096,340.046 412.349 C 314.379 386.214,292.649 363.399,291.756 361.649 C 290.578 359.340,290.129 356.647,290.119 351.821 C 290.099 343.161,288.241 334.580,284.892 327.680 C 282.807 323.386,280.027 319.991,272.580 312.649 C 256.856 297.145,248.852 292.798,234.667 292.058 C 229.321 291.779,223.891 292.093,218.723 292.982 C 209.508 294.566,203.866 293.951,196.420 290.550 C 192.236 288.639,185.754 282.536,149.027 245.928 C 91.707 188.794,86.187 182.589,74.320 161.936 C 65.803 147.115,60.182 132.550,57.154 117.454 C 54.349 103.472,55.248 81.880,58.920 75.019 C 59.859 73.265,70.995 84.223,238.576 251.803 C 391.625 404.851,417.495 431.068,419.065 434.718 M473.600 97.377 C 472.427 97.840,452.459 117.138,429.227 140.262 C 405.351 164.027,385.132 183.456,382.720 184.953 C 374.310 190.172,369.030 191.344,351.077 191.981 C 335.304 192.540,334.624 192.638,329.317 195.140 C 322.124 198.530,309.091 210.704,305.989 216.930 C 303.392 222.140,303.250 225.320,305.404 229.973 C 308.336 236.306,313.543 239.787,320.083 239.787 C 325.322 239.787,328.692 237.908,336.030 230.897 L 342.803 224.427 349.535 224.412 C 371.237 224.364,387.162 220.073,402.190 210.225 C 410.250 204.943,491.567 124.231,494.099 119.000 C 498.072 110.794,494.671 101.037,486.641 97.602 C 483.494 96.255,476.737 96.139,473.600 97.377 M119.467 314.716 C 117.355 316.103,95.245 337.731,70.333 362.779 C 27.320 406.027,24.884 408.642,21.941 414.720 C 17.351 424.201,15.965 431.202,16.451 442.453 C 17.124 458.042,21.739 468.639,32.526 479.367 C 43.555 490.336,53.940 494.875,69.547 495.549 C 80.795 496.035,87.794 494.650,97.280 490.062 C 103.403 487.100,106.001 484.653,157.254 433.563 C 186.720 404.191,211.872 378.655,213.148 376.816 C 215.112 373.984,215.466 372.593,215.463 367.718 C 215.461 362.590,215.180 361.617,212.882 358.778 C 211.464 357.026,208.976 354.881,207.352 354.010 C 203.780 352.094,196.306 351.907,193.024 353.652 C 191.757 354.325,167.488 378.167,139.093 406.632 C 110.699 435.098,86.123 459.256,84.480 460.316 C 75.048 466.406,62.543 464.668,54.762 456.187 C 49.971 450.966,48.483 447.232,48.440 440.326 C 48.373 429.767,47.304 431.066,97.243 381.013 C 147.087 331.055,145.696 332.753,143.500 324.544 C 141.470 316.953,136.530 312.978,128.539 312.505 C 123.898 312.230,122.872 312.481,119.467 314.716 " stroke="none" fill-rule="evenodd" fill="black"></path></svg>