<svg xmlns="http://www.w3.org/2000/svg" width="512" height="512" viewBox="0 0 512 512"><path d="M44.867 20.149 C 40.252 26.344,32.808 42.036,30.341 50.773 C 23.776 74.019,24.037 104.234,31.042 131.858 C 38.639 161.816,53.092 190.614,71.505 212.480 C 82.226 225.212,178.679 320.753,185.046 324.948 C 190.731 328.693,197.287 331.093,201.832 331.093 C 205.631 331.093,215.992 328.316,223.809 325.203 C 233.997 321.145,234.826 321.326,244.185 329.665 C 257.752 341.752,257.366 341.096,257.914 352.992 C 258.661 369.205,262.469 378.022,274.092 390.449 C 279.578 396.314,382.813 495.185,383.858 495.574 C 384.174 495.692,400.558 479.660,420.267 459.947 L 456.101 424.105 389.112 356.906 C 352.268 319.946,317.138 284.617,311.044 278.397 L 299.965 267.087 321.154 245.886 L 342.342 224.685 355.412 224.121 C 378.753 223.115,394.139 217.596,409.600 204.686 C 411.712 202.922,431.979 182.664,454.637 159.669 L 495.834 117.859 484.987 106.663 L 474.140 95.467 432.266 137.334 L 390.392 179.202 381.648 170.459 L 372.905 161.715 414.665 119.898 L 456.426 78.080 444.893 67.057 L 433.359 56.034 391.822 97.565 L 350.285 139.095 341.541 130.352 L 332.798 121.608 374.666 79.734 L 416.533 37.860 405.337 27.013 L 394.141 16.166 352.331 57.363 C 329.336 80.021,309.078 100.288,307.314 102.400 C 294.089 118.238,288.910 132.786,287.860 157.042 L 287.314 169.659 266.112 190.848 L 244.910 212.038 230.188 197.543 C 222.091 189.570,177.781 145.457,131.721 99.513 L 47.974 15.978 44.867 20.149 M69.281 363.341 L 16.108 416.000 56.057 455.893 L 96.005 495.785 167.683 424.010 C 215.243 376.385,238.642 352.392,237.227 352.702 C 198.672 361.146,186.649 360.997,170.038 351.867 C 161.966 347.431,152.909 339.864,137.316 324.530 C 129.533 316.876,123.005 310.629,122.810 310.648 C 122.614 310.667,98.526 334.379,69.281 363.341 " stroke="none" fill-rule="evenodd" fill="black"></path></svg>