<svg xmlns="http://www.w3.org/2000/svg" width="512" height="512" viewBox="0 0 512 512"><path d="M392.938 17.915 C 388.375 20.174,307.011 101.780,302.323 108.800 C 292.670 123.252,288.941 135.257,288.001 154.902 C 287.709 160.991,287.275 166.933,287.036 168.107 C 286.521 170.630,246.915 210.773,244.940 210.773 C 244.228 210.773,203.897 171.076,155.316 122.556 C 59.012 26.375,63.664 30.590,55.305 31.927 C 50.000 32.775,46.508 35.329,40.738 42.578 C 34.305 50.660,28.840 61.840,25.888 72.960 C 23.857 80.607,23.614 83.089,23.544 96.853 C 23.457 114.190,24.669 122.695,29.525 138.824 C 36.469 161.886,48.456 184.217,65.399 205.653 C 73.530 215.941,168.993 311.238,175.158 315.222 C 190.132 324.897,207.255 327.897,226.669 324.246 C 232.088 323.227,233.161 323.258,236.509 324.537 C 241.041 326.267,254.348 338.311,256.206 342.363 C 256.939 343.963,257.716 349.034,258.008 354.133 C 258.968 370.890,262.425 378.304,275.832 392.358 C 281.072 397.852,303.426 420.708,325.507 443.149 C 368.489 486.833,370.758 488.800,382.909 492.905 C 413.965 503.395,446.903 483.310,452.286 450.600 C 454.254 438.643,451.217 424.273,444.508 413.800 C 441.994 409.874,421.184 388.474,371.113 338.325 C 332.675 299.828,301.227 267.753,301.227 267.048 C 301.227 265.083,341.378 225.478,343.893 224.962 C 345.067 224.721,351.179 224.282,357.475 223.985 C 375.780 223.123,389.487 218.864,402.936 209.861 C 410.359 204.893,491.833 123.681,494.107 118.985 C 497.966 111.012,494.910 101.720,487.082 97.630 C 484.371 96.214,477.284 96.049,473.869 97.323 C 472.548 97.816,455.147 114.476,435.200 134.346 C 415.253 154.216,398.049 170.925,396.968 171.477 C 391.917 174.059,384.389 171.893,381.405 166.999 C 379.552 163.958,379.190 157.968,380.683 155.037 C 381.205 154.012,398.061 136.661,418.140 116.480 C 453.323 81.118,454.679 79.635,455.511 75.621 C 457.089 68.008,452.857 59.802,446.024 57.226 C 442.597 55.934,437.368 56.106,433.679 57.634 C 431.520 58.528,418.921 70.491,394.240 95.084 C 355.189 133.996,355.037 134.119,348.373 132.324 C 341.360 130.436,337.791 122.770,340.527 115.469 C 341.021 114.148,357.684 96.747,377.554 76.800 C 397.424 56.853,414.162 39.592,414.749 38.442 C 416.229 35.544,416.086 28.209,414.491 25.153 C 410.275 17.075,400.957 13.946,392.938 17.915 M72.474 360.747 C 29.958 403.387,25.615 408.003,22.735 413.610 C 13.217 432.140,14.244 455.286,25.274 470.821 C 36.261 486.295,50.944 494.637,68.809 495.557 C 79.667 496.115,87.779 494.445,97.525 489.643 C 104.427 486.242,105.454 485.270,165.333 425.494 C 220.438 370.483,226.133 364.543,226.133 362.076 C 226.133 360.579,225.653 359.043,225.067 358.664 C 224.480 358.284,218.624 357.918,212.053 357.849 C 199.223 357.716,190.609 356.371,180.062 352.853 C 165.003 347.830,153.884 340.534,138.126 325.333 C 126.784 314.394,126.285 314.027,122.731 314.027 L 119.059 314.027 72.474 360.747 " stroke="none" fill-rule="evenodd" fill="black"></path></svg>