<svg xmlns="http://www.w3.org/2000/svg" width="512" height="512" viewBox="0 0 512 512"><path d="M456.677 145.996 C 454.563 147.070,452.006 149.346,450.704 151.313 C 448.460 154.701,448.419 155.024,447.888 173.589 C 447.185 198.147,445.377 206.767,437.758 221.878 C 433.416 230.487,428.676 237.039,421.255 244.687 C 410.759 255.503,399.629 262.584,385.510 267.427 C 371.320 272.295,374.418 272.203,224.467 272.208 L 86.694 272.213 106.379 252.373 C 127.529 231.057,128.606 229.538,127.776 222.177 C 126.652 212.205,115.596 205.548,106.082 209.114 C 103.239 210.179,35.479 277.456,33.525 281.153 C 31.799 284.420,31.801 291.586,33.529 294.847 C 35.498 298.562,103.250 365.841,106.082 366.894 C 115.620 370.439,126.652 363.792,127.776 353.823 C 128.606 346.463,127.528 344.942,106.393 323.641 L 86.722 303.816 230.881 303.560 C 391.782 303.275,377.319 303.827,396.800 297.234 C 413.732 291.505,428.042 282.686,441.423 269.733 C 464.698 247.204,477.203 219.982,479.681 186.453 C 480.923 169.640,480.395 157.544,478.227 153.176 C 474.247 145.154,464.637 141.952,456.677 145.996 " stroke="none" fill-rule="evenodd" fill="black"></path></svg>