<svg xmlns="http://www.w3.org/2000/svg" width="512" height="512" viewBox="0 0 512 512"><path d="M41.387 145.507 C 37.898 147.387,35.088 150.111,33.479 153.173 C 30.529 158.784,31.470 191.684,35.004 206.507 C 41.127 232.190,52.613 252.536,70.908 270.108 C 84.073 282.752,98.483 291.578,115.200 297.234 C 134.681 303.827,120.218 303.275,281.119 303.560 L 425.278 303.816 405.607 323.641 C 384.472 344.942,383.394 346.463,384.224 353.823 C 385.348 363.792,396.380 370.439,405.918 366.894 C 409.594 365.527,477.662 297.180,478.809 293.702 C 480.001 290.092,479.999 285.903,478.805 282.283 C 477.655 278.800,409.620 210.501,405.918 209.114 C 396.404 205.548,385.348 212.205,384.224 222.177 C 383.394 229.538,384.471 231.057,405.621 252.373 L 425.306 272.213 287.533 272.208 C 137.582 272.203,140.680 272.295,126.490 267.427 C 112.371 262.584,101.241 255.503,90.745 244.687 C 82.601 236.294,77.871 229.479,72.906 218.985 C 66.157 204.719,64.000 192.931,64.000 170.318 C 64.000 154.455,62.937 150.913,56.993 146.979 C 52.712 144.146,45.222 143.439,41.387 145.507 " stroke="none" fill-rule="evenodd" fill="black"></path></svg>