<svg xmlns="http://www.w3.org/2000/svg" width="512" height="512" viewBox="0 0 512 512"><path d="M392.677 146.044 C 388.162 148.279,384.795 153.112,384.224 158.177 C 383.394 165.538,384.471 167.057,405.621 188.373 L 425.306 208.213 285.749 208.213 C 190.142 208.213,143.932 208.506,139.016 209.142 C 113.069 212.499,89.922 223.630,70.908 241.892 C 52.613 259.464,41.127 279.810,35.004 305.493 C 31.443 320.430,30.530 353.200,33.516 358.913 C 38.068 367.622,48.894 370.380,57.131 364.929 C 62.920 361.098,64.000 357.444,64.000 341.682 C 64.000 319.024,66.155 307.286,72.951 292.921 C 78.241 281.738,84.416 273.245,93.473 264.696 C 108.865 250.167,125.462 242.625,146.347 240.668 C 152.328 240.107,204.626 239.788,290.520 239.787 L 425.306 239.787 405.621 259.627 C 384.471 280.943,383.394 282.462,384.224 289.823 C 385.348 299.792,396.380 306.439,405.918 302.894 C 409.594 301.527,477.662 233.180,478.809 229.702 C 480.001 226.092,479.999 221.903,478.805 218.283 C 477.655 214.800,409.620 146.501,405.918 145.114 C 402.098 143.682,396.679 144.063,392.677 146.044 " stroke="none" fill-rule="evenodd" fill="black"></path></svg>