<svg xmlns="http://www.w3.org/2000/svg" width="512" height="512" viewBox="0 0 512 512"><path d="M105.387 145.537 C 102.100 147.223,35.315 213.783,33.529 217.153 C 31.799 220.417,31.799 227.583,33.529 230.847 C 35.498 234.562,103.250 301.841,106.082 302.894 C 115.620 306.439,126.652 299.792,127.776 289.823 C 128.606 282.462,127.529 280.943,106.379 259.627 L 86.694 239.787 221.480 239.787 C 307.374 239.788,359.672 240.107,365.653 240.668 C 386.538 242.625,403.135 250.167,418.527 264.696 C 427.584 273.245,433.759 281.738,439.049 292.921 C 445.845 307.286,448.000 319.024,448.000 341.682 C 448.000 353.816,448.197 355.709,449.810 359.040 C 453.119 365.875,462.075 369.470,469.604 366.985 C 474.063 365.513,478.347 360.334,479.481 355.044 C 481.437 345.925,480.031 318.573,476.922 305.253 C 471.073 280.199,459.302 259.382,441.092 241.892 C 422.078 223.630,398.931 212.499,372.984 209.142 C 368.068 208.506,321.858 208.213,226.251 208.213 L 86.694 208.213 106.379 188.373 C 127.529 167.057,128.606 165.538,127.776 158.177 C 126.615 147.877,114.338 140.946,105.387 145.537 " stroke="none" fill-rule="evenodd" fill="black"></path></svg>