<svg xmlns="http://www.w3.org/2000/svg" width="512" height="512" viewBox="0 0 512 512"><path d="M236.255 17.456 C 169.248 27.048,117.376 82.538,112.759 149.569 C 109.913 190.887,124.094 230.006,152.682 259.694 C 174.419 282.267,202.027 296.772,233.387 302.094 C 243.039 303.733,246.530 303.918,260.267 303.522 C 277.702 303.020,286.326 301.574,301.452 296.618 C 344.054 282.657,378.338 248.461,392.558 205.743 C 398.544 187.760,399.702 180.345,399.702 160.000 C 399.702 139.656,398.544 132.240,392.560 114.262 C 376.289 65.385,334.710 28.902,283.707 18.751 C 271.708 16.362,248.349 15.725,236.255 17.456 M276.799 82.742 C 305.439 90.486,326.876 112.705,334.265 142.304 C 336.253 150.269,336.240 169.779,334.242 177.795 C 327.378 205.325,307.832 226.943,281.940 235.644 C 271.795 239.053,264.084 240.065,252.160 239.552 C 232.366 238.700,215.548 231.489,201.078 217.652 C 193.549 210.452,188.633 203.536,183.969 193.580 C 178.158 181.175,177.085 175.945,177.085 160.000 C 177.085 144.055,178.158 138.825,183.969 126.420 C 195.123 102.610,215.104 86.915,241.180 81.481 C 249.656 79.715,268.007 80.365,276.799 82.742 M249.131 112.670 C 230.321 115.527,214.609 129.720,209.907 148.102 C 207.761 156.495,207.761 163.505,209.907 171.898 C 216.144 196.284,241.177 212.134,265.387 207.027 C 282.992 203.313,296.192 191.475,302.122 174.080 C 303.579 169.807,304.013 166.573,304.013 160.000 C 304.013 146.639,299.472 135.557,290.178 126.235 C 279.669 115.694,263.784 110.445,249.131 112.670 M105.538 264.320 C 99.113 274.586,33.652 393.579,32.712 396.703 C 30.693 403.411,33.677 410.116,40.396 413.965 L 43.947 416.000 88.320 416.427 L 132.693 416.853 135.447 418.817 C 137.388 420.202,144.025 430.511,157.969 453.804 C 168.842 471.966,178.665 488.078,179.798 489.608 C 185.622 497.468,197.003 497.701,204.069 490.105 C 206.699 487.277,273.067 342.024,273.067 339.094 C 273.067 338.035,272.587 336.863,272.000 336.491 C 271.413 336.119,266.489 335.937,261.057 336.086 C 221.270 337.176,179.382 323.410,148.308 299.033 C 138.859 291.620,126.771 279.628,118.476 269.440 C 110.595 259.759,108.831 259.061,105.538 264.320 M394.610 268.541 C 377.679 290.408,353.064 309.619,327.325 321.056 C 322.123 323.367,316.834 326.283,315.572 327.536 C 313.028 330.061,274.773 413.417,274.773 416.435 C 274.773 417.416,281.937 433.973,290.692 453.229 C 301.731 477.507,307.413 489.042,309.227 490.855 C 315.921 497.549,325.292 497.423,331.601 490.555 C 333.054 488.974,343.279 472.512,354.323 453.973 C 372.296 423.805,374.763 420.065,377.825 418.347 C 381.241 416.429,381.302 416.427,422.943 416.406 C 448.459 416.393,466.130 416.043,468.480 415.505 C 476.020 413.777,481.403 405.043,479.634 397.408 C 478.805 393.830,478.627 393.500,435.776 316.160 C 400.161 251.880,404.038 256.365,394.610 268.541 " stroke="none" fill-rule="evenodd" fill="black"></path></svg>