<svg xmlns="http://www.w3.org/2000/svg" width="512" height="512" viewBox="0 0 512 512"><path d="M238.461 17.077 C 203.860 21.468,172.328 38.163,148.204 64.866 C 130.143 84.859,117.853 111.194,113.368 139.520 C 111.975 148.311,111.975 171.689,113.368 180.480 C 120.880 227.918,149.748 267.763,191.573 288.424 C 204.982 295.048,214.493 298.397,228.267 301.344 C 236.472 303.099,239.962 303.352,256.000 303.352 C 272.038 303.352,275.528 303.099,283.733 301.344 C 313.456 294.984,337.782 281.730,358.570 260.570 C 367.445 251.536,369.853 248.578,376.526 238.507 C 387.528 221.904,395.217 201.707,398.619 180.480 C 399.221 176.725,399.713 167.509,399.713 160.000 C 399.713 145.918,398.768 137.641,395.820 125.907 C 385.261 83.875,357.513 49.617,318.720 30.716 C 298.391 20.810,283.101 17.158,259.840 16.649 C 251.392 16.465,241.772 16.657,238.461 17.077 M277.693 83.158 C 304.132 90.982,324.083 110.375,332.205 136.146 C 340.859 163.605,333.932 193.516,314.078 214.421 C 291.276 238.428,258.855 246.072,227.889 234.742 C 188.597 220.365,167.134 176.335,179.808 136.107 C 188.806 107.548,212.942 86.489,242.910 81.051 C 245.181 80.639,252.224 80.437,258.560 80.603 C 267.912 80.848,271.513 81.329,277.693 83.158 M248.621 112.665 C 238.573 114.017,228.565 119.505,220.773 127.937 C 199.072 151.419,206.382 189.240,235.315 203.176 C 266.969 218.422,303.787 195.206,303.787 160.000 C 303.787 130.665,278.175 108.689,248.621 112.665 M396.197 266.034 C 388.988 275.645,374.638 290.432,365.227 297.948 C 353.546 307.278,336.439 317.224,322.133 323.004 C 318.848 324.332,315.702 325.831,315.142 326.335 C 314.206 327.180,273.931 414.237,273.911 415.460 C 273.894 416.502,318.554 511.147,319.061 511.143 C 319.343 511.140,332.437 489.831,348.160 463.789 L 376.747 416.440 434.225 416.433 C 488.609 416.427,491.672 416.346,491.141 414.933 C 490.712 413.792,403.962 258.014,403.232 257.074 C 403.145 256.961,399.979 260.993,396.197 266.034 M65.073 335.561 C 41.063 378.395,21.166 414.112,20.858 414.933 C 20.328 416.346,23.391 416.427,77.775 416.433 L 135.253 416.440 163.840 463.789 C 179.563 489.831,192.655 511.140,192.934 511.143 C 193.469 511.147,274.773 337.112,274.773 335.963 C 274.773 335.597,269.877 335.550,263.893 335.859 C 222.301 338.007,178.487 323.515,145.383 296.660 C 136.502 289.456,122.027 274.414,115.286 265.387 C 112.308 261.397,109.613 258.032,109.299 257.908 C 108.985 257.784,89.083 292.728,65.073 335.561 " stroke="none" fill-rule="evenodd" fill="black"></path></svg>