<svg xmlns="http://www.w3.org/2000/svg" width="512" height="512" viewBox="0 0 512 512"><path d="M242.773 16.706 C 225.226 19.147,217.743 20.840,206.507 24.912 C 176.501 35.786,149.898 57.644,132.973 85.333 C 127.822 93.760,126.833 95.770,122.361 106.897 C 115.341 124.363,112.301 140.412,112.301 160.000 C 112.301 180.024,115.384 195.892,122.846 214.271 L 127.066 224.667 80.218 308.984 C 54.451 355.358,32.961 394.815,32.463 396.665 C 31.965 398.516,31.720 400.552,31.920 401.189 C 32.120 401.826,32.514 403.396,32.794 404.678 C 33.428 407.571,37.779 412.621,41.300 414.550 C 43.697 415.863,48.248 416.000,89.547 416.000 L 135.148 416.000 156.759 452.267 C 168.645 472.213,179.409 489.644,180.679 491.002 C 186.880 497.631,197.533 497.414,203.571 490.537 C 205.182 488.702,215.462 467.116,230.860 433.237 C 244.447 403.340,255.760 378.880,256.000 378.880 C 256.240 378.880,267.553 403.340,281.140 433.237 C 296.538 467.116,306.818 488.702,308.429 490.537 C 314.467 497.414,325.136 497.631,331.312 491.002 C 332.577 489.644,343.339 472.213,355.228 452.267 L 376.843 416.000 422.448 416.000 C 472.571 416.000,470.346 416.221,475.416 410.743 C 479.719 406.093,480.944 401.270,479.217 395.772 C 478.584 393.756,457.116 354.312,431.510 308.118 L 384.954 224.130 386.303 221.078 C 392.416 207.241,396.322 194.227,398.617 180.053 C 399.998 171.525,399.984 148.980,398.592 139.947 C 391.194 91.920,362.503 52.413,319.363 30.848 C 307.708 25.022,295.018 20.916,280.335 18.221 C 273.743 17.011,248.035 15.975,242.773 16.706 M276.053 50.047 C 304.994 54.766,332.674 73.153,349.679 98.954 C 369.913 129.654,373.445 169.794,358.901 203.774 C 344.282 237.928,314.277 262.271,277.525 269.793 C 264.890 272.379,246.438 272.365,234.059 269.761 C 198.060 262.188,168.360 238.372,153.859 205.451 C 129.745 150.708,152.432 86.962,205.547 60.214 C 227.505 49.156,250.369 45.859,276.053 50.047 M242.910 81.051 C 212.933 86.491,188.782 107.632,179.727 136.360 C 169.090 170.110,182.243 206.813,212.053 226.563 C 219.669 231.608,226.202 234.559,236.104 237.425 C 241.753 239.060,244.796 239.355,256.000 239.355 C 267.204 239.355,270.247 239.060,275.896 237.425 C 290.826 233.103,302.445 226.383,312.601 216.193 C 325.593 203.160,333.314 186.956,335.530 168.075 C 338.225 145.099,329.457 120.555,312.602 103.892 C 305.433 96.806,300.202 93.006,291.654 88.677 C 280.593 83.076,271.890 80.952,258.560 80.603 C 252.224 80.437,245.181 80.639,242.910 81.051 M270.542 114.372 C 281.980 117.697,293.088 127.275,298.717 138.667 C 305.650 152.697,305.654 167.266,298.731 181.333 C 293.588 191.782,283.697 200.909,273.303 204.798 C 262.103 208.988,249.897 208.988,238.697 204.798 C 228.303 200.909,218.412 191.782,213.269 181.333 C 206.351 167.277,206.351 152.723,213.269 138.667 C 218.412 128.219,228.320 119.129,238.933 115.122 C 248.311 111.581,259.989 111.304,270.542 114.372 M168.125 273.914 C 183.907 285.977,201.910 294.734,220.587 299.434 C 230.302 301.879,242.729 303.779,249.031 303.783 C 252.004 303.785,254.308 304.118,254.151 304.523 C 253.995 304.927,239.512 336.815,221.967 375.383 L 190.067 445.508 175.481 421.029 C 159.848 394.793,156.690 390.763,148.684 386.832 L 143.787 384.427 109.867 384.177 C 91.211 384.039,75.947 383.660,75.947 383.335 C 75.947 383.009,91.978 353.877,111.573 318.597 L 147.198 254.450 154.453 261.729 C 158.442 265.733,164.595 271.216,168.125 273.914 M400.463 318.293 C 419.522 352.789,435.362 381.669,435.662 382.470 C 436.170 383.825,433.844 383.943,402.210 384.176 L 368.213 384.427 363.316 386.832 C 355.313 390.761,352.145 394.802,336.512 421.016 L 321.926 445.476 297.923 392.684 C 284.721 363.648,273.926 339.544,273.933 339.119 C 273.966 337.219,291.550 300.055,292.693 299.469 C 293.397 299.109,297.237 297.780,301.227 296.517 C 321.466 290.106,341.891 277.482,357.547 261.708 C 361.536 257.688,365.027 254.663,365.305 254.986 C 365.583 255.309,381.404 283.797,400.463 318.293 " stroke="none" fill-rule="evenodd" fill="black"></path></svg>