<svg xmlns="http://www.w3.org/2000/svg" width="512" height="512" viewBox="0 0 512 512"><path d="M413.675 33.687 C 337.080 44.568,242.140 93.942,191.233 149.370 C 186.258 154.787,179.327 162.755,175.832 167.076 L 169.477 174.933 161.505 174.933 C 114.213 174.933,78.353 195.932,54.249 237.741 C 43.534 256.326,32.181 291.464,32.202 305.978 C 32.219 317.823,40.816 327.973,52.719 330.202 C 55.750 330.770,64.349 330.135,87.467 327.636 C 104.363 325.810,119.413 324.140,120.912 323.926 C 123.587 323.543,123.655 323.619,124.556 327.955 C 126.626 337.913,128.556 340.500,149.913 361.938 C 171.278 383.382,173.920 385.380,183.528 387.350 C 188.009 388.269,188.266 388.458,187.997 390.642 C 187.840 391.917,186.181 407.082,184.310 424.342 C 181.577 449.564,181.080 456.487,181.781 459.615 C 184.460 471.568,194.324 479.781,206.022 479.798 C 217.053 479.814,246.118 471.531,262.934 463.579 C 311.653 440.540,337.067 401.617,337.067 350.038 L 337.067 342.462 344.476 336.591 C 383.365 305.772,417.210 261.707,443.378 207.822 C 472.616 147.619,485.943 86.437,477.544 50.978 C 475.426 42.036,470.106 36.688,461.009 34.358 C 454.005 32.564,424.521 32.146,413.675 33.687 M343.893 126.678 C 364.533 132.255,381.885 150.308,386.231 170.727 C 388.337 180.623,387.480 193.874,384.150 202.900 C 372.498 234.481,337.589 250.339,307.087 237.909 C 290.146 231.005,276.629 215.665,272.189 198.307 C 270.110 190.174,269.934 176.666,271.814 169.353 C 277.503 147.213,294.936 130.574,317.440 125.805 C 324.066 124.401,337.051 124.830,343.893 126.678 M321.707 157.761 C 314.023 160.287,307.654 165.850,304.486 172.800 C 301.750 178.804,301.785 188.129,304.566 194.364 C 307.083 200.007,314.194 206.675,319.695 208.549 C 334.134 213.469,349.710 205.695,354.138 191.358 C 356.263 184.477,356.263 182.457,354.138 175.575 C 352.066 168.866,347.613 163.500,341.243 160.033 C 337.590 158.045,335.451 157.514,330.273 157.312 C 326.735 157.173,322.880 157.375,321.707 157.761 M99.171 337.936 C 86.626 341.223,73.194 350.375,66.747 360.029 C 57.719 373.550,51.221 400.624,48.594 435.673 C 47.445 451.000,48.063 454.450,52.806 459.194 C 57.550 463.937,61.000 464.555,76.327 463.406 C 107.168 461.094,132.310 455.742,146.824 448.398 C 159.305 442.083,169.737 428.480,174.058 412.884 C 177.715 399.687,175.179 391.631,166.183 387.873 C 162.106 386.169,156.768 386.202,153.386 387.950 C 151.907 388.715,145.805 392.600,139.826 396.583 C 127.276 404.943,124.092 405.851,117.523 402.945 C 112.107 400.549,108.861 395.561,108.861 389.632 C 108.861 385.640,109.596 383.955,116.830 371.379 C 125.325 356.610,126.544 352.810,124.638 347.035 C 121.412 337.261,113.092 334.288,99.171 337.936 " stroke="none" fill-rule="evenodd" fill="black"></path></svg>