<svg xmlns="http://www.w3.org/2000/svg" width="512" height="512" viewBox="0 0 512 512"><path d="M418.133 33.320 C 370.361 39.146,311.670 61.522,260.693 93.342 C 226.329 114.793,198.719 138.814,175.985 167.040 L 169.627 174.933 163.534 174.936 C 127.500 174.953,99.092 185.928,76.430 208.585 C 58.777 226.235,46.071 249.097,37.654 278.354 C 32.069 297.767,30.987 308.393,33.919 315.021 C 36.119 319.995,41.186 325.618,45.408 327.772 C 52.057 331.165,54.815 331.156,87.028 327.646 C 103.696 325.830,118.746 324.135,120.473 323.878 L 123.612 323.413 124.612 328.320 C 126.546 337.820,128.576 340.529,149.593 361.660 C 171.633 383.819,173.663 385.273,186.069 387.775 L 188.244 388.213 184.564 420.880 C 182.539 438.847,181.078 455.213,181.316 457.251 C 182.780 469.777,193.301 479.546,205.349 479.565 C 218.801 479.586,246.573 471.431,266.305 461.666 C 299.114 445.428,321.209 421.196,330.931 390.789 C 334.563 379.427,336.196 369.420,336.802 354.806 L 337.323 342.252 343.356 337.479 C 359.665 324.575,376.849 307.632,391.376 290.133 C 435.400 237.102,470.717 158.829,478.776 96.427 C 480.226 85.203,480.071 64.303,478.477 55.893 C 476.833 47.228,476.053 45.283,472.677 41.438 C 466.975 34.944,460.545 33.259,439.893 32.846 C 431.445 32.678,421.653 32.891,418.133 33.320 M447.261 65.749 C 448.596 67.685,447.471 90.411,445.468 101.973 C 437.797 146.244,415.806 199.011,387.142 241.920 C 366.336 273.065,345.839 295.199,317.989 316.596 C 304.283 327.126,304.641 326.362,304.637 345.086 C 304.632 367.509,302.450 379.101,295.724 392.439 C 285.594 412.525,265.651 428.754,238.461 439.037 C 232.012 441.475,214.918 446.456,214.485 446.022 C 214.337 445.875,215.938 430.235,218.042 411.268 C 220.145 392.300,221.867 375.166,221.867 373.193 C 221.867 368.630,220.654 365.437,217.759 362.377 C 213.867 358.264,211.218 357.421,199.841 356.676 L 189.155 355.976 172.620 339.442 L 156.086 322.907 155.394 312.246 C 154.569 299.517,153.353 296.381,147.821 292.717 C 144.761 290.690,142.984 290.133,139.576 290.133 C 137.187 290.133,119.693 291.837,100.700 293.920 C 81.708 296.003,66.067 297.604,65.942 297.479 C 65.817 297.354,66.503 294.241,67.467 290.561 C 78.214 249.530,100.795 221.107,130.133 211.681 C 140.680 208.292,148.555 207.361,166.675 207.357 C 186.657 207.353,183.849 208.922,199.501 189.013 C 227.119 153.883,263.992 125.219,313.173 100.646 C 359.160 77.668,407.703 63.595,438.457 64.322 C 444.279 64.460,446.636 64.842,447.261 65.749 M321.128 125.521 C 308.308 127.016,297.186 132.688,287.147 142.850 C 276.099 154.033,271.452 164.752,270.727 180.722 C 269.917 198.555,275.051 211.922,287.544 224.513 C 298.585 235.639,309.681 240.887,324.593 242.033 C 343.366 243.476,361.309 235.759,373.768 220.881 C 382.187 210.828,386.381 200.012,387.118 186.453 C 387.719 175.398,386.089 167.542,381.099 157.440 C 370.024 135.021,346.597 122.552,321.128 125.521 M341.211 160.016 C 349.816 164.699,354.941 173.131,355.087 182.843 C 355.313 197.866,345.372 208.766,330.563 209.733 C 322.574 210.255,317.128 208.448,311.535 203.419 C 305.323 197.835,302.521 191.606,302.560 183.472 C 302.596 175.932,304.461 171.052,309.392 165.594 C 315.023 159.361,321.097 156.952,330.273 157.312 C 335.440 157.514,337.592 158.046,341.211 160.016 M99.171 337.936 C 91.750 339.880,83.280 344.190,76.664 349.388 C 67.454 356.626,60.665 368.815,55.924 386.627 C 50.972 405.233,46.590 444.655,48.632 452.237 C 49.978 457.237,54.762 462.021,59.764 463.370 C 67.069 465.339,102.977 461.497,122.880 456.616 C 151.048 449.708,164.991 438.683,172.804 417.143 C 178.159 402.378,176.130 392.740,166.656 387.943 C 158.391 383.758,146.517 389.403,144.541 398.456 C 141.788 411.073,138.323 416.507,130.491 420.496 C 127.478 422.030,121.240 424.232,116.629 425.391 C 108.103 427.533,82.179 431.477,81.446 430.744 C 80.859 430.157,83.373 411.449,85.413 401.227 C 90.150 377.484,95.160 371.471,113.544 367.459 C 122.846 365.429,128.247 353.591,123.824 344.926 C 119.578 336.607,112.213 334.519,99.171 337.936 " stroke="none" fill-rule="evenodd" fill="black"></path></svg>