<svg xmlns="http://www.w3.org/2000/svg" width="512" height="512" viewBox="0 0 512 512"><path d="M429.477 33.739 C 367.943 41.654,286.323 78.364,231.246 122.896 C 210.791 139.435,189.725 161.381,175.453 181.017 L 171.342 186.674 160.476 186.233 C 128.691 184.944,104.242 192.385,82.460 209.978 C 59.645 228.405,41.317 262.084,33.783 299.425 C 31.910 308.705,31.788 310.330,32.788 312.722 C 34.301 316.343,38.010 319.147,41.288 319.147 C 42.750 319.147,63.102 317.022,86.514 314.425 C 109.926 311.829,129.188 309.813,129.317 309.945 C 129.446 310.078,129.970 315.093,130.481 321.089 C 130.991 327.086,132.006 333.422,132.736 335.169 C 134.618 339.676,170.627 375.777,175.982 378.526 C 179.261 380.209,182.028 380.737,190.743 381.344 C 196.642 381.755,201.616 382.239,201.797 382.420 C 201.978 382.600,200.049 401.558,197.511 424.548 C 194.972 447.537,192.886 468.017,192.874 470.059 C 192.857 473.157,193.333 474.250,195.755 476.672 C 199.301 480.218,201.950 480.379,213.988 477.780 C 267.706 466.183,305.488 437.859,319.466 398.706 C 323.912 386.253,325.377 376.525,325.630 357.774 L 325.862 340.508 334.329 334.131 C 376.062 302.694,411.344 258.432,439.518 202.167 C 459.817 161.631,472.620 123.345,478.014 87.051 C 480.605 69.616,480.317 47.488,477.367 37.425 C 476.431 34.230,466.102 32.402,449.707 32.529 C 443.371 32.578,434.267 33.123,429.477 33.739 M339.200 137.477 C 354.994 140.555,370.870 156.227,374.550 172.373 C 375.853 178.090,375.646 190.952,374.160 196.658 C 370.821 209.479,361.256 220.947,349.013 226.809 C 329.681 236.067,309.800 232.834,294.648 217.969 C 279.459 203.069,275.914 181.725,285.425 162.436 C 295.241 142.528,315.904 132.938,339.200 137.477 M101.475 337.512 C 91.179 340.012,79.940 346.623,72.780 354.392 C 60.295 367.936,51.699 403.430,48.178 455.979 L 47.614 464.386 56.021 463.822 C 99.885 460.883,130.119 454.824,148.676 445.256 C 160.242 439.292,169.675 427.093,173.840 412.714 C 176.007 405.233,176.298 401.066,174.763 399.531 C 173.216 397.984,169.409 398.303,167.767 400.117 C 165.301 402.843,156.277 406.339,146.973 408.174 C 139.351 409.677,137.315 409.788,132.498 408.963 C 112.883 405.603,100.166 388.166,103.177 368.757 C 104.286 361.608,108.568 349.369,111.441 345.136 C 112.570 343.472,113.493 341.245,113.493 340.186 C 113.493 336.077,110.308 335.368,101.475 337.512 " stroke="none" fill-rule="evenodd" fill="black"></path></svg>