<svg xmlns="http://www.w3.org/2000/svg" width="512" height="512" viewBox="0 0 512 512"><path d="M169.387 17.500 C 167.979 18.263,165.958 19.701,164.896 20.696 C 162.200 23.221,152.034 39.030,147.251 48.132 C 143.988 54.344,143.463 55.925,144.376 56.790 C 144.991 57.373,149.909 59.058,155.307 60.536 C 160.704 62.014,171.145 65.255,178.510 67.738 L 191.900 72.253 201.977 65.640 C 207.519 62.003,216.277 56.514,221.440 53.443 C 233.513 46.262,233.445 46.323,231.617 44.304 C 227.311 39.546,202.203 25.188,187.733 19.210 C 180.700 16.303,172.931 15.579,169.387 17.500 M326.827 48.691 C 299.703 51.941,268.047 63.187,239.844 79.591 C 231.693 84.332,229.680 86.622,231.525 89.058 C 232.080 89.790,236.632 92.840,241.642 95.837 C 252.529 102.348,261.979 109.079,270.019 116.048 C 273.270 118.867,276.404 121.173,276.984 121.173 C 277.563 121.173,285.463 118.245,294.538 114.667 C 311.484 107.985,342.710 97.400,356.168 93.775 C 367.810 90.640,367.751 91.217,358.342 72.401 C 349.099 53.919,348.193 52.540,343.824 50.311 C 339.612 48.163,334.946 47.718,326.827 48.691 M89.173 81.818 C 85.113 83.683,83.294 85.586,81.526 89.817 C 78.673 96.646,80.248 102.225,87.327 110.356 C 109.507 135.831,117.580 162.782,114.396 200.720 C 113.236 214.535,113.650 216.747,117.400 216.747 C 118.916 216.747,122.289 214.251,128.963 208.189 C 140.040 198.130,151.316 189.456,164.783 180.638 C 178.980 171.340,208.096 154.659,225.493 145.856 C 240.042 138.495,240.640 138.091,240.640 135.637 C 240.640 133.344,239.775 132.514,232.205 127.555 C 204.959 109.703,160.247 93.006,113.640 83.280 C 96.958 79.798,93.962 79.619,89.173 81.818 M400.640 115.179 C 326.672 132.937,263.802 158.560,197.973 197.776 C 159.410 220.750,136.257 241.684,119.386 268.833 C 95.698 306.952,89.361 358.830,103.301 400.504 C 121.220 454.071,168.813 488.450,234.097 494.985 C 248.509 496.428,276.653 495.596,289.707 493.343 C 326.220 487.038,355.120 472.363,377.600 448.711 C 400.112 425.025,412.919 395.583,415.491 361.602 C 416.989 341.824,414.642 322.580,407.454 295.680 C 395.058 249.288,393.384 240.796,393.390 224.317 C 393.397 205.990,397.603 189.201,406.580 171.669 C 411.353 162.347,419.779 149.165,426.310 140.800 C 430.615 135.287,431.787 132.531,431.787 127.917 C 431.787 123.259,430.045 119.508,426.390 116.300 C 423.510 113.771,418.543 111.727,415.573 111.848 C 414.869 111.877,408.149 113.376,400.640 115.179 " stroke="none" fill-rule="evenodd" fill="black"></path></svg>