<svg xmlns="http://www.w3.org/2000/svg" width="512" height="512" viewBox="0 0 512 512"><path d="M170.868 20.117 C 164.966 25.280,157.230 34.817,149.143 46.900 C 143.538 55.276,142.773 56.834,144.023 57.332 C 144.832 57.653,149.909 59.132,155.307 60.617 C 160.704 62.103,171.129 65.332,178.474 67.793 L 191.828 72.268 205.322 63.471 C 212.743 58.633,222.181 52.837,226.294 50.591 C 230.407 48.345,233.782 46.303,233.793 46.054 C 233.836 45.105,215.779 34.370,203.317 27.935 C 192.304 22.249,178.218 16.213,175.961 16.213 C 175.614 16.213,173.322 17.970,170.868 20.117 M334.507 48.738 C 309.223 50.974,278.193 59.718,255.893 70.892 C 248.716 74.488,234.153 82.773,229.657 85.817 L 226.780 87.764 232.161 90.481 C 244.336 96.627,260.201 107.431,271.296 117.132 L 276.778 121.925 279.829 120.627 C 292.441 115.262,345.022 97.101,361.173 92.531 C 364.341 91.635,366.933 90.473,366.933 89.950 C 366.933 88.500,358.158 70.863,351.369 58.667 C 347.361 51.468,344.855 47.826,343.962 47.904 C 343.220 47.969,338.965 48.344,334.507 48.738 M82.460 83.279 C 91.102 94.352,101.542 112.735,105.749 124.286 C 110.059 136.120,113.109 154.405,114.013 173.827 C 114.521 184.730,113.186 216.969,112.024 221.867 C 111.652 223.434,114.486 221.130,122.695 213.194 C 134.798 201.491,148.842 190.556,164.547 180.609 C 181.695 169.746,209.664 153.850,227.228 144.983 C 236.513 140.296,243.879 136.088,243.597 135.632 C 243.315 135.176,238.477 131.754,232.846 128.029 C 221.453 120.490,202.019 110.637,186.453 104.508 C 155.517 92.326,114.813 82.345,88.782 80.558 L 79.857 79.945 82.460 83.279 M428.373 112.691 C 386.125 115.054,324.104 134.331,256.648 166.068 C 230.539 178.351,191.172 200.770,173.227 213.574 C 134.143 241.460,111.055 273.042,101.172 312.139 C 90.545 354.177,96.562 398.058,117.364 430.220 C 141.091 466.902,182.376 489.807,234.097 494.985 C 248.509 496.428,276.653 495.596,289.707 493.343 C 326.220 487.038,355.120 472.363,377.600 448.711 C 400.112 425.025,412.919 395.583,415.491 361.602 C 416.989 341.824,414.642 322.580,407.454 295.680 C 395.058 249.288,393.384 240.796,393.390 224.317 C 393.397 205.990,397.603 189.201,406.580 171.669 C 412.326 160.446,418.862 150.624,433.082 131.840 C 439.122 123.861,444.995 116.085,446.133 114.560 L 448.203 111.787 444.048 111.917 C 441.763 111.988,434.709 112.336,428.373 112.691 " stroke="none" fill-rule="evenodd" fill="black"></path></svg>