<svg xmlns="http://www.w3.org/2000/svg" width="512" height="512" viewBox="0 0 512 512"><path d="M169.387 17.555 C 165.312 19.675,163.351 21.912,156.901 31.804 C 149.799 42.696,140.094 61.899,134.378 76.373 C 132.154 82.005,130.267 86.699,130.186 86.803 C 130.105 86.907,126.988 86.264,123.259 85.374 C 111.243 82.506,98.890 80.213,95.447 80.213 C 87.121 80.213,80.213 87.372,80.213 96.000 C 80.213 100.939,81.700 103.806,88.146 111.295 C 93.778 117.838,100.887 128.396,104.503 135.585 C 107.778 142.097,112.263 156.238,113.600 164.267 C 115.320 174.598,114.910 198.063,112.669 217.600 C 110.988 232.252,110.830 236.585,111.346 253.867 C 111.669 264.661,111.973 275.413,112.023 277.760 C 112.092 281.056,111.210 284.162,108.143 291.413 C 101.316 307.554,97.858 323.045,96.469 343.700 C 92.860 397.373,114.991 442.625,158.458 470.450 C 178.593 483.340,205.165 491.927,234.419 494.996 C 248.472 496.471,276.800 495.607,289.707 493.310 C 347.095 483.097,389.402 450.099,406.876 401.920 C 413.073 384.833,415.744 369.120,415.721 349.867 C 415.698 329.434,413.497 317.324,402.383 276.480 C 394.705 248.262,393.832 242.866,393.888 224.000 C 393.935 208.611,394.072 207.288,396.590 197.973 C 401.355 180.350,410.385 162.505,423.361 145.067 C 430.356 135.666,431.787 132.767,431.787 128.000 C 431.787 120.911,426.740 114.498,419.661 112.592 C 416.431 111.722,414.455 111.995,401.090 115.155 C 392.864 117.100,385.069 119.041,383.767 119.468 C 381.424 120.237,381.362 120.161,377.403 111.536 C 366.522 87.836,349.798 55.455,346.984 52.641 C 342.910 48.567,338.028 47.581,327.571 48.722 C 308.793 50.771,289.015 56.319,267.209 65.652 L 259.218 69.073 251.422 61.314 C 235.336 45.304,215.848 31.840,195.395 22.605 C 181.091 16.147,174.540 14.875,169.387 17.555 M192.353 56.847 C 204.129 63.406,215.150 71.204,222.982 78.518 C 226.592 81.890,229.547 84.930,229.547 85.274 C 229.547 85.618,227.531 87.205,225.067 88.801 C 222.603 90.398,216.016 95.166,210.429 99.399 C 204.842 103.631,199.638 107.570,198.864 108.152 C 197.702 109.027,196.278 108.714,190.675 106.351 C 186.945 104.778,179.093 101.840,173.227 99.822 C 167.360 97.805,162.288 95.924,161.955 95.643 C 161.130 94.946,167.015 80.537,173.192 68.128 C 179.271 55.918,181.586 52.053,182.823 52.053 C 183.331 52.053,187.619 54.211,192.353 56.847 M338.490 104.624 C 344.836 117.580,349.703 128.463,349.307 128.808 C 348.911 129.152,341.483 131.849,332.800 134.800 C 316.714 140.267,293.235 149.461,277.614 156.409 L 268.934 160.270 262.415 153.108 C 255.245 145.232,242.318 134.085,234.551 129.081 C 231.808 127.313,229.680 125.483,229.822 125.013 C 230.260 123.573,251.601 109.551,261.740 104.043 C 273.650 97.572,285.256 92.439,297.192 88.364 C 305.895 85.393,322.017 81.256,325.397 81.126 C 326.605 81.080,329.536 86.339,338.490 104.624 M153.173 126.919 C 190.895 139.126,214.594 151.593,233.317 169.079 L 239.221 174.593 227.288 181.080 C 190.127 201.280,170.355 214.283,151.680 230.804 L 143.360 238.164 143.360 234.742 C 143.360 232.860,144.170 224.489,145.160 216.140 C 147.223 198.744,147.591 175.152,145.976 163.900 C 144.429 153.125,140.588 138.814,136.724 129.430 L 133.283 121.074 135.975 121.649 C 137.455 121.965,145.195 124.337,153.173 126.919 M376.162 161.067 C 358.860 198.389,356.814 228.873,368.585 273.920 C 379.646 316.248,381.417 323.813,382.767 334.507 C 387.561 372.477,375.710 407.228,349.758 431.294 C 324.046 455.137,283.948 466.976,241.067 463.384 C 197.292 459.717,165.216 443.360,145.298 414.547 C 132.354 395.824,126.236 369.278,128.697 342.518 C 130.450 323.452,133.898 310.651,141.314 295.680 C 154.084 269.899,176.617 247.748,210.902 227.271 C 263.857 195.643,318.475 171.262,369.067 156.668 C 374.699 155.043,379.378 153.688,379.465 153.657 C 379.552 153.626,378.065 156.960,376.162 161.067 " stroke="none" fill-rule="evenodd" fill="black"></path></svg>