<svg xmlns="http://www.w3.org/2000/svg" width="512" height="512" viewBox="0 0 512 512"><path d="M231.253 33.392 C 214.898 35.057,192.680 40.401,176.511 46.559 C 156.296 54.258,131.841 68.384,114.508 82.373 C 92.069 100.483,71.148 126.126,57.570 152.164 C 42.512 181.038,34.416 210.416,32.447 243.324 C 27.225 330.584,74.485 413.921,152.164 454.430 C 231.416 495.759,326.910 486.355,396.524 430.364 C 473.098 368.774,500.486 263.737,463.793 172.373 C 435.769 102.595,373.381 50.947,299.520 36.379 C 293.653 35.221,284.659 33.859,279.532 33.351 C 268.795 32.286,241.887 32.309,231.253 33.392 M284.160 66.158 C 338.845 74.413,386.638 105.196,417.272 151.893 C 423.753 161.774,433.129 180.887,437.154 192.427 C 444.542 213.607,447.503 231.793,447.503 256.000 C 447.503 287.858,442.031 311.912,428.384 340.053 C 399.770 399.055,343.207 439.048,277.505 446.733 C 227.482 452.585,175.644 437.575,135.888 405.728 C 103.623 379.883,79.403 341.962,69.686 302.080 C 65.721 285.806,64.497 274.937,64.497 256.000 C 64.497 224.142,69.969 200.088,83.616 171.947 C 106.052 125.685,146.714 90.037,195.413 73.938 C 210.456 68.965,222.551 66.514,241.920 64.514 C 248.788 63.805,275.445 64.843,284.160 66.158 M174.958 209.982 C 169.415 212.496,165.875 215.456,163.438 219.613 C 153.652 236.314,166.590 257.245,185.781 255.759 C 195.863 254.978,204.162 248.166,207.024 238.320 C 210.384 226.762,203.487 213.394,192.175 209.540 C 186.752 207.692,179.601 207.875,174.958 209.982 M319.476 209.593 C 311.831 212.304,305.326 220.794,304.124 229.630 C 302.945 238.297,308.191 248.199,316.406 252.814 C 330.219 260.572,347.138 253.136,351.130 237.552 C 353.968 226.474,349.090 216.063,338.606 210.824 C 332.646 207.846,325.668 207.397,319.476 209.593 M237.653 289.798 C 202.668 296.044,172.757 321.382,161.731 354.114 C 160.331 358.272,160.040 360.372,160.583 362.415 C 162.106 368.153,155.603 367.787,255.819 367.787 C 319.192 367.787,347.085 367.509,348.288 366.865 C 349.236 366.358,350.558 364.633,351.227 363.032 C 352.339 360.370,352.271 359.630,350.428 354.354 C 338.686 320.752,309.195 295.851,273.983 289.807 C 264.155 288.120,247.077 288.116,237.653 289.798 " stroke="none" fill-rule="evenodd" fill="black"></path></svg>