<svg xmlns="http://www.w3.org/2000/svg" width="512" height="512" viewBox="0 0 512 512"><path d="M235.947 32.121 C 215.118 34.495,202.444 37.042,187.123 41.933 C 153.186 52.767,122.302 71.615,96.959 96.959 C 45.131 148.786,22.286 221.012,34.642 293.973 C 42.175 338.453,64.482 381.147,97.285 413.867 C 143.943 460.406,203.705 483.495,269.227 480.296 C 342.739 476.707,410.943 435.346,449.266 371.115 C 476.276 325.844,486.420 271.351,477.526 219.307 C 466.372 154.047,427.068 97.137,369.379 62.717 C 342.461 46.656,311.652 36.352,279.893 32.788 C 270.499 31.733,243.006 31.316,235.947 32.121 M192.175 209.540 C 201.319 212.655,207.739 221.977,207.677 232.048 C 207.657 235.293,207.049 239.032,206.233 240.929 C 199.524 256.524,180.202 260.831,168.028 249.444 C 162.182 243.976,160.126 238.637,160.614 230.197 C 160.965 224.131,161.307 223.074,164.340 218.664 C 170.540 209.652,181.734 205.982,192.175 209.540 M338.737 210.890 C 347.217 215.127,351.398 222.077,351.500 232.107 C 351.684 250.138,332.508 261.597,316.621 252.950 C 305.380 246.831,301.018 233.126,306.650 221.616 C 310.888 212.953,318.224 208.410,328.184 208.281 C 332.386 208.226,334.406 208.726,338.737 210.890 M281.014 291.281 C 308.983 298.612,332.657 317.294,344.951 341.736 C 351.889 355.530,353.121 362.050,349.479 365.692 L 347.384 367.787 256.000 367.787 L 164.616 367.787 162.521 365.692 C 159.924 363.095,159.812 359.599,162.112 352.914 C 173.021 321.207,202.908 296.216,237.653 289.746 C 248.593 287.709,270.323 288.478,281.014 291.281 " stroke="none" fill-rule="evenodd" fill="black"></path></svg>