<svg xmlns="http://www.w3.org/2000/svg" width="512" height="512" viewBox="0 0 512 512"><path d="M53.193 34.005 C 44.920 36.865,37.502 44.179,33.855 53.074 L 32.000 57.600 32.000 256.000 L 32.000 454.400 33.855 458.926 C 37.438 467.665,44.335 474.562,53.074 478.145 L 57.600 480.000 252.160 480.245 C 391.344 480.420,448.299 480.221,452.267 479.546 C 455.317 479.027,459.433 477.888,461.412 477.015 C 465.893 475.038,473.068 468.412,475.829 463.700 C 480.557 455.633,480.396 461.740,480.412 290.136 L 480.427 131.845 430.723 82.136 L 381.019 32.427 219.309 32.455 C 66.363 32.481,57.361 32.565,53.193 34.005 M303.787 143.787 L 303.787 175.787 207.787 175.787 L 111.787 175.787 111.787 143.787 L 111.787 111.787 207.787 111.787 L 303.787 111.787 303.787 143.787 M276.053 274.693 C 290.290 278.456,303.301 286.212,313.645 297.102 C 330.187 314.516,338.053 337.709,335.302 360.960 C 331.302 394.767,308.621 420.483,274.506 429.892 C 266.782 432.023,244.982 431.931,236.800 429.734 C 209.130 422.304,188.198 402.516,179.791 375.841 C 165.286 329.820,194.832 281.807,243.056 273.034 C 250.041 271.763,268.476 272.690,276.053 274.693 " stroke="none" fill-rule="evenodd" fill="black"></path></svg>