<svg xmlns="http://www.w3.org/2000/svg" width="512" height="512" viewBox="0 0 512 512"><path d="M80.213 34.166 C 62.188 38.802,46.920 51.236,38.864 67.840 C 31.356 83.316,32.000 65.674,32.000 256.000 C 32.000 446.326,31.356 428.684,38.864 444.160 C 45.110 457.033,54.967 466.890,67.840 473.136 C 83.316 480.644,65.674 480.000,256.000 480.000 C 446.326 480.000,428.684 480.644,444.160 473.136 C 457.033 466.890,466.890 457.033,473.136 444.160 C 480.594 428.787,480.000 442.515,480.000 285.440 L 480.000 146.347 478.107 140.373 C 474.357 128.538,472.773 126.695,428.056 82.166 C 393.173 47.429,385.262 39.967,380.944 37.729 C 370.055 32.086,379.939 32.422,226.167 32.474 C 91.199 32.519,86.403 32.575,80.213 34.166 M299.537 113.075 C 300.908 113.784,302.425 115.103,302.908 116.006 C 303.456 117.031,303.787 127.587,303.787 144.092 L 303.787 170.536 301.577 173.161 L 299.368 175.787 208.327 175.787 C 108.803 175.787,114.891 176.100,112.721 170.862 C 112.003 169.128,111.785 161.065,111.963 142.756 C 112.200 118.475,112.306 116.980,113.920 115.188 C 114.859 114.145,116.395 112.978,117.333 112.593 C 118.272 112.209,159.091 111.871,208.042 111.841 C 285.830 111.793,297.359 111.949,299.537 113.075 M277.579 275.125 C 322.017 288.279,346.240 334.093,331.607 377.308 C 322.014 405.635,297.782 426.264,268.586 430.958 C 249.594 434.011,227.626 429.235,211.787 418.608 C 171.862 391.821,164.265 335.735,195.678 299.675 C 207.387 286.234,225.012 276.299,242.910 273.051 C 245.181 272.639,252.224 272.437,258.560 272.603 C 267.864 272.847,271.523 273.332,277.579 275.125 M248.747 304.660 C 234.752 306.536,220.527 316.603,213.837 329.367 C 202.051 351.849,209.116 378.554,230.547 392.533 C 245.522 402.300,266.478 402.300,281.453 392.533 C 307.223 375.724,311.505 340.171,290.330 318.823 C 279.108 307.509,264.531 302.544,248.747 304.660 " stroke="none" fill-rule="evenodd" fill="black"></path></svg>