<svg xmlns="http://www.w3.org/2000/svg" width="512" height="512" viewBox="0 0 512 512"><path d="M79.360 33.754 C 63.065 37.253,46.583 50.537,38.429 66.742 C 31.490 80.532,32.000 65.515,32.000 256.000 C 32.000 417.026,32.077 425.715,33.559 432.031 C 38.788 454.328,57.672 473.212,79.969 478.441 C 86.286 479.923,94.987 480.000,256.427 480.000 C 415.430 480.000,426.610 479.905,432.059 478.505 C 454.651 472.702,472.702 454.651,478.505 432.059 C 479.900 426.630,480.000 416.822,480.000 285.867 L 480.000 145.493 477.619 138.759 C 476.309 135.056,473.928 130.064,472.328 127.666 C 470.728 125.268,450.679 104.657,427.776 81.863 C 393.159 47.411,385.258 39.965,380.944 37.729 C 370.050 32.084,380.039 32.420,225.314 32.495 C 108.563 32.551,83.972 32.763,79.360 33.754 M364.800 65.638 C 369.591 67.885,444.885 143.440,446.690 147.813 C 447.849 150.620,447.998 166.501,447.987 285.626 C 447.972 430.416,448.106 425.939,443.583 433.067 C 438.958 440.356,432.822 444.960,424.960 447.042 C 422.036 447.815,381.207 448.000,253.867 447.816 L 86.613 447.573 82.593 445.716 C 73.830 441.667,67.236 433.905,65.196 425.239 C 63.457 417.843,63.457 94.157,65.196 86.761 C 67.526 76.859,76.638 67.593,86.358 65.240 C 89.935 64.374,119.146 64.134,226.133 64.091 C 356.686 64.039,361.505 64.093,364.800 65.638 M101.803 81.802 C 92.759 84.927,85.343 92.166,81.982 101.150 C 80.290 105.672,80.214 107.514,80.223 143.605 C 80.232 184.109,80.377 185.681,84.716 192.549 C 89.813 200.616,97.472 205.758,106.762 207.350 C 110.557 208.000,142.422 208.208,211.627 208.035 C 303.069 207.807,311.332 207.670,314.676 206.328 C 320.377 204.041,325.689 199.984,329.375 195.102 C 335.789 186.606,335.696 187.268,336.025 147.638 C 336.338 109.803,335.940 104.284,332.398 97.375 C 328.694 90.150,319.926 83.195,311.893 81.109 C 309.624 80.520,274.595 80.231,207.360 80.246 C 112.302 80.268,105.974 80.361,101.803 81.802 M303.787 143.787 L 303.787 175.787 207.787 175.787 L 111.787 175.787 111.787 143.787 L 111.787 111.787 207.787 111.787 L 303.787 111.787 303.787 143.787 M242.910 273.051 C 212.933 278.491,188.782 299.632,179.727 328.360 C 169.090 362.110,182.243 398.813,212.053 418.563 C 219.666 423.606,226.195 426.556,236.104 429.427 C 241.848 431.092,244.668 431.352,256.427 431.305 C 268.804 431.256,270.798 431.031,277.760 428.903 C 304.670 420.675,324.053 401.718,332.296 375.565 C 341.152 347.469,333.512 316.563,312.602 295.892 C 305.433 288.806,300.202 285.006,291.654 280.677 C 280.593 275.076,271.890 272.952,258.560 272.603 C 252.224 272.437,245.181 272.639,242.910 273.051 M270.542 306.372 C 281.980 309.697,293.088 319.275,298.717 330.667 C 305.656 344.708,305.655 359.253,298.716 373.375 C 292.320 386.391,280.015 395.948,265.813 398.930 C 258.301 400.507,253.705 400.511,246.328 398.948 C 231.694 395.847,219.962 386.749,213.300 373.333 C 209.580 365.844,208.213 360.111,208.213 352.000 C 208.213 335.735,216.420 320.734,230.400 311.445 C 241.335 304.180,256.435 302.271,270.542 306.372 " stroke="none" fill-rule="evenodd" fill="black"></path></svg>