<svg id="icons" xmlns="http://www.w3.org/2000/svg" viewBox="0 0 512 512"><path d="M67.648 33.740 C 60.601 35.638,53.505 39.643,47.724 44.986 C 41.143 51.068,37.436 56.739,34.363 65.427 L 32.000 72.107 32.000 256.000 L 32.000 439.893 34.363 446.573 C 39.989 462.478,51.436 473.358,67.885 478.434 C 72.741 479.933,80.844 480.000,256.000 480.000 C 431.156 480.000,439.259 479.933,444.115 478.434 C 461.188 473.165,473.222 461.145,478.430 444.160 C 479.934 439.257,480.000 431.299,480.000 256.000 C 480.000 80.701,479.934 72.743,478.430 67.840 C 473.214 50.828,460.190 37.918,443.987 33.697 C 436.850 31.839,74.555 31.880,67.648 33.740 M288.427 86.547 C 318.208 91.562,341.345 99.963,365.653 114.590 C 388.410 128.283,413.249 150.282,419.641 162.404 C 421.772 166.446,421.973 167.635,421.973 176.213 C 421.973 185.359,421.897 185.737,418.987 190.921 C 415.723 196.735,362.464 259.886,357.867 263.392 C 354.498 265.962,345.862 268.800,341.412 268.800 C 335.908 268.800,329.812 266.397,321.572 260.978 C 276.627 231.422,235.373 231.422,190.428 260.978 C 182.188 266.397,176.092 268.800,170.588 268.800 C 166.138 268.800,157.502 265.962,154.133 263.392 C 149.536 259.886,96.277 196.735,93.013 190.921 C 90.103 185.737,90.027 185.359,90.027 176.213 C 90.027 167.152,90.128 166.641,92.934 161.464 C 96.339 155.186,109.464 141.616,121.397 132.038 C 155.084 104.999,193.039 89.416,235.947 85.009 C 244.185 84.163,280.606 85.231,288.427 86.547 " stroke="none" fill-rule="evenodd" fill="black"></path></svg>