<svg id="icons" xmlns="http://www.w3.org/2000/svg" viewBox="0 0 512 512"><path d="M125.440 33.692 C 102.024 37.681,82.038 48.114,64.563 65.468 C 45.673 84.228,34.755 108.261,32.443 136.173 C 31.321 149.720,31.321 362.280,32.443 375.827 C 34.776 403.988,45.681 427.814,64.988 446.935 C 84.882 466.637,107.977 477.221,136.173 479.557 C 149.720 480.679,362.280 480.679,375.827 479.557 C 403.664 477.251,427.908 466.183,447.046 447.046 C 466.183 427.908,477.251 403.664,479.557 375.827 C 480.676 362.313,480.679 149.722,479.560 136.214 C 479.098 130.641,477.923 122.683,476.948 118.531 C 468.133 80.985,440.113 50.263,403.518 38.022 C 386.155 32.214,391.832 32.424,255.147 32.518 C 159.297 32.583,130.415 32.844,125.440 33.692 M387.322 66.387 C 416.260 74.114,438.305 96.333,445.659 125.183 L 447.573 132.693 447.573 256.000 L 447.573 379.307 445.659 386.817 C 440.975 405.193,429.493 422.163,414.293 433.174 C 408.143 437.629,395.483 443.486,387.260 445.679 L 380.160 447.573 256.000 447.573 L 131.840 447.573 124.800 445.694 C 95.738 437.938,73.719 415.761,66.341 386.817 L 64.427 379.307 64.427 256.000 L 64.427 132.693 66.341 125.183 C 74.496 93.190,100.390 69.762,132.961 64.909 C 135.630 64.511,192.341 64.250,258.987 64.330 L 380.160 64.474 387.322 66.387 M232.960 85.455 C 190.988 89.787,151.578 106.691,118.485 134.556 C 108.781 142.727,104.682 147.499,101.079 154.820 C 93.336 170.552,94.254 190.237,103.363 203.828 C 107.561 210.091,141.025 249.304,145.955 253.736 C 154.951 261.824,167.697 265.266,181.145 263.240 C 183.389 262.902,188.573 260.892,192.665 258.774 C 196.758 256.656,203.755 253.037,208.213 250.732 C 217.020 246.181,231.829 241.194,240.640 239.815 C 248.455 238.591,265.454 238.777,273.275 240.171 C 282.581 241.830,294.648 246.020,303.948 250.821 C 308.318 253.077,315.242 256.656,319.335 258.774 C 323.427 260.892,328.611 262.902,330.855 263.240 C 344.347 265.273,357.047 261.826,366.119 253.669 C 369.838 250.325,397.022 218.890,405.427 208.213 C 417.609 192.739,419.679 172.616,410.921 154.820 C 407.318 147.499,403.219 142.727,393.515 134.556 C 359.854 106.213,320.865 89.686,277.456 85.361 C 267.127 84.331,243.361 84.382,232.960 85.455 M271.023 116.938 C 298.746 119.166,325.270 127.633,348.839 141.777 C 364.564 151.214,379.876 163.804,382.409 169.380 C 384.404 173.773,384.394 180.401,382.384 184.747 C 380.981 187.782,349.293 225.932,344.965 229.796 C 340.971 233.363,338.591 232.787,321.641 224.148 C 305.059 215.696,295.444 212.131,280.644 208.943 C 267.832 206.185,244.143 206.192,231.253 208.960 C 216.826 212.057,207.094 215.681,190.293 224.212 C 177.122 230.899,174.035 232.153,171.657 231.782 C 170.090 231.536,168.203 230.837,167.465 230.228 C 163.926 227.309,130.993 187.738,129.613 184.747 C 127.607 180.400,127.597 173.769,129.591 169.380 C 132.124 163.804,147.436 151.214,163.161 141.777 C 195.526 122.354,232.493 113.841,271.023 116.938 " fill="black" stroke="none" fill-rule="evenodd"></path></svg>