<svg id="icons" xmlns="http://www.w3.org/2000/svg" viewBox="0 0 512 512"><path d="M124.207 33.804 C 84.075 41.048,50.359 70.445,37.703 109.227 C 31.664 127.730,32.000 119.111,32.000 255.573 C 32.000 372.230,32.081 378.886,33.604 386.987 C 37.495 407.691,46.839 427.078,60.037 441.829 C 77.069 460.864,96.923 472.267,123.146 478.075 L 131.840 480.000 256.000 480.000 L 380.160 480.000 388.854 478.075 C 415.077 472.267,434.931 460.864,451.963 441.829 C 464.815 427.464,473.366 410.117,478.075 388.854 L 480.000 380.160 480.000 256.000 L 480.000 131.840 478.075 123.146 C 472.221 96.716,460.896 77.099,441.520 59.832 C 426.774 46.690,406.993 37.210,387.088 33.746 C 376.144 31.841,134.784 31.894,124.207 33.804 M292.783 87.372 C 314.856 91.261,333.617 97.534,353.515 107.676 C 370.207 116.184,391.474 131.314,402.082 142.229 C 417.736 158.334,420.638 183.777,408.998 202.854 C 405.893 207.943,380.395 238.655,370.097 249.709 C 361.182 259.279,351.551 263.736,339.616 263.814 C 330.718 263.873,324.896 262.061,313.173 255.588 C 301.292 249.026,291.195 244.784,280.105 241.694 C 272.431 239.556,270.563 239.377,256.000 239.377 C 241.437 239.377,239.569 239.556,231.895 241.694 C 220.696 244.815,210.638 249.057,198.670 255.711 C 186.419 262.521,182.501 263.761,173.167 263.784 C 160.540 263.815,151.073 259.553,141.903 249.709 C 131.605 238.655,106.107 207.943,103.002 202.854 C 93.607 187.456,93.543 166.958,102.842 151.467 C 106.590 145.222,111.516 140.071,121.600 131.849 C 149.020 109.493,182.204 94.094,216.320 87.893 C 232.098 85.026,238.688 84.575,260.267 84.886 C 277.129 85.130,282.303 85.525,292.783 87.372 " stroke="none" fill-rule="evenodd" fill="black"></path></svg>