<svg xmlns="http://www.w3.org/2000/svg" width="512" height="512" viewBox="0 0 512 512"><path d="M241.493 48.673 C 201.694 51.236,163.176 65.747,129.707 90.787 C 119.118 98.709,98.459 119.383,90.552 129.971 C 68.706 159.223,55.330 191.336,49.785 227.840 C 47.724 241.414,47.724 270.586,49.785 284.160 C 55.331 320.671,68.725 352.821,90.558 382.029 C 98.598 392.784,119.216 413.402,129.971 421.442 C 159.179 443.275,191.329 456.669,227.840 462.215 C 241.414 464.276,270.586 464.276,284.160 462.215 C 320.686 456.667,352.914 443.237,382.029 421.430 C 392.784 413.374,413.374 392.784,421.430 382.029 C 443.237 352.914,456.667 320.686,462.215 284.160 C 464.276 270.586,464.276 241.414,462.215 227.840 C 455.463 183.387,436.803 144.683,406.921 113.150 C 370.380 74.590,322.088 52.062,268.561 48.607 C 255.365 47.755,255.779 47.754,241.493 48.673 M284.160 82.308 C 319.998 88.383,351.735 104.258,377.739 129.118 C 405.349 155.513,423.300 189.800,429.832 228.618 C 431.923 241.048,431.905 271.514,429.799 283.733 C 419.921 341.032,385.307 387.989,334.011 413.679 C 285.590 437.929,226.410 437.929,177.989 413.679 C 126.525 387.905,91.775 340.650,82.174 283.382 C 80.053 270.734,80.053 241.266,82.174 228.618 C 92.715 165.745,133.739 115.017,192.849 91.764 C 205.896 86.632,221.606 82.941,239.787 80.737 C 246.454 79.928,276.372 80.988,284.160 82.308 M177.067 145.392 C 162.103 149.168,149.455 161.714,145.453 176.752 C 144.570 180.069,144.231 186.618,144.223 200.477 C 144.212 222.464,144.774 224.778,151.210 229.238 C 154.158 231.281,155.595 231.680,160.000 231.680 C 164.344 231.680,165.854 231.273,168.624 229.353 C 174.979 224.949,175.305 223.755,175.797 203.093 C 176.162 187.789,176.483 184.289,177.732 181.988 C 180.542 176.809,182.694 176.284,203.093 175.797 C 223.755 175.305,224.949 174.979,229.353 168.624 C 231.271 165.855,231.680 164.343,231.680 160.010 C 231.680 153.978,229.653 150.183,224.569 146.696 C 221.628 144.679,221.184 144.637,201.452 144.478 C 187.581 144.366,180.008 144.650,177.067 145.392 M289.707 145.402 C 280.653 149.368,277.323 160.902,282.900 168.978 C 287.016 174.939,288.427 175.309,308.907 175.797 C 336.214 176.449,335.551 175.786,336.203 203.093 C 336.695 223.755,337.021 224.949,343.376 229.353 C 346.146 231.273,347.656 231.680,352.000 231.680 C 356.405 231.680,357.842 231.281,360.790 229.238 C 367.226 224.778,367.788 222.464,367.777 200.477 C 367.769 186.618,367.430 180.069,366.547 176.752 C 362.454 161.373,349.007 148.397,333.825 145.173 C 327.257 143.779,293.006 143.956,289.707 145.402 M155.788 280.466 C 152.195 281.482,147.611 285.361,145.951 288.789 C 144.360 292.076,144.214 293.996,144.223 311.523 C 144.234 332.330,144.783 336.074,149.069 344.594 C 152.146 350.709,161.291 359.854,167.406 362.931 C 175.926 367.217,179.670 367.766,200.477 367.777 C 222.464 367.788,224.778 367.226,229.238 360.790 C 231.279 357.844,231.680 356.404,231.680 352.010 C 231.680 345.978,229.654 342.184,224.570 338.696 C 221.680 336.714,220.894 336.625,202.733 336.213 C 175.709 335.601,176.452 336.355,175.797 308.907 C 175.305 288.268,174.945 286.942,168.716 282.820 C 165.457 280.663,159.149 279.515,155.788 280.466 M347.788 280.466 C 344.729 281.331,340.024 284.965,338.325 287.773 C 336.829 290.248,336.591 292.617,336.203 308.907 C 335.548 336.355,336.291 335.601,309.267 336.213 C 291.106 336.625,290.320 336.714,287.430 338.696 C 282.346 342.184,280.320 345.978,280.320 352.010 C 280.320 356.404,280.721 357.844,282.762 360.790 C 287.222 367.226,289.536 367.788,311.523 367.777 C 332.330 367.766,336.074 367.217,344.594 362.931 C 350.709 359.854,359.854 350.709,362.931 344.594 C 367.217 336.074,367.766 332.330,367.777 311.523 C 367.788 289.539,367.203 287.112,360.877 282.926 C 357.460 280.665,351.226 279.493,347.788 280.466 " stroke="none" fill-rule="evenodd" fill="black"></path></svg>