<svg xmlns="http://www.w3.org/2000/svg" width="512" height="512" viewBox="0 0 512 512"><path d="M110.371 47.342 C 93.785 50.352,78.270 58.788,67.071 70.884 C 58.416 80.232,52.961 89.851,48.917 102.894 L 46.556 110.507 46.273 151.253 L 45.989 192.000 68.188 192.000 L 90.388 192.000 90.634 153.367 L 90.880 114.734 93.646 109.117 C 96.977 102.353,103.082 96.360,109.894 93.167 L 114.773 90.880 153.387 90.634 L 192.000 90.388 192.000 68.234 L 192.000 46.080 154.240 46.157 C 127.279 46.212,114.733 46.551,110.371 47.342 M320.000 68.181 L 320.000 90.388 358.633 90.634 L 397.266 90.880 402.883 93.646 C 409.647 96.977,415.640 103.082,418.833 109.894 L 421.120 114.773 421.366 153.387 L 421.612 192.000 443.819 192.000 L 466.025 192.000 465.726 151.253 L 465.428 110.507 463.110 103.013 C 456.094 80.332,441.918 63.570,421.492 53.805 C 406.694 46.731,405.869 46.630,360.320 46.282 L 320.000 45.974 320.000 68.181 M46.273 360.747 L 46.556 401.493 48.921 409.121 C 57.197 435.815,76.218 454.833,102.879 463.071 L 110.507 465.428 151.253 465.726 L 192.000 466.025 192.000 444.212 L 192.000 422.400 158.080 422.395 C 139.424 422.392,121.925 422.024,119.193 421.577 C 108.012 419.746,98.535 412.810,93.646 402.883 L 90.880 397.266 90.634 358.633 L 90.388 320.000 68.188 320.000 L 45.989 320.000 46.273 360.747 M421.366 358.633 L 421.120 397.266 418.354 402.883 C 413.465 412.810,403.988 419.746,392.807 421.577 C 390.075 422.024,372.576 422.392,353.920 422.395 L 320.000 422.400 320.000 444.212 L 320.000 466.025 360.747 465.726 L 401.493 465.428 409.121 463.071 C 435.785 454.832,454.832 435.785,463.071 409.121 L 465.428 401.493 465.726 360.747 L 466.025 320.000 443.819 320.000 L 421.612 320.000 421.366 358.633 " stroke="none" fill-rule="evenodd" fill="black"></path></svg>