<svg xmlns="http://www.w3.org/2000/svg" width="512" height="512" viewBox="0 0 512 512"><path d="M241.920 48.669 C 177.359 52.784,118.768 87.102,81.958 142.362 C 55.666 181.831,43.309 234.683,49.503 281.173 C 55.829 328.652,75.879 369.527,109.176 402.824 C 142.702 436.350,182.619 455.851,231.680 462.670 C 235.904 463.257,246.848 463.738,256.000 463.738 C 265.152 463.738,276.096 463.257,280.320 462.670 C 329.321 455.859,369.272 436.331,402.802 402.802 C 436.331 369.272,455.859 329.321,462.670 280.320 C 464.046 270.420,464.046 241.580,462.670 231.680 C 455.892 182.914,436.342 142.776,403.220 109.623 C 391.401 97.792,382.569 90.546,369.558 82.006 C 331.997 57.351,287.606 45.757,241.920 48.669 M224.660 146.759 C 233.893 153.091,233.894 166.908,224.660 173.241 C 221.665 175.296,221.018 175.373,203.159 175.797 C 175.635 176.451,176.399 175.700,175.787 202.733 C 175.378 220.769,175.274 221.696,173.350 224.493 C 170.666 228.394,168.165 230.163,163.609 231.381 C 156.494 233.284,148.317 229.127,145.367 222.107 C 143.637 217.990,143.753 183.887,145.520 177.102 C 149.456 161.990,161.640 149.671,176.736 145.541 C 180.284 144.570,185.926 144.323,201.452 144.461 C 221.338 144.638,221.606 144.664,224.660 146.759 M334.898 145.520 C 350.209 149.508,362.492 161.791,366.480 177.102 C 368.247 183.887,368.363 217.990,366.633 222.107 C 363.683 229.127,355.506 233.284,348.391 231.381 C 343.835 230.163,341.334 228.394,338.650 224.493 C 336.726 221.696,336.622 220.769,336.213 202.733 C 335.601 175.709,336.355 176.452,308.907 175.797 C 291.905 175.392,290.339 175.222,287.541 173.482 C 277.140 167.013,278.416 150.488,289.707 145.428 C 293.581 143.691,328.147 143.762,334.898 145.520 M168.069 282.535 C 169.748 283.479,172.076 285.641,173.241 287.340 C 175.302 290.344,175.372 290.944,175.787 309.267 C 176.402 336.432,175.568 335.598,202.733 336.213 C 221.056 336.628,221.656 336.698,224.660 338.759 C 233.894 345.092,233.893 358.909,224.660 365.241 C 221.617 367.328,221.266 367.364,201.609 367.618 C 179.465 367.903,176.439 367.447,166.838 362.378 C 156.517 356.928,147.480 344.852,145.083 333.308 C 144.484 330.420,144.219 321.470,144.381 309.552 C 144.634 290.853,144.686 290.362,146.734 287.376 C 151.599 280.282,160.477 278.268,168.069 282.535 M360.069 282.535 C 361.748 283.479,364.076 285.641,365.241 287.340 C 367.320 290.371,367.365 290.791,367.619 309.552 C 367.781 321.470,367.516 330.420,366.917 333.308 C 364.540 344.754,355.385 356.970,345.094 362.427 C 336.243 367.120,332.019 367.787,311.130 367.787 C 293.836 367.787,292.092 367.648,288.684 365.998 C 278.316 360.979,277.550 345.474,287.340 338.759 C 290.344 336.698,290.944 336.628,309.267 336.213 C 336.432 335.598,335.598 336.432,336.213 309.267 C 336.627 291.006,336.704 290.335,338.734 287.375 C 343.600 280.282,352.477 278.268,360.069 282.535 " stroke="none" fill-rule="evenodd" fill="black"></path></svg>