<svg xmlns="http://www.w3.org/2000/svg" width="512" height="512" viewBox="0 0 512 512"><path d="M110.371 47.322 C 102.628 48.753,96.517 50.755,90.027 53.988 C 69.529 64.196,55.807 80.555,48.907 103.007 C 46.612 110.474,46.601 110.642,46.275 141.999 C 45.910 177.280,46.003 177.982,51.902 184.513 C 62.468 196.208,80.654 193.594,87.635 179.377 L 90.027 174.507 90.453 144.640 L 90.880 114.773 93.187 109.851 C 96.157 103.511,103.511 96.157,109.851 93.187 L 114.773 90.880 144.640 90.453 L 174.507 90.027 179.377 87.635 C 196.075 79.435,195.974 57.019,179.200 48.096 C 176.469 46.643,173.658 46.493,146.347 46.350 C 124.634 46.236,114.812 46.502,110.371 47.322 M336.208 46.845 C 327.262 49.703,321.183 57.052,320.245 66.141 C 319.325 75.050,324.187 83.492,332.623 87.635 L 337.493 90.027 367.360 90.453 L 397.227 90.880 402.149 93.187 C 408.489 96.157,415.843 103.511,418.813 109.851 L 421.120 114.773 421.547 144.640 L 421.973 174.507 424.365 179.377 C 431.346 193.594,449.532 196.208,460.098 184.513 C 465.997 177.982,466.090 177.280,465.725 141.999 C 465.399 110.642,465.388 110.474,463.093 103.007 C 454.646 75.521,434.717 55.992,407.467 48.496 C 401.099 46.744,398.547 46.603,369.493 46.390 C 352.363 46.264,337.384 46.469,336.208 46.845 M62.288 320.747 C 55.514 322.968,49.864 328.257,47.415 334.670 C 46.102 338.110,45.983 341.789,46.275 370.001 C 46.601 401.358,46.612 401.526,48.907 408.993 C 53.255 423.141,60.354 434.943,70.089 444.209 C 79.449 453.117,89.721 459.010,103.007 463.093 C 110.474 465.388,110.642 465.399,141.999 465.725 C 177.280 466.090,177.982 465.997,184.513 460.098 C 193.758 451.745,194.380 437.936,185.904 429.203 C 179.487 422.590,178.710 422.442,150.187 422.402 C 136.341 422.382,122.546 422.009,119.531 421.573 C 108.133 419.926,98.064 412.439,93.096 401.920 L 90.880 397.227 90.434 367.360 C 89.953 335.135,89.869 334.537,84.983 328.131 C 80.643 322.441,68.836 318.599,62.288 320.747 M438.071 320.879 C 432.472 322.607,427.248 327.025,424.553 332.310 L 421.973 337.367 421.547 367.297 L 421.120 397.227 418.904 401.920 C 413.936 412.439,403.867 419.926,392.469 421.573 C 389.454 422.009,375.638 422.373,361.768 422.383 L 336.548 422.400 332.133 424.600 C 318.387 431.450,315.997 449.717,327.487 460.098 C 334.018 465.997,334.720 466.090,370.001 465.725 C 401.358 465.399,401.526 465.388,408.993 463.093 C 436.059 454.775,454.775 436.059,463.093 408.993 C 465.388 401.526,465.399 401.358,465.725 370.001 C 466.017 341.789,465.898 338.110,464.585 334.670 C 462.754 329.876,458.129 324.680,453.667 322.404 C 449.774 320.418,442.019 319.660,438.071 320.879 " stroke="none" fill-rule="evenodd" fill="black"></path></svg>