<svg xmlns="http://www.w3.org/2000/svg" width="512" height="512" viewBox="0 0 512 512"><path d="M114.347 48.351 C 81.750 51.007,54.710 75.725,49.079 108.011 C 48.081 113.736,47.787 122.640,47.787 147.131 C 47.787 178.330,47.817 178.899,49.707 182.596 C 50.763 184.663,53.102 187.529,54.906 188.964 C 57.839 191.298,58.798 191.573,64.000 191.573 C 69.202 191.573,70.161 191.298,73.094 188.964 C 74.898 187.529,77.237 184.663,78.293 182.596 C 80.184 178.896,80.213 178.344,80.213 146.772 C 80.213 111.997,80.540 108.867,85.033 100.613 C 87.858 95.421,95.421 87.858,100.613 85.033 C 108.867 80.540,111.997 80.213,146.772 80.213 C 178.344 80.213,178.896 80.184,182.596 78.293 C 184.663 77.237,187.529 74.898,188.964 73.094 C 191.298 70.161,191.573 69.202,191.573 64.000 C 191.573 58.768,191.308 57.857,188.923 54.906 C 183.387 48.057,184.366 48.224,149.333 48.125 C 132.203 48.077,116.459 48.178,114.347 48.351 M332.181 48.571 C 328.391 49.532,325.660 51.460,322.830 55.169 C 320.744 57.904,320.427 59.080,320.427 64.068 C 320.427 69.194,320.709 70.169,323.036 73.094 C 324.471 74.898,327.337 77.237,329.404 78.293 C 333.104 80.184,333.656 80.213,365.228 80.213 C 400.003 80.213,403.133 80.540,411.387 85.033 C 416.579 87.858,424.142 95.421,426.967 100.613 C 431.460 108.867,431.787 111.997,431.787 146.772 C 431.787 178.344,431.816 178.896,433.707 182.596 C 434.763 184.663,437.102 187.529,438.906 188.964 C 441.839 191.298,442.798 191.573,448.000 191.573 C 453.202 191.573,454.161 191.298,457.094 188.964 C 458.898 187.529,461.255 184.649,462.333 182.564 L 464.292 178.773 463.979 143.787 C 463.705 113.106,463.475 108.117,462.106 103.253 C 454.378 75.778,435.710 57.183,408.747 50.100 C 403.001 48.590,398.898 48.391,368.640 48.146 C 350.101 47.996,333.695 48.187,332.181 48.571 M57.600 321.613 C 53.469 323.519,50.869 326.221,49.107 330.438 C 47.195 335.014,47.173 393.057,49.079 403.989 C 53.246 427.884,70.296 449.411,92.054 458.250 C 105.161 463.574,105.749 463.640,143.787 463.979 L 178.773 464.292 182.564 462.333 C 184.649 461.255,187.529 458.898,188.964 457.094 C 191.298 454.161,191.573 453.202,191.573 448.000 C 191.573 442.768,191.308 441.857,188.923 438.906 C 183.362 432.026,184.839 432.266,145.067 431.787 L 109.653 431.360 103.253 428.221 C 95.972 424.650,88.489 417.737,85.033 411.387 C 80.546 403.142,80.215 399.991,80.195 365.261 C 80.177 335.942,80.042 332.937,78.600 329.813 C 74.741 321.450,65.647 317.899,57.600 321.613 M441.600 321.613 C 437.469 323.519,434.869 326.221,433.107 330.438 C 431.995 333.099,431.787 338.631,431.787 365.447 C 431.787 399.984,431.456 403.141,426.967 411.387 C 423.511 417.737,416.028 424.650,408.747 428.221 L 402.347 431.360 366.933 431.787 C 327.161 432.266,328.638 432.026,323.077 438.906 C 320.692 441.857,320.427 442.768,320.427 448.000 C 320.427 453.202,320.702 454.161,323.036 457.094 C 324.471 458.898,327.351 461.255,329.436 462.333 L 333.227 464.292 368.213 463.979 C 406.251 463.640,406.839 463.574,419.946 458.250 C 436.119 451.680,451.680 436.119,458.250 419.946 C 463.546 406.909,463.633 406.138,464.004 369.067 C 464.370 332.505,464.209 330.687,460.173 325.890 C 455.563 320.412,447.984 318.666,441.600 321.613 " stroke="none" fill-rule="evenodd" fill="black"></path></svg>