<svg xmlns="http://www.w3.org/2000/svg" width="512" height="512" viewBox="0 0 512 512"><path d="M241.920 48.669 C 177.359 52.784,118.768 87.102,81.958 142.362 C 55.666 181.831,43.309 234.683,49.503 281.173 C 55.829 328.652,75.879 369.527,109.176 402.824 C 142.702 436.350,182.619 455.851,231.680 462.670 C 235.904 463.257,246.848 463.738,256.000 463.738 C 265.152 463.738,276.096 463.257,280.320 462.670 C 329.321 455.859,369.272 436.331,402.802 402.802 C 436.331 369.272,455.859 329.321,462.670 280.320 C 464.046 270.420,464.046 241.580,462.670 231.680 C 455.892 182.914,436.342 142.776,403.220 109.623 C 391.401 97.792,382.569 90.546,369.558 82.006 C 331.997 57.351,287.606 45.757,241.920 48.669 M232.107 159.951 L 232.107 175.688 208.427 175.951 C 174.142 176.331,176.319 174.183,175.951 208.000 L 175.689 232.107 159.951 232.107 L 144.213 232.107 144.213 207.113 C 144.213 179.432,144.644 176.200,149.573 166.907 C 154.818 157.020,165.580 148.562,176.736 145.562 C 180.238 144.620,187.381 144.312,206.720 144.269 L 232.107 144.213 232.107 159.951 M334.898 145.520 C 350.209 149.508,362.492 161.791,366.480 177.102 C 367.509 181.054,367.787 187.422,367.787 207.113 L 367.787 232.107 352.049 232.107 L 336.311 232.107 336.049 208.000 C 335.681 174.183,337.858 176.331,303.573 175.951 L 279.893 175.688 279.893 159.951 L 279.893 144.213 304.887 144.213 C 324.578 144.213,330.946 144.491,334.898 145.520 M175.951 304.000 C 176.320 337.924,174.076 335.680,208.000 336.049 L 232.107 336.311 232.107 352.049 L 232.107 367.787 206.662 367.787 C 185.873 367.787,180.368 367.538,176.582 366.425 C 161.200 361.907,149.448 349.979,145.520 334.898 C 144.491 330.946,144.213 324.578,144.213 304.887 L 144.213 279.893 159.951 279.893 L 175.689 279.893 175.951 304.000 M367.787 304.887 C 367.787 324.578,367.509 330.946,366.480 334.898 C 362.510 350.140,350.140 362.510,334.898 366.480 C 330.946 367.509,324.578 367.787,304.887 367.787 L 279.893 367.787 279.893 352.049 L 279.893 336.311 304.000 336.049 C 330.371 335.762,330.622 335.715,334.234 330.394 C 335.628 328.341,335.814 325.638,336.049 304.000 L 336.311 279.893 352.049 279.893 L 367.787 279.893 367.787 304.887 " stroke="none" fill-rule="evenodd" fill="black"></path></svg>