<svg xmlns="http://www.w3.org/2000/svg" width="512" height="512" viewBox="0 0 512 512"><path d="M128.427 118.452 C 58.965 158.199,1.626 191.048,1.006 191.448 C 0.235 191.945,39.832 215.022,126.019 264.306 C 195.397 303.978,253.156 336.832,254.374 337.315 C 256.396 338.118,265.572 333.061,359.867 279.177 C 416.670 246.718,463.385 220.160,463.679 220.160 C 463.973 220.160,464.213 257.024,464.213 302.080 L 464.213 384.000 488.110 384.000 L 512.007 384.000 511.790 287.818 L 511.573 191.636 384.427 118.910 C 314.496 78.910,256.704 46.184,256.000 46.184 C 255.296 46.184,197.888 78.705,128.427 118.452 M95.780 328.673 L 96.000 377.453 174.933 421.416 C 220.315 446.691,254.773 465.378,256.000 465.378 C 257.227 465.378,291.685 446.691,337.067 421.416 L 416.000 377.453 416.220 328.673 C 416.383 292.738,416.186 279.893,415.473 279.893 C 414.940 279.893,378.841 300.273,335.252 325.182 L 256.000 370.470 176.748 325.182 C 133.159 300.273,97.060 279.893,96.527 279.893 C 95.814 279.893,95.617 292.738,95.780 328.673 " stroke="none" fill="black" fill-rule="evenodd"></path></svg>