<svg xmlns="http://www.w3.org/2000/svg" width="512" height="512" viewBox="0 0 512 512"><path d="M252.160 48.570 C 248.671 49.449,24.092 177.873,21.015 180.749 C 14.685 186.665,14.577 197.043,20.783 203.186 C 22.020 204.411,74.362 234.741,137.098 270.586 C 250.832 335.569,251.178 335.758,255.929 335.751 C 260.666 335.745,261.269 335.416,361.205 278.300 C 418.697 245.441,462.244 221.058,462.951 221.329 C 464.014 221.737,464.218 232.383,464.413 297.631 L 464.640 373.459 466.696 376.460 C 470.179 381.542,473.978 383.573,480.000 383.573 C 486.628 383.573,491.294 380.796,493.977 375.254 C 495.787 371.515,495.787 371.512,495.787 280.023 C 495.787 179.680,496.081 185.282,490.563 180.467 C 488.958 179.066,436.772 148.872,374.596 113.370 C 292.605 66.553,260.609 48.696,258.133 48.372 C 256.256 48.126,253.568 48.215,252.160 48.570 M99.244 286.526 C 98.212 287.337,96.964 289.081,96.470 290.402 C 95.209 293.781,95.252 366.609,96.519 371.640 C 97.039 373.706,98.671 376.741,100.146 378.384 C 102.063 380.521,123.987 393.112,177.067 422.562 C 249.810 462.920,251.401 463.751,256.000 463.751 C 260.599 463.751,262.190 462.920,334.933 422.562 C 388.013 393.112,409.937 380.521,411.854 378.384 C 413.329 376.741,414.961 373.706,415.481 371.640 C 416.715 366.740,416.778 295.273,415.553 290.861 C 414.563 287.299,411.629 285.013,408.045 285.013 C 406.351 285.013,382.965 297.941,333.561 326.187 L 261.547 367.360 256.000 367.360 L 250.453 367.360 178.439 326.187 C 125.337 295.827,105.728 285.018,103.772 285.032 C 102.313 285.043,100.276 285.715,99.244 286.526 " stroke="none" fill-rule="evenodd" fill="black"></path></svg>