<svg xmlns="http://www.w3.org/2000/svg" width="512" height="512" viewBox="0 0 512 512"><path d="M250.880 49.034 C 245.966 50.888,23.673 178.264,21.015 180.748 C 14.386 186.944,14.580 197.282,21.445 203.611 C 23.026 205.069,40.352 215.392,59.947 226.551 L 95.573 246.842 95.573 306.845 C 95.573 348.023,95.874 368.268,96.533 371.371 C 97.255 374.776,98.271 376.632,100.644 378.880 C 102.470 380.610,134.826 399.099,177.551 422.827 C 249.829 462.966,251.401 463.787,256.000 463.787 C 260.599 463.787,262.171 462.966,334.449 422.827 C 377.174 399.099,409.530 380.610,411.356 378.880 C 413.729 376.632,414.745 374.776,415.467 371.371 C 416.126 368.268,416.427 348.022,416.427 306.841 L 416.427 246.834 439.795 233.497 C 452.647 226.162,463.399 220.160,463.688 220.160 C 463.977 220.160,464.213 254.215,464.213 295.837 C 464.213 371.211,464.221 371.529,466.023 375.254 C 468.706 380.796,473.372 383.573,480.000 383.573 C 486.628 383.573,491.294 380.796,493.977 375.254 L 495.787 371.514 495.787 279.369 L 495.787 187.223 493.440 183.555 C 491.243 180.122,483.844 175.745,377.600 115.029 C 315.179 79.356,262.618 49.634,260.799 48.978 C 256.809 47.540,254.808 47.552,250.880 49.034 M351.749 137.173 C 404.185 167.093,447.096 191.765,447.107 192.000 C 447.144 192.777,257.402 300.800,256.000 300.800 C 254.598 300.800,64.856 192.777,64.893 192.000 C 64.914 191.561,255.241 82.777,255.992 82.775 C 256.222 82.774,299.313 107.253,351.749 137.173 M185.173 298.015 L 239.360 329.019 239.581 374.889 L 239.802 420.759 233.979 417.526 C 230.776 415.748,205.634 401.813,178.107 386.560 L 128.058 358.827 128.029 312.077 C 128.002 267.796,128.079 265.371,129.493 266.169 C 130.315 266.632,155.371 280.962,185.173 298.015 M383.971 312.107 L 383.942 358.827 333.893 386.560 C 306.366 401.813,281.224 415.748,278.021 417.526 L 272.198 420.759 272.419 374.892 L 272.640 329.025 328.107 297.257 C 358.613 279.784,383.669 265.466,383.787 265.438 C 383.904 265.410,383.987 286.411,383.971 312.107 " stroke="none" fill="black" fill-rule="evenodd"></path></svg>