<svg xmlns="http://www.w3.org/2000/svg" width="512" height="512" viewBox="0 0 512 512"><path d="M209.423 48.651 C 136.717 53.733,73.467 105.966,54.246 176.799 C 43.684 215.725,46.502 254.843,62.555 292.117 C 93.633 364.279,170.919 407.274,248.475 395.548 C 273.170 391.815,297.928 382.316,318.293 368.762 L 327.253 362.799 375.467 410.910 C 426.304 461.640,426.282 461.622,435.331 462.947 C 443.187 464.098,453.023 459.632,458.227 452.551 C 461.579 447.990,463.679 440.327,462.947 435.331 C 461.622 426.282,461.640 426.304,410.910 375.467 L 362.799 327.253 368.729 318.343 C 393.595 280.982,402.999 233.335,394.184 189.364 C 382.305 130.107,341.724 81.779,285.335 59.732 C 262.662 50.867,235.156 46.852,209.423 48.651 M248.718 100.690 C 272.513 105.783,292.885 116.992,310.667 134.773 C 328.548 152.655,339.587 172.788,344.871 197.157 C 346.510 204.719,346.805 208.619,346.805 222.720 C 346.805 236.821,346.510 240.721,344.871 248.283 C 339.587 272.652,328.548 292.785,310.667 310.667 C 292.465 328.868,272.072 339.905,246.613 345.333 C 236.222 347.549,209.081 347.520,198.827 345.282 C 172.913 339.626,152.824 328.770,134.795 310.679 C 116.528 292.349,105.147 271.124,100.108 245.990 C 97.771 234.337,98.012 208.969,100.571 197.157 C 105.534 174.249,116.444 153.648,132.519 136.833 C 151.859 116.604,176.022 103.874,203.520 99.429 C 214.577 97.641,237.457 98.280,248.718 100.690 " stroke="none" fill-rule="evenodd" fill="black"></path></svg>