<svg xmlns="http://www.w3.org/2000/svg" width="512" height="512" viewBox="0 0 512 512"><path d="M241.493 64.526 C 239.381 64.719,233.429 65.470,228.267 66.193 C 166.413 74.860,111.240 115.190,83.590 171.947 C 44.342 252.513,65.443 347.535,135.409 405.296 C 149.613 417.022,171.862 429.592,190.581 436.467 C 201.116 440.337,216.087 444.146,228.267 446.056 C 241.273 448.096,270.727 448.096,283.733 446.056 C 311.748 441.662,339.297 431.076,361.657 416.114 C 407.523 385.423,437.475 338.442,446.056 283.733 C 448.096 270.727,448.096 241.273,446.056 228.267 C 436.166 165.213,397.107 111.654,340.907 84.082 C 321.912 74.763,304.334 69.212,284.160 66.161 C 275.390 64.834,249.106 63.827,241.493 64.526 M247.887 145.516 C 263.899 148.308,279.435 156.151,291.538 167.551 C 300.305 175.809,305.455 182.569,310.164 192.000 C 317.137 205.967,319.511 216.132,319.530 232.107 C 319.551 248.902,316.031 262.335,308.026 276.006 L 304.556 281.933 331.687 309.074 L 358.818 336.214 347.516 347.516 L 336.214 358.818 308.995 331.608 L 281.776 304.399 279.341 306.118 C 271.773 311.462,257.297 316.935,245.760 318.813 C 230.917 321.229,216.665 319.826,201.694 314.475 C 189.136 309.987,181.057 304.773,170.583 294.400 C 156.830 280.779,149.553 267.534,145.736 249.173 C 143.546 238.639,143.985 220.884,146.706 209.920 C 149.209 199.838,156.546 185.409,163.645 176.610 C 176.427 160.766,195.854 149.093,215.467 145.470 C 223.752 143.940,238.974 143.962,247.887 145.516 M224.560 176.683 C 205.409 179.245,188.978 191.556,180.883 209.409 C 177.314 217.281,175.447 227.564,176.121 235.644 C 177.326 250.094,182.641 261.349,193.196 271.806 C 204.289 282.795,216.476 287.777,232.107 287.711 C 247.425 287.648,260.667 282.156,271.412 271.412 C 282.156 260.667,287.648 247.425,287.711 232.107 C 287.752 222.456,286.125 215.425,281.787 206.507 C 277.443 197.575,266.675 186.798,257.707 182.404 C 247.126 177.221,235.519 175.218,224.560 176.683 " stroke="none" fill-rule="evenodd" fill="black"></path></svg>