<svg xmlns="http://www.w3.org/2000/svg" width="512" height="512" viewBox="0 0 512 512"><path d="M207.349 48.670 C 168.982 51.397,131.304 68.145,102.399 95.323 C 36.422 157.357,29.639 259.491,86.796 330.253 C 93.404 338.434,108.638 353.143,117.007 359.422 C 151.498 385.301,195.627 397.653,238.203 393.346 C 269.544 390.176,302.651 377.135,325.683 358.887 L 331.520 354.263 385.707 408.321 C 434.485 456.983,440.265 462.476,443.616 463.355 C 455.810 466.553,466.553 455.810,463.355 443.616 C 462.476 440.265,456.983 434.485,408.321 385.707 L 354.263 331.520 358.887 325.683 C 377.135 302.651,390.176 269.544,393.346 238.203 C 398.364 188.593,381.227 138.542,346.880 102.499 C 310.150 63.954,260.704 44.878,207.349 48.670 M236.765 81.103 C 247.918 82.381,256.126 84.195,266.240 87.619 C 303.032 100.075,333.122 127.255,349.205 162.560 C 357.518 180.811,360.933 195.787,361.565 216.774 C 362.291 240.845,358.561 259.453,348.715 280.885 C 337.942 304.336,317.187 327.663,295.054 341.197 C 272.429 355.033,248.040 361.877,221.303 361.893 C 182.396 361.918,145.995 346.449,119.459 318.615 C 89.479 287.169,75.897 245.591,81.529 202.497 C 85.619 171.202,99.028 144.090,121.559 121.559 C 140.229 102.889,164.043 89.525,189.013 83.703 C 202.470 80.566,222.537 79.473,236.765 81.103 " stroke="none" fill-rule="evenodd" fill="black"></path></svg>