<svg xmlns="http://www.w3.org/2000/svg" width="512" height="512" viewBox="0 0 512 512"><path d="M241.920 64.514 C 213.887 67.408,193.935 72.844,171.947 83.578 C 133.208 102.489,103.257 132.301,84.023 171.093 C 57.348 224.896,57.348 287.104,84.023 340.907 C 93.945 360.918,104.465 375.651,119.925 391.182 C 178.115 449.645,266.304 464.575,340.053 428.450 C 399.326 399.415,439.047 343.213,446.733 277.505 C 456.100 197.428,412.924 118.956,340.053 83.616 C 321.227 74.486,304.296 69.198,284.160 66.158 C 275.445 64.843,248.788 63.805,241.920 64.514 M278.930 97.756 C 348.869 108.010,403.990 163.131,414.244 233.070 C 416.796 250.481,415.649 276.981,411.643 293.120 C 394.712 361.335,337.072 410.217,267.307 415.526 C 184.564 421.822,109.885 361.658,97.756 278.930 C 96.024 267.114,96.024 244.886,97.756 233.070 C 102.788 198.747,118.411 167.707,143.059 143.059 C 168.065 118.053,199.509 102.442,235.093 97.365 C 244.024 96.091,269.099 96.315,278.930 97.756 M214.187 145.973 C 180.924 153.157,155.846 177.133,146.562 210.624 C 145.045 216.096,144.742 219.558,144.721 231.680 C 144.692 247.860,145.811 253.804,151.366 266.976 C 165.264 299.928,200.186 321.637,236.277 319.759 C 250.770 319.006,269.562 313.095,279.130 306.283 L 281.757 304.412 304.932 327.478 C 326.983 349.427,328.309 350.587,332.288 351.410 C 334.588 351.885,336.892 352.149,337.408 351.995 C 337.924 351.842,339.396 351.486,340.678 351.206 C 343.275 350.637,348.564 346.328,350.033 343.583 C 351.767 340.343,352.244 336.331,351.389 332.191 C 350.593 328.338,349.239 326.795,327.478 304.932 L 304.412 281.757 306.283 279.130 C 309.741 274.273,314.980 261.964,317.143 253.616 C 325.102 222.891,315.519 190.077,292.171 168.107 C 284.866 161.233,278.677 157.092,268.505 152.274 C 257.261 146.948,248.666 145.018,234.240 144.583 C 224.424 144.286,220.848 144.534,214.187 145.973 M245.333 177.627 C 247.680 178.119,252.822 180.055,256.760 181.930 C 262.456 184.642,265.353 186.762,270.924 192.296 C 282.707 204.001,287.586 215.654,287.561 232.030 C 287.546 241.668,285.985 249.017,282.433 256.176 C 272.467 276.264,254.210 287.699,232.107 287.700 C 215.631 287.700,204.424 283.057,192.752 271.392 C 186.758 265.402,184.762 262.707,181.959 256.821 C 177.532 247.522,176.354 242.188,176.408 231.680 C 176.478 217.881,180.581 206.290,188.843 196.547 C 203.121 179.709,223.198 172.985,245.333 177.627 " stroke="none" fill-rule="evenodd" fill="black"></path></svg>