<svg xmlns="http://www.w3.org/2000/svg" width="512" height="512" viewBox="0 0 512 512"><path d="M196.693 48.619 C 132.456 53.507,76.750 97.171,56.280 158.678 C 37.094 216.329,52.038 279.653,95.026 322.864 C 120.461 348.430,151.369 363.854,187.733 369.127 C 202.177 371.221,227.038 370.447,241.095 367.467 C 260.615 363.327,280.600 355.189,296.859 344.759 L 303.944 340.215 365.948 402.214 L 427.951 464.214 446.083 446.083 L 464.214 427.951 402.214 365.948 L 340.215 303.944 344.759 296.859 C 355.189 280.600,363.327 260.615,367.467 241.095 C 369.211 232.867,369.734 227.520,370.097 214.187 C 370.593 195.950,369.517 185.155,365.672 169.813 C 350.022 107.350,296.734 59.084,233.386 49.994 C 222.100 48.375,207.225 47.817,196.693 48.619 M230.827 101.114 C 275.544 110.387,310.155 145.846,317.865 190.286 C 320.620 206.162,319.134 228.353,314.331 243.065 C 305.199 271.039,284.053 295.527,258.190 308.078 C 241.045 316.398,227.636 319.493,209.067 319.418 C 179.965 319.301,154.687 309.197,133.661 289.280 C 117.105 273.598,106.170 254.197,101.436 232.107 C 98.873 220.149,98.693 199.591,101.051 188.160 C 110.956 140.137,148.505 105.797,197.973 99.521 C 203.986 98.758,224.187 99.738,230.827 101.114 " stroke="none" fill-rule="evenodd" fill="black"></path></svg>