<svg xmlns="http://www.w3.org/2000/svg" width="512" height="512" viewBox="0 0 512 512"><path d="M35.106 48.705 C 27.322 50.235,19.311 57.741,17.004 65.666 C 16.423 67.663,16.211 89.901,16.381 130.987 L 16.640 193.280 18.524 196.803 C 21.238 201.875,27.605 207.157,32.779 208.625 C 35.167 209.303,89.335 219.497,153.153 231.278 C 216.971 243.059,269.675 253.104,270.273 253.600 C 271.714 254.796,271.659 258.103,270.178 259.332 C 269.528 259.871,216.056 270.092,151.351 282.045 C 68.056 297.432,32.507 304.328,29.597 305.661 C 25.269 307.645,20.761 312.023,18.182 316.749 C 16.741 319.388,16.624 323.688,16.399 382.293 C 16.130 452.252,15.886 449.066,22.040 455.877 C 26.763 461.106,32.526 463.663,39.680 463.705 L 45.653 463.740 262.400 374.294 C 397.932 318.362,480.586 283.819,482.987 282.103 C 501.518 268.860,499.287 238.647,479.024 228.431 C 471.743 224.761,50.094 50.088,45.681 48.914 C 40.987 47.666,40.448 47.655,35.106 48.705 " stroke="none" fill-rule="evenodd" fill="black"></path></svg>