<svg xmlns="http://www.w3.org/2000/svg" width="512" height="512" viewBox="0 0 512 512"><path d="M16.213 128.269 L 16.213 208.023 18.987 208.506 C 20.512 208.772,91.648 219.435,177.067 232.202 C 262.485 244.969,332.646 255.646,332.979 255.929 C 333.311 256.211,263.423 266.954,177.672 279.801 C 91.920 292.648,20.512 303.351,18.987 303.585 L 16.213 304.010 16.213 383.685 C 16.213 427.506,16.501 463.361,16.853 463.363 C 17.955 463.369,494.933 256.512,494.933 256.029 C 494.933 255.585,19.660 49.346,17.358 48.791 C 16.407 48.562,16.213 62.008,16.213 128.269 " stroke="none" fill-rule="evenodd" fill="black"></path></svg>