<svg xmlns="http://www.w3.org/2000/svg" width="512" height="512" viewBox="0 0 512 512"><path d="M34.560 48.915 C 27.561 50.987,21.192 56.123,18.228 62.085 C 16.722 65.115,16.640 68.587,16.640 129.280 L 16.640 193.280 18.981 197.262 C 22.046 202.476,27.183 206.792,32.217 208.383 C 34.444 209.087,91.649 220.162,159.338 232.995 C 227.028 245.828,282.324 256.409,282.218 256.509 C 282.113 256.609,225.966 267.327,157.448 280.328 C 61.812 298.474,31.958 304.428,28.945 305.955 C 24.800 308.055,20.659 312.220,18.149 316.812 C 16.751 319.371,16.623 324.190,16.405 382.512 C 16.171 445.375,16.173 445.457,18.015 449.738 C 21.794 458.522,32.048 464.827,41.263 464.031 C 44.614 463.741,96.940 442.497,262.400 374.248 C 397.966 318.331,480.585 283.818,482.987 282.102 C 498.197 271.236,500.090 247.932,486.868 234.328 C 484.833 232.234,481.303 229.580,479.024 228.432 C 475.737 226.775,90.576 66.762,55.467 52.467 C 45.483 48.402,39.643 47.410,34.560 48.915 M256.000 170.201 C 368.875 217.017,461.740 255.604,462.368 255.950 C 463.133 256.371,462.145 257.161,459.382 258.339 C 447.102 263.577,50.535 426.976,49.280 427.315 C 47.871 427.696,47.787 425.067,47.787 380.747 L 47.787 333.774 52.267 332.870 C 54.731 332.373,109.461 321.968,173.889 309.749 C 238.318 297.530,293.038 286.781,295.489 285.862 C 302.015 283.418,308.277 277.541,311.643 270.704 C 314.256 265.397,314.453 264.393,314.453 256.427 C 314.453 248.460,314.256 247.456,311.643 242.149 C 308.224 235.204,302.115 229.544,295.327 227.034 C 292.705 226.064,236.800 215.093,171.093 202.654 C 105.387 190.214,50.763 179.841,49.707 179.602 L 47.787 179.167 47.787 131.724 C 47.787 86.957,47.871 84.303,49.280 84.681 C 50.101 84.901,143.125 123.385,256.000 170.201 " stroke="none" fill-rule="evenodd" fill="black"></path></svg>