<svg xmlns="http://www.w3.org/2000/svg" width="512" height="512" viewBox="0 0 512 512"><path d="M220.160 33.402 C 166.566 37.413,116.836 51.750,85.635 72.184 C 76.554 78.132,60.577 93.844,56.435 100.902 C 54.856 103.593,52.384 109.159,50.942 113.270 C 48.422 120.459,48.307 121.406,47.958 137.909 C 47.638 153.035,47.774 155.448,49.103 158.250 C 51.042 162.336,66.325 176.080,76.373 182.775 C 92.848 193.752,120.972 205.926,147.627 213.619 C 200.884 228.989,253.893 233.158,305.493 226.033 C 356.673 218.966,405.348 202.773,435.627 182.739 C 444.580 176.816,461.083 162.298,462.935 158.717 C 464.774 155.161,464.725 128.698,462.863 119.683 C 453.478 74.250,385.399 40.289,289.707 33.305 C 275.734 32.286,234.304 32.343,220.160 33.402 M47.964 211.289 L 48.213 236.800 50.692 241.920 C 53.959 248.667,65.252 259.854,75.943 266.934 C 117.655 294.557,192.098 314.027,256.000 314.027 C 319.945 314.027,393.950 294.683,436.053 266.963 C 446.655 259.984,458.017 248.716,461.308 241.920 L 463.787 236.800 464.037 211.261 L 464.286 185.721 457.187 192.537 C 425.461 222.995,349.491 247.848,273.493 252.629 C 196.817 257.453,89.807 227.870,53.843 191.907 L 47.714 185.777 47.964 211.289 M47.963 295.313 L 48.213 320.427 50.721 325.547 C 52.371 328.914,55.585 333.018,60.108 337.533 C 90.073 367.448,162.444 391.929,235.520 396.871 C 313.815 402.166,414.925 374.438,451.892 337.533 C 456.415 333.018,459.629 328.914,461.279 325.547 L 463.787 320.427 464.037 295.412 L 464.287 270.397 458.660 276.362 C 433.724 302.795,361.994 328.136,290.133 335.900 C 272.230 337.834,240.482 337.813,222.293 335.856 C 173.673 330.624,126.102 317.946,90.880 300.835 C 75.106 293.171,64.039 285.859,54.790 276.988 L 47.712 270.200 47.963 295.313 M47.982 378.213 C 48.297 399.764,48.525 402.917,50.104 407.678 C 55.851 424.997,71.384 436.933,109.255 453.132 C 151.941 471.390,198.269 479.814,256.000 479.814 C 321.433 479.814,373.150 468.791,421.820 444.471 C 439.435 435.669,451.522 426.420,457.419 417.229 C 463.036 408.476,463.626 404.986,464.018 378.202 L 464.372 354.058 458.106 360.319 C 437.479 380.933,387.531 402.028,333.430 412.975 C 291.617 421.435,252.032 423.052,209.493 418.037 C 168.860 413.246,118.288 398.483,85.333 381.791 C 70.866 374.463,62.280 368.631,54.321 360.726 L 47.629 354.079 47.982 378.213 " stroke="none" fill-rule="evenodd" fill="black"></path></svg>