<svg xmlns="http://www.w3.org/2000/svg" width="512" height="512" viewBox="0 0 512 512"><path d="M220.587 33.366 C 183.640 36.116,146.828 43.869,119.364 54.686 C 81.590 69.563,58.814 88.637,50.674 112.213 C 48.472 118.591,48.314 119.994,48.265 133.552 L 48.213 148.065 51.132 154.006 C 63.027 178.217,115.172 203.938,178.347 216.755 C 219.044 225.012,253.828 226.930,292.693 223.061 C 369.576 215.407,446.141 183.970,460.868 154.009 L 463.787 148.071 463.733 133.556 C 463.683 120.163,463.501 118.503,461.381 112.102 C 447.692 70.764,380.469 39.908,289.707 33.303 C 275.935 32.301,234.388 32.339,220.587 33.366 M49.150 198.734 C 47.851 200.170,47.718 202.314,47.951 218.148 C 48.198 234.915,48.330 236.169,50.223 239.787 C 65.341 268.676,135.638 298.714,209.920 308.026 C 272.705 315.896,341.931 306.749,400.324 282.867 C 430.083 270.696,455.019 253.339,461.653 240.178 C 463.694 236.131,463.798 235.170,464.049 218.148 C 464.282 202.314,464.149 200.170,462.850 198.734 C 462.046 197.846,460.821 197.120,460.127 197.120 C 459.433 197.120,454.596 200.336,449.379 204.266 C 428.561 219.948,418.364 225.189,389.973 234.797 C 302.454 264.414,208.034 264.059,118.990 233.779 C 94.395 225.415,82.267 219.065,62.621 204.266 C 57.404 200.336,52.567 197.120,51.873 197.120 C 51.179 197.120,49.954 197.846,49.150 198.734 M49.067 284.708 C 47.839 285.936,47.700 288.288,47.940 303.695 C 48.212 321.192,48.225 321.302,50.640 325.657 C 54.241 332.155,64.067 341.533,74.667 348.591 C 116.764 376.620,190.748 395.938,256.000 395.938 C 320.528 395.938,394.796 376.693,436.705 349.112 C 446.482 342.678,457.971 331.777,461.290 325.786 L 463.787 321.280 464.060 303.695 C 464.300 288.288,464.161 285.936,462.933 284.708 C 460.662 282.437,458.759 283.037,452.370 288.036 C 443.677 294.838,428.424 305.013,422.240 308.134 C 403.632 317.527,367.725 328.731,336.640 334.843 C 307.133 340.645,287.075 342.566,256.000 342.566 C 224.925 342.566,204.867 340.645,175.360 334.843 C 144.275 328.731,108.368 317.527,89.760 308.134 C 83.576 305.013,68.323 294.838,59.630 288.036 C 53.241 283.037,51.338 282.437,49.067 284.708 M48.670 370.291 C 47.375 372.710,47.620 387.769,49.066 394.592 C 55.159 423.352,86.529 448.064,136.533 463.493 C 172.472 474.583,210.766 479.814,256.000 479.814 C 304.222 479.814,346.013 473.622,383.147 460.974 C 428.878 445.399,457.155 421.873,462.934 394.592 C 464.380 387.769,464.625 372.710,463.330 370.291 C 461.690 367.226,458.604 368.380,448.647 375.778 C 431.449 388.556,423.535 393.142,408.158 399.239 C 357.243 419.426,290.872 430.541,238.917 427.582 C 196.590 425.172,158.063 417.986,121.506 405.685 C 94.541 396.611,82.637 390.447,62.220 374.985 C 53.455 368.347,50.296 367.252,48.670 370.291 " stroke="none" fill-rule="evenodd" fill="black"></path></svg>