<svg xmlns="http://www.w3.org/2000/svg" width="512" height="512" viewBox="0 0 512 512"><path d="M221.147 33.313 C 134.960 39.995,69.447 68.646,52.444 107.094 C 47.566 118.123,47.716 113.002,47.975 259.413 L 48.213 393.813 50.510 400.296 C 54.129 410.511,58.379 416.909,67.776 426.288 C 77.493 435.988,86.401 442.181,101.253 449.564 C 182.633 490.016,329.366 490.016,410.746 449.564 C 425.370 442.295,434.475 435.957,444.224 426.259 C 453.626 416.907,457.861 410.538,461.490 400.296 L 463.787 393.813 463.787 256.427 L 463.787 119.040 461.435 112.102 C 448.361 73.530,391.383 44.956,307.578 34.946 C 295.237 33.472,286.307 33.064,261.547 32.840 C 244.651 32.687,226.471 32.900,221.147 33.313 M297.387 66.112 C 354.634 71.697,401.238 87.784,422.348 109.248 C 428.938 115.948,431.360 120.988,431.360 128.000 C 431.360 135.208,428.953 139.992,421.582 147.436 C 401.119 168.102,356.555 183.540,298.667 190.018 C 280.002 192.107,231.998 192.107,213.333 190.018 C 155.536 183.550,111.046 168.157,90.426 147.493 C 83.112 140.162,80.640 135.239,80.640 128.000 C 80.640 120.988,83.062 115.948,89.652 109.248 C 113.330 85.174,167.210 68.560,234.667 64.532 C 245.944 63.859,284.157 64.821,297.387 66.112 M102.827 194.157 C 184.648 233.789,327.536 233.794,409.173 194.167 C 414.336 191.661,421.536 187.660,425.173 185.276 L 431.787 180.941 431.787 199.561 L 431.787 218.181 429.238 223.281 C 418.944 243.881,377.255 263.737,326.688 272.122 C 278.733 280.075,233.267 280.075,185.312 272.122 C 134.745 263.737,93.056 243.881,82.762 223.281 L 80.213 218.181 80.213 199.561 L 80.213 180.941 86.827 185.276 C 90.464 187.660,97.664 191.656,102.827 194.157 M103.499 280.325 C 132.236 294.160,163.521 302.292,209.157 307.791 C 226.839 309.922,285.161 309.922,302.843 307.791 C 329.633 304.563,343.159 302.098,363.059 296.815 C 386.553 290.579,411.224 280.430,425.781 271.013 L 431.787 267.128 431.778 285.671 C 431.770 303.525,431.693 304.379,429.689 308.683 C 424.078 320.735,406.056 333.671,381.440 343.315 C 331.779 362.772,259.051 369.096,194.560 359.566 C 138.000 351.208,92.508 330.586,82.311 308.683 C 80.307 304.379,80.230 303.525,80.222 285.671 L 80.213 267.128 86.219 271.013 C 89.521 273.149,97.297 277.340,103.499 280.325 M90.029 359.306 C 112.986 373.303,148.589 384.889,186.875 390.820 C 211.407 394.621,223.625 395.437,256.000 395.437 C 288.375 395.437,300.593 394.621,325.125 390.820 C 365.892 384.505,404.402 371.422,426.962 356.225 L 431.360 353.263 431.591 370.863 C 431.816 388.005,431.767 388.583,429.717 393.060 C 420.520 413.149,381.826 431.986,330.176 441.519 C 304.472 446.263,289.684 447.457,256.427 447.472 C 224.338 447.486,213.205 446.716,189.324 442.832 C 134.608 433.933,92.118 414.228,82.336 393.216 C 80.310 388.865,80.230 388.018,80.222 370.889 L 80.213 353.084 82.560 354.633 C 83.851 355.485,87.212 357.588,90.029 359.306 " stroke="none" fill-rule="evenodd" fill="black"></path></svg>