<svg xmlns="http://www.w3.org/2000/svg" width="512" height="512" viewBox="0 0 512 512"><path d="M201.779 28.893 C 195.639 31.798,190.155 37.625,188.222 43.299 C 187.482 45.471,185.502 57.050,183.822 69.028 C 182.142 81.007,180.176 91.976,179.454 93.404 C 177.328 97.607,175.856 98.851,167.231 103.735 C 155.486 110.384,155.611 110.398,129.280 99.733 C 110.057 91.948,107.398 91.088,102.400 91.041 C 99.143 91.011,94.927 91.637,92.187 92.558 C 83.698 95.413,81.296 98.725,56.581 141.654 C 44.287 163.008,33.786 181.632,33.245 183.040 C 31.723 187.003,31.890 195.318,33.592 200.309 C 35.727 206.568,39.746 210.588,59.231 225.958 C 70.438 234.797,76.757 240.372,77.791 242.333 C 79.078 244.772,79.360 247.275,79.360 256.242 C 79.360 264.028,79.012 267.842,78.150 269.482 C 76.399 272.818,72.292 276.447,54.814 290.102 C 46.242 296.799,38.452 303.369,37.503 304.702 C 31.726 312.815,30.502 322.903,34.293 331.169 C 37.239 337.594,77.237 406.672,80.520 411.005 C 83.779 415.307,87.110 417.674,93.135 419.969 C 101.166 423.028,104.957 422.234,130.024 412.235 C 155.992 401.876,155.358 401.939,166.951 408.575 C 175.021 413.194,178.563 416.308,179.964 420.016 C 180.444 421.287,182.204 432.121,183.876 444.093 C 185.715 457.263,187.549 467.340,188.520 469.605 C 190.492 474.204,194.698 479.100,199.022 481.830 C 206.129 486.317,208.507 486.492,258.291 486.205 C 301.030 485.959,304.509 485.828,308.480 484.313 C 314.321 482.086,321.793 474.546,323.692 468.962 C 324.480 466.646,326.498 454.954,328.177 442.981 C 331.234 421.184,332.393 416.808,335.909 413.785 C 336.780 413.035,340.963 410.443,345.203 408.025 C 356.373 401.652,356.547 401.672,382.401 412.117 C 393.959 416.786,405.355 420.864,407.726 421.178 C 410.960 421.607,413.532 421.296,418.023 419.932 C 428.430 416.771,429.534 415.322,454.488 372.053 C 466.533 351.168,477.150 332.386,478.081 330.316 C 481.609 322.474,479.792 310.753,473.998 303.985 C 472.372 302.085,463.363 294.510,453.980 287.152 C 444.596 279.794,436.052 272.559,434.993 271.074 C 433.253 268.635,433.040 267.216,432.794 256.427 C 432.536 245.097,432.625 244.326,434.513 241.493 C 435.609 239.851,442.451 233.783,449.719 228.010 C 475.056 207.883,474.052 208.812,477.053 202.716 C 480.893 194.915,480.954 187.746,477.247 179.936 C 472.171 169.244,433.598 103.596,429.980 99.493 C 424.733 93.542,418.713 90.891,410.453 90.892 C 404.328 90.894,403.118 91.268,382.225 99.634 C 368.722 105.040,359.230 108.373,357.335 108.373 C 353.557 108.373,341.750 102.424,336.647 97.949 C 334.658 96.205,332.609 93.709,332.093 92.403 C 331.577 91.096,329.780 80.340,328.100 68.501 C 326.420 56.661,324.614 45.717,324.087 44.181 C 321.686 37.186,316.749 31.926,309.333 28.463 L 305.067 26.470 256.000 26.462 L 206.933 26.455 201.779 28.893 M264.556 176.683 C 274.624 177.931,280.900 179.666,288.955 183.428 C 307.199 191.950,320.214 204.981,328.522 223.045 C 348.185 265.796,326.432 316.334,281.790 331.619 C 253.064 341.454,222.193 334.448,200.513 313.173 C 192.255 305.070,189.148 300.838,184.203 290.957 C 178.743 280.048,176.458 269.737,176.458 256.000 C 176.458 246.436,176.823 243.086,178.605 236.270 C 180.799 227.882,185.699 217.024,190.325 210.300 C 202.769 192.214,224.426 179.250,246.506 176.671 C 254.845 175.697,256.614 175.699,264.556 176.683 M246.187 209.027 C 224.018 213.831,208.213 233.382,208.213 256.000 C 208.213 269.119,212.883 280.300,222.291 289.709 C 241.253 308.671,270.747 308.671,289.709 289.709 C 314.540 264.878,305.482 223.605,272.452 211.083 C 266.094 208.672,252.673 207.621,246.187 209.027 " stroke="none" fill-rule="evenodd" fill="black"></path></svg>