<svg xmlns="http://www.w3.org/2000/svg" width="512" height="512" viewBox="0 0 512 512"><path d="M201.552 29.065 C 195.539 32.070,190.731 37.202,188.422 43.079 C 187.599 45.175,185.345 58.132,183.413 71.872 C 181.481 85.612,179.839 96.888,179.764 96.931 C 179.688 96.974,176.555 98.674,172.800 100.709 C 169.045 102.743,164.058 105.684,161.718 107.244 C 159.378 108.804,156.893 110.080,156.196 110.080 C 155.499 110.080,144.208 105.807,131.104 100.585 C 104.641 90.039,101.620 89.416,92.187 92.568 C 83.725 95.396,81.285 98.750,56.787 141.226 C 44.606 162.346,34.107 181.162,33.456 183.040 C 31.851 187.663,31.952 195.250,33.686 200.472 C 35.739 206.651,39.866 210.707,60.933 227.245 L 79.625 241.920 79.657 256.169 L 79.689 270.418 59.664 286.130 C 48.650 294.771,38.661 303.143,37.466 304.734 C 31.842 312.222,30.551 323.003,34.297 331.185 C 35.456 333.716,46.141 352.641,58.042 373.242 C 72.600 398.443,80.791 411.765,83.078 413.962 C 88.554 419.224,93.170 421.047,101.120 421.086 C 107.865 421.120,108.234 421.005,132.031 411.454 L 156.115 401.787 164.458 406.851 C 169.046 409.636,174.432 412.746,176.427 413.762 C 178.421 414.777,180.053 415.888,180.054 416.231 C 180.056 419.749,187.154 465.451,188.176 468.530 C 190.121 474.383,195.295 479.841,202.053 483.169 L 207.750 485.973 255.999 485.973 L 304.249 485.973 309.995 483.145 C 316.446 479.969,321.189 475.001,323.578 468.919 C 324.402 466.822,326.650 453.869,328.574 440.135 C 330.498 426.401,332.140 415.110,332.222 415.045 C 332.305 414.979,334.465 413.874,337.022 412.590 C 339.579 411.305,344.662 408.379,348.319 406.087 C 351.976 403.795,355.496 401.920,356.142 401.920 C 356.788 401.920,367.246 405.955,379.382 410.886 C 405.959 421.685,408.946 422.439,416.765 420.322 C 423.137 418.598,427.715 415.626,431.476 410.776 C 435.131 406.061,477.104 333.110,478.537 328.981 C 481.361 320.842,479.269 309.989,473.652 303.641 C 471.854 301.609,461.781 293.227,451.267 285.013 L 432.151 270.080 432.238 255.854 L 432.326 241.628 452.473 225.781 C 463.554 217.065,473.431 208.796,474.422 207.405 C 480.052 199.497,481.438 189.215,477.941 181.296 C 474.074 172.541,432.236 101.237,429.272 98.350 C 423.773 92.994,418.634 90.914,410.880 90.905 C 404.159 90.897,403.679 91.047,379.895 100.584 L 355.738 110.271 351.309 107.474 C 348.873 105.935,343.520 102.788,339.413 100.479 C 335.307 98.171,331.947 95.989,331.947 95.630 C 331.947 92.214,324.788 46.401,323.776 43.344 C 322.172 38.496,316.006 31.729,310.613 28.897 L 306.773 26.880 256.828 26.641 L 206.883 26.402 201.552 29.065 M294.400 58.667 C 294.402 60.800,300.599 102.582,301.330 105.387 C 303.445 113.503,310.695 121.597,320.105 126.346 C 323.098 127.857,329.003 131.266,333.227 133.922 C 345.612 141.710,352.235 143.553,361.172 141.698 C 363.795 141.153,375.450 136.894,387.071 132.233 C 398.693 127.571,408.271 123.848,408.356 123.959 C 408.440 124.069,417.026 138.915,427.436 156.948 C 442.641 183.288,446.146 189.937,445.261 190.756 C 444.656 191.317,436.159 198.020,426.379 205.651 C 401.048 225.417,399.886 227.382,400.113 250.027 C 400.191 257.771,399.863 267.144,399.384 270.856 C 398.414 278.380,399.115 282.534,401.967 286.160 C 402.929 287.382,413.311 295.918,425.039 305.129 L 446.363 321.875 444.795 324.564 C 443.932 326.043,435.416 340.789,425.870 357.333 C 416.323 373.877,408.061 387.413,407.509 387.413 C 406.957 387.413,397.697 383.830,386.932 379.451 C 376.168 375.072,365.558 371.040,363.355 370.491 C 354.141 368.195,346.525 369.735,336.441 375.934 C 332.327 378.464,325.504 382.370,321.281 384.614 C 312.135 389.473,306.194 395.064,303.178 401.651 C 301.064 406.269,299.579 414.660,295.241 446.507 L 294.224 453.973 255.912 453.973 C 232.365 453.973,217.600 453.662,217.600 453.165 C 217.600 452.721,216.079 441.907,214.220 429.135 C 210.412 402.977,209.447 400.022,202.492 393.233 C 200.241 391.036,195.328 387.601,191.573 385.599 C 187.819 383.598,182.195 380.335,179.076 378.350 C 170.706 373.021,166.850 371.225,161.749 370.282 C 154.216 368.890,148.137 370.452,125.072 379.706 C 113.372 384.401,103.729 388.152,103.644 388.041 C 103.560 387.931,94.974 373.085,84.564 355.052 C 69.421 328.819,65.857 322.064,66.739 321.263 C 67.344 320.712,75.780 314.052,85.485 306.462 C 111.739 285.928,111.885 285.650,111.869 256.483 C 111.856 234.137,111.228 230.602,106.071 223.823 C 104.359 221.574,102.490 219.349,101.918 218.880 C 101.345 218.411,92.945 211.753,83.252 204.085 L 65.627 190.142 67.198 187.445 C 68.062 185.961,76.577 171.211,86.121 154.667 C 95.664 138.123,103.804 124.587,104.208 124.587 C 104.613 124.587,113.684 128.086,124.365 132.363 C 149.135 142.280,150.887 142.794,158.293 142.316 C 165.145 141.873,169.829 140.024,179.158 134.079 C 182.701 131.822,188.480 128.480,192.000 126.654 C 195.520 124.827,200.248 121.498,202.506 119.254 C 209.384 112.422,210.662 108.480,214.329 82.773 C 216.103 70.336,217.565 59.680,217.577 59.093 C 217.595 58.256,225.861 58.027,256.000 58.027 C 277.120 58.027,294.400 58.315,294.400 58.667 M247.467 176.608 C 238.010 177.586,230.936 179.619,221.909 183.953 C 203.091 192.988,189.292 207.549,181.823 226.250 C 177.471 237.147,176.335 243.283,176.317 256.000 C 176.303 265.860,176.627 268.710,178.566 275.777 C 182.820 291.275,188.614 301.362,199.615 312.417 C 220.020 332.924,249.857 340.865,277.220 333.072 C 305.744 324.948,327.017 302.669,334.220 273.376 C 336.142 265.558,336.145 247.632,334.226 239.153 C 327.265 208.412,302.901 184.075,273.067 178.060 C 264.484 176.330,255.230 175.805,247.467 176.608 M271.263 210.705 C 293.594 218.375,307.291 241.763,303.038 264.960 C 301.496 273.371,295.869 283.723,289.356 290.133 C 264.572 314.525,222.466 304.767,210.987 271.971 C 201.757 245.602,216.860 217.163,244.159 209.507 C 250.720 207.667,264.146 208.260,271.263 210.705 " stroke="none" fill-rule="evenodd" fill="black"></path></svg>