<svg xmlns="http://www.w3.org/2000/svg" width="512" height="512" viewBox="0 0 512 512"><path d="M203.043 28.760 C 201.535 30.029,199.829 32.237,199.252 33.667 C 198.675 35.097,196.329 49.827,194.038 66.402 L 189.874 96.537 180.276 101.275 C 174.997 103.882,166.203 108.984,160.733 112.613 L 150.789 119.212 121.282 107.393 C 105.053 100.892,90.574 95.573,89.107 95.573 C 83.104 95.573,82.033 97.067,56.942 140.403 C 43.907 162.915,32.898 182.581,32.477 184.107 C 31.363 188.140,32.811 192.237,36.520 195.543 C 38.283 197.114,49.832 206.272,62.184 215.893 L 84.644 233.387 84.069 240.085 C 83.579 245.803,83.543 257.042,83.957 275.140 L 84.053 279.346 59.426 298.637 C 45.104 309.855,34.254 318.968,33.497 320.414 C 30.468 326.194,30.607 326.504,55.806 370.064 C 70.066 394.713,80.585 411.979,82.364 413.653 C 87.280 418.283,88.775 417.946,121.734 404.773 L 150.891 393.120 159.983 399.309 C 164.984 402.712,173.746 407.871,179.455 410.773 L 189.835 416.048 194.236 447.053 C 198.907 479.965,198.989 480.267,204.275 484.214 C 206.592 485.943,207.470 485.973,256.000 485.973 C 304.530 485.973,305.408 485.943,307.725 484.214 C 313.021 480.260,313.091 480.000,317.759 446.790 L 322.155 415.522 331.731 410.799 C 336.997 408.201,345.793 403.079,351.277 399.416 L 361.247 392.755 390.553 404.591 C 407.889 411.592,421.024 416.427,422.710 416.427 C 428.919 416.427,429.846 415.142,455.065 371.597 C 468.103 349.085,479.076 329.515,479.450 328.107 C 480.306 324.882,479.342 320.395,477.309 318.149 C 476.450 317.199,464.856 307.915,451.546 297.518 L 427.345 278.613 427.925 271.915 C 428.420 266.199,428.458 254.918,428.043 236.884 L 427.947 232.701 452.267 213.683 C 465.643 203.222,477.304 193.472,478.180 192.015 C 481.704 186.156,481.578 185.869,456.134 141.853 C 441.853 117.148,431.428 100.029,429.640 98.347 C 424.719 93.718,423.222 94.055,390.307 107.210 L 361.191 118.848 351.475 112.390 C 346.132 108.839,337.350 103.698,331.959 100.967 L 322.158 96.000 317.803 65.266 C 315.407 48.363,313.010 33.716,312.476 32.719 C 311.942 31.721,310.315 29.903,308.860 28.679 L 306.216 26.453 256.000 26.453 L 205.784 26.453 203.043 28.760 M274.773 178.420 C 290.103 181.970,307.034 192.522,317.414 204.997 C 324.077 213.005,331.321 227.467,333.770 237.653 C 336.477 248.912,336.314 264.519,333.371 275.804 C 331.196 284.140,326.364 294.817,321.502 302.029 C 317.087 308.578,304.628 320.108,297.125 324.591 C 287.894 330.105,275.680 334.218,264.713 335.505 C 248.026 337.463,229.707 333.451,214.875 324.591 C 207.372 320.108,194.913 308.578,190.498 302.029 C 185.641 294.824,180.805 284.143,178.624 275.804 C 175.525 263.949,175.525 248.050,178.625 236.192 C 188.299 199.190,222.059 174.306,259.840 176.330 C 264.064 176.556,270.784 177.497,274.773 178.420 " stroke="none" fill-rule="evenodd" fill="black"></path></svg>