<svg xmlns="http://www.w3.org/2000/svg" width="512" height="512" viewBox="0 0 512 512"><path d="M176.648 34.010 C 175.024 34.881,172.681 36.897,171.440 38.490 C 170.199 40.083,134.916 102.764,93.034 177.782 C 40.809 271.324,16.746 315.209,16.444 317.461 C 15.440 324.947,19.079 331.469,26.019 334.622 C 29.242 336.086,33.692 336.177,102.949 336.195 C 183.673 336.215,177.475 335.800,177.507 341.190 C 177.514 342.442,178.289 347.115,179.229 351.573 C 189.761 401.536,221.456 442.229,266.667 463.834 C 281.172 470.765,293.920 474.946,308.341 477.499 C 360.312 486.703,413.890 469.283,450.583 431.252 C 463.426 417.940,470.848 407.490,479.064 391.145 C 493.177 363.070,498.609 330.553,494.468 298.924 C 487.874 248.544,457.139 203.923,412.160 179.427 C 398.139 171.791,382.788 166.319,365.653 162.849 C 354.628 160.617,328.424 159.747,317.169 161.239 C 302.430 163.193,282.601 168.340,275.331 172.099 C 273.978 172.799,272.579 173.051,272.222 172.659 C 271.865 172.267,254.973 142.187,234.683 105.813 C 214.394 69.440,196.778 38.577,195.537 37.228 C 191.053 32.357,182.460 30.893,176.648 34.010 M246.486 192.613 C 280.348 253.260,308.053 303.084,308.053 303.333 C 308.053 303.583,252.149 303.787,183.822 303.787 C 115.495 303.787,59.719 303.469,59.876 303.080 C 61.502 299.040,183.998 81.279,184.390 81.733 C 184.680 82.071,212.623 131.967,246.486 192.613 M360.960 194.557 C 386.983 199.836,407.021 210.692,426.271 229.942 C 448.795 252.466,460.282 277.097,463.455 309.674 C 467.799 354.271,445.313 401.002,407.467 426.031 C 370.207 450.672,326.307 454.707,284.801 437.307 C 259.746 426.803,237.124 405.823,222.941 379.938 C 216.908 368.927,211.536 352.918,209.485 339.840 L 208.917 336.213 272.778 336.209 C 316.863 336.205,337.697 335.911,340.053 335.258 C 350.433 332.384,354.776 321.837,349.676 311.893 C 348.473 309.547,334.199 283.858,317.957 254.808 C 301.715 225.758,288.427 201.730,288.427 201.412 C 288.427 199.967,308.841 194.411,319.666 192.910 C 329.083 191.605,350.645 192.465,360.960 194.557 " stroke="none" fill-rule="evenodd" fill="black"></path></svg>