<svg xmlns="http://www.w3.org/2000/svg" width="512" height="512" viewBox="0 0 512 512"><path d="M176.648 34.010 C 175.024 34.881,172.675 36.897,171.427 38.490 C 170.179 40.083,134.876 102.778,92.977 177.812 C 11.197 324.264,14.516 317.818,17.007 325.366 C 18.222 329.046,22.820 333.685,26.618 335.061 C 30.617 336.510,336.307 336.674,340.566 335.229 C 350.410 331.891,354.580 321.569,349.843 312.266 C 342.841 298.516,197.334 39.201,195.529 37.257 C 194.292 35.925,192.243 34.293,190.976 33.630 C 187.674 31.905,180.203 32.103,176.648 34.010 M312.342 161.790 C 307.895 162.502,304.109 163.233,303.929 163.413 C 303.749 163.593,320.632 194.194,341.445 231.417 C 364.359 272.394,380.081 301.435,381.297 305.028 C 387.920 324.602,380.749 346.868,363.967 358.844 C 361.025 360.944,355.977 363.719,352.749 365.011 L 346.880 367.360 265.122 367.594 L 183.365 367.828 183.941 369.727 C 185.837 375.985,190.969 388.088,194.649 394.985 C 218.012 438.772,260.317 469.326,309.333 477.813 C 353.704 485.495,401.565 472.812,437.118 443.951 C 445.127 437.449,459.412 422.312,465.326 414.059 C 479.232 394.654,487.844 374.986,492.872 351.147 C 495.572 338.347,496.573 315.288,494.988 302.403 C 488.954 253.342,463.410 212.340,421.973 185.206 C 406.917 175.347,385.572 166.786,366.460 162.940 C 354.060 160.444,324.636 159.819,312.342 161.790 " stroke="none" fill-rule="evenodd" fill="black"></path></svg>