<svg xmlns="http://www.w3.org/2000/svg" width="512" height="512" viewBox="0 0 512 512"><path d="M94.473 175.723 C 45.329 263.443,5.120 335.439,5.120 335.714 C 5.120 335.989,85.609 336.213,183.985 336.213 C 353.976 336.213,362.821 336.139,362.289 334.720 C 361.637 332.982,185.241 17.804,184.394 16.862 C 184.081 16.515,143.617 88.002,94.473 175.723 M320.000 160.878 C 319.296 161.017,315.336 161.592,311.199 162.155 C 305.719 162.902,303.792 163.477,304.099 164.276 C 304.330 164.878,329.890 210.760,360.900 266.235 C 391.909 321.710,417.280 367.254,417.280 367.443 C 417.280 367.632,364.646 367.787,300.316 367.787 L 183.352 367.787 183.921 369.707 C 185.537 375.162,190.917 387.835,194.335 394.240 C 224.336 450.461,284.182 484.024,346.488 479.571 C 408.318 475.152,462.185 435.934,484.473 379.111 C 492.970 357.451,495.360 344.471,495.360 320.000 C 495.360 300.717,494.769 295.433,490.921 280.320 C 476.630 224.196,431.603 179.285,375.356 165.053 C 362.307 161.751,350.773 160.450,335.360 160.541 C 327.616 160.587,320.704 160.739,320.000 160.878 " stroke="none" fill-rule="evenodd" fill="black"></path></svg>