<svg xmlns="http://www.w3.org/2000/svg" width="512" height="512" viewBox="0 0 512 512"><path d="M376.320 48.610 C 363.314 50.009,350.733 55.842,340.886 65.037 C 325.870 79.061,319.056 95.851,320.353 115.627 C 320.661 120.320,320.996 125.239,321.097 126.558 C 321.275 128.887,319.199 130.128,250.027 169.077 C 210.837 191.144,177.774 209.725,176.552 210.369 C 174.441 211.483,174.083 211.329,169.299 207.260 C 162.575 201.539,154.661 197.194,146.357 194.662 C 140.552 192.892,137.781 192.578,128.000 192.578 C 118.219 192.578,115.448 192.892,109.643 194.662 C 89.136 200.914,72.933 217.195,66.431 238.080 C 63.549 247.339,63.549 264.661,66.431 273.920 C 72.979 294.953,89.047 311.021,110.080 317.569 C 115.454 319.242,118.326 319.561,128.000 319.561 C 137.674 319.561,140.546 319.242,145.920 317.569 C 154.600 314.867,162.325 310.666,168.908 305.067 L 174.402 300.395 177.014 301.928 C 178.451 302.771,211.627 321.455,250.739 343.446 C 319.813 382.286,321.836 383.495,321.338 385.636 C 321.056 386.848,320.588 391.696,320.299 396.408 C 319.726 405.740,321.118 415.070,324.388 423.807 C 328.406 434.546,340.347 448.434,351.267 455.067 C 354.068 456.769,359.986 459.401,364.420 460.917 C 371.941 463.489,373.250 463.673,384.000 463.673 C 394.750 463.673,396.059 463.489,403.580 460.917 C 413.597 457.492,420.138 453.565,427.679 446.451 C 442.073 432.873,448.870 415.912,447.740 396.389 C 446.377 372.825,433.196 353.131,411.733 342.592 C 389.436 331.644,362.366 334.933,343.030 350.941 L 337.474 355.541 263.876 314.139 L 190.278 272.737 190.926 268.422 C 191.756 262.889,191.760 249.137,190.933 243.627 L 190.292 239.360 263.925 197.940 L 337.557 156.521 343.072 161.085 C 350.161 166.952,355.469 169.964,363.947 172.929 C 370.289 175.147,371.711 175.316,384.000 175.316 C 396.275 175.316,397.718 175.145,404.053 172.936 C 439.100 160.714,456.667 123.083,443.612 88.193 C 440.985 81.171,434.215 71.669,427.114 65.037 C 413.695 52.506,395.328 46.566,376.320 48.610 M397.943 83.496 C 404.198 86.575,409.677 92.079,413.013 98.635 C 414.887 102.317,415.147 103.916,415.147 111.787 C 415.147 119.638,414.874 121.328,412.944 125.442 C 408.659 134.577,399.758 141.335,389.305 143.392 C 375.955 146.018,361.042 138.202,355.056 125.442 C 353.126 121.328,352.853 119.638,352.853 111.787 C 352.853 103.915,353.112 102.320,354.984 98.654 C 359.241 90.319,366.293 84.197,374.857 81.402 C 377.077 80.677,381.117 80.328,385.412 80.490 C 391.201 80.708,393.307 81.213,397.943 83.496 M141.921 227.371 C 147.724 230.307,154.160 236.856,157.058 242.773 C 158.871 246.476,159.147 248.224,159.147 256.000 C 159.147 264.190,158.935 265.379,156.679 269.831 C 151.791 279.476,142.735 286.141,132.659 287.509 C 118.686 289.405,105.769 282.555,99.321 269.831 C 97.065 265.379,96.853 264.190,96.853 256.000 C 96.853 248.207,97.127 246.484,98.953 242.773 C 102.643 235.273,109.926 228.602,117.666 225.633 C 119.704 224.851,123.504 224.527,128.892 224.675 C 135.924 224.869,137.705 225.237,141.921 227.371 M389.002 368.680 C 391.988 369.165,396.260 370.488,398.495 371.621 C 404.031 374.426,410.286 380.893,412.944 386.558 C 414.874 390.672,415.147 392.362,415.147 400.213 C 415.147 408.084,414.887 409.683,413.013 413.365 C 409.653 419.969,404.202 425.423,397.829 428.561 C 392.607 431.131,391.478 431.360,384.000 431.360 C 376.522 431.360,375.393 431.131,370.171 428.561 C 363.798 425.423,358.347 419.969,354.987 413.365 C 353.113 409.683,352.853 408.084,352.853 400.213 C 352.853 392.362,353.126 390.672,355.056 386.558 C 359.257 377.603,368.727 370.317,378.220 368.736 C 380.695 368.323,382.912 367.944,383.147 367.893 C 383.381 367.842,386.016 368.196,389.002 368.680 " stroke="none" fill="black" fill-rule="evenodd"></path></svg>