<svg xmlns="http://www.w3.org/2000/svg" width="512" height="512" viewBox="0 0 512 512"><path d="M363.432 49.923 C 347.756 53.047,331.919 63.110,322.081 76.198 C 317.086 82.842,314.025 88.898,310.992 98.133 C 308.904 104.495,308.588 106.856,308.429 117.333 L 308.247 129.280 243.609 165.688 L 178.971 202.097 174.053 198.740 C 152.478 184.013,126.053 182.119,102.887 193.640 C 66.183 211.892,53.230 256.198,74.066 292.224 C 75.731 295.103,80.677 300.992,85.246 305.538 C 92.431 312.685,94.544 314.231,102.400 318.086 C 115.041 324.288,120.062 325.463,133.973 325.479 C 142.693 325.488,146.842 325.105,151.040 323.900 C 158.523 321.754,168.085 317.334,174.040 313.269 L 178.943 309.922 243.707 346.370 L 308.471 382.817 308.199 391.729 C 307.083 428.241,333.766 459.039,370.425 463.552 C 384.282 465.258,399.765 461.989,412.990 454.566 C 420.671 450.254,433.424 437.927,437.636 430.745 C 443.869 420.115,447.047 409.565,447.744 397.192 C 449.668 363.046,425.565 332.361,391.379 325.434 C 383.393 323.816,367.697 324.231,360.533 326.249 C 350.587 329.051,339.999 334.682,331.492 341.693 L 328.904 343.826 265.564 308.233 L 202.223 272.640 202.872 268.800 C 203.700 263.891,203.711 248.202,202.889 243.200 L 202.257 239.360 260.015 206.933 C 291.781 189.099,320.320 173.090,323.434 171.358 L 329.097 168.209 333.460 171.788 C 340.374 177.460,346.731 180.938,355.950 184.095 C 388.154 195.121,424.651 180.119,439.760 149.645 C 445.222 138.627,447.199 130.341,447.246 118.269 C 447.321 98.562,439.925 81.334,425.510 67.642 C 416.014 58.621,404.536 52.570,391.802 49.871 C 384.828 48.393,370.984 48.418,363.432 49.923 " stroke="none" fill-rule="evenodd" fill="black"></path></svg>