<svg xmlns="http://www.w3.org/2000/svg" width="512" height="512" viewBox="0 0 512 512"><path d="M368.213 50.316 C 345.844 56.240,329.494 72.096,322.426 94.720 C 320.700 100.246,320.452 102.635,320.613 112.213 C 320.716 118.315,320.908 124.579,321.040 126.135 L 321.280 128.962 247.688 170.370 L 174.097 211.778 169.182 207.379 C 163.585 202.371,151.575 196.122,143.360 193.945 C 136.449 192.114,120.176 191.938,113.554 193.624 C 74.572 203.548,53.772 244.287,69.041 280.807 C 85.874 321.065,138.530 332.877,170.399 303.544 L 173.971 300.257 247.900 341.840 L 321.829 383.423 321.128 387.765 C 319.710 396.543,320.333 410.384,322.456 417.280 C 326.025 428.876,330.624 436.509,339.166 445.013 C 352.272 458.062,365.863 463.725,384.000 463.696 C 395.764 463.678,401.605 462.291,412.927 456.828 C 419.627 453.595,422.168 451.744,428.370 445.573 C 436.858 437.128,441.018 430.530,444.837 419.455 C 447.282 412.366,447.502 410.824,447.514 400.640 C 447.529 388.228,446.351 382.568,441.653 372.480 C 434.172 356.415,419.887 344.249,401.920 338.638 C 392.679 335.753,375.357 335.747,366.080 338.626 C 357.987 341.138,350.129 345.392,343.040 351.099 L 337.493 355.564 263.846 314.102 L 190.198 272.640 190.886 268.373 C 191.768 262.901,191.772 249.136,190.893 243.627 L 190.213 239.360 263.958 197.899 L 337.703 156.438 343.145 160.979 C 349.422 166.218,359.792 171.607,367.787 173.786 C 376.463 176.151,392.802 175.942,401.067 173.361 C 412.524 169.781,420.344 165.109,428.373 157.045 C 436.663 148.720,441.136 141.614,444.231 131.855 C 451.075 110.274,446.997 88.801,432.704 71.150 C 424.791 61.378,410.347 52.528,398.080 49.933 C 389.725 48.166,375.650 48.346,368.213 50.316 " stroke="none" fill-rule="evenodd" fill="black"></path></svg>