<svg xmlns="http://www.w3.org/2000/svg" width="512" height="512" viewBox="0 0 512 512"><path d="M204.374 82.773 L 153.180 133.972 164.483 145.275 L 175.786 156.578 207.787 124.587 L 239.787 92.595 239.787 134.173 L 239.787 175.751 164.015 175.982 C 92.644 176.200,88.108 176.303,85.895 177.753 C 84.602 178.600,82.797 180.520,81.882 182.020 C 80.252 184.694,80.220 187.511,80.220 328.107 C 80.220 468.791,80.251 471.518,81.885 474.199 C 82.802 475.701,84.816 477.621,86.362 478.465 C 89.041 479.928,97.013 480.000,256.000 480.000 C 414.987 480.000,422.959 479.928,425.638 478.465 C 427.184 477.621,429.198 475.701,430.115 474.199 C 431.749 471.518,431.780 468.791,431.780 328.107 C 431.780 187.511,431.748 184.694,430.118 182.020 C 429.203 180.520,427.398 178.600,426.105 177.753 C 423.892 176.303,419.356 176.200,347.985 175.982 L 272.213 175.751 272.213 134.173 L 272.213 92.595 304.213 124.587 L 336.214 156.578 347.517 145.275 L 358.820 133.972 307.626 82.773 C 279.469 54.613,256.238 31.573,256.000 31.573 C 255.762 31.573,232.531 54.613,204.374 82.773 M272.213 256.427 L 272.213 337.067 256.000 337.067 L 239.787 337.067 239.787 256.427 L 239.787 175.787 256.000 175.787 L 272.213 175.787 272.213 256.427 " stroke="none" fill-rule="evenodd" fill="black"></path></svg>