<svg xmlns="http://www.w3.org/2000/svg" width="512" height="512" viewBox="0 0 512 512"><path d="M247.420 34.891 C 241.364 38.825,163.298 117.612,161.743 121.359 C 157.799 130.864,163.889 142.049,173.605 143.144 C 182.375 144.132,181.426 144.843,211.840 114.515 L 239.787 86.648 239.787 131.163 L 239.787 175.677 183.253 176.011 C 119.839 176.384,122.750 176.113,109.653 182.878 C 100.238 187.742,91.277 196.759,86.467 206.210 C 79.811 219.290,80.129 212.752,80.400 330.667 L 80.640 435.627 82.926 441.886 C 86.146 450.699,90.000 456.782,96.486 463.285 C 105.792 472.616,116.500 477.805,130.133 479.591 C 137.996 480.622,374.004 480.622,381.867 479.591 C 395.500 477.805,406.208 472.616,415.514 463.285 C 422.000 456.782,425.854 450.699,429.074 441.886 L 431.360 435.627 431.600 330.667 C 431.871 212.752,432.189 219.290,425.533 206.210 C 420.723 196.759,411.762 187.742,402.347 182.878 C 389.250 176.113,392.161 176.384,328.747 176.011 L 272.213 175.677 272.213 131.163 L 272.213 86.648 300.160 114.515 C 330.574 144.843,329.625 144.132,338.395 143.144 C 348.111 142.049,354.201 130.864,350.257 121.359 C 348.702 117.612,270.636 38.825,264.580 34.891 C 261.542 32.918,259.832 32.427,256.000 32.427 C 252.168 32.427,250.458 32.918,247.420 34.891 M272.022 250.667 C 271.809 318.465,271.653 325.789,270.374 328.107 C 267.525 333.271,261.437 337.067,256.000 337.067 C 250.563 337.067,244.475 333.271,241.626 328.107 C 240.347 325.789,240.191 318.465,239.978 250.667 L 239.742 175.787 256.000 175.787 L 272.258 175.787 272.022 250.667 " stroke="none" fill-rule="evenodd" fill="black"></path></svg>