<svg xmlns="http://www.w3.org/2000/svg" width="512" height="512" viewBox="0 0 512 512"><path d="M244.480 35.575 C 176.045 66.995,132.192 80.745,54.716 95.076 C 43.273 97.192,33.800 99.036,33.664 99.172 C 33.527 99.308,33.000 108.826,32.491 120.323 C 30.144 173.411,36.633 220.814,52.618 267.342 C 62.661 296.578,73.522 318.402,91.775 346.027 C 125.105 396.469,174.360 440.576,229.032 468.939 C 235.651 472.372,244.427 476.563,248.533 478.251 L 256.000 481.320 263.295 478.300 C 290.472 467.050,322.495 447.021,350.990 423.449 C 361.489 414.764,383.190 393.407,393.052 382.055 C 454.448 311.377,484.052 221.601,479.499 119.895 C 478.995 108.633,478.471 99.307,478.335 99.171 C 478.200 99.035,468.879 97.220,457.623 95.138 C 381.544 81.064,344.431 69.710,277.335 39.982 C 265.837 34.888,256.045 30.755,255.575 30.797 C 255.105 30.839,250.112 32.989,244.480 35.575 M346.523 163.961 C 357.073 173.129,358.311 174.480,357.272 175.694 C 348.279 186.213,228.891 324.299,227.743 325.510 C 225.929 327.423,231.111 332.135,180.540 282.595 L 153.293 255.904 164.314 244.859 C 170.376 238.784,175.595 233.813,175.913 233.813 C 176.230 233.813,187.225 244.365,200.344 257.260 L 224.198 280.707 279.139 217.179 C 309.357 182.238,334.197 153.639,334.340 153.625 C 334.483 153.611,339.966 158.262,346.523 163.961 " stroke="none" fill-rule="evenodd" fill="black"></path></svg>