<svg xmlns="http://www.w3.org/2000/svg" width="512" height="512" viewBox="0 0 512 512"><path d="M239.360 39.365 C 180.524 65.536,131.997 80.793,79.787 89.535 C 63.160 92.319,38.969 95.573,34.901 95.573 C 33.511 95.573,32.172 96.098,31.925 96.740 C 31.316 98.328,33.051 154.746,34.133 168.533 C 37.244 208.166,42.738 237.642,52.382 266.446 C 74.456 332.374,117.759 391.243,177.413 436.419 C 201.621 454.752,235.237 473.748,252.373 478.779 C 256.758 480.066,259.175 479.467,272.213 473.863 C 303.952 460.222,340.328 434.860,371.110 404.911 C 400.315 376.495,421.917 347.681,439.563 313.604 C 462.248 269.796,473.152 228.501,477.869 168.533 C 478.998 154.181,480.665 97.502,479.990 96.410 C 479.705 95.950,478.370 95.573,477.022 95.573 C 473.021 95.573,448.707 92.297,432.213 89.535 C 380.251 80.834,335.074 66.706,274.476 40.207 C 264.691 35.928,256.243 32.450,255.702 32.480 C 255.162 32.509,247.808 35.607,239.360 39.365 " stroke="none" fill-rule="evenodd" fill="black"></path></svg>