<svg xmlns="http://www.w3.org/2000/svg" width="512" height="512" viewBox="0 0 512 512"><path d="M249.173 32.984 C 248.469 33.262,240.021 36.948,230.400 41.175 C 166.801 69.112,125.930 81.795,59.600 94.181 C 42.315 97.409,39.584 98.401,36.358 102.631 C 32.812 107.280,32.265 112.057,32.230 138.667 C 32.197 164.087,32.904 175.421,35.892 197.371 C 44.059 257.384,66.579 313.192,101.752 360.584 C 135.822 406.490,185.230 447.901,235.093 472.345 C 255.350 482.275,256.517 482.287,276.207 472.783 C 312.641 455.198,346.987 429.853,379.307 396.703 C 438.019 336.483,471.307 261.857,478.801 173.653 C 480.103 158.335,480.068 115.400,478.750 109.672 C 477.612 104.729,474.582 100.391,470.956 98.516 C 469.550 97.789,459.354 95.474,448.299 93.371 C 383.278 81.003,342.894 68.323,281.173 40.896 C 264.350 33.420,262.862 32.918,256.853 32.705 C 253.333 32.579,249.877 32.705,249.173 32.984 " stroke="none" fill-rule="evenodd" fill="black"></path></svg>