<svg xmlns="http://www.w3.org/2000/svg" width="512" height="512" viewBox="0 0 512 512"><path d="M238.933 38.090 C 173.370 67.609,132.683 80.384,61.382 93.838 C 51.605 95.683,42.454 97.788,41.047 98.515 C 37.422 100.389,34.390 104.724,33.243 109.672 C 31.693 116.353,31.939 161.378,33.618 178.261 C 36.946 211.741,42.561 238.069,52.618 267.342 C 62.661 296.578,73.522 318.402,91.775 346.027 C 120.266 389.146,159.405 426.803,205.921 455.850 C 219.683 464.444,246.795 478.256,252.138 479.396 C 257.625 480.566,261.351 479.530,274.633 473.143 C 300.546 460.683,326.026 444.100,350.990 423.449 C 361.489 414.764,383.190 393.407,393.052 382.055 C 440.195 327.785,468.808 261.799,477.394 187.547 C 480.244 162.897,480.904 121.396,478.632 109.698 C 477.691 104.852,474.654 100.429,470.953 98.515 C 469.546 97.788,460.395 95.683,450.618 93.838 C 380.343 80.578,343.204 69.080,278.780 40.640 C 255.310 30.280,256.159 30.334,238.933 38.090 M342.869 161.630 C 345.492 163.001,349.200 166.788,350.616 169.544 C 352.045 172.326,351.720 180.075,350.044 183.183 C 349.243 184.670,323.082 215.342,291.910 251.343 C 231.888 320.662,232.567 319.963,225.280 319.963 C 219.134 319.963,215.883 317.387,190.184 292.152 C 176.399 278.616,164.064 266.038,162.773 264.202 C 158.787 258.530,160.004 248.638,165.274 243.873 C 167.641 241.732,172.765 239.784,175.973 239.805 C 182.081 239.846,185.885 242.734,205.276 262.048 L 224.099 280.797 274.994 222.019 C 308.098 183.788,326.874 162.755,328.705 161.853 C 332.186 160.137,339.782 160.018,342.869 161.630 " stroke="none" fill-rule="evenodd" fill="black"></path></svg>