<svg id="icons" xmlns="http://www.w3.org/2000/svg" viewBox="0 0 512 512"><path d="M233.019 40.615 C 168.568 69.057,132.117 80.350,61.284 93.821 C 51.576 95.667,42.476 97.776,41.061 98.508 C 37.412 100.395,34.386 104.728,33.264 109.672 C 32.040 115.061,32.035 158.579,33.256 173.227 C 37.954 229.594,53.275 280.689,78.954 325.632 C 86.589 338.994,100.604 359.518,110.653 372.053 C 120.810 384.722,147.946 412.492,160.000 422.553 C 184.429 442.943,212.272 461.110,237.790 473.308 C 255.656 481.849,256.344 481.849,274.210 473.308 C 299.728 461.110,327.571 442.943,352.000 422.553 C 364.054 412.492,391.190 384.722,401.347 372.053 C 411.396 359.518,425.411 338.994,433.046 325.632 C 458.715 280.708,474.085 229.442,478.741 173.227 C 479.956 158.560,479.951 115.050,478.733 109.672 C 477.615 104.730,474.589 100.395,470.939 98.508 C 469.524 97.776,460.424 95.667,450.716 93.821 C 379.900 80.353,344.769 69.475,278.657 40.543 C 262.812 33.609,259.470 32.435,255.709 32.486 C 252.080 32.534,248.095 33.962,233.019 40.615 M256.000 256.000 C 256.000 360.661,255.801 446.293,255.558 446.293 C 254.604 446.293,237.845 437.591,230.700 433.386 C 181.737 404.568,139.234 363.393,111.900 318.296 C 86.133 275.784,71.678 232.018,66.098 179.627 C 64.626 165.805,63.541 128.006,64.578 126.666 C 64.964 126.168,72.576 124.290,81.493 122.495 C 143.508 110.008,187.600 96.040,241.606 71.773 C 248.819 68.532,255.008 65.841,255.360 65.793 C 255.712 65.746,256.000 151.339,256.000 256.000 " fill="black" stroke="none" fill-rule="evenodd"></path></svg>