<svg xmlns="http://www.w3.org/2000/svg" width="512" height="512" viewBox="0 0 512 512"><path d="M183.893 34.083 C 181.077 34.922,174.933 36.960,170.240 38.612 C 165.547 40.264,130.815 52.439,93.059 65.669 C 55.303 78.898,23.368 90.466,22.092 91.374 C 19.084 93.516,16.213 99.505,16.213 103.639 C 16.213 108.440,33.086 196.829,34.539 199.639 C 36.279 203.005,40.475 206.318,44.199 207.268 C 45.937 207.711,58.304 209.305,71.680 210.811 C 85.056 212.317,96.844 213.868,97.875 214.257 C 98.907 214.646,100.423 215.989,101.244 217.242 C 102.669 219.418,102.592 224.736,99.520 335.680 C 95.558 478.730,95.729 467.432,97.481 470.700 C 99.300 474.093,104.325 478.509,107.322 479.348 C 110.369 480.200,401.631 480.200,404.678 479.348 C 407.681 478.507,412.706 474.087,414.510 470.700 C 416.249 467.434,416.420 478.731,412.462 335.692 C 409.387 224.542,409.313 219.445,410.749 217.253 C 411.574 215.994,413.093 214.646,414.125 214.257 C 415.156 213.868,426.944 212.317,440.320 210.811 C 453.696 209.305,466.063 207.711,467.801 207.268 C 471.525 206.318,475.721 203.005,477.461 199.639 C 478.914 196.829,495.787 108.440,495.787 103.639 C 495.787 99.505,492.916 93.516,489.908 91.374 C 488.043 90.046,398.701 58.270,337.920 37.317 C 321.852 31.778,316.133 31.296,303.647 34.430 C 287.594 38.459,276.899 39.624,256.000 39.620 C 235.251 39.616,223.423 38.335,208.416 34.465 C 199.040 32.047,191.139 31.924,183.893 34.083 M228.267 70.379 C 250.086 72.934,281.835 71.725,302.293 67.559 C 306.400 66.722,309.760 66.313,309.760 66.649 C 309.760 67.727,303.322 75.409,299.440 78.963 C 286.973 90.377,272.926 95.832,256.000 95.832 C 239.074 95.832,225.027 90.377,212.560 78.963 C 208.678 75.409,202.240 67.727,202.240 66.649 C 202.240 66.313,205.600 66.722,209.707 67.559 C 213.813 68.395,222.165 69.664,228.267 70.379 M170.722 76.081 C 172.852 81.223,179.965 91.209,186.095 97.662 C 199.443 111.714,214.557 120.597,233.508 125.527 C 240.005 127.218,243.164 127.494,256.000 127.494 C 268.836 127.494,271.995 127.218,278.492 125.527 C 297.302 120.633,312.656 111.610,325.905 97.662 C 332.035 91.209,339.148 81.223,341.278 76.081 C 341.892 74.599,342.827 73.392,343.357 73.399 C 344.333 73.412,460.830 114.092,461.334 114.596 C 461.712 114.974,450.054 176.577,449.500 177.131 C 449.255 177.376,440.657 178.524,430.394 179.681 C 420.131 180.838,409.461 182.364,406.684 183.071 C 392.596 186.660,380.963 199.145,377.968 213.889 C 377.148 217.927,377.549 239.908,380.066 328.960 C 381.778 389.504,383.171 441.056,383.162 443.520 L 383.147 448.000 256.000 448.000 L 128.853 448.000 128.842 443.093 C 128.835 440.395,130.228 388.843,131.936 328.533 C 134.448 239.896,134.849 217.924,134.031 213.889 C 131.041 199.149,119.404 186.660,105.316 183.071 C 102.539 182.364,91.869 180.838,81.606 179.681 C 71.343 178.524,62.744 177.375,62.497 177.128 C 61.932 176.563,50.275 114.988,50.660 114.603 C 51.250 114.013,166.892 73.551,168.216 73.471 C 169.016 73.422,170.081 74.532,170.722 76.081 " stroke="none" fill-rule="evenodd" fill="black"></path></svg>