<svg xmlns="http://www.w3.org/2000/svg" width="512" height="512" viewBox="0 0 512 512"><path d="M192.015 36.480 C 192.023 38.709,192.591 43.221,193.277 46.507 C 198.197 70.060,215.953 89.004,239.408 95.723 C 248.945 98.455,263.055 98.455,272.592 95.723 C 296.047 89.004,313.803 70.060,318.723 46.507 C 319.875 40.991,320.448 32.427,319.664 32.427 C 319.480 32.427,314.887 33.549,309.457 34.920 C 290.518 39.703,274.228 41.799,256.000 41.799 C 237.772 41.799,221.482 39.703,202.543 34.920 C 197.113 33.549,192.520 32.427,192.336 32.427 C 192.151 32.427,192.007 34.251,192.015 36.480 M87.639 69.070 C 48.779 82.597,16.774 93.875,16.517 94.132 C 16.019 94.630,33.392 206.157,34.162 207.405 C 34.412 207.810,49.388 209.919,67.442 212.090 C 85.495 214.262,100.747 216.437,101.333 216.924 C 102.869 218.198,102.730 227.092,99.079 360.960 C 97.306 425.963,96.006 479.435,96.191 479.787 C 96.631 480.624,415.369 480.624,415.809 479.787 C 415.994 479.435,414.694 425.963,412.921 360.960 C 411.148 295.957,409.676 237.123,409.649 230.217 C 409.604 218.676,409.733 217.589,411.240 216.782 C 412.142 216.300,427.393 214.158,445.132 212.022 C 462.871 209.887,477.589 207.808,477.839 207.403 C 478.608 206.157,495.981 94.630,495.484 94.132 C 494.914 93.563,353.399 44.373,352.331 44.373 C 351.914 44.373,351.573 45.284,351.573 46.397 C 351.573 50.781,347.196 65.317,343.571 72.969 C 327.257 107.409,293.653 128.853,256.000 128.853 C 230.398 128.853,206.210 118.894,188.087 100.889 C 179.867 92.723,173.508 83.691,168.429 72.969 C 164.804 65.317,160.427 50.781,160.427 46.397 C 160.427 45.284,159.947 44.396,159.360 44.424 C 158.773 44.452,126.499 55.543,87.639 69.070 " stroke="none" fill-rule="evenodd" fill="black"></path></svg>