<svg xmlns="http://www.w3.org/2000/svg" width="512" height="512" viewBox="0 0 512 512"><path d="M193.328 34.323 C 191.601 36.789,191.652 38.453,193.702 46.583 C 199.529 69.698,217.610 88.000,240.524 93.980 C 249.373 96.289,262.621 96.291,271.461 93.984 C 294.496 87.972,312.443 69.810,318.298 46.583 C 320.429 38.133,320.428 36.268,318.293 34.133 C 315.991 31.831,313.085 31.977,302.605 34.920 C 286.325 39.491,277.339 40.541,255.147 40.463 C 233.441 40.387,223.710 39.177,207.987 34.603 C 198.561 31.860,195.100 31.794,193.328 34.323 M98.987 64.490 C 67.776 75.461,38.246 85.854,33.365 87.584 C 20.750 92.056,16.212 96.590,16.214 104.719 C 16.215 109.550,33.051 197.615,34.514 200.445 C 36.249 203.799,40.407 207.135,44.198 208.214 C 45.937 208.708,58.853 210.393,72.901 211.956 C 98.024 214.753,98.474 214.837,100.421 217.101 C 101.979 218.912,102.406 220.436,102.429 224.261 C 102.446 226.933,100.846 282.550,98.874 347.854 C 94.951 477.792,94.868 469.086,100.093 475.038 C 105.106 480.747,95.833 480.427,256.000 480.427 C 416.167 480.427,406.894 480.747,411.907 475.038 C 417.123 469.097,417.040 477.774,413.123 347.863 C 411.153 282.554,409.555 226.933,409.571 224.261 C 409.594 220.436,410.021 218.912,411.579 217.101 C 413.526 214.837,413.976 214.753,439.099 211.956 C 453.147 210.393,466.063 208.708,467.802 208.214 C 471.593 207.135,475.751 203.799,477.486 200.445 C 478.949 197.615,495.785 109.550,495.786 104.719 C 495.787 98.454,491.768 92.738,485.547 90.159 C 483.904 89.478,453.807 78.861,418.665 66.565 C 369.280 49.286,354.375 44.385,353.030 44.986 C 351.672 45.592,350.768 47.883,348.919 55.405 C 340.316 90.392,312.175 117.656,276.053 125.997 C 265.581 128.415,244.523 128.182,234.240 125.533 C 198.024 116.204,171.295 89.609,162.944 54.595 C 161.045 46.632,159.688 44.292,157.064 44.457 C 156.332 44.503,130.197 53.518,98.987 64.490 " stroke="none" fill-rule="evenodd" fill="black"></path></svg>