<svg xmlns="http://www.w3.org/2000/svg" width="512" height="512" viewBox="0 0 512 512"><path d="M388.478 100.901 L 377.178 112.201 393.167 128.207 L 409.156 144.213 360.098 144.236 L 311.040 144.258 288.853 177.606 C 276.651 195.947,266.574 211.393,266.460 211.930 C 266.346 212.467,272.160 216.816,279.380 221.594 L 292.506 230.281 310.653 203.034 L 328.800 175.787 368.978 175.787 L 409.156 175.787 393.163 191.797 L 377.170 207.807 388.695 219.309 L 400.221 230.811 435.204 195.836 C 454.444 176.600,470.187 160.474,470.187 160.000 C 470.187 159.156,401.044 89.600,400.205 89.600 C 399.971 89.600,394.693 94.685,388.478 100.901 M47.787 160.000 L 47.787 175.787 115.487 175.787 L 183.188 175.787 209.403 215.112 C 223.821 236.740,235.500 254.923,235.355 255.516 C 235.211 256.110,223.412 274.510,209.136 296.405 L 183.178 336.213 115.482 336.213 L 47.787 336.213 47.787 352.000 L 47.787 367.787 124.373 367.771 L 200.960 367.756 228.180 325.931 L 255.400 284.105 283.220 325.922 L 311.040 367.740 360.098 367.763 L 409.156 367.787 393.163 383.797 L 377.170 399.807 388.695 411.309 L 400.221 422.811 435.204 387.836 C 454.444 368.600,470.187 352.474,470.187 352.000 C 470.187 351.526,454.444 335.400,435.204 316.164 L 400.221 281.189 388.695 292.691 L 377.170 304.193 393.163 320.203 L 409.156 336.213 368.985 336.213 L 328.813 336.213 264.886 240.238 L 200.960 144.262 124.373 144.238 L 47.787 144.213 47.787 160.000 " stroke="none" fill="black" fill-rule="evenodd"></path></svg>