<svg xmlns="http://www.w3.org/2000/svg" width="512" height="512" viewBox="0 0 512 512"><path d="M392.962 97.771 C 389.114 99.777,387.335 101.619,385.605 105.387 C 383.697 109.541,383.574 114.235,385.267 118.287 C 385.964 119.956,391.592 126.465,397.788 132.766 L 409.042 144.213 382.227 144.217 C 347.634 144.221,340.287 145.269,323.840 152.545 C 304.504 161.098,285.422 179.374,274.560 199.741 C 267.400 213.168,278.367 227.322,292.646 223.082 C 297.476 221.647,300.015 219.017,307.984 207.188 C 317.603 192.909,327.049 185.216,341.385 179.984 C 350.591 176.624,359.270 175.819,386.494 175.801 L 409.042 175.787 397.788 187.234 C 391.592 193.535,385.964 200.044,385.267 201.713 C 383.572 205.770,383.698 210.463,385.613 214.613 C 387.785 219.320,390.862 221.904,395.826 223.192 C 400.917 224.513,405.022 223.759,409.449 220.691 C 411.181 219.491,423.423 207.641,436.653 194.358 C 461.269 169.644,464.176 166.015,464.176 160.000 C 464.176 153.988,461.266 150.354,436.647 125.620 C 423.414 112.325,410.889 100.318,408.814 98.937 C 405.762 96.907,404.130 96.428,400.280 96.432 C 397.634 96.435,394.384 97.029,392.962 97.771 M57.600 145.428 C 52.310 147.799,47.824 154.485,47.824 160.000 C 47.824 165.532,52.992 172.875,58.296 174.879 C 59.877 175.476,75.626 175.792,104.376 175.801 C 128.398 175.810,151.578 176.188,155.886 176.642 C 164.814 177.582,175.009 180.979,182.409 185.479 C 193.207 192.044,196.901 196.442,217.376 227.103 L 236.661 255.983 218.050 283.903 C 207.815 299.259,197.494 313.881,195.115 316.395 C 189.796 322.020,180.092 328.611,173.498 331.078 C 160.847 335.811,162.746 335.662,108.736 336.168 L 58.325 336.640 55.175 338.773 C 51.582 341.206,47.777 348.012,47.805 351.954 C 47.846 357.562,52.984 364.872,58.296 366.879 C 59.892 367.482,77.253 367.787,110.042 367.787 C 155.625 367.787,159.994 367.660,167.373 366.126 C 185.749 362.305,200.867 354.604,214.463 342.138 C 221.780 335.430,226.919 328.663,242.775 304.853 C 249.730 294.411,255.681 285.867,256.000 285.867 C 256.319 285.867,262.270 294.411,269.225 304.853 C 285.081 328.663,290.220 335.430,297.537 342.138 C 311.133 354.604,326.251 362.305,344.627 366.126 C 351.605 367.577,356.180 367.787,380.828 367.787 L 409.042 367.787 397.788 379.234 C 391.592 385.535,385.964 392.044,385.267 393.713 C 383.572 397.770,383.698 402.463,385.613 406.613 C 387.785 411.320,390.862 413.904,395.826 415.192 C 400.917 416.513,405.022 415.759,409.449 412.691 C 411.181 411.491,423.423 399.641,436.653 386.358 C 461.269 361.644,464.176 358.015,464.176 352.000 C 464.176 345.988,461.266 342.354,436.647 317.620 C 423.414 304.325,410.859 292.287,408.747 290.869 C 405.262 288.530,404.385 288.319,399.266 288.593 C 394.649 288.841,393.044 289.339,390.426 291.335 C 384.716 295.691,382.527 303.730,385.267 310.287 C 385.964 311.956,391.592 318.465,397.788 324.766 L 409.042 336.213 383.934 336.184 C 356.938 336.152,350.590 335.502,340.274 331.715 C 332.533 328.874,326.064 324.864,319.391 318.772 C 314.659 314.452,307.661 304.437,271.982 250.932 C 248.960 216.407,227.911 185.244,225.206 181.680 C 216.051 169.620,202.283 158.793,188.160 152.545 C 170.114 144.562,166.767 144.214,108.373 144.250 C 69.882 144.274,59.644 144.512,57.600 145.428 " stroke="none" fill-rule="evenodd" fill="black"></path></svg>