<svg xmlns="http://www.w3.org/2000/svg" width="512" height="512" viewBox="0 0 512 512"><path d="M238.933 16.717 C 202.352 20.949,177.850 28.804,150.314 45.127 C 100.150 74.862,64.664 124.141,52.537 180.907 C 48.309 200.699,48.412 198.161,48.041 291.089 L 47.692 378.657 88.886 395.195 L 130.081 411.733 138.385 453.120 C 142.953 475.883,146.709 494.795,146.732 495.147 C 146.755 495.499,156.949 495.787,169.387 495.787 L 192.000 495.787 192.000 463.787 L 192.000 431.787 207.787 431.787 L 223.573 431.787 223.573 463.787 L 223.573 495.787 231.680 495.787 L 239.787 495.787 239.787 463.787 L 239.787 431.787 256.000 431.787 L 272.213 431.787 272.213 463.787 L 272.213 495.787 280.320 495.787 L 288.427 495.787 288.427 463.787 L 288.427 431.787 304.213 431.787 L 320.000 431.787 320.000 463.787 L 320.000 495.787 342.613 495.787 C 355.051 495.787,365.245 495.499,365.268 495.147 C 365.291 494.795,369.047 475.883,373.615 453.120 L 381.919 411.733 423.114 395.195 L 464.308 378.657 463.959 291.089 C 463.588 198.161,463.691 200.699,459.463 180.907 C 447.320 124.064,411.825 74.846,361.435 44.978 C 338.322 31.278,313.695 22.496,286.720 18.334 C 278.209 17.020,245.791 15.924,238.933 16.717 M185.514 226.894 C 202.506 232.953,215.117 245.571,221.088 262.486 C 223.357 268.915,224.227 283.613,222.784 291.160 C 222.219 294.115,220.025 300.127,217.908 304.519 C 211.120 318.602,198.809 329.059,183.467 333.774 C 174.069 336.663,160.891 336.507,151.449 333.397 C 134.623 327.855,121.391 315.227,115.551 299.139 C 111.411 287.733,111.271 272.967,115.195 261.562 C 119.673 248.546,130.257 236.545,142.656 230.425 C 153.148 225.246,157.193 224.406,169.813 224.781 C 177.876 225.021,181.709 225.537,185.514 226.894 M356.011 225.352 C 358.498 225.861,364.181 228.021,368.640 230.152 C 383.178 237.102,394.082 250.430,398.163 266.240 C 400.024 273.451,400.034 286.300,398.184 293.453 C 393.249 312.534,379.461 327.168,360.551 333.397 C 354.885 335.264,352.091 335.659,344.320 335.696 C 328.243 335.773,316.116 330.749,304.545 319.219 C 299.253 313.946,297.326 311.244,294.146 304.640 C 289.229 294.427,288.052 288.421,288.662 276.653 C 289.431 261.819,294.191 251.077,304.632 240.623 C 312.645 232.598,323.621 226.696,333.653 225.016 C 338.147 224.264,351.688 224.467,356.011 225.352 M280.267 360.107 L 292.408 399.787 274.204 400.017 C 264.192 400.143,247.808 400.143,237.796 400.017 L 219.592 399.787 231.781 360.107 C 238.484 338.283,243.988 320.320,244.011 320.190 C 244.034 320.060,249.470 320.060,256.090 320.190 L 268.126 320.427 280.267 360.107 " stroke="none" fill-rule="evenodd" fill="black"></path></svg>