<svg xmlns="http://www.w3.org/2000/svg" width="512" height="512" viewBox="0 0 512 512"><path d="M238.933 16.717 C 207.530 20.350,188.599 25.638,164.142 37.608 C 114.146 62.076,75.907 106.036,58.422 159.147 C 54.714 170.408,51.326 185.338,49.320 199.253 C 48.491 205.009,48.213 223.080,48.213 271.360 C 48.213 335.467,48.223 335.824,50.143 343.362 C 54.557 360.688,64.188 375.951,77.436 386.615 C 85.795 393.344,91.728 396.482,108.741 403.170 C 116.687 406.294,124.244 409.602,125.534 410.520 C 130.105 413.775,131.070 416.772,136.848 445.667 C 139.923 461.046,143.201 475.350,144.132 477.455 C 146.681 483.217,153.605 490.041,159.810 492.907 C 164.621 495.129,166.143 495.386,175.998 495.641 L 186.876 495.922 189.438 493.360 L 192.000 490.798 192.000 467.873 C 192.000 445.793,192.071 444.808,193.920 441.152 C 195.018 438.981,197.368 436.294,199.410 434.876 C 206.540 429.923,217.359 432.482,221.663 440.139 C 223.506 443.419,223.573 444.326,223.573 465.850 C 223.573 489.550,224.052 492.906,227.712 494.865 C 230.908 496.575,235.024 495.972,237.437 493.440 L 239.673 491.093 239.943 467.557 L 240.213 444.021 242.773 439.901 C 247.635 432.078,257.563 429.803,264.734 434.870 C 271.448 439.613,271.751 440.969,272.049 467.627 L 272.312 491.093 274.556 493.440 C 276.976 495.972,281.093 496.575,284.288 494.865 C 287.934 492.914,288.427 489.519,288.427 466.347 C 288.427 442.075,288.648 440.843,293.835 436.289 C 302.255 428.897,314.314 431.777,318.679 442.224 C 319.759 444.809,320.000 449.527,320.000 468.092 L 320.000 490.798 322.562 493.360 L 325.124 495.922 336.002 495.641 C 345.857 495.386,347.379 495.129,352.190 492.907 C 358.395 490.041,365.319 483.217,367.868 477.455 C 368.799 475.350,372.077 461.046,375.152 445.667 C 380.930 416.772,381.895 413.775,386.466 410.520 C 387.756 409.602,395.313 406.294,403.259 403.170 C 420.272 396.482,426.205 393.344,434.564 386.615 C 447.812 375.951,457.443 360.688,461.857 343.362 C 463.775 335.831,463.787 335.418,463.787 272.640 C 463.787 224.935,463.509 207.407,462.651 200.960 C 457.615 163.102,443.708 128.863,421.280 99.106 C 413.590 88.903,398.023 72.679,387.413 63.811 C 359.134 40.175,323.668 24.216,286.258 18.293 C 278.175 17.013,245.715 15.932,238.933 16.717 M185.408 226.858 C 199.885 232.024,211.351 241.849,217.459 254.322 C 222.094 263.788,223.573 269.954,223.573 279.805 C 223.573 295.459,218.371 308.122,207.376 319.228 C 195.982 330.737,183.772 335.798,167.680 335.679 C 159.994 335.623,157.054 335.205,151.449 333.376 C 110.156 319.900,98.643 268.093,130.422 238.757 C 136.156 233.464,147.082 227.527,154.603 225.617 C 161.438 223.882,179.058 224.591,185.408 226.858 M356.011 225.352 C 368.391 227.885,383.281 238.077,390.508 248.966 C 408.023 275.354,399.886 311.484,372.725 327.918 C 363.904 333.256,355.330 335.598,344.320 335.679 C 328.254 335.797,316.079 330.752,304.595 319.219 C 293.529 308.105,288.464 295.766,288.439 279.859 C 288.424 269.980,289.893 263.815,294.509 254.388 C 301.491 240.127,316.563 228.554,332.373 225.313 C 337.444 224.274,350.849 224.296,356.011 225.352 M264.906 322.888 C 269.216 326.175,270.612 329.345,279.598 356.250 C 288.249 382.150,288.890 385.755,285.886 391.642 C 284.036 395.269,281.031 397.715,276.566 399.229 C 272.643 400.560,239.357 400.560,235.434 399.229 C 228.382 396.838,224.427 391.454,224.427 384.248 C 224.427 379.086,239.582 333.096,243.123 327.513 C 247.945 319.909,258.158 317.741,264.906 322.888 " stroke="none" fill-rule="evenodd" fill="black"></path></svg>