<svg xmlns="http://www.w3.org/2000/svg" width="512" height="512" viewBox="0 0 512 512"><path d="M234.667 17.186 C 145.287 26.379,70.870 93.132,52.623 180.480 C 48.334 201.011,48.213 203.508,48.213 271.787 C 48.213 335.566,48.220 335.813,50.156 343.467 C 54.170 359.328,64.982 376.616,76.915 386.253 C 84.886 392.689,90.916 395.913,107.093 402.384 C 123.621 408.996,127.632 411.331,129.851 415.635 C 130.716 417.311,133.920 431.135,136.971 446.355 C 140.829 465.598,143.182 475.383,144.696 478.480 C 147.766 484.761,155.470 491.516,162.299 493.914 L 167.680 495.804 256.000 495.804 L 344.320 495.804 349.701 493.914 C 356.562 491.504,364.231 484.764,367.338 478.415 C 368.898 475.226,371.159 465.823,375.021 446.456 C 378.030 431.364,381.144 417.643,381.940 415.966 C 384.120 411.373,387.283 409.482,404.053 402.749 C 412.501 399.358,421.912 395.107,424.967 393.303 C 443.509 382.354,457.083 363.534,462.208 341.667 C 463.668 335.437,463.787 330.238,463.787 272.213 C 463.787 224.864,463.508 207.402,462.651 200.960 C 457.690 163.662,443.839 129.315,421.872 99.840 C 412.953 87.872,391.140 66.094,379.307 57.343 C 348.627 34.654,312.603 20.645,275.750 17.070 C 265.397 16.066,244.996 16.124,234.667 17.186 M268.326 48.660 C 330.593 53.149,385.858 90.947,413.956 148.262 C 422.676 166.049,428.869 187.627,430.916 207.360 C 432.106 218.832,432.050 328.885,430.851 334.678 C 429.078 343.241,424.437 351.423,417.368 358.447 C 410.397 365.374,408.091 366.685,390.400 373.781 C 371.297 381.444,365.035 385.220,359.136 392.636 C 351.873 401.765,350.771 405.015,344.725 435.097 C 341.931 448.999,339.441 461.237,339.193 462.293 C 338.758 464.139,338.382 464.213,329.456 464.213 L 320.171 464.213 319.872 453.198 C 319.578 442.341,319.535 442.136,316.923 438.905 C 313.047 434.111,309.552 432.356,303.886 432.356 C 297.738 432.356,292.693 435.326,289.998 440.533 C 288.469 443.488,288.050 446.019,287.742 454.187 L 287.363 464.213 279.788 464.213 L 272.213 464.213 272.209 455.467 C 272.203 445.368,271.317 441.414,268.239 437.756 C 265.063 433.981,261.393 432.364,256.000 432.364 C 250.607 432.364,246.937 433.981,243.761 437.756 C 240.683 441.414,239.797 445.368,239.791 455.467 L 239.787 464.213 232.212 464.213 L 224.637 464.213 224.277 454.129 C 223.958 445.170,223.670 443.622,221.696 440.253 C 218.718 435.171,213.548 432.261,207.643 432.342 C 202.405 432.413,198.806 434.293,195.077 438.905 C 192.465 442.136,192.422 442.341,192.128 453.198 L 191.829 464.213 182.544 464.213 C 173.618 464.213,173.242 464.139,172.807 462.293 C 172.559 461.237,170.069 448.999,167.275 435.097 C 161.893 408.317,160.463 403.555,155.604 396.235 C 149.199 386.586,141.988 381.953,118.800 372.589 C 111.158 369.503,103.257 365.844,101.242 364.457 C 91.901 358.031,83.364 345.378,81.149 334.678 C 79.903 328.655,79.869 217.757,81.111 205.530 C 82.403 192.805,84.920 181.256,89.255 168.164 C 111.339 101.466,172.405 53.810,242.347 48.690 C 255.483 47.728,255.405 47.728,268.326 48.660 M152.846 226.171 C 143.588 228.595,136.309 233.010,128.333 241.039 C 119.964 249.462,115.184 258.357,112.976 269.614 C 105.464 307.918,140.082 342.536,178.386 335.024 C 189.901 332.765,198.629 328.013,207.424 319.214 C 219.045 307.589,223.660 296.428,223.682 279.893 C 223.703 265.066,219.418 253.695,209.697 242.775 C 202.346 234.517,191.826 228.133,181.599 225.722 C 173.990 223.928,160.613 224.137,152.846 226.171 M330.012 225.761 C 320.149 228.151,309.502 234.689,302.303 242.775 C 292.592 253.685,288.301 265.059,288.300 279.893 C 288.300 296.354,292.946 307.580,304.576 319.214 C 313.371 328.013,322.099 332.765,333.614 335.024 C 371.918 342.536,406.536 307.918,399.024 269.614 C 396.816 258.357,392.036 249.462,383.667 241.039 C 371.839 229.132,360.262 224.360,343.543 224.498 C 338.808 224.537,332.719 225.105,330.012 225.761 M178.197 258.484 C 183.334 261.104,186.303 263.973,189.022 268.943 C 192.382 275.085,192.623 284.272,189.579 290.133 C 185.150 298.660,178.797 302.942,169.597 303.603 C 162.401 304.119,157.354 302.362,152.085 297.505 C 146.187 292.069,144.660 288.448,144.660 279.893 C 144.660 274.098,145.029 271.954,146.495 269.227 C 149.431 263.766,155.545 258.716,161.382 256.931 C 165.491 255.674,174.280 256.485,178.197 258.484 M354.359 258.555 C 359.045 260.967,363.206 264.952,365.505 269.227 C 366.971 271.954,367.340 274.098,367.340 279.893 C 367.340 288.448,365.813 292.069,359.915 297.505 C 354.646 302.362,349.599 304.119,342.403 303.603 C 333.203 302.942,326.850 298.660,322.421 290.133 C 319.856 285.194,319.675 275.130,322.068 270.507 C 325.777 263.344,331.469 258.497,338.203 256.769 C 342.554 255.652,350.407 256.520,354.359 258.555 M249.565 321.604 C 243.302 324.449,242.258 326.556,232.489 356.054 C 223.837 382.178,223.423 383.751,224.326 387.071 C 225.685 392.072,228.597 395.952,232.533 398.006 C 235.718 399.667,237.321 399.787,256.427 399.787 C 276.407 399.787,276.985 399.738,280.114 397.792 C 284.325 395.174,287.711 389.357,287.783 384.618 C 287.862 379.394,271.145 329.423,268.114 325.821 C 265.403 322.599,260.037 320.037,256.000 320.037 C 254.357 320.037,251.461 320.742,249.565 321.604 " stroke="none" fill-rule="evenodd" fill="black"></path></svg>