<svg xmlns="http://www.w3.org/2000/svg" width="512" height="512" viewBox="0 0 512 512"><path d="M249.600 17.428 C 245.977 19.052,243.259 21.878,241.415 25.937 C 239.982 29.091,239.822 31.882,239.805 53.973 C 239.790 74.324,239.585 78.507,238.602 78.507 C 235.206 78.507,221.110 73.594,212.480 69.402 C 207.083 66.781,201.271 64.448,199.566 64.219 C 190.731 63.031,182.613 70.482,182.613 79.780 C 182.613 87.740,186.056 91.899,197.567 97.845 C 207.572 103.013,219.636 107.254,230.338 109.366 L 239.787 111.230 239.787 169.606 C 239.787 201.713,239.457 227.854,239.055 227.698 C 238.653 227.541,215.844 214.426,188.369 198.552 L 138.415 169.692 140.448 164.504 C 143.203 157.474,146.541 143.642,147.605 134.849 C 149.409 119.939,148.455 111.738,144.394 107.247 C 139.672 102.026,129.955 100.800,123.983 104.673 C 118.184 108.433,116.842 111.850,116.029 124.919 C 115.203 138.194,112.008 152.747,109.918 152.747 C 109.432 152.747,99.574 147.275,88.011 140.587 C 67.248 128.578,66.922 128.427,61.794 128.427 C 57.469 128.427,56.011 128.835,53.077 130.869 C 44.359 136.910,43.890 150.158,52.174 156.376 C 53.750 157.560,63.488 163.400,73.813 169.354 C 84.139 175.307,92.971 180.560,93.440 181.026 C 94.688 182.265,81.235 194.907,72.960 200.273 C 69.205 202.707,65.267 205.317,64.208 206.073 C 61.313 208.140,58.880 213.598,58.880 218.027 C 58.880 226.987,65.789 233.813,74.858 233.813 C 78.140 233.813,80.269 233.074,85.354 230.169 C 97.305 223.341,109.245 213.279,118.544 202.201 L 122.516 197.469 173.008 226.521 C 200.779 242.500,223.507 255.765,223.515 256.000 C 223.523 256.235,200.814 269.516,173.052 285.515 L 122.576 314.603 118.576 309.835 C 105.437 294.172,83.533 278.187,75.208 278.187 C 65.777 278.187,58.862 284.954,58.894 294.153 C 58.917 300.874,61.439 304.205,71.553 310.870 C 76.396 314.063,83.494 319.703,87.326 323.405 C 93.440 329.312,94.137 330.283,93.013 331.340 C 92.309 332.002,83.477 337.260,73.387 343.023 C 51.480 355.536,49.773 356.750,47.713 361.288 C 43.114 371.415,49.510 382.743,60.419 383.791 C 65.699 384.298,66.674 383.856,89.778 370.476 C 100.436 364.303,109.526 359.253,109.978 359.253 C 112.009 359.253,115.215 373.998,116.029 387.081 C 116.596 396.205,117.088 399.023,118.572 401.663 C 124.877 412.882,141.581 412.336,146.847 400.739 C 150.566 392.552,147.237 364.822,140.462 347.532 L 138.442 342.379 188.475 313.558 C 215.992 297.705,238.795 284.583,239.147 284.397 C 239.499 284.211,239.787 310.308,239.787 342.389 L 239.787 400.718 228.907 403.083 C 216.824 405.708,206.129 409.618,195.840 415.171 C 185.529 420.736,182.613 424.512,182.613 432.303 C 182.613 438.827,186.176 444.163,192.217 446.687 C 197.610 448.941,201.013 448.374,210.144 443.702 C 218.473 439.440,230.429 435.041,236.587 433.972 L 239.787 433.416 239.805 457.988 C 239.822 480.083,239.983 482.904,241.404 485.973 C 247.518 499.177,264.482 499.177,270.596 485.973 C 272.017 482.904,272.178 480.083,272.195 457.988 L 272.213 433.416 275.413 433.972 C 281.571 435.041,293.527 439.440,301.856 443.702 C 310.987 448.374,314.390 448.941,319.783 446.687 C 325.824 444.163,329.387 438.827,329.387 432.303 C 329.387 424.512,326.471 420.736,316.160 415.171 C 305.871 409.618,295.176 405.708,283.093 403.083 L 272.213 400.718 272.213 342.389 C 272.213 310.308,272.501 284.211,272.853 284.397 C 273.205 284.583,296.035 297.721,323.586 313.593 C 364.867 337.373,373.553 342.689,372.962 343.812 C 371.315 346.939,366.904 361.907,365.644 368.640 C 364.898 372.629,364.060 380.515,363.783 386.163 C 363.334 395.291,363.470 396.867,365.004 400.336 C 365.954 402.482,368.032 405.231,369.622 406.444 C 372.401 408.564,378.904 410.631,380.905 410.031 C 381.434 409.872,382.916 409.513,384.198 409.232 C 387.109 408.595,392.192 404.202,393.949 400.805 C 394.809 399.142,395.524 394.275,395.976 387.003 C 396.787 373.955,399.996 359.253,402.033 359.253 C 402.491 359.253,411.531 364.284,422.121 370.433 C 445.075 383.760,446.270 384.301,451.587 383.790 C 462.423 382.749,468.857 371.350,464.287 361.288 C 462.227 356.750,460.520 355.536,438.613 343.023 C 428.523 337.260,419.691 332.002,418.987 331.340 C 417.863 330.283,418.560 329.312,424.674 323.405 C 428.506 319.703,435.604 314.063,440.447 310.870 C 450.561 304.205,453.083 300.874,453.106 294.153 C 453.138 284.954,446.223 278.187,436.792 278.187 C 428.467 278.187,406.563 294.172,393.424 309.835 L 389.424 314.603 338.948 285.515 C 311.186 269.516,288.478 256.235,288.487 256.000 C 288.496 255.765,311.221 242.496,338.986 226.512 L 389.469 197.450 393.448 202.192 C 402.755 213.279,414.691 223.339,426.646 230.169 C 431.726 233.071,433.862 233.813,437.133 233.813 C 449.171 233.813,456.851 221.432,451.418 210.783 C 449.578 207.175,449.230 206.880,439.040 200.273 C 430.765 194.907,417.312 182.265,418.560 181.026 C 419.029 180.560,427.861 175.307,438.187 169.354 C 460.540 156.464,462.221 155.263,464.287 150.712 C 469.554 139.115,460.107 126.392,447.701 128.375 C 445.410 128.742,436.892 133.133,423.514 140.844 C 412.156 147.390,402.489 152.747,402.031 152.747 C 399.991 152.747,396.787 138.033,395.971 124.919 C 395.158 111.850,393.816 108.433,388.017 104.673 C 381.700 100.577,371.635 102.164,367.063 107.976 C 363.866 112.040,363.236 115.691,363.833 126.679 C 364.498 138.913,366.667 150.351,370.314 160.853 C 371.780 165.077,373.060 168.812,373.157 169.153 C 373.303 169.666,273.568 227.840,272.542 227.840 C 272.361 227.840,272.213 201.585,272.213 169.495 L 272.213 111.150 279.834 109.756 C 295.019 106.978,316.880 98.156,323.939 91.959 C 333.287 83.751,330.305 68.677,318.567 64.803 C 313.976 63.288,310.263 64.184,299.520 69.402 C 290.890 73.594,276.794 78.507,273.398 78.507 C 272.415 78.507,272.210 74.324,272.195 53.973 C 272.174 26.922,271.904 25.312,266.561 20.321 C 262.142 16.193,255.052 14.984,249.600 17.428 " stroke="none" fill-rule="evenodd" fill="black"></path></svg>