<svg xmlns="http://www.w3.org/2000/svg" width="512" height="512" viewBox="0 0 512 512"><path d="M247.467 17.987 C 242.766 20.112,238.537 24.050,236.085 28.587 C 234.375 31.750,234.220 33.423,233.969 51.413 C 233.806 63.115,233.371 70.827,232.875 70.827 C 230.766 70.827,220.856 66.922,213.147 63.053 C 203.210 58.066,198.599 57.224,191.929 59.175 C 185.902 60.939,181.558 64.633,178.742 70.387 C 174.404 79.255,176.109 88.816,183.280 95.818 C 189.697 102.084,213.617 112.257,228.907 115.223 L 233.813 116.174 233.813 166.938 C 233.813 194.857,233.525 217.544,233.173 217.352 C 228.963 215.058,147.036 167.735,146.587 167.337 C 146.249 167.039,147.109 163.263,148.497 158.947 C 153.666 142.875,156.014 119.486,153.284 111.268 C 150.212 102.017,142.282 96.412,132.312 96.445 C 125.791 96.467,121.291 98.248,116.988 102.509 C 112.257 107.195,110.742 111.729,110.039 123.307 C 109.211 136.947,107.721 144.473,105.979 143.805 C 105.263 143.530,97.957 139.427,89.741 134.686 C 68.662 122.522,66.729 121.711,60.093 122.244 C 48.172 123.200,39.936 132.195,39.993 144.192 C 40.022 150.298,42.454 155.859,46.802 159.762 C 48.517 161.301,57.515 166.934,66.797 172.279 C 76.079 177.625,83.855 182.293,84.078 182.653 C 84.747 183.735,76.044 191.070,67.413 196.699 C 58.093 202.777,57.035 203.820,54.597 209.332 C 48.188 223.821,58.755 239.753,74.792 239.778 C 79.153 239.785,81.049 239.267,86.028 236.705 C 94.625 232.283,108.521 221.554,116.713 213.013 C 120.595 208.965,123.979 205.653,124.231 205.653 C 124.965 205.653,209.386 254.404,210.493 255.467 C 211.244 256.187,200.666 262.667,168.186 281.387 C 144.367 295.115,124.700 306.347,124.482 306.347 C 124.263 306.347,119.863 302.219,114.703 297.173 C 104.622 287.316,94.950 279.959,85.806 275.193 C 81.065 272.722,79.189 272.215,74.818 272.222 C 58.455 272.248,48.023 288.570,54.913 303.366 C 57.156 308.182,60.220 311.032,69.126 316.587 C 75.305 320.440,85.279 328.879,84.480 329.579 C 84.245 329.784,76.181 334.480,66.560 340.015 C 56.939 345.549,47.844 351.232,46.350 352.644 C 40.223 358.434,38.309 368.838,41.854 377.080 C 45.537 385.641,53.674 390.449,63.427 389.828 C 68.634 389.497,69.828 388.946,87.861 378.568 C 98.289 372.566,106.962 367.798,107.135 367.971 C 107.989 368.824,110.080 384.116,110.080 389.504 C 110.080 398.004,111.981 403.800,116.324 408.533 C 123.274 416.110,132.878 417.980,141.977 413.528 C 147.620 410.767,151.355 406.540,153.284 400.732 C 156.014 392.514,153.666 369.125,148.497 353.053 C 147.109 348.737,146.249 344.971,146.587 344.685 C 146.924 344.400,165.440 333.663,187.733 320.826 C 210.027 307.990,229.515 296.755,231.040 295.859 L 233.813 294.231 233.813 344.984 L 233.813 395.736 225.493 397.647 C 210.165 401.168,191.054 409.499,183.862 415.796 C 171.354 426.748,175.358 447.327,191.038 452.670 C 198.065 455.064,201.847 454.461,212.454 449.255 C 221.190 444.968,230.778 441.173,232.875 441.173 C 233.371 441.173,233.806 448.885,233.969 460.587 C 234.278 482.745,234.628 484.069,241.834 490.413 C 250.596 498.125,262.534 497.714,271.066 489.405 C 277.475 483.163,278.187 480.077,278.187 458.512 C 278.187 447.568,278.500 441.173,279.037 441.173 C 281.179 441.173,291.335 445.207,299.057 449.125 C 305.057 452.168,308.856 453.544,311.981 453.803 C 332.762 455.526,343.795 429.504,328.107 415.769 C 320.944 409.498,301.807 401.162,286.507 397.647 L 278.187 395.736 278.187 344.984 L 278.187 294.231 280.960 295.857 C 282.485 296.752,301.973 307.990,324.267 320.832 C 346.560 333.674,365.076 344.411,365.413 344.693 C 365.751 344.975,364.891 348.737,363.503 353.053 C 358.334 369.125,355.986 392.514,358.716 400.732 C 362.763 412.917,376.824 419.283,388.267 414.111 C 397.704 409.844,401.075 403.494,401.984 388.267 C 402.529 379.143,404.018 368.949,404.958 367.907 C 405.110 367.739,413.657 372.453,423.952 378.384 C 445.434 390.758,448.863 391.949,456.556 389.705 C 468.602 386.192,475.357 373.712,471.743 361.649 C 469.814 355.210,465.429 351.587,446.082 340.448 C 436.108 334.706,427.755 329.830,427.520 329.613 C 426.692 328.848,435.729 321.353,443.885 316.040 C 448.427 313.082,453.124 309.376,454.322 307.805 C 466.946 291.253,452.045 268.207,431.851 273.051 C 424.629 274.784,408.275 286.233,397.167 297.333 L 387.720 306.773 344.113 281.600 C 311.256 262.633,300.752 256.188,301.506 255.458 C 302.607 254.392,387.020 205.653,387.765 205.653 C 388.020 205.653,391.405 208.965,395.287 213.013 C 403.479 221.554,417.375 232.283,425.972 236.705 C 430.965 239.274,432.835 239.784,437.208 239.768 C 446.316 239.735,453.285 235.399,457.060 227.413 C 459.801 221.614,459.803 214.447,457.065 208.640 C 454.659 203.540,453.194 202.159,443.733 196.079 C 435.757 190.953,427.271 183.706,427.953 182.603 C 428.192 182.216,435.969 177.553,445.234 172.241 C 454.499 166.929,463.698 161.102,465.675 159.292 C 474.887 150.859,474.766 136.747,465.405 127.655 C 460.932 123.312,456.099 121.706,449.023 122.213 C 443.444 122.612,442.504 123.038,425.340 132.940 C 415.510 138.611,406.839 143.492,406.072 143.786 C 404.902 144.234,404.454 143.108,403.297 136.800 C 402.538 132.664,401.917 126.374,401.918 122.822 C 401.921 114.101,400.056 108.237,395.820 103.641 C 391.053 98.470,386.469 96.427,379.631 96.427 C 369.706 96.427,361.776 102.054,358.716 111.268 C 355.986 119.486,358.334 142.875,363.503 158.947 C 364.891 163.263,365.751 167.039,365.413 167.337 C 364.964 167.735,283.037 215.058,278.827 217.352 C 278.475 217.544,278.187 194.884,278.187 166.997 L 278.187 116.293 287.787 114.017 C 293.067 112.765,301.212 110.197,305.887 108.310 C 327.964 99.402,335.467 92.225,335.512 79.970 C 335.548 70.283,329.307 61.878,320.071 59.175 C 313.401 57.224,308.790 58.066,298.853 63.053 C 291.056 66.966,281.229 70.827,279.067 70.827 C 278.491 70.827,278.187 64.832,278.187 53.488 C 278.187 33.413,277.375 29.251,272.379 23.709 C 266.004 16.638,255.690 14.269,247.467 17.987 " stroke="none" fill-rule="evenodd" fill="black"></path></svg>