<svg xmlns="http://www.w3.org/2000/svg" width="512" height="512" viewBox="0 0 512 512"><path d="M233.813 43.520 C 233.813 61.712,233.520 70.827,232.933 70.827 C 231.156 70.827,221.467 67.237,216.406 64.703 C 213.543 63.270,207.129 59.655,202.153 56.670 C 197.177 53.686,192.511 51.015,191.784 50.736 C 190.782 50.352,187.832 54.627,179.581 68.421 C 173.597 78.427,168.578 86.846,168.429 87.131 C 167.955 88.033,194.000 103.138,202.051 106.630 C 210.361 110.234,221.012 113.633,228.907 115.200 L 233.813 116.174 233.813 166.938 C 233.813 194.857,233.525 217.544,233.173 217.352 C 228.911 215.030,147.034 167.733,146.580 167.331 C 146.239 167.029,146.910 163.974,148.071 160.542 C 152.653 147.001,153.732 139.271,154.214 116.555 L 154.665 95.297 141.119 95.859 C 133.669 96.168,123.637 96.422,118.827 96.424 L 110.080 96.427 110.082 112.853 C 110.084 130.980,108.353 144.716,106.173 143.879 C 105.541 143.637,93.622 136.875,79.687 128.853 C 65.752 120.832,54.056 114.574,53.695 114.948 C 52.698 115.982,32.427 151.094,32.427 151.787 C 32.427 152.121,43.951 159.045,58.036 167.174 C 72.122 175.303,83.834 182.259,84.064 182.631 C 84.602 183.501,76.881 190.449,70.827 194.543 C 68.245 196.288,61.429 200.297,55.680 203.451 C 49.931 206.606,45.227 209.395,45.227 209.649 C 45.227 210.626,65.881 247.467,66.429 247.467 C 67.326 247.467,91.077 234.049,95.485 231.053 C 102.548 226.250,111.244 218.807,117.544 212.169 C 120.946 208.585,123.959 205.653,124.240 205.653 C 125.013 205.653,209.341 254.350,210.493 255.462 C 211.245 256.187,200.742 262.623,168.186 281.387 C 144.367 295.115,124.692 306.347,124.463 306.347 C 124.234 306.347,119.848 302.219,114.717 297.173 C 109.585 292.128,102.314 285.835,98.560 283.188 C 92.632 279.010,70.846 266.323,67.190 264.920 C 66.230 264.552,63.314 269.128,55.568 283.158 C 49.880 293.460,45.227 302.102,45.227 302.363 C 45.227 302.624,49.163 305.019,53.973 307.687 C 68.296 315.627,74.381 319.598,79.787 324.532 C 82.603 327.102,84.715 329.376,84.480 329.584 C 84.245 329.793,72.444 336.650,58.255 344.822 C 44.067 352.994,32.451 359.930,32.442 360.235 C 32.422 360.972,52.618 395.999,53.671 397.052 C 54.195 397.576,63.925 392.423,80.653 382.761 C 95.042 374.450,106.941 367.777,107.095 367.932 C 107.249 368.087,107.983 371.424,108.727 375.348 C 109.668 380.308,110.080 387.484,110.080 398.895 L 110.080 415.309 121.735 415.868 C 128.145 416.175,138.176 416.427,144.025 416.427 L 154.661 416.427 154.212 395.307 C 153.732 372.741,152.645 364.977,148.071 351.458 C 146.910 348.026,146.239 344.985,146.580 344.700 C 146.921 344.414,165.440 333.674,187.733 320.832 C 210.027 307.990,229.515 296.752,231.040 295.857 L 233.813 294.231 233.813 344.984 L 233.813 395.736 225.493 397.651 C 215.239 400.012,207.302 402.807,198.400 407.192 C 189.920 411.369,168.123 424.268,168.455 424.912 C 171.337 430.495,190.621 461.653,191.194 461.653 C 191.635 461.653,196.317 459.014,201.598 455.788 C 206.879 452.563,213.543 448.746,216.406 447.307 C 221.455 444.770,231.145 441.173,232.933 441.173 C 233.520 441.173,233.813 450.288,233.813 468.480 L 233.813 495.787 256.000 495.787 L 278.187 495.787 278.187 468.480 C 278.187 450.917,278.490 441.173,279.037 441.173 C 280.722 441.173,290.669 444.879,295.680 447.374 C 298.496 448.776,305.121 452.563,310.402 455.788 C 315.683 459.014,320.365 461.653,320.806 461.653 C 321.379 461.653,340.663 430.495,343.545 424.912 C 343.872 424.278,322.200 411.473,313.600 407.219 C 304.695 402.814,296.758 400.011,286.507 397.651 L 278.187 395.736 278.187 344.984 L 278.187 294.231 280.960 295.857 C 282.485 296.752,301.973 307.990,324.267 320.832 C 346.560 333.674,365.079 344.414,365.420 344.700 C 365.761 344.985,365.090 348.026,363.929 351.458 C 359.355 364.977,358.268 372.741,357.788 395.307 L 357.339 416.427 367.975 416.427 C 373.824 416.427,383.855 416.175,390.265 415.868 L 401.920 415.309 401.920 398.895 C 401.920 387.484,402.332 380.308,403.273 375.348 C 404.017 371.424,404.767 368.071,404.941 367.896 C 405.115 367.721,417.017 374.391,431.391 382.717 C 446.127 391.253,457.846 397.533,458.261 397.115 C 459.298 396.069,479.577 360.982,479.557 360.267 C 479.547 359.944,468.194 353.152,454.327 345.173 C 440.459 337.195,428.666 330.397,428.118 330.067 C 425.583 328.539,438.368 318.657,454.400 309.752 C 460.501 306.363,465.826 303.282,466.233 302.906 C 466.640 302.529,462.265 293.722,456.510 283.334 C 448.780 269.380,445.718 264.572,444.788 264.928 C 441.150 266.324,419.349 279.023,413.440 283.188 C 409.686 285.835,402.415 292.128,397.283 297.173 C 392.152 302.219,387.766 306.347,387.537 306.347 C 387.308 306.347,367.633 295.115,343.814 281.387 C 311.258 262.623,300.755 256.187,301.507 255.462 C 302.659 254.350,386.987 205.653,387.760 205.653 C 388.041 205.653,391.054 208.585,394.456 212.169 C 400.756 218.807,409.452 226.250,416.515 231.053 C 420.923 234.049,444.674 247.467,445.571 247.467 C 446.119 247.467,466.773 210.626,466.773 209.649 C 466.773 209.395,462.069 206.606,456.320 203.451 C 450.571 200.297,443.755 196.288,441.173 194.543 C 435.087 190.427,427.399 183.499,427.943 182.620 C 428.176 182.242,439.889 175.277,453.970 167.142 C 468.052 159.007,479.573 152.087,479.573 151.766 C 479.573 151.086,459.282 115.961,458.303 114.946 C 457.941 114.571,446.319 120.800,432.474 128.789 C 418.630 136.777,406.712 143.539,405.990 143.816 C 403.632 144.721,401.916 131.671,401.918 112.853 L 401.920 96.427 391.893 96.424 C 386.379 96.422,376.395 96.170,369.707 95.864 L 357.547 95.308 357.562 112.294 C 357.583 134.469,359.887 150.559,364.869 163.327 C 365.583 165.157,365.860 166.930,365.484 167.267 C 364.988 167.711,283.595 214.754,278.827 217.352 C 278.475 217.544,278.187 194.884,278.187 166.997 L 278.187 116.293 287.787 114.024 C 293.067 112.776,301.575 110.047,306.695 107.960 C 314.760 104.673,332.525 94.984,341.085 89.205 L 343.824 87.356 333.121 69.492 C 327.235 59.666,322.083 51.279,321.674 50.854 C 321.236 50.400,316.784 52.553,310.865 56.083 C 305.329 59.384,298.457 63.260,295.594 64.697 C 290.541 67.233,280.851 70.827,279.067 70.827 C 278.480 70.827,278.187 61.712,278.187 43.520 L 278.187 16.213 256.000 16.213 L 233.813 16.213 233.813 43.520 " stroke="none" fill-rule="evenodd" fill="black"></path></svg>