<svg id="icons" xmlns="http://www.w3.org/2000/svg" viewBox="0 0 512 512"><path d="M82.347 1.209 C 77.014 3.590,75.326 6.655,66.057 30.795 C 61.117 43.661,56.425 54.842,55.631 55.642 C 54.837 56.442,43.627 61.167,30.720 66.141 C 15.062 72.175,6.437 75.950,4.802 77.486 C 1.843 80.262,-0.000 84.307,0.000 88.023 C 0.000 91.696,3.024 97.749,5.833 99.700 C 7.084 100.568,18.218 105.155,30.576 109.893 C 42.934 114.631,53.882 119.056,54.904 119.726 C 56.233 120.596,59.294 127.551,65.618 144.063 C 70.487 156.779,75.172 168.335,76.029 169.743 C 80.661 177.360,93.866 177.694,99.355 170.333 C 100.443 168.874,105.310 157.319,110.170 144.656 C 115.031 131.993,119.598 121.042,120.320 120.320 C 121.042 119.598,131.993 115.031,144.656 110.170 C 157.319 105.310,168.874 100.443,170.333 99.355 C 178.223 93.471,177.357 80.535,168.748 75.682 C 166.753 74.557,155.190 69.854,143.053 65.232 C 127.154 59.176,120.641 56.301,119.752 54.945 C 119.074 53.909,114.734 43.232,110.107 31.217 C 105.481 19.203,100.985 8.156,100.117 6.669 C 96.956 1.258,88.239 -1.421,82.347 1.209 M392.187 34.361 C 390.354 35.409,388.146 37.227,387.280 38.400 C 386.415 39.573,380.315 54.549,373.726 71.680 C 367.136 88.811,361.079 103.497,360.266 104.316 C 359.453 105.135,344.475 111.324,326.982 118.070 C 308.683 125.126,294.307 131.151,293.130 132.258 C 288.491 136.615,286.776 145.398,289.532 150.679 C 292.374 156.123,295.346 157.775,317.977 166.490 C 364.123 184.261,359.977 182.423,361.723 185.894 C 362.586 187.610,368.356 202.261,374.546 218.453 C 385.039 245.905,386.047 248.134,389.468 251.449 C 393.804 255.651,398.954 256.900,404.778 255.162 C 411.810 253.064,413.236 250.541,425.320 218.816 C 438.115 185.224,438.715 183.898,441.822 182.297 C 443.108 181.635,457.408 176.012,473.600 169.803 C 489.792 163.593,504.330 157.548,505.906 156.369 C 512.946 151.103,513.868 140.241,507.831 133.684 C 504.688 130.270,503.887 129.912,471.456 117.433 C 455.441 111.270,441.485 105.654,440.444 104.954 C 439.059 104.022,435.254 95.117,426.276 71.797 C 413.712 39.161,412.358 36.498,406.869 33.630 C 403.298 31.765,396.100 32.123,392.187 34.361 M199.964 129.580 C 194.552 131.450,190.028 134.808,187.342 138.949 C 186.225 140.671,176.023 166.253,164.670 195.798 C 153.317 225.342,143.454 250.392,142.753 251.463 C 142.051 252.534,140.268 254.148,138.792 255.050 C 137.315 255.952,112.509 265.759,83.667 276.845 C 54.825 287.930,29.563 297.976,27.529 299.168 C 23.142 301.739,18.421 307.919,17.017 312.927 C 15.676 317.713,16.344 326.442,18.376 330.667 C 20.523 335.131,26.351 340.908,30.448 342.634 C 32.240 343.389,57.290 353.081,86.114 364.172 C 128.902 380.637,139.005 384.825,141.154 386.987 C 143.293 389.138,147.708 399.858,164.693 444.141 C 176.693 475.428,186.615 500.056,187.982 501.952 C 192.220 507.830,200.437 511.985,207.845 511.995 C 214.687 512.005,220.071 509.670,225.227 504.457 L 230.007 499.627 250.786 445.440 C 262.214 415.637,272.501 390.002,273.645 388.472 C 274.789 386.942,277.143 384.977,278.876 384.105 C 280.609 383.233,305.259 373.595,333.653 362.687 C 362.048 351.778,386.260 342.349,387.458 341.732 C 390.585 340.122,396.487 333.466,398.163 329.658 C 400.367 324.650,400.198 315.436,397.804 310.187 C 395.694 305.558,391.885 301.166,387.840 298.700 C 386.432 297.841,362.048 288.214,333.653 277.306 C 305.259 266.398,280.609 256.761,278.876 255.891 C 277.143 255.021,274.789 253.058,273.645 251.528 C 272.501 249.998,262.214 224.363,250.786 194.560 L 230.007 140.373 225.297 135.646 C 218.025 128.348,209.462 126.297,199.964 129.580 " stroke="none" fill-rule="evenodd" fill="black"></path></svg>