<svg id="icons" xmlns="http://www.w3.org/2000/svg" viewBox="0 0 512 512"><path d="M87.363 2.133 C 86.962 3.072,81.637 17.472,75.529 34.133 L 64.425 64.427 33.706 75.663 C 16.810 81.842,2.481 87.218,1.863 87.609 C 1.137 88.069,11.976 92.421,32.573 99.940 L 64.406 111.560 75.936 143.231 C 82.278 160.649,87.687 174.908,87.956 174.917 C 88.224 174.926,93.645 160.674,100.000 143.245 L 111.556 111.556 143.245 100.000 C 160.674 93.645,174.926 88.224,174.917 87.956 C 174.909 87.687,160.651 82.283,143.234 75.947 L 111.567 64.427 100.168 33.280 C 93.899 16.149,88.617 1.749,88.431 1.280 C 88.244 0.811,87.764 1.195,87.363 2.133 M384.306 72.700 L 368.864 112.928 328.692 128.357 C 306.597 136.843,288.787 144.011,289.113 144.285 C 289.440 144.559,306.603 151.241,327.253 159.133 C 347.904 167.026,365.766 173.965,366.946 174.553 C 368.778 175.466,371.337 181.467,384.373 215.409 C 392.777 237.292,399.925 254.897,400.258 254.531 C 400.590 254.166,407.667 236.145,415.984 214.486 L 431.105 175.105 470.486 159.984 C 492.145 151.667,510.155 144.601,510.508 144.281 C 510.861 143.961,493.265 136.830,471.407 128.436 C 437.177 115.290,431.513 112.870,430.574 110.986 C 429.974 109.784,423.026 91.904,415.133 71.253 C 407.241 50.603,400.550 33.429,400.265 33.089 C 399.980 32.750,392.798 50.575,384.306 72.700 M181.692 198.176 L 155.704 267.520 86.386 293.547 C 48.260 307.861,17.067 319.765,17.067 320.000 C 17.067 320.235,48.260 332.139,86.386 346.453 L 155.704 372.480 181.692 441.824 C 195.985 479.963,207.946 510.875,208.272 510.518 C 208.598 510.160,220.444 478.949,234.597 441.162 L 260.331 372.457 329.419 346.483 C 367.417 332.198,398.507 320.272,398.507 319.982 C 398.507 319.691,367.429 307.805,329.445 293.569 L 260.383 267.684 234.624 198.909 C 220.456 161.082,208.598 129.840,208.272 129.482 C 207.946 129.125,195.985 160.037,181.692 198.176 " stroke="none" fill-rule="evenodd" fill="black"></path></svg>