<svg id="icons" xmlns="http://www.w3.org/2000/svg" viewBox="0 0 512 512"><path d="M81.493 1.613 C 79.616 2.479,77.180 4.166,76.080 5.361 C 74.939 6.601,70.238 17.545,65.127 30.860 C 60.202 43.690,55.726 54.643,55.180 55.202 C 54.634 55.760,43.667 60.257,30.810 65.195 C 17.856 70.171,6.488 75.044,5.311 76.127 C 2.556 78.662,0.042 84.162,0.019 87.707 C -0.004 91.159,2.018 96.161,4.521 98.845 C 7.175 101.690,9.762 102.855,33.280 111.795 C 44.779 116.166,54.622 120.160,55.154 120.671 C 55.686 121.182,60.093 131.959,64.949 144.620 C 74.194 168.725,76.217 172.357,81.666 174.634 C 87.793 177.194,97.076 174.898,100.591 169.953 C 101.480 168.703,106.244 157.191,111.177 144.371 C 116.110 131.551,120.353 120.856,120.604 120.604 C 120.856 120.353,131.551 116.110,144.371 111.177 C 157.191 106.244,168.703 101.480,169.953 100.591 C 174.909 97.068,177.206 87.742,174.612 81.679 C 172.234 76.121,169.284 74.476,144.943 65.133 C 132.105 60.205,121.182 55.726,120.671 55.180 C 120.160 54.634,116.166 44.779,111.795 33.280 C 107.424 21.781,103.175 11.029,102.354 9.387 C 98.326 1.337,89.344 -2.011,81.493 1.613 M392.187 34.361 C 390.354 35.409,388.144 37.227,387.278 38.400 C 386.411 39.573,380.196 54.853,373.467 72.354 C 366.738 89.856,360.883 104.490,360.456 104.875 C 360.029 105.259,345.280 111.075,327.680 117.799 C 299.480 128.572,295.315 130.399,292.605 133.183 C 284.987 141.010,287.279 153.445,297.217 158.200 C 299.657 159.367,314.901 165.387,331.093 171.579 C 347.285 177.770,360.634 182.919,360.757 183.019 C 360.880 183.120,366.584 197.739,373.433 215.506 C 380.282 233.273,386.518 248.652,387.290 249.682 C 392.938 257.215,405.002 257.906,411.550 251.071 C 413.088 249.466,417.757 238.431,426.432 215.901 L 439.072 183.070 471.213 170.682 C 488.890 163.868,504.571 157.389,506.058 156.283 C 514.499 150.008,513.469 135.805,504.196 130.593 C 502.469 129.622,487.150 123.474,470.155 116.929 C 453.159 110.385,439.159 104.919,439.045 104.782 C 438.930 104.645,433.770 91.285,427.579 75.093 C 413.656 38.681,413.220 37.755,408.616 34.773 C 403.877 31.705,397.128 31.535,392.187 34.361 M96.898 79.406 C 98.256 80.824,102.265 82.948,106.758 84.631 C 110.923 86.191,114.334 87.704,114.338 87.993 C 114.343 88.283,110.987 89.785,106.880 91.332 C 97.325 94.931,94.914 97.334,91.289 106.880 C 89.729 110.987,88.231 114.343,87.960 114.338 C 87.689 114.334,86.191 110.923,84.631 106.758 C 82.948 102.265,80.824 98.256,79.406 96.898 C 78.093 95.639,73.458 93.141,69.108 91.346 C 60.222 87.681,60.149 88.042,70.565 84.120 C 77.491 81.511,81.863 77.464,83.653 72.005 C 84.250 70.184,85.475 66.968,86.375 64.858 L 88.011 61.023 91.310 69.020 C 93.125 73.419,95.639 78.093,96.898 79.406 M406.136 108.373 C 412.407 124.874,413.145 126.408,416.152 129.197 C 417.447 130.398,425.337 133.954,434.518 137.475 C 443.371 140.870,450.314 143.933,449.947 144.282 C 449.580 144.631,442.176 147.631,433.493 150.948 C 420.988 155.725,417.173 157.559,415.138 159.769 C 413.393 161.666,410.694 167.483,406.718 177.920 C 403.499 186.368,400.592 193.580,400.257 193.947 C 399.922 194.314,396.870 187.371,393.475 178.518 C 389.954 169.337,386.398 161.447,385.197 160.152 C 382.408 157.145,380.874 156.407,364.373 150.136 C 356.629 147.193,350.023 144.560,349.694 144.284 C 349.364 144.008,355.930 141.164,364.284 137.965 C 381.564 131.349,384.216 129.942,386.509 126.172 C 387.411 124.689,390.766 116.639,393.965 108.284 C 397.164 99.930,400.008 93.364,400.284 93.694 C 400.560 94.023,403.193 100.629,406.136 108.373 M199.964 129.527 C 194.517 131.474,190.010 134.838,187.339 138.949 C 186.220 140.671,175.649 167.226,163.847 197.960 C 152.046 228.694,142.249 253.982,142.076 254.155 C 141.903 254.328,116.885 264.043,86.480 275.744 C 56.076 287.444,29.569 297.973,27.575 299.141 C 12.436 308.013,12.541 332.048,27.757 340.966 C 29.851 342.193,56.379 352.743,86.709 364.410 C 117.040 376.078,141.974 385.743,142.120 385.889 C 142.266 386.035,152.177 411.613,164.144 442.729 C 177.148 476.539,186.832 500.521,188.211 502.329 C 192.536 508.000,200.631 511.985,207.845 511.995 C 214.686 512.005,220.071 509.670,225.229 504.457 L 230.010 499.627 251.609 443.307 C 263.489 412.331,273.657 386.558,274.204 386.034 C 274.752 385.511,299.968 375.582,330.240 363.971 C 360.512 352.359,385.986 342.484,386.849 342.026 C 390.289 340.199,395.345 334.812,397.460 330.721 C 400.647 324.556,400.647 315.444,397.460 309.279 C 395.345 305.188,390.289 299.801,386.849 297.974 C 385.986 297.516,360.512 287.641,330.240 276.029 C 299.968 264.418,274.752 254.489,274.204 253.966 C 273.657 253.442,263.500 227.732,251.634 196.834 C 232.687 147.496,229.652 140.190,226.709 136.847 C 219.972 129.193,209.170 126.237,199.964 129.527 M227.401 222.912 C 238.501 251.839,246.953 272.645,248.404 274.619 C 249.740 276.436,252.284 278.912,254.056 280.122 C 255.829 281.331,279.072 290.684,305.707 300.906 C 332.341 311.128,354.133 319.734,354.133 320.031 C 354.133 320.327,333.301 328.557,307.840 338.320 C 282.379 348.082,259.299 357.244,256.553 358.680 C 253.555 360.247,250.455 362.736,248.798 364.906 C 246.850 367.458,240.562 382.792,227.432 417.008 C 217.199 443.675,208.575 465.780,208.267 466.131 C 207.959 466.481,199.499 445.361,189.468 419.197 C 179.436 393.034,170.559 370.265,169.740 368.602 C 168.921 366.938,166.559 364.017,164.491 362.112 C 160.346 358.291,161.810 358.900,97.928 334.409 C 77.868 326.719,61.455 320.235,61.455 320.000 C 61.455 319.765,77.868 313.281,97.928 305.591 C 161.810 281.100,160.346 281.709,164.491 277.888 C 166.559 275.983,168.921 273.062,169.740 271.398 C 170.559 269.735,179.436 246.966,189.468 220.803 C 199.499 194.639,207.959 173.519,208.267 173.869 C 208.575 174.220,217.185 196.289,227.401 222.912 " fill="black" stroke="none" fill-rule="evenodd"></path></svg>