<svg xmlns="http://www.w3.org/2000/svg" width="512" height="512" viewBox="0 0 512 512"><path d="M233.813 49.616 C 150.566 57.260,75.100 110.179,39.549 185.841 C 26.531 213.545,19.148 242.640,16.935 274.957 C 14.427 311.587,22.054 352.428,37.983 387.662 C 48.767 411.517,67.502 439.208,81.836 452.479 C 93.541 463.315,108.743 466.664,123.377 461.629 C 130.568 459.155,133.477 457.076,144.213 446.740 C 162.876 428.773,179.343 418.122,200.960 410.035 C 221.085 402.506,238.089 399.808,261.120 400.489 C 285.656 401.215,302.869 405.416,324.693 416.007 C 341.997 424.404,351.766 431.397,368.213 447.158 C 378.579 457.091,381.544 459.194,388.623 461.629 C 399.097 465.233,409.541 464.607,419.840 459.760 C 426.542 456.605,436.537 446.859,446.545 433.721 C 471.198 401.357,487.549 362.483,493.730 321.539 C 495.589 309.220,496.260 279.037,494.974 265.585 C 487.879 191.398,447.747 125.919,384.707 85.669 C 373.104 78.261,349.451 66.769,336.640 62.315 C 303.855 50.916,267.949 46.482,233.813 49.616 M264.642 114.792 C 266.344 115.892,268.648 118.258,269.762 120.049 C 271.740 123.231,271.787 123.762,271.787 142.933 C 271.787 153.728,271.493 163.609,271.134 164.891 C 270.231 168.119,265.541 173.249,262.227 174.634 C 255.952 177.256,248.839 175.560,244.266 170.351 C 242.754 168.630,241.224 166.173,240.866 164.891 C 240.507 163.609,240.213 153.728,240.213 142.933 C 240.213 123.887,240.272 123.213,242.193 120.122 C 247.164 112.127,256.928 109.809,264.642 114.792 M150.490 160.982 C 154.069 162.795,177.751 186.541,179.584 190.155 C 181.387 193.712,181.464 201.246,179.731 204.598 C 175.280 213.206,164.212 215.927,156.209 210.380 C 150.877 206.685,129.790 184.728,128.417 181.441 C 122.574 167.457,136.956 154.126,150.490 160.982 M377.136 161.361 C 381.347 163.728,384.174 168.162,384.653 173.153 C 385.354 180.441,383.961 182.735,370.512 196.447 C 356.180 211.060,351.739 213.939,344.969 213.011 C 334.503 211.576,328.243 200.473,332.353 190.636 C 333.602 187.648,351.538 168.632,357.824 163.631 C 364.300 158.480,370.676 157.731,377.136 161.361 M322.104 217.106 C 323.718 217.780,325.600 219.467,326.343 220.904 C 329.316 226.652,329.280 226.725,303.414 268.027 C 289.374 290.446,277.418 308.602,275.041 311.113 C 268.105 318.440,256.719 321.545,246.976 318.766 C 236.244 315.705,227.713 307.102,225.256 296.860 C 223.036 287.605,225.868 276.447,232.209 269.464 C 234.600 266.831,302.441 223.281,313.161 217.498 C 316.725 215.575,318.277 215.507,322.104 217.106 M133.704 273.121 C 139.516 275.317,143.604 281.461,143.604 288.000 C 143.604 292.839,142.099 296.301,138.530 299.679 C 134.525 303.468,132.478 303.787,112.130 303.787 C 92.121 303.787,89.123 303.335,85.031 299.701 C 80.711 295.865,79.097 287.630,81.526 281.817 C 83.294 277.586,85.113 275.683,89.173 273.818 C 92.162 272.446,94.993 272.248,111.944 272.232 C 123.595 272.221,132.259 272.575,133.704 273.121 M422.827 273.818 C 426.887 275.683,428.706 277.586,430.474 281.817 C 432.787 287.353,431.623 294.552,427.701 298.969 C 426.897 299.874,424.704 301.320,422.827 302.182 C 419.838 303.554,417.007 303.752,400.056 303.768 C 379.504 303.788,377.485 303.477,373.470 299.679 C 369.901 296.301,368.396 292.839,368.396 288.000 C 368.396 281.605,372.429 275.395,378.027 273.170 C 379.213 272.698,388.874 272.306,399.787 272.286 C 417.072 272.255,419.821 272.438,422.827 273.818 " stroke="none" fill-rule="evenodd" fill="black"></path></svg>