<svg xmlns="http://www.w3.org/2000/svg" width="512" height="512" viewBox="0 0 512 512"><path d="M241.493 48.665 C 183.269 52.135,129.009 76.613,87.437 118.163 C 49.820 155.760,26.727 202.006,18.182 256.853 C 16.982 264.553,16.653 271.813,16.653 290.560 C 16.653 316.108,17.389 323.635,21.848 343.695 C 29.337 377.385,43.647 408.611,64.365 436.470 C 73.170 448.311,82.664 458.457,87.698 461.407 C 92.297 464.103,100.922 464.939,107.638 463.340 C 111.895 462.327,113.014 461.442,123.733 450.614 C 139.673 434.512,150.714 426.516,168.910 417.895 C 184.739 410.397,204.699 404.780,226.133 401.792 C 231.128 401.096,242.593 400.662,256.000 400.662 C 284.586 400.662,302.257 403.188,324.252 410.417 C 349.844 418.829,368.199 430.351,388.267 450.602 C 400.841 463.291,402.460 464.213,412.160 464.213 C 421.193 464.213,423.837 462.935,432.300 454.480 C 460.934 425.869,484.009 379.199,492.272 333.183 C 497.808 302.350,496.757 265.352,489.470 234.508 C 471.177 157.091,416.680 93.842,343.040 64.564 C 312.179 52.293,275.904 46.614,241.493 48.665 M272.213 143.787 L 272.213 175.787 256.000 175.787 L 239.787 175.787 239.787 143.787 L 239.787 111.787 256.000 111.787 L 272.213 111.787 272.213 143.787 M165.974 174.934 L 188.150 197.122 176.630 208.642 L 165.110 220.162 142.511 197.551 L 119.912 174.940 130.984 163.843 C 137.073 157.740,142.448 152.747,142.927 152.747 C 143.407 152.747,153.778 162.731,165.974 174.934 M381.016 163.843 L 392.088 174.940 369.489 197.551 L 346.890 220.162 335.370 208.642 L 323.850 197.122 346.026 174.934 C 358.222 162.731,368.593 152.747,369.073 152.747 C 369.552 152.747,374.927 157.740,381.016 163.843 M298.471 267.323 C 279.929 304.672,277.154 309.781,273.892 312.572 C 269.632 316.219,262.578 319.101,256.302 319.760 C 250.608 320.357,241.627 317.635,236.304 313.698 C 225.382 305.619,221.394 289.689,227.179 277.253 C 231.481 268.005,231.511 267.986,276.907 245.433 C 299.904 234.007,318.867 224.785,319.046 224.940 C 319.225 225.095,309.966 244.167,298.471 267.323 M144.213 288.000 L 144.213 303.787 112.213 303.787 L 80.213 303.787 80.213 288.000 L 80.213 272.213 112.213 272.213 L 144.213 272.213 144.213 288.000 M431.787 288.000 L 431.787 303.787 399.787 303.787 L 367.787 303.787 367.787 288.000 L 367.787 272.213 399.787 272.213 L 431.787 272.213 431.787 288.000 " stroke="none" fill-rule="evenodd" fill="black"></path></svg>