<svg xmlns="http://www.w3.org/2000/svg" width="512" height="512" viewBox="0 0 512 512"><path d="M245.760 48.327 C 200.786 50.634,159.383 64.130,122.880 88.381 C 110.633 96.518,97.108 107.659,86.187 118.608 C 49.246 155.641,26.448 201.132,18.188 254.293 C 16.050 268.054,16.007 306.809,18.114 320.639 C 25.628 369.949,46.516 414.670,77.687 448.182 C 83.998 454.968,86.514 457.018,91.552 459.482 C 99.907 463.568,108.088 464.900,116.267 463.506 C 126.712 461.726,131.727 458.766,143.522 447.417 C 155.035 436.340,160.557 431.869,171.520 424.753 C 212.141 398.384,264.994 392.808,311.040 410.035 C 332.941 418.228,349.015 428.690,368.478 447.417 C 380.273 458.766,385.288 461.726,395.733 463.506 C 403.889 464.896,412.095 463.566,420.388 459.511 C 427.771 455.901,436.257 447.325,448.246 431.358 C 472.112 399.571,487.593 362.194,493.730 321.539 C 495.599 309.157,496.262 279.020,494.960 265.585 C 487.321 186.706,442.491 117.839,373.228 78.583 C 347.050 63.746,311.221 52.359,282.027 49.597 C 270.848 48.539,253.479 47.931,245.760 48.327 M286.720 82.342 C 378.563 96.049,449.898 168.750,462.141 261.121 C 464.043 275.478,464.030 300.698,462.112 315.307 C 457.251 352.329,441.206 389.596,417.588 418.718 C 408.795 429.560,406.111 431.787,401.837 431.787 C 398.618 431.787,397.765 431.177,388.412 422.183 C 358.470 393.390,323.606 376.097,282.880 369.835 C 270.009 367.856,241.991 367.856,229.120 369.835 C 188.251 376.119,153.641 393.283,123.607 422.164 C 114.235 431.177,113.383 431.787,110.163 431.787 C 105.889 431.787,103.205 429.560,94.412 418.718 C 70.758 389.551,54.766 352.411,49.885 315.307 C 47.950 300.592,47.944 274.585,49.874 260.693 C 52.695 240.380,58.174 220.785,65.739 203.947 C 96.618 135.223,159.622 89.417,234.667 81.131 C 245.507 79.934,275.218 80.625,286.720 82.342 M252.160 112.561 C 246.480 113.972,242.199 118.068,240.678 123.546 C 240.193 125.292,239.802 134.784,239.810 144.640 C 239.826 164.394,240.353 166.929,245.439 171.679 C 253.445 179.157,265.788 176.357,270.596 165.973 C 271.974 162.997,272.178 160.266,272.190 144.640 C 272.205 125.439,271.676 121.841,268.239 117.756 C 264.483 113.292,257.846 111.148,252.160 112.561 M139.172 159.304 C 135.711 160.017,130.955 163.696,129.002 167.171 C 126.806 171.078,126.563 177.005,128.417 181.441 C 129.801 184.754,150.894 206.698,156.286 210.434 C 160.168 213.124,166.426 214.020,170.938 212.531 C 174.865 211.235,179.710 205.831,180.897 201.422 C 182.108 196.926,181.307 192.898,178.302 188.360 C 175.187 183.657,153.997 162.817,150.490 161.007 C 147.474 159.451,142.264 158.667,139.172 159.304 M364.224 159.881 C 359.833 161.497,356.099 164.656,344.093 176.918 C 330.387 190.915,328.229 195.598,331.831 203.527 C 336.140 213.010,347.364 216.221,355.791 210.380 C 361.123 206.685,382.210 184.728,383.583 181.441 C 385.437 177.005,385.194 171.078,382.998 167.171 C 379.388 160.748,370.866 157.438,364.224 159.881 M312.630 217.813 C 310.704 218.869,292.327 230.293,271.793 243.200 C 231.275 268.668,229.811 269.833,226.195 279.497 C 221.443 292.198,226.513 307.496,237.869 314.723 C 246.605 320.283,255.647 321.196,265.454 317.509 C 273.104 314.634,276.378 311.084,286.992 294.159 C 292.353 285.609,303.702 267.533,312.210 253.989 C 328.720 227.711,329.237 226.500,326.343 220.904 C 325.035 218.373,320.741 215.893,317.668 215.893 C 316.824 215.893,314.557 216.757,312.630 217.813 M88.579 273.955 C 86.844 274.871,84.348 277.032,83.032 278.757 C 80.921 281.526,80.640 282.619,80.640 288.068 C 80.640 293.667,80.880 294.538,83.221 297.431 C 88.168 303.543,89.253 303.787,111.504 303.787 C 123.418 303.787,132.259 303.425,133.704 302.879 C 139.008 300.875,144.176 293.532,144.176 288.000 C 144.176 282.468,139.008 275.125,133.704 273.121 C 132.247 272.570,123.518 272.228,111.518 272.251 C 93.584 272.285,91.438 272.445,88.579 273.955 M377.600 273.428 C 372.310 275.799,367.824 282.485,367.824 288.000 C 367.824 293.532,372.992 300.875,378.296 302.879 C 379.739 303.424,388.528 303.787,400.311 303.787 C 420.845 303.787,422.536 303.523,426.971 299.630 C 429.643 297.285,431.787 292.108,431.787 288.000 C 431.787 283.892,429.643 278.715,426.971 276.370 C 422.519 272.463,420.881 272.212,400.042 272.247 C 385.289 272.272,379.500 272.576,377.600 273.428 " stroke="none" fill-rule="evenodd" fill="black"></path></svg>