<svg xmlns="http://www.w3.org/2000/svg" width="512" height="512" viewBox="0 0 512 512"><path d="M87.893 48.746 C 74.604 50.579,59.162 61.965,53.072 74.422 C 47.515 85.787,47.816 75.361,47.816 256.000 C 47.816 395.620,48.000 421.136,49.043 426.058 C 52.862 444.080,67.984 459.149,86.102 462.990 C 94.502 464.771,417.498 464.771,425.898 462.990 C 444.034 459.146,459.146 444.034,462.990 425.898 C 464.771 417.498,464.771 94.502,462.990 86.102 C 459.437 69.339,446.013 54.969,428.912 49.623 C 424.963 48.389,408.284 48.241,258.987 48.117 C 165.174 48.040,91.037 48.312,87.893 48.746 M423.074 81.829 C 426.985 83.825,428.780 85.764,430.474 89.817 C 431.640 92.607,431.787 111.208,431.787 256.000 C 431.787 400.792,431.640 419.393,430.474 422.183 C 428.780 426.236,426.985 428.175,423.074 430.171 C 420.000 431.740,415.154 431.787,256.000 431.787 C 96.846 431.787,92.000 431.740,88.926 430.171 C 85.015 428.175,83.220 426.236,81.526 422.183 C 80.360 419.393,80.213 400.749,80.213 255.567 C 80.213 96.838,80.260 92.000,81.829 88.926 C 83.638 85.383,85.411 83.622,89.173 81.634 C 91.484 80.414,107.737 80.278,255.821 80.247 C 415.187 80.214,419.999 80.260,423.074 81.829 " stroke="none" fill-rule="evenodd" fill="black"></path></svg>