<svg xmlns="http://www.w3.org/2000/svg" width="512" height="512" viewBox="0 0 512 512"><path d="M89.173 48.667 C 69.578 51.281,53.244 66.736,49.070 86.613 C 47.184 95.600,47.184 416.400,49.070 425.387 C 53.019 444.192,67.808 458.981,86.613 462.930 C 95.600 464.816,416.400 464.816,425.387 462.930 C 439.606 459.944,452.396 450.215,458.557 437.697 C 464.538 425.543,464.184 436.986,464.184 256.000 C 464.184 115.521,464.008 91.748,462.930 86.613 C 459.300 69.323,446.813 55.682,429.227 49.791 C 424.737 48.287,417.381 48.214,259.413 48.101 C 168.597 48.037,91.989 48.292,89.173 48.667 " stroke="none" fill-rule="evenodd" fill="black"></path></svg>