<svg xmlns="http://www.w3.org/2000/svg" width="512" height="512" viewBox="0 0 512 512"><path d="M227.700 117.973 L 199.838 202.667 108.033 203.093 L 16.228 203.520 90.735 255.777 C 131.714 284.518,165.440 308.231,165.680 308.472 C 165.921 308.713,153.117 346.994,137.226 393.542 C 121.336 440.090,108.439 478.426,108.567 478.733 C 108.695 479.040,141.920 455.571,182.400 426.579 L 256.000 373.868 329.600 426.579 C 370.080 455.571,403.306 479.038,403.434 478.729 C 403.563 478.419,390.641 440.179,374.717 393.750 L 345.766 309.333 347.655 307.627 C 348.694 306.688,382.446 282.880,422.659 254.720 L 495.773 203.520 403.960 203.093 L 312.146 202.667 284.296 117.973 C 268.978 71.392,256.247 33.280,256.004 33.280 C 255.761 33.280,243.024 71.392,227.700 117.973 M341.538 235.727 L 393.752 235.947 351.246 265.748 C 327.867 282.139,308.573 295.984,308.369 296.515 C 308.165 297.046,315.479 319.335,324.622 346.047 C 333.764 372.758,341.122 394.736,340.972 394.886 C 340.822 395.035,321.738 381.584,298.563 364.993 L 256.427 334.828 256.281 235.041 L 256.136 135.253 272.730 185.380 L 289.324 235.507 341.538 235.727 " stroke="none" fill-rule="evenodd" fill="black"></path></svg>