<svg xmlns="http://www.w3.org/2000/svg" width="512" height="512" viewBox="0 0 512 512"><path d="M248.175 34.156 C 242.211 37.307,245.027 29.710,211.578 132.890 L 192.427 191.966 109.591 192.196 L 26.755 192.427 23.294 194.717 C 15.897 199.613,13.933 210.683,19.287 217.298 C 20.789 219.155,47.228 237.847,85.358 264.010 C 120.320 287.999,149.835 308.274,150.948 309.065 L 152.970 310.504 127.551 385.729 C 109.199 440.042,102.147 461.970,102.187 464.607 C 102.333 474.256,112.176 481.857,121.487 479.513 C 124.402 478.779,140.549 467.486,190.433 431.296 C 226.260 405.304,255.765 384.038,256.000 384.038 C 256.235 384.038,285.740 405.304,321.567 431.296 C 368.931 465.658,387.676 478.798,390.260 479.449 C 400.205 481.953,409.763 474.259,409.717 463.787 C 409.707 461.594,400.673 433.676,384.463 385.749 C 370.582 344.706,359.327 310.847,359.453 310.507 C 359.578 310.167,388.672 290.048,424.107 265.796 C 459.541 241.545,489.774 220.520,491.291 219.073 C 494.737 215.786,496.100 211.773,495.586 206.428 C 495.081 201.171,491.843 196.188,487.543 194.053 C 484.399 192.492,480.952 192.417,401.920 192.199 L 319.573 191.971 299.994 131.612 C 271.926 45.083,270.483 40.787,268.627 38.167 C 264.740 32.684,254.693 30.713,248.175 34.156 " stroke="none" fill-rule="evenodd" fill="black"></path></svg>