<svg xmlns="http://www.w3.org/2000/svg" width="512" height="512" viewBox="0 0 512 512"><path d="M248.175 34.156 C 242.211 37.307,245.047 29.655,211.580 132.900 L 192.427 191.987 110.563 191.993 C 28.891 192.000,28.690 192.004,24.960 193.810 C 15.519 198.380,13.230 211.974,20.709 219.053 C 22.226 220.488,52.459 241.520,87.893 265.792 C 123.328 290.063,152.458 310.055,152.626 310.218 C 152.794 310.381,141.515 344.232,127.561 385.444 C 101.024 463.818,100.644 465.169,103.536 470.761 C 106.726 476.930,114.590 481.099,120.831 479.928 C 124.276 479.282,124.626 479.036,201.387 423.350 C 231.189 401.730,255.765 384.042,256.000 384.043 C 256.235 384.045,285.775 405.319,321.645 431.320 C 368.168 465.042,387.860 478.845,390.339 479.469 C 396.240 480.954,401.612 479.107,406.034 474.070 C 409.445 470.185,410.815 465.247,409.659 461.000 C 409.182 459.247,397.601 424.673,383.925 384.169 C 370.248 343.664,359.198 310.388,359.369 310.223 C 359.540 310.057,388.672 290.062,424.107 265.790 C 459.541 241.517,489.637 220.649,490.985 219.416 C 498.188 212.828,497.025 200.223,488.706 194.717 L 485.245 192.427 402.409 192.193 L 319.573 191.959 294.989 116.306 C 281.467 74.697,269.627 39.561,268.677 38.227 C 264.729 32.683,254.725 30.696,248.175 34.156 M274.773 157.570 C 287.192 196.047,293.846 215.432,295.367 217.569 C 296.604 219.304,299.100 221.462,300.914 222.362 C 304.049 223.919,307.270 224.021,365.701 224.427 L 427.188 224.853 379.830 257.280 C 353.783 275.115,331.145 290.853,329.522 292.253 C 325.946 295.341,324.264 299.098,324.275 303.973 C 324.281 306.469,330.359 325.584,343.463 364.315 C 354.011 395.493,362.551 421.074,362.441 421.162 C 362.330 421.250,340.352 405.441,313.600 386.031 C 286.848 366.621,263.750 350.160,262.271 349.450 C 258.892 347.829,253.364 347.793,249.786 349.371 C 248.276 350.036,225.152 366.498,198.400 385.952 C 171.648 405.406,149.668 421.249,149.556 421.159 C 149.444 421.070,157.982 395.488,168.530 364.311 C 181.591 325.707,187.712 306.461,187.721 303.973 C 187.738 299.101,186.056 295.343,182.478 292.253 C 180.855 290.853,158.217 275.115,132.170 257.280 L 84.812 224.853 146.299 224.427 C 204.730 224.021,207.951 223.919,211.086 222.362 C 212.900 221.462,215.396 219.304,216.633 217.569 C 218.154 215.432,224.808 196.047,237.227 157.570 C 247.317 126.307,255.765 100.728,256.000 100.728 C 256.235 100.728,264.683 126.307,274.773 157.570 " stroke="none" fill-rule="evenodd" fill="black"></path></svg>