<svg xmlns="http://www.w3.org/2000/svg" width="512" height="512" viewBox="0 0 512 512"><path d="M159.573 256.000 L 159.573 495.787 199.680 495.787 L 239.787 495.787 239.787 256.000 L 239.787 16.213 199.680 16.213 L 159.573 16.213 159.573 256.000 M384.000 296.107 L 384.000 495.787 424.107 495.787 L 464.213 495.787 464.213 296.107 L 464.213 96.427 424.107 96.427 L 384.000 96.427 384.000 296.107 M272.213 352.000 L 272.213 495.787 312.320 495.787 L 352.427 495.787 352.427 352.000 L 352.427 208.213 312.320 208.213 L 272.213 208.213 272.213 352.000 M47.787 399.787 L 47.787 495.787 87.893 495.787 L 128.000 495.787 128.000 399.787 L 128.000 303.787 87.893 303.787 L 47.787 303.787 47.787 399.787 " stroke="none" fill-rule="evenodd" fill="black"></path></svg>