<svg xmlns="http://www.w3.org/2000/svg" width="512" height="512" viewBox="0 0 512 512"><path d="M174.419 18.230 C 169.724 20.446,164.606 25.058,162.654 28.831 C 161.986 30.123,161.019 33.452,160.506 36.227 C 159.037 44.177,159.238 469.696,160.714 476.741 C 162.499 485.256,168.445 492.034,176.554 494.798 C 178.446 495.443,186.753 495.784,200.447 495.778 C 220.757 495.770,221.579 495.704,225.707 493.747 C 230.896 491.287,235.686 486.434,238.015 481.280 C 239.744 477.451,239.749 476.801,239.749 256.000 C 239.749 35.199,239.744 34.549,238.015 30.720 C 235.904 26.047,231.153 20.974,226.560 18.488 C 223.346 16.748,221.851 16.626,200.960 16.408 C 179.060 16.178,178.717 16.202,174.419 18.230 M208.213 256.000 L 208.213 464.213 200.107 464.213 L 192.000 464.213 192.000 256.000 L 192.000 47.787 200.107 47.787 L 208.213 47.787 208.213 256.000 M398.507 98.197 C 392.990 100.688,387.709 106.204,385.699 111.578 C 384.022 116.057,384.000 118.495,384.000 296.107 C 384.000 473.718,384.022 476.156,385.699 480.636 C 387.528 485.527,392.582 491.081,397.653 493.774 C 400.293 495.176,403.149 495.391,422.232 495.627 C 446.575 495.928,449.330 495.478,455.508 490.189 C 457.423 488.550,460.069 485.011,461.388 482.325 L 463.787 477.440 464.047 298.667 C 464.243 164.262,464.059 118.738,463.306 115.237 C 461.632 107.450,456.820 101.422,449.707 98.202 C 446.166 96.599,444.173 96.464,424.107 96.464 C 404.064 96.464,402.044 96.601,398.507 98.197 M431.787 296.107 L 431.787 464.213 424.107 464.213 L 416.427 464.213 416.427 296.107 L 416.427 128.000 424.107 128.000 L 431.787 128.000 431.787 296.107 M289.274 209.011 C 282.919 210.944,276.844 216.391,273.985 222.720 C 272.267 226.524,272.251 227.726,272.240 352.000 L 272.230 477.440 274.253 481.707 C 276.713 486.896,281.566 491.686,286.720 494.015 C 290.242 495.605,292.299 495.751,311.553 495.768 C 325.246 495.780,333.554 495.444,335.446 494.800 C 339.733 493.342,345.223 489.170,347.859 485.366 C 352.469 478.713,352.390 481.032,352.409 352.370 C 352.427 231.975,352.300 226.545,349.346 220.831 C 347.386 217.041,342.265 212.438,337.581 210.257 C 333.356 208.290,332.607 208.232,312.320 208.295 C 300.821 208.331,290.451 208.653,289.274 209.011 M320.000 352.000 L 320.000 464.213 311.893 464.213 L 303.787 464.213 303.787 352.000 L 303.787 239.787 311.893 239.787 L 320.000 239.787 320.000 352.000 M67.118 304.642 C 60.161 305.876,53.377 311.300,50.044 318.293 C 48.214 322.133,48.213 322.149,48.213 399.787 L 48.213 477.440 50.612 482.325 C 51.931 485.011,54.577 488.550,56.492 490.189 C 62.670 495.478,65.425 495.928,89.768 495.627 C 114.313 495.323,115.055 495.144,121.735 487.898 C 128.368 480.701,128.064 485.186,127.804 398.446 L 127.573 321.280 125.648 317.676 C 123.027 312.772,118.280 308.200,113.570 306.043 C 110.003 304.410,107.940 304.234,90.453 304.079 C 79.893 303.985,69.392 304.239,67.118 304.642 M95.573 400.213 L 95.573 464.213 87.893 464.213 L 80.213 464.213 80.213 400.213 L 80.213 336.213 87.893 336.213 L 95.573 336.213 95.573 400.213 " stroke="none" fill="black" fill-rule="evenodd"></path></svg>