<svg xmlns="http://www.w3.org/2000/svg" width="512" height="512" viewBox="0 0 512 512"><path d="M173.474 18.778 C 167.625 21.708,164.481 24.920,161.785 30.720 L 160.000 34.560 160.000 256.000 L 160.000 477.440 161.834 481.407 C 164.044 486.189,169.069 491.395,173.682 493.682 C 176.732 495.194,179.214 495.385,198.806 495.616 C 217.647 495.837,221.054 495.677,224.356 494.416 C 229.484 492.458,235.340 486.910,237.774 481.707 L 239.770 477.440 239.760 256.000 C 239.749 35.210,239.744 34.549,238.015 30.720 C 235.904 26.047,231.153 20.974,226.560 18.488 C 223.350 16.750,221.824 16.625,200.960 16.382 L 178.773 16.123 173.474 18.778 M398.507 98.197 C 392.990 100.688,387.709 106.204,385.699 111.578 C 384.022 116.057,384.000 118.495,384.000 295.987 C 384.000 496.885,383.462 480.080,390.141 487.668 C 396.685 495.102,397.571 495.322,422.232 495.627 C 446.575 495.928,449.330 495.478,455.508 490.189 C 457.423 488.550,460.069 485.011,461.388 482.325 L 463.787 477.440 463.787 295.680 C 463.787 123.467,463.707 113.751,462.274 110.701 C 459.968 105.794,454.873 100.646,450.133 98.434 C 446.012 96.511,445.126 96.444,424.107 96.454 C 404.077 96.463,402.041 96.602,398.507 98.197 M289.274 209.011 C 282.919 210.944,276.844 216.391,273.985 222.720 C 272.267 226.524,272.251 227.726,272.240 352.000 L 272.230 477.440 274.226 481.707 C 276.660 486.910,282.516 492.458,287.644 494.416 C 290.946 495.677,294.353 495.837,313.194 495.616 C 332.786 495.385,335.268 495.194,338.318 493.682 C 342.931 491.395,347.956 486.189,350.166 481.407 L 352.000 477.440 352.000 352.000 C 352.000 234.750,351.903 226.346,350.519 223.285 C 347.951 217.608,344.082 213.561,338.606 210.824 L 333.381 208.213 312.397 208.287 C 300.856 208.327,290.451 208.653,289.274 209.011 M66.599 304.685 C 62.037 305.620,55.922 309.646,52.668 313.857 C 47.632 320.373,47.729 318.566,47.982 401.560 L 48.213 477.440 50.612 482.325 C 51.931 485.011,54.577 488.550,56.492 490.189 C 62.670 495.478,65.425 495.928,89.768 495.627 C 114.439 495.322,115.313 495.105,121.877 487.648 C 128.372 480.269,128.063 484.911,127.804 398.446 L 127.573 321.280 125.057 316.737 C 122.353 311.856,118.173 308.056,112.929 305.712 C 110.185 304.486,106.470 304.221,90.027 304.077 C 79.232 303.983,68.690 304.257,66.599 304.685 " stroke="none" fill-rule="evenodd" fill="black"></path></svg>