<svg xmlns="http://www.w3.org/2000/svg" width="512" height="512" viewBox="0 0 512 512"><path d="M109.297 81.569 C 96.613 84.979,85.840 95.466,81.889 108.250 C 80.252 113.548,80.213 116.949,80.213 256.000 C 80.213 395.051,80.252 398.452,81.889 403.750 C 85.776 416.327,95.673 426.224,108.250 430.111 C 113.548 431.748,116.949 431.787,256.000 431.787 C 395.051 431.787,398.452 431.748,403.750 430.111 C 416.327 426.224,426.224 416.327,430.111 403.750 C 431.748 398.452,431.787 395.051,431.787 256.000 C 431.787 116.949,431.748 113.548,430.111 108.250 C 426.100 95.273,415.329 84.911,402.334 81.526 C 397.893 80.369,380.477 80.220,255.607 80.269 C 134.354 80.318,113.253 80.505,109.297 81.569 " stroke="none" fill-rule="evenodd" fill="black"></path></svg>