<svg xmlns="http://www.w3.org/2000/svg" width="512" height="512" viewBox="0 0 512 512"><path d="M241.920 48.669 C 177.359 52.784,118.768 87.102,81.958 142.362 C 55.666 181.831,43.309 234.683,49.503 281.173 C 55.829 328.652,75.879 369.527,109.176 402.824 C 142.702 436.350,182.619 455.851,231.680 462.670 C 235.904 463.257,246.848 463.738,256.000 463.738 C 265.152 463.738,276.096 463.257,280.320 462.670 C 329.321 455.859,369.272 436.331,402.802 402.802 C 436.331 369.272,455.859 329.321,462.670 280.320 C 464.046 270.420,464.046 241.580,462.670 231.680 C 455.892 182.914,436.342 142.776,403.220 109.623 C 391.401 97.792,382.569 90.546,369.558 82.006 C 331.997 57.351,287.606 45.757,241.920 48.669 M320.609 178.225 C 326.150 180.731,332.001 186.877,334.150 192.451 C 335.707 196.487,335.787 199.595,335.787 256.427 L 335.787 316.160 333.775 320.609 C 331.269 326.150,325.123 332.001,319.549 334.150 C 315.514 335.707,312.411 335.787,256.000 335.787 C 199.589 335.787,196.486 335.707,192.451 334.150 C 186.877 332.001,180.731 326.150,178.225 320.609 L 176.213 316.160 176.213 256.427 C 176.213 199.722,176.296 196.480,177.840 192.477 C 180.758 184.911,188.004 178.630,196.040 176.701 C 197.823 176.273,225.264 175.993,257.707 176.072 L 316.160 176.213 320.609 178.225 " stroke="none" fill-rule="evenodd" fill="black"></path></svg>