<svg xmlns="http://www.w3.org/2000/svg" width="512" height="512" viewBox="0 0 512 512"><path d="M249.859 48.940 C 242.009 51.134,235.988 56.627,233.403 63.953 C 232.652 66.083,232.106 70.542,232.106 74.561 L 232.105 81.493 221.226 83.440 C 197.781 87.637,173.484 97.104,153.742 109.737 L 147.484 113.741 140.516 106.831 C 132.047 98.434,128.142 96.471,119.848 96.445 C 115.070 96.431,112.921 96.879,109.432 98.617 C 101.207 102.716,96.123 110.852,96.139 119.893 C 96.151 127.160,98.724 132.490,105.428 139.135 C 108.456 142.135,110.927 144.986,110.919 145.469 C 110.911 145.952,108.591 149.227,105.764 152.747 C 79.313 185.682,64.000 229.328,64.000 271.787 C 64.000 355.018,118.245 429.386,197.459 454.756 C 217.832 461.281,233.705 463.708,256.000 463.708 C 283.798 463.708,306.496 459.094,331.751 448.308 C 376.467 429.211,413.717 391.810,432.691 346.956 C 460.138 282.076,450.124 208.662,406.187 152.631 C 377.972 116.650,334.656 90.964,288.686 82.951 L 280.320 81.493 279.864 73.387 C 279.375 64.681,278.241 61.405,273.891 56.128 C 268.788 49.938,257.920 46.687,249.859 48.940 M264.104 138.493 C 266.186 139.672,268.348 141.912,269.651 144.239 L 271.787 148.053 272.039 187.318 L 272.291 226.582 278.012 229.514 C 281.603 231.355,285.984 234.688,289.777 238.463 C 316.136 264.702,303.376 309.683,267.039 318.622 C 237.319 325.933,208.291 302.800,208.226 271.753 C 208.190 254.460,218.619 237.380,234.024 229.503 L 239.780 226.560 239.788 189.013 C 239.796 150.224,240.047 146.947,243.366 142.278 C 247.416 136.580,257.482 134.743,264.104 138.493 M249.565 257.604 C 242.513 260.807,238.635 268.378,240.491 275.316 C 241.904 280.600,243.686 283.019,248.044 285.573 C 250.700 287.130,253.019 287.770,256.000 287.770 C 260.784 287.770,266.782 284.785,269.098 281.251 C 271.657 277.345,272.646 271.901,271.494 268.059 C 269.464 261.281,262.706 256.037,256.000 256.037 C 254.357 256.037,251.461 256.742,249.565 257.604 " stroke="none" fill-rule="evenodd" fill="black"></path></svg>