<svg xmlns="http://www.w3.org/2000/svg" width="512" height="512" viewBox="0 0 512 512"><path d="M109.316 81.564 C 98.508 84.470,89.051 92.502,83.779 103.253 L 80.640 109.653 80.640 256.000 L 80.640 402.347 83.779 408.747 C 87.942 417.235,94.765 424.058,103.253 428.221 L 109.653 431.360 256.000 431.360 L 402.347 431.360 408.747 428.221 C 417.235 424.058,424.058 417.235,428.221 408.747 L 431.360 402.347 431.360 256.000 L 431.360 109.653 428.221 103.253 C 422.856 92.314,413.448 84.421,402.317 81.521 C 394.945 79.601,116.464 79.642,109.316 81.564 M397.421 114.579 L 399.787 116.945 399.787 256.000 L 399.787 395.055 397.421 397.421 L 395.055 399.787 256.000 399.787 L 116.945 399.787 114.579 397.421 L 112.213 395.055 112.213 256.049 L 112.213 117.044 114.239 114.888 C 115.354 113.701,117.082 112.568,118.079 112.370 C 119.077 112.171,181.805 112.055,257.474 112.111 L 395.055 112.213 397.421 114.579 " stroke="none" fill="black" fill-rule="evenodd"></path></svg>