<svg xmlns="http://www.w3.org/2000/svg" width="512" height="512" viewBox="0 0 512 512"><path d="M232.106 64.640 L 232.105 81.493 221.226 83.440 C 197.778 87.637,173.484 97.104,153.737 109.740 L 147.474 113.748 133.675 99.968 L 119.876 86.188 103.030 103.050 L 86.183 119.912 98.558 132.265 C 105.365 139.059,110.933 144.900,110.933 145.244 C 110.933 145.588,107.544 150.393,103.401 155.922 C 93.705 168.860,89.691 175.382,83.143 188.834 C 50.472 255.957,60.393 337.002,108.305 394.372 C 135.424 426.844,172.198 449.609,212.819 459.071 C 240.197 465.448,271.803 465.448,299.181 459.071 C 358.614 445.228,409.028 402.893,432.691 346.956 C 460.138 282.076,450.124 208.662,406.187 152.631 C 377.972 116.650,334.656 90.964,288.686 82.951 L 280.320 81.493 280.089 64.640 L 279.857 47.787 255.982 47.787 L 232.107 47.787 232.106 64.640 M272.216 181.547 L 272.220 226.560 277.976 229.503 C 281.616 231.364,285.956 234.659,289.777 238.463 C 316.136 264.702,303.376 309.683,267.039 318.622 C 237.319 325.933,208.291 302.800,208.226 271.753 C 208.190 254.460,218.619 237.380,234.024 229.503 L 239.780 226.560 239.784 181.547 L 239.787 136.533 256.000 136.533 L 272.213 136.533 272.216 181.547 " stroke="none" fill-rule="evenodd" fill="black"></path></svg>