<svg xmlns="http://www.w3.org/2000/svg" width="512" height="512" viewBox="0 0 512 512"><path d="M251.133 48.673 C 244.246 50.051,238.610 54.287,235.081 60.737 C 232.928 64.673,232.550 66.392,232.252 73.600 C 231.912 81.831,231.885 81.920,229.759 81.920 C 225.531 81.920,205.905 86.407,196.267 89.577 C 181.370 94.476,162.146 103.675,151.185 111.150 L 147.491 113.669 140.092 106.461 C 130.975 97.580,127.499 96.015,118.205 96.612 C 113.068 96.941,111.010 97.514,107.772 99.516 C 100.185 104.207,96.192 111.603,96.255 120.850 C 96.299 127.423,99.047 132.806,105.759 139.466 L 111.596 145.259 106.214 151.926 C 61.483 207.331,51.523 284.090,80.534 349.835 C 98.306 390.111,131.748 424.927,171.093 444.117 C 198.830 457.645,225.107 463.708,256.000 463.708 C 274.116 463.708,285.545 462.403,301.227 458.545 C 337.188 449.696,367.468 432.264,393.880 405.205 C 455.185 342.396,465.500 245.579,418.892 170.432 C 404.115 146.606,381.574 124.078,357.690 109.264 C 336.315 96.007,313.289 87.205,288.620 82.860 L 280.320 81.399 279.842 73.326 C 279.443 66.588,278.957 64.505,276.899 60.724 C 271.847 51.443,261.494 46.600,251.133 48.673 M267.947 112.669 C 306.264 115.592,341.252 131.545,368.305 158.428 C 393.712 183.676,409.132 214.354,414.348 250.027 C 416.281 263.250,415.633 290.003,413.078 302.457 C 408.197 326.251,397.972 349.135,383.698 368.213 C 377.138 376.981,360.768 393.351,352.000 399.911 C 323.902 420.933,291.215 431.787,256.000 431.787 C 220.785 431.787,188.098 420.933,160.000 399.911 C 151.232 393.351,134.862 376.981,128.302 368.213 C 113.888 348.948,103.677 326.084,98.958 302.507 C 96.298 289.216,95.664 263.680,97.656 250.027 C 100.373 231.396,104.924 216.746,112.971 200.723 C 137.998 150.892,187.910 116.909,242.216 112.727 C 255.418 111.711,255.376 111.711,267.947 112.669 M248.105 138.299 C 246.343 139.229,243.847 141.583,242.558 143.531 L 240.213 147.073 239.968 186.888 L 239.723 226.703 234.426 229.192 C 230.885 230.855,226.969 233.802,222.618 238.080 C 212.480 248.047,208.204 258.177,208.223 272.179 C 208.242 285.458,212.653 296.192,221.897 305.453 C 229.028 312.598,235.061 316.121,244.061 318.397 C 274.707 326.147,303.787 303.453,303.787 271.787 C 303.787 258.174,299.415 247.944,289.382 238.080 C 285.031 233.802,281.115 230.855,277.574 229.192 L 272.277 226.703 272.032 186.888 L 271.787 147.073 269.439 143.527 C 265.025 136.859,255.331 134.484,248.105 138.299 M261.776 257.321 C 268.245 260.024,271.604 264.993,271.604 271.860 C 271.604 287.752,251.445 293.698,242.646 280.401 C 238.671 274.394,239.748 265.472,245.045 260.526 C 249.657 256.220,256.159 254.974,261.776 257.321 " stroke="none" fill-rule="evenodd" fill="black"></path></svg>