<svg xmlns="http://www.w3.org/2000/svg" viewBox="0 0 512 512"><path d="M114.347 33.638 C 92.974 38.418,75.225 51.788,66.113 69.973 C 58.222 85.722,20.364 169.483,18.601 175.094 C 16.953 180.336,16.643 183.175,16.662 192.853 C 16.680 202.612,16.988 205.287,18.675 210.347 C 23.558 224.986,33.698 238.549,45.440 246.145 L 47.787 247.663 47.787 347.831 L 47.787 448.000 38.243 448.000 C 30.261 448.000,28.087 448.296,24.960 449.810 C 18.125 453.119,14.530 462.075,17.015 469.604 C 18.487 474.063,23.666 478.347,28.956 479.481 C 35.216 480.824,476.784 480.824,483.044 479.481 C 488.334 478.347,493.513 474.063,494.985 469.604 C 497.470 462.075,493.875 453.119,487.040 449.810 C 483.913 448.296,481.739 448.000,473.757 448.000 L 464.213 448.000 464.228 347.947 L 464.242 247.893 470.912 242.680 C 481.428 234.461,489.339 222.923,493.373 209.920 C 496.215 200.758,496.234 184.115,493.412 175.136 C 491.658 169.554,453.737 85.645,445.886 69.973 C 439.201 56.628,427.763 45.740,413.425 39.072 C 398.861 32.299,412.937 32.873,257.707 32.723 C 150.685 32.619,117.969 32.828,114.347 33.638 M390.457 64.922 C 401.777 66.983,412.275 74.566,417.134 84.191 C 424.972 99.717,462.717 183.508,463.483 187.083 C 466.145 199.495,458.390 214.459,445.803 221.199 C 429.939 229.692,409.605 226.740,396.610 214.056 C 390.222 207.821,386.880 200.830,385.846 191.540 C 384.783 181.985,382.856 178.643,376.576 175.463 C 373.453 173.882,367.319 173.654,363.789 174.988 C 360.858 176.095,356.955 179.687,355.355 182.750 C 354.703 183.998,353.793 188.330,353.333 192.378 C 352.282 201.630,349.088 207.961,342.118 214.610 C 335.823 220.614,328.423 224.134,319.297 225.464 C 305.921 227.414,293.986 223.650,284.040 214.347 C 276.909 207.676,273.314 200.841,272.286 192.000 C 271.382 184.227,270.578 182.063,267.407 178.867 C 261.033 172.444,250.967 172.444,244.593 178.867 C 241.374 182.111,240.586 184.284,239.747 192.227 C 238.877 200.457,236.076 206.780,230.802 212.418 C 214.265 230.097,186.435 230.571,169.408 213.461 C 163.163 207.187,159.672 200.103,158.611 191.550 C 157.697 184.190,156.599 181.558,153.036 178.188 C 149.900 175.220,146.771 174.080,141.765 174.080 C 133.808 174.080,126.293 181.584,126.293 189.530 C 126.293 208.589,106.522 226.133,85.044 226.133 C 63.008 226.133,44.405 206.255,48.514 187.098 C 49.286 183.497,86.876 100.019,94.742 84.437 C 99.622 74.768,109.931 67.067,120.755 65.003 C 127.015 63.809,383.922 63.732,390.457 64.922 M147.610 236.914 C 155.676 245.163,167.031 251.889,178.493 255.207 C 187.101 257.700,204.396 258.386,213.789 256.608 C 228.011 253.916,240.193 247.651,250.863 237.543 L 256.414 232.283 262.557 238.118 C 270.209 245.387,279.610 250.966,290.133 254.484 C 297.900 257.080,298.831 257.195,312.320 257.237 C 323.243 257.270,327.621 256.943,331.843 255.776 C 345.056 252.126,353.870 247.308,363.207 238.632 L 369.502 232.784 374.831 237.719 C 388.859 250.711,406.242 257.707,424.497 257.707 L 431.787 257.707 431.787 352.853 L 431.787 448.000 424.139 448.000 L 416.491 448.000 416.239 376.533 C 415.987 305.238,415.982 305.053,414.088 299.467 C 410.490 288.851,402.866 280.566,391.928 275.385 L 386.133 272.640 346.996 272.386 C 320.631 272.215,306.368 272.442,303.289 273.081 C 291.893 275.447,281.308 283.978,275.779 295.253 L 272.640 301.653 272.404 374.827 L 272.168 448.000 176.190 448.000 L 80.213 448.000 80.213 352.970 L 80.213 257.941 90.240 257.491 C 108.918 256.653,125.592 249.110,138.627 235.602 C 140.482 233.680,142.210 232.112,142.467 232.119 C 142.723 232.126,145.038 234.284,147.610 236.914 M126.077 273.140 C 113.574 276.086,101.903 287.150,97.913 299.836 C 96.025 305.839,96.000 306.562,96.000 354.133 C 96.000 380.651,96.294 403.396,96.652 404.678 C 97.486 407.657,101.886 412.680,105.300 414.550 C 107.714 415.872,113.685 416.021,173.181 416.239 C 218.309 416.404,239.813 416.188,242.949 415.537 C 248.351 414.415,252.240 411.396,254.396 406.649 C 255.856 403.435,255.964 399.917,255.981 354.968 C 255.998 310.693,255.871 306.271,254.427 301.065 C 250.815 288.036,239.572 276.917,226.594 273.538 C 222.279 272.414,214.514 272.226,175.394 272.299 C 150.031 272.346,127.838 272.725,126.077 273.140 M218.839 304.994 C 220.429 305.659,222.144 306.977,222.651 307.925 C 223.271 309.083,223.573 321.825,223.573 346.824 L 223.573 384.000 175.787 384.000 L 128.000 384.000 128.000 347.347 C 128.000 321.862,128.295 310.047,128.967 308.572 C 131.098 303.894,131.749 303.827,175.601 303.806 C 208.495 303.790,216.482 304.010,218.839 304.994 M379.273 305.108 C 380.804 305.834,382.494 307.388,383.028 308.561 C 383.729 310.099,384.000 329.826,384.000 379.347 L 384.000 448.000 343.874 448.000 L 303.748 448.000 303.981 378.522 L 304.213 309.044 306.239 306.887 C 307.354 305.701,309.082 304.571,310.079 304.375 C 311.077 304.179,326.427 303.967,344.191 303.903 C 371.747 303.804,376.897 303.981,379.273 305.108 " fill="black" stroke="none" fill-rule="evenodd"></path></svg>