<svg xmlns="http://www.w3.org/2000/svg" viewBox="0 0 512 512"><path d="M111.360 33.821 C 104.613 35.256,94.372 39.439,87.259 43.665 C 80.458 47.705,70.062 58.241,65.931 65.280 C 61.841 72.249,19.507 169.162,17.426 176.319 C 15.561 182.733,16.125 193.841,18.698 201.387 C 24.086 217.188,40.428 231.941,59.868 238.552 C 84.649 246.981,113.591 241.063,133.880 223.418 C 139.092 218.886,143.003 218.885,148.425 223.413 C 157.657 231.123,166.710 236.030,178.094 239.497 C 184.795 241.538,187.019 241.789,198.827 241.841 C 210.132 241.891,213.045 241.618,218.880 239.958 C 228.218 237.303,239.875 231.395,247.019 225.697 C 256.116 218.442,257.616 218.444,266.688 225.731 C 273.726 231.385,285.317 237.239,294.827 239.944 C 304.704 242.754,324.218 242.757,333.990 239.952 C 345.741 236.578,354.099 232.133,366.420 222.706 C 370.461 219.614,372.613 219.516,376.407 222.248 C 398.839 238.402,412.061 243.064,432.640 242.075 C 444.714 241.495,450.264 240.051,461.227 234.636 C 473.883 228.384,486.251 216.886,491.025 206.933 C 495.678 197.234,497.074 184.699,494.477 175.953 C 492.945 170.795,449.556 70.967,446.931 66.560 C 440.235 55.322,428.840 45.165,416.425 39.369 C 401.257 32.287,416.244 32.916,258.133 32.723 C 136.238 32.574,116.531 32.721,111.360 33.821 M133.973 262.850 C 111.897 274.347,84.741 277.472,60.444 271.312 C 52.168 269.214,49.790 269.212,48.670 271.304 C 48.078 272.411,47.787 301.459,47.787 359.453 C 47.787 425.592,47.546 446.193,46.763 446.976 C 46.108 447.630,42.780 448.000,37.544 448.000 C 30.519 448.000,28.745 448.303,25.128 450.119 C 22.748 451.313,20.013 453.558,18.859 455.265 C 16.426 458.861,15.597 465.308,17.015 469.604 C 18.517 474.155,23.693 478.381,29.143 479.507 C 32.424 480.186,96.892 480.387,258.560 480.225 L 483.413 480.000 486.991 478.088 C 488.958 477.036,491.646 474.762,492.964 473.034 C 495.035 470.319,495.360 469.122,495.360 464.217 C 495.360 459.488,494.978 457.965,493.070 455.081 C 489.511 449.704,485.110 448.000,474.781 448.000 C 469.292 448.000,465.897 447.636,465.237 446.976 C 464.454 446.193,464.213 425.523,464.213 359.144 C 464.213 281.365,464.074 272.196,462.872 270.994 C 461.160 269.282,460.051 269.320,452.267 271.359 C 443.493 273.657,428.489 275.066,420.267 274.366 C 405.579 273.114,390.285 268.990,378.688 263.154 C 375.532 261.566,371.841 260.267,370.487 260.267 C 369.133 260.267,364.804 261.747,360.866 263.556 C 344.032 271.292,331.514 274.141,314.027 274.218 C 295.977 274.297,282.421 271.231,266.299 263.422 C 262.242 261.456,257.964 259.976,256.486 260.026 C 255.045 260.075,250.795 261.640,247.040 263.504 C 232.243 270.850,217.991 274.132,200.533 274.214 C 182.386 274.299,169.090 271.282,151.992 263.199 C 147.588 261.117,143.172 259.437,142.179 259.465 C 141.186 259.494,137.493 261.017,133.973 262.850 M215.183 304.665 C 216.939 305.153,219.468 306.850,220.943 308.530 L 223.573 311.526 223.573 346.739 C 223.573 372.989,223.313 382.213,222.549 382.976 C 221.779 383.747,210.294 384.000,176.104 384.000 C 135.949 384.000,130.526 383.845,129.341 382.659 C 128.167 381.485,128.000 377.119,128.000 347.645 C 128.000 320.865,128.242 313.392,129.183 311.139 C 130.399 308.230,133.938 305.169,136.960 304.412 C 140.371 303.558,212.032 303.790,215.183 304.665 M378.763 306.260 C 384.192 310.132,384.000 307.447,384.000 379.645 C 384.000 438.210,383.855 445.463,382.659 446.659 C 381.481 447.837,376.798 448.000,344.113 448.000 C 310.691 448.000,306.749 447.856,305.347 446.588 C 303.862 445.243,303.787 442.081,303.791 380.668 C 303.794 339.479,304.111 315.028,304.666 313.028 C 305.862 308.723,307.876 306.501,311.893 305.051 C 314.668 304.051,320.977 303.857,345.600 304.017 L 375.893 304.213 378.763 306.260 " stroke="none" fill-rule="evenodd" fill="black"></path></svg>