<svg xmlns="http://www.w3.org/2000/svg" viewBox="0 0 512 512"><path d="M88.188 33.406 C 83.453 34.469,77.750 39.621,74.461 45.806 C 70.364 53.512,19.101 170.641,17.571 175.790 C 14.933 184.675,16.280 197.083,20.952 206.933 C 25.398 216.309,37.037 227.536,48.857 233.853 C 72.603 246.544,103.173 244.753,126.293 229.316 C 128.405 227.906,132.495 224.453,135.382 221.644 L 140.631 216.537 146.902 221.991 C 154.956 228.996,157.106 230.490,164.383 234.142 C 188.907 246.450,219.304 244.618,241.833 229.475 C 245.166 227.235,249.776 223.477,252.077 221.126 L 256.261 216.850 261.891 221.786 C 272.124 230.759,280.868 235.697,293.294 239.521 C 300.144 241.630,301.993 241.830,314.453 241.810 C 326.846 241.790,328.812 241.573,335.745 239.461 C 339.945 238.182,346.463 235.532,350.229 233.573 C 357.419 229.832,368.893 221.170,370.408 218.339 C 371.228 216.807,371.776 217.120,377.397 222.324 C 392.494 236.302,411.485 243.092,432.640 242.075 C 444.719 241.495,450.269 240.050,461.227 234.632 C 474.234 228.200,487.373 215.754,491.624 205.837 C 495.981 195.672,496.971 183.950,494.210 175.223 C 492.411 169.538,441.532 53.372,437.527 45.806 C 434.022 39.184,428.641 34.515,423.159 33.339 C 417.688 32.166,93.423 32.230,88.188 33.406 M134.827 262.420 C 126.249 266.854,114.695 270.893,105.806 272.567 C 87.142 276.080,72.111 274.915,49.280 268.188 C 47.864 267.771,47.787 272.441,47.787 357.874 L 47.787 448.000 32.000 448.000 L 16.213 448.000 16.213 464.213 L 16.213 480.427 256.000 480.427 L 495.787 480.427 495.787 464.213 L 495.787 448.000 480.000 448.000 L 464.213 448.000 464.213 357.882 C 464.213 272.402,464.136 267.794,462.720 268.348 C 457.738 270.298,444.537 273.134,436.515 273.978 C 416.870 276.046,394.284 271.542,376.685 262.049 L 370.389 258.653 363.052 262.397 C 347.338 270.416,331.928 274.130,314.027 274.214 C 295.573 274.301,278.056 270.067,263.053 261.893 L 256.879 258.530 249.140 262.417 C 240.338 266.837,229.699 270.561,219.733 272.710 C 209.263 274.968,188.988 274.750,177.920 272.262 C 168.037 270.039,156.289 265.702,148.768 261.499 C 145.876 259.883,143.188 258.585,142.795 258.616 C 142.402 258.646,138.816 260.358,134.827 262.420 M221.923 304.670 C 223.518 305.524,223.573 306.871,223.573 344.777 L 223.573 384.000 175.787 384.000 L 128.000 384.000 128.000 345.454 C 128.000 310.784,128.142 306.751,129.412 305.347 C 130.746 303.873,133.304 303.787,175.548 303.787 C 204.746 303.787,220.845 304.093,221.923 304.670 M382.439 305.199 C 383.927 306.545,384.000 309.902,384.000 377.306 L 384.000 448.000 343.893 448.000 L 303.787 448.000 303.787 377.600 C 303.787 308.338,303.814 307.172,305.493 305.493 C 307.147 303.839,308.338 303.787,344.039 303.787 C 377.121 303.787,381.038 303.931,382.439 305.199 " stroke="none" fill-rule="evenodd" fill="black"></path></svg>