<svg xmlns="http://www.w3.org/2000/svg" width="512" height="512" viewBox="0 0 512 512"><path d="M146.347 17.468 C 127.908 21.569,111.285 34.486,102.907 51.222 C 95.482 66.054,96.000 54.287,96.000 208.213 C 96.000 352.841,95.842 346.877,99.976 358.400 C 106.551 376.724,123.372 392.147,142.972 397.821 L 149.760 399.787 256.000 399.787 L 362.240 399.787 369.028 397.821 C 390.494 391.606,406.820 375.449,413.604 353.707 L 416.000 346.027 416.000 209.067 C 416.000 53.946,416.542 66.116,408.955 50.934 C 405.709 44.437,403.710 41.777,397.292 35.413 C 388.630 26.825,381.740 22.409,371.627 18.965 L 364.800 16.640 258.133 16.485 C 171.881 16.359,150.487 16.547,146.347 17.468 M356.513 48.597 C 369.563 50.484,379.874 59.810,382.839 72.408 C 383.598 75.633,383.978 83.394,383.987 95.879 L 384.000 114.532 381.653 113.923 C 374.655 112.106,358.740 111.843,256.000 111.843 C 153.260 111.843,137.345 112.106,130.347 113.923 L 128.000 114.532 128.013 95.879 C 128.028 75.545,128.780 70.175,132.501 63.825 C 137.069 56.030,146.012 49.919,154.714 48.648 C 161.102 47.714,350.078 47.666,356.513 48.597 M203.520 64.712 C 187.757 69.956,188.657 92.032,204.775 95.488 C 210.800 96.780,301.200 96.780,307.225 95.488 C 315.414 93.732,320.720 86.338,319.779 77.993 C 319.281 73.575,317.568 70.874,312.826 67.036 L 309.603 64.427 257.415 64.286 C 228.711 64.208,204.459 64.400,203.520 64.712 M375.254 146.023 C 377.503 147.112,379.905 149.211,381.283 151.292 L 383.573 154.750 383.845 174.015 C 384.018 186.288,383.778 194.427,383.182 196.442 C 381.920 200.714,378.394 204.714,374.222 206.609 C 370.931 208.104,365.529 208.176,256.000 208.176 C 146.471 208.176,141.069 208.104,137.778 206.609 C 133.606 204.714,130.080 200.714,128.818 196.442 C 128.222 194.427,127.982 186.288,128.155 174.015 C 128.426 154.774,128.430 154.745,130.704 151.312 C 132.035 149.302,134.516 147.114,136.677 146.044 L 140.373 144.215 255.944 144.214 L 371.514 144.213 375.254 146.023 M256.000 239.787 C 353.843 239.787,375.896 239.579,379.583 238.622 L 384.072 237.458 383.823 290.462 L 383.573 343.467 380.944 349.016 C 377.711 355.837,371.502 362.214,365.229 365.157 L 360.533 367.360 256.000 367.360 L 151.467 367.360 146.771 365.157 C 140.498 362.214,134.289 355.837,131.056 349.016 L 128.427 343.467 128.177 290.462 L 127.928 237.458 132.417 238.622 C 136.104 239.579,158.157 239.787,256.000 239.787 M166.480 289.377 C 162.264 290.645,155.326 295.308,151.980 299.122 C 150.384 300.941,148.080 304.558,146.860 307.161 C 144.957 311.218,144.640 313.051,144.640 320.000 C 144.640 327.010,144.949 328.767,146.927 332.986 C 156.440 353.283,182.657 358.221,198.229 342.650 C 211.125 329.753,211.125 310.247,198.229 297.350 C 192.100 291.221,186.462 288.913,177.067 288.688 C 172.843 288.586,168.079 288.896,166.480 289.377 M324.133 290.404 C 313.633 294.829,306.859 303.255,304.610 314.688 C 301.266 331.685,314.054 349.134,331.601 351.515 C 345.378 353.385,358.364 346.417,364.561 333.829 C 367.131 328.607,367.360 327.478,367.360 320.000 C 367.360 312.522,367.131 311.393,364.561 306.171 C 361.412 299.776,355.929 294.309,349.365 291.020 C 345.980 289.323,343.613 288.866,337.067 288.644 C 330.061 288.407,328.304 288.646,324.133 290.404 M167.253 418.875 C 165.141 420.296,152.586 432.327,139.353 445.610 C 114.708 470.348,111.824 473.950,111.824 480.000 C 111.824 485.532,116.992 492.875,122.296 494.879 C 125.642 496.143,130.931 496.011,134.363 494.577 C 135.955 493.912,140.306 490.456,144.030 486.897 L 150.803 480.427 256.000 480.427 L 361.197 480.427 367.970 486.897 C 371.694 490.456,376.045 493.912,377.637 494.577 C 381.069 496.011,386.358 496.143,389.704 494.879 C 395.008 492.875,400.176 485.532,400.176 480.000 C 400.176 473.988,397.266 470.354,372.647 445.620 C 359.414 432.325,346.859 420.287,344.747 418.869 C 341.262 416.530,340.385 416.319,335.266 416.593 C 328.499 416.956,324.159 419.724,321.633 425.288 C 318.607 431.950,319.638 437.304,325.225 443.947 L 328.635 448.000 256.000 448.000 L 183.365 448.000 186.775 443.947 C 192.362 437.304,193.393 431.950,190.367 425.288 C 187.841 419.724,183.501 416.956,176.734 416.593 C 171.612 416.319,170.741 416.528,167.253 418.875 " stroke="none" fill="black" fill-rule="evenodd"></path></svg>