<svg xmlns="http://www.w3.org/2000/svg" width="512" height="512" viewBox="0 0 512 512"><path d="M146.347 17.605 C 143.061 18.294,136.363 20.802,131.462 23.178 C 123.723 26.929,121.589 28.468,115.248 34.869 C 103.530 46.698,98.182 58.059,96.373 74.965 C 95.793 80.384,95.591 127.988,95.780 214.187 C 96.105 361.635,95.514 349.050,102.807 363.947 C 111.223 381.138,124.724 392.293,143.798 397.814 L 150.613 399.787 256.000 399.787 L 361.387 399.787 368.202 397.814 C 387.100 392.344,400.913 380.934,409.204 363.947 C 416.485 349.030,415.895 361.614,416.220 214.187 C 416.409 127.988,416.207 80.384,415.627 74.965 C 413.818 58.059,408.470 46.698,396.752 34.869 C 390.407 28.464,388.282 26.932,380.538 23.183 C 365.310 15.809,372.479 16.204,255.396 16.283 C 168.256 16.342,151.396 16.546,146.347 17.605 M310.187 65.613 C 324.418 72.181,322.427 91.992,307.183 95.504 C 302.005 96.697,209.995 96.697,204.817 95.504 C 189.573 91.992,187.582 72.181,201.813 65.613 C 205.011 64.137,208.439 64.037,256.000 64.037 C 303.561 64.037,306.989 64.137,310.187 65.613 M375.254 146.023 C 377.503 147.112,379.905 149.211,381.283 151.292 L 383.573 154.750 383.845 174.015 C 384.018 186.288,383.778 194.427,383.182 196.442 C 381.920 200.714,378.394 204.714,374.222 206.609 C 370.931 208.104,365.529 208.176,256.000 208.176 C 146.471 208.176,141.069 208.104,137.778 206.609 C 133.606 204.714,130.080 200.714,128.818 196.442 C 128.222 194.427,127.982 186.288,128.155 174.015 C 128.426 154.774,128.430 154.745,130.704 151.312 C 132.035 149.302,134.516 147.114,136.677 146.044 L 140.373 144.215 255.944 144.214 L 371.514 144.213 375.254 146.023 M189.820 291.344 C 209.639 301.075,213.936 327.122,198.302 342.756 C 190.954 350.104,180.001 353.328,169.688 351.178 C 159.466 349.046,151.448 342.630,146.910 332.949 C 144.951 328.771,144.640 326.995,144.640 320.000 C 144.640 313.024,144.954 311.224,146.889 307.098 C 150.732 298.902,157.430 292.845,166.267 289.576 C 168.242 288.846,172.205 288.501,177.067 288.638 C 183.562 288.820,185.529 289.238,189.820 291.344 M350.508 291.780 C 356.972 295.245,362.046 300.559,365.090 307.051 C 367.049 311.229,367.360 313.005,367.360 320.000 C 367.360 326.995,367.049 328.771,365.090 332.949 C 357.285 349.599,338.853 356.351,322.119 348.690 C 309.750 343.027,302.202 328.327,304.670 314.713 C 306.796 302.991,313.755 294.546,325.041 289.991 C 328.113 288.752,330.712 288.465,337.067 288.665 C 344.376 288.896,345.698 289.202,350.508 291.780 M168.960 417.777 C 164.746 419.589,114.843 469.644,113.105 473.802 C 108.188 485.571,118.482 498.595,130.556 495.883 C 134.993 494.886,138.996 492.119,145.467 485.576 L 150.560 480.427 255.858 480.427 L 361.156 480.427 368.342 487.229 C 376.196 494.663,379.922 496.379,386.097 495.403 C 396.383 493.779,402.189 482.875,398.047 472.962 C 396.639 469.592,351.274 423.345,345.348 419.239 C 338.691 414.625,329.355 416.002,323.980 422.389 C 321.782 425.002,319.997 429.818,320.023 433.067 C 320.045 435.706,322.897 441.379,325.949 444.856 L 328.710 448.000 256.000 448.000 L 183.290 448.000 185.922 445.002 C 190.965 439.259,192.651 433.959,191.176 428.484 C 188.642 419.070,177.945 413.915,168.960 417.777 " stroke="none" fill-rule="evenodd" fill="black"></path></svg>