<svg xmlns="http://www.w3.org/2000/svg" width="512" height="512" viewBox="0 0 512 512"><path d="M109.397 18.823 C 103.623 21.708,100.475 24.934,97.785 30.720 L 96.000 34.560 96.000 207.787 L 96.000 381.013 98.017 385.474 C 100.258 390.431,105.693 395.926,110.662 398.258 C 113.753 399.708,121.209 399.787,256.000 399.787 C 390.791 399.787,398.247 399.708,401.338 398.258 C 406.307 395.926,411.742 390.431,413.983 385.474 L 416.000 381.013 416.000 207.787 C 416.000 45.175,415.909 34.359,414.519 31.285 C 411.951 25.608,408.082 21.561,402.606 18.824 L 397.381 16.213 256.000 16.213 L 114.619 16.213 109.397 18.823 M310.222 65.604 C 322.469 71.167,322.950 87.997,311.040 94.217 C 307.688 95.968,306.702 96.000,256.000 96.000 L 204.373 96.000 200.394 93.661 C 188.924 86.918,189.705 71.088,201.778 65.604 C 205.000 64.140,208.562 64.037,256.000 64.037 C 303.438 64.037,307.000 64.140,310.222 65.604 M384.000 176.213 L 384.000 208.213 256.000 208.213 L 128.000 208.213 128.000 176.213 L 128.000 144.213 256.000 144.213 L 384.000 144.213 384.000 176.213 M189.820 291.344 C 209.639 301.075,213.936 327.122,198.302 342.756 C 183.054 358.004,157.098 353.449,147.439 333.829 C 144.870 328.610,144.640 327.475,144.640 320.018 C 144.640 313.023,144.953 311.227,146.889 307.098 C 150.732 298.902,157.430 292.845,166.267 289.576 C 168.242 288.846,172.205 288.501,177.067 288.638 C 183.562 288.820,185.529 289.238,189.820 291.344 M350.508 291.780 C 356.972 295.245,362.046 300.559,365.090 307.051 C 367.049 311.229,367.360 313.005,367.360 320.000 C 367.360 327.010,367.051 328.767,365.073 332.986 C 351.652 361.622,310.302 356.346,304.669 325.280 C 302.540 313.539,307.718 300.795,317.295 294.206 C 324.192 289.461,328.046 288.381,337.067 288.665 C 344.376 288.896,345.698 289.202,350.508 291.780 M129.707 456.107 L 90.034 495.787 112.661 495.787 L 135.289 495.787 142.933 488.107 L 150.578 480.427 256.000 480.427 L 361.422 480.427 369.067 488.107 L 376.711 495.787 399.765 495.787 L 422.820 495.787 383.147 456.107 L 343.474 416.427 320.866 416.427 L 298.258 416.427 313.396 431.582 C 321.721 439.917,328.533 447.021,328.533 447.369 C 328.533 447.716,295.893 448.000,256.000 448.000 C 216.107 448.000,183.467 447.716,183.467 447.369 C 183.467 447.021,190.279 439.917,198.604 431.582 L 213.742 416.427 191.561 416.427 L 169.380 416.427 129.707 456.107 " stroke="none" fill-rule="evenodd" fill="black"></path></svg>