<svg xmlns="http://www.w3.org/2000/svg" width="512" height="512" viewBox="0 0 512 512"><path d="M247.743 34.579 C 245.783 35.754,243.287 38.150,242.196 39.904 C 240.248 43.038,240.209 43.560,239.942 69.973 C 239.645 99.405,239.878 101.354,244.292 106.381 C 250.726 113.709,261.274 113.709,267.708 106.381 C 272.122 101.354,272.355 99.405,272.058 69.973 C 271.791 43.515,271.755 43.043,269.792 39.886 C 265.287 32.639,255.078 30.182,247.743 34.579 M101.690 94.844 C 94.921 98.195,91.494 106.604,93.870 114.032 C 95.241 118.315,130.886 154.654,136.107 157.090 C 148.685 162.959,162.114 150.990,157.863 137.701 C 156.493 133.418,120.847 97.079,115.627 94.643 C 111.105 92.534,106.216 92.604,101.690 94.844 M396.373 94.650 C 391.714 96.834,356.367 132.423,354.591 136.719 C 352.283 142.305,353.442 149.484,357.366 153.903 C 359.557 156.370,365.217 158.683,369.067 158.683 C 375.386 158.683,378.542 156.269,398.190 136.415 C 418.483 115.909,419.591 114.324,418.763 106.977 C 417.568 96.375,406.131 90.078,396.373 94.650 M240.571 161.237 C 209.422 166.925,183.694 186.016,170.071 213.550 C 163.335 227.166,160.269 240.445,160.269 256.000 C 160.269 303.175,193.577 342.445,240.640 350.755 C 248.297 352.107,265.348 351.925,273.141 350.409 C 312.857 342.680,342.680 312.857,350.409 273.141 C 351.925 265.348,352.107 248.297,350.755 240.640 C 347.643 223.019,339.742 206.172,328.638 193.483 C 315.817 178.832,299.547 168.606,280.717 163.363 C 273.825 161.445,270.574 161.071,258.560 160.819 C 250.816 160.656,242.721 160.844,240.571 161.237 M274.357 194.747 C 294.477 200.631,311.117 217.238,317.338 237.643 C 319.108 243.448,319.422 246.219,319.422 256.000 C 319.422 265.781,319.108 268.552,317.338 274.357 C 311.086 294.864,294.805 311.067,273.920 317.569 C 264.661 320.451,247.339 320.451,238.080 317.569 C 217.195 311.067,200.914 294.864,194.662 274.357 C 192.892 268.552,192.578 265.781,192.578 256.000 C 192.578 246.219,192.892 243.448,194.662 237.643 C 201.722 214.485,221.243 197.222,245.303 192.861 C 252.416 191.572,266.661 192.496,274.357 194.747 M44.447 240.381 C 40.661 241.143,35.904 244.849,34.052 248.479 C 30.251 255.930,32.848 265.416,39.886 269.792 C 43.043 271.755,43.515 271.791,69.973 272.058 C 99.405 272.355,101.354 272.122,106.381 267.708 C 113.172 261.746,113.747 251.884,107.679 245.470 C 102.707 240.215,102.768 240.225,73.387 240.090 C 58.603 240.021,45.580 240.152,44.447 240.381 M414.293 240.183 C 413.824 240.352,412.391 240.722,411.109 241.004 C 407.982 241.693,402.789 246.366,401.366 249.773 C 398.750 256.034,400.440 263.161,405.619 267.708 C 410.646 272.122,412.595 272.355,442.027 272.058 C 468.485 271.791,468.957 271.755,472.114 269.792 C 482.362 263.421,482.169 248.294,471.764 242.337 L 468.053 240.213 441.600 240.044 C 427.051 239.951,414.763 240.014,414.293 240.183 M136.107 354.862 C 134.001 355.874,125.458 363.814,113.810 375.585 C 93.517 396.091,92.409 397.676,93.237 405.023 C 94.432 415.625,105.869 421.922,115.627 417.350 C 120.286 415.166,155.633 379.577,157.409 375.281 C 161.621 365.089,154.941 354.296,143.949 353.530 C 140.823 353.313,138.516 353.704,136.107 354.862 M363.644 354.193 C 355.076 357.625,351.111 366.861,354.591 375.281 C 356.367 379.577,391.714 415.166,396.373 417.350 C 408.937 423.237,422.382 411.259,418.130 397.968 C 416.759 393.685,381.114 357.346,375.893 354.910 C 372.231 353.201,366.900 352.889,363.644 354.193 M249.600 401.408 C 245.934 403.024,242.644 406.632,241.064 410.769 C 239.891 413.840,239.733 418.233,239.955 441.628 C 240.210 468.516,240.242 468.953,242.208 472.114 C 245.002 476.609,250.697 479.770,256.000 479.770 C 261.303 479.770,266.998 476.609,269.792 472.114 C 271.755 468.957,271.791 468.485,272.058 442.027 C 272.240 424.008,272.016 414.087,271.380 411.933 C 270.186 407.895,265.838 402.875,262.227 401.366 C 258.758 399.917,252.941 399.936,249.600 401.408 " stroke="none" fill="black" fill-rule="evenodd"></path></svg>