<svg xmlns="http://www.w3.org/2000/svg" width="512" height="512" viewBox="0 0 512 512"><path d="M233.813 72.107 L 233.813 117.760 256.000 117.760 L 278.187 117.760 278.187 72.107 L 278.187 26.453 256.000 26.453 L 233.813 26.453 233.813 72.107 M92.793 93.660 L 77.658 108.813 110.302 141.449 L 142.946 174.085 158.511 158.503 L 174.076 142.921 141.860 110.714 C 124.142 93.000,109.259 78.507,108.787 78.507 C 108.315 78.507,101.118 85.326,92.793 93.660 M370.127 110.726 L 337.916 142.946 353.497 158.511 L 369.079 174.076 401.715 141.431 L 434.351 108.787 419.194 93.647 C 410.857 85.320,403.654 78.507,403.187 78.507 C 402.720 78.507,387.843 93.006,370.127 110.726 M237.509 155.717 C 207.263 161.205,179.711 181.657,165.638 209.067 C 157.652 224.620,154.169 238.875,154.169 256.000 C 154.169 293.909,175.225 328.829,208.505 346.110 C 223.925 354.117,239.049 357.845,256.000 357.816 C 284.517 357.768,309.902 346.793,329.829 325.895 C 348.199 306.629,357.771 282.725,357.816 256.000 C 357.845 239.049,354.117 223.925,346.110 208.505 C 331.987 181.306,304.281 161.015,274.022 155.708 C 265.290 154.176,245.974 154.181,237.509 155.717 M25.984 234.896 C 25.756 235.492,25.672 245.380,25.798 256.869 L 26.027 277.760 71.893 277.981 L 117.760 278.201 117.760 256.007 L 117.760 233.813 72.080 233.813 C 35.960 233.813,26.313 234.040,25.984 234.896 M394.240 256.000 L 394.240 278.201 440.107 277.981 L 485.973 277.760 485.973 256.000 L 485.973 234.240 440.107 234.019 L 394.240 233.799 394.240 256.000 M110.285 370.569 L 77.649 403.213 93.231 418.778 L 108.813 434.342 141.449 401.698 L 174.085 369.054 158.503 353.489 L 142.921 337.924 110.285 370.569 M353.489 353.497 L 337.924 369.079 370.569 401.715 L 403.213 434.351 418.778 418.769 L 434.342 403.187 401.698 370.551 L 369.054 337.915 353.489 353.497 M234.019 440.107 L 234.240 485.973 256.000 485.973 L 277.760 485.973 277.981 440.107 L 278.201 394.240 256.000 394.240 L 233.799 394.240 234.019 440.107 " stroke="none" fill-rule="evenodd" fill="black"></path></svg>