<svg xmlns="http://www.w3.org/2000/svg" width="512" height="512" viewBox="0 0 512 512"><path d="M245.644 28.831 C 240.567 31.469,236.187 37.020,234.635 42.783 C 234.054 44.942,233.819 56.199,233.984 74.064 C 234.231 100.963,234.308 102.101,236.124 105.496 C 243.053 118.449,259.497 121.777,270.166 112.386 C 277.749 105.711,277.725 105.830,278.016 74.064 C 278.181 56.199,277.946 44.942,277.365 42.783 C 275.813 37.020,271.433 31.469,266.356 28.831 C 262.666 26.914,260.658 26.453,256.000 26.453 C 251.342 26.453,249.334 26.914,245.644 28.831 M102.322 88.366 C 96.570 90.138,90.929 95.482,88.798 101.180 C 86.673 106.857,86.579 110.957,88.445 116.541 C 89.661 120.181,92.499 123.418,109.544 140.606 C 123.731 154.912,130.425 161.057,133.480 162.580 C 144.730 168.186,159.456 162.100,163.404 150.214 C 165.395 144.222,164.779 136.994,161.857 132.053 C 160.678 130.059,150.946 119.731,140.230 109.103 C 122.151 91.171,120.413 89.680,116.112 88.409 C 110.560 86.769,107.537 86.759,102.322 88.366 M395.520 88.463 C 391.719 89.626,389.125 91.879,371.770 109.097 C 361.054 119.728,351.322 130.059,350.143 132.053 C 348.791 134.338,347.830 137.530,347.545 140.682 C 346.322 154.167,356.123 164.693,369.904 164.693 C 377.730 164.693,380.882 162.361,402.456 140.606 C 419.501 123.418,422.339 120.181,423.555 116.541 C 425.421 110.957,425.327 106.857,423.202 101.180 C 421.001 95.296,415.425 90.129,409.320 88.316 C 404.037 86.747,401.029 86.779,395.520 88.463 M237.509 155.717 C 207.263 161.205,179.711 181.657,165.638 209.067 C 157.652 224.620,154.169 238.875,154.169 256.000 C 154.169 293.909,175.225 328.829,208.505 346.110 C 223.925 354.117,239.049 357.845,256.000 357.816 C 284.517 357.768,309.902 346.793,329.829 325.895 C 348.199 306.629,357.771 282.725,357.816 256.000 C 357.845 239.049,354.117 223.925,346.110 208.505 C 331.987 181.306,304.281 161.015,274.022 155.708 C 265.290 154.176,245.974 154.181,237.509 155.717 M42.950 234.632 C 38.110 235.785,32.393 239.780,29.853 243.785 C 22.776 254.945,26.163 268.745,37.547 275.128 L 42.240 277.760 72.107 277.760 C 101.280 277.760,102.055 277.716,105.496 275.876 C 110.070 273.429,115.486 267.232,116.756 262.991 C 119.260 254.636,117.436 247.154,111.378 240.934 C 104.723 234.100,103.011 233.796,71.738 233.901 C 57.392 233.949,44.437 234.278,42.950 234.632 M408.747 235.454 C 403.114 237.421,396.834 243.699,395.267 248.929 C 393.965 253.274,393.956 258.695,395.244 262.991 C 396.514 267.232,401.930 273.429,406.504 275.876 C 409.945 277.716,410.720 277.760,439.893 277.760 L 469.760 277.760 474.453 275.128 C 480.046 271.992,484.135 266.478,485.464 260.281 C 487.411 251.204,482.896 241.606,474.453 236.872 L 469.760 234.240 441.600 234.028 C 415.700 233.832,413.063 233.947,408.747 235.454 M133.973 349.082 C 129.400 351.151,93.306 386.547,89.882 392.320 C 86.984 397.206,86.338 404.485,88.281 410.337 C 92.431 422.829,108.387 428.816,119.680 422.118 C 121.675 420.935,131.830 411.394,142.248 400.917 C 162.639 380.409,164.762 377.466,164.823 369.628 C 164.893 360.574,160.245 353.001,152.367 349.332 C 146.790 346.735,139.382 346.634,133.973 349.082 M363.514 348.104 C 351.315 351.815,344.671 364.423,348.596 376.417 C 349.955 380.569,351.964 382.895,369.397 400.497 C 380.010 411.212,390.325 420.945,392.320 422.124 C 403.627 428.811,419.571 422.825,423.719 410.337 C 425.660 404.493,425.015 397.209,422.124 392.320 C 420.945 390.325,411.212 379.998,400.497 369.369 C 382.417 351.438,380.679 349.947,376.378 348.676 C 371.475 347.227,367.044 347.030,363.514 348.104 M247.467 396.014 C 242.766 398.139,238.537 402.077,236.085 406.613 C 234.294 409.927,234.240 410.900,234.240 439.893 L 234.240 469.760 236.872 474.453 C 245.381 489.627,266.619 489.627,275.128 474.453 L 277.760 469.760 277.760 439.893 C 277.760 410.900,277.706 409.927,275.915 406.613 C 271.830 399.057,264.114 394.277,256.000 394.277 C 253.107 394.277,249.834 394.944,247.467 396.014 " stroke="none" fill-rule="evenodd" fill="black"></path></svg>