<svg xmlns="http://www.w3.org/2000/svg" width="512" height="512" viewBox="0 0 512 512"><path d="M152.579 81.955 C 150.844 82.871,148.348 85.032,147.032 86.757 L 144.640 89.894 144.419 233.728 L 144.199 377.563 100.473 333.893 C 76.423 309.875,55.666 289.819,54.344 289.325 C 50.903 288.038,43.840 288.217,41.044 289.663 C 37.802 291.340,33.418 296.472,32.794 299.322 C 32.514 300.604,32.158 302.076,32.005 302.592 C 31.851 303.108,32.111 305.412,32.583 307.712 C 33.420 311.791,34.860 313.316,91.600 370.193 C 123.947 402.617,151.165 429.223,152.926 430.139 C 156.995 432.257,163.005 432.257,167.074 430.139 C 168.835 429.223,196.053 402.617,228.400 370.193 C 285.140 313.316,286.580 311.791,287.417 307.712 C 287.889 305.412,288.149 303.108,287.995 302.592 C 287.842 302.076,287.486 300.604,287.206 299.322 C 286.582 296.472,282.198 291.340,278.956 289.663 C 276.160 288.217,269.097 288.038,265.656 289.325 C 264.334 289.819,243.573 309.878,219.520 333.901 L 175.787 377.578 175.787 234.835 C 175.787 96.449,175.737 91.995,174.171 88.926 C 173.282 87.185,171.842 85.134,170.971 84.370 C 165.998 80.005,158.208 78.982,152.579 81.955 M344.747 81.900 C 343.104 82.786,315.588 109.745,283.600 141.809 C 227.330 198.213,225.413 200.239,224.604 204.191 C 223.755 208.333,224.236 212.347,225.967 215.583 C 227.436 218.328,232.725 222.637,235.322 223.206 C 236.604 223.486,238.076 223.842,238.592 223.995 C 239.108 224.149,241.412 223.888,243.712 223.415 C 247.771 222.581,249.185 221.268,292.053 178.489 L 336.213 134.422 336.213 277.358 C 336.213 414.947,336.273 420.404,337.796 423.245 C 342.774 432.526,354.972 434.651,362.971 427.630 C 363.842 426.866,365.282 424.815,366.171 423.074 C 367.737 420.005,367.787 415.551,367.787 277.165 L 367.787 134.422 411.947 178.489 C 454.458 220.911,456.259 222.588,460.191 223.395 C 464.333 224.245,468.346 223.765,471.583 222.033 C 474.328 220.564,478.637 215.275,479.206 212.678 C 479.486 211.396,479.842 209.924,479.995 209.408 C 480.149 208.892,479.889 206.588,479.417 204.288 C 478.580 200.209,477.140 198.684,420.400 141.807 C 388.053 109.383,360.835 82.777,359.074 81.861 C 355.029 79.756,348.688 79.774,344.747 81.900 " stroke="none" fill="black" fill-rule="evenodd"></path></svg>