<svg xmlns="http://www.w3.org/2000/svg" width="512" height="512" viewBox="0 0 512 512"><path d="M297.387 33.420 C 290.253 37.356,287.026 44.114,288.605 51.809 C 289.412 55.741,291.089 57.542,333.511 100.053 L 377.578 144.213 234.835 144.213 C 93.997 144.213,92.048 144.236,88.762 145.912 C 86.931 146.846,84.354 149.025,83.036 150.752 C 80.920 153.526,80.640 154.616,80.640 160.068 C 80.640 165.667,80.880 166.538,83.221 169.431 C 84.641 171.185,87.131 173.333,88.755 174.204 C 91.596 175.727,97.053 175.787,234.642 175.787 L 377.578 175.787 333.511 219.947 C 290.732 262.815,289.419 264.229,288.585 268.288 C 288.112 270.588,287.851 272.892,288.005 273.408 C 288.158 273.924,288.514 275.396,288.794 276.678 C 289.363 279.275,293.672 284.564,296.417 286.033 C 299.653 287.764,303.667 288.245,307.809 287.396 C 311.761 286.587,313.787 284.670,370.193 228.400 C 402.617 196.053,429.223 168.835,430.139 167.074 C 432.257 163.005,432.257 156.995,430.139 152.926 C 427.996 148.807,313.511 34.506,310.344 33.324 C 307.224 32.159,299.570 32.216,297.387 33.420 M200.960 225.750 C 197.399 227.575,83.062 341.992,81.490 345.302 C 79.852 348.753,79.853 355.250,81.493 358.706 C 82.197 360.190,109.173 387.764,141.440 419.981 C 198.221 476.677,200.238 478.586,204.191 479.396 C 208.333 480.245,212.347 479.764,215.583 478.033 C 218.328 476.564,222.637 471.275,223.206 468.678 C 223.486 467.396,223.842 465.924,223.995 465.408 C 224.149 464.892,223.888 462.588,223.415 460.288 C 222.581 456.229,221.268 454.815,178.489 411.947 L 134.422 367.787 277.165 367.787 C 415.551 367.787,420.005 367.737,423.074 366.171 C 428.663 363.318,431.787 358.238,431.787 352.000 C 431.787 345.762,428.663 340.682,423.074 337.829 C 420.005 336.263,415.551 336.213,277.165 336.213 L 134.422 336.213 178.489 292.053 C 221.268 249.185,222.581 247.771,223.415 243.712 C 223.888 241.412,224.149 239.108,223.995 238.592 C 223.842 238.076,223.486 236.604,223.206 235.322 C 222.582 232.472,218.198 227.340,214.956 225.663 C 211.824 224.044,204.195 224.091,200.960 225.750 " stroke="none" fill="black" fill-rule="evenodd"></path></svg>