<svg xmlns="http://www.w3.org/2000/svg" width="512" height="512" viewBox="0 0 512 512"><path d="M229.973 62.690 C 181.930 69.181,139.800 91.993,107.413 129.051 C 100.108 137.409,98.386 141.580,99.746 147.630 C 101.305 154.570,108.206 160.362,114.969 160.408 C 120.564 160.446,124.283 158.022,132.433 149.026 C 143.498 136.810,152.446 128.942,164.267 121.032 C 228.340 78.158,312.372 85.218,367.992 138.147 C 381.797 151.284,391.985 164.914,400.621 181.797 C 411.901 203.848,417.187 224.500,418.490 251.600 L 418.956 261.279 410.551 253.530 C 405.929 249.268,401.643 245.175,401.029 244.434 C 398.906 241.877,394.713 240.364,389.732 240.360 C 385.650 240.356,384.184 240.787,381.240 242.856 C 379.283 244.232,376.914 246.671,375.976 248.277 C 373.963 251.724,373.647 258.561,375.317 262.517 C 376.710 265.817,424.716 311.945,429.064 314.161 C 432.819 316.076,438.442 316.184,442.657 314.423 C 445.988 313.032,488.870 271.058,492.895 265.249 C 498.416 257.283,495.615 246.244,486.933 241.755 C 483.424 239.940,476.421 240.020,472.752 241.917 C 471.134 242.754,465.479 247.671,460.185 252.844 L 450.560 262.249 450.560 253.118 C 450.560 218.865,438.479 179.013,419.226 149.760 C 388.961 103.773,341.769 73.053,286.720 63.504 C 275.691 61.590,241.717 61.103,229.973 62.690 M69.152 197.615 C 65.988 198.987,22.864 241.326,19.105 246.751 C 13.326 255.090,16.583 266.335,26.019 270.622 C 33.697 274.110,38.681 271.971,51.099 259.862 L 60.321 250.869 60.864 262.816 C 64.181 335.736,104.562 398.314,169.014 430.416 C 196.504 444.108,224.342 450.676,255.147 450.737 C 299.242 450.825,339.230 437.450,374.653 410.767 C 389.812 399.348,407.273 381.450,410.675 373.842 C 415.215 363.691,407.424 352.422,395.872 352.430 C 390.427 352.434,387.223 354.117,382.527 359.442 C 354.543 391.174,322.836 409.558,284.160 416.477 C 212.598 429.279,140.366 392.133,108.793 326.295 C 98.895 305.653,93.013 280.515,93.013 258.848 L 93.013 250.690 102.436 259.532 C 114.337 270.699,116.033 271.758,122.027 271.758 C 130.811 271.758,137.683 265.154,137.768 256.630 C 137.793 254.172,137.305 250.955,136.683 249.483 C 135.290 246.183,87.284 200.055,82.936 197.839 C 79.235 195.952,73.211 195.854,69.152 197.615 " stroke="none" fill-rule="evenodd" fill="black"></path></svg>