<svg xmlns="http://www.w3.org/2000/svg" width="512" height="512" viewBox="0 0 512 512"><path d="M241.920 48.656 C 209.569 50.678,176.936 60.929,148.731 77.932 C 94.814 110.433,58.978 164.884,49.790 228.267 C 47.760 242.269,47.760 269.731,49.790 283.733 C 55.047 319.999,68.580 352.627,90.558 382.029 C 98.598 392.784,119.216 413.402,129.971 421.442 C 159.373 443.420,192.001 456.953,228.267 462.210 C 235.366 463.239,243.873 463.695,256.000 463.695 C 268.127 463.695,276.634 463.239,283.733 462.210 C 319.999 456.953,352.627 443.420,382.029 421.442 C 392.784 413.402,413.402 392.784,421.442 382.029 C 441.901 354.659,455.008 324.668,460.856 291.840 C 470.924 235.321,456.636 176.673,421.441 130.052 C 388.588 86.534,337.751 57.084,283.307 50.031 C 270.567 48.381,254.742 47.855,241.920 48.656 M277.760 146.222 C 308.162 152.886,332.633 169.442,349.205 194.560 C 357.288 206.811,362.953 220.699,365.635 234.840 C 366.362 238.668,367.110 241.954,367.298 242.143 C 367.486 242.331,368.476 242.038,369.496 241.492 C 370.517 240.945,373.406 240.480,375.917 240.457 C 384.972 240.376,391.680 246.967,391.680 255.945 C 391.680 258.369,391.056 261.580,390.294 263.082 C 388.445 266.725,365.806 289.696,361.006 292.800 C 356.686 295.594,350.942 296.082,346.118 294.067 C 342.601 292.597,315.884 267.240,313.865 263.455 C 311.587 259.184,311.863 252.236,314.490 247.754 C 317.771 242.155,324.745 239.119,331.061 240.538 C 334.464 241.302,334.489 241.290,333.998 239.054 C 329.970 220.714,319.281 204.011,304.342 192.713 C 287.671 180.105,266.868 174.300,246.781 176.652 C 228.367 178.807,212.382 186.552,198.701 199.947 C 191.432 207.064,186.423 209.075,180.164 207.390 C 175.680 206.183,171.669 202.746,169.711 198.435 C 166.386 191.116,168.327 185.101,176.716 176.725 C 193.420 160.047,214.267 149.483,238.507 145.413 C 247.192 143.955,269.515 144.415,277.760 146.222 M165.882 217.933 C 169.399 219.403,196.116 244.760,198.135 248.545 C 200.191 252.398,200.107 259.497,197.956 263.713 C 194.831 269.839,186.124 273.604,180.011 271.473 L 177.308 270.531 177.890 273.635 C 180.259 286.261,188.878 301.620,199.629 312.371 C 223.266 336.008,257.506 342.481,288.353 329.145 C 296.980 325.415,303.721 320.854,311.467 313.504 C 319.038 306.320,322.012 304.640,327.155 304.640 C 331.950 304.640,335.109 305.814,338.210 308.748 C 341.735 312.083,343.040 315.097,343.040 319.902 C 343.040 325.971,342.019 327.988,335.556 334.689 C 321.516 349.244,303.776 359.274,282.287 364.806 C 270.179 367.923,251.620 368.666,238.861 366.544 C 214.671 362.521,194.070 351.999,177.036 334.964 C 160.986 318.915,150.336 299.039,146.189 277.397 C 145.418 273.373,144.739 270.001,144.680 269.904 C 144.622 269.808,142.860 270.320,140.767 271.043 C 130.478 274.596,120.320 267.119,120.320 255.992 C 120.320 253.603,120.944 250.420,121.706 248.918 C 123.555 245.275,146.194 222.304,150.994 219.200 C 155.314 216.406,161.058 215.918,165.882 217.933 " stroke="none" fill-rule="evenodd" fill="black"></path></svg>