<svg xmlns="http://www.w3.org/2000/svg" width="512" height="512" viewBox="0 0 512 512"><path d="M229.973 62.690 C 184.223 68.871,142.185 90.764,111.615 124.331 C 104.238 132.432,92.660 146.708,93.112 147.147 C 94.614 148.607,117.448 166.377,117.836 166.387 C 118.112 166.394,120.880 163.192,123.987 159.272 C 137.664 142.013,149.014 131.238,164.267 121.032 C 228.340 78.158,312.372 85.218,367.992 138.147 C 381.797 151.284,391.985 164.914,400.621 181.797 C 411.914 203.874,417.185 224.487,418.496 251.691 L 418.966 261.462 414.500 257.238 C 412.044 254.914,405.581 248.693,400.138 243.413 C 394.695 238.133,389.893 233.859,389.468 233.915 C 388.412 234.054,367.768 255.712,367.859 256.584 C 367.899 256.967,383.351 271.971,402.197 289.927 L 436.463 322.574 469.745 289.293 L 503.026 256.011 491.952 244.912 C 485.861 238.808,480.493 233.813,480.021 233.813 C 479.550 233.813,472.729 240.241,464.862 248.097 L 450.560 262.381 450.560 253.184 C 450.560 218.861,438.495 179.037,419.226 149.760 C 388.961 103.773,341.769 73.053,286.720 63.504 C 275.691 61.590,241.717 61.103,229.973 62.690 M42.183 222.777 L 8.976 255.992 20.049 267.089 C 26.139 273.193,31.507 278.187,31.978 278.187 C 32.449 278.187,39.018 272.012,46.575 264.465 L 60.315 250.744 60.861 262.753 C 63.782 326.964,95.091 382.943,147.918 418.406 C 165.565 430.253,192.157 441.624,212.907 446.195 C 241.882 452.579,272.321 452.414,300.800 445.719 C 336.018 437.440,371.663 417.316,395.958 391.997 C 402.682 384.990,418.133 366.765,418.133 365.842 C 418.133 365.518,404.691 354.416,395.441 347.100 C 393.579 345.628,393.500 345.691,386.977 353.800 C 377.806 365.203,370.351 372.967,361.387 380.453 C 311.662 421.978,243.120 430.657,185.298 402.752 C 145.408 383.501,116.073 350.503,101.642 308.652 C 96.040 292.406,92.645 272.050,93.175 257.893 L 93.440 250.827 107.660 264.507 C 115.480 272.031,122.200 278.141,122.593 278.085 C 123.617 277.938,144.229 256.250,144.137 255.416 C 144.068 254.782,100.910 213.293,82.895 196.541 L 75.390 189.562 42.183 222.777 " stroke="none" fill-rule="evenodd" fill="black"></path></svg>