<svg xmlns="http://www.w3.org/2000/svg" width="512" height="512" viewBox="0 0 512 512"><path d="M241.920 48.656 C 209.569 50.678,176.936 60.929,148.731 77.932 C 94.814 110.433,58.978 164.884,49.790 228.267 C 47.760 242.269,47.760 269.731,49.790 283.733 C 55.047 319.999,68.580 352.627,90.558 382.029 C 98.598 392.784,119.216 413.402,129.971 421.442 C 159.373 443.420,192.001 456.953,228.267 462.210 C 235.366 463.239,243.873 463.695,256.000 463.695 C 268.127 463.695,276.634 463.239,283.733 462.210 C 319.999 456.953,352.627 443.420,382.029 421.442 C 392.784 413.402,413.402 392.784,421.442 382.029 C 441.901 354.659,455.008 324.668,460.856 291.840 C 470.924 235.321,456.636 176.673,421.441 130.052 C 388.588 86.534,337.751 57.084,283.307 50.031 C 270.567 48.381,254.742 47.855,241.920 48.656 M272.213 145.455 C 311.021 151.348,343.373 176.397,358.855 212.539 C 361.717 219.221,365.223 231.464,366.509 239.270 L 367.057 242.593 371.701 238.007 L 376.345 233.420 387.634 244.709 L 398.923 255.998 375.945 278.988 L 352.966 301.979 343.097 292.683 C 337.668 287.570,326.935 277.321,319.246 269.907 L 305.265 256.427 316.390 244.907 L 327.514 233.387 330.584 236.327 C 334.262 239.851,334.432 238.960,331.643 230.763 C 324.515 209.811,309.637 193.173,289.707 183.867 C 280.299 179.474,274.288 177.814,263.421 176.610 C 240.630 174.084,216.614 182.463,199.882 198.778 C 197.620 200.984,195.844 202.084,195.188 201.685 C 194.608 201.332,189.255 196.647,183.293 191.273 L 172.453 181.501 174.070 179.446 C 176.533 176.314,185.229 168.757,191.280 164.489 C 214.588 148.049,243.903 141.155,272.213 145.455 M192.755 242.082 L 206.737 255.573 195.608 267.093 L 184.480 278.613 180.927 275.200 L 177.373 271.787 177.981 274.347 C 179.544 280.937,183.929 291.381,187.697 297.487 C 199.303 316.296,217.421 329.167,239.360 334.191 C 248.205 336.216,265.090 336.239,273.269 334.237 C 287.620 330.724,300.898 323.651,310.706 314.295 C 313.994 311.159,316.004 309.823,316.749 310.276 C 317.364 310.650,322.790 315.391,328.807 320.811 L 339.748 330.667 333.042 337.131 C 317.273 352.334,295.888 362.875,273.269 366.593 C 260.892 368.628,241.429 367.831,229.713 364.810 C 219.010 362.050,208.278 357.803,200.443 353.227 C 172.059 336.650,152.316 309.107,146.156 277.494 L 144.640 269.714 140.147 274.147 L 135.655 278.580 124.366 267.291 L 113.077 256.002 136.055 233.012 L 159.034 210.021 168.903 219.306 C 174.332 224.412,185.065 234.661,192.755 242.082 " stroke="none" fill-rule="evenodd" fill="black"></path></svg>