<svg xmlns="http://www.w3.org/2000/svg" width="512" height="512" viewBox="0 0 512 512"><path d="M241.493 48.673 C 201.694 51.236,163.176 65.747,129.707 90.787 C 119.118 98.709,98.459 119.383,90.552 129.971 C 68.706 159.223,55.330 191.336,49.785 227.840 C 47.724 241.414,47.724 270.586,49.785 284.160 C 55.331 320.671,68.725 352.821,90.558 382.029 C 98.598 392.784,119.216 413.402,129.971 421.442 C 159.179 443.275,191.329 456.669,227.840 462.215 C 241.414 464.276,270.586 464.276,284.160 462.215 C 320.686 456.667,352.914 443.237,382.029 421.430 C 392.784 413.374,413.374 392.784,421.430 382.029 C 443.237 352.914,456.667 320.686,462.215 284.160 C 464.276 270.586,464.276 241.414,462.215 227.840 C 455.463 183.387,436.803 144.683,406.921 113.150 C 370.380 74.590,322.088 52.062,268.561 48.607 C 255.365 47.755,255.779 47.754,241.493 48.673 M284.160 82.308 C 319.998 88.383,351.735 104.258,377.739 129.118 C 405.349 155.513,423.300 189.800,429.832 228.618 C 431.923 241.048,431.905 271.514,429.799 283.733 C 419.921 341.032,385.307 387.989,334.011 413.679 C 285.590 437.929,226.410 437.929,177.989 413.679 C 126.525 387.905,91.775 340.650,82.174 283.382 C 80.053 270.734,80.053 241.266,82.174 228.618 C 92.715 165.745,133.739 115.017,192.849 91.764 C 205.896 86.632,221.606 82.941,239.787 80.737 C 246.454 79.928,276.372 80.988,284.160 82.308 M240.231 145.164 C 227.141 147.071,211.867 152.162,200.989 158.245 C 188.558 165.197,171.391 180.344,169.238 186.261 C 166.198 194.616,170.154 203.387,178.544 206.893 C 185.598 209.840,190.262 208.078,200.248 198.693 C 212.249 187.416,224.099 181.119,239.360 177.910 C 248.162 176.059,263.766 176.016,271.994 177.819 C 299.678 183.888,321.527 202.934,331.008 229.262 C 332.331 232.939,333.642 237.150,333.919 238.620 L 334.424 241.293 331.035 240.532 C 319.678 237.980,310.016 248.174,312.532 260.053 C 313.323 263.788,314.461 265.146,327.015 277.333 C 343.898 293.724,346.044 295.253,352.162 295.253 C 355.043 295.253,357.945 294.638,359.927 293.607 C 363.915 291.533,388.448 266.816,390.414 262.892 C 393.748 256.234,391.402 247.287,385.213 243.063 C 380.294 239.706,374.717 239.301,368.580 241.854 C 367.490 242.308,367.046 241.333,366.196 236.619 C 356.526 182.991,309.331 143.765,255.147 144.321 C 249.749 144.376,243.037 144.756,240.231 145.164 M150.994 219.191 C 148.907 220.536,141.395 227.544,134.300 234.765 C 122.644 246.627,121.316 248.284,120.537 251.947 C 119.244 258.017,120.618 263.124,124.619 267.126 C 129.452 271.959,135.582 273.347,141.385 270.922 C 143.085 270.212,144.550 269.732,144.641 269.855 C 144.732 269.979,145.250 272.847,145.792 276.228 C 149.172 297.323,160.504 318.500,177.444 335.375 C 190.766 348.646,203.670 356.576,221.163 362.244 C 249.163 371.316,277.463 369.561,304.484 357.076 C 318.503 350.599,338.709 334.203,342.290 326.400 C 347.876 314.224,336.855 301.452,323.635 304.781 C 320.580 305.550,318.156 307.259,312.403 312.702 C 301.147 323.351,293.288 328.121,280.320 332.173 C 238.442 345.257,194.610 323.095,180.305 281.604 C 176.625 270.931,176.638 270.404,180.539 271.601 C 184.161 272.713,190.000 271.440,193.849 268.698 C 199.397 264.748,201.569 254.992,198.285 248.779 C 196.200 244.835,169.550 219.466,165.882 217.933 C 161.066 215.921,155.314 216.407,150.994 219.191 " stroke="none" fill-rule="evenodd" fill="black"></path></svg>