<svg xmlns="http://www.w3.org/2000/svg" width="512" height="512" viewBox="0 0 512 512"><path d="M12.373 64.905 C 8.556 66.026,3.401 70.674,1.615 74.606 C 0.097 77.950,0.037 84.749,0.037 256.000 C 0.037 427.381,0.096 434.045,1.618 437.333 C 3.554 441.516,7.072 444.917,11.279 446.675 C 14.122 447.862,39.554 448.000,256.000 448.000 C 472.446 448.000,497.878 447.862,500.721 446.675 C 504.928 444.917,508.446 441.516,510.382 437.333 C 511.904 434.045,511.963 427.381,511.963 256.000 C 511.963 84.749,511.903 77.950,510.385 74.606 C 508.516 70.491,503.375 66.002,499.200 64.841 C 495.377 63.777,16.001 63.841,12.373 64.905 M448.000 256.000 L 448.000 412.160 256.000 412.160 L 64.000 412.160 64.000 256.000 L 64.000 99.840 256.000 99.840 L 448.000 99.840 448.000 256.000 " stroke="none" fill-rule="evenodd" fill="black"></path></svg>