<svg xmlns="http://www.w3.org/2000/svg" width="512" height="512" viewBox="0 0 512 512"><path d="M76.373 0.905 C 72.556 2.026,67.401 6.674,65.615 10.606 C 64.092 13.959,64.037 22.509,64.019 255.814 C 64.002 472.455,64.138 497.877,65.325 500.721 C 67.083 504.928,70.484 508.446,74.667 510.382 C 77.955 511.904,84.619 511.963,256.000 511.963 C 427.381 511.963,434.045 511.904,437.333 510.382 C 441.516 508.446,444.917 504.928,446.675 500.721 C 447.862 497.877,447.998 472.455,447.981 255.814 C 447.963 22.509,447.908 13.959,446.385 10.606 C 444.516 6.491,439.375 2.002,435.200 0.841 C 431.386 -0.221,79.993 -0.157,76.373 0.905 M412.160 256.000 L 412.160 448.000 256.000 448.000 L 99.840 448.000 99.840 256.000 L 99.840 64.000 256.000 64.000 L 412.160 64.000 412.160 256.000 " stroke="none" fill-rule="evenodd" fill="black"></path></svg>