<svg xmlns="http://www.w3.org/2000/svg" width="512" height="512" viewBox="0 0 512 512"><path d="M117.303 0.911 C 93.433 4.961,73.830 22.364,66.425 46.080 L 64.427 52.480 64.427 256.000 L 64.427 459.520 66.425 465.920 C 72.998 486.971,89.029 503.002,110.080 509.575 L 116.480 511.573 256.000 511.573 L 395.520 511.573 401.920 509.575 C 422.971 503.002,439.002 486.971,445.575 465.920 L 447.573 459.520 447.573 256.000 L 447.573 52.480 445.575 46.080 C 439.059 25.213,423.081 9.133,402.357 2.587 L 395.520 0.427 258.560 0.304 C 183.232 0.237,119.667 0.510,117.303 0.911 M397.227 34.942 C 403.154 37.845,409.694 44.278,412.653 50.118 L 415.147 55.040 415.147 256.000 L 415.147 456.960 412.679 461.831 C 407.685 471.686,398.864 478.057,388.046 479.622 C 381.056 480.633,130.944 480.633,123.954 479.622 C 113.136 478.057,104.315 471.686,99.321 461.831 L 96.853 456.960 96.853 256.000 L 96.853 55.040 98.953 50.773 C 102.658 43.243,110.044 36.494,117.666 33.675 C 120.194 32.740,145.146 32.565,256.853 32.695 L 392.960 32.853 397.227 34.942 " stroke="none" fill="black" fill-rule="evenodd"></path></svg>