<svg xmlns="http://www.w3.org/2000/svg" width="512" height="512" viewBox="0 0 512 512"><path d="M53.303 64.914 C 29.452 68.945,9.830 86.364,2.425 110.080 L 0.427 116.480 0.427 256.000 L 0.427 395.520 2.425 401.920 C 8.998 422.971,25.029 439.002,46.080 445.575 L 52.480 447.573 256.000 447.573 L 459.520 447.573 465.920 445.575 C 486.971 439.002,503.002 422.971,509.575 401.920 L 511.573 395.520 511.573 256.000 L 511.573 116.480 509.575 110.080 C 503.059 89.213,487.081 73.133,466.357 66.587 L 459.520 64.427 258.560 64.307 C 148.032 64.241,55.667 64.514,53.303 64.914 M461.882 99.347 C 467.722 102.306,474.155 108.846,477.058 114.773 L 479.147 119.040 479.147 256.000 L 479.147 392.960 476.679 397.831 C 471.685 407.686,462.864 414.057,452.046 415.622 C 445.007 416.640,66.993 416.640,59.954 415.622 C 49.136 414.057,40.315 407.686,35.321 397.831 L 32.853 392.960 32.853 256.000 L 32.853 119.040 34.953 114.773 C 38.658 107.241,46.048 100.490,53.666 97.677 C 56.205 96.739,91.921 96.567,256.853 96.696 L 456.960 96.853 461.882 99.347 " stroke="none" fill="black" fill-rule="evenodd"></path></svg>