<svg xmlns="http://www.w3.org/2000/svg" width="512" height="512" viewBox="0 0 512 512"><path d="M50.773 65.274 C 27.590 70.477,9.504 87.234,2.413 110.080 L 0.427 116.480 0.427 256.000 L 0.427 395.520 2.413 401.920 C 8.930 422.918,25.082 439.070,46.080 445.587 L 52.480 447.573 256.000 447.573 L 459.520 447.573 465.920 445.587 C 486.918 439.070,503.070 422.918,509.587 401.920 L 511.573 395.520 511.573 256.000 L 511.573 116.480 509.587 110.080 C 503.142 89.314,487.432 73.451,466.347 66.419 L 460.373 64.427 258.133 64.276 C 91.294 64.151,54.997 64.326,50.773 65.274 M460.949 99.124 C 467.730 102.302,473.086 107.546,476.373 114.224 L 479.147 119.857 479.147 256.000 L 479.147 392.143 476.373 397.776 C 473.086 404.454,467.730 409.698,460.949 412.876 L 456.107 415.147 256.000 415.147 L 55.893 415.147 51.051 412.876 C 44.270 409.698,38.914 404.454,35.627 397.776 L 32.853 392.143 32.632 257.138 L 32.411 122.132 34.197 117.359 C 37.486 108.567,43.724 102.174,52.559 98.537 L 57.600 96.461 256.853 96.657 L 456.107 96.853 460.949 99.124 M59.958 112.613 C 56.320 113.483,51.566 117.176,49.706 120.577 C 48.306 123.137,48.199 131.424,47.989 254.162 C 47.829 347.915,48.034 386.014,48.711 388.531 C 49.914 392.999,54.892 398.030,59.326 399.262 C 64.145 400.599,447.855 400.599,452.674 399.262 C 457.108 398.030,462.086 392.999,463.289 388.531 C 463.966 386.014,464.171 347.915,464.011 254.162 C 463.788 124.024,463.777 123.290,462.039 120.332 C 461.078 118.696,458.645 116.200,456.632 114.785 L 452.973 112.213 257.847 112.083 C 150.527 112.011,61.477 112.249,59.958 112.613 " stroke="none" fill-rule="evenodd" fill="black"></path></svg>