<svg xmlns="http://www.w3.org/2000/svg" width="512" height="512" viewBox="0 0 512 512"><path d="M114.773 1.272 C 91.578 6.488,73.503 23.235,66.413 46.080 L 64.427 52.480 64.427 256.000 L 64.427 459.520 66.413 465.920 C 72.930 486.918,89.082 503.070,110.080 509.587 L 116.480 511.573 256.000 511.573 L 395.520 511.573 401.920 509.587 C 422.918 503.070,439.070 486.918,445.587 465.920 L 447.573 459.520 447.573 256.000 L 447.573 52.480 445.587 46.080 C 439.142 25.314,423.432 9.451,402.347 2.419 L 396.373 0.427 258.133 0.274 C 144.790 0.148,118.971 0.328,114.773 1.272 M396.949 35.124 C 403.730 38.302,409.086 43.546,412.373 50.224 L 415.147 55.857 415.147 256.000 L 415.147 456.143 412.373 461.776 C 409.086 468.454,403.730 473.698,396.949 476.876 L 392.107 479.147 256.000 479.147 L 119.893 479.147 115.051 476.876 C 108.270 473.698,102.914 468.454,99.627 461.776 L 96.853 456.143 96.635 257.131 L 96.416 58.119 98.200 53.352 C 101.486 44.568,107.724 38.175,116.559 34.535 L 121.600 32.459 256.853 32.656 L 392.107 32.853 396.949 35.124 M123.958 48.610 C 120.318 49.484,115.565 53.177,113.706 56.577 C 112.299 59.150,112.201 70.482,111.993 254.175 C 111.834 394.347,112.037 450.026,112.715 452.544 C 113.914 456.999,118.898 462.032,123.326 463.262 C 128.128 464.595,383.872 464.595,388.674 463.262 C 393.102 462.032,398.086 456.999,399.285 452.544 C 399.963 450.026,400.166 394.347,400.007 254.175 C 399.787 59.520,399.785 59.303,398.039 56.332 C 397.078 54.696,394.645 52.200,392.632 50.785 L 388.973 48.213 257.847 48.081 C 185.727 48.008,125.477 48.246,123.958 48.610 " stroke="none" fill-rule="evenodd" fill="black"></path></svg>