<svg xmlns="http://www.w3.org/2000/svg" viewBox="0 0 512 512"><path d="M342.861 48.853 L 262.075 96.000 263.834 98.987 C 264.801 100.629,282.394 130.965,302.929 166.400 C 323.463 201.835,342.105 233.966,344.354 237.803 L 348.443 244.779 352.436 242.496 C 426.686 200.038,510.235 151.218,510.075 150.384 C 509.802 148.966,424.668 1.798,424.091 1.746 C 423.847 1.724,387.294 22.923,342.861 48.853 M181.333 167.215 C 145.195 188.229,115.693 205.762,115.774 206.177 C 115.961 207.141,174.814 308.240,175.737 309.183 C 176.115 309.569,179.756 308.084,183.827 305.883 C 187.899 303.681,191.385 302.034,191.573 302.222 C 191.761 302.410,172.154 345.367,148.003 397.682 C 123.852 449.997,103.877 493.472,103.615 494.293 C 103.172 495.682,104.355 495.787,120.545 495.787 L 137.952 495.787 187.376 388.838 L 236.800 281.890 248.129 275.308 C 254.359 271.688,259.735 268.906,260.075 269.125 C 260.415 269.344,282.580 313.328,309.330 366.868 L 357.967 464.213 375.677 464.213 C 387.881 464.213,393.387 463.924,393.387 463.284 C 393.387 462.773,369.771 415.406,340.907 358.025 C 312.043 300.644,288.427 253.328,288.427 252.878 C 288.427 252.428,293.611 249.054,299.947 245.380 C 306.283 241.707,311.467 238.613,311.467 238.504 C 311.467 237.592,248.464 129.346,247.848 129.200 C 247.403 129.095,217.472 146.201,181.333 167.215 M50.610 264.413 C 24.238 279.733,2.423 292.514,2.132 292.816 C 1.625 293.343,43.505 366.152,45.666 368.501 C 46.527 369.436,55.439 364.629,95.251 341.754 C 121.946 326.416,143.910 313.748,144.061 313.602 C 144.524 313.153,100.162 236.901,99.335 236.725 C 98.909 236.634,76.983 249.094,50.610 264.413 " stroke="none" fill-rule="evenodd" fill="black"></path></svg>