<svg xmlns="http://www.w3.org/2000/svg" viewBox="0 0 512 512"><path d="M399.987 17.142 C 395.255 18.257,393.824 19.038,340.972 49.359 C 287.400 80.094,285.967 81.105,280.507 92.019 C 278.822 95.387,277.072 100.595,276.515 103.901 C 274.601 115.249,277.792 123.412,297.783 158.302 C 328.375 211.692,334.997 221.216,344.833 225.963 C 354.719 230.735,365.575 231.459,375.467 228.005 C 379.753 226.509,471.036 174.500,479.268 168.865 C 486.764 163.733,492.685 154.784,494.929 145.198 C 496.265 139.489,495.657 129.007,493.658 123.307 C 492.836 120.960,480.978 99.648,467.308 75.947 C 440.605 29.649,438.244 26.297,428.702 21.148 C 420.482 16.712,408.755 15.076,399.987 17.142 M235.093 136.258 C 228.193 139.933,147.601 186.573,144.591 188.633 C 137.395 193.558,132.250 201.024,129.375 210.715 C 126.104 221.740,127.785 226.789,144.394 255.824 C 167.109 295.534,169.739 298.379,186.428 301.285 C 189.536 301.826,191.965 302.547,191.826 302.887 C 191.687 303.226,173.621 342.313,151.680 389.747 C 108.287 483.555,109.732 479.882,113.403 487.074 C 115.251 490.696,117.039 492.440,120.918 494.404 C 126.823 497.394,136.078 495.229,139.987 489.941 C 140.970 488.612,163.058 441.493,189.072 385.234 C 215.085 328.975,236.850 282.482,237.438 281.916 C 239.468 279.960,257.809 269.653,259.249 269.659 C 260.309 269.663,273.195 294.484,307.627 362.841 C 333.440 414.088,355.504 457.148,356.658 458.530 C 359.011 461.349,364.556 464.169,367.787 464.190 C 378.159 464.258,386.566 454.117,384.010 444.622 C 383.467 442.608,361.739 398.765,335.725 347.192 C 309.711 295.620,288.427 253.077,288.427 252.652 C 288.427 252.228,290.827 250.534,293.760 248.889 C 302.668 243.894,305.529 239.826,305.453 232.264 C 305.404 227.362,306.516 229.476,277.760 179.627 C 256.533 142.829,254.421 139.494,250.926 137.256 C 247.894 135.314,246.182 134.834,242.393 134.861 C 239.752 134.880,236.520 135.499,235.093 136.258 M78.447 248.418 C 36.942 272.178,31.823 275.308,27.602 279.508 C 19.533 287.538,15.662 298.142,16.436 310.090 C 16.960 318.174,18.882 323.517,24.777 333.278 C 36.172 352.143,54.820 359.815,73.585 353.358 C 78.099 351.805,126.473 324.430,132.061 320.267 C 137.533 316.190,139.723 308.134,137.079 301.808 C 134.944 296.696,107.412 249.632,105.104 247.148 C 102.083 243.896,98.240 242.347,93.194 242.347 C 89.623 242.347,87.592 243.183,78.447 248.418 " stroke="none" fill-rule="evenodd" fill="black"></path></svg>