<svg xmlns="http://www.w3.org/2000/svg" viewBox="0 0 512 512"><path d="M398.933 17.410 C 393.694 19.071,391.165 20.464,340.108 49.800 C 288.243 79.602,285.251 81.691,280.643 91.324 C 277.919 97.017,276.242 103.864,276.342 108.876 C 276.403 111.913,276.063 112.797,274.529 113.591 C 273.490 114.129,243.873 131.127,208.714 151.365 C 164.557 176.781,143.382 189.438,140.242 192.292 C 134.756 197.277,130.148 206.034,128.612 214.390 L 127.555 220.139 110.043 230.176 C 32.592 274.567,33.151 274.232,27.805 279.467 C 19.346 287.749,15.560 298.159,16.398 310.831 C 16.860 317.817,18.812 323.073,24.670 333.109 C 29.540 341.450,34.877 346.954,41.541 350.506 C 51.896 356.025,62.986 357.047,73.387 353.439 C 77.371 352.058,163.402 303.163,169.898 298.589 C 172.057 297.069,172.240 297.073,176.698 298.767 C 179.218 299.725,183.684 300.958,186.623 301.507 L 191.965 302.507 151.902 389.120 C 108.976 481.923,110.122 479.056,113.099 486.183 C 114.793 490.236,116.589 492.175,120.499 494.171 C 126.800 497.387,135.948 495.405,139.981 489.950 C 140.961 488.624,163.045 441.491,189.057 385.210 C 215.069 328.928,237.135 282.234,238.092 281.445 C 241.739 278.437,259.639 268.687,260.266 269.367 C 260.628 269.759,282.117 312.128,308.021 363.520 C 333.924 414.912,355.952 457.860,356.972 458.961 C 360.953 463.256,366.954 464.907,372.720 463.293 C 380.855 461.015,386.304 451.941,384.052 444.424 C 383.477 442.503,361.725 398.755,335.716 347.205 C 309.707 295.656,288.427 253.158,288.427 252.766 C 288.427 252.374,298.699 246.157,311.253 238.950 C 323.808 231.743,335.092 225.148,336.329 224.295 C 338.545 222.765,338.651 222.780,343.582 225.282 C 349.765 228.419,357.352 230.400,363.183 230.400 C 372.353 230.400,377.213 228.023,429.227 198.103 C 483.845 166.684,487.006 164.476,491.714 154.453 C 496.785 143.657,497.046 130.472,492.386 120.496 C 486.823 108.588,442.459 32.994,438.445 28.584 C 434.063 23.769,426.373 19.223,419.526 17.400 C 414.111 15.958,403.496 15.963,398.933 17.410 M412.958 49.038 C 414.830 50.006,420.838 59.713,439.497 91.918 C 464.744 135.493,465.245 136.573,462.257 141.035 C 461.558 142.079,439.457 155.317,413.144 170.453 C 361.321 200.263,361.260 200.291,357.328 195.775 C 354.016 191.971,308.791 113.199,308.318 110.410 C 307.961 108.305,308.374 107.205,310.307 105.108 C 312.254 102.996,402.068 50.364,407.040 48.421 C 409.159 47.594,410.419 47.725,412.958 49.038 M302.518 166.827 C 309.854 179.499,316.784 191.463,317.918 193.415 L 319.980 196.962 256.900 233.308 C 214.225 257.897,193.036 269.653,191.394 269.653 C 187.791 269.653,185.576 267.672,182.056 261.302 C 178.159 254.250,167.623 236.017,163.488 229.170 C 160.040 223.461,159.492 218.875,161.920 216.053 C 163.947 213.697,287.836 142.426,288.585 143.185 C 288.912 143.516,295.182 154.155,302.518 166.827 M145.105 261.615 C 148.483 267.519,150.911 272.640,150.503 272.996 C 150.094 273.351,130.295 284.841,106.505 298.528 C 74.554 316.910,62.538 323.413,60.526 323.413 C 57.161 323.413,53.501 319.786,50.142 313.120 C 48.087 309.044,47.911 308.090,48.692 305.268 C 49.704 301.607,44.474 304.901,102.814 271.190 C 122.064 260.067,138.073 250.947,138.389 250.923 C 138.706 250.899,141.728 255.711,145.105 261.615 " fill="black" stroke="none" fill-rule="evenodd"></path></svg>