<svg xmlns="http://www.w3.org/2000/svg" width="512" height="512" viewBox="0 0 512 512"><path d="M265.044 34.773 C 262.231 48.585,261.197 72.627,262.795 87.097 C 268.968 142.994,298.361 190.571,346.045 221.845 C 355.747 228.208,373.306 236.576,385.498 240.645 C 406.689 247.718,426.399 250.544,449.160 249.773 C 462.018 249.337,477.306 247.588,479.361 246.318 C 480.359 245.701,479.009 230.057,476.957 218.453 C 470.066 179.483,454.330 144.755,429.782 114.347 C 423.048 106.005,405.857 88.843,397.316 81.937 C 372.745 62.066,340.116 45.893,309.380 38.353 C 298.007 35.563,277.248 32.427,270.154 32.427 C 265.786 32.427,265.495 32.560,265.044 34.773 M206.933 37.238 C 184.657 42.292,157.436 53.417,138.240 65.314 C 111.637 81.801,86.624 105.971,69.318 131.911 C 55.573 152.514,45.058 176.154,38.797 200.530 C 36.552 209.274,34.241 220.836,34.656 221.251 C 34.796 221.392,39.248 220.990,44.549 220.358 C 57.024 218.870,89.001 219.470,101.547 221.427 C 139.500 227.349,173.366 241.550,203.947 264.368 C 216.720 273.899,238.101 295.280,247.632 308.053 C 273.232 342.363,287.786 380.071,291.931 422.827 C 292.985 433.698,292.453 464.586,291.079 472.320 C 290.662 474.667,290.464 476.826,290.638 477.119 C 290.812 477.413,294.514 476.935,298.864 476.059 C 343.779 467.011,382.242 446.458,414.350 414.350 C 446.481 382.220,467.007 343.790,476.075 298.787 L 477.684 290.800 470.309 291.533 C 456.660 292.890,420.473 292.386,410.027 290.693 C 362.530 282.997,321.520 262.734,288.260 230.529 C 267.824 210.742,254.630 192.700,242.301 167.680 C 231.038 144.825,224.613 123.876,220.840 97.707 C 219.521 88.551,219.440 48.302,220.725 40.320 L 221.584 34.987 218.952 35.048 C 217.504 35.081,212.096 36.067,206.933 37.238 M53.333 262.555 C 48.567 262.966,33.206 265.332,32.509 265.762 C 30.818 266.808,34.784 295.483,38.834 311.485 C 57.157 383.875,111.791 443.317,182.375 467.656 C 200.232 473.813,219.998 478.048,237.102 479.381 C 247.629 480.202,246.683 481.297,248.668 465.992 C 261.545 366.744,189.686 274.914,90.032 263.269 C 80.085 262.107,62.499 261.764,53.333 262.555 " stroke="none" fill-rule="evenodd" fill="black"></path></svg>