<svg xmlns="http://www.w3.org/2000/svg" width="512" height="512" viewBox="0 0 512 512"><path d="M258.186 35.071 C 255.734 49.307,255.374 69.323,257.276 85.585 C 263.128 135.616,287.854 180.642,327.409 213.296 C 341.620 225.028,363.861 237.592,382.604 244.476 C 392.897 248.256,408.002 252.119,419.413 253.888 C 436.136 256.480,462.472 256.424,477.534 253.764 L 480.188 253.295 479.842 247.181 C 478.301 220.001,473.430 196.864,464.453 174.080 C 443.936 122.010,404.821 79.652,354.560 55.075 C 339.170 47.549,328.712 43.605,313.736 39.681 C 298.937 35.803,283.754 33.389,269.930 32.716 L 258.686 32.168 258.186 35.071 M215.040 35.812 C 187.071 41.047,158.671 52.350,134.832 67.732 C 88.803 97.434,54.640 143.613,40.462 195.297 C 37.466 206.218,33.594 225.037,34.219 225.636 C 34.407 225.816,37.632 225.638,41.387 225.241 C 52.004 224.118,79.592 224.354,90.453 225.661 C 140.943 231.735,186.347 253.802,222.272 289.728 C 258.703 326.159,281.669 374.226,286.649 424.468 C 287.744 435.514,287.805 461.993,286.756 471.040 C 286.348 474.560,286.167 477.593,286.353 477.781 C 286.971 478.404,305.766 474.538,316.703 471.538 C 382.150 453.584,438.513 403.145,463.629 340.053 C 469.488 325.334,475.577 303.281,477.497 289.827 C 478.039 286.029,477.954 285.723,476.484 286.180 C 475.602 286.454,469.085 287.062,462.003 287.532 C 446.837 288.539,427.009 287.561,411.733 285.054 C 312.031 268.692,235.475 187.241,225.232 86.629 C 224.182 76.316,224.558 40.048,225.756 36.053 C 226.455 33.725,226.213 33.720,215.040 35.812 M46.292 256.920 C 41.950 257.368,36.961 258.032,35.205 258.397 L 32.012 259.061 32.253 265.424 C 35.584 353.260,91.684 431.986,174.080 464.453 C 196.861 473.429,220.005 478.302,247.171 479.841 L 253.275 480.187 253.772 477.699 C 256.403 464.545,256.458 436.061,253.884 419.413 C 248.728 386.060,234.313 353.509,213.072 327.253 C 205.456 317.840,188.934 301.956,179.200 294.690 C 153.185 275.272,123.827 262.993,91.733 258.108 C 81.045 256.481,56.719 255.845,46.292 256.920 " stroke="none" fill-rule="evenodd" fill="black"></path></svg>