<svg xmlns="http://www.w3.org/2000/svg" width="512" height="512" viewBox="0 0 512 512"><path d="M231.253 33.392 C 214.898 35.057,192.680 40.401,176.511 46.559 C 156.296 54.258,131.841 68.384,114.508 82.373 C 92.069 100.483,71.148 126.126,57.570 152.164 C 42.512 181.038,34.416 210.416,32.447 243.324 C 27.225 330.584,74.485 413.921,152.164 454.430 C 231.416 495.759,326.910 486.355,396.524 430.364 C 473.098 368.774,500.486 263.737,463.793 172.373 C 435.769 102.595,373.381 50.947,299.520 36.379 C 293.653 35.221,284.659 33.859,279.532 33.351 C 268.795 32.286,241.887 32.309,231.253 33.392 M284.160 66.219 C 338.158 73.993,386.639 105.197,417.272 151.893 C 423.753 161.774,433.129 180.887,437.154 192.427 C 442.956 209.060,446.484 227.189,447.657 246.400 L 448.243 256.000 442.783 256.000 C 435.165 256.000,417.267 253.812,407.300 251.662 C 386.113 247.092,359.693 235.962,342.187 224.232 C 313.370 204.923,290.510 178.764,275.616 148.053 C 263.823 123.736,258.039 101.361,256.335 73.470 L 255.741 63.741 265.470 64.335 C 270.822 64.662,279.232 65.510,284.160 66.219 M224.414 75.263 C 224.440 88.641,228.110 110.306,233.332 127.924 C 250.386 185.452,290.948 234.679,344.164 262.430 C 372.243 277.073,403.655 285.899,432.640 287.287 C 438.507 287.569,443.733 288.036,444.254 288.326 C 445.641 289.098,442.668 302.678,438.065 316.587 C 424.592 357.308,397.469 392.513,360.960 416.669 C 349.334 424.361,330.830 433.373,317.607 437.782 C 304.235 442.241,289.124 445.716,288.375 444.503 C 288.073 444.014,287.592 438.745,287.306 432.794 C 285.906 403.678,277.096 372.286,262.430 344.164 C 231.311 284.490,173.704 241.433,107.520 228.379 C 95.928 226.092,81.322 224.427,72.862 224.427 C 69.921 224.427,67.350 224.139,67.149 223.787 C 66.421 222.512,70.209 206.674,73.935 195.413 C 92.776 138.468,138.468 92.776,195.413 73.935 C 209.386 69.311,222.860 66.373,223.774 67.749 C 224.118 68.268,224.406 71.650,224.414 75.263 M92.160 258.219 C 146.158 265.993,194.639 297.197,225.272 343.893 C 231.753 353.774,241.129 372.887,245.154 384.427 C 250.956 401.060,254.484 419.189,255.657 438.400 L 256.243 448.000 250.783 448.000 C 243.165 448.000,225.267 445.812,215.300 443.662 C 194.113 439.092,167.693 427.962,150.187 416.232 C 121.370 396.923,98.510 370.764,83.616 340.053 C 71.823 315.736,66.039 293.361,64.335 265.470 L 63.741 255.741 73.470 256.335 C 78.822 256.662,87.232 257.510,92.160 258.219 " stroke="none" fill-rule="evenodd" fill="black"></path></svg>