<svg xmlns="http://www.w3.org/2000/svg" width="512" height="512" viewBox="0 0 512 512"><path d="M64.853 33.743 C 61.803 34.392,55.659 36.745,51.200 38.972 C 44.358 42.390,41.824 44.292,34.956 51.164 C 28.344 57.780,26.142 60.666,23.211 66.560 C 21.227 70.549,18.840 76.851,17.908 80.563 C 16.246 87.184,16.213 90.537,16.213 256.000 C 16.213 421.463,16.246 424.816,17.908 431.437 C 18.840 435.149,21.227 441.451,23.211 445.440 C 26.133 451.314,28.366 454.248,34.956 460.868 C 41.775 467.718,44.364 469.677,50.934 472.958 C 66.305 480.634,47.839 480.000,256.000 480.000 C 464.161 480.000,445.695 480.634,461.066 472.958 C 467.636 469.677,470.225 467.718,477.044 460.868 C 483.634 454.248,485.867 451.314,488.789 445.440 C 490.773 441.451,493.160 435.149,494.092 431.437 C 495.754 424.816,495.787 421.463,495.787 256.000 C 495.787 90.537,495.754 87.184,494.092 80.563 C 493.160 76.851,490.773 70.549,488.789 66.560 C 485.858 60.666,483.656 57.780,477.044 51.164 C 470.170 44.286,467.648 42.394,460.800 38.978 C 446.672 31.931,463.147 32.450,255.573 32.509 C 101.306 32.553,69.474 32.759,64.853 33.743 M439.592 65.161 C 452.190 68.126,461.516 78.437,463.403 91.487 C 464.429 98.580,464.429 413.420,463.403 420.513 C 461.873 431.090,455.357 439.978,445.616 444.774 L 439.929 447.573 256.018 447.573 L 72.107 447.573 67.227 445.286 C 57.154 440.565,50.153 431.277,48.607 420.581 C 47.572 413.424,47.563 98.640,48.597 91.487 C 50.454 78.647,59.786 68.171,72.007 65.205 C 78.654 63.592,432.746 63.549,439.592 65.161 M88.206 98.064 C 83.627 100.856,80.818 105.362,80.382 110.613 C 79.652 119.426,79.373 119.131,116.763 149.053 L 150.471 176.027 148.409 177.566 C 138.004 185.331,83.754 229.659,82.433 231.476 C 81.278 233.064,80.617 235.567,80.404 239.156 C 80.124 243.890,80.369 244.915,82.614 248.410 C 86.973 255.194,95.785 257.895,102.433 254.485 C 105.630 252.845,185.249 189.295,188.316 185.934 C 192.291 181.581,193.063 175.225,190.346 169.240 C 188.973 166.216,182.597 160.771,147.990 133.070 C 125.584 115.134,105.914 99.552,104.280 98.443 C 100.394 95.806,92.224 95.613,88.206 98.064 M183.743 226.579 C 176.632 230.841,173.980 239.537,177.648 246.564 C 178.736 248.649,181.102 251.529,182.906 252.964 L 186.185 255.573 224.000 255.573 L 261.815 255.573 265.094 252.964 C 266.898 251.529,269.264 248.649,270.352 246.564 C 274.040 239.500,271.338 230.753,264.171 226.552 L 260.543 224.427 223.925 224.435 L 187.307 224.443 183.743 226.579 " stroke="none" fill="black" fill-rule="evenodd"></path></svg>