<svg xmlns="http://www.w3.org/2000/svg" width="512" height="512" viewBox="0 0 512 512"><path d="M66.133 33.673 C 44.571 38.400,26.651 54.647,19.034 76.373 L 16.640 83.200 16.640 256.000 L 16.640 428.800 19.034 435.627 C 22.594 445.782,27.516 453.506,35.346 461.227 C 46.539 472.263,58.080 477.730,74.050 479.560 C 84.206 480.723,427.794 480.723,437.950 479.560 C 453.920 477.730,465.461 472.263,476.654 461.227 C 484.484 453.506,489.406 445.782,492.966 435.627 L 495.360 428.800 495.360 256.000 L 495.360 83.200 492.966 76.373 C 489.516 66.533,484.475 58.521,477.084 51.129 C 469.698 43.744,461.691 38.707,451.840 35.249 L 445.013 32.853 258.133 32.702 C 106.404 32.579,70.290 32.762,66.133 33.673 M104.280 98.443 C 105.914 99.552,125.584 115.134,147.990 133.070 C 191.371 167.794,191.933 168.337,191.981 175.601 C 192.003 178.793,190.070 183.897,187.914 186.340 C 185.382 189.210,105.532 252.894,102.400 254.541 C 98.238 256.731,91.635 256.156,87.195 253.217 C 80.287 248.645,78.086 237.836,82.735 231.308 C 83.822 229.781,99.155 216.994,116.809 202.893 C 134.463 188.792,149.236 176.959,149.639 176.599 C 150.042 176.238,135.350 163.925,116.991 149.237 C 88.867 126.737,83.327 121.946,81.810 118.814 C 78.239 111.436,81.008 102.453,88.206 98.064 C 92.224 95.613,100.394 95.806,104.280 98.443 M264.041 226.476 C 272.790 231.603,274.303 244.613,266.949 251.479 C 262.224 255.892,261.194 256.000,224.000 256.000 C 186.806 256.000,185.776 255.892,181.051 251.479 C 173.735 244.649,175.200 231.701,183.875 226.500 L 187.307 224.443 223.925 224.435 L 260.543 224.427 264.041 226.476 " stroke="none" fill-rule="evenodd" fill="black"></path></svg>