<svg xmlns="http://www.w3.org/2000/svg" width="512" height="512" viewBox="0 0 512 512"><path d="M79.990 241.685 C 38.872 347.883,4.969 435.451,4.652 436.280 C 4.106 437.702,5.417 437.774,27.722 437.560 L 51.371 437.333 54.722 428.373 C 56.564 423.445,65.987 398.389,75.660 372.693 L 93.248 325.973 156.064 325.988 L 218.880 326.002 239.787 381.863 L 260.693 437.723 284.310 437.742 L 307.927 437.760 306.002 432.853 C 304.943 430.155,270.733 342.891,229.979 238.933 C 189.225 134.976,155.627 49.622,155.316 49.258 C 155.005 48.894,121.108 135.486,79.990 241.685 M179.022 221.013 C 191.259 253.163,201.531 280.139,201.847 280.960 C 202.391 282.371,199.874 282.453,156.251 282.453 C 130.857 282.453,110.080 282.165,110.080 281.813 C 110.080 280.126,155.801 161.455,156.253 161.969 C 156.539 162.294,166.785 188.864,179.022 221.013 M393.387 170.700 C 359.631 174.227,328.540 195.389,313.723 224.921 C 312.093 228.169,309.231 234.352,307.362 238.661 L 303.965 246.496 324.049 255.111 C 335.095 259.849,344.218 263.619,344.322 263.489 C 344.427 263.360,346.368 259.029,348.637 253.867 C 350.905 248.704,353.702 242.944,354.852 241.067 C 362.668 228.303,376.623 218.586,391.760 215.366 C 400.410 213.526,415.488 214.173,423.680 216.736 C 446.573 223.898,461.576 244.202,461.639 268.108 L 461.653 273.815 458.027 274.257 C 456.032 274.499,448.256 274.921,440.747 275.195 C 426.473 275.715,402.364 277.561,389.973 279.083 C 361.671 282.560,340.825 291.223,325.127 306.032 C 315.269 315.331,308.493 326.762,304.959 340.053 C 302.513 349.254,302.722 369.972,305.360 379.733 C 312.981 407.933,331.980 426.981,360.363 434.881 C 370.062 437.580,390.969 438.574,404.231 436.967 C 424.481 434.512,444.176 427.776,457.114 418.880 C 459.076 417.530,460.900 416.427,461.167 416.427 C 461.435 416.427,461.653 421.227,461.653 427.093 L 461.653 437.760 483.869 437.760 L 506.085 437.760 505.798 346.667 C 505.517 257.408,505.475 255.427,503.714 248.320 C 494.817 212.415,473.594 187.907,441.373 176.334 C 427.723 171.431,408.260 169.146,393.387 170.700 M461.653 322.049 C 461.653 324.114,460.900 330.210,459.979 335.596 C 453.530 373.322,431.035 392.672,391.118 394.831 C 375.463 395.678,365.574 392.773,357.223 384.876 C 347.063 375.266,343.676 356.881,349.841 344.798 C 354.008 336.628,365.787 329.171,380.365 325.473 C 392.192 322.473,430.325 318.850,454.613 318.418 L 461.653 318.293 461.653 322.049 " stroke="none" fill-rule="evenodd" fill="black"></path></svg>