<svg xmlns="http://www.w3.org/2000/svg" width="512" height="512" viewBox="0 0 512 512"><path d="M146.954 80.323 C 145.410 80.768,142.722 82.563,140.980 84.312 C 138.048 87.257,133.332 99.444,77.344 248.759 C 44.086 337.456,16.679 411.442,16.439 413.173 C 15.767 418.022,16.895 422.145,19.795 425.449 C 26.298 432.855,35.468 433.495,42.612 427.041 C 45.676 424.273,47.059 420.933,65.387 372.047 L 84.900 320.000 151.995 320.000 L 219.091 320.000 237.221 368.427 C 247.193 395.061,256.101 418.632,257.018 420.806 C 259.110 425.770,262.228 428.790,266.999 430.474 C 271.983 432.232,273.573 432.130,278.746 429.722 C 284.355 427.110,287.775 421.813,287.761 415.757 C 287.754 412.529,275.831 379.948,227.449 250.946 C 194.282 162.514,166.607 89.119,165.950 87.848 C 164.271 84.601,160.084 81.289,156.347 80.251 C 152.610 79.213,150.754 79.227,146.954 80.323 M206.495 286.933 C 206.501 287.285,181.931 287.573,151.893 287.573 C 121.856 287.573,97.280 287.444,97.280 287.285 C 97.280 287.036,148.367 150.672,151.040 143.787 C 151.974 141.382,153.685 145.626,179.258 213.760 C 194.232 253.653,206.488 286.581,206.495 286.933 M384.499 176.731 C 360.470 180.236,335.438 195.488,321.471 215.134 C 316.097 222.692,310.462 234.127,309.992 238.427 C 309.399 243.847,313.291 250.607,318.569 253.323 C 324.131 256.186,329.190 256.042,334.310 252.876 C 337.578 250.855,338.940 249.109,342.523 242.347 C 345.934 235.909,348.405 232.652,354.529 226.522 C 361.008 220.038,363.535 218.167,370.347 214.811 C 381.246 209.441,387.859 207.975,401.067 208.004 C 422.354 208.050,438.549 215.350,450.556 230.312 C 458.922 240.736,462.772 252.075,463.802 269.321 L 464.417 279.637 447.889 280.226 C 397.867 282.007,367.418 286.233,349.843 293.831 C 326.319 304.001,311.849 319.502,306.213 340.568 C 303.554 350.509,303.533 366.716,306.165 377.352 C 311.487 398.854,325.803 416.168,345.878 425.380 C 357.401 430.668,365.481 432.184,381.867 432.132 C 414.093 432.029,439.062 423.779,458.453 406.826 L 464.213 401.791 464.213 410.416 C 464.213 420.394,465.169 423.374,469.622 427.284 C 474.818 431.846,481.280 432.689,487.340 429.594 C 490.676 427.890,494.784 422.795,495.360 419.645 C 495.640 418.110,495.734 380.373,495.568 335.787 C 495.273 256.751,495.221 254.549,493.478 247.893 C 488.332 228.236,481.247 215.254,468.960 202.967 C 454.938 188.946,435.719 179.555,415.203 176.702 C 407.606 175.645,391.841 175.660,384.499 176.731 M463.510 319.147 C 463.376 323.136,462.697 330.048,462.001 334.507 C 456.671 368.676,438.996 389.332,408.259 397.315 C 396.771 400.298,375.339 401.156,366.994 398.967 C 359.330 396.956,353.752 393.930,348.426 388.893 C 340.210 381.122,336.252 371.350,336.226 358.768 C 336.193 343.134,343.550 332.422,359.622 324.704 C 368.902 320.247,378.074 317.898,392.960 316.163 C 410.116 314.165,449.803 311.634,460.784 311.838 L 463.755 311.893 463.510 319.147 " stroke="none" fill-rule="evenodd" fill="black"></path></svg>