<svg xmlns="http://www.w3.org/2000/svg" width="512" height="512" viewBox="0 0 512 512"><path d="M146.502 74.324 C 142.556 75.253,136.411 79.349,134.103 82.591 C 133.174 83.896,105.046 157.912,71.597 247.069 C 23.494 375.286,10.702 410.205,10.406 414.109 C 9.708 423.286,14.730 431.534,23.260 435.224 C 34.164 439.942,46.337 435.556,51.541 425.037 C 52.606 422.883,61.483 399.712,71.266 373.547 L 89.054 325.973 151.972 325.973 L 214.891 325.973 217.079 331.733 C 218.283 334.901,226.737 357.415,235.867 381.763 C 246.980 411.401,253.274 427.054,254.910 429.123 C 258.480 433.637,265.821 437.077,271.964 437.115 C 277.897 437.152,281.950 435.568,286.544 431.418 C 291.107 427.295,293.718 421.581,293.770 415.602 C 293.807 411.388,287.278 393.450,233.037 248.747 C 199.611 159.573,171.343 85.204,170.218 83.482 C 167.501 79.322,163.107 76.073,158.196 74.595 C 153.729 73.250,151.306 73.194,146.502 74.324 M155.963 168.747 C 177.351 225.044,197.213 279.274,196.820 280.298 C 196.381 281.442,190.936 281.600,151.970 281.600 C 120.152 281.600,107.454 281.330,107.030 280.644 C 106.705 280.118,116.351 253.238,128.465 220.911 C 145.979 174.174,150.794 162.133,151.971 162.133 C 153.032 162.133,154.162 164.006,155.963 168.747 M381.867 171.198 C 366.744 173.926,355.134 178.631,342.212 187.272 C 327.612 197.034,316.472 209.623,308.662 225.187 C 304.721 233.042,304.217 234.649,304.249 239.267 C 304.336 251.763,313.702 261.291,325.899 261.291 C 335.473 261.291,341.110 257.347,346.952 246.563 C 354.146 233.281,361.519 225.871,373.552 219.829 C 388.873 212.136,408.410 211.784,424.002 218.918 C 438.252 225.439,449.809 238.650,455.156 254.529 C 456.724 259.186,458.407 272.366,457.539 273.188 C 457.220 273.489,448.128 274.177,437.333 274.717 C 414.662 275.850,392.388 277.716,380.160 279.506 C 337.462 285.755,308.479 307.506,300.315 339.429 C 295.760 357.238,298.147 378.722,306.548 395.520 C 316.314 415.050,335.252 430.020,357.268 435.611 C 386.664 443.077,428.329 435.571,453.973 418.188 L 457.813 415.585 458.395 418.912 C 459.658 426.134,465.078 432.973,471.831 435.866 C 475.748 437.544,484.252 437.544,488.169 435.866 C 492.850 433.861,497.555 429.261,499.754 424.540 L 501.743 420.267 501.752 341.232 C 501.761 255.655,501.758 255.588,497.057 241.058 C 485.225 204.487,453.811 177.060,416.900 171.073 C 407.284 169.514,390.881 169.572,381.867 171.198 M457.080 325.333 C 455.840 340.979,451.447 355.328,444.804 365.430 C 432.780 383.714,414.294 392.839,386.987 393.968 C 368.485 394.734,359.197 391.832,350.826 382.673 C 344.534 375.790,342.704 370.438,342.668 358.827 C 342.642 350.299,342.846 349.047,344.896 345.139 C 350.734 334.018,365.595 326.171,386.728 323.053 C 400.854 320.968,430.627 318.713,447.486 318.451 L 457.638 318.293 457.080 325.333 " stroke="none" fill-rule="evenodd" fill="black"></path></svg>