<svg xmlns="http://www.w3.org/2000/svg" width="512" height="512" viewBox="0 0 512 512"><path d="M241.955 17.553 C 238.689 18.201,232.929 20.222,229.155 22.044 C 212.123 30.266,200.600 43.480,194.431 61.867 L 192.427 67.840 192.169 179.627 L 191.911 291.413 186.330 295.680 C 175.293 304.117,162.800 319.615,155.761 333.601 C 151.541 341.988,147.071 356.013,145.434 366.008 C 143.581 377.320,144.159 397.044,146.663 407.893 C 151.702 429.732,161.710 447.773,177.431 463.360 C 211.938 497.572,263.564 505.545,307.027 483.373 C 318.624 477.457,326.122 471.906,335.805 462.068 C 368.490 428.857,377.101 378.862,357.460 336.349 C 350.530 321.349,337.591 304.795,325.672 295.680 L 320.093 291.413 319.833 179.627 L 319.573 67.840 317.569 61.867 C 311.518 43.833,300.174 30.666,283.733 22.592 C 271.289 16.482,256.397 14.685,241.955 17.553 M261.002 48.680 C 263.988 49.165,268.260 50.488,270.495 51.621 C 276.031 54.426,282.286 60.893,284.944 66.558 L 287.147 71.253 287.573 186.027 C 288.032 309.418,287.794 303.303,292.370 309.470 C 293.470 310.953,298.389 315.270,303.301 319.062 C 318.445 330.752,328.834 346.113,333.247 363.337 C 336.341 375.415,336.320 392.312,333.196 404.765 C 331.104 413.105,323.302 427.966,317.233 435.171 C 309.681 444.135,302.282 449.895,291.413 455.268 C 278.525 461.639,269.882 463.653,255.573 463.618 C 246.486 463.596,243.006 463.201,236.327 461.434 C 213.446 455.380,195.296 440.592,184.751 419.413 C 178.614 407.089,176.443 397.997,176.518 384.939 C 176.584 373.408,177.074 369.366,179.375 361.387 C 184.296 344.314,194.780 329.276,209.316 318.440 C 218.602 311.517,219.491 310.582,222.047 305.035 L 224.000 300.800 224.427 186.027 L 224.853 71.253 227.056 66.558 C 231.257 57.603,240.727 50.317,250.220 48.736 C 252.695 48.323,254.912 47.944,255.147 47.893 C 255.381 47.842,258.016 48.196,261.002 48.680 M247.743 98.579 C 245.783 99.754,243.287 102.150,242.196 103.904 L 240.213 107.093 239.988 222.886 L 239.763 338.678 234.015 341.489 C 226.430 345.197,217.316 354.253,213.560 361.813 C 203.923 381.209,207.280 402.697,222.291 417.709 C 241.253 436.671,270.747 436.671,289.709 417.709 C 308.671 398.747,308.671 369.271,289.709 350.283 C 285.704 346.273,281.837 343.372,277.985 341.489 L 272.237 338.678 272.012 222.886 L 271.787 107.093 269.792 103.886 C 265.287 96.639,255.078 94.182,247.743 98.579 " stroke="none" fill-rule="evenodd" fill="black"></path></svg>