<svg xmlns="http://www.w3.org/2000/svg" width="512" height="512" viewBox="0 0 512 512"><path d="M242.773 17.438 C 218.933 23.018,201.099 39.890,194.009 63.573 C 192.574 68.365,192.459 75.830,192.206 180.053 L 191.936 291.413 188.768 293.669 C 179.640 300.168,167.906 313.113,160.624 324.718 C 153.728 335.707,147.956 351.413,145.425 366.080 C 143.355 378.070,144.134 398.423,147.116 410.280 C 157.520 451.643,188.460 482.466,230.166 493.015 C 238.628 495.156,240.685 495.340,256.000 495.332 C 270.568 495.324,273.649 495.073,280.747 493.320 C 323.215 482.829,354.294 452.081,364.934 410.027 C 367.864 398.447,368.628 377.977,366.575 366.080 C 364.044 351.413,358.272 335.707,351.376 324.718 C 344.094 313.113,332.360 300.168,323.232 293.669 L 320.064 291.413 319.794 180.053 C 319.541 75.830,319.426 68.365,317.991 63.573 C 311.512 41.931,295.343 25.327,274.347 18.755 C 266.662 16.349,250.335 15.669,242.773 17.438 M272.213 217.547 L 272.213 338.666 277.973 341.483 C 285.648 345.235,294.725 354.271,298.427 361.843 C 308.025 381.477,304.714 402.674,289.690 417.775 C 263.506 444.093,218.709 431.679,209.509 395.554 C 206.781 384.845,208.239 372.755,213.573 361.843 C 217.222 354.379,226.315 345.298,234.027 341.417 L 239.787 338.518 239.787 217.472 L 239.787 96.427 256.000 96.427 L 272.213 96.427 272.213 217.547 " stroke="none" fill-rule="evenodd" fill="black"></path></svg>