<svg xmlns="http://www.w3.org/2000/svg" width="512" height="512" viewBox="0 0 512 512"><path d="M242.773 17.626 C 222.298 21.993,204.755 36.564,196.985 55.659 C 191.835 68.314,192.000 64.130,191.996 181.511 C 191.991 282.179,191.898 288.994,190.502 291.121 C 189.683 292.368,186.262 295.718,182.899 298.565 C 163.643 314.869,149.833 339.732,145.466 365.960 C 143.349 378.670,144.077 398.164,147.120 410.280 C 157.504 451.626,188.459 482.466,230.166 493.015 C 238.628 495.156,240.685 495.340,256.000 495.332 C 270.568 495.324,273.649 495.073,280.747 493.320 C 323.600 482.734,354.734 451.600,365.320 408.747 C 367.076 401.640,367.323 398.588,367.323 384.000 C 367.323 365.862,366.221 359.111,360.895 344.601 C 354.460 327.067,342.765 310.134,329.101 298.565 C 325.738 295.718,322.317 292.368,321.498 291.121 C 320.102 288.994,320.009 282.199,320.004 181.937 C 320.000 65.904,320.110 68.853,315.330 56.935 C 309.275 41.840,296.156 27.973,282.013 21.718 C 270.200 16.494,255.347 14.945,242.773 17.626 M263.861 98.337 C 265.873 99.468,268.185 101.820,269.524 104.097 L 271.787 107.947 272.213 221.076 L 272.640 334.206 274.700 337.212 C 275.833 338.865,279.212 341.869,282.209 343.886 C 307.711 361.055,311.323 395.975,289.841 417.669 C 280.378 427.226,269.636 431.757,256.393 431.777 C 244.167 431.795,232.996 427.660,224.306 419.900 C 200.872 398.976,203.671 361.030,229.911 343.934 C 232.982 341.933,236.364 338.898,237.427 337.188 L 239.360 334.080 239.787 221.013 C 240.176 117.738,240.336 107.725,241.630 105.387 C 243.158 102.628,246.849 98.938,249.600 97.420 C 252.624 95.752,260.117 96.234,263.861 98.337 " stroke="none" fill-rule="evenodd" fill="black"></path></svg>