<svg xmlns="http://www.w3.org/2000/svg" width="512" height="512" viewBox="0 0 512 512"><path d="M71.870 34.109 C 62.069 37.636,54.069 46.325,50.450 57.373 C 49.487 60.314,41.376 94.865,32.426 134.154 L 16.152 205.588 16.396 247.648 L 16.640 289.707 19.384 295.499 C 24.709 306.742,35.839 315.552,48.649 318.663 C 52.051 319.490,84.447 322.324,132.659 326.014 C 175.819 329.317,211.291 332.180,211.486 332.375 C 211.681 332.569,206.633 353.001,200.270 377.778 C 193.906 402.555,188.290 425.105,187.790 427.890 C 184.461 446.418,190.171 460.238,203.947 466.994 C 208.813 469.381,246.503 480.296,248.276 479.832 C 249.903 479.406,242.223 491.247,316.792 374.187 C 351.472 319.744,380.632 274.528,381.591 273.707 C 383.214 272.317,387.247 272.213,439.561 272.213 L 495.787 272.213 495.787 168.133 L 495.787 64.052 432.427 63.813 L 369.067 63.573 326.282 49.257 C 302.751 41.383,280.541 34.375,276.927 33.684 C 271.373 32.621,255.346 32.431,173.365 32.457 C 80.282 32.487,76.192 32.554,71.870 34.109 " stroke="none" fill-rule="evenodd" fill="black"></path></svg>