<svg xmlns="http://www.w3.org/2000/svg" width="512" height="512" viewBox="0 0 512 512"><path d="M264.960 33.631 C 261.658 35.099,259.782 37.301,254.724 45.653 C 252.450 49.408,241.483 65.920,230.354 82.347 C 185.551 148.476,167.841 177.283,145.890 219.733 C 142.007 227.243,138.026 234.300,137.042 235.417 C 133.646 239.271,130.897 239.787,113.734 239.787 C 80.889 239.789,68.161 242.662,51.200 253.905 C 40.327 261.112,29.004 274.288,23.733 285.867 C 22.344 288.917,20.195 294.677,18.957 298.667 C 16.708 305.914,16.706 305.946,16.407 340.349 C 16.081 377.838,16.432 382.482,20.474 394.071 C 28.101 415.940,44.859 433.565,66.115 442.074 C 79.524 447.442,84.527 447.976,121.522 447.989 L 154.724 448.000 162.909 453.316 C 188.075 469.662,211.987 477.430,243.760 479.579 C 263.852 480.939,305.096 478.530,317.488 475.274 C 319.613 474.716,322.300 474.842,326.448 475.697 C 332.222 476.887,380.583 479.615,398.507 479.761 C 408.666 479.845,414.673 478.462,422.822 474.164 C 429.184 470.809,438.282 461.928,441.886 455.554 C 447.379 445.842,449.342 431.907,446.737 421.120 C 445.225 414.859,445.177 413.867,446.385 413.867 C 446.904 413.867,449.812 412.682,452.846 411.234 C 459.175 408.213,468.722 399.658,472.724 393.421 C 480.496 381.311,482.042 364.008,476.574 350.340 L 474.385 344.868 481.069 338.194 C 492.244 327.037,496.298 316.801,495.543 301.653 C 495.051 291.791,493.055 285.270,488.360 278.187 C 483.286 270.529,476.653 264.796,468.278 260.829 C 461.913 257.814,460.857 257.023,461.254 255.573 C 464.860 242.397,464.850 233.860,461.218 223.040 C 456.003 207.506,443.505 195.229,428.384 190.787 C 425.808 190.030,418.320 189.034,411.744 188.574 C 384.163 186.641,298.940 179.939,297.139 179.561 C 295.393 179.194,295.245 178.812,295.749 175.975 C 298.090 162.787,302.347 149.817,315.557 115.627 C 323.072 96.179,324.487 90.524,324.440 80.140 C 324.316 52.650,302.844 32.391,273.920 32.475 C 270.400 32.485,266.368 33.005,264.960 33.631 M285.954 67.634 C 289.582 70.044,292.693 76.062,292.693 80.666 C 292.693 85.496,291.162 90.267,282.391 112.753 C 269.090 146.854,263.930 165.064,263.079 180.907 C 262.498 191.719,264.441 197.179,271.285 203.974 C 276.672 209.321,279.266 210.332,289.849 211.212 L 296.818 211.792 294.298 215.763 C 290.345 221.993,288.307 229.674,288.264 238.507 C 288.203 250.836,291.164 259.764,297.824 267.330 C 299.696 269.456,301.216 271.520,301.203 271.918 C 301.190 272.315,300.018 273.780,298.599 275.173 C 284.987 288.534,284.694 317.007,298.010 332.313 L 300.927 335.666 296.898 340.989 C 292.114 347.310,289.476 353.910,288.436 362.169 C 286.789 375.240,290.491 388.352,298.160 396.613 C 300.048 398.647,300.531 399.733,299.926 400.586 C 290.200 414.307,288.270 419.554,288.296 432.213 C 288.306 436.907,288.695 441.989,289.161 443.508 C 289.710 445.299,289.715 446.451,289.176 446.784 C 287.328 447.927,248.324 448.249,239.189 447.198 C 214.118 444.312,198.094 438.299,175.787 423.405 L 165.973 416.853 126.720 416.357 C 92.464 415.924,86.869 415.669,82.773 414.355 C 66.820 409.240,54.669 396.959,49.782 381.013 C 48.378 376.431,48.213 372.532,48.213 343.893 C 48.213 313.233,48.292 311.642,50.104 305.885 C 55.109 289.976,70.501 275.937,86.090 273.061 C 88.618 272.595,99.370 272.207,109.983 272.199 C 132.199 272.181,137.851 271.331,147.627 266.536 C 158.424 261.240,163.702 255.114,173.009 237.079 C 191.901 200.469,208.397 172.861,236.402 130.987 C 276.726 70.691,280.178 65.707,281.625 65.707 C 282.411 65.707,284.359 66.574,285.954 67.634 M420.934 222.174 C 426.938 224.711,431.734 232.048,431.768 238.747 C 431.792 243.438,430.156 247.298,426.804 250.462 C 421.724 255.257,421.467 255.277,378.903 254.267 C 357.536 253.760,337.468 252.949,334.309 252.464 C 327.613 251.439,323.590 249.061,321.495 244.890 C 318.067 238.068,320.517 231.328,327.771 227.622 L 332.373 225.272 371.200 223.252 C 419.513 220.740,417.637 220.781,420.934 222.174 M455.861 290.337 C 460.565 292.981,463.604 298.379,463.604 304.090 C 463.604 311.084,460.267 315.967,453.578 318.762 C 450.492 320.051,445.562 320.084,393.003 319.169 C 332.386 318.113,329.831 317.916,324.724 313.899 C 320.344 310.453,318.761 303.539,321.249 298.726 C 322.995 295.350,327.172 292.043,330.986 291.016 C 334.252 290.136,387.457 288.812,429.537 288.562 C 451.824 288.430,452.555 288.480,455.861 290.337 M439.287 354.043 C 441.029 354.931,443.111 356.385,443.914 357.274 C 445.998 359.578,448.000 364.729,448.000 367.787 C 448.000 374.135,442.424 381.661,436.550 383.243 C 432.441 384.349,339.113 382.672,332.352 381.371 C 324.275 379.816,320.000 375.282,320.000 368.270 C 320.000 361.404,323.874 356.800,331.154 355.015 C 334.945 354.085,379.058 352.813,416.247 352.561 C 434.226 352.440,436.423 352.581,439.287 354.043 M406.456 417.384 C 409.212 418.800,412.999 422.508,414.370 425.131 C 417.250 430.644,414.987 440.533,409.935 444.506 C 405.212 448.222,403.464 448.300,366.850 446.446 C 347.888 445.486,330.913 444.267,329.128 443.737 C 327.343 443.208,324.655 441.678,323.155 440.337 C 320.630 438.082,320.427 437.497,320.427 432.497 C 320.427 425.957,322.441 422.576,327.899 419.954 C 331.109 418.412,334.088 418.128,354.133 417.454 C 388.314 416.305,404.314 416.284,406.456 417.384 " stroke="none" fill-rule="evenodd" fill="black"></path></svg>