<svg xmlns="http://www.w3.org/2000/svg" width="512" height="512" viewBox="0 0 512 512"><path d="M260.828 35.200 C 259.681 36.725,230.256 82.709,195.440 137.387 C 160.623 192.064,131.355 237.472,130.400 238.293 C 128.785 239.683,124.757 239.787,72.439 239.787 L 16.213 239.787 16.213 343.862 L 16.213 447.938 79.573 448.182 L 142.933 448.427 186.880 463.096 C 211.051 471.164,233.515 478.268,236.800 478.882 C 241.498 479.761,263.178 480.000,338.347 480.000 C 445.654 480.000,438.724 480.402,448.174 473.635 C 453.883 469.547,459.084 462.156,461.550 454.627 C 462.513 451.686,470.624 417.135,479.574 377.846 L 495.848 306.412 495.604 264.307 L 495.360 222.201 492.158 215.724 C 486.427 204.131,474.100 195.102,460.969 192.878 C 457.826 192.345,420.549 189.257,378.132 186.016 C 335.715 182.774,300.832 179.943,300.614 179.726 C 300.397 179.508,305.415 159.045,311.765 134.252 C 324.313 85.263,325.125 81.590,325.110 73.870 C 325.083 60.130,319.526 51.005,307.487 44.934 C 302.977 42.660,267.989 32.427,264.723 32.427 C 263.678 32.427,262.033 33.598,260.828 35.200 " stroke="none" fill-rule="evenodd" fill="black"></path></svg>