<svg xmlns="http://www.w3.org/2000/svg" width="512" height="512" viewBox="0 0 512 512"><path d="M264.107 34.378 C 262.088 35.516,259.647 37.997,258.133 40.450 C 254.905 45.681,237.351 72.047,211.490 110.507 C 182.884 153.050,169.084 175.977,147.800 216.320 C 142.848 225.707,138.191 234.100,137.451 234.971 C 133.986 239.054,131.277 239.548,109.653 240.047 C 87.440 240.559,81.311 241.451,69.966 245.818 C 48.956 253.907,30.146 272.695,21.758 293.969 C 16.652 306.921,16.055 312.878,16.412 347.307 C 16.732 378.163,16.756 378.522,19.003 385.825 C 22.170 396.120,24.885 401.935,30.377 410.189 C 41.805 427.365,59.639 440.004,80.213 445.507 C 86.990 447.320,89.682 447.480,121.198 447.937 L 154.930 448.427 160.878 452.014 C 179.989 463.539,208.946 473.213,236.813 477.383 C 256.864 480.383,289.035 481.046,295.407 478.591 C 298.243 477.497,300.536 472.979,299.701 470.127 C 299.367 468.986,297.682 465.557,295.958 462.507 C 290.128 452.194,288.850 446.725,288.878 432.213 C 288.901 420.094,289.048 418.978,291.651 411.218 C 293.163 406.711,294.400 401.759,294.400 400.213 C 294.400 398.668,293.168 393.715,291.662 389.208 C 289.049 381.386,288.924 380.411,288.931 367.787 C 288.937 355.081,289.045 354.258,291.669 346.887 C 293.171 342.666,294.400 337.671,294.400 335.787 C 294.400 333.902,293.174 328.907,291.677 324.687 C 289.085 317.384,288.952 316.395,288.922 304.213 C 288.892 292.010,289.019 291.031,291.645 283.218 C 293.160 278.711,294.400 273.503,294.400 271.645 C 294.400 269.787,293.180 264.835,291.689 260.640 C 289.105 253.369,288.976 252.396,288.916 239.787 C 288.847 225.194,290.076 219.323,295.413 208.751 C 298.404 202.826,298.684 198.648,296.527 192.157 C 295.369 188.670,295.128 186.004,295.488 180.637 C 296.333 168.046,300.732 153.779,315.269 116.480 C 318.378 108.501,321.691 99.093,322.630 95.573 C 324.741 87.663,324.906 75.122,322.995 67.919 C 317.381 46.752,297.723 32.393,274.423 32.441 C 268.856 32.452,266.859 32.827,264.107 34.378 M385.707 198.074 C 357.312 200.283,332.348 202.286,330.231 202.527 C 319.830 203.709,309.955 210.358,306.295 218.642 C 303.235 225.566,303.378 235.953,306.624 242.563 C 309.465 248.347,314.139 251.972,322.049 254.526 C 326.712 256.031,330.938 256.278,362.667 256.896 C 382.144 257.275,408.469 257.613,421.166 257.646 L 444.252 257.707 448.684 255.498 C 456.442 251.632,461.874 243.482,463.589 233.133 C 466.267 216.972,454.296 197.039,440.450 194.606 C 438.736 194.305,414.101 195.865,385.707 198.074 M388.965 273.527 C 321.142 276.505,319.233 276.697,313.190 281.159 C 305.887 286.551,302.585 296.884,304.586 308.080 C 306.350 317.955,311.742 324.172,320.853 326.839 C 323.777 327.695,452.540 333.635,468.424 333.647 C 477.916 333.654,481.928 332.136,486.868 326.669 C 492.148 320.825,495.086 313.396,495.586 304.630 C 496.068 296.182,495.151 291.360,491.738 284.390 C 489.243 279.295,483.539 273.567,479.123 271.722 C 475.040 270.016,463.793 270.241,388.965 273.527 M390.827 346.488 C 325.750 348.558,325.356 348.579,320.217 350.317 C 314.825 352.140,309.453 356.544,307.175 361.008 C 304.372 366.502,303.300 375.128,304.551 382.125 C 306.377 392.343,311.639 398.291,321.280 401.036 C 323.157 401.570,354.645 403.518,391.253 405.364 C 467.033 409.184,462.797 409.355,469.961 402.191 C 485.208 386.944,482.345 355.650,464.908 346.961 C 459.528 344.280,460.122 344.284,390.827 346.488 M367.787 417.752 C 323.261 419.294,322.771 419.330,317.775 421.482 C 312.673 423.679,307.832 428.336,305.948 432.859 C 302.600 440.895,303.851 453.242,308.728 460.310 C 311.272 463.996,316.997 468.011,321.677 469.390 C 325.287 470.455,413.695 479.596,421.342 479.695 C 433.154 479.850,443.093 470.987,446.840 456.960 C 450.825 442.042,443.950 424.781,431.564 418.609 C 427.358 416.513,426.625 416.432,413.059 416.550 C 405.290 416.618,384.917 417.159,367.787 417.752 " stroke="none" fill-rule="evenodd" fill="black"></path></svg>