<svg xmlns="http://www.w3.org/2000/svg" width="512" height="512" viewBox="0 0 512 512"><path d="M99.083 33.775 C 88.127 36.722,75.823 46.351,70.114 56.446 C 64.621 66.158,62.658 80.093,65.263 90.880 C 66.937 97.815,66.978 97.643,63.360 98.918 C 54.649 101.989,43.073 111.836,38.201 120.320 C 31.268 132.394,30.184 148.557,35.430 161.669 L 37.615 167.132 30.862 173.806 C 23.532 181.050,19.838 187.220,17.554 196.031 C 15.021 205.807,16.164 218.785,20.388 228.213 C 24.736 237.918,35.906 248.481,46.098 252.525 C 50.599 254.312,51.248 254.842,50.799 256.365 C 48.575 263.925,47.670 270.669,48.124 276.307 C 49.827 297.466,64.637 315.996,84.056 321.264 C 87.397 322.170,111.177 324.376,152.567 327.618 C 187.434 330.349,216.152 332.775,216.386 333.008 C 216.970 333.593,213.805 347.807,211.154 356.496 C 209.952 360.436,204.815 374.477,199.739 387.697 C 188.804 416.172,187.510 420.864,187.560 431.860 C 187.683 459.174,208.772 479.283,237.769 479.736 C 247.177 479.883,249.079 478.697,255.573 468.638 C 258.389 464.276,270.992 445.464,283.579 426.834 C 326.991 362.579,344.551 333.948,366.112 292.267 C 374.051 276.921,374.636 276.087,379.059 273.829 C 381.882 272.389,384.260 272.213,400.971 272.213 C 421.807 272.213,429.727 271.397,439.858 268.204 C 466.000 259.965,484.935 240.203,493.363 212.363 C 495.167 206.402,495.281 204.318,495.579 171.651 C 495.919 134.296,495.602 130.048,491.590 118.253 C 485.048 99.019,471.198 82.844,453.296 73.530 C 436.776 64.936,430.539 64.008,389.256 64.003 L 357.391 64.000 348.300 58.293 C 324.938 43.628,304.375 36.258,278.613 33.317 C 268.562 32.170,235.521 32.182,220.971 33.339 C 214.658 33.841,205.218 34.979,199.992 35.868 C 193.337 37.000,189.681 37.252,187.790 36.710 C 183.967 35.613,177.198 35.103,147.627 33.683 C 115.714 32.151,105.048 32.171,99.083 33.775 M145.493 65.681 C 180.992 67.438,185.699 68.124,189.419 72.085 C 190.873 73.632,191.521 75.472,191.752 78.713 C 192.177 84.680,189.649 89.164,184.320 91.894 C 180.716 93.740,178.986 93.913,156.160 94.700 C 115.100 96.117,108.302 96.094,105.387 94.535 C 102.523 93.003,98.835 89.280,97.384 86.456 C 94.955 81.728,97.028 71.925,101.268 68.091 C 103.308 66.246,108.280 64.072,110.507 64.051 C 111.445 64.042,127.189 64.776,145.493 65.681 M270.507 64.866 C 295.935 67.072,313.226 73.287,335.646 88.281 C 341.074 91.911,346.974 95.219,348.757 95.633 C 350.541 96.047,368.143 96.395,387.874 96.406 C 427.887 96.429,429.504 96.609,439.397 102.141 C 449.940 108.037,458.501 118.858,462.218 130.987 C 463.622 135.569,463.787 139.468,463.787 168.107 C 463.787 198.767,463.708 200.358,461.896 206.115 C 457.541 219.958,445.665 232.446,432.213 237.330 C 427.588 239.009,424.702 239.248,402.347 239.812 C 374.588 240.512,371.455 241.075,361.071 247.231 C 352.214 252.482,347.667 258.200,338.938 275.068 C 330.114 292.117,314.005 320.912,305.208 335.360 C 288.421 362.929,232.569 445.777,230.541 446.116 C 228.074 446.529,223.273 442.684,221.164 438.606 C 218.166 432.808,218.901 427.251,224.662 412.160 C 238.109 376.935,240.639 369.886,243.493 359.680 C 249.353 338.726,250.533 326.257,247.438 317.986 C 245.350 312.405,239.976 306.060,235.330 303.690 C 232.562 302.278,222.072 300.475,216.125 300.388 C 215.506 300.380,216.129 298.716,217.649 296.320 C 221.653 290.010,223.693 282.361,223.736 273.493 C 223.797 261.164,220.836 252.236,214.176 244.670 C 212.304 242.544,210.773 240.456,210.773 240.029 C 210.773 239.602,211.938 238.137,213.362 236.773 C 227.004 223.703,227.320 195.008,213.990 179.687 L 211.073 176.334 215.102 171.011 C 222.094 161.774,225.102 149.933,223.560 137.725 C 222.415 128.670,218.177 119.088,213.444 114.854 C 212.444 113.960,211.627 112.905,211.627 112.510 C 211.627 112.115,213.331 109.477,215.413 106.648 C 223.298 95.937,225.797 81.841,222.540 66.448 C 222.350 65.549,224.163 65.170,230.400 64.803 C 244.650 63.965,260.410 63.990,270.507 64.866 M133.553 129.161 C 179.805 130.192,180.553 130.237,184.569 132.180 C 192.627 136.082,194.567 146.783,188.407 153.359 C 184.317 157.725,181.691 157.983,130.696 159.032 C 104.573 159.569,80.986 159.760,78.281 159.456 C 72.142 158.766,67.883 155.731,65.503 150.352 C 60.694 139.480,69.201 127.904,81.887 128.057 C 84.487 128.088,107.736 128.585,133.553 129.161 M146.356 193.596 C 179.503 194.180,179.663 194.191,183.858 196.291 C 189.032 198.881,191.204 201.739,191.762 206.694 C 192.474 213.006,187.978 219.035,181.094 221.001 C 178.117 221.851,128.577 223.188,80.640 223.712 C 60.284 223.935,60.137 223.923,56.450 221.844 C 47.278 216.672,45.515 203.557,53.045 196.526 C 57.759 192.125,58.984 191.980,87.040 192.515 C 101.355 192.787,128.047 193.274,146.356 193.596 M150.187 258.564 C 165.909 258.985,180.169 259.739,181.875 260.238 C 190.547 262.776,194.316 271.155,190.313 279.002 C 189.055 281.467,187.443 282.887,183.979 284.582 C 179.360 286.842,179.083 286.868,137.240 288.991 C 105.858 290.583,94.372 290.895,92.101 290.215 C 90.426 289.714,87.653 287.902,85.940 286.189 C 76.225 276.474,79.432 261.457,92.026 257.692 C 93.273 257.319,100.437 257.190,107.947 257.405 C 115.456 257.620,134.464 258.142,150.187 258.564 " stroke="none" fill-rule="evenodd" fill="black"></path></svg>