<svg xmlns="http://www.w3.org/2000/svg" width="512" height="512" viewBox="0 0 512 512"><path d="M80.436 34.609 C 58.624 45.478,58.880 82.831,80.840 93.575 C 85.308 95.761,86.200 95.886,96.337 95.737 C 121.988 95.360,185.099 92.911,188.828 92.148 C 194.515 90.984,198.851 88.591,202.409 84.653 C 206.390 80.246,207.749 76.078,207.751 68.267 C 207.753 59.824,205.699 53.988,201.039 49.194 C 194.658 42.628,193.325 42.360,140.754 37.108 C 114.987 34.533,91.860 32.427,89.360 32.427 C 86.195 32.427,83.485 33.089,80.436 34.609 M215.698 33.858 C 213.020 35.585,211.530 39.101,212.260 41.968 C 212.537 43.056,213.719 45.473,214.887 47.338 C 221.338 57.643,223.949 68.507,223.371 82.636 C 223.039 90.757,222.472 94.093,220.282 100.782 C 218.807 105.289,217.600 110.326,217.600 111.975 C 217.600 113.625,218.798 118.577,220.261 122.980 C 224.921 136.997,224.710 152.239,219.656 166.762 C 216.943 174.558,217.060 178.122,220.329 187.313 C 222.935 194.640,223.059 195.565,223.065 207.787 C 223.071 219.927,222.931 221.009,220.336 228.782 C 218.831 233.289,217.600 238.497,217.600 240.355 C 217.600 242.213,218.820 247.165,220.311 251.360 C 222.895 258.631,223.024 259.604,223.084 272.213 C 223.153 286.806,221.924 292.677,216.587 303.249 C 213.596 309.174,213.316 313.352,215.473 319.843 C 216.631 323.330,216.872 325.996,216.512 331.363 C 215.664 343.993,211.623 357.084,196.443 396.373 C 189.017 415.591,187.514 421.527,187.584 431.360 C 187.769 457.540,205.184 476.175,232.656 479.589 C 245.084 481.133,249.764 478.816,256.201 467.930 C 258.381 464.243,266.564 451.819,274.385 440.320 C 324.579 366.525,342.496 337.566,366.512 291.413 C 373.989 277.044,374.686 276.060,378.880 273.925 C 381.427 272.630,384.945 272.346,402.773 272.001 C 421.700 271.634,424.457 271.390,431.888 269.422 C 458.487 262.378,480.348 243.126,490.242 218.031 C 495.348 205.079,495.945 199.122,495.588 164.693 C 495.268 133.837,495.244 133.478,492.997 126.175 C 489.845 115.930,487.118 110.069,481.742 101.990 C 473.014 88.872,461.554 79.025,446.983 72.123 C 432.130 65.087,429.266 64.677,390.827 64.089 L 357.120 63.573 350.293 59.564 C 330.330 47.841,304.115 39.147,274.773 34.518 C 268.632 33.550,258.297 32.987,241.920 32.731 C 220.179 32.390,217.817 32.492,215.698 33.858 M51.038 104.473 C 41.967 106.854,34.317 117.410,32.395 130.198 C 30.053 145.785,37.380 161.556,49.032 166.005 C 53.090 167.555,54.552 167.557,106.172 166.061 C 193.494 163.530,192.192 163.652,199.610 157.302 C 206.411 151.481,209.425 140.933,207.449 129.875 C 205.620 119.639,200.248 113.583,190.720 111.016 C 188.843 110.510,159.851 108.764,126.293 107.135 C 92.736 105.506,62.976 104.004,60.160 103.798 C 57.344 103.591,53.239 103.895,51.038 104.473 M31.494 180.468 C 22.851 184.971,17.107 195.219,16.414 207.370 C 16.153 211.940,16.391 216.554,17.016 219.038 C 19.573 229.210,26.206 237.760,33.722 240.573 C 38.034 242.186,38.505 242.176,113.110 238.964 C 181.598 236.014,188.547 235.582,192.591 234.020 C 201.339 230.640,205.748 225.247,207.422 215.876 C 210.144 200.648,203.133 187.963,190.415 185.106 C 187.222 184.388,52.137 178.309,41.099 178.386 C 36.818 178.416,34.445 178.931,31.494 180.468 M63.362 256.439 C 55.529 260.412,50.127 268.517,48.411 278.867 C 45.796 294.653,56.671 313.380,70.808 317.435 C 72.651 317.963,90.255 316.893,126.986 314.019 C 156.408 311.718,182.019 309.616,183.899 309.349 C 192.632 308.111,202.336 300.981,205.725 293.314 C 207.261 289.838,207.706 287.252,207.741 281.600 C 207.817 269.497,203.853 263.502,192.449 258.475 C 186.968 256.059,174.827 255.483,113.493 254.729 L 67.840 254.168 63.362 256.439 " stroke="none" fill-rule="evenodd" fill="black"></path></svg>