<svg xmlns="http://www.w3.org/2000/svg" width="512" height="512" viewBox="0 0 512 512"><path d="M240.640 16.759 C 239.467 16.931,235.627 17.477,232.107 17.971 C 201.105 22.328,170.620 38.136,146.773 62.219 C 136.148 72.949,128.243 83.821,121.217 97.367 L 116.081 107.267 109.625 107.813 C 87.473 109.685,63.085 121.946,45.806 139.895 C 11.296 175.744,6.348 230.180,33.806 271.906 C 48.940 294.905,73.110 311.331,101.547 317.945 C 107.026 319.219,113.749 319.482,148.267 319.770 C 183.126 320.060,188.587 320.277,188.587 321.367 C 188.587 322.061,185.671 339.990,182.107 361.208 C 176.337 395.557,175.733 400.198,176.590 403.537 C 177.887 408.588,180.338 411.818,184.605 414.099 C 187.894 415.858,189.484 416.021,205.822 416.275 L 223.484 416.549 223.742 450.408 C 224.024 487.453,223.913 486.623,229.257 491.679 C 232.357 494.612,235.516 495.787,240.303 495.787 C 248.597 495.787,247.151 497.496,292.288 434.316 C 315.101 402.385,334.356 374.846,335.078 373.120 C 337.668 366.920,334.795 358.774,328.641 354.872 L 324.786 352.427 308.740 352.427 C 299.914 352.427,292.693 352.228,292.693 351.984 C 292.693 351.741,294.469 344.445,296.639 335.771 L 300.586 320.000 356.159 319.997 C 416.506 319.994,419.903 319.781,433.493 315.137 C 460.924 305.763,482.378 283.982,491.412 256.333 C 499.079 232.867,496.508 205.691,484.611 184.429 C 469.672 157.730,442.341 140.002,412.241 137.488 L 405.922 136.960 403.990 129.707 C 392.610 86.992,362.986 51.053,323.245 31.752 C 307.333 24.023,292.642 19.684,274.806 17.442 C 266.036 16.340,246.195 15.944,240.640 16.759 M265.049 48.670 C 295.355 51.102,320.505 62.689,341.767 84.017 C 360.967 103.276,370.970 123.159,375.848 151.760 C 377.187 159.608,379.166 163.260,383.800 166.436 C 386.509 168.292,387.901 168.497,401.398 169.026 C 414.563 169.543,416.800 169.858,423.381 172.127 C 438.241 177.249,451.088 188.630,457.814 202.629 C 462.316 211.999,463.609 217.930,463.592 229.124 C 463.563 247.353,455.937 263.134,441.600 274.633 C 431.411 282.806,423.094 286.201,409.821 287.609 C 404.306 288.193,352.784 288.391,257.280 288.195 C 97.387 287.867,109.408 288.309,94.448 282.210 C 72.199 273.139,55.473 253.227,49.853 229.120 C 48.009 221.211,48.009 205.456,49.853 197.547 C 55.149 174.830,69.284 156.926,90.179 146.466 C 99.241 141.930,107.261 139.956,119.893 139.152 C 125.995 138.764,131.968 138.054,133.168 137.574 C 137.642 135.784,140.633 132.286,143.372 125.640 C 156.035 94.909,175.784 73.577,204.373 59.745 C 217.422 53.432,230.541 49.880,245.291 48.666 C 249.538 48.316,253.246 47.975,253.529 47.908 C 253.813 47.841,258.997 48.184,265.049 48.670 M267.093 320.878 C 267.093 321.360,264.597 331.717,261.547 343.893 C 255.800 366.831,255.387 369.463,256.906 373.491 C 257.887 376.094,262.218 380.978,264.960 382.573 C 265.899 383.119,271.589 383.759,277.606 383.996 L 288.545 384.427 272.486 406.925 L 256.427 429.423 256.000 411.891 C 255.525 392.364,255.561 392.490,248.828 387.036 L 245.606 384.427 228.152 384.150 C 212.310 383.899,210.736 383.741,211.101 382.443 C 211.323 381.657,213.668 367.765,216.312 351.573 C 218.956 335.381,221.275 321.653,221.466 321.067 C 221.916 319.684,267.093 319.497,267.093 320.878 M113.519 337.565 C 111.890 338.271,109.830 339.504,108.940 340.304 C 108.050 341.105,101.223 353.950,93.768 368.848 C 79.455 397.451,78.729 399.579,81.119 405.918 C 82.641 409.955,87.090 413.833,91.753 415.189 C 97.619 416.894,103.596 415.218,107.498 410.774 C 108.983 409.084,115.969 396.128,123.023 381.984 L 135.848 356.267 135.517 351.036 C 135.258 346.956,134.666 345.123,132.823 342.708 C 128.306 336.785,120.259 334.641,113.519 337.565 M392.738 338.014 C 390.739 339.004,388.382 340.827,387.500 342.067 C 386.618 343.306,380.094 355.958,373.002 370.183 C 358.956 398.354,358.546 399.681,361.739 406.712 C 362.616 408.644,364.624 411.201,366.200 412.394 C 369.207 414.669,375.321 416.700,377.295 416.080 C 377.932 415.880,379.502 415.486,380.784 415.206 C 386.248 414.010,388.776 410.276,401.919 384.001 C 408.878 370.090,414.987 357.166,415.494 355.280 C 416.214 352.608,416.141 350.920,415.162 347.625 C 412.321 338.056,401.780 333.538,392.738 338.014 M129.280 417.372 C 124.718 420.017,122.138 423.929,113.397 441.453 C 103.244 461.808,102.678 463.972,105.739 470.712 C 106.616 472.644,108.624 475.201,110.200 476.394 C 113.207 478.669,119.321 480.700,121.295 480.080 C 121.932 479.880,123.502 479.486,124.784 479.206 C 129.996 478.065,132.971 473.956,142.609 454.582 C 152.754 434.192,153.320 432.024,150.261 425.288 C 149.384 423.356,147.226 420.677,145.467 419.335 C 142.824 417.319,141.288 416.851,136.628 416.639 C 133.415 416.493,130.252 416.809,129.280 417.372 M409.131 417.581 C 404.810 419.540,402.057 423.728,392.829 442.381 C 383.191 461.864,382.625 464.090,385.633 470.712 C 389.493 479.213,400.716 482.477,408.553 477.376 C 412.039 475.107,412.330 474.631,422.426 454.621 C 430.431 438.756,431.786 435.480,431.785 432.007 C 431.784 426.942,429.749 422.853,425.568 419.512 C 422.889 417.372,421.430 416.885,417.035 416.666 C 413.797 416.504,410.720 416.860,409.131 417.581 " stroke="none" fill-rule="evenodd" fill="black"></path></svg>