<svg xmlns="http://www.w3.org/2000/svg" width="512" height="512" viewBox="0 0 512 512"><path d="M235.520 17.598 C 186.535 24.206,141.940 55.802,120.167 99.326 C 118.265 103.129,116.592 106.369,116.449 106.528 C 116.306 106.686,113.183 107.180,109.508 107.626 C 98.380 108.977,87.260 112.358,76.273 117.732 C 39.017 135.954,16.213 172.252,16.213 213.333 C 16.213 241.402,26.514 266.830,46.074 287.049 C 61.476 302.970,78.441 312.470,101.360 318.010 C 106.113 319.159,114.064 319.457,147.840 319.757 C 182.975 320.068,188.587 320.291,188.587 321.373 C 188.587 322.064,185.671 339.990,182.107 361.208 C 176.337 395.557,175.733 400.198,176.590 403.537 C 177.887 408.588,180.338 411.818,184.605 414.099 C 187.894 415.858,189.484 416.021,205.830 416.275 L 223.499 416.549 223.750 449.981 C 223.985 481.448,224.100 483.611,225.707 486.772 C 229.809 494.844,238.965 497.989,247.018 494.090 C 250.670 492.323,253.805 488.183,292.458 434.079 C 315.292 402.117,334.511 374.414,335.167 372.517 C 337.403 366.050,334.686 358.705,328.641 354.872 L 324.786 352.427 308.740 352.427 C 299.914 352.427,292.693 352.228,292.693 351.984 C 292.693 351.741,294.469 344.445,296.639 335.771 L 300.586 320.000 356.261 320.000 C 417.444 320.000,419.616 319.855,434.023 314.823 C 448.211 309.868,459.516 302.505,470.278 291.211 C 497.147 263.012,503.100 222.524,485.557 187.299 C 471.623 159.320,443.495 140.121,412.638 137.529 L 405.862 136.960 404.709 132.267 C 398.318 106.268,385.471 82.904,367.026 63.737 C 332.596 27.958,284.308 11.016,235.520 17.598 M113.519 337.565 C 111.890 338.271,109.826 339.504,108.932 340.304 C 108.038 341.105,101.211 353.973,93.760 368.900 C 79.475 397.518,78.751 399.638,81.119 405.918 C 82.641 409.955,87.090 413.833,91.753 415.189 C 95.550 416.293,96.571 416.292,100.322 415.178 C 102.875 414.420,105.652 412.793,107.256 411.117 C 108.799 409.505,115.421 397.297,122.890 382.293 L 135.848 356.267 135.517 351.036 C 135.258 346.956,134.666 345.123,132.823 342.708 C 128.306 336.785,120.259 334.641,113.519 337.565 M392.738 337.966 C 390.739 338.982,388.382 340.827,387.500 342.067 C 386.618 343.306,380.094 355.958,373.002 370.183 C 362.129 391.988,360.107 396.646,360.107 399.878 C 360.107 411.706,372.692 419.507,383.233 414.215 C 387.500 412.073,390.492 407.178,403.129 381.667 C 417.019 353.626,417.552 351.874,414.222 345.165 C 410.261 337.183,400.629 333.955,392.738 337.966 M129.280 417.372 C 124.718 420.017,122.138 423.929,113.397 441.453 C 105.740 456.804,104.107 460.750,104.107 463.895 C 104.107 475.656,116.740 483.526,127.147 478.248 C 131.309 476.137,133.932 472.109,142.860 454.118 C 152.733 434.224,153.306 431.992,150.261 425.288 C 149.384 423.356,147.226 420.677,145.467 419.335 C 142.824 417.319,141.288 416.851,136.628 416.639 C 133.415 416.493,130.252 416.809,129.280 417.372 M409.600 417.338 C 405.103 419.221,402.347 423.296,393.291 441.453 C 383.138 461.808,382.571 463.972,385.633 470.712 C 386.510 472.644,388.517 475.201,390.094 476.394 C 393.100 478.669,399.214 480.700,401.189 480.080 C 401.826 479.880,403.396 479.486,404.678 479.206 C 409.890 478.065,412.864 473.956,422.503 454.582 C 430.328 438.852,431.786 435.295,431.785 431.934 C 431.784 426.939,429.732 422.839,425.568 419.512 C 422.878 417.362,421.449 416.889,417.035 416.687 C 414.119 416.553,410.773 416.846,409.600 417.338 " stroke="none" fill-rule="evenodd" fill="black"></path></svg>