<svg xmlns="http://www.w3.org/2000/svg" width="512" height="512" viewBox="0 0 512 512"><path d="M235.520 17.598 C 186.535 24.206,141.940 55.802,120.167 99.326 C 118.265 103.129,116.592 106.369,116.449 106.528 C 116.306 106.686,113.183 107.180,109.508 107.626 C 98.380 108.977,87.260 112.358,76.273 117.732 C 39.017 135.954,16.213 172.252,16.213 213.333 C 16.213 241.402,26.514 266.830,46.074 287.049 C 61.474 302.968,78.402 312.449,101.360 318.014 C 106.161 319.177,114.205 319.461,150.827 319.757 C 191.127 320.083,194.560 320.224,194.554 321.549 C 194.551 322.340,190.388 343.815,185.302 369.272 C 180.216 394.728,176.250 415.752,176.489 415.992 C 176.729 416.231,187.420 416.427,200.249 416.427 L 223.573 416.427 223.573 455.751 C 223.573 480.282,223.879 494.969,224.386 494.791 C 224.833 494.635,249.984 462.635,280.278 423.680 L 335.358 352.853 314.026 352.625 C 302.293 352.500,292.693 352.205,292.693 351.970 C 292.693 351.734,294.469 344.445,296.639 335.771 L 300.586 320.000 356.261 320.000 C 417.444 320.000,419.616 319.855,434.023 314.823 C 448.211 309.868,459.516 302.505,470.278 291.211 C 497.147 263.012,503.100 222.524,485.557 187.299 C 471.623 159.320,443.495 140.121,412.638 137.529 L 405.862 136.960 404.709 132.267 C 398.318 106.268,385.471 82.904,367.026 63.737 C 332.596 27.958,284.308 11.016,235.520 17.598 M93.869 368.636 C 83.542 389.285,75.093 406.474,75.093 406.835 C 75.093 407.196,81.429 410.652,89.173 414.515 L 103.253 421.540 122.374 383.305 L 141.495 345.070 127.488 338.082 C 119.783 334.238,113.292 331.093,113.062 331.093 C 112.832 331.093,104.195 347.988,93.869 368.636 M373.762 368.636 C 363.436 389.285,354.987 406.474,354.987 406.835 C 354.987 407.196,361.323 410.652,369.067 414.515 L 383.146 421.540 402.267 383.305 L 421.388 345.070 407.381 338.082 C 399.677 334.238,393.185 331.093,392.955 331.093 C 392.725 331.093,384.088 347.988,373.762 368.636 M113.921 440.319 C 105.707 456.741,98.987 470.473,98.987 470.834 C 98.987 471.195,105.322 474.652,113.066 478.515 L 127.146 485.539 142.079 455.681 C 150.293 439.259,157.013 425.527,157.013 425.166 C 157.013 424.805,150.678 421.348,142.934 417.485 L 128.854 410.461 113.921 440.319 M393.814 440.319 C 385.600 456.741,378.880 470.473,378.880 470.834 C 378.880 471.195,385.216 474.652,392.959 478.515 L 407.039 485.539 421.973 455.681 C 430.186 439.259,436.907 425.527,436.907 425.166 C 436.907 424.805,430.571 421.348,422.827 417.485 L 408.748 410.461 393.814 440.319 " stroke="none" fill-rule="evenodd" fill="black"></path></svg>