<svg xmlns="http://www.w3.org/2000/svg" viewBox="0 0 512 512"><path d="M270.381 60.374 L 226.316 104.533 224.466 110.241 L 222.616 115.949 216.908 117.799 L 211.200 119.648 113.708 217.048 L 16.216 314.448 50.932 349.172 L 85.647 383.895 93.062 376.839 C 101.043 369.244,106.008 366.375,113.198 365.205 C 132.757 362.022,150.436 380.049,146.761 399.427 C 145.398 406.611,142.686 411.177,135.116 419.031 L 128.082 426.330 162.817 461.057 L 197.552 495.784 294.952 398.292 L 392.352 300.800 394.201 295.092 L 396.051 289.384 401.759 287.534 L 407.467 285.684 451.626 241.619 L 495.786 197.554 461.069 162.829 L 426.353 128.105 418.903 135.194 C 414.806 139.093,409.768 143.099,407.708 144.097 C 395.914 149.806,382.867 147.800,373.850 138.891 C 364.472 129.625,362.182 116.114,367.965 104.162 C 369.002 102.020,373.016 96.983,376.884 92.969 L 383.918 85.670 349.182 50.942 L 314.446 16.214 270.381 60.374 M256.429 128.002 L 272.627 144.218 261.753 155.092 L 250.879 165.966 234.460 149.548 L 218.042 133.130 228.688 122.458 C 234.544 116.589,239.536 111.787,239.782 111.787 C 240.029 111.787,247.520 119.084,256.429 128.002 M299.095 170.669 L 315.294 186.884 304.420 197.759 L 293.545 208.633 277.127 192.215 L 260.709 175.797 271.355 165.125 C 277.210 159.256,282.203 154.453,282.449 154.453 C 282.695 154.453,290.186 161.750,299.095 170.669 M341.557 213.130 L 357.551 229.141 346.659 240.009 L 335.766 250.877 319.574 234.667 L 303.381 218.458 314.024 207.789 C 319.878 201.921,324.869 197.120,325.116 197.120 C 325.362 197.120,332.761 204.325,341.557 213.130 M384.429 256.002 L 400.627 272.218 389.753 283.092 L 378.879 293.966 362.460 277.548 L 346.042 261.130 356.688 250.458 C 362.544 244.589,367.536 239.787,367.782 239.787 C 368.029 239.787,375.520 247.084,384.429 256.002 " stroke="none" fill-rule="evenodd" fill="black"></path></svg>