<svg xmlns="http://www.w3.org/2000/svg" viewBox="0 0 512 512"><path d="M308.480 17.848 C 306.195 18.918,292.177 32.377,266.062 58.576 C 228.021 96.739,226.981 97.871,223.990 104.362 L 220.923 111.018 214.355 113.996 C 207.788 116.973,207.762 116.999,113.619 211.020 C 48.620 275.936,18.956 306.124,17.851 308.480 C 15.764 312.932,15.759 320.225,17.841 324.693 C 18.885 326.935,28.177 336.768,44.915 353.344 C 66.199 374.421,70.979 378.746,73.912 379.584 C 81.276 381.687,86.001 380.528,94.825 374.457 C 101.609 369.790,107.172 368.278,115.502 368.835 C 130.560 369.843,142.201 381.479,143.177 396.498 C 143.718 404.833,142.200 410.406,137.543 417.175 C 130.921 426.799,129.909 432.441,133.467 439.893 C 136.115 445.440,183.011 492.448,187.919 494.476 C 192.233 496.258,199.339 496.109,203.520 494.149 C 205.876 493.045,236.068 463.377,300.983 398.381 C 394.743 304.504,395.042 304.193,398.067 297.618 L 401.102 291.022 407.698 287.983 C 414.111 285.027,415.374 283.866,453.424 245.938 C 479.623 219.823,493.082 205.805,494.152 203.520 C 495.030 201.643,495.755 198.379,495.763 196.267 C 495.795 187.482,495.781 187.464,469.044 160.576 C 455.358 146.813,442.816 134.860,441.173 134.014 C 433.405 130.011,427.421 130.779,418.115 136.972 C 410.172 142.259,405.017 143.735,396.498 143.165 C 385.559 142.433,376.805 136.502,371.871 126.480 C 369.294 121.244,369.067 120.124,369.072 112.658 C 369.077 105.088,369.268 104.184,371.879 99.413 C 373.421 96.597,375.813 92.565,377.196 90.453 C 380.292 85.726,381.201 79.957,379.716 74.466 C 378.719 70.777,376.277 68.039,353.362 44.915 C 336.790 28.193,326.933 18.884,324.693 17.841 C 320.228 15.761,312.933 15.764,308.480 17.848 M246.434 115.136 C 250.793 117.399,263.319 130.285,264.925 134.159 C 269.166 144.390,262.662 155.204,251.796 155.990 C 245.217 156.466,241.985 154.684,233.261 145.770 C 225.284 137.619,223.573 134.725,223.573 129.378 C 223.573 122.714,226.941 117.199,232.533 114.703 C 236.300 113.022,242.746 113.223,246.434 115.136 M290.807 159.494 C 292.549 160.389,297.289 164.518,301.342 168.670 C 310.237 177.784,311.760 181.437,309.722 188.774 C 307.240 197.711,297.091 202.733,288.613 199.218 C 284.738 197.612,271.852 185.086,269.590 180.727 C 267.634 176.959,267.415 169.894,269.150 166.571 C 270.458 164.069,274.188 160.360,276.907 158.860 C 279.677 157.332,287.275 157.678,290.807 159.494 M334.933 203.322 C 338.025 204.922,350.849 217.962,352.507 221.193 C 354.409 224.896,354.619 230.998,352.980 234.921 C 350.778 240.192,344.454 244.203,338.347 244.203 C 333.033 244.203,330.742 242.919,323.351 235.794 C 319.146 231.740,314.880 227.087,313.871 225.454 C 311.602 221.783,311.382 214.181,313.432 210.235 C 315.179 206.869,319.437 203.245,322.412 202.592 C 323.667 202.316,325.077 201.954,325.547 201.787 C 326.854 201.321,333.016 202.329,334.933 203.322 M378.282 247.128 C 382.073 249.026,394.870 261.724,396.864 265.566 C 400.600 272.765,397.988 282.430,391.263 286.293 C 382.375 291.399,377.777 290.079,366.763 279.257 C 362.207 274.781,357.886 269.868,357.160 268.337 C 355.136 264.072,355.457 257.074,357.858 253.107 C 361.883 246.458,371.388 243.675,378.282 247.128 " stroke="none" fill-rule="evenodd" fill="black"></path></svg>