<svg xmlns="http://www.w3.org/2000/svg" viewBox="0 0 512 512"><path d="M308.480 17.848 C 306.195 18.918,292.177 32.377,266.062 58.576 C 228.021 96.739,226.981 97.871,223.990 104.362 L 220.923 111.018 214.355 113.996 C 207.788 116.973,207.762 116.999,113.619 211.020 C 48.620 275.936,18.956 306.124,17.851 308.480 C 15.758 312.944,15.758 320.229,17.851 324.693 C 18.887 326.902,28.288 336.903,44.499 353.041 C 71.093 379.515,72.489 380.587,80.348 380.587 C 84.533 380.587,88.344 379.007,94.545 374.702 C 101.408 369.937,106.962 368.325,114.783 368.827 C 130.633 369.844,142.160 381.424,143.182 397.358 C 143.677 405.076,142.030 410.640,137.181 417.622 C 131.536 425.750,130.349 430.848,132.416 438.088 C 133.254 441.021,137.579 445.801,158.656 467.085 C 175.232 483.823,185.065 493.115,187.307 494.159 C 191.775 496.241,199.068 496.236,203.520 494.149 C 205.876 493.045,236.068 463.377,300.983 398.381 C 395.012 304.234,395.034 304.212,398.095 297.558 L 401.157 290.902 407.725 287.919 C 414.133 285.009,415.248 283.985,453.424 245.935 C 479.626 219.819,493.082 205.806,494.152 203.520 C 496.236 199.067,496.239 191.772,494.159 187.307 C 493.115 185.065,483.823 175.232,467.085 158.656 C 445.801 137.579,441.021 133.254,438.088 132.416 C 430.557 130.266,425.948 131.376,417.342 137.413 C 411.365 141.605,405.978 143.360,399.086 143.360 C 381.108 143.360,367.580 128.685,368.862 110.574 C 369.325 104.037,370.850 100.059,375.414 93.480 C 380.457 86.212,381.585 80.920,379.584 73.912 C 378.746 70.979,374.421 66.199,353.344 44.915 C 336.768 28.177,326.935 18.885,324.693 17.841 C 320.228 15.761,312.933 15.764,308.480 17.848 M330.770 67.517 L 344.546 81.273 342.152 86.553 C 333.664 105.272,334.714 127.576,344.900 144.915 C 348.546 151.123,360.877 163.454,367.085 167.100 C 374.168 171.261,383.310 174.157,392.626 175.191 C 403.273 176.372,414.015 174.756,423.891 170.486 L 430.780 167.508 444.716 181.463 L 458.653 195.419 427.086 226.997 C 409.725 244.366,394.802 258.805,393.925 259.085 C 392.750 259.459,390.841 258.133,386.672 254.045 C 383.560 250.994,379.784 247.882,378.282 247.129 C 370.778 243.367,359.700 247.630,356.750 255.416 C 355.596 258.463,355.578 264.587,356.715 267.578 C 357.197 268.845,360.304 272.679,363.621 276.100 C 368.011 280.627,369.516 282.743,369.153 283.879 C 368.879 284.738,329.677 324.413,282.038 372.048 L 195.421 458.655 181.465 444.718 L 167.508 430.780 170.447 423.982 C 176.828 409.223,177.349 393.276,171.958 377.741 C 168.906 368.945,165.024 363.027,156.965 354.880 C 150.600 348.445,148.519 346.946,140.752 343.197 C 129.942 337.980,124.460 336.750,112.213 336.792 C 101.884 336.828,95.228 338.219,86.553 342.152 L 81.273 344.546 67.309 330.562 L 53.345 316.579 139.952 229.962 C 187.587 182.323,227.262 143.121,228.121 142.847 C 229.257 142.484,231.373 143.989,235.900 148.379 C 242.754 155.025,244.889 156.160,250.536 156.160 C 259.783 156.160,266.240 149.669,266.240 140.373 C 266.240 134.825,265.084 132.653,258.538 125.902 C 255.265 122.526,252.587 119.229,252.587 118.575 C 252.587 117.511,315.511 53.760,316.562 53.760 C 316.800 53.760,323.194 59.951,330.770 67.517 M276.907 158.860 C 269.536 162.927,266.340 169.950,268.344 177.675 C 269.277 181.272,270.655 183.171,277.020 189.628 C 287.406 200.166,292.675 202.347,300.176 199.213 C 304.392 197.451,307.094 194.851,309.000 190.720 C 310.934 186.531,311.027 182.703,309.298 178.533 C 307.692 174.658,295.166 161.772,290.807 159.510 C 287.277 157.678,279.692 157.323,276.907 158.860 M322.266 202.631 C 318.040 204.138,315.053 206.925,313.080 211.200 C 309.501 218.953,311.625 224.387,322.372 234.980 C 328.905 241.420,330.703 242.717,334.444 243.687 C 336.862 244.314,339.305 244.685,339.873 244.512 C 340.442 244.338,341.956 243.966,343.238 243.686 C 346.121 243.054,351.226 238.666,352.946 235.340 C 354.657 232.032,354.631 225.306,352.892 221.643 C 352.120 220.016,347.956 215.221,343.638 210.987 C 333.934 201.473,329.918 199.903,322.266 202.631 " fill="black" stroke="none" fill-rule="evenodd"></path></svg>