<svg xmlns="http://www.w3.org/2000/svg" width="512" height="512" viewBox="0 0 512 512"><path d="M241.920 48.656 C 201.915 51.156,163.178 65.686,129.782 90.719 C 119.108 98.720,98.467 119.372,90.552 129.971 C 69.024 158.797,55.945 189.764,50.190 225.535 C 47.772 240.567,47.574 268.613,49.780 283.733 C 55.085 320.091,68.586 352.636,90.558 382.029 C 98.598 392.784,119.216 413.402,129.971 421.442 C 159.373 443.420,192.001 456.953,228.267 462.210 C 235.366 463.239,243.873 463.695,256.000 463.695 C 289.197 463.695,317.748 457.167,346.880 442.915 C 369.322 431.937,384.640 420.945,402.792 402.792 C 420.950 384.634,431.948 369.308,442.911 346.880 C 477.380 276.370,469.145 193.261,421.423 130.025 C 388.719 86.689,337.561 57.059,283.307 50.031 C 270.567 48.381,254.742 47.855,241.920 48.656 M284.160 82.304 C 320.984 88.530,353.998 105.525,380.237 131.763 C 406.551 158.078,423.301 190.689,429.804 228.267 C 431.881 240.265,431.881 271.735,429.804 283.733 C 425.851 306.578,418.233 327.335,406.833 346.325 C 366.696 413.186,287.712 445.650,212.245 426.304 C 151.250 410.668,102.271 362.367,86.278 302.080 C 82.507 287.865,81.043 277.845,80.475 262.359 C 79.201 227.662,87.203 195.952,104.860 165.719 C 112.368 152.863,132.001 129.095,134.363 130.001 C 134.909 130.211,167.670 153.466,207.164 181.681 L 278.972 232.979 269.958 247.263 C 265.000 255.119,260.672 261.839,260.339 262.197 C 260.007 262.554,231.756 242.474,197.560 217.575 C 145.911 179.967,135.193 172.494,134.253 173.434 C 131.680 176.007,117.714 205.206,114.920 213.854 C 109.795 229.720,108.838 236.338,108.831 256.000 C 108.826 270.835,109.121 274.963,110.772 283.165 C 114.929 303.814,123.939 325.024,135.483 341.333 C 142.844 351.734,160.266 369.156,170.667 376.517 C 186.976 388.061,208.186 397.071,228.835 401.228 C 237.028 402.877,241.182 403.175,256.000 403.175 C 270.818 403.175,274.972 402.877,283.165 401.228 C 303.814 397.071,325.024 388.061,341.333 376.517 C 351.734 369.156,369.156 351.734,376.517 341.333 C 388.061 325.024,397.071 303.814,401.228 283.165 C 402.877 274.972,403.175 270.818,403.175 256.000 C 403.175 241.182,402.877 237.028,401.228 228.835 C 397.070 208.181,388.056 186.965,376.514 170.667 C 369.535 160.811,353.745 144.748,343.893 137.481 C 329.595 126.933,311.802 118.209,295.680 113.841 C 288.415 111.872,274.397 109.238,271.147 109.230 C 269.755 109.227,269.653 111.095,269.653 136.533 L 269.653 163.840 256.000 163.840 L 242.347 163.840 242.347 121.910 L 242.347 79.980 259.200 80.457 C 268.469 80.719,279.701 81.551,284.160 82.304 " stroke="none" fill-rule="evenodd" fill="black"></path></svg>