<svg xmlns="http://www.w3.org/2000/svg" width="512" height="512" viewBox="0 0 512 512"><path d="M241.920 48.656 C 209.569 50.678,176.936 60.929,148.731 77.932 C 94.814 110.433,58.978 164.884,49.790 228.267 C 47.760 242.269,47.760 269.731,49.790 283.733 C 55.047 319.999,68.580 352.627,90.558 382.029 C 98.598 392.784,119.216 413.402,129.971 421.442 C 159.373 443.420,192.001 456.953,228.267 462.210 C 235.366 463.239,243.873 463.695,256.000 463.695 C 268.127 463.695,276.634 463.239,283.733 462.210 C 319.999 456.953,352.627 443.420,382.029 421.442 C 392.784 413.402,413.402 392.784,421.442 382.029 C 441.901 354.659,455.008 324.668,460.856 291.840 C 470.924 235.321,456.636 176.673,421.441 130.052 C 388.588 86.534,337.751 57.084,283.307 50.031 C 270.567 48.381,254.742 47.855,241.920 48.656 M264.642 114.792 C 266.344 115.892,268.648 118.258,269.762 120.049 L 271.787 123.307 272.025 189.653 L 272.263 256.000 313.782 256.000 C 354.348 256.000,355.387 256.042,359.040 257.810 C 369.192 262.724,370.702 276.977,361.859 284.417 C 357.269 288.280,353.607 288.511,301.145 288.247 L 252.160 288.000 248.450 285.876 C 246.164 284.567,243.870 282.274,242.476 279.903 L 240.213 276.053 240.213 199.680 L 240.213 123.307 242.193 120.122 C 247.164 112.127,256.928 109.809,264.642 114.792 " stroke="none" fill-rule="evenodd" fill="black"></path></svg>