<svg xmlns="http://www.w3.org/2000/svg" width="512" height="512" viewBox="0 0 512 512"><path d="M241.920 48.656 C 209.569 50.678,176.936 60.929,148.731 77.932 C 94.815 110.433,58.940 164.945,49.795 228.267 C 48.000 240.701,47.743 269.005,49.324 280.320 C 56.183 329.410,75.610 369.154,109.204 402.821 C 134.088 427.758,162.757 444.973,196.267 455.098 C 260.076 474.379,327.753 462.073,382.218 421.287 C 392.734 413.413,413.413 392.734,421.287 382.218 C 450.513 343.190,465.956 294.997,463.919 249.173 C 461.514 195.069,440.640 147.079,403.220 109.623 C 391.401 97.792,382.569 90.546,369.558 82.006 C 332.004 57.356,287.748 45.793,241.920 48.656 M270.507 113.493 C 272.186 115.172,272.213 116.338,272.213 185.600 L 272.213 256.000 318.976 256.000 C 354.209 256.000,365.991 256.252,366.763 257.024 C 367.475 257.736,367.787 262.266,367.787 271.909 C 367.787 285.265,367.718 285.818,365.890 287.098 C 364.217 288.270,356.880 288.427,303.597 288.427 C 244.338 288.427,243.168 288.395,241.493 286.720 C 239.810 285.036,239.787 283.876,239.787 200.107 C 239.787 116.338,239.810 115.177,241.493 113.493 C 243.048 111.938,244.338 111.787,256.000 111.787 C 267.662 111.787,268.952 111.938,270.507 113.493 " stroke="none" fill-rule="evenodd" fill="black"></path></svg>