<svg xmlns="http://www.w3.org/2000/svg" width="512" height="512" viewBox="0 0 512 512"><path d="M241.493 48.673 C 201.694 51.236,163.176 65.747,129.707 90.787 C 119.118 98.709,98.459 119.383,90.552 129.971 C 68.706 159.223,55.330 191.336,49.785 227.840 C 47.724 241.414,47.724 270.586,49.785 284.160 C 55.331 320.671,68.725 352.821,90.558 382.029 C 98.598 392.784,119.216 413.402,129.971 421.442 C 159.179 443.275,191.329 456.669,227.840 462.215 C 241.414 464.276,270.586 464.276,284.160 462.215 C 320.686 456.667,352.914 443.237,382.029 421.430 C 392.784 413.374,413.374 392.784,421.430 382.029 C 443.237 352.914,456.667 320.686,462.215 284.160 C 464.276 270.586,464.276 241.414,462.215 227.840 C 455.463 183.387,436.803 144.683,406.921 113.150 C 370.380 74.590,322.088 52.062,268.561 48.607 C 255.365 47.755,255.779 47.754,241.493 48.673 M284.160 82.308 C 319.998 88.383,351.735 104.258,377.739 129.118 C 405.349 155.513,423.300 189.800,429.832 228.618 C 431.923 241.048,431.905 271.514,429.799 283.733 C 419.921 341.032,385.307 387.989,334.011 413.679 C 285.590 437.929,226.410 437.929,177.989 413.679 C 126.525 387.905,91.775 340.650,82.174 283.382 C 80.053 270.734,80.053 241.266,82.174 228.618 C 92.715 165.745,133.739 115.017,192.849 91.764 C 205.896 86.632,221.606 82.941,239.787 80.737 C 246.454 79.928,276.372 80.988,284.160 82.308 M252.160 112.561 C 246.413 113.989,242.152 118.117,240.644 123.717 C 240.045 125.944,239.827 151.712,239.982 201.972 L 240.213 276.907 242.208 280.114 C 243.304 281.878,245.992 284.374,248.181 285.661 L 252.160 288.000 301.145 288.247 C 335.159 288.418,351.549 288.198,354.775 287.529 C 360.311 286.379,365.474 282.183,366.985 277.604 C 369.470 270.075,365.875 261.119,359.040 257.810 C 355.387 256.042,354.348 256.000,313.757 256.000 L 272.213 256.000 272.209 191.360 C 272.205 149.528,271.893 125.600,271.322 123.546 C 270.290 119.830,266.969 115.616,263.792 113.990 C 260.785 112.452,255.306 111.779,252.160 112.561 " stroke="none" fill-rule="evenodd" fill="black"></path></svg>