<svg xmlns="http://www.w3.org/2000/svg" width="512" height="512" viewBox="0 0 512 512"><path d="M241.920 48.656 C 201.915 51.156,163.178 65.686,129.782 90.719 C 119.108 98.720,98.467 119.372,90.552 129.971 C 69.024 158.797,55.945 189.764,50.190 225.535 C 47.772 240.567,47.574 268.613,49.780 283.733 C 55.085 320.091,68.586 352.636,90.558 382.029 C 98.598 392.784,119.216 413.402,129.971 421.442 C 159.373 443.420,192.001 456.953,228.267 462.210 C 235.366 463.239,243.873 463.695,256.000 463.695 C 289.197 463.695,317.748 457.167,346.880 442.915 C 369.322 431.937,384.640 420.945,402.792 402.792 C 420.950 384.634,431.948 369.308,442.911 346.880 C 477.380 276.370,469.145 193.261,421.423 130.025 C 388.719 86.689,337.561 57.059,283.307 50.031 C 270.567 48.381,254.742 47.855,241.920 48.656 M284.160 82.342 C 320.591 88.333,353.984 105.510,380.237 131.763 C 406.551 158.078,423.301 190.689,429.804 228.267 C 431.881 240.265,431.881 271.735,429.804 283.733 C 425.851 306.578,418.233 327.335,406.833 346.325 C 366.696 413.186,287.712 445.650,212.245 426.304 C 151.250 410.668,102.271 362.367,86.278 302.080 C 82.507 287.865,81.043 277.845,80.475 262.359 C 79.201 227.662,87.203 195.952,104.860 165.719 C 113.111 151.590,132.245 128.998,137.999 126.589 C 147.084 122.787,156.729 128.404,157.654 138.035 C 158.197 143.683,156.728 146.282,147.446 156.101 C 138.714 165.337,129.775 178.254,123.600 190.558 C 106.657 224.322,103.754 265.146,115.678 301.976 C 119.469 313.686,128.214 331.064,135.483 341.333 C 142.844 351.734,160.266 369.156,170.667 376.517 C 186.976 388.061,208.186 397.071,228.835 401.228 C 237.028 402.877,241.182 403.175,256.000 403.175 C 270.818 403.175,274.972 402.877,283.165 401.228 C 303.814 397.071,325.024 388.061,341.333 376.517 C 351.734 369.156,369.156 351.734,376.517 341.333 C 388.061 325.024,397.071 303.814,401.228 283.165 C 402.877 274.972,403.175 270.818,403.175 256.000 C 403.175 241.182,402.877 237.028,401.228 228.835 C 397.070 208.181,388.056 186.965,376.514 170.667 C 369.535 160.811,353.745 144.748,343.893 137.481 C 329.595 126.933,311.802 118.209,295.680 113.841 C 288.415 111.872,274.397 109.238,271.147 109.230 C 269.753 109.227,269.653 111.210,269.653 138.967 C 269.653 168.416,269.634 168.736,267.726 171.607 C 265.604 174.801,259.434 178.347,256.000 178.347 C 252.566 178.347,246.396 174.801,244.274 171.607 L 242.347 168.708 242.347 129.483 C 242.347 91.167,242.388 90.185,244.146 87.058 C 245.136 85.297,247.344 83.014,249.053 81.985 C 251.969 80.229,252.894 80.141,264.107 80.561 C 270.677 80.807,279.701 81.608,284.160 82.342 M225.764 197.590 C 255.300 217.560,280.928 235.320,282.714 237.056 C 284.500 238.793,287.188 242.701,288.688 245.742 C 291.204 250.846,291.413 251.928,291.413 259.822 C 291.413 267.272,291.126 268.978,289.186 273.067 C 279.573 293.324,252.405 298.531,237.392 282.994 C 235.517 281.054,217.736 255.467,197.878 226.133 C 158.215 167.546,158.566 168.183,163.292 163.457 C 164.874 161.875,166.369 161.280,168.765 161.280 C 171.698 161.280,177.979 165.281,225.764 197.590 " stroke="none" fill-rule="evenodd" fill="black"></path></svg>