<svg xmlns="http://www.w3.org/2000/svg" width="512" height="512" viewBox="0 0 512 512"><path d="M254.902 48.992 C 249.471 50.464,244.953 54.191,242.347 59.350 L 240.213 63.573 239.954 108.373 C 239.779 138.681,239.993 154.196,240.617 156.335 C 243.237 165.321,253.340 170.311,261.776 166.786 C 265.992 165.024,268.694 162.424,270.600 158.293 C 272.054 155.143,272.177 152.026,272.195 117.855 L 272.213 80.831 277.971 81.421 C 300.125 83.691,327.953 93.533,348.775 106.462 C 375.603 123.122,399.134 148.913,413.231 177.112 C 424.849 200.352,430.544 222.919,431.524 249.601 C 432.637 279.920,426.862 307.205,413.698 333.814 C 387.042 387.699,336.476 423.479,276.502 430.893 C 267.206 432.042,245.648 432.042,236.351 430.893 C 166.297 422.233,108.332 374.026,87.810 307.355 C 78.813 278.127,77.872 244.697,85.188 214.187 C 91.137 189.375,103.983 164.049,121.453 142.687 C 125.682 137.515,128.131 133.715,128.499 131.753 C 130.780 119.596,120.487 109.786,108.592 112.781 C 103.864 113.972,99.606 118.068,90.350 130.328 C 55.167 176.933,41.007 235.732,51.249 292.693 C 61.109 347.531,94.130 397.709,140.800 428.776 C 214.872 478.083,309.850 475.444,381.440 422.089 C 390.624 415.245,412.095 394.282,419.198 385.225 C 437.501 361.888,452.819 329.724,458.997 301.653 C 469.350 254.614,463.705 207.614,442.494 164.267 C 416.728 111.609,369.653 72.261,312.902 55.945 C 293.054 50.239,263.416 46.686,254.902 48.992 M156.829 154.186 C 154.036 155.971,152.365 159.642,153.069 162.447 C 153.792 165.330,232.339 277.735,237.032 282.604 C 239.228 284.882,243.115 287.628,246.092 289.004 C 250.714 291.139,252.277 291.413,259.840 291.413 C 267.319 291.413,268.978 291.130,273.268 289.119 C 293.488 279.643,298.379 252.239,282.571 236.998 C 276.196 230.852,164.912 153.519,161.812 153.081 C 160.173 152.850,158.254 153.275,156.829 154.186 " stroke="none" fill-rule="evenodd" fill="black"></path></svg>