<svg xmlns="http://www.w3.org/2000/svg" viewBox="0 0 512 512"><path d="M119.359 34.872 C 113.592 38.529,112.275 41.895,111.933 53.863 L 111.649 63.779 98.278 64.235 C 79.655 64.871,70.898 67.545,58.373 76.424 C 43.849 86.719,34.611 102.891,32.442 121.819 C 31.029 134.154,31.286 140.513,33.280 142.507 C 34.978 144.205,36.124 144.213,256.000 144.213 C 475.876 144.213,477.022 144.205,478.720 142.507 C 480.714 140.513,480.971 134.154,479.558 121.819 C 477.389 102.891,468.151 86.719,453.627 76.424 C 441.087 67.535,432.351 64.871,413.653 64.233 L 400.213 63.775 400.213 54.668 C 400.213 46.697,399.951 45.035,398.108 41.336 C 393.728 32.548,383.573 29.662,375.359 34.872 C 369.577 38.538,368.276 41.885,367.930 53.973 L 367.644 64.000 255.929 64.000 L 144.213 64.000 144.213 54.781 C 144.213 46.690,143.956 45.045,142.108 41.336 C 137.728 32.548,127.573 29.662,119.359 34.872 M33.280 176.622 C 32.152 177.335,32.000 192.088,32.000 300.982 C 32.000 440.507,31.442 428.860,38.864 444.160 C 45.110 457.033,54.967 466.890,67.840 473.136 C 83.316 480.644,65.674 480.000,256.000 480.000 C 446.326 480.000,428.684 480.644,444.160 473.136 C 457.033 466.890,466.890 457.033,473.136 444.160 C 480.558 428.860,480.000 440.507,480.000 300.982 C 480.000 192.088,479.848 177.335,478.720 176.622 C 476.980 175.522,35.020 175.522,33.280 176.622 M208.029 211.016 C 213.577 213.939,218.483 218.883,221.138 224.225 L 223.147 228.267 223.147 272.213 L 223.147 316.160 220.640 320.686 C 217.514 326.328,212.824 330.624,206.609 333.538 L 201.813 335.787 160.000 335.787 L 118.187 335.787 113.391 333.538 C 107.176 330.624,102.486 326.328,99.360 320.686 L 96.853 316.160 96.853 272.213 L 96.853 228.267 98.862 224.225 C 102.338 217.230,109.265 211.384,116.907 208.996 C 118.080 208.629,138.048 208.399,161.280 208.485 L 203.520 208.640 208.029 211.016 " stroke="none" fill-rule="evenodd" fill="black"></path></svg>