<svg xmlns="http://www.w3.org/2000/svg" width="512" height="512" viewBox="0 0 512 512"><path d="M131.413 112.680 C 74.788 117.516,25.014 156.921,7.326 210.919 C -6.675 253.660,-0.516 298.507,24.533 336.212 C 32.533 348.254,49.335 365.447,61.440 373.977 C 80.713 387.559,105.133 396.596,129.886 399.306 C 141.303 400.556,370.697 400.556,382.114 399.306 C 406.929 396.589,431.517 387.475,450.515 373.952 C 481.511 351.888,502.003 320.104,509.598 282.312 C 512.403 268.355,512.403 243.645,509.598 229.688 C 503.874 201.208,491.493 177.181,472.128 156.972 C 450.792 134.705,423.732 120.048,393.105 114.169 C 383.664 112.357,382.408 112.338,261.547 112.164 C 194.432 112.067,135.872 112.299,131.413 112.680 M385.687 171.957 C 418.078 178.852,443.471 203.554,451.577 236.054 C 454.388 247.326,454.224 266.019,451.213 277.343 C 446.891 293.598,439.041 306.821,426.849 318.383 C 400.611 343.264,362.548 348.945,329.833 332.862 C 306.154 321.221,289.236 299.149,283.792 272.794 C 282.045 264.336,282.045 247.664,283.792 239.206 C 289.239 212.836,306.044 190.924,329.813 179.197 C 347.386 170.527,367.021 167.983,385.687 171.957 " stroke="none" fill-rule="evenodd" fill="black"></path></svg>