<svg xmlns="http://www.w3.org/2000/svg" width="512" height="512" viewBox="0 0 512 512"><path d="M131.413 112.680 C 82.214 116.882,37.523 147.273,15.400 191.573 C 9.424 203.541,5.121 216.158,2.402 229.688 C -0.403 243.645,-0.403 268.355,2.402 282.312 C 6.506 302.730,15.039 322.932,26.252 338.773 C 33.253 348.663,49.125 364.874,58.704 371.916 C 76.841 385.250,97.837 394.085,121.183 398.207 C 129.625 399.697,137.284 399.787,256.000 399.787 C 374.716 399.787,382.375 399.697,390.817 398.207 C 414.065 394.102,435.235 385.194,453.296 371.916 C 462.875 364.874,478.747 348.664,485.748 338.773 C 496.961 322.932,505.494 302.730,509.598 282.312 C 512.403 268.355,512.403 243.645,509.598 229.688 C 501.776 190.770,479.827 157.677,447.576 136.177 C 432.355 126.031,411.978 117.779,393.321 114.206 C 383.607 112.346,383.156 112.339,261.547 112.164 C 194.432 112.067,135.872 112.299,131.413 112.680 M390.827 146.365 C 436.090 156.213,471.014 192.604,478.297 237.507 C 479.926 247.552,479.921 264.479,478.286 274.562 C 471.198 318.267,438.010 353.857,394.066 364.877 C 382.112 367.875,363.496 368.613,350.748 366.594 C 327.031 362.837,304.948 351.402,287.898 334.048 C 273.259 319.149,262.917 299.807,258.455 278.983 C 255.734 266.280,255.739 245.699,258.466 232.960 C 265.592 199.678,287.561 171.204,317.894 155.936 C 328.407 150.644,340.989 146.804,354.560 144.744 C 360.055 143.910,384.582 145.007,390.827 146.365 " stroke="none" fill-rule="evenodd" fill="black"></path></svg>