<svg xmlns="http://www.w3.org/2000/svg" width="512" height="512" viewBox="0 0 512 512"><path d="M136.960 112.329 C 78.828 115.230,28.087 152.930,8.484 207.787 C -14.316 271.592,10.871 343.033,68.727 378.657 C 84.713 388.500,105.053 395.838,124.160 398.655 C 135.376 400.308,377.616 400.314,388.267 398.661 C 441.433 390.410,484.642 355.571,502.990 306.158 C 509.386 288.932,511.543 276.284,511.543 256.000 C 511.543 240.059,510.837 233.704,507.609 220.587 C 495.347 170.751,454.637 129.591,404.954 116.794 C 386.930 112.152,393.891 112.377,263.253 112.220 C 196.608 112.140,139.776 112.189,136.960 112.329 M267.742 153.053 C 244.597 175.864,230.935 202.356,225.655 234.667 C 223.952 245.082,223.915 266.707,225.583 276.907 C 230.967 309.849,244.310 335.801,267.825 359.067 L 276.693 367.841 202.133 367.560 C 120.544 367.252,124.290 367.471,108.373 362.073 C 91.445 356.331,78.398 348.135,65.238 334.975 C 51.750 321.487,43.540 308.274,37.624 290.537 C 30.648 269.616,30.648 242.384,37.624 221.463 C 43.052 205.189,51.491 190.996,62.694 179.300 C 80.865 160.330,100.855 149.944,128.427 145.147 C 130.773 144.738,165.097 144.361,204.702 144.309 L 276.711 144.213 267.742 153.053 M389.973 146.344 C 412.301 151.223,430.937 161.306,446.751 177.065 C 462.537 192.797,472.829 211.745,477.590 233.842 C 479.780 244.004,479.780 267.996,477.590 278.158 C 468.022 322.564,434.589 355.948,389.973 365.649 C 380.091 367.798,360.590 368.243,350.295 366.555 C 303.667 358.908,266.389 322.384,257.941 276.067 C 256.043 265.659,256.077 245.280,258.010 235.341 C 267.075 188.732,302.877 153.872,350.293 145.487 C 359.125 143.925,381.071 144.399,389.973 146.344 " stroke="none" fill="black" fill-rule="evenodd"></path></svg>