<svg xmlns="http://www.w3.org/2000/svg" width="512" height="512" viewBox="0 0 512 512"><path d="M247.743 34.579 C 241.568 38.280,240.261 41.441,239.913 53.519 L 239.613 63.945 167.380 64.186 L 95.147 64.427 89.200 67.242 C 83.743 69.827,80.640 72.664,51.422 101.785 C 30.649 122.489,19.003 134.724,17.901 136.999 C 15.928 141.076,15.723 146.548,17.400 150.427 C 19.252 154.710,84.023 218.637,88.747 220.844 C 95.896 224.183,101.237 224.414,171.733 224.420 L 239.787 224.427 239.787 240.187 L 239.787 255.947 164.053 256.187 L 88.320 256.427 83.111 258.834 C 76.521 261.880,69.949 268.480,66.815 275.200 L 64.427 280.320 64.189 334.291 C 63.982 381.235,64.125 388.861,65.288 392.860 C 68.007 402.213,75.389 410.089,85.118 414.018 L 90.027 416.000 164.861 416.248 L 239.696 416.496 239.955 442.702 C 240.209 468.463,240.247 468.961,242.208 472.114 C 248.440 482.138,263.560 482.138,269.792 472.114 C 271.753 468.961,271.791 468.465,272.046 442.667 L 272.304 416.427 340.312 416.420 C 410.762 416.414,416.105 416.183,423.253 412.844 C 427.977 410.637,492.748 346.710,494.600 342.427 C 496.277 338.548,496.072 333.076,494.099 328.999 C 492.997 326.724,481.351 314.489,460.578 293.785 C 431.360 264.664,428.257 261.827,422.800 259.242 L 416.853 256.427 344.533 256.186 L 272.213 255.945 272.213 240.221 L 272.213 224.497 347.093 224.248 L 421.973 224.000 426.882 222.018 C 436.101 218.295,443.972 210.217,446.518 201.864 C 447.310 199.265,447.573 184.652,447.573 143.360 L 447.573 88.320 445.166 83.111 C 442.120 76.521,435.520 69.949,428.800 66.815 L 423.680 64.427 348.034 64.187 L 272.387 63.947 272.087 53.520 C 271.824 44.382,271.540 42.697,269.792 39.886 C 265.287 32.639,255.078 30.182,247.743 34.579 M415.573 144.213 L 415.573 192.000 259.206 192.000 L 102.838 192.000 78.726 167.899 L 54.613 143.798 78.288 120.112 L 101.962 96.427 258.768 96.427 L 415.573 96.427 415.573 144.213 M433.701 312.101 L 457.387 335.775 433.286 359.888 L 409.185 384.000 252.806 384.000 L 96.427 384.000 96.427 336.213 L 96.427 288.427 253.221 288.427 L 410.015 288.427 433.701 312.101 " stroke="none" fill-rule="evenodd" fill="black"></path></svg>