<svg xmlns="http://www.w3.org/2000/svg" width="512" height="512" viewBox="0 0 512 512"><path d="M200.702 18.032 C 196.445 20.139,193.036 24.670,192.305 29.192 L 191.793 32.358 155.843 32.605 L 119.893 32.853 115.588 35.126 C 108.343 38.950,102.790 44.626,99.214 51.862 L 96.000 58.364 95.772 205.097 L 95.545 351.829 97.354 355.566 C 102.464 366.122,132.063 382.650,186.503 405.347 C 204.496 412.848,254.212 431.787,255.912 431.787 C 256.409 431.787,264.408 428.951,273.688 425.484 C 362.236 392.409,413.499 366.047,415.977 352.311 C 416.262 350.732,416.384 283.948,416.248 203.902 L 416.000 58.364 412.786 51.862 C 409.210 44.626,403.657 38.950,396.412 35.126 L 392.107 32.853 356.157 32.605 L 320.207 32.358 319.695 29.192 C 318.959 24.636,315.512 20.085,311.228 18.011 C 307.577 16.244,306.644 16.213,255.944 16.214 C 205.045 16.215,204.326 16.238,200.702 18.032 M363.537 113.075 C 364.908 113.784,366.425 115.103,366.908 116.006 C 367.477 117.069,367.787 132.686,367.787 160.323 L 367.787 202.998 365.727 205.392 L 363.668 207.787 256.000 207.787 L 148.332 207.787 146.273 205.392 L 144.213 202.998 144.213 160.323 C 144.213 132.807,144.524 117.067,145.088 116.013 C 147.406 111.683,142.796 111.858,255.829 111.821 C 348.051 111.791,361.353 111.946,363.537 113.075 M265.017 256.912 C 273.164 258.380,283.208 263.705,289.435 269.860 C 308.494 288.696,308.652 318.700,289.792 337.588 C 280.148 347.247,269.359 351.777,256.000 351.777 C 242.641 351.777,231.852 347.247,222.208 337.588 C 212.825 328.191,208.197 317.059,208.226 303.958 C 208.266 285.722,218.717 268.979,234.944 261.158 C 245.119 256.253,254.222 254.968,265.017 256.912 M329.990 425.154 L 313.954 432.028 321.244 439.478 C 325.253 443.575,328.533 447.168,328.533 447.463 C 328.533 447.759,295.613 448.000,255.377 448.000 L 182.220 448.000 190.152 440.035 L 198.084 432.070 182.029 425.535 L 165.973 418.999 127.575 457.393 L 89.176 495.787 111.806 495.787 L 134.436 495.787 142.080 488.107 L 149.724 480.427 255.540 480.427 L 361.355 480.427 369.081 488.121 L 376.807 495.815 399.472 495.588 L 422.138 495.360 384.082 456.820 L 346.027 418.279 329.990 425.154 " stroke="none" fill-rule="evenodd" fill="black"></path></svg>