<svg xmlns="http://www.w3.org/2000/svg" width="512" height="512" viewBox="0 0 512 512"><path d="M199.253 17.369 C 193.405 19.063,189.048 21.887,184.192 27.132 L 179.510 32.189 166.342 32.633 C 155.231 33.007,152.106 33.425,146.347 35.307 C 124.002 42.608,105.861 60.910,99.105 82.968 C 98.138 86.126,96.948 92.598,96.460 97.352 C 95.294 108.720,95.248 347.365,96.411 354.560 C 97.480 361.174,99.340 365.376,103.826 371.307 C 116.827 388.499,150.227 404.359,207.750 420.655 C 226.700 426.023,251.681 431.787,256.000 431.787 C 263.583 431.787,304.866 421.098,332.800 411.903 C 387.183 394.000,412.135 376.696,415.573 354.500 C 416.204 350.425,416.403 309.055,416.213 221.440 L 415.938 94.293 414.067 87.274 C 408.646 66.938,396.482 50.989,378.880 41.136 C 368.040 35.068,357.222 32.463,342.782 32.441 L 332.710 32.427 328.011 27.351 C 322.828 21.753,318.040 18.704,312.076 17.202 C 306.572 15.816,204.093 15.968,199.253 17.369 M304.511 51.819 C 305.814 56.688,311.515 62.602,315.718 63.442 C 317.252 63.749,324.934 64.000,332.790 64.000 C 340.646 64.000,349.140 64.392,351.666 64.871 C 367.158 67.809,380.191 80.842,383.129 96.334 C 383.697 99.326,384.000 144.401,384.000 225.708 L 384.000 350.490 382.214 352.760 C 372.764 364.774,322.558 384.192,268.160 396.874 L 256.000 399.708 243.840 396.874 C 189.346 384.170,139.252 364.795,129.786 352.760 L 128.000 350.490 128.000 225.708 C 128.000 145.700,128.308 99.277,128.858 96.330 C 131.687 81.172,145.172 67.687,160.330 64.858 C 162.858 64.386,171.354 64.000,179.210 64.000 C 187.066 64.000,194.748 63.749,196.282 63.442 C 200.485 62.602,206.186 56.688,207.489 51.819 L 208.567 47.787 256.000 47.787 L 303.433 47.787 304.511 51.819 M166.480 97.408 C 162.307 98.619,155.352 103.278,151.980 107.122 C 150.384 108.941,148.080 112.558,146.860 115.161 L 144.640 119.893 144.640 160.000 L 144.640 200.107 146.927 204.986 C 151.644 215.050,160.599 221.805,171.520 223.535 C 179.125 224.740,332.950 224.731,340.480 223.526 C 351.292 221.794,359.767 215.566,364.561 205.829 L 367.360 200.143 367.360 160.000 L 367.360 119.857 364.561 114.171 C 361.423 107.798,355.969 102.347,349.365 98.987 L 345.173 96.853 257.280 96.709 C 201.473 96.617,168.326 96.872,166.480 97.408 M336.213 160.000 L 336.213 192.000 256.000 192.000 L 175.787 192.000 175.787 160.000 L 175.787 128.000 256.000 128.000 L 336.213 128.000 336.213 160.000 M248.320 240.610 C 230.270 242.552,212.994 253.312,202.333 269.252 C 184.674 295.654,190.246 332.560,214.980 353.011 C 222.167 358.954,227.450 361.957,235.947 364.929 C 242.289 367.147,243.711 367.316,256.000 367.316 C 268.275 367.316,269.718 367.145,276.053 364.936 C 311.100 352.714,328.667 315.083,315.612 280.193 C 312.985 273.171,306.215 263.669,299.114 257.037 C 285.695 244.506,267.328 238.566,248.320 240.610 M269.943 275.496 C 276.198 278.575,281.677 284.079,285.013 290.635 C 286.887 294.317,287.147 295.916,287.147 303.787 C 287.147 311.638,286.874 313.328,284.944 317.442 C 280.659 326.577,271.758 333.335,261.305 335.392 C 247.955 338.018,233.042 330.202,227.056 317.442 C 225.126 313.328,224.853 311.638,224.853 303.787 C 224.853 295.915,225.112 294.320,226.984 290.654 C 231.241 282.319,238.293 276.197,246.857 273.402 C 249.077 272.677,253.117 272.328,257.412 272.490 C 263.201 272.708,265.307 273.213,269.943 275.496 M167.253 418.875 C 165.141 420.296,152.586 432.327,139.353 445.610 C 114.708 470.348,111.824 473.950,111.824 480.000 C 111.824 485.532,116.992 492.875,122.296 494.879 C 125.642 496.143,130.931 496.011,134.363 494.577 C 135.955 493.912,140.306 490.456,144.030 486.897 L 150.803 480.427 256.000 480.427 L 361.197 480.427 367.970 486.897 C 371.694 490.456,376.045 493.912,377.637 494.577 C 381.069 496.011,386.358 496.143,389.704 494.879 C 395.008 492.875,400.176 485.532,400.176 480.000 C 400.176 473.988,397.266 470.354,372.647 445.620 C 359.414 432.325,346.859 420.287,344.747 418.869 C 341.262 416.530,340.385 416.319,335.266 416.593 C 328.499 416.956,324.159 419.724,321.633 425.288 C 318.607 431.950,319.638 437.304,325.225 443.947 L 328.635 448.000 256.000 448.000 L 183.365 448.000 186.775 443.947 C 192.362 437.304,193.393 431.950,190.367 425.288 C 187.841 419.724,183.501 416.956,176.734 416.593 C 171.612 416.319,170.741 416.528,167.253 418.875 " stroke="none" fill-rule="evenodd" fill="black"></path></svg>