<svg xmlns="http://www.w3.org/2000/svg" width="512" height="512" viewBox="0 0 512 512"><path d="M199.253 17.395 C 193.263 19.311,189.998 21.384,184.510 26.756 L 179.153 32.000 162.750 32.503 C 147.903 32.959,145.699 33.226,139.520 35.326 C 115.559 43.467,99.383 63.724,96.458 89.250 C 95.300 99.358,95.259 348.316,96.414 355.370 C 99.862 376.424,124.761 393.784,175.924 410.805 C 202.826 419.755,248.745 431.787,256.000 431.787 C 259.981 431.787,290.790 424.459,309.804 418.990 C 358.952 404.853,389.005 391.067,404.542 375.529 C 411.039 369.032,414.425 362.740,415.639 354.904 C 416.181 351.409,416.391 302.091,416.221 218.027 C 415.922 69.885,416.547 83.137,409.132 67.840 C 403.087 55.369,393.335 45.454,381.013 39.252 C 370.767 34.095,362.962 32.427,349.085 32.427 C 342.703 32.427,336.155 32.046,334.534 31.581 C 332.871 31.104,329.524 28.703,326.859 26.075 C 324.169 23.422,319.928 20.386,317.013 19.027 L 311.893 16.640 257.280 16.471 C 214.882 16.340,201.903 16.547,199.253 17.395 M331.897 129.254 C 335.854 131.301,336.213 133.870,336.213 160.155 C 336.213 186.688,335.782 189.526,331.506 191.152 C 328.462 192.309,183.538 192.309,180.494 191.152 C 176.218 189.526,175.787 186.688,175.787 160.155 C 175.787 134.117,176.159 131.343,179.931 129.294 C 183.357 127.432,328.300 127.394,331.897 129.254 M271.360 242.102 C 293.580 247.364,312.060 265.702,318.046 288.427 C 320.033 295.970,319.982 312.412,317.949 320.000 C 310.403 348.160,284.960 367.787,256.000 367.787 C 226.972 367.787,201.719 348.313,194.032 320.000 C 191.991 312.483,191.952 296.062,193.958 288.427 C 196.330 279.396,202.347 268.154,208.265 261.696 C 224.880 243.563,247.661 236.489,271.360 242.102 M246.857 273.402 C 238.388 276.166,230.734 282.777,227.131 290.444 C 216.295 313.495,236.173 340.004,260.881 335.452 C 275.115 332.829,285.288 322.521,287.588 308.389 C 288.574 302.330,286.907 293.338,283.820 288.071 C 280.886 283.065,274.665 277.581,268.949 274.961 C 263.097 272.279,252.573 271.536,246.857 273.402 M167.186 418.937 C 161.163 422.945,114.626 470.163,113.101 473.813 C 110.495 480.050,112.108 487.511,117.061 492.131 C 120.006 494.878,125.983 496.771,129.635 496.113 C 134.153 495.299,135.396 494.494,143.494 487.138 L 150.880 480.427 256.018 480.427 L 361.156 480.427 368.342 487.229 C 376.196 494.663,379.922 496.379,386.097 495.403 C 396.383 493.779,402.189 482.875,398.047 472.962 C 396.635 469.584,351.267 423.341,345.324 419.222 C 338.702 414.633,328.271 415.991,323.494 422.065 C 318.551 428.349,319.031 436.220,324.790 443.289 L 328.627 448.000 255.944 448.000 L 183.261 448.000 186.380 444.194 C 191.953 437.392,193.214 432.077,190.687 426.030 C 188.046 419.709,182.869 416.427,175.540 416.427 C 171.894 416.427,170.189 416.939,167.186 418.937 " stroke="none" fill-rule="evenodd" fill="black"></path></svg>