<svg xmlns="http://www.w3.org/2000/svg" width="512" height="512" viewBox="0 0 512 512"><path d="M247.359 34.872 C 241.580 38.536,240.276 41.887,239.931 53.950 L 239.645 63.954 167.396 64.190 L 95.147 64.427 89.173 67.252 C 83.676 69.853,80.667 72.605,51.387 101.812 C 30.758 122.390,18.983 134.766,17.893 137.016 C 16.048 140.828,15.721 146.190,17.106 149.918 C 18.269 153.047,82.081 216.995,86.849 219.811 C 94.443 224.294,96.305 224.396,170.880 224.412 L 239.787 224.427 239.787 240.191 L 239.787 255.956 164.053 256.191 L 88.320 256.427 82.773 259.094 C 75.698 262.495,70.437 267.751,67.079 274.773 L 64.427 280.320 64.427 336.213 L 64.427 392.107 66.656 396.800 C 71.318 406.616,80.310 413.573,90.823 415.499 C 94.210 416.120,119.697 416.427,167.801 416.427 L 239.716 416.427 239.965 442.240 C 240.251 471.953,240.439 472.804,247.718 477.325 C 255.473 482.142,265.849 479.414,270.003 471.467 C 271.679 468.258,271.802 466.502,272.035 442.240 L 272.284 416.427 341.155 416.412 C 415.692 416.396,417.558 416.294,425.151 411.811 C 429.919 408.995,493.731 345.047,494.894 341.918 C 496.279 338.190,495.952 332.828,494.107 329.016 C 493.017 326.766,481.242 314.390,460.613 293.812 C 431.333 264.605,428.324 261.853,422.827 259.252 L 416.853 256.427 344.533 256.190 L 272.213 255.954 272.213 240.190 L 272.213 224.427 344.163 224.427 C 392.293 224.427,417.790 224.120,421.177 223.499 C 431.690 221.573,440.682 214.616,445.344 204.800 L 447.573 200.107 447.573 144.213 L 447.573 88.320 445.166 83.111 C 442.120 76.521,435.520 69.949,428.800 66.815 L 423.680 64.427 348.018 64.191 L 272.355 63.956 272.069 53.951 C 271.724 41.887,270.420 38.536,264.641 34.872 C 259.218 31.433,252.782 31.433,247.359 34.872 " stroke="none" fill-rule="evenodd" fill="black"></path></svg>