<svg xmlns="http://www.w3.org/2000/svg" width="512" height="512" viewBox="0 0 512 512"><path d="M31.780 88.107 L 32.000 143.787 53.973 144.014 L 75.947 144.242 75.947 125.672 L 75.947 107.102 86.394 117.549 L 96.841 127.996 80.423 144.430 L 64.005 160.864 79.570 176.430 L 95.136 191.995 111.554 175.593 L 127.972 159.191 131.740 162.889 L 135.508 166.587 130.867 173.402 C 114.169 197.924,104.578 232.264,106.122 262.001 C 108.663 310.969,132.820 353.773,173.123 380.723 C 217.489 410.391,274.037 414.073,322.133 390.427 C 327.296 387.889,334.592 383.711,338.347 381.143 L 345.173 376.475 356.908 388.121 L 368.643 399.767 352.221 416.206 L 335.798 432.645 351.366 448.213 L 366.933 463.781 383.356 447.358 L 399.778 430.936 424.317 455.464 L 448.856 479.992 464.424 464.424 L 479.992 448.856 455.464 424.317 L 430.936 399.778 447.358 383.356 L 463.781 366.933 448.213 351.366 L 432.645 335.798 416.206 352.221 L 399.767 368.643 388.150 356.908 L 376.532 345.173 381.603 337.493 C 414.253 288.047,413.826 222.071,380.536 172.727 L 376.457 166.680 406.255 136.891 L 436.053 107.102 436.053 125.672 L 436.053 144.242 458.027 144.014 L 480.000 143.787 480.220 88.107 L 480.439 32.427 424.113 32.427 L 367.787 32.427 367.787 54.187 L 367.787 75.947 386.342 75.947 L 404.898 75.947 375.132 105.721 L 345.367 135.496 337.590 130.380 C 299.808 105.529,250.669 99.344,207.839 114.051 C 196.828 117.832,182.376 124.906,173.533 130.843 L 166.586 135.508 162.889 131.740 L 159.191 127.972 175.593 111.554 L 191.995 95.136 176.430 79.570 L 160.864 64.005 144.430 80.423 L 127.996 96.841 117.549 86.394 L 107.102 75.947 125.658 75.947 L 144.213 75.947 144.213 54.187 L 144.213 32.427 87.887 32.427 L 31.561 32.427 31.780 88.107 M279.893 152.711 C 328.529 164.702,361.803 206.661,361.803 256.000 C 361.803 314.446,314.445 361.806,256.000 361.806 C 227.721 361.806,201.765 351.071,181.741 331.093 C 165.137 314.527,154.760 294.379,151.419 272.217 C 142.625 213.880,182.001 160.332,240.523 151.044 C 248.878 149.718,271.668 150.683,279.893 152.711 " stroke="none" fill-rule="evenodd" fill="black"></path></svg>