<svg xmlns="http://www.w3.org/2000/svg" width="512" height="512" viewBox="0 0 512 512"><path d="M45.530 33.661 C 41.354 35.478,35.747 40.999,33.783 45.227 C 32.077 48.900,31.989 50.633,31.743 85.203 C 31.571 109.524,31.799 122.845,32.442 125.942 C 34.365 135.203,42.185 142.625,51.343 143.880 C 59.800 145.039,69.462 139.842,73.621 131.898 C 75.080 129.111,75.530 126.363,75.906 117.954 L 76.373 107.482 86.591 117.732 L 96.808 127.981 82.164 142.713 C 65.843 159.130,64.037 161.872,64.037 170.240 C 64.037 182.561,73.474 192.026,85.714 191.981 C 94.144 191.951,96.870 190.157,113.276 173.848 L 127.996 159.214 131.744 162.893 L 135.492 166.571 130.811 173.526 C 113.971 198.544,104.589 232.390,106.147 262.508 C 111.299 362.109,208.512 429.244,302.933 398.410 C 313.432 394.981,329.674 387.113,338.461 381.198 L 345.402 376.526 357.203 388.350 L 369.005 400.175 353.624 415.767 C 337.233 432.384,336.213 433.922,336.213 442.027 C 336.213 448.161,337.996 452.370,342.595 457.093 C 345.851 460.436,347.993 461.819,351.515 462.853 C 357.289 464.548,358.659 464.548,364.432 462.853 C 368.673 461.607,370.372 460.195,384.444 446.224 L 399.822 430.957 422.384 453.530 C 447.163 478.323,449.210 479.825,458.240 479.842 C 464.388 479.853,469.685 477.436,474.127 472.594 C 479.935 466.262,481.454 458.271,478.397 450.133 C 477.037 446.515,473.346 442.399,454.114 423.057 L 431.435 400.246 445.689 385.836 C 460.308 371.057,462.663 367.755,463.840 360.391 C 465.738 348.521,454.622 336.212,442.027 336.240 C 434.082 336.258,431.113 338.245,414.934 354.373 L 400.216 369.046 388.371 357.224 L 376.526 345.402 381.198 338.461 C 390.517 324.616,398.952 304.511,402.726 287.147 C 411.032 248.936,402.855 205.848,381.168 173.551 L 376.516 166.622 406.194 136.953 L 435.871 107.284 436.207 117.856 C 436.484 126.581,436.861 129.033,438.369 131.898 C 442.555 139.852,452.204 145.039,460.657 143.880 C 469.722 142.638,477.655 135.109,479.558 125.942 C 480.201 122.845,480.429 109.528,480.257 85.203 C 480.011 50.633,479.923 48.900,478.217 45.227 C 476.205 40.894,470.569 35.416,466.280 33.624 C 461.987 31.830,386.142 31.865,381.840 33.663 C 374.587 36.693,369.168 43.698,368.111 51.406 C 366.962 59.793,372.177 69.460,380.102 73.631 C 382.967 75.139,385.419 75.516,394.144 75.793 L 404.716 76.129 375.041 105.812 L 345.367 135.496 337.590 130.380 C 322.810 120.658,303.932 112.856,286.522 109.274 C 247.820 101.311,206.883 109.020,174.392 130.392 L 166.597 135.519 162.915 131.767 L 159.233 128.016 174.213 112.861 C 187.465 99.455,189.366 97.177,190.703 93.110 C 196.352 75.928,180.877 60.167,163.357 65.260 C 158.612 66.639,157.453 67.585,143.143 81.756 L 127.962 96.789 117.722 86.581 L 107.482 76.373 117.954 75.906 C 129.930 75.371,133.249 74.151,138.477 68.364 C 148.434 57.343,144.160 39.512,130.160 33.663 C 125.921 31.892,49.600 31.890,45.530 33.661 M272.217 151.419 C 294.577 154.790,314.288 164.852,330.718 181.282 C 347.148 197.712,357.210 217.423,360.581 239.783 C 365.488 272.333,355.447 304.748,333.099 328.504 C 312.894 349.982,285.510 361.813,256.000 361.813 C 197.554 361.813,150.197 314.452,150.197 256.000 C 150.197 234.900,156.283 214.865,168.215 196.693 C 173.964 187.937,187.937 173.964,196.693 168.215 C 219.488 153.248,245.692 147.421,272.217 151.419 " stroke="none" fill-rule="evenodd" fill="black"></path></svg>