<svg xmlns="http://www.w3.org/2000/svg" width="512" height="512" viewBox="0 0 512 512"><path d="M44.312 32.427 C 40.436 33.225,36.689 35.880,34.342 39.491 L 32.000 43.093 32.000 87.467 L 32.000 131.840 34.339 135.819 C 37.183 140.657,41.189 143.277,46.661 143.879 C 51.792 144.443,57.129 141.912,60.964 137.096 L 63.573 133.819 64.000 110.420 L 64.427 87.022 84.891 107.502 L 105.356 127.983 85.609 147.831 C 63.927 169.626,63.175 170.727,64.400 178.893 C 64.905 182.262,65.752 183.756,68.998 187.002 C 72.244 190.248,73.738 191.095,77.107 191.600 C 85.273 192.825,86.374 192.073,108.169 170.390 L 128.018 150.643 135.808 158.432 L 143.597 166.222 139.794 171.218 C 126.751 188.353,117.132 211.962,113.421 235.947 C 112.062 244.734,112.062 267.266,113.421 276.053 C 118.391 308.176,131.932 335.113,154.410 357.590 C 176.887 380.068,203.824 393.609,235.947 398.579 C 244.734 399.938,267.266 399.938,276.053 398.579 C 300.037 394.868,323.647 385.249,340.781 372.207 L 345.775 368.406 361.459 384.072 L 377.142 399.738 357.981 419.016 C 345.921 431.150,338.337 439.450,337.516 441.413 C 333.993 449.847,337.535 458.664,346.027 462.596 C 354.852 466.682,358.088 464.769,381.194 441.809 L 400.238 422.886 428.172 450.717 C 454.946 477.393,456.280 478.585,460.288 479.412 C 462.588 479.886,464.892 480.149,465.408 479.995 C 465.924 479.842,467.396 479.486,468.678 479.206 C 471.275 478.637,476.564 474.328,478.033 471.583 C 479.766 468.344,480.245 464.331,479.391 460.191 C 478.591 456.309,477.167 454.720,450.717 428.172 L 422.886 400.238 441.809 381.194 C 464.769 358.088,466.682 354.852,462.596 346.027 C 458.664 337.535,449.847 333.993,441.413 337.516 C 439.450 338.337,431.150 345.921,419.016 357.981 L 399.738 377.142 384.072 361.459 L 368.406 345.775 372.207 340.781 C 385.249 323.647,394.868 300.037,398.579 276.053 C 399.938 267.266,399.938 244.734,398.579 235.947 C 394.868 211.961,385.249 188.353,372.205 171.216 L 368.401 166.219 407.987 126.624 L 447.573 87.029 448.000 110.424 L 448.427 133.819 451.036 137.096 C 458.721 146.748,471.599 146.130,477.661 135.819 L 480.000 131.840 480.000 87.893 L 480.000 43.947 477.737 40.097 C 476.349 37.737,474.084 35.467,471.880 34.228 L 468.286 32.208 423.796 32.364 L 379.307 32.520 375.754 34.599 C 368.662 38.750,365.977 47.531,369.648 54.564 C 370.736 56.649,373.101 59.529,374.904 60.964 L 378.181 63.573 401.576 64.000 L 424.971 64.427 385.363 104.026 L 345.754 143.626 342.437 140.998 C 333.828 134.180,317.809 125.414,306.146 121.140 C 289.729 115.123,274.388 112.471,256.000 112.471 C 227.556 112.471,203.730 119.237,179.708 134.136 C 175.953 136.465,171.388 139.553,169.564 140.997 L 166.248 143.624 158.437 135.812 L 150.626 128.001 170.002 108.587 C 189.862 88.688,192.000 85.889,192.000 79.787 C 192.000 69.641,181.226 61.881,171.222 64.822 C 168.306 65.679,164.172 69.353,147.831 85.609 L 127.983 105.356 107.502 84.891 L 87.022 64.427 110.420 64.000 L 133.819 63.573 137.096 60.964 C 138.899 59.529,141.264 56.649,142.352 54.564 C 146.024 47.531,143.337 38.748,136.246 34.600 L 132.693 32.523 89.538 32.261 C 65.803 32.118,45.451 32.192,44.312 32.427 M273.058 145.492 C 296.349 148.990,317.811 159.942,334.935 177.065 C 352.058 194.189,363.010 215.651,366.508 238.942 C 375.392 298.088,337.073 353.109,278.158 365.803 C 267.996 367.993,244.004 367.993,233.842 365.803 C 211.745 361.042,192.797 350.750,177.065 334.964 C 133.187 290.934,133.174 220.897,177.036 177.036 C 202.411 151.661,237.464 140.146,273.058 145.492 " stroke="none" fill="black" fill-rule="evenodd"></path></svg>