<svg xmlns="http://www.w3.org/2000/svg" width="512" height="512" viewBox="0 0 512 512"><path d="M42.971 48.642 C 31.162 50.371,20.812 59.384,17.385 70.925 C 16.388 74.283,16.199 80.921,16.396 105.592 L 16.640 136.107 18.927 140.986 C 20.185 143.670,22.957 147.729,25.088 150.007 C 32.217 157.628,40.837 160.407,57.387 160.420 C 62.022 160.424,65.707 160.783,65.707 161.231 C 65.707 161.673,71.847 221.097,79.353 293.284 C 89.378 389.704,93.444 426.005,94.677 430.080 C 99.293 445.338,112.639 458.197,128.427 462.597 C 134.783 464.369,377.217 464.369,383.573 462.597 C 399.545 458.146,413.127 444.837,417.629 429.227 C 418.608 425.828,446.293 167.109,446.293 161.350 C 446.293 160.974,451.573 160.452,458.027 160.192 C 464.992 159.911,471.494 159.175,474.027 158.380 C 482.441 155.738,490.650 147.638,494.008 138.662 C 495.686 134.179,495.786 132.230,495.777 104.288 C 495.768 72.524,495.504 70.131,491.284 63.451 C 486.063 55.188,478.032 50.005,468.260 48.591 C 461.833 47.662,49.331 47.711,42.971 48.642 M464.213 104.107 L 464.213 128.000 256.000 128.000 L 47.787 128.000 47.787 104.107 L 47.787 80.213 256.000 80.213 L 464.213 80.213 464.213 104.107 M413.867 161.718 C 413.867 165.996,387.300 418.273,386.584 420.791 C 385.400 424.956,382.800 428.080,378.833 430.104 C 375.597 431.755,373.287 431.787,256.000 431.787 C 138.713 431.787,136.403 431.755,133.167 430.104 C 129.200 428.080,126.599 424.955,125.417 420.791 C 124.697 418.258,98.133 166.053,98.133 161.755 C 98.133 160.558,113.688 160.427,256.000 160.427 C 396.350 160.427,413.867 160.570,413.867 161.718 M192.427 226.023 C 189.029 228.133,186.346 231.138,185.230 234.082 C 183.900 237.592,184.118 243.734,185.683 246.869 C 186.433 248.371,197.470 260.064,210.211 272.853 L 233.375 296.107 209.741 319.787 C 196.742 332.811,185.705 344.548,185.214 345.869 C 183.857 349.516,184.146 355.920,185.815 359.193 C 186.635 360.802,188.753 363.274,190.520 364.686 C 194.606 367.951,202.026 368.796,206.583 366.516 C 208.184 365.715,219.957 354.636,232.747 341.896 L 256.000 318.732 279.253 341.896 C 292.043 354.636,303.816 365.715,305.417 366.516 C 309.974 368.796,317.394 367.951,321.480 364.686 C 323.247 363.274,325.365 360.802,326.185 359.193 C 327.854 355.920,328.143 349.516,326.786 345.869 C 326.295 344.548,315.258 332.811,302.259 319.787 L 278.625 296.107 301.789 272.853 C 314.530 260.064,325.567 248.371,326.317 246.869 C 327.881 243.736,328.100 237.595,326.772 234.082 C 325.661 231.139,322.070 227.247,318.976 225.630 C 316.257 224.210,309.166 224.050,305.762 225.331 C 304.441 225.828,292.704 236.859,279.680 249.844 L 256.000 273.453 232.320 249.844 C 219.296 236.859,207.559 225.828,206.238 225.331 C 202.374 223.876,195.313 224.230,192.427 226.023 " stroke="none" fill-rule="evenodd" fill="black"></path></svg>