<svg xmlns="http://www.w3.org/2000/svg" width="512" height="512" viewBox="0 0 512 512"><path d="M203.744 34.084 C 194.206 37.133,184.956 44.926,180.546 53.630 C 176.869 60.886,175.813 67.321,175.799 82.560 L 175.787 96.427 125.833 96.427 C 77.798 96.427,75.752 96.491,72.580 98.110 C 63.238 102.875,61.226 114.716,68.429 122.530 C 72.731 127.197,75.494 127.989,87.506 127.995 L 96.931 128.000 106.137 276.693 C 111.200 358.475,115.712 429.161,116.163 433.774 C 118.348 456.115,131.042 472.172,151.467 478.431 C 156.312 479.916,161.919 480.000,256.000 480.000 C 366.564 480.000,358.549 480.401,370.729 474.267 C 377.252 470.982,386.057 462.119,389.781 455.090 C 395.570 444.163,395.037 450.028,405.459 282.513 L 415.072 128.000 424.496 127.995 C 436.506 127.989,439.269 127.197,443.571 122.530 C 450.774 114.716,448.762 102.875,439.420 98.110 C 436.248 96.491,434.202 96.427,386.167 96.427 L 336.213 96.427 336.201 82.560 C 336.187 67.321,335.131 60.886,331.454 53.630 C 326.973 44.787,317.736 37.081,307.976 34.043 C 303.134 32.536,299.587 32.430,255.711 32.473 C 212.482 32.515,208.240 32.646,203.744 34.084 M301.292 66.494 L 303.787 68.989 303.787 82.708 L 303.787 96.427 256.000 96.427 L 208.213 96.427 208.213 82.708 L 208.213 68.989 210.708 66.494 L 213.202 64.000 256.000 64.000 L 298.798 64.000 301.292 66.494 M190.534 161.602 C 193.909 163.046,197.542 166.826,198.831 170.235 C 199.446 171.863,201.158 210.715,203.549 277.329 C 208.498 415.224,208.326 403.135,205.403 408.108 C 200.939 415.703,191.655 418.034,183.922 413.502 C 179.064 410.655,176.536 405.971,176.074 398.958 C 175.888 396.129,173.992 344.308,171.861 283.801 C 168.259 181.525,168.082 173.537,169.348 170.222 C 172.486 162.006,182.221 158.045,190.534 161.602 M264.041 162.476 C 266.078 163.670,268.425 166.075,269.663 168.236 L 271.787 171.947 271.787 288.000 L 271.787 404.053 269.663 407.764 C 268.388 409.990,266.072 412.333,263.873 413.622 C 256.326 418.045,246.729 415.434,242.337 407.764 L 240.213 404.053 240.213 288.000 L 240.213 171.947 242.329 168.252 C 246.664 160.680,256.508 158.062,264.041 162.476 M337.492 163.355 C 339.247 164.693,341.435 167.489,342.355 169.568 L 344.027 173.347 340.138 284.007 C 338.000 344.870,336.089 396.850,335.891 399.517 C 335.182 409.092,328.706 415.770,320.129 415.770 C 312.651 415.770,306.789 411.284,304.745 403.997 C 303.718 400.335,311.885 173.626,313.167 170.240 C 314.411 166.951,318.019 163.105,321.280 161.590 C 322.849 160.861,325.865 160.502,329.071 160.661 C 333.266 160.870,334.934 161.403,337.492 163.355 " stroke="none" fill-rule="evenodd" fill="black"></path></svg>