<svg xmlns="http://www.w3.org/2000/svg" width="512" height="512" viewBox="0 0 512 512"><path d="M40.407 48.715 C 36.556 49.836,32.653 54.639,32.003 59.057 C 31.707 61.072,31.585 75.392,31.732 90.880 C 31.983 117.238,32.109 119.225,33.707 121.930 C 34.645 123.520,36.751 125.536,38.387 126.410 C 41.265 127.949,48.250 128.000,256.000 128.000 C 463.750 128.000,470.735 127.949,473.613 126.410 C 475.249 125.536,477.355 123.520,478.293 121.930 C 479.916 119.181,480.000 117.508,480.000 87.743 C 480.000 57.463,479.943 56.368,478.241 54.089 C 477.273 52.793,475.421 50.940,474.125 49.973 L 471.768 48.213 257.431 48.074 C 129.699 47.990,42.008 48.250,40.407 48.715 M64.359 164.480 C 64.644 166.709,71.398 230.549,79.367 306.347 C 87.337 382.144,94.258 445.590,94.749 447.338 C 95.865 451.313,100.282 457.180,104.089 459.746 C 111.075 464.454,103.793 464.252,257.746 464.010 L 399.787 463.787 404.299 461.748 C 409.761 459.280,414.937 453.663,416.807 448.175 C 417.682 445.607,423.344 394.911,432.646 306.356 C 440.608 230.553,447.356 166.709,447.641 164.480 L 448.160 160.427 256.000 160.427 L 63.840 160.427 64.359 164.480 M228.049 242.982 L 256.000 270.924 284.161 242.773 L 312.321 214.622 324.903 227.204 L 337.485 239.785 309.334 267.946 L 281.183 296.107 309.124 324.058 L 337.066 352.008 324.484 364.590 L 311.902 377.172 283.951 349.231 L 256.000 321.290 228.049 349.231 L 200.098 377.172 187.516 364.590 L 174.934 352.008 202.876 324.058 L 230.817 296.107 202.670 267.950 L 174.523 239.793 186.877 227.416 C 193.672 220.609,199.426 215.040,199.664 215.040 C 199.902 215.040,212.675 227.614,228.049 242.982 " stroke="none" fill-rule="evenodd" fill="black"></path></svg>