<svg xmlns="http://www.w3.org/2000/svg" width="512" height="512" viewBox="0 0 512 512"><path d="M183.359 34.872 C 176.417 39.274,176.250 40.073,175.965 70.187 L 175.717 96.427 119.858 96.427 L 64.000 96.427 64.000 116.480 L 64.000 136.533 80.640 136.533 L 97.280 136.533 97.270 138.880 C 97.265 140.171,101.685 210.923,107.092 296.107 C 114.158 407.422,117.307 452.482,118.285 456.304 C 120.779 466.039,127.975 473.962,137.999 478.008 L 142.933 480.000 256.000 480.000 L 369.067 480.000 374.001 478.008 C 384.021 473.964,391.217 466.043,393.718 456.304 C 394.703 452.470,397.826 407.775,404.912 296.107 C 410.317 210.923,414.735 140.171,414.730 138.880 L 414.720 136.533 431.360 136.533 L 448.000 136.533 448.000 116.480 L 448.000 96.427 392.142 96.427 L 336.283 96.427 336.035 70.187 C 335.750 40.073,335.583 39.274,328.641 34.872 L 324.786 32.427 256.000 32.427 L 187.214 32.427 183.359 34.872 M294.766 65.341 C 295.882 66.457,296.107 69.172,296.107 81.563 L 296.107 96.444 256.213 96.222 L 216.320 96.000 216.087 81.361 C 215.888 68.890,216.055 66.520,217.214 65.361 C 218.419 64.157,222.884 64.000,256.000 64.000 C 288.885 64.000,293.587 64.163,294.766 65.341 M200.014 165.760 C 200.273 168.693,202.217 222.549,204.336 285.440 C 206.454 348.331,208.416 403.531,208.696 408.107 L 209.203 416.427 192.895 416.427 C 180.597 416.427,176.503 416.164,176.248 415.360 C 175.985 414.530,167.159 165.930,167.235 161.493 C 167.249 160.678,171.061 160.427,183.399 160.427 L 199.544 160.427 200.014 165.760 M272.003 288.213 L 271.787 416.000 256.000 416.000 L 240.213 416.000 239.997 288.213 L 239.781 160.427 256.000 160.427 L 272.219 160.427 272.003 288.213 M344.773 161.067 C 344.894 164.047,336.006 414.547,335.750 415.360 C 335.496 416.164,331.404 416.427,319.105 416.427 L 302.797 416.427 303.305 408.107 C 303.584 403.531,305.545 348.331,307.662 285.440 C 309.780 222.549,311.725 168.693,311.984 165.760 L 312.456 160.427 328.601 160.427 C 337.481 160.427,344.758 160.715,344.773 161.067 " stroke="none" fill-rule="evenodd" fill="black"></path></svg>