<svg xmlns="http://www.w3.org/2000/svg" width="512" height="512" viewBox="0 0 512 512"><path d="M57.173 48.973 C 43.977 51.907,34.641 61.968,32.397 75.673 C 31.307 82.327,31.358 94.940,32.501 101.177 C 34.427 111.690,41.384 120.682,51.200 125.344 L 55.893 127.573 256.000 127.573 L 456.107 127.573 460.800 125.344 C 470.616 120.682,477.573 111.690,479.499 101.177 C 480.642 94.940,480.693 82.327,479.603 75.673 C 477.292 61.563,467.345 51.263,453.569 48.716 C 445.944 47.307,63.554 47.555,57.173 48.973 M68.653 162.685 C 67.289 164.156,66.560 165.948,66.560 167.828 C 66.560 175.143,93.160 425.148,94.380 429.303 C 99.318 446.113,113.665 459.293,130.987 462.930 C 139.939 464.809,372.061 464.809,381.013 462.930 C 398.290 459.302,412.685 446.108,417.590 429.403 C 419.231 423.816,445.845 168.983,445.099 166.009 C 444.806 164.842,443.730 163.109,442.709 162.157 C 440.855 160.430,440.514 160.427,255.798 160.427 L 70.745 160.427 68.653 162.685 M206.762 225.790 C 208.264 226.540,219.957 237.577,232.747 250.317 L 256.000 273.482 279.253 250.317 C 292.043 237.577,303.736 226.540,305.238 225.790 C 310.675 223.076,319.505 224.752,323.594 229.274 C 325.778 231.689,327.680 236.781,327.680 240.213 C 327.680 246.409,325.607 249.028,301.845 272.854 L 278.654 296.107 302.263 319.787 C 315.248 332.811,326.278 344.548,326.776 345.869 C 327.963 349.023,327.932 356.314,326.722 358.669 C 325.307 361.425,321.599 365.212,318.976 366.583 C 315.892 368.194,308.615 368.110,305.238 366.424 C 303.736 365.674,292.046 354.640,279.261 341.903 L 256.015 318.747 232.754 341.945 C 217.475 357.182,208.405 365.596,206.321 366.465 C 196.658 370.491,185.706 364.134,184.544 353.823 C 183.694 346.281,184.475 345.228,209.786 319.787 L 233.346 296.107 210.155 272.854 C 186.238 248.873,184.302 246.410,184.339 240.027 C 184.360 236.328,186.738 230.621,189.106 228.587 C 193.987 224.394,201.562 223.194,206.762 225.790 " stroke="none" fill-rule="evenodd" fill="black"></path></svg>