<svg xmlns="http://www.w3.org/2000/svg" width="512" height="512" viewBox="0 0 512 512"><path d="M204.373 33.610 C 192.497 37.423,182.398 47.084,178.166 58.681 C 176.656 62.820,176.322 66.102,175.994 79.994 L 175.606 96.416 125.979 96.370 C 98.684 96.345,75.589 96.596,74.656 96.929 C 66.459 99.847,61.817 110.168,65.178 118.001 C 66.614 121.347,71.251 125.866,74.509 127.094 C 75.830 127.592,81.412 128.000,86.913 128.000 L 96.916 128.000 106.106 275.840 C 111.161 357.152,115.666 427.811,116.118 432.860 C 118.134 455.379,129.374 470.679,148.999 477.619 L 155.733 480.000 256.000 480.000 L 356.267 480.000 363.001 477.619 C 378.944 471.981,389.996 459.910,394.170 443.575 C 395.459 438.533,397.621 407.614,405.425 282.667 L 415.085 128.000 425.170 128.000 C 436.524 128.000,439.256 127.219,443.468 122.768 C 448.122 117.851,449.226 112.107,446.687 106.030 C 444.984 101.953,443.197 100.038,439.187 97.991 C 436.054 96.392,433.892 96.326,386.157 96.370 L 336.394 96.416 336.006 79.994 C 335.678 66.102,335.344 62.820,333.834 58.681 C 330.279 48.941,322.163 40.144,312.511 35.571 L 306.773 32.853 257.280 32.684 C 218.940 32.552,207.017 32.761,204.373 33.610 M301.728 66.821 C 303.718 69.135,303.787 69.670,303.787 82.821 L 303.787 96.427 256.000 96.427 L 208.213 96.427 208.213 82.963 C 208.213 68.570,208.737 66.494,212.785 64.834 C 213.790 64.422,233.751 64.161,257.141 64.255 L 299.669 64.427 301.728 66.821 M382.655 132.053 C 382.430 134.283,378.245 201.195,373.356 280.747 C 368.467 360.299,364.106 428.181,363.665 431.597 C 362.666 439.330,359.816 444.027,354.717 446.342 C 351.278 447.903,347.647 447.963,256.000 447.963 C 165.479 447.963,160.687 447.886,157.440 446.395 C 155.563 445.533,153.369 444.087,152.566 443.183 C 148.458 438.556,148.742 441.853,139.060 286.324 C 133.975 204.643,129.635 135.605,129.415 132.907 L 129.015 128.000 256.041 128.000 L 383.066 128.000 382.655 132.053 M177.067 161.769 C 173.299 163.728,171.073 166.073,169.348 169.900 C 167.854 173.212,167.924 176.486,171.846 287.400 C 174.229 354.815,176.258 402.715,176.805 404.480 C 178.968 411.462,184.780 415.770,192.036 415.770 C 199.915 415.770,206.758 409.985,207.744 402.490 C 208.549 396.371,200.034 173.119,198.886 170.240 C 197.644 167.125,194.090 163.257,190.976 161.630 C 187.915 160.031,180.261 160.107,177.067 161.769 M247.743 162.579 C 245.783 163.754,243.287 166.150,242.196 167.904 L 240.213 171.093 240.213 288.000 L 240.213 404.907 242.208 408.114 C 248.440 418.138,263.560 418.138,269.792 408.114 L 271.787 404.907 271.787 288.000 L 271.787 171.093 269.792 167.886 C 265.287 160.639,255.078 158.182,247.743 162.579 M320.427 161.974 C 316.975 164.183,314.353 167.149,313.117 170.240 C 311.966 173.118,303.449 396.358,304.256 402.490 C 305.678 413.303,318.325 419.217,327.956 413.573 C 332.059 411.169,333.757 409.033,335.184 404.480 C 335.746 402.686,337.727 355.999,340.145 287.573 L 344.170 173.653 342.426 169.721 C 339.775 163.740,335.562 160.960,328.628 160.616 C 324.186 160.395,322.442 160.684,320.427 161.974 " stroke="none" fill-rule="evenodd" fill="black"></path></svg>