<svg xmlns="http://www.w3.org/2000/svg" width="512" height="512" viewBox="0 0 512 512"><path d="M41.387 129.560 C 36.652 131.818,34.089 134.885,32.808 139.826 C 31.487 144.919,32.241 149.026,35.310 153.443 C 36.511 155.172,65.250 184.292,99.174 218.155 C 143.279 262.181,162.424 280.729,166.365 283.251 C 181.823 293.146,202.267 293.136,217.635 283.225 C 221.194 280.930,233.125 269.769,251.307 251.729 C 266.795 236.361,280.408 223.300,281.558 222.705 C 284.459 221.205,291.793 221.351,294.847 222.970 C 296.244 223.711,326.186 253.142,361.385 288.372 L 425.382 352.427 386.744 352.427 C 344.080 352.427,344.671 352.359,339.869 357.828 C 333.333 365.272,335.958 377.832,344.960 382.190 C 348.661 383.982,349.296 384.000,407.949 383.981 C 463.588 383.964,467.410 383.867,470.649 382.396 C 475.402 380.237,478.415 376.352,479.540 370.934 C 480.191 367.799,480.409 348.614,480.242 309.272 L 480.000 252.160 477.737 248.311 C 474.714 243.168,469.572 240.261,463.643 240.342 C 458.405 240.413,454.806 242.293,451.077 246.905 L 448.427 250.183 448.180 289.525 L 447.934 328.868 384.180 265.271 C 349.116 230.293,318.891 200.507,317.013 199.082 C 302.220 187.847,282.063 186.339,265.048 195.193 C 259.749 197.950,255.281 202.020,229.537 227.544 C 213.340 243.602,199.011 257.150,197.695 257.650 C 194.646 258.810,189.387 258.817,186.296 257.666 C 184.959 257.168,156.267 229.219,121.600 194.645 C 87.339 160.475,58.056 131.665,56.528 130.623 C 52.592 127.941,45.784 127.463,41.387 129.560 " stroke="none" fill-rule="evenodd" fill="black"></path></svg>