<svg xmlns="http://www.w3.org/2000/svg" width="512" height="512" viewBox="0 0 512 512"><path d="M336.213 144.213 L 336.213 160.427 380.371 160.427 L 424.529 160.427 356.267 228.693 L 288.005 296.959 240.001 248.961 L 191.998 200.963 108.592 284.369 L 25.186 367.775 36.693 379.306 L 48.200 390.837 120.099 318.941 L 191.999 247.045 239.576 294.616 C 265.743 320.780,287.534 342.187,288.001 342.187 C 288.468 342.187,324.659 306.379,368.425 262.615 L 448.000 183.043 448.000 227.647 L 448.000 272.251 464.000 272.019 L 480.000 271.787 480.218 199.893 L 480.436 128.000 408.325 128.000 L 336.213 128.000 336.213 144.213 " stroke="none" fill="black" fill-rule="evenodd"></path></svg>