<svg xmlns="http://www.w3.org/2000/svg" width="512" height="512" viewBox="0 0 512 512"><path d="M36.693 132.694 L 25.186 144.225 108.592 227.631 L 191.998 311.037 240.001 263.039 L 288.005 215.041 356.694 283.734 L 425.383 352.427 380.798 352.427 L 336.213 352.427 336.213 368.213 L 336.213 384.000 408.325 384.000 L 480.436 384.000 480.218 312.107 L 480.000 240.213 464.000 239.981 L 448.000 239.749 448.000 284.353 L 448.000 328.957 368.425 249.385 C 324.659 205.621,288.468 169.813,288.001 169.813 C 287.534 169.813,265.743 191.220,239.576 217.384 L 191.999 264.955 120.099 193.059 L 48.200 121.163 36.693 132.694 " stroke="none" fill="black" fill-rule="evenodd"></path></svg>