<svg xmlns="http://www.w3.org/2000/svg" width="512" height="512" viewBox="0 0 512 512"><path d="M344.890 129.831 C 338.100 133.192,334.545 142.119,337.015 149.604 C 338.487 154.063,343.666 158.347,348.956 159.481 C 351.782 160.087,366.137 160.427,388.947 160.427 L 424.529 160.427 360.958 224.087 C 317.607 267.498,296.301 288.256,293.973 289.348 C 285.064 293.527,283.898 292.734,251.313 260.335 C 221.541 230.732,216.552 226.626,206.568 223.498 C 198.761 221.052,185.239 221.052,177.432 223.498 C 166.427 226.945,164.182 228.964,99.171 293.850 C 65.246 327.710,36.507 356.828,35.307 358.557 C 32.241 362.976,31.487 367.083,32.808 372.174 C 34.096 377.138,36.680 380.215,41.387 382.387 C 45.575 384.320,50.231 384.425,54.427 382.682 C 56.639 381.764,76.728 362.261,120.747 318.298 C 155.918 283.172,184.958 254.835,186.296 254.336 C 189.385 253.184,194.641 253.190,197.704 254.349 C 199.026 254.849,212.971 268.030,228.693 283.639 C 244.416 299.249,259.100 313.255,261.324 314.765 C 263.549 316.275,267.965 318.538,271.138 319.794 C 276.352 321.858,277.974 322.078,288.000 322.076 C 300.381 322.073,304.811 320.883,314.027 315.087 C 317.023 313.202,342.078 288.819,383.327 247.644 L 447.934 183.153 448.180 222.485 L 448.427 261.817 451.036 265.095 C 458.720 274.748,471.599 274.131,477.661 263.819 L 480.000 259.840 480.242 202.728 C 480.409 163.386,480.191 144.201,479.540 141.066 C 478.415 135.648,475.402 131.763,470.649 129.604 C 467.410 128.133,463.588 128.036,407.893 128.019 C 348.958 128.001,348.564 128.013,344.890 129.831 " stroke="none" fill-rule="evenodd" fill="black"></path></svg>