<svg xmlns="http://www.w3.org/2000/svg" width="512" height="512" viewBox="0 0 512 512"><path d="M52.247 81.448 C 40.113 84.386,26.848 94.909,21.448 105.879 C 15.938 117.070,16.235 109.929,16.223 231.714 C 16.213 350.738,16.074 346.583,20.388 356.213 C 25.961 368.651,39.324 379.464,53.152 382.725 C 61.143 384.609,450.857 384.609,458.848 382.725 C 472.676 379.464,486.039 368.651,491.612 356.213 C 495.926 346.583,495.787 350.738,495.777 231.714 C 495.765 109.929,496.062 117.070,490.552 105.879 C 484.948 94.494,470.957 83.727,458.411 81.144 C 451.355 79.692,58.286 79.986,52.247 81.448 M455.951 114.238 C 457.742 115.352,460.238 117.820,461.497 119.723 L 463.787 123.182 463.787 231.618 L 463.787 340.053 461.663 343.764 C 460.354 346.049,458.060 348.343,455.689 349.737 L 451.840 352.000 256.000 352.000 L 60.160 352.000 56.311 349.737 C 53.940 348.343,51.646 346.049,50.337 343.764 L 48.213 340.053 48.213 231.680 L 48.213 123.307 50.193 120.122 C 52.519 116.383,56.297 113.495,60.045 112.595 C 61.516 112.241,150.464 112.011,257.707 112.083 L 452.693 112.213 455.951 114.238 M121.600 401.428 C 116.310 403.799,111.824 410.485,111.824 416.000 C 111.824 421.532,116.992 428.875,122.296 430.879 C 125.667 432.153,386.333 432.153,389.704 430.879 C 395.008 428.875,400.176 421.532,400.176 416.000 C 400.176 410.468,395.008 403.125,389.704 401.121 C 388.044 400.493,346.695 400.224,255.731 400.247 C 147.429 400.274,123.707 400.483,121.600 401.428 " stroke="none" fill="black" fill-rule="evenodd"></path></svg>