<svg xmlns="http://www.w3.org/2000/svg" width="512" height="512" viewBox="0 0 512 512"><path d="M18.839 82.423 L 16.213 84.632 16.213 231.821 L 16.213 379.011 18.708 381.506 L 21.202 384.000 256.000 384.000 L 490.798 384.000 493.292 381.506 L 495.787 379.011 495.787 231.821 L 495.787 84.632 493.161 82.423 L 490.536 80.213 256.000 80.213 L 21.464 80.213 18.839 82.423 M113.128 401.554 C 112.028 402.654,111.787 405.196,111.787 415.690 C 111.787 422.879,112.174 429.209,112.670 430.136 C 113.538 431.758,116.041 431.787,256.000 431.787 C 395.959 431.787,398.462 431.758,399.330 430.136 C 399.826 429.209,400.213 422.879,400.213 415.690 C 400.213 405.196,399.972 402.654,398.872 401.554 C 397.664 400.346,383.527 400.213,256.000 400.213 C 128.473 400.213,114.336 400.346,113.128 401.554 " stroke="none" fill-rule="evenodd" fill="black"></path></svg>