<svg xmlns="http://www.w3.org/2000/svg" width="512" height="512" viewBox="0 0 512 512"><path d="M52.604 81.565 C 40.170 84.575,27.012 94.853,21.562 105.813 C 15.922 117.155,16.213 110.290,16.213 231.949 C 16.213 329.962,16.365 342.956,17.566 347.610 C 21.700 363.633,33.835 376.355,50.347 381.976 C 54.881 383.519,61.852 383.573,256.000 383.573 C 450.148 383.573,457.119 383.519,461.653 381.976 C 478.165 376.355,490.300 363.633,494.434 347.610 C 495.635 342.956,495.787 329.962,495.787 231.949 C 495.787 110.290,496.078 117.155,490.438 105.813 C 484.895 94.666,471.789 84.539,459.005 81.525 C 451.029 79.645,60.377 79.683,52.604 81.565 M121.600 401.428 C 116.310 403.799,111.824 410.485,111.824 416.000 C 111.824 421.532,116.992 428.875,122.296 430.879 C 125.667 432.153,386.333 432.153,389.704 430.879 C 395.008 428.875,400.176 421.532,400.176 416.000 C 400.176 410.468,395.008 403.125,389.704 401.121 C 388.044 400.493,346.695 400.224,255.731 400.247 C 147.429 400.274,123.707 400.483,121.600 401.428 " stroke="none" fill-rule="evenodd" fill="black"></path></svg>