<svg xmlns="http://www.w3.org/2000/svg" width="512" height="512" viewBox="0 0 512 512"><path d="M247.743 34.579 C 243.680 37.014,241.051 40.794,240.190 45.440 C 239.855 47.247,239.100 48.640,238.455 48.640 C 237.828 48.640,232.798 49.232,227.278 49.956 C 187.304 55.196,149.911 70.952,116.907 96.461 C 106.505 104.501,88.287 122.718,80.248 133.120 C 49.751 172.577,33.055 218.721,32.238 265.813 C 32.096 273.983,32.347 276.588,33.480 278.700 C 35.357 282.200,40.412 286.569,43.322 287.206 C 44.604 287.486,46.118 287.858,46.687 288.032 C 49.321 288.837,56.442 285.971,60.033 282.661 C 72.118 271.522,87.014 266.627,102.490 268.710 C 114.312 270.301,123.038 274.431,131.967 282.661 C 137.996 288.219,146.325 289.447,152.141 285.636 C 153.195 284.945,156.354 282.397,159.162 279.972 C 165.562 274.445,177.781 268.294,185.600 266.663 C 203.070 263.017,221.914 266.887,235.733 276.956 L 239.787 279.910 239.787 357.712 C 239.787 435.252,239.781 435.527,237.977 439.254 C 234.291 446.867,224.913 450.040,217.173 446.293 C 211.892 443.737,209.184 439.500,208.146 432.169 C 207.147 425.115,204.941 421.348,200.171 418.552 C 192.941 414.316,182.691 416.651,178.459 423.499 C 172.349 433.384,178.019 453.814,190.207 465.835 C 199.952 475.446,210.499 479.806,224.000 479.806 C 245.229 479.806,262.277 467.285,270.207 445.867 C 271.692 441.857,271.812 436.717,272.213 360.533 L 272.640 279.467 279.239 275.105 C 288.810 268.778,297.498 266.074,309.760 265.606 C 322.337 265.127,329.841 266.645,340.053 271.736 C 344.277 273.841,350.031 277.548,352.838 279.972 C 355.646 282.397,358.805 284.945,359.859 285.636 C 365.675 289.447,374.004 288.219,380.033 282.661 C 388.962 274.431,397.688 270.301,409.510 268.710 C 424.986 266.627,439.882 271.522,451.967 282.661 C 455.558 285.971,462.679 288.837,465.313 288.032 C 465.882 287.858,467.396 287.486,468.678 287.206 C 471.588 286.569,476.643 282.200,478.520 278.700 C 479.653 276.588,479.904 273.983,479.762 265.813 C 478.935 218.152,461.313 170.174,430.397 131.413 C 422.973 122.104,406.109 105.241,396.800 97.816 C 370.322 76.697,336.054 60.187,304.606 53.397 C 296.119 51.565,277.021 48.640,273.545 48.640 C 272.900 48.640,272.145 47.247,271.810 45.440 C 269.782 34.500,257.284 28.860,247.743 34.579 M285.440 82.288 C 326.216 88.790,362.618 107.368,391.680 136.506 C 413.213 158.095,428.840 183.395,438.116 211.684 C 441.795 222.903,445.947 240.417,445.124 241.241 C 444.909 241.456,444.028 241.269,443.166 240.826 C 442.305 240.383,438.720 239.296,435.200 238.410 C 426.433 236.204,404.891 236.184,396.800 238.374 C 388.164 240.711,380.679 243.734,374.300 247.462 C 371.083 249.342,368.275 250.880,368.059 250.880 C 367.844 250.880,365.939 249.691,363.826 248.237 C 357.912 244.168,345.054 238.387,337.599 236.445 C 310.922 229.496,283.909 233.750,261.339 248.455 L 255.969 251.954 251.404 248.924 C 228.783 233.904,201.272 229.446,174.401 236.445 C 166.946 238.387,154.088 244.168,148.174 248.237 C 146.061 249.691,144.156 250.880,143.941 250.880 C 143.725 250.880,140.917 249.342,137.700 247.462 C 131.335 243.743,123.869 240.724,115.200 238.366 C 106.750 236.067,84.612 236.227,75.947 238.650 C 72.427 239.635,68.875 240.718,68.053 241.058 C 66.105 241.864,66.128 241.490,68.755 229.779 C 76.522 195.149,94.284 162.767,119.467 137.329 C 150.515 105.965,188.828 87.040,232.532 81.481 C 244.577 79.948,273.542 80.390,285.440 82.288 " stroke="none" fill-rule="evenodd" fill="black"></path></svg>