<svg xmlns="http://www.w3.org/2000/svg" width="512" height="512" viewBox="0 0 512 512"><path d="M247.816 34.535 C 245.370 36.001,243.523 38.135,241.640 41.667 C 240.162 44.439,238.438 47.136,237.807 47.659 C 237.177 48.182,231.316 49.382,224.784 50.326 C 176.011 57.370,132.374 79.191,97.676 113.889 C 66.598 144.967,45.572 183.730,36.715 226.275 C 32.464 246.696,30.799 273.692,33.482 278.700 C 35.356 282.199,40.411 286.568,43.322 287.206 C 44.604 287.486,46.076 287.842,46.592 287.995 C 49.597 288.890,55.552 286.353,60.677 281.994 C 71.697 272.621,82.491 268.497,96.000 268.497 C 109.509 268.497,120.303 272.621,131.323 281.994 C 137.295 287.073,142.049 288.735,147.250 287.562 C 150.806 286.760,152.568 285.656,158.733 280.369 C 173.081 268.062,193.006 262.879,211.662 266.600 C 220.078 268.278,233.163 274.255,237.149 278.240 L 239.813 280.904 239.586 359.182 L 239.360 437.459 237.304 440.460 C 232.509 447.456,224.418 449.800,217.173 446.293 C 212.068 443.822,209.177 439.460,208.237 432.808 C 207.202 425.487,205.157 421.736,200.641 418.872 C 196.218 416.067,189.383 415.530,185.258 417.663 C 179.987 420.389,175.778 427.439,175.806 433.493 C 175.812 434.667,176.379 438.281,177.066 441.525 C 184.048 474.484,221.355 490.330,249.600 472.333 C 255.905 468.316,263.505 459.639,266.806 452.689 C 272.272 441.178,272.182 442.757,272.199 357.826 L 272.213 280.878 274.864 278.227 C 278.838 274.253,291.933 268.276,300.338 266.600 C 318.994 262.879,338.919 268.062,353.267 280.369 C 359.432 285.656,361.194 286.760,364.750 287.562 C 369.951 288.735,374.705 287.073,380.677 281.994 C 391.692 272.626,402.430 268.534,416.000 268.534 C 429.570 268.534,440.308 272.626,451.323 281.994 C 456.448 286.353,462.403 288.890,465.408 287.995 C 465.924 287.842,467.412 287.482,468.715 287.196 C 472.645 286.334,477.702 281.078,479.086 276.417 C 481.115 269.587,479.268 245.495,475.206 225.811 C 468.456 193.092,453.535 161.273,431.743 133.120 C 424.187 123.360,406.781 105.739,396.800 97.747 C 365.165 72.416,327.857 56.232,287.514 50.338 C 280.777 49.354,274.765 48.134,274.155 47.628 C 273.545 47.122,271.834 44.432,270.352 41.651 C 266.895 35.167,262.601 32.423,255.925 32.435 C 252.551 32.441,250.366 33.007,247.816 34.535 " stroke="none" fill-rule="evenodd" fill="black"></path></svg>