<svg xmlns="http://www.w3.org/2000/svg" width="512" height="512" viewBox="0 0 512 512"><path d="M239.787 40.472 L 239.787 48.517 234.880 49.049 C 191.350 53.764,154.707 68.036,120.389 93.641 C 107.541 103.228,87.111 123.704,77.168 136.960 C 53.434 168.604,38.803 204.540,33.744 243.621 C 32.129 256.093,30.923 293.547,32.136 293.547 C 32.595 293.547,36.208 290.613,40.165 287.027 C 50.355 277.793,55.094 274.375,62.346 271.028 C 82.265 261.835,105.714 263.987,124.587 276.742 C 126.699 278.169,131.974 282.792,136.309 287.015 L 144.191 294.692 153.375 285.743 C 167.513 271.966,179.011 266.522,195.875 265.619 C 210.203 264.851,225.296 269.200,236.160 277.225 L 239.787 279.904 239.787 357.709 C 239.787 435.252,239.781 435.527,237.977 439.254 C 235.294 444.796,230.628 447.573,224.000 447.573 C 219.738 447.573,218.107 447.144,215.294 445.283 C 209.755 441.617,208.213 437.413,208.213 425.971 L 208.213 416.427 192.000 416.427 L 175.787 416.427 175.801 426.027 C 175.810 431.307,176.381 438.315,177.070 441.600 C 181.745 463.867,201.357 479.852,224.000 479.852 C 246.643 479.852,266.255 463.867,270.930 441.600 C 271.979 436.600,272.186 422.941,272.199 357.765 L 272.213 279.904 275.840 277.225 C 286.704 269.200,301.797 264.851,316.125 265.619 C 332.989 266.522,344.487 271.966,358.625 285.743 L 367.809 294.692 375.691 287.015 C 384.748 278.193,389.342 274.875,397.931 270.955 C 407.013 266.809,412.111 265.811,424.107 265.831 C 432.838 265.845,435.929 266.208,441.143 267.831 C 453.001 271.522,458.952 275.279,472.494 287.623 C 476.068 290.881,479.376 293.547,479.845 293.547 C 481.067 293.547,479.872 256.664,478.248 244.247 C 471.692 194.118,450.033 149.651,415.167 114.738 C 396.457 96.004,379.017 83.374,355.902 71.819 C 330.559 59.150,309.384 53.059,276.693 49.032 L 272.213 48.480 272.213 40.453 L 272.213 32.427 256.000 32.427 L 239.787 32.427 239.787 40.472 " stroke="none" fill-rule="evenodd" fill="black"></path></svg>