<svg id="icons" xmlns="http://www.w3.org/2000/svg" viewBox="0 0 512 512"><path d="M124.587 143.814 C 73.515 152.848,35.652 194.003,30.557 246.021 C 26.162 290.883,50.599 335.500,91.342 357.002 C 99.962 361.552,113.737 366.340,123.733 368.262 C 134.717 370.374,205.976 371.118,212.608 369.190 C 217.394 367.799,221.881 364.204,224.037 360.035 C 228.082 352.212,225.349 342.206,217.742 336.990 L 214.743 334.933 174.998 334.437 C 131.046 333.888,128.189 333.588,114.578 328.100 C 88.143 317.440,68.949 291.697,66.711 263.901 C 63.946 229.557,80.693 199.967,110.970 185.695 C 125.550 178.823,124.197 178.988,170.667 178.423 C 215.889 177.873,215.281 177.943,220.453 172.724 C 224.326 168.814,225.635 165.601,225.635 160.000 C 225.635 152.608,221.682 146.373,215.281 143.667 C 211.395 142.025,133.993 142.150,124.587 143.814 M296.533 143.702 C 290.260 146.467,286.365 152.710,286.365 160.000 C 286.365 165.601,287.674 168.814,291.547 172.724 C 296.719 177.943,296.111 177.873,341.333 178.423 C 387.774 178.987,386.460 178.828,400.953 185.659 C 428.856 198.810,445.542 225.134,445.542 256.000 C 445.542 293.230,420.306 324.354,383.561 332.441 C 377.823 333.704,370.467 334.019,337.002 334.437 L 297.257 334.933 294.258 336.990 C 281.360 345.835,284.388 364.828,299.392 369.190 C 306.024 371.118,377.283 370.374,388.267 368.262 C 432.795 359.701,467.498 326.907,478.631 282.868 C 485.236 256.744,481.599 227.217,468.812 203.129 C 451.782 171.051,420.570 148.789,385.117 143.434 C 375.698 142.011,299.848 142.241,296.533 143.702 " fill="black" stroke="none" fill-rule="evenodd"></path></svg>