<svg id="icons" xmlns="http://www.w3.org/2000/svg" viewBox="0 0 512 512"><path d="M123.733 137.826 C 102.730 141.494,80.398 152.194,64.825 166.053 C 41.282 187.003,27.797 213.654,24.602 245.547 C 21.436 277.148,32.735 311.602,53.954 335.045 C 69.993 352.765,86.796 363.636,108.977 370.643 C 124.123 375.428,128.662 375.823,168.960 375.859 C 205.176 375.893,206.177 375.849,210.047 374.059 C 214.829 371.849,220.035 366.824,222.322 362.212 C 224.672 357.472,224.672 346.528,222.322 341.788 C 220.094 337.296,214.871 332.175,210.484 330.183 C 207.226 328.704,204.505 328.569,177.493 328.545 C 135.159 328.507,125.533 327.342,112.213 320.642 C 92.859 310.906,77.989 292.050,73.883 272.036 C 72.147 263.574,72.147 248.426,73.883 239.964 C 78.871 215.652,99.009 194.221,123.886 186.750 C 129.774 184.982,132.268 184.846,167.253 184.382 C 204.029 183.895,204.415 183.872,208.878 181.856 C 217.180 178.107,223.573 168.598,223.573 160.000 C 223.573 151.624,217.420 142.228,209.526 138.552 L 205.227 136.550 167.680 136.629 C 140.878 136.686,128.302 137.028,123.733 137.826 M302.474 138.552 C 294.580 142.228,288.427 151.624,288.427 160.000 C 288.427 168.598,294.820 178.107,303.122 181.856 C 307.585 183.872,307.971 183.895,344.747 184.382 C 379.743 184.846,382.224 184.981,388.120 186.752 C 412.961 194.211,433.135 215.682,438.117 239.964 C 438.871 243.638,439.467 250.717,439.467 256.000 C 439.467 267.900,437.701 276.616,433.442 285.733 C 424.402 305.085,408.730 318.879,388.798 325.028 C 380.169 327.690,367.421 328.516,334.507 328.545 C 307.495 328.569,304.774 328.704,301.516 330.183 C 297.129 332.175,291.906 337.296,289.678 341.788 C 287.328 346.528,287.328 357.472,289.678 362.212 C 291.965 366.824,297.171 371.849,301.953 374.059 C 305.823 375.849,306.824 375.893,343.040 375.859 C 374.769 375.830,381.319 375.608,388.140 374.325 C 425.981 367.208,456.205 345.149,474.361 311.396 C 484.528 292.496,489.557 267.094,487.398 245.547 C 484.203 213.654,470.718 187.003,447.175 166.053 C 435.429 155.600,417.363 145.592,402.347 141.219 C 387.623 136.931,382.982 136.564,343.467 136.557 L 306.773 136.550 302.474 138.552 " fill="black" stroke="none" fill-rule="evenodd"></path></svg>