<svg xmlns="http://www.w3.org/2000/svg" width="512" height="512" viewBox="0 0 512 512"><path d="M75.093 112.707 C 48.731 116.051,26.902 134.833,18.639 161.280 L 16.640 167.680 16.640 256.000 L 16.640 344.320 18.639 350.720 C 25.844 373.781,42.261 390.209,65.280 397.391 L 72.960 399.787 175.360 399.787 C 291.743 399.787,282.429 400.348,298.667 392.356 C 306.537 388.482,308.619 386.954,315.786 379.786 C 322.954 372.619,324.482 370.537,328.356 362.667 C 336.276 346.576,335.787 353.625,335.787 255.573 L 335.787 169.387 333.891 162.853 C 330.031 149.546,324.534 140.133,315.451 131.273 C 305.076 121.153,291.131 114.497,276.502 112.683 C 267.835 111.609,83.580 111.630,75.093 112.707 M453.973 129.289 C 450.061 130.581,366.606 188.733,361.123 193.987 C 357.379 197.576,353.457 205.718,352.421 212.053 C 351.330 218.719,351.330 293.281,352.421 299.947 C 353.615 307.250,357.707 315.045,362.506 319.158 C 370.422 325.944,449.374 380.908,453.469 382.484 C 458.834 384.549,467.731 384.663,473.828 382.745 C 482.639 379.974,490.593 372.217,494.022 363.053 C 495.810 358.273,495.813 358.085,495.587 254.847 L 495.360 151.430 492.587 145.797 C 489.285 139.090,483.906 133.840,477.163 130.742 C 471.158 127.984,460.037 127.287,453.973 129.289 " stroke="none" fill-rule="evenodd" fill="black"></path></svg>