<svg xmlns="http://www.w3.org/2000/svg" width="512" height="512" viewBox="0 0 512 512"><path d="M30.293 112.200 C 29.824 112.360,28.391 112.722,27.109 113.004 C 23.982 113.693,18.789 118.366,17.366 121.773 C 16.415 124.050,16.213 147.499,16.213 255.917 C 16.213 346.672,16.494 388.045,17.121 389.704 C 18.411 393.120,22.054 396.756,26.027 398.596 C 29.307 400.114,35.143 400.176,175.360 400.190 C 279.244 400.200,322.258 399.932,324.674 399.262 C 329.024 398.054,334.054 393.024,335.262 388.674 C 335.888 386.419,336.205 371.745,336.209 344.960 C 336.211 322.784,336.375 304.640,336.573 304.640 C 336.771 304.640,372.195 325.805,415.293 351.672 C 458.391 377.540,494.133 398.893,494.720 399.124 C 495.571 399.458,495.787 370.507,495.787 256.091 C 495.787 177.193,495.625 112.640,495.427 112.640 C 495.229 112.640,459.805 133.805,416.707 159.672 C 373.609 185.540,337.880 206.888,337.311 207.112 C 336.509 207.427,336.220 198.006,336.031 165.413 C 335.795 124.747,335.727 123.205,334.039 120.332 C 333.078 118.696,330.645 116.200,328.632 114.785 L 324.973 112.213 178.060 112.061 C 97.258 111.977,30.763 112.040,30.293 112.200 " stroke="none" fill-rule="evenodd" fill="black"></path></svg>