<svg xmlns="http://www.w3.org/2000/svg" viewBox="0 0 512 512"><path d="M73.619 65.397 C 65.178 69.559,61.823 78.478,65.639 86.613 C 67.647 90.896,406.250 429.548,409.869 430.893 C 415.545 433.004,423.967 431.144,427.630 426.971 C 431.980 422.015,433.028 414.473,430.136 408.926 C 427.611 404.081,89.967 66.945,86.001 65.309 C 81.944 63.635,77.122 63.670,73.619 65.397 M187.070 113.115 C 186.027 113.846,185.173 115.095,185.173 115.890 C 185.173 117.725,330.196 262.827,332.030 262.827 C 332.777 262.827,334.024 262.124,334.801 261.266 C 336.075 259.858,336.213 255.583,336.207 217.533 C 336.203 192.927,335.836 173.050,335.325 169.813 C 330.521 139.362,306.987 116.509,276.502 112.692 C 272.326 112.169,252.312 111.787,229.119 111.787 C 194.159 111.787,188.721 111.958,187.070 113.115 M46.491 123.438 C 33.035 132.405,23.753 145.029,18.638 161.317 L 16.640 167.680 16.640 256.000 L 16.640 344.320 18.638 350.683 C 26.997 377.303,48.058 395.525,74.901 399.362 C 79.501 400.019,111.286 400.220,180.053 400.025 C 273.025 399.762,278.928 399.656,284.160 398.162 C 296.190 394.727,311.042 386.336,312.040 382.411 C 312.492 380.636,297.096 364.938,182.944 250.784 C 96.289 164.128,52.764 121.173,51.612 121.173 C 50.665 121.173,48.360 122.192,46.491 123.438 M453.973 129.289 C 450.061 130.581,366.606 188.733,361.123 193.987 C 357.379 197.576,353.457 205.718,352.421 212.053 C 351.330 218.719,351.330 293.281,352.421 299.947 C 353.615 307.250,357.707 315.045,362.506 319.158 C 370.422 325.944,449.374 380.908,453.469 382.484 C 458.834 384.549,467.731 384.663,473.828 382.745 C 482.639 379.974,490.593 372.217,494.022 363.053 C 495.810 358.273,495.813 358.085,495.587 254.847 L 495.360 151.430 492.587 145.797 C 489.285 139.090,483.906 133.840,477.163 130.742 C 471.158 127.984,460.037 127.287,453.973 129.289 " stroke="none" fill-rule="evenodd" fill="black"></path></svg>