<svg xmlns="http://www.w3.org/2000/svg" width="512" height="512" viewBox="0 0 512 512"><path d="M75.947 112.664 C 59.739 114.669,47.640 120.562,36.160 132.042 C 26.154 142.048,20.240 152.808,17.526 165.945 C 15.556 175.484,15.556 336.516,17.526 346.055 C 21.969 367.565,37.099 385.781,58.022 394.813 C 70.672 400.274,69.394 400.215,175.685 400.196 C 234.585 400.186,274.052 399.852,277.638 399.334 C 292.444 397.193,304.686 390.931,315.809 379.809 C 327.195 368.423,333.378 356.093,335.418 340.707 C 335.987 336.415,336.194 304.911,336.005 251.307 C 335.676 158.076,336.102 164.203,328.952 149.760 C 320.428 132.540,304.410 119.431,285.440 114.152 L 278.613 112.252 180.053 112.115 C 125.845 112.039,78.997 112.286,75.947 112.664 M453.973 129.290 C 450.107 130.565,366.635 188.703,361.235 193.882 C 357.280 197.674,353.507 205.336,352.481 211.655 C 351.290 218.998,351.290 293.002,352.481 300.345 C 353.634 307.448,357.710 315.049,362.626 319.262 C 368.300 324.124,448.809 380.638,451.936 381.954 C 453.397 382.569,456.858 383.437,459.628 383.883 C 472.954 386.029,486.358 378.854,492.561 366.256 L 495.360 360.569 495.360 256.018 L 495.360 151.467 493.090 146.624 C 490.045 140.129,484.970 134.816,478.508 131.358 C 473.764 128.820,472.323 128.477,465.493 128.263 C 460.398 128.104,456.521 128.449,453.973 129.290 M278.245 145.575 C 284.228 147.332,287.887 149.521,292.946 154.370 C 297.879 159.098,300.596 163.541,302.444 169.900 C 303.685 174.168,303.804 183.216,303.594 257.782 L 303.360 340.907 300.622 346.687 C 297.025 354.281,290.281 361.025,282.687 364.622 L 276.907 367.360 177.673 367.587 C 90.330 367.787,77.896 367.657,73.911 366.498 C 60.921 362.722,50.585 350.637,48.599 336.901 C 47.584 329.882,47.584 182.118,48.599 175.099 C 50.574 161.443,60.223 150.043,73.387 145.813 C 77.758 144.409,84.784 144.302,175.845 144.259 C 262.927 144.218,274.117 144.362,278.245 145.575 M464.213 256.071 C 464.213 312.188,463.897 351.598,463.448 351.431 C 463.026 351.275,444.978 338.682,423.341 323.447 L 384.000 295.748 384.000 256.027 L 384.000 216.307 423.467 188.438 C 445.173 173.110,463.221 160.537,463.573 160.498 C 463.925 160.459,464.213 203.467,464.213 256.071 " stroke="none" fill-rule="evenodd" fill="black"></path></svg>