<svg xmlns="http://www.w3.org/2000/svg" viewBox="0 0 512 512"><path d="M73.619 65.397 C 65.178 69.559,61.823 78.478,65.639 86.613 C 67.647 90.896,406.250 429.548,409.869 430.893 C 415.545 433.004,423.967 431.144,427.630 426.971 C 431.980 422.015,433.028 414.473,430.136 408.926 C 427.611 404.081,89.967 66.945,86.001 65.309 C 81.944 63.635,77.122 63.670,73.619 65.397 M204.181 112.576 C 200.395 113.529,197.662 115.456,194.830 119.169 C 192.744 121.904,192.427 123.080,192.427 128.068 C 192.427 133.194,192.709 134.169,195.036 137.094 C 196.471 138.898,199.337 141.237,201.404 142.293 C 205.116 144.190,205.576 144.213,239.386 144.213 C 275.937 144.213,278.701 144.480,285.867 148.692 C 290.093 151.176,296.684 157.688,299.040 161.707 C 303.610 169.503,303.787 171.382,303.787 212.081 C 303.787 251.101,303.954 253.208,307.401 257.707 C 313.530 265.704,326.391 265.696,332.642 257.691 C 336.181 253.158,336.354 250.631,335.997 208.640 C 335.612 163.318,335.596 163.181,328.952 149.760 C 320.411 132.507,304.237 119.290,285.440 114.205 C 279.030 112.471,276.427 112.344,242.773 112.121 C 223.061 111.990,205.695 112.195,204.181 112.576 M44.800 125.639 C 39.054 127.700,29.373 138.124,24.378 147.628 C 22.762 150.703,20.360 156.281,19.040 160.023 L 16.640 166.827 16.398 253.013 C 16.133 347.421,16.048 345.557,21.171 358.138 C 27.518 373.725,41.564 387.705,58.022 394.816 C 70.856 400.361,69.179 400.289,179.289 400.004 C 288.722 399.720,281.758 400.053,294.400 394.502 C 300.528 391.811,303.430 388.929,305.112 383.864 C 306.695 379.097,306.255 375.804,303.360 370.764 C 299.220 363.556,291.236 361.780,280.320 365.639 L 274.347 367.751 176.166 367.769 C 78.580 367.787,77.952 367.776,72.665 365.990 C 59.949 361.696,50.538 350.302,48.591 336.846 C 47.496 329.272,47.574 181.051,48.677 174.080 C 49.879 166.485,52.707 161.056,59.240 153.803 C 67.378 144.767,68.381 138.774,62.998 131.344 C 58.855 125.625,51.378 123.281,44.800 125.639 M453.973 129.290 C 450.107 130.565,366.635 188.703,361.235 193.882 C 357.280 197.674,353.507 205.336,352.481 211.655 C 351.290 218.998,351.290 293.002,352.481 300.345 C 353.634 307.448,357.710 315.049,362.626 319.262 C 368.300 324.124,448.809 380.638,451.936 381.954 C 453.397 382.569,456.858 383.437,459.628 383.883 C 472.954 386.029,486.358 378.854,492.561 366.256 L 495.360 360.569 495.360 256.018 L 495.360 151.467 493.090 146.624 C 490.045 140.129,484.970 134.816,478.508 131.358 C 473.764 128.820,472.323 128.477,465.493 128.263 C 460.398 128.104,456.521 128.449,453.973 129.290 M464.213 256.071 C 464.213 312.188,463.897 351.598,463.448 351.431 C 463.026 351.275,444.978 338.682,423.341 323.447 L 384.000 295.748 384.000 256.027 L 384.000 216.307 423.467 188.438 C 445.173 173.110,463.221 160.537,463.573 160.498 C 463.925 160.459,464.213 203.467,464.213 256.071 " fill="black" stroke="none" fill-rule="evenodd"></path></svg>