<svg xmlns="http://www.w3.org/2000/svg" viewBox="0 0 512 512"><path d="M68.479 68.481 L 57.184 79.799 236.598 259.212 L 416.013 438.624 427.308 427.306 L 438.603 415.988 259.188 236.575 L 79.774 57.162 68.479 68.481 M30.293 112.206 C 29.824 112.363,28.391 112.722,27.109 113.004 C 23.982 113.693,18.789 118.366,17.366 121.773 C 16.415 124.050,16.213 147.499,16.213 255.917 C 16.213 346.672,16.494 388.045,17.121 389.704 C 18.411 393.120,22.054 396.756,26.027 398.596 C 29.307 400.114,35.143 400.176,175.360 400.190 C 273.031 400.199,322.328 399.913,324.449 399.324 C 326.192 398.840,327.875 398.029,328.188 397.522 C 328.513 396.997,267.468 335.309,186.353 254.193 L 43.949 111.787 37.548 111.854 C 34.027 111.891,30.763 112.049,30.293 112.206 M302.507 234.700 L 425.387 357.645 460.083 378.502 C 479.166 389.974,495.006 399.360,495.283 399.360 C 495.560 399.360,495.787 334.848,495.787 256.000 C 495.787 177.152,495.625 112.640,495.427 112.640 C 495.229 112.640,459.805 133.805,416.707 159.672 C 373.609 185.540,337.880 206.888,337.311 207.112 C 336.509 207.427,336.220 198.006,336.031 165.413 C 335.795 124.747,335.727 123.205,334.039 120.332 C 333.078 118.696,330.645 116.200,328.633 114.785 L 324.974 112.213 252.300 111.984 L 179.627 111.755 302.507 234.700 " stroke="none" fill-rule="evenodd" fill="black"></path></svg>