<svg xmlns="http://www.w3.org/2000/svg" width="512" height="512" viewBox="0 0 512 512"><path d="M191.147 123.876 L 126.720 175.360 79.360 175.787 L 32.000 176.213 32.000 256.000 L 32.000 335.787 79.360 336.213 L 126.720 336.640 191.147 388.163 L 255.573 439.686 255.790 347.843 C 255.910 297.329,255.910 214.688,255.790 164.196 L 255.573 72.392 191.147 123.876 M407.467 82.464 C 400.427 86.974,394.524 90.792,394.349 90.948 C 394.174 91.104,398.194 97.872,403.282 105.989 C 413.830 122.817,426.401 147.065,431.725 160.853 C 438.699 178.915,444.111 202.292,446.443 224.427 C 448.045 239.623,447.788 277.212,445.983 291.810 C 440.662 334.852,428.084 367.873,401.342 409.004 C 397.436 415.012,394.251 420.196,394.264 420.524 C 394.290 421.160,418.717 437.183,420.225 437.553 C 421.220 437.797,434.730 416.892,442.977 402.347 C 470.537 353.740,482.561 300.217,479.542 239.586 C 476.652 181.564,462.617 139.471,428.041 85.121 C 424.234 79.138,420.928 74.247,420.693 74.252 C 420.459 74.258,414.507 77.953,407.467 82.464 M360.693 129.710 C 353.740 133.804,347.682 137.523,347.231 137.975 C 346.704 138.501,348.455 142.298,352.105 148.545 C 360.439 162.807,371.541 185.986,374.963 196.267 C 381.916 217.157,385.060 245.059,383.276 270.049 C 380.884 303.555,374.231 323.880,353.571 360.793 C 349.551 367.976,346.401 373.970,346.571 374.113 C 346.741 374.256,352.916 377.841,360.293 382.080 C 369.720 387.497,373.930 389.498,374.459 388.813 C 376.084 386.713,387.467 365.962,392.314 356.267 C 409.098 322.692,415.735 293.986,415.694 255.147 C 415.648 211.522,407.154 180.930,383.436 138.979 C 379.287 131.642,375.317 124.880,374.613 123.953 C 373.371 122.317,372.958 122.488,360.693 129.710 M314.453 176.764 C 307.883 180.069,301.644 183.321,300.589 183.991 L 298.672 185.209 303.885 195.610 C 319.063 225.888,323.148 251.031,317.439 279.044 C 315.101 290.516,311.601 300.237,304.569 314.792 C 301.305 321.549,298.737 327.170,298.863 327.283 C 299.259 327.635,326.791 341.333,327.104 341.333 C 328.127 341.333,341.076 312.472,343.868 303.967 C 354.575 271.363,354.593 240.118,343.925 208.049 C 340.723 198.423,328.030 170.607,326.888 170.711 C 326.620 170.736,321.024 173.460,314.453 176.764 " stroke="none" fill-rule="evenodd" fill="black"></path></svg>