<svg xmlns="http://www.w3.org/2000/svg" width="512" height="512" viewBox="0 0 512 512"><path d="M334.080 98.422 C 331.707 99.572,309.475 117.179,284.000 138.082 L 238.187 175.675 200.374 175.944 L 162.560 176.213 157.675 178.612 C 154.989 179.931,151.458 182.568,149.828 184.471 C 144.050 191.222,144.213 189.141,144.213 256.000 C 144.213 322.859,144.050 320.778,149.828 327.529 C 151.458 329.432,154.989 332.069,157.675 333.388 L 162.560 335.787 200.363 336.041 L 238.166 336.296 283.990 373.906 C 313.453 398.089,331.447 412.279,334.390 413.652 C 345.971 419.054,359.882 414.016,365.682 402.318 C 367.330 398.993,367.360 396.414,367.360 256.000 C 367.360 115.586,367.330 113.007,365.682 109.682 C 361.623 101.497,354.506 97.061,344.747 96.635 C 339.357 96.399,337.673 96.681,334.080 98.422 " stroke="none" fill-rule="evenodd" fill="black"></path></svg>