<svg xmlns="http://www.w3.org/2000/svg" width="512" height="512" viewBox="0 0 512 512"><path d="M408.579 81.955 C 403.586 84.592,400.798 88.915,400.382 94.667 C 399.978 100.258,400.075 100.491,408.954 115.200 C 421.912 136.667,432.848 161.164,438.288 180.907 C 445.179 205.918,447.600 226.132,447.486 257.707 C 447.331 300.387,440.976 331.973,425.857 365.208 C 420.856 376.201,411.068 394.239,406.166 401.493 C 401.220 408.814,400.007 412.140,400.383 417.343 C 401.420 431.681,419.936 437.084,428.692 425.604 C 436.990 414.725,453.861 382.807,461.146 364.205 C 475.278 328.118,481.763 284.186,479.542 239.586 C 477.339 195.361,469.197 162.916,451.004 125.867 C 443.389 110.358,433.184 92.311,428.683 86.392 C 424.201 80.499,415.127 78.496,408.579 81.955 M224.000 97.469 C 220.045 98.871,219.159 99.566,171.520 138.627 L 126.720 175.360 88.747 175.787 C 51.098 176.210,50.735 176.231,46.313 178.230 C 40.823 180.712,35.782 186.034,33.626 191.623 C 32.082 195.628,32.000 198.882,32.000 256.427 L 32.000 317.013 33.966 321.280 C 37.310 328.538,43.035 333.361,50.511 335.218 C 53.240 335.896,65.891 336.213,90.234 336.213 L 125.953 336.213 171.990 373.878 C 197.310 394.593,218.905 412.119,219.980 412.824 C 223.421 415.084,231.080 416.415,235.649 415.549 C 244.181 413.931,251.454 408.032,254.301 400.422 C 255.972 395.958,256.000 393.569,256.000 256.000 C 256.000 118.431,255.972 116.042,254.301 111.578 C 252.291 106.204,247.010 100.688,241.493 98.197 C 237.226 96.271,228.413 95.904,224.000 97.469 M362.847 128.963 C 356.513 130.790,350.573 140.357,352.070 146.322 C 352.359 147.473,356.902 156.974,362.165 167.434 C 367.668 178.372,373.052 190.442,374.836 195.840 C 381.935 217.319,385.071 244.896,383.276 270.049 C 381.147 299.880,376.339 316.572,361.372 346.094 C 356.594 355.517,352.424 364.268,352.105 365.539 C 351.786 366.810,351.955 369.468,352.481 371.445 C 355.866 384.168,370.475 388.113,379.470 378.733 C 382.865 375.193,396.180 349.334,401.364 336.213 C 411.460 310.660,415.727 286.520,415.694 255.147 C 415.651 213.632,407.485 182.506,386.706 144.640 C 381.212 134.629,378.825 131.765,374.187 129.618 C 370.469 127.897,367.200 127.708,362.847 128.963 M223.366 315.183 L 223.147 374.366 183.201 341.706 C 161.231 323.743,141.492 308.216,139.336 307.203 C 132.986 304.218,127.499 303.797,94.933 303.792 L 64.000 303.787 64.000 256.045 L 64.000 208.303 98.347 208.040 C 135.598 207.755,136.135 207.692,143.193 202.768 C 144.928 201.558,163.627 186.399,184.747 169.080 L 223.147 137.593 223.366 196.796 C 223.486 229.358,223.486 282.632,223.366 315.183 M315.449 176.830 C 310.869 178.043,305.904 183.024,304.659 187.656 C 303.442 192.183,304.062 196.036,306.912 201.661 C 308.085 203.976,310.307 209.181,311.850 213.228 C 322.991 242.461,322.420 272.610,310.162 302.329 C 303.804 317.742,303.608 318.395,304.190 322.275 C 306.133 335.231,322.226 340.505,331.166 331.116 C 337.256 324.721,346.574 299.350,349.977 279.893 C 352.434 265.853,352.398 246.455,349.889 231.680 C 346.459 211.490,336.065 184.311,330.030 179.756 C 327.492 177.841,321.653 175.676,319.573 175.880 C 319.104 175.926,317.248 176.353,315.449 176.830 " stroke="none" fill-rule="evenodd" fill="black"></path></svg>