<svg xmlns="http://www.w3.org/2000/svg" width="512" height="512" viewBox="0 0 512 512"><path d="M52.474 69.126 L 41.400 80.225 228.694 267.520 L 415.988 454.816 427.306 443.521 L 438.624 432.226 251.526 245.126 C 148.622 142.222,64.230 58.027,63.988 58.027 C 63.747 58.027,58.565 63.021,52.474 69.126 M219.004 101.597 L 182.435 130.801 219.004 167.378 L 255.573 203.955 255.797 171.097 C 255.920 153.026,255.920 123.424,255.797 105.317 L 255.573 72.393 219.004 101.597 M407.467 82.446 C 400.427 86.946,394.524 90.763,394.349 90.929 C 394.174 91.095,398.190 97.872,403.274 105.989 C 432.615 152.839,444.332 188.133,447.318 238.651 C 449.992 283.902,443.105 326.642,427.422 362.120 L 423.232 371.598 435.113 383.479 L 446.994 395.360 450.417 388.552 C 459.627 370.234,468.192 346.414,472.613 326.827 C 477.908 303.362,479.775 284.871,479.763 256.000 C 479.739 194.166,466.799 148.106,434.814 96.000 C 426.628 82.664,421.159 74.242,420.693 74.254 C 420.459 74.260,414.507 77.947,407.467 82.446 M360.693 129.716 C 353.740 133.807,347.697 137.508,347.263 137.942 C 346.780 138.425,349.936 144.820,355.405 154.439 C 369.321 178.914,375.979 195.488,380.092 215.893 C 384.319 236.866,384.973 263.329,381.822 285.919 C 380.422 295.953,376.479 312.513,374.176 318.024 L 372.844 321.211 385.157 333.523 L 397.469 345.835 399.322 341.664 C 411.752 313.688,417.695 277.238,415.586 241.920 C 413.765 211.416,407.829 187.883,395.138 160.853 C 391.223 152.516,376.685 126.362,374.456 123.646 C 373.453 122.426,371.981 123.075,360.693 129.716 M312.747 177.635 C 305.237 181.418,298.974 184.621,298.828 184.753 C 298.682 184.885,300.898 189.651,303.752 195.345 C 306.606 201.038,310.103 208.621,311.523 212.196 C 317.156 226.374,320.591 246.371,319.795 260.339 L 319.371 267.764 332.882 281.255 C 340.312 288.675,346.572 294.565,346.793 294.345 C 347.835 293.303,350.755 275.756,351.471 266.229 C 353.023 245.599,350.349 226.300,343.009 205.148 C 340.334 197.439,327.783 170.629,326.888 170.712 C 326.620 170.736,320.256 173.852,312.747 177.635 M31.966 176.853 C 31.743 177.440,31.659 213.440,31.780 256.853 L 32.000 335.787 79.360 336.213 L 126.720 336.640 191.147 388.163 L 255.573 439.686 255.794 389.878 L 256.014 340.071 173.875 257.929 L 91.737 175.787 62.055 175.787 C 39.095 175.787,32.281 176.028,31.966 176.853 " stroke="none" fill-rule="evenodd" fill="black"></path></svg>