<svg xmlns="http://www.w3.org/2000/svg" width="512" height="512" viewBox="0 0 512 512"><path d="M255.147 123.876 L 190.720 175.360 143.360 175.787 L 96.000 176.213 96.000 256.000 L 96.000 335.787 143.360 336.213 L 190.720 336.640 255.147 388.163 L 319.573 439.686 319.790 347.843 C 319.910 297.329,319.910 214.688,319.790 164.196 L 319.573 72.392 255.147 123.876 M376.747 177.635 C 369.237 181.418,362.974 184.621,362.828 184.753 C 362.682 184.885,364.898 189.651,367.752 195.345 C 374.470 208.746,377.627 216.778,380.151 226.894 C 384.534 244.459,384.962 261.759,381.439 279.044 C 379.101 290.516,375.601 300.237,368.569 314.792 C 365.305 321.549,362.737 327.170,362.863 327.283 C 363.635 327.970,391.054 341.386,391.247 341.171 C 391.378 341.026,393.687 336.500,396.380 331.114 C 409.965 303.934,415.724 281.564,415.717 256.000 C 415.709 230.224,411.004 211.266,397.874 184.107 C 394.300 176.715,391.156 170.687,390.888 170.712 C 390.620 170.736,384.256 173.852,376.747 177.635 " stroke="none" fill-rule="evenodd" fill="black"></path></svg>