<svg xmlns="http://www.w3.org/2000/svg" width="512" height="512" viewBox="0 0 512 512"><path d="M259.814 96.366 C 257.922 96.670,254.939 97.672,253.185 98.592 C 251.431 99.513,229.399 117.163,204.224 137.813 L 158.452 175.360 120.399 175.787 L 82.347 176.213 77.479 178.604 C 72.292 181.151,69.335 184.106,66.306 189.767 L 64.427 193.280 64.427 256.000 L 64.427 318.720 67.074 323.413 C 68.530 325.995,71.331 329.345,73.298 330.858 C 80.006 336.018,81.776 336.213,121.785 336.213 L 157.928 336.213 204.190 374.179 C 229.635 395.060,252.181 412.998,254.293 414.041 C 259.920 416.820,268.576 416.657,274.401 413.661 C 279.815 410.877,284.295 405.980,286.386 400.558 C 287.946 396.514,288.000 391.642,288.000 256.000 C 288.000 119.984,287.950 115.496,286.374 111.410 C 282.335 100.938,271.071 94.558,259.814 96.366 M392.509 130.639 C 387.073 133.793,383.292 141.501,384.463 147.043 C 384.779 148.537,387.663 154.575,390.874 160.461 C 408.654 193.058,414.480 214.323,415.334 249.752 C 416.283 289.064,411.743 309.116,393.677 345.415 C 384.291 364.272,383.809 365.498,384.193 369.496 C 385.266 380.659,397.141 387.229,407.040 382.136 C 411.882 379.644,414.980 375.058,423.934 357.120 C 442.259 320.408,448.987 289.517,447.721 247.893 C 447.436 238.507,446.595 226.795,445.853 221.867 C 441.512 193.043,431.247 165.171,414.977 138.026 C 411.159 131.657,406.602 128.846,400.138 128.873 C 397.063 128.886,394.514 129.476,392.509 130.639 M345.175 177.984 C 341.328 179.991,339.548 181.832,337.818 185.600 C 335.316 191.050,335.782 194.548,340.416 205.070 C 349.266 225.168,351.974 238.678,351.306 259.413 C 350.692 278.514,347.860 290.519,339.692 308.660 C 334.906 319.289,335.068 324.937,340.321 330.561 C 343.127 333.565,348.558 336.176,352.000 336.176 C 355.465 336.176,360.875 333.561,363.752 330.495 C 366.739 327.312,372.651 313.935,376.641 301.328 C 388.279 264.560,385.839 226.826,369.544 191.576 C 365.658 183.169,362.840 179.611,358.641 177.815 C 354.983 176.250,348.342 176.333,345.175 177.984 " stroke="none" fill-rule="evenodd" fill="black"></path></svg>