<svg xmlns="http://www.w3.org/2000/svg" width="512" height="512" viewBox="0 0 512 512"><path d="M259.342 96.358 C 257.660 96.692,254.874 97.708,253.150 98.616 C 251.426 99.524,229.416 117.163,204.239 137.813 L 158.462 175.360 120.404 175.787 C 83.891 176.196,82.188 176.287,78.430 178.025 C 73.711 180.208,68.966 184.785,66.352 189.676 L 64.427 193.280 64.427 256.000 L 64.427 318.720 66.352 322.324 C 68.966 327.215,73.711 331.792,78.430 333.975 C 82.207 335.722,83.691 335.795,120.162 336.034 L 157.977 336.281 204.215 374.225 C 229.646 395.095,252.178 413.015,254.286 414.047 C 259.555 416.629,267.614 416.575,273.687 413.918 C 279.145 411.530,284.204 406.216,286.374 400.590 C 287.950 396.504,288.000 392.016,288.000 256.000 C 288.000 119.984,287.950 115.496,286.374 111.410 C 282.318 100.895,270.274 94.189,259.342 96.358 M393.813 129.618 C 389.840 131.457,386.198 135.094,384.908 138.509 C 382.848 143.961,383.660 146.554,393.653 166.414 C 402.996 184.985,407.233 195.304,409.972 206.161 C 414.426 223.809,415.916 239.384,415.345 262.311 C 414.498 296.339,409.342 315.326,391.614 349.696 C 383.506 365.416,382.790 368.121,385.213 373.869 C 386.609 377.180,391.019 381.513,394.493 382.987 C 400.186 385.403,408.508 383.041,412.394 377.906 C 417.809 370.750,431.657 341.891,436.704 327.243 C 451.465 284.397,451.748 230.052,437.433 186.640 C 433.351 174.259,425.053 155.867,417.658 142.809 C 411.960 132.748,411.026 131.631,406.613 129.605 C 402.271 127.611,398.139 127.615,393.813 129.618 M255.659 374.386 C 255.467 374.577,237.606 360.210,215.968 342.460 C 194.329 324.710,174.804 309.152,172.579 307.887 C 166.385 304.365,160.090 303.800,126.933 303.793 L 96.427 303.787 96.427 256.000 L 96.427 208.213 128.213 208.200 C 162.524 208.186,166.465 207.795,173.352 203.722 C 175.395 202.514,194.731 187.038,216.320 169.332 L 255.573 137.139 255.790 255.589 C 255.909 320.736,255.850 374.195,255.659 374.386 M348.369 176.621 C 344.051 177.645,339.766 180.996,337.907 184.803 C 335.296 190.150,335.716 194.510,339.692 203.340 C 347.637 220.986,350.645 233.430,351.315 251.429 C 352.070 271.692,349.322 285.974,340.873 305.713 C 335.688 317.827,335.170 321.572,337.896 327.205 C 339.782 331.099,345.119 335.032,349.679 335.888 C 353.645 336.632,358.651 334.982,362.404 331.695 C 368.038 326.760,377.021 304.043,381.193 284.178 C 383.152 274.851,383.446 271.378,383.505 256.853 C 383.548 246.536,383.144 237.781,382.444 233.813 C 379.739 218.480,373.453 198.903,367.394 186.947 C 364.869 181.965,360.364 177.882,356.077 176.691 C 352.484 175.694,352.283 175.692,348.369 176.621 " stroke="none" fill-rule="evenodd" fill="black"></path></svg>