<svg xmlns="http://www.w3.org/2000/svg" width="512" height="512" viewBox="0 0 512 512"><path d="M409.173 81.634 C 403.362 84.705,400.213 89.756,400.213 96.008 C 400.213 100.455,400.697 101.513,409.192 115.627 C 420.216 133.945,429.946 154.716,435.717 172.252 C 445.115 200.813,449.383 238.157,447.310 273.702 C 444.463 322.521,434.293 355.009,408.397 398.017 C 401.039 410.236,400.213 412.026,400.213 415.758 C 400.213 424.969,407.024 431.804,416.171 431.773 C 424.797 431.743,428.675 427.503,442.694 402.773 C 463.280 366.457,474.890 329.404,478.788 287.573 C 480.231 272.082,479.986 236.005,478.333 220.720 C 473.594 176.899,461.464 140.936,438.136 101.547 C 429.049 86.202,427.408 84.040,423.238 81.912 C 419.217 79.861,412.771 79.733,409.173 81.634 M224.000 97.469 C 220.045 98.871,219.159 99.566,171.520 138.627 L 126.720 175.360 88.320 175.787 L 49.920 176.213 45.599 178.494 C 40.154 181.368,35.692 186.267,33.614 191.656 C 32.085 195.619,32.000 199.044,32.000 256.427 L 32.000 317.013 34.017 321.474 C 36.260 326.436,41.702 331.934,46.662 334.250 C 49.605 335.624,53.596 335.796,87.984 336.032 L 126.048 336.294 172.377 374.190 C 197.858 395.032,219.965 412.683,221.503 413.413 C 234.370 419.518,249.220 413.619,254.275 400.395 C 255.981 395.933,256.000 394.314,256.000 256.000 C 256.000 118.431,255.972 116.042,254.301 111.578 C 252.291 106.204,247.010 100.688,241.493 98.197 C 237.226 96.271,228.413 95.904,224.000 97.469 M361.115 130.216 C 355.314 133.107,352.427 137.752,352.427 144.194 C 352.427 148.243,353.154 150.051,359.371 161.444 C 371.647 183.941,378.497 203.571,382.000 226.286 C 384.089 239.839,384.084 272.196,381.989 285.785 C 378.597 307.793,373.368 322.950,360.620 347.733 C 356.274 356.181,352.479 364.296,352.187 365.767 C 350.462 374.452,358.702 383.927,368.027 383.981 C 375.758 384.026,379.610 380.479,387.215 366.315 C 409.953 323.964,418.251 287.453,415.546 241.657 C 413.445 206.073,405.307 178.334,387.476 145.975 C 381.030 134.277,377.550 130.365,372.290 128.905 C 367.550 127.588,366.030 127.767,361.115 130.216 M312.710 178.230 C 308.917 180.543,305.671 184.756,304.591 188.770 C 303.518 192.753,304.245 195.371,310.488 210.019 C 323.799 241.245,322.780 275.670,307.567 308.755 C 303.955 316.610,303.390 319.626,304.653 324.313 C 307.377 334.430,320.042 339.187,328.706 333.348 C 332.501 330.791,334.534 327.531,339.025 316.807 C 352.681 284.191,355.552 250.523,347.346 219.228 C 343.775 205.609,335.596 185.323,332.133 181.493 C 327.857 176.764,317.866 175.086,312.710 178.230 " stroke="none" fill-rule="evenodd" fill="black"></path></svg>