<svg xmlns="http://www.w3.org/2000/svg" width="512" height="512" viewBox="0 0 512 512"><path d="M291.265 96.455 C 289.306 96.848,286.559 97.761,285.160 98.484 C 283.761 99.208,261.788 116.875,236.332 137.745 L 190.047 175.691 151.984 175.952 L 113.920 176.213 109.599 178.494 C 104.154 181.368,99.692 186.267,97.614 191.656 C 96.085 195.619,96.000 199.044,96.000 256.427 L 96.000 317.013 98.017 321.474 C 100.260 326.436,105.702 331.934,110.662 334.250 C 113.605 335.624,117.595 335.796,151.954 336.032 L 189.988 336.294 236.434 374.363 C 261.979 395.301,284.477 413.141,286.429 414.008 C 297.862 419.086,310.664 414.728,316.926 403.627 L 319.573 398.933 319.797 257.552 L 320.020 116.170 318.205 111.320 C 314.195 100.602,302.575 94.190,291.265 96.455 M376.710 178.230 C 372.917 180.543,369.671 184.756,368.591 188.770 C 367.518 192.752,368.246 195.373,374.481 210.002 C 386.999 239.367,386.888 271.477,374.162 302.329 C 367.804 317.742,367.608 318.395,368.190 322.275 C 370.026 334.517,384.814 340.173,394.243 332.240 C 400.698 326.808,410.835 299.193,414.399 277.333 C 417.086 260.849,415.787 236.068,411.353 219.228 C 407.752 205.553,399.590 185.316,396.133 181.493 C 391.857 176.764,381.866 175.086,376.710 178.230 " stroke="none" fill-rule="evenodd" fill="black"></path></svg>