<svg xmlns="http://www.w3.org/2000/svg" width="512" height="512" viewBox="0 0 512 512"><path d="M222.720 124.158 L 158.293 175.704 111.147 175.745 L 64.000 175.787 64.000 256.000 L 64.000 336.213 111.005 336.213 L 158.009 336.213 222.391 387.627 C 257.801 415.904,287.145 439.168,287.600 439.324 C 288.132 439.507,288.427 374.118,288.427 256.071 C 288.427 155.125,288.139 72.551,287.787 72.572 C 287.435 72.594,258.155 95.807,222.720 124.158 M400.176 125.356 C 397.146 127.151,390.950 130.790,386.407 133.444 L 378.148 138.268 384.184 148.707 C 409.329 192.192,416.445 218.133,415.345 262.311 C 414.701 288.218,411.441 305.017,403.076 325.547 C 399.074 335.366,388.709 355.849,382.020 367.152 L 378.104 373.771 379.985 374.948 C 381.020 375.596,386.091 378.521,391.253 381.449 C 396.416 384.377,401.843 387.496,403.313 388.381 L 405.986 389.988 410.481 382.088 C 438.517 332.811,447.947 300.991,447.974 255.573 C 447.999 214.584,438.679 180.272,417.031 141.653 C 412.077 132.814,406.263 122.742,405.845 122.274 C 405.757 122.175,403.206 123.562,400.176 125.356 M345.173 177.542 C 338.133 181.251,331.989 184.423,331.520 184.589 C 331.051 184.756,333.435 190.620,336.819 197.619 C 348.284 221.336,351.147 233.001,351.147 256.000 C 351.147 278.874,348.299 290.546,337.017 313.929 C 333.759 320.681,331.093 326.514,331.093 326.890 C 331.093 327.520,357.619 341.333,358.829 341.333 C 359.953 341.333,372.103 314.827,375.444 305.085 C 377.372 299.463,379.959 290.055,381.193 284.178 C 383.152 274.851,383.446 271.378,383.505 256.853 C 383.548 246.536,383.144 237.781,382.444 233.813 C 380.600 223.357,376.508 208.720,372.894 199.647 C 368.910 189.647,359.517 170.638,358.607 170.732 C 358.258 170.768,352.213 173.833,345.173 177.542 " stroke="none" fill-rule="evenodd" fill="black"></path></svg>