<svg xmlns="http://www.w3.org/2000/svg" width="512" height="512" viewBox="0 0 512 512"><path d="M57.600 65.613 C 53.469 67.519,50.869 70.221,49.107 74.438 C 47.551 78.162,47.471 80.283,48.712 84.907 C 49.511 87.883,72.421 111.124,227.694 266.472 C 349.817 388.654,406.850 445.154,409.229 446.312 C 421.283 452.177,433.903 441.638,431.412 427.787 C 430.884 424.852,413.365 407.058,252.320 245.887 C 127.835 121.303,72.780 66.755,70.400 65.639 C 66.083 63.613,61.950 63.605,57.600 65.613 M409.173 81.634 C 403.362 84.705,400.213 89.756,400.213 96.008 C 400.213 100.455,400.697 101.513,409.191 115.627 C 432.639 154.589,444.007 190.022,447.107 233.813 C 450.366 279.846,444.162 322.206,428.787 358.905 C 426.682 363.929,424.960 369.192,424.960 370.600 C 424.960 372.686,426.428 374.650,432.853 381.164 C 447.223 395.732,450.059 393.748,462.561 360.389 C 474.662 328.096,479.802 297.058,479.775 256.427 C 479.734 194.494,467.302 149.734,435.506 97.044 C 428.952 86.182,427.079 83.872,423.238 81.912 C 419.217 79.861,412.771 79.733,409.173 81.634 M224.000 97.469 C 222.592 97.968,220.288 99.167,218.880 100.132 C 214.961 102.819,188.303 124.632,187.093 126.142 C 186.507 126.874,186.027 129.025,186.027 130.923 C 186.027 134.317,186.493 134.838,215.267 163.613 C 243.455 191.800,244.625 192.853,247.759 192.853 C 250.216 192.853,251.621 192.243,253.506 190.359 L 256.000 187.865 256.000 152.541 C 256.000 112.383,255.871 111.375,249.850 104.535 C 244.971 98.993,239.301 96.426,232.107 96.502 C 229.056 96.535,225.408 96.970,224.000 97.469 M361.115 130.216 C 355.314 133.107,352.427 137.752,352.427 144.194 C 352.427 148.243,353.154 150.051,359.371 161.444 C 375.612 191.208,382.373 215.278,383.666 247.937 C 384.530 269.755,382.136 291.037,376.716 309.719 C 373.209 321.807,373.240 321.904,383.784 332.160 C 390.529 338.721,391.830 339.627,394.509 339.627 C 399.245 339.627,401.423 336.989,404.785 327.185 C 413.660 301.303,417.353 271.757,415.528 241.220 C 413.426 206.032,405.223 178.182,387.476 145.975 C 381.030 134.277,377.550 130.365,372.290 128.905 C 367.550 127.588,366.030 127.767,361.115 130.216 M51.200 176.553 C 43.475 178.211,36.484 184.215,33.614 191.656 C 32.085 195.619,32.000 199.044,32.000 256.427 L 32.000 317.013 34.017 321.474 C 36.260 326.436,41.702 331.934,46.662 334.250 C 49.605 335.624,53.596 335.796,87.986 336.032 L 126.052 336.294 171.644 373.587 C 196.719 394.098,218.275 411.559,219.546 412.390 C 220.817 413.220,224.163 414.490,226.982 415.212 C 231.608 416.398,232.614 416.395,237.315 415.191 C 243.297 413.659,246.141 411.847,250.430 406.836 C 255.578 400.822,256.000 397.978,256.000 369.311 C 256.000 348.362,255.767 343.275,254.691 340.666 C 253.768 338.431,230.010 314.097,174.264 258.292 C 130.749 214.731,93.995 178.446,92.587 177.658 C 90.446 176.461,87.092 176.201,72.107 176.069 C 62.251 175.982,52.843 176.200,51.200 176.553 M314.586 177.031 C 310.360 178.538,307.373 181.325,305.400 185.600 C 303.155 190.464,303.411 194.195,306.427 200.533 C 315.853 220.346,319.946 237.982,319.983 258.944 L 320.000 268.288 329.216 277.504 C 337.872 286.160,338.640 286.720,341.855 286.720 C 348.493 286.720,350.194 283.184,351.538 266.584 C 353.566 241.533,348.374 214.653,336.716 189.855 C 332.797 181.520,329.628 178.115,324.454 176.678 C 320.356 175.539,318.593 175.603,314.586 177.031 " stroke="none" fill-rule="evenodd" fill="black"></path></svg>