<svg xmlns="http://www.w3.org/2000/svg" width="512" height="512" viewBox="0 0 512 512"><path d="M57.600 65.613 C 53.469 67.519,50.869 70.221,49.107 74.438 C 47.551 78.162,47.471 80.283,48.712 84.907 C 49.511 87.883,72.421 111.124,227.694 266.472 C 349.817 388.654,406.850 445.154,409.229 446.312 C 421.283 452.177,433.903 441.638,431.412 427.787 C 430.884 424.852,413.365 407.058,252.320 245.887 C 127.835 121.303,72.780 66.755,70.400 65.639 C 66.083 63.613,61.950 63.605,57.600 65.613 M409.173 81.634 C 403.362 84.705,400.213 89.756,400.213 96.008 C 400.213 100.455,400.697 101.513,409.191 115.627 C 424.594 141.220,435.111 166.372,441.149 192.049 C 446.567 215.091,448.914 246.198,447.310 273.702 C 445.300 308.172,439.919 332.604,428.302 360.017 C 425.995 365.462,424.107 370.488,424.107 371.185 C 424.107 373.314,443.860 392.533,446.047 392.533 C 448.556 392.533,449.644 390.753,456.169 375.979 C 468.471 348.123,475.579 320.491,478.799 288.000 C 480.277 273.083,480.042 236.943,478.365 221.180 C 473.509 175.550,460.977 139.252,435.506 97.044 C 428.952 86.182,427.079 83.872,423.238 81.912 C 419.217 79.861,412.771 79.733,409.173 81.634 M224.000 97.469 C 222.592 97.968,220.288 99.168,218.880 100.134 C 213.067 104.125,184.496 128.016,184.005 129.297 C 183.196 131.406,184.269 132.796,194.378 142.736 C 201.675 149.910,204.076 151.799,205.329 151.348 C 206.211 151.031,210.677 147.735,215.253 144.025 L 223.573 137.278 223.573 154.583 L 223.573 171.888 237.043 185.357 C 244.451 192.765,251.144 198.827,251.915 198.827 C 252.687 198.827,253.922 198.223,254.659 197.486 C 255.839 196.305,256.000 191.419,256.000 156.681 C 256.000 111.943,255.943 111.457,249.850 104.535 C 244.971 98.993,239.301 96.426,232.107 96.502 C 229.056 96.535,225.408 96.970,224.000 97.469 M361.115 130.216 C 355.314 133.107,352.427 137.752,352.427 144.194 C 352.427 148.243,353.154 150.051,359.371 161.444 C 375.612 191.208,382.373 215.278,383.666 247.937 C 384.530 269.755,382.136 291.037,376.716 309.719 C 374.179 318.466,373.998 319.764,374.998 322.092 C 376.342 325.221,394.303 343.040,396.114 343.040 C 398.268 343.040,400.121 340.204,402.859 332.721 C 413.301 304.176,417.500 274.119,415.564 241.762 C 413.425 206.000,405.317 178.353,387.476 145.975 C 381.030 134.277,377.550 130.365,372.290 128.905 C 367.550 127.588,366.030 127.767,361.115 130.216 M51.200 176.588 C 43.562 178.137,36.492 184.194,33.614 191.656 C 32.085 195.619,32.000 199.044,32.000 256.427 L 32.000 317.013 34.017 321.474 C 36.260 326.436,41.702 331.934,46.662 334.250 C 49.605 335.624,53.596 335.796,87.984 336.032 L 126.048 336.294 172.377 374.190 C 197.858 395.032,219.965 412.683,221.503 413.413 C 226.722 415.889,232.398 416.480,237.703 415.098 C 243.343 413.629,246.207 411.770,250.430 406.836 C 255.632 400.759,256.000 398.154,256.000 367.408 L 256.000 340.033 242.550 326.603 C 235.153 319.217,228.698 313.173,228.207 313.173 C 227.715 313.173,226.567 313.718,225.656 314.384 C 224.087 315.530,223.978 317.143,223.573 344.981 L 223.147 374.368 183.145 341.661 C 161.144 323.672,141.547 308.181,139.595 307.236 C 133.373 304.224,127.773 303.787,95.457 303.787 L 64.000 303.787 64.000 256.000 L 64.000 208.213 89.966 208.213 C 112.433 208.213,116.112 208.033,117.272 206.872 C 118.010 206.135,118.613 204.882,118.613 204.089 C 118.613 203.296,112.561 196.603,105.164 189.217 L 91.714 175.787 72.950 175.885 C 62.630 175.939,52.843 176.255,51.200 176.588 M312.710 178.230 C 308.917 180.543,305.671 184.756,304.591 188.770 C 303.520 192.747,304.245 195.368,310.444 209.920 C 316.733 224.681,319.952 241.216,319.983 258.916 L 320.000 268.232 331.266 279.609 C 346.364 294.856,347.653 294.760,350.303 278.187 C 353.095 260.725,351.878 236.415,347.353 219.228 C 343.752 205.553,335.590 185.316,332.133 181.493 C 327.857 176.764,317.866 175.086,312.710 178.230 " stroke="none" fill-rule="evenodd" fill="black"></path></svg>