<svg xmlns="http://www.w3.org/2000/svg" width="512" height="512" viewBox="0 0 512 512"><path d="M338.846 96.523 C 336.775 96.917,333.511 98.275,331.593 99.542 C 329.676 100.809,307.948 118.386,283.309 138.603 L 238.511 175.360 200.535 175.787 L 162.560 176.213 157.675 178.612 C 154.989 179.931,151.458 182.568,149.828 184.471 C 144.050 191.222,144.213 189.141,144.213 256.000 C 144.213 322.859,144.050 320.778,149.828 327.529 C 151.458 329.432,154.989 332.069,157.675 333.388 L 162.560 335.787 200.533 336.213 L 238.507 336.640 284.160 374.171 C 309.269 394.813,331.698 412.652,334.002 413.813 C 342.923 418.310,355.434 415.613,362.172 407.742 C 368.195 400.705,367.787 411.748,367.787 256.000 C 367.787 131.173,367.639 115.070,366.460 111.612 C 362.824 100.938,350.643 94.283,338.846 96.523 M336.213 256.000 C 336.213 321.237,335.984 374.613,335.704 374.613 C 335.424 374.613,318.451 360.885,297.987 344.107 C 253.259 307.435,254.704 308.554,249.032 306.179 C 244.625 304.334,243.387 304.263,210.133 303.962 L 175.787 303.652 175.787 255.933 L 175.787 208.213 208.000 208.200 C 242.837 208.186,246.719 207.801,253.566 203.685 C 255.609 202.457,274.752 187.058,296.107 169.465 C 317.461 151.872,335.221 137.457,335.573 137.432 C 335.925 137.407,336.213 190.763,336.213 256.000 " stroke="none" fill-rule="evenodd" fill="black"></path></svg>