<svg xmlns="http://www.w3.org/2000/svg" width="512" height="512" viewBox="0 0 512 512"><path d="M291.265 96.488 C 289.306 96.863,286.569 97.755,285.183 98.472 C 283.797 99.189,261.825 116.856,236.357 137.733 L 190.050 175.690 152.412 175.952 C 114.941 176.212,114.753 176.222,110.313 178.230 C 104.823 180.712,99.782 186.034,97.626 191.623 C 96.082 195.628,96.000 198.882,96.000 256.427 L 96.000 317.013 97.966 321.280 C 101.310 328.538,107.035 333.361,114.511 335.218 C 117.240 335.896,129.884 336.213,154.202 336.213 L 189.888 336.213 235.531 373.737 C 261.996 395.494,283.145 412.254,285.867 413.626 C 297.009 419.243,310.811 414.752,317.057 403.476 L 319.573 398.933 319.573 256.000 L 319.573 113.067 317.013 108.439 C 312.015 99.404,301.514 94.530,291.265 96.488 M287.366 315.294 L 287.147 374.589 247.568 342.132 C 225.800 324.281,206.163 308.750,203.930 307.618 C 197.475 304.347,190.976 303.800,158.507 303.793 L 128.000 303.787 128.000 256.053 L 128.000 208.319 162.347 208.045 C 193.898 207.793,197.006 207.638,200.533 206.139 C 206.419 203.638,208.527 202.013,249.173 168.642 L 287.147 137.465 287.366 196.732 C 287.486 229.330,287.486 282.683,287.366 315.294 M379.449 176.830 C 374.869 178.043,369.904 183.024,368.659 187.656 C 367.501 191.964,368.059 196.049,370.445 200.725 C 373.860 207.421,378.198 219.139,380.165 226.987 C 387.001 254.257,384.148 281.395,371.567 308.755 C 367.984 316.548,367.391 319.628,368.606 324.142 C 371.245 333.941,382.610 338.771,391.820 334.008 C 395.325 332.195,398.239 327.849,402.472 318.119 C 418.083 282.236,420.043 245.064,408.221 209.067 C 403.334 194.184,397.683 182.513,394.030 179.756 C 391.492 177.841,385.653 175.676,383.573 175.880 C 383.104 175.926,381.248 176.353,379.449 176.830 " stroke="none" fill-rule="evenodd" fill="black"></path></svg>