<svg xmlns="http://www.w3.org/2000/svg" width="512" height="512" viewBox="0 0 512 512"><path d="M246.613 25.684 C 239.464 27.080,232.093 31.439,225.233 38.327 C 215.557 48.042,212.158 56.299,212.205 69.973 C 212.250 83.376,216.232 92.418,226.378 102.160 C 235.270 110.700,244.456 114.347,257.071 114.347 C 269.952 114.347,280.194 110.022,289.280 100.746 C 306.449 83.217,306.260 55.380,288.853 37.973 C 277.909 27.030,262.572 22.567,246.613 25.684 M196.059 128.154 C 184.412 129.667,172.427 135.802,159.844 146.693 C 145.497 159.111,126.380 184.828,114.534 207.646 L 111.360 213.760 111.360 254.720 L 111.360 295.680 113.395 299.231 C 117.258 305.975,124.376 309.131,131.413 307.222 C 136.092 305.952,141.985 300.209,142.802 296.122 C 143.109 294.588,143.360 277.138,143.360 257.343 L 143.360 221.352 147.874 213.716 C 157.723 197.057,167.446 184.030,177.453 174.086 L 184.747 166.838 185.252 225.712 C 185.800 289.451,185.687 287.880,190.755 302.085 C 192.010 305.602,194.051 310.387,195.292 312.717 C 196.532 315.048,207.489 329.640,219.641 345.144 L 241.736 373.333 270.162 430.608 C 285.797 462.110,299.577 489.058,300.785 490.494 C 307.727 498.743,322.033 496.729,326.826 486.827 C 330.359 479.530,330.615 480.183,300.732 420.267 L 273.493 365.653 273.058 269.227 C 272.647 178.285,272.533 172.533,271.042 168.107 C 267.605 157.902,264.297 152.509,256.855 144.981 C 244.211 132.190,234.381 128.351,212.907 127.815 C 206.336 127.652,198.754 127.804,196.059 128.154 M289.626 204.891 C 288.160 206.511,288.000 208.129,288.000 221.317 C 288.000 238.116,288.863 241.664,294.194 246.792 C 298.411 250.848,358.737 289.590,362.981 290.968 C 370.365 293.364,379.613 289.715,383.661 282.807 C 387.765 275.805,387.197 267.262,382.254 261.632 C 378.569 257.436,296.093 203.093,293.408 203.093 C 292.222 203.093,290.520 203.902,289.626 204.891 M220.725 385.920 C 215.891 390.361,156.399 465.743,155.049 469.137 C 150.335 480.990,159.057 493.227,172.219 493.227 C 180.522 493.227,179.495 494.275,209.978 454.687 C 225.509 434.517,238.803 416.612,239.519 414.898 C 241.579 409.967,240.589 404.557,235.950 395.394 C 233.712 390.975,230.920 386.604,229.745 385.680 C 226.919 383.457,223.302 383.553,220.725 385.920 " stroke="none" fill-rule="evenodd" fill="black"></path></svg>