<svg xmlns="http://www.w3.org/2000/svg" width="512" height="512" viewBox="0 0 512 512"><path d="M246.703 23.537 C 239.864 25.376,234.124 28.795,227.633 34.894 C 209.202 52.216,208.875 80.999,226.907 98.937 C 238.634 110.602,253.873 115.027,269.574 111.326 C 277.604 109.433,284.687 105.350,291.087 98.924 C 297.609 92.376,301.475 85.266,303.351 76.373 C 304.923 68.919,304.934 65.100,303.405 57.888 C 301.449 48.656,298.270 42.976,291.057 35.823 C 283.964 28.788,278.579 25.494,270.903 23.495 C 264.673 21.872,252.818 21.893,246.703 23.537 M195.413 127.975 C 193.771 128.858,174.718 147.369,153.075 169.111 C 116.338 206.013,113.658 208.906,112.755 212.645 C 112.095 215.372,111.787 231.086,111.787 261.925 L 111.787 307.200 128.000 307.200 L 144.213 307.200 144.213 265.167 L 144.213 223.134 165.547 201.813 L 186.880 180.493 186.883 229.126 C 186.887 281.694,187.196 286.387,191.516 299.338 C 195.507 311.304,198.904 316.514,221.972 346.036 L 244.635 375.040 276.017 438.613 C 293.276 473.579,307.493 502.294,307.609 502.425 C 307.966 502.830,336.213 489.106,336.213 488.528 C 336.213 488.229,322.380 459.977,305.472 425.746 L 274.730 363.507 274.744 269.007 C 274.761 164.055,275.030 169.319,269.011 157.013 C 264.582 147.961,253.063 136.466,243.943 131.997 C 234.710 127.473,228.196 126.319,212.053 126.346 C 200.340 126.366,197.976 126.597,195.413 127.975 M292.693 217.492 L 292.693 239.571 333.823 267.199 C 356.445 282.394,375.427 294.827,376.005 294.827 C 377.476 294.827,397.134 267.922,396.245 267.127 C 394.933 265.953,293.438 195.413,293.061 195.413 C 292.859 195.413,292.693 205.349,292.693 217.492 M193.456 431.277 L 153.618 471.727 164.294 485.037 C 170.166 492.357,175.076 498.347,175.206 498.347 C 175.648 498.347,248.746 423.038,249.033 422.287 C 249.375 421.389,234.612 390.827,233.835 390.827 C 233.537 390.827,215.367 409.029,193.456 431.277 " stroke="none" fill-rule="evenodd" fill="black"></path></svg>