<svg xmlns="http://www.w3.org/2000/svg" width="512" height="512" viewBox="0 0 512 512"><path d="M246.613 17.545 C 226.808 21.814,209.853 39.220,206.069 59.168 C 204.457 67.666,204.472 71.849,206.142 80.036 C 209.898 98.441,224.634 114.881,242.289 120.363 C 255.270 124.394,269.475 123.183,282.027 116.977 C 290.577 112.748,297.354 106.738,302.871 98.490 C 308.397 90.228,310.686 82.999,311.241 72.065 C 312.194 53.251,304.324 37.034,288.897 26.026 C 282.220 21.262,276.854 18.948,268.938 17.421 C 261.231 15.934,253.895 15.975,246.613 17.545 M267.520 50.669 C 275.366 54.369,279.040 60.397,279.040 69.572 C 279.040 74.850,278.697 76.168,276.267 80.220 C 272.483 86.531,267.092 89.837,259.834 90.299 C 250.986 90.863,245.050 87.742,239.902 79.823 C 237.953 76.824,237.661 75.481,237.669 69.547 C 237.678 61.985,238.626 59.504,243.340 54.698 C 249.499 48.419,259.290 46.788,267.520 50.669 M195.413 128.536 C 180.832 131.290,167.769 139.410,152.651 155.117 C 139.399 168.886,124.523 189.989,115.570 207.721 L 111.726 215.335 111.970 256.851 L 112.213 298.367 114.270 301.367 C 118.554 307.618,126.444 310.398,133.391 308.105 C 137.230 306.838,142.122 301.470,143.298 297.234 C 143.871 295.172,144.206 280.628,144.209 257.663 L 144.213 221.352 150.612 210.888 C 154.131 205.132,159.758 196.704,163.116 192.158 C 168.950 184.259,183.869 168.107,185.331 168.107 C 185.713 168.107,186.027 191.930,186.027 221.047 C 186.027 277.280,186.445 285.442,189.959 297.708 C 193.851 311.291,197.583 317.212,221.685 348.048 L 244.117 376.747 271.921 433.067 C 287.214 464.043,300.691 490.676,301.871 492.253 C 306.042 497.828,313.939 499.733,320.427 496.729 C 326.994 493.688,330.896 487.054,330.008 480.438 C 329.766 478.629,317.657 453.130,302.198 421.870 L 274.817 366.507 274.556 270.933 C 274.265 164.335,274.699 172.016,268.211 158.720 C 264.074 150.241,253.131 139.152,244.480 134.671 C 234.181 129.338,230.882 128.672,213.333 128.389 C 204.651 128.248,196.587 128.315,195.413 128.536 M228.267 162.464 C 233.242 164.820,237.126 168.690,239.926 174.080 L 241.920 177.920 242.157 250.007 C 242.294 291.874,242.077 321.745,241.638 321.261 C 238.277 317.549,227.386 303.092,225.350 299.639 C 223.956 297.275,221.935 292.728,220.860 289.537 L 218.904 283.733 218.642 222.080 L 218.380 160.427 221.190 160.435 C 222.735 160.440,225.920 161.353,228.267 162.464 M297.813 216.400 C 293.294 218.358,290.228 221.771,288.865 226.362 C 287.012 232.599,288.488 238.015,293.257 242.483 C 295.775 244.842,358.461 286.248,363.264 288.725 C 366.371 290.327,372.496 290.568,376.051 289.228 C 379.482 287.934,383.808 283.489,384.923 280.110 C 386.933 274.019,385.583 267.195,381.634 263.479 C 378.556 260.584,314.575 218.633,310.187 216.633 C 306.050 214.748,301.813 214.668,297.813 216.400 M216.668 385.981 C 212.799 388.018,208.043 394.650,164.939 458.117 L 154.880 472.927 154.893 478.172 C 154.903 482.154,155.383 484.189,156.887 486.623 C 162.252 495.303,175.046 496.661,181.904 489.278 C 184.462 486.526,235.684 411.688,238.183 407.053 C 240.388 402.963,240.249 397.105,237.835 392.454 C 236.337 389.569,234.812 388.147,231.282 386.347 C 225.659 383.479,221.611 383.377,216.668 385.981 " stroke="none" fill-rule="evenodd" fill="black"></path></svg>