<svg xmlns="http://www.w3.org/2000/svg" width="512" height="512" viewBox="0 0 512 512"><path d="M355.413 48.402 C 353.536 48.591,291.328 59.085,217.173 71.721 C 119.981 88.284,80.578 95.318,76.012 96.922 C 55.182 104.240,39.532 121.531,33.594 143.787 C 32.073 149.486,32.000 155.332,32.000 271.360 C 32.000 383.879,32.110 393.389,33.477 398.703 C 38.606 418.646,53.378 435.936,71.617 443.348 C 83.614 448.222,74.799 448.000,256.000 448.000 C 437.201 448.000,428.386 448.222,440.383 443.348 C 458.622 435.936,473.394 418.646,478.523 398.703 C 479.884 393.410,480.000 384.741,480.000 288.000 C 480.000 171.810,480.314 178.762,474.486 165.908 C 466.528 148.359,449.851 134.426,431.147 129.703 L 427.520 128.788 427.509 118.794 C 427.482 94.643,418.952 75.665,402.137 62.345 C 389.676 52.474,370.829 46.850,355.413 48.402 M375.727 83.479 C 382.836 86.981,389.052 93.062,392.193 99.586 C 394.364 104.095,394.606 105.572,394.931 116.267 L 395.287 128.000 243.416 128.000 C 159.887 128.000,89.667 128.203,87.372 128.451 L 83.200 128.902 85.760 127.546 C 87.264 126.749,143.390 116.732,221.867 103.254 C 372.000 77.470,365.282 78.334,375.727 83.479 M427.063 162.195 C 436.967 165.901,444.803 174.787,446.873 184.661 C 448.483 192.339,448.459 383.771,446.848 391.461 C 444.808 401.196,437.093 409.887,426.797 414.050 L 421.973 416.000 256.000 416.000 L 90.027 416.000 85.118 414.018 C 75.064 409.958,67.437 401.479,65.168 391.837 C 63.662 385.435,63.451 194.010,64.942 185.452 C 66.679 175.478,74.112 166.662,84.328 162.460 L 89.173 160.467 255.755 160.447 C 422.217 160.427,422.339 160.428,427.063 162.195 M360.743 256.872 C 347.110 260.316,337.272 271.853,336.401 285.417 C 335.883 293.484,337.283 299.123,341.373 305.451 C 352.689 322.959,377.345 324.855,391.553 309.310 C 397.328 302.991,399.651 296.879,399.651 288.000 C 399.651 275.393,393.157 264.908,381.923 259.377 C 376.000 256.461,366.716 255.363,360.743 256.872 " stroke="none" fill-rule="evenodd" fill="black"></path></svg>