<svg xmlns="http://www.w3.org/2000/svg" width="512" height="512" viewBox="0 0 512 512"><path d="M355.840 48.396 C 353.728 48.584,298.240 57.907,232.533 69.115 C 166.827 80.322,106.923 90.485,99.413 91.698 C 81.926 94.524,74.650 96.536,66.398 100.830 C 50.675 109.010,39.469 123.736,34.036 143.360 L 32.028 150.613 31.771 270.080 C 31.540 377.148,31.656 390.255,32.887 396.373 C 38.026 421.921,57.473 441.379,83.171 446.687 C 92.534 448.621,418.698 448.655,427.947 446.723 C 451.276 441.850,469.767 424.691,477.147 401.067 L 479.147 394.667 479.147 288.000 L 479.147 181.333 477.147 174.933 C 473.520 163.321,468.922 155.684,460.408 147.127 C 453.879 140.566,451.447 138.764,444.587 135.399 C 429.111 127.810,443.486 128.499,290.560 128.009 C 164.998 127.606,154.683 127.465,152.233 126.124 C 144.508 121.892,144.096 110.369,151.507 105.788 C 154.233 104.104,155.665 104.088,290.485 104.310 L 426.709 104.533 426.205 101.973 C 425.120 96.464,422.119 88.063,419.345 82.773 C 407.547 60.273,381.416 46.128,355.840 48.396 M380.978 258.861 C 401.558 268.282,406.196 295.783,389.793 311.126 C 375.191 324.785,352.122 322.081,341.373 305.451 C 329.376 286.889,339.172 262.322,360.743 256.872 C 366.117 255.515,375.733 256.459,380.978 258.861 " stroke="none" fill-rule="evenodd" fill="black"></path></svg>