<svg xmlns="http://www.w3.org/2000/svg" width="512" height="512" viewBox="0 0 512 512"><path d="M246.187 63.206 C 155.605 78.157,72.955 91.737,62.520 93.384 C 38.319 97.204,35.148 98.741,32.486 107.947 C 31.750 110.491,31.562 152.858,31.749 274.409 L 32.000 437.459 34.056 440.460 C 35.187 442.110,37.463 444.386,39.114 445.517 L 42.115 447.573 255.645 447.573 L 469.175 447.573 472.454 444.964 C 474.258 443.529,476.597 440.663,477.653 438.596 L 479.573 434.838 479.573 288.218 C 479.573 157.811,479.427 141.249,478.253 138.438 C 476.491 134.221,473.891 131.519,469.760 129.613 C 466.478 128.098,459.823 128.037,297.173 128.019 L 128.000 128.000 128.000 116.053 L 128.000 104.107 279.925 104.107 L 431.850 104.107 431.605 74.812 L 431.360 45.518 428.964 42.378 C 425.654 38.040,420.977 35.818,415.394 35.931 C 412.911 35.981,336.768 48.254,246.187 63.206 M380.978 258.861 C 401.558 268.282,406.196 295.783,389.793 311.126 C 375.191 324.785,352.122 322.081,341.373 305.451 C 329.376 286.889,339.172 262.322,360.743 256.872 C 366.117 255.515,375.733 256.459,380.978 258.861 " stroke="none" fill-rule="evenodd" fill="black"></path></svg>