<svg xmlns="http://www.w3.org/2000/svg" width="512" height="512" viewBox="0 0 512 512"><path d="M242.286 66.819 C 233.664 69.265,227.111 74.647,221.897 83.566 C 220.094 86.650,180.750 159.540,134.466 245.543 C 72.846 360.043,49.949 403.334,48.954 407.219 C 47.354 413.462,47.808 419.258,50.447 426.312 C 52.962 433.034,60.920 441.042,67.840 443.815 L 72.960 445.867 250.453 445.867 L 427.947 445.867 433.067 443.808 C 440.118 440.973,447.893 433.187,450.416 426.436 C 453.115 419.213,453.561 413.496,451.925 407.109 C 450.891 403.073,428.413 360.606,363.727 240.476 C 269.277 65.069,274.599 74.222,264.026 69.016 C 257.830 65.966,248.585 65.032,242.286 66.819 M259.049 175.334 C 264.930 177.784,270.333 184.360,271.709 190.744 C 272.015 192.165,270.889 222.272,269.207 257.648 C 266.729 309.746,265.895 322.471,264.817 324.611 C 262.570 329.069,259.252 331.928,254.786 333.255 C 247.228 335.499,239.860 332.091,236.086 324.604 C 234.267 320.993,228.115 194.758,229.507 189.589 C 232.850 177.171,247.030 170.329,259.049 175.334 M257.947 358.697 C 265.617 361.911,270.017 368.647,270.017 377.173 C 270.017 383.679,268.000 388.252,263.316 392.364 C 260.698 394.662,253.425 397.653,250.453 397.653 C 247.482 397.653,240.208 394.662,237.591 392.364 C 232.907 388.252,230.890 383.679,230.890 377.173 C 230.890 368.742,235.212 362.035,242.773 358.732 C 246.133 357.264,254.482 357.245,257.947 358.697 " stroke="none" fill-rule="evenodd" fill="black"></path></svg>