<svg xmlns="http://www.w3.org/2000/svg" width="512" height="512" viewBox="0 0 512 512"><path d="M256.290 54.527 C 253.830 56.818,43.447 447.790,42.917 451.053 C 42.570 453.195,43.005 454.325,45.064 456.630 L 47.647 459.520 258.703 459.764 C 374.784 459.898,471.051 459.776,472.629 459.494 C 476.720 458.761,479.573 455.613,479.573 451.831 C 479.573 449.375,458.358 409.322,374.125 252.752 C 316.129 144.949,267.723 55.883,266.558 54.827 C 263.864 52.387,258.747 52.238,256.290 54.527 M282.919 198.613 C 282.453 207.984,277.333 343.269,277.333 346.234 C 277.333 347.057,273.664 347.307,261.599 347.307 L 245.865 347.307 245.426 343.680 C 245.007 340.216,239.721 197.583,239.765 190.933 L 239.787 187.733 261.624 187.733 L 283.461 187.733 282.919 198.613 M281.600 391.253 L 281.600 411.307 261.547 411.307 L 241.493 411.307 241.493 391.253 L 241.493 371.200 261.547 371.200 L 281.600 371.200 281.600 391.253 " stroke="none" fill-rule="evenodd" fill="black"></path></svg>