<svg xmlns="http://www.w3.org/2000/svg" width="512" height="512" viewBox="0 0 512 512"><path d="M248.747 50.447 C 240.333 51.486,229.012 57.160,222.545 63.579 C 219.868 66.237,215.972 71.355,213.888 74.952 C 203.900 92.195,41.813 394.464,40.158 398.933 C 37.540 406.006,36.950 416.798,38.760 424.478 C 42.799 441.611,55.121 454.806,72.107 460.187 L 78.080 462.080 256.000 462.080 L 433.920 462.080 439.893 460.187 C 456.879 454.806,469.201 441.611,473.240 424.478 C 475.050 416.798,474.460 406.006,471.842 398.933 C 470.187 394.464,308.100 92.195,298.112 74.952 C 287.671 56.928,269.464 47.890,248.747 50.447 M264.846 84.522 C 266.641 85.752,269.260 89.041,271.262 92.580 C 279.307 106.798,440.996 407.696,441.579 409.533 C 443.915 416.895,439.410 426.503,432.371 429.170 C 428.990 430.451,83.010 430.451,79.629 429.170 C 71.206 425.978,67.466 415.032,71.822 406.320 C 80.866 388.236,243.264 88.077,244.907 86.409 C 248.205 83.061,251.620 81.862,256.987 82.169 C 260.373 82.362,262.719 83.064,264.846 84.522 M251.545 174.031 C 243.574 175.602,236.338 183.013,234.833 191.147 C 234.386 193.567,235.141 216.757,236.876 253.867 C 240.071 322.193,240.019 321.444,241.857 324.998 C 243.711 328.583,249.261 332.521,253.459 333.230 C 260.936 334.493,269.407 329.118,271.265 321.931 C 272.050 318.893,277.332 213.061,277.458 197.827 C 277.548 187.030,274.280 180.640,266.556 176.505 C 261.907 174.015,256.305 173.092,251.545 174.031 M247.893 359.150 C 240.708 362.446,236.195 369.379,236.214 377.093 C 236.228 382.754,237.239 385.680,240.684 390.029 C 248.081 399.368,263.990 399.415,271.189 390.120 C 274.605 385.709,275.857 382.108,275.810 376.831 C 275.713 366.092,266.956 357.584,256.000 357.584 C 253.256 357.584,249.889 358.235,247.893 359.150 " stroke="none" fill-rule="evenodd" fill="black"></path></svg>