<svg xmlns="http://www.w3.org/2000/svg" width="512" height="512" viewBox="0 0 512 512"><path d="M185.600 17.423 C 182.234 18.925,178.757 22.700,177.112 26.639 C 175.991 29.324,175.787 34.938,175.787 63.119 L 175.787 96.427 171.057 96.427 C 154.230 96.427,133.142 106.018,119.185 120.020 C 108.925 130.313,102.481 141.695,98.247 157.004 L 96.002 165.120 96.002 256.000 L 96.002 346.880 98.247 354.996 C 102.543 370.528,108.936 381.720,119.608 392.392 C 126.702 399.487,134.590 405.026,143.080 408.875 C 149.526 411.798,163.393 415.573,167.683 415.573 C 169.207 415.573,171.653 415.813,173.120 416.107 L 175.787 416.640 175.805 449.600 C 175.823 479.860,175.954 482.840,177.404 485.973 C 179.244 489.946,182.880 493.589,186.296 494.879 C 189.640 496.143,322.360 496.143,325.704 494.879 C 329.120 493.589,332.756 489.946,334.596 485.973 C 336.047 482.839,336.177 479.859,336.195 449.546 L 336.213 416.531 340.267 416.061 C 362.511 413.478,377.012 407.038,391.050 393.505 C 402.857 382.123,409.252 371.275,413.751 354.996 L 415.995 346.880 415.997 256.427 L 416.000 165.973 414.084 158.458 C 410.082 142.756,403.559 130.954,392.960 120.237 C 378.934 106.055,357.900 96.427,340.943 96.427 L 336.213 96.427 336.195 62.933 C 336.177 32.154,336.048 29.163,334.596 26.027 C 332.756 22.054,329.120 18.411,325.704 17.121 C 321.824 15.655,188.919 15.941,185.600 17.423 M338.347 122.259 C 346.155 124.514,359.917 131.672,365.813 136.545 C 373.470 142.873,379.238 150.294,384.045 160.000 C 391.711 175.481,391.253 169.386,391.253 256.000 C 391.253 342.614,391.711 336.519,384.045 352.000 C 381.720 356.693,377.862 362.901,375.471 365.794 C 363.262 380.566,345.282 389.927,325.733 391.689 C 314.386 392.713,197.614 392.713,186.267 391.689 C 166.718 389.927,148.738 380.566,136.529 365.794 C 134.138 362.901,130.280 356.693,127.955 352.000 C 120.289 336.519,120.747 342.614,120.747 256.000 C 120.747 169.386,120.289 175.481,127.955 160.000 C 134.957 145.862,144.688 135.779,158.048 128.816 C 174.740 120.118,170.966 120.427,258.133 120.617 C 326.527 120.766,333.683 120.912,338.347 122.259 M178.347 137.826 C 159.259 142.507,143.672 157.696,138.078 177.067 L 136.107 183.893 136.107 256.000 C 136.107 336.655,135.797 332.189,142.320 345.600 C 146.677 354.558,157.442 365.323,166.400 369.680 C 179.811 376.203,175.345 375.893,256.000 375.893 C 336.655 375.893,332.189 376.203,345.600 369.680 C 354.558 365.323,365.323 354.558,369.680 345.600 C 376.203 332.189,375.893 336.655,375.893 256.000 C 375.893 188.924,375.785 183.506,374.343 178.347 C 368.642 157.949,352.930 142.444,333.227 137.773 C 325.887 136.032,185.464 136.081,178.347 137.826 " stroke="none" fill-rule="evenodd" fill="black"></path></svg>