<svg xmlns="http://www.w3.org/2000/svg" width="512" height="512" viewBox="0 0 512 512"><path d="M175.787 56.277 L 175.787 96.341 147.413 96.597 L 119.040 96.853 114.318 99.172 C 104.782 103.856,98.010 113.151,96.365 123.816 C 95.829 127.288,95.609 176.868,95.761 259.840 L 96.000 390.400 97.855 394.926 C 101.448 403.688,108.386 410.614,117.074 414.111 C 121.294 415.809,123.431 415.954,148.693 416.252 L 175.787 416.571 175.787 456.179 L 175.787 495.787 256.000 495.787 L 336.213 495.787 336.213 456.179 L 336.213 416.571 363.307 416.252 C 388.569 415.954,390.706 415.809,394.926 414.111 C 403.614 410.614,410.552 403.688,414.145 394.926 L 416.000 390.400 416.239 259.840 C 416.391 176.868,416.171 127.288,415.635 123.816 C 413.990 113.151,407.218 103.856,397.682 99.172 L 392.960 96.853 364.587 96.597 L 336.213 96.341 336.213 56.277 L 336.213 16.213 256.000 16.213 L 175.787 16.213 175.787 56.277 M378.756 122.953 C 384.361 125.754,387.120 128.696,389.912 134.851 C 391.623 138.625,391.643 139.963,391.661 256.077 L 391.680 373.487 389.069 378.712 C 386.212 384.429,382.053 388.275,376.184 390.624 C 372.730 392.007,364.624 392.107,256.000 392.107 C 147.376 392.107,139.270 392.007,135.816 390.624 C 129.947 388.275,125.788 384.429,122.931 378.712 L 120.320 373.487 120.339 256.077 C 120.357 139.963,120.377 138.625,122.088 134.851 C 124.880 128.696,127.639 125.754,133.244 122.953 L 138.513 120.320 256.000 120.320 L 373.487 120.320 378.756 122.953 M138.175 138.735 L 136.107 140.937 136.107 256.049 L 136.107 371.161 138.473 373.527 L 140.839 375.893 256.000 375.893 L 371.161 375.893 373.527 373.527 L 375.893 371.161 375.893 256.049 L 375.893 140.937 373.825 138.735 L 371.756 136.533 256.000 136.533 L 140.244 136.533 138.175 138.735 " stroke="none" fill-rule="evenodd" fill="black"></path></svg>