<svg xmlns="http://www.w3.org/2000/svg" width="512" height="512" viewBox="0 0 512 512"><path d="M174.419 18.257 C 169.735 20.438,164.614 25.041,162.654 28.831 C 160.161 33.653,159.573 41.426,159.573 69.608 L 159.573 97.943 156.384 98.542 C 150.442 99.656,138.698 104.952,131.778 109.637 C 111.090 123.642,99.090 143.795,96.453 168.960 C 95.323 179.735,95.323 332.265,96.453 343.040 C 98.545 363.008,105.901 378.685,119.608 392.392 C 129.694 402.478,143.440 410.512,155.093 413.131 L 159.573 414.138 159.591 442.802 C 159.611 474.462,160.179 479.648,164.277 485.562 C 166.970 489.448,172.034 493.257,176.554 494.798 C 180.685 496.206,331.306 496.208,335.446 494.800 C 339.733 493.342,345.223 489.170,347.859 485.366 C 351.809 479.665,352.389 474.237,352.409 442.802 L 352.427 414.138 356.907 413.131 C 368.560 410.512,382.306 402.478,392.392 392.392 C 406.099 378.685,413.455 363.008,415.547 343.040 C 416.677 332.265,416.677 179.735,415.547 168.960 C 412.900 143.697,400.698 123.298,379.992 109.518 C 372.898 104.797,361.428 99.632,355.616 98.542 L 352.427 97.943 352.427 69.608 C 352.427 41.426,351.839 33.653,349.346 28.831 C 347.386 25.041,342.265 20.438,337.581 18.257 L 333.227 16.230 256.000 16.230 L 178.773 16.230 174.419 18.257 M320.000 72.107 L 320.000 96.427 256.000 96.427 L 192.000 96.427 192.000 72.107 L 192.000 47.787 256.000 47.787 L 320.000 47.787 320.000 72.107 M346.565 129.229 C 363.917 132.907,379.093 148.083,382.771 165.435 C 384.545 173.804,384.545 338.196,382.771 346.565 C 379.145 363.672,364.420 378.633,347.219 382.688 C 339.032 384.618,172.968 384.618,164.781 382.688 C 147.580 378.633,132.855 363.672,129.229 346.565 C 127.455 338.196,127.455 173.804,129.229 165.435 C 132.862 148.296,148.039 132.966,165.036 129.268 C 172.930 127.550,338.479 127.515,346.565 129.229 M320.000 440.320 L 320.000 464.213 256.000 464.213 L 192.000 464.213 192.000 440.320 L 192.000 416.427 256.000 416.427 L 320.000 416.427 320.000 440.320 " stroke="none" fill-rule="evenodd" fill="black"></path></svg>