<svg xmlns="http://www.w3.org/2000/svg" width="512" height="512" viewBox="0 0 512 512"><path d="M250.267 57.349 C 248.443 58.230,236.800 71.854,223.434 88.747 C 210.277 105.375,195.662 125.628,182.175 145.920 C 147.790 197.654,126.991 240.734,117.432 280.021 C 112.954 298.427,112.258 304.186,112.343 322.133 C 112.548 365.237,125.350 399.232,151.059 424.941 C 167.650 441.532,186.518 452.066,211.200 458.518 C 226.584 462.539,236.087 463.622,256.000 463.622 C 275.913 463.622,285.416 462.539,300.800 458.518 C 325.482 452.066,344.350 441.532,360.941 424.941 C 381.228 404.654,392.898 380.194,398.184 346.880 C 400.239 333.924,400.264 309.086,398.233 297.088 C 390.853 253.496,368.969 204.928,330.695 147.200 C 306.921 111.341,267.398 59.995,261.504 57.309 C 258.838 56.094,252.822 56.116,250.267 57.349 M350.547 317.997 C 351.626 318.680,353.287 320.467,354.238 321.966 C 355.773 324.386,355.917 325.656,355.518 333.227 C 353.594 369.685,327.326 401.002,291.427 409.637 C 287.680 410.538,281.344 411.500,277.347 411.775 C 271.317 412.190,269.575 412.011,267.110 410.724 C 260.801 407.429,258.385 399.469,261.931 393.654 C 264.291 389.784,266.372 388.942,276.480 387.770 C 292.584 385.903,304.025 380.535,314.453 369.953 C 324.593 359.665,330.590 346.720,331.617 332.906 C 332.439 321.855,333.842 319.250,340.210 316.960 C 343.761 315.683,347.485 316.056,350.547 317.997 " stroke="none" fill-rule="evenodd" fill="black"></path></svg>