<svg xmlns="http://www.w3.org/2000/svg" width="512" height="512" viewBox="0 0 512 512"><path d="M246.897 41.686 C 244.472 42.524,241.078 44.285,239.356 45.599 C 232.728 50.654,200.239 91.594,180.737 119.467 C 132.916 187.811,105.074 247.158,97.667 296.533 C 96.009 307.580,95.775 331.942,97.215 343.467 C 102.141 382.896,116.405 413.550,140.932 437.413 C 164.959 460.789,194.145 473.973,232.533 478.789 C 242.775 480.074,268.853 480.060,279.467 478.763 C 317.534 474.112,347.036 460.794,371.068 437.413 C 398.093 411.119,412.567 377.074,415.544 332.797 C 419.407 275.349,391.713 205.518,330.486 118.322 C 310.421 89.746,278.645 49.984,272.063 45.216 C 265.130 40.194,255.233 38.806,246.897 41.686 M266.000 86.400 C 308.770 138.367,348.150 200.612,366.426 245.134 C 383.199 285.994,387.589 319.821,380.573 354.133 C 368.485 413.253,322.370 448.000,256.000 448.000 C 231.911 448.000,211.003 443.659,192.427 434.800 C 163.811 421.153,142.742 395.890,133.993 364.731 C 130.052 350.695,128.555 338.769,128.539 321.280 C 128.524 304.990,129.591 296.351,133.542 280.765 C 144.994 235.587,178.353 174.623,226.004 111.787 C 238.621 95.150,255.016 75.093,256.000 75.093 C 256.382 75.093,260.882 80.181,266.000 86.400 M337.477 313.509 C 333.967 315.039,329.670 320.123,328.585 324.030 C 328.092 325.803,327.687 329.208,327.685 331.597 C 327.678 337.916,324.730 348.448,321.202 354.756 C 317.444 361.476,308.717 370.881,302.264 375.164 C 295.424 379.704,285.401 382.923,275.090 383.891 C 268.461 384.513,265.753 385.157,263.471 386.653 C 257.003 390.893,254.472 398.527,257.183 405.625 C 260.377 413.988,266.671 416.701,280.031 415.473 C 295.510 414.050,312.559 407.584,324.267 398.697 C 331.136 393.482,340.708 383.454,344.983 376.993 C 353.278 364.455,358.846 348.003,359.834 333.109 C 360.298 326.112,360.151 324.897,358.399 321.279 C 354.729 313.696,345.183 310.152,337.477 313.509 " stroke="none" fill-rule="evenodd" fill="black"></path></svg>