<svg xmlns="http://www.w3.org/2000/svg" width="512" height="512" viewBox="0 0 512 512"><path d="M246.955 54.307 C 198.829 110.894,157.965 172.444,136.148 221.208 C 113.181 272.539,107.198 310.414,115.631 351.081 C 129.560 418.252,181.941 458.240,256.000 458.240 C 327.097 458.240,378.780 421.074,394.629 358.548 C 405.603 315.258,400.157 275.551,375.770 221.028 C 354.053 172.475,313.099 110.809,265.045 54.307 C 260.398 48.844,256.328 44.373,256.000 44.373 C 255.672 44.373,251.602 48.844,246.955 54.307 M355.550 328.955 C 353.090 358.060,335.579 384.169,309.760 397.232 C 300.268 402.034,284.386 406.187,275.515 406.187 L 272.213 406.187 272.213 394.358 L 272.213 382.529 277.822 381.954 C 291.652 380.537,304.208 374.382,314.594 363.927 C 320.312 358.171,322.254 355.479,325.423 348.910 C 329.106 341.276,331.947 330.932,331.947 325.156 L 331.947 322.560 344.019 322.560 L 356.090 322.560 355.550 328.955 " stroke="none" fill-rule="evenodd" fill="black"></path></svg>