<svg xmlns="http://www.w3.org/2000/svg" width="512" height="512" viewBox="0 0 512 512"><path d="M237.227 93.542 C 182.827 97.465,132.293 114.457,88.320 143.611 C 69.046 156.390,51.795 170.741,49.710 175.731 C 47.779 180.354,48.618 187.705,51.511 191.498 C 55.931 197.292,63.790 199.510,70.286 196.796 C 71.837 196.148,75.760 193.341,79.006 190.559 C 128.491 148.129,190.159 125.440,256.000 125.440 C 299.428 125.440,336.846 134.093,375.893 153.166 C 396.724 163.341,416.126 176.042,432.994 190.545 C 436.240 193.335,440.163 196.148,441.714 196.796 C 451.368 200.829,462.322 194.262,463.179 183.927 C 463.907 175.154,462.101 172.704,444.675 158.822 C 401.457 124.392,350.099 102.864,293.610 95.501 C 280.766 93.827,248.718 92.713,237.227 93.542 M237.227 180.170 C 195.454 183.583,153.951 200.157,120.747 226.685 C 108.717 236.296,104.333 240.898,103.200 245.107 C 101.725 250.581,102.865 255.565,106.516 259.610 C 110.177 263.668,113.776 265.387,118.613 265.387 C 123.445 265.387,126.718 263.748,132.989 258.191 C 167.419 227.678,209.823 211.627,256.000 211.627 C 302.100 211.627,344.638 227.729,379.011 258.191 C 385.282 263.748,388.555 265.387,393.387 265.387 C 398.214 265.387,401.822 263.670,405.455 259.643 C 409.208 255.484,410.268 250.767,408.705 245.184 C 407.430 240.631,401.761 234.834,388.484 224.508 C 346.010 191.473,292.142 175.683,237.227 180.170 M244.260 266.244 C 217.658 268.537,189.838 280.266,171.192 297.048 C 165.656 302.031,163.840 305.382,163.840 310.613 C 163.840 317.681,168.886 324.115,175.911 326.007 C 182.348 327.740,183.630 327.175,199.003 315.837 C 207.239 309.763,220.596 303.403,230.966 300.619 C 238.684 298.546,240.701 298.365,256.000 298.365 C 271.299 298.365,273.316 298.546,281.034 300.619 C 291.404 303.403,304.761 309.763,312.997 315.837 C 328.384 327.186,329.648 327.741,336.126 325.997 C 340.644 324.780,346.049 319.972,347.358 316.004 C 348.756 311.770,347.949 305.247,345.613 301.893 C 342.262 297.079,329.869 287.797,318.293 281.430 C 296.886 269.656,269.602 264.059,244.260 266.244 M245.190 353.958 C 231.066 358.994,222.060 374.154,224.454 388.863 C 228.648 414.630,260.051 424.861,278.456 406.456 C 294.014 390.899,289.591 364.922,269.730 355.205 C 263.501 352.157,251.893 351.567,245.190 353.958 " stroke="none" fill-rule="evenodd" fill="black"></path></svg>