<svg xmlns="http://www.w3.org/2000/svg" width="512" height="512" viewBox="0 0 512 512"><path d="M243.200 97.795 C 203.004 99.906,165.680 108.667,130.735 124.195 C 99.924 137.885,74.069 154.981,44.636 181.126 C 35.048 189.643,34.971 189.741,36.523 191.502 C 51.866 208.914,59.512 217.542,61.037 219.168 L 62.908 221.162 72.200 212.845 C 110.415 178.640,146.381 158.918,190.945 147.729 C 215.889 141.467,225.168 140.433,256.427 140.433 C 280.424 140.434,285.153 140.661,295.450 142.308 C 324.923 147.024,350.592 155.209,376.262 168.077 C 399.900 179.927,418.272 192.906,443.222 215.381 C 448.872 220.470,449.900 221.090,450.799 219.952 C 451.372 219.227,457.462 212.354,464.333 204.677 C 471.205 197.001,476.891 190.406,476.970 190.023 C 477.151 189.149,460.729 174.509,448.853 164.957 C 403.992 128.872,347.703 105.649,290.133 99.473 C 278.194 98.193,252.875 97.287,243.200 97.795 M242.773 184.420 C 198.135 186.613,153.257 203.879,117.333 232.679 C 109.400 239.039,90.373 256.410,89.752 257.860 C 89.601 258.212,95.518 264.946,102.900 272.824 C 110.283 280.701,116.623 287.489,116.991 287.907 C 117.358 288.325,122.577 284.150,128.589 278.629 C 141.509 266.766,150.610 259.544,160.110 253.618 C 213.290 220.445,279.676 216.978,335.787 244.443 C 354.266 253.488,366.898 262.615,386.987 281.438 L 394.667 288.634 403.871 278.930 C 408.933 273.593,415.370 266.673,418.176 263.552 L 423.278 257.877 413.666 248.906 C 399.463 235.651,391.686 229.373,379.079 220.986 C 338.461 193.963,293.581 181.923,242.773 184.420 M250.880 270.281 C 221.519 271.535,191.895 282.815,169.813 301.147 C 161.066 308.410,151.040 317.646,151.040 318.442 C 151.040 319.384,177.384 349.013,178.221 349.013 C 178.539 349.013,183.209 345.117,188.599 340.354 C 210.837 320.707,226.912 313.594,251.372 312.579 C 281.190 311.341,300.070 318.816,325.782 342.039 C 331.724 347.405,334.150 349.107,335.027 348.524 C 336.582 347.489,361.813 318.960,361.813 318.236 C 361.813 317.261,342.033 300.386,334.575 294.999 C 311.647 278.435,279.846 269.043,250.880 270.281 M243.627 363.924 C 233.636 366.112,222.560 372.364,215.161 379.992 L 211.442 383.826 233.366 408.020 C 245.424 421.326,255.608 432.213,255.997 432.213 C 256.386 432.213,265.616 422.421,276.508 410.453 C 287.401 398.485,297.322 387.601,298.556 386.266 L 300.800 383.838 294.537 377.949 C 281.038 365.256,261.774 359.949,243.627 363.924 " stroke="none" fill-rule="evenodd" fill="black"></path></svg>