<svg xmlns="http://www.w3.org/2000/svg" width="512" height="512" viewBox="0 0 512 512"><path d="M243.200 97.795 C 176.107 101.318,114.736 124.236,64.000 164.713 C 46.239 178.883,43.520 182.463,43.520 191.675 C 43.520 203.554,52.559 212.602,64.427 212.602 C 70.561 212.602,74.183 210.870,82.246 204.080 C 122.199 170.438,166.358 150.169,216.516 142.451 C 231.434 140.156,266.201 139.237,281.283 140.740 C 337.079 146.299,386.313 167.102,429.653 203.433 C 440.135 212.219,446.408 214.170,454.733 211.233 C 466.609 207.043,472.252 193.505,466.810 182.262 C 465.266 179.073,462.462 176.194,454.300 169.420 C 406.711 129.922,350.525 106.033,289.707 99.440 C 278.160 98.189,252.797 97.292,243.200 97.795 M241.488 184.342 C 196.556 187.147,152.557 204.293,117.333 232.726 C 105.505 242.273,102.083 245.629,99.989 249.735 C 97.298 255.009,96.878 259.299,98.502 264.888 C 101.158 274.022,109.118 280.081,118.419 280.046 C 124.975 280.021,128.217 278.482,136.194 271.609 C 150.605 259.191,160.647 252.443,176.466 244.547 C 192.263 236.661,207.555 231.678,226.987 228.084 C 238.612 225.934,274.277 225.954,285.867 228.116 C 321.643 234.792,350.748 248.878,377.215 272.326 C 383.966 278.306,387.820 280.038,394.316 280.006 C 406.106 279.950,414.683 271.098,414.683 258.987 C 414.683 252.031,412.683 248.064,406.108 241.977 C 379.009 216.888,341.017 197.088,304.640 189.096 C 285.198 184.824,261.880 183.069,241.488 184.342 M246.187 270.575 C 228.669 271.750,211.894 276.319,196.213 284.186 C 177.359 293.644,162.530 305.557,159.953 313.314 C 155.954 325.356,163.050 337.800,175.507 340.587 C 183.378 342.349,187.736 340.566,200.960 330.172 C 205.966 326.238,216.092 320.812,223.946 317.856 C 235.202 313.619,240.874 312.744,256.853 312.780 C 270.424 312.811,272.565 313.027,280.320 315.151 C 291.607 318.242,304.133 324.489,313.693 331.792 C 323.043 338.936,323.804 339.362,329.301 340.541 C 341.337 343.123,353.564 332.771,353.564 320.000 C 353.564 310.665,348.352 304.110,332.419 293.406 C 306.663 276.103,277.778 268.455,246.187 270.575 M246.480 362.963 C 237.644 366.232,230.945 372.289,227.102 380.484 C 225.167 384.611,224.853 386.411,224.853 393.387 C 224.853 400.382,225.165 402.157,227.124 406.336 C 228.372 409.000,230.997 412.919,232.957 415.045 C 245.241 428.371,265.973 428.730,278.851 415.839 C 291.339 403.339,291.335 383.468,278.842 370.934 C 272.718 364.790,266.709 362.310,257.280 362.034 C 252.398 361.891,248.463 362.229,246.480 362.963 " stroke="none" fill-rule="evenodd" fill="black"></path></svg>