<svg xmlns="http://www.w3.org/2000/svg" width="512" height="512" viewBox="0 0 512 512"><path d="M107.058 65.604 C 103.024 67.436,99.484 71.341,98.280 75.285 C 97.186 78.870,95.934 109.385,96.222 125.440 C 97.427 192.691,124.116 243.600,171.520 269.071 C 189.368 278.661,207.876 283.885,235.733 287.196 L 239.787 287.678 239.787 352.052 L 239.787 416.427 197.946 416.427 C 151.773 416.427,152.699 416.327,147.869 421.828 C 141.333 429.272,143.958 441.832,152.960 446.190 L 156.699 448.000 256.000 448.000 L 355.301 448.000 359.040 446.190 C 368.042 441.832,370.667 429.272,364.131 421.828 C 359.301 416.327,360.227 416.427,314.054 416.427 L 272.213 416.427 272.213 352.052 L 272.213 287.678 276.267 287.196 C 304.124 283.885,322.632 278.661,340.480 269.071 C 387.884 243.600,414.573 192.691,415.778 125.440 C 416.066 109.385,414.814 78.870,413.720 75.285 C 412.516 71.341,408.976 67.436,404.942 65.604 C 401.639 64.104,395.333 64.037,256.000 64.037 C 116.667 64.037,110.361 64.104,107.058 65.604 M382.895 99.627 C 383.727 103.553,383.703 138.616,382.865 141.867 L 382.261 144.213 256.000 144.213 L 129.739 144.213 129.135 141.867 C 128.297 138.616,128.273 103.553,129.105 99.627 L 129.784 96.427 256.000 96.427 L 382.216 96.427 382.895 99.627 M374.253 181.566 C 357.742 230.111,316.611 256.000,256.000 256.000 C 195.389 256.000,154.258 230.111,137.747 181.566 L 135.782 175.787 256.000 175.787 L 376.218 175.787 374.253 181.566 " stroke="none" fill-rule="evenodd" fill="black"></path></svg>