<svg xmlns="http://www.w3.org/2000/svg" width="512" height="512" viewBox="0 0 512 512"><path d="M107.058 65.604 C 103.022 67.437,99.482 71.343,98.283 75.285 C 97.167 78.952,95.947 108.576,96.199 125.867 C 96.528 148.399,99.772 168.571,106.219 188.160 C 114.533 213.424,125.744 231.723,143.102 248.364 C 165.250 269.597,192.936 281.889,228.661 286.352 C 234.040 287.024,238.744 287.573,239.114 287.573 C 239.484 287.573,239.787 316.565,239.787 352.000 L 239.787 416.427 197.946 416.427 C 151.773 416.427,152.699 416.327,147.869 421.828 C 141.333 429.272,143.958 441.832,152.960 446.190 L 156.699 448.000 256.000 448.000 L 355.301 448.000 359.040 446.190 C 364.745 443.428,367.360 438.879,367.360 431.715 C 367.360 426.585,367.080 425.622,364.739 422.693 C 359.556 416.207,361.351 416.429,314.240 416.428 L 272.213 416.427 272.213 352.000 C 272.213 316.565,272.516 287.573,272.886 287.573 C 273.256 287.573,277.960 287.024,283.339 286.352 C 310.489 282.960,333.432 274.818,352.853 261.683 C 364.207 254.004,379.601 238.270,387.662 226.105 C 405.468 199.234,415.164 164.821,415.786 126.293 C 416.060 109.378,414.824 78.919,413.718 75.285 C 412.517 71.342,408.977 67.437,404.942 65.604 C 401.639 64.104,395.333 64.037,256.000 64.037 C 116.667 64.037,110.361 64.104,107.058 65.604 M382.891 99.627 C 383.725 103.579,383.773 140.663,382.947 142.720 C 382.379 144.133,375.535 144.213,256.043 144.213 L 129.739 144.213 129.102 141.867 C 128.254 138.741,128.265 103.695,129.115 99.627 L 129.784 96.427 256.000 96.427 L 382.216 96.427 382.891 99.627 " stroke="none" fill-rule="evenodd" fill="black"></path></svg>