<svg xmlns="http://www.w3.org/2000/svg" width="512" height="512" viewBox="0 0 512 512"><path d="M60.587 89.327 L 60.587 112.094 148.053 199.746 L 235.520 287.398 235.520 346.792 L 235.520 406.187 180.053 406.187 L 124.587 406.187 124.587 427.093 L 124.587 448.000 256.853 448.000 L 389.120 448.000 389.120 427.093 L 389.120 406.187 333.653 406.187 L 278.187 406.187 278.187 346.876 L 278.187 287.565 365.653 199.796 L 453.120 112.028 453.120 89.294 L 453.120 66.560 256.853 66.560 L 60.587 66.560 60.587 89.327 M378.027 127.573 L 358.841 146.773 256.853 146.773 L 154.866 146.773 135.680 127.573 L 116.494 108.373 256.853 108.373 L 397.212 108.373 378.027 127.573 " stroke="none" fill-rule="evenodd" fill="black"></path></svg>