<svg xmlns="http://www.w3.org/2000/svg" width="512" height="512" viewBox="0 0 512 512"><path d="M243.627 1.345 C 223.914 5.698,207.206 21.842,201.726 41.828 C 199.335 50.552,199.712 64.247,202.588 73.143 C 210.010 96.094,231.700 111.787,256.000 111.787 C 280.299 111.787,301.979 96.102,309.415 73.143 C 312.271 64.325,312.638 50.642,310.253 41.828 C 305.265 23.385,290.681 8.161,272.640 2.563 C 264.708 0.102,251.724 -0.443,243.627 1.345 M267.674 35.230 C 272.175 38.085,275.234 41.301,277.590 45.653 C 279.040 48.334,279.440 50.533,279.452 55.893 C 279.465 61.966,279.174 63.238,276.819 67.413 C 275.363 69.995,272.554 73.351,270.576 74.873 C 255.609 86.384,234.034 76.913,232.344 58.088 C 231.549 49.235,235.558 40.889,242.830 36.259 C 248.348 32.744,249.490 32.466,257.280 32.733 C 262.956 32.928,264.708 33.349,267.674 35.230 M193.280 129.228 C 174.640 132.700,157.306 146.270,149.784 163.277 C 147.271 168.959,121.606 255.069,120.238 262.408 C 117.570 276.725,127.269 295.604,140.742 302.318 C 143.183 303.534,147.773 305.198,150.940 306.014 L 156.700 307.497 150.479 328.042 C 147.016 339.481,144.249 350.209,144.236 352.247 C 144.212 356.128,146.399 361.322,149.029 363.630 C 153.410 367.475,155.283 367.787,174.038 367.787 L 192.000 367.787 192.000 422.647 C 192.000 469.315,192.197 478.268,193.316 482.594 C 196.682 495.599,208.366 507.280,221.406 510.676 C 231.496 513.303,242.092 512.017,251.259 507.052 L 256.000 504.484 260.741 507.052 C 269.908 512.017,280.504 513.303,290.594 510.676 C 303.634 507.280,315.318 495.599,318.684 482.594 C 319.803 478.268,320.000 469.315,320.000 422.647 L 320.000 367.787 337.962 367.787 C 356.717 367.787,358.590 367.475,362.971 363.630 C 365.601 361.322,367.788 356.128,367.764 352.247 C 367.751 350.209,364.984 339.481,361.521 328.042 L 355.300 307.497 361.060 306.014 C 373.363 302.844,382.320 295.915,387.367 285.663 C 391.394 277.484,392.584 271.362,391.628 263.750 C 390.570 255.334,365.098 169.461,361.359 161.707 C 355.733 150.038,346.167 140.545,333.904 134.462 C 321.387 128.252,324.494 128.506,258.560 128.301 C 212.785 128.158,197.890 128.370,193.280 129.228 M316.344 161.810 C 322.061 163.748,327.156 167.641,330.627 172.725 C 333.109 176.361,335.747 184.329,346.849 221.725 C 354.141 246.287,360.107 267.113,360.107 268.005 C 360.107 268.897,359.003 270.861,357.655 272.371 C 354.478 275.926,350.027 276.175,346.828 272.976 C 344.215 270.362,343.481 268.187,329.774 222.392 C 323.750 202.264,318.031 184.636,317.064 183.217 C 310.430 173.478,295.361 174.018,290.218 184.179 C 286.817 190.900,286.156 188.080,308.871 263.833 C 320.624 303.031,330.240 335.352,330.240 335.658 C 330.240 335.963,296.832 336.213,256.000 336.213 C 215.168 336.213,181.760 335.963,181.760 335.658 C 181.760 335.352,191.376 303.031,203.129 263.833 C 225.844 188.080,225.183 190.900,221.782 184.179 C 216.639 174.018,201.570 173.478,194.936 183.217 C 193.969 184.636,188.250 202.264,182.226 222.392 C 168.519 268.187,167.785 270.362,165.172 272.976 C 161.973 276.175,157.522 275.926,154.345 272.371 C 152.997 270.861,151.893 268.908,151.893 268.030 C 151.893 266.677,167.408 213.374,175.886 185.600 C 179.006 175.381,182.257 169.975,187.600 166.124 C 195.768 160.236,192.377 160.519,255.330 160.471 C 305.660 160.432,312.734 160.587,316.344 161.810 M239.768 421.333 C 239.750 470.786,239.636 475.027,238.271 476.799 C 235.163 480.837,227.623 480.538,225.347 476.286 C 224.717 475.108,224.427 457.735,224.427 421.176 L 224.427 367.787 232.107 367.787 L 239.787 367.787 239.768 421.333 M287.573 421.176 C 287.573 457.735,287.283 475.108,286.653 476.286 C 284.377 480.538,276.837 480.837,273.729 476.799 C 272.364 475.027,272.250 470.786,272.232 421.333 L 272.213 367.787 279.893 367.787 L 287.573 367.787 287.573 421.176 " stroke="none" fill-rule="evenodd" fill="black"></path></svg>