<svg xmlns="http://www.w3.org/2000/svg" width="512" height="512" viewBox="0 0 512 512"><path d="M244.480 1.263 C 224.497 5.662,208.785 19.701,202.513 38.760 C 199.348 48.377,199.172 62.275,202.096 71.680 C 206.689 86.454,217.145 99.076,230.204 105.613 C 247.152 114.096,267.125 113.824,282.880 104.896 C 296.510 97.172,306.737 83.638,310.236 68.693 C 312.004 61.142,311.552 45.979,309.370 39.680 C 305.899 29.657,302.631 24.403,295.242 16.966 C 289.296 10.980,286.592 8.965,280.715 6.142 C 268.857 0.446,256.035 -1.281,244.480 1.263 M186.377 129.266 C 174.878 131.768,162.290 141.259,156.797 151.566 C 155.517 153.968,145.993 184.112,135.631 218.553 C 118.978 273.904,116.839 281.681,117.203 285.544 C 117.929 293.254,122.594 299.756,129.466 302.636 C 133.016 304.124,140.930 304.112,144.516 302.613 C 148.611 300.902,153.094 296.663,154.736 292.949 C 155.524 291.166,162.485 268.616,170.204 242.837 C 179.086 213.178,184.821 195.386,185.824 194.383 C 186.696 193.512,188.751 192.581,190.392 192.315 C 194.734 191.610,198.827 195.146,198.827 199.603 C 198.827 201.355,188.843 236.082,176.640 276.776 C 164.437 317.469,154.455 351.234,154.458 351.808 C 154.472 354.755,156.554 359.643,158.967 362.390 C 163.334 367.365,165.246 367.787,183.412 367.787 L 199.626 367.787 199.867 429.440 L 200.107 491.093 202.763 496.640 C 207.714 506.977,214.250 511.573,224.000 511.573 C 228.969 511.573,230.639 511.182,233.937 509.243 C 238.824 506.370,241.952 502.752,244.830 496.640 L 247.040 491.947 247.275 429.867 L 247.510 367.787 255.568 367.787 L 263.626 367.787 263.867 429.440 L 264.107 491.093 266.763 496.640 C 271.714 506.977,278.250 511.573,288.000 511.573 C 292.969 511.573,294.639 511.182,297.937 509.243 C 302.824 506.370,305.952 502.752,308.830 496.640 L 311.040 491.947 311.275 429.867 L 311.510 367.787 328.597 367.787 C 346.410 367.787,348.383 367.447,352.731 363.630 C 355.302 361.374,357.547 356.163,357.547 352.450 C 357.547 350.392,348.552 319.038,335.321 274.976 C 312.207 198.004,312.071 197.448,315.593 194.261 C 319.489 190.735,326.526 192.168,328.383 196.866 C 328.901 198.179,334.546 216.725,340.927 238.080 C 358.765 297.778,357.220 293.231,361.091 297.430 C 367.615 304.507,377.958 305.860,386.268 300.722 C 391.715 297.354,395.514 290.298,395.352 283.850 C 395.205 277.979,359.377 158.704,355.587 151.467 C 349.870 140.549,337.001 131.139,324.750 128.918 C 316.841 127.484,193.137 127.796,186.377 129.266 " stroke="none" fill-rule="evenodd" fill="black"></path></svg>