<svg xmlns="http://www.w3.org/2000/svg" width="512" height="512" viewBox="0 0 512 512"><path d="M244.480 1.263 C 224.497 5.662,208.785 19.701,202.513 38.760 C 199.348 48.377,199.172 62.275,202.096 71.680 C 206.689 86.454,217.145 99.076,230.204 105.613 C 247.152 114.096,267.125 113.824,282.880 104.896 C 296.510 97.172,306.737 83.638,310.236 68.693 C 312.004 61.142,311.552 45.979,309.370 39.680 C 305.899 29.657,302.631 24.403,295.242 16.966 C 289.296 10.980,286.592 8.965,280.715 6.142 C 268.857 0.446,256.035 -1.281,244.480 1.263 M186.075 128.931 C 174.553 131.190,161.451 141.093,155.888 151.748 C 153.825 155.700,146.595 178.566,132.233 226.560 C 120.857 264.576,111.506 296.198,111.454 296.832 C 111.390 297.618,118.487 300.131,133.863 304.764 C 146.239 308.494,156.564 311.347,156.807 311.105 C 157.049 310.862,165.398 283.502,175.360 250.304 C 185.321 217.107,193.832 189.825,194.272 189.678 C 194.712 189.531,196.449 189.898,198.131 190.492 L 201.190 191.573 175.312 277.760 C 161.079 325.163,149.212 364.811,148.941 365.867 L 148.447 367.787 174.064 367.787 L 199.680 367.787 199.680 439.893 L 199.680 512.000 225.707 512.000 L 251.733 512.000 251.733 439.893 L 251.733 367.787 255.573 367.787 L 259.413 367.787 259.413 439.893 L 259.413 512.000 285.440 512.000 L 311.467 512.000 311.467 439.893 L 311.467 367.787 337.067 367.787 C 353.826 367.787,362.667 367.487,362.667 366.920 C 362.667 366.443,351.176 327.755,337.132 280.947 C 323.087 234.138,311.340 194.808,311.026 193.547 C 310.498 191.424,310.719 191.184,314.034 190.291 C 316.002 189.761,317.751 189.467,317.921 189.637 C 318.091 189.807,326.349 217.000,336.272 250.066 C 346.195 283.132,354.581 310.476,354.908 310.829 C 355.723 311.709,399.461 298.544,399.949 297.272 C 400.542 295.727,359.422 159.107,356.450 152.747 C 353.203 145.799,344.710 137.162,337.297 133.270 C 327.323 128.033,327.148 128.022,255.147 128.108 C 219.243 128.152,188.160 128.522,186.075 128.931 " stroke="none" fill-rule="evenodd" fill="black"></path></svg>